<?xml version="1.0" encoding="UTF-8" standalone="no"?>
<!DOCTYPE svg PUBLIC "-//W3C//DTD SVG 1.1//EN"
 "http://www.w3.org/Graphics/SVG/1.1/DTD/svg11.dtd">
<!-- Generated by graphviz version 2.40.1 (0)
 -->
<!-- Title: CDPL.Math.Vector2DArray Pages: 1 -->
<svg width="608pt" height="154pt"
 viewBox="0.00 0.00 608.00 153.50" xmlns="http://www.w3.org/2000/svg" xmlns:xlink="http://www.w3.org/1999/xlink">
<g id="graph0" class="graph" transform="scale(1 1) rotate(0) translate(4 149.5)">
<title>CDPL.Math.Vector2DArray</title>
<!-- Node1 -->
<g id="node1" class="node">
<title>Node1</title>
<g id="a_node1"><a xlink:title="An array of Math.Vector2D objects.">
<polygon fill="#bfbfbf" stroke="#000000" points="94,-57.5 94,-76.5 237,-76.5 237,-57.5 94,-57.5"/>
<text text-anchor="middle" x="165.5" y="-64.5" font-family="Helvetica,sans-Serif" font-size="10.00" fill="#000000">CDPL.Math.Vector2DArray</text>
</a>
</g>
</g>
<!-- Node3 -->
<g id="node3" class="node">
<title>Node3</title>
<g id="a_node3"><a xlink:href="classCDPL_1_1Vis_1_1PointArray2D.html" target="_top" xlink:title="Stores a set of points in 2D space.">
<polygon fill="none" stroke="#000000" points="273,-57.5 273,-76.5 401,-76.5 401,-57.5 273,-57.5"/>
<text text-anchor="middle" x="337" y="-64.5" font-family="Helvetica,sans-Serif" font-size="10.00" fill="#000000">CDPL.Vis.PointArray2D</text>
</a>
</g>
</g>
<!-- Node1&#45;&gt;Node3 -->
<g id="edge2" class="edge">
<title>Node1&#45;&gt;Node3</title>
<path fill="none" stroke="#191970" d="M247.2944,-67C255.8998,-67 264.5583,-67 272.9225,-67"/>
<polygon fill="#191970" stroke="#191970" points="247.2378,-63.5001 237.2377,-67 247.2377,-70.5001 247.2378,-63.5001"/>
</g>
<!-- Node2 -->
<g id="node2" class="node">
<title>Node2</title>
<g id="a_node2"><a xlink:title=" ">
<polygon fill="none" stroke="#bfbfbf" points="0,-57.5 0,-76.5 58,-76.5 58,-57.5 0,-57.5"/>
<text text-anchor="middle" x="29" y="-64.5" font-family="Helvetica,sans-Serif" font-size="10.00" fill="#000000">instance</text>
</a>
</g>
</g>
<!-- Node2&#45;&gt;Node1 -->
<g id="edge1" class="edge">
<title>Node2&#45;&gt;Node1</title>
<path fill="none" stroke="#191970" d="M68.4233,-67C76.4605,-67 85.1511,-67 93.9153,-67"/>
<polygon fill="#191970" stroke="#191970" points="68.2827,-63.5001 58.2827,-67 68.2826,-70.5001 68.2827,-63.5001"/>
</g>
<!-- Node4 -->
<g id="node4" class="node">
<title>Node4</title>
<g id="a_node4"><a xlink:href="classCDPL_1_1Vis_1_1LineSegmentListPrimitive2D.html" target="_top" xlink:title="A graphics primitive representing a list of disjoint line segments.">
<polygon fill="none" stroke="#000000" points="446.5,-115 446.5,-145 590.5,-145 590.5,-115 446.5,-115"/>
<text text-anchor="start" x="454.5" y="-133" font-family="Helvetica,sans-Serif" font-size="10.00" fill="#000000">CDPL.Vis.LineSegmentList</text>
<text text-anchor="middle" x="518.5" y="-122" font-family="Helvetica,sans-Serif" font-size="10.00" fill="#000000">Primitive2D</text>
</a>
</g>
</g>
<!-- Node3&#45;&gt;Node4 -->
<g id="edge3" class="edge">
<title>Node3&#45;&gt;Node4</title>
<path fill="none" stroke="#191970" d="M369.9895,-80.1591C389.388,-87.7403 414.4569,-97.2686 437,-105 446.7997,-108.3609 457.3338,-111.7531 467.4679,-114.908"/>
<polygon fill="#191970" stroke="#191970" points="371.2697,-76.9017 360.6824,-76.5013 368.7093,-83.4166 371.2697,-76.9017"/>
</g>
<!-- Node5 -->
<g id="node5" class="node">
<title>Node5</title>
<g id="a_node5"><a xlink:href="classCDPL_1_1Vis_1_1PointListPrimitive2D.html" target="_top" xlink:title="A graphics primitive representing a list of points.">
<polygon fill="none" stroke="#000000" points="437,-76.5 437,-95.5 600,-95.5 600,-76.5 437,-76.5"/>
<text text-anchor="middle" x="518.5" y="-83.5" font-family="Helvetica,sans-Serif" font-size="10.00" fill="#000000">CDPL.Vis.PointListPrimitive2D</text>
</a>
</g>
</g>
<!-- Node3&#45;&gt;Node5 -->
<g id="edge4" class="edge">
<title>Node3&#45;&gt;Node5</title>
<path fill="none" stroke="#191970" d="M411.3749,-74.7858C419.7744,-75.6651 428.3675,-76.5646 436.8533,-77.453"/>
<polygon fill="#191970" stroke="#191970" points="411.5556,-71.2857 401.2455,-73.7254 410.8268,-78.2476 411.5556,-71.2857"/>
</g>
<!-- Node6 -->
<g id="node6" class="node">
<title>Node6</title>
<g id="a_node6"><a xlink:href="classCDPL_1_1Vis_1_1PolygonPrimitive2D.html" target="_top" xlink:title="A graphics primitive representing a polygon.">
<polygon fill="none" stroke="#000000" points="438.5,-38.5 438.5,-57.5 598.5,-57.5 598.5,-38.5 438.5,-38.5"/>
<text text-anchor="middle" x="518.5" y="-45.5" font-family="Helvetica,sans-Serif" font-size="10.00" fill="#000000">CDPL.Vis.PolygonPrimitive2D</text>
</a>
</g>
</g>
<!-- Node3&#45;&gt;Node6 -->
<g id="edge5" class="edge">
<title>Node3&#45;&gt;Node6</title>
<path fill="none" stroke="#191970" d="M411.2499,-59.2273C420.2118,-58.2891 429.3958,-57.3277 438.4364,-56.3813"/>
<polygon fill="#191970" stroke="#191970" points="410.8268,-55.7524 401.2455,-60.2746 411.5556,-62.7143 410.8268,-55.7524"/>
</g>
<!-- Node7 -->
<g id="node7" class="node">
<title>Node7</title>
<g id="a_node7"><a xlink:href="classCDPL_1_1Vis_1_1PolylinePrimitive2D.html" target="_top" xlink:title="A graphics primitive representing a set of connected line segments.">
<polygon fill="none" stroke="#000000" points="438.5,-.5 438.5,-19.5 598.5,-19.5 598.5,-.5 438.5,-.5"/>
<text text-anchor="middle" x="518.5" y="-7.5" font-family="Helvetica,sans-Serif" font-size="10.00" fill="#000000">CDPL.Vis.PolylinePrimitive2D</text>
</a>
</g>
</g>
<!-- Node3&#45;&gt;Node7 -->
<g id="edge6" class="edge">
<title>Node3&#45;&gt;Node7</title>
<path fill="none" stroke="#191970" d="M369.0312,-53.5707C388.4679,-45.7386 413.9011,-36.0466 437,-29 448.3951,-25.5238 460.8521,-22.3251 472.5217,-19.5829"/>
<polygon fill="#191970" stroke="#191970" points="367.6733,-50.3446 359.7334,-57.3594 370.3149,-56.8271 367.6733,-50.3446"/>
</g>
</g>
</svg>
