<?xml version="1.0" encoding="UTF-8" standalone="no"?>
<!DOCTYPE svg PUBLIC "-//W3C//DTD SVG 1.1//EN"
 "http://www.w3.org/Graphics/SVG/1.1/DTD/svg11.dtd">
<!-- Generated by graphviz version 2.40.1 (0)
 -->
<!-- Title: CDPL.Biomol.HierarchyViewNode Pages: 1 -->
<svg width="1206pt" height="137pt"
 viewBox="0.00 0.00 1206.00 137.00" xmlns="http://www.w3.org/2000/svg" xmlns:xlink="http://www.w3.org/1999/xlink">
<g id="graph0" class="graph" transform="scale(1 1) rotate(0) translate(4 133)">
<title>CDPL.Biomol.HierarchyViewNode</title>
<!-- Node1 -->
<g id="node1" class="node">
<title>Node1</title>
<g id="a_node1"><a xlink:title="HierarchyViewNode.">
<polygon fill="#bfbfbf" stroke="#000000" points="829,-55 829,-74 1008,-74 1008,-55 829,-55"/>
<text text-anchor="middle" x="918.5" y="-62" font-family="Helvetica,sans-Serif" font-size="10.00" fill="#000000">CDPL.Biomol.HierarchyViewNode</text>
</a>
</g>
</g>
<!-- Node9 -->
<g id="node9" class="node">
<title>Node9</title>
<g id="a_node9"><a xlink:href="classCDPL_1_1Biomol_1_1HierarchyViewChain.html" target="_top" xlink:title="HierarchyViewChain.">
<polygon fill="none" stroke="#000000" points="1044,-98.5 1044,-128.5 1198,-128.5 1198,-98.5 1044,-98.5"/>
<text text-anchor="start" x="1052" y="-116.5" font-family="Helvetica,sans-Serif" font-size="10.00" fill="#000000">CDPL.Biomol.HierarchyView</text>
<text text-anchor="middle" x="1121" y="-105.5" font-family="Helvetica,sans-Serif" font-size="10.00" fill="#000000">Chain</text>
</a>
</g>
</g>
<!-- Node1&#45;&gt;Node9 -->
<g id="edge10" class="edge">
<title>Node1&#45;&gt;Node9</title>
<path fill="none" stroke="#191970" d="M967.7893,-76.4268C995.2104,-83.062 1029.6066,-91.3851 1058.8574,-98.463"/>
<polygon fill="#191970" stroke="#191970" points="968.5674,-73.0141 958.0248,-74.064 966.9211,-79.8178 968.5674,-73.0141"/>
</g>
<!-- Node10 -->
<g id="node10" class="node">
<title>Node10</title>
<g id="a_node10"><a xlink:href="classCDPL_1_1Biomol_1_1HierarchyViewFragment.html" target="_top" xlink:title="HierarchyViewFragment.">
<polygon fill="none" stroke="#000000" points="1044,-49.5 1044,-79.5 1198,-79.5 1198,-49.5 1044,-49.5"/>
<text text-anchor="start" x="1052" y="-67.5" font-family="Helvetica,sans-Serif" font-size="10.00" fill="#000000">CDPL.Biomol.HierarchyView</text>
<text text-anchor="middle" x="1121" y="-56.5" font-family="Helvetica,sans-Serif" font-size="10.00" fill="#000000">Fragment</text>
</a>
</g>
</g>
<!-- Node1&#45;&gt;Node10 -->
<g id="edge11" class="edge">
<title>Node1&#45;&gt;Node10</title>
<path fill="none" stroke="#191970" d="M1018.2371,-64.5C1026.8021,-64.5 1035.3816,-64.5 1043.7303,-64.5"/>
<polygon fill="#191970" stroke="#191970" points="1018.2038,-61.0001 1008.2038,-64.5 1018.2037,-68.0001 1018.2038,-61.0001"/>
</g>
<!-- Node11 -->
<g id="node11" class="node">
<title>Node11</title>
<g id="a_node11"><a xlink:href="classCDPL_1_1Biomol_1_1HierarchyViewModel.html" target="_top" xlink:title="HierarchyViewModel.">
<polygon fill="none" stroke="#000000" points="1044,-.5 1044,-30.5 1198,-30.5 1198,-.5 1044,-.5"/>
<text text-anchor="start" x="1052" y="-18.5" font-family="Helvetica,sans-Serif" font-size="10.00" fill="#000000">CDPL.Biomol.HierarchyView</text>
<text text-anchor="middle" x="1121" y="-7.5" font-family="Helvetica,sans-Serif" font-size="10.00" fill="#000000">Model</text>
</a>
</g>
</g>
<!-- Node1&#45;&gt;Node11 -->
<g id="edge12" class="edge">
<title>Node1&#45;&gt;Node11</title>
<path fill="none" stroke="#191970" d="M967.7893,-52.5732C995.2104,-45.938 1029.6066,-37.6149 1058.8574,-30.537"/>
<polygon fill="#191970" stroke="#191970" points="966.9211,-49.1822 958.0248,-54.936 968.5674,-55.9859 966.9211,-49.1822"/>
</g>
<!-- Node2 -->
<g id="node2" class="node">
<title>Node2</title>
<g id="a_node2"><a xlink:href="classCDPL_1_1Chem_1_1Fragment.html" target="_top" xlink:title="Fragment.">
<polygon fill="none" stroke="#000000" points="671,-55 671,-74 793,-74 793,-55 671,-55"/>
<text text-anchor="middle" x="732" y="-62" font-family="Helvetica,sans-Serif" font-size="10.00" fill="#000000">CDPL.Chem.Fragment</text>
</a>
</g>
</g>
<!-- Node2&#45;&gt;Node1 -->
<g id="edge1" class="edge">
<title>Node2&#45;&gt;Node1</title>
<path fill="none" stroke="#191970" d="M803.1823,-64.5C811.5946,-64.5 820.2611,-64.5 828.8861,-64.5"/>
<polygon fill="#191970" stroke="#191970" points="803.0671,-61.0001 793.0671,-64.5 803.067,-68.0001 803.0671,-61.0001"/>
</g>
<!-- Node3 -->
<g id="node3" class="node">
<title>Node3</title>
<g id="a_node3"><a xlink:href="classCDPL_1_1Chem_1_1MolecularGraph.html" target="_top" xlink:title="MolecularGraph.">
<polygon fill="none" stroke="#000000" points="482,-55 482,-74 635,-74 635,-55 482,-55"/>
<text text-anchor="middle" x="558.5" y="-62" font-family="Helvetica,sans-Serif" font-size="10.00" fill="#000000">CDPL.Chem.MolecularGraph</text>
</a>
</g>
</g>
<!-- Node3&#45;&gt;Node2 -->
<g id="edge2" class="edge">
<title>Node3&#45;&gt;Node2</title>
<path fill="none" stroke="#191970" d="M645.2565,-64.5C653.9219,-64.5 662.5872,-64.5 670.9067,-64.5"/>
<polygon fill="#191970" stroke="#191970" points="645.1047,-61.0001 635.1047,-64.5 645.1046,-68.0001 645.1047,-61.0001"/>
</g>
<!-- Node4 -->
<g id="node4" class="node">
<title>Node4</title>
<g id="a_node4"><a xlink:href="classCDPL_1_1Chem_1_1AtomContainer.html" target="_top" xlink:title="A common interface for data&#45;structures that support a random access to stored Chem....">
<polygon fill="none" stroke="#000000" points="296,-93 296,-112 446,-112 446,-93 296,-93"/>
<text text-anchor="middle" x="371" y="-100" font-family="Helvetica,sans-Serif" font-size="10.00" fill="#000000">CDPL.Chem.AtomContainer</text>
</a>
</g>
</g>
<!-- Node4&#45;&gt;Node3 -->
<g id="edge3" class="edge">
<title>Node4&#45;&gt;Node3</title>
<path fill="none" stroke="#191970" d="M428.2838,-90.8905C454.9506,-85.486 486.2805,-79.1365 511.5261,-74.0201"/>
<polygon fill="#191970" stroke="#191970" points="427.4197,-87.4944 418.3142,-92.911 428.8101,-94.3549 427.4197,-87.4944"/>
</g>
<!-- Node5 -->
<g id="node5" class="node">
<title>Node5</title>
<g id="a_node5"><a xlink:href="classCDPL_1_1Chem_1_1Entity3DContainer.html" target="_top" xlink:title="A common interface for data&#45;structures that support a random access to stored Chem....">
<polygon fill="none" stroke="#000000" points="94,-93 94,-112 260,-112 260,-93 94,-93"/>
<text text-anchor="middle" x="177" y="-100" font-family="Helvetica,sans-Serif" font-size="10.00" fill="#000000">CDPL.Chem.Entity3DContainer</text>
</a>
</g>
</g>
<!-- Node5&#45;&gt;Node4 -->
<g id="edge4" class="edge">
<title>Node5&#45;&gt;Node4</title>
<path fill="none" stroke="#191970" d="M270.1472,-102.5C278.7202,-102.5 287.3335,-102.5 295.7185,-102.5"/>
<polygon fill="#191970" stroke="#191970" points="270.1177,-99.0001 260.1177,-102.5 270.1177,-106.0001 270.1177,-99.0001"/>
</g>
<!-- Node6 -->
<g id="node6" class="node">
<title>Node6</title>
<g id="a_node6"><a xlink:title=" ">
<polygon fill="none" stroke="#bfbfbf" points="0,-55 0,-74 58,-74 58,-55 0,-55"/>
<text text-anchor="middle" x="29" y="-62" font-family="Helvetica,sans-Serif" font-size="10.00" fill="#000000">instance</text>
</a>
</g>
</g>
<!-- Node6&#45;&gt;Node5 -->
<g id="edge5" class="edge">
<title>Node6&#45;&gt;Node5</title>
<path fill="none" stroke="#191970" d="M68.0375,-74.5232C90.2884,-80.2362 118.0153,-87.3553 139.9309,-92.9822"/>
<polygon fill="#191970" stroke="#191970" points="68.7963,-71.1045 58.24,-72.0076 67.0554,-77.8846 68.7963,-71.1045"/>
</g>
<!-- Node7 -->
<g id="node7" class="node">
<title>Node7</title>
<g id="a_node7"><a xlink:href="classCDPL_1_1Chem_1_1BondContainer.html" target="_top" xlink:title="A common interface for data&#45;structures that support a random access to stored Chem....">
<polygon fill="none" stroke="#000000" points="296.5,-55 296.5,-74 445.5,-74 445.5,-55 296.5,-55"/>
<text text-anchor="middle" x="371" y="-62" font-family="Helvetica,sans-Serif" font-size="10.00" fill="#000000">CDPL.Chem.BondContainer</text>
</a>
</g>
</g>
<!-- Node6&#45;&gt;Node7 -->
<g id="edge7" class="edge">
<title>Node6&#45;&gt;Node7</title>
<path fill="none" stroke="#191970" d="M68.2767,-64.5C123.7365,-64.5 226.0526,-64.5 296.2604,-64.5"/>
<polygon fill="#191970" stroke="#191970" points="68.1588,-61.0001 58.1587,-64.5 68.1587,-68.0001 68.1588,-61.0001"/>
</g>
<!-- Node8 -->
<g id="node8" class="node">
<title>Node8</title>
<g id="a_node8"><a xlink:href="classCDPL_1_1Base_1_1PropertyContainer.html" target="_top" xlink:title="A class providing methods for the storage and lookup of object properties.">
<polygon fill="none" stroke="#000000" points="96.5,-17 96.5,-36 257.5,-36 257.5,-17 96.5,-17"/>
<text text-anchor="middle" x="177" y="-24" font-family="Helvetica,sans-Serif" font-size="10.00" fill="#000000">CDPL.Base.PropertyContainer</text>
</a>
</g>
</g>
<!-- Node6&#45;&gt;Node8 -->
<g id="edge9" class="edge">
<title>Node6&#45;&gt;Node8</title>
<path fill="none" stroke="#191970" d="M68.0375,-54.4768C90.2884,-48.7638 118.0153,-41.6447 139.9309,-36.0178"/>
<polygon fill="#191970" stroke="#191970" points="67.0554,-51.1154 58.24,-56.9924 68.7963,-57.8955 67.0554,-51.1154"/>
</g>
<!-- Node7&#45;&gt;Node3 -->
<g id="edge6" class="edge">
<title>Node7&#45;&gt;Node3</title>
<path fill="none" stroke="#191970" d="M455.8097,-64.5C464.5258,-64.5 473.346,-64.5 481.9651,-64.5"/>
<polygon fill="#191970" stroke="#191970" points="455.6438,-61.0001 445.6437,-64.5 455.6437,-68.0001 455.6438,-61.0001"/>
</g>
<!-- Node8&#45;&gt;Node3 -->
<g id="edge8" class="edge">
<title>Node8&#45;&gt;Node3</title>
<path fill="none" stroke="#191970" d="M267.7753,-30.7194C320.0179,-33.6953 386.8379,-38.4315 446,-45.5 466.553,-47.9556 489.0723,-51.5724 508.5278,-54.9932"/>
<polygon fill="#191970" stroke="#191970" points="267.7072,-27.2103 257.5277,-30.1475 267.3171,-34.1994 267.7072,-27.2103"/>
</g>
</g>
</svg>
