<?xml version="1.0" encoding="UTF-8" standalone="no"?>
<!DOCTYPE svg PUBLIC "-//W3C//DTD SVG 1.1//EN"
 "http://www.w3.org/Graphics/SVG/1.1/DTD/svg11.dtd">
<!-- Generated by graphviz version 2.40.1 (0)
 -->
<!-- Title: CDPL.Shape.GaussianShapeOverlapFunction Pages: 1 -->
<svg width="464pt" height="88pt"
 viewBox="0.00 0.00 464.00 88.00" xmlns="http://www.w3.org/2000/svg" xmlns:xlink="http://www.w3.org/1999/xlink">
<g id="graph0" class="graph" transform="scale(1 1) rotate(0) translate(4 84)">
<title>CDPL.Shape.GaussianShapeOverlapFunction</title>
<!-- Node1 -->
<g id="node1" class="node">
<title>Node1</title>
<g id="a_node1"><a xlink:title=" ">
<polygon fill="#bfbfbf" stroke="#000000" points="94,-24.5 94,-54.5 247,-54.5 247,-24.5 94,-24.5"/>
<text text-anchor="start" x="102" y="-42.5" font-family="Helvetica,sans-Serif" font-size="10.00" fill="#000000">CDPL.Shape.GaussianShape</text>
<text text-anchor="middle" x="170.5" y="-31.5" font-family="Helvetica,sans-Serif" font-size="10.00" fill="#000000">OverlapFunction</text>
</a>
</g>
</g>
<!-- Node3 -->
<g id="node3" class="node">
<title>Node3</title>
<g id="a_node3"><a xlink:href="classCDPL_1_1Shape_1_1ExactGaussianShapeOverlapFunction.html" target="_top" xlink:title=" ">
<polygon fill="none" stroke="#000000" points="294.5,-49.5 294.5,-79.5 444.5,-79.5 444.5,-49.5 294.5,-49.5"/>
<text text-anchor="start" x="302.5" y="-67.5" font-family="Helvetica,sans-Serif" font-size="10.00" fill="#000000">CDPL.Shape.ExactGaussian</text>
<text text-anchor="middle" x="369.5" y="-56.5" font-family="Helvetica,sans-Serif" font-size="10.00" fill="#000000">ShapeOverlapFunction</text>
</a>
</g>
</g>
<!-- Node1&#45;&gt;Node3 -->
<g id="edge2" class="edge">
<title>Node1&#45;&gt;Node3</title>
<path fill="none" stroke="#191970" d="M257.3799,-50.4146C269.6463,-51.9556 282.1728,-53.5292 294.1974,-55.0399"/>
<polygon fill="#191970" stroke="#191970" points="257.5123,-46.9038 247.1539,-49.1299 256.6397,-53.8492 257.5123,-46.9038"/>
</g>
<!-- Node4 -->
<g id="node4" class="node">
<title>Node4</title>
<g id="a_node4"><a xlink:href="classCDPL_1_1Shape_1_1FastGaussianShapeOverlapFunction.html" target="_top" xlink:title=" ">
<polygon fill="none" stroke="#000000" points="283,-.5 283,-30.5 456,-30.5 456,-.5 283,-.5"/>
<text text-anchor="start" x="291" y="-18.5" font-family="Helvetica,sans-Serif" font-size="10.00" fill="#000000">CDPL.Shape.FastGaussianShape</text>
<text text-anchor="middle" x="369.5" y="-7.5" font-family="Helvetica,sans-Serif" font-size="10.00" fill="#000000">OverlapFunction</text>
</a>
</g>
</g>
<!-- Node1&#45;&gt;Node4 -->
<g id="edge3" class="edge">
<title>Node1&#45;&gt;Node4</title>
<path fill="none" stroke="#191970" d="M257.1293,-29.0522C265.6907,-28.0197 274.3814,-26.9716 282.9421,-25.9391"/>
<polygon fill="#191970" stroke="#191970" points="256.6629,-25.583 247.1539,-30.2553 257.5011,-32.5327 256.6629,-25.583"/>
</g>
<!-- Node2 -->
<g id="node2" class="node">
<title>Node2</title>
<g id="a_node2"><a xlink:title=" ">
<polygon fill="none" stroke="#bfbfbf" points="0,-30 0,-49 58,-49 58,-30 0,-30"/>
<text text-anchor="middle" x="29" y="-37" font-family="Helvetica,sans-Serif" font-size="10.00" fill="#000000">instance</text>
</a>
</g>
</g>
<!-- Node2&#45;&gt;Node1 -->
<g id="edge1" class="edge">
<title>Node2&#45;&gt;Node1</title>
<path fill="none" stroke="#191970" d="M68.4175,-39.5C76.429,-39.5 85.1121,-39.5 93.9166,-39.5"/>
<polygon fill="#191970" stroke="#191970" points="68.3189,-36.0001 58.3189,-39.5 68.3189,-43.0001 68.3189,-36.0001"/>
</g>
</g>
</svg>
