<?xml version="1.0" encoding="UTF-8" standalone="no"?>
<!DOCTYPE svg PUBLIC "-//W3C//DTD SVG 1.1//EN"
 "http://www.w3.org/Graphics/SVG/1.1/DTD/svg11.dtd">
<!-- Generated by graphviz version 2.40.1 (0)
 -->
<!-- Title: CDPL.Grid.DRegularGridReaderBase Pages: 1 -->
<svg width="857pt" height="372pt"
 viewBox="0.00 0.00 857.00 372.00" xmlns="http://www.w3.org/2000/svg" xmlns:xlink="http://www.w3.org/1999/xlink">
<g id="graph0" class="graph" transform="scale(1 1) rotate(0) translate(4 368)">
<title>CDPL.Grid.DRegularGridReaderBase</title>
<!-- Node1 -->
<g id="node1" class="node">
<title>Node1</title>
<g id="a_node1"><a xlink:title="An interface for reading data objects of type Grid.DRegularGrid from an arbitrary data source.">
<polygon fill="#bfbfbf" stroke="#000000" points="454,-170 454,-189 645,-189 645,-170 454,-170"/>
<text text-anchor="middle" x="549.5" y="-177" font-family="Helvetica,sans-Serif" font-size="10.00" fill="#000000">CDPL.Grid.DRegularGridReaderBase</text>
</a>
</g>
</g>
<!-- Node5 -->
<g id="node5" class="node">
<title>Node5</title>
<g id="a_node5"><a xlink:href="classCDPL_1_1Grid_1_1CDFBZ2DRegularGridReader.html" target="_top" xlink:title=" ">
<polygon fill="none" stroke="#000000" points="689,-333.5 689,-363.5 841,-363.5 841,-333.5 689,-333.5"/>
<text text-anchor="start" x="697" y="-351.5" font-family="Helvetica,sans-Serif" font-size="10.00" fill="#000000">CDPL.Grid.CDFBZ2DRegular</text>
<text text-anchor="middle" x="765" y="-340.5" font-family="Helvetica,sans-Serif" font-size="10.00" fill="#000000">GridReader</text>
</a>
</g>
</g>
<!-- Node1&#45;&gt;Node5 -->
<g id="edge4" class="edge">
<title>Node1&#45;&gt;Node5</title>
<path fill="none" stroke="#191970" d="M561.0529,-197.8165C581.4531,-228.649 626.859,-290.8391 681,-324.5 686.5386,-327.9435 692.5865,-330.9073 698.8163,-333.4554"/>
<polygon fill="#191970" stroke="#191970" points="563.9207,-195.8061 555.5426,-189.3209 558.0478,-199.6153 563.9207,-195.8061"/>
</g>
<!-- Node6 -->
<g id="node6" class="node">
<title>Node6</title>
<g id="a_node6"><a xlink:href="classCDPL_1_1Grid_1_1CDFDRegularGridReader.html" target="_top" xlink:title="A reader for spatial regular grid data in the native I/O format of the CDPL.">
<polygon fill="none" stroke="#000000" points="689,-284.5 689,-314.5 841,-314.5 841,-284.5 689,-284.5"/>
<text text-anchor="start" x="697" y="-302.5" font-family="Helvetica,sans-Serif" font-size="10.00" fill="#000000">CDPL.Grid.CDFDRegularGrid</text>
<text text-anchor="middle" x="765" y="-291.5" font-family="Helvetica,sans-Serif" font-size="10.00" fill="#000000">Reader</text>
</a>
</g>
</g>
<!-- Node1&#45;&gt;Node6 -->
<g id="edge5" class="edge">
<title>Node1&#45;&gt;Node6</title>
<path fill="none" stroke="#191970" d="M567.5498,-195.9351C591.7166,-217.1369 636.6986,-253.8563 681,-275.5 687.8137,-278.8289 695.1702,-281.773 702.5975,-284.3556"/>
<polygon fill="#191970" stroke="#191970" points="569.7025,-193.1656 559.905,-189.1331 565.0493,-198.3952 569.7025,-193.1656"/>
</g>
<!-- Node7 -->
<g id="node7" class="node">
<title>Node7</title>
<g id="a_node7"><a xlink:href="classCDPL_1_1Grid_1_1CDFGZDRegularGridReader.html" target="_top" xlink:title=" ">
<polygon fill="none" stroke="#000000" points="681.5,-235.5 681.5,-265.5 848.5,-265.5 848.5,-235.5 681.5,-235.5"/>
<text text-anchor="start" x="689.5" y="-253.5" font-family="Helvetica,sans-Serif" font-size="10.00" fill="#000000">CDPL.Grid.CDFGZDRegularGrid</text>
<text text-anchor="middle" x="765" y="-242.5" font-family="Helvetica,sans-Serif" font-size="10.00" fill="#000000">Reader</text>
</a>
</g>
</g>
<!-- Node1&#45;&gt;Node7 -->
<g id="edge6" class="edge">
<title>Node1&#45;&gt;Node7</title>
<path fill="none" stroke="#191970" d="M584.5832,-192.7399C610.952,-202.5199 648.0466,-215.9157 681,-226.5 690.3862,-229.5148 700.4213,-232.5458 710.1707,-235.3906"/>
<polygon fill="#191970" stroke="#191970" points="585.626,-189.3935 575.0332,-189.1821 583.1822,-195.9531 585.626,-189.3935"/>
</g>
<!-- Node8 -->
<g id="node8" class="node">
<title>Node8</title>
<g id="a_node8"><a xlink:href="classCDPL_1_1Grid_1_1CompoundDRegularGridReader.html" target="_top" xlink:title="CompoundDataReader.">
<polygon fill="none" stroke="#000000" points="682.5,-186.5 682.5,-216.5 847.5,-216.5 847.5,-186.5 682.5,-186.5"/>
<text text-anchor="start" x="690.5" y="-204.5" font-family="Helvetica,sans-Serif" font-size="10.00" fill="#000000">CDPL.Grid.CompoundDRegular</text>
<text text-anchor="middle" x="765" y="-193.5" font-family="Helvetica,sans-Serif" font-size="10.00" fill="#000000">GridReader</text>
</a>
</g>
</g>
<!-- Node1&#45;&gt;Node8 -->
<g id="edge7" class="edge">
<title>Node1&#45;&gt;Node8</title>
<path fill="none" stroke="#191970" d="M653.0188,-190.068C662.8851,-191.0753 672.7988,-192.0873 682.4283,-193.0704"/>
<polygon fill="#191970" stroke="#191970" points="653.0719,-186.5554 642.7681,-189.0216 652.3609,-193.5192 653.0719,-186.5554"/>
</g>
<!-- Node9 -->
<g id="node9" class="node">
<title>Node9</title>
<g id="a_node9"><a xlink:href="classCDPL_1_1Grid_1_1DRegularGridReader.html" target="_top" xlink:title="Reader for grid data of type Grid.DRegularGrid in any supported format.">
<polygon fill="none" stroke="#000000" points="681.5,-148 681.5,-167 848.5,-167 848.5,-148 681.5,-148"/>
<text text-anchor="middle" x="765" y="-155" font-family="Helvetica,sans-Serif" font-size="10.00" fill="#000000">CDPL.Grid.DRegularGridReader</text>
</a>
</g>
</g>
<!-- Node1&#45;&gt;Node9 -->
<g id="edge8" class="edge">
<title>Node1&#45;&gt;Node9</title>
<path fill="none" stroke="#191970" d="M652.7529,-168.9591C662.3632,-167.978 672.0213,-166.992 681.4206,-166.0325"/>
<polygon fill="#191970" stroke="#191970" points="652.3609,-165.4808 642.7681,-169.9784 653.0719,-172.4446 652.3609,-165.4808"/>
</g>
<!-- Node10 -->
<g id="node10" class="node">
<title>Node10</title>
<g id="a_node10"><a xlink:href="classCDPL_1_1Grid_1_1FileCDFBZ2DRegularGridReader.html" target="_top" xlink:title=" ">
<polygon fill="none" stroke="#000000" points="681,-98.5 681,-128.5 849,-128.5 849,-98.5 681,-98.5"/>
<text text-anchor="start" x="689" y="-116.5" font-family="Helvetica,sans-Serif" font-size="10.00" fill="#000000">CDPL.Grid.FileCDFBZ2DRegular</text>
<text text-anchor="middle" x="765" y="-105.5" font-family="Helvetica,sans-Serif" font-size="10.00" fill="#000000">GridReader</text>
</a>
</g>
</g>
<!-- Node1&#45;&gt;Node10 -->
<g id="edge9" class="edge">
<title>Node1&#45;&gt;Node10</title>
<path fill="none" stroke="#191970" d="M589.6361,-166.8381C615.6576,-158.6656 650.3039,-147.8528 681,-138.5 691.6251,-135.2627 703.0209,-131.8388 713.884,-128.5979"/>
<polygon fill="#191970" stroke="#191970" points="588.2488,-163.6053 579.7589,-169.9435 590.3483,-170.283 588.2488,-163.6053"/>
</g>
<!-- Node11 -->
<g id="node11" class="node">
<title>Node11</title>
<g id="a_node11"><a xlink:href="classCDPL_1_1Grid_1_1FileCDFDRegularGridReader.html" target="_top" xlink:title=" ">
<polygon fill="none" stroke="#000000" points="690.5,-49.5 690.5,-79.5 839.5,-79.5 839.5,-49.5 690.5,-49.5"/>
<text text-anchor="start" x="698.5" y="-67.5" font-family="Helvetica,sans-Serif" font-size="10.00" fill="#000000">CDPL.Grid.FileCDFDRegular</text>
<text text-anchor="middle" x="765" y="-56.5" font-family="Helvetica,sans-Serif" font-size="10.00" fill="#000000">GridReader</text>
</a>
</g>
</g>
<!-- Node1&#45;&gt;Node11 -->
<g id="edge10" class="edge">
<title>Node1&#45;&gt;Node11</title>
<path fill="none" stroke="#191970" d="M568.4647,-163.358C592.9766,-143.234 637.671,-108.9951 681,-88.5 688.1294,-85.1277 695.8284,-82.1352 703.5713,-79.5073"/>
<polygon fill="#191970" stroke="#191970" points="566.1204,-160.7554 560.6715,-169.8418 570.5974,-166.1366 566.1204,-160.7554"/>
</g>
<!-- Node12 -->
<g id="node12" class="node">
<title>Node12</title>
<g id="a_node12"><a xlink:href="classCDPL_1_1Grid_1_1FileCDFGZDRegularGridReader.html" target="_top" xlink:title=" ">
<polygon fill="none" stroke="#000000" points="683.5,-.5 683.5,-30.5 846.5,-30.5 846.5,-.5 683.5,-.5"/>
<text text-anchor="start" x="691.5" y="-18.5" font-family="Helvetica,sans-Serif" font-size="10.00" fill="#000000">CDPL.Grid.FileCDFGZDRegular</text>
<text text-anchor="middle" x="765" y="-7.5" font-family="Helvetica,sans-Serif" font-size="10.00" fill="#000000">GridReader</text>
</a>
</g>
</g>
<!-- Node1&#45;&gt;Node12 -->
<g id="edge11" class="edge">
<title>Node1&#45;&gt;Node12</title>
<path fill="none" stroke="#191970" d="M561.78,-161.0071C582.678,-130.9871 628.0756,-71.7663 681,-39.5 686.5685,-36.1051 692.6362,-33.1735 698.8784,-30.6454"/>
<polygon fill="#191970" stroke="#191970" points="558.6232,-159.4238 555.8773,-169.6566 564.4051,-163.3696 558.6232,-159.4238"/>
</g>
<!-- Node2 -->
<g id="node2" class="node">
<title>Node2</title>
<g id="a_node2"><a xlink:href="classCDPL_1_1Base_1_1DataIOBase.html" target="_top" xlink:title="Provides infrastructure for the registration of I/O callback functions.">
<polygon fill="none" stroke="#000000" points="288,-170 288,-189 418,-189 418,-170 288,-170"/>
<text text-anchor="middle" x="353" y="-177" font-family="Helvetica,sans-Serif" font-size="10.00" fill="#000000">CDPL.Base.DataIOBase</text>
</a>
</g>
</g>
<!-- Node2&#45;&gt;Node1 -->
<g id="edge1" class="edge">
<title>Node2&#45;&gt;Node1</title>
<path fill="none" stroke="#191970" d="M428.2913,-179.5C436.7098,-179.5 445.3664,-179.5 453.9949,-179.5"/>
<polygon fill="#191970" stroke="#191970" points="428.1588,-176.0001 418.1587,-179.5 428.1587,-183.0001 428.1588,-176.0001"/>
</g>
<!-- Node3 -->
<g id="node3" class="node">
<title>Node3</title>
<g id="a_node3"><a xlink:href="classCDPL_1_1Base_1_1ControlParameterContainer.html" target="_top" xlink:title="A class providing methods for the storage and lookup of control&#45;parameter values.">
<polygon fill="none" stroke="#000000" points="94,-164.5 94,-194.5 252,-194.5 252,-164.5 94,-164.5"/>
<text text-anchor="start" x="102" y="-182.5" font-family="Helvetica,sans-Serif" font-size="10.00" fill="#000000">CDPL.Base.ControlParameter</text>
<text text-anchor="middle" x="173" y="-171.5" font-family="Helvetica,sans-Serif" font-size="10.00" fill="#000000">Container</text>
</a>
</g>
</g>
<!-- Node3&#45;&gt;Node2 -->
<g id="edge2" class="edge">
<title>Node3&#45;&gt;Node2</title>
<path fill="none" stroke="#191970" d="M262.2816,-179.5C270.8783,-179.5 279.4838,-179.5 287.7842,-179.5"/>
<polygon fill="#191970" stroke="#191970" points="262.2126,-176.0001 252.2126,-179.5 262.2125,-183.0001 262.2126,-176.0001"/>
</g>
<!-- Node4 -->
<g id="node4" class="node">
<title>Node4</title>
<g id="a_node4"><a xlink:title=" ">
<polygon fill="none" stroke="#bfbfbf" points="0,-170 0,-189 58,-189 58,-170 0,-170"/>
<text text-anchor="middle" x="29" y="-177" font-family="Helvetica,sans-Serif" font-size="10.00" fill="#000000">instance</text>
</a>
</g>
</g>
<!-- Node4&#45;&gt;Node3 -->
<g id="edge3" class="edge">
<title>Node4&#45;&gt;Node3</title>
<path fill="none" stroke="#191970" d="M68.2446,-179.5C76.2675,-179.5 84.9801,-179.5 93.8387,-179.5"/>
<polygon fill="#191970" stroke="#191970" points="68.1406,-176.0001 58.1405,-179.5 68.1405,-183.0001 68.1406,-176.0001"/>
</g>
</g>
</svg>
