<?xml version="1.0" encoding="UTF-8" standalone="no"?>
<!DOCTYPE svg PUBLIC "-//W3C//DTD SVG 1.1//EN"
 "http://www.w3.org/Graphics/SVG/1.1/DTD/svg11.dtd">
<!-- Generated by graphviz version 2.40.1 (0)
 -->
<!-- Title: CDPL.Grid.FileCDFGZDRegularGridSetWriter Pages: 1 -->
<svg width="171pt" height="285pt"
 viewBox="0.00 0.00 171.00 285.00" xmlns="http://www.w3.org/2000/svg" xmlns:xlink="http://www.w3.org/1999/xlink">
<g id="graph0" class="graph" transform="scale(1 1) rotate(0) translate(4 281)">
<title>CDPL.Grid.FileCDFGZDRegularGridSetWriter</title>
<!-- Node1 -->
<g id="node1" class="node">
<title>Node1</title>
<g id="a_node1"><a xlink:title=" ">
<polygon fill="#bfbfbf" stroke="#000000" points="0,-.5 0,-30.5 163,-30.5 163,-.5 0,-.5"/>
<text text-anchor="start" x="8" y="-18.5" font-family="Helvetica,sans-Serif" font-size="10.00" fill="#000000">CDPL.Grid.FileCDFGZDRegular</text>
<text text-anchor="middle" x="81.5" y="-7.5" font-family="Helvetica,sans-Serif" font-size="10.00" fill="#000000">GridSetWriter</text>
</a>
</g>
</g>
<!-- Node2 -->
<g id="node2" class="node">
<title>Node2</title>
<g id="a_node2"><a xlink:href="classCDPL_1_1Grid_1_1DRegularGridSetWriterBase.html" target="_top" xlink:title="An interface for writing data objects of type Grid.DRegularGridSet to an arbitrary data sink.">
<polygon fill="none" stroke="#000000" points="7,-67.5 7,-97.5 156,-97.5 156,-67.5 7,-67.5"/>
<text text-anchor="start" x="15" y="-85.5" font-family="Helvetica,sans-Serif" font-size="10.00" fill="#000000">CDPL.Grid.DRegularGridSet</text>
<text text-anchor="middle" x="81.5" y="-74.5" font-family="Helvetica,sans-Serif" font-size="10.00" fill="#000000">WriterBase</text>
</a>
</g>
</g>
<!-- Node2&#45;&gt;Node1 -->
<g id="edge1" class="edge">
<title>Node2&#45;&gt;Node1</title>
<path fill="none" stroke="#191970" d="M81.5,-57.0249C81.5,-48.128 81.5,-38.4287 81.5,-30.6432"/>
<polygon fill="#191970" stroke="#191970" points="78.0001,-57.2966 81.5,-67.2967 85.0001,-57.2967 78.0001,-57.2966"/>
</g>
<!-- Node3 -->
<g id="node3" class="node">
<title>Node3</title>
<g id="a_node3"><a xlink:href="classCDPL_1_1Base_1_1DataIOBase.html" target="_top" xlink:title="Provides infrastructure for the registration of I/O callback functions.">
<polygon fill="none" stroke="#000000" points="16.5,-134.5 16.5,-153.5 146.5,-153.5 146.5,-134.5 16.5,-134.5"/>
<text text-anchor="middle" x="81.5" y="-141.5" font-family="Helvetica,sans-Serif" font-size="10.00" fill="#000000">CDPL.Base.DataIOBase</text>
</a>
</g>
</g>
<!-- Node3&#45;&gt;Node2 -->
<g id="edge2" class="edge">
<title>Node3&#45;&gt;Node2</title>
<path fill="none" stroke="#191970" d="M81.5,-124.3693C81.5,-115.681 81.5,-105.6241 81.5,-97.5446"/>
<polygon fill="#191970" stroke="#191970" points="78.0001,-124.3906 81.5,-134.3906 85.0001,-124.3907 78.0001,-124.3906"/>
</g>
<!-- Node4 -->
<g id="node4" class="node">
<title>Node4</title>
<g id="a_node4"><a xlink:href="classCDPL_1_1Base_1_1ControlParameterContainer.html" target="_top" xlink:title="A class providing methods for the storage and lookup of control&#45;parameter values.">
<polygon fill="none" stroke="#000000" points="2.5,-190.5 2.5,-220.5 160.5,-220.5 160.5,-190.5 2.5,-190.5"/>
<text text-anchor="start" x="10.5" y="-208.5" font-family="Helvetica,sans-Serif" font-size="10.00" fill="#000000">CDPL.Base.ControlParameter</text>
<text text-anchor="middle" x="81.5" y="-197.5" font-family="Helvetica,sans-Serif" font-size="10.00" fill="#000000">Container</text>
</a>
</g>
</g>
<!-- Node4&#45;&gt;Node3 -->
<g id="edge3" class="edge">
<title>Node4&#45;&gt;Node3</title>
<path fill="none" stroke="#191970" d="M81.5,-180.2849C81.5,-170.9858 81.5,-160.9883 81.5,-153.8469"/>
<polygon fill="#191970" stroke="#191970" points="78.0001,-180.2977 81.5,-190.2977 85.0001,-180.2978 78.0001,-180.2977"/>
</g>
<!-- Node5 -->
<g id="node5" class="node">
<title>Node5</title>
<g id="a_node5"><a xlink:title=" ">
<polygon fill="none" stroke="#bfbfbf" points="52.5,-257.5 52.5,-276.5 110.5,-276.5 110.5,-257.5 52.5,-257.5"/>
<text text-anchor="middle" x="81.5" y="-264.5" font-family="Helvetica,sans-Serif" font-size="10.00" fill="#000000">instance</text>
</a>
</g>
</g>
<!-- Node5&#45;&gt;Node4 -->
<g id="edge4" class="edge">
<title>Node5&#45;&gt;Node4</title>
<path fill="none" stroke="#191970" d="M81.5,-247.3693C81.5,-238.681 81.5,-228.6241 81.5,-220.5446"/>
<polygon fill="#191970" stroke="#191970" points="78.0001,-247.3906 81.5,-257.3906 85.0001,-247.3907 78.0001,-247.3906"/>
</g>
</g>
</svg>
