<?xml version="1.0" encoding="UTF-8" standalone="no"?>
<!DOCTYPE svg PUBLIC "-//W3C//DTD SVG 1.1//EN"
 "http://www.w3.org/Graphics/SVG/1.1/DTD/svg11.dtd">
<!-- Generated by graphviz version 2.40.1 (0)
 -->
<!-- Title: CDPL.Grid.DRegularGridInputHandler Pages: 1 -->
<svg width="463pt" height="137pt"
 viewBox="0.00 0.00 463.00 137.00" xmlns="http://www.w3.org/2000/svg" xmlns:xlink="http://www.w3.org/1999/xlink">
<g id="graph0" class="graph" transform="scale(1 1) rotate(0) translate(4 133)">
<title>CDPL.Grid.DRegularGridInputHandler</title>
<!-- Node1 -->
<g id="node1" class="node">
<title>Node1</title>
<g id="a_node1"><a xlink:title="A factory interface providing methods for the creation of Grid.DRegularGridReaderBase instances for r...">
<polygon fill="#bfbfbf" stroke="#000000" points="94,-49.5 94,-79.5 252,-79.5 252,-49.5 94,-49.5"/>
<text text-anchor="start" x="102" y="-67.5" font-family="Helvetica,sans-Serif" font-size="10.00" fill="#000000">CDPL.Grid.DRegularGridInput</text>
<text text-anchor="middle" x="173" y="-56.5" font-family="Helvetica,sans-Serif" font-size="10.00" fill="#000000">Handler</text>
</a>
</g>
</g>
<!-- Node3 -->
<g id="node3" class="node">
<title>Node3</title>
<g id="a_node3"><a xlink:href="classCDPL_1_1Grid_1_1CDFBZ2DRegularGridInputHandler.html" target="_top" xlink:title="A handler for the input of bzip2&#45;compressed spatial regular grid data in the native I/O format of the...">
<polygon fill="none" stroke="#000000" points="295.5,-98.5 295.5,-128.5 447.5,-128.5 447.5,-98.5 295.5,-98.5"/>
<text text-anchor="start" x="303.5" y="-116.5" font-family="Helvetica,sans-Serif" font-size="10.00" fill="#000000">CDPL.Grid.CDFBZ2DRegular</text>
<text text-anchor="middle" x="371.5" y="-105.5" font-family="Helvetica,sans-Serif" font-size="10.00" fill="#000000">GridInputHandler</text>
</a>
</g>
</g>
<!-- Node1&#45;&gt;Node3 -->
<g id="edge2" class="edge">
<title>Node1&#45;&gt;Node3</title>
<path fill="none" stroke="#191970" d="M243.7988,-81.9768C265.6772,-87.3775 289.5703,-93.2755 310.7096,-98.4938"/>
<polygon fill="#191970" stroke="#191970" points="244.4529,-78.5333 233.9055,-79.5346 242.7753,-85.3293 244.4529,-78.5333"/>
</g>
<!-- Node4 -->
<g id="node4" class="node">
<title>Node4</title>
<g id="a_node4"><a xlink:href="classCDPL_1_1Grid_1_1CDFDRegularGridInputHandler.html" target="_top" xlink:title="A handler for the input of spatial regular grid data in the native I/O format of the CDPL.">
<polygon fill="none" stroke="#000000" points="295.5,-49.5 295.5,-79.5 447.5,-79.5 447.5,-49.5 295.5,-49.5"/>
<text text-anchor="start" x="303.5" y="-67.5" font-family="Helvetica,sans-Serif" font-size="10.00" fill="#000000">CDPL.Grid.CDFDRegularGrid</text>
<text text-anchor="middle" x="371.5" y="-56.5" font-family="Helvetica,sans-Serif" font-size="10.00" fill="#000000">InputHandler</text>
</a>
</g>
</g>
<!-- Node1&#45;&gt;Node4 -->
<g id="edge3" class="edge">
<title>Node1&#45;&gt;Node4</title>
<path fill="none" stroke="#191970" d="M262.1373,-64.5C273.2203,-64.5 284.4733,-64.5 295.3357,-64.5"/>
<polygon fill="#191970" stroke="#191970" points="262.0228,-61.0001 252.0228,-64.5 262.0228,-68.0001 262.0228,-61.0001"/>
</g>
<!-- Node5 -->
<g id="node5" class="node">
<title>Node5</title>
<g id="a_node5"><a xlink:href="classCDPL_1_1Grid_1_1CDFGZDRegularGridInputHandler.html" target="_top" xlink:title="A handler for the input of gzip&#45;compressed spatial regular grid data in the native I/O format of the ...">
<polygon fill="none" stroke="#000000" points="288,-.5 288,-30.5 455,-30.5 455,-.5 288,-.5"/>
<text text-anchor="start" x="296" y="-18.5" font-family="Helvetica,sans-Serif" font-size="10.00" fill="#000000">CDPL.Grid.CDFGZDRegularGrid</text>
<text text-anchor="middle" x="371.5" y="-7.5" font-family="Helvetica,sans-Serif" font-size="10.00" fill="#000000">InputHandler</text>
</a>
</g>
</g>
<!-- Node1&#45;&gt;Node5 -->
<g id="edge4" class="edge">
<title>Node1&#45;&gt;Node5</title>
<path fill="none" stroke="#191970" d="M243.7988,-47.0232C265.6772,-41.6225 289.5703,-35.7245 310.7096,-30.5062"/>
<polygon fill="#191970" stroke="#191970" points="242.7753,-43.6707 233.9055,-49.4654 244.4529,-50.4667 242.7753,-43.6707"/>
</g>
<!-- Node2 -->
<g id="node2" class="node">
<title>Node2</title>
<g id="a_node2"><a xlink:title=" ">
<polygon fill="none" stroke="#bfbfbf" points="0,-55 0,-74 58,-74 58,-55 0,-55"/>
<text text-anchor="middle" x="29" y="-62" font-family="Helvetica,sans-Serif" font-size="10.00" fill="#000000">instance</text>
</a>
</g>
</g>
<!-- Node2&#45;&gt;Node1 -->
<g id="edge1" class="edge">
<title>Node2&#45;&gt;Node1</title>
<path fill="none" stroke="#191970" d="M68.2446,-64.5C76.2675,-64.5 84.9801,-64.5 93.8387,-64.5"/>
<polygon fill="#191970" stroke="#191970" points="68.1406,-61.0001 58.1405,-64.5 68.1405,-68.0001 68.1406,-61.0001"/>
</g>
</g>
</svg>
