<?xml version="1.0" encoding="UTF-8" standalone="no"?>
<!DOCTYPE svg PUBLIC "-//W3C//DTD SVG 1.1//EN"
 "http://www.w3.org/Graphics/SVG/1.1/DTD/svg11.dtd">
<!-- Generated by graphviz version 2.40.1 (0)
 -->
<!-- Title: CDPL::Math::RealQuaternion&lt; T &gt; Pages: 1 -->
<svg width="1739pt" height="120pt"
 viewBox="0.00 0.00 1739.00 119.50" xmlns="http://www.w3.org/2000/svg" xmlns:xlink="http://www.w3.org/1999/xlink">
<g id="graph0" class="graph" transform="scale(1 1) rotate(0) translate(4 115.5)">
<title>CDPL::Math::RealQuaternion&lt; T &gt;</title>
<!-- Node1 -->
<g id="node1" class="node">
<title>Node1</title>
<g id="a_node1"><a xlink:title=" ">
<polygon fill="#bfbfbf" stroke="#000000" points="1549,-47.5 1549,-66.5 1731,-66.5 1731,-47.5 1549,-47.5"/>
<text text-anchor="middle" x="1640" y="-54.5" font-family="Helvetica,sans-Serif" font-size="10.00" fill="#000000">CDPL::Math::RealQuaternion&lt; T &gt;</text>
</a>
</g>
</g>
<!-- Node2 -->
<g id="node2" class="node">
<title>Node2</title>
<g id="a_node2"><a xlink:href="classCDPL_1_1Math_1_1QuaternionContainer.html" target="_top" xlink:title=" ">
<polygon fill="none" stroke="#000000" points="1333,-42 1333,-72 1512,-72 1512,-42 1333,-42"/>
<text text-anchor="start" x="1341" y="-60" font-family="Helvetica,sans-Serif" font-size="10.00" fill="#000000">CDPL::Math::QuaternionContainer</text>
<text text-anchor="middle" x="1422.5" y="-49" font-family="Helvetica,sans-Serif" font-size="10.00" fill="#000000">&lt; RealQuaternion&lt; T &gt; &gt;</text>
</a>
</g>
</g>
<!-- Node2&#45;&gt;Node1 -->
<g id="edge1" class="edge">
<title>Node2&#45;&gt;Node1</title>
<path fill="none" stroke="#191970" d="M1522.4535,-57C1531.2114,-57 1540.046,-57 1548.7279,-57"/>
<polygon fill="#191970" stroke="#191970" points="1522.2213,-53.5001 1512.2213,-57 1522.2213,-60.5001 1522.2213,-53.5001"/>
</g>
<!-- Node3 -->
<g id="node3" class="node">
<title>Node3</title>
<g id="a_node3"><a xlink:href="classCDPL_1_1Math_1_1QuaternionExpression.html" target="_top" xlink:title=" ">
<polygon fill="none" stroke="#000000" points="721,-62 721,-92 906,-92 906,-62 721,-62"/>
<text text-anchor="start" x="729" y="-80" font-family="Helvetica,sans-Serif" font-size="10.00" fill="#000000">CDPL::Math::QuaternionExpression</text>
<text text-anchor="middle" x="813.5" y="-69" font-family="Helvetica,sans-Serif" font-size="10.00" fill="#000000">&lt; RealQuaternion&lt; T &gt; &gt;</text>
</a>
</g>
</g>
<!-- Node3&#45;&gt;Node2 -->
<g id="edge2" class="edge">
<title>Node3&#45;&gt;Node2</title>
<path fill="none" stroke="#191970" d="M916.6466,-74.4144C1018.0463,-71.7546 1177.2022,-67.265 1315,-62 1320.7876,-61.7789 1326.7499,-61.538 1332.7597,-61.2853"/>
<polygon fill="#191970" stroke="#191970" points="916.3121,-70.9218 906.407,-74.6819 916.495,-77.9194 916.3121,-70.9218"/>
</g>
<!-- Node4 -->
<g id="node4" class="node">
<title>Node4</title>
<g id="a_node4"><a xlink:href="classCDPL_1_1Math_1_1Expression.html" target="_top" xlink:title=" ">
<polygon fill="none" stroke="#000000" points="361.5,-81 361.5,-111 504.5,-111 504.5,-81 361.5,-81"/>
<text text-anchor="start" x="369.5" y="-99" font-family="Helvetica,sans-Serif" font-size="10.00" fill="#000000">CDPL::Math::Expression</text>
<text text-anchor="middle" x="433" y="-88" font-family="Helvetica,sans-Serif" font-size="10.00" fill="#000000">&lt; RealQuaternion&lt; T &gt; &gt;</text>
</a>
</g>
</g>
<!-- Node4&#45;&gt;Node3 -->
<g id="edge3" class="edge">
<title>Node4&#45;&gt;Node3</title>
<path fill="none" stroke="#191970" d="M514.8413,-92.3298C564.8602,-90.0416 630.1315,-86.9754 688,-84 698.6787,-83.4509 709.8673,-82.8556 720.9794,-82.2518"/>
<polygon fill="#191970" stroke="#191970" points="514.558,-88.839 504.728,-92.7913 514.8772,-95.8317 514.558,-88.839"/>
</g>
<!-- Node5 -->
<g id="node5" class="node">
<title>Node5</title>
<g id="a_node5"><a xlink:href="classCDPL_1_1Math_1_1Expression.html" target="_top" xlink:title=" ">
<polygon fill="none" stroke="#000000" points="0,-41.5 0,-60.5 160,-60.5 160,-41.5 0,-41.5"/>
<text text-anchor="middle" x="80" y="-48.5" font-family="Helvetica,sans-Serif" font-size="10.00" fill="#000000">CDPL::Math::Expression&lt; E &gt;</text>
</a>
</g>
</g>
<!-- Node5&#45;&gt;Node4 -->
<g id="edge4" class="edge">
<title>Node5&#45;&gt;Node4</title>
<path fill="none" stroke="#ffa500" stroke-dasharray="5,2" d="M155.36,-61.9281C163.0045,-62.988 170.6549,-64.029 178,-65 239.7864,-73.1681 310.1059,-81.6564 361.2294,-87.6812"/>
<polygon fill="#ffa500" stroke="#ffa500" points="155.7282,-58.4457 145.34,-60.5283 154.7595,-65.3783 155.7282,-58.4457"/>
<text text-anchor="middle" x="243" y="-83" font-family="Helvetica,sans-Serif" font-size="10.00" fill="#000000"> &lt; RealQuaternion&lt; T &gt; &gt;</text>
</g>
<!-- Node6 -->
<g id="node6" class="node">
<title>Node6</title>
<g id="a_node6"><a xlink:href="classCDPL_1_1Math_1_1QuaternionExpression.html" target="_top" xlink:title=" ">
<polygon fill="none" stroke="#000000" points="326,-41.5 326,-60.5 540,-60.5 540,-41.5 326,-41.5"/>
<text text-anchor="middle" x="433" y="-48.5" font-family="Helvetica,sans-Serif" font-size="10.00" fill="#000000">CDPL::Math::QuaternionExpression&lt; E &gt;</text>
</a>
</g>
</g>
<!-- Node5&#45;&gt;Node6 -->
<g id="edge6" class="edge">
<title>Node5&#45;&gt;Node6</title>
<path fill="none" stroke="#191970" d="M170.3477,-51C217.7372,-51 276.1056,-51 325.7744,-51"/>
<polygon fill="#191970" stroke="#191970" points="170.1012,-47.5001 160.1012,-51 170.1011,-54.5001 170.1012,-47.5001"/>
</g>
<!-- Node9 -->
<g id="node9" class="node">
<title>Node9</title>
<g id="a_node9"><a xlink:href="classCDPL_1_1Math_1_1Expression.html" target="_top" xlink:title=" ">
<polygon fill="none" stroke="#000000" points="352.5,-.5 352.5,-19.5 513.5,-19.5 513.5,-.5 352.5,-.5"/>
<text text-anchor="middle" x="433" y="-7.5" font-family="Helvetica,sans-Serif" font-size="10.00" fill="#000000">CDPL::Math::Expression&lt; C &gt;</text>
</a>
</g>
</g>
<!-- Node5&#45;&gt;Node9 -->
<g id="edge10" class="edge">
<title>Node5&#45;&gt;Node9</title>
<path fill="none" stroke="#ffa500" stroke-dasharray="5,2" d="M149.0475,-39.9866C158.7583,-38.5676 168.6227,-37.1949 178,-36 236.2693,-28.5748 302.245,-21.8942 352.4879,-17.1645"/>
<polygon fill="#ffa500" stroke="#ffa500" points="148.3878,-36.5461 139.0102,-41.4768 149.4158,-43.4702 148.3878,-36.5461"/>
<text text-anchor="middle" x="243" y="-39" font-family="Helvetica,sans-Serif" font-size="10.00" fill="#000000"> &lt; C &gt;</text>
</g>
<!-- Node6&#45;&gt;Node3 -->
<g id="edge5" class="edge">
<title>Node6&#45;&gt;Node3</title>
<path fill="none" stroke="#ffa500" stroke-dasharray="5,2" d="M550.1325,-59.0038C605.0065,-62.7534 669.4522,-67.1571 720.8583,-70.6697"/>
<polygon fill="#ffa500" stroke="#ffa500" points="550.2184,-55.5016 540.003,-58.3116 549.7411,-62.4853 550.2184,-55.5016"/>
<text text-anchor="middle" x="623" y="-70" font-family="Helvetica,sans-Serif" font-size="10.00" fill="#000000"> &lt; RealQuaternion&lt; T &gt; &gt;</text>
</g>
<!-- Node8 -->
<g id="node8" class="node">
<title>Node8</title>
<g id="a_node8"><a xlink:href="classCDPL_1_1Math_1_1QuaternionExpression.html" target="_top" xlink:title=" ">
<polygon fill="none" stroke="#000000" points="706,-23.5 706,-42.5 921,-42.5 921,-23.5 706,-23.5"/>
<text text-anchor="middle" x="813.5" y="-30.5" font-family="Helvetica,sans-Serif" font-size="10.00" fill="#000000">CDPL::Math::QuaternionExpression&lt; C &gt;</text>
</a>
</g>
</g>
<!-- Node6&#45;&gt;Node8 -->
<g id="edge11" class="edge">
<title>Node6&#45;&gt;Node8</title>
<path fill="none" stroke="#ffa500" stroke-dasharray="5,2" d="M534.2554,-40.6546C542.2841,-40.025 550.2726,-39.461 558,-39 606.4988,-36.1064 660.2538,-34.5904 705.8953,-33.803"/>
<polygon fill="#ffa500" stroke="#ffa500" points="533.7635,-37.183 524.0811,-41.4842 534.3325,-44.1598 533.7635,-37.183"/>
<text text-anchor="middle" x="623" y="-42" font-family="Helvetica,sans-Serif" font-size="10.00" fill="#000000"> &lt; C &gt;</text>
</g>
<!-- Node7 -->
<g id="node7" class="node">
<title>Node7</title>
<g id="a_node7"><a xlink:href="classCDPL_1_1Math_1_1QuaternionContainer.html" target="_top" xlink:title=" ">
<polygon fill="none" stroke="#000000" points="958,-27.5 958,-46.5 1167,-46.5 1167,-27.5 958,-27.5"/>
<text text-anchor="middle" x="1062.5" y="-34.5" font-family="Helvetica,sans-Serif" font-size="10.00" fill="#000000">CDPL::Math::QuaternionContainer&lt; C &gt;</text>
</a>
</g>
</g>
<!-- Node7&#45;&gt;Node2 -->
<g id="edge7" class="edge">
<title>Node7&#45;&gt;Node2</title>
<path fill="none" stroke="#ffa500" stroke-dasharray="5,2" d="M1177.4761,-43.366C1220.6082,-45.7565 1270.0545,-48.4997 1315,-51 1320.7856,-51.3219 1326.7464,-51.6537 1332.7551,-51.9885"/>
<polygon fill="#ffa500" stroke="#ffa500" points="1177.4082,-39.8569 1167.2298,-42.7982 1177.0208,-46.8462 1177.4082,-39.8569"/>
<text text-anchor="middle" x="1250" y="-54" font-family="Helvetica,sans-Serif" font-size="10.00" fill="#000000"> &lt; RealQuaternion&lt; T &gt; &gt;</text>
</g>
<!-- Node8&#45;&gt;Node7 -->
<g id="edge8" class="edge">
<title>Node8&#45;&gt;Node7</title>
<path fill="none" stroke="#191970" d="M931.51,-34.8957C940.2614,-35.0363 949.0556,-35.1776 957.7191,-35.3168"/>
<polygon fill="#191970" stroke="#191970" points="931.3218,-31.3924 921.2668,-34.7312 931.2093,-38.3915 931.3218,-31.3924"/>
</g>
<!-- Node9&#45;&gt;Node8 -->
<g id="edge9" class="edge">
<title>Node9&#45;&gt;Node8</title>
<path fill="none" stroke="#191970" d="M523.721,-15.4838C578.4061,-18.7893 648.3621,-23.0179 705.839,-26.4922"/>
<polygon fill="#191970" stroke="#191970" points="523.8873,-11.9875 513.6943,-14.8777 523.4648,-18.9748 523.8873,-11.9875"/>
</g>
</g>
</svg>
