<?xml version="1.0" encoding="UTF-8" standalone="no"?>
<!DOCTYPE svg PUBLIC "-//W3C//DTD SVG 1.1//EN"
 "http://www.w3.org/Graphics/SVG/1.1/DTD/svg11.dtd">
<!-- Generated by graphviz version 2.40.1 (0)
 -->
<!-- Title: CDPL::Math::CMatrix&lt; T, M, N &gt; Pages: 1 -->
<!--zoomable 120 -->
<svg id="main" version="1.1" xmlns="http://www.w3.org/2000/svg" xmlns:xlink="http://www.w3.org/1999/xlink" xml:space="preserve" onload="init(evt)">
<style type="text/css"><![CDATA[
.edge:hover path { stroke: red; }
.edge:hover polygon { stroke: red; fill: red; }
]]></style>
<script type="text/javascript"><![CDATA[
var edges = document.getElementsByTagName('g');
if (edges && edges.length) {
  for (var i=0;i<edges.length;i++) {
    if (edges[i].id.substr(0,4)=='edge') {
      edges[i].setAttribute('class','edge');
    }
  }
}
]]></script>
        <defs>
                <circle id="rim" cx="0" cy="0" r="7"/>
                <circle id="rim2" cx="0" cy="0" r="3.5"/>
                <g id="zoomPlus">
                        <use xlink:href="#rim" fill="#404040">
                                <set attributeName="fill" to="#808080" begin="zoomplus.mouseover" end="zoomplus.mouseout"/>
                        </use>
                        <path d="M-4,0h8M0,-4v8" fill="none" stroke="white" stroke-width="1.5" pointer-events="none"/>
                </g>
                <g id="zoomMin">
                        <use xlink:href="#rim" fill="#404040">
                                <set attributeName="fill" to="#808080" begin="zoomminus.mouseover" end="zoomminus.mouseout"/>
                        </use>
                        <path d="M-4,0h8" fill="none" stroke="white" stroke-width="1.5" pointer-events="none"/>
                </g>
                <g id="dirArrow">
                        <path fill="none" stroke="white" stroke-width="1.5" d="M0,-3.0v7 M-2.5,-0.5L0,-3.0L2.5,-0.5"/>
                </g>
               <g id="resetDef">
                       <use xlink:href="#rim2" fill="#404040">
                               <set attributeName="fill" to="#808080" begin="reset.mouseover" end="reset.mouseout"/>
                       </use>
               </g>
        </defs>

<script type="text/javascript">
var viewWidth = 1831;
var viewHeight = 120;
var sectionId = 'dynsection-0';
</script>
<script xlink:href="svgpan.js"/>
<svg id="graph" class="graph">
<g id="viewport">
<title>CDPL::Math::CMatrix&lt; T, M, N &gt;</title>
<!-- Node1 -->
<g id="node1" class="node">
<title>Node1</title>
<g id="a_node1"><a xlink:title=" ">
<polygon fill="#bfbfbf" stroke="#000000" points="1425,-42 1425,-72 1541,-72 1541,-42 1425,-42"/>
<text text-anchor="start" x="1433" y="-60" font-family="Helvetica,sans-Serif" font-size="10.00" fill="#000000">CDPL::Math::CMatrix</text>
<text text-anchor="middle" x="1483" y="-49" font-family="Helvetica,sans-Serif" font-size="10.00" fill="#000000">&lt; T, M, N &gt;</text>
</a>
</g>
</g>
<!-- Node10 -->
<g id="node10" class="node">
<title>Node10</title>
<g id="a_node10"><a xlink:href="classCDPL_1_1Math_1_1CMatrix.html" target="_top" xlink:title=" ">
<polygon fill="none" stroke="#000000" points="1693,-36.5 1693,-77.5 1823,-77.5 1823,-36.5 1693,-36.5"/>
<text text-anchor="start" x="1701" y="-65.5" font-family="Helvetica,sans-Serif" font-size="10.00" fill="#000000">CDPL::Math::CMatrix</text>
<text text-anchor="start" x="1701" y="-54.5" font-family="Helvetica,sans-Serif" font-size="10.00" fill="#000000">&lt; typename TypeTraits</text>
<text text-anchor="middle" x="1758" y="-43.5" font-family="Helvetica,sans-Serif" font-size="10.00" fill="#000000">&lt; T &gt;::RealType, 4, 4 &gt;</text>
</a>
</g>
</g>
<!-- Node1&#45;&gt;Node10 -->
<g id="edge12" class="edge">
<title>Node1&#45;&gt;Node10</title>
<path fill="none" stroke="#ffa500" stroke-dasharray="5,2" d="M1551.4469,-57C1594.5872,-57 1649.9758,-57 1692.5346,-57"/>
<polygon fill="#ffa500" stroke="#ffa500" points="1551.3205,-53.5001 1541.3204,-57 1551.3204,-60.5001 1551.3205,-53.5001"/>
<text text-anchor="start" x="1559" y="-71" font-family="Helvetica,sans-Serif" font-size="10.00" fill="#000000"> &lt; typename TypeTraits</text>
<text text-anchor="middle" x="1617" y="-60" font-family="Helvetica,sans-Serif" font-size="10.00" fill="#000000">&lt; T &gt;::RealType, 4, 4 &gt;</text>
</g>
<!-- Node2 -->
<g id="node2" class="node">
<title>Node2</title>
<g id="a_node2"><a xlink:href="classCDPL_1_1Math_1_1MatrixContainer.html" target="_top" xlink:title=" ">
<polygon fill="none" stroke="#000000" points="1232,-42 1232,-72 1388,-72 1388,-42 1232,-42"/>
<text text-anchor="start" x="1240" y="-60" font-family="Helvetica,sans-Serif" font-size="10.00" fill="#000000">CDPL::Math::MatrixContainer</text>
<text text-anchor="middle" x="1310" y="-49" font-family="Helvetica,sans-Serif" font-size="10.00" fill="#000000">&lt; CMatrix&lt; T, M, N &gt; &gt;</text>
</a>
</g>
</g>
<!-- Node2&#45;&gt;Node1 -->
<g id="edge1" class="edge">
<title>Node2&#45;&gt;Node1</title>
<path fill="none" stroke="#191970" d="M1398.316,-57C1407.3298,-57 1416.3174,-57 1424.8868,-57"/>
<polygon fill="#191970" stroke="#191970" points="1398.1488,-53.5001 1388.1488,-57 1398.1488,-60.5001 1398.1488,-53.5001"/>
</g>
<!-- Node3 -->
<g id="node3" class="node">
<title>Node3</title>
<g id="a_node3"><a xlink:href="classCDPL_1_1Math_1_1MatrixExpression.html" target="_top" xlink:title=" ">
<polygon fill="none" stroke="#000000" points="677.5,-62 677.5,-92 839.5,-92 839.5,-62 677.5,-62"/>
<text text-anchor="start" x="685.5" y="-80" font-family="Helvetica,sans-Serif" font-size="10.00" fill="#000000">CDPL::Math::MatrixExpression</text>
<text text-anchor="middle" x="758.5" y="-69" font-family="Helvetica,sans-Serif" font-size="10.00" fill="#000000">&lt; CMatrix&lt; T, M, N &gt; &gt;</text>
</a>
</g>
</g>
<!-- Node3&#45;&gt;Node2 -->
<g id="edge2" class="edge">
<title>Node3&#45;&gt;Node2</title>
<path fill="none" stroke="#191970" d="M849.6758,-74.5101C941.6458,-71.8778 1087.7068,-67.3679 1214,-62 1219.836,-61.752 1225.8706,-61.4783 1231.9405,-61.1906"/>
<polygon fill="#191970" stroke="#191970" points="849.4608,-71.0147 839.5646,-74.7981 849.6603,-78.0118 849.4608,-71.0147"/>
</g>
<!-- Node4 -->
<g id="node4" class="node">
<title>Node4</title>
<g id="a_node4"><a xlink:href="classCDPL_1_1Math_1_1Expression.html" target="_top" xlink:title=" ">
<polygon fill="none" stroke="#000000" points="345,-81 345,-111 478,-111 478,-81 345,-81"/>
<text text-anchor="start" x="353" y="-99" font-family="Helvetica,sans-Serif" font-size="10.00" fill="#000000">CDPL::Math::Expression</text>
<text text-anchor="middle" x="411.5" y="-88" font-family="Helvetica,sans-Serif" font-size="10.00" fill="#000000">&lt; CMatrix&lt; T, M, N &gt; &gt;</text>
</a>
</g>
</g>
<!-- Node4&#45;&gt;Node3 -->
<g id="edge3" class="edge">
<title>Node4&#45;&gt;Node3</title>
<path fill="none" stroke="#191970" d="M488.2885,-92.2521C533.8433,-89.9791 592.7226,-86.9553 645,-84 655.4467,-83.4094 666.4327,-82.7634 677.2869,-82.1101"/>
<polygon fill="#191970" stroke="#191970" points="488.0035,-88.7618 478.1898,-92.7546 488.3514,-95.7532 488.0035,-88.7618"/>
</g>
<!-- Node5 -->
<g id="node5" class="node">
<title>Node5</title>
<g id="a_node5"><a xlink:href="classCDPL_1_1Math_1_1Expression.html" target="_top" xlink:title=" ">
<polygon fill="none" stroke="#000000" points="0,-41.5 0,-60.5 160,-60.5 160,-41.5 0,-41.5"/>
<text text-anchor="middle" x="80" y="-48.5" font-family="Helvetica,sans-Serif" font-size="10.00" fill="#000000">CDPL::Math::Expression&lt; E &gt;</text>
</a>
</g>
</g>
<!-- Node5&#45;&gt;Node4 -->
<g id="edge4" class="edge">
<title>Node5&#45;&gt;Node4</title>
<path fill="none" stroke="#ffa500" stroke-dasharray="5,2" d="M155.9946,-61.932C163.4291,-62.9788 170.8598,-64.016 178,-65 234.2091,-72.746 298.0803,-81.2018 344.7963,-87.3227"/>
<polygon fill="#ffa500" stroke="#ffa500" points="156.2726,-58.4366 145.8812,-60.5029 155.2931,-65.3677 156.2726,-58.4366"/>
<text text-anchor="middle" x="238" y="-83" font-family="Helvetica,sans-Serif" font-size="10.00" fill="#000000"> &lt; CMatrix&lt; T, M, N &gt; &gt;</text>
</g>
<!-- Node6 -->
<g id="node6" class="node">
<title>Node6</title>
<g id="a_node6"><a xlink:href="classCDPL_1_1Math_1_1MatrixExpression.html" target="_top" xlink:title=" ">
<polygon fill="none" stroke="#000000" points="316,-41.5 316,-60.5 507,-60.5 507,-41.5 316,-41.5"/>
<text text-anchor="middle" x="411.5" y="-48.5" font-family="Helvetica,sans-Serif" font-size="10.00" fill="#000000">CDPL::Math::MatrixExpression&lt; E &gt;</text>
</a>
</g>
</g>
<!-- Node5&#45;&gt;Node6 -->
<g id="edge6" class="edge">
<title>Node5&#45;&gt;Node6</title>
<path fill="none" stroke="#191970" d="M170.3077,-51C215.4007,-51 269.9638,-51 315.7798,-51"/>
<polygon fill="#191970" stroke="#191970" points="170.2469,-47.5001 160.2469,-51 170.2469,-54.5001 170.2469,-47.5001"/>
</g>
<!-- Node9 -->
<g id="node9" class="node">
<title>Node9</title>
<g id="a_node9"><a xlink:href="classCDPL_1_1Math_1_1Expression.html" target="_top" xlink:title=" ">
<polygon fill="none" stroke="#000000" points="331,-.5 331,-19.5 492,-19.5 492,-.5 331,-.5"/>
<text text-anchor="middle" x="411.5" y="-7.5" font-family="Helvetica,sans-Serif" font-size="10.00" fill="#000000">CDPL::Math::Expression&lt; C &gt;</text>
</a>
</g>
</g>
<!-- Node5&#45;&gt;Node9 -->
<g id="edge10" class="edge">
<title>Node5&#45;&gt;Node9</title>
<path fill="none" stroke="#ffa500" stroke-dasharray="5,2" d="M149.4516,-40.0092C159.0336,-38.5982 168.7549,-37.2217 178,-36 228.7487,-29.2936 285.8568,-22.9141 330.8928,-18.1526"/>
<polygon fill="#ffa500" stroke="#ffa500" points="148.9168,-36.5501 139.5425,-41.487 149.9494,-43.4736 148.9168,-36.5501"/>
<text text-anchor="middle" x="238" y="-39" font-family="Helvetica,sans-Serif" font-size="10.00" fill="#000000"> &lt; C &gt;</text>
</g>
<!-- Node6&#45;&gt;Node3 -->
<g id="edge5" class="edge">
<title>Node6&#45;&gt;Node3</title>
<path fill="none" stroke="#ffa500" stroke-dasharray="5,2" d="M517.4007,-58.9349C568.8758,-62.7918 629.7609,-67.3538 677.4682,-70.9285"/>
<polygon fill="#ffa500" stroke="#ffa500" points="517.4714,-55.4305 507.2378,-58.1734 516.9483,-62.4109 517.4714,-55.4305"/>
<text text-anchor="middle" x="585" y="-70" font-family="Helvetica,sans-Serif" font-size="10.00" fill="#000000"> &lt; CMatrix&lt; T, M, N &gt; &gt;</text>
</g>
<!-- Node8 -->
<g id="node8" class="node">
<title>Node8</title>
<g id="a_node8"><a xlink:href="classCDPL_1_1Math_1_1MatrixExpression.html" target="_top" xlink:title=" ">
<polygon fill="none" stroke="#000000" points="663,-23.5 663,-42.5 854,-42.5 854,-23.5 663,-23.5"/>
<text text-anchor="middle" x="758.5" y="-30.5" font-family="Helvetica,sans-Serif" font-size="10.00" fill="#000000">CDPL::Math::MatrixExpression&lt; C &gt;</text>
</a>
</g>
</g>
<!-- Node6&#45;&gt;Node8 -->
<g id="edge11" class="edge">
<title>Node6&#45;&gt;Node8</title>
<path fill="none" stroke="#ffa500" stroke-dasharray="5,2" d="M504.4026,-40.5701C511.3672,-39.9744 518.2914,-39.4401 525,-39 570.3203,-36.0267 620.6787,-34.5066 662.9923,-33.7372"/>
<polygon fill="#ffa500" stroke="#ffa500" points="503.8386,-37.1065 494.19,-41.483 504.462,-44.0787 503.8386,-37.1065"/>
<text text-anchor="middle" x="585" y="-42" font-family="Helvetica,sans-Serif" font-size="10.00" fill="#000000"> &lt; C &gt;</text>
</g>
<!-- Node7 -->
<g id="node7" class="node">
<title>Node7</title>
<g id="a_node7"><a xlink:href="classCDPL_1_1Math_1_1MatrixContainer.html" target="_top" xlink:title=" ">
<polygon fill="none" stroke="#000000" points="891,-27.5 891,-46.5 1076,-46.5 1076,-27.5 891,-27.5"/>
<text text-anchor="middle" x="983.5" y="-34.5" font-family="Helvetica,sans-Serif" font-size="10.00" fill="#000000">CDPL::Math::MatrixContainer&lt; C &gt;</text>
</a>
</g>
</g>
<!-- Node7&#45;&gt;Node2 -->
<g id="edge7" class="edge">
<title>Node7&#45;&gt;Node2</title>
<path fill="none" stroke="#ffa500" stroke-dasharray="5,2" d="M1086.0453,-43.1897C1125.9816,-45.6104 1172.131,-48.4201 1214,-51 1219.8337,-51.3595 1225.8666,-51.7328 1231.9353,-52.1095"/>
<polygon fill="#ffa500" stroke="#ffa500" points="1086.2257,-39.6943 1076.0323,-42.583 1085.8023,-46.6814 1086.2257,-39.6943"/>
<text text-anchor="middle" x="1154" y="-54" font-family="Helvetica,sans-Serif" font-size="10.00" fill="#000000"> &lt; CMatrix&lt; T, M, N &gt; &gt;</text>
</g>
<!-- Node8&#45;&gt;Node7 -->
<g id="edge8" class="edge">
<title>Node8&#45;&gt;Node7</title>
<path fill="none" stroke="#191970" d="M864.4891,-34.8843C873.2459,-35.0399 882.0554,-35.1965 890.7045,-35.3503"/>
<polygon fill="#191970" stroke="#191970" points="864.3072,-31.3806 854.2465,-34.7022 864.1827,-38.3795 864.3072,-31.3806"/>
</g>
<!-- Node9&#45;&gt;Node8 -->
<g id="edge9" class="edge">
<title>Node9&#45;&gt;Node8</title>
<path fill="none" stroke="#191970" d="M502.4537,-16.0286C551.8469,-19.3025 612.8781,-23.3478 662.9647,-26.6677"/>
<polygon fill="#191970" stroke="#191970" points="502.6278,-12.5326 492.4181,-15.3635 502.1647,-19.5173 502.6278,-12.5326"/>
</g>
</g>
</svg>
        <g id="navigator" transform="translate(0 0)" fill="#404254">
                <rect fill="#f2f5e9" fill-opacity="0.5" stroke="#606060" stroke-width=".5" x="0" y="0" width="60" height="60"/>
                <use id="zoomplus" xlink:href="#zoomPlus" x="17" y="9" onmousedown="handleZoom(evt,'in')"/>
                <use id="zoomminus" xlink:href="#zoomMin" x="42" y="9" onmousedown="handleZoom(evt,'out')"/>
                <use id="reset" xlink:href="#resetDef" x="30" y="36" onmousedown="handleReset()"/>
                <g id="arrowUp" xlink:href="#dirArrow" transform="translate(30 24)" onmousedown="handlePan(0,-1)">
                  <use xlink:href="#rim" fill="#404040">
                        <set attributeName="fill" to="#808080" begin="arrowUp.mouseover" end="arrowUp.mouseout"/>
                  </use>
                  <path fill="none" stroke="white" stroke-width="1.5" d="M0,-3.0v7 M-2.5,-0.5L0,-3.0L2.5,-0.5"/>
                </g>
                <g id="arrowRight" xlink:href="#dirArrow" transform="rotate(90) translate(36 -43)" onmousedown="handlePan(1,0)">
                  <use xlink:href="#rim" fill="#404040">
                        <set attributeName="fill" to="#808080" begin="arrowRight.mouseover" end="arrowRight.mouseout"/>
                  </use>
                  <path fill="none" stroke="white" stroke-width="1.5" d="M0,-3.0v7 M-2.5,-0.5L0,-3.0L2.5,-0.5"/>
                </g>
                <g id="arrowDown" xlink:href="#dirArrow" transform="rotate(180) translate(-30 -48)" onmousedown="handlePan(0,1)">
                  <use xlink:href="#rim" fill="#404040">
                        <set attributeName="fill" to="#808080" begin="arrowDown.mouseover" end="arrowDown.mouseout"/>
                  </use>
                  <path fill="none" stroke="white" stroke-width="1.5" d="M0,-3.0v7 M-2.5,-0.5L0,-3.0L2.5,-0.5"/>
                </g>
                <g id="arrowLeft" xlink:href="#dirArrow" transform="rotate(270) translate(-36 17)" onmousedown="handlePan(-1,0)">
                  <use xlink:href="#rim" fill="#404040">
                        <set attributeName="fill" to="#808080" begin="arrowLeft.mouseover" end="arrowLeft.mouseout"/>
                  </use>
                  <path fill="none" stroke="white" stroke-width="1.5" d="M0,-3.0v7 M-2.5,-0.5L0,-3.0L2.5,-0.5"/>
                </g>
        </g>
        <svg viewBox="0 0 15 15" width="100%" height="30px" preserveAspectRatio="xMaxYMin meet">
         <g id="arrow_out" transform="scale(0.3 0.3)">
          <a xlink:href="classCDPL_1_1Math_1_1CMatrix__inherit__graph_org.svg" target="_base">
           <rect id="button" ry="5" rx="5" y="6" x="6" height="38" width="38"
                fill="#f2f5e9" fill-opacity="0.5" stroke="#606060" stroke-width="1.0"/>
           <path id="arrow"
             d="M 11.500037,31.436501 C 11.940474,20.09759 22.043105,11.32322 32.158766,21.979434 L 37.068811,17.246167 C 37.068811,17.246167 37.088388,32 37.088388,32 L 22.160133,31.978069 C 22.160133,31.978069 26.997745,27.140456 26.997745,27.140456 C 18.528582,18.264221 13.291696,25.230495 11.500037,31.436501 z"
             style="fill:#404040;"/>
          </a>
         </g>
        </svg>
</svg>
