<?xml version="1.0" encoding="UTF-8" standalone="no"?>
<!DOCTYPE svg PUBLIC "-//W3C//DTD SVG 1.1//EN"
 "http://www.w3.org/Graphics/SVG/1.1/DTD/svg11.dtd">
<!-- Generated by graphviz version 2.40.1 (0)
 -->
<!-- Title: CDPL::Util::Map&lt; Key, Value, AllowDefValues, KeyCompFunc &gt; Pages: 1 -->
<svg width="662pt" height="224pt"
 viewBox="0.00 0.00 662.00 224.00" xmlns="http://www.w3.org/2000/svg" xmlns:xlink="http://www.w3.org/1999/xlink">
<g id="graph0" class="graph" transform="scale(1 1) rotate(0) translate(4 220)">
<title>CDPL::Util::Map&lt; Key, Value, AllowDefValues, KeyCompFunc &gt;</title>
<!-- Node1 -->
<g id="node1" class="node">
<title>Node1</title>
<g id="a_node1"><a xlink:title="A unique sorted associative container that maps keys to values.">
<polygon fill="#bfbfbf" stroke="#000000" points="0,-113 0,-154 132,-154 132,-113 0,-113"/>
<text text-anchor="start" x="8" y="-142" font-family="Helvetica,sans-Serif" font-size="10.00" fill="#000000">CDPL::Util::Map&lt; Key,</text>
<text text-anchor="start" x="8" y="-131" font-family="Helvetica,sans-Serif" font-size="10.00" fill="#000000"> Value, AllowDefValues,</text>
<text text-anchor="middle" x="66" y="-120" font-family="Helvetica,sans-Serif" font-size="10.00" fill="#000000"> KeyCompFunc &gt;</text>
</a>
</g>
</g>
<!-- Node2 -->
<g id="node2" class="node">
<title>Node2</title>
<g id="a_node2"><a xlink:href="classCDPL_1_1Util_1_1Map.html" target="_top" xlink:title=" ">
<polygon fill="none" stroke="#000000" points="285,-185.5 285,-215.5 432,-215.5 432,-185.5 285,-185.5"/>
<text text-anchor="start" x="293" y="-203.5" font-family="Helvetica,sans-Serif" font-size="10.00" fill="#000000">CDPL::Util::Map&lt; unsigned</text>
<text text-anchor="middle" x="358.5" y="-192.5" font-family="Helvetica,sans-Serif" font-size="10.00" fill="#000000"> int, double, true &gt;</text>
</a>
</g>
</g>
<!-- Node1&#45;&gt;Node2 -->
<g id="edge1" class="edge">
<title>Node1&#45;&gt;Node2</title>
<path fill="none" stroke="#ffa500" stroke-dasharray="5,2" d="M136.9014,-156.9561C141.3179,-158.2101 145.71,-159.4034 150,-160.5 194.2801,-171.8193 244.5819,-181.5578 284.683,-188.5912"/>
<polygon fill="#ffa500" stroke="#ffa500" points="137.8043,-153.5736 127.2239,-154.1276 135.8404,-160.2925 137.8043,-153.5736"/>
<text text-anchor="start" x="150" y="-198.5" font-family="Helvetica,sans-Serif" font-size="10.00" fill="#000000"> &lt; unsigned int, double,</text>
<text text-anchor="middle" x="208.5" y="-187.5" font-family="Helvetica,sans-Serif" font-size="10.00" fill="#000000"> true &gt;</text>
</g>
<!-- Node4 -->
<g id="node4" class="node">
<title>Node4</title>
<g id="a_node4"><a xlink:href="classCDPL_1_1Util_1_1Map.html" target="_top" xlink:title=" ">
<polygon fill="none" stroke="#000000" points="299.5,-136.5 299.5,-166.5 417.5,-166.5 417.5,-136.5 299.5,-136.5"/>
<text text-anchor="start" x="307.5" y="-154.5" font-family="Helvetica,sans-Serif" font-size="10.00" fill="#000000">CDPL::Util::Map&lt; std</text>
<text text-anchor="middle" x="358.5" y="-143.5" font-family="Helvetica,sans-Serif" font-size="10.00" fill="#000000">::size_t, double &gt;</text>
</a>
</g>
</g>
<!-- Node1&#45;&gt;Node4 -->
<g id="edge3" class="edge">
<title>Node1&#45;&gt;Node4</title>
<path fill="none" stroke="#ffa500" stroke-dasharray="5,2" d="M142.2411,-138.1918C191.2271,-141.2063 253.9274,-145.0648 299.1885,-147.8501"/>
<polygon fill="#ffa500" stroke="#ffa500" points="142.2036,-134.6829 132.0074,-137.562 141.7735,-141.6697 142.2036,-134.6829"/>
<text text-anchor="middle" x="208.5" y="-148.5" font-family="Helvetica,sans-Serif" font-size="10.00" fill="#000000"> &lt; std::size_t, double &gt;</text>
</g>
<!-- Node5 -->
<g id="node5" class="node">
<title>Node5</title>
<g id="a_node5"><a xlink:href="classCDPL_1_1Util_1_1Map.html" target="_top" xlink:title=" ">
<polygon fill="none" stroke="#000000" points="299.5,-87.5 299.5,-117.5 417.5,-117.5 417.5,-87.5 299.5,-87.5"/>
<text text-anchor="start" x="307.5" y="-105.5" font-family="Helvetica,sans-Serif" font-size="10.00" fill="#000000">CDPL::Util::Map&lt; std</text>
<text text-anchor="middle" x="358.5" y="-94.5" font-family="Helvetica,sans-Serif" font-size="10.00" fill="#000000">::size_t, Color &gt;</text>
</a>
</g>
</g>
<!-- Node1&#45;&gt;Node5 -->
<g id="edge4" class="edge">
<title>Node1&#45;&gt;Node5</title>
<path fill="none" stroke="#ffa500" stroke-dasharray="5,2" d="M142.2239,-124.3647C144.8473,-124.0698 147.4453,-123.7807 150,-123.5 200.2672,-117.9769 257.4163,-112.2604 299.1544,-108.1889"/>
<polygon fill="#ffa500" stroke="#ffa500" points="141.5571,-120.9179 132.0171,-125.5264 142.3488,-127.873 141.5571,-120.9179"/>
<text text-anchor="middle" x="208.5" y="-126.5" font-family="Helvetica,sans-Serif" font-size="10.00" fill="#000000"> &lt; std::size_t, Color &gt;</text>
</g>
<!-- Node7 -->
<g id="node7" class="node">
<title>Node7</title>
<g id="a_node7"><a xlink:href="classCDPL_1_1Util_1_1Map.html" target="_top" xlink:title=" ">
<polygon fill="none" stroke="#000000" points="285,-38.5 285,-68.5 432,-68.5 432,-38.5 285,-38.5"/>
<text text-anchor="start" x="293" y="-56.5" font-family="Helvetica,sans-Serif" font-size="10.00" fill="#000000">CDPL::Util::Map&lt; unsigned</text>
<text text-anchor="middle" x="358.5" y="-45.5" font-family="Helvetica,sans-Serif" font-size="10.00" fill="#000000"> int, std::size_t, true &gt;</text>
</a>
</g>
</g>
<!-- Node1&#45;&gt;Node7 -->
<g id="edge6" class="edge">
<title>Node1&#45;&gt;Node7</title>
<path fill="none" stroke="#ffa500" stroke-dasharray="5,2" d="M104.5507,-107.5236C118.3637,-99.3022 134.3891,-90.947 150,-85.5 193.2217,-70.4189 243.9449,-62.436 284.5392,-58.2151"/>
<polygon fill="#ffa500" stroke="#ffa500" points="102.5166,-104.6652 95.8197,-112.8751 106.1747,-110.6334 102.5166,-104.6652"/>
<text text-anchor="start" x="160.5" y="-99.5" font-family="Helvetica,sans-Serif" font-size="10.00" fill="#000000"> &lt; unsigned int, std</text>
<text text-anchor="middle" x="208.5" y="-88.5" font-family="Helvetica,sans-Serif" font-size="10.00" fill="#000000">::size_t, true &gt;</text>
</g>
<!-- Node3 -->
<g id="node3" class="node">
<title>Node3</title>
<g id="a_node3"><a xlink:href="classCDPL_1_1MolProp_1_1MassComposition.html" target="_top" xlink:title="A data type for the storage of mass percent compositions of chemical compounds.">
<polygon fill="none" stroke="#000000" points="472,-191 472,-210 651,-210 651,-191 472,-191"/>
<text text-anchor="middle" x="561.5" y="-198" font-family="Helvetica,sans-Serif" font-size="10.00" fill="#000000">CDPL::MolProp::MassComposition</text>
</a>
</g>
</g>
<!-- Node2&#45;&gt;Node3 -->
<g id="edge2" class="edge">
<title>Node2&#45;&gt;Node3</title>
<path fill="none" stroke="#191970" d="M442.1941,-200.5C451.9995,-200.5 462.0338,-200.5 471.9154,-200.5"/>
<polygon fill="#191970" stroke="#191970" points="442.0747,-197.0001 432.0747,-200.5 442.0746,-204.0001 442.0747,-197.0001"/>
</g>
<!-- Node6 -->
<g id="node6" class="node">
<title>Node6</title>
<g id="a_node6"><a xlink:href="classCDPL_1_1Vis_1_1ColorTable.html" target="_top" xlink:title="A container for the storage and lookup of Vis::Color objects that are associated with a numeric ident...">
<polygon fill="none" stroke="#000000" points="501.5,-93 501.5,-112 621.5,-112 621.5,-93 501.5,-93"/>
<text text-anchor="middle" x="561.5" y="-100" font-family="Helvetica,sans-Serif" font-size="10.00" fill="#000000">CDPL::Vis::ColorTable</text>
</a>
</g>
</g>
<!-- Node5&#45;&gt;Node6 -->
<g id="edge5" class="edge">
<title>Node5&#45;&gt;Node6</title>
<path fill="none" stroke="#191970" d="M427.8344,-102.5C451.759,-102.5 478.3428,-102.5 501.4612,-102.5"/>
<polygon fill="#191970" stroke="#191970" points="427.7617,-99.0001 417.7617,-102.5 427.7617,-106.0001 427.7617,-99.0001"/>
</g>
<!-- Node8 -->
<g id="node8" class="node">
<title>Node8</title>
<g id="a_node8"><a xlink:href="classCDPL_1_1MolProp_1_1ElementHistogram.html" target="_top" xlink:title="A data type for the storage of element histograms of chemical compounds.">
<polygon fill="none" stroke="#000000" points="469,-50 469,-69 654,-69 654,-50 469,-50"/>
<text text-anchor="middle" x="561.5" y="-57" font-family="Helvetica,sans-Serif" font-size="10.00" fill="#000000">CDPL::MolProp::ElementHistogram</text>
</a>
</g>
</g>
<!-- Node7&#45;&gt;Node8 -->
<g id="edge7" class="edge">
<title>Node7&#45;&gt;Node8</title>
<path fill="none" stroke="#191970" d="M442.243,-55.9752C450.9898,-56.2337 459.9182,-56.4976 468.7573,-56.7588"/>
<polygon fill="#191970" stroke="#191970" points="442.1737,-52.4717 432.0747,-55.6746 441.9669,-59.4686 442.1737,-52.4717"/>
</g>
<!-- Node9 -->
<g id="node9" class="node">
<title>Node9</title>
<g id="a_node9"><a xlink:href="classCDPL_1_1Pharm_1_1FeatureTypeHistogram.html" target="_top" xlink:title="A data type for the storage of feature type histograms of pharmacophores.">
<polygon fill="none" stroke="#000000" points="489.5,-.5 489.5,-30.5 633.5,-30.5 633.5,-.5 489.5,-.5"/>
<text text-anchor="start" x="497.5" y="-18.5" font-family="Helvetica,sans-Serif" font-size="10.00" fill="#000000">CDPL::Pharm::FeatureType</text>
<text text-anchor="middle" x="561.5" y="-7.5" font-family="Helvetica,sans-Serif" font-size="10.00" fill="#000000">Histogram</text>
</a>
</g>
</g>
<!-- Node7&#45;&gt;Node9 -->
<g id="edge8" class="edge">
<title>Node7&#45;&gt;Node9</title>
<path fill="none" stroke="#191970" d="M442.2213,-37.828C457.8128,-34.9094 473.9821,-31.8827 489.1951,-29.0349"/>
<polygon fill="#191970" stroke="#191970" points="441.2599,-34.4471 432.0747,-39.7274 442.548,-41.3276 441.2599,-34.4471"/>
</g>
</g>
</svg>
