<?xml version="1.0" encoding="UTF-8" standalone="no"?>
<!DOCTYPE svg PUBLIC "-//W3C//DTD SVG 1.1//EN"
 "http://www.w3.org/Graphics/SVG/1.1/DTD/svg11.dtd">
<!-- Generated by graphviz version 2.40.1 (0)
 -->
<!-- Title: CDPL::Math::Matrix1VectorBinary&lt; E1, E2, F &gt; Pages: 1 -->
<svg width="1004pt" height="88pt"
 viewBox="0.00 0.00 1004.00 88.00" xmlns="http://www.w3.org/2000/svg" xmlns:xlink="http://www.w3.org/1999/xlink">
<g id="graph0" class="graph" transform="scale(1 1) rotate(0) translate(4 84)">
<title>CDPL::Math::Matrix1VectorBinary&lt; E1, E2, F &gt;</title>
<!-- Node1 -->
<g id="node1" class="node">
<title>Node1</title>
<g id="a_node1"><a xlink:title=" ">
<polygon fill="#bfbfbf" stroke="#000000" points="850,-21 850,-51 996,-51 996,-21 850,-21"/>
<text text-anchor="start" x="858" y="-39" font-family="Helvetica,sans-Serif" font-size="10.00" fill="#000000">CDPL::Math::Matrix1Vector</text>
<text text-anchor="middle" x="923" y="-28" font-family="Helvetica,sans-Serif" font-size="10.00" fill="#000000">Binary&lt; E1, E2, F &gt;</text>
</a>
</g>
</g>
<!-- Node2 -->
<g id="node2" class="node">
<title>Node2</title>
<g id="a_node2"><a xlink:href="classCDPL_1_1Math_1_1VectorExpression.html" target="_top" xlink:title=" ">
<polygon fill="none" stroke="#000000" points="651,-15.5 651,-56.5 813,-56.5 813,-15.5 651,-15.5"/>
<text text-anchor="start" x="659" y="-44.5" font-family="Helvetica,sans-Serif" font-size="10.00" fill="#000000">CDPL::Math::VectorExpression</text>
<text text-anchor="start" x="659" y="-33.5" font-family="Helvetica,sans-Serif" font-size="10.00" fill="#000000">&lt; Matrix1VectorBinary&lt; E1,</text>
<text text-anchor="middle" x="732" y="-22.5" font-family="Helvetica,sans-Serif" font-size="10.00" fill="#000000"> E2, F &gt; &gt;</text>
</a>
</g>
</g>
<!-- Node2&#45;&gt;Node1 -->
<g id="edge1" class="edge">
<title>Node2&#45;&gt;Node1</title>
<path fill="none" stroke="#191970" d="M823.0654,-36C832.0139,-36 841.0145,-36 849.7518,-36"/>
<polygon fill="#191970" stroke="#191970" points="823.0012,-32.5001 813.0012,-36 823.0012,-39.5001 823.0012,-32.5001"/>
</g>
<!-- Node3 -->
<g id="node3" class="node">
<title>Node3</title>
<g id="a_node3"><a xlink:href="classCDPL_1_1Math_1_1Expression.html" target="_top" xlink:title=" ">
<polygon fill="none" stroke="#000000" points="340,-38.5 340,-79.5 471,-79.5 471,-38.5 340,-38.5"/>
<text text-anchor="start" x="348" y="-67.5" font-family="Helvetica,sans-Serif" font-size="10.00" fill="#000000">CDPL::Math::Expression</text>
<text text-anchor="start" x="348" y="-56.5" font-family="Helvetica,sans-Serif" font-size="10.00" fill="#000000">&lt; Matrix1VectorBinary</text>
<text text-anchor="middle" x="405.5" y="-45.5" font-family="Helvetica,sans-Serif" font-size="10.00" fill="#000000">&lt; E1, E2, F &gt; &gt;</text>
</a>
</g>
</g>
<!-- Node3&#45;&gt;Node2 -->
<g id="edge2" class="edge">
<title>Node3&#45;&gt;Node2</title>
<path fill="none" stroke="#191970" d="M481.4369,-53.6507C532.2157,-50.0736 598.9639,-45.3716 650.7988,-41.7201"/>
<polygon fill="#191970" stroke="#191970" points="480.9087,-50.1791 471.1794,-54.3733 481.4006,-57.1618 480.9087,-50.1791"/>
</g>
<!-- Node4 -->
<g id="node4" class="node">
<title>Node4</title>
<g id="a_node4"><a xlink:href="classCDPL_1_1Math_1_1Expression.html" target="_top" xlink:title=" ">
<polygon fill="none" stroke="#000000" points="0,-24.5 0,-43.5 160,-43.5 160,-24.5 0,-24.5"/>
<text text-anchor="middle" x="80" y="-31.5" font-family="Helvetica,sans-Serif" font-size="10.00" fill="#000000">CDPL::Math::Expression&lt; E &gt;</text>
</a>
</g>
</g>
<!-- Node4&#45;&gt;Node3 -->
<g id="edge3" class="edge">
<title>Node4&#45;&gt;Node3</title>
<path fill="none" stroke="#ffa500" stroke-dasharray="5,2" d="M170.2781,-40.9338C224.1144,-45.0687 291.2458,-50.2247 339.9958,-53.969"/>
<polygon fill="#ffa500" stroke="#ffa500" points="170.2818,-37.4239 160.0431,-40.1477 169.7457,-44.4033 170.2818,-37.4239"/>
<text text-anchor="start" x="178" y="-64" font-family="Helvetica,sans-Serif" font-size="10.00" fill="#000000"> &lt; Matrix1VectorBinary</text>
<text text-anchor="middle" x="235" y="-53" font-family="Helvetica,sans-Serif" font-size="10.00" fill="#000000">&lt; E1, E2, F &gt; &gt;</text>
</g>
<!-- Node5 -->
<g id="node5" class="node">
<title>Node5</title>
<g id="a_node5"><a xlink:href="classCDPL_1_1Math_1_1VectorExpression.html" target="_top" xlink:title=" ">
<polygon fill="none" stroke="#000000" points="310,-.5 310,-19.5 501,-19.5 501,-.5 310,-.5"/>
<text text-anchor="middle" x="405.5" y="-7.5" font-family="Helvetica,sans-Serif" font-size="10.00" fill="#000000">CDPL::Math::VectorExpression&lt; E &gt;</text>
</a>
</g>
</g>
<!-- Node4&#45;&gt;Node5 -->
<g id="edge5" class="edge">
<title>Node4&#45;&gt;Node5</title>
<path fill="none" stroke="#191970" d="M170.0321,-27.3617C213.4895,-24.1575 265.6545,-20.3112 309.8283,-17.0541"/>
<polygon fill="#191970" stroke="#191970" points="169.7587,-23.8723 160.0431,-28.0982 170.2735,-30.8533 169.7587,-23.8723"/>
</g>
<!-- Node5&#45;&gt;Node2 -->
<g id="edge4" class="edge">
<title>Node5&#45;&gt;Node2</title>
<path fill="none" stroke="#ffa500" stroke-dasharray="5,2" d="M511.3702,-9.7707C549.7719,-10.6061 593.431,-12.6223 633,-17 638.8273,-17.6447 644.8248,-18.446 650.8482,-19.352"/>
<polygon fill="#ffa500" stroke="#ffa500" points="511.2737,-6.2683 501.2079,-9.5742 511.1383,-13.2669 511.2737,-6.2683"/>
<text text-anchor="start" x="519" y="-31" font-family="Helvetica,sans-Serif" font-size="10.00" fill="#000000"> &lt; Matrix1VectorBinary</text>
<text text-anchor="middle" x="576" y="-20" font-family="Helvetica,sans-Serif" font-size="10.00" fill="#000000">&lt; E1, E2, F &gt; &gt;</text>
</g>
</g>
</svg>
