<?xml version="1.0" encoding="UTF-8" standalone="no"?>
<!DOCTYPE svg PUBLIC "-//W3C//DTD SVG 1.1//EN"
 "http://www.w3.org/Graphics/SVG/1.1/DTD/svg11.dtd">
<!-- Generated by graphviz version 2.40.1 (0)
 -->
<!-- Title: CDPL::MolProp::ElementHistogram Pages: 1 -->
<svg width="197pt" height="196pt"
 viewBox="0.00 0.00 196.50 196.00" xmlns="http://www.w3.org/2000/svg" xmlns:xlink="http://www.w3.org/1999/xlink">
<g id="graph0" class="graph" transform="scale(1 1) rotate(0) translate(4 192)">
<title>CDPL::MolProp::ElementHistogram</title>
<!-- Node1 -->
<g id="node1" class="node">
<title>Node1</title>
<g id="a_node1"><a xlink:title="A data type for the storage of element histograms of chemical compounds.">
<polygon fill="#bfbfbf" stroke="#000000" points="0,-.5 0,-19.5 185,-19.5 185,-.5 0,-.5"/>
<text text-anchor="middle" x="92.5" y="-7.5" font-family="Helvetica,sans-Serif" font-size="10.00" fill="#000000">CDPL::MolProp::ElementHistogram</text>
</a>
</g>
</g>
<!-- Node2 -->
<g id="node2" class="node">
<title>Node2</title>
<g id="a_node2"><a xlink:href="classCDPL_1_1Util_1_1Map.html" target="_top" xlink:title=" ">
<polygon fill="none" stroke="#000000" points="19,-57.5 19,-87.5 166,-87.5 166,-57.5 19,-57.5"/>
<text text-anchor="start" x="27" y="-75.5" font-family="Helvetica,sans-Serif" font-size="10.00" fill="#000000">CDPL::Util::Map&lt; unsigned</text>
<text text-anchor="middle" x="92.5" y="-64.5" font-family="Helvetica,sans-Serif" font-size="10.00" fill="#000000"> int, std::size_t, true &gt;</text>
</a>
</g>
</g>
<!-- Node2&#45;&gt;Node1 -->
<g id="edge1" class="edge">
<title>Node2&#45;&gt;Node1</title>
<path fill="none" stroke="#191970" d="M92.5,-47.3498C92.5,-37.6481 92.5,-27.1303 92.5,-19.7356"/>
<polygon fill="#191970" stroke="#191970" points="89.0001,-47.3705 92.5,-57.3705 96.0001,-47.3705 89.0001,-47.3705"/>
</g>
<!-- Node3 -->
<g id="node3" class="node">
<title>Node3</title>
<g id="a_node3"><a xlink:href="classCDPL_1_1Util_1_1Map.html" target="_top" xlink:title="A unique sorted associative container that maps keys to values.">
<polygon fill="none" stroke="#000000" points="26.5,-146.5 26.5,-187.5 158.5,-187.5 158.5,-146.5 26.5,-146.5"/>
<text text-anchor="start" x="34.5" y="-175.5" font-family="Helvetica,sans-Serif" font-size="10.00" fill="#000000">CDPL::Util::Map&lt; Key,</text>
<text text-anchor="start" x="34.5" y="-164.5" font-family="Helvetica,sans-Serif" font-size="10.00" fill="#000000"> Value, AllowDefValues,</text>
<text text-anchor="middle" x="92.5" y="-153.5" font-family="Helvetica,sans-Serif" font-size="10.00" fill="#000000"> KeyCompFunc &gt;</text>
</a>
</g>
</g>
<!-- Node3&#45;&gt;Node2 -->
<g id="edge2" class="edge">
<title>Node3&#45;&gt;Node2</title>
<path fill="none" stroke="#ffa500" stroke-dasharray="5,2" d="M92.5,-136.3293C92.5,-120.0543 92.5,-100.774 92.5,-87.6945"/>
<polygon fill="#ffa500" stroke="#ffa500" points="89.0001,-136.4949 92.5,-146.4949 96.0001,-136.4949 89.0001,-136.4949"/>
<text text-anchor="start" x="92.5" y="-120" font-family="Helvetica,sans-Serif" font-size="10.00" fill="#000000"> &lt; unsigned int, std</text>
<text text-anchor="middle" x="140.5" y="-109" font-family="Helvetica,sans-Serif" font-size="10.00" fill="#000000">::size_t, true &gt;</text>
</g>
</g>
</svg>
