<?xml version="1.0" encoding="UTF-8" standalone="no"?>
<!DOCTYPE svg PUBLIC "-//W3C//DTD SVG 1.1//EN"
 "http://www.w3.org/Graphics/SVG/1.1/DTD/svg11.dtd">
<!-- Generated by graphviz version 2.40.1 (0)
 -->
<!-- Title: CDPL::Math::IdentityMatrix&lt; T &gt; Pages: 1 -->
<svg width="1617pt" height="120pt"
 viewBox="0.00 0.00 1617.00 119.50" xmlns="http://www.w3.org/2000/svg" xmlns:xlink="http://www.w3.org/1999/xlink">
<g id="graph0" class="graph" transform="scale(1 1) rotate(0) translate(4 115.5)">
<title>CDPL::Math::IdentityMatrix&lt; T &gt;</title>
<!-- Node1 -->
<g id="node1" class="node">
<title>Node1</title>
<g id="a_node1"><a xlink:title=" ">
<polygon fill="#bfbfbf" stroke="#000000" points="1434,-47.5 1434,-66.5 1609,-66.5 1609,-47.5 1434,-47.5"/>
<text text-anchor="middle" x="1521.5" y="-54.5" font-family="Helvetica,sans-Serif" font-size="10.00" fill="#000000">CDPL::Math::IdentityMatrix&lt; T &gt;</text>
</a>
</g>
</g>
<!-- Node2 -->
<g id="node2" class="node">
<title>Node2</title>
<g id="a_node2"><a xlink:href="classCDPL_1_1Math_1_1MatrixContainer.html" target="_top" xlink:title=" ">
<polygon fill="none" stroke="#000000" points="1241,-42 1241,-72 1397,-72 1397,-42 1241,-42"/>
<text text-anchor="start" x="1249" y="-60" font-family="Helvetica,sans-Serif" font-size="10.00" fill="#000000">CDPL::Math::MatrixContainer</text>
<text text-anchor="middle" x="1319" y="-49" font-family="Helvetica,sans-Serif" font-size="10.00" fill="#000000">&lt; IdentityMatrix&lt; T &gt; &gt;</text>
</a>
</g>
</g>
<!-- Node2&#45;&gt;Node1 -->
<g id="edge1" class="edge">
<title>Node2&#45;&gt;Node1</title>
<path fill="none" stroke="#191970" d="M1407.2486,-57C1416.0429,-57 1424.9703,-57 1433.7595,-57"/>
<polygon fill="#191970" stroke="#191970" points="1407.0022,-53.5001 1397.0021,-57 1407.0021,-60.5001 1407.0022,-53.5001"/>
</g>
<!-- Node3 -->
<g id="node3" class="node">
<title>Node3</title>
<g id="a_node3"><a xlink:href="classCDPL_1_1Math_1_1MatrixExpression.html" target="_top" xlink:title=" ">
<polygon fill="none" stroke="#000000" points="683.5,-62 683.5,-92 845.5,-92 845.5,-62 683.5,-62"/>
<text text-anchor="start" x="691.5" y="-80" font-family="Helvetica,sans-Serif" font-size="10.00" fill="#000000">CDPL::Math::MatrixExpression</text>
<text text-anchor="middle" x="764.5" y="-69" font-family="Helvetica,sans-Serif" font-size="10.00" fill="#000000">&lt; IdentityMatrix&lt; T &gt; &gt;</text>
</a>
</g>
</g>
<!-- Node3&#45;&gt;Node2 -->
<g id="edge2" class="edge">
<title>Node3&#45;&gt;Node2</title>
<path fill="none" stroke="#191970" d="M855.8579,-74.5311C948.4087,-71.9077 1095.6836,-67.3976 1223,-62 1228.836,-61.7526 1234.8706,-61.4794 1240.9405,-61.192"/>
<polygon fill="#191970" stroke="#191970" points="855.5814,-71.0374 845.6841,-74.8181 855.7789,-78.0346 855.5814,-71.0374"/>
</g>
<!-- Node4 -->
<g id="node4" class="node">
<title>Node4</title>
<g id="a_node4"><a xlink:href="classCDPL_1_1Math_1_1Expression.html" target="_top" xlink:title=" ">
<polygon fill="none" stroke="#000000" points="346.5,-81 346.5,-111 482.5,-111 482.5,-81 346.5,-81"/>
<text text-anchor="start" x="354.5" y="-99" font-family="Helvetica,sans-Serif" font-size="10.00" fill="#000000">CDPL::Math::Expression</text>
<text text-anchor="middle" x="414.5" y="-88" font-family="Helvetica,sans-Serif" font-size="10.00" fill="#000000">&lt; IdentityMatrix&lt; T &gt; &gt;</text>
</a>
</g>
</g>
<!-- Node4&#45;&gt;Node3 -->
<g id="edge3" class="edge">
<title>Node4&#45;&gt;Node3</title>
<path fill="none" stroke="#191970" d="M492.775,-92.2428C538.8457,-89.9779 598.2425,-86.9653 651,-84 661.4469,-83.4128 672.433,-82.7687 683.2872,-82.1165"/>
<polygon fill="#191970" stroke="#191970" points="492.3759,-88.7581 482.5593,-92.7435 492.7187,-95.7497 492.3759,-88.7581"/>
</g>
<!-- Node5 -->
<g id="node5" class="node">
<title>Node5</title>
<g id="a_node5"><a xlink:href="classCDPL_1_1Math_1_1Expression.html" target="_top" xlink:title=" ">
<polygon fill="none" stroke="#000000" points="0,-41.5 0,-60.5 160,-60.5 160,-41.5 0,-41.5"/>
<text text-anchor="middle" x="80" y="-48.5" font-family="Helvetica,sans-Serif" font-size="10.00" fill="#000000">CDPL::Math::Expression&lt; E &gt;</text>
</a>
</g>
</g>
<!-- Node5&#45;&gt;Node4 -->
<g id="edge4" class="edge">
<title>Node5&#45;&gt;Node4</title>
<path fill="none" stroke="#ffa500" stroke-dasharray="5,2" d="M155.9929,-61.9444C163.4277,-62.9886 170.859,-64.022 178,-65 234.7201,-72.7686 299.1515,-81.1874 346.4233,-87.2885"/>
<polygon fill="#ffa500" stroke="#ffa500" points="156.27,-58.4489 145.8791,-60.5179 155.2922,-65.3803 156.27,-58.4489"/>
<text text-anchor="middle" x="239.5" y="-84" font-family="Helvetica,sans-Serif" font-size="10.00" fill="#000000"> &lt; IdentityMatrix&lt; T &gt; &gt;</text>
</g>
<!-- Node6 -->
<g id="node6" class="node">
<title>Node6</title>
<g id="a_node6"><a xlink:href="classCDPL_1_1Math_1_1MatrixExpression.html" target="_top" xlink:title=" ">
<polygon fill="none" stroke="#000000" points="319,-41.5 319,-60.5 510,-60.5 510,-41.5 319,-41.5"/>
<text text-anchor="middle" x="414.5" y="-48.5" font-family="Helvetica,sans-Serif" font-size="10.00" fill="#000000">CDPL::Math::MatrixExpression&lt; E &gt;</text>
</a>
</g>
</g>
<!-- Node5&#45;&gt;Node6 -->
<g id="edge6" class="edge">
<title>Node5&#45;&gt;Node6</title>
<path fill="none" stroke="#191970" d="M170.3778,-51C216.3696,-51 272.2731,-51 318.9728,-51"/>
<polygon fill="#191970" stroke="#191970" points="170.1211,-47.5001 160.1211,-51 170.1211,-54.5001 170.1211,-47.5001"/>
</g>
<!-- Node9 -->
<g id="node9" class="node">
<title>Node9</title>
<g id="a_node9"><a xlink:href="classCDPL_1_1Math_1_1Expression.html" target="_top" xlink:title=" ">
<polygon fill="none" stroke="#000000" points="334,-.5 334,-19.5 495,-19.5 495,-.5 334,-.5"/>
<text text-anchor="middle" x="414.5" y="-7.5" font-family="Helvetica,sans-Serif" font-size="10.00" fill="#000000">CDPL::Math::Expression&lt; C &gt;</text>
</a>
</g>
</g>
<!-- Node5&#45;&gt;Node9 -->
<g id="edge10" class="edge">
<title>Node5&#45;&gt;Node9</title>
<path fill="none" stroke="#ffa500" stroke-dasharray="5,2" d="M149.45,-39.9971C159.0323,-38.588 168.7541,-37.2153 178,-36 229.807,-29.1905 288.1615,-22.7622 333.9427,-18.001"/>
<polygon fill="#ffa500" stroke="#ffa500" points="148.9157,-36.538 139.5407,-41.4737 149.9474,-43.4616 148.9157,-36.538"/>
<text text-anchor="middle" x="239.5" y="-39" font-family="Helvetica,sans-Serif" font-size="10.00" fill="#000000"> &lt; C &gt;</text>
</g>
<!-- Node6&#45;&gt;Node3 -->
<g id="edge5" class="edge">
<title>Node6&#45;&gt;Node3</title>
<path fill="none" stroke="#ffa500" stroke-dasharray="5,2" d="M520.1274,-58.8466C572.4567,-62.7339 634.6602,-67.3548 683.2131,-70.9615"/>
<polygon fill="#ffa500" stroke="#ffa500" points="520.3709,-55.3551 510.139,-58.1046 519.8522,-62.3359 520.3709,-55.3551"/>
<text text-anchor="middle" x="589.5" y="-70" font-family="Helvetica,sans-Serif" font-size="10.00" fill="#000000"> &lt; IdentityMatrix&lt; T &gt; &gt;</text>
</g>
<!-- Node8 -->
<g id="node8" class="node">
<title>Node8</title>
<g id="a_node8"><a xlink:href="classCDPL_1_1Math_1_1MatrixExpression.html" target="_top" xlink:title=" ">
<polygon fill="none" stroke="#000000" points="669,-23.5 669,-42.5 860,-42.5 860,-23.5 669,-23.5"/>
<text text-anchor="middle" x="764.5" y="-30.5" font-family="Helvetica,sans-Serif" font-size="10.00" fill="#000000">CDPL::Math::MatrixExpression&lt; C &gt;</text>
</a>
</g>
</g>
<!-- Node6&#45;&gt;Node8 -->
<g id="edge11" class="edge">
<title>Node6&#45;&gt;Node8</title>
<path fill="none" stroke="#ffa500" stroke-dasharray="5,2" d="M507.4025,-40.5676C514.3671,-39.9725 521.2913,-39.439 528,-39 574.3126,-35.9692 625.8194,-34.4449 668.9113,-33.6878"/>
<polygon fill="#ffa500" stroke="#ffa500" points="506.8387,-37.104 497.1898,-41.4799 507.4616,-44.0762 506.8387,-37.104"/>
<text text-anchor="middle" x="589.5" y="-42" font-family="Helvetica,sans-Serif" font-size="10.00" fill="#000000"> &lt; C &gt;</text>
</g>
<!-- Node7 -->
<g id="node7" class="node">
<title>Node7</title>
<g id="a_node7"><a xlink:href="classCDPL_1_1Math_1_1MatrixContainer.html" target="_top" xlink:title=" ">
<polygon fill="none" stroke="#000000" points="897,-27.5 897,-46.5 1082,-46.5 1082,-27.5 897,-27.5"/>
<text text-anchor="middle" x="989.5" y="-34.5" font-family="Helvetica,sans-Serif" font-size="10.00" fill="#000000">CDPL::Math::MatrixContainer&lt; C &gt;</text>
</a>
</g>
</g>
<!-- Node7&#45;&gt;Node2 -->
<g id="edge7" class="edge">
<title>Node7&#45;&gt;Node2</title>
<path fill="none" stroke="#ffa500" stroke-dasharray="5,2" d="M1092.3131,-43.108C1133.0131,-45.5407 1180.2133,-48.3802 1223,-51 1228.8338,-51.3572 1234.8668,-51.7289 1240.9356,-52.1044"/>
<polygon fill="#ffa500" stroke="#ffa500" points="1092.3033,-39.6013 1082.1124,-42.4987 1091.8859,-46.5888 1092.3033,-39.6013"/>
<text text-anchor="middle" x="1161.5" y="-54" font-family="Helvetica,sans-Serif" font-size="10.00" fill="#000000"> &lt; IdentityMatrix&lt; T &gt; &gt;</text>
</g>
<!-- Node8&#45;&gt;Node7 -->
<g id="edge8" class="edge">
<title>Node8&#45;&gt;Node7</title>
<path fill="none" stroke="#191970" d="M870.4891,-34.8843C879.2459,-35.0399 888.0554,-35.1965 896.7045,-35.3503"/>
<polygon fill="#191970" stroke="#191970" points="870.3072,-31.3806 860.2465,-34.7022 870.1827,-38.3795 870.3072,-31.3806"/>
</g>
<!-- Node9&#45;&gt;Node8 -->
<g id="edge9" class="edge">
<title>Node9&#45;&gt;Node8</title>
<path fill="none" stroke="#191970" d="M505.4371,-15.9759C555.6634,-19.2765 618.0067,-23.3733 668.9481,-26.7209"/>
<polygon fill="#191970" stroke="#191970" points="505.4446,-12.4689 495.2365,-15.3055 504.9855,-19.4538 505.4446,-12.4689"/>
</g>
</g>
</svg>
