<?xml version="1.0" encoding="UTF-8" standalone="no"?>
<!DOCTYPE svg PUBLIC "-//W3C//DTD SVG 1.1//EN"
 "http://www.w3.org/Graphics/SVG/1.1/DTD/svg11.dtd">
<!-- Generated by graphviz version 2.40.1 (0)
 -->
<!-- Title: CDPL::Util::DefaultDataInputHandler&lt; ReaderImpl, Format, DataType &gt; Pages: 1 -->
<svg width="231pt" height="196pt"
 viewBox="0.00 0.00 230.50 196.00" xmlns="http://www.w3.org/2000/svg" xmlns:xlink="http://www.w3.org/1999/xlink">
<g id="graph0" class="graph" transform="scale(1 1) rotate(0) translate(4 192)">
<title>CDPL::Util::DefaultDataInputHandler&lt; ReaderImpl, Format, DataType &gt;</title>
<!-- Node1 -->
<g id="node1" class="node">
<title>Node1</title>
<g id="a_node1"><a xlink:title="DefaultDataInputHandler.">
<polygon fill="#bfbfbf" stroke="#000000" points="17,-.5 17,-41.5 182,-41.5 182,-.5 17,-.5"/>
<text text-anchor="start" x="25" y="-29.5" font-family="Helvetica,sans-Serif" font-size="10.00" fill="#000000">CDPL::Util::DefaultDataInput</text>
<text text-anchor="start" x="25" y="-18.5" font-family="Helvetica,sans-Serif" font-size="10.00" fill="#000000">Handler&lt; ReaderImpl, Format,</text>
<text text-anchor="middle" x="99.5" y="-7.5" font-family="Helvetica,sans-Serif" font-size="10.00" fill="#000000"> DataType &gt;</text>
</a>
</g>
</g>
<!-- Node2 -->
<g id="node2" class="node">
<title>Node2</title>
<g id="a_node2"><a xlink:href="classCDPL_1_1Base_1_1DataInputHandler.html" target="_top" xlink:title=" ">
<polygon fill="none" stroke="#000000" points="0,-79.5 0,-109.5 199,-109.5 199,-79.5 0,-79.5"/>
<text text-anchor="start" x="8" y="-97.5" font-family="Helvetica,sans-Serif" font-size="10.00" fill="#000000">CDPL::Base::DataInputHandler</text>
<text text-anchor="middle" x="99.5" y="-86.5" font-family="Helvetica,sans-Serif" font-size="10.00" fill="#000000">&lt; typename ReaderImpl::DataType &gt;</text>
</a>
</g>
</g>
<!-- Node2&#45;&gt;Node1 -->
<g id="edge1" class="edge">
<title>Node2&#45;&gt;Node1</title>
<path fill="none" stroke="#191970" d="M99.5,-69.2668C99.5,-60.2098 99.5,-50.1146 99.5,-41.5074"/>
<polygon fill="#191970" stroke="#191970" points="96.0001,-69.2707 99.5,-79.2708 103.0001,-69.2708 96.0001,-69.2707"/>
</g>
<!-- Node3 -->
<g id="node3" class="node">
<title>Node3</title>
<g id="a_node3"><a xlink:href="classCDPL_1_1Base_1_1DataInputHandler.html" target="_top" xlink:title="A factory interface providing methods for the creation of Base::DataReader instances handling a parti...">
<polygon fill="none" stroke="#000000" points="3,-168.5 3,-187.5 196,-187.5 196,-168.5 3,-168.5"/>
<text text-anchor="middle" x="99.5" y="-175.5" font-family="Helvetica,sans-Serif" font-size="10.00" fill="#000000">CDPL::Base::DataInputHandler&lt; T &gt;</text>
</a>
</g>
</g>
<!-- Node3&#45;&gt;Node2 -->
<g id="edge2" class="edge">
<title>Node3&#45;&gt;Node2</title>
<path fill="none" stroke="#ffa500" stroke-dasharray="5,2" d="M99.5,-158.2427C99.5,-143.345 99.5,-123.2186 99.5,-109.597"/>
<polygon fill="#ffa500" stroke="#ffa500" points="96.0001,-158.4215 99.5,-168.4215 103.0001,-158.4215 96.0001,-158.4215"/>
<text text-anchor="start" x="99.5" y="-142" font-family="Helvetica,sans-Serif" font-size="10.00" fill="#000000"> &lt; typename ReaderImpl</text>
<text text-anchor="middle" x="161" y="-131" font-family="Helvetica,sans-Serif" font-size="10.00" fill="#000000">::DataType &gt;</text>
</g>
</g>
</svg>
