<?xml version="1.0" encoding="UTF-8" standalone="no"?>
<!DOCTYPE svg PUBLIC "-//W3C//DTD SVG 1.1//EN"
 "http://www.w3.org/Graphics/SVG/1.1/DTD/svg11.dtd">
<!-- Generated by graphviz version 2.40.1 (0)
 -->
<!-- Title: CDPL::Math::ScalingMatrix&lt; T &gt; Pages: 1 -->
<svg width="1609pt" height="120pt"
 viewBox="0.00 0.00 1609.00 119.50" xmlns="http://www.w3.org/2000/svg" xmlns:xlink="http://www.w3.org/1999/xlink">
<g id="graph0" class="graph" transform="scale(1 1) rotate(0) translate(4 115.5)">
<title>CDPL::Math::ScalingMatrix&lt; T &gt;</title>
<!-- Node1 -->
<g id="node1" class="node">
<title>Node1</title>
<g id="a_node1"><a xlink:title=" ">
<polygon fill="#bfbfbf" stroke="#000000" points="1428,-47.5 1428,-66.5 1601,-66.5 1601,-47.5 1428,-47.5"/>
<text text-anchor="middle" x="1514.5" y="-54.5" font-family="Helvetica,sans-Serif" font-size="10.00" fill="#000000">CDPL::Math::ScalingMatrix&lt; T &gt;</text>
</a>
</g>
</g>
<!-- Node2 -->
<g id="node2" class="node">
<title>Node2</title>
<g id="a_node2"><a xlink:href="classCDPL_1_1Math_1_1MatrixContainer.html" target="_top" xlink:title=" ">
<polygon fill="none" stroke="#000000" points="1235,-42 1235,-72 1391,-72 1391,-42 1235,-42"/>
<text text-anchor="start" x="1243" y="-60" font-family="Helvetica,sans-Serif" font-size="10.00" fill="#000000">CDPL::Math::MatrixContainer</text>
<text text-anchor="middle" x="1313" y="-49" font-family="Helvetica,sans-Serif" font-size="10.00" fill="#000000">&lt; ScalingMatrix&lt; T &gt; &gt;</text>
</a>
</g>
</g>
<!-- Node2&#45;&gt;Node1 -->
<g id="edge1" class="edge">
<title>Node2&#45;&gt;Node1</title>
<path fill="none" stroke="#191970" d="M1401.459,-57C1410.2675,-57 1419.2032,-57 1427.9913,-57"/>
<polygon fill="#191970" stroke="#191970" points="1401.1936,-53.5001 1391.1936,-57 1401.1935,-60.5001 1401.1936,-53.5001"/>
</g>
<!-- Node3 -->
<g id="node3" class="node">
<title>Node3</title>
<g id="a_node3"><a xlink:href="classCDPL_1_1Math_1_1MatrixExpression.html" target="_top" xlink:title=" ">
<polygon fill="none" stroke="#000000" points="679.5,-62 679.5,-92 841.5,-92 841.5,-62 679.5,-62"/>
<text text-anchor="start" x="687.5" y="-80" font-family="Helvetica,sans-Serif" font-size="10.00" fill="#000000">CDPL::Math::MatrixExpression</text>
<text text-anchor="middle" x="760.5" y="-69" font-family="Helvetica,sans-Serif" font-size="10.00" fill="#000000">&lt; ScalingMatrix&lt; T &gt; &gt;</text>
</a>
</g>
</g>
<!-- Node3&#45;&gt;Node2 -->
<g id="edge2" class="edge">
<title>Node3&#45;&gt;Node2</title>
<path fill="none" stroke="#191970" d="M851.876,-74.5131C944.0479,-71.8832 1090.4296,-67.3751 1217,-62 1222.836,-61.7522 1228.8706,-61.4786 1234.9405,-61.1911"/>
<polygon fill="#191970" stroke="#191970" points="851.6392,-71.0183 841.7426,-74.8009 851.838,-78.0155 851.6392,-71.0183"/>
</g>
<!-- Node4 -->
<g id="node4" class="node">
<title>Node4</title>
<g id="a_node4"><a xlink:href="classCDPL_1_1Math_1_1Expression.html" target="_top" xlink:title=" ">
<polygon fill="none" stroke="#000000" points="345.5,-81 345.5,-111 479.5,-111 479.5,-81 345.5,-81"/>
<text text-anchor="start" x="353.5" y="-99" font-family="Helvetica,sans-Serif" font-size="10.00" fill="#000000">CDPL::Math::Expression</text>
<text text-anchor="middle" x="412.5" y="-88" font-family="Helvetica,sans-Serif" font-size="10.00" fill="#000000">&lt; ScalingMatrix&lt; T &gt; &gt;</text>
</a>
</g>
</g>
<!-- Node4&#45;&gt;Node3 -->
<g id="edge3" class="edge">
<title>Node4&#45;&gt;Node3</title>
<path fill="none" stroke="#191970" d="M489.865,-92.2449C535.5806,-89.9751 594.5935,-86.9569 647,-84 657.4468,-83.4106 668.4328,-82.7652 679.287,-82.1122"/>
<polygon fill="#191970" stroke="#191970" points="489.544,-88.7564 479.7293,-92.7467 489.8902,-95.7478 489.544,-88.7564"/>
</g>
<!-- Node5 -->
<g id="node5" class="node">
<title>Node5</title>
<g id="a_node5"><a xlink:href="classCDPL_1_1Math_1_1Expression.html" target="_top" xlink:title=" ">
<polygon fill="none" stroke="#000000" points="0,-41.5 0,-60.5 160,-60.5 160,-41.5 0,-41.5"/>
<text text-anchor="middle" x="80" y="-48.5" font-family="Helvetica,sans-Serif" font-size="10.00" fill="#000000">CDPL::Math::Expression&lt; E &gt;</text>
</a>
</g>
</g>
<!-- Node5&#45;&gt;Node4 -->
<g id="edge4" class="edge">
<title>Node5&#45;&gt;Node4</title>
<path fill="none" stroke="#ffa500" stroke-dasharray="5,2" d="M155.994,-61.9362C163.4286,-62.9821 170.8596,-64.018 178,-65 234.3461,-72.7489 298.3616,-81.1869 345.2556,-87.3002"/>
<polygon fill="#ffa500" stroke="#ffa500" points="156.2717,-58.4407 145.8805,-60.5079 155.2928,-65.372 156.2717,-58.4407"/>
<text text-anchor="middle" x="238.5" y="-83" font-family="Helvetica,sans-Serif" font-size="10.00" fill="#000000"> &lt; ScalingMatrix&lt; T &gt; &gt;</text>
</g>
<!-- Node6 -->
<g id="node6" class="node">
<title>Node6</title>
<g id="a_node6"><a xlink:href="classCDPL_1_1Math_1_1MatrixExpression.html" target="_top" xlink:title=" ">
<polygon fill="none" stroke="#000000" points="317,-41.5 317,-60.5 508,-60.5 508,-41.5 317,-41.5"/>
<text text-anchor="middle" x="412.5" y="-48.5" font-family="Helvetica,sans-Serif" font-size="10.00" fill="#000000">CDPL::Math::MatrixExpression&lt; E &gt;</text>
</a>
</g>
</g>
<!-- Node5&#45;&gt;Node6 -->
<g id="edge6" class="edge">
<title>Node5&#45;&gt;Node6</title>
<path fill="none" stroke="#191970" d="M170.198,-51C215.6233,-51 270.7047,-51 316.8652,-51"/>
<polygon fill="#191970" stroke="#191970" points="170.0652,-47.5001 160.0652,-51 170.0651,-54.5001 170.0652,-47.5001"/>
</g>
<!-- Node9 -->
<g id="node9" class="node">
<title>Node9</title>
<g id="a_node9"><a xlink:href="classCDPL_1_1Math_1_1Expression.html" target="_top" xlink:title=" ">
<polygon fill="none" stroke="#000000" points="332,-.5 332,-19.5 493,-19.5 493,-.5 332,-.5"/>
<text text-anchor="middle" x="412.5" y="-7.5" font-family="Helvetica,sans-Serif" font-size="10.00" fill="#000000">CDPL::Math::Expression&lt; C &gt;</text>
</a>
</g>
</g>
<!-- Node5&#45;&gt;Node9 -->
<g id="edge10" class="edge">
<title>Node5&#45;&gt;Node9</title>
<path fill="none" stroke="#ffa500" stroke-dasharray="5,2" d="M149.4511,-40.0051C159.0331,-38.5948 168.7547,-37.2196 178,-36 229.0664,-29.2638 286.5462,-22.8719 331.8169,-18.1114"/>
<polygon fill="#ffa500" stroke="#ffa500" points="148.9164,-36.5461 139.5419,-41.4825 149.9487,-43.4695 148.9164,-36.5461"/>
<text text-anchor="middle" x="238.5" y="-39" font-family="Helvetica,sans-Serif" font-size="10.00" fill="#000000"> &lt; C &gt;</text>
</g>
<!-- Node6&#45;&gt;Node3 -->
<g id="edge5" class="edge">
<title>Node6&#45;&gt;Node3</title>
<path fill="none" stroke="#ffa500" stroke-dasharray="5,2" d="M518.2672,-58.9021C570.0108,-62.7681 631.3201,-67.3486 679.3118,-70.9342"/>
<polygon fill="#ffa500" stroke="#ffa500" points="518.2858,-55.3939 508.0528,-58.139 517.7642,-62.3744 518.2858,-55.3939"/>
<text text-anchor="middle" x="586.5" y="-70" font-family="Helvetica,sans-Serif" font-size="10.00" fill="#000000"> &lt; ScalingMatrix&lt; T &gt; &gt;</text>
</g>
<!-- Node8 -->
<g id="node8" class="node">
<title>Node8</title>
<g id="a_node8"><a xlink:href="classCDPL_1_1Math_1_1MatrixExpression.html" target="_top" xlink:title=" ">
<polygon fill="none" stroke="#000000" points="665,-23.5 665,-42.5 856,-42.5 856,-23.5 665,-23.5"/>
<text text-anchor="middle" x="760.5" y="-30.5" font-family="Helvetica,sans-Serif" font-size="10.00" fill="#000000">CDPL::Math::MatrixExpression&lt; C &gt;</text>
</a>
</g>
</g>
<!-- Node6&#45;&gt;Node8 -->
<g id="edge11" class="edge">
<title>Node6&#45;&gt;Node8</title>
<path fill="none" stroke="#ffa500" stroke-dasharray="5,2" d="M505.4026,-40.5693C512.3672,-39.9738 519.2913,-39.4398 526,-39 571.6161,-36.0098 622.3143,-34.4883 664.8677,-33.7224"/>
<polygon fill="#ffa500" stroke="#ffa500" points="504.8387,-37.1056 495.19,-41.482 505.4618,-44.0778 504.8387,-37.1056"/>
<text text-anchor="middle" x="586.5" y="-42" font-family="Helvetica,sans-Serif" font-size="10.00" fill="#000000"> &lt; C &gt;</text>
</g>
<!-- Node7 -->
<g id="node7" class="node">
<title>Node7</title>
<g id="a_node7"><a xlink:href="classCDPL_1_1Math_1_1MatrixContainer.html" target="_top" xlink:title=" ">
<polygon fill="none" stroke="#000000" points="893,-27.5 893,-46.5 1078,-46.5 1078,-27.5 893,-27.5"/>
<text text-anchor="middle" x="985.5" y="-34.5" font-family="Helvetica,sans-Serif" font-size="10.00" fill="#000000">CDPL::Math::MatrixContainer&lt; C &gt;</text>
</a>
</g>
</g>
<!-- Node7&#45;&gt;Node2 -->
<g id="edge7" class="edge">
<title>Node7&#45;&gt;Node2</title>
<path fill="none" stroke="#ffa500" stroke-dasharray="5,2" d="M1088.2256,-43.1677C1128.396,-45.5913 1174.857,-48.4087 1217,-51 1222.8337,-51.3587 1228.8667,-51.7315 1234.9354,-52.1078"/>
<polygon fill="#ffa500" stroke="#ffa500" points="1088.3474,-39.6688 1078.1548,-42.5604 1087.9259,-46.6561 1088.3474,-39.6688"/>
<text text-anchor="middle" x="1156.5" y="-54" font-family="Helvetica,sans-Serif" font-size="10.00" fill="#000000"> &lt; ScalingMatrix&lt; T &gt; &gt;</text>
</g>
<!-- Node8&#45;&gt;Node7 -->
<g id="edge8" class="edge">
<title>Node8&#45;&gt;Node7</title>
<path fill="none" stroke="#191970" d="M866.4891,-34.8843C875.2459,-35.0399 884.0554,-35.1965 892.7045,-35.3503"/>
<polygon fill="#191970" stroke="#191970" points="866.3072,-31.3806 856.2465,-34.7022 866.1827,-38.3795 866.3072,-31.3806"/>
</g>
<!-- Node9&#45;&gt;Node8 -->
<g id="edge9" class="edge">
<title>Node9&#45;&gt;Node8</title>
<path fill="none" stroke="#191970" d="M503.2962,-16.0009C552.9333,-19.2815 614.3857,-23.343 664.7744,-26.6733"/>
<polygon fill="#191970" stroke="#191970" points="503.422,-12.5017 493.2129,-15.3345 502.9603,-19.4864 503.422,-12.5017"/>
</g>
</g>
</svg>
