<?xml version="1.0" encoding="UTF-8" standalone="no"?>
<!DOCTYPE svg PUBLIC "-//W3C//DTD SVG 1.1//EN"
 "http://www.w3.org/Graphics/SVG/1.1/DTD/svg11.dtd">
<!-- Generated by graphviz version 2.40.1 (0)
 -->
<!-- Title: CDPL::Math::TranslationMatrix&lt; T &gt; Pages: 1 -->
<!--zoomable 124 -->
<svg id="main" version="1.1" xmlns="http://www.w3.org/2000/svg" xmlns:xlink="http://www.w3.org/1999/xlink" xml:space="preserve" onload="init(evt)">
<style type="text/css"><![CDATA[
.edge:hover path { stroke: red; }
.edge:hover polygon { stroke: red; fill: red; }
]]></style>
<script type="text/javascript"><![CDATA[
var edges = document.getElementsByTagName('g');
if (edges && edges.length) {
  for (var i=0;i<edges.length;i++) {
    if (edges[i].id.substr(0,4)=='edge') {
      edges[i].setAttribute('class','edge');
    }
  }
}
]]></script>
        <defs>
                <circle id="rim" cx="0" cy="0" r="7"/>
                <circle id="rim2" cx="0" cy="0" r="3.5"/>
                <g id="zoomPlus">
                        <use xlink:href="#rim" fill="#404040">
                                <set attributeName="fill" to="#808080" begin="zoomplus.mouseover" end="zoomplus.mouseout"/>
                        </use>
                        <path d="M-4,0h8M0,-4v8" fill="none" stroke="white" stroke-width="1.5" pointer-events="none"/>
                </g>
                <g id="zoomMin">
                        <use xlink:href="#rim" fill="#404040">
                                <set attributeName="fill" to="#808080" begin="zoomminus.mouseover" end="zoomminus.mouseout"/>
                        </use>
                        <path d="M-4,0h8" fill="none" stroke="white" stroke-width="1.5" pointer-events="none"/>
                </g>
                <g id="dirArrow">
                        <path fill="none" stroke="white" stroke-width="1.5" d="M0,-3.0v7 M-2.5,-0.5L0,-3.0L2.5,-0.5"/>
                </g>
               <g id="resetDef">
                       <use xlink:href="#rim2" fill="#404040">
                               <set attributeName="fill" to="#808080" begin="reset.mouseover" end="reset.mouseout"/>
                       </use>
               </g>
        </defs>

<script type="text/javascript">
var viewWidth = 1561;
var viewHeight = 124;
var sectionId = 'dynsection-0';
</script>
<script xlink:href="svgpan.js"/>
<svg id="graph" class="graph">
<g id="viewport">
<title>CDPL::Math::TranslationMatrix&lt; T &gt;</title>
<!-- Node1 -->
<g id="node1" class="node">
<title>Node1</title>
<g id="a_node1"><a xlink:title=" ">
<polygon fill="#bfbfbf" stroke="#000000" points="1362,-41.5 1362,-60.5 1553,-60.5 1553,-41.5 1362,-41.5"/>
<text text-anchor="middle" x="1457.5" y="-48.5" font-family="Helvetica,sans-Serif" font-size="10.00" fill="#000000">CDPL::Math::TranslationMatrix&lt; T &gt;</text>
</a>
</g>
</g>
<!-- Node2 -->
<g id="node2" class="node">
<title>Node2</title>
<g id="a_node2"><a xlink:href="classCDPL_1_1Math_1_1MatrixContainer.html" target="_top" xlink:title=" ">
<polygon fill="none" stroke="#000000" points="1169,-36 1169,-66 1325,-66 1325,-36 1169,-36"/>
<text text-anchor="start" x="1177" y="-54" font-family="Helvetica,sans-Serif" font-size="10.00" fill="#000000">CDPL::Math::MatrixContainer</text>
<text text-anchor="middle" x="1247" y="-43" font-family="Helvetica,sans-Serif" font-size="10.00" fill="#000000">&lt; TranslationMatrix&lt; T &gt; &gt;</text>
</a>
</g>
</g>
<!-- Node2&#45;&gt;Node1 -->
<g id="edge1" class="edge">
<title>Node2&#45;&gt;Node1</title>
<path fill="none" stroke="#191970" d="M1335.2567,-51C1343.9986,-51 1352.9011,-51 1361.7143,-51"/>
<polygon fill="#191970" stroke="#191970" points="1335.0833,-47.5001 1325.0833,-51 1335.0833,-54.5001 1335.0833,-47.5001"/>
</g>
<!-- Node3 -->
<g id="node3" class="node">
<title>Node3</title>
<g id="a_node3"><a xlink:href="classCDPL_1_1Math_1_1MatrixExpression.html" target="_top" xlink:title=" ">
<polygon fill="none" stroke="#000000" points="635.5,-56 635.5,-86 797.5,-86 797.5,-56 635.5,-56"/>
<text text-anchor="start" x="643.5" y="-74" font-family="Helvetica,sans-Serif" font-size="10.00" fill="#000000">CDPL::Math::MatrixExpression</text>
<text text-anchor="middle" x="716.5" y="-63" font-family="Helvetica,sans-Serif" font-size="10.00" fill="#000000">&lt; TranslationMatrix&lt; T &gt; &gt;</text>
</a>
</g>
</g>
<!-- Node3&#45;&gt;Node2 -->
<g id="edge2" class="edge">
<title>Node3&#45;&gt;Node2</title>
<path fill="none" stroke="#191970" d="M808.011,-68.3068C895.9539,-65.6084 1032.5845,-61.1273 1151,-56 1156.8358,-55.7473 1162.8703,-55.4703 1168.94,-55.1802"/>
<polygon fill="#191970" stroke="#191970" points="807.6865,-64.815 797.7981,-68.6189 807.9004,-71.8117 807.6865,-64.815"/>
</g>
<!-- Node4 -->
<g id="node4" class="node">
<title>Node4</title>
<g id="a_node4"><a xlink:href="classCDPL_1_1Math_1_1Expression.html" target="_top" xlink:title=" ">
<polygon fill="none" stroke="#000000" points="314.5,-85 314.5,-115 466.5,-115 466.5,-85 314.5,-85"/>
<text text-anchor="start" x="322.5" y="-103" font-family="Helvetica,sans-Serif" font-size="10.00" fill="#000000">CDPL::Math::Expression</text>
<text text-anchor="middle" x="390.5" y="-92" font-family="Helvetica,sans-Serif" font-size="10.00" fill="#000000">&lt; TranslationMatrix&lt; T &gt; &gt;</text>
</a>
</g>
</g>
<!-- Node4&#45;&gt;Node3 -->
<g id="edge3" class="edge">
<title>Node4&#45;&gt;Node3</title>
<path fill="none" stroke="#191970" d="M477.0434,-97.5901C515.6643,-95.982 561.6852,-93.3332 603,-89 613.5164,-87.897 624.5432,-86.4792 635.4183,-84.9243"/>
<polygon fill="#191970" stroke="#191970" points="476.7278,-94.0999 466.8757,-97.9968 477.0076,-101.0943 476.7278,-94.0999"/>
</g>
<!-- Node5 -->
<g id="node5" class="node">
<title>Node5</title>
<g id="a_node5"><a xlink:href="classCDPL_1_1Math_1_1Expression.html" target="_top" xlink:title=" ">
<polygon fill="none" stroke="#000000" points="0,-43.5 0,-62.5 160,-62.5 160,-43.5 0,-43.5"/>
<text text-anchor="middle" x="80" y="-50.5" font-family="Helvetica,sans-Serif" font-size="10.00" fill="#000000">CDPL::Math::Expression&lt; E &gt;</text>
</a>
</g>
</g>
<!-- Node5&#45;&gt;Node4 -->
<g id="edge4" class="edge">
<title>Node5&#45;&gt;Node4</title>
<path fill="none" stroke="#ffa500" stroke-dasharray="5,2" d="M152.9518,-64.0426C201.4885,-71.3896 265.121,-81.0215 314.3102,-88.4672"/>
<polygon fill="#ffa500" stroke="#ffa500" points="153.2455,-60.5473 142.8343,-62.5112 152.1978,-67.4685 153.2455,-60.5473"/>
<text text-anchor="start" x="178" y="-96" font-family="Helvetica,sans-Serif" font-size="10.00" fill="#000000"> &lt; TranslationMatrix</text>
<text text-anchor="middle" x="227.5" y="-85" font-family="Helvetica,sans-Serif" font-size="10.00" fill="#000000">&lt; T &gt; &gt;</text>
</g>
<!-- Node6 -->
<g id="node6" class="node">
<title>Node6</title>
<g id="a_node6"><a xlink:href="classCDPL_1_1Math_1_1MatrixExpression.html" target="_top" xlink:title=" ">
<polygon fill="none" stroke="#000000" points="295,-43.5 295,-62.5 486,-62.5 486,-43.5 295,-43.5"/>
<text text-anchor="middle" x="390.5" y="-50.5" font-family="Helvetica,sans-Serif" font-size="10.00" fill="#000000">CDPL::Math::MatrixExpression&lt; E &gt;</text>
</a>
</g>
</g>
<!-- Node5&#45;&gt;Node6 -->
<g id="edge6" class="edge">
<title>Node5&#45;&gt;Node6</title>
<path fill="none" stroke="#191970" d="M170.646,-53C209.6192,-53 255.2033,-53 294.728,-53"/>
<polygon fill="#191970" stroke="#191970" points="170.3653,-49.5001 160.3653,-53 170.3652,-56.5001 170.3653,-49.5001"/>
</g>
<!-- Node9 -->
<g id="node9" class="node">
<title>Node9</title>
<g id="a_node9"><a xlink:href="classCDPL_1_1Math_1_1Expression.html" target="_top" xlink:title=" ">
<polygon fill="none" stroke="#000000" points="310,-.5 310,-19.5 471,-19.5 471,-.5 310,-.5"/>
<text text-anchor="middle" x="390.5" y="-7.5" font-family="Helvetica,sans-Serif" font-size="10.00" fill="#000000">CDPL::Math::Expression&lt; C &gt;</text>
</a>
</g>
</g>
<!-- Node5&#45;&gt;Node9 -->
<g id="edge10" class="edge">
<title>Node5&#45;&gt;Node9</title>
<path fill="none" stroke="#ffa500" stroke-dasharray="5,2" d="M151.0448,-41.9471C160.1126,-40.589 169.2716,-39.2429 178,-38 223.4969,-31.5214 274.5517,-24.7771 315.2134,-19.5314"/>
<polygon fill="#ffa500" stroke="#ffa500" points="150.2399,-38.5288 140.8736,-43.4808 151.2837,-45.4506 150.2399,-38.5288"/>
<text text-anchor="middle" x="227.5" y="-41" font-family="Helvetica,sans-Serif" font-size="10.00" fill="#000000"> &lt; C &gt;</text>
</g>
<!-- Node6&#45;&gt;Node3 -->
<g id="edge5" class="edge">
<title>Node6&#45;&gt;Node3</title>
<path fill="none" stroke="#ffa500" stroke-dasharray="5,2" d="M496.2243,-58.8375C541.3498,-61.3291 593.185,-64.1912 635.2315,-66.5128"/>
<polygon fill="#ffa500" stroke="#ffa500" points="496.2858,-55.3357 486.108,-58.279 495.8998,-62.325 496.2858,-55.3357"/>
<text text-anchor="start" x="504" y="-78" font-family="Helvetica,sans-Serif" font-size="10.00" fill="#000000"> &lt; TranslationMatrix</text>
<text text-anchor="middle" x="553.5" y="-67" font-family="Helvetica,sans-Serif" font-size="10.00" fill="#000000">&lt; T &gt; &gt;</text>
</g>
<!-- Node8 -->
<g id="node8" class="node">
<title>Node8</title>
<g id="a_node8"><a xlink:href="classCDPL_1_1Math_1_1MatrixExpression.html" target="_top" xlink:title=" ">
<polygon fill="none" stroke="#000000" points="621,-17.5 621,-36.5 812,-36.5 812,-17.5 621,-17.5"/>
<text text-anchor="middle" x="716.5" y="-24.5" font-family="Helvetica,sans-Serif" font-size="10.00" fill="#000000">CDPL::Math::MatrixExpression&lt; C &gt;</text>
</a>
</g>
</g>
<!-- Node6&#45;&gt;Node8 -->
<g id="edge11" class="edge">
<title>Node6&#45;&gt;Node8</title>
<path fill="none" stroke="#ffa500" stroke-dasharray="5,2" d="M496.1882,-44.5709C536.3146,-41.3706 581.7508,-37.7469 620.8937,-34.625"/>
<polygon fill="#ffa500" stroke="#ffa500" points="495.7981,-41.0908 486.108,-45.3748 496.3547,-48.0686 495.7981,-41.0908"/>
<text text-anchor="middle" x="553.5" y="-47" font-family="Helvetica,sans-Serif" font-size="10.00" fill="#000000"> &lt; C &gt;</text>
</g>
<!-- Node7 -->
<g id="node7" class="node">
<title>Node7</title>
<g id="a_node7"><a xlink:href="classCDPL_1_1Math_1_1MatrixContainer.html" target="_top" xlink:title=" ">
<polygon fill="none" stroke="#000000" points="849,-21.5 849,-40.5 1034,-40.5 1034,-21.5 849,-21.5"/>
<text text-anchor="middle" x="941.5" y="-28.5" font-family="Helvetica,sans-Serif" font-size="10.00" fill="#000000">CDPL::Math::MatrixContainer&lt; C &gt;</text>
</a>
</g>
</g>
<!-- Node7&#45;&gt;Node2 -->
<g id="edge7" class="edge">
<title>Node7&#45;&gt;Node2</title>
<path fill="none" stroke="#ffa500" stroke-dasharray="5,2" d="M1044.6328,-29.1828C1078.5751,-29.4627 1116.46,-30.716 1151,-34 1156.8132,-34.5527 1162.8032,-35.2652 1168.8166,-36.0844"/>
<polygon fill="#ffa500" stroke="#ffa500" points="1044.2527,-25.6807 1034.2337,-29.126 1044.2144,-32.6806 1044.2527,-25.6807"/>
<text text-anchor="start" x="1052" y="-48" font-family="Helvetica,sans-Serif" font-size="10.00" fill="#000000"> &lt; TranslationMatrix</text>
<text text-anchor="middle" x="1101.5" y="-37" font-family="Helvetica,sans-Serif" font-size="10.00" fill="#000000">&lt; T &gt; &gt;</text>
</g>
<!-- Node8&#45;&gt;Node7 -->
<g id="edge8" class="edge">
<title>Node8&#45;&gt;Node7</title>
<path fill="none" stroke="#191970" d="M822.4891,-28.8843C831.2459,-29.0399 840.0554,-29.1965 848.7045,-29.3503"/>
<polygon fill="#191970" stroke="#191970" points="822.3072,-25.3806 812.2465,-28.7022 822.1827,-32.3795 822.3072,-25.3806"/>
</g>
<!-- Node9&#45;&gt;Node8 -->
<g id="edge9" class="edge">
<title>Node9&#45;&gt;Node8</title>
<path fill="none" stroke="#191970" d="M481.4966,-9.1166C519.1418,-9.3145 563.2132,-10.2734 603,-13 618.0539,-14.0316 634.1728,-15.6846 649.3977,-17.4991"/>
<polygon fill="#191970" stroke="#191970" points="481.0702,-5.6151 471.058,-9.0801 481.0457,-12.6151 481.0702,-5.6151"/>
</g>
</g>
</svg>
        <g id="navigator" transform="translate(0 0)" fill="#404254">
                <rect fill="#f2f5e9" fill-opacity="0.5" stroke="#606060" stroke-width=".5" x="0" y="0" width="60" height="60"/>
                <use id="zoomplus" xlink:href="#zoomPlus" x="17" y="9" onmousedown="handleZoom(evt,'in')"/>
                <use id="zoomminus" xlink:href="#zoomMin" x="42" y="9" onmousedown="handleZoom(evt,'out')"/>
                <use id="reset" xlink:href="#resetDef" x="30" y="36" onmousedown="handleReset()"/>
                <g id="arrowUp" xlink:href="#dirArrow" transform="translate(30 24)" onmousedown="handlePan(0,-1)">
                  <use xlink:href="#rim" fill="#404040">
                        <set attributeName="fill" to="#808080" begin="arrowUp.mouseover" end="arrowUp.mouseout"/>
                  </use>
                  <path fill="none" stroke="white" stroke-width="1.5" d="M0,-3.0v7 M-2.5,-0.5L0,-3.0L2.5,-0.5"/>
                </g>
                <g id="arrowRight" xlink:href="#dirArrow" transform="rotate(90) translate(36 -43)" onmousedown="handlePan(1,0)">
                  <use xlink:href="#rim" fill="#404040">
                        <set attributeName="fill" to="#808080" begin="arrowRight.mouseover" end="arrowRight.mouseout"/>
                  </use>
                  <path fill="none" stroke="white" stroke-width="1.5" d="M0,-3.0v7 M-2.5,-0.5L0,-3.0L2.5,-0.5"/>
                </g>
                <g id="arrowDown" xlink:href="#dirArrow" transform="rotate(180) translate(-30 -48)" onmousedown="handlePan(0,1)">
                  <use xlink:href="#rim" fill="#404040">
                        <set attributeName="fill" to="#808080" begin="arrowDown.mouseover" end="arrowDown.mouseout"/>
                  </use>
                  <path fill="none" stroke="white" stroke-width="1.5" d="M0,-3.0v7 M-2.5,-0.5L0,-3.0L2.5,-0.5"/>
                </g>
                <g id="arrowLeft" xlink:href="#dirArrow" transform="rotate(270) translate(-36 17)" onmousedown="handlePan(-1,0)">
                  <use xlink:href="#rim" fill="#404040">
                        <set attributeName="fill" to="#808080" begin="arrowLeft.mouseover" end="arrowLeft.mouseout"/>
                  </use>
                  <path fill="none" stroke="white" stroke-width="1.5" d="M0,-3.0v7 M-2.5,-0.5L0,-3.0L2.5,-0.5"/>
                </g>
        </g>
        <svg viewBox="0 0 15 15" width="100%" height="30px" preserveAspectRatio="xMaxYMin meet">
         <g id="arrow_out" transform="scale(0.3 0.3)">
          <a xlink:href="classCDPL_1_1Math_1_1TranslationMatrix__inherit__graph_org.svg" target="_base">
           <rect id="button" ry="5" rx="5" y="6" x="6" height="38" width="38"
                fill="#f2f5e9" fill-opacity="0.5" stroke="#606060" stroke-width="1.0"/>
           <path id="arrow"
             d="M 11.500037,31.436501 C 11.940474,20.09759 22.043105,11.32322 32.158766,21.979434 L 37.068811,17.246167 C 37.068811,17.246167 37.088388,32 37.088388,32 L 22.160133,31.978069 C 22.160133,31.978069 26.997745,27.140456 26.997745,27.140456 C 18.528582,18.264221 13.291696,25.230495 11.500037,31.436501 z"
             style="fill:#404040;"/>
          </a>
         </g>
        </svg>
</svg>
