<?xml version="1.0" encoding="UTF-8" standalone="no"?>
<!DOCTYPE svg PUBLIC "-//W3C//DTD SVG 1.1//EN"
 "http://www.w3.org/Graphics/SVG/1.1/DTD/svg11.dtd">
<!-- Generated by graphviz version 2.40.1 (0)
 -->
<!-- Title: ForceField Pages: 1 -->
<svg width="184pt" height="367pt"
 viewBox="0.00 0.00 184.19 367.00" xmlns="http://www.w3.org/2000/svg" xmlns:xlink="http://www.w3.org/1999/xlink">
<g id="graph0" class="graph" transform="scale(1 1) rotate(0) translate(4 363)">
<title>ForceField</title>
<g id="clust1" class="cluster">
<title>clusterdir_d9e3ca1242923a0f3e299c3c2535cd81</title>
<g id="a_clust1"><a xlink:href="dir_d9e3ca1242923a0f3e299c3c2535cd81.html" target="_top" xlink:title="CDPL">
<polygon fill="#ddddee" stroke="#000000" points="25.1859,-280 25.1859,-351 107.1859,-351 107.1859,-280 25.1859,-280"/>
<text text-anchor="middle" x="66.1859" y="-339" font-family="Helvetica,sans-Serif" font-size="10.00" fill="#000000">CDPL</text>
</a>
</g>
</g>
<!-- dir_f85293c44cb7dbf0b9661f2bdcd7f1cd -->
<g id="node1" class="node">
<title>dir_f85293c44cb7dbf0b9661f2bdcd7f1cd</title>
<g id="a_node1"><a xlink:href="dir_f85293c44cb7dbf0b9661f2bdcd7f1cd.html" target="_top" xlink:title="ForceField">
<polygon fill="#eeeeff" stroke="#000000" points="98.6859,-324 33.6859,-324 33.6859,-288 98.6859,-288 98.6859,-324"/>
<text text-anchor="middle" x="66.1859" y="-303.5" font-family="Helvetica,sans-Serif" font-size="10.00" fill="#000000">ForceField</text>
</a>
</g>
</g>
<!-- dir_7ca0558073eba65288e02324c8ceb8f8 -->
<g id="node2" class="node">
<title>dir_7ca0558073eba65288e02324c8ceb8f8</title>
<g id="a_node2"><a xlink:href="dir_7ca0558073eba65288e02324c8ceb8f8.html" target="_top" xlink:title="Base">
<polygon fill="none" stroke="#000000" points="101.1859,-36 47.1859,-36 47.1859,0 101.1859,0 101.1859,-36"/>
<text text-anchor="middle" x="74.1859" y="-15.5" font-family="Helvetica,sans-Serif" font-size="10.00" fill="#000000">Base</text>
</a>
</g>
</g>
<!-- dir_f85293c44cb7dbf0b9661f2bdcd7f1cd&#45;&gt;dir_7ca0558073eba65288e02324c8ceb8f8 -->
<g id="edge6" class="edge">
<title>dir_f85293c44cb7dbf0b9661f2bdcd7f1cd&#45;&gt;dir_7ca0558073eba65288e02324c8ceb8f8</title>
<path fill="none" stroke="#000000" d="M51.067,-287.99C28.2283,-258.5546 -10.9811,-197.9998 3.1859,-144 12.9467,-106.7954 36.4489,-68.9997 53.7521,-44.6422"/>
<polygon fill="#000000" stroke="#000000" points="56.7646,-46.4502 59.8095,-36.3023 51.1009,-42.3365 56.7646,-46.4502"/>
<g id="a_edge6&#45;headlabel"><a xlink:href="dir_000009_000005.html" target="_top" xlink:title="1">
<text text-anchor="middle" x="56.9495" y="-48.5272" font-family="Helvetica,sans-Serif" font-size="10.00" fill="#000000">1</text>
</a>
</g>
</g>
<!-- dir_2821c7f3ff716b7357153e2284349b47 -->
<g id="node3" class="node">
<title>dir_2821c7f3ff716b7357153e2284349b47</title>
<g id="a_node3"><a xlink:href="dir_2821c7f3ff716b7357153e2284349b47.html" target="_top" xlink:title="Chem">
<polygon fill="none" stroke="#000000" points="121.1859,-252 67.1859,-252 67.1859,-216 121.1859,-216 121.1859,-252"/>
<text text-anchor="middle" x="94.1859" y="-231.5" font-family="Helvetica,sans-Serif" font-size="10.00" fill="#000000">Chem</text>
</a>
</g>
</g>
<!-- dir_f85293c44cb7dbf0b9661f2bdcd7f1cd&#45;&gt;dir_2821c7f3ff716b7357153e2284349b47 -->
<g id="edge7" class="edge">
<title>dir_f85293c44cb7dbf0b9661f2bdcd7f1cd&#45;&gt;dir_2821c7f3ff716b7357153e2284349b47</title>
<path fill="none" stroke="#000000" d="M73.2515,-287.8314C76.3119,-279.9617 79.9638,-270.5712 83.3541,-261.8533"/>
<polygon fill="#000000" stroke="#000000" points="86.6627,-263.0019 87.0252,-252.4133 80.1387,-260.4647 86.6627,-263.0019"/>
<g id="a_edge7&#45;headlabel"><a xlink:href="dir_000009_000004.html" target="_top" xlink:title="6">
<text text-anchor="middle" x="88.0061" y="-264.8812" font-family="Helvetica,sans-Serif" font-size="10.00" fill="#000000">6</text>
</a>
</g>
</g>
<!-- dir_a11e439900186475800e797c0fd0ac6b -->
<g id="node4" class="node">
<title>dir_a11e439900186475800e797c0fd0ac6b</title>
<g id="a_node4"><a xlink:href="dir_a11e439900186475800e797c0fd0ac6b.html" target="_top" xlink:title="Math">
<polygon fill="none" stroke="#000000" points="66.1859,-180 12.1859,-180 12.1859,-144 66.1859,-144 66.1859,-180"/>
<text text-anchor="middle" x="39.1859" y="-159.5" font-family="Helvetica,sans-Serif" font-size="10.00" fill="#000000">Math</text>
</a>
</g>
</g>
<!-- dir_f85293c44cb7dbf0b9661f2bdcd7f1cd&#45;&gt;dir_a11e439900186475800e797c0fd0ac6b -->
<g id="edge8" class="edge">
<title>dir_f85293c44cb7dbf0b9661f2bdcd7f1cd&#45;&gt;dir_a11e439900186475800e797c0fd0ac6b</title>
<path fill="none" stroke="#000000" d="M62.7664,-287.7623C58.1408,-263.0928 49.8471,-218.8598 44.4309,-189.9731"/>
<polygon fill="#000000" stroke="#000000" points="47.8608,-189.2733 42.5777,-180.0896 40.9807,-190.5634 47.8608,-189.2733"/>
<g id="a_edge8&#45;headlabel"><a xlink:href="dir_000009_000001.html" target="_top" xlink:title="2">
<text text-anchor="middle" x="51.3138" y="-189.7831" font-family="Helvetica,sans-Serif" font-size="10.00" fill="#000000">2</text>
</a>
</g>
</g>
<!-- dir_c592efebd7ac9eb7f4dce0afc29c639f -->
<g id="node5" class="node">
<title>dir_c592efebd7ac9eb7f4dce0afc29c639f</title>
<g id="a_node5"><a xlink:href="dir_c592efebd7ac9eb7f4dce0afc29c639f.html" target="_top" xlink:title="Util">
<polygon fill="none" stroke="#000000" points="176.1859,-108 122.1859,-108 122.1859,-72 176.1859,-72 176.1859,-108"/>
<text text-anchor="middle" x="149.1859" y="-87.5" font-family="Helvetica,sans-Serif" font-size="10.00" fill="#000000">Util</text>
</a>
</g>
</g>
<!-- dir_f85293c44cb7dbf0b9661f2bdcd7f1cd&#45;&gt;dir_c592efebd7ac9eb7f4dce0afc29c639f -->
<g id="edge9" class="edge">
<title>dir_f85293c44cb7dbf0b9661f2bdcd7f1cd&#45;&gt;dir_c592efebd7ac9eb7f4dce0afc29c639f</title>
<path fill="none" stroke="#000000" d="M96.5027,-287.8196C109.0248,-278.6856 122.4062,-266.4688 130.1859,-252 152.9358,-209.69 153.8781,-152.3173 151.9249,-118.4238"/>
<polygon fill="#000000" stroke="#000000" points="155.4055,-118.0233 151.213,-108.2933 148.4227,-118.514 155.4055,-118.0233"/>
<g id="a_edge9&#45;headlabel"><a xlink:href="dir_000009_000014.html" target="_top" xlink:title="15">
<text text-anchor="middle" x="158.4897" y="-118.91" font-family="Helvetica,sans-Serif" font-size="10.00" fill="#000000">15</text>
</a>
</g>
</g>
<!-- dir_2821c7f3ff716b7357153e2284349b47&#45;&gt;dir_7ca0558073eba65288e02324c8ceb8f8 -->
<g id="edge1" class="edge">
<title>dir_2821c7f3ff716b7357153e2284349b47&#45;&gt;dir_7ca0558073eba65288e02324c8ceb8f8</title>
<path fill="none" stroke="#000000" d="M92.5151,-215.9555C89.0299,-178.3144 80.9625,-91.1867 76.7901,-46.1246"/>
<polygon fill="#000000" stroke="#000000" points="80.2732,-45.7797 75.866,-36.1451 73.303,-46.4252 80.2732,-45.7797"/>
<g id="a_edge1&#45;headlabel"><a xlink:href="dir_000004_000005.html" target="_top" xlink:title="20">
<text text-anchor="middle" x="83.4317" y="-46.5973" font-family="Helvetica,sans-Serif" font-size="10.00" fill="#000000">20</text>
</a>
</g>
</g>
<!-- dir_2821c7f3ff716b7357153e2284349b47&#45;&gt;dir_a11e439900186475800e797c0fd0ac6b -->
<g id="edge2" class="edge">
<title>dir_2821c7f3ff716b7357153e2284349b47&#45;&gt;dir_a11e439900186475800e797c0fd0ac6b</title>
<path fill="none" stroke="#000000" d="M80.3071,-215.8314C73.9724,-207.5386 66.3475,-197.557 59.3934,-188.4533"/>
<polygon fill="#000000" stroke="#000000" points="62.1034,-186.2353 53.2516,-180.4133 56.5407,-190.4847 62.1034,-186.2353"/>
<g id="a_edge2&#45;headlabel"><a xlink:href="dir_000004_000001.html" target="_top" xlink:title="32">
<text text-anchor="middle" x="66.5417" y="-184.8683" font-family="Helvetica,sans-Serif" font-size="10.00" fill="#000000">32</text>
</a>
</g>
</g>
<!-- dir_2821c7f3ff716b7357153e2284349b47&#45;&gt;dir_c592efebd7ac9eb7f4dce0afc29c639f -->
<g id="edge3" class="edge">
<title>dir_2821c7f3ff716b7357153e2284349b47&#45;&gt;dir_c592efebd7ac9eb7f4dce0afc29c639f</title>
<path fill="none" stroke="#000000" d="M101.1517,-215.7623C110.6154,-190.9846 127.617,-146.4714 138.6466,-117.5939"/>
<polygon fill="#000000" stroke="#000000" points="141.9782,-118.6803 142.2767,-108.0896 135.439,-116.1826 141.9782,-118.6803"/>
<g id="a_edge3&#45;headlabel"><a xlink:href="dir_000004_000014.html" target="_top" xlink:title="178">
<text text-anchor="middle" x="143.3481" y="-120.5513" font-family="Helvetica,sans-Serif" font-size="10.00" fill="#000000">178</text>
</a>
</g>
</g>
<!-- dir_a11e439900186475800e797c0fd0ac6b&#45;&gt;dir_7ca0558073eba65288e02324c8ceb8f8 -->
<g id="edge4" class="edge">
<title>dir_a11e439900186475800e797c0fd0ac6b&#45;&gt;dir_7ca0558073eba65288e02324c8ceb8f8</title>
<path fill="none" stroke="#000000" d="M43.6187,-143.7623C49.6148,-119.0928 60.3659,-74.8598 67.3869,-45.9731"/>
<polygon fill="#000000" stroke="#000000" points="70.8283,-46.6334 69.7892,-36.0896 64.0263,-44.9801 70.8283,-46.6334"/>
<g id="a_edge4&#45;headlabel"><a xlink:href="dir_000001_000005.html" target="_top" xlink:title="19">
<text text-anchor="middle" x="72.7383" y="-48.2968" font-family="Helvetica,sans-Serif" font-size="10.00" fill="#000000">19</text>
</a>
</g>
</g>
<!-- dir_a11e439900186475800e797c0fd0ac6b&#45;&gt;dir_c592efebd7ac9eb7f4dce0afc29c639f -->
<g id="edge5" class="edge">
<title>dir_a11e439900186475800e797c0fd0ac6b&#45;&gt;dir_c592efebd7ac9eb7f4dce0afc29c639f</title>
<path fill="none" stroke="#000000" d="M66.377,-144.2022C80.5238,-134.9425 98.0016,-123.5025 113.2489,-113.5224"/>
<polygon fill="#000000" stroke="#000000" points="115.4763,-116.2476 121.9265,-107.8425 111.6426,-110.3907 115.4763,-116.2476"/>
<g id="a_edge5&#45;headlabel"><a xlink:href="dir_000001_000014.html" target="_top" xlink:title="2">
<text text-anchor="middle" x="114.0236" y="-118.0918" font-family="Helvetica,sans-Serif" font-size="10.00" fill="#000000">2</text>
</a>
</g>
</g>
<!-- dir_c592efebd7ac9eb7f4dce0afc29c639f&#45;&gt;dir_7ca0558073eba65288e02324c8ceb8f8 -->
<g id="edge10" class="edge">
<title>dir_c592efebd7ac9eb7f4dce0afc29c639f&#45;&gt;dir_7ca0558073eba65288e02324c8ceb8f8</title>
<path fill="none" stroke="#000000" d="M130.2603,-71.8314C121.2003,-63.1337 110.205,-52.5783 100.3594,-43.1265"/>
<polygon fill="#000000" stroke="#000000" points="102.7433,-40.5633 93.1055,-36.1628 97.8956,-45.613 102.7433,-40.5633"/>
<g id="a_edge10&#45;headlabel"><a xlink:href="dir_000014_000005.html" target="_top" xlink:title="25">
<text text-anchor="middle" x="107.3027" y="-38.5045" font-family="Helvetica,sans-Serif" font-size="10.00" fill="#000000">25</text>
</a>
</g>
</g>
</g>
</svg>
