<?xml version="1.0" encoding="UTF-8" standalone="no"?>
<!DOCTYPE svg PUBLIC "-//W3C//DTD SVG 1.1//EN"
 "http://www.w3.org/Graphics/SVG/1.1/DTD/svg11.dtd">
<!-- Generated by graphviz version 2.40.1 (0)
 -->
<!-- Title: CDPL::Math::VectorTemporaryTraits&lt; V &gt; Pages: 1 -->
<!--zoomable 764 -->
<svg id="main" version="1.1" xmlns="http://www.w3.org/2000/svg" xmlns:xlink="http://www.w3.org/1999/xlink" xml:space="preserve" onload="init(evt)">
<style type="text/css"><![CDATA[
.edge:hover path { stroke: red; }
.edge:hover polygon { stroke: red; fill: red; }
]]></style>
<script type="text/javascript"><![CDATA[
var edges = document.getElementsByTagName('g');
if (edges && edges.length) {
  for (var i=0;i<edges.length;i++) {
    if (edges[i].id.substr(0,4)=='edge') {
      edges[i].setAttribute('class','edge');
    }
  }
}
]]></script>
        <defs>
                <circle id="rim" cx="0" cy="0" r="7"/>
                <circle id="rim2" cx="0" cy="0" r="3.5"/>
                <g id="zoomPlus">
                        <use xlink:href="#rim" fill="#404040">
                                <set attributeName="fill" to="#808080" begin="zoomplus.mouseover" end="zoomplus.mouseout"/>
                        </use>
                        <path d="M-4,0h8M0,-4v8" fill="none" stroke="white" stroke-width="1.5" pointer-events="none"/>
                </g>
                <g id="zoomMin">
                        <use xlink:href="#rim" fill="#404040">
                                <set attributeName="fill" to="#808080" begin="zoomminus.mouseover" end="zoomminus.mouseout"/>
                        </use>
                        <path d="M-4,0h8" fill="none" stroke="white" stroke-width="1.5" pointer-events="none"/>
                </g>
                <g id="dirArrow">
                        <path fill="none" stroke="white" stroke-width="1.5" d="M0,-3.0v7 M-2.5,-0.5L0,-3.0L2.5,-0.5"/>
                </g>
               <g id="resetDef">
                       <use xlink:href="#rim2" fill="#404040">
                               <set attributeName="fill" to="#808080" begin="reset.mouseover" end="reset.mouseout"/>
                       </use>
               </g>
        </defs>

<script type="text/javascript">
var viewWidth = 741;
var viewHeight = 764;
var sectionId = 'dynsection-0';
</script>
<script xlink:href="svgpan.js"/>
<svg id="graph" class="graph">
<g id="viewport">
<title>CDPL::Math::VectorTemporaryTraits&lt; V &gt;</title>
<!-- Node1 -->
<g id="node1" class="node">
<title>Node1</title>
<g id="a_node1"><a xlink:title=" ">
<polygon fill="#bfbfbf" stroke="#000000" points="0,-529 0,-559 161,-559 161,-529 0,-529"/>
<text text-anchor="start" x="8" y="-547" font-family="Helvetica,sans-Serif" font-size="10.00" fill="#000000">CDPL::Math::VectorTemporary</text>
<text text-anchor="middle" x="80.5" y="-536" font-family="Helvetica,sans-Serif" font-size="10.00" fill="#000000">Traits&lt; V &gt;</text>
</a>
</g>
</g>
<!-- Node2 -->
<g id="node2" class="node">
<title>Node2</title>
<g id="a_node2"><a xlink:href="structCDPL_1_1Math_1_1VectorTemporaryTraits_3_01const_01HomogenousCoordsAdapter_3_01V_01_4_01_4.html" target="_top" xlink:title=" ">
<polygon fill="none" stroke="#000000" points="231,-725 231,-755 491,-755 491,-725 231,-725"/>
<text text-anchor="start" x="239" y="-743" font-family="Helvetica,sans-Serif" font-size="10.00" fill="#000000">CDPL::Math::VectorTemporary</text>
<text text-anchor="middle" x="361" y="-732" font-family="Helvetica,sans-Serif" font-size="10.00" fill="#000000">Traits&lt; const HomogenousCoordsAdapter&lt; V &gt; &gt;</text>
</a>
</g>
</g>
<!-- Node1&#45;&gt;Node2 -->
<g id="edge1" class="edge">
<title>Node1&#45;&gt;Node2</title>
<path fill="none" stroke="#191970" d="M93.8173,-568.0759C116.4725,-606.4888 166.4069,-680.8807 231,-716 237.3514,-719.4533 244.1081,-722.4201 251.0741,-724.9679"/>
<polygon fill="#191970" stroke="#191970" points="96.684,-566.0411 88.6529,-559.1309 90.6218,-569.5412 96.684,-566.0411"/>
</g>
<!-- Node3 -->
<g id="node3" class="node">
<title>Node3</title>
<g id="a_node3"><a xlink:href="structCDPL_1_1Math_1_1VectorTemporaryTraits_3_01const_01VectorRange_3_01V_01_4_01_4.html" target="_top" xlink:title=" ">
<polygon fill="none" stroke="#000000" points="268.5,-676 268.5,-706 453.5,-706 453.5,-676 268.5,-676"/>
<text text-anchor="start" x="276.5" y="-694" font-family="Helvetica,sans-Serif" font-size="10.00" fill="#000000">CDPL::Math::VectorTemporary</text>
<text text-anchor="middle" x="361" y="-683" font-family="Helvetica,sans-Serif" font-size="10.00" fill="#000000">Traits&lt; const VectorRange&lt; V &gt; &gt;</text>
</a>
</g>
</g>
<!-- Node1&#45;&gt;Node3 -->
<g id="edge2" class="edge">
<title>Node1&#45;&gt;Node3</title>
<path fill="none" stroke="#191970" d="M101.1115,-566.784C128.0628,-595.0478 178.1051,-642.4929 231,-667 242.6616,-672.403 255.442,-676.5907 268.2936,-679.8361"/>
<polygon fill="#191970" stroke="#191970" points="103.5348,-564.2517 94.139,-559.3558 98.431,-569.0424 103.5348,-564.2517"/>
</g>
<!-- Node4 -->
<g id="node4" class="node">
<title>Node4</title>
<g id="a_node4"><a xlink:href="structCDPL_1_1Math_1_1VectorTemporaryTraits_3_01const_01VectorReference_3_01V_01_4_01_4.html" target="_top" xlink:title=" ">
<polygon fill="none" stroke="#000000" points="259.5,-627 259.5,-657 462.5,-657 462.5,-627 259.5,-627"/>
<text text-anchor="start" x="267.5" y="-645" font-family="Helvetica,sans-Serif" font-size="10.00" fill="#000000">CDPL::Math::VectorTemporary</text>
<text text-anchor="middle" x="361" y="-634" font-family="Helvetica,sans-Serif" font-size="10.00" fill="#000000">Traits&lt; const VectorReference&lt; V &gt; &gt;</text>
</a>
</g>
</g>
<!-- Node1&#45;&gt;Node4 -->
<g id="edge3" class="edge">
<title>Node1&#45;&gt;Node4</title>
<path fill="none" stroke="#191970" d="M114.4191,-564.0454C144.1973,-580.8112 189.1684,-604.1481 231,-618 241.349,-621.4269 252.3332,-624.4084 263.3605,-626.9917"/>
<polygon fill="#191970" stroke="#191970" points="116.1072,-560.979 105.6856,-559.0709 112.6427,-567.0615 116.1072,-560.979"/>
</g>
<!-- Node5 -->
<g id="node5" class="node">
<title>Node5</title>
<g id="a_node5"><a xlink:href="structCDPL_1_1Math_1_1VectorTemporaryTraits_3_01const_01VectorSlice_3_01V_01_4_01_4.html" target="_top" xlink:title=" ">
<polygon fill="none" stroke="#000000" points="272,-578 272,-608 450,-608 450,-578 272,-578"/>
<text text-anchor="start" x="280" y="-596" font-family="Helvetica,sans-Serif" font-size="10.00" fill="#000000">CDPL::Math::VectorTemporary</text>
<text text-anchor="middle" x="361" y="-585" font-family="Helvetica,sans-Serif" font-size="10.00" fill="#000000">Traits&lt; const VectorSlice&lt; V &gt; &gt;</text>
</a>
</g>
</g>
<!-- Node1&#45;&gt;Node5 -->
<g id="edge4" class="edge">
<title>Node1&#45;&gt;Node5</title>
<path fill="none" stroke="#191970" d="M171.4259,-559.8837C204.6657,-565.6903 242.1415,-572.2368 274.9435,-577.9669"/>
<polygon fill="#191970" stroke="#191970" points="171.709,-556.3802 161.2559,-558.1071 170.5044,-563.2758 171.709,-556.3802"/>
</g>
<!-- Node6 -->
<g id="node6" class="node">
<title>Node6</title>
<g id="a_node6"><a xlink:href="structCDPL_1_1Math_1_1VectorTemporaryTraits_3_01HomogenousCoordsAdapter_3_01V_01_4_01_4.html" target="_top" xlink:title=" ">
<polygon fill="none" stroke="#000000" points="245.5,-529 245.5,-559 476.5,-559 476.5,-529 245.5,-529"/>
<text text-anchor="start" x="253.5" y="-547" font-family="Helvetica,sans-Serif" font-size="10.00" fill="#000000">CDPL::Math::VectorTemporary</text>
<text text-anchor="middle" x="361" y="-536" font-family="Helvetica,sans-Serif" font-size="10.00" fill="#000000">Traits&lt; HomogenousCoordsAdapter&lt; V &gt; &gt;</text>
</a>
</g>
</g>
<!-- Node1&#45;&gt;Node6 -->
<g id="edge5" class="edge">
<title>Node1&#45;&gt;Node6</title>
<path fill="none" stroke="#191970" d="M171.5548,-544C195.0897,-544 220.7408,-544 245.349,-544"/>
<polygon fill="#191970" stroke="#191970" points="171.2559,-540.5001 161.2559,-544 171.2559,-547.5001 171.2559,-540.5001"/>
</g>
<!-- Node7 -->
<g id="node7" class="node">
<title>Node7</title>
<g id="a_node7"><a xlink:href="structCDPL_1_1Math_1_1VectorTemporaryTraits_3_01VectorRange_3_01V_01_4_01_4.html" target="_top" xlink:title=" ">
<polygon fill="none" stroke="#000000" points="280.5,-480 280.5,-510 441.5,-510 441.5,-480 280.5,-480"/>
<text text-anchor="start" x="288.5" y="-498" font-family="Helvetica,sans-Serif" font-size="10.00" fill="#000000">CDPL::Math::VectorTemporary</text>
<text text-anchor="middle" x="361" y="-487" font-family="Helvetica,sans-Serif" font-size="10.00" fill="#000000">Traits&lt; VectorRange&lt; V &gt; &gt;</text>
</a>
</g>
</g>
<!-- Node1&#45;&gt;Node7 -->
<g id="edge6" class="edge">
<title>Node1&#45;&gt;Node7</title>
<path fill="none" stroke="#191970" d="M171.4903,-528.1051C206.5484,-521.9809 246.3105,-515.0349 280.3286,-509.0923"/>
<polygon fill="#191970" stroke="#191970" points="170.5044,-524.7242 161.2559,-529.8929 171.709,-531.6198 170.5044,-524.7242"/>
</g>
<!-- Node8 -->
<g id="node8" class="node">
<title>Node8</title>
<g id="a_node8"><a xlink:href="structCDPL_1_1Math_1_1VectorTemporaryTraits_3_01VectorReference_3_01V_01_4_01_4.html" target="_top" xlink:title=" ">
<polygon fill="none" stroke="#000000" points="274,-431 274,-461 448,-461 448,-431 274,-431"/>
<text text-anchor="start" x="282" y="-449" font-family="Helvetica,sans-Serif" font-size="10.00" fill="#000000">CDPL::Math::VectorTemporary</text>
<text text-anchor="middle" x="361" y="-438" font-family="Helvetica,sans-Serif" font-size="10.00" fill="#000000">Traits&lt; VectorReference&lt; V &gt; &gt;</text>
</a>
</g>
</g>
<!-- Node1&#45;&gt;Node8 -->
<g id="edge7" class="edge">
<title>Node1&#45;&gt;Node8</title>
<path fill="none" stroke="#191970" d="M115.0184,-524.0261C144.8372,-507.5699 189.5418,-484.7757 231,-471 244.6315,-466.4705 259.3557,-462.6626 273.8264,-459.4938"/>
<polygon fill="#191970" stroke="#191970" points="113.2888,-520.9831 106.2623,-528.9127 116.7001,-527.0957 113.2888,-520.9831"/>
</g>
<!-- Node9 -->
<g id="node9" class="node">
<title>Node9</title>
<g id="a_node9"><a xlink:href="structCDPL_1_1Math_1_1VectorTemporaryTraits_3_01VectorSlice_3_01V_01_4_01_4.html" target="_top" xlink:title=" ">
<polygon fill="none" stroke="#000000" points="280.5,-382 280.5,-412 441.5,-412 441.5,-382 280.5,-382"/>
<text text-anchor="start" x="288.5" y="-400" font-family="Helvetica,sans-Serif" font-size="10.00" fill="#000000">CDPL::Math::VectorTemporary</text>
<text text-anchor="middle" x="361" y="-389" font-family="Helvetica,sans-Serif" font-size="10.00" fill="#000000">Traits&lt; VectorSlice&lt; V &gt; &gt;</text>
</a>
</g>
</g>
<!-- Node1&#45;&gt;Node9 -->
<g id="edge8" class="edge">
<title>Node1&#45;&gt;Node9</title>
<path fill="none" stroke="#191970" d="M101.1793,-521.4679C128.2018,-493.5039 178.3189,-446.518 231,-422 246.3151,-414.8723 263.5521,-409.7767 280.345,-406.1338"/>
<polygon fill="#191970" stroke="#191970" points="98.5449,-519.1591 94.187,-528.8162 103.616,-523.9845 98.5449,-519.1591"/>
</g>
<!-- Node10 -->
<g id="node10" class="node">
<title>Node10</title>
<g id="a_node10"><a xlink:href="structCDPL_1_1Math_1_1VectorTemporaryTraits.html" target="_top" xlink:title=" ">
<polygon fill="none" stroke="#000000" points="280.5,-333 280.5,-363 441.5,-363 441.5,-333 280.5,-333"/>
<text text-anchor="start" x="288.5" y="-351" font-family="Helvetica,sans-Serif" font-size="10.00" fill="#000000">CDPL::Math::VectorTemporary</text>
<text text-anchor="middle" x="361" y="-340" font-family="Helvetica,sans-Serif" font-size="10.00" fill="#000000">Traits&lt; M &gt;</text>
</a>
</g>
</g>
<!-- Node1&#45;&gt;Node10 -->
<g id="edge9" class="edge">
<title>Node1&#45;&gt;Node10</title>
<path fill="none" stroke="#ffa500" stroke-dasharray="5,2" d="M93.1017,-519.8091C115.048,-480.6002 164.3835,-404.3997 231,-373 246.2802,-365.7977 263.5023,-360.6703 280.2917,-357.0201"/>
<polygon fill="#ffa500" stroke="#ffa500" points="89.8414,-518.4769 88.1184,-528.9307 95.9844,-521.833 89.8414,-518.4769"/>
<text text-anchor="middle" x="196" y="-410" font-family="Helvetica,sans-Serif" font-size="10.00" fill="#000000"> &lt; M &gt;</text>
</g>
<!-- Node11 -->
<g id="node11" class="node">
<title>Node11</title>
<g id="a_node11"><a xlink:href="structCDPL_1_1Math_1_1VectorTemporaryTraits_3_01const_01MatrixColumn_3_01M_01_4_01_4.html" target="_top" xlink:title=" ">
<polygon fill="none" stroke="#000000" points="533.5,-661 533.5,-691 727.5,-691 727.5,-661 533.5,-661"/>
<text text-anchor="start" x="541.5" y="-679" font-family="Helvetica,sans-Serif" font-size="10.00" fill="#000000">CDPL::Math::VectorTemporary</text>
<text text-anchor="middle" x="630.5" y="-668" font-family="Helvetica,sans-Serif" font-size="10.00" fill="#000000">Traits&lt; const MatrixColumn&lt; M &gt; &gt;</text>
</a>
</g>
</g>
<!-- Node10&#45;&gt;Node11 -->
<g id="edge10" class="edge">
<title>Node10&#45;&gt;Node11</title>
<path fill="none" stroke="#191970" d="M451.4914,-350.3935C466.3815,-354.6937 480.3907,-361.7553 491,-373 512.4602,-395.7456 506.9992,-628.8296 528,-652 531.0685,-655.3855 534.5151,-658.3386 538.2369,-660.9115"/>
<polygon fill="#191970" stroke="#191970" points="452.1539,-346.952 441.6062,-347.9501 450.4742,-353.7474 452.1539,-346.952"/>
</g>
<!-- Node12 -->
<g id="node12" class="node">
<title>Node12</title>
<g id="a_node12"><a xlink:href="structCDPL_1_1Math_1_1VectorTemporaryTraits_3_01const_01MatrixRange_3_01M_01_4_01_4.html" target="_top" xlink:title=" ">
<polygon fill="none" stroke="#000000" points="537,-612 537,-642 724,-642 724,-612 537,-612"/>
<text text-anchor="start" x="545" y="-630" font-family="Helvetica,sans-Serif" font-size="10.00" fill="#000000">CDPL::Math::VectorTemporary</text>
<text text-anchor="middle" x="630.5" y="-619" font-family="Helvetica,sans-Serif" font-size="10.00" fill="#000000">Traits&lt; const MatrixRange&lt; M &gt; &gt;</text>
</a>
</g>
</g>
<!-- Node10&#45;&gt;Node12 -->
<g id="edge11" class="edge">
<title>Node10&#45;&gt;Node12</title>
<path fill="none" stroke="#191970" d="M451.5122,-350.713C466.3253,-354.997 480.3019,-361.9707 491,-373 509.0217,-391.5797 510.3536,-584.0635 528,-603 531.115,-606.3427 534.5991,-609.2614 538.3505,-611.8071"/>
<polygon fill="#191970" stroke="#191970" points="452.2321,-347.2855 441.6832,-348.2705 450.544,-354.0789 452.2321,-347.2855"/>
</g>
<!-- Node13 -->
<g id="node13" class="node">
<title>Node13</title>
<g id="a_node13"><a xlink:href="structCDPL_1_1Math_1_1VectorTemporaryTraits_3_01const_01MatrixReference_3_01M_01_4_01_4.html" target="_top" xlink:title=" ">
<polygon fill="none" stroke="#000000" points="528,-563 528,-593 733,-593 733,-563 528,-563"/>
<text text-anchor="start" x="536" y="-581" font-family="Helvetica,sans-Serif" font-size="10.00" fill="#000000">CDPL::Math::VectorTemporary</text>
<text text-anchor="middle" x="630.5" y="-570" font-family="Helvetica,sans-Serif" font-size="10.00" fill="#000000">Traits&lt; const MatrixReference&lt; M &gt; &gt;</text>
</a>
</g>
</g>
<!-- Node10&#45;&gt;Node13 -->
<g id="edge12" class="edge">
<title>Node10&#45;&gt;Node13</title>
<path fill="none" stroke="#191970" d="M451.4088,-351.1646C466.1582,-355.4181 480.139,-362.2648 491,-373 505.5991,-387.43 513.6925,-539.2809 528,-554 531.3121,-557.4074 535.0087,-560.3702 538.9776,-562.9436"/>
<polygon fill="#191970" stroke="#191970" points="452.1799,-347.7498 441.6305,-348.729 450.4881,-354.5422 452.1799,-347.7498"/>
</g>
<!-- Node14 -->
<g id="node14" class="node">
<title>Node14</title>
<g id="a_node14"><a xlink:href="structCDPL_1_1Math_1_1VectorTemporaryTraits_3_01const_01MatrixRow_3_01M_01_4_01_4.html" target="_top" xlink:title=" ">
<polygon fill="none" stroke="#000000" points="542.5,-514 542.5,-544 718.5,-544 718.5,-514 542.5,-514"/>
<text text-anchor="start" x="550.5" y="-532" font-family="Helvetica,sans-Serif" font-size="10.00" fill="#000000">CDPL::Math::VectorTemporary</text>
<text text-anchor="middle" x="630.5" y="-521" font-family="Helvetica,sans-Serif" font-size="10.00" fill="#000000">Traits&lt; const MatrixRow&lt; M &gt; &gt;</text>
</a>
</g>
</g>
<!-- Node10&#45;&gt;Node14 -->
<g id="edge13" class="edge">
<title>Node10&#45;&gt;Node14</title>
<path fill="none" stroke="#191970" d="M451.7534,-352.0926C466.2138,-356.2957 480.0059,-362.8856 491,-373 513.4195,-393.6256 505.9976,-483.93 528,-505 532.224,-509.045 536.9936,-512.4538 542.1063,-515.3221"/>
<polygon fill="#191970" stroke="#191970" points="452.2139,-348.5993 441.6618,-349.5501 450.5037,-355.3871 452.2139,-348.5993"/>
</g>
<!-- Node15 -->
<g id="node15" class="node">
<title>Node15</title>
<g id="a_node15"><a xlink:href="structCDPL_1_1Math_1_1VectorTemporaryTraits_3_01const_01MatrixSlice_3_01M_01_4_01_4.html" target="_top" xlink:title=" ">
<polygon fill="none" stroke="#000000" points="541,-465 541,-495 720,-495 720,-465 541,-465"/>
<text text-anchor="start" x="549" y="-483" font-family="Helvetica,sans-Serif" font-size="10.00" fill="#000000">CDPL::Math::VectorTemporary</text>
<text text-anchor="middle" x="630.5" y="-472" font-family="Helvetica,sans-Serif" font-size="10.00" fill="#000000">Traits&lt; const MatrixSlice&lt; M &gt; &gt;</text>
</a>
</g>
</g>
<!-- Node10&#45;&gt;Node15 -->
<g id="edge14" class="edge">
<title>Node10&#45;&gt;Node15</title>
<path fill="none" stroke="#191970" d="M451.6631,-353.7853C465.8619,-357.8439 479.5898,-363.9468 491,-373 522.6391,-398.1034 496.8695,-430.2687 528,-456 532.0853,-459.3767 536.5603,-462.2964 541.2844,-464.8192"/>
<polygon fill="#191970" stroke="#191970" points="452.3331,-350.3447 441.7806,-351.291 450.62,-357.1319 452.3331,-350.3447"/>
</g>
<!-- Node16 -->
<g id="node16" class="node">
<title>Node16</title>
<g id="a_node16"><a xlink:href="structCDPL_1_1Math_1_1VectorTemporaryTraits_3_01const_01MatrixTranspose_3_01M_01_4_01_4.html" target="_top" xlink:title=" ">
<polygon fill="none" stroke="#000000" points="528,-416 528,-446 733,-446 733,-416 528,-416"/>
<text text-anchor="start" x="536" y="-434" font-family="Helvetica,sans-Serif" font-size="10.00" fill="#000000">CDPL::Math::VectorTemporary</text>
<text text-anchor="middle" x="630.5" y="-423" font-family="Helvetica,sans-Serif" font-size="10.00" fill="#000000">Traits&lt; const MatrixTranspose&lt; M &gt; &gt;</text>
</a>
</g>
</g>
<!-- Node10&#45;&gt;Node16 -->
<g id="edge15" class="edge">
<title>Node10&#45;&gt;Node16</title>
<path fill="none" stroke="#191970" d="M451.4971,-358.8558C465.1372,-362.3384 478.7318,-366.9347 491,-373 510.7526,-382.7656 508.4938,-395.7511 528,-406 535.3778,-409.8764 543.3709,-413.1646 551.5276,-415.9512"/>
<polygon fill="#191970" stroke="#191970" points="452.1121,-355.4049 441.5752,-356.5118 450.5026,-362.2173 452.1121,-355.4049"/>
</g>
<!-- Node17 -->
<g id="node17" class="node">
<title>Node17</title>
<g id="a_node17"><a xlink:href="structCDPL_1_1Math_1_1VectorTemporaryTraits_3_01const_01TriangularAdapter_3_01M_00_01Tri_01_4_01_4.html" target="_top" xlink:title=" ">
<polygon fill="none" stroke="#000000" points="545.5,-355.5 545.5,-396.5 715.5,-396.5 715.5,-355.5 545.5,-355.5"/>
<text text-anchor="start" x="553.5" y="-384.5" font-family="Helvetica,sans-Serif" font-size="10.00" fill="#000000">CDPL::Math::VectorTemporary</text>
<text text-anchor="start" x="553.5" y="-373.5" font-family="Helvetica,sans-Serif" font-size="10.00" fill="#000000">Traits&lt; const TriangularAdapter</text>
<text text-anchor="middle" x="630.5" y="-362.5" font-family="Helvetica,sans-Serif" font-size="10.00" fill="#000000">&lt; M, Tri &gt; &gt;</text>
</a>
</g>
</g>
<!-- Node10&#45;&gt;Node17 -->
<g id="edge16" class="edge">
<title>Node10&#45;&gt;Node17</title>
<path fill="none" stroke="#191970" d="M451.9734,-357.4518C482.201,-360.5923 515.7258,-364.0754 545.4858,-367.1674"/>
<polygon fill="#191970" stroke="#191970" points="452.1671,-353.9531 441.8589,-356.4009 451.4436,-360.9157 452.1671,-353.9531"/>
</g>
<!-- Node18 -->
<g id="node18" class="node">
<title>Node18</title>
<g id="a_node18"><a xlink:href="structCDPL_1_1Math_1_1VectorTemporaryTraits_3_01MatrixColumn_3_01M_01_4_01_4.html" target="_top" xlink:title=" ">
<polygon fill="none" stroke="#000000" points="548.5,-306 548.5,-336 712.5,-336 712.5,-306 548.5,-306"/>
<text text-anchor="start" x="556.5" y="-324" font-family="Helvetica,sans-Serif" font-size="10.00" fill="#000000">CDPL::Math::VectorTemporary</text>
<text text-anchor="middle" x="630.5" y="-313" font-family="Helvetica,sans-Serif" font-size="10.00" fill="#000000">Traits&lt; MatrixColumn&lt; M &gt; &gt;</text>
</a>
</g>
</g>
<!-- Node10&#45;&gt;Node18 -->
<g id="edge17" class="edge">
<title>Node10&#45;&gt;Node18</title>
<path fill="none" stroke="#191970" d="M451.8594,-338.8972C483.0731,-335.77 517.8141,-332.2895 548.3,-329.2353"/>
<polygon fill="#191970" stroke="#191970" points="451.4601,-335.4196 441.8589,-339.8991 452.158,-342.3847 451.4601,-335.4196"/>
</g>
<!-- Node19 -->
<g id="node19" class="node">
<title>Node19</title>
<g id="a_node19"><a xlink:href="structCDPL_1_1Math_1_1VectorTemporaryTraits_3_01MatrixRange_3_01M_01_4_01_4.html" target="_top" xlink:title=" ">
<polygon fill="none" stroke="#000000" points="550,-257 550,-287 711,-287 711,-257 550,-257"/>
<text text-anchor="start" x="558" y="-275" font-family="Helvetica,sans-Serif" font-size="10.00" fill="#000000">CDPL::Math::VectorTemporary</text>
<text text-anchor="middle" x="630.5" y="-264" font-family="Helvetica,sans-Serif" font-size="10.00" fill="#000000">Traits&lt; MatrixRange&lt; M &gt; &gt;</text>
</a>
</g>
</g>
<!-- Node10&#45;&gt;Node19 -->
<g id="edge18" class="edge">
<title>Node10&#45;&gt;Node19</title>
<path fill="none" stroke="#191970" d="M417.2915,-329.932C449.5637,-319.7942 490.9091,-307.1779 528,-297 540.3647,-293.6071 553.6312,-290.2005 566.3818,-287.0413"/>
<polygon fill="#191970" stroke="#191970" points="416.0668,-326.6483 407.582,-332.9932 418.1716,-333.3243 416.0668,-326.6483"/>
</g>
<!-- Node20 -->
<g id="node20" class="node">
<title>Node20</title>
<g id="a_node20"><a xlink:href="structCDPL_1_1Math_1_1VectorTemporaryTraits_3_01MatrixReference_3_01M_01_4_01_4.html" target="_top" xlink:title=" ">
<polygon fill="none" stroke="#000000" points="542.5,-208 542.5,-238 718.5,-238 718.5,-208 542.5,-208"/>
<text text-anchor="start" x="550.5" y="-226" font-family="Helvetica,sans-Serif" font-size="10.00" fill="#000000">CDPL::Math::VectorTemporary</text>
<text text-anchor="middle" x="630.5" y="-215" font-family="Helvetica,sans-Serif" font-size="10.00" fill="#000000">Traits&lt; MatrixReference&lt; M &gt; &gt;</text>
</a>
</g>
</g>
<!-- Node10&#45;&gt;Node20 -->
<g id="edge19" class="edge">
<title>Node10&#45;&gt;Node20</title>
<path fill="none" stroke="#191970" d="M390.0236,-326.9077C422.2602,-304.3896 476.5612,-269.1072 528,-248 537.2354,-244.2104 547.1841,-240.9013 557.1237,-238.0398"/>
<polygon fill="#191970" stroke="#191970" points="387.6884,-324.2719 381.5371,-332.8981 391.7252,-329.9907 387.6884,-324.2719"/>
</g>
<!-- Node21 -->
<g id="node21" class="node">
<title>Node21</title>
<g id="a_node21"><a xlink:href="structCDPL_1_1Math_1_1VectorTemporaryTraits_3_01MatrixRow_3_01M_01_4_01_4.html" target="_top" xlink:title=" ">
<polygon fill="none" stroke="#000000" points="550,-159 550,-189 711,-189 711,-159 550,-159"/>
<text text-anchor="start" x="558" y="-177" font-family="Helvetica,sans-Serif" font-size="10.00" fill="#000000">CDPL::Math::VectorTemporary</text>
<text text-anchor="middle" x="630.5" y="-166" font-family="Helvetica,sans-Serif" font-size="10.00" fill="#000000">Traits&lt; MatrixRow&lt; M &gt; &gt;</text>
</a>
</g>
</g>
<!-- Node10&#45;&gt;Node21 -->
<g id="edge20" class="edge">
<title>Node10&#45;&gt;Node21</title>
<path fill="none" stroke="#191970" d="M380.1588,-324.8745C408.8275,-291.8244 466.1695,-231.494 528,-199 535.3774,-195.1229 543.3703,-191.8343 551.5269,-189.0474"/>
<polygon fill="#191970" stroke="#191970" points="377.3433,-322.7816 373.5027,-332.6558 382.6627,-327.3318 377.3433,-322.7816"/>
</g>
<!-- Node22 -->
<g id="node22" class="node">
<title>Node22</title>
<g id="a_node22"><a xlink:href="structCDPL_1_1Math_1_1VectorTemporaryTraits_3_01MatrixSlice_3_01M_01_4_01_4.html" target="_top" xlink:title=" ">
<polygon fill="none" stroke="#000000" points="550,-110 550,-140 711,-140 711,-110 550,-110"/>
<text text-anchor="start" x="558" y="-128" font-family="Helvetica,sans-Serif" font-size="10.00" fill="#000000">CDPL::Math::VectorTemporary</text>
<text text-anchor="middle" x="630.5" y="-117" font-family="Helvetica,sans-Serif" font-size="10.00" fill="#000000">Traits&lt; MatrixSlice&lt; M &gt; &gt;</text>
</a>
</g>
</g>
<!-- Node10&#45;&gt;Node22 -->
<g id="edge21" class="edge">
<title>Node10&#45;&gt;Node22</title>
<path fill="none" stroke="#191970" d="M374.2269,-324.0489C398.7644,-281.954 455.5,-194.9182 528,-150 534.7732,-145.8036 542.2041,-142.3115 549.8736,-139.4055"/>
<polygon fill="#191970" stroke="#191970" points="371.1528,-322.3741 369.2192,-332.791 377.2268,-325.8535 371.1528,-322.3741"/>
</g>
<!-- Node23 -->
<g id="node23" class="node">
<title>Node23</title>
<g id="a_node23"><a xlink:href="structCDPL_1_1Math_1_1VectorTemporaryTraits_3_01MatrixTranspose_3_01M_01_4_01_4.html" target="_top" xlink:title=" ">
<polygon fill="none" stroke="#000000" points="542.5,-61 542.5,-91 718.5,-91 718.5,-61 542.5,-61"/>
<text text-anchor="start" x="550.5" y="-79" font-family="Helvetica,sans-Serif" font-size="10.00" fill="#000000">CDPL::Math::VectorTemporary</text>
<text text-anchor="middle" x="630.5" y="-68" font-family="Helvetica,sans-Serif" font-size="10.00" fill="#000000">Traits&lt; MatrixTranspose&lt; M &gt; &gt;</text>
</a>
</g>
</g>
<!-- Node10&#45;&gt;Node23 -->
<g id="edge22" class="edge">
<title>Node10&#45;&gt;Node23</title>
<path fill="none" stroke="#191970" d="M370.3493,-323.5595C390.8118,-273.4847 444.5137,-159.0718 528,-101 533.5636,-97.13 539.6602,-93.8565 546.0194,-91.0878"/>
<polygon fill="#191970" stroke="#191970" points="367.0561,-322.3687 366.5945,-332.9534 373.5561,-324.9668 367.0561,-322.3687"/>
</g>
<!-- Node24 -->
<g id="node24" class="node">
<title>Node24</title>
<g id="a_node24"><a xlink:href="structCDPL_1_1Math_1_1VectorTemporaryTraits_3_01TriangularAdapter_3_01M_00_01Tri_01_4_01_4.html" target="_top" xlink:title=" ">
<polygon fill="none" stroke="#000000" points="550,-.5 550,-41.5 711,-41.5 711,-.5 550,-.5"/>
<text text-anchor="start" x="558" y="-29.5" font-family="Helvetica,sans-Serif" font-size="10.00" fill="#000000">CDPL::Math::VectorTemporary</text>
<text text-anchor="start" x="558" y="-18.5" font-family="Helvetica,sans-Serif" font-size="10.00" fill="#000000">Traits&lt; TriangularAdapter</text>
<text text-anchor="middle" x="630.5" y="-7.5" font-family="Helvetica,sans-Serif" font-size="10.00" fill="#000000">&lt; M, Tri &gt; &gt;</text>
</a>
</g>
</g>
<!-- Node10&#45;&gt;Node24 -->
<g id="edge23" class="edge">
<title>Node10&#45;&gt;Node24</title>
<path fill="none" stroke="#191970" d="M367.9984,-323.1419C385.2828,-266.3224 435.4452,-126.1452 528,-52 534.6018,-46.7113 542.0948,-42.3233 549.9537,-38.6829"/>
<polygon fill="#191970" stroke="#191970" points="364.6378,-322.1642 365.1508,-332.7466 371.349,-324.154 364.6378,-322.1642"/>
</g>
</g>
</svg>
        <g id="navigator" transform="translate(0 0)" fill="#404254">
                <rect fill="#f2f5e9" fill-opacity="0.5" stroke="#606060" stroke-width=".5" x="0" y="0" width="60" height="60"/>
                <use id="zoomplus" xlink:href="#zoomPlus" x="17" y="9" onmousedown="handleZoom(evt,'in')"/>
                <use id="zoomminus" xlink:href="#zoomMin" x="42" y="9" onmousedown="handleZoom(evt,'out')"/>
                <use id="reset" xlink:href="#resetDef" x="30" y="36" onmousedown="handleReset()"/>
                <g id="arrowUp" xlink:href="#dirArrow" transform="translate(30 24)" onmousedown="handlePan(0,-1)">
                  <use xlink:href="#rim" fill="#404040">
                        <set attributeName="fill" to="#808080" begin="arrowUp.mouseover" end="arrowUp.mouseout"/>
                  </use>
                  <path fill="none" stroke="white" stroke-width="1.5" d="M0,-3.0v7 M-2.5,-0.5L0,-3.0L2.5,-0.5"/>
                </g>
                <g id="arrowRight" xlink:href="#dirArrow" transform="rotate(90) translate(36 -43)" onmousedown="handlePan(1,0)">
                  <use xlink:href="#rim" fill="#404040">
                        <set attributeName="fill" to="#808080" begin="arrowRight.mouseover" end="arrowRight.mouseout"/>
                  </use>
                  <path fill="none" stroke="white" stroke-width="1.5" d="M0,-3.0v7 M-2.5,-0.5L0,-3.0L2.5,-0.5"/>
                </g>
                <g id="arrowDown" xlink:href="#dirArrow" transform="rotate(180) translate(-30 -48)" onmousedown="handlePan(0,1)">
                  <use xlink:href="#rim" fill="#404040">
                        <set attributeName="fill" to="#808080" begin="arrowDown.mouseover" end="arrowDown.mouseout"/>
                  </use>
                  <path fill="none" stroke="white" stroke-width="1.5" d="M0,-3.0v7 M-2.5,-0.5L0,-3.0L2.5,-0.5"/>
                </g>
                <g id="arrowLeft" xlink:href="#dirArrow" transform="rotate(270) translate(-36 17)" onmousedown="handlePan(-1,0)">
                  <use xlink:href="#rim" fill="#404040">
                        <set attributeName="fill" to="#808080" begin="arrowLeft.mouseover" end="arrowLeft.mouseout"/>
                  </use>
                  <path fill="none" stroke="white" stroke-width="1.5" d="M0,-3.0v7 M-2.5,-0.5L0,-3.0L2.5,-0.5"/>
                </g>
        </g>
        <svg viewBox="0 0 15 15" width="100%" height="30px" preserveAspectRatio="xMaxYMin meet">
         <g id="arrow_out" transform="scale(0.3 0.3)">
          <a xlink:href="structCDPL_1_1Math_1_1VectorTemporaryTraits__inherit__graph_org.svg" target="_base">
           <rect id="button" ry="5" rx="5" y="6" x="6" height="38" width="38"
                fill="#f2f5e9" fill-opacity="0.5" stroke="#606060" stroke-width="1.0"/>
           <path id="arrow"
             d="M 11.500037,31.436501 C 11.940474,20.09759 22.043105,11.32322 32.158766,21.979434 L 37.068811,17.246167 C 37.068811,17.246167 37.088388,32 37.088388,32 L 22.160133,31.978069 C 22.160133,31.978069 26.997745,27.140456 26.997745,27.140456 C 18.528582,18.264221 13.291696,25.230495 11.500037,31.436501 z"
             style="fill:#404040;"/>
          </a>
         </g>
        </svg>
</svg>
