<?xml version="1.0" encoding="UTF-8" standalone="no"?>
<!DOCTYPE svg PUBLIC "-//W3C//DTD SVG 1.1//EN"
 "http://www.w3.org/Graphics/SVG/1.1/DTD/svg11.dtd">
<!-- Generated by graphviz version 2.40.1 (0)
 -->
<!-- Title: CDPL::Util::CompressedIOStream&lt; CompAlgo, CharT, TraitsT &gt; Pages: 1 -->
<svg width="1152pt" height="137pt"
 viewBox="0.00 0.00 1152.00 137.00" xmlns="http://www.w3.org/2000/svg" xmlns:xlink="http://www.w3.org/1999/xlink">
<g id="graph0" class="graph" transform="scale(1 1) rotate(0) translate(4 133)">
<title>CDPL::Util::CompressedIOStream&lt; CompAlgo, CharT, TraitsT &gt;</title>
<!-- Node1 -->
<g id="node1" class="node">
<title>Node1</title>
<g id="a_node1"><a xlink:title=" ">
<polygon fill="#bfbfbf" stroke="#000000" points="966,-27.5 966,-57.5 1144,-57.5 1144,-27.5 966,-27.5"/>
<text text-anchor="start" x="974" y="-45.5" font-family="Helvetica,sans-Serif" font-size="10.00" fill="#000000">CDPL::Util::CompressedIOStream</text>
<text text-anchor="middle" x="1055" y="-34.5" font-family="Helvetica,sans-Serif" font-size="10.00" fill="#000000">&lt; CompAlgo, CharT, TraitsT &gt;</text>
</a>
</g>
</g>
<!-- Node2 -->
<g id="node2" class="node">
<title>Node2</title>
<g id="a_node2"><a xlink:href="classCDPL_1_1Util_1_1CompressionStreamBase.html" target="_top" xlink:title=" ">
<polygon fill="none" stroke="#000000" points="759,-16.5 759,-68.5 929,-68.5 929,-16.5 759,-16.5"/>
<text text-anchor="start" x="767" y="-56.5" font-family="Helvetica,sans-Serif" font-size="10.00" fill="#000000">CDPL::Util::CompressionStream</text>
<text text-anchor="start" x="767" y="-45.5" font-family="Helvetica,sans-Serif" font-size="10.00" fill="#000000">Base&lt; CompAlgo, std::basic</text>
<text text-anchor="start" x="767" y="-34.5" font-family="Helvetica,sans-Serif" font-size="10.00" fill="#000000">_iostream&lt; char, std::char</text>
<text text-anchor="middle" x="844" y="-23.5" font-family="Helvetica,sans-Serif" font-size="10.00" fill="#000000">_traits&lt; char &gt; &gt; &gt;</text>
</a>
</g>
</g>
<!-- Node2&#45;&gt;Node1 -->
<g id="edge1" class="edge">
<title>Node2&#45;&gt;Node1</title>
<path fill="none" stroke="#191970" d="M939.4185,-42.5C948.1604,-42.5 956.9955,-42.5 965.6807,-42.5"/>
<polygon fill="#191970" stroke="#191970" points="939.2136,-39.0001 929.2136,-42.5 939.2135,-46.0001 939.2136,-39.0001"/>
</g>
<!-- Node3 -->
<g id="node3" class="node">
<title>Node3</title>
<g id="a_node3"><a xlink:title="STL class.">
<polygon fill="none" stroke="#bfbfbf" points="452.5,-50 452.5,-91 580.5,-91 580.5,-50 452.5,-50"/>
<text text-anchor="start" x="460.5" y="-79" font-family="Helvetica,sans-Serif" font-size="10.00" fill="#000000">std::basic_iostream</text>
<text text-anchor="start" x="460.5" y="-68" font-family="Helvetica,sans-Serif" font-size="10.00" fill="#000000">&lt; char, std::char_traits</text>
<text text-anchor="middle" x="516.5" y="-57" font-family="Helvetica,sans-Serif" font-size="10.00" fill="#000000">&lt; char &gt; &gt;</text>
</a>
</g>
</g>
<!-- Node3&#45;&gt;Node2 -->
<g id="edge2" class="edge">
<title>Node3&#45;&gt;Node2</title>
<path fill="none" stroke="#191970" d="M590.9002,-66.0372C634.6475,-63.2036 691.0122,-59.1908 741,-54.5 746.8253,-53.9534 752.8317,-53.3521 758.8791,-52.7189"/>
<polygon fill="#191970" stroke="#191970" points="590.6712,-62.5446 580.9158,-66.6777 591.1194,-69.5303 590.6712,-62.5446"/>
</g>
<!-- Node4 -->
<g id="node4" class="node">
<title>Node4</title>
<g id="a_node4"><a xlink:title="STL class.">
<polygon fill="none" stroke="#bfbfbf" points="283.5,-98.5 283.5,-128.5 389.5,-128.5 389.5,-98.5 283.5,-98.5"/>
<text text-anchor="start" x="291.5" y="-116.5" font-family="Helvetica,sans-Serif" font-size="10.00" fill="#000000">std::basic_istream</text>
<text text-anchor="middle" x="336.5" y="-105.5" font-family="Helvetica,sans-Serif" font-size="10.00" fill="#000000">&lt; Char &gt;</text>
</a>
</g>
</g>
<!-- Node4&#45;&gt;Node3 -->
<g id="edge3" class="edge">
<title>Node4&#45;&gt;Node3</title>
<path fill="none" stroke="#191970" d="M399.4398,-98.4644C416.5866,-94.3682 435.1782,-89.9269 452.3892,-85.8154"/>
<polygon fill="#191970" stroke="#191970" points="398.4454,-95.1034 389.5324,-100.8312 400.072,-101.9118 398.4454,-95.1034"/>
</g>
<!-- Node5 -->
<g id="node5" class="node">
<title>Node5</title>
<g id="a_node5"><a xlink:title="STL class.">
<polygon fill="none" stroke="#bfbfbf" points="117,-79 117,-98 245,-98 245,-79 117,-79"/>
<text text-anchor="middle" x="181" y="-86" font-family="Helvetica,sans-Serif" font-size="10.00" fill="#000000">std::basic_ios&lt; Char &gt;</text>
</a>
</g>
</g>
<!-- Node5&#45;&gt;Node4 -->
<g id="edge4" class="edge">
<title>Node5&#45;&gt;Node4</title>
<path fill="none" stroke="#191970" d="M250.3062,-99.6425C261.3757,-101.4221 272.6761,-103.2389 283.2958,-104.9463"/>
<polygon fill="#191970" stroke="#191970" points="250.6603,-96.1545 240.2315,-98.0227 249.5491,-103.0658 250.6603,-96.1545"/>
</g>
<!-- Node7 -->
<g id="node7" class="node">
<title>Node7</title>
<g id="a_node7"><a xlink:title="STL class.">
<polygon fill="none" stroke="#bfbfbf" points="282,-49.5 282,-79.5 391,-79.5 391,-49.5 282,-49.5"/>
<text text-anchor="start" x="290" y="-67.5" font-family="Helvetica,sans-Serif" font-size="10.00" fill="#000000">std::basic_ostream</text>
<text text-anchor="middle" x="336.5" y="-56.5" font-family="Helvetica,sans-Serif" font-size="10.00" fill="#000000">&lt; Char &gt;</text>
</a>
</g>
</g>
<!-- Node5&#45;&gt;Node7 -->
<g id="edge7" class="edge">
<title>Node5&#45;&gt;Node7</title>
<path fill="none" stroke="#191970" d="M252.9566,-77.3942C262.6692,-75.8951 272.5031,-74.3773 281.8474,-72.9351"/>
<polygon fill="#191970" stroke="#191970" points="252.2536,-73.9611 242.9045,-78.9456 253.3214,-80.8792 252.2536,-73.9611"/>
</g>
<!-- Node6 -->
<g id="node6" class="node">
<title>Node6</title>
<g id="a_node6"><a xlink:title="STL class.">
<polygon fill="none" stroke="#bfbfbf" points="0,-79 0,-98 80,-98 80,-79 0,-79"/>
<text text-anchor="middle" x="40" y="-86" font-family="Helvetica,sans-Serif" font-size="10.00" fill="#000000">std::ios_base</text>
</a>
</g>
</g>
<!-- Node6&#45;&gt;Node5 -->
<g id="edge5" class="edge">
<title>Node6&#45;&gt;Node5</title>
<path fill="none" stroke="#191970" d="M90.2788,-88.5C98.8935,-88.5 107.9483,-88.5 116.8661,-88.5"/>
<polygon fill="#191970" stroke="#191970" points="90.0278,-85.0001 80.0278,-88.5 90.0278,-92.0001 90.0278,-85.0001"/>
</g>
<!-- Node7&#45;&gt;Node3 -->
<g id="edge6" class="edge">
<title>Node7&#45;&gt;Node3</title>
<path fill="none" stroke="#191970" d="M401.6013,-66.67C418.1386,-67.2213 435.8933,-67.8131 452.3813,-68.3627"/>
<polygon fill="#191970" stroke="#191970" points="401.5951,-63.168 391.484,-66.3328 401.3618,-70.1641 401.5951,-63.168"/>
</g>
<!-- Node8 -->
<g id="node8" class="node">
<title>Node8</title>
<g id="a_node8"><a xlink:href="classCDPL_1_1Util_1_1CompressionStreamBase.html" target="_top" xlink:title=" ">
<polygon fill="none" stroke="#000000" points="428,-.5 428,-30.5 605,-30.5 605,-.5 428,-.5"/>
<text text-anchor="start" x="436" y="-18.5" font-family="Helvetica,sans-Serif" font-size="10.00" fill="#000000">CDPL::Util::CompressionStream</text>
<text text-anchor="middle" x="516.5" y="-7.5" font-family="Helvetica,sans-Serif" font-size="10.00" fill="#000000">Base&lt; CompAlgo, StreamType &gt;</text>
</a>
</g>
</g>
<!-- Node8&#45;&gt;Node2 -->
<g id="edge8" class="edge">
<title>Node8&#45;&gt;Node2</title>
<path fill="none" stroke="#ffa500" stroke-dasharray="5,2" d="M615.3453,-14.4301C654.5711,-14.9729 700.0199,-16.8111 741,-21.5 746.8021,-22.1639 752.763,-22.9899 758.7525,-23.9272"/>
<polygon fill="#ffa500" stroke="#ffa500" points="615.2888,-10.9293 605.2501,-14.3167 615.2101,-17.9289 615.2888,-10.9293"/>
<text text-anchor="start" x="623" y="-46.5" font-family="Helvetica,sans-Serif" font-size="10.00" fill="#000000"> &lt; CompAlgo, std::basic</text>
<text text-anchor="start" x="623" y="-35.5" font-family="Helvetica,sans-Serif" font-size="10.00" fill="#000000">_iostream&lt; char, std::</text>
<text text-anchor="middle" x="682" y="-24.5" font-family="Helvetica,sans-Serif" font-size="10.00" fill="#000000">char_traits&lt; char &gt; &gt; &gt;</text>
</g>
<!-- Node9 -->
<g id="node9" class="node">
<title>Node9</title>
<g id="a_node9"><a xlink:href="classStreamType.html" target="_top" xlink:title=" ">
<polygon fill="none" stroke="#000000" points="299.5,-6 299.5,-25 373.5,-25 373.5,-6 299.5,-6"/>
<text text-anchor="middle" x="336.5" y="-13" font-family="Helvetica,sans-Serif" font-size="10.00" fill="#000000">StreamType</text>
</a>
</g>
</g>
<!-- Node9&#45;&gt;Node8 -->
<g id="edge9" class="edge">
<title>Node9&#45;&gt;Node8</title>
<path fill="none" stroke="#191970" d="M384.1784,-15.5C397.5985,-15.5 412.6442,-15.5 427.6474,-15.5"/>
<polygon fill="#191970" stroke="#191970" points="383.7962,-12.0001 373.7961,-15.5 383.7961,-19.0001 383.7962,-12.0001"/>
</g>
</g>
</svg>
