<?xml version="1.0" encoding="UTF-8" standalone="no"?>
<!DOCTYPE svg PUBLIC "-//W3C//DTD SVG 1.1//EN"
 "http://www.w3.org/Graphics/SVG/1.1/DTD/svg11.dtd">
<!-- Generated by graphviz version 2.40.1 (0)
 -->
<!-- Title: CDPL::Math::Scalar3QuaternionTernary&lt; E1, E2, E3, F &gt; Pages: 1 -->
<svg width="1126pt" height="88pt"
 viewBox="0.00 0.00 1126.00 88.00" xmlns="http://www.w3.org/2000/svg" xmlns:xlink="http://www.w3.org/1999/xlink">
<g id="graph0" class="graph" transform="scale(1 1) rotate(0) translate(4 84)">
<title>CDPL::Math::Scalar3QuaternionTernary&lt; E1, E2, E3, F &gt;</title>
<!-- Node1 -->
<g id="node1" class="node">
<title>Node1</title>
<g id="a_node1"><a xlink:title=" ">
<polygon fill="#bfbfbf" stroke="#000000" points="950,-21 950,-51 1118,-51 1118,-21 950,-21"/>
<text text-anchor="start" x="958" y="-39" font-family="Helvetica,sans-Serif" font-size="10.00" fill="#000000">CDPL::Math::Scalar3Quaternion</text>
<text text-anchor="middle" x="1034" y="-28" font-family="Helvetica,sans-Serif" font-size="10.00" fill="#000000">Ternary&lt; E1, E2, E3, F &gt;</text>
</a>
</g>
</g>
<!-- Node2 -->
<g id="node2" class="node">
<title>Node2</title>
<g id="a_node2"><a xlink:href="classCDPL_1_1Math_1_1QuaternionExpression.html" target="_top" xlink:title=" ">
<polygon fill="none" stroke="#000000" points="728,-15.5 728,-56.5 913,-56.5 913,-15.5 728,-15.5"/>
<text text-anchor="start" x="736" y="-44.5" font-family="Helvetica,sans-Serif" font-size="10.00" fill="#000000">CDPL::Math::QuaternionExpression</text>
<text text-anchor="start" x="736" y="-33.5" font-family="Helvetica,sans-Serif" font-size="10.00" fill="#000000">&lt; Scalar3QuaternionTernary</text>
<text text-anchor="middle" x="820.5" y="-22.5" font-family="Helvetica,sans-Serif" font-size="10.00" fill="#000000">&lt; E1, E2, E3, F &gt; &gt;</text>
</a>
</g>
</g>
<!-- Node2&#45;&gt;Node1 -->
<g id="edge1" class="edge">
<title>Node2&#45;&gt;Node1</title>
<path fill="none" stroke="#191970" d="M923.2248,-36C932.1184,-36 941.0492,-36 949.77,-36"/>
<polygon fill="#191970" stroke="#191970" points="923.2128,-32.5001 913.2128,-36 923.2127,-39.5001 923.2128,-32.5001"/>
</g>
<!-- Node3 -->
<g id="node3" class="node">
<title>Node3</title>
<g id="a_node3"><a xlink:href="classCDPL_1_1Math_1_1Expression.html" target="_top" xlink:title=" ">
<polygon fill="none" stroke="#000000" points="367,-38.5 367,-79.5 521,-79.5 521,-38.5 367,-38.5"/>
<text text-anchor="start" x="375" y="-67.5" font-family="Helvetica,sans-Serif" font-size="10.00" fill="#000000">CDPL::Math::Expression</text>
<text text-anchor="start" x="375" y="-56.5" font-family="Helvetica,sans-Serif" font-size="10.00" fill="#000000">&lt; Scalar3QuaternionTernary</text>
<text text-anchor="middle" x="444" y="-45.5" font-family="Helvetica,sans-Serif" font-size="10.00" fill="#000000">&lt; E1, E2, E3, F &gt; &gt;</text>
</a>
</g>
</g>
<!-- Node3&#45;&gt;Node2 -->
<g id="edge2" class="edge">
<title>Node3&#45;&gt;Node2</title>
<path fill="none" stroke="#191970" d="M531.1317,-53.6772C590.0684,-50.0768 667.8088,-45.3277 727.8693,-41.6587"/>
<polygon fill="#191970" stroke="#191970" points="530.8669,-50.1868 521.0989,-54.2901 531.2938,-57.1737 530.8669,-50.1868"/>
</g>
<!-- Node4 -->
<g id="node4" class="node">
<title>Node4</title>
<g id="a_node4"><a xlink:href="classCDPL_1_1Math_1_1Expression.html" target="_top" xlink:title=" ">
<polygon fill="none" stroke="#000000" points="0,-24.5 0,-43.5 160,-43.5 160,-24.5 0,-24.5"/>
<text text-anchor="middle" x="80" y="-31.5" font-family="Helvetica,sans-Serif" font-size="10.00" fill="#000000">CDPL::Math::Expression&lt; E &gt;</text>
</a>
</g>
</g>
<!-- Node4&#45;&gt;Node3 -->
<g id="edge3" class="edge">
<title>Node4&#45;&gt;Node3</title>
<path fill="none" stroke="#ffa500" stroke-dasharray="5,2" d="M170.6278,-40.2244C231.0448,-44.374 309.6012,-49.7693 366.991,-53.7109"/>
<polygon fill="#ffa500" stroke="#ffa500" points="170.5483,-36.7108 160.332,-39.5173 170.0686,-43.6944 170.5483,-36.7108"/>
<text text-anchor="start" x="178" y="-64" font-family="Helvetica,sans-Serif" font-size="10.00" fill="#000000"> &lt; Scalar3QuaternionTernary</text>
<text text-anchor="middle" x="248.5" y="-53" font-family="Helvetica,sans-Serif" font-size="10.00" fill="#000000">&lt; E1, E2, E3, F &gt; &gt;</text>
</g>
<!-- Node5 -->
<g id="node5" class="node">
<title>Node5</title>
<g id="a_node5"><a xlink:href="classCDPL_1_1Math_1_1QuaternionExpression.html" target="_top" xlink:title=" ">
<polygon fill="none" stroke="#000000" points="337,-.5 337,-19.5 551,-19.5 551,-.5 337,-.5"/>
<text text-anchor="middle" x="444" y="-7.5" font-family="Helvetica,sans-Serif" font-size="10.00" fill="#000000">CDPL::Math::QuaternionExpression&lt; E &gt;</text>
</a>
</g>
</g>
<!-- Node4&#45;&gt;Node5 -->
<g id="edge5" class="edge">
<title>Node4&#45;&gt;Node5</title>
<path fill="none" stroke="#191970" d="M170.5667,-28.0286C220.994,-24.7037 284.0724,-20.5447 336.9332,-17.0594"/>
<polygon fill="#191970" stroke="#191970" points="170.08,-24.553 160.332,-28.7034 170.5406,-31.5378 170.08,-24.553"/>
</g>
<!-- Node5&#45;&gt;Node2 -->
<g id="edge4" class="edge">
<title>Node5&#45;&gt;Node2</title>
<path fill="none" stroke="#ffa500" stroke-dasharray="5,2" d="M561.1172,-8.6945C607.5702,-9.2062 661.4037,-11.0846 710,-16 715.819,-16.5886 721.7917,-17.3139 727.8021,-18.1357"/>
<polygon fill="#ffa500" stroke="#ffa500" points="561.0471,-5.1938 551.0158,-8.6032 560.9838,-12.1935 561.0471,-5.1938"/>
<text text-anchor="start" x="569" y="-30" font-family="Helvetica,sans-Serif" font-size="10.00" fill="#000000"> &lt; Scalar3QuaternionTernary</text>
<text text-anchor="middle" x="639.5" y="-19" font-family="Helvetica,sans-Serif" font-size="10.00" fill="#000000">&lt; E1, E2, E3, F &gt; &gt;</text>
</g>
</g>
</svg>
