<?xml version="1.0" encoding="UTF-8" standalone="no"?>
<!DOCTYPE svg PUBLIC "-//W3C//DTD SVG 1.1//EN"
 "http://www.w3.org/Graphics/SVG/1.1/DTD/svg11.dtd">
<!-- Generated by graphviz version 2.40.1 (0)
 -->
<!-- Title: CDPL::Math::RegularSpatialGrid&lt; T, C, GD, XF &gt; Pages: 1 -->
<svg width="1156pt" height="129pt"
 viewBox="0.00 0.00 1156.00 129.00" xmlns="http://www.w3.org/2000/svg" xmlns:xlink="http://www.w3.org/1999/xlink">
<g id="graph0" class="graph" transform="scale(1 1) rotate(0) translate(4 125)">
<title>CDPL::Math::RegularSpatialGrid&lt; T, C, GD, XF &gt;</title>
<!-- Node1 -->
<g id="node1" class="node">
<title>Node1</title>
<g id="a_node1"><a xlink:title=" ">
<polygon fill="#bfbfbf" stroke="#000000" points="999,-28 999,-58 1148,-58 1148,-28 999,-28"/>
<text text-anchor="start" x="1007" y="-46" font-family="Helvetica,sans-Serif" font-size="10.00" fill="#000000">CDPL::Math::RegularSpatial</text>
<text text-anchor="middle" x="1073.5" y="-35" font-family="Helvetica,sans-Serif" font-size="10.00" fill="#000000">Grid&lt; T, C, GD, XF &gt;</text>
</a>
</g>
</g>
<!-- Node2 -->
<g id="node2" class="node">
<title>Node2</title>
<g id="a_node2"><a xlink:href="classCDPL_1_1Math_1_1GridExpression.html" target="_top" xlink:title=" ">
<polygon fill="none" stroke="#000000" points="752,-6 752,-80 962,-80 962,-6 752,-6"/>
<text text-anchor="start" x="760" y="-68" font-family="Helvetica,sans-Serif" font-size="10.00" fill="#000000">CDPL::Math::GridExpression</text>
<text text-anchor="start" x="760" y="-57" font-family="Helvetica,sans-Serif" font-size="10.00" fill="#000000">&lt; RegularSpatialGrid&lt; T,</text>
<text text-anchor="start" x="760" y="-46" font-family="Helvetica,sans-Serif" font-size="10.00" fill="#000000"> typename TypeTraits&lt; T &gt;</text>
<text text-anchor="start" x="760" y="-35" font-family="Helvetica,sans-Serif" font-size="10.00" fill="#000000">::RealType, Grid&lt; T &gt;, CMatrix</text>
<text text-anchor="start" x="760" y="-24" font-family="Helvetica,sans-Serif" font-size="10.00" fill="#000000">&lt; typename TypeTraits&lt; T &gt;::RealType,</text>
<text text-anchor="middle" x="857" y="-13" font-family="Helvetica,sans-Serif" font-size="10.00" fill="#000000"> 4, 4 &gt; &gt; &gt;</text>
</a>
</g>
</g>
<!-- Node2&#45;&gt;Node1 -->
<g id="edge1" class="edge">
<title>Node2&#45;&gt;Node1</title>
<path fill="none" stroke="#191970" d="M972.2416,-43C981.2302,-43 990.1542,-43 998.7645,-43"/>
<polygon fill="#191970" stroke="#191970" points="972.0791,-39.5001 962.079,-43 972.079,-46.5001 972.0791,-39.5001"/>
</g>
<!-- Node3 -->
<g id="node3" class="node">
<title>Node3</title>
<g id="a_node3"><a xlink:href="classCDPL_1_1Math_1_1Expression.html" target="_top" xlink:title=" ">
<polygon fill="none" stroke="#000000" points="364,-40 364,-114 548,-114 548,-40 364,-40"/>
<text text-anchor="start" x="372" y="-102" font-family="Helvetica,sans-Serif" font-size="10.00" fill="#000000">CDPL::Math::Expression</text>
<text text-anchor="start" x="372" y="-91" font-family="Helvetica,sans-Serif" font-size="10.00" fill="#000000">&lt; RegularSpatialGrid&lt;</text>
<text text-anchor="start" x="372" y="-80" font-family="Helvetica,sans-Serif" font-size="10.00" fill="#000000"> T, typename TypeTraits</text>
<text text-anchor="start" x="372" y="-69" font-family="Helvetica,sans-Serif" font-size="10.00" fill="#000000">&lt; T &gt;::RealType, Grid&lt; T</text>
<text text-anchor="start" x="372" y="-58" font-family="Helvetica,sans-Serif" font-size="10.00" fill="#000000"> &gt;, CMatrix&lt; typename TypeTraits</text>
<text text-anchor="middle" x="456" y="-47" font-family="Helvetica,sans-Serif" font-size="10.00" fill="#000000">&lt; T &gt;::RealType, 4, 4 &gt; &gt; &gt;</text>
</a>
</g>
</g>
<!-- Node3&#45;&gt;Node2 -->
<g id="edge2" class="edge">
<title>Node3&#45;&gt;Node2</title>
<path fill="none" stroke="#191970" d="M558.2668,-75.2089C610.8945,-73.5303 676.0116,-70.2822 734,-64 739.815,-63.37 745.7717,-62.6393 751.7753,-61.8362"/>
<polygon fill="#191970" stroke="#191970" points="558.1409,-71.711 548.2522,-75.5143 558.3543,-78.7078 558.1409,-71.711"/>
</g>
<!-- Node4 -->
<g id="node4" class="node">
<title>Node4</title>
<g id="a_node4"><a xlink:href="classCDPL_1_1Math_1_1Expression.html" target="_top" xlink:title=" ">
<polygon fill="none" stroke="#000000" points="0,-32.5 0,-51.5 160,-51.5 160,-32.5 0,-32.5"/>
<text text-anchor="middle" x="80" y="-39.5" font-family="Helvetica,sans-Serif" font-size="10.00" fill="#000000">CDPL::Math::Expression&lt; E &gt;</text>
</a>
</g>
</g>
<!-- Node4&#45;&gt;Node3 -->
<g id="edge3" class="edge">
<title>Node4&#45;&gt;Node3</title>
<path fill="none" stroke="#ffa500" stroke-dasharray="5,2" d="M170.1735,-50.3938C228.6911,-55.8409 304.7372,-62.9197 363.6773,-68.4061"/>
<polygon fill="#ffa500" stroke="#ffa500" points="170.4816,-46.9074 160.2002,-49.4654 169.8328,-53.8773 170.4816,-46.9074"/>
<text text-anchor="start" x="178" y="-113" font-family="Helvetica,sans-Serif" font-size="10.00" fill="#000000"> &lt; RegularSpatialGrid</text>
<text text-anchor="start" x="178" y="-102" font-family="Helvetica,sans-Serif" font-size="10.00" fill="#000000">&lt; T, typename TypeTraits</text>
<text text-anchor="start" x="178" y="-91" font-family="Helvetica,sans-Serif" font-size="10.00" fill="#000000">&lt; T &gt;::RealType, Grid&lt; T</text>
<text text-anchor="start" x="178" y="-80" font-family="Helvetica,sans-Serif" font-size="10.00" fill="#000000"> &gt;, CMatrix&lt; typename TypeTraits</text>
<text text-anchor="middle" x="262" y="-69" font-family="Helvetica,sans-Serif" font-size="10.00" fill="#000000">&lt; T &gt;::RealType, 4, 4 &gt; &gt; &gt;</text>
</g>
<!-- Node5 -->
<g id="node5" class="node">
<title>Node5</title>
<g id="a_node5"><a xlink:href="classCDPL_1_1Math_1_1GridExpression.html" target="_top" xlink:title=" ">
<polygon fill="none" stroke="#000000" points="366,-.5 366,-19.5 546,-19.5 546,-.5 366,-.5"/>
<text text-anchor="middle" x="456" y="-7.5" font-family="Helvetica,sans-Serif" font-size="10.00" fill="#000000">CDPL::Math::GridExpression&lt; E &gt;</text>
</a>
</g>
</g>
<!-- Node4&#45;&gt;Node5 -->
<g id="edge5" class="edge">
<title>Node4&#45;&gt;Node5</title>
<path fill="none" stroke="#191970" d="M170.2837,-34.3163C229.4585,-29.2801 306.5219,-22.7215 365.7,-17.6851"/>
<polygon fill="#191970" stroke="#191970" points="169.8674,-30.839 160.2002,-35.1744 170.4611,-37.8138 169.8674,-30.839"/>
</g>
<!-- Node5&#45;&gt;Node2 -->
<g id="edge4" class="edge">
<title>Node5&#45;&gt;Node2</title>
<path fill="none" stroke="#ffa500" stroke-dasharray="5,2" d="M556.3332,-2.9764C609.3872,-.9394 675.4782,-1.0605 734,-9 739.8178,-9.7893 745.7491,-10.7795 751.7081,-11.9206"/>
<polygon fill="#ffa500" stroke="#ffa500" points="556.0894,.5166 546.2433,-3.3957 556.38,-6.4774 556.0894,.5166"/>
<text text-anchor="start" x="566" y="-56" font-family="Helvetica,sans-Serif" font-size="10.00" fill="#000000"> &lt; RegularSpatialGrid</text>
<text text-anchor="start" x="566" y="-45" font-family="Helvetica,sans-Serif" font-size="10.00" fill="#000000">&lt; T, typename TypeTraits</text>
<text text-anchor="start" x="566" y="-34" font-family="Helvetica,sans-Serif" font-size="10.00" fill="#000000">&lt; T &gt;::RealType, Grid&lt; T</text>
<text text-anchor="start" x="566" y="-23" font-family="Helvetica,sans-Serif" font-size="10.00" fill="#000000"> &gt;, CMatrix&lt; typename TypeTraits</text>
<text text-anchor="middle" x="650" y="-12" font-family="Helvetica,sans-Serif" font-size="10.00" fill="#000000">&lt; T &gt;::RealType, 4, 4 &gt; &gt; &gt;</text>
</g>
</g>
</svg>
