<?xml version="1.0" encoding="UTF-8" standalone="no"?>
<!DOCTYPE svg PUBLIC "-//W3C//DTD SVG 1.1//EN"
 "http://www.w3.org/Graphics/SVG/1.1/DTD/svg11.dtd">
<!-- Generated by graphviz version 2.44.0 (0)
 -->
<!-- Title: CDPL.Shape.GaussianShapeOverlapFunction Pages: 1 -->
<svg width="506pt" height="88pt"
 viewBox="0.00 0.00 506.00 88.00" xmlns="http://www.w3.org/2000/svg" xmlns:xlink="http://www.w3.org/1999/xlink">
<g id="graph0" class="graph" transform="scale(1 1) rotate(0) translate(4 84)">
<title>CDPL.Shape.GaussianShapeOverlapFunction</title>
<!-- Node1 -->
<g id="node1" class="node">
<title>Node1</title>
<g id="a_node1"><a xlink:title=" ">
<polygon fill="#bfbfbf" stroke="black" points="151,-24.5 151,-54.5 297,-54.5 297,-24.5 151,-24.5"/>
<text text-anchor="start" x="159" y="-42.5" font-family="Helvetica" font-size="10.00">CDPL.Shape.GaussianShape</text>
<text text-anchor="middle" x="224" y="-31.5" font-family="Helvetica" font-size="10.00">OverlapFunction</text>
</a>
</g>
</g>
<!-- Node3 -->
<g id="node3" class="node">
<title>Node3</title>
<g id="a_node3"><a xlink:href="classCDPL_1_1Shape_1_1ExactGaussianShapeOverlapFunction.html" target="_top" xlink:title=" ">
<polygon fill="none" stroke="black" points="344,-49.5 344,-79.5 487,-79.5 487,-49.5 344,-49.5"/>
<text text-anchor="start" x="352" y="-67.5" font-family="Helvetica" font-size="10.00">CDPL.Shape.ExactGaussian</text>
<text text-anchor="middle" x="415.5" y="-56.5" font-family="Helvetica" font-size="10.00">ShapeOverlapFunction</text>
</a>
</g>
</g>
<!-- Node1&#45;&gt;Node3 -->
<g id="edge2" class="edge">
<title>Node1&#45;&gt;Node3</title>
<path fill="none" stroke="midnightblue" d="M307.31,-50.36C319.46,-51.96 331.88,-53.6 343.77,-55.17"/>
<polygon fill="midnightblue" stroke="midnightblue" points="307.55,-46.86 297.18,-49.02 306.64,-53.8 307.55,-46.86"/>
</g>
<!-- Node4 -->
<g id="node4" class="node">
<title>Node4</title>
<g id="a_node4"><a xlink:href="classCDPL_1_1Shape_1_1FastGaussianShapeOverlapFunction.html" target="_top" xlink:title=" ">
<polygon fill="none" stroke="black" points="333,-0.5 333,-30.5 498,-30.5 498,-0.5 333,-0.5"/>
<text text-anchor="start" x="341" y="-18.5" font-family="Helvetica" font-size="10.00">CDPL.Shape.FastGaussianShape</text>
<text text-anchor="middle" x="415.5" y="-7.5" font-family="Helvetica" font-size="10.00">OverlapFunction</text>
</a>
</g>
</g>
<!-- Node1&#45;&gt;Node4 -->
<g id="edge3" class="edge">
<title>Node1&#45;&gt;Node4</title>
<path fill="none" stroke="midnightblue" d="M307.35,-29.07C315.76,-28.01 324.3,-26.92 332.7,-25.86"/>
<polygon fill="midnightblue" stroke="midnightblue" points="306.66,-25.63 297.18,-30.36 307.54,-32.57 306.66,-25.63"/>
</g>
<!-- Node2 -->
<g id="node2" class="node">
<title>Node2</title>
<g id="a_node2"><a xlink:title=" ">
<polygon fill="none" stroke="#bfbfbf" points="0,-30 0,-49 115,-49 115,-30 0,-30"/>
<text text-anchor="middle" x="57.5" y="-37" font-family="Helvetica" font-size="10.00">Boost.Python.instance</text>
</a>
</g>
</g>
<!-- Node2&#45;&gt;Node1 -->
<g id="edge1" class="edge">
<title>Node2&#45;&gt;Node1</title>
<path fill="none" stroke="midnightblue" d="M125.27,-39.5C133.71,-39.5 142.37,-39.5 150.89,-39.5"/>
<polygon fill="midnightblue" stroke="midnightblue" points="125.11,-36 115.11,-39.5 125.11,-43 125.11,-36"/>
</g>
</g>
</svg>
