<?xml version="1.0" encoding="UTF-8" standalone="no"?>
<!DOCTYPE svg PUBLIC "-//W3C//DTD SVG 1.1//EN"
 "http://www.w3.org/Graphics/SVG/1.1/DTD/svg11.dtd">
<!-- Generated by graphviz version 2.44.0 (0)
 -->
<!-- Title: CDPL.Base.IOStream Pages: 1 -->
<svg width="593pt" height="142pt"
 viewBox="0.00 0.00 593.00 142.00" xmlns="http://www.w3.org/2000/svg" xmlns:xlink="http://www.w3.org/1999/xlink">
<g id="graph0" class="graph" transform="scale(1 1) rotate(0) translate(4 138)">
<title>CDPL.Base.IOStream</title>
<!-- Node1 -->
<g id="node1" class="node">
<title>Node1</title>
<g id="a_node1"><a xlink:title=" ">
<polygon fill="#bfbfbf" stroke="black" points="297,-57.5 297,-76.5 410,-76.5 410,-57.5 297,-57.5"/>
<text text-anchor="middle" x="353.5" y="-64.5" font-family="Helvetica" font-size="10.00">CDPL.Base.IOStream</text>
</a>
</g>
</g>
<!-- Node5 -->
<g id="node5" class="node">
<title>Node5</title>
<g id="a_node5"><a xlink:href="classCDPL_1_1Base_1_1FileIOStream.html" target="_top" xlink:title=" ">
<polygon fill="none" stroke="black" points="451,-114.5 451,-133.5 580,-133.5 580,-114.5 451,-114.5"/>
<text text-anchor="middle" x="515.5" y="-121.5" font-family="Helvetica" font-size="10.00">CDPL.Base.FileIOStream</text>
</a>
</g>
</g>
<!-- Node1&#45;&gt;Node5 -->
<g id="edge5" class="edge">
<title>Node1&#45;&gt;Node5</title>
<path fill="none" stroke="midnightblue" d="M384.89,-80.72C402.52,-88.41 425.28,-97.86 446,-105 455.92,-108.42 466.8,-111.66 476.91,-114.47"/>
<polygon fill="midnightblue" stroke="midnightblue" points="386.22,-77.49 375.66,-76.66 383.4,-83.89 386.22,-77.49"/>
</g>
<!-- Node6 -->
<g id="node6" class="node">
<title>Node6</title>
<g id="a_node6"><a xlink:href="classCDPL_1_1Base_1_1StringIOStream.html" target="_top" xlink:title=" ">
<polygon fill="none" stroke="black" points="446,-76.5 446,-95.5 585,-95.5 585,-76.5 446,-76.5"/>
<text text-anchor="middle" x="515.5" y="-83.5" font-family="Helvetica" font-size="10.00">CDPL.Base.StringIOStream</text>
</a>
</g>
</g>
<!-- Node1&#45;&gt;Node6 -->
<g id="edge6" class="edge">
<title>Node1&#45;&gt;Node6</title>
<path fill="none" stroke="midnightblue" d="M420.19,-74.8C428.65,-75.81 437.33,-76.84 445.83,-77.85"/>
<polygon fill="midnightblue" stroke="midnightblue" points="420.35,-71.3 410.01,-73.59 419.53,-78.25 420.35,-71.3"/>
</g>
<!-- Node7 -->
<g id="node7" class="node">
<title>Node7</title>
<g id="a_node7"><a xlink:href="classCDPL_1_1Util_1_1BZip2IOStream.html" target="_top" xlink:title=" ">
<polygon fill="none" stroke="black" points="450,-38.5 450,-57.5 581,-57.5 581,-38.5 450,-38.5"/>
<text text-anchor="middle" x="515.5" y="-45.5" font-family="Helvetica" font-size="10.00">CDPL.Util.BZip2IOStream</text>
</a>
</g>
</g>
<!-- Node1&#45;&gt;Node7 -->
<g id="edge7" class="edge">
<title>Node1&#45;&gt;Node7</title>
<path fill="none" stroke="midnightblue" d="M420.08,-59.21C429.88,-58.05 439.97,-56.85 449.74,-55.69"/>
<polygon fill="midnightblue" stroke="midnightblue" points="419.53,-55.75 410.01,-60.41 420.35,-62.7 419.53,-55.75"/>
</g>
<!-- Node8 -->
<g id="node8" class="node">
<title>Node8</title>
<g id="a_node8"><a xlink:href="classCDPL_1_1Util_1_1GZipIOStream.html" target="_top" xlink:title=" ">
<polygon fill="none" stroke="black" points="452,-0.5 452,-19.5 579,-19.5 579,-0.5 452,-0.5"/>
<text text-anchor="middle" x="515.5" y="-7.5" font-family="Helvetica" font-size="10.00">CDPL.Util.GZipIOStream</text>
</a>
</g>
</g>
<!-- Node1&#45;&gt;Node8 -->
<g id="edge8" class="edge">
<title>Node1&#45;&gt;Node8</title>
<path fill="none" stroke="midnightblue" d="M384.89,-53.28C402.52,-45.59 425.28,-36.14 446,-29 455.92,-25.58 466.8,-22.34 476.91,-19.53"/>
<polygon fill="midnightblue" stroke="midnightblue" points="383.4,-50.11 375.66,-57.34 386.22,-56.51 383.4,-50.11"/>
</g>
<!-- Node2 -->
<g id="node2" class="node">
<title>Node2</title>
<g id="a_node2"><a xlink:href="classCDPL_1_1Base_1_1IStream.html" target="_top" xlink:title=" ">
<polygon fill="none" stroke="black" points="153,-76.5 153,-95.5 259,-95.5 259,-76.5 153,-76.5"/>
<text text-anchor="middle" x="206" y="-83.5" font-family="Helvetica" font-size="10.00">CDPL.Base.IStream</text>
</a>
</g>
</g>
<!-- Node2&#45;&gt;Node1 -->
<g id="edge1" class="edge">
<title>Node2&#45;&gt;Node1</title>
<path fill="none" stroke="midnightblue" d="M269.31,-77.86C278.45,-76.67 287.81,-75.45 296.81,-74.27"/>
<polygon fill="midnightblue" stroke="midnightblue" points="268.58,-74.43 259.12,-79.19 269.49,-81.37 268.58,-74.43"/>
</g>
<!-- Node3 -->
<g id="node3" class="node">
<title>Node3</title>
<g id="a_node3"><a xlink:title=" ">
<polygon fill="none" stroke="#bfbfbf" points="0,-57.5 0,-76.5 115,-76.5 115,-57.5 0,-57.5"/>
<text text-anchor="middle" x="57.5" y="-64.5" font-family="Helvetica" font-size="10.00">Boost.Python.instance</text>
</a>
</g>
</g>
<!-- Node3&#45;&gt;Node2 -->
<g id="edge2" class="edge">
<title>Node3&#45;&gt;Node2</title>
<path fill="none" stroke="midnightblue" d="M125.14,-75.64C134.42,-76.85 143.86,-78.07 152.83,-79.23"/>
<polygon fill="midnightblue" stroke="midnightblue" points="125.51,-72.16 115.14,-74.35 124.61,-79.1 125.51,-72.16"/>
</g>
<!-- Node4 -->
<g id="node4" class="node">
<title>Node4</title>
<g id="a_node4"><a xlink:href="classCDPL_1_1Base_1_1OStream.html" target="_top" xlink:title=" ">
<polygon fill="none" stroke="black" points="151,-38.5 151,-57.5 261,-57.5 261,-38.5 151,-38.5"/>
<text text-anchor="middle" x="206" y="-45.5" font-family="Helvetica" font-size="10.00">CDPL.Base.OStream</text>
</a>
</g>
</g>
<!-- Node3&#45;&gt;Node4 -->
<g id="edge4" class="edge">
<title>Node3&#45;&gt;Node4</title>
<path fill="none" stroke="midnightblue" d="M125.17,-58.35C133.79,-57.24 142.53,-56.1 150.92,-55.01"/>
<polygon fill="midnightblue" stroke="midnightblue" points="124.61,-54.9 115.14,-59.65 125.51,-61.84 124.61,-54.9"/>
</g>
<!-- Node4&#45;&gt;Node1 -->
<g id="edge3" class="edge">
<title>Node4&#45;&gt;Node1</title>
<path fill="none" stroke="midnightblue" d="M271.13,-56.37C279.69,-57.49 288.42,-58.63 296.82,-59.73"/>
<polygon fill="midnightblue" stroke="midnightblue" points="271.55,-52.9 261.18,-55.07 270.64,-59.84 271.55,-52.9"/>
</g>
</g>
</svg>
