<?xml version="1.0" encoding="UTF-8" standalone="no"?>
<!DOCTYPE svg PUBLIC "-//W3C//DTD SVG 1.1//EN"
 "http://www.w3.org/Graphics/SVG/1.1/DTD/svg11.dtd">
<!-- Generated by graphviz version 2.44.0 (0)
 -->
<!-- Title: CDPL.Grid.CDFDRegularGridSetWriter Pages: 1 -->
<svg width="156pt" height="285pt"
 viewBox="0.00 0.00 156.00 285.00" xmlns="http://www.w3.org/2000/svg" xmlns:xlink="http://www.w3.org/1999/xlink">
<g id="graph0" class="graph" transform="scale(1 1) rotate(0) translate(4 281)">
<title>CDPL.Grid.CDFDRegularGridSetWriter</title>
<!-- Node1 -->
<g id="node1" class="node">
<title>Node1</title>
<g id="a_node1"><a xlink:title="A writer for spatial regular grid set data in the native I/O format of the CDPL.">
<polygon fill="#bfbfbf" stroke="black" points="1,-0.5 1,-30.5 147,-30.5 147,-0.5 1,-0.5"/>
<text text-anchor="start" x="9" y="-18.5" font-family="Helvetica" font-size="10.00">CDPL.Grid.CDFDRegularGrid</text>
<text text-anchor="middle" x="74" y="-7.5" font-family="Helvetica" font-size="10.00">SetWriter</text>
</a>
</g>
</g>
<!-- Node2 -->
<g id="node2" class="node">
<title>Node2</title>
<g id="a_node2"><a xlink:href="classCDPL_1_1Grid_1_1DRegularGridSetWriterBase.html" target="_top" xlink:title="An interface for writing data objects of type Grid.DRegularGridSet to an arbitrary data sink.">
<polygon fill="none" stroke="black" points="4,-67.5 4,-97.5 144,-97.5 144,-67.5 4,-67.5"/>
<text text-anchor="start" x="12" y="-85.5" font-family="Helvetica" font-size="10.00">CDPL.Grid.DRegularGridSet</text>
<text text-anchor="middle" x="74" y="-74.5" font-family="Helvetica" font-size="10.00">WriterBase</text>
</a>
</g>
</g>
<!-- Node2&#45;&gt;Node1 -->
<g id="edge1" class="edge">
<title>Node2&#45;&gt;Node1</title>
<path fill="none" stroke="midnightblue" d="M74,-57.11C74,-48.15 74,-38.32 74,-30.58"/>
<polygon fill="midnightblue" stroke="midnightblue" points="70.5,-57.4 74,-67.4 77.5,-57.4 70.5,-57.4"/>
</g>
<!-- Node3 -->
<g id="node3" class="node">
<title>Node3</title>
<g id="a_node3"><a xlink:href="classCDPL_1_1Base_1_1DataIOBase.html" target="_top" xlink:title="Provides infrastructure for the registration of I/O callback functions.">
<polygon fill="none" stroke="black" points="11.5,-134.5 11.5,-153.5 136.5,-153.5 136.5,-134.5 11.5,-134.5"/>
<text text-anchor="middle" x="74" y="-141.5" font-family="Helvetica" font-size="10.00">CDPL.Base.DataIOBase</text>
</a>
</g>
</g>
<!-- Node3&#45;&gt;Node2 -->
<g id="edge2" class="edge">
<title>Node3&#45;&gt;Node2</title>
<path fill="none" stroke="midnightblue" d="M74,-124.23C74,-115.59 74,-105.5 74,-97.52"/>
<polygon fill="midnightblue" stroke="midnightblue" points="70.5,-124.48 74,-134.48 77.5,-124.48 70.5,-124.48"/>
</g>
<!-- Node4 -->
<g id="node4" class="node">
<title>Node4</title>
<g id="a_node4"><a xlink:href="classCDPL_1_1Base_1_1ControlParameterContainer.html" target="_top" xlink:title="A class providing methods for the storage and lookup of control&#45;parameter values.">
<polygon fill="none" stroke="black" points="0,-190.5 0,-220.5 148,-220.5 148,-190.5 0,-190.5"/>
<text text-anchor="start" x="8" y="-208.5" font-family="Helvetica" font-size="10.00">CDPL.Base.ControlParameter</text>
<text text-anchor="middle" x="74" y="-197.5" font-family="Helvetica" font-size="10.00">Container</text>
</a>
</g>
</g>
<!-- Node4&#45;&gt;Node3 -->
<g id="edge3" class="edge">
<title>Node4&#45;&gt;Node3</title>
<path fill="none" stroke="midnightblue" d="M74,-180.29C74,-170.86 74,-160.65 74,-153.66"/>
<polygon fill="midnightblue" stroke="midnightblue" points="70.5,-180.4 74,-190.4 77.5,-180.4 70.5,-180.4"/>
</g>
<!-- Node5 -->
<g id="node5" class="node">
<title>Node5</title>
<g id="a_node5"><a xlink:title=" ">
<polygon fill="none" stroke="#bfbfbf" points="16.5,-257.5 16.5,-276.5 131.5,-276.5 131.5,-257.5 16.5,-257.5"/>
<text text-anchor="middle" x="74" y="-264.5" font-family="Helvetica" font-size="10.00">Boost.Python.instance</text>
</a>
</g>
</g>
<!-- Node5&#45;&gt;Node4 -->
<g id="edge4" class="edge">
<title>Node5&#45;&gt;Node4</title>
<path fill="none" stroke="midnightblue" d="M74,-247.23C74,-238.59 74,-228.5 74,-220.52"/>
<polygon fill="midnightblue" stroke="midnightblue" points="70.5,-247.48 74,-257.48 77.5,-247.48 70.5,-247.48"/>
</g>
</g>
</svg>
