<?xml version="1.0" encoding="UTF-8" standalone="no"?>
<!DOCTYPE svg PUBLIC "-//W3C//DTD SVG 1.1//EN"
 "http://www.w3.org/Graphics/SVG/1.1/DTD/svg11.dtd">
<!-- Generated by graphviz version 2.44.0 (0)
 -->
<!-- Title: CDPL.Base.IStream Pages: 1 -->
<!--zoomable 161 -->
<svg id="main" version="1.1" xmlns="http://www.w3.org/2000/svg" xmlns:xlink="http://www.w3.org/1999/xlink" xml:space="preserve" onload="init(evt)">
<style type="text/css"><![CDATA[
.edge:hover path { stroke: red; }
.edge:hover polygon { stroke: red; fill: red; }
]]></style>
<script type="text/javascript"><![CDATA[
var edges = document.getElementsByTagName('g');
if (edges && edges.length) {
  for (var i=0;i<edges.length;i++) {
    if (edges[i].id.substr(0,4)=='edge') {
      edges[i].setAttribute('class','edge');
    }
  }
}
]]></script>
        <defs>
                <circle id="rim" cx="0" cy="0" r="7"/>
                <circle id="rim2" cx="0" cy="0" r="3.5"/>
                <g id="zoomPlus">
                        <use xlink:href="#rim" fill="#404040">
                                <set attributeName="fill" to="#808080" begin="zoomplus.mouseover" end="zoomplus.mouseout"/>
                        </use>
                        <path d="M-4,0h8M0,-4v8" fill="none" stroke="white" stroke-width="1.5" pointer-events="none"/>
                </g>
                <g id="zoomMin">
                        <use xlink:href="#rim" fill="#404040">
                                <set attributeName="fill" to="#808080" begin="zoomminus.mouseover" end="zoomminus.mouseout"/>
                        </use>
                        <path d="M-4,0h8" fill="none" stroke="white" stroke-width="1.5" pointer-events="none"/>
                </g>
                <g id="dirArrow">
                        <path fill="none" stroke="white" stroke-width="1.5" d="M0,-3.0v7 M-2.5,-0.5L0,-3.0L2.5,-0.5"/>
                </g>
               <g id="resetDef">
                       <use xlink:href="#rim2" fill="#404040">
                               <set attributeName="fill" to="#808080" begin="reset.mouseover" end="reset.mouseout"/>
                       </use>
               </g>
        </defs>

<script type="text/javascript">
var viewWidth = 600;
var viewHeight = 161;
var sectionId = 'dynsection-0';
</script>
<script xlink:href="svgpan.js"/>
<svg id="graph" class="graph">
<g id="viewport">
<title>CDPL.Base.IStream</title>
<!-- Node1 -->
<g id="node1" class="node">
<title>Node1</title>
<g id="a_node1"><a xlink:title=" ">
<polygon fill="#bfbfbf" stroke="black" points="151,-38.5 151,-57.5 257,-57.5 257,-38.5 151,-38.5"/>
<text text-anchor="middle" x="204" y="-45.5" font-family="Helvetica" font-size="10.00">CDPL.Base.IStream</text>
</a>
</g>
</g>
<!-- Node3 -->
<g id="node3" class="node">
<title>Node3</title>
<g id="a_node3"><a xlink:href="classCDPL_1_1Base_1_1IOStream.html" target="_top" xlink:title=" ">
<polygon fill="none" stroke="black" points="298.5,-76.5 298.5,-95.5 411.5,-95.5 411.5,-76.5 298.5,-76.5"/>
<text text-anchor="middle" x="355" y="-83.5" font-family="Helvetica" font-size="10.00">CDPL.Base.IOStream</text>
</a>
</g>
</g>
<!-- Node1&#45;&gt;Node3 -->
<g id="edge2" class="edge">
<title>Node1&#45;&gt;Node3</title>
<path fill="none" stroke="midnightblue" d="M252.49,-60.11C273.24,-65.4 297.23,-71.52 316.67,-76.48"/>
<polygon fill="midnightblue" stroke="midnightblue" points="253.15,-56.67 242.6,-57.59 251.42,-63.45 253.15,-56.67"/>
</g>
<!-- Node8 -->
<g id="node8" class="node">
<title>Node8</title>
<g id="a_node8"><a xlink:href="classCDPL_1_1Util_1_1BZip2IStream.html" target="_top" xlink:title=" ">
<polygon fill="none" stroke="black" points="293,-38.5 293,-57.5 417,-57.5 417,-38.5 293,-38.5"/>
<text text-anchor="middle" x="355" y="-45.5" font-family="Helvetica" font-size="10.00">CDPL.Util.BZip2IStream</text>
</a>
</g>
</g>
<!-- Node1&#45;&gt;Node8 -->
<g id="edge7" class="edge">
<title>Node1&#45;&gt;Node8</title>
<path fill="none" stroke="midnightblue" d="M267.32,-48C275.81,-48 284.51,-48 292.97,-48"/>
<polygon fill="midnightblue" stroke="midnightblue" points="267.11,-44.5 257.11,-48 267.11,-51.5 267.11,-44.5"/>
</g>
<!-- Node9 -->
<g id="node9" class="node">
<title>Node9</title>
<g id="a_node9"><a xlink:href="classCDPL_1_1Util_1_1GZipIStream.html" target="_top" xlink:title=" ">
<polygon fill="none" stroke="black" points="295.5,-0.5 295.5,-19.5 414.5,-19.5 414.5,-0.5 295.5,-0.5"/>
<text text-anchor="middle" x="355" y="-7.5" font-family="Helvetica" font-size="10.00">CDPL.Util.GZipIStream</text>
</a>
</g>
</g>
<!-- Node1&#45;&gt;Node9 -->
<g id="edge8" class="edge">
<title>Node1&#45;&gt;Node9</title>
<path fill="none" stroke="midnightblue" d="M252.49,-35.89C273.24,-30.6 297.23,-24.48 316.67,-19.52"/>
<polygon fill="midnightblue" stroke="midnightblue" points="251.42,-32.55 242.6,-38.41 253.15,-39.33 251.42,-32.55"/>
</g>
<!-- Node2 -->
<g id="node2" class="node">
<title>Node2</title>
<g id="a_node2"><a xlink:title=" ">
<polygon fill="none" stroke="#bfbfbf" points="0,-38.5 0,-57.5 115,-57.5 115,-38.5 0,-38.5"/>
<text text-anchor="middle" x="57.5" y="-45.5" font-family="Helvetica" font-size="10.00">Boost.Python.instance</text>
</a>
</g>
</g>
<!-- Node2&#45;&gt;Node1 -->
<g id="edge1" class="edge">
<title>Node2&#45;&gt;Node1</title>
<path fill="none" stroke="midnightblue" d="M125.45,-48C133.93,-48 142.51,-48 150.71,-48"/>
<polygon fill="midnightblue" stroke="midnightblue" points="125.2,-44.5 115.2,-48 125.2,-51.5 125.2,-44.5"/>
</g>
<!-- Node4 -->
<g id="node4" class="node">
<title>Node4</title>
<g id="a_node4"><a xlink:href="classCDPL_1_1Base_1_1FileIOStream.html" target="_top" xlink:title=" ">
<polygon fill="none" stroke="black" points="458,-133.5 458,-152.5 587,-152.5 587,-133.5 458,-133.5"/>
<text text-anchor="middle" x="522.5" y="-140.5" font-family="Helvetica" font-size="10.00">CDPL.Base.FileIOStream</text>
</a>
</g>
</g>
<!-- Node3&#45;&gt;Node4 -->
<g id="edge3" class="edge">
<title>Node3&#45;&gt;Node4</title>
<path fill="none" stroke="midnightblue" d="M387.77,-99.4C406.57,-107.09 430.94,-116.64 453,-124 463.07,-127.36 474.1,-130.6 484.32,-133.44"/>
<polygon fill="midnightblue" stroke="midnightblue" points="389.07,-96.15 378.49,-95.57 386.4,-102.62 389.07,-96.15"/>
</g>
<!-- Node5 -->
<g id="node5" class="node">
<title>Node5</title>
<g id="a_node5"><a xlink:href="classCDPL_1_1Base_1_1StringIOStream.html" target="_top" xlink:title=" ">
<polygon fill="none" stroke="black" points="453,-95.5 453,-114.5 592,-114.5 592,-95.5 453,-95.5"/>
<text text-anchor="middle" x="522.5" y="-102.5" font-family="Helvetica" font-size="10.00">CDPL.Base.StringIOStream</text>
</a>
</g>
</g>
<!-- Node3&#45;&gt;Node5 -->
<g id="edge4" class="edge">
<title>Node3&#45;&gt;Node5</title>
<path fill="none" stroke="midnightblue" d="M421.67,-93.54C431.92,-94.72 442.53,-95.93 452.85,-97.12"/>
<polygon fill="midnightblue" stroke="midnightblue" points="421.9,-90.04 411.57,-92.38 421.11,-97 421.9,-90.04"/>
</g>
<!-- Node6 -->
<g id="node6" class="node">
<title>Node6</title>
<g id="a_node6"><a xlink:href="classCDPL_1_1Util_1_1BZip2IOStream.html" target="_top" xlink:title=" ">
<polygon fill="none" stroke="black" points="457,-57.5 457,-76.5 588,-76.5 588,-57.5 457,-57.5"/>
<text text-anchor="middle" x="522.5" y="-64.5" font-family="Helvetica" font-size="10.00">CDPL.Util.BZip2IOStream</text>
</a>
</g>
</g>
<!-- Node3&#45;&gt;Node6 -->
<g id="edge5" class="edge">
<title>Node3&#45;&gt;Node6</title>
<path fill="none" stroke="midnightblue" d="M421.63,-78.47C433.25,-77.13 445.34,-75.74 456.92,-74.41"/>
<polygon fill="midnightblue" stroke="midnightblue" points="421.11,-75 411.57,-79.62 421.9,-81.96 421.11,-75"/>
</g>
<!-- Node7 -->
<g id="node7" class="node">
<title>Node7</title>
<g id="a_node7"><a xlink:href="classCDPL_1_1Util_1_1GZipIOStream.html" target="_top" xlink:title=" ">
<polygon fill="none" stroke="black" points="459,-19.5 459,-38.5 586,-38.5 586,-19.5 459,-19.5"/>
<text text-anchor="middle" x="522.5" y="-26.5" font-family="Helvetica" font-size="10.00">CDPL.Util.GZipIOStream</text>
</a>
</g>
</g>
<!-- Node3&#45;&gt;Node7 -->
<g id="edge6" class="edge">
<title>Node3&#45;&gt;Node7</title>
<path fill="none" stroke="midnightblue" d="M400.15,-73.31C405.88,-71.35 411.62,-69.24 417,-67 433.71,-60.06 436.19,-54.68 453,-48 462.06,-44.4 472.05,-41.21 481.54,-38.53"/>
<polygon fill="midnightblue" stroke="midnightblue" points="399.01,-70 390.59,-76.44 401.19,-76.65 399.01,-70"/>
</g>
</g>
</svg>
        <g id="navigator" transform="translate(0 0)" fill="#404254">
                <rect fill="#f2f5e9" fill-opacity="0.5" stroke="#606060" stroke-width=".5" x="0" y="0" width="60" height="60"/>
                <use id="zoomplus" xlink:href="#zoomPlus" x="17" y="9" onmousedown="handleZoom(evt,'in')"/>
                <use id="zoomminus" xlink:href="#zoomMin" x="42" y="9" onmousedown="handleZoom(evt,'out')"/>
                <use id="reset" xlink:href="#resetDef" x="30" y="36" onmousedown="handleReset()"/>
                <g id="arrowUp" xlink:href="#dirArrow" transform="translate(30 24)" onmousedown="handlePan(0,-1)">
                  <use xlink:href="#rim" fill="#404040">
                        <set attributeName="fill" to="#808080" begin="arrowUp.mouseover" end="arrowUp.mouseout"/>
                  </use>
                  <path fill="none" stroke="white" stroke-width="1.5" d="M0,-3.0v7 M-2.5,-0.5L0,-3.0L2.5,-0.5"/>
                </g>
                <g id="arrowRight" xlink:href="#dirArrow" transform="rotate(90) translate(36 -43)" onmousedown="handlePan(1,0)">
                  <use xlink:href="#rim" fill="#404040">
                        <set attributeName="fill" to="#808080" begin="arrowRight.mouseover" end="arrowRight.mouseout"/>
                  </use>
                  <path fill="none" stroke="white" stroke-width="1.5" d="M0,-3.0v7 M-2.5,-0.5L0,-3.0L2.5,-0.5"/>
                </g>
                <g id="arrowDown" xlink:href="#dirArrow" transform="rotate(180) translate(-30 -48)" onmousedown="handlePan(0,1)">
                  <use xlink:href="#rim" fill="#404040">
                        <set attributeName="fill" to="#808080" begin="arrowDown.mouseover" end="arrowDown.mouseout"/>
                  </use>
                  <path fill="none" stroke="white" stroke-width="1.5" d="M0,-3.0v7 M-2.5,-0.5L0,-3.0L2.5,-0.5"/>
                </g>
                <g id="arrowLeft" xlink:href="#dirArrow" transform="rotate(270) translate(-36 17)" onmousedown="handlePan(-1,0)">
                  <use xlink:href="#rim" fill="#404040">
                        <set attributeName="fill" to="#808080" begin="arrowLeft.mouseover" end="arrowLeft.mouseout"/>
                  </use>
                  <path fill="none" stroke="white" stroke-width="1.5" d="M0,-3.0v7 M-2.5,-0.5L0,-3.0L2.5,-0.5"/>
                </g>
        </g>
        <svg viewBox="0 0 15 15" width="100%" height="30px" preserveAspectRatio="xMaxYMin meet">
         <g id="arrow_out" transform="scale(0.3 0.3)">
          <a xlink:href="classCDPL_1_1Base_1_1IStream__inherit__graph_org.svg" target="_base">
           <rect id="button" ry="5" rx="5" y="6" x="6" height="38" width="38"
                fill="#f2f5e9" fill-opacity="0.5" stroke="#606060" stroke-width="1.0"/>
           <path id="arrow"
             d="M 11.500037,31.436501 C 11.940474,20.09759 22.043105,11.32322 32.158766,21.979434 L 37.068811,17.246167 C 37.068811,17.246167 37.088388,32 37.088388,32 L 22.160133,31.978069 C 22.160133,31.978069 26.997745,27.140456 26.997745,27.140456 C 18.528582,18.264221 13.291696,25.230495 11.500037,31.436501 z"
             style="fill:#404040;"/>
          </a>
         </g>
        </svg>
</svg>
