<?xml version="1.0" encoding="UTF-8" standalone="no"?>
<!DOCTYPE svg PUBLIC "-//W3C//DTD SVG 1.1//EN"
 "http://www.w3.org/Graphics/SVG/1.1/DTD/svg11.dtd">
<!-- Generated by graphviz version 2.44.0 (0)
 -->
<!-- Title: CDPL.Math.Vector2DArray Pages: 1 -->
<svg width="639pt" height="154pt"
 viewBox="0.00 0.00 639.00 153.50" xmlns="http://www.w3.org/2000/svg" xmlns:xlink="http://www.w3.org/1999/xlink">
<g id="graph0" class="graph" transform="scale(1 1) rotate(0) translate(4 149.5)">
<title>CDPL.Math.Vector2DArray</title>
<!-- Node1 -->
<g id="node1" class="node">
<title>Node1</title>
<g id="a_node1"><a xlink:title="An array of Math.Vector2D objects.">
<polygon fill="#bfbfbf" stroke="black" points="151,-57.5 151,-76.5 285,-76.5 285,-57.5 151,-57.5"/>
<text text-anchor="middle" x="218" y="-64.5" font-family="Helvetica" font-size="10.00">CDPL.Math.Vector2DArray</text>
</a>
</g>
</g>
<!-- Node3 -->
<g id="node3" class="node">
<title>Node3</title>
<g id="a_node3"><a xlink:href="classCDPL_1_1Vis_1_1PointArray2D.html" target="_top" xlink:title="Stores a set of points in 2D space.">
<polygon fill="none" stroke="black" points="321,-57.5 321,-76.5 443,-76.5 443,-57.5 321,-57.5"/>
<text text-anchor="middle" x="382" y="-64.5" font-family="Helvetica" font-size="10.00">CDPL.Vis.PointArray2D</text>
</a>
</g>
</g>
<!-- Node1&#45;&gt;Node3 -->
<g id="edge2" class="edge">
<title>Node1&#45;&gt;Node3</title>
<path fill="none" stroke="midnightblue" d="M295.39,-67C303.98,-67 312.64,-67 320.99,-67"/>
<polygon fill="midnightblue" stroke="midnightblue" points="295.36,-63.5 285.36,-67 295.36,-70.5 295.36,-63.5"/>
</g>
<!-- Node2 -->
<g id="node2" class="node">
<title>Node2</title>
<g id="a_node2"><a xlink:title=" ">
<polygon fill="none" stroke="#bfbfbf" points="0,-57.5 0,-76.5 115,-76.5 115,-57.5 0,-57.5"/>
<text text-anchor="middle" x="57.5" y="-64.5" font-family="Helvetica" font-size="10.00">Boost.Python.instance</text>
</a>
</g>
</g>
<!-- Node2&#45;&gt;Node1 -->
<g id="edge1" class="edge">
<title>Node2&#45;&gt;Node1</title>
<path fill="none" stroke="midnightblue" d="M125.44,-67C133.87,-67 142.49,-67 150.9,-67"/>
<polygon fill="midnightblue" stroke="midnightblue" points="125.27,-63.5 115.27,-67 125.27,-70.5 125.27,-63.5"/>
</g>
<!-- Node4 -->
<g id="node4" class="node">
<title>Node4</title>
<g id="a_node4"><a xlink:href="classCDPL_1_1Vis_1_1LineSegmentListPrimitive2D.html" target="_top" xlink:title="A graphics primitive representing a list of disjoint line segments.">
<polygon fill="none" stroke="black" points="487,-115 487,-145 623,-145 623,-115 487,-115"/>
<text text-anchor="start" x="495" y="-133" font-family="Helvetica" font-size="10.00">CDPL.Vis.LineSegmentList</text>
<text text-anchor="middle" x="555" y="-122" font-family="Helvetica" font-size="10.00">Primitive2D</text>
</a>
</g>
</g>
<!-- Node3&#45;&gt;Node4 -->
<g id="edge3" class="edge">
<title>Node3&#45;&gt;Node4</title>
<path fill="none" stroke="midnightblue" d="M415.58,-80.41C434.08,-87.9 457.73,-97.25 479,-105 488.16,-108.34 498,-111.74 507.45,-114.93"/>
<polygon fill="midnightblue" stroke="midnightblue" points="416.72,-77.1 406.14,-76.58 414.09,-83.58 416.72,-77.1"/>
</g>
<!-- Node5 -->
<g id="node5" class="node">
<title>Node5</title>
<g id="a_node5"><a xlink:href="classCDPL_1_1Vis_1_1PointListPrimitive2D.html" target="_top" xlink:title="A graphics primitive representing a list of points.">
<polygon fill="none" stroke="black" points="479,-76.5 479,-95.5 631,-95.5 631,-76.5 479,-76.5"/>
<text text-anchor="middle" x="555" y="-83.5" font-family="Helvetica" font-size="10.00">CDPL.Vis.PointListPrimitive2D</text>
</a>
</g>
</g>
<!-- Node3&#45;&gt;Node5 -->
<g id="edge4" class="edge">
<title>Node3&#45;&gt;Node5</title>
<path fill="none" stroke="midnightblue" d="M453.44,-74.83C461.86,-75.76 470.49,-76.72 478.97,-77.66"/>
<polygon fill="midnightblue" stroke="midnightblue" points="453.61,-71.32 443.29,-73.7 452.84,-78.28 453.61,-71.32"/>
</g>
<!-- Node6 -->
<g id="node6" class="node">
<title>Node6</title>
<g id="a_node6"><a xlink:href="classCDPL_1_1Vis_1_1PolygonPrimitive2D.html" target="_top" xlink:title="A graphics primitive representing a polygon.">
<polygon fill="none" stroke="black" points="481,-38.5 481,-57.5 629,-57.5 629,-38.5 481,-38.5"/>
<text text-anchor="middle" x="555" y="-45.5" font-family="Helvetica" font-size="10.00">CDPL.Vis.PolygonPrimitive2D</text>
</a>
</g>
</g>
<!-- Node3&#45;&gt;Node6 -->
<g id="edge5" class="edge">
<title>Node3&#45;&gt;Node6</title>
<path fill="none" stroke="midnightblue" d="M453.37,-59.18C462.41,-58.18 471.68,-57.15 480.76,-56.14"/>
<polygon fill="midnightblue" stroke="midnightblue" points="452.84,-55.72 443.29,-60.3 453.61,-62.68 452.84,-55.72"/>
</g>
<!-- Node7 -->
<g id="node7" class="node">
<title>Node7</title>
<g id="a_node7"><a xlink:href="classCDPL_1_1Vis_1_1PolylinePrimitive2D.html" target="_top" xlink:title="A graphics primitive representing a set of connected line segments.">
<polygon fill="none" stroke="black" points="481,-0.5 481,-19.5 629,-19.5 629,-0.5 481,-0.5"/>
<text text-anchor="middle" x="555" y="-7.5" font-family="Helvetica" font-size="10.00">CDPL.Vis.PolylinePrimitive2D</text>
</a>
</g>
</g>
<!-- Node3&#45;&gt;Node7 -->
<g id="edge6" class="edge">
<title>Node3&#45;&gt;Node7</title>
<path fill="none" stroke="midnightblue" d="M414.26,-53.44C432.85,-45.68 457.02,-36.1 479,-29 489.74,-25.53 501.5,-22.29 512.47,-19.51"/>
<polygon fill="midnightblue" stroke="midnightblue" points="412.67,-50.31 404.82,-57.43 415.4,-56.76 412.67,-50.31"/>
</g>
</g>
</svg>
