<?xml version="1.0" encoding="UTF-8" standalone="no"?>
<!DOCTYPE svg PUBLIC "-//W3C//DTD SVG 1.1//EN"
 "http://www.w3.org/Graphics/SVG/1.1/DTD/svg11.dtd">
<!-- Generated by graphviz version 2.44.0 (0)
 -->
<!-- Title: CDPL.Base.OStream Pages: 1 -->
<svg width="608pt" height="161pt"
 viewBox="0.00 0.00 608.00 161.00" xmlns="http://www.w3.org/2000/svg" xmlns:xlink="http://www.w3.org/1999/xlink">
<g id="graph0" class="graph" transform="scale(1 1) rotate(0) translate(4 157)">
<title>CDPL.Base.OStream</title>
<!-- Node1 -->
<g id="node1" class="node">
<title>Node1</title>
<g id="a_node1"><a xlink:title=" ">
<polygon fill="#bfbfbf" stroke="black" points="151,-38.5 151,-57.5 261,-57.5 261,-38.5 151,-38.5"/>
<text text-anchor="middle" x="206" y="-45.5" font-family="Helvetica" font-size="10.00">CDPL.Base.OStream</text>
</a>
</g>
</g>
<!-- Node3 -->
<g id="node3" class="node">
<title>Node3</title>
<g id="a_node3"><a xlink:href="classCDPL_1_1Base_1_1IOStream.html" target="_top" xlink:title=" ">
<polygon fill="none" stroke="black" points="304.5,-76.5 304.5,-95.5 417.5,-95.5 417.5,-76.5 304.5,-76.5"/>
<text text-anchor="middle" x="361" y="-83.5" font-family="Helvetica" font-size="10.00">CDPL.Base.IOStream</text>
</a>
</g>
</g>
<!-- Node1&#45;&gt;Node3 -->
<g id="edge2" class="edge">
<title>Node1&#45;&gt;Node3</title>
<path fill="none" stroke="midnightblue" d="M255.48,-60.04C276.85,-65.35 301.61,-71.5 321.67,-76.48"/>
<polygon fill="midnightblue" stroke="midnightblue" points="256.16,-56.6 245.61,-57.59 254.47,-63.4 256.16,-56.6"/>
</g>
<!-- Node8 -->
<g id="node8" class="node">
<title>Node8</title>
<g id="a_node8"><a xlink:href="classCDPL_1_1Util_1_1BZip2OStream.html" target="_top" xlink:title=" ">
<polygon fill="none" stroke="black" points="297,-38.5 297,-57.5 425,-57.5 425,-38.5 297,-38.5"/>
<text text-anchor="middle" x="361" y="-45.5" font-family="Helvetica" font-size="10.00">CDPL.Util.BZip2OStream</text>
</a>
</g>
</g>
<!-- Node1&#45;&gt;Node8 -->
<g id="edge7" class="edge">
<title>Node1&#45;&gt;Node8</title>
<path fill="none" stroke="midnightblue" d="M271.51,-48C279.92,-48 288.53,-48 296.92,-48"/>
<polygon fill="midnightblue" stroke="midnightblue" points="271.37,-44.5 261.37,-48 271.37,-51.5 271.37,-44.5"/>
</g>
<!-- Node9 -->
<g id="node9" class="node">
<title>Node9</title>
<g id="a_node9"><a xlink:href="classCDPL_1_1Util_1_1GZipOStream.html" target="_top" xlink:title=" ">
<polygon fill="none" stroke="black" points="299,-0.5 299,-19.5 423,-19.5 423,-0.5 299,-0.5"/>
<text text-anchor="middle" x="361" y="-7.5" font-family="Helvetica" font-size="10.00">CDPL.Util.GZipOStream</text>
</a>
</g>
</g>
<!-- Node1&#45;&gt;Node9 -->
<g id="edge8" class="edge">
<title>Node1&#45;&gt;Node9</title>
<path fill="none" stroke="midnightblue" d="M255.48,-35.96C276.85,-30.65 301.61,-24.5 321.67,-19.52"/>
<polygon fill="midnightblue" stroke="midnightblue" points="254.47,-32.6 245.61,-38.41 256.16,-39.4 254.47,-32.6"/>
</g>
<!-- Node2 -->
<g id="node2" class="node">
<title>Node2</title>
<g id="a_node2"><a xlink:title=" ">
<polygon fill="none" stroke="#bfbfbf" points="0,-38.5 0,-57.5 115,-57.5 115,-38.5 0,-38.5"/>
<text text-anchor="middle" x="57.5" y="-45.5" font-family="Helvetica" font-size="10.00">Boost.Python.instance</text>
</a>
</g>
</g>
<!-- Node2&#45;&gt;Node1 -->
<g id="edge1" class="edge">
<title>Node2&#45;&gt;Node1</title>
<path fill="none" stroke="midnightblue" d="M125.17,-48C133.79,-48 142.53,-48 150.92,-48"/>
<polygon fill="midnightblue" stroke="midnightblue" points="125.14,-44.5 115.14,-48 125.14,-51.5 125.14,-44.5"/>
</g>
<!-- Node4 -->
<g id="node4" class="node">
<title>Node4</title>
<g id="a_node4"><a xlink:href="classCDPL_1_1Base_1_1FileIOStream.html" target="_top" xlink:title=" ">
<polygon fill="none" stroke="black" points="466,-133.5 466,-152.5 595,-152.5 595,-133.5 466,-133.5"/>
<text text-anchor="middle" x="530.5" y="-140.5" font-family="Helvetica" font-size="10.00">CDPL.Base.FileIOStream</text>
</a>
</g>
</g>
<!-- Node3&#45;&gt;Node4 -->
<g id="edge3" class="edge">
<title>Node3&#45;&gt;Node4</title>
<path fill="none" stroke="midnightblue" d="M394.45,-99.36C413.64,-107.03 438.52,-116.59 461,-124 471.2,-127.36 482.37,-130.63 492.69,-133.49"/>
<polygon fill="midnightblue" stroke="midnightblue" points="395.56,-96.03 384.98,-95.54 392.94,-102.53 395.56,-96.03"/>
</g>
<!-- Node5 -->
<g id="node5" class="node">
<title>Node5</title>
<g id="a_node5"><a xlink:href="classCDPL_1_1Base_1_1StringIOStream.html" target="_top" xlink:title=" ">
<polygon fill="none" stroke="black" points="461,-95.5 461,-114.5 600,-114.5 600,-95.5 461,-95.5"/>
<text text-anchor="middle" x="530.5" y="-102.5" font-family="Helvetica" font-size="10.00">CDPL.Base.StringIOStream</text>
</a>
</g>
</g>
<!-- Node3&#45;&gt;Node5 -->
<g id="edge4" class="edge">
<title>Node3&#45;&gt;Node5</title>
<path fill="none" stroke="midnightblue" d="M427.98,-93.48C438.78,-94.71 449.99,-95.98 460.85,-97.21"/>
<polygon fill="midnightblue" stroke="midnightblue" points="428.11,-89.98 417.78,-92.33 427.32,-96.93 428.11,-89.98"/>
</g>
<!-- Node6 -->
<g id="node6" class="node">
<title>Node6</title>
<g id="a_node6"><a xlink:href="classCDPL_1_1Util_1_1BZip2IOStream.html" target="_top" xlink:title=" ">
<polygon fill="none" stroke="black" points="465,-57.5 465,-76.5 596,-76.5 596,-57.5 465,-57.5"/>
<text text-anchor="middle" x="530.5" y="-64.5" font-family="Helvetica" font-size="10.00">CDPL.Util.BZip2IOStream</text>
</a>
</g>
</g>
<!-- Node3&#45;&gt;Node6 -->
<g id="edge5" class="edge">
<title>Node3&#45;&gt;Node6</title>
<path fill="none" stroke="midnightblue" d="M427.88,-78.53C440.08,-77.14 452.82,-75.7 464.99,-74.32"/>
<polygon fill="midnightblue" stroke="midnightblue" points="427.32,-75.07 417.78,-79.67 428.11,-82.02 427.32,-75.07"/>
</g>
<!-- Node7 -->
<g id="node7" class="node">
<title>Node7</title>
<g id="a_node7"><a xlink:href="classCDPL_1_1Util_1_1GZipIOStream.html" target="_top" xlink:title=" ">
<polygon fill="none" stroke="black" points="467,-19.5 467,-38.5 594,-38.5 594,-19.5 467,-19.5"/>
<text text-anchor="middle" x="530.5" y="-26.5" font-family="Helvetica" font-size="10.00">CDPL.Util.GZipIOStream</text>
</a>
</g>
</g>
<!-- Node3&#45;&gt;Node7 -->
<g id="edge6" class="edge">
<title>Node3&#45;&gt;Node7</title>
<path fill="none" stroke="midnightblue" d="M407.82,-73.32C413.67,-71.37 419.52,-69.25 425,-67 441.74,-60.13 444.19,-54.68 461,-48 470.06,-44.4 480.05,-41.21 489.54,-38.53"/>
<polygon fill="midnightblue" stroke="midnightblue" points="406.53,-70.05 398.07,-76.43 408.66,-76.72 406.53,-70.05"/>
</g>
</g>
</svg>
