<?xml version="1.0" encoding="UTF-8" standalone="no"?>
<!DOCTYPE svg PUBLIC "-//W3C//DTD SVG 1.1//EN"
 "http://www.w3.org/Graphics/SVG/1.1/DTD/svg11.dtd">
<!-- Generated by graphviz version 2.40.1 (0)
 -->
<!-- Title: CDPL.Base.IStream Pages: 1 -->
<svg width="562pt" height="161pt"
 viewBox="0.00 0.00 562.00 161.00" xmlns="http://www.w3.org/2000/svg" xmlns:xlink="http://www.w3.org/1999/xlink">
<g id="graph0" class="graph" transform="scale(1 1) rotate(0) translate(4 157)">
<title>CDPL.Base.IStream</title>
<!-- Node1 -->
<g id="node1" class="node">
<title>Node1</title>
<g id="a_node1"><a xlink:title=" ">
<polygon fill="#bfbfbf" stroke="#000000" points="94,-38.5 94,-57.5 204,-57.5 204,-38.5 94,-38.5"/>
<text text-anchor="middle" x="149" y="-45.5" font-family="Helvetica,sans-Serif" font-size="10.00" fill="#000000">CDPL.Base.IStream</text>
</a>
</g>
</g>
<!-- Node3 -->
<g id="node3" class="node">
<title>Node3</title>
<g id="a_node3"><a xlink:href="classCDPL_1_1Base_1_1IOStream.html" target="_top" xlink:title=" ">
<polygon fill="none" stroke="#000000" points="247,-76.5 247,-95.5 365,-95.5 365,-76.5 247,-76.5"/>
<text text-anchor="middle" x="306" y="-83.5" font-family="Helvetica,sans-Serif" font-size="10.00" fill="#000000">CDPL.Base.IOStream</text>
</a>
</g>
</g>
<!-- Node1&#45;&gt;Node3 -->
<g id="edge2" class="edge">
<title>Node1&#45;&gt;Node3</title>
<path fill="none" stroke="#191970" d="M198.4467,-59.968C220.4478,-65.2931 245.9938,-71.4762 266.6672,-76.4799"/>
<polygon fill="#191970" stroke="#191970" points="199.1605,-56.5398 188.6177,-57.589 197.5137,-63.3433 199.1605,-56.5398"/>
</g>
<!-- Node8 -->
<g id="node8" class="node">
<title>Node8</title>
<g id="a_node8"><a xlink:href="classCDPL_1_1Util_1_1BZip2IStream.html" target="_top" xlink:title=" ">
<polygon fill="none" stroke="#000000" points="240,-38.5 240,-57.5 372,-57.5 372,-38.5 240,-38.5"/>
<text text-anchor="middle" x="306" y="-45.5" font-family="Helvetica,sans-Serif" font-size="10.00" fill="#000000">CDPL.Util.BZip2IStream</text>
</a>
</g>
</g>
<!-- Node1&#45;&gt;Node8 -->
<g id="edge7" class="edge">
<title>Node1&#45;&gt;Node8</title>
<path fill="none" stroke="#191970" d="M214.4599,-48C222.8514,-48 231.4474,-48 239.8498,-48"/>
<polygon fill="#191970" stroke="#191970" points="214.3524,-44.5001 204.3523,-48 214.3523,-51.5001 214.3524,-44.5001"/>
</g>
<!-- Node9 -->
<g id="node9" class="node">
<title>Node9</title>
<g id="a_node9"><a xlink:href="classCDPL_1_1Util_1_1GZipIStream.html" target="_top" xlink:title=" ">
<polygon fill="none" stroke="#000000" points="242.5,-.5 242.5,-19.5 369.5,-19.5 369.5,-.5 242.5,-.5"/>
<text text-anchor="middle" x="306" y="-7.5" font-family="Helvetica,sans-Serif" font-size="10.00" fill="#000000">CDPL.Util.GZipIStream</text>
</a>
</g>
</g>
<!-- Node1&#45;&gt;Node9 -->
<g id="edge8" class="edge">
<title>Node1&#45;&gt;Node9</title>
<path fill="none" stroke="#191970" d="M198.4467,-36.032C220.4478,-30.7069 245.9938,-24.5238 266.6672,-19.5201"/>
<polygon fill="#191970" stroke="#191970" points="197.5137,-32.6567 188.6177,-38.411 199.1605,-39.4602 197.5137,-32.6567"/>
</g>
<!-- Node2 -->
<g id="node2" class="node">
<title>Node2</title>
<g id="a_node2"><a xlink:title=" ">
<polygon fill="none" stroke="#bfbfbf" points="0,-38.5 0,-57.5 58,-57.5 58,-38.5 0,-38.5"/>
<text text-anchor="middle" x="29" y="-45.5" font-family="Helvetica,sans-Serif" font-size="10.00" fill="#000000">instance</text>
</a>
</g>
</g>
<!-- Node2&#45;&gt;Node1 -->
<g id="edge1" class="edge">
<title>Node2&#45;&gt;Node1</title>
<path fill="none" stroke="#191970" d="M68.1192,-48C76.3675,-48 85.2175,-48 93.9279,-48"/>
<polygon fill="#191970" stroke="#191970" points="68.0487,-44.5001 58.0487,-48 68.0486,-51.5001 68.0487,-44.5001"/>
</g>
<!-- Node4 -->
<g id="node4" class="node">
<title>Node4</title>
<g id="a_node4"><a xlink:href="classCDPL_1_1Base_1_1FileIOStream.html" target="_top" xlink:title=" ">
<polygon fill="none" stroke="#000000" points="414,-133.5 414,-152.5 548,-152.5 548,-133.5 414,-133.5"/>
<text text-anchor="middle" x="481" y="-140.5" font-family="Helvetica,sans-Serif" font-size="10.00" fill="#000000">CDPL.Base.FileIOStream</text>
</a>
</g>
</g>
<!-- Node3&#45;&gt;Node4 -->
<g id="edge3" class="edge">
<title>Node3&#45;&gt;Node4</title>
<path fill="none" stroke="#191970" d="M339.1569,-99.3303C358.9637,-107.0473 384.7204,-116.6551 408,-124 418.7405,-127.3887 430.5031,-130.6449 441.3889,-133.4751"/>
<polygon fill="#191970" stroke="#191970" points="340.2553,-96.0014 329.6681,-95.6009 337.6948,-102.5163 340.2553,-96.0014"/>
</g>
<!-- Node5 -->
<g id="node5" class="node">
<title>Node5</title>
<g id="a_node5"><a xlink:href="classCDPL_1_1Base_1_1StringIOStream.html" target="_top" xlink:title=" ">
<polygon fill="none" stroke="#000000" points="408,-95.5 408,-114.5 554,-114.5 554,-95.5 408,-95.5"/>
<text text-anchor="middle" x="481" y="-102.5" font-family="Helvetica,sans-Serif" font-size="10.00" fill="#000000">CDPL.Base.StringIOStream</text>
</a>
</g>
</g>
<!-- Node3&#45;&gt;Node5 -->
<g id="edge4" class="edge">
<title>Node3&#45;&gt;Node5</title>
<path fill="none" stroke="#191970" d="M375.3488,-93.5293C386.0287,-94.6888 397.086,-95.8893 407.8457,-97.0575"/>
<polygon fill="#191970" stroke="#191970" points="375.5664,-90.0324 365.247,-92.4325 374.8108,-96.9915 375.5664,-90.0324"/>
</g>
<!-- Node6 -->
<g id="node6" class="node">
<title>Node6</title>
<g id="a_node6"><a xlink:href="classCDPL_1_1Util_1_1BZip2IOStream.html" target="_top" xlink:title=" ">
<polygon fill="none" stroke="#000000" points="411,-57.5 411,-76.5 551,-76.5 551,-57.5 411,-57.5"/>
<text text-anchor="middle" x="481" y="-64.5" font-family="Helvetica,sans-Serif" font-size="10.00" fill="#000000">CDPL.Util.BZip2IOStream</text>
</a>
</g>
</g>
<!-- Node3&#45;&gt;Node6 -->
<g id="edge5" class="edge">
<title>Node3&#45;&gt;Node6</title>
<path fill="none" stroke="#191970" d="M375.3823,-78.4671C387.0732,-77.1978 399.2153,-75.8795 410.9236,-74.6083"/>
<polygon fill="#191970" stroke="#191970" points="374.8108,-75.0085 365.247,-79.5675 375.5664,-81.9676 374.8108,-75.0085"/>
</g>
<!-- Node7 -->
<g id="node7" class="node">
<title>Node7</title>
<g id="a_node7"><a xlink:href="classCDPL_1_1Util_1_1GZipIOStream.html" target="_top" xlink:title=" ">
<polygon fill="none" stroke="#000000" points="414,-19.5 414,-38.5 548,-38.5 548,-19.5 414,-19.5"/>
<text text-anchor="middle" x="481" y="-26.5" font-family="Helvetica,sans-Serif" font-size="10.00" fill="#000000">CDPL.Util.GZipIOStream</text>
</a>
</g>
</g>
<!-- Node3&#45;&gt;Node7 -->
<g id="edge6" class="edge">
<title>Node3&#45;&gt;Node7</title>
<path fill="none" stroke="#191970" d="M353.8038,-73.5038C359.9928,-71.518 366.1935,-69.3391 372,-67 388.7812,-60.2397 391.1334,-54.5443 408,-48 417.401,-44.3524 427.7509,-41.1801 437.6285,-38.5272"/>
<polygon fill="#191970" stroke="#191970" points="352.6833,-70.1865 344.1462,-76.461 354.7328,-76.8797 352.6833,-70.1865"/>
</g>
</g>
</svg>
