<?xml version="1.0" encoding="UTF-8" standalone="no"?>
<!DOCTYPE svg PUBLIC "-//W3C//DTD SVG 1.1//EN"
 "http://www.w3.org/Graphics/SVG/1.1/DTD/svg11.dtd">
<!-- Generated by graphviz version 2.40.1 (0)
 -->
<!-- Title: CDPL.Vis.ClipPathPrimitive2D Pages: 1 -->
<svg width="288pt" height="140pt"
 viewBox="0.00 0.00 288.00 140.00" xmlns="http://www.w3.org/2000/svg" xmlns:xlink="http://www.w3.org/1999/xlink">
<g id="graph0" class="graph" transform="scale(1 1) rotate(0) translate(4 136)">
<title>CDPL.Vis.ClipPathPrimitive2D</title>
<!-- Node1 -->
<g id="node1" class="node">
<title>Node1</title>
<g id="a_node1"><a xlink:title="A graphics primitive representing a clipping region in 2D space.">
<polygon fill="#bfbfbf" stroke="#000000" points="42.5,-.5 42.5,-19.5 203.5,-19.5 203.5,-.5 42.5,-.5"/>
<text text-anchor="middle" x="123" y="-7.5" font-family="Helvetica,sans-Serif" font-size="10.00" fill="#000000">CDPL.Vis.ClipPathPrimitive2D</text>
</a>
</g>
</g>
<!-- Node2 -->
<g id="node2" class="node">
<title>Node2</title>
<g id="a_node2"><a xlink:href="classCDPL_1_1Vis_1_1Path2D.html" target="_top" xlink:title="Provides a container for painting operations, enabling arbitrary graphical shapes to be constructed a...">
<polygon fill="none" stroke="#000000" points="0,-56.5 0,-75.5 98,-75.5 98,-56.5 0,-56.5"/>
<text text-anchor="middle" x="49" y="-63.5" font-family="Helvetica,sans-Serif" font-size="10.00" fill="#000000">CDPL.Vis.Path2D</text>
</a>
</g>
</g>
<!-- Node2&#45;&gt;Node1 -->
<g id="edge1" class="edge">
<title>Node2&#45;&gt;Node1</title>
<path fill="none" stroke="#191970" d="M69.8657,-50.2097C82.8625,-40.3743 99.1622,-28.0394 110.2579,-19.6427"/>
<polygon fill="#191970" stroke="#191970" points="67.7518,-47.4201 61.8898,-56.2455 71.976,-53.002 67.7518,-47.4201"/>
</g>
<!-- Node3 -->
<g id="node3" class="node">
<title>Node3</title>
<g id="a_node3"><a xlink:title=" ">
<polygon fill="none" stroke="#bfbfbf" points="94,-112.5 94,-131.5 152,-131.5 152,-112.5 94,-112.5"/>
<text text-anchor="middle" x="123" y="-119.5" font-family="Helvetica,sans-Serif" font-size="10.00" fill="#000000">instance</text>
</a>
</g>
</g>
<!-- Node3&#45;&gt;Node2 -->
<g id="edge2" class="edge">
<title>Node3&#45;&gt;Node2</title>
<path fill="none" stroke="#191970" d="M102.1343,-106.2097C89.1375,-96.3743 72.8378,-84.0394 61.7421,-75.6427"/>
<polygon fill="#191970" stroke="#191970" points="100.024,-109.002 110.1102,-112.2455 104.2482,-103.4201 100.024,-109.002"/>
</g>
<!-- Node4 -->
<g id="node4" class="node">
<title>Node4</title>
<g id="a_node4"><a xlink:href="classCDPL_1_1Vis_1_1GraphicsPrimitive2D.html" target="_top" xlink:title="The abstract base class of all 2D graphics primitives.">
<polygon fill="none" stroke="#000000" points="116,-56.5 116,-75.5 280,-75.5 280,-56.5 116,-56.5"/>
<text text-anchor="middle" x="198" y="-63.5" font-family="Helvetica,sans-Serif" font-size="10.00" fill="#000000">CDPL.Vis.GraphicsPrimitive2D</text>
</a>
</g>
</g>
<!-- Node3&#45;&gt;Node4 -->
<g id="edge4" class="edge">
<title>Node3&#45;&gt;Node4</title>
<path fill="none" stroke="#191970" d="M144.1477,-106.2097C157.3201,-96.3743 173.84,-84.0394 185.0857,-75.6427"/>
<polygon fill="#191970" stroke="#191970" points="141.9828,-103.4581 136.064,-112.2455 146.1709,-109.0671 141.9828,-103.4581"/>
</g>
<!-- Node4&#45;&gt;Node1 -->
<g id="edge3" class="edge">
<title>Node4&#45;&gt;Node1</title>
<path fill="none" stroke="#191970" d="M176.8523,-50.2097C163.6799,-40.3743 147.16,-28.0394 135.9143,-19.6427"/>
<polygon fill="#191970" stroke="#191970" points="174.8291,-53.0671 184.936,-56.2455 179.0172,-47.4581 174.8291,-53.0671"/>
</g>
</g>
</svg>
