<?xml version="1.0" encoding="UTF-8" standalone="no"?>
<!DOCTYPE svg PUBLIC "-//W3C//DTD SVG 1.1//EN"
 "http://www.w3.org/Graphics/SVG/1.1/DTD/svg11.dtd">
<!-- Generated by graphviz version 2.40.1 (0)
 -->
<!-- Title: CDPL::Biomol::HierarchyViewNode Pages: 1 -->
<!--zoomable 137 -->
<svg id="main" version="1.1" xmlns="http://www.w3.org/2000/svg" xmlns:xlink="http://www.w3.org/1999/xlink" xml:space="preserve" onload="init(evt)">
<style type="text/css"><![CDATA[
.edge:hover path { stroke: red; }
.edge:hover polygon { stroke: red; fill: red; }
]]></style>
<script type="text/javascript"><![CDATA[
var edges = document.getElementsByTagName('g');
if (edges && edges.length) {
  for (var i=0;i<edges.length;i++) {
    if (edges[i].id.substr(0,4)=='edge') {
      edges[i].setAttribute('class','edge');
    }
  }
}
]]></script>
        <defs>
                <circle id="rim" cx="0" cy="0" r="7"/>
                <circle id="rim2" cx="0" cy="0" r="3.5"/>
                <g id="zoomPlus">
                        <use xlink:href="#rim" fill="#404040">
                                <set attributeName="fill" to="#808080" begin="zoomplus.mouseover" end="zoomplus.mouseout"/>
                        </use>
                        <path d="M-4,0h8M0,-4v8" fill="none" stroke="white" stroke-width="1.5" pointer-events="none"/>
                </g>
                <g id="zoomMin">
                        <use xlink:href="#rim" fill="#404040">
                                <set attributeName="fill" to="#808080" begin="zoomminus.mouseover" end="zoomminus.mouseout"/>
                        </use>
                        <path d="M-4,0h8" fill="none" stroke="white" stroke-width="1.5" pointer-events="none"/>
                </g>
                <g id="dirArrow">
                        <path fill="none" stroke="white" stroke-width="1.5" d="M0,-3.0v7 M-2.5,-0.5L0,-3.0L2.5,-0.5"/>
                </g>
               <g id="resetDef">
                       <use xlink:href="#rim2" fill="#404040">
                               <set attributeName="fill" to="#808080" begin="reset.mouseover" end="reset.mouseout"/>
                       </use>
               </g>
        </defs>

<script type="text/javascript">
var viewWidth = 1159;
var viewHeight = 137;
var sectionId = 'dynsection-0';
</script>
<script xlink:href="svgpan.js"/>
<svg id="graph" class="graph">
<g id="viewport">
<title>CDPL::Biomol::HierarchyViewNode</title>
<!-- Node1 -->
<g id="node1" class="node">
<title>Node1</title>
<g id="a_node1"><a xlink:title="HierarchyViewNode.">
<polygon fill="#bfbfbf" stroke="#000000" points="770,-55 770,-74 955,-74 955,-55 770,-55"/>
<text text-anchor="middle" x="862.5" y="-62" font-family="Helvetica,sans-Serif" font-size="10.00" fill="#000000">CDPL::Biomol::HierarchyViewNode</text>
</a>
</g>
</g>
<!-- Node8 -->
<g id="node8" class="node">
<title>Node8</title>
<g id="a_node8"><a xlink:href="classCDPL_1_1Biomol_1_1HierarchyViewChain.html" target="_top" xlink:title="HierarchyViewChain.">
<polygon fill="none" stroke="#000000" points="991,-98.5 991,-128.5 1151,-128.5 1151,-98.5 991,-98.5"/>
<text text-anchor="start" x="999" y="-116.5" font-family="Helvetica,sans-Serif" font-size="10.00" fill="#000000">CDPL::Biomol::HierarchyView</text>
<text text-anchor="middle" x="1071" y="-105.5" font-family="Helvetica,sans-Serif" font-size="10.00" fill="#000000">Chain</text>
</a>
</g>
</g>
<!-- Node1&#45;&gt;Node8 -->
<g id="edge7" class="edge">
<title>Node1&#45;&gt;Node8</title>
<path fill="none" stroke="#191970" d="M913.2497,-76.4268C941.4833,-83.062 976.8987,-91.3851 1007.0162,-98.463"/>
<polygon fill="#191970" stroke="#191970" points="913.7314,-72.9447 903.1959,-74.064 912.1299,-79.7591 913.7314,-72.9447"/>
</g>
<!-- Node9 -->
<g id="node9" class="node">
<title>Node9</title>
<g id="a_node9"><a xlink:href="classCDPL_1_1Biomol_1_1HierarchyViewFragment.html" target="_top" xlink:title="HierarchyViewFragment.">
<polygon fill="none" stroke="#000000" points="991,-49.5 991,-79.5 1151,-79.5 1151,-49.5 991,-49.5"/>
<text text-anchor="start" x="999" y="-67.5" font-family="Helvetica,sans-Serif" font-size="10.00" fill="#000000">CDPL::Biomol::HierarchyView</text>
<text text-anchor="middle" x="1071" y="-56.5" font-family="Helvetica,sans-Serif" font-size="10.00" fill="#000000">Fragment</text>
</a>
</g>
</g>
<!-- Node1&#45;&gt;Node9 -->
<g id="edge8" class="edge">
<title>Node1&#45;&gt;Node9</title>
<path fill="none" stroke="#191970" d="M965.202,-64.5C973.7691,-64.5 982.3501,-64.5 990.7135,-64.5"/>
<polygon fill="#191970" stroke="#191970" points="965.1654,-61.0001 955.1654,-64.5 965.1653,-68.0001 965.1654,-61.0001"/>
</g>
<!-- Node10 -->
<g id="node10" class="node">
<title>Node10</title>
<g id="a_node10"><a xlink:href="classCDPL_1_1Biomol_1_1HierarchyViewModel.html" target="_top" xlink:title="HierarchyViewModel.">
<polygon fill="none" stroke="#000000" points="991,-.5 991,-30.5 1151,-30.5 1151,-.5 991,-.5"/>
<text text-anchor="start" x="999" y="-18.5" font-family="Helvetica,sans-Serif" font-size="10.00" fill="#000000">CDPL::Biomol::HierarchyView</text>
<text text-anchor="middle" x="1071" y="-7.5" font-family="Helvetica,sans-Serif" font-size="10.00" fill="#000000">Model</text>
</a>
</g>
</g>
<!-- Node1&#45;&gt;Node10 -->
<g id="edge9" class="edge">
<title>Node1&#45;&gt;Node10</title>
<path fill="none" stroke="#191970" d="M913.2497,-52.5732C941.4833,-45.938 976.8987,-37.6149 1007.0162,-30.537"/>
<polygon fill="#191970" stroke="#191970" points="912.1299,-49.2409 903.1959,-54.936 913.7314,-56.0553 912.1299,-49.2409"/>
</g>
<!-- Node2 -->
<g id="node2" class="node">
<title>Node2</title>
<g id="a_node2"><a xlink:href="classCDPL_1_1Chem_1_1Fragment.html" target="_top" xlink:title="Fragment.">
<polygon fill="none" stroke="#000000" points="606,-55 606,-74 734,-74 734,-55 606,-55"/>
<text text-anchor="middle" x="670" y="-62" font-family="Helvetica,sans-Serif" font-size="10.00" fill="#000000">CDPL::Chem::Fragment</text>
</a>
</g>
</g>
<!-- Node2&#45;&gt;Node1 -->
<g id="edge1" class="edge">
<title>Node2&#45;&gt;Node1</title>
<path fill="none" stroke="#191970" d="M744.213,-64.5C752.6154,-64.5 761.2547,-64.5 769.8555,-64.5"/>
<polygon fill="#191970" stroke="#191970" points="744.0997,-61.0001 734.0997,-64.5 744.0997,-68.0001 744.0997,-61.0001"/>
</g>
<!-- Node3 -->
<g id="node3" class="node">
<title>Node3</title>
<g id="a_node3"><a xlink:href="classCDPL_1_1Chem_1_1MolecularGraph.html" target="_top" xlink:title="MolecularGraph.">
<polygon fill="none" stroke="#000000" points="411,-55 411,-74 570,-74 570,-55 411,-55"/>
<text text-anchor="middle" x="490.5" y="-62" font-family="Helvetica,sans-Serif" font-size="10.00" fill="#000000">CDPL::Chem::MolecularGraph</text>
</a>
</g>
</g>
<!-- Node3&#45;&gt;Node2 -->
<g id="edge2" class="edge">
<title>Node3&#45;&gt;Node2</title>
<path fill="none" stroke="#191970" d="M580.1822,-64.5C588.8599,-64.5 597.5384,-64.5 605.8933,-64.5"/>
<polygon fill="#191970" stroke="#191970" points="580.0152,-61.0001 570.0152,-64.5 580.0152,-68.0001 580.0152,-61.0001"/>
</g>
<!-- Node4 -->
<g id="node4" class="node">
<title>Node4</title>
<g id="a_node4"><a xlink:href="classCDPL_1_1Chem_1_1AtomContainer.html" target="_top" xlink:title="A common interface for data&#45;structures that support a random access to stored Chem::Atom instances.">
<polygon fill="none" stroke="#000000" points="213.5,-93 213.5,-112 369.5,-112 369.5,-93 213.5,-93"/>
<text text-anchor="middle" x="291.5" y="-100" font-family="Helvetica,sans-Serif" font-size="10.00" fill="#000000">CDPL::Chem::AtomContainer</text>
</a>
</g>
</g>
<!-- Node4&#45;&gt;Node3 -->
<g id="edge3" class="edge">
<title>Node4&#45;&gt;Node3</title>
<path fill="none" stroke="#191970" d="M351.2949,-91.0819C379.7682,-85.6448 413.4307,-79.2168 440.5202,-74.0439"/>
<polygon fill="#191970" stroke="#191970" points="350.6253,-87.6464 341.4592,-92.96 351.9383,-94.5222 350.6253,-87.6464"/>
</g>
<!-- Node5 -->
<g id="node5" class="node">
<title>Node5</title>
<g id="a_node5"><a xlink:href="classCDPL_1_1Chem_1_1Entity3DContainer.html" target="_top" xlink:title="A common interface for data&#45;structures that support a random access to stored Chem::Entity3D instance...">
<polygon fill="none" stroke="#000000" points="0,-93 0,-112 172,-112 172,-93 0,-93"/>
<text text-anchor="middle" x="86" y="-100" font-family="Helvetica,sans-Serif" font-size="10.00" fill="#000000">CDPL::Chem::Entity3DContainer</text>
</a>
</g>
</g>
<!-- Node5&#45;&gt;Node4 -->
<g id="edge4" class="edge">
<title>Node5&#45;&gt;Node4</title>
<path fill="none" stroke="#191970" d="M182.5312,-102.5C192.8486,-102.5 203.2499,-102.5 213.317,-102.5"/>
<polygon fill="#191970" stroke="#191970" points="182.2573,-99.0001 172.2573,-102.5 182.2573,-106.0001 182.2573,-99.0001"/>
</g>
<!-- Node6 -->
<g id="node6" class="node">
<title>Node6</title>
<g id="a_node6"><a xlink:href="classCDPL_1_1Chem_1_1BondContainer.html" target="_top" xlink:title="A common interface for data&#45;structures that support a random access to stored Chem::Bond instances.">
<polygon fill="none" stroke="#000000" points="214,-55 214,-74 369,-74 369,-55 214,-55"/>
<text text-anchor="middle" x="291.5" y="-62" font-family="Helvetica,sans-Serif" font-size="10.00" fill="#000000">CDPL::Chem::BondContainer</text>
</a>
</g>
</g>
<!-- Node6&#45;&gt;Node3 -->
<g id="edge5" class="edge">
<title>Node6&#45;&gt;Node3</title>
<path fill="none" stroke="#191970" d="M379.087,-64.5C389.6741,-64.5 400.4437,-64.5 410.907,-64.5"/>
<polygon fill="#191970" stroke="#191970" points="379.0085,-61.0001 369.0084,-64.5 379.0084,-68.0001 379.0085,-61.0001"/>
</g>
<!-- Node7 -->
<g id="node7" class="node">
<title>Node7</title>
<g id="a_node7"><a xlink:href="classCDPL_1_1Base_1_1PropertyContainer.html" target="_top" xlink:title="A class providing methods for the storage and lookup of object properties.">
<polygon fill="none" stroke="#000000" points="208,-17 208,-36 375,-36 375,-17 208,-17"/>
<text text-anchor="middle" x="291.5" y="-24" font-family="Helvetica,sans-Serif" font-size="10.00" fill="#000000">CDPL::Base::PropertyContainer</text>
</a>
</g>
</g>
<!-- Node7&#45;&gt;Node3 -->
<g id="edge6" class="edge">
<title>Node7&#45;&gt;Node3</title>
<path fill="none" stroke="#191970" d="M351.2949,-37.9181C379.7682,-43.3552 413.4307,-49.7832 440.5202,-54.9561"/>
<polygon fill="#191970" stroke="#191970" points="351.9383,-34.4778 341.4592,-36.04 350.6253,-41.3536 351.9383,-34.4778"/>
</g>
</g>
</svg>
        <g id="navigator" transform="translate(0 0)" fill="#404254">
                <rect fill="#f2f5e9" fill-opacity="0.5" stroke="#606060" stroke-width=".5" x="0" y="0" width="60" height="60"/>
                <use id="zoomplus" xlink:href="#zoomPlus" x="17" y="9" onmousedown="handleZoom(evt,'in')"/>
                <use id="zoomminus" xlink:href="#zoomMin" x="42" y="9" onmousedown="handleZoom(evt,'out')"/>
                <use id="reset" xlink:href="#resetDef" x="30" y="36" onmousedown="handleReset()"/>
                <g id="arrowUp" xlink:href="#dirArrow" transform="translate(30 24)" onmousedown="handlePan(0,-1)">
                  <use xlink:href="#rim" fill="#404040">
                        <set attributeName="fill" to="#808080" begin="arrowUp.mouseover" end="arrowUp.mouseout"/>
                  </use>
                  <path fill="none" stroke="white" stroke-width="1.5" d="M0,-3.0v7 M-2.5,-0.5L0,-3.0L2.5,-0.5"/>
                </g>
                <g id="arrowRight" xlink:href="#dirArrow" transform="rotate(90) translate(36 -43)" onmousedown="handlePan(1,0)">
                  <use xlink:href="#rim" fill="#404040">
                        <set attributeName="fill" to="#808080" begin="arrowRight.mouseover" end="arrowRight.mouseout"/>
                  </use>
                  <path fill="none" stroke="white" stroke-width="1.5" d="M0,-3.0v7 M-2.5,-0.5L0,-3.0L2.5,-0.5"/>
                </g>
                <g id="arrowDown" xlink:href="#dirArrow" transform="rotate(180) translate(-30 -48)" onmousedown="handlePan(0,1)">
                  <use xlink:href="#rim" fill="#404040">
                        <set attributeName="fill" to="#808080" begin="arrowDown.mouseover" end="arrowDown.mouseout"/>
                  </use>
                  <path fill="none" stroke="white" stroke-width="1.5" d="M0,-3.0v7 M-2.5,-0.5L0,-3.0L2.5,-0.5"/>
                </g>
                <g id="arrowLeft" xlink:href="#dirArrow" transform="rotate(270) translate(-36 17)" onmousedown="handlePan(-1,0)">
                  <use xlink:href="#rim" fill="#404040">
                        <set attributeName="fill" to="#808080" begin="arrowLeft.mouseover" end="arrowLeft.mouseout"/>
                  </use>
                  <path fill="none" stroke="white" stroke-width="1.5" d="M0,-3.0v7 M-2.5,-0.5L0,-3.0L2.5,-0.5"/>
                </g>
        </g>
        <svg viewBox="0 0 15 15" width="100%" height="30px" preserveAspectRatio="xMaxYMin meet">
         <g id="arrow_out" transform="scale(0.3 0.3)">
          <a xlink:href="classCDPL_1_1Biomol_1_1HierarchyViewNode__inherit__graph_org.svg" target="_base">
           <rect id="button" ry="5" rx="5" y="6" x="6" height="38" width="38"
                fill="#f2f5e9" fill-opacity="0.5" stroke="#606060" stroke-width="1.0"/>
           <path id="arrow"
             d="M 11.500037,31.436501 C 11.940474,20.09759 22.043105,11.32322 32.158766,21.979434 L 37.068811,17.246167 C 37.068811,17.246167 37.088388,32 37.088388,32 L 22.160133,31.978069 C 22.160133,31.978069 26.997745,27.140456 26.997745,27.140456 C 18.528582,18.264221 13.291696,25.230495 11.500037,31.436501 z"
             style="fill:#404040;"/>
          </a>
         </g>
        </svg>
</svg>
