<?xml version="1.0" encoding="UTF-8" standalone="no"?>
<!DOCTYPE svg PUBLIC "-//W3C//DTD SVG 1.1//EN"
 "http://www.w3.org/Graphics/SVG/1.1/DTD/svg11.dtd">
<!-- Generated by graphviz version 2.40.1 (0)
 -->
<!-- Title: CDPL::Shape::GaussianShapeSet Pages: 1 -->
<!--zoomable 75 -->
<svg id="main" version="1.1" xmlns="http://www.w3.org/2000/svg" xmlns:xlink="http://www.w3.org/1999/xlink" xml:space="preserve" onload="init(evt)">
<style type="text/css"><![CDATA[
.edge:hover path { stroke: red; }
.edge:hover polygon { stroke: red; fill: red; }
]]></style>
<script type="text/javascript"><![CDATA[
var edges = document.getElementsByTagName('g');
if (edges && edges.length) {
  for (var i=0;i<edges.length;i++) {
    if (edges[i].id.substr(0,4)=='edge') {
      edges[i].setAttribute('class','edge');
    }
  }
}
]]></script>
        <defs>
                <circle id="rim" cx="0" cy="0" r="7"/>
                <circle id="rim2" cx="0" cy="0" r="3.5"/>
                <g id="zoomPlus">
                        <use xlink:href="#rim" fill="#404040">
                                <set attributeName="fill" to="#808080" begin="zoomplus.mouseover" end="zoomplus.mouseout"/>
                        </use>
                        <path d="M-4,0h8M0,-4v8" fill="none" stroke="white" stroke-width="1.5" pointer-events="none"/>
                </g>
                <g id="zoomMin">
                        <use xlink:href="#rim" fill="#404040">
                                <set attributeName="fill" to="#808080" begin="zoomminus.mouseover" end="zoomminus.mouseout"/>
                        </use>
                        <path d="M-4,0h8" fill="none" stroke="white" stroke-width="1.5" pointer-events="none"/>
                </g>
                <g id="dirArrow">
                        <path fill="none" stroke="white" stroke-width="1.5" d="M0,-3.0v7 M-2.5,-0.5L0,-3.0L2.5,-0.5"/>
                </g>
               <g id="resetDef">
                       <use xlink:href="#rim2" fill="#404040">
                               <set attributeName="fill" to="#808080" begin="reset.mouseover" end="reset.mouseout"/>
                       </use>
               </g>
        </defs>

<script type="text/javascript">
var viewWidth = 1052;
var viewHeight = 75;
var sectionId = 'dynsection-0';
</script>
<script xlink:href="svgpan.js"/>
<svg id="graph" class="graph">
<g id="viewport">
<title>CDPL::Shape::GaussianShapeSet</title>
<!-- Node1 -->
<g id="node1" class="node">
<title>Node1</title>
<g id="a_node1"><a xlink:title=" ">
<polygon fill="#bfbfbf" stroke="#000000" points="869,-36.5 869,-55.5 1044,-55.5 1044,-36.5 869,-36.5"/>
<text text-anchor="middle" x="956.5" y="-43.5" font-family="Helvetica,sans-Serif" font-size="10.00" fill="#000000">CDPL::Shape::GaussianShapeSet</text>
</a>
</g>
</g>
<!-- Node2 -->
<g id="node2" class="node">
<title>Node2</title>
<g id="a_node2"><a xlink:href="classCDPL_1_1Util_1_1IndirectArray.html" target="_top" xlink:title=" ">
<polygon fill="none" stroke="#000000" points="698,-31 698,-61 832,-61 832,-31 698,-31"/>
<text text-anchor="start" x="706" y="-49" font-family="Helvetica,sans-Serif" font-size="10.00" fill="#000000">CDPL::Util::IndirectArray</text>
<text text-anchor="middle" x="765" y="-38" font-family="Helvetica,sans-Serif" font-size="10.00" fill="#000000">&lt; GaussianShape &gt;</text>
</a>
</g>
</g>
<!-- Node2&#45;&gt;Node1 -->
<g id="edge1" class="edge">
<title>Node2&#45;&gt;Node1</title>
<path fill="none" stroke="#191970" d="M842.3829,-46C851.1161,-46 860.0611,-46 868.9124,-46"/>
<polygon fill="#191970" stroke="#191970" points="842.2465,-42.5001 832.2465,-46 842.2464,-49.5001 842.2465,-42.5001"/>
</g>
<!-- Node3 -->
<g id="node3" class="node">
<title>Node3</title>
<g id="a_node3"><a xlink:href="classCDPL_1_1Util_1_1Array.html" target="_top" xlink:title=" ">
<polygon fill="none" stroke="#000000" points="259,-24.5 259,-65.5 381,-65.5 381,-24.5 259,-24.5"/>
<text text-anchor="start" x="267" y="-53.5" font-family="Helvetica,sans-Serif" font-size="10.00" fill="#000000">CDPL::Util::Array&lt;</text>
<text text-anchor="start" x="267" y="-42.5" font-family="Helvetica,sans-Serif" font-size="10.00" fill="#000000"> typename ValueType</text>
<text text-anchor="middle" x="320" y="-31.5" font-family="Helvetica,sans-Serif" font-size="10.00" fill="#000000">::SharedPointer &gt;</text>
</a>
</g>
</g>
<!-- Node3&#45;&gt;Node2 -->
<g id="edge2" class="edge">
<title>Node3&#45;&gt;Node2</title>
<path fill="none" stroke="#191970" d="M391.2436,-49.7695C400.2473,-50.2522 409.3365,-50.6812 418,-51 534.3691,-55.2826 563.6504,-57.7828 680,-53 685.7698,-52.7628 691.7544,-52.4354 697.7543,-52.0509"/>
<polygon fill="#191970" stroke="#191970" points="391.3214,-46.2684 381.1416,-49.2046 390.9305,-53.2575 391.3214,-46.2684"/>
</g>
<!-- Node5 -->
<g id="node5" class="node">
<title>Node5</title>
<g id="a_node5"><a xlink:href="classCDPL_1_1Util_1_1IndirectArray.html" target="_top" xlink:title="A dynamic array class for the storage of object pointers with an indirected query interface.">
<polygon fill="none" stroke="#000000" points="418,-.5 418,-41.5 561,-41.5 561,-.5 418,-.5"/>
<text text-anchor="start" x="426" y="-29.5" font-family="Helvetica,sans-Serif" font-size="10.00" fill="#000000">CDPL::Util::IndirectArray</text>
<text text-anchor="start" x="426" y="-18.5" font-family="Helvetica,sans-Serif" font-size="10.00" fill="#000000">&lt; ValueType, PointerType,</text>
<text text-anchor="middle" x="489.5" y="-7.5" font-family="Helvetica,sans-Serif" font-size="10.00" fill="#000000"> NullPointerCheck &gt;</text>
</a>
</g>
</g>
<!-- Node3&#45;&gt;Node5 -->
<g id="edge5" class="edge">
<title>Node3&#45;&gt;Node5</title>
<path fill="none" stroke="#191970" d="M391.3301,-34.9002C400.061,-33.6639 408.9868,-32.4001 417.7242,-31.1629"/>
<polygon fill="#191970" stroke="#191970" points="390.6039,-31.468 381.1934,-36.3354 391.5853,-38.3989 390.6039,-31.468"/>
</g>
<!-- Node4 -->
<g id="node4" class="node">
<title>Node4</title>
<g id="a_node4"><a xlink:href="classCDPL_1_1Util_1_1Array.html" target="_top" xlink:title="A dynamic array class providing amortized constant time access to arbitrary elements.">
<polygon fill="none" stroke="#000000" points="0,-30 0,-60 106,-60 106,-30 0,-30"/>
<text text-anchor="start" x="8" y="-48" font-family="Helvetica,sans-Serif" font-size="10.00" fill="#000000">CDPL::Util::Array&lt;</text>
<text text-anchor="middle" x="53" y="-37" font-family="Helvetica,sans-Serif" font-size="10.00" fill="#000000"> ValueType &gt;</text>
</a>
</g>
</g>
<!-- Node4&#45;&gt;Node3 -->
<g id="edge3" class="edge">
<title>Node4&#45;&gt;Node3</title>
<path fill="none" stroke="#ffa500" stroke-dasharray="5,2" d="M116.148,-45C159.2073,-45 215.9368,-45 258.6159,-45"/>
<polygon fill="#ffa500" stroke="#ffa500" points="116.0699,-41.5001 106.0698,-45 116.0698,-48.5001 116.0699,-41.5001"/>
<text text-anchor="start" x="124" y="-59" font-family="Helvetica,sans-Serif" font-size="10.00" fill="#000000"> &lt; typename ValueType</text>
<text text-anchor="middle" x="182.5" y="-48" font-family="Helvetica,sans-Serif" font-size="10.00" fill="#000000">::SharedPointer &gt;</text>
</g>
<!-- Node5&#45;&gt;Node2 -->
<g id="edge4" class="edge">
<title>Node5&#45;&gt;Node2</title>
<path fill="none" stroke="#ffa500" stroke-dasharray="5,2" d="M571.2557,-28.4188C611.6433,-32.0838 659.77,-36.451 697.9533,-39.9159"/>
<polygon fill="#ffa500" stroke="#ffa500" points="571.4406,-24.9213 561.1652,-27.5032 570.8079,-31.8927 571.4406,-24.9213"/>
<text text-anchor="middle" x="629.5" y="-41" font-family="Helvetica,sans-Serif" font-size="10.00" fill="#000000"> &lt; GaussianShape &gt;</text>
</g>
</g>
</svg>
        <g id="navigator" transform="translate(0 0)" fill="#404254">
                <rect fill="#f2f5e9" fill-opacity="0.5" stroke="#606060" stroke-width=".5" x="0" y="0" width="60" height="60"/>
                <use id="zoomplus" xlink:href="#zoomPlus" x="17" y="9" onmousedown="handleZoom(evt,'in')"/>
                <use id="zoomminus" xlink:href="#zoomMin" x="42" y="9" onmousedown="handleZoom(evt,'out')"/>
                <use id="reset" xlink:href="#resetDef" x="30" y="36" onmousedown="handleReset()"/>
                <g id="arrowUp" xlink:href="#dirArrow" transform="translate(30 24)" onmousedown="handlePan(0,-1)">
                  <use xlink:href="#rim" fill="#404040">
                        <set attributeName="fill" to="#808080" begin="arrowUp.mouseover" end="arrowUp.mouseout"/>
                  </use>
                  <path fill="none" stroke="white" stroke-width="1.5" d="M0,-3.0v7 M-2.5,-0.5L0,-3.0L2.5,-0.5"/>
                </g>
                <g id="arrowRight" xlink:href="#dirArrow" transform="rotate(90) translate(36 -43)" onmousedown="handlePan(1,0)">
                  <use xlink:href="#rim" fill="#404040">
                        <set attributeName="fill" to="#808080" begin="arrowRight.mouseover" end="arrowRight.mouseout"/>
                  </use>
                  <path fill="none" stroke="white" stroke-width="1.5" d="M0,-3.0v7 M-2.5,-0.5L0,-3.0L2.5,-0.5"/>
                </g>
                <g id="arrowDown" xlink:href="#dirArrow" transform="rotate(180) translate(-30 -48)" onmousedown="handlePan(0,1)">
                  <use xlink:href="#rim" fill="#404040">
                        <set attributeName="fill" to="#808080" begin="arrowDown.mouseover" end="arrowDown.mouseout"/>
                  </use>
                  <path fill="none" stroke="white" stroke-width="1.5" d="M0,-3.0v7 M-2.5,-0.5L0,-3.0L2.5,-0.5"/>
                </g>
                <g id="arrowLeft" xlink:href="#dirArrow" transform="rotate(270) translate(-36 17)" onmousedown="handlePan(-1,0)">
                  <use xlink:href="#rim" fill="#404040">
                        <set attributeName="fill" to="#808080" begin="arrowLeft.mouseover" end="arrowLeft.mouseout"/>
                  </use>
                  <path fill="none" stroke="white" stroke-width="1.5" d="M0,-3.0v7 M-2.5,-0.5L0,-3.0L2.5,-0.5"/>
                </g>
        </g>
        <svg viewBox="0 0 15 15" width="100%" height="30px" preserveAspectRatio="xMaxYMin meet">
         <g id="arrow_out" transform="scale(0.3 0.3)">
          <a xlink:href="classCDPL_1_1Shape_1_1GaussianShapeSet__inherit__graph_org.svg" target="_base">
           <rect id="button" ry="5" rx="5" y="6" x="6" height="38" width="38"
                fill="#f2f5e9" fill-opacity="0.5" stroke="#606060" stroke-width="1.0"/>
           <path id="arrow"
             d="M 11.500037,31.436501 C 11.940474,20.09759 22.043105,11.32322 32.158766,21.979434 L 37.068811,17.246167 C 37.068811,17.246167 37.088388,32 37.088388,32 L 22.160133,31.978069 C 22.160133,31.978069 26.997745,27.140456 26.997745,27.140456 C 18.528582,18.264221 13.291696,25.230495 11.500037,31.436501 z"
             style="fill:#404040;"/>
          </a>
         </g>
        </svg>
</svg>
