<?xml version="1.0" encoding="UTF-8" standalone="no"?>
<!DOCTYPE svg PUBLIC "-//W3C//DTD SVG 1.1//EN"
 "http://www.w3.org/Graphics/SVG/1.1/DTD/svg11.dtd">
<!-- Generated by graphviz version 2.40.1 (0)
 -->
<!-- Title: Graphical Class Hierarchy Pages: 1 -->
<svg width="563pt" height="344pt"
 viewBox="0.00 0.00 563.00 344.00" xmlns="http://www.w3.org/2000/svg" xmlns:xlink="http://www.w3.org/1999/xlink">
<g id="graph0" class="graph" transform="scale(1 1) rotate(0) translate(4 340)">
<title>Graphical Class Hierarchy</title>
<!-- Node1110 -->
<g id="node1" class="node">
<title>Node1110</title>
<g id="a_node1"><a xlink:title=" ">
<polygon fill="none" stroke="#bfbfbf" points="0,-250.5 0,-269.5 140,-269.5 140,-250.5 0,-250.5"/>
<text text-anchor="middle" x="70" y="-257.5" font-family="Helvetica,sans-Serif" font-size="10.00" fill="#000000">VectorArray&lt; Vector2D &gt;</text>
</a>
</g>
</g>
<!-- Node1111 -->
<g id="node2" class="node">
<title>Node1111</title>
<g id="a_node2"><a xlink:href="classCDPL_1_1Vis_1_1PointArray2D.html" target="_top" xlink:title="Stores a set of points in 2D space.">
<polygon fill="none" stroke="#000000" points="194,-250.5 194,-269.5 328,-269.5 328,-250.5 194,-250.5"/>
<text text-anchor="middle" x="261" y="-257.5" font-family="Helvetica,sans-Serif" font-size="10.00" fill="#000000">CDPL::Vis::PointArray2D</text>
</a>
</g>
</g>
<!-- Node1110&#45;&gt;Node1111 -->
<g id="edge1" class="edge">
<title>Node1110&#45;&gt;Node1111</title>
<path fill="none" stroke="#191970" d="M150.4524,-260C164.8977,-260 179.8142,-260 193.8347,-260"/>
<polygon fill="#191970" stroke="#191970" points="150.0368,-256.5001 140.0368,-260 150.0368,-263.5001 150.0368,-256.5001"/>
</g>
<!-- Node531 -->
<g id="node3" class="node">
<title>Node531</title>
<g id="a_node3"><a xlink:href="classCDPL_1_1Vis_1_1LineSegmentListPrimitive2D.html" target="_top" xlink:title="A graphics primitive representing a list of disjoint line segments.">
<polygon fill="none" stroke="#000000" points="393.5,-267 393.5,-297 543.5,-297 543.5,-267 393.5,-267"/>
<text text-anchor="start" x="401.5" y="-285" font-family="Helvetica,sans-Serif" font-size="10.00" fill="#000000">CDPL::Vis::LineSegmentList</text>
<text text-anchor="middle" x="468.5" y="-274" font-family="Helvetica,sans-Serif" font-size="10.00" fill="#000000">Primitive2D</text>
</a>
</g>
</g>
<!-- Node1111&#45;&gt;Node531 -->
<g id="edge2" class="edge">
<title>Node1111&#45;&gt;Node531</title>
<path fill="none" stroke="#191970" d="M338.2533,-268.1907C356.278,-270.1018 375.4462,-272.1341 393.3769,-274.0351"/>
<polygon fill="#191970" stroke="#191970" points="338.3961,-264.6863 328.0827,-267.1124 337.658,-271.6473 338.3961,-264.6863"/>
</g>
<!-- Node532 -->
<g id="node4" class="node">
<title>Node532</title>
<g id="a_node4"><a xlink:href="classCDPL_1_1Vis_1_1PointListPrimitive2D.html" target="_top" xlink:title="A graphics primitive representing a list of points.">
<polygon fill="none" stroke="#000000" points="384,-228.5 384,-247.5 553,-247.5 553,-228.5 384,-228.5"/>
<text text-anchor="middle" x="468.5" y="-235.5" font-family="Helvetica,sans-Serif" font-size="10.00" fill="#000000">CDPL::Vis::PointListPrimitive2D</text>
</a>
</g>
</g>
<!-- Node1111&#45;&gt;Node532 -->
<g id="edge3" class="edge">
<title>Node1111&#45;&gt;Node532</title>
<path fill="none" stroke="#191970" d="M338.2304,-251.8117C353.0914,-250.2361 368.7306,-248.578 383.8131,-246.9789"/>
<polygon fill="#191970" stroke="#191970" points="337.658,-248.3527 328.0827,-252.8876 338.3961,-255.3137 337.658,-248.3527"/>
</g>
<!-- Node533 -->
<g id="node5" class="node">
<title>Node533</title>
<g id="a_node5"><a xlink:href="classCDPL_1_1Vis_1_1PolygonPrimitive2D.html" target="_top" xlink:title="A graphics primitive representing a polygon.">
<polygon fill="none" stroke="#000000" points="385.5,-190.5 385.5,-209.5 551.5,-209.5 551.5,-190.5 385.5,-190.5"/>
<text text-anchor="middle" x="468.5" y="-197.5" font-family="Helvetica,sans-Serif" font-size="10.00" fill="#000000">CDPL::Vis::PolygonPrimitive2D</text>
</a>
</g>
</g>
<!-- Node1111&#45;&gt;Node533 -->
<g id="edge4" class="edge">
<title>Node1111&#45;&gt;Node533</title>
<path fill="none" stroke="#191970" d="M296.416,-246.8458C320.3687,-238.2356 352.8328,-227.1181 382,-219 394.4424,-215.5369 408.0325,-212.3008 420.6776,-209.5156"/>
<polygon fill="#191970" stroke="#191970" points="294.9141,-243.6673 286.706,-250.3663 297.3002,-250.2481 294.9141,-243.6673"/>
</g>
<!-- Node534 -->
<g id="node6" class="node">
<title>Node534</title>
<g id="a_node6"><a xlink:href="classCDPL_1_1Vis_1_1PolylinePrimitive2D.html" target="_top" xlink:title="A graphics primitive representing a set of connected line segments.">
<polygon fill="none" stroke="#000000" points="385.5,-316.5 385.5,-335.5 551.5,-335.5 551.5,-316.5 385.5,-316.5"/>
<text text-anchor="middle" x="468.5" y="-323.5" font-family="Helvetica,sans-Serif" font-size="10.00" fill="#000000">CDPL::Vis::PolylinePrimitive2D</text>
</a>
</g>
</g>
<!-- Node1111&#45;&gt;Node534 -->
<g id="edge5" class="edge">
<title>Node1111&#45;&gt;Node534</title>
<path fill="none" stroke="#191970" d="M291.8654,-273.5123C316.0452,-283.7237 350.7145,-297.5496 382,-307 393.7748,-310.5568 406.6376,-313.7461 418.7586,-316.4502"/>
<polygon fill="#191970" stroke="#191970" points="293.0761,-270.2237 282.5047,-269.5184 290.3289,-276.6621 293.0761,-270.2237"/>
</g>
<!-- Node529 -->
<g id="node7" class="node">
<title>Node529</title>
<g id="a_node7"><a xlink:href="classCDPL_1_1Vis_1_1GraphicsPrimitive2D.html" target="_top" xlink:title="The abstract base class of all 2D graphics primitives.">
<polygon fill="none" stroke="#000000" points="176,-152.5 176,-171.5 346,-171.5 346,-152.5 176,-152.5"/>
<text text-anchor="middle" x="261" y="-159.5" font-family="Helvetica,sans-Serif" font-size="10.00" fill="#000000">CDPL::Vis::GraphicsPrimitive2D</text>
</a>
</g>
</g>
<!-- Node529&#45;&gt;Node531 -->
<g id="edge9" class="edge">
<title>Node529&#45;&gt;Node531</title>
<path fill="none" stroke="#191970" d="M277.6852,-178.5938C299.76,-199.674 340.7187,-235.8496 382,-257 389.3735,-260.7778 397.4015,-264.0629 405.4969,-266.8974"/>
<polygon fill="#191970" stroke="#191970" points="280.0558,-176.0171 270.4412,-171.5661 275.1816,-181.0413 280.0558,-176.0171"/>
</g>
<!-- Node529&#45;&gt;Node532 -->
<g id="edge11" class="edge">
<title>Node529&#45;&gt;Node532</title>
<path fill="none" stroke="#191970" d="M286.9679,-176.3235C311.0015,-189.0696 348.0404,-207.4351 382,-219 392.7704,-222.6678 404.5418,-225.8028 415.8356,-228.4065"/>
<polygon fill="#191970" stroke="#191970" points="288.5881,-173.2209 278.122,-171.5738 285.2765,-179.3881 288.5881,-173.2209"/>
</g>
<!-- Node529&#45;&gt;Node533 -->
<g id="edge12" class="edge">
<title>Node529&#45;&gt;Node533</title>
<path fill="none" stroke="#191970" d="M322.9603,-173.347C352.7318,-178.7991 388.0154,-185.2607 416.3854,-190.4561"/>
<polygon fill="#191970" stroke="#191970" points="323.5601,-169.8987 313.0932,-171.54 322.2991,-176.7842 323.5601,-169.8987"/>
</g>
<!-- Node529&#45;&gt;Node534 -->
<g id="edge13" class="edge">
<title>Node529&#45;&gt;Node534</title>
<path fill="none" stroke="#191970" d="M282.0327,-178.2644C300.4291,-193.2066 327.0892,-216.6667 346,-241 366.5036,-267.3827 355.2761,-286.9431 382,-307 387.1648,-310.8763 392.9632,-313.9921 399.0483,-316.4926"/>
<polygon fill="#191970" stroke="#191970" points="283.736,-175.146 273.7357,-171.6468 279.3712,-180.6186 283.736,-175.146"/>
</g>
<!-- Node1 -->
<g id="node8" class="node">
<title>Node1</title>
<g id="a_node8"><a xlink:href="classCDPL_1_1Vis_1_1ClipPathPrimitive2D.html" target="_top" xlink:title="A graphics primitive representing a clipping region in 2D space.">
<polygon fill="none" stroke="#000000" points="385,-38.5 385,-57.5 552,-57.5 552,-38.5 385,-38.5"/>
<text text-anchor="middle" x="468.5" y="-45.5" font-family="Helvetica,sans-Serif" font-size="10.00" fill="#000000">CDPL::Vis::ClipPathPrimitive2D</text>
</a>
</g>
</g>
<!-- Node529&#45;&gt;Node1 -->
<g id="edge6" class="edge">
<title>Node529&#45;&gt;Node1</title>
<path fill="none" stroke="#191970" d="M277.1437,-145.3158C298.9135,-123.8307 339.8368,-86.8966 382,-67 390.2039,-63.1286 399.2208,-60.0325 408.2403,-57.5599"/>
<polygon fill="#191970" stroke="#191970" points="274.5953,-142.9147 270.023,-152.4722 279.5574,-147.8521 274.5953,-142.9147"/>
</g>
<!-- Node530 -->
<g id="node9" class="node">
<title>Node530</title>
<g id="a_node9"><a xlink:href="classCDPL_1_1Vis_1_1EllipsePrimitive2D.html" target="_top" xlink:title="A graphics primitive representing a ellipse.">
<polygon fill="none" stroke="#000000" points="389,-114.5 389,-133.5 548,-133.5 548,-114.5 389,-114.5"/>
<text text-anchor="middle" x="468.5" y="-121.5" font-family="Helvetica,sans-Serif" font-size="10.00" fill="#000000">CDPL::Vis::EllipsePrimitive2D</text>
</a>
</g>
</g>
<!-- Node529&#45;&gt;Node530 -->
<g id="edge7" class="edge">
<title>Node529&#45;&gt;Node530</title>
<path fill="none" stroke="#191970" d="M322.9603,-150.653C352.7318,-145.2009 388.0154,-138.7393 416.3854,-133.5439"/>
<polygon fill="#191970" stroke="#191970" points="322.2991,-147.2158 313.0932,-152.46 323.5601,-154.1013 322.2991,-147.2158"/>
</g>
<!-- Node467 -->
<g id="node10" class="node">
<title>Node467</title>
<g id="a_node10"><a xlink:href="classCDPL_1_1Vis_1_1LinePrimitive2D.html" target="_top" xlink:title="A graphics primitive representing a single line.">
<polygon fill="none" stroke="#000000" points="395,-.5 395,-19.5 542,-19.5 542,-.5 395,-.5"/>
<text text-anchor="middle" x="468.5" y="-7.5" font-family="Helvetica,sans-Serif" font-size="10.00" fill="#000000">CDPL::Vis::LinePrimitive2D</text>
</a>
</g>
</g>
<!-- Node529&#45;&gt;Node467 -->
<g id="edge8" class="edge">
<title>Node529&#45;&gt;Node467</title>
<path fill="none" stroke="#191970" d="M282.0245,-145.9659C300.2043,-131.4878 326.5497,-108.9857 346,-86 365.3548,-63.1271 357.4727,-46.2102 382,-29 387.5379,-25.1142 393.7274,-22.0029 400.181,-19.5146"/>
<polygon fill="#191970" stroke="#191970" points="279.5328,-143.4719 273.8218,-152.3958 283.8513,-148.9811 279.5328,-143.4719"/>
</g>
<!-- Node2 -->
<g id="node11" class="node">
<title>Node2</title>
<g id="a_node11"><a xlink:href="classCDPL_1_1Vis_1_1PathPrimitive2D.html" target="_top" xlink:title="A graphics primitive representing an arbitrary path in 2D space.">
<polygon fill="none" stroke="#000000" points="394.5,-76.5 394.5,-95.5 542.5,-95.5 542.5,-76.5 394.5,-76.5"/>
<text text-anchor="middle" x="468.5" y="-83.5" font-family="Helvetica,sans-Serif" font-size="10.00" fill="#000000">CDPL::Vis::PathPrimitive2D</text>
</a>
</g>
</g>
<!-- Node529&#45;&gt;Node2 -->
<g id="edge10" class="edge">
<title>Node529&#45;&gt;Node2</title>
<path fill="none" stroke="#191970" d="M286.9679,-147.6765C311.0015,-134.9304 348.0404,-116.5649 382,-105 392.7704,-101.3322 404.5418,-98.1972 415.8356,-95.5935"/>
<polygon fill="#191970" stroke="#191970" points="285.2765,-144.6119 278.122,-152.4262 288.5881,-150.7791 285.2765,-144.6119"/>
</g>
<!-- Node535 -->
<g id="node12" class="node">
<title>Node535</title>
<g id="a_node12"><a xlink:href="classCDPL_1_1Vis_1_1TextLabelPrimitive2D.html" target="_top" xlink:title="A graphics primitive representing a text label.">
<polygon fill="none" stroke="#000000" points="382,-152.5 382,-171.5 555,-171.5 555,-152.5 382,-152.5"/>
<text text-anchor="middle" x="468.5" y="-159.5" font-family="Helvetica,sans-Serif" font-size="10.00" fill="#000000">CDPL::Vis::TextLabelPrimitive2D</text>
</a>
</g>
</g>
<!-- Node529&#45;&gt;Node535 -->
<g id="edge14" class="edge">
<title>Node529&#45;&gt;Node535</title>
<path fill="none" stroke="#191970" d="M356.541,-162C364.9818,-162 373.4954,-162 381.8567,-162"/>
<polygon fill="#191970" stroke="#191970" points="356.2965,-158.5001 346.2965,-162 356.2964,-165.5001 356.2965,-158.5001"/>
</g>
<!-- Node466 -->
<g id="node13" class="node">
<title>Node466</title>
<g id="a_node13"><a xlink:href="classCDPL_1_1Vis_1_1Line2D.html" target="_top" xlink:title="Specifies a line segment in 2D space.">
<polygon fill="none" stroke="#000000" points="209.5,-.5 209.5,-19.5 312.5,-19.5 312.5,-.5 209.5,-.5"/>
<text text-anchor="middle" x="261" y="-7.5" font-family="Helvetica,sans-Serif" font-size="10.00" fill="#000000">CDPL::Vis::Line2D</text>
</a>
</g>
</g>
<!-- Node466&#45;&gt;Node467 -->
<g id="edge15" class="edge">
<title>Node466&#45;&gt;Node467</title>
<path fill="none" stroke="#191970" d="M322.7241,-10C345.3848,-10 371.2643,-10 394.8669,-10"/>
<polygon fill="#191970" stroke="#191970" points="322.5588,-6.5001 312.5587,-10 322.5587,-13.5001 322.5588,-6.5001"/>
</g>
<!-- Node0 -->
<g id="node14" class="node">
<title>Node0</title>
<g id="a_node14"><a xlink:href="classCDPL_1_1Vis_1_1Path2D.html" target="_top" xlink:title="Provides a container for painting operations, enabling arbitrary graphical shapes to be constructed a...">
<polygon fill="none" stroke="#000000" points="209,-57.5 209,-76.5 313,-76.5 313,-57.5 209,-57.5"/>
<text text-anchor="middle" x="261" y="-64.5" font-family="Helvetica,sans-Serif" font-size="10.00" fill="#000000">CDPL::Vis::Path2D</text>
</a>
</g>
</g>
<!-- Node0&#45;&gt;Node1 -->
<g id="edge16" class="edge">
<title>Node0&#45;&gt;Node1</title>
<path fill="none" stroke="#191970" d="M323.2869,-61.2966C342.6439,-59.5242 364.3059,-57.5407 384.8709,-55.6576"/>
<polygon fill="#191970" stroke="#191970" points="322.7323,-57.8327 313.0932,-62.23 323.3707,-64.8035 322.7323,-57.8327"/>
</g>
<!-- Node0&#45;&gt;Node2 -->
<g id="edge17" class="edge">
<title>Node0&#45;&gt;Node2</title>
<path fill="none" stroke="#191970" d="M323.1553,-72.6913C345.5721,-74.744 371.0937,-77.0809 394.4282,-79.2175"/>
<polygon fill="#191970" stroke="#191970" points="323.3707,-69.1965 313.0932,-71.77 322.7323,-76.1673 323.3707,-69.1965"/>
</g>
</g>
</svg>
