<?xml version="1.0" encoding="UTF-8" standalone="no"?>
<!DOCTYPE svg PUBLIC "-//W3C//DTD SVG 1.1//EN"
 "http://www.w3.org/Graphics/SVG/1.1/DTD/svg11.dtd">
<!-- Generated by graphviz version 2.40.1 (0)
 -->
<!-- Title: Graphical Class Hierarchy Pages: 1 -->
<svg width="805pt" height="39pt"
 viewBox="0.00 0.00 805.00 39.00" xmlns="http://www.w3.org/2000/svg" xmlns:xlink="http://www.w3.org/1999/xlink">
<g id="graph0" class="graph" transform="scale(1 1) rotate(0) translate(4 35)">
<title>Graphical Class Hierarchy</title>
<!-- Node0 -->
<g id="node1" class="node">
<title>Node0</title>
<g id="a_node1"><a xlink:href="classCDPL_1_1Math_1_1Expression.html" target="_top" xlink:title=" ">
<polygon fill="none" stroke="#000000" points="0,-.5 0,-30.5 143,-30.5 143,-.5 0,-.5"/>
<text text-anchor="start" x="8" y="-18.5" font-family="Helvetica,sans-Serif" font-size="10.00" fill="#000000">CDPL::Math::Expression</text>
<text text-anchor="middle" x="71.5" y="-7.5" font-family="Helvetica,sans-Serif" font-size="10.00" fill="#000000">&lt; RealQuaternion&lt; T &gt; &gt;</text>
</a>
</g>
</g>
<!-- Node1 -->
<g id="node2" class="node">
<title>Node1</title>
<g id="a_node2"><a xlink:href="classCDPL_1_1Math_1_1QuaternionExpression.html" target="_top" xlink:title=" ">
<polygon fill="none" stroke="#000000" points="179,-.5 179,-30.5 364,-30.5 364,-.5 179,-.5"/>
<text text-anchor="start" x="187" y="-18.5" font-family="Helvetica,sans-Serif" font-size="10.00" fill="#000000">CDPL::Math::QuaternionExpression</text>
<text text-anchor="middle" x="271.5" y="-7.5" font-family="Helvetica,sans-Serif" font-size="10.00" fill="#000000">&lt; RealQuaternion&lt; T &gt; &gt;</text>
</a>
</g>
</g>
<!-- Node0&#45;&gt;Node1 -->
<g id="edge1" class="edge">
<title>Node0&#45;&gt;Node1</title>
<path fill="none" stroke="#191970" d="M153.2724,-15.5C161.6651,-15.5 170.2351,-15.5 178.7351,-15.5"/>
<polygon fill="#191970" stroke="#191970" points="153.1397,-12.0001 143.1397,-15.5 153.1396,-19.0001 153.1397,-12.0001"/>
</g>
<!-- Node2 -->
<g id="node3" class="node">
<title>Node2</title>
<g id="a_node3"><a xlink:href="classCDPL_1_1Math_1_1QuaternionContainer.html" target="_top" xlink:title=" ">
<polygon fill="none" stroke="#000000" points="400,-.5 400,-30.5 579,-30.5 579,-.5 400,-.5"/>
<text text-anchor="start" x="408" y="-18.5" font-family="Helvetica,sans-Serif" font-size="10.00" fill="#000000">CDPL::Math::QuaternionContainer</text>
<text text-anchor="middle" x="489.5" y="-7.5" font-family="Helvetica,sans-Serif" font-size="10.00" fill="#000000">&lt; RealQuaternion&lt; T &gt; &gt;</text>
</a>
</g>
</g>
<!-- Node1&#45;&gt;Node2 -->
<g id="edge2" class="edge">
<title>Node1&#45;&gt;Node2</title>
<path fill="none" stroke="#191970" d="M374.2903,-15.5C382.859,-15.5 391.4791,-15.5 399.9377,-15.5"/>
<polygon fill="#191970" stroke="#191970" points="374.2678,-12.0001 364.2677,-15.5 374.2677,-19.0001 374.2678,-12.0001"/>
</g>
<!-- Node3 -->
<g id="node4" class="node">
<title>Node3</title>
<g id="a_node4"><a xlink:href="classCDPL_1_1Math_1_1RealQuaternion.html" target="_top" xlink:title=" ">
<polygon fill="none" stroke="#000000" points="615,-6 615,-25 797,-25 797,-6 615,-6"/>
<text text-anchor="middle" x="706" y="-13" font-family="Helvetica,sans-Serif" font-size="10.00" fill="#000000">CDPL::Math::RealQuaternion&lt; T &gt;</text>
</a>
</g>
</g>
<!-- Node2&#45;&gt;Node3 -->
<g id="edge3" class="edge">
<title>Node2&#45;&gt;Node3</title>
<path fill="none" stroke="#191970" d="M589.3722,-15.5C597.815,-15.5 606.3262,-15.5 614.6987,-15.5"/>
<polygon fill="#191970" stroke="#191970" points="589.1217,-12.0001 579.1216,-15.5 589.1216,-19.0001 589.1217,-12.0001"/>
</g>
</g>
</svg>
