<?xml version="1.0" encoding="UTF-8" standalone="no"?>
<!DOCTYPE svg PUBLIC "-//W3C//DTD SVG 1.1//EN"
 "http://www.w3.org/Graphics/SVG/1.1/DTD/svg11.dtd">
<!-- Generated by graphviz version 2.40.1 (0)
 -->
<!-- Title: CDPL::Math::GridScalarUnaryFunctor&lt; M &gt; Pages: 1 -->
<svg width="199pt" height="174pt"
 viewBox="0.00 0.00 199.00 174.00" xmlns="http://www.w3.org/2000/svg" xmlns:xlink="http://www.w3.org/1999/xlink">
<g id="graph0" class="graph" transform="scale(1 1) rotate(0) translate(4 170)">
<title>CDPL::Math::GridScalarUnaryFunctor&lt; M &gt;</title>
<!-- Node1 -->
<g id="node1" class="node">
<title>Node1</title>
<g id="a_node1"><a xlink:title=" ">
<polygon fill="#bfbfbf" stroke="#000000" points="16.5,-135.5 16.5,-165.5 174.5,-165.5 174.5,-135.5 16.5,-135.5"/>
<text text-anchor="start" x="24.5" y="-153.5" font-family="Helvetica,sans-Serif" font-size="10.00" fill="#000000">CDPL::Math::GridScalarUnary</text>
<text text-anchor="middle" x="95.5" y="-142.5" font-family="Helvetica,sans-Serif" font-size="10.00" fill="#000000">Functor&lt; M &gt;</text>
</a>
</g>
</g>
<!-- Node2 -->
<g id="node2" class="node">
<title>Node2</title>
<g id="a_node2"><a xlink:href="structCDPL_1_1Math_1_1GridScalarUnaryFunctor.html" target="_top" xlink:title=" ">
<polygon fill="none" stroke="#000000" points="16.5,-57.5 16.5,-87.5 174.5,-87.5 174.5,-57.5 16.5,-57.5"/>
<text text-anchor="start" x="24.5" y="-75.5" font-family="Helvetica,sans-Serif" font-size="10.00" fill="#000000">CDPL::Math::GridScalarUnary</text>
<text text-anchor="middle" x="95.5" y="-64.5" font-family="Helvetica,sans-Serif" font-size="10.00" fill="#000000">Functor&lt; G &gt;</text>
</a>
</g>
</g>
<!-- Node1&#45;&gt;Node2 -->
<g id="edge1" class="edge">
<title>Node1&#45;&gt;Node2</title>
<path fill="none" stroke="#ffa500" stroke-dasharray="5,2" d="M95.5,-125.2875C95.5,-112.9187 95.5,-98.4264 95.5,-87.7592"/>
<polygon fill="#ffa500" stroke="#ffa500" points="92.0001,-125.4608 95.5,-135.4608 99.0001,-125.4608 92.0001,-125.4608"/>
<text text-anchor="middle" x="112.5" y="-109" font-family="Helvetica,sans-Serif" font-size="10.00" fill="#000000"> &lt; G &gt;</text>
</g>
<!-- Node3 -->
<g id="node3" class="node">
<title>Node3</title>
<g id="a_node3"><a xlink:href="structCDPL_1_1Math_1_1GridElementSum.html" target="_top" xlink:title=" ">
<polygon fill="none" stroke="#000000" points="0,-.5 0,-19.5 191,-19.5 191,-.5 0,-.5"/>
<text text-anchor="middle" x="95.5" y="-7.5" font-family="Helvetica,sans-Serif" font-size="10.00" fill="#000000">CDPL::Math::GridElementSum&lt; G &gt;</text>
</a>
</g>
</g>
<!-- Node2&#45;&gt;Node3 -->
<g id="edge2" class="edge">
<title>Node2&#45;&gt;Node3</title>
<path fill="none" stroke="#191970" d="M95.5,-47.3498C95.5,-37.6481 95.5,-27.1303 95.5,-19.7356"/>
<polygon fill="#191970" stroke="#191970" points="92.0001,-47.3705 95.5,-57.3705 99.0001,-47.3705 92.0001,-47.3705"/>
</g>
</g>
</svg>
