<?xml version="1.0" encoding="UTF-8" standalone="no"?>
<!DOCTYPE svg PUBLIC "-//W3C//DTD SVG 1.1//EN"
 "http://www.w3.org/Graphics/SVG/1.1/DTD/svg11.dtd">
<!-- Generated by graphviz version 2.40.1 (0)
 -->
<!-- Title: CDPL::Math::QuaternionTemporaryTraits&lt; Q &gt; Pages: 1 -->
<svg width="455pt" height="88pt"
 viewBox="0.00 0.00 455.00 88.00" xmlns="http://www.w3.org/2000/svg" xmlns:xlink="http://www.w3.org/1999/xlink">
<g id="graph0" class="graph" transform="scale(1 1) rotate(0) translate(4 84)">
<title>CDPL::Math::QuaternionTemporaryTraits&lt; Q &gt;</title>
<!-- Node1 -->
<g id="node1" class="node">
<title>Node1</title>
<g id="a_node1"><a xlink:title=" ">
<polygon fill="#bfbfbf" stroke="#000000" points="0,-24.5 0,-54.5 184,-54.5 184,-24.5 0,-24.5"/>
<text text-anchor="start" x="8" y="-42.5" font-family="Helvetica,sans-Serif" font-size="10.00" fill="#000000">CDPL::Math::QuaternionTemporary</text>
<text text-anchor="middle" x="92" y="-31.5" font-family="Helvetica,sans-Serif" font-size="10.00" fill="#000000">Traits&lt; Q &gt;</text>
</a>
</g>
</g>
<!-- Node2 -->
<g id="node2" class="node">
<title>Node2</title>
<g id="a_node2"><a xlink:href="structCDPL_1_1Math_1_1QuaternionTemporaryTraits_3_01const_01QuaternionReference_3_01Q_01_4_01_4.html" target="_top" xlink:title=" ">
<polygon fill="none" stroke="#000000" points="220,-49.5 220,-79.5 447,-79.5 447,-49.5 220,-49.5"/>
<text text-anchor="start" x="228" y="-67.5" font-family="Helvetica,sans-Serif" font-size="10.00" fill="#000000">CDPL::Math::QuaternionTemporary</text>
<text text-anchor="middle" x="333.5" y="-56.5" font-family="Helvetica,sans-Serif" font-size="10.00" fill="#000000">Traits&lt; const QuaternionReference&lt; Q &gt; &gt;</text>
</a>
</g>
</g>
<!-- Node1&#45;&gt;Node2 -->
<g id="edge1" class="edge">
<title>Node1&#45;&gt;Node2</title>
<path fill="none" stroke="#191970" d="M194.4622,-50.1069C202.8229,-50.9723 211.3033,-51.8502 219.7381,-52.7234"/>
<polygon fill="#191970" stroke="#191970" points="194.6418,-46.6068 184.3345,-49.0584 193.9209,-53.5696 194.6418,-46.6068"/>
</g>
<!-- Node3 -->
<g id="node3" class="node">
<title>Node3</title>
<g id="a_node3"><a xlink:href="structCDPL_1_1Math_1_1QuaternionTemporaryTraits_3_01QuaternionReference_3_01Q_01_4_01_4.html" target="_top" xlink:title=" ">
<polygon fill="none" stroke="#000000" points="234.5,-.5 234.5,-30.5 432.5,-30.5 432.5,-.5 234.5,-.5"/>
<text text-anchor="start" x="242.5" y="-18.5" font-family="Helvetica,sans-Serif" font-size="10.00" fill="#000000">CDPL::Math::QuaternionTemporary</text>
<text text-anchor="middle" x="333.5" y="-7.5" font-family="Helvetica,sans-Serif" font-size="10.00" fill="#000000">Traits&lt; QuaternionReference&lt; Q &gt; &gt;</text>
</a>
</g>
</g>
<!-- Node1&#45;&gt;Node3 -->
<g id="edge2" class="edge">
<title>Node1&#45;&gt;Node3</title>
<path fill="none" stroke="#191970" d="M194.3957,-29.324C207.6438,-28.0075 221.1937,-26.6609 234.3873,-25.3497"/>
<polygon fill="#191970" stroke="#191970" points="193.9393,-25.852 184.3345,-30.3239 194.6317,-32.8177 193.9393,-25.852"/>
</g>
</g>
</svg>
