<?xml version="1.0" encoding="UTF-8" standalone="no"?>
<!DOCTYPE svg PUBLIC "-//W3C//DTD SVG 1.1//EN"
 "http://www.w3.org/Graphics/SVG/1.1/DTD/svg11.dtd">
<!-- Generated by graphviz version 2.40.1 (0)
 -->
<!-- Title: CDPL::Math::TypeTraits&lt; SparseContainerElement&lt; C &gt; &gt; Pages: 1 -->
<svg width="222pt" height="207pt"
 viewBox="0.00 0.00 221.50 207.00" xmlns="http://www.w3.org/2000/svg" xmlns:xlink="http://www.w3.org/1999/xlink">
<g id="graph0" class="graph" transform="scale(1 1) rotate(0) translate(4 203)">
<title>CDPL::Math::TypeTraits&lt; SparseContainerElement&lt; C &gt; &gt;</title>
<!-- Node1 -->
<g id="node1" class="node">
<title>Node1</title>
<g id="a_node1"><a xlink:title=" ">
<polygon fill="#bfbfbf" stroke="#000000" points="3,-.5 3,-41.5 152,-41.5 152,-.5 3,-.5"/>
<text text-anchor="start" x="11" y="-29.5" font-family="Helvetica,sans-Serif" font-size="10.00" fill="#000000">CDPL::Math::TypeTraits</text>
<text text-anchor="start" x="11" y="-18.5" font-family="Helvetica,sans-Serif" font-size="10.00" fill="#000000">&lt; SparseContainerElement</text>
<text text-anchor="middle" x="77.5" y="-7.5" font-family="Helvetica,sans-Serif" font-size="10.00" fill="#000000">&lt; C &gt; &gt;</text>
</a>
</g>
</g>
<!-- Node2 -->
<g id="node2" class="node">
<title>Node2</title>
<g id="a_node2"><a xlink:href="structCDPL_1_1Math_1_1TypeTraits.html" target="_top" xlink:title=" ">
<polygon fill="none" stroke="#000000" points="3,-79.5 3,-120.5 152,-120.5 152,-79.5 3,-79.5"/>
<text text-anchor="start" x="11" y="-108.5" font-family="Helvetica,sans-Serif" font-size="10.00" fill="#000000">CDPL::Math::TypeTraits</text>
<text text-anchor="start" x="11" y="-97.5" font-family="Helvetica,sans-Serif" font-size="10.00" fill="#000000">&lt; SparseContainerElement</text>
<text text-anchor="middle" x="77.5" y="-86.5" font-family="Helvetica,sans-Serif" font-size="10.00" fill="#000000">&lt; C &gt;::ValueType &gt;</text>
</a>
</g>
</g>
<!-- Node2&#45;&gt;Node1 -->
<g id="edge1" class="edge">
<title>Node2&#45;&gt;Node1</title>
<path fill="none" stroke="#191970" d="M77.5,-69.2029C77.5,-59.9553 77.5,-50.038 77.5,-41.6177"/>
<polygon fill="#191970" stroke="#191970" points="74.0001,-69.2436 77.5,-79.2437 81.0001,-69.2437 74.0001,-69.2436"/>
</g>
<!-- Node3 -->
<g id="node3" class="node">
<title>Node3</title>
<g id="a_node3"><a xlink:href="structCDPL_1_1Math_1_1TypeTraits.html" target="_top" xlink:title=" ">
<polygon fill="none" stroke="#000000" points="0,-179.5 0,-198.5 155,-198.5 155,-179.5 0,-179.5"/>
<text text-anchor="middle" x="77.5" y="-186.5" font-family="Helvetica,sans-Serif" font-size="10.00" fill="#000000">CDPL::Math::TypeTraits&lt; T &gt;</text>
</a>
</g>
</g>
<!-- Node3&#45;&gt;Node2 -->
<g id="edge2" class="edge">
<title>Node3&#45;&gt;Node2</title>
<path fill="none" stroke="#ffa500" stroke-dasharray="5,2" d="M77.5,-169.1498C77.5,-154.6776 77.5,-135.124 77.5,-120.5022"/>
<polygon fill="#ffa500" stroke="#ffa500" points="74.0001,-169.4754 77.5,-179.4754 81.0001,-169.4755 74.0001,-169.4754"/>
<text text-anchor="start" x="77.5" y="-153" font-family="Helvetica,sans-Serif" font-size="10.00" fill="#000000"> &lt; SparseContainerElement</text>
<text text-anchor="middle" x="145.5" y="-142" font-family="Helvetica,sans-Serif" font-size="10.00" fill="#000000">&lt; C &gt;::ValueType &gt;</text>
</g>
</g>
</svg>
