<?xml version="1.0" encoding="UTF-8" standalone="no"?>
<!DOCTYPE svg PUBLIC "-//W3C//DTD SVG 1.1//EN"
 "http://www.w3.org/Graphics/SVG/1.1/DTD/svg11.dtd">
<!-- Generated by graphviz version 2.40.1 (0)
 -->
<!-- Title: CDPL.Biomol.HierarchyViewChain Pages: 1 -->
<svg width="435pt" height="375pt"
 viewBox="0.00 0.00 434.50 375.00" xmlns="http://www.w3.org/2000/svg" xmlns:xlink="http://www.w3.org/1999/xlink">
<g id="graph0" class="graph" transform="scale(1 1) rotate(0) translate(4 371)">
<title>CDPL.Biomol.HierarchyViewChain</title>
<!-- Node1 -->
<g id="node1" class="node">
<title>Node1</title>
<g id="a_node1"><a xlink:title="HierarchyViewChain.">
<polygon fill="#bfbfbf" stroke="#000000" points="166,-.5 166,-30.5 320,-30.5 320,-.5 166,-.5"/>
<text text-anchor="start" x="174" y="-18.5" font-family="Helvetica,sans-Serif" font-size="10.00" fill="#000000">CDPL.Biomol.HierarchyView</text>
<text text-anchor="middle" x="243" y="-7.5" font-family="Helvetica,sans-Serif" font-size="10.00" fill="#000000">Chain</text>
</a>
</g>
</g>
<!-- Node2 -->
<g id="node2" class="node">
<title>Node2</title>
<g id="a_node2"><a xlink:href="classCDPL_1_1Biomol_1_1HierarchyViewNode.html" target="_top" xlink:title="HierarchyViewNode.">
<polygon fill="none" stroke="#000000" points="153.5,-67.5 153.5,-86.5 332.5,-86.5 332.5,-67.5 153.5,-67.5"/>
<text text-anchor="middle" x="243" y="-74.5" font-family="Helvetica,sans-Serif" font-size="10.00" fill="#000000">CDPL.Biomol.HierarchyViewNode</text>
</a>
</g>
</g>
<!-- Node2&#45;&gt;Node1 -->
<g id="edge1" class="edge">
<title>Node2&#45;&gt;Node1</title>
<path fill="none" stroke="#191970" d="M243,-57.3693C243,-48.681 243,-38.6241 243,-30.5446"/>
<polygon fill="#191970" stroke="#191970" points="239.5001,-57.3906 243,-67.3906 246.5001,-57.3907 239.5001,-57.3906"/>
</g>
<!-- Node3 -->
<g id="node3" class="node">
<title>Node3</title>
<g id="a_node3"><a xlink:href="classCDPL_1_1Chem_1_1Fragment.html" target="_top" xlink:title="Fragment.">
<polygon fill="none" stroke="#000000" points="182,-123.5 182,-142.5 304,-142.5 304,-123.5 182,-123.5"/>
<text text-anchor="middle" x="243" y="-130.5" font-family="Helvetica,sans-Serif" font-size="10.00" fill="#000000">CDPL.Chem.Fragment</text>
</a>
</g>
</g>
<!-- Node3&#45;&gt;Node2 -->
<g id="edge2" class="edge">
<title>Node3&#45;&gt;Node2</title>
<path fill="none" stroke="#191970" d="M243,-113.1575C243,-104.155 243,-93.9199 243,-86.6427"/>
<polygon fill="#191970" stroke="#191970" points="239.5001,-113.2455 243,-123.2455 246.5001,-113.2456 239.5001,-113.2455"/>
</g>
<!-- Node4 -->
<g id="node4" class="node">
<title>Node4</title>
<g id="a_node4"><a xlink:href="classCDPL_1_1Chem_1_1MolecularGraph.html" target="_top" xlink:title="MolecularGraph.">
<polygon fill="none" stroke="#000000" points="166.5,-179.5 166.5,-198.5 319.5,-198.5 319.5,-179.5 166.5,-179.5"/>
<text text-anchor="middle" x="243" y="-186.5" font-family="Helvetica,sans-Serif" font-size="10.00" fill="#000000">CDPL.Chem.MolecularGraph</text>
</a>
</g>
</g>
<!-- Node4&#45;&gt;Node3 -->
<g id="edge3" class="edge">
<title>Node4&#45;&gt;Node3</title>
<path fill="none" stroke="#191970" d="M243,-169.1575C243,-160.155 243,-149.9199 243,-142.6427"/>
<polygon fill="#191970" stroke="#191970" points="239.5001,-169.2455 243,-179.2455 246.5001,-169.2456 239.5001,-169.2455"/>
</g>
<!-- Node5 -->
<g id="node5" class="node">
<title>Node5</title>
<g id="a_node5"><a xlink:href="classCDPL_1_1Chem_1_1AtomContainer.html" target="_top" xlink:title="A common interface for data&#45;structures that support a random access to stored Chem....">
<polygon fill="none" stroke="#000000" points="0,-235.5 0,-254.5 150,-254.5 150,-235.5 0,-235.5"/>
<text text-anchor="middle" x="75" y="-242.5" font-family="Helvetica,sans-Serif" font-size="10.00" fill="#000000">CDPL.Chem.AtomContainer</text>
</a>
</g>
</g>
<!-- Node5&#45;&gt;Node4 -->
<g id="edge4" class="edge">
<title>Node5&#45;&gt;Node4</title>
<path fill="none" stroke="#191970" d="M113.4286,-232.1905C144.2073,-221.9309 186.6926,-207.7691 214.4966,-198.5011"/>
<polygon fill="#191970" stroke="#191970" points="112.2602,-228.8905 103.8802,-235.3733 114.4739,-235.5313 112.2602,-228.8905"/>
</g>
<!-- Node6 -->
<g id="node6" class="node">
<title>Node6</title>
<g id="a_node6"><a xlink:href="classCDPL_1_1Chem_1_1Entity3DContainer.html" target="_top" xlink:title="A common interface for data&#45;structures that support a random access to stored Chem....">
<polygon fill="none" stroke="#000000" points="18,-291.5 18,-310.5 184,-310.5 184,-291.5 18,-291.5"/>
<text text-anchor="middle" x="101" y="-298.5" font-family="Helvetica,sans-Serif" font-size="10.00" fill="#000000">CDPL.Chem.Entity3DContainer</text>
</a>
</g>
</g>
<!-- Node6&#45;&gt;Node5 -->
<g id="edge5" class="edge">
<title>Node6&#45;&gt;Node5</title>
<path fill="none" stroke="#191970" d="M92.1989,-282.0437C87.9225,-272.8331 82.967,-262.1598 79.477,-254.6427"/>
<polygon fill="#191970" stroke="#191970" points="89.0854,-283.6494 96.4711,-291.2455 95.4345,-280.7015 89.0854,-283.6494"/>
</g>
<!-- Node7 -->
<g id="node7" class="node">
<title>Node7</title>
<g id="a_node7"><a xlink:title=" ">
<polygon fill="none" stroke="#bfbfbf" points="208,-347.5 208,-366.5 266,-366.5 266,-347.5 208,-347.5"/>
<text text-anchor="middle" x="237" y="-354.5" font-family="Helvetica,sans-Serif" font-size="10.00" fill="#000000">instance</text>
</a>
</g>
</g>
<!-- Node7&#45;&gt;Node6 -->
<g id="edge6" class="edge">
<title>Node7&#45;&gt;Node6</title>
<path fill="none" stroke="#191970" d="M204.2601,-343.5189C179.4917,-333.3201 146.095,-319.5685 124.0742,-310.5011"/>
<polygon fill="#191970" stroke="#191970" points="203.0413,-346.8021 213.6208,-347.3733 205.7066,-340.3293 203.0413,-346.8021"/>
</g>
<!-- Node8 -->
<g id="node8" class="node">
<title>Node8</title>
<g id="a_node8"><a xlink:href="classCDPL_1_1Chem_1_1BondContainer.html" target="_top" xlink:title="A common interface for data&#45;structures that support a random access to stored Chem....">
<polygon fill="none" stroke="#000000" points="168.5,-235.5 168.5,-254.5 317.5,-254.5 317.5,-235.5 168.5,-235.5"/>
<text text-anchor="middle" x="243" y="-242.5" font-family="Helvetica,sans-Serif" font-size="10.00" fill="#000000">CDPL.Chem.BondContainer</text>
</a>
</g>
</g>
<!-- Node7&#45;&gt;Node8 -->
<g id="edge8" class="edge">
<title>Node7&#45;&gt;Node8</title>
<path fill="none" stroke="#191970" d="M238.057,-337.2702C239.3572,-312.9985 241.5122,-272.7725 242.4897,-254.5249"/>
<polygon fill="#191970" stroke="#191970" points="234.5516,-337.278 237.5116,-347.4509 241.5416,-337.6525 234.5516,-337.278"/>
</g>
<!-- Node9 -->
<g id="node9" class="node">
<title>Node9</title>
<g id="a_node9"><a xlink:href="classCDPL_1_1Base_1_1PropertyContainer.html" target="_top" xlink:title="A class providing methods for the storage and lookup of object properties.">
<polygon fill="none" stroke="#000000" points="265.5,-291.5 265.5,-310.5 426.5,-310.5 426.5,-291.5 265.5,-291.5"/>
<text text-anchor="middle" x="346" y="-298.5" font-family="Helvetica,sans-Serif" font-size="10.00" fill="#000000">CDPL.Base.PropertyContainer</text>
</a>
</g>
</g>
<!-- Node7&#45;&gt;Node9 -->
<g id="edge10" class="edge">
<title>Node7&#45;&gt;Node9</title>
<path fill="none" stroke="#191970" d="M265.0342,-342.5971C284.5746,-332.558 310.1092,-319.4393 327.2312,-310.6427"/>
<polygon fill="#191970" stroke="#191970" points="263.2817,-339.5625 255.9864,-347.2455 266.4806,-345.7889 263.2817,-339.5625"/>
</g>
<!-- Node8&#45;&gt;Node4 -->
<g id="edge7" class="edge">
<title>Node8&#45;&gt;Node4</title>
<path fill="none" stroke="#191970" d="M243,-225.1575C243,-216.155 243,-205.9199 243,-198.6427"/>
<polygon fill="#191970" stroke="#191970" points="239.5001,-225.2455 243,-235.2455 246.5001,-225.2456 239.5001,-225.2455"/>
</g>
<!-- Node9&#45;&gt;Node4 -->
<g id="edge9" class="edge">
<title>Node9&#45;&gt;Node4</title>
<path fill="none" stroke="#191970" d="M343.9913,-281.2698C341.6708,-267.094 336.6859,-248.2284 326,-235 312.0241,-217.6988 289.7068,-205.8527 271.7323,-198.5197"/>
<polygon fill="#191970" stroke="#191970" points="340.5551,-281.9826 345.3392,-291.4358 347.4944,-281.0624 340.5551,-281.9826"/>
</g>
</g>
</svg>
