<?xml version="1.0" encoding="UTF-8" standalone="no"?>
<!DOCTYPE svg PUBLIC "-//W3C//DTD SVG 1.1//EN"
 "http://www.w3.org/Graphics/SVG/1.1/DTD/svg11.dtd">
<!-- Generated by graphviz version 2.40.1 (0)
 -->
<!-- Title: CDPL.Vis.PolylinePrimitive2D Pages: 1 -->
<svg width="318pt" height="196pt"
 viewBox="0.00 0.00 318.00 196.00" xmlns="http://www.w3.org/2000/svg" xmlns:xlink="http://www.w3.org/1999/xlink">
<g id="graph0" class="graph" transform="scale(1 1) rotate(0) translate(4 192)">
<title>CDPL.Vis.PolylinePrimitive2D</title>
<!-- Node1 -->
<g id="node1" class="node">
<title>Node1</title>
<g id="a_node1"><a xlink:title="A graphics primitive representing a set of connected line segments.">
<polygon fill="#bfbfbf" stroke="#000000" points="66,-.5 66,-19.5 226,-19.5 226,-.5 66,-.5"/>
<text text-anchor="middle" x="146" y="-7.5" font-family="Helvetica,sans-Serif" font-size="10.00" fill="#000000">CDPL.Vis.PolylinePrimitive2D</text>
</a>
</g>
</g>
<!-- Node2 -->
<g id="node2" class="node">
<title>Node2</title>
<g id="a_node2"><a xlink:href="classCDPL_1_1Vis_1_1PointArray2D.html" target="_top" xlink:title="Stores a set of points in 2D space.">
<polygon fill="none" stroke="#000000" points="0,-56.5 0,-75.5 128,-75.5 128,-56.5 0,-56.5"/>
<text text-anchor="middle" x="64" y="-63.5" font-family="Helvetica,sans-Serif" font-size="10.00" fill="#000000">CDPL.Vis.PointArray2D</text>
</a>
</g>
</g>
<!-- Node2&#45;&gt;Node1 -->
<g id="edge1" class="edge">
<title>Node2&#45;&gt;Node1</title>
<path fill="none" stroke="#191970" d="M86.711,-50.49C101.1788,-40.6096 119.468,-28.1194 131.8804,-19.6427"/>
<polygon fill="#191970" stroke="#191970" points="84.5675,-47.7156 78.2833,-56.2455 88.5152,-53.4962 84.5675,-47.7156"/>
</g>
<!-- Node3 -->
<g id="node3" class="node">
<title>Node3</title>
<g id="a_node3"><a xlink:href="classCDPL_1_1Math_1_1Vector2DArray.html" target="_top" xlink:title="An array of Math.Vector2D objects.">
<polygon fill="none" stroke="#000000" points="24.5,-112.5 24.5,-131.5 167.5,-131.5 167.5,-112.5 24.5,-112.5"/>
<text text-anchor="middle" x="96" y="-119.5" font-family="Helvetica,sans-Serif" font-size="10.00" fill="#000000">CDPL.Math.Vector2DArray</text>
</a>
</g>
</g>
<!-- Node3&#45;&gt;Node2 -->
<g id="edge2" class="edge">
<title>Node3&#45;&gt;Node2</title>
<path fill="none" stroke="#191970" d="M85.3355,-103.3372C80.0346,-94.0605 73.8513,-83.2398 69.5101,-75.6427"/>
<polygon fill="#191970" stroke="#191970" points="82.4257,-105.2996 90.426,-112.2455 88.5034,-101.8266 82.4257,-105.2996"/>
</g>
<!-- Node4 -->
<g id="node4" class="node">
<title>Node4</title>
<g id="a_node4"><a xlink:title=" ">
<polygon fill="none" stroke="#bfbfbf" points="117,-168.5 117,-187.5 175,-187.5 175,-168.5 117,-168.5"/>
<text text-anchor="middle" x="146" y="-175.5" font-family="Helvetica,sans-Serif" font-size="10.00" fill="#000000">instance</text>
</a>
</g>
</g>
<!-- Node4&#45;&gt;Node3 -->
<g id="edge3" class="edge">
<title>Node4&#45;&gt;Node3</title>
<path fill="none" stroke="#191970" d="M130.3753,-160.5004C121.8727,-150.9775 111.6782,-139.5596 104.6095,-131.6427"/>
<polygon fill="#191970" stroke="#191970" points="128.0197,-163.1172 137.2907,-168.2455 133.2413,-158.4551 128.0197,-163.1172"/>
</g>
<!-- Node5 -->
<g id="node5" class="node">
<title>Node5</title>
<g id="a_node5"><a xlink:href="classCDPL_1_1Vis_1_1GraphicsPrimitive2D.html" target="_top" xlink:title="The abstract base class of all 2D graphics primitives.">
<polygon fill="none" stroke="#000000" points="146,-56.5 146,-75.5 310,-75.5 310,-56.5 146,-56.5"/>
<text text-anchor="middle" x="228" y="-63.5" font-family="Helvetica,sans-Serif" font-size="10.00" fill="#000000">CDPL.Vis.GraphicsPrimitive2D</text>
</a>
</g>
</g>
<!-- Node4&#45;&gt;Node5 -->
<g id="edge5" class="edge">
<title>Node4&#45;&gt;Node5</title>
<path fill="none" stroke="#191970" d="M159.024,-160.2111C176.6044,-136.1989 207.3039,-94.2679 221.0264,-75.5249"/>
<polygon fill="#191970" stroke="#191970" points="156.0747,-158.3147 152.9913,-168.4509 161.7227,-162.4499 156.0747,-158.3147"/>
</g>
<!-- Node5&#45;&gt;Node1 -->
<g id="edge4" class="edge">
<title>Node5&#45;&gt;Node1</title>
<path fill="none" stroke="#191970" d="M205.289,-50.49C190.8212,-40.6096 172.532,-28.1194 160.1196,-19.6427"/>
<polygon fill="#191970" stroke="#191970" points="203.4848,-53.4962 213.7167,-56.2455 207.4325,-47.7156 203.4848,-53.4962"/>
</g>
</g>
</svg>
