<?xml version="1.0" encoding="UTF-8" standalone="no"?>
<!DOCTYPE svg PUBLIC "-//W3C//DTD SVG 1.1//EN"
 "http://www.w3.org/Graphics/SVG/1.1/DTD/svg11.dtd">
<!-- Generated by graphviz version 2.40.1 (0)
 -->
<!-- Title: CDPL.Math.DQuaternionExpression Pages: 1 -->
<svg width="195pt" height="151pt"
 viewBox="0.00 0.00 195.00 151.00" xmlns="http://www.w3.org/2000/svg" xmlns:xlink="http://www.w3.org/1999/xlink">
<g id="graph0" class="graph" transform="scale(1 1) rotate(0) translate(4 147)">
<title>CDPL.Math.DQuaternionExpression</title>
<!-- Node1 -->
<g id="node1" class="node">
<title>Node1</title>
<g id="a_node1"><a xlink:title=" ">
<polygon fill="#bfbfbf" stroke="#000000" points="0,-.5 0,-19.5 187,-19.5 187,-.5 0,-.5"/>
<text text-anchor="middle" x="93.5" y="-7.5" font-family="Helvetica,sans-Serif" font-size="10.00" fill="#000000">CDPL.Math.DQuaternionExpression</text>
</a>
</g>
</g>
<!-- Node2 -->
<g id="node2" class="node">
<title>Node2</title>
<g id="a_node2"><a xlink:href="classCDPL_1_1Math_1_1ConstDQuaternionExpression.html" target="_top" xlink:title=" ">
<polygon fill="none" stroke="#000000" points="13,-56.5 13,-86.5 174,-86.5 174,-56.5 13,-56.5"/>
<text text-anchor="start" x="21" y="-74.5" font-family="Helvetica,sans-Serif" font-size="10.00" fill="#000000">CDPL.Math.ConstDQuaternion</text>
<text text-anchor="middle" x="93.5" y="-63.5" font-family="Helvetica,sans-Serif" font-size="10.00" fill="#000000">Expression</text>
</a>
</g>
</g>
<!-- Node2&#45;&gt;Node1 -->
<g id="edge1" class="edge">
<title>Node2&#45;&gt;Node1</title>
<path fill="none" stroke="#191970" d="M93.5,-46.2849C93.5,-36.9858 93.5,-26.9883 93.5,-19.8469"/>
<polygon fill="#191970" stroke="#191970" points="90.0001,-46.2977 93.5,-56.2977 97.0001,-46.2978 90.0001,-46.2977"/>
</g>
<!-- Node3 -->
<g id="node3" class="node">
<title>Node3</title>
<g id="a_node3"><a xlink:title=" ">
<polygon fill="none" stroke="#bfbfbf" points="64.5,-123.5 64.5,-142.5 122.5,-142.5 122.5,-123.5 64.5,-123.5"/>
<text text-anchor="middle" x="93.5" y="-130.5" font-family="Helvetica,sans-Serif" font-size="10.00" fill="#000000">instance</text>
</a>
</g>
</g>
<!-- Node3&#45;&gt;Node2 -->
<g id="edge2" class="edge">
<title>Node3&#45;&gt;Node2</title>
<path fill="none" stroke="#191970" d="M93.5,-113.3693C93.5,-104.681 93.5,-94.6241 93.5,-86.5446"/>
<polygon fill="#191970" stroke="#191970" points="90.0001,-113.3906 93.5,-123.3906 97.0001,-113.3907 90.0001,-113.3906"/>
</g>
</g>
</svg>
