<?xml version="1.0" encoding="UTF-8" standalone="no"?>
<!DOCTYPE svg PUBLIC "-//W3C//DTD SVG 1.1//EN"
 "http://www.w3.org/Graphics/SVG/1.1/DTD/svg11.dtd">
<!-- Generated by graphviz version 2.40.1 (0)
 -->
<!-- Title: CDPL.Grid.DRegularGridWriterBase Pages: 1 -->
<svg width="852pt" height="323pt"
 viewBox="0.00 0.00 852.00 323.00" xmlns="http://www.w3.org/2000/svg" xmlns:xlink="http://www.w3.org/1999/xlink">
<g id="graph0" class="graph" transform="scale(1 1) rotate(0) translate(4 319)">
<title>CDPL.Grid.DRegularGridWriterBase</title>
<!-- Node1 -->
<g id="node1" class="node">
<title>Node1</title>
<g id="a_node1"><a xlink:title="An interface for writing data objects of type Grid.DRegularGrid to an arbitrary data sink.">
<polygon fill="#bfbfbf" stroke="#000000" points="454,-148 454,-167 640,-167 640,-148 454,-148"/>
<text text-anchor="middle" x="547" y="-155" font-family="Helvetica,sans-Serif" font-size="10.00" fill="#000000">CDPL.Grid.DRegularGridWriterBase</text>
</a>
</g>
</g>
<!-- Node5 -->
<g id="node5" class="node">
<title>Node5</title>
<g id="a_node5"><a xlink:href="classCDPL_1_1Grid_1_1CDFBZ2DRegularGridWriter.html" target="_top" xlink:title=" ">
<polygon fill="none" stroke="#000000" points="684,-284.5 684,-314.5 836,-314.5 836,-284.5 684,-284.5"/>
<text text-anchor="start" x="692" y="-302.5" font-family="Helvetica,sans-Serif" font-size="10.00" fill="#000000">CDPL.Grid.CDFBZ2DRegular</text>
<text text-anchor="middle" x="760" y="-291.5" font-family="Helvetica,sans-Serif" font-size="10.00" fill="#000000">GridWriter</text>
</a>
</g>
</g>
<!-- Node1&#45;&gt;Node5 -->
<g id="edge4" class="edge">
<title>Node1&#45;&gt;Node5</title>
<path fill="none" stroke="#191970" d="M561.2039,-174.8426C583.175,-200.5531 627.9145,-248.6284 676,-275.5 682.0903,-278.9034 688.7041,-281.8587 695.4565,-284.4169"/>
<polygon fill="#191970" stroke="#191970" points="563.7653,-172.4502 554.6537,-167.0437 558.405,-176.9522 563.7653,-172.4502"/>
</g>
<!-- Node6 -->
<g id="node6" class="node">
<title>Node6</title>
<g id="a_node6"><a xlink:href="classCDPL_1_1Grid_1_1CDFDRegularGridWriter.html" target="_top" xlink:title="A writer for spatial regular grid data in the native I/O format of the CDPL.">
<polygon fill="none" stroke="#000000" points="684,-235.5 684,-265.5 836,-265.5 836,-235.5 684,-235.5"/>
<text text-anchor="start" x="692" y="-253.5" font-family="Helvetica,sans-Serif" font-size="10.00" fill="#000000">CDPL.Grid.CDFDRegularGrid</text>
<text text-anchor="middle" x="760" y="-242.5" font-family="Helvetica,sans-Serif" font-size="10.00" fill="#000000">Writer</text>
</a>
</g>
</g>
<!-- Node1&#45;&gt;Node6 -->
<g id="edge5" class="edge">
<title>Node1&#45;&gt;Node6</title>
<path fill="none" stroke="#191970" d="M570.9353,-172.3047C596.2864,-187.5012 637.8404,-211.0488 676,-226.5 684.0132,-229.7446 692.6223,-232.7342 701.1648,-235.4214"/>
<polygon fill="#191970" stroke="#191970" points="572.7316,-169.3008 562.3649,-167.1144 569.1055,-175.2884 572.7316,-169.3008"/>
</g>
<!-- Node7 -->
<g id="node7" class="node">
<title>Node7</title>
<g id="a_node7"><a xlink:href="classCDPL_1_1Grid_1_1CDFGZDRegularGridWriter.html" target="_top" xlink:title=" ">
<polygon fill="none" stroke="#000000" points="676.5,-186.5 676.5,-216.5 843.5,-216.5 843.5,-186.5 676.5,-186.5"/>
<text text-anchor="start" x="684.5" y="-204.5" font-family="Helvetica,sans-Serif" font-size="10.00" fill="#000000">CDPL.Grid.CDFGZDRegularGrid</text>
<text text-anchor="middle" x="760" y="-193.5" font-family="Helvetica,sans-Serif" font-size="10.00" fill="#000000">Writer</text>
</a>
</g>
</g>
<!-- Node1&#45;&gt;Node7 -->
<g id="edge6" class="edge">
<title>Node1&#45;&gt;Node7</title>
<path fill="none" stroke="#191970" d="M603.1607,-169.1013C628.8515,-174.4083 659.6181,-180.7638 687.0699,-186.4346"/>
<polygon fill="#191970" stroke="#191970" points="603.7191,-165.6428 593.2178,-167.0473 602.303,-172.4981 603.7191,-165.6428"/>
</g>
<!-- Node8 -->
<g id="node8" class="node">
<title>Node8</title>
<g id="a_node8"><a xlink:href="classCDPL_1_1Grid_1_1DRegularGridWriter.html" target="_top" xlink:title="Writer for grid data of type Grid.DRegularGrid in any supported format.">
<polygon fill="none" stroke="#000000" points="679,-148 679,-167 841,-167 841,-148 679,-148"/>
<text text-anchor="middle" x="760" y="-155" font-family="Helvetica,sans-Serif" font-size="10.00" fill="#000000">CDPL.Grid.DRegularGridWriter</text>
</a>
</g>
</g>
<!-- Node1&#45;&gt;Node8 -->
<g id="edge7" class="edge">
<title>Node1&#45;&gt;Node8</title>
<path fill="none" stroke="#191970" d="M650.4153,-157.5C659.9329,-157.5 669.4833,-157.5 678.7623,-157.5"/>
<polygon fill="#191970" stroke="#191970" points="650.1151,-154.0001 640.115,-157.5 650.115,-161.0001 650.1151,-154.0001"/>
</g>
<!-- Node9 -->
<g id="node9" class="node">
<title>Node9</title>
<g id="a_node9"><a xlink:href="classCDPL_1_1Grid_1_1FileCDFBZ2DRegularGridWriter.html" target="_top" xlink:title=" ">
<polygon fill="none" stroke="#000000" points="676,-98.5 676,-128.5 844,-128.5 844,-98.5 676,-98.5"/>
<text text-anchor="start" x="684" y="-116.5" font-family="Helvetica,sans-Serif" font-size="10.00" fill="#000000">CDPL.Grid.FileCDFBZ2DRegular</text>
<text text-anchor="middle" x="760" y="-105.5" font-family="Helvetica,sans-Serif" font-size="10.00" fill="#000000">GridWriter</text>
</a>
</g>
</g>
<!-- Node1&#45;&gt;Node9 -->
<g id="edge8" class="edge">
<title>Node1&#45;&gt;Node9</title>
<path fill="none" stroke="#191970" d="M603.1607,-145.8987C628.8515,-140.5917 659.6181,-134.2362 687.0699,-128.5654"/>
<polygon fill="#191970" stroke="#191970" points="602.303,-142.5019 593.2178,-147.9527 603.7191,-149.3572 602.303,-142.5019"/>
</g>
<!-- Node10 -->
<g id="node10" class="node">
<title>Node10</title>
<g id="a_node10"><a xlink:href="classCDPL_1_1Grid_1_1FileCDFDRegularGridWriter.html" target="_top" xlink:title=" ">
<polygon fill="none" stroke="#000000" points="685.5,-49.5 685.5,-79.5 834.5,-79.5 834.5,-49.5 685.5,-49.5"/>
<text text-anchor="start" x="693.5" y="-67.5" font-family="Helvetica,sans-Serif" font-size="10.00" fill="#000000">CDPL.Grid.FileCDFDRegular</text>
<text text-anchor="middle" x="760" y="-56.5" font-family="Helvetica,sans-Serif" font-size="10.00" fill="#000000">GridWriter</text>
</a>
</g>
</g>
<!-- Node1&#45;&gt;Node10 -->
<g id="edge9" class="edge">
<title>Node1&#45;&gt;Node10</title>
<path fill="none" stroke="#191970" d="M570.9353,-142.6953C596.2864,-127.4988 637.8404,-103.9512 676,-88.5 684.0132,-85.2554 692.6223,-82.2658 701.1648,-79.5786"/>
<polygon fill="#191970" stroke="#191970" points="569.1055,-139.7116 562.3649,-147.8856 572.7316,-145.6992 569.1055,-139.7116"/>
</g>
<!-- Node11 -->
<g id="node11" class="node">
<title>Node11</title>
<g id="a_node11"><a xlink:href="classCDPL_1_1Grid_1_1FileCDFGZDRegularGridWriter.html" target="_top" xlink:title=" ">
<polygon fill="none" stroke="#000000" points="678.5,-.5 678.5,-30.5 841.5,-30.5 841.5,-.5 678.5,-.5"/>
<text text-anchor="start" x="686.5" y="-18.5" font-family="Helvetica,sans-Serif" font-size="10.00" fill="#000000">CDPL.Grid.FileCDFGZDRegular</text>
<text text-anchor="middle" x="760" y="-7.5" font-family="Helvetica,sans-Serif" font-size="10.00" fill="#000000">GridWriter</text>
</a>
</g>
</g>
<!-- Node1&#45;&gt;Node11 -->
<g id="edge10" class="edge">
<title>Node1&#45;&gt;Node11</title>
<path fill="none" stroke="#191970" d="M561.2039,-140.1574C583.175,-114.4469 627.9145,-66.3716 676,-39.5 682.0903,-36.0966 688.7041,-33.1413 695.4565,-30.5831"/>
<polygon fill="#191970" stroke="#191970" points="558.405,-138.0478 554.6537,-147.9563 563.7653,-142.5498 558.405,-138.0478"/>
</g>
<!-- Node2 -->
<g id="node2" class="node">
<title>Node2</title>
<g id="a_node2"><a xlink:href="classCDPL_1_1Base_1_1DataIOBase.html" target="_top" xlink:title="Provides infrastructure for the registration of I/O callback functions.">
<polygon fill="none" stroke="#000000" points="288,-148 288,-167 418,-167 418,-148 288,-148"/>
<text text-anchor="middle" x="353" y="-155" font-family="Helvetica,sans-Serif" font-size="10.00" fill="#000000">CDPL.Base.DataIOBase</text>
</a>
</g>
</g>
<!-- Node2&#45;&gt;Node1 -->
<g id="edge1" class="edge">
<title>Node2&#45;&gt;Node1</title>
<path fill="none" stroke="#191970" d="M428.2154,-157.5C436.5838,-157.5 445.1803,-157.5 453.7379,-157.5"/>
<polygon fill="#191970" stroke="#191970" points="428.1389,-154.0001 418.1389,-157.5 428.1388,-161.0001 428.1389,-154.0001"/>
</g>
<!-- Node3 -->
<g id="node3" class="node">
<title>Node3</title>
<g id="a_node3"><a xlink:href="classCDPL_1_1Base_1_1ControlParameterContainer.html" target="_top" xlink:title="A class providing methods for the storage and lookup of control&#45;parameter values.">
<polygon fill="none" stroke="#000000" points="94,-142.5 94,-172.5 252,-172.5 252,-142.5 94,-142.5"/>
<text text-anchor="start" x="102" y="-160.5" font-family="Helvetica,sans-Serif" font-size="10.00" fill="#000000">CDPL.Base.ControlParameter</text>
<text text-anchor="middle" x="173" y="-149.5" font-family="Helvetica,sans-Serif" font-size="10.00" fill="#000000">Container</text>
</a>
</g>
</g>
<!-- Node3&#45;&gt;Node2 -->
<g id="edge2" class="edge">
<title>Node3&#45;&gt;Node2</title>
<path fill="none" stroke="#191970" d="M262.2816,-157.5C270.8783,-157.5 279.4838,-157.5 287.7842,-157.5"/>
<polygon fill="#191970" stroke="#191970" points="262.2126,-154.0001 252.2126,-157.5 262.2125,-161.0001 262.2126,-154.0001"/>
</g>
<!-- Node4 -->
<g id="node4" class="node">
<title>Node4</title>
<g id="a_node4"><a xlink:title=" ">
<polygon fill="none" stroke="#bfbfbf" points="0,-148 0,-167 58,-167 58,-148 0,-148"/>
<text text-anchor="middle" x="29" y="-155" font-family="Helvetica,sans-Serif" font-size="10.00" fill="#000000">instance</text>
</a>
</g>
</g>
<!-- Node4&#45;&gt;Node3 -->
<g id="edge3" class="edge">
<title>Node4&#45;&gt;Node3</title>
<path fill="none" stroke="#191970" d="M68.2446,-157.5C76.2675,-157.5 84.9801,-157.5 93.8387,-157.5"/>
<polygon fill="#191970" stroke="#191970" points="68.1406,-154.0001 58.1405,-157.5 68.1405,-161.0001 68.1406,-154.0001"/>
</g>
</g>
</svg>
