<?xml version="1.0" encoding="UTF-8" standalone="no"?>
<!DOCTYPE svg PUBLIC "-//W3C//DTD SVG 1.1//EN"
 "http://www.w3.org/Graphics/SVG/1.1/DTD/svg11.dtd">
<!-- Generated by graphviz version 2.40.1 (0)
 -->
<!-- Title: CDPL.Grid.FileCDFDRegularGridReader Pages: 1 -->
<svg width="199pt" height="274pt"
 viewBox="0.00 0.00 199.00 274.00" xmlns="http://www.w3.org/2000/svg" xmlns:xlink="http://www.w3.org/1999/xlink">
<g id="graph0" class="graph" transform="scale(1 1) rotate(0) translate(4 270)">
<title>CDPL.Grid.FileCDFDRegularGridReader</title>
<!-- Node1 -->
<g id="node1" class="node">
<title>Node1</title>
<g id="a_node1"><a xlink:title=" ">
<polygon fill="#bfbfbf" stroke="#000000" points="21,-.5 21,-30.5 170,-30.5 170,-.5 21,-.5"/>
<text text-anchor="start" x="29" y="-18.5" font-family="Helvetica,sans-Serif" font-size="10.00" fill="#000000">CDPL.Grid.FileCDFDRegular</text>
<text text-anchor="middle" x="95.5" y="-7.5" font-family="Helvetica,sans-Serif" font-size="10.00" fill="#000000">GridReader</text>
</a>
</g>
</g>
<!-- Node2 -->
<g id="node2" class="node">
<title>Node2</title>
<g id="a_node2"><a xlink:href="classCDPL_1_1Grid_1_1DRegularGridReaderBase.html" target="_top" xlink:title="An interface for reading data objects of type Grid.DRegularGrid from an arbitrary data source.">
<polygon fill="none" stroke="#000000" points="0,-67.5 0,-86.5 191,-86.5 191,-67.5 0,-67.5"/>
<text text-anchor="middle" x="95.5" y="-74.5" font-family="Helvetica,sans-Serif" font-size="10.00" fill="#000000">CDPL.Grid.DRegularGridReaderBase</text>
</a>
</g>
</g>
<!-- Node2&#45;&gt;Node1 -->
<g id="edge1" class="edge">
<title>Node2&#45;&gt;Node1</title>
<path fill="none" stroke="#191970" d="M95.5,-57.3693C95.5,-48.681 95.5,-38.6241 95.5,-30.5446"/>
<polygon fill="#191970" stroke="#191970" points="92.0001,-57.3906 95.5,-67.3906 99.0001,-57.3907 92.0001,-57.3906"/>
</g>
<!-- Node3 -->
<g id="node3" class="node">
<title>Node3</title>
<g id="a_node3"><a xlink:href="classCDPL_1_1Base_1_1DataIOBase.html" target="_top" xlink:title="Provides infrastructure for the registration of I/O callback functions.">
<polygon fill="none" stroke="#000000" points="30.5,-123.5 30.5,-142.5 160.5,-142.5 160.5,-123.5 30.5,-123.5"/>
<text text-anchor="middle" x="95.5" y="-130.5" font-family="Helvetica,sans-Serif" font-size="10.00" fill="#000000">CDPL.Base.DataIOBase</text>
</a>
</g>
</g>
<!-- Node3&#45;&gt;Node2 -->
<g id="edge2" class="edge">
<title>Node3&#45;&gt;Node2</title>
<path fill="none" stroke="#191970" d="M95.5,-113.1575C95.5,-104.155 95.5,-93.9199 95.5,-86.6427"/>
<polygon fill="#191970" stroke="#191970" points="92.0001,-113.2455 95.5,-123.2455 99.0001,-113.2456 92.0001,-113.2455"/>
</g>
<!-- Node4 -->
<g id="node4" class="node">
<title>Node4</title>
<g id="a_node4"><a xlink:href="classCDPL_1_1Base_1_1ControlParameterContainer.html" target="_top" xlink:title="A class providing methods for the storage and lookup of control&#45;parameter values.">
<polygon fill="none" stroke="#000000" points="16.5,-179.5 16.5,-209.5 174.5,-209.5 174.5,-179.5 16.5,-179.5"/>
<text text-anchor="start" x="24.5" y="-197.5" font-family="Helvetica,sans-Serif" font-size="10.00" fill="#000000">CDPL.Base.ControlParameter</text>
<text text-anchor="middle" x="95.5" y="-186.5" font-family="Helvetica,sans-Serif" font-size="10.00" fill="#000000">Container</text>
</a>
</g>
</g>
<!-- Node4&#45;&gt;Node3 -->
<g id="edge3" class="edge">
<title>Node4&#45;&gt;Node3</title>
<path fill="none" stroke="#191970" d="M95.5,-169.2849C95.5,-159.9858 95.5,-149.9883 95.5,-142.8469"/>
<polygon fill="#191970" stroke="#191970" points="92.0001,-169.2977 95.5,-179.2977 99.0001,-169.2978 92.0001,-169.2977"/>
</g>
<!-- Node5 -->
<g id="node5" class="node">
<title>Node5</title>
<g id="a_node5"><a xlink:title=" ">
<polygon fill="none" stroke="#bfbfbf" points="66.5,-246.5 66.5,-265.5 124.5,-265.5 124.5,-246.5 66.5,-246.5"/>
<text text-anchor="middle" x="95.5" y="-253.5" font-family="Helvetica,sans-Serif" font-size="10.00" fill="#000000">instance</text>
</a>
</g>
</g>
<!-- Node5&#45;&gt;Node4 -->
<g id="edge4" class="edge">
<title>Node5&#45;&gt;Node4</title>
<path fill="none" stroke="#191970" d="M95.5,-236.3693C95.5,-227.681 95.5,-217.6241 95.5,-209.5446"/>
<polygon fill="#191970" stroke="#191970" points="92.0001,-236.3906 95.5,-246.3906 99.0001,-236.3907 92.0001,-236.3906"/>
</g>
</g>
</svg>
