<?xml version="1.0" encoding="UTF-8" standalone="no"?>
<!DOCTYPE svg PUBLIC "-//W3C//DTD SVG 1.1//EN"
 "http://www.w3.org/Graphics/SVG/1.1/DTD/svg11.dtd">
<!-- Generated by graphviz version 2.40.1 (0)
 -->
<!-- Title: CDPL.Base.SizeError Pages: 1 -->
<svg width="256pt" height="196pt"
 viewBox="0.00 0.00 255.50 196.00" xmlns="http://www.w3.org/2000/svg" xmlns:xlink="http://www.w3.org/1999/xlink">
<g id="graph0" class="graph" transform="scale(1 1) rotate(0) translate(4 192)">
<title>CDPL.Base.SizeError</title>
<!-- Node1 -->
<g id="node1" class="node">
<title>Node1</title>
<g id="a_node1"><a xlink:title="Thrown to indicate that the size of a (multidimensional) array is not correct.">
<polygon fill="#bfbfbf" stroke="#000000" points="68,-.5 68,-19.5 184,-19.5 184,-.5 68,-.5"/>
<text text-anchor="middle" x="126" y="-7.5" font-family="Helvetica,sans-Serif" font-size="10.00" fill="#000000">CDPL.Base.SizeError</text>
</a>
</g>
</g>
<!-- Node2 -->
<g id="node2" class="node">
<title>Node2</title>
<g id="a_node2"><a xlink:href="classCDPL_1_1Base_1_1ValueError.html" target="_top" xlink:title="Thrown to indicate errors caused by some invalid value.">
<polygon fill="none" stroke="#000000" points="65,-56.5 65,-75.5 187,-75.5 187,-56.5 65,-56.5"/>
<text text-anchor="middle" x="126" y="-63.5" font-family="Helvetica,sans-Serif" font-size="10.00" fill="#000000">CDPL.Base.ValueError</text>
</a>
</g>
</g>
<!-- Node2&#45;&gt;Node1 -->
<g id="edge1" class="edge">
<title>Node2&#45;&gt;Node1</title>
<path fill="none" stroke="#191970" d="M126,-46.1575C126,-37.155 126,-26.9199 126,-19.6427"/>
<polygon fill="#191970" stroke="#191970" points="122.5001,-46.2455 126,-56.2455 129.5001,-46.2456 122.5001,-46.2455"/>
</g>
<!-- Node3 -->
<g id="node3" class="node">
<title>Node3</title>
<g id="a_node3"><a xlink:href="classCDPL_1_1Base_1_1Exception.html" target="_top" xlink:title="The root of the CDPL exception hierarchy.">
<polygon fill="none" stroke="#000000" points="0,-112.5 0,-131.5 120,-131.5 120,-112.5 0,-112.5"/>
<text text-anchor="middle" x="60" y="-119.5" font-family="Helvetica,sans-Serif" font-size="10.00" fill="#000000">CDPL.Base.Exception</text>
</a>
</g>
</g>
<!-- Node3&#45;&gt;Node2 -->
<g id="edge2" class="edge">
<title>Node3&#45;&gt;Node2</title>
<path fill="none" stroke="#191970" d="M79.2755,-105.645C90.7538,-95.9058 104.9277,-83.8795 114.6354,-75.6427"/>
<polygon fill="#191970" stroke="#191970" points="76.857,-103.1069 71.4963,-112.2455 81.3859,-108.4445 76.857,-103.1069"/>
</g>
<!-- Node4 -->
<g id="node4" class="node">
<title>Node4</title>
<g id="a_node4"><a xlink:title=" ">
<polygon fill="none" stroke="#bfbfbf" points="6.5,-168.5 6.5,-187.5 113.5,-187.5 113.5,-168.5 6.5,-168.5"/>
<text text-anchor="middle" x="60" y="-175.5" font-family="Helvetica,sans-Serif" font-size="10.00" fill="#000000">builtins::Exception</text>
</a>
</g>
</g>
<!-- Node4&#45;&gt;Node3 -->
<g id="edge3" class="edge">
<title>Node4&#45;&gt;Node3</title>
<path fill="none" stroke="#191970" d="M60,-158.1575C60,-149.155 60,-138.9199 60,-131.6427"/>
<polygon fill="#191970" stroke="#191970" points="56.5001,-158.2455 60,-168.2455 63.5001,-158.2456 56.5001,-158.2455"/>
</g>
<!-- Node5 -->
<g id="node5" class="node">
<title>Node5</title>
<g id="a_node5"><a xlink:title=" ">
<polygon fill="none" stroke="#bfbfbf" points="138.5,-112.5 138.5,-131.5 247.5,-131.5 247.5,-112.5 138.5,-112.5"/>
<text text-anchor="middle" x="193" y="-119.5" font-family="Helvetica,sans-Serif" font-size="10.00" fill="#000000">builtins::ValueError</text>
</a>
</g>
</g>
<!-- Node5&#45;&gt;Node2 -->
<g id="edge4" class="edge">
<title>Node5&#45;&gt;Node2</title>
<path fill="none" stroke="#191970" d="M173.4324,-105.645C161.7802,-95.9058 147.3916,-83.8795 137.5368,-75.6427"/>
<polygon fill="#191970" stroke="#191970" points="171.4121,-108.5179 181.3295,-112.2455 175.9012,-103.1469 171.4121,-108.5179"/>
</g>
</g>
</svg>
