<?xml version="1.0" encoding="UTF-8" standalone="no"?>
<!DOCTYPE svg PUBLIC "-//W3C//DTD SVG 1.1//EN"
 "http://www.w3.org/Graphics/SVG/1.1/DTD/svg11.dtd">
<!-- Generated by graphviz version 2.44.0 (0)
 -->
<!-- Title: CDPL::ConfGen::CanonicalFragment Pages: 1 -->
<svg width="501pt" height="207pt"
 viewBox="0.00 0.00 501.00 207.00" xmlns="http://www.w3.org/2000/svg" xmlns:xlink="http://www.w3.org/1999/xlink">
<g id="graph0" class="graph" transform="scale(1 1) rotate(0) translate(4 203)">
<title>CDPL::ConfGen::CanonicalFragment</title>
<!-- Node1 -->
<g id="node1" class="node">
<title>Node1</title>
<g id="a_node1"><a xlink:title="CanonicalFragment.">
<polygon fill="#bfbfbf" stroke="black" points="176,-0.5 176,-30.5 313,-30.5 313,-0.5 176,-0.5"/>
<text text-anchor="start" x="184" y="-18.5" font-family="Helvetica" font-size="10.00">CDPL::ConfGen::Canonical</text>
<text text-anchor="middle" x="244.5" y="-7.5" font-family="Helvetica" font-size="10.00">Fragment</text>
</a>
</g>
</g>
<!-- Node2 -->
<g id="node2" class="node">
<title>Node2</title>
<g id="a_node2"><a xlink:href="classCDPL_1_1Chem_1_1MolecularGraph.html" target="_top" xlink:title="MolecularGraph.">
<polygon fill="none" stroke="black" points="170,-67.5 170,-86.5 319,-86.5 319,-67.5 170,-67.5"/>
<text text-anchor="middle" x="244.5" y="-74.5" font-family="Helvetica" font-size="10.00">CDPL::Chem::MolecularGraph</text>
</a>
</g>
</g>
<!-- Node2&#45;&gt;Node1 -->
<g id="edge1" class="edge">
<title>Node2&#45;&gt;Node1</title>
<path fill="none" stroke="midnightblue" d="M244.5,-57.23C244.5,-48.59 244.5,-38.5 244.5,-30.52"/>
<polygon fill="midnightblue" stroke="midnightblue" points="241,-57.48 244.5,-67.48 248,-57.48 241,-57.48"/>
</g>
<!-- Node3 -->
<g id="node3" class="node">
<title>Node3</title>
<g id="a_node3"><a xlink:href="classCDPL_1_1Chem_1_1AtomContainer.html" target="_top" xlink:title="A common interface for data&#45;structures that support a random access to stored Chem::Atom instances.">
<polygon fill="none" stroke="black" points="7.5,-123.5 7.5,-142.5 153.5,-142.5 153.5,-123.5 7.5,-123.5"/>
<text text-anchor="middle" x="80.5" y="-130.5" font-family="Helvetica" font-size="10.00">CDPL::Chem::AtomContainer</text>
</a>
</g>
</g>
<!-- Node3&#45;&gt;Node2 -->
<g id="edge2" class="edge">
<title>Node3&#45;&gt;Node2</title>
<path fill="none" stroke="midnightblue" d="M116.02,-120.3C146.92,-110.13 190.97,-95.62 218.64,-86.52"/>
<polygon fill="midnightblue" stroke="midnightblue" points="114.89,-116.99 106.49,-123.44 117.08,-123.64 114.89,-116.99"/>
</g>
<!-- Node4 -->
<g id="node4" class="node">
<title>Node4</title>
<g id="a_node4"><a xlink:href="classCDPL_1_1Chem_1_1Entity3DContainer.html" target="_top" xlink:title="A common interface for data&#45;structures that support a random access to stored Chem::Entity3D instance...">
<polygon fill="none" stroke="black" points="0,-179.5 0,-198.5 161,-198.5 161,-179.5 0,-179.5"/>
<text text-anchor="middle" x="80.5" y="-186.5" font-family="Helvetica" font-size="10.00">CDPL::Chem::Entity3DContainer</text>
</a>
</g>
</g>
<!-- Node4&#45;&gt;Node3 -->
<g id="edge3" class="edge">
<title>Node4&#45;&gt;Node3</title>
<path fill="none" stroke="midnightblue" d="M80.5,-168.8C80.5,-159.91 80.5,-149.78 80.5,-142.75"/>
<polygon fill="midnightblue" stroke="midnightblue" points="77,-169.08 80.5,-179.08 84,-169.08 77,-169.08"/>
</g>
<!-- Node5 -->
<g id="node5" class="node">
<title>Node5</title>
<g id="a_node5"><a xlink:href="classCDPL_1_1Chem_1_1BondContainer.html" target="_top" xlink:title="A common interface for data&#45;structures that support a random access to stored Chem::Bond instances.">
<polygon fill="none" stroke="black" points="171.5,-123.5 171.5,-142.5 317.5,-142.5 317.5,-123.5 171.5,-123.5"/>
<text text-anchor="middle" x="244.5" y="-130.5" font-family="Helvetica" font-size="10.00">CDPL::Chem::BondContainer</text>
</a>
</g>
</g>
<!-- Node5&#45;&gt;Node2 -->
<g id="edge4" class="edge">
<title>Node5&#45;&gt;Node2</title>
<path fill="none" stroke="midnightblue" d="M244.5,-112.8C244.5,-103.91 244.5,-93.78 244.5,-86.75"/>
<polygon fill="midnightblue" stroke="midnightblue" points="241,-113.08 244.5,-123.08 248,-113.08 241,-113.08"/>
</g>
<!-- Node6 -->
<g id="node6" class="node">
<title>Node6</title>
<g id="a_node6"><a xlink:href="classCDPL_1_1Base_1_1PropertyContainer.html" target="_top" xlink:title="A class providing methods for the storage and lookup of object properties.">
<polygon fill="none" stroke="black" points="336,-123.5 336,-142.5 493,-142.5 493,-123.5 336,-123.5"/>
<text text-anchor="middle" x="414.5" y="-130.5" font-family="Helvetica" font-size="10.00">CDPL::Base::PropertyContainer</text>
</a>
</g>
</g>
<!-- Node6&#45;&gt;Node2 -->
<g id="edge5" class="edge">
<title>Node6&#45;&gt;Node2</title>
<path fill="none" stroke="midnightblue" d="M377.68,-120.3C345.65,-110.13 299.98,-95.62 271.31,-86.52"/>
<polygon fill="midnightblue" stroke="midnightblue" points="376.97,-123.75 387.56,-123.44 379.09,-117.08 376.97,-123.75"/>
</g>
</g>
</svg>
