<?xml version="1.0" encoding="UTF-8" standalone="no"?>
<!DOCTYPE svg PUBLIC "-//W3C//DTD SVG 1.1//EN"
 "http://www.w3.org/Graphics/SVG/1.1/DTD/svg11.dtd">
<!-- Generated by graphviz version 2.44.0 (0)
 -->
<!-- Title: CDPL::Grid::RegularGridSet&lt; T, CVT &gt; Pages: 1 -->
<svg width="969pt" height="75pt"
 viewBox="0.00 0.00 969.00 75.00" xmlns="http://www.w3.org/2000/svg" xmlns:xlink="http://www.w3.org/1999/xlink">
<g id="graph0" class="graph" transform="scale(1 1) rotate(0) translate(4 71)">
<title>CDPL::Grid::RegularGridSet&lt; T, CVT &gt;</title>
<!-- Node1 -->
<g id="node1" class="node">
<title>Node1</title>
<g id="a_node1"><a xlink:title="RegularGridSet.">
<polygon fill="#bfbfbf" stroke="black" points="822,-31 822,-61 961,-61 961,-31 822,-31"/>
<text text-anchor="start" x="830" y="-49" font-family="Helvetica" font-size="10.00">CDPL::Grid::RegularGridSet</text>
<text text-anchor="middle" x="891.5" y="-38" font-family="Helvetica" font-size="10.00">&lt; T, CVT &gt;</text>
</a>
</g>
</g>
<!-- Node2 -->
<g id="node2" class="node">
<title>Node2</title>
<g id="a_node2"><a xlink:href="classCDPL_1_1Util_1_1IndirectArray.html" target="_top" xlink:title=" ">
<polygon fill="none" stroke="black" points="660,-31 660,-61 785,-61 785,-31 660,-31"/>
<text text-anchor="start" x="668" y="-49" font-family="Helvetica" font-size="10.00">CDPL::Util::IndirectArray</text>
<text text-anchor="middle" x="722.5" y="-38" font-family="Helvetica" font-size="10.00">&lt; RegularGrid&lt; T, T &gt; &gt;</text>
</a>
</g>
</g>
<!-- Node2&#45;&gt;Node1 -->
<g id="edge1" class="edge">
<title>Node2&#45;&gt;Node1</title>
<path fill="none" stroke="midnightblue" d="M795.37,-46C804.12,-46 813.03,-46 821.73,-46"/>
<polygon fill="midnightblue" stroke="midnightblue" points="795.21,-42.5 785.21,-46 795.21,-49.5 795.21,-42.5"/>
</g>
<!-- Node3 -->
<g id="node3" class="node">
<title>Node3</title>
<g id="a_node3"><a xlink:href="classCDPL_1_1Util_1_1Array.html" target="_top" xlink:title=" ">
<polygon fill="none" stroke="black" points="238,-24.5 238,-65.5 348,-65.5 348,-24.5 238,-24.5"/>
<text text-anchor="start" x="246" y="-53.5" font-family="Helvetica" font-size="10.00">CDPL::Util::Array&lt;</text>
<text text-anchor="start" x="246" y="-42.5" font-family="Helvetica" font-size="10.00"> typename ValueType</text>
<text text-anchor="middle" x="293" y="-31.5" font-family="Helvetica" font-size="10.00">::SharedPointer &gt;</text>
</a>
</g>
</g>
<!-- Node3&#45;&gt;Node2 -->
<g id="edge2" class="edge">
<title>Node3&#45;&gt;Node2</title>
<path fill="none" stroke="midnightblue" d="M358.36,-49.61C367.31,-50.14 376.38,-50.63 385,-51 499.12,-55.91 527.91,-59.73 642,-54 647.82,-53.71 653.87,-53.3 659.92,-52.81"/>
<polygon fill="midnightblue" stroke="midnightblue" points="358.55,-46.12 348.35,-48.99 358.12,-53.1 358.55,-46.12"/>
</g>
<!-- Node5 -->
<g id="node5" class="node">
<title>Node5</title>
<g id="a_node5"><a xlink:href="classCDPL_1_1Util_1_1IndirectArray.html" target="_top" xlink:title="A dynamic array class for the storage of object pointers with an indirected query interface.">
<polygon fill="none" stroke="black" points="385,-0.5 385,-41.5 516,-41.5 516,-0.5 385,-0.5"/>
<text text-anchor="start" x="393" y="-29.5" font-family="Helvetica" font-size="10.00">CDPL::Util::IndirectArray</text>
<text text-anchor="start" x="393" y="-18.5" font-family="Helvetica" font-size="10.00">&lt; ValueType, PointerType,</text>
<text text-anchor="middle" x="450.5" y="-7.5" font-family="Helvetica" font-size="10.00"> NullPointerCheck &gt;</text>
</a>
</g>
</g>
<!-- Node3&#45;&gt;Node5 -->
<g id="edge5" class="edge">
<title>Node3&#45;&gt;Node5</title>
<path fill="none" stroke="midnightblue" d="M358.52,-35.04C367.27,-33.69 376.25,-32.31 385,-30.96"/>
<polygon fill="midnightblue" stroke="midnightblue" points="357.74,-31.62 348.39,-36.61 358.8,-38.54 357.74,-31.62"/>
</g>
<!-- Node4 -->
<g id="node4" class="node">
<title>Node4</title>
<g id="a_node4"><a xlink:href="classCDPL_1_1Util_1_1Array.html" target="_top" xlink:title="A dynamic array class providing amortized constant time access to arbitrary elements.">
<polygon fill="none" stroke="black" points="0,-30 0,-60 99,-60 99,-30 0,-30"/>
<text text-anchor="start" x="8" y="-48" font-family="Helvetica" font-size="10.00">CDPL::Util::Array&lt;</text>
<text text-anchor="middle" x="49.5" y="-37" font-family="Helvetica" font-size="10.00"> ValueType &gt;</text>
</a>
</g>
</g>
<!-- Node4&#45;&gt;Node3 -->
<g id="edge3" class="edge">
<title>Node4&#45;&gt;Node3</title>
<path fill="none" stroke="orange" stroke-dasharray="5,2" d="M109.27,-45C148.39,-45 199.41,-45 237.6,-45"/>
<polygon fill="orange" stroke="orange" points="109.08,-41.5 99.08,-45 109.08,-48.5 109.08,-41.5"/>
<text text-anchor="start" x="117" y="-59" font-family="Helvetica" font-size="10.00"> &lt; typename ValueType</text>
<text text-anchor="middle" x="168.5" y="-48" font-family="Helvetica" font-size="10.00">::SharedPointer &gt;</text>
</g>
<!-- Node5&#45;&gt;Node2 -->
<g id="edge4" class="edge">
<title>Node5&#45;&gt;Node2</title>
<path fill="none" stroke="orange" stroke-dasharray="5,2" d="M526.34,-27.93C568.31,-31.82 620.03,-36.6 659.68,-40.28"/>
<polygon fill="orange" stroke="orange" points="526.45,-24.43 516.17,-26.99 525.81,-31.4 526.45,-24.43"/>
<text text-anchor="middle" x="588" y="-42" font-family="Helvetica" font-size="10.00"> &lt; RegularGrid&lt; T, T &gt; &gt;</text>
</g>
</g>
</svg>
