<?xml version="1.0" encoding="UTF-8" standalone="no"?>
<!DOCTYPE svg PUBLIC "-//W3C//DTD SVG 1.1//EN"
 "http://www.w3.org/Graphics/SVG/1.1/DTD/svg11.dtd">
<!-- Generated by graphviz version 2.44.0 (0)
 -->
<!-- Title: CDPL::Util::ObjectStack&lt; T &gt; Pages: 1 -->
<svg width="495pt" height="1087pt"
 viewBox="0.00 0.00 495.00 1087.41" xmlns="http://www.w3.org/2000/svg" xmlns:xlink="http://www.w3.org/1999/xlink">
<g id="graph0" class="graph" transform="scale(1 1) rotate(0) translate(4 1083.41)">
<title>CDPL::Util::ObjectStack&lt; T &gt;</title>
<!-- Node1 -->
<g id="node1" class="node">
<title>Node1</title>
<g id="a_node1"><a xlink:title="ObjectStack.">
<polygon fill="#bfbfbf" stroke="black" points="0,-527.91 0,-546.91 148,-546.91 148,-527.91 0,-527.91"/>
<text text-anchor="middle" x="74" y="-534.91" font-family="Helvetica" font-size="10.00">CDPL::Util::ObjectStack&lt; T &gt;</text>
</a>
</g>
</g>
<!-- Node2 -->
<g id="node2" class="node">
<title>Node2</title>
<g id="a_node2"><a xlink:href="classCDPL_1_1Util_1_1ObjectStack.html" target="_top" xlink:title=" ">
<polygon fill="none" stroke="black" points="346,-1037.41 346,-1067.41 470,-1067.41 470,-1037.41 346,-1037.41"/>
<text text-anchor="start" x="354" y="-1055.41" font-family="Helvetica" font-size="10.00">CDPL::Util::ObjectStack</text>
<text text-anchor="middle" x="408" y="-1044.41" font-family="Helvetica" font-size="10.00">&lt; AGEdge &gt;</text>
</a>
</g>
</g>
<!-- Node1&#45;&gt;Node2 -->
<g id="edge1" class="edge">
<title>Node1&#45;&gt;Node2</title>
<path fill="none" stroke="orange" stroke-dasharray="5,2" d="M75.6,-557.09C78.6,-640.57 94.72,-964.13 166,-1029.41 213.89,-1073.27 291.75,-1072.57 345.97,-1065.11"/>
<polygon fill="orange" stroke="orange" points="79.1,-556.83 75.26,-546.96 72.1,-557.07 79.1,-556.83"/>
<text text-anchor="middle" x="238.5" y="-1071.41" font-family="Helvetica" font-size="10.00"> &lt; AGEdge &gt;</text>
</g>
<!-- Node3 -->
<g id="node3" class="node">
<title>Node3</title>
<g id="a_node3"><a xlink:href="classCDPL_1_1Util_1_1ObjectStack.html" target="_top" xlink:title=" ">
<polygon fill="none" stroke="black" points="346,-988.41 346,-1018.41 470,-1018.41 470,-988.41 346,-988.41"/>
<text text-anchor="start" x="354" y="-1006.41" font-family="Helvetica" font-size="10.00">CDPL::Util::ObjectStack</text>
<text text-anchor="middle" x="408" y="-995.41" font-family="Helvetica" font-size="10.00">&lt; AtomBondMapping &gt;</text>
</a>
</g>
</g>
<!-- Node1&#45;&gt;Node3 -->
<g id="edge2" class="edge">
<title>Node1&#45;&gt;Node3</title>
<path fill="none" stroke="orange" stroke-dasharray="5,2" d="M76.23,-557.62C81.39,-635.4 104,-913.88 166,-971.41 213.8,-1015.77 291.68,-1018.24 345.93,-1013.23"/>
<polygon fill="orange" stroke="orange" points="79.7,-557.04 75.57,-547.29 72.71,-557.49 79.7,-557.04"/>
<text text-anchor="middle" x="238.5" y="-1017.41" font-family="Helvetica" font-size="10.00"> &lt; AtomBondMapping &gt;</text>
</g>
<!-- Node4 -->
<g id="node4" class="node">
<title>Node4</title>
<g id="a_node4"><a xlink:href="classCDPL_1_1Util_1_1ObjectStack.html" target="_top" xlink:title=" ">
<polygon fill="none" stroke="black" points="346,-939.41 346,-969.41 470,-969.41 470,-939.41 346,-939.41"/>
<text text-anchor="start" x="354" y="-957.41" font-family="Helvetica" font-size="10.00">CDPL::Util::ObjectStack</text>
<text text-anchor="middle" x="408" y="-946.41" font-family="Helvetica" font-size="10.00">&lt; PolygonPrimitive2D &gt;</text>
</a>
</g>
</g>
<!-- Node1&#45;&gt;Node4 -->
<g id="edge3" class="edge">
<title>Node1&#45;&gt;Node4</title>
<path fill="none" stroke="orange" stroke-dasharray="5,2" d="M76.57,-557.28C82.78,-630.26 108.13,-881.89 166,-932.41 191.91,-955.03 283.28,-957.72 345.77,-956.71"/>
<polygon fill="orange" stroke="orange" points="80.05,-556.84 75.74,-547.16 73.07,-557.41 80.05,-556.84"/>
<text text-anchor="middle" x="238.5" y="-959.41" font-family="Helvetica" font-size="10.00"> &lt; PolygonPrimitive2D &gt;</text>
</g>
<!-- Node5 -->
<g id="node5" class="node">
<title>Node5</title>
<g id="a_node5"><a xlink:href="classCDPL_1_1Util_1_1ObjectStack.html" target="_top" xlink:title=" ">
<polygon fill="none" stroke="black" points="346,-890.41 346,-920.41 470,-920.41 470,-890.41 346,-890.41"/>
<text text-anchor="start" x="354" y="-908.41" font-family="Helvetica" font-size="10.00">CDPL::Util::ObjectStack</text>
<text text-anchor="middle" x="408" y="-897.41" font-family="Helvetica" font-size="10.00">&lt; LGEdge &gt;</text>
</a>
</g>
</g>
<!-- Node1&#45;&gt;Node5 -->
<g id="edge4" class="edge">
<title>Node1&#45;&gt;Node5</title>
<path fill="none" stroke="orange" stroke-dasharray="5,2" d="M77.22,-556.93C85.21,-623.54 114.79,-840.08 166,-883.41 215.31,-925.14 292.32,-924.68 345.97,-917.66"/>
<polygon fill="orange" stroke="orange" points="80.69,-556.47 76.05,-546.94 73.74,-557.28 80.69,-556.47"/>
<text text-anchor="middle" x="238.5" y="-923.41" font-family="Helvetica" font-size="10.00"> &lt; LGEdge &gt;</text>
</g>
<!-- Node6 -->
<g id="node6" class="node">
<title>Node6</title>
<g id="a_node6"><a xlink:href="classCDPL_1_1Util_1_1ObjectStack.html" target="_top" xlink:title=" ">
<polygon fill="none" stroke="black" points="346,-841.41 346,-871.41 470,-871.41 470,-841.41 346,-841.41"/>
<text text-anchor="start" x="354" y="-859.41" font-family="Helvetica" font-size="10.00">CDPL::Util::ObjectStack</text>
<text text-anchor="middle" x="408" y="-848.41" font-family="Helvetica" font-size="10.00">&lt; PathPrimitive2D &gt;</text>
</a>
</g>
</g>
<!-- Node1&#45;&gt;Node6 -->
<g id="edge5" class="edge">
<title>Node1&#45;&gt;Node6</title>
<path fill="none" stroke="orange" stroke-dasharray="5,2" d="M74.26,-557.13C73.41,-611.23 79.24,-762.7 166,-833.41 215.93,-874.1 292.44,-874.32 345.82,-867.94"/>
<polygon fill="orange" stroke="orange" points="77.76,-557.21 74.51,-547.12 70.76,-557.03 77.76,-557.21"/>
<text text-anchor="middle" x="238.5" y="-873.41" font-family="Helvetica" font-size="10.00"> &lt; PathPrimitive2D &gt;</text>
</g>
<!-- Node7 -->
<g id="node7" class="node">
<title>Node7</title>
<g id="a_node7"><a xlink:href="classCDPL_1_1Util_1_1ObjectStack.html" target="_top" xlink:title=" ">
<polygon fill="none" stroke="black" points="346,-792.41 346,-822.41 470,-822.41 470,-792.41 346,-792.41"/>
<text text-anchor="start" x="354" y="-810.41" font-family="Helvetica" font-size="10.00">CDPL::Util::ObjectStack</text>
<text text-anchor="middle" x="408" y="-799.41" font-family="Helvetica" font-size="10.00">&lt; LinePrimitive2D &gt;</text>
</a>
</g>
</g>
<!-- Node1&#45;&gt;Node7 -->
<g id="edge6" class="edge">
<title>Node1&#45;&gt;Node7</title>
<path fill="none" stroke="orange" stroke-dasharray="5,2" d="M75.87,-557.17C79.09,-604.27 94.28,-723.36 166,-779.41 216.69,-819.03 292.69,-821.34 345.75,-816.76"/>
<polygon fill="orange" stroke="orange" points="79.35,-556.85 75.29,-547.07 72.36,-557.25 79.35,-556.85"/>
<text text-anchor="middle" x="238.5" y="-821.41" font-family="Helvetica" font-size="10.00"> &lt; LinePrimitive2D &gt;</text>
</g>
<!-- Node8 -->
<g id="node8" class="node">
<title>Node8</title>
<g id="a_node8"><a xlink:href="classCDPL_1_1Util_1_1ObjectStack.html" target="_top" xlink:title=" ">
<polygon fill="none" stroke="black" points="337.5,-743.41 337.5,-773.41 478.5,-773.41 478.5,-743.41 337.5,-743.41"/>
<text text-anchor="start" x="345.5" y="-761.41" font-family="Helvetica" font-size="10.00">CDPL::Util::ObjectStack</text>
<text text-anchor="middle" x="408" y="-750.41" font-family="Helvetica" font-size="10.00">&lt; GaussianShapeFunction &gt;</text>
</a>
</g>
</g>
<!-- Node1&#45;&gt;Node8 -->
<g id="edge7" class="edge">
<title>Node1&#45;&gt;Node8</title>
<path fill="none" stroke="orange" stroke-dasharray="5,2" d="M78.42,-557.16C86.26,-596.01 109.42,-682.16 166,-723.41 215.28,-759.34 285.54,-765.89 337.49,-764.77"/>
<polygon fill="orange" stroke="orange" points="81.82,-556.31 76.52,-547.13 74.94,-557.6 81.82,-556.31"/>
<text text-anchor="middle" x="238.5" y="-767.41" font-family="Helvetica" font-size="10.00"> &lt; GaussianShapeFunction &gt;</text>
</g>
<!-- Node9 -->
<g id="node9" class="node">
<title>Node9</title>
<g id="a_node9"><a xlink:href="classCDPL_1_1Util_1_1ObjectStack.html" target="_top" xlink:title=" ">
<polygon fill="none" stroke="black" points="346,-694.41 346,-724.41 470,-724.41 470,-694.41 346,-694.41"/>
<text text-anchor="start" x="354" y="-712.41" font-family="Helvetica" font-size="10.00">CDPL::Util::ObjectStack</text>
<text text-anchor="middle" x="408" y="-701.41" font-family="Helvetica" font-size="10.00">&lt; AGNode &gt;</text>
</a>
</g>
</g>
<!-- Node1&#45;&gt;Node9 -->
<g id="edge8" class="edge">
<title>Node1&#45;&gt;Node9</title>
<path fill="none" stroke="orange" stroke-dasharray="5,2" d="M82.74,-556.53C95.49,-585.39 123.78,-639.55 166,-666.41 220.15,-700.85 294.27,-709.62 345.96,-711.03"/>
<polygon fill="orange" stroke="orange" points="85.88,-554.97 78.75,-547.14 79.44,-557.71 85.88,-554.97"/>
<text text-anchor="middle" x="238.5" y="-711.41" font-family="Helvetica" font-size="10.00"> &lt; AGNode &gt;</text>
</g>
<!-- Node10 -->
<g id="node10" class="node">
<title>Node10</title>
<g id="a_node10"><a xlink:href="classCDPL_1_1Util_1_1ObjectStack.html" target="_top" xlink:title=" ">
<polygon fill="none" stroke="black" points="329,-645.41 329,-675.41 487,-675.41 487,-645.41 329,-645.41"/>
<text text-anchor="start" x="337" y="-663.41" font-family="Helvetica" font-size="10.00">CDPL::Util::ObjectStack</text>
<text text-anchor="middle" x="408" y="-652.41" font-family="Helvetica" font-size="10.00">&lt; LineSegmentListPrimitive2D &gt;</text>
</a>
</g>
</g>
<!-- Node1&#45;&gt;Node10 -->
<g id="edge9" class="edge">
<title>Node1&#45;&gt;Node10</title>
<path fill="none" stroke="orange" stroke-dasharray="5,2" d="M90.81,-554.71C107.71,-572.08 136.12,-598.23 166,-612.41 217.17,-636.68 280.07,-648.69 328.79,-654.63"/>
<polygon fill="orange" stroke="orange" points="92.91,-551.83 83.49,-546.98 87.83,-556.65 92.91,-551.83"/>
<text text-anchor="middle" x="238.5" y="-654.41" font-family="Helvetica" font-size="10.00"> &lt; LineSegmentListPrimitive2D &gt;</text>
</g>
<!-- Node11 -->
<g id="node11" class="node">
<title>Node11</title>
<g id="a_node11"><a xlink:href="classCDPL_1_1Util_1_1ObjectStack.html" target="_top" xlink:title=" ">
<polygon fill="none" stroke="black" points="346,-596.41 346,-626.41 470,-626.41 470,-596.41 346,-596.41"/>
<text text-anchor="start" x="354" y="-614.41" font-family="Helvetica" font-size="10.00">CDPL::Util::ObjectStack</text>
<text text-anchor="middle" x="408" y="-603.41" font-family="Helvetica" font-size="10.00">&lt; Util::STPairArray &gt;</text>
</a>
</g>
</g>
<!-- Node1&#45;&gt;Node11 -->
<g id="edge10" class="edge">
<title>Node1&#45;&gt;Node11</title>
<path fill="none" stroke="orange" stroke-dasharray="5,2" d="M108.14,-550.55C125.21,-556.94 146.49,-564.32 166,-569.41 226.41,-585.18 296.91,-596.69 345.99,-603.63"/>
<polygon fill="orange" stroke="orange" points="109.21,-547.21 98.61,-546.93 106.72,-553.76 109.21,-547.21"/>
<text text-anchor="middle" x="238.5" y="-600.41" font-family="Helvetica" font-size="10.00"> &lt; Util::STPairArray &gt;</text>
</g>
<!-- Node12 -->
<g id="node12" class="node">
<title>Node12</title>
<g id="a_node12"><a xlink:href="classCDPL_1_1Util_1_1ObjectStack.html" target="_top" xlink:title=" ">
<polygon fill="none" stroke="black" points="346,-547.41 346,-577.41 470,-577.41 470,-547.41 346,-547.41"/>
<text text-anchor="start" x="354" y="-565.41" font-family="Helvetica" font-size="10.00">CDPL::Util::ObjectStack</text>
<text text-anchor="middle" x="408" y="-554.41" font-family="Helvetica" font-size="10.00">&lt; PolylinePrimitive2D &gt;</text>
</a>
</g>
</g>
<!-- Node1&#45;&gt;Node12 -->
<g id="edge11" class="edge">
<title>Node1&#45;&gt;Node12</title>
<path fill="none" stroke="orange" stroke-dasharray="5,2" d="M158.56,-543.7C216.83,-548.09 293.25,-553.85 345.87,-557.81"/>
<polygon fill="orange" stroke="orange" points="158.5,-540.19 148.27,-542.93 157.98,-547.17 158.5,-540.19"/>
<text text-anchor="middle" x="238.5" y="-557.41" font-family="Helvetica" font-size="10.00"> &lt; PolylinePrimitive2D &gt;</text>
</g>
<!-- Node13 -->
<g id="node13" class="node">
<title>Node13</title>
<g id="a_node13"><a xlink:href="classCDPL_1_1Util_1_1ObjectStack.html" target="_top" xlink:title=" ">
<polygon fill="none" stroke="black" points="346,-498.41 346,-528.41 470,-528.41 470,-498.41 346,-498.41"/>
<text text-anchor="start" x="354" y="-516.41" font-family="Helvetica" font-size="10.00">CDPL::Util::ObjectStack</text>
<text text-anchor="middle" x="408" y="-505.41" font-family="Helvetica" font-size="10.00">&lt; RingInfo &gt;</text>
</a>
</g>
</g>
<!-- Node1&#45;&gt;Node13 -->
<g id="edge12" class="edge">
<title>Node1&#45;&gt;Node13</title>
<path fill="none" stroke="orange" stroke-dasharray="5,2" d="M158.22,-530.02C160.84,-529.81 163.44,-529.61 166,-529.41 227.04,-524.7 296.84,-520.16 345.56,-517.13"/>
<polygon fill="orange" stroke="orange" points="157.68,-526.55 148,-530.85 158.25,-533.53 157.68,-526.55"/>
<text text-anchor="middle" x="238.5" y="-532.41" font-family="Helvetica" font-size="10.00"> &lt; RingInfo &gt;</text>
</g>
<!-- Node14 -->
<g id="node14" class="node">
<title>Node14</title>
<g id="a_node14"><a xlink:href="classCDPL_1_1Util_1_1ObjectStack.html" target="_top" xlink:title=" ">
<polygon fill="none" stroke="black" points="344.5,-449.41 344.5,-479.41 471.5,-479.41 471.5,-449.41 344.5,-449.41"/>
<text text-anchor="start" x="352.5" y="-467.41" font-family="Helvetica" font-size="10.00">CDPL::Util::ObjectStack</text>
<text text-anchor="middle" x="408" y="-456.41" font-family="Helvetica" font-size="10.00">&lt; TextLabelPrimitive2D &gt;</text>
</a>
</g>
</g>
<!-- Node1&#45;&gt;Node14 -->
<g id="edge13" class="edge">
<title>Node1&#45;&gt;Node14</title>
<path fill="none" stroke="orange" stroke-dasharray="5,2" d="M107.37,-524.03C124.55,-517.35 146.16,-509.61 166,-504.41 225.7,-488.77 295.39,-477.99 344.42,-471.59"/>
<polygon fill="orange" stroke="orange" points="105.83,-520.88 97.82,-527.81 108.41,-527.39 105.83,-520.88"/>
<text text-anchor="middle" x="238.5" y="-507.41" font-family="Helvetica" font-size="10.00"> &lt; TextLabelPrimitive2D &gt;</text>
</g>
<!-- Node15 -->
<g id="node15" class="node">
<title>Node15</title>
<g id="a_node15"><a xlink:href="classCDPL_1_1Util_1_1ObjectStack.html" target="_top" xlink:title=" ">
<polygon fill="none" stroke="black" points="346,-400.41 346,-430.41 470,-430.41 470,-400.41 346,-400.41"/>
<text text-anchor="start" x="354" y="-418.41" font-family="Helvetica" font-size="10.00">CDPL::Util::ObjectStack</text>
<text text-anchor="middle" x="408" y="-407.41" font-family="Helvetica" font-size="10.00">&lt; StructureView2D &gt;</text>
</a>
</g>
</g>
<!-- Node1&#45;&gt;Node15 -->
<g id="edge14" class="edge">
<title>Node1&#45;&gt;Node15</title>
<path fill="none" stroke="orange" stroke-dasharray="5,2" d="M90.29,-520.3C107.06,-502.66 135.67,-475.77 166,-461.41 223.36,-434.25 295.59,-423.12 345.95,-418.57"/>
<polygon fill="orange" stroke="orange" points="87.68,-517.97 83.45,-527.68 92.81,-522.73 87.68,-517.97"/>
<text text-anchor="middle" x="238.5" y="-464.41" font-family="Helvetica" font-size="10.00"> &lt; StructureView2D &gt;</text>
</g>
<!-- Node16 -->
<g id="node16" class="node">
<title>Node16</title>
<g id="a_node16"><a xlink:href="classCDPL_1_1Util_1_1ObjectStack.html" target="_top" xlink:title=" ">
<polygon fill="none" stroke="black" points="346,-351.41 346,-381.41 470,-381.41 470,-351.41 346,-351.41"/>
<text text-anchor="start" x="354" y="-369.41" font-family="Helvetica" font-size="10.00">CDPL::Util::ObjectStack</text>
<text text-anchor="middle" x="408" y="-358.41" font-family="Helvetica" font-size="10.00">&lt; PointListPrimitive2D &gt;</text>
</a>
</g>
</g>
<!-- Node1&#45;&gt;Node16 -->
<g id="edge15" class="edge">
<title>Node1&#45;&gt;Node16</title>
<path fill="none" stroke="orange" stroke-dasharray="5,2" d="M82.67,-518.1C95.33,-488.97 123.5,-434.31 166,-407.41 220.15,-373.14 294.27,-365.03 345.96,-364.15"/>
<polygon fill="orange" stroke="orange" points="79.34,-517.01 78.71,-527.58 85.8,-519.71 79.34,-517.01"/>
<text text-anchor="middle" x="238.5" y="-410.41" font-family="Helvetica" font-size="10.00"> &lt; PointListPrimitive2D &gt;</text>
</g>
<!-- Node17 -->
<g id="node17" class="node">
<title>Node17</title>
<g id="a_node17"><a xlink:href="classCDPL_1_1Util_1_1ObjectStack.html" target="_top" xlink:title=" ">
<polygon fill="none" stroke="black" points="346,-302.41 346,-332.41 470,-332.41 470,-302.41 346,-302.41"/>
<text text-anchor="start" x="354" y="-320.41" font-family="Helvetica" font-size="10.00">CDPL::Util::ObjectStack</text>
<text text-anchor="middle" x="408" y="-309.41" font-family="Helvetica" font-size="10.00">&lt; Edge &gt;</text>
</a>
</g>
</g>
<!-- Node1&#45;&gt;Node17 -->
<g id="edge16" class="edge">
<title>Node1&#45;&gt;Node17</title>
<path fill="none" stroke="orange" stroke-dasharray="5,2" d="M78.3,-517.77C85.98,-478.77 108.93,-391.76 166,-350.41 218.07,-312.69 293.44,-308.16 345.99,-310.69"/>
<polygon fill="orange" stroke="orange" points="74.86,-517.15 76.49,-527.62 81.74,-518.42 74.86,-517.15"/>
<text text-anchor="middle" x="238.5" y="-353.41" font-family="Helvetica" font-size="10.00"> &lt; Edge &gt;</text>
</g>
<!-- Node18 -->
<g id="node18" class="node">
<title>Node18</title>
<g id="a_node18"><a xlink:href="classCDPL_1_1Util_1_1ObjectStack.html" target="_top" xlink:title=" ">
<polygon fill="none" stroke="black" points="346,-253.41 346,-283.41 470,-283.41 470,-253.41 346,-253.41"/>
<text text-anchor="start" x="354" y="-271.41" font-family="Helvetica" font-size="10.00">CDPL::Util::ObjectStack</text>
<text text-anchor="middle" x="408" y="-260.41" font-family="Helvetica" font-size="10.00">&lt; AtomNode &gt;</text>
</a>
</g>
</g>
<!-- Node1&#45;&gt;Node18 -->
<g id="edge17" class="edge">
<title>Node1&#45;&gt;Node18</title>
<path fill="none" stroke="orange" stroke-dasharray="5,2" d="M75.81,-517.53C78.9,-470.16 93.83,-350.42 166,-294.41 216.78,-255 292.77,-253.36 345.8,-258.45"/>
<polygon fill="orange" stroke="orange" points="72.3,-517.52 75.26,-527.7 79.29,-517.9 72.3,-517.52"/>
<text text-anchor="middle" x="238.5" y="-297.41" font-family="Helvetica" font-size="10.00"> &lt; AtomNode &gt;</text>
</g>
<!-- Node19 -->
<g id="node19" class="node">
<title>Node19</title>
<g id="a_node19"><a xlink:href="classCDPL_1_1Util_1_1ObjectStack.html" target="_top" xlink:title=" ">
<polygon fill="none" stroke="black" points="346,-204.41 346,-234.41 470,-234.41 470,-204.41 346,-204.41"/>
<text text-anchor="start" x="354" y="-222.41" font-family="Helvetica" font-size="10.00">CDPL::Util::ObjectStack</text>
<text text-anchor="middle" x="408" y="-211.41" font-family="Helvetica" font-size="10.00">&lt; ClipPathPrimitive2D &gt;</text>
</a>
</g>
</g>
<!-- Node1&#45;&gt;Node19 -->
<g id="edge18" class="edge">
<title>Node1&#45;&gt;Node19</title>
<path fill="none" stroke="orange" stroke-dasharray="5,2" d="M74.2,-517.59C73.21,-463.21 78.71,-311.03 166,-240.41 216.04,-199.93 292.53,-200.39 345.88,-207.28"/>
<polygon fill="orange" stroke="orange" points="70.71,-517.75 74.49,-527.65 77.7,-517.55 70.71,-517.75"/>
<text text-anchor="middle" x="238.5" y="-243.41" font-family="Helvetica" font-size="10.00"> &lt; ClipPathPrimitive2D &gt;</text>
</g>
<!-- Node20 -->
<g id="node20" class="node">
<title>Node20</title>
<g id="a_node20"><a xlink:href="classCDPL_1_1Util_1_1ObjectStack.html" target="_top" xlink:title=" ">
<polygon fill="none" stroke="black" points="346,-155.41 346,-185.41 470,-185.41 470,-155.41 346,-155.41"/>
<text text-anchor="start" x="354" y="-173.41" font-family="Helvetica" font-size="10.00">CDPL::Util::ObjectStack</text>
<text text-anchor="middle" x="408" y="-162.41" font-family="Helvetica" font-size="10.00">&lt; IndexArray &gt;</text>
</a>
</g>
</g>
<!-- Node1&#45;&gt;Node20 -->
<g id="edge19" class="edge">
<title>Node1&#45;&gt;Node20</title>
<path fill="none" stroke="orange" stroke-dasharray="5,2" d="M77.17,-517.69C84.99,-450.41 114.07,-231.72 166,-188.41 215.46,-147.16 292.25,-148.91 345.82,-156.92"/>
<polygon fill="orange" stroke="orange" points="73.67,-517.45 76.02,-527.78 80.63,-518.24 73.67,-517.45"/>
<text text-anchor="middle" x="238.5" y="-191.41" font-family="Helvetica" font-size="10.00"> &lt; IndexArray &gt;</text>
</g>
<!-- Node21 -->
<g id="node21" class="node">
<title>Node21</title>
<g id="a_node21"><a xlink:href="classCDPL_1_1Util_1_1ObjectStack.html" target="_top" xlink:title=" ">
<polygon fill="none" stroke="black" points="346,-106.41 346,-136.41 470,-136.41 470,-106.41 346,-106.41"/>
<text text-anchor="start" x="354" y="-124.41" font-family="Helvetica" font-size="10.00">CDPL::Util::ObjectStack</text>
<text text-anchor="middle" x="408" y="-113.41" font-family="Helvetica" font-size="10.00">&lt; Util::BitSet &gt;</text>
</a>
</g>
</g>
<!-- Node1&#45;&gt;Node21 -->
<g id="edge20" class="edge">
<title>Node1&#45;&gt;Node21</title>
<path fill="none" stroke="orange" stroke-dasharray="5,2" d="M76.44,-517.67C82.24,-444.03 106.52,-187.01 166,-136.41 215.09,-94.65 292.15,-97.64 345.87,-106.69"/>
<polygon fill="orange" stroke="orange" points="72.93,-517.62 75.66,-527.85 79.91,-518.15 72.93,-517.62"/>
<text text-anchor="middle" x="238.5" y="-139.41" font-family="Helvetica" font-size="10.00"> &lt; Util::BitSet &gt;</text>
</g>
<!-- Node22 -->
<g id="node22" class="node">
<title>Node22</title>
<g id="a_node22"><a xlink:href="classCDPL_1_1Util_1_1ObjectStack.html" target="_top" xlink:title=" ">
<polygon fill="none" stroke="black" points="346,-57.41 346,-87.41 470,-87.41 470,-57.41 346,-57.41"/>
<text text-anchor="start" x="354" y="-75.41" font-family="Helvetica" font-size="10.00">CDPL::Util::ObjectStack</text>
<text text-anchor="middle" x="408" y="-64.41" font-family="Helvetica" font-size="10.00">&lt; State &gt;</text>
</a>
</g>
</g>
<!-- Node1&#45;&gt;Node22 -->
<g id="edge21" class="edge">
<title>Node1&#45;&gt;Node22</title>
<path fill="none" stroke="orange" stroke-dasharray="5,2" d="M75.88,-517.75C79.87,-438.42 99.06,-143.3 166,-85.41 215.68,-42.45 294.88,-47.22 348.82,-57.38"/>
<polygon fill="orange" stroke="orange" points="72.38,-517.68 75.4,-527.84 79.37,-518.02 72.38,-517.68"/>
<text text-anchor="middle" x="238.5" y="-88.41" font-family="Helvetica" font-size="10.00"> &lt; State &gt;</text>
</g>
<!-- Node23 -->
<g id="node23" class="node">
<title>Node23</title>
<g id="a_node23"><a xlink:href="classCDPL_1_1Util_1_1ObjectStack.html" target="_top" xlink:title=" ">
<polygon fill="none" stroke="black" points="346,-8.41 346,-38.41 470,-38.41 470,-8.41 346,-8.41"/>
<text text-anchor="start" x="354" y="-26.41" font-family="Helvetica" font-size="10.00">CDPL::Util::ObjectStack</text>
<text text-anchor="middle" x="408" y="-15.41" font-family="Helvetica" font-size="10.00">&lt; RingSysNode &gt;</text>
</a>
</g>
</g>
<!-- Node1&#45;&gt;Node23 -->
<g id="edge22" class="edge">
<title>Node1&#45;&gt;Node23</title>
<path fill="none" stroke="orange" stroke-dasharray="5,2" d="M75.45,-517.51C77.85,-432.42 91.87,-100.51 166,-35.41 216.13,8.61 297.15,2.51 351.23,-8.39"/>
<polygon fill="orange" stroke="orange" points="71.95,-517.54 75.19,-527.63 78.95,-517.72 71.95,-517.54"/>
<text text-anchor="middle" x="238.5" y="-38.41" font-family="Helvetica" font-size="10.00"> &lt; RingSysNode &gt;</text>
</g>
</g>
</svg>
