<?xml version="1.0" encoding="UTF-8" standalone="no"?>
<!DOCTYPE svg PUBLIC "-//W3C//DTD SVG 1.1//EN"
 "http://www.w3.org/Graphics/SVG/1.1/DTD/svg11.dtd">
<!-- Generated by graphviz version 2.44.0 (0)
 -->
<!-- Title: CDPL::Math::BoundedVector&lt; T, N &gt; Pages: 1 -->
<svg width="304pt" height="366pt"
 viewBox="0.00 0.00 303.50 366.00" xmlns="http://www.w3.org/2000/svg" xmlns:xlink="http://www.w3.org/1999/xlink">
<g id="graph0" class="graph" transform="scale(1 1) rotate(0) translate(4 362)">
<title>CDPL::Math::BoundedVector&lt; T, N &gt;</title>
<!-- Node1 -->
<g id="node1" class="node">
<title>Node1</title>
<g id="a_node1"><a xlink:title=" ">
<polygon fill="#bfbfbf" stroke="black" points="32.5,-0.5 32.5,-30.5 175.5,-30.5 175.5,-0.5 32.5,-0.5"/>
<text text-anchor="start" x="40.5" y="-18.5" font-family="Helvetica" font-size="10.00">CDPL::Math::BoundedVector</text>
<text text-anchor="middle" x="104" y="-7.5" font-family="Helvetica" font-size="10.00">&lt; T, N &gt;</text>
</a>
</g>
</g>
<!-- Node2 -->
<g id="node2" class="node">
<title>Node2</title>
<g id="a_node2"><a xlink:href="classCDPL_1_1Math_1_1VectorContainer.html" target="_top" xlink:title=" ">
<polygon fill="none" stroke="black" points="31,-68.5 31,-98.5 177,-98.5 177,-68.5 31,-68.5"/>
<text text-anchor="start" x="39" y="-86.5" font-family="Helvetica" font-size="10.00">CDPL::Math::VectorContainer</text>
<text text-anchor="middle" x="104" y="-75.5" font-family="Helvetica" font-size="10.00">&lt; BoundedVector&lt; T, N &gt; &gt;</text>
</a>
</g>
</g>
<!-- Node2&#45;&gt;Node1 -->
<g id="edge1" class="edge">
<title>Node2&#45;&gt;Node1</title>
<path fill="none" stroke="midnightblue" d="M104,-58.03C104,-48.86 104,-38.74 104,-30.79"/>
<polygon fill="midnightblue" stroke="midnightblue" points="100.5,-58.18 104,-68.18 107.5,-58.18 100.5,-58.18"/>
</g>
<!-- Node3 -->
<g id="node3" class="node">
<title>Node3</title>
<g id="a_node3"><a xlink:href="classCDPL_1_1Math_1_1VectorExpression.html" target="_top" xlink:title=" ">
<polygon fill="none" stroke="black" points="0,-281.5 0,-300.5 178,-300.5 178,-281.5 0,-281.5"/>
<text text-anchor="middle" x="89" y="-288.5" font-family="Helvetica" font-size="10.00">CDPL::Math::VectorExpression&lt; E &gt;</text>
</a>
</g>
</g>
<!-- Node3&#45;&gt;Node2 -->
<g id="edge2" class="edge">
<title>Node3&#45;&gt;Node2</title>
<path fill="none" stroke="midnightblue" d="M90.36,-271.32C93.33,-230.69 100.31,-135.02 102.96,-98.77"/>
<polygon fill="midnightblue" stroke="midnightblue" points="86.86,-271.2 89.63,-281.43 93.84,-271.71 86.86,-271.2"/>
</g>
<!-- Node6 -->
<g id="node6" class="node">
<title>Node6</title>
<g id="a_node6"><a xlink:href="classCDPL_1_1Math_1_1VectorExpression.html" target="_top" xlink:title=" ">
<polygon fill="none" stroke="black" points="116.5,-214.5 116.5,-233.5 295.5,-233.5 295.5,-214.5 116.5,-214.5"/>
<text text-anchor="middle" x="206" y="-221.5" font-family="Helvetica" font-size="10.00">CDPL::Math::VectorExpression&lt; C &gt;</text>
</a>
</g>
</g>
<!-- Node3&#45;&gt;Node6 -->
<g id="edge7" class="edge">
<title>Node3&#45;&gt;Node6</title>
<path fill="none" stroke="orange" stroke-dasharray="5,2" d="M113.68,-276.29C136.87,-263.4 170.86,-244.52 190.47,-233.63"/>
<polygon fill="orange" stroke="orange" points="111.82,-273.32 104.78,-281.23 115.22,-279.44 111.82,-273.32"/>
<text text-anchor="middle" x="168.5" y="-255" font-family="Helvetica" font-size="10.00"> &lt; C &gt;</text>
</g>
<!-- Node4 -->
<g id="node4" class="node">
<title>Node4</title>
<g id="a_node4"><a xlink:href="classCDPL_1_1Math_1_1Expression.html" target="_top" xlink:title=" ">
<polygon fill="none" stroke="black" points="72,-338.5 72,-357.5 222,-357.5 222,-338.5 72,-338.5"/>
<text text-anchor="middle" x="147" y="-345.5" font-family="Helvetica" font-size="10.00">CDPL::Math::Expression&lt; E &gt;</text>
</a>
</g>
</g>
<!-- Node4&#45;&gt;Node3 -->
<g id="edge3" class="edge">
<title>Node4&#45;&gt;Node3</title>
<path fill="none" stroke="midnightblue" d="M130.57,-331.42C120.08,-321.47 106.87,-308.94 98.19,-300.71"/>
<polygon fill="midnightblue" stroke="midnightblue" points="128.27,-334.06 137.94,-338.41 133.09,-328.99 128.27,-334.06"/>
</g>
<!-- Node4&#45;&gt;Node6 -->
<g id="edge6" class="edge">
<title>Node4&#45;&gt;Node6</title>
<path fill="none" stroke="midnightblue" d="M163.96,-331.33C172.02,-323.03 181.14,-312.24 187,-301 198.69,-278.57 203.42,-248.61 205.14,-233.91"/>
<polygon fill="midnightblue" stroke="midnightblue" points="161.38,-328.95 156.7,-338.46 166.29,-333.95 161.38,-328.95"/>
</g>
<!-- Node5 -->
<g id="node5" class="node">
<title>Node5</title>
<g id="a_node5"><a xlink:href="classCDPL_1_1Math_1_1VectorContainer.html" target="_top" xlink:title=" ">
<polygon fill="none" stroke="black" points="118,-157.5 118,-176.5 290,-176.5 290,-157.5 118,-157.5"/>
<text text-anchor="middle" x="204" y="-164.5" font-family="Helvetica" font-size="10.00">CDPL::Math::VectorContainer&lt; C &gt;</text>
</a>
</g>
</g>
<!-- Node5&#45;&gt;Node2 -->
<g id="edge4" class="edge">
<title>Node5&#45;&gt;Node2</title>
<path fill="none" stroke="orange" stroke-dasharray="5,2" d="M185.11,-150.61C166.75,-135.64 139.1,-113.11 121.3,-98.6"/>
<polygon fill="orange" stroke="orange" points="183.34,-153.67 193.3,-157.28 187.76,-148.25 183.34,-153.67"/>
<text text-anchor="start" x="168" y="-131" font-family="Helvetica" font-size="10.00"> &lt; BoundedVector&lt; T,</text>
<text text-anchor="middle" x="216" y="-120" font-family="Helvetica" font-size="10.00"> N &gt; &gt;</text>
</g>
<!-- Node6&#45;&gt;Node5 -->
<g id="edge5" class="edge">
<title>Node6&#45;&gt;Node5</title>
<path fill="none" stroke="midnightblue" d="M205.31,-204.12C204.98,-194.82 204.58,-184.06 204.32,-176.71"/>
<polygon fill="midnightblue" stroke="midnightblue" points="201.83,-204.54 205.69,-214.41 208.82,-204.29 201.83,-204.54"/>
</g>
</g>
</svg>
