<?xml version="1.0" encoding="UTF-8" standalone="no"?>
<!DOCTYPE svg PUBLIC "-//W3C//DTD SVG 1.1//EN"
 "http://www.w3.org/Graphics/SVG/1.1/DTD/svg11.dtd">
<!-- Generated by graphviz version 2.44.0 (0)
 -->
<!-- Title: CDPL::Math::ScalingMatrix&lt; T &gt; Pages: 1 -->
<svg width="303pt" height="344pt"
 viewBox="0.00 0.00 302.50 344.00" xmlns="http://www.w3.org/2000/svg" xmlns:xlink="http://www.w3.org/1999/xlink">
<g id="graph0" class="graph" transform="scale(1 1) rotate(0) translate(4 340)">
<title>CDPL::Math::ScalingMatrix&lt; T &gt;</title>
<!-- Node1 -->
<g id="node1" class="node">
<title>Node1</title>
<g id="a_node1"><a xlink:title=" ">
<polygon fill="#bfbfbf" stroke="black" points="24.5,-0.5 24.5,-19.5 184.5,-19.5 184.5,-0.5 24.5,-0.5"/>
<text text-anchor="middle" x="104.5" y="-7.5" font-family="Helvetica" font-size="10.00">CDPL::Math::ScalingMatrix&lt; T &gt;</text>
</a>
</g>
</g>
<!-- Node2 -->
<g id="node2" class="node">
<title>Node2</title>
<g id="a_node2"><a xlink:href="classCDPL_1_1Math_1_1MatrixContainer.html" target="_top" xlink:title=" ">
<polygon fill="none" stroke="black" points="31.5,-57.5 31.5,-87.5 177.5,-87.5 177.5,-57.5 31.5,-57.5"/>
<text text-anchor="start" x="39.5" y="-75.5" font-family="Helvetica" font-size="10.00">CDPL::Math::MatrixContainer</text>
<text text-anchor="middle" x="104.5" y="-64.5" font-family="Helvetica" font-size="10.00">&lt; ScalingMatrix&lt; T &gt; &gt;</text>
</a>
</g>
</g>
<!-- Node2&#45;&gt;Node1 -->
<g id="edge1" class="edge">
<title>Node2&#45;&gt;Node1</title>
<path fill="none" stroke="midnightblue" d="M104.5,-47.35C104.5,-37.51 104.5,-26.78 104.5,-19.54"/>
<polygon fill="midnightblue" stroke="midnightblue" points="101,-47.47 104.5,-57.47 108,-47.47 101,-47.47"/>
</g>
<!-- Node3 -->
<g id="node3" class="node">
<title>Node3</title>
<g id="a_node3"><a xlink:href="classCDPL_1_1Math_1_1MatrixExpression.html" target="_top" xlink:title=" ">
<polygon fill="none" stroke="black" points="0,-259.5 0,-278.5 177,-278.5 177,-259.5 0,-259.5"/>
<text text-anchor="middle" x="88.5" y="-266.5" font-family="Helvetica" font-size="10.00">CDPL::Math::MatrixExpression&lt; E &gt;</text>
</a>
</g>
</g>
<!-- Node3&#45;&gt;Node2 -->
<g id="edge2" class="edge">
<title>Node3&#45;&gt;Node2</title>
<path fill="none" stroke="midnightblue" d="M90.06,-249.01C93.26,-210.11 100.5,-122.14 103.33,-87.7"/>
<polygon fill="midnightblue" stroke="midnightblue" points="86.54,-249.14 89.21,-259.39 93.52,-249.71 86.54,-249.14"/>
</g>
<!-- Node6 -->
<g id="node6" class="node">
<title>Node6</title>
<g id="a_node6"><a xlink:href="classCDPL_1_1Math_1_1MatrixExpression.html" target="_top" xlink:title=" ">
<polygon fill="none" stroke="black" points="116.5,-192.5 116.5,-211.5 294.5,-211.5 294.5,-192.5 116.5,-192.5"/>
<text text-anchor="middle" x="205.5" y="-199.5" font-family="Helvetica" font-size="10.00">CDPL::Math::MatrixExpression&lt; C &gt;</text>
</a>
</g>
</g>
<!-- Node3&#45;&gt;Node6 -->
<g id="edge7" class="edge">
<title>Node3&#45;&gt;Node6</title>
<path fill="none" stroke="orange" stroke-dasharray="5,2" d="M113.18,-254.29C136.37,-241.4 170.36,-222.52 189.97,-211.63"/>
<polygon fill="orange" stroke="orange" points="111.32,-251.32 104.28,-259.23 114.72,-257.44 111.32,-251.32"/>
<text text-anchor="middle" x="168" y="-233" font-family="Helvetica" font-size="10.00"> &lt; C &gt;</text>
</g>
<!-- Node4 -->
<g id="node4" class="node">
<title>Node4</title>
<g id="a_node4"><a xlink:href="classCDPL_1_1Math_1_1Expression.html" target="_top" xlink:title=" ">
<polygon fill="none" stroke="black" points="71.5,-316.5 71.5,-335.5 221.5,-335.5 221.5,-316.5 71.5,-316.5"/>
<text text-anchor="middle" x="146.5" y="-323.5" font-family="Helvetica" font-size="10.00">CDPL::Math::Expression&lt; E &gt;</text>
</a>
</g>
</g>
<!-- Node4&#45;&gt;Node3 -->
<g id="edge3" class="edge">
<title>Node4&#45;&gt;Node3</title>
<path fill="none" stroke="midnightblue" d="M130.07,-309.42C119.58,-299.47 106.37,-286.94 97.69,-278.71"/>
<polygon fill="midnightblue" stroke="midnightblue" points="127.77,-312.06 137.44,-316.41 132.59,-306.99 127.77,-312.06"/>
</g>
<!-- Node4&#45;&gt;Node6 -->
<g id="edge6" class="edge">
<title>Node4&#45;&gt;Node6</title>
<path fill="none" stroke="midnightblue" d="M163.46,-309.33C171.52,-301.03 180.64,-290.24 186.5,-279 198.19,-256.57 202.92,-226.61 204.64,-211.91"/>
<polygon fill="midnightblue" stroke="midnightblue" points="160.88,-306.95 156.2,-316.46 165.79,-311.95 160.88,-306.95"/>
</g>
<!-- Node5 -->
<g id="node5" class="node">
<title>Node5</title>
<g id="a_node5"><a xlink:href="classCDPL_1_1Math_1_1MatrixContainer.html" target="_top" xlink:title=" ">
<polygon fill="none" stroke="black" points="118,-135.5 118,-154.5 289,-154.5 289,-135.5 118,-135.5"/>
<text text-anchor="middle" x="203.5" y="-142.5" font-family="Helvetica" font-size="10.00">CDPL::Math::MatrixContainer&lt; C &gt;</text>
</a>
</g>
</g>
<!-- Node5&#45;&gt;Node2 -->
<g id="edge4" class="edge">
<title>Node5&#45;&gt;Node2</title>
<path fill="none" stroke="orange" stroke-dasharray="5,2" d="M183.09,-129.47C165.85,-117.19 141.32,-99.72 124.27,-87.58"/>
<polygon fill="orange" stroke="orange" points="181.18,-132.41 191.36,-135.36 185.25,-126.7 181.18,-132.41"/>
<text text-anchor="middle" x="215" y="-109" font-family="Helvetica" font-size="10.00"> &lt; ScalingMatrix&lt; T &gt; &gt;</text>
</g>
<!-- Node6&#45;&gt;Node5 -->
<g id="edge5" class="edge">
<title>Node6&#45;&gt;Node5</title>
<path fill="none" stroke="midnightblue" d="M204.81,-182.12C204.48,-172.82 204.08,-162.06 203.82,-154.71"/>
<polygon fill="midnightblue" stroke="midnightblue" points="201.33,-182.54 205.19,-192.41 208.32,-182.29 201.33,-182.54"/>
</g>
</g>
</svg>
