<?xml version="1.0" encoding="UTF-8" standalone="no"?>
<!DOCTYPE svg PUBLIC "-//W3C//DTD SVG 1.1//EN"
 "http://www.w3.org/Graphics/SVG/1.1/DTD/svg11.dtd">
<!-- Generated by graphviz version 2.44.0 (0)
 -->
<!-- Title: CDPL::Base::DataInputHandler&lt; T &gt; Pages: 1 -->
<svg width="716pt" height="149pt"
 viewBox="0.00 0.00 716.00 149.00" xmlns="http://www.w3.org/2000/svg" xmlns:xlink="http://www.w3.org/1999/xlink">
<g id="graph0" class="graph" transform="scale(1 1) rotate(0) translate(4 145)">
<title>CDPL::Base::DataInputHandler&lt; T &gt;</title>
<!-- Node1 -->
<g id="node1" class="node">
<title>Node1</title>
<g id="a_node1"><a xlink:title="A factory interface providing methods for the creation of Base::DataReader instances handling a parti...">
<polygon fill="#bfbfbf" stroke="black" points="0,-61 0,-80 177,-80 177,-61 0,-61"/>
<text text-anchor="middle" x="88.5" y="-68" font-family="Helvetica" font-size="10.00">CDPL::Base::DataInputHandler&lt; T &gt;</text>
</a>
</g>
</g>
<!-- Node2 -->
<g id="node2" class="node">
<title>Node2</title>
<g id="a_node2"><a xlink:href="classCDPL_1_1Base_1_1DataInputHandler.html" target="_top" xlink:title=" ">
<polygon fill="none" stroke="black" points="333,-108.5 333,-138.5 486,-138.5 486,-108.5 333,-108.5"/>
<text text-anchor="start" x="341" y="-126.5" font-family="Helvetica" font-size="10.00">CDPL::Base::DataInputHandler</text>
<text text-anchor="middle" x="409.5" y="-115.5" font-family="Helvetica" font-size="10.00">&lt; Chem::Molecule &gt;</text>
</a>
</g>
</g>
<!-- Node1&#45;&gt;Node2 -->
<g id="edge1" class="edge">
<title>Node1&#45;&gt;Node2</title>
<path fill="none" stroke="orange" stroke-dasharray="5,2" d="M133.73,-82.61C152.52,-87.44 174.72,-92.73 195,-96.5 240.36,-104.93 291.65,-111.51 332.58,-116.06"/>
<polygon fill="orange" stroke="orange" points="134.53,-79.2 123.97,-80.07 132.76,-85.98 134.53,-79.2"/>
<text text-anchor="middle" x="249" y="-114.5" font-family="Helvetica" font-size="10.00"> &lt; Chem::Molecule &gt;</text>
</g>
<!-- Node4 -->
<g id="node4" class="node">
<title>Node4</title>
<g id="a_node4"><a xlink:href="classCDPL_1_1Base_1_1DataInputHandler.html" target="_top" xlink:title=" ">
<polygon fill="none" stroke="black" points="321,-55.5 321,-85.5 498,-85.5 498,-55.5 321,-55.5"/>
<text text-anchor="start" x="329" y="-73.5" font-family="Helvetica" font-size="10.00">CDPL::Base::DataInputHandler</text>
<text text-anchor="middle" x="409.5" y="-62.5" font-family="Helvetica" font-size="10.00">&lt; typename ReaderImpl::DataType &gt;</text>
</a>
</g>
</g>
<!-- Node1&#45;&gt;Node4 -->
<g id="edge3" class="edge">
<title>Node1&#45;&gt;Node4</title>
<path fill="none" stroke="orange" stroke-dasharray="5,2" d="M187.2,-70.5C229.82,-70.5 279.41,-70.5 320.83,-70.5"/>
<polygon fill="orange" stroke="orange" points="187.09,-67 177.09,-70.5 187.09,-74 187.09,-67"/>
<text text-anchor="start" x="195" y="-84.5" font-family="Helvetica" font-size="10.00"> &lt; typename ReaderImpl</text>
<text text-anchor="middle" x="249" y="-73.5" font-family="Helvetica" font-size="10.00">::DataType &gt;</text>
</g>
<!-- Node6 -->
<g id="node6" class="node">
<title>Node6</title>
<g id="a_node6"><a xlink:href="classCDPL_1_1Base_1_1DataInputHandler.html" target="_top" xlink:title=" ">
<polygon fill="none" stroke="black" points="333,-3.5 333,-33.5 486,-33.5 486,-3.5 333,-3.5"/>
<text text-anchor="start" x="341" y="-21.5" font-family="Helvetica" font-size="10.00">CDPL::Base::DataInputHandler</text>
<text text-anchor="middle" x="409.5" y="-10.5" font-family="Helvetica" font-size="10.00">&lt; Pharmacophore &gt;</text>
</a>
</g>
</g>
<!-- Node1&#45;&gt;Node6 -->
<g id="edge5" class="edge">
<title>Node1&#45;&gt;Node6</title>
<path fill="none" stroke="orange" stroke-dasharray="5,2" d="M158.03,-59.33C209.45,-50.95 279.82,-39.48 332.88,-30.83"/>
<polygon fill="orange" stroke="orange" points="157.32,-55.9 148.01,-60.96 158.44,-62.81 157.32,-55.9"/>
<text text-anchor="middle" x="249" y="-54.5" font-family="Helvetica" font-size="10.00"> &lt; Pharmacophore &gt;</text>
</g>
<!-- Node3 -->
<g id="node3" class="node">
<title>Node3</title>
<g id="a_node3"><a xlink:href="classCDPL_1_1Pharm_1_1PSDMoleculeInputHandler.html" target="_top" xlink:title="A handler for the input of molecule data in the PSD&#45;format of the CDPL.">
<polygon fill="none" stroke="black" points="550,-110.5 550,-140.5 693,-140.5 693,-110.5 550,-110.5"/>
<text text-anchor="start" x="558" y="-128.5" font-family="Helvetica" font-size="10.00">CDPL::Pharm::PSDMolecule</text>
<text text-anchor="middle" x="621.5" y="-117.5" font-family="Helvetica" font-size="10.00">InputHandler</text>
</a>
</g>
</g>
<!-- Node2&#45;&gt;Node3 -->
<g id="edge2" class="edge">
<title>Node2&#45;&gt;Node3</title>
<path fill="none" stroke="midnightblue" d="M496.38,-124.32C514.16,-124.49 532.69,-124.66 549.85,-124.83"/>
<polygon fill="midnightblue" stroke="midnightblue" points="496.05,-120.81 486.02,-124.22 495.98,-127.81 496.05,-120.81"/>
</g>
<!-- Node5 -->
<g id="node5" class="node">
<title>Node5</title>
<g id="a_node5"><a xlink:href="classCDPL_1_1Util_1_1DefaultDataInputHandler.html" target="_top" xlink:title="DefaultDataInputHandler.">
<polygon fill="none" stroke="black" points="547.5,-50 547.5,-91 695.5,-91 695.5,-50 547.5,-50"/>
<text text-anchor="start" x="555.5" y="-79" font-family="Helvetica" font-size="10.00">CDPL::Util::DefaultDataInput</text>
<text text-anchor="start" x="555.5" y="-68" font-family="Helvetica" font-size="10.00">Handler&lt; ReaderImpl, Format,</text>
<text text-anchor="middle" x="621.5" y="-57" font-family="Helvetica" font-size="10.00"> DataType &gt;</text>
</a>
</g>
</g>
<!-- Node4&#45;&gt;Node5 -->
<g id="edge4" class="edge">
<title>Node4&#45;&gt;Node5</title>
<path fill="none" stroke="midnightblue" d="M508.11,-70.5C521.34,-70.5 534.72,-70.5 547.42,-70.5"/>
<polygon fill="midnightblue" stroke="midnightblue" points="508.04,-67 498.04,-70.5 508.04,-74 508.04,-67"/>
</g>
<!-- Node7 -->
<g id="node7" class="node">
<title>Node7</title>
<g id="a_node7"><a xlink:href="classCDPL_1_1Pharm_1_1PSDPharmacophoreInputHandler.html" target="_top" xlink:title="A handler for the input of pharmacophore data in the PSD&#45;format of the CDPL.">
<polygon fill="none" stroke="black" points="535,-0.5 535,-30.5 708,-30.5 708,-0.5 535,-0.5"/>
<text text-anchor="start" x="543" y="-18.5" font-family="Helvetica" font-size="10.00">CDPL::Pharm::PSDPharmacophore</text>
<text text-anchor="middle" x="621.5" y="-7.5" font-family="Helvetica" font-size="10.00">InputHandler</text>
</a>
</g>
</g>
<!-- Node6&#45;&gt;Node7 -->
<g id="edge6" class="edge">
<title>Node6&#45;&gt;Node7</title>
<path fill="none" stroke="midnightblue" d="M496.18,-17.28C508.97,-17.09 522.16,-16.9 534.96,-16.72"/>
<polygon fill="midnightblue" stroke="midnightblue" points="495.97,-13.78 486.02,-17.42 496.07,-20.78 495.97,-13.78"/>
</g>
</g>
</svg>
