<?xml version="1.0" encoding="UTF-8" standalone="no"?>
<!DOCTYPE svg PUBLIC "-//W3C//DTD SVG 1.1//EN"
 "http://www.w3.org/Graphics/SVG/1.1/DTD/svg11.dtd">
<!-- Generated by graphviz version 2.44.0 (0)
 -->
<!-- Title: CDPL::Util::DecompressionIStream&lt; CompAlgo, CharT, TraitsT &gt; Pages: 1 -->
<!--zoomable 88 -->
<svg id="main" version="1.1" xmlns="http://www.w3.org/2000/svg" xmlns:xlink="http://www.w3.org/1999/xlink" xml:space="preserve" onload="init(evt)">
<style type="text/css"><![CDATA[
.edge:hover path { stroke: red; }
.edge:hover polygon { stroke: red; fill: red; }
]]></style>
<script type="text/javascript"><![CDATA[
var edges = document.getElementsByTagName('g');
if (edges && edges.length) {
  for (var i=0;i<edges.length;i++) {
    if (edges[i].id.substr(0,4)=='edge') {
      edges[i].setAttribute('class','edge');
    }
  }
}
]]></script>
        <defs>
                <circle id="rim" cx="0" cy="0" r="7"/>
                <circle id="rim2" cx="0" cy="0" r="3.5"/>
                <g id="zoomPlus">
                        <use xlink:href="#rim" fill="#404040">
                                <set attributeName="fill" to="#808080" begin="zoomplus.mouseover" end="zoomplus.mouseout"/>
                        </use>
                        <path d="M-4,0h8M0,-4v8" fill="none" stroke="white" stroke-width="1.5" pointer-events="none"/>
                </g>
                <g id="zoomMin">
                        <use xlink:href="#rim" fill="#404040">
                                <set attributeName="fill" to="#808080" begin="zoomminus.mouseover" end="zoomminus.mouseout"/>
                        </use>
                        <path d="M-4,0h8" fill="none" stroke="white" stroke-width="1.5" pointer-events="none"/>
                </g>
                <g id="dirArrow">
                        <path fill="none" stroke="white" stroke-width="1.5" d="M0,-3.0v7 M-2.5,-0.5L0,-3.0L2.5,-0.5"/>
                </g>
               <g id="resetDef">
                       <use xlink:href="#rim2" fill="#404040">
                               <set attributeName="fill" to="#808080" begin="reset.mouseover" end="reset.mouseout"/>
                       </use>
               </g>
        </defs>

<script type="text/javascript">
var viewWidth = 917;
var viewHeight = 88;
var sectionId = 'dynsection-0';
</script>
<script xlink:href="svgpan.js"/>
<svg id="graph" class="graph">
<g id="viewport">
<title>CDPL::Util::DecompressionIStream&lt; CompAlgo, CharT, TraitsT &gt;</title>
<!-- Node1 -->
<g id="node1" class="node">
<title>Node1</title>
<g id="a_node1"><a xlink:title=" ">
<polygon fill="#bfbfbf" stroke="black" points="768,-19 768,-60 909,-60 909,-19 768,-19"/>
<text text-anchor="start" x="776" y="-48" font-family="Helvetica" font-size="10.00">CDPL::Util::Decompression</text>
<text text-anchor="start" x="776" y="-37" font-family="Helvetica" font-size="10.00">IStream&lt; CompAlgo, CharT,</text>
<text text-anchor="middle" x="838.5" y="-26" font-family="Helvetica" font-size="10.00"> TraitsT &gt;</text>
</a>
</g>
</g>
<!-- Node2 -->
<g id="node2" class="node">
<title>Node2</title>
<g id="a_node2"><a xlink:href="classCDPL_1_1Util_1_1CompressionStreamBase.html" target="_top" xlink:title=" ">
<polygon fill="none" stroke="black" points="572,-13.5 572,-65.5 731,-65.5 731,-13.5 572,-13.5"/>
<text text-anchor="start" x="580" y="-53.5" font-family="Helvetica" font-size="10.00">CDPL::Util::CompressionStream</text>
<text text-anchor="start" x="580" y="-42.5" font-family="Helvetica" font-size="10.00">Base&lt; CompAlgo, std::basic</text>
<text text-anchor="start" x="580" y="-31.5" font-family="Helvetica" font-size="10.00">_istream&lt; char, std::char_traits</text>
<text text-anchor="middle" x="651.5" y="-20.5" font-family="Helvetica" font-size="10.00">&lt; char &gt; &gt; &gt;</text>
</a>
</g>
</g>
<!-- Node2&#45;&gt;Node1 -->
<g id="edge1" class="edge">
<title>Node2&#45;&gt;Node1</title>
<path fill="none" stroke="midnightblue" d="M741.28,-39.5C750.23,-39.5 759.22,-39.5 767.92,-39.5"/>
<polygon fill="midnightblue" stroke="midnightblue" points="741.22,-36 731.22,-39.5 741.22,-43 741.22,-36"/>
</g>
<!-- Node3 -->
<g id="node3" class="node">
<title>Node3</title>
<g id="a_node3"><a xlink:title=" ">
<polygon fill="none" stroke="#bfbfbf" points="297,-49.5 297,-79.5 394,-79.5 394,-49.5 297,-49.5"/>
<text text-anchor="start" x="305" y="-67.5" font-family="Helvetica" font-size="10.00">std::basic_istream</text>
<text text-anchor="middle" x="345.5" y="-56.5" font-family="Helvetica" font-size="10.00">&lt; Char &gt;</text>
</a>
</g>
</g>
<!-- Node3&#45;&gt;Node2 -->
<g id="edge2" class="edge">
<title>Node3&#45;&gt;Node2</title>
<path fill="none" stroke="midnightblue" d="M404.56,-60.79C446.19,-58.01 503.58,-53.93 554,-49.5 559.79,-48.99 565.77,-48.44 571.79,-47.86"/>
<polygon fill="midnightblue" stroke="midnightblue" points="404.08,-57.31 394.33,-61.47 404.54,-64.3 404.08,-57.31"/>
</g>
<!-- Node4 -->
<g id="node4" class="node">
<title>Node4</title>
<g id="a_node4"><a xlink:title=" ">
<polygon fill="none" stroke="#bfbfbf" points="112,-55 112,-74 228,-74 228,-55 112,-55"/>
<text text-anchor="middle" x="170" y="-62" font-family="Helvetica" font-size="10.00">std::basic_ios&lt; Char &gt;</text>
</a>
</g>
</g>
<!-- Node4&#45;&gt;Node3 -->
<g id="edge3" class="edge">
<title>Node4&#45;&gt;Node3</title>
<path fill="none" stroke="midnightblue" d="M238.35,-64.5C257.87,-64.5 278.78,-64.5 296.83,-64.5"/>
<polygon fill="midnightblue" stroke="midnightblue" points="238.29,-61 228.29,-64.5 238.29,-68 238.29,-61"/>
</g>
<!-- Node5 -->
<g id="node5" class="node">
<title>Node5</title>
<g id="a_node5"><a xlink:title=" ">
<polygon fill="none" stroke="#bfbfbf" points="0,-55 0,-74 75,-74 75,-55 0,-55"/>
<text text-anchor="middle" x="37.5" y="-62" font-family="Helvetica" font-size="10.00">std::ios_base</text>
</a>
</g>
</g>
<!-- Node5&#45;&gt;Node4 -->
<g id="edge4" class="edge">
<title>Node5&#45;&gt;Node4</title>
<path fill="none" stroke="midnightblue" d="M85.32,-64.5C93.84,-64.5 102.81,-64.5 111.59,-64.5"/>
<polygon fill="midnightblue" stroke="midnightblue" points="85.2,-61 75.2,-64.5 85.2,-68 85.2,-61"/>
</g>
<!-- Node6 -->
<g id="node6" class="node">
<title>Node6</title>
<g id="a_node6"><a xlink:href="classCDPL_1_1Util_1_1CompressionStreamBase.html" target="_top" xlink:title=" ">
<polygon fill="none" stroke="black" points="265,-0.5 265,-30.5 426,-30.5 426,-0.5 265,-0.5"/>
<text text-anchor="start" x="273" y="-18.5" font-family="Helvetica" font-size="10.00">CDPL::Util::CompressionStream</text>
<text text-anchor="middle" x="345.5" y="-7.5" font-family="Helvetica" font-size="10.00">Base&lt; CompAlgo, StreamType &gt;</text>
</a>
</g>
</g>
<!-- Node6&#45;&gt;Node2 -->
<g id="edge5" class="edge">
<title>Node6&#45;&gt;Node2</title>
<path fill="none" stroke="orange" stroke-dasharray="5,2" d="M436.25,-11.46C472.88,-10.97 515.58,-11.89 554,-16.5 559.81,-17.2 565.79,-18.12 571.77,-19.18"/>
<polygon fill="orange" stroke="orange" points="436.02,-7.96 426.08,-11.63 436.14,-14.96 436.02,-7.96"/>
<text text-anchor="start" x="444" y="-41.5" font-family="Helvetica" font-size="10.00"> &lt; CompAlgo, std::basic</text>
<text text-anchor="start" x="444" y="-30.5" font-family="Helvetica" font-size="10.00">_istream&lt; char, std::char</text>
<text text-anchor="middle" x="499" y="-19.5" font-family="Helvetica" font-size="10.00">_traits&lt; char &gt; &gt; &gt;</text>
</g>
<!-- Node7 -->
<g id="node7" class="node">
<title>Node7</title>
<g id="a_node7"><a xlink:title=" ">
<polygon fill="none" stroke="#bfbfbf" points="135.5,-6 135.5,-25 204.5,-25 204.5,-6 135.5,-6"/>
<text text-anchor="middle" x="170" y="-13" font-family="Helvetica" font-size="10.00">StreamType</text>
</a>
</g>
</g>
<!-- Node7&#45;&gt;Node6 -->
<g id="edge6" class="edge">
<title>Node7&#45;&gt;Node6</title>
<path fill="none" stroke="midnightblue" d="M214.95,-15.5C230.11,-15.5 247.6,-15.5 264.72,-15.5"/>
<polygon fill="midnightblue" stroke="midnightblue" points="214.86,-12 204.86,-15.5 214.86,-19 214.86,-12"/>
</g>
</g>
</svg>
        <g id="navigator" transform="translate(0 0)" fill="#404254">
                <rect fill="#f2f5e9" fill-opacity="0.5" stroke="#606060" stroke-width=".5" x="0" y="0" width="60" height="60"/>
                <use id="zoomplus" xlink:href="#zoomPlus" x="17" y="9" onmousedown="handleZoom(evt,'in')"/>
                <use id="zoomminus" xlink:href="#zoomMin" x="42" y="9" onmousedown="handleZoom(evt,'out')"/>
                <use id="reset" xlink:href="#resetDef" x="30" y="36" onmousedown="handleReset()"/>
                <g id="arrowUp" xlink:href="#dirArrow" transform="translate(30 24)" onmousedown="handlePan(0,-1)">
                  <use xlink:href="#rim" fill="#404040">
                        <set attributeName="fill" to="#808080" begin="arrowUp.mouseover" end="arrowUp.mouseout"/>
                  </use>
                  <path fill="none" stroke="white" stroke-width="1.5" d="M0,-3.0v7 M-2.5,-0.5L0,-3.0L2.5,-0.5"/>
                </g>
                <g id="arrowRight" xlink:href="#dirArrow" transform="rotate(90) translate(36 -43)" onmousedown="handlePan(1,0)">
                  <use xlink:href="#rim" fill="#404040">
                        <set attributeName="fill" to="#808080" begin="arrowRight.mouseover" end="arrowRight.mouseout"/>
                  </use>
                  <path fill="none" stroke="white" stroke-width="1.5" d="M0,-3.0v7 M-2.5,-0.5L0,-3.0L2.5,-0.5"/>
                </g>
                <g id="arrowDown" xlink:href="#dirArrow" transform="rotate(180) translate(-30 -48)" onmousedown="handlePan(0,1)">
                  <use xlink:href="#rim" fill="#404040">
                        <set attributeName="fill" to="#808080" begin="arrowDown.mouseover" end="arrowDown.mouseout"/>
                  </use>
                  <path fill="none" stroke="white" stroke-width="1.5" d="M0,-3.0v7 M-2.5,-0.5L0,-3.0L2.5,-0.5"/>
                </g>
                <g id="arrowLeft" xlink:href="#dirArrow" transform="rotate(270) translate(-36 17)" onmousedown="handlePan(-1,0)">
                  <use xlink:href="#rim" fill="#404040">
                        <set attributeName="fill" to="#808080" begin="arrowLeft.mouseover" end="arrowLeft.mouseout"/>
                  </use>
                  <path fill="none" stroke="white" stroke-width="1.5" d="M0,-3.0v7 M-2.5,-0.5L0,-3.0L2.5,-0.5"/>
                </g>
        </g>
        <svg viewBox="0 0 15 15" width="100%" height="30px" preserveAspectRatio="xMaxYMin meet">
         <g id="arrow_out" transform="scale(0.3 0.3)">
          <a xlink:href="classCDPL_1_1Util_1_1DecompressionIStream__inherit__graph_org.svg" target="_base">
           <rect id="button" ry="5" rx="5" y="6" x="6" height="38" width="38"
                fill="#f2f5e9" fill-opacity="0.5" stroke="#606060" stroke-width="1.0"/>
           <path id="arrow"
             d="M 11.500037,31.436501 C 11.940474,20.09759 22.043105,11.32322 32.158766,21.979434 L 37.068811,17.246167 C 37.068811,17.246167 37.088388,32 37.088388,32 L 22.160133,31.978069 C 22.160133,31.978069 26.997745,27.140456 26.997745,27.140456 C 18.528582,18.264221 13.291696,25.230495 11.500037,31.436501 z"
             style="fill:#404040;"/>
          </a>
         </g>
        </svg>
</svg>
