<?xml version="1.0" encoding="UTF-8" standalone="no"?>
<!DOCTYPE svg PUBLIC "-//W3C//DTD SVG 1.1//EN"
 "http://www.w3.org/Graphics/SVG/1.1/DTD/svg11.dtd">
<!-- Generated by graphviz version 2.44.0 (0)
 -->
<!-- Title: CDPL::Descr::AutoCorrelation3DVectorCalculator&lt; T &gt; Pages: 1 -->
<svg width="669pt" height="100pt"
 viewBox="0.00 0.00 669.00 99.50" xmlns="http://www.w3.org/2000/svg" xmlns:xlink="http://www.w3.org/1999/xlink">
<g id="graph0" class="graph" transform="scale(1 1) rotate(0) translate(4 95.5)">
<title>CDPL::Descr::AutoCorrelation3DVectorCalculator&lt; T &gt;</title>
<!-- Node1 -->
<g id="node1" class="node">
<title>Node1</title>
<g id="a_node1"><a xlink:title="AutoCorrelation3DVectorCalculator.">
<polygon fill="#bfbfbf" stroke="black" points="0,-27.5 0,-57.5 154,-57.5 154,-27.5 0,-27.5"/>
<text text-anchor="start" x="8" y="-45.5" font-family="Helvetica" font-size="10.00">CDPL::Descr::AutoCorrelation3</text>
<text text-anchor="middle" x="77" y="-34.5" font-family="Helvetica" font-size="10.00">DVectorCalculator&lt; T &gt;</text>
</a>
</g>
</g>
<!-- Node2 -->
<g id="node2" class="node">
<title>Node2</title>
<g id="a_node2"><a xlink:href="classCDPL_1_1Descr_1_1AutoCorrelation3DVectorCalculator.html" target="_top" xlink:title=" ">
<polygon fill="none" stroke="black" points="286,-50 286,-91 440,-91 440,-50 286,-50"/>
<text text-anchor="start" x="294" y="-79" font-family="Helvetica" font-size="10.00">CDPL::Descr::AutoCorrelation3</text>
<text text-anchor="start" x="294" y="-68" font-family="Helvetica" font-size="10.00">DVectorCalculator&lt; Pharm</text>
<text text-anchor="middle" x="363" y="-57" font-family="Helvetica" font-size="10.00">::Feature &gt;</text>
</a>
</g>
</g>
<!-- Node1&#45;&gt;Node2 -->
<g id="edge1" class="edge">
<title>Node1&#45;&gt;Node2</title>
<path fill="none" stroke="orange" stroke-dasharray="5,2" d="M164.31,-51.01C203,-54.82 248.25,-59.29 285.68,-62.98"/>
<polygon fill="orange" stroke="orange" points="164.4,-47.5 154.11,-50 163.72,-54.47 164.4,-47.5"/>
<text text-anchor="middle" x="216.5" y="-62.5" font-family="Helvetica" font-size="10.00"> &lt; Pharm::Feature &gt;</text>
</g>
<!-- Node4 -->
<g id="node4" class="node">
<title>Node4</title>
<g id="a_node4"><a xlink:href="classCDPL_1_1Descr_1_1AutoCorrelation3DVectorCalculator.html" target="_top" xlink:title=" ">
<polygon fill="none" stroke="black" points="279,-0.5 279,-30.5 447,-30.5 447,-0.5 279,-0.5"/>
<text text-anchor="start" x="287" y="-18.5" font-family="Helvetica" font-size="10.00">CDPL::Descr::AutoCorrelation3</text>
<text text-anchor="middle" x="363" y="-7.5" font-family="Helvetica" font-size="10.00">DVectorCalculator&lt; Chem::Atom &gt;</text>
</a>
</g>
</g>
<!-- Node1&#45;&gt;Node4 -->
<g id="edge3" class="edge">
<title>Node1&#45;&gt;Node4</title>
<path fill="none" stroke="orange" stroke-dasharray="5,2" d="M164.28,-32.29C166.88,-32.02 169.46,-31.76 172,-31.5 206.91,-27.99 245.49,-24.64 278.71,-21.93"/>
<polygon fill="orange" stroke="orange" points="163.73,-28.83 154.16,-33.38 164.48,-35.79 163.73,-28.83"/>
<text text-anchor="middle" x="216.5" y="-34.5" font-family="Helvetica" font-size="10.00"> &lt; Chem::Atom &gt;</text>
</g>
<!-- Node3 -->
<g id="node3" class="node">
<title>Node3</title>
<g id="a_node3"><a xlink:href="classCDPL_1_1Descr_1_1FeatureAutoCorrelation3DVectorCalculator.html" target="_top" xlink:title="FeatureAutoCorrelation3DVectorCalculator.">
<polygon fill="none" stroke="black" points="499,-55.5 499,-85.5 646,-85.5 646,-55.5 499,-55.5"/>
<text text-anchor="start" x="507" y="-73.5" font-family="Helvetica" font-size="10.00">CDPL::Descr::FeatureAuto</text>
<text text-anchor="middle" x="572.5" y="-62.5" font-family="Helvetica" font-size="10.00">Correlation3DVectorCalculator</text>
</a>
</g>
</g>
<!-- Node2&#45;&gt;Node3 -->
<g id="edge2" class="edge">
<title>Node2&#45;&gt;Node3</title>
<path fill="none" stroke="midnightblue" d="M450.09,-70.5C466.31,-70.5 483.12,-70.5 498.88,-70.5"/>
<polygon fill="midnightblue" stroke="midnightblue" points="450.09,-67 440.09,-70.5 450.09,-74 450.09,-67"/>
</g>
<!-- Node5 -->
<g id="node5" class="node">
<title>Node5</title>
<g id="a_node5"><a xlink:href="classCDPL_1_1Descr_1_1AtomAutoCorrelation3DVectorCalculator.html" target="_top" xlink:title="AtomAutoCorrelation3DVectorCalculator.">
<polygon fill="none" stroke="black" points="484,-0.5 484,-30.5 661,-30.5 661,-0.5 484,-0.5"/>
<text text-anchor="start" x="492" y="-18.5" font-family="Helvetica" font-size="10.00">CDPL::Descr::AtomAutoCorrelation3</text>
<text text-anchor="middle" x="572.5" y="-7.5" font-family="Helvetica" font-size="10.00">DVectorCalculator</text>
</a>
</g>
</g>
<!-- Node4&#45;&gt;Node5 -->
<g id="edge4" class="edge">
<title>Node4&#45;&gt;Node5</title>
<path fill="none" stroke="midnightblue" d="M457.46,-15.5C466.25,-15.5 475.13,-15.5 483.87,-15.5"/>
<polygon fill="midnightblue" stroke="midnightblue" points="457.2,-12 447.2,-15.5 457.2,-19 457.2,-12"/>
</g>
</g>
</svg>
