<?xml version="1.0" encoding="UTF-8" standalone="no"?>
<!DOCTYPE svg PUBLIC "-//W3C//DTD SVG 1.1//EN"
 "http://www.w3.org/Graphics/SVG/1.1/DTD/svg11.dtd">
<!-- Generated by graphviz version 2.44.0 (0)
 -->
<!-- Title: CDPL::Math::BoundedMatrix&lt; T, M, N &gt; Pages: 1 -->
<svg width="303pt" height="366pt"
 viewBox="0.00 0.00 302.50 366.00" xmlns="http://www.w3.org/2000/svg" xmlns:xlink="http://www.w3.org/1999/xlink">
<g id="graph0" class="graph" transform="scale(1 1) rotate(0) translate(4 362)">
<title>CDPL::Math::BoundedMatrix&lt; T, M, N &gt;</title>
<!-- Node1 -->
<g id="node1" class="node">
<title>Node1</title>
<g id="a_node1"><a xlink:title=" ">
<polygon fill="#bfbfbf" stroke="black" points="33.5,-0.5 33.5,-30.5 175.5,-30.5 175.5,-0.5 33.5,-0.5"/>
<text text-anchor="start" x="41.5" y="-18.5" font-family="Helvetica" font-size="10.00">CDPL::Math::BoundedMatrix</text>
<text text-anchor="middle" x="104.5" y="-7.5" font-family="Helvetica" font-size="10.00">&lt; T, M, N &gt;</text>
</a>
</g>
</g>
<!-- Node2 -->
<g id="node2" class="node">
<title>Node2</title>
<g id="a_node2"><a xlink:href="classCDPL_1_1Math_1_1MatrixContainer.html" target="_top" xlink:title=" ">
<polygon fill="none" stroke="black" points="29,-68.5 29,-98.5 180,-98.5 180,-68.5 29,-68.5"/>
<text text-anchor="start" x="37" y="-86.5" font-family="Helvetica" font-size="10.00">CDPL::Math::MatrixContainer</text>
<text text-anchor="middle" x="104.5" y="-75.5" font-family="Helvetica" font-size="10.00">&lt; BoundedMatrix&lt; T, M, N &gt; &gt;</text>
</a>
</g>
</g>
<!-- Node2&#45;&gt;Node1 -->
<g id="edge1" class="edge">
<title>Node2&#45;&gt;Node1</title>
<path fill="none" stroke="midnightblue" d="M104.5,-58.03C104.5,-48.86 104.5,-38.74 104.5,-30.79"/>
<polygon fill="midnightblue" stroke="midnightblue" points="101,-58.18 104.5,-68.18 108,-58.18 101,-58.18"/>
</g>
<!-- Node3 -->
<g id="node3" class="node">
<title>Node3</title>
<g id="a_node3"><a xlink:href="classCDPL_1_1Math_1_1MatrixExpression.html" target="_top" xlink:title=" ">
<polygon fill="none" stroke="black" points="0,-281.5 0,-300.5 177,-300.5 177,-281.5 0,-281.5"/>
<text text-anchor="middle" x="88.5" y="-288.5" font-family="Helvetica" font-size="10.00">CDPL::Math::MatrixExpression&lt; E &gt;</text>
</a>
</g>
</g>
<!-- Node3&#45;&gt;Node2 -->
<g id="edge2" class="edge">
<title>Node3&#45;&gt;Node2</title>
<path fill="none" stroke="midnightblue" d="M89.95,-271.32C93.12,-230.69 100.57,-135.02 103.39,-98.77"/>
<polygon fill="midnightblue" stroke="midnightblue" points="86.45,-271.19 89.17,-281.43 93.43,-271.73 86.45,-271.19"/>
</g>
<!-- Node6 -->
<g id="node6" class="node">
<title>Node6</title>
<g id="a_node6"><a xlink:href="classCDPL_1_1Math_1_1MatrixExpression.html" target="_top" xlink:title=" ">
<polygon fill="none" stroke="black" points="116.5,-214.5 116.5,-233.5 294.5,-233.5 294.5,-214.5 116.5,-214.5"/>
<text text-anchor="middle" x="205.5" y="-221.5" font-family="Helvetica" font-size="10.00">CDPL::Math::MatrixExpression&lt; C &gt;</text>
</a>
</g>
</g>
<!-- Node3&#45;&gt;Node6 -->
<g id="edge7" class="edge">
<title>Node3&#45;&gt;Node6</title>
<path fill="none" stroke="orange" stroke-dasharray="5,2" d="M113.18,-276.29C136.37,-263.4 170.36,-244.52 189.97,-233.63"/>
<polygon fill="orange" stroke="orange" points="111.32,-273.32 104.28,-281.23 114.72,-279.44 111.32,-273.32"/>
<text text-anchor="middle" x="168" y="-255" font-family="Helvetica" font-size="10.00"> &lt; C &gt;</text>
</g>
<!-- Node4 -->
<g id="node4" class="node">
<title>Node4</title>
<g id="a_node4"><a xlink:href="classCDPL_1_1Math_1_1Expression.html" target="_top" xlink:title=" ">
<polygon fill="none" stroke="black" points="71.5,-338.5 71.5,-357.5 221.5,-357.5 221.5,-338.5 71.5,-338.5"/>
<text text-anchor="middle" x="146.5" y="-345.5" font-family="Helvetica" font-size="10.00">CDPL::Math::Expression&lt; E &gt;</text>
</a>
</g>
</g>
<!-- Node4&#45;&gt;Node3 -->
<g id="edge3" class="edge">
<title>Node4&#45;&gt;Node3</title>
<path fill="none" stroke="midnightblue" d="M130.07,-331.42C119.58,-321.47 106.37,-308.94 97.69,-300.71"/>
<polygon fill="midnightblue" stroke="midnightblue" points="127.77,-334.06 137.44,-338.41 132.59,-328.99 127.77,-334.06"/>
</g>
<!-- Node4&#45;&gt;Node6 -->
<g id="edge6" class="edge">
<title>Node4&#45;&gt;Node6</title>
<path fill="none" stroke="midnightblue" d="M163.46,-331.33C171.52,-323.03 180.64,-312.24 186.5,-301 198.19,-278.57 202.92,-248.61 204.64,-233.91"/>
<polygon fill="midnightblue" stroke="midnightblue" points="160.88,-328.95 156.2,-338.46 165.79,-333.95 160.88,-328.95"/>
</g>
<!-- Node5 -->
<g id="node5" class="node">
<title>Node5</title>
<g id="a_node5"><a xlink:href="classCDPL_1_1Math_1_1MatrixContainer.html" target="_top" xlink:title=" ">
<polygon fill="none" stroke="black" points="118,-157.5 118,-176.5 289,-176.5 289,-157.5 118,-157.5"/>
<text text-anchor="middle" x="203.5" y="-164.5" font-family="Helvetica" font-size="10.00">CDPL::Math::MatrixContainer&lt; C &gt;</text>
</a>
</g>
</g>
<!-- Node5&#45;&gt;Node2 -->
<g id="edge4" class="edge">
<title>Node5&#45;&gt;Node2</title>
<path fill="none" stroke="orange" stroke-dasharray="5,2" d="M184.8,-150.61C166.62,-135.64 139.25,-113.11 121.62,-98.6"/>
<polygon fill="orange" stroke="orange" points="182.96,-153.62 192.91,-157.28 187.41,-148.22 182.96,-153.62"/>
<text text-anchor="start" x="168.5" y="-131" font-family="Helvetica" font-size="10.00"> &lt; BoundedMatrix&lt; T,</text>
<text text-anchor="middle" x="216" y="-120" font-family="Helvetica" font-size="10.00"> M, N &gt; &gt;</text>
</g>
<!-- Node6&#45;&gt;Node5 -->
<g id="edge5" class="edge">
<title>Node6&#45;&gt;Node5</title>
<path fill="none" stroke="midnightblue" d="M204.81,-204.12C204.48,-194.82 204.08,-184.06 203.82,-176.71"/>
<polygon fill="midnightblue" stroke="midnightblue" points="201.33,-204.54 205.19,-214.41 208.32,-204.29 201.33,-204.54"/>
</g>
</g>
</svg>
