<?xml version="1.0" encoding="UTF-8" standalone="no"?>
<!DOCTYPE svg PUBLIC "-//W3C//DTD SVG 1.1//EN"
 "http://www.w3.org/Graphics/SVG/1.1/DTD/svg11.dtd">
<!-- Generated by graphviz version 2.44.0 (0)
 -->
<!-- Title: CDPL::Math::Matrix&lt; T, A &gt; Pages: 1 -->
<svg width="303pt" height="455pt"
 viewBox="0.00 0.00 302.50 455.00" xmlns="http://www.w3.org/2000/svg" xmlns:xlink="http://www.w3.org/1999/xlink">
<g id="graph0" class="graph" transform="scale(1 1) rotate(0) translate(4 451)">
<title>CDPL::Math::Matrix&lt; T, A &gt;</title>
<!-- Node1 -->
<g id="node1" class="node">
<title>Node1</title>
<g id="a_node1"><a xlink:title=" ">
<polygon fill="#bfbfbf" stroke="black" points="52.5,-78.5 52.5,-108.5 156.5,-108.5 156.5,-78.5 52.5,-78.5"/>
<text text-anchor="start" x="60.5" y="-96.5" font-family="Helvetica" font-size="10.00">CDPL::Math::Matrix</text>
<text text-anchor="middle" x="104.5" y="-85.5" font-family="Helvetica" font-size="10.00">&lt; T, A &gt;</text>
</a>
</g>
</g>
<!-- Node7 -->
<g id="node7" class="node">
<title>Node7</title>
<g id="a_node7"><a xlink:href="classCDPL_1_1Math_1_1Matrix.html" target="_top" xlink:title=" ">
<polygon fill="none" stroke="black" points="52.5,-0.5 52.5,-30.5 156.5,-30.5 156.5,-0.5 52.5,-0.5"/>
<text text-anchor="start" x="60.5" y="-18.5" font-family="Helvetica" font-size="10.00">CDPL::Math::Matrix</text>
<text text-anchor="middle" x="104.5" y="-7.5" font-family="Helvetica" font-size="10.00">&lt; double &gt;</text>
</a>
</g>
</g>
<!-- Node1&#45;&gt;Node7 -->
<g id="edge8" class="edge">
<title>Node1&#45;&gt;Node7</title>
<path fill="none" stroke="orange" stroke-dasharray="5,2" d="M104.5,-68.09C104.5,-55.76 104.5,-41.22 104.5,-30.73"/>
<polygon fill="orange" stroke="orange" points="101,-68.2 104.5,-78.2 108,-68.21 101,-68.2"/>
<text text-anchor="middle" x="129.5" y="-52" font-family="Helvetica" font-size="10.00"> &lt; double &gt;</text>
</g>
<!-- Node2 -->
<g id="node2" class="node">
<title>Node2</title>
<g id="a_node2"><a xlink:href="classCDPL_1_1Math_1_1MatrixContainer.html" target="_top" xlink:title=" ">
<polygon fill="none" stroke="black" points="31.5,-146.5 31.5,-187.5 177.5,-187.5 177.5,-146.5 31.5,-146.5"/>
<text text-anchor="start" x="39.5" y="-175.5" font-family="Helvetica" font-size="10.00">CDPL::Math::MatrixContainer</text>
<text text-anchor="start" x="39.5" y="-164.5" font-family="Helvetica" font-size="10.00">&lt; Matrix&lt; T, std::vector</text>
<text text-anchor="middle" x="104.5" y="-153.5" font-family="Helvetica" font-size="10.00">&lt; T &gt; &gt; &gt;</text>
</a>
</g>
</g>
<!-- Node2&#45;&gt;Node1 -->
<g id="edge1" class="edge">
<title>Node2&#45;&gt;Node1</title>
<path fill="none" stroke="midnightblue" d="M104.5,-136.16C104.5,-126.69 104.5,-116.65 104.5,-108.8"/>
<polygon fill="midnightblue" stroke="midnightblue" points="101,-136.46 104.5,-146.46 108,-136.46 101,-136.46"/>
</g>
<!-- Node3 -->
<g id="node3" class="node">
<title>Node3</title>
<g id="a_node3"><a xlink:href="classCDPL_1_1Math_1_1MatrixExpression.html" target="_top" xlink:title=" ">
<polygon fill="none" stroke="black" points="0,-370.5 0,-389.5 177,-389.5 177,-370.5 0,-370.5"/>
<text text-anchor="middle" x="88.5" y="-377.5" font-family="Helvetica" font-size="10.00">CDPL::Math::MatrixExpression&lt; E &gt;</text>
</a>
</g>
</g>
<!-- Node3&#45;&gt;Node2 -->
<g id="edge2" class="edge">
<title>Node3&#45;&gt;Node2</title>
<path fill="none" stroke="midnightblue" d="M89.91,-360.37C92.92,-320.73 99.93,-228.33 103,-187.73"/>
<polygon fill="midnightblue" stroke="midnightblue" points="86.41,-360.23 89.15,-370.47 93.39,-360.76 86.41,-360.23"/>
</g>
<!-- Node6 -->
<g id="node6" class="node">
<title>Node6</title>
<g id="a_node6"><a xlink:href="classCDPL_1_1Math_1_1MatrixExpression.html" target="_top" xlink:title=" ">
<polygon fill="none" stroke="black" points="116.5,-303.5 116.5,-322.5 294.5,-322.5 294.5,-303.5 116.5,-303.5"/>
<text text-anchor="middle" x="205.5" y="-310.5" font-family="Helvetica" font-size="10.00">CDPL::Math::MatrixExpression&lt; C &gt;</text>
</a>
</g>
</g>
<!-- Node3&#45;&gt;Node6 -->
<g id="edge7" class="edge">
<title>Node3&#45;&gt;Node6</title>
<path fill="none" stroke="orange" stroke-dasharray="5,2" d="M113.18,-365.29C136.37,-352.4 170.36,-333.52 189.97,-322.63"/>
<polygon fill="orange" stroke="orange" points="111.32,-362.32 104.28,-370.23 114.72,-368.44 111.32,-362.32"/>
<text text-anchor="middle" x="168" y="-344" font-family="Helvetica" font-size="10.00"> &lt; C &gt;</text>
</g>
<!-- Node4 -->
<g id="node4" class="node">
<title>Node4</title>
<g id="a_node4"><a xlink:href="classCDPL_1_1Math_1_1Expression.html" target="_top" xlink:title=" ">
<polygon fill="none" stroke="black" points="71.5,-427.5 71.5,-446.5 221.5,-446.5 221.5,-427.5 71.5,-427.5"/>
<text text-anchor="middle" x="146.5" y="-434.5" font-family="Helvetica" font-size="10.00">CDPL::Math::Expression&lt; E &gt;</text>
</a>
</g>
</g>
<!-- Node4&#45;&gt;Node3 -->
<g id="edge3" class="edge">
<title>Node4&#45;&gt;Node3</title>
<path fill="none" stroke="midnightblue" d="M130.07,-420.42C119.58,-410.47 106.37,-397.94 97.69,-389.71"/>
<polygon fill="midnightblue" stroke="midnightblue" points="127.77,-423.06 137.44,-427.41 132.59,-417.99 127.77,-423.06"/>
</g>
<!-- Node4&#45;&gt;Node6 -->
<g id="edge6" class="edge">
<title>Node4&#45;&gt;Node6</title>
<path fill="none" stroke="midnightblue" d="M163.46,-420.33C171.52,-412.03 180.64,-401.24 186.5,-390 198.19,-367.57 202.92,-337.61 204.64,-322.91"/>
<polygon fill="midnightblue" stroke="midnightblue" points="160.88,-417.95 156.2,-427.46 165.79,-422.95 160.88,-417.95"/>
</g>
<!-- Node5 -->
<g id="node5" class="node">
<title>Node5</title>
<g id="a_node5"><a xlink:href="classCDPL_1_1Math_1_1MatrixContainer.html" target="_top" xlink:title=" ">
<polygon fill="none" stroke="black" points="118,-246.5 118,-265.5 289,-265.5 289,-246.5 118,-246.5"/>
<text text-anchor="middle" x="203.5" y="-253.5" font-family="Helvetica" font-size="10.00">CDPL::Math::MatrixContainer&lt; C &gt;</text>
</a>
</g>
</g>
<!-- Node5&#45;&gt;Node2 -->
<g id="edge4" class="edge">
<title>Node5&#45;&gt;Node2</title>
<path fill="none" stroke="orange" stroke-dasharray="5,2" d="M185.86,-239.5C169.39,-225.03 144.74,-203.37 126.9,-187.68"/>
<polygon fill="orange" stroke="orange" points="183.82,-242.37 193.65,-246.34 188.44,-237.11 183.82,-242.37"/>
<text text-anchor="start" x="170.5" y="-220" font-family="Helvetica" font-size="10.00"> &lt; Matrix&lt; T, std::vector</text>
<text text-anchor="middle" x="223.5" y="-209" font-family="Helvetica" font-size="10.00">&lt; T &gt; &gt; &gt;</text>
</g>
<!-- Node6&#45;&gt;Node5 -->
<g id="edge5" class="edge">
<title>Node6&#45;&gt;Node5</title>
<path fill="none" stroke="midnightblue" d="M204.81,-293.12C204.48,-283.82 204.08,-273.06 203.82,-265.71"/>
<polygon fill="midnightblue" stroke="midnightblue" points="201.33,-293.54 205.19,-303.41 208.32,-293.29 201.33,-293.54"/>
</g>
</g>
</svg>
