<?xml version="1.0" encoding="UTF-8" standalone="no"?>
<!DOCTYPE svg PUBLIC "-//W3C//DTD SVG 1.1//EN"
 "http://www.w3.org/Graphics/SVG/1.1/DTD/svg11.dtd">
<!-- Generated by graphviz version 2.44.0 (0)
 -->
<!-- Title: CDPL::Math::VectorRange&lt; V &gt; Pages: 1 -->
<svg width="277pt" height="220pt"
 viewBox="0.00 0.00 277.00 220.00" xmlns="http://www.w3.org/2000/svg" xmlns:xlink="http://www.w3.org/1999/xlink">
<g id="graph0" class="graph" transform="scale(1 1) rotate(0) translate(4 216)">
<title>CDPL::Math::VectorRange&lt; V &gt;</title>
<!-- Node1 -->
<g id="node1" class="node">
<title>Node1</title>
<g id="a_node1"><a xlink:title=" ">
<polygon fill="#bfbfbf" stroke="black" points="0.5,-0.5 0.5,-19.5 157.5,-19.5 157.5,-0.5 0.5,-0.5"/>
<text text-anchor="middle" x="79" y="-7.5" font-family="Helvetica" font-size="10.00">CDPL::Math::VectorRange&lt; V &gt;</text>
</a>
</g>
</g>
<!-- Node2 -->
<g id="node2" class="node">
<title>Node2</title>
<g id="a_node2"><a xlink:href="classCDPL_1_1Math_1_1VectorExpression.html" target="_top" xlink:title=" ">
<polygon fill="none" stroke="black" points="2.5,-57.5 2.5,-87.5 155.5,-87.5 155.5,-57.5 2.5,-57.5"/>
<text text-anchor="start" x="10.5" y="-75.5" font-family="Helvetica" font-size="10.00">CDPL::Math::VectorExpression</text>
<text text-anchor="middle" x="79" y="-64.5" font-family="Helvetica" font-size="10.00">&lt; VectorRange&lt; V &gt; &gt;</text>
</a>
</g>
</g>
<!-- Node2&#45;&gt;Node1 -->
<g id="edge1" class="edge">
<title>Node2&#45;&gt;Node1</title>
<path fill="none" stroke="midnightblue" d="M79,-47.35C79,-37.51 79,-26.78 79,-19.54"/>
<polygon fill="midnightblue" stroke="midnightblue" points="75.5,-47.47 79,-57.47 82.5,-47.47 75.5,-47.47"/>
</g>
<!-- Node3 -->
<g id="node3" class="node">
<title>Node3</title>
<g id="a_node3"><a xlink:href="classCDPL_1_1Math_1_1Expression.html" target="_top" xlink:title=" ">
<polygon fill="none" stroke="black" points="0,-192.5 0,-211.5 150,-211.5 150,-192.5 0,-192.5"/>
<text text-anchor="middle" x="75" y="-199.5" font-family="Helvetica" font-size="10.00">CDPL::Math::Expression&lt; E &gt;</text>
</a>
</g>
</g>
<!-- Node3&#45;&gt;Node2 -->
<g id="edge2" class="edge">
<title>Node3&#45;&gt;Node2</title>
<path fill="none" stroke="midnightblue" d="M75.6,-181.9C76.41,-156.05 77.84,-110.54 78.56,-87.59"/>
<polygon fill="midnightblue" stroke="midnightblue" points="72.09,-182.13 75.27,-192.24 79.09,-182.35 72.09,-182.13"/>
</g>
<!-- Node4 -->
<g id="node4" class="node">
<title>Node4</title>
<g id="a_node4"><a xlink:href="classCDPL_1_1Math_1_1VectorExpression.html" target="_top" xlink:title=" ">
<polygon fill="none" stroke="black" points="91,-135.5 91,-154.5 269,-154.5 269,-135.5 91,-135.5"/>
<text text-anchor="middle" x="180" y="-142.5" font-family="Helvetica" font-size="10.00">CDPL::Math::VectorExpression&lt; E &gt;</text>
</a>
</g>
</g>
<!-- Node3&#45;&gt;Node4 -->
<g id="edge4" class="edge">
<title>Node3&#45;&gt;Node4</title>
<path fill="none" stroke="midnightblue" d="M100.44,-187.68C120.12,-177.36 146.8,-163.39 163.71,-154.53"/>
<polygon fill="midnightblue" stroke="midnightblue" points="98.64,-184.67 91.41,-192.41 101.89,-190.87 98.64,-184.67"/>
</g>
<!-- Node4&#45;&gt;Node2 -->
<g id="edge3" class="edge">
<title>Node4&#45;&gt;Node2</title>
<path fill="none" stroke="orange" stroke-dasharray="5,2" d="M159.18,-129.47C141.59,-117.19 116.56,-99.72 99.17,-87.58"/>
<polygon fill="orange" stroke="orange" points="157.41,-132.5 167.62,-135.36 161.42,-126.76 157.41,-132.5"/>
<text text-anchor="middle" x="189" y="-109" font-family="Helvetica" font-size="10.00"> &lt; VectorRange&lt; V &gt; &gt;</text>
</g>
</g>
</svg>
