<?xml version="1.0" encoding="UTF-8" standalone="no"?>
<!DOCTYPE svg PUBLIC "-//W3C//DTD SVG 1.1//EN"
 "http://www.w3.org/Graphics/SVG/1.1/DTD/svg11.dtd">
<!-- Generated by graphviz version 2.44.0 (0)
 -->
<!-- Title: Shape Pages: 1 -->
<!--zoomable 455 -->
<svg id="main" version="1.1" xmlns="http://www.w3.org/2000/svg" xmlns:xlink="http://www.w3.org/1999/xlink" xml:space="preserve" onload="init(evt)">
<style type="text/css"><![CDATA[
.edge:hover path { stroke: red; }
.edge:hover polygon { stroke: red; fill: red; }
]]></style>
<script type="text/javascript"><![CDATA[
var edges = document.getElementsByTagName('g');
if (edges && edges.length) {
  for (var i=0;i<edges.length;i++) {
    if (edges[i].id.substr(0,4)=='edge') {
      edges[i].setAttribute('class','edge');
    }
  }
}
]]></script>
        <defs>
                <circle id="rim" cx="0" cy="0" r="7"/>
                <circle id="rim2" cx="0" cy="0" r="3.5"/>
                <g id="zoomPlus">
                        <use xlink:href="#rim" fill="#404040">
                                <set attributeName="fill" to="#808080" begin="zoomplus.mouseover" end="zoomplus.mouseout"/>
                        </use>
                        <path d="M-4,0h8M0,-4v8" fill="none" stroke="white" stroke-width="1.5" pointer-events="none"/>
                </g>
                <g id="zoomMin">
                        <use xlink:href="#rim" fill="#404040">
                                <set attributeName="fill" to="#808080" begin="zoomminus.mouseover" end="zoomminus.mouseout"/>
                        </use>
                        <path d="M-4,0h8" fill="none" stroke="white" stroke-width="1.5" pointer-events="none"/>
                </g>
                <g id="dirArrow">
                        <path fill="none" stroke="white" stroke-width="1.5" d="M0,-3.0v7 M-2.5,-0.5L0,-3.0L2.5,-0.5"/>
                </g>
               <g id="resetDef">
                       <use xlink:href="#rim2" fill="#404040">
                               <set attributeName="fill" to="#808080" begin="reset.mouseover" end="reset.mouseout"/>
                       </use>
               </g>
        </defs>

<script type="text/javascript">
var viewWidth = 214;
var viewHeight = 455;
var sectionId = 'dynsection-0';
</script>
<script xlink:href="svgpan.js"/>
<svg id="graph" class="graph">
<g id="viewport">
<title>Shape</title>
<g id="clust1" class="cluster">
<title>clusterdir_13e5b888d4d8e2bc4637fdf598186b4c</title>
<g id="a_clust1"><a xlink:href="dir_13e5b888d4d8e2bc4637fdf598186b4c.html" target="_top" xlink:title="CDPL">
<polygon fill="#ddddee" stroke="black" points="8,-8 8,-439 198,-439 198,-8 8,-8"/>
<text text-anchor="middle" x="103" y="-427" font-family="Helvetica" font-size="10.00">CDPL</text>
</a>
</g>
</g>
<!-- dir_239469eeca6d3c1a97f8d4fbb99adcb8 -->
<g id="node1" class="node">
<title>dir_239469eeca6d3c1a97f8d4fbb99adcb8</title>
<g id="a_node1"><a xlink:href="dir_239469eeca6d3c1a97f8d4fbb99adcb8.html" target="_top" xlink:title="Util">
<polygon fill="none" stroke="black" points="110,-124 56,-124 56,-88 110,-88 110,-124"/>
<text text-anchor="middle" x="83" y="-103.5" font-family="Helvetica" font-size="10.00">Util</text>
</a>
</g>
</g>
<!-- dir_ea97f66d84072e3323f941252a229abf -->
<g id="node5" class="node">
<title>dir_ea97f66d84072e3323f941252a229abf</title>
<g id="a_node5"><a xlink:href="dir_ea97f66d84072e3323f941252a229abf.html" target="_top" xlink:title="Base">
<polygon fill="none" stroke="black" points="176,-52 122,-52 122,-16 176,-16 176,-52"/>
<text text-anchor="middle" x="149" y="-31.5" font-family="Helvetica" font-size="10.00">Base</text>
</a>
</g>
</g>
<!-- dir_239469eeca6d3c1a97f8d4fbb99adcb8&#45;&gt;dir_ea97f66d84072e3323f941252a229abf -->
<g id="edge7" class="edge">
<title>dir_239469eeca6d3c1a97f8d4fbb99adcb8&#45;&gt;dir_ea97f66d84072e3323f941252a229abf</title>
<path fill="none" stroke="black" d="M99.31,-87.7C107.31,-79.22 117.07,-68.86 125.82,-59.58"/>
<polygon fill="black" stroke="black" points="128.56,-61.78 132.87,-52.1 123.47,-56.98 128.56,-61.78"/>
<g id="a_edge7&#45;headlabel"><a xlink:href="dir_000014_000005.html" target="_top" xlink:title="25">
<text text-anchor="middle" x="128.16" y="-63.84" font-family="Helvetica" font-size="10.00">25</text>
</a>
</g>
</g>
<!-- dir_44c4819b58b16e7a1f761f8b885b5ba0 -->
<g id="node2" class="node">
<title>dir_44c4819b58b16e7a1f761f8b885b5ba0</title>
<g id="a_node2"><a xlink:href="dir_44c4819b58b16e7a1f761f8b885b5ba0.html" target="_top" xlink:title="Pharm">
<polygon fill="none" stroke="black" points="130,-340 76,-340 76,-304 130,-304 130,-340"/>
<text text-anchor="middle" x="103" y="-319.5" font-family="Helvetica" font-size="10.00">Pharm</text>
</a>
</g>
</g>
<!-- dir_44c4819b58b16e7a1f761f8b885b5ba0&#45;&gt;dir_239469eeca6d3c1a97f8d4fbb99adcb8 -->
<g id="edge1" class="edge">
<title>dir_44c4819b58b16e7a1f761f8b885b5ba0&#45;&gt;dir_239469eeca6d3c1a97f8d4fbb99adcb8</title>
<path fill="none" stroke="black" d="M92.57,-304C78.94,-280.66 55.75,-236.93 47,-196 43.66,-180.35 42.3,-175.29 47,-160 50.01,-150.22 55.51,-140.62 61.32,-132.33"/>
<polygon fill="black" stroke="black" points="64.19,-134.33 67.39,-124.23 58.59,-130.13 64.19,-134.33"/>
<g id="a_edge1&#45;headlabel"><a xlink:href="dir_000013_000014.html" target="_top" xlink:title="27">
<text text-anchor="middle" x="64.31" y="-136.41" font-family="Helvetica" font-size="10.00">27</text>
</a>
</g>
</g>
<!-- dir_76ec631f4004f297aa98c89994166e73 -->
<g id="node3" class="node">
<title>dir_76ec631f4004f297aa98c89994166e73</title>
<g id="a_node3"><a xlink:href="dir_76ec631f4004f297aa98c89994166e73.html" target="_top" xlink:title="Math">
<polygon fill="none" stroke="black" points="110,-196 56,-196 56,-160 110,-160 110,-196"/>
<text text-anchor="middle" x="83" y="-175.5" font-family="Helvetica" font-size="10.00">Math</text>
</a>
</g>
</g>
<!-- dir_44c4819b58b16e7a1f761f8b885b5ba0&#45;&gt;dir_76ec631f4004f297aa98c89994166e73 -->
<g id="edge2" class="edge">
<title>dir_44c4819b58b16e7a1f761f8b885b5ba0&#45;&gt;dir_76ec631f4004f297aa98c89994166e73</title>
<path fill="none" stroke="black" d="M98.98,-303.9C96.67,-293.55 93.86,-280.07 92,-268 88.83,-247.41 86.51,-223.96 85.02,-206.3"/>
<polygon fill="black" stroke="black" points="88.49,-205.81 84.2,-196.13 81.52,-206.38 88.49,-205.81"/>
<g id="a_edge2&#45;headlabel"><a xlink:href="dir_000013_000001.html" target="_top" xlink:title="15">
<text text-anchor="middle" x="91.61" y="-206.67" font-family="Helvetica" font-size="10.00">15</text>
</a>
</g>
</g>
<!-- dir_a73e1d15e6da56bea42fb33a94074c1c -->
<g id="node4" class="node">
<title>dir_a73e1d15e6da56bea42fb33a94074c1c</title>
<g id="a_node4"><a xlink:href="dir_a73e1d15e6da56bea42fb33a94074c1c.html" target="_top" xlink:title="Chem">
<polygon fill="none" stroke="black" points="170,-268 116,-268 116,-232 170,-232 170,-268"/>
<text text-anchor="middle" x="143" y="-247.5" font-family="Helvetica" font-size="10.00">Chem</text>
</a>
</g>
</g>
<!-- dir_44c4819b58b16e7a1f761f8b885b5ba0&#45;&gt;dir_a73e1d15e6da56bea42fb33a94074c1c -->
<g id="edge3" class="edge">
<title>dir_44c4819b58b16e7a1f761f8b885b5ba0&#45;&gt;dir_a73e1d15e6da56bea42fb33a94074c1c</title>
<path fill="none" stroke="black" d="M112.89,-303.7C117.49,-295.64 123.06,-285.89 128.15,-276.98"/>
<polygon fill="black" stroke="black" points="131.3,-278.52 133.23,-268.1 125.23,-275.05 131.3,-278.52"/>
<g id="a_edge3&#45;headlabel"><a xlink:href="dir_000013_000004.html" target="_top" xlink:title="15">
<text text-anchor="middle" x="131.99" y="-280.55" font-family="Helvetica" font-size="10.00">15</text>
</a>
</g>
</g>
<!-- dir_44c4819b58b16e7a1f761f8b885b5ba0&#45;&gt;dir_ea97f66d84072e3323f941252a229abf -->
<g id="edge4" class="edge">
<title>dir_44c4819b58b16e7a1f761f8b885b5ba0&#45;&gt;dir_ea97f66d84072e3323f941252a229abf</title>
<path fill="none" stroke="black" d="M102.37,-303.78C102.04,-285.73 102.43,-256.64 107,-232 110.07,-215.42 114.78,-212.33 119,-196 131.02,-149.5 140.24,-94.28 145.12,-62.08"/>
<polygon fill="black" stroke="black" points="148.6,-62.5 146.61,-52.09 141.67,-61.47 148.6,-62.5"/>
<g id="a_edge4&#45;headlabel"><a xlink:href="dir_000013_000005.html" target="_top" xlink:title="9">
<text text-anchor="middle" x="150.88" y="-63.97" font-family="Helvetica" font-size="10.00">9</text>
</a>
</g>
</g>
<!-- dir_76ec631f4004f297aa98c89994166e73&#45;&gt;dir_239469eeca6d3c1a97f8d4fbb99adcb8 -->
<g id="edge5" class="edge">
<title>dir_76ec631f4004f297aa98c89994166e73&#45;&gt;dir_239469eeca6d3c1a97f8d4fbb99adcb8</title>
<path fill="none" stroke="black" d="M83,-159.7C83,-151.98 83,-142.71 83,-134.11"/>
<polygon fill="black" stroke="black" points="86.5,-134.1 83,-124.1 79.5,-134.1 86.5,-134.1"/>
<g id="a_edge5&#45;headlabel"><a xlink:href="dir_000001_000014.html" target="_top" xlink:title="2">
<text text-anchor="middle" x="89.34" y="-135.2" font-family="Helvetica" font-size="10.00">2</text>
</a>
</g>
</g>
<!-- dir_76ec631f4004f297aa98c89994166e73&#45;&gt;dir_ea97f66d84072e3323f941252a229abf -->
<g id="edge6" class="edge">
<title>dir_76ec631f4004f297aa98c89994166e73&#45;&gt;dir_ea97f66d84072e3323f941252a229abf</title>
<path fill="none" stroke="black" d="M96.6,-159.59C103.95,-149.59 112.77,-136.55 119,-124 128.88,-104.1 136.74,-80.17 141.94,-62.14"/>
<polygon fill="black" stroke="black" points="145.37,-62.85 144.68,-52.28 138.63,-60.97 145.37,-62.85"/>
<g id="a_edge6&#45;headlabel"><a xlink:href="dir_000001_000005.html" target="_top" xlink:title="19">
<text text-anchor="middle" x="147.14" y="-64.57" font-family="Helvetica" font-size="10.00">19</text>
</a>
</g>
</g>
<!-- dir_a73e1d15e6da56bea42fb33a94074c1c&#45;&gt;dir_239469eeca6d3c1a97f8d4fbb99adcb8 -->
<g id="edge8" class="edge">
<title>dir_a73e1d15e6da56bea42fb33a94074c1c&#45;&gt;dir_239469eeca6d3c1a97f8d4fbb99adcb8</title>
<path fill="none" stroke="black" d="M140.1,-231.68C136.63,-213.31 129.87,-183.71 119,-160 114.66,-150.55 108.69,-140.93 102.86,-132.52"/>
<polygon fill="black" stroke="black" points="105.59,-130.33 96.9,-124.27 99.91,-134.42 105.59,-130.33"/>
<g id="a_edge8&#45;headlabel"><a xlink:href="dir_000004_000014.html" target="_top" xlink:title="204">
<text text-anchor="middle" x="110" y="-129.08" font-family="Helvetica" font-size="10.00">204</text>
</a>
</g>
</g>
<!-- dir_a73e1d15e6da56bea42fb33a94074c1c&#45;&gt;dir_76ec631f4004f297aa98c89994166e73 -->
<g id="edge9" class="edge">
<title>dir_a73e1d15e6da56bea42fb33a94074c1c&#45;&gt;dir_76ec631f4004f297aa98c89994166e73</title>
<path fill="none" stroke="black" d="M128.17,-231.7C120.98,-223.3 112.2,-213.07 104.31,-203.86"/>
<polygon fill="black" stroke="black" points="106.83,-201.42 97.66,-196.1 101.51,-205.97 106.83,-201.42"/>
<g id="a_edge9&#45;headlabel"><a xlink:href="dir_000004_000001.html" target="_top" xlink:title="32">
<text text-anchor="middle" x="111.32" y="-199.8" font-family="Helvetica" font-size="10.00">32</text>
</a>
</g>
</g>
<!-- dir_a73e1d15e6da56bea42fb33a94074c1c&#45;&gt;dir_ea97f66d84072e3323f941252a229abf -->
<g id="edge10" class="edge">
<title>dir_a73e1d15e6da56bea42fb33a94074c1c&#45;&gt;dir_ea97f66d84072e3323f941252a229abf</title>
<path fill="none" stroke="black" d="M147.46,-231.95C149.94,-221.63 152.75,-208.15 154,-196 158.8,-149.26 155.15,-94.53 152.07,-62.42"/>
<polygon fill="black" stroke="black" points="155.55,-62.04 151.06,-52.45 148.58,-62.75 155.55,-62.04"/>
<g id="a_edge10&#45;headlabel"><a xlink:href="dir_000004_000005.html" target="_top" xlink:title="22">
<text text-anchor="middle" x="158.73" y="-62.83" font-family="Helvetica" font-size="10.00">22</text>
</a>
</g>
</g>
<!-- dir_a02c2e35855499cd9e109553a19d0667 -->
<g id="node6" class="node">
<title>dir_a02c2e35855499cd9e109553a19d0667</title>
<g id="a_node6"><a xlink:href="dir_a02c2e35855499cd9e109553a19d0667.html" target="_top" xlink:title="Shape">
<polygon fill="#eeeeff" stroke="black" points="130,-412 76,-412 76,-376 130,-376 130,-412"/>
<text text-anchor="middle" x="103" y="-391.5" font-family="Helvetica" font-size="10.00">Shape</text>
</a>
</g>
</g>
<!-- dir_a02c2e35855499cd9e109553a19d0667&#45;&gt;dir_239469eeca6d3c1a97f8d4fbb99adcb8 -->
<g id="edge11" class="edge">
<title>dir_a02c2e35855499cd9e109553a19d0667&#45;&gt;dir_239469eeca6d3c1a97f8d4fbb99adcb8</title>
<path fill="none" stroke="black" d="M82.89,-375.89C73.1,-366.37 62.14,-353.69 56,-340 29.63,-281.2 42.78,-260.33 39,-196 38.06,-180.03 33.57,-175.05 39,-160 42.75,-149.6 49.54,-139.8 56.67,-131.52"/>
<polygon fill="black" stroke="black" points="59.32,-133.81 63.53,-124.08 54.17,-129.06 59.32,-133.81"/>
<g id="a_edge11&#45;headlabel"><a xlink:href="dir_000003_000014.html" target="_top" xlink:title="2">
<text text-anchor="middle" x="58.97" y="-135.87" font-family="Helvetica" font-size="10.00">2</text>
</a>
</g>
</g>
<!-- dir_a02c2e35855499cd9e109553a19d0667&#45;&gt;dir_44c4819b58b16e7a1f761f8b885b5ba0 -->
<g id="edge12" class="edge">
<title>dir_a02c2e35855499cd9e109553a19d0667&#45;&gt;dir_44c4819b58b16e7a1f761f8b885b5ba0</title>
<path fill="none" stroke="black" d="M103,-375.7C103,-367.98 103,-358.71 103,-350.11"/>
<polygon fill="black" stroke="black" points="106.5,-350.1 103,-340.1 99.5,-350.1 106.5,-350.1"/>
<g id="a_edge12&#45;headlabel"><a xlink:href="dir_000003_000013.html" target="_top" xlink:title="3">
<text text-anchor="middle" x="109.34" y="-351.2" font-family="Helvetica" font-size="10.00">3</text>
</a>
</g>
</g>
<!-- dir_a02c2e35855499cd9e109553a19d0667&#45;&gt;dir_76ec631f4004f297aa98c89994166e73 -->
<g id="edge13" class="edge">
<title>dir_a02c2e35855499cd9e109553a19d0667&#45;&gt;dir_76ec631f4004f297aa98c89994166e73</title>
<path fill="none" stroke="black" d="M87.39,-375.77C79.63,-366.03 71.05,-353.18 67,-340 52.99,-294.45 64.58,-238.57 73.98,-206.05"/>
<polygon fill="black" stroke="black" points="77.37,-206.95 76.93,-196.36 70.67,-204.91 77.37,-206.95"/>
<g id="a_edge13&#45;headlabel"><a xlink:href="dir_000003_000001.html" target="_top" xlink:title="21">
<text text-anchor="middle" x="79.04" y="-208.71" font-family="Helvetica" font-size="10.00">21</text>
</a>
</g>
</g>
<!-- dir_a02c2e35855499cd9e109553a19d0667&#45;&gt;dir_a73e1d15e6da56bea42fb33a94074c1c -->
<g id="edge14" class="edge">
<title>dir_a02c2e35855499cd9e109553a19d0667&#45;&gt;dir_a73e1d15e6da56bea42fb33a94074c1c</title>
<path fill="none" stroke="black" d="M118.37,-375.7C126.07,-365.93 134.65,-353.09 139,-340 145.61,-320.09 146.34,-296.3 145.57,-278.33"/>
<polygon fill="black" stroke="black" points="149.05,-278 144.95,-268.23 142.07,-278.43 149.05,-278"/>
<g id="a_edge14&#45;headlabel"><a xlink:href="dir_000003_000004.html" target="_top" xlink:title="1">
<text text-anchor="middle" x="152.11" y="-278.91" font-family="Helvetica" font-size="10.00">1</text>
</a>
</g>
</g>
<!-- dir_a02c2e35855499cd9e109553a19d0667&#45;&gt;dir_ea97f66d84072e3323f941252a229abf -->
<g id="edge15" class="edge">
<title>dir_a02c2e35855499cd9e109553a19d0667&#45;&gt;dir_ea97f66d84072e3323f941252a229abf</title>
<path fill="none" stroke="black" d="M122.09,-375.77C147.42,-350.91 189,-302.3 189,-251 189,-251 189,-251 189,-177 189,-135.48 172.96,-89.61 161.2,-61.54"/>
<polygon fill="black" stroke="black" points="164.27,-59.84 157.09,-52.05 157.85,-62.62 164.27,-59.84"/>
<g id="a_edge15&#45;headlabel"><a xlink:href="dir_000003_000005.html" target="_top" xlink:title="1">
<text text-anchor="middle" x="168.31" y="-59.51" font-family="Helvetica" font-size="10.00">1</text>
</a>
</g>
</g>
</g>
</svg>
        <g id="navigator" transform="translate(0 0)" fill="#404254">
                <rect fill="#f2f5e9" fill-opacity="0.5" stroke="#606060" stroke-width=".5" x="0" y="0" width="60" height="60"/>
                <use id="zoomplus" xlink:href="#zoomPlus" x="17" y="9" onmousedown="handleZoom(evt,'in')"/>
                <use id="zoomminus" xlink:href="#zoomMin" x="42" y="9" onmousedown="handleZoom(evt,'out')"/>
                <use id="reset" xlink:href="#resetDef" x="30" y="36" onmousedown="handleReset()"/>
                <g id="arrowUp" xlink:href="#dirArrow" transform="translate(30 24)" onmousedown="handlePan(0,-1)">
                  <use xlink:href="#rim" fill="#404040">
                        <set attributeName="fill" to="#808080" begin="arrowUp.mouseover" end="arrowUp.mouseout"/>
                  </use>
                  <path fill="none" stroke="white" stroke-width="1.5" d="M0,-3.0v7 M-2.5,-0.5L0,-3.0L2.5,-0.5"/>
                </g>
                <g id="arrowRight" xlink:href="#dirArrow" transform="rotate(90) translate(36 -43)" onmousedown="handlePan(1,0)">
                  <use xlink:href="#rim" fill="#404040">
                        <set attributeName="fill" to="#808080" begin="arrowRight.mouseover" end="arrowRight.mouseout"/>
                  </use>
                  <path fill="none" stroke="white" stroke-width="1.5" d="M0,-3.0v7 M-2.5,-0.5L0,-3.0L2.5,-0.5"/>
                </g>
                <g id="arrowDown" xlink:href="#dirArrow" transform="rotate(180) translate(-30 -48)" onmousedown="handlePan(0,1)">
                  <use xlink:href="#rim" fill="#404040">
                        <set attributeName="fill" to="#808080" begin="arrowDown.mouseover" end="arrowDown.mouseout"/>
                  </use>
                  <path fill="none" stroke="white" stroke-width="1.5" d="M0,-3.0v7 M-2.5,-0.5L0,-3.0L2.5,-0.5"/>
                </g>
                <g id="arrowLeft" xlink:href="#dirArrow" transform="rotate(270) translate(-36 17)" onmousedown="handlePan(-1,0)">
                  <use xlink:href="#rim" fill="#404040">
                        <set attributeName="fill" to="#808080" begin="arrowLeft.mouseover" end="arrowLeft.mouseout"/>
                  </use>
                  <path fill="none" stroke="white" stroke-width="1.5" d="M0,-3.0v7 M-2.5,-0.5L0,-3.0L2.5,-0.5"/>
                </g>
        </g>
        <svg viewBox="0 0 15 15" width="100%" height="30px" preserveAspectRatio="xMaxYMin meet">
         <g id="arrow_out" transform="scale(0.3 0.3)">
          <a xlink:href="dir_a02c2e35855499cd9e109553a19d0667_dep_org.svg" target="_base">
           <rect id="button" ry="5" rx="5" y="6" x="6" height="38" width="38"
                fill="#f2f5e9" fill-opacity="0.5" stroke="#606060" stroke-width="1.0"/>
           <path id="arrow"
             d="M 11.500037,31.436501 C 11.940474,20.09759 22.043105,11.32322 32.158766,21.979434 L 37.068811,17.246167 C 37.068811,17.246167 37.088388,32 37.088388,32 L 22.160133,31.978069 C 22.160133,31.978069 26.997745,27.140456 26.997745,27.140456 C 18.528582,18.264221 13.291696,25.230495 11.500037,31.436501 z"
             style="fill:#404040;"/>
          </a>
         </g>
        </svg>
</svg>
