<?xml version="1.0" encoding="UTF-8" standalone="no"?>
<!DOCTYPE svg PUBLIC "-//W3C//DTD SVG 1.1//EN"
 "http://www.w3.org/Graphics/SVG/1.1/DTD/svg11.dtd">
<!-- Generated by graphviz version 2.44.0 (0)
 -->
<!-- Title: GRAIL Pages: 1 -->
<svg width="246pt" height="383pt"
 viewBox="0.00 0.00 246.00 383.00" xmlns="http://www.w3.org/2000/svg" xmlns:xlink="http://www.w3.org/1999/xlink">
<g id="graph0" class="graph" transform="scale(1 1) rotate(0) translate(4 379)">
<title>GRAIL</title>
<g id="clust1" class="cluster">
<title>clusterdir_13e5b888d4d8e2bc4637fdf598186b4c</title>
<g id="a_clust1"><a xlink:href="dir_13e5b888d4d8e2bc4637fdf598186b4c.html" target="_top" xlink:title="CDPL">
<polygon fill="#ddddee" stroke="black" points="8,-8 8,-367 230,-367 230,-8 8,-8"/>
<text text-anchor="middle" x="119" y="-355" font-family="Helvetica" font-size="10.00">CDPL</text>
</a>
</g>
</g>
<!-- dir_239469eeca6d3c1a97f8d4fbb99adcb8 -->
<g id="node1" class="node">
<title>dir_239469eeca6d3c1a97f8d4fbb99adcb8</title>
<g id="a_node1"><a xlink:href="dir_239469eeca6d3c1a97f8d4fbb99adcb8.html" target="_top" xlink:title="Util">
<polygon fill="none" stroke="black" points="110,-52 56,-52 56,-16 110,-16 110,-52"/>
<text text-anchor="middle" x="83" y="-31.5" font-family="Helvetica" font-size="10.00">Util</text>
</a>
</g>
</g>
<!-- dir_44c4819b58b16e7a1f761f8b885b5ba0 -->
<g id="node2" class="node">
<title>dir_44c4819b58b16e7a1f761f8b885b5ba0</title>
<g id="a_node2"><a xlink:href="dir_44c4819b58b16e7a1f761f8b885b5ba0.html" target="_top" xlink:title="Pharm">
<polygon fill="none" stroke="black" points="90,-268 36,-268 36,-232 90,-232 90,-268"/>
<text text-anchor="middle" x="63" y="-247.5" font-family="Helvetica" font-size="10.00">Pharm</text>
</a>
</g>
</g>
<!-- dir_44c4819b58b16e7a1f761f8b885b5ba0&#45;&gt;dir_239469eeca6d3c1a97f8d4fbb99adcb8 -->
<g id="edge1" class="edge">
<title>dir_44c4819b58b16e7a1f761f8b885b5ba0&#45;&gt;dir_239469eeca6d3c1a97f8d4fbb99adcb8</title>
<path fill="none" stroke="black" d="M56.93,-231.64C47.38,-201.64 31.48,-138.47 47,-88 50.01,-78.22 55.51,-68.62 61.32,-60.33"/>
<polygon fill="black" stroke="black" points="64.19,-62.33 67.39,-52.23 58.59,-58.13 64.19,-62.33"/>
<g id="a_edge1&#45;headlabel"><a xlink:href="dir_000013_000014.html" target="_top" xlink:title="27">
<text text-anchor="middle" x="64.31" y="-64.41" font-family="Helvetica" font-size="10.00">27</text>
</a>
</g>
</g>
<!-- dir_76ec631f4004f297aa98c89994166e73 -->
<g id="node3" class="node">
<title>dir_76ec631f4004f297aa98c89994166e73</title>
<g id="a_node3"><a xlink:href="dir_76ec631f4004f297aa98c89994166e73.html" target="_top" xlink:title="Math">
<polygon fill="none" stroke="black" points="110,-124 56,-124 56,-88 110,-88 110,-124"/>
<text text-anchor="middle" x="83" y="-103.5" font-family="Helvetica" font-size="10.00">Math</text>
</a>
</g>
</g>
<!-- dir_44c4819b58b16e7a1f761f8b885b5ba0&#45;&gt;dir_76ec631f4004f297aa98c89994166e73 -->
<g id="edge2" class="edge">
<title>dir_44c4819b58b16e7a1f761f8b885b5ba0&#45;&gt;dir_76ec631f4004f297aa98c89994166e73</title>
<path fill="none" stroke="black" d="M64.2,-231.87C65.59,-213.9 68.17,-184.87 72,-160 73.31,-151.51 75.08,-142.33 76.83,-134.03"/>
<polygon fill="black" stroke="black" points="80.28,-134.62 78.98,-124.1 73.44,-133.13 80.28,-134.62"/>
<g id="a_edge2&#45;headlabel"><a xlink:href="dir_000013_000001.html" target="_top" xlink:title="15">
<text text-anchor="middle" x="82.29" y="-136.23" font-family="Helvetica" font-size="10.00">15</text>
</a>
</g>
</g>
<!-- dir_a73e1d15e6da56bea42fb33a94074c1c -->
<g id="node5" class="node">
<title>dir_a73e1d15e6da56bea42fb33a94074c1c</title>
<g id="a_node5"><a xlink:href="dir_a73e1d15e6da56bea42fb33a94074c1c.html" target="_top" xlink:title="Chem">
<polygon fill="none" stroke="black" points="150,-196 96,-196 96,-160 150,-160 150,-196"/>
<text text-anchor="middle" x="123" y="-175.5" font-family="Helvetica" font-size="10.00">Chem</text>
</a>
</g>
</g>
<!-- dir_44c4819b58b16e7a1f761f8b885b5ba0&#45;&gt;dir_a73e1d15e6da56bea42fb33a94074c1c -->
<g id="edge3" class="edge">
<title>dir_44c4819b58b16e7a1f761f8b885b5ba0&#45;&gt;dir_a73e1d15e6da56bea42fb33a94074c1c</title>
<path fill="none" stroke="black" d="M77.83,-231.7C85.02,-223.3 93.8,-213.07 101.69,-203.86"/>
<polygon fill="black" stroke="black" points="104.49,-205.97 108.34,-196.1 99.17,-201.42 104.49,-205.97"/>
<g id="a_edge3&#45;headlabel"><a xlink:href="dir_000013_000004.html" target="_top" xlink:title="15">
<text text-anchor="middle" x="104.31" y="-208.05" font-family="Helvetica" font-size="10.00">15</text>
</a>
</g>
</g>
<!-- dir_76ec631f4004f297aa98c89994166e73&#45;&gt;dir_239469eeca6d3c1a97f8d4fbb99adcb8 -->
<g id="edge4" class="edge">
<title>dir_76ec631f4004f297aa98c89994166e73&#45;&gt;dir_239469eeca6d3c1a97f8d4fbb99adcb8</title>
<path fill="none" stroke="black" d="M83,-87.7C83,-79.98 83,-70.71 83,-62.11"/>
<polygon fill="black" stroke="black" points="86.5,-62.1 83,-52.1 79.5,-62.1 86.5,-62.1"/>
<g id="a_edge4&#45;headlabel"><a xlink:href="dir_000001_000014.html" target="_top" xlink:title="2">
<text text-anchor="middle" x="89.34" y="-63.2" font-family="Helvetica" font-size="10.00">2</text>
</a>
</g>
</g>
<!-- dir_9a404c9961da00d4b89f16bd2ea8d981 -->
<g id="node4" class="node">
<title>dir_9a404c9961da00d4b89f16bd2ea8d981</title>
<g id="a_node4"><a xlink:href="dir_9a404c9961da00d4b89f16bd2ea8d981.html" target="_top" xlink:title="Grid">
<polygon fill="none" stroke="black" points="222,-196 168,-196 168,-160 222,-160 222,-196"/>
<text text-anchor="middle" x="195" y="-175.5" font-family="Helvetica" font-size="10.00">Grid</text>
</a>
</g>
</g>
<!-- dir_9a404c9961da00d4b89f16bd2ea8d981&#45;&gt;dir_239469eeca6d3c1a97f8d4fbb99adcb8 -->
<g id="edge10" class="edge">
<title>dir_9a404c9961da00d4b89f16bd2ea8d981&#45;&gt;dir_239469eeca6d3c1a97f8d4fbb99adcb8</title>
<path fill="none" stroke="black" d="M182.17,-159.78C168.64,-141.73 146.63,-112.64 127,-88 119.58,-78.69 111.28,-68.61 103.91,-59.76"/>
<polygon fill="black" stroke="black" points="106.55,-57.46 97.44,-52.04 101.18,-61.96 106.55,-57.46"/>
<g id="a_edge10&#45;headlabel"><a xlink:href="dir_000011_000014.html" target="_top" xlink:title="27">
<text text-anchor="middle" x="111.03" y="-55.9" font-family="Helvetica" font-size="10.00">27</text>
</a>
</g>
</g>
<!-- dir_9a404c9961da00d4b89f16bd2ea8d981&#45;&gt;dir_76ec631f4004f297aa98c89994166e73 -->
<g id="edge11" class="edge">
<title>dir_9a404c9961da00d4b89f16bd2ea8d981&#45;&gt;dir_76ec631f4004f297aa98c89994166e73</title>
<path fill="none" stroke="black" d="M167.89,-160.05C153.14,-150.84 134.71,-139.32 118.79,-129.37"/>
<polygon fill="black" stroke="black" points="120.59,-126.36 110.25,-124.03 116.88,-132.3 120.59,-126.36"/>
<g id="a_edge11&#45;headlabel"><a xlink:href="dir_000011_000001.html" target="_top" xlink:title="2">
<text text-anchor="middle" x="125.14" y="-123.36" font-family="Helvetica" font-size="10.00">2</text>
</a>
</g>
</g>
<!-- dir_a73e1d15e6da56bea42fb33a94074c1c&#45;&gt;dir_239469eeca6d3c1a97f8d4fbb99adcb8 -->
<g id="edge12" class="edge">
<title>dir_a73e1d15e6da56bea42fb33a94074c1c&#45;&gt;dir_239469eeca6d3c1a97f8d4fbb99adcb8</title>
<path fill="none" stroke="black" d="M124.95,-159.77C126.4,-141.46 126.95,-111.93 119,-88 115.77,-78.29 110.21,-68.71 104.41,-60.42"/>
<polygon fill="black" stroke="black" points="107.15,-58.24 98.37,-52.3 101.54,-62.41 107.15,-58.24"/>
<g id="a_edge12&#45;headlabel"><a xlink:href="dir_000004_000014.html" target="_top" xlink:title="204">
<text text-anchor="middle" x="111.58" y="-56.92" font-family="Helvetica" font-size="10.00">204</text>
</a>
</g>
</g>
<!-- dir_a73e1d15e6da56bea42fb33a94074c1c&#45;&gt;dir_76ec631f4004f297aa98c89994166e73 -->
<g id="edge13" class="edge">
<title>dir_a73e1d15e6da56bea42fb33a94074c1c&#45;&gt;dir_76ec631f4004f297aa98c89994166e73</title>
<path fill="none" stroke="black" d="M113.11,-159.7C108.51,-151.64 102.94,-141.89 97.85,-132.98"/>
<polygon fill="black" stroke="black" points="100.77,-131.05 92.77,-124.1 94.7,-134.52 100.77,-131.05"/>
<g id="a_edge13&#45;headlabel"><a xlink:href="dir_000004_000001.html" target="_top" xlink:title="32">
<text text-anchor="middle" x="105.02" y="-130.26" font-family="Helvetica" font-size="10.00">32</text>
</a>
</g>
</g>
<!-- dir_75e9dc5194008ef9ee22ae8306c0eb0f -->
<g id="node6" class="node">
<title>dir_75e9dc5194008ef9ee22ae8306c0eb0f</title>
<g id="a_node6"><a xlink:href="dir_75e9dc5194008ef9ee22ae8306c0eb0f.html" target="_top" xlink:title="GRAIL">
<polygon fill="#eeeeff" stroke="black" points="136,-340 82,-340 82,-304 136,-304 136,-340"/>
<text text-anchor="middle" x="109" y="-319.5" font-family="Helvetica" font-size="10.00">GRAIL</text>
</a>
</g>
</g>
<!-- dir_75e9dc5194008ef9ee22ae8306c0eb0f&#45;&gt;dir_239469eeca6d3c1a97f8d4fbb99adcb8 -->
<g id="edge5" class="edge">
<title>dir_75e9dc5194008ef9ee22ae8306c0eb0f&#45;&gt;dir_239469eeca6d3c1a97f8d4fbb99adcb8</title>
<path fill="none" stroke="black" d="M81.95,-311.58C62.82,-303.33 38.59,-289.29 27,-268 10.79,-238.21 -13.57,-210.31 37,-88 41.3,-77.59 48.5,-67.79 55.94,-59.51"/>
<polygon fill="black" stroke="black" points="58.67,-61.72 63.05,-52.07 53.61,-56.88 58.67,-61.72"/>
<g id="a_edge5&#45;headlabel"><a xlink:href="dir_000010_000014.html" target="_top" xlink:title="1">
<text text-anchor="middle" x="58.23" y="-63.78" font-family="Helvetica" font-size="10.00">1</text>
</a>
</g>
</g>
<!-- dir_75e9dc5194008ef9ee22ae8306c0eb0f&#45;&gt;dir_44c4819b58b16e7a1f761f8b885b5ba0 -->
<g id="edge6" class="edge">
<title>dir_75e9dc5194008ef9ee22ae8306c0eb0f&#45;&gt;dir_44c4819b58b16e7a1f761f8b885b5ba0</title>
<path fill="none" stroke="black" d="M97.63,-303.7C92.28,-295.56 85.8,-285.69 79.89,-276.7"/>
<polygon fill="black" stroke="black" points="82.66,-274.54 74.24,-268.1 76.81,-278.38 82.66,-274.54"/>
<g id="a_edge6&#45;headlabel"><a xlink:href="dir_000010_000013.html" target="_top" xlink:title="3">
<text text-anchor="middle" x="87" y="-273.48" font-family="Helvetica" font-size="10.00">3</text>
</a>
</g>
</g>
<!-- dir_75e9dc5194008ef9ee22ae8306c0eb0f&#45;&gt;dir_76ec631f4004f297aa98c89994166e73 -->
<g id="edge7" class="edge">
<title>dir_75e9dc5194008ef9ee22ae8306c0eb0f&#45;&gt;dir_76ec631f4004f297aa98c89994166e73</title>
<path fill="none" stroke="black" d="M108.14,-303.76C106.98,-285.71 104.42,-256.6 99,-232 95.37,-215.53 90.07,-212.58 87,-196 83.22,-175.6 82.3,-152.14 82.29,-134.43"/>
<polygon fill="black" stroke="black" points="85.79,-134.25 82.37,-124.22 78.79,-134.19 85.79,-134.25"/>
<g id="a_edge7&#45;headlabel"><a xlink:href="dir_000010_000001.html" target="_top" xlink:title="15">
<text text-anchor="middle" x="88.59" y="-135.37" font-family="Helvetica" font-size="10.00">15</text>
</a>
</g>
</g>
<!-- dir_75e9dc5194008ef9ee22ae8306c0eb0f&#45;&gt;dir_9a404c9961da00d4b89f16bd2ea8d981 -->
<g id="edge8" class="edge">
<title>dir_75e9dc5194008ef9ee22ae8306c0eb0f&#45;&gt;dir_9a404c9961da00d4b89f16bd2ea8d981</title>
<path fill="none" stroke="black" d="M119.37,-303.87C134.29,-279.24 161.91,-233.64 179.32,-204.88"/>
<polygon fill="black" stroke="black" points="182.4,-206.56 184.59,-196.19 176.42,-202.93 182.4,-206.56"/>
<g id="a_edge8&#45;headlabel"><a xlink:href="dir_000010_000011.html" target="_top" xlink:title="4">
<text text-anchor="middle" x="182.97" y="-208.6" font-family="Helvetica" font-size="10.00">4</text>
</a>
</g>
</g>
<!-- dir_75e9dc5194008ef9ee22ae8306c0eb0f&#45;&gt;dir_a73e1d15e6da56bea42fb33a94074c1c -->
<g id="edge9" class="edge">
<title>dir_75e9dc5194008ef9ee22ae8306c0eb0f&#45;&gt;dir_a73e1d15e6da56bea42fb33a94074c1c</title>
<path fill="none" stroke="black" d="M110.69,-303.87C113.07,-279.67 117.46,-235.21 120.3,-206.39"/>
<polygon fill="black" stroke="black" points="123.81,-206.48 121.31,-196.19 116.84,-205.8 123.81,-206.48"/>
<g id="a_edge9&#45;headlabel"><a xlink:href="dir_000010_000004.html" target="_top" xlink:title="6">
<text text-anchor="middle" x="126.28" y="-207.84" font-family="Helvetica" font-size="10.00">6</text>
</a>
</g>
</g>
</g>
</svg>
