<?xml version="1.0" encoding="UTF-8" standalone="no"?>
<!DOCTYPE svg PUBLIC "-//W3C//DTD SVG 1.1//EN"
 "http://www.w3.org/Graphics/SVG/1.1/DTD/svg11.dtd">
<!-- Generated by graphviz version 2.44.0 (0)
 -->
<!-- Title: Graphical Class Hierarchy Pages: 1 -->
<svg width="454pt" height="88pt"
 viewBox="0.00 0.00 454.00 88.00" xmlns="http://www.w3.org/2000/svg" xmlns:xlink="http://www.w3.org/1999/xlink">
<g id="graph0" class="graph" transform="scale(1 1) rotate(0) translate(4 84)">
<title>Graphical Class Hierarchy</title>
<!-- Node0 -->
<g id="node1" class="node">
<title>Node0</title>
<g id="a_node1"><a xlink:href="classCDPL_1_1Util_1_1Map.html" target="_top" xlink:title=" ">
<polygon fill="none" stroke="black" points="0,-24.5 0,-54.5 111,-54.5 111,-24.5 0,-24.5"/>
<text text-anchor="start" x="8" y="-42.5" font-family="Helvetica" font-size="10.00">CDPL::Util::Map&lt; std</text>
<text text-anchor="middle" x="55.5" y="-31.5" font-family="Helvetica" font-size="10.00">::size_t, Color &gt;</text>
</a>
</g>
</g>
<!-- Node1 -->
<g id="node2" class="node">
<title>Node1</title>
<g id="a_node2"><a xlink:href="classCDPL_1_1Vis_1_1ColorTable.html" target="_top" xlink:title="A container for the storage and lookup of Vis::Color objects that are associated with a numeric ident...">
<polygon fill="none" stroke="black" points="147,-30 147,-49 263,-49 263,-30 147,-30"/>
<text text-anchor="middle" x="205" y="-37" font-family="Helvetica" font-size="10.00">CDPL::Vis::ColorTable</text>
</a>
</g>
</g>
<!-- Node0&#45;&gt;Node1 -->
<g id="edge1" class="edge">
<title>Node0&#45;&gt;Node1</title>
<path fill="none" stroke="midnightblue" d="M121.25,-39.5C129.74,-39.5 138.4,-39.5 146.75,-39.5"/>
<polygon fill="midnightblue" stroke="midnightblue" points="121,-36 111,-39.5 121,-43 121,-36"/>
</g>
<!-- Node2 -->
<g id="node3" class="node">
<title>Node2</title>
<g id="a_node3"><a xlink:href="classCDPL_1_1Vis_1_1DefaultAtomColorTable.html" target="_top" xlink:title="Provides default colors for the element dependent coloring of atom labels in 2D depictions of chemica...">
<polygon fill="none" stroke="black" points="299,-49.5 299,-79.5 446,-79.5 446,-49.5 299,-49.5"/>
<text text-anchor="start" x="307" y="-67.5" font-family="Helvetica" font-size="10.00">CDPL::Vis::DefaultAtomColor</text>
<text text-anchor="middle" x="372.5" y="-56.5" font-family="Helvetica" font-size="10.00">Table</text>
</a>
</g>
</g>
<!-- Node1&#45;&gt;Node2 -->
<g id="edge2" class="edge">
<title>Node1&#45;&gt;Node2</title>
<path fill="none" stroke="midnightblue" d="M273.45,-49.69C281.78,-50.95 290.33,-52.24 298.73,-53.51"/>
<polygon fill="midnightblue" stroke="midnightblue" points="273.83,-46.21 263.42,-48.17 272.78,-53.13 273.83,-46.21"/>
</g>
<!-- Node3 -->
<g id="node4" class="node">
<title>Node3</title>
<g id="a_node4"><a xlink:href="classCDPL_1_1Vis_1_1DefaultFeatureColorTable.html" target="_top" xlink:title="Provides default colors for the type dependent coloring of chemical features in 3D visualizations of ...">
<polygon fill="none" stroke="black" points="305.5,-0.5 305.5,-30.5 439.5,-30.5 439.5,-0.5 305.5,-0.5"/>
<text text-anchor="start" x="313.5" y="-18.5" font-family="Helvetica" font-size="10.00">CDPL::Vis::DefaultFeature</text>
<text text-anchor="middle" x="372.5" y="-7.5" font-family="Helvetica" font-size="10.00">ColorTable</text>
</a>
</g>
</g>
<!-- Node1&#45;&gt;Node3 -->
<g id="edge3" class="edge">
<title>Node1&#45;&gt;Node3</title>
<path fill="none" stroke="midnightblue" d="M273.41,-29.72C283.96,-28.19 294.86,-26.61 305.38,-25.09"/>
<polygon fill="midnightblue" stroke="midnightblue" points="272.81,-26.27 263.42,-31.17 273.82,-33.2 272.81,-26.27"/>
</g>
</g>
</svg>
