<?xml version="1.0" encoding="UTF-8" standalone="no"?>
<!DOCTYPE svg PUBLIC "-//W3C//DTD SVG 1.1//EN"
 "http://www.w3.org/Graphics/SVG/1.1/DTD/svg11.dtd">
<!-- Generated by graphviz version 2.44.0 (0)
 -->
<!-- Title: Graphical Class Hierarchy Pages: 1 -->
<svg width="495pt" height="104pt"
 viewBox="0.00 0.00 495.00 104.00" xmlns="http://www.w3.org/2000/svg" xmlns:xlink="http://www.w3.org/1999/xlink">
<g id="graph0" class="graph" transform="scale(1 1) rotate(0) translate(4 100)">
<title>Graphical Class Hierarchy</title>
<!-- Node0 -->
<g id="node1" class="node">
<title>Node0</title>
<g id="a_node1"><a xlink:href="classCDPL_1_1Vis_1_1Shape3D.html" target="_top" xlink:title="The abstract base of all classes describing the geometric shape of 3D objects.">
<polygon fill="none" stroke="black" points="0,-38.5 0,-57.5 110,-57.5 110,-38.5 0,-38.5"/>
<text text-anchor="middle" x="55" y="-45.5" font-family="Helvetica" font-size="10.00">CDPL::Vis::Shape3D</text>
</a>
</g>
</g>
<!-- Node1 -->
<g id="node2" class="node">
<title>Node1</title>
<g id="a_node2"><a xlink:href="classCDPL_1_1Vis_1_1TriangleMesh3D.html" target="_top" xlink:title="Data structure for describing the geometric shape of 3D objects by means of a triangle mesh.">
<polygon fill="none" stroke="black" points="146,-38.5 146,-57.5 286,-57.5 286,-38.5 146,-38.5"/>
<text text-anchor="middle" x="216" y="-45.5" font-family="Helvetica" font-size="10.00">CDPL::Vis::TriangleMesh3D</text>
</a>
</g>
</g>
<!-- Node0&#45;&gt;Node1 -->
<g id="edge1" class="edge">
<title>Node0&#45;&gt;Node1</title>
<path fill="none" stroke="midnightblue" d="M120.35,-48C128.73,-48 137.34,-48 145.79,-48"/>
<polygon fill="midnightblue" stroke="midnightblue" points="120.27,-44.5 110.27,-48 120.27,-51.5 120.27,-44.5"/>
</g>
<!-- Node2 -->
<g id="node3" class="node">
<title>Node2</title>
<g id="a_node3"><a xlink:href="classCDPL_1_1Vis_1_1IcosahedronMesh3D.html" target="_top" xlink:title="A pre&#45;defined triangle mesh providing the vertices and faces of a regular icosahedron.">
<polygon fill="none" stroke="black" points="325,-76.5 325,-95.5 484,-95.5 484,-76.5 325,-76.5"/>
<text text-anchor="middle" x="404.5" y="-83.5" font-family="Helvetica" font-size="10.00">CDPL::Vis::IcosahedronMesh3D</text>
</a>
</g>
</g>
<!-- Node1&#45;&gt;Node2 -->
<g id="edge2" class="edge">
<title>Node1&#45;&gt;Node2</title>
<path fill="none" stroke="midnightblue" d="M273.98,-59.61C300.5,-65.01 331.67,-71.36 356.78,-76.48"/>
<polygon fill="midnightblue" stroke="midnightblue" points="274.56,-56.16 264.06,-57.59 273.16,-63.02 274.56,-56.16"/>
</g>
<!-- Node3 -->
<g id="node4" class="node">
<title>Node3</title>
<g id="a_node4"><a xlink:href="classCDPL_1_1Vis_1_1RightFrustumMesh3D.html" target="_top" xlink:title="A pre&#45;defined triangle mesh providing the vertices and faces of a right frustum specified by the cont...">
<polygon fill="none" stroke="black" points="322,-38.5 322,-57.5 487,-57.5 487,-38.5 322,-38.5"/>
<text text-anchor="middle" x="404.5" y="-45.5" font-family="Helvetica" font-size="10.00">CDPL::Vis::RightFrustumMesh3D</text>
</a>
</g>
</g>
<!-- Node1&#45;&gt;Node3 -->
<g id="edge3" class="edge">
<title>Node1&#45;&gt;Node3</title>
<path fill="none" stroke="midnightblue" d="M296.36,-48C304.79,-48 313.37,-48 321.83,-48"/>
<polygon fill="midnightblue" stroke="midnightblue" points="296.18,-44.5 286.18,-48 296.18,-51.5 296.18,-44.5"/>
</g>
<!-- Node4 -->
<g id="node5" class="node">
<title>Node4</title>
<g id="a_node5"><a xlink:href="classCDPL_1_1Vis_1_1TorusMesh3D.html" target="_top" xlink:title="A pre&#45;defined triangle mesh providing the vertices and faces of a torus specified by the contructor a...">
<polygon fill="none" stroke="black" points="339.5,-0.5 339.5,-19.5 469.5,-19.5 469.5,-0.5 339.5,-0.5"/>
<text text-anchor="middle" x="404.5" y="-7.5" font-family="Helvetica" font-size="10.00">CDPL::Vis::TorusMesh3D</text>
</a>
</g>
</g>
<!-- Node1&#45;&gt;Node4 -->
<g id="edge4" class="edge">
<title>Node1&#45;&gt;Node4</title>
<path fill="none" stroke="midnightblue" d="M273.98,-36.39C300.5,-30.99 331.67,-24.64 356.78,-19.52"/>
<polygon fill="midnightblue" stroke="midnightblue" points="273.16,-32.98 264.06,-38.41 274.56,-39.84 273.16,-32.98"/>
</g>
</g>
</svg>
