<?xml version="1.0" encoding="UTF-8" standalone="no"?>
<!DOCTYPE svg PUBLIC "-//W3C//DTD SVG 1.1//EN"
 "http://www.w3.org/Graphics/SVG/1.1/DTD/svg11.dtd">
<!-- Generated by graphviz version 2.44.0 (0)
 -->
<!-- Title: Graphical Class Hierarchy Pages: 1 -->
<svg width="306pt" height="88pt"
 viewBox="0.00 0.00 306.00 88.00" xmlns="http://www.w3.org/2000/svg" xmlns:xlink="http://www.w3.org/1999/xlink">
<g id="graph0" class="graph" transform="scale(1 1) rotate(0) translate(4 84)">
<title>Graphical Class Hierarchy</title>
<!-- Node0 -->
<g id="node1" class="node">
<title>Node0</title>
<g id="a_node1"><a xlink:href="structCDPL_1_1Math_1_1MatrixVectorBinaryFunctor.html" target="_top" xlink:title=" ">
<polygon fill="none" stroke="black" points="0,-24.5 0,-54.5 131,-54.5 131,-24.5 0,-24.5"/>
<text text-anchor="start" x="8" y="-42.5" font-family="Helvetica" font-size="10.00">CDPL::Math::MatrixVector</text>
<text text-anchor="middle" x="65.5" y="-31.5" font-family="Helvetica" font-size="10.00">BinaryFunctor&lt; M, V &gt;</text>
</a>
</g>
</g>
<!-- Node1 -->
<g id="node2" class="node">
<title>Node1</title>
<g id="a_node2"><a xlink:href="structCDPL_1_1Math_1_1MatrixVectorProduct.html" target="_top" xlink:title=" ">
<polygon fill="none" stroke="black" points="167,-49.5 167,-79.5 298,-79.5 298,-49.5 167,-49.5"/>
<text text-anchor="start" x="175" y="-67.5" font-family="Helvetica" font-size="10.00">CDPL::Math::MatrixVector</text>
<text text-anchor="middle" x="232.5" y="-56.5" font-family="Helvetica" font-size="10.00">Product&lt; M, V &gt;</text>
</a>
</g>
</g>
<!-- Node0&#45;&gt;Node1 -->
<g id="edge1" class="edge">
<title>Node0&#45;&gt;Node1</title>
<path fill="none" stroke="midnightblue" d="M141.24,-50.82C149.82,-52.12 158.52,-53.44 166.95,-54.72"/>
<polygon fill="midnightblue" stroke="midnightblue" points="141.65,-47.35 131.24,-49.31 140.6,-54.27 141.65,-47.35"/>
</g>
<!-- Node2 -->
<g id="node3" class="node">
<title>Node2</title>
<g id="a_node3"><a xlink:href="structCDPL_1_1Math_1_1VectorMatrixProduct.html" target="_top" xlink:title=" ">
<polygon fill="none" stroke="black" points="167,-0.5 167,-30.5 298,-30.5 298,-0.5 167,-0.5"/>
<text text-anchor="start" x="175" y="-18.5" font-family="Helvetica" font-size="10.00">CDPL::Math::VectorMatrix</text>
<text text-anchor="middle" x="232.5" y="-7.5" font-family="Helvetica" font-size="10.00">Product&lt; V, M &gt;</text>
</a>
</g>
</g>
<!-- Node0&#45;&gt;Node2 -->
<g id="edge2" class="edge">
<title>Node0&#45;&gt;Node2</title>
<path fill="none" stroke="midnightblue" d="M141.24,-28.63C149.82,-27.38 158.52,-26.12 166.95,-24.89"/>
<polygon fill="midnightblue" stroke="midnightblue" points="140.63,-25.18 131.24,-30.08 141.64,-32.11 140.63,-25.18"/>
</g>
</g>
</svg>
