<?xml version="1.0" encoding="UTF-8" standalone="no"?>
<!DOCTYPE svg PUBLIC "-//W3C//DTD SVG 1.1//EN"
 "http://www.w3.org/Graphics/SVG/1.1/DTD/svg11.dtd">
<!-- Generated by graphviz version 2.44.0 (0)
 -->
<!-- Title: CDPL::Math::MatrixScalarUnaryFunctor&lt; M &gt; Pages: 1 -->
<svg width="320pt" height="106pt"
 viewBox="0.00 0.00 320.00 106.00" xmlns="http://www.w3.org/2000/svg" xmlns:xlink="http://www.w3.org/1999/xlink">
<g id="graph0" class="graph" transform="scale(1 1) rotate(0) translate(4 102)">
<title>CDPL::Math::MatrixScalarUnaryFunctor&lt; M &gt;</title>
<!-- Node1 -->
<g id="node1" class="node">
<title>Node1</title>
<g id="a_node1"><a xlink:title=" ">
<polygon fill="#bfbfbf" stroke="black" points="86.5,-67.5 86.5,-97.5 217.5,-97.5 217.5,-67.5 86.5,-67.5"/>
<text text-anchor="start" x="94.5" y="-85.5" font-family="Helvetica" font-size="10.00">CDPL::Math::MatrixScalar</text>
<text text-anchor="middle" x="152" y="-74.5" font-family="Helvetica" font-size="10.00">UnaryFunctor&lt; M &gt;</text>
</a>
</g>
</g>
<!-- Node2 -->
<g id="node2" class="node">
<title>Node2</title>
<g id="a_node2"><a xlink:href="structCDPL_1_1Math_1_1MatrixElementSum.html" target="_top" xlink:title=" ">
<polygon fill="none" stroke="black" points="0,-0.5 0,-30.5 140,-30.5 140,-0.5 0,-0.5"/>
<text text-anchor="start" x="8" y="-18.5" font-family="Helvetica" font-size="10.00">CDPL::Math::MatrixElement</text>
<text text-anchor="middle" x="70" y="-7.5" font-family="Helvetica" font-size="10.00">Sum&lt; M &gt;</text>
</a>
</g>
</g>
<!-- Node1&#45;&gt;Node2 -->
<g id="edge1" class="edge">
<title>Node1&#45;&gt;Node2</title>
<path fill="none" stroke="midnightblue" d="M126.35,-61.17C113.81,-51.23 99.03,-39.51 87.76,-30.58"/>
<polygon fill="midnightblue" stroke="midnightblue" points="124.2,-63.93 134.21,-67.4 128.54,-58.44 124.2,-63.93"/>
</g>
<!-- Node3 -->
<g id="node3" class="node">
<title>Node3</title>
<g id="a_node3"><a xlink:href="structCDPL_1_1Math_1_1MatrixTrace.html" target="_top" xlink:title=" ">
<polygon fill="none" stroke="black" points="158,-6 158,-25 312,-25 312,-6 158,-6"/>
<text text-anchor="middle" x="235" y="-13" font-family="Helvetica" font-size="10.00">CDPL::Math::MatrixTrace&lt; M &gt;</text>
</a>
</g>
</g>
<!-- Node1&#45;&gt;Node3 -->
<g id="edge2" class="edge">
<title>Node1&#45;&gt;Node3</title>
<path fill="none" stroke="midnightblue" d="M178.17,-61.01C193.58,-48.94 212.26,-34.3 223.9,-25.19"/>
<polygon fill="midnightblue" stroke="midnightblue" points="175.72,-58.47 170.01,-67.4 180.04,-63.99 175.72,-58.47"/>
</g>
</g>
</svg>
