<?xml version="1.0" encoding="UTF-8" standalone="no"?>
<!DOCTYPE svg PUBLIC "-//W3C//DTD SVG 1.1//EN"
 "http://www.w3.org/Graphics/SVG/1.1/DTD/svg11.dtd">
<!-- Generated by graphviz version 2.44.0 (0)
 -->
<!-- Title: CDPL::Math::GridTemporaryTraits&lt; G &gt; Pages: 1 -->
<svg width="358pt" height="88pt"
 viewBox="0.00 0.00 358.00 88.00" xmlns="http://www.w3.org/2000/svg" xmlns:xlink="http://www.w3.org/1999/xlink">
<g id="graph0" class="graph" transform="scale(1 1) rotate(0) translate(4 84)">
<title>CDPL::Math::GridTemporaryTraits&lt; G &gt;</title>
<!-- Node1 -->
<g id="node1" class="node">
<title>Node1</title>
<g id="a_node1"><a xlink:title=" ">
<polygon fill="#bfbfbf" stroke="black" points="0,-24.5 0,-54.5 141,-54.5 141,-24.5 0,-24.5"/>
<text text-anchor="start" x="8" y="-42.5" font-family="Helvetica" font-size="10.00">CDPL::Math::GridTemporary</text>
<text text-anchor="middle" x="70.5" y="-31.5" font-family="Helvetica" font-size="10.00">Traits&lt; G &gt;</text>
</a>
</g>
</g>
<!-- Node2 -->
<g id="node2" class="node">
<title>Node2</title>
<g id="a_node2"><a xlink:href="structCDPL_1_1Math_1_1GridTemporaryTraits_3_01GridReference_3_01G_01_4_01_4.html" target="_top" xlink:title=" ">
<polygon fill="none" stroke="black" points="190.5,-49.5 190.5,-79.5 336.5,-79.5 336.5,-49.5 190.5,-49.5"/>
<text text-anchor="start" x="198.5" y="-67.5" font-family="Helvetica" font-size="10.00">CDPL::Math::GridTemporary</text>
<text text-anchor="middle" x="263.5" y="-56.5" font-family="Helvetica" font-size="10.00">Traits&lt; GridReference&lt; G &gt; &gt;</text>
</a>
</g>
</g>
<!-- Node1&#45;&gt;Node2 -->
<g id="edge1" class="edge">
<title>Node1&#45;&gt;Node2</title>
<path fill="none" stroke="midnightblue" d="M151.5,-49.97C164.39,-51.66 177.67,-53.4 190.36,-55.06"/>
<polygon fill="midnightblue" stroke="midnightblue" points="151.64,-46.46 141.27,-48.63 150.73,-53.4 151.64,-46.46"/>
</g>
<!-- Node3 -->
<g id="node3" class="node">
<title>Node3</title>
<g id="a_node3"><a xlink:href="structCDPL_1_1Math_1_1GridTemporaryTraits_3_01const_01GridReference_3_01G_01_4_01_4.html" target="_top" xlink:title=" ">
<polygon fill="none" stroke="black" points="177,-0.5 177,-30.5 350,-30.5 350,-0.5 177,-0.5"/>
<text text-anchor="start" x="185" y="-18.5" font-family="Helvetica" font-size="10.00">CDPL::Math::GridTemporary</text>
<text text-anchor="middle" x="263.5" y="-7.5" font-family="Helvetica" font-size="10.00">Traits&lt; const GridReference&lt; G &gt; &gt;</text>
</a>
</g>
</g>
<!-- Node1&#45;&gt;Node3 -->
<g id="edge2" class="edge">
<title>Node1&#45;&gt;Node3</title>
<path fill="none" stroke="midnightblue" d="M151.46,-29.45C159.9,-28.39 168.5,-27.31 177,-26.24"/>
<polygon fill="midnightblue" stroke="midnightblue" points="150.75,-26.01 141.27,-30.73 151.62,-32.96 150.75,-26.01"/>
</g>
</g>
</svg>
