<?xml version="1.0" encoding="UTF-8" standalone="no"?>
<!DOCTYPE svg PUBLIC "-//W3C//DTD SVG 1.1//EN"
 "http://www.w3.org/Graphics/SVG/1.1/DTD/svg11.dtd">
<!-- Generated by graphviz version 2.44.0 (0)
 -->
<!-- Title: CDPL::Math::GridScalarUnaryFunctor&lt; M &gt; Pages: 1 -->
<svg width="184pt" height="174pt"
 viewBox="0.00 0.00 184.00 174.00" xmlns="http://www.w3.org/2000/svg" xmlns:xlink="http://www.w3.org/1999/xlink">
<g id="graph0" class="graph" transform="scale(1 1) rotate(0) translate(4 170)">
<title>CDPL::Math::GridScalarUnaryFunctor&lt; M &gt;</title>
<!-- Node1 -->
<g id="node1" class="node">
<title>Node1</title>
<g id="a_node1"><a xlink:title=" ">
<polygon fill="#bfbfbf" stroke="black" points="13.5,-135.5 13.5,-165.5 162.5,-165.5 162.5,-135.5 13.5,-135.5"/>
<text text-anchor="start" x="21.5" y="-153.5" font-family="Helvetica" font-size="10.00">CDPL::Math::GridScalarUnary</text>
<text text-anchor="middle" x="88" y="-142.5" font-family="Helvetica" font-size="10.00">Functor&lt; M &gt;</text>
</a>
</g>
</g>
<!-- Node2 -->
<g id="node2" class="node">
<title>Node2</title>
<g id="a_node2"><a xlink:href="structCDPL_1_1Math_1_1GridScalarUnaryFunctor.html" target="_top" xlink:title=" ">
<polygon fill="none" stroke="black" points="13.5,-57.5 13.5,-87.5 162.5,-87.5 162.5,-57.5 13.5,-57.5"/>
<text text-anchor="start" x="21.5" y="-75.5" font-family="Helvetica" font-size="10.00">CDPL::Math::GridScalarUnary</text>
<text text-anchor="middle" x="88" y="-64.5" font-family="Helvetica" font-size="10.00">Functor&lt; G &gt;</text>
</a>
</g>
</g>
<!-- Node1&#45;&gt;Node2 -->
<g id="edge1" class="edge">
<title>Node1&#45;&gt;Node2</title>
<path fill="none" stroke="orange" stroke-dasharray="5,2" d="M88,-125.09C88,-112.76 88,-98.22 88,-87.73"/>
<polygon fill="orange" stroke="orange" points="84.5,-125.2 88,-135.2 91.5,-125.21 84.5,-125.2"/>
<text text-anchor="middle" x="102.5" y="-109" font-family="Helvetica" font-size="10.00"> &lt; G &gt;</text>
</g>
<!-- Node3 -->
<g id="node3" class="node">
<title>Node3</title>
<g id="a_node3"><a xlink:href="structCDPL_1_1Math_1_1GridElementSum.html" target="_top" xlink:title=" ">
<polygon fill="none" stroke="black" points="0,-0.5 0,-19.5 176,-19.5 176,-0.5 0,-0.5"/>
<text text-anchor="middle" x="88" y="-7.5" font-family="Helvetica" font-size="10.00">CDPL::Math::GridElementSum&lt; G &gt;</text>
</a>
</g>
</g>
<!-- Node2&#45;&gt;Node3 -->
<g id="edge2" class="edge">
<title>Node2&#45;&gt;Node3</title>
<path fill="none" stroke="midnightblue" d="M88,-47.35C88,-37.51 88,-26.78 88,-19.54"/>
<polygon fill="midnightblue" stroke="midnightblue" points="84.5,-47.47 88,-57.47 91.5,-47.47 84.5,-47.47"/>
</g>
</g>
</svg>
