<?xml version="1.0" encoding="UTF-8" standalone="no"?>
<!DOCTYPE svg PUBLIC "-//W3C//DTD SVG 1.1//EN"
 "http://www.w3.org/Graphics/SVG/1.1/DTD/svg11.dtd">
<!-- Generated by graphviz version 2.44.0 (0)
 -->
<!-- Title: CDPL::Math::ScalarBinaryAssignmentFunctor&lt; T1, T2 &gt; Pages: 1 -->
<svg width="353pt" height="235pt"
 viewBox="0.00 0.00 353.00 235.00" xmlns="http://www.w3.org/2000/svg" xmlns:xlink="http://www.w3.org/1999/xlink">
<g id="graph0" class="graph" transform="scale(1 1) rotate(0) translate(4 231)">
<title>CDPL::Math::ScalarBinaryAssignmentFunctor&lt; T1, T2 &gt;</title>
<!-- Node1 -->
<g id="node1" class="node">
<title>Node1</title>
<g id="a_node1"><a xlink:title=" ">
<polygon fill="#bfbfbf" stroke="black" points="0,-98.5 0,-128.5 148,-128.5 148,-98.5 0,-98.5"/>
<text text-anchor="start" x="8" y="-116.5" font-family="Helvetica" font-size="10.00">CDPL::Math::ScalarBinary</text>
<text text-anchor="middle" x="74" y="-105.5" font-family="Helvetica" font-size="10.00">AssignmentFunctor&lt; T1, T2 &gt;</text>
</a>
</g>
</g>
<!-- Node2 -->
<g id="node2" class="node">
<title>Node2</title>
<g id="a_node2"><a xlink:href="structCDPL_1_1Math_1_1ScalarAdditionAssignment.html" target="_top" xlink:title=" ">
<polygon fill="none" stroke="black" points="194.5,-196.5 194.5,-226.5 334.5,-226.5 334.5,-196.5 194.5,-196.5"/>
<text text-anchor="start" x="202.5" y="-214.5" font-family="Helvetica" font-size="10.00">CDPL::Math::ScalarAddition</text>
<text text-anchor="middle" x="264.5" y="-203.5" font-family="Helvetica" font-size="10.00">Assignment&lt; T1, T2 &gt;</text>
</a>
</g>
</g>
<!-- Node1&#45;&gt;Node2 -->
<g id="edge1" class="edge">
<title>Node1&#45;&gt;Node2</title>
<path fill="none" stroke="midnightblue" d="M101.53,-134.9C122.79,-151.18 153.92,-173.16 184,-187.5 190.9,-190.79 198.35,-193.74 205.82,-196.36"/>
<polygon fill="midnightblue" stroke="midnightblue" points="103.66,-132.12 93.61,-128.75 99.36,-137.65 103.66,-132.12"/>
</g>
<!-- Node3 -->
<g id="node3" class="node">
<title>Node3</title>
<g id="a_node3"><a xlink:href="structCDPL_1_1Math_1_1ScalarAssignment.html" target="_top" xlink:title=" ">
<polygon fill="none" stroke="black" points="186.5,-147.5 186.5,-177.5 342.5,-177.5 342.5,-147.5 186.5,-147.5"/>
<text text-anchor="start" x="194.5" y="-165.5" font-family="Helvetica" font-size="10.00">CDPL::Math::ScalarAssignment</text>
<text text-anchor="middle" x="264.5" y="-154.5" font-family="Helvetica" font-size="10.00">&lt; T1, T2 &gt;</text>
</a>
</g>
</g>
<!-- Node1&#45;&gt;Node3 -->
<g id="edge2" class="edge">
<title>Node1&#45;&gt;Node3</title>
<path fill="none" stroke="midnightblue" d="M142.79,-131.12C163.42,-136.48 185.88,-142.32 205.77,-147.49"/>
<polygon fill="midnightblue" stroke="midnightblue" points="143.4,-127.66 132.84,-128.53 141.64,-134.44 143.4,-127.66"/>
</g>
<!-- Node4 -->
<g id="node4" class="node">
<title>Node4</title>
<g id="a_node4"><a xlink:href="structCDPL_1_1Math_1_1ScalarDivisionAssignment.html" target="_top" xlink:title=" ">
<polygon fill="none" stroke="black" points="194.5,-98.5 194.5,-128.5 334.5,-128.5 334.5,-98.5 194.5,-98.5"/>
<text text-anchor="start" x="202.5" y="-116.5" font-family="Helvetica" font-size="10.00">CDPL::Math::ScalarDivision</text>
<text text-anchor="middle" x="264.5" y="-105.5" font-family="Helvetica" font-size="10.00">Assignment&lt; T1, T2 &gt;</text>
</a>
</g>
</g>
<!-- Node1&#45;&gt;Node4 -->
<g id="edge3" class="edge">
<title>Node1&#45;&gt;Node4</title>
<path fill="none" stroke="midnightblue" d="M158.23,-113.5C170.31,-113.5 182.64,-113.5 194.41,-113.5"/>
<polygon fill="midnightblue" stroke="midnightblue" points="158.15,-110 148.15,-113.5 158.15,-117 158.15,-110"/>
</g>
<!-- Node5 -->
<g id="node5" class="node">
<title>Node5</title>
<g id="a_node5"><a xlink:href="structCDPL_1_1Math_1_1ScalarMultiplicationAssignment.html" target="_top" xlink:title=" ">
<polygon fill="none" stroke="black" points="184,-49.5 184,-79.5 345,-79.5 345,-49.5 184,-49.5"/>
<text text-anchor="start" x="192" y="-67.5" font-family="Helvetica" font-size="10.00">CDPL::Math::ScalarMultiplication</text>
<text text-anchor="middle" x="264.5" y="-56.5" font-family="Helvetica" font-size="10.00">Assignment&lt; T1, T2 &gt;</text>
</a>
</g>
</g>
<!-- Node1&#45;&gt;Node5 -->
<g id="edge4" class="edge">
<title>Node1&#45;&gt;Node5</title>
<path fill="none" stroke="midnightblue" d="M142.79,-95.88C163.42,-90.52 185.88,-84.68 205.77,-79.51"/>
<polygon fill="midnightblue" stroke="midnightblue" points="141.64,-92.56 132.84,-98.47 143.4,-99.34 141.64,-92.56"/>
</g>
<!-- Node6 -->
<g id="node6" class="node">
<title>Node6</title>
<g id="a_node6"><a xlink:href="structCDPL_1_1Math_1_1ScalarSubtractionAssignment.html" target="_top" xlink:title=" ">
<polygon fill="none" stroke="black" points="187.5,-0.5 187.5,-30.5 341.5,-30.5 341.5,-0.5 187.5,-0.5"/>
<text text-anchor="start" x="195.5" y="-18.5" font-family="Helvetica" font-size="10.00">CDPL::Math::ScalarSubtraction</text>
<text text-anchor="middle" x="264.5" y="-7.5" font-family="Helvetica" font-size="10.00">Assignment&lt; T1, T2 &gt;</text>
</a>
</g>
</g>
<!-- Node1&#45;&gt;Node6 -->
<g id="edge5" class="edge">
<title>Node1&#45;&gt;Node6</title>
<path fill="none" stroke="midnightblue" d="M102.29,-92C123.58,-76.05 154.4,-54.7 184,-40.5 191.7,-36.81 200.07,-33.49 208.39,-30.57"/>
<polygon fill="midnightblue" stroke="midnightblue" points="99.91,-89.42 94.07,-98.25 104.15,-94.99 99.91,-89.42"/>
</g>
</g>
</svg>
