<?xml version="1.0" encoding="UTF-8" standalone="no"?>
<!DOCTYPE svg PUBLIC "-//W3C//DTD SVG 1.1//EN"
 "http://www.w3.org/Graphics/SVG/1.1/DTD/svg11.dtd">
<!-- Generated by graphviz version 2.44.0 (0)
 -->
<!-- Title: CDPL::Math::ScalarUnaryFunctor&lt; T &gt; Pages: 1 -->
<svg width="374pt" height="84pt"
 viewBox="0.00 0.00 373.50 84.00" xmlns="http://www.w3.org/2000/svg" xmlns:xlink="http://www.w3.org/1999/xlink">
<g id="graph0" class="graph" transform="scale(1 1) rotate(0) translate(4 80)">
<title>CDPL::Math::ScalarUnaryFunctor&lt; T &gt;</title>
<!-- Node1 -->
<g id="node1" class="node">
<title>Node1</title>
<g id="a_node1"><a xlink:title=" ">
<polygon fill="#bfbfbf" stroke="black" points="92,-56.5 92,-75.5 280,-75.5 280,-56.5 92,-56.5"/>
<text text-anchor="middle" x="186" y="-63.5" font-family="Helvetica" font-size="10.00">CDPL::Math::ScalarUnaryFunctor&lt; T &gt;</text>
</a>
</g>
</g>
<!-- Node2 -->
<g id="node2" class="node">
<title>Node2</title>
<g id="a_node2"><a xlink:href="structCDPL_1_1Math_1_1ScalarConjugation.html" target="_top" xlink:title=" ">
<polygon fill="none" stroke="black" points="0,-0.5 0,-19.5 180,-19.5 180,-0.5 0,-0.5"/>
<text text-anchor="middle" x="90" y="-7.5" font-family="Helvetica" font-size="10.00">CDPL::Math::ScalarConjugation&lt; T &gt;</text>
</a>
</g>
</g>
<!-- Node1&#45;&gt;Node2 -->
<g id="edge1" class="edge">
<title>Node1&#45;&gt;Node2</title>
<path fill="none" stroke="midnightblue" d="M161.43,-51.18C143.76,-41.24 120.49,-28.15 105.39,-19.65"/>
<polygon fill="midnightblue" stroke="midnightblue" points="160.14,-54.47 170.58,-56.32 163.58,-48.37 160.14,-54.47"/>
</g>
<!-- Node3 -->
<g id="node3" class="node">
<title>Node3</title>
<g id="a_node3"><a xlink:href="structCDPL_1_1Math_1_1ScalarNegation.html" target="_top" xlink:title=" ">
<polygon fill="none" stroke="black" points="198.5,-0.5 198.5,-19.5 365.5,-19.5 365.5,-0.5 198.5,-0.5"/>
<text text-anchor="middle" x="282" y="-7.5" font-family="Helvetica" font-size="10.00">CDPL::Math::ScalarNegation&lt; T &gt;</text>
</a>
</g>
</g>
<!-- Node1&#45;&gt;Node3 -->
<g id="edge2" class="edge">
<title>Node1&#45;&gt;Node3</title>
<path fill="none" stroke="midnightblue" d="M210.57,-51.18C228.24,-41.24 251.51,-28.15 266.61,-19.65"/>
<polygon fill="midnightblue" stroke="midnightblue" points="208.42,-48.37 201.42,-56.32 211.86,-54.47 208.42,-48.37"/>
</g>
</g>
</svg>
