<?xml version="1.0" encoding="UTF-8" standalone="no"?>
<!DOCTYPE svg PUBLIC "-//W3C//DTD SVG 1.1//EN"
 "http://www.w3.org/Graphics/SVG/1.1/DTD/svg11.dtd">
<!-- Generated by graphviz version 2.40.1 (0)
 -->
<!-- Title: CDPL.Grid.DRegularGridSetReaderBase Pages: 1 -->
<svg width="815pt" height="382pt"
 viewBox="0.00 0.00 815.00 382.00" xmlns="http://www.w3.org/2000/svg" xmlns:xlink="http://www.w3.org/1999/xlink">
<g id="graph0" class="graph" transform="scale(1 1) rotate(0) translate(4 378)">
<title>CDPL.Grid.DRegularGridSetReaderBase</title>
<!-- Node1 -->
<g id="node1" class="node">
<title>Node1</title>
<g id="a_node1"><a xlink:title="An interface for reading data objects of type Grid.DRegularGridSet from an arbitrary data source.">
<polygon fill="#bfbfbf" stroke="#000000" points="454,-171.5 454,-201.5 603,-201.5 603,-171.5 454,-171.5"/>
<text text-anchor="start" x="462" y="-189.5" font-family="Helvetica,sans-Serif" font-size="10.00" fill="#000000">CDPL.Grid.DRegularGridSet</text>
<text text-anchor="middle" x="528.5" y="-178.5" font-family="Helvetica,sans-Serif" font-size="10.00" fill="#000000">ReaderBase</text>
</a>
</g>
</g>
<!-- Node5 -->
<g id="node5" class="node">
<title>Node5</title>
<g id="a_node5"><a xlink:href="classCDPL_1_1Grid_1_1CDFBZ2DRegularGridSetReader.html" target="_top" xlink:title=" ">
<polygon fill="none" stroke="#000000" points="647,-343.5 647,-373.5 799,-373.5 799,-343.5 647,-343.5"/>
<text text-anchor="start" x="655" y="-361.5" font-family="Helvetica,sans-Serif" font-size="10.00" fill="#000000">CDPL.Grid.CDFBZ2DRegular</text>
<text text-anchor="middle" x="723" y="-350.5" font-family="Helvetica,sans-Serif" font-size="10.00" fill="#000000">GridSetReader</text>
</a>
</g>
</g>
<!-- Node1&#45;&gt;Node5 -->
<g id="edge4" class="edge">
<title>Node1&#45;&gt;Node5</title>
<path fill="none" stroke="#191970" d="M540.0881,-210.608C557.1524,-243.5411 592.1544,-302.1836 639,-334.5 643.9938,-337.945 649.4778,-340.8993 655.1769,-343.4322"/>
<polygon fill="#191970" stroke="#191970" points="543.1988,-209.0035 535.5649,-201.6568 536.9512,-212.1606 543.1988,-209.0035"/>
</g>
<!-- Node6 -->
<g id="node6" class="node">
<title>Node6</title>
<g id="a_node6"><a xlink:href="classCDPL_1_1Grid_1_1CDFDRegularGridSetReader.html" target="_top" xlink:title="A reader for spatial regular grid set data in the native I/O format of the CDPL.">
<polygon fill="none" stroke="#000000" points="647,-294.5 647,-324.5 799,-324.5 799,-294.5 647,-294.5"/>
<text text-anchor="start" x="655" y="-312.5" font-family="Helvetica,sans-Serif" font-size="10.00" fill="#000000">CDPL.Grid.CDFDRegularGrid</text>
<text text-anchor="middle" x="723" y="-301.5" font-family="Helvetica,sans-Serif" font-size="10.00" fill="#000000">SetReader</text>
</a>
</g>
</g>
<!-- Node1&#45;&gt;Node6 -->
<g id="edge5" class="edge">
<title>Node1&#45;&gt;Node6</title>
<path fill="none" stroke="#191970" d="M548.122,-209.2898C568.6435,-231.758 602.8508,-265.5432 639,-285.5 645.1078,-288.8719 651.7328,-291.807 658.4919,-294.3533"/>
<polygon fill="#191970" stroke="#191970" points="550.4835,-206.6806 541.2024,-201.5707 545.2712,-211.3531 550.4835,-206.6806"/>
</g>
<!-- Node7 -->
<g id="node7" class="node">
<title>Node7</title>
<g id="a_node7"><a xlink:href="classCDPL_1_1Grid_1_1CDFGZDRegularGridSetReader.html" target="_top" xlink:title=" ">
<polygon fill="none" stroke="#000000" points="639.5,-245.5 639.5,-275.5 806.5,-275.5 806.5,-245.5 639.5,-245.5"/>
<text text-anchor="start" x="647.5" y="-263.5" font-family="Helvetica,sans-Serif" font-size="10.00" fill="#000000">CDPL.Grid.CDFGZDRegularGrid</text>
<text text-anchor="middle" x="723" y="-252.5" font-family="Helvetica,sans-Serif" font-size="10.00" fill="#000000">SetReader</text>
</a>
</g>
</g>
<!-- Node1&#45;&gt;Node7 -->
<g id="edge6" class="edge">
<title>Node1&#45;&gt;Node7</title>
<path fill="none" stroke="#191970" d="M567.6683,-205.9177C588.5387,-215.8293 614.8286,-227.6326 639,-236.5 647.6858,-239.6864 657.0016,-242.717 666.154,-245.485"/>
<polygon fill="#191970" stroke="#191970" points="569.0178,-202.6832 558.4877,-201.5141 565.9904,-208.9947 569.0178,-202.6832"/>
</g>
<!-- Node8 -->
<g id="node8" class="node">
<title>Node8</title>
<g id="a_node8"><a xlink:href="classCDPL_1_1Grid_1_1CompoundDRegularGridSetReader.html" target="_top" xlink:title="CompoundDataReader.">
<polygon fill="none" stroke="#000000" points="640.5,-196.5 640.5,-226.5 805.5,-226.5 805.5,-196.5 640.5,-196.5"/>
<text text-anchor="start" x="648.5" y="-214.5" font-family="Helvetica,sans-Serif" font-size="10.00" fill="#000000">CDPL.Grid.CompoundDRegular</text>
<text text-anchor="middle" x="723" y="-203.5" font-family="Helvetica,sans-Serif" font-size="10.00" fill="#000000">GridSetReader</text>
</a>
</g>
</g>
<!-- Node1&#45;&gt;Node8 -->
<g id="edge7" class="edge">
<title>Node1&#45;&gt;Node8</title>
<path fill="none" stroke="#191970" d="M613.2567,-197.3942C622.285,-198.5546 631.4594,-199.7339 640.4616,-200.891"/>
<polygon fill="#191970" stroke="#191970" points="613.5072,-193.8977 603.1425,-196.0942 612.6147,-200.8405 613.5072,-193.8977"/>
</g>
<!-- Node9 -->
<g id="node9" class="node">
<title>Node9</title>
<g id="a_node9"><a xlink:href="classCDPL_1_1Grid_1_1DRegularGridSetReader.html" target="_top" xlink:title="Reader for grid set data of type Grid.DRegularGridSet in any supported format.">
<polygon fill="none" stroke="#000000" points="648.5,-147.5 648.5,-177.5 797.5,-177.5 797.5,-147.5 648.5,-147.5"/>
<text text-anchor="start" x="656.5" y="-165.5" font-family="Helvetica,sans-Serif" font-size="10.00" fill="#000000">CDPL.Grid.DRegularGridSet</text>
<text text-anchor="middle" x="723" y="-154.5" font-family="Helvetica,sans-Serif" font-size="10.00" fill="#000000">Reader</text>
</a>
</g>
</g>
<!-- Node1&#45;&gt;Node9 -->
<g id="edge8" class="edge">
<title>Node1&#45;&gt;Node9</title>
<path fill="none" stroke="#191970" d="M613.2874,-176.0378C624.9219,-174.6022 636.7984,-173.1367 648.2359,-171.7254"/>
<polygon fill="#191970" stroke="#191970" points="612.6386,-172.5912 603.1425,-177.2896 613.4959,-179.5385 612.6386,-172.5912"/>
</g>
<!-- Node10 -->
<g id="node10" class="node">
<title>Node10</title>
<g id="a_node10"><a xlink:href="classCDPL_1_1Grid_1_1FileCDFBZ2DRegularGridSetReader.html" target="_top" xlink:title=" ">
<polygon fill="none" stroke="#000000" points="639,-98.5 639,-128.5 807,-128.5 807,-98.5 639,-98.5"/>
<text text-anchor="start" x="647" y="-116.5" font-family="Helvetica,sans-Serif" font-size="10.00" fill="#000000">CDPL.Grid.FileCDFBZ2DRegular</text>
<text text-anchor="middle" x="723" y="-105.5" font-family="Helvetica,sans-Serif" font-size="10.00" fill="#000000">GridSetReader</text>
</a>
</g>
</g>
<!-- Node1&#45;&gt;Node10 -->
<g id="edge9" class="edge">
<title>Node1&#45;&gt;Node10</title>
<path fill="none" stroke="#191970" d="M568.5997,-167.1031C589.3346,-157.4887 615.2191,-146.1226 639,-137.5 647.6977,-134.3463 657.0198,-131.3329 666.1748,-128.572"/>
<polygon fill="#191970" stroke="#191970" points="567.0341,-163.9714 559.4613,-171.3811 570.002,-170.3112 567.0341,-163.9714"/>
</g>
<!-- Node11 -->
<g id="node11" class="node">
<title>Node11</title>
<g id="a_node11"><a xlink:href="classCDPL_1_1Grid_1_1FileCDFDRegularGridSetReader.html" target="_top" xlink:title=" ">
<polygon fill="none" stroke="#000000" points="648.5,-49.5 648.5,-79.5 797.5,-79.5 797.5,-49.5 648.5,-49.5"/>
<text text-anchor="start" x="656.5" y="-67.5" font-family="Helvetica,sans-Serif" font-size="10.00" fill="#000000">CDPL.Grid.FileCDFDRegular</text>
<text text-anchor="middle" x="723" y="-56.5" font-family="Helvetica,sans-Serif" font-size="10.00" fill="#000000">GridSetReader</text>
</a>
</g>
</g>
<!-- Node1&#45;&gt;Node11 -->
<g id="edge10" class="edge">
<title>Node1&#45;&gt;Node11</title>
<path fill="none" stroke="#191970" d="M548.5129,-163.5777C569.1078,-141.3439 603.1632,-108.1667 639,-88.5 645.2493,-85.0705 652.0352,-82.0913 658.9502,-79.5127"/>
<polygon fill="#191970" stroke="#191970" points="545.694,-161.4753 541.556,-171.2287 550.8731,-166.1846 545.694,-161.4753"/>
</g>
<!-- Node12 -->
<g id="node12" class="node">
<title>Node12</title>
<g id="a_node12"><a xlink:href="classCDPL_1_1Grid_1_1FileCDFGZDRegularGridSetReader.html" target="_top" xlink:title=" ">
<polygon fill="none" stroke="#000000" points="641.5,-.5 641.5,-30.5 804.5,-30.5 804.5,-.5 641.5,-.5"/>
<text text-anchor="start" x="649.5" y="-18.5" font-family="Helvetica,sans-Serif" font-size="10.00" fill="#000000">CDPL.Grid.FileCDFGZDRegular</text>
<text text-anchor="middle" x="723" y="-7.5" font-family="Helvetica,sans-Serif" font-size="10.00" fill="#000000">GridSetReader</text>
</a>
</g>
</g>
<!-- Node1&#45;&gt;Node12 -->
<g id="edge11" class="edge">
<title>Node1&#45;&gt;Node12</title>
<path fill="none" stroke="#191970" d="M540.352,-162.133C557.5461,-129.3463 592.5055,-71.4627 639,-39.5 643.9994,-36.0632 649.4872,-33.1144 655.1889,-30.5851"/>
<polygon fill="#191970" stroke="#191970" points="537.0267,-160.9486 535.5931,-171.446 543.2601,-164.1338 537.0267,-160.9486"/>
</g>
<!-- Node2 -->
<g id="node2" class="node">
<title>Node2</title>
<g id="a_node2"><a xlink:href="classCDPL_1_1Base_1_1DataIOBase.html" target="_top" xlink:title="Provides infrastructure for the registration of I/O callback functions.">
<polygon fill="none" stroke="#000000" points="288,-177 288,-196 418,-196 418,-177 288,-177"/>
<text text-anchor="middle" x="353" y="-184" font-family="Helvetica,sans-Serif" font-size="10.00" fill="#000000">CDPL.Base.DataIOBase</text>
</a>
</g>
</g>
<!-- Node2&#45;&gt;Node1 -->
<g id="edge1" class="edge">
<title>Node2&#45;&gt;Node1</title>
<path fill="none" stroke="#191970" d="M428.5255,-186.5C436.9476,-186.5 445.523,-186.5 453.933,-186.5"/>
<polygon fill="#191970" stroke="#191970" points="428.3498,-183.0001 418.3497,-186.5 428.3497,-190.0001 428.3498,-183.0001"/>
</g>
<!-- Node3 -->
<g id="node3" class="node">
<title>Node3</title>
<g id="a_node3"><a xlink:href="classCDPL_1_1Base_1_1ControlParameterContainer.html" target="_top" xlink:title="A class providing methods for the storage and lookup of control&#45;parameter values.">
<polygon fill="none" stroke="#000000" points="94,-171.5 94,-201.5 252,-201.5 252,-171.5 94,-171.5"/>
<text text-anchor="start" x="102" y="-189.5" font-family="Helvetica,sans-Serif" font-size="10.00" fill="#000000">CDPL.Base.ControlParameter</text>
<text text-anchor="middle" x="173" y="-178.5" font-family="Helvetica,sans-Serif" font-size="10.00" fill="#000000">Container</text>
</a>
</g>
</g>
<!-- Node3&#45;&gt;Node2 -->
<g id="edge2" class="edge">
<title>Node3&#45;&gt;Node2</title>
<path fill="none" stroke="#191970" d="M262.2816,-186.5C270.8783,-186.5 279.4838,-186.5 287.7842,-186.5"/>
<polygon fill="#191970" stroke="#191970" points="262.2126,-183.0001 252.2126,-186.5 262.2125,-190.0001 262.2126,-183.0001"/>
</g>
<!-- Node4 -->
<g id="node4" class="node">
<title>Node4</title>
<g id="a_node4"><a xlink:title=" ">
<polygon fill="none" stroke="#bfbfbf" points="0,-177 0,-196 58,-196 58,-177 0,-177"/>
<text text-anchor="middle" x="29" y="-184" font-family="Helvetica,sans-Serif" font-size="10.00" fill="#000000">instance</text>
</a>
</g>
</g>
<!-- Node4&#45;&gt;Node3 -->
<g id="edge3" class="edge">
<title>Node4&#45;&gt;Node3</title>
<path fill="none" stroke="#191970" d="M68.2446,-186.5C76.2675,-186.5 84.9801,-186.5 93.8387,-186.5"/>
<polygon fill="#191970" stroke="#191970" points="68.1406,-183.0001 58.1405,-186.5 68.1405,-190.0001 68.1406,-183.0001"/>
</g>
</g>
</svg>
