<?xml version="1.0" encoding="UTF-8" standalone="no"?>
<!DOCTYPE svg PUBLIC "-//W3C//DTD SVG 1.1//EN"
 "http://www.w3.org/Graphics/SVG/1.1/DTD/svg11.dtd">
<!-- Generated by graphviz version 2.40.1 (0)
 -->
<!-- Title: CDPL.Vis.GraphicsPrimitive2D Pages: 1 -->
<svg width="469pt" height="344pt"
 viewBox="0.00 0.00 469.00 344.00" xmlns="http://www.w3.org/2000/svg" xmlns:xlink="http://www.w3.org/1999/xlink">
<g id="graph0" class="graph" transform="scale(1 1) rotate(0) translate(4 340)">
<title>CDPL.Vis.GraphicsPrimitive2D</title>
<!-- Node1 -->
<g id="node1" class="node">
<title>Node1</title>
<g id="a_node1"><a xlink:title="The abstract base class of all 2D graphics primitives.">
<polygon fill="#bfbfbf" stroke="#000000" points="94,-152.5 94,-171.5 258,-171.5 258,-152.5 94,-152.5"/>
<text text-anchor="middle" x="176" y="-159.5" font-family="Helvetica,sans-Serif" font-size="10.00" fill="#000000">CDPL.Vis.GraphicsPrimitive2D</text>
</a>
</g>
</g>
<!-- Node3 -->
<g id="node3" class="node">
<title>Node3</title>
<g id="a_node3"><a xlink:href="classCDPL_1_1Vis_1_1ClipPathPrimitive2D.html" target="_top" xlink:title="A graphics primitive representing a clipping region in 2D space.">
<polygon fill="none" stroke="#000000" points="297,-316.5 297,-335.5 458,-335.5 458,-316.5 297,-316.5"/>
<text text-anchor="middle" x="377.5" y="-323.5" font-family="Helvetica,sans-Serif" font-size="10.00" fill="#000000">CDPL.Vis.ClipPathPrimitive2D</text>
</a>
</g>
</g>
<!-- Node1&#45;&gt;Node3 -->
<g id="edge2" class="edge">
<title>Node1&#45;&gt;Node3</title>
<path fill="none" stroke="#191970" d="M185.6682,-180.5996C202.955,-211.9094 242.2507,-274.8636 294,-307 300.1887,-310.8432 307.0674,-313.9112 314.1452,-316.36"/>
<polygon fill="#191970" stroke="#191970" points="188.6605,-178.774 180.841,-171.6251 182.4957,-182.09 188.6605,-178.774"/>
</g>
<!-- Node4 -->
<g id="node4" class="node">
<title>Node4</title>
<g id="a_node4"><a xlink:href="classCDPL_1_1Vis_1_1EllipsePrimitive2D.html" target="_top" xlink:title="A graphics primitive representing a ellipse.">
<polygon fill="none" stroke="#000000" points="301,-278.5 301,-297.5 454,-297.5 454,-278.5 301,-278.5"/>
<text text-anchor="middle" x="377.5" y="-285.5" font-family="Helvetica,sans-Serif" font-size="10.00" fill="#000000">CDPL.Vis.EllipsePrimitive2D</text>
</a>
</g>
</g>
<!-- Node1&#45;&gt;Node4 -->
<g id="edge3" class="edge">
<title>Node1&#45;&gt;Node4</title>
<path fill="none" stroke="#191970" d="M190.2922,-179.7251C210.6913,-203.7826 250.5289,-246.3606 294,-269 301.3842,-272.8456 309.5334,-275.918 317.7596,-278.3713"/>
<polygon fill="#191970" stroke="#191970" points="192.7673,-177.2273 183.6855,-171.771 187.3825,-181.6999 192.7673,-177.2273"/>
</g>
<!-- Node5 -->
<g id="node5" class="node">
<title>Node5</title>
<g id="a_node5"><a xlink:href="classCDPL_1_1Vis_1_1LinePrimitive2D.html" target="_top" xlink:title="A graphics primitive representing a single line.">
<polygon fill="none" stroke="#000000" points="307,-240.5 307,-259.5 448,-259.5 448,-240.5 307,-240.5"/>
<text text-anchor="middle" x="377.5" y="-247.5" font-family="Helvetica,sans-Serif" font-size="10.00" fill="#000000">CDPL.Vis.LinePrimitive2D</text>
</a>
</g>
</g>
<!-- Node1&#45;&gt;Node5 -->
<g id="edge4" class="edge">
<title>Node1&#45;&gt;Node5</title>
<path fill="none" stroke="#191970" d="M197.7729,-177.49C220.6981,-193.1215 258.3452,-216.9063 294,-231 303.54,-234.771 314.0034,-237.8895 324.1994,-240.4332"/>
<polygon fill="#191970" stroke="#191970" points="199.6755,-174.5502 189.4607,-171.7378 195.6921,-180.3064 199.6755,-174.5502"/>
</g>
<!-- Node6 -->
<g id="node6" class="node">
<title>Node6</title>
<g id="a_node6"><a xlink:href="classCDPL_1_1Vis_1_1LineSegmentListPrimitive2D.html" target="_top" xlink:title="A graphics primitive representing a list of disjoint line segments.">
<polygon fill="none" stroke="#000000" points="305.5,-191 305.5,-221 449.5,-221 449.5,-191 305.5,-191"/>
<text text-anchor="start" x="313.5" y="-209" font-family="Helvetica,sans-Serif" font-size="10.00" fill="#000000">CDPL.Vis.LineSegmentList</text>
<text text-anchor="middle" x="377.5" y="-198" font-family="Helvetica,sans-Serif" font-size="10.00" fill="#000000">Primitive2D</text>
</a>
</g>
</g>
<!-- Node1&#45;&gt;Node6 -->
<g id="edge5" class="edge">
<title>Node1&#45;&gt;Node6</title>
<path fill="none" stroke="#191970" d="M229.7749,-173.7424C253.9472,-179.0207 282.7676,-185.314 308.5075,-190.9346"/>
<polygon fill="#191970" stroke="#191970" points="230.239,-170.2613 219.7225,-171.5473 228.7456,-177.1002 230.239,-170.2613"/>
</g>
<!-- Node7 -->
<g id="node7" class="node">
<title>Node7</title>
<g id="a_node7"><a xlink:href="classCDPL_1_1Vis_1_1PathPrimitive2D.html" target="_top" xlink:title="A graphics primitive representing an arbitrary path in 2D space.">
<polygon fill="none" stroke="#000000" points="306.5,-152.5 306.5,-171.5 448.5,-171.5 448.5,-152.5 306.5,-152.5"/>
<text text-anchor="middle" x="377.5" y="-159.5" font-family="Helvetica,sans-Serif" font-size="10.00" fill="#000000">CDPL.Vis.PathPrimitive2D</text>
</a>
</g>
</g>
<!-- Node1&#45;&gt;Node7 -->
<g id="edge6" class="edge">
<title>Node1&#45;&gt;Node7</title>
<path fill="none" stroke="#191970" d="M268.4416,-162C281.2193,-162 294.1765,-162 306.4835,-162"/>
<polygon fill="#191970" stroke="#191970" points="268.2484,-158.5001 258.2484,-162 268.2484,-165.5001 268.2484,-158.5001"/>
</g>
<!-- Node8 -->
<g id="node8" class="node">
<title>Node8</title>
<g id="a_node8"><a xlink:href="classCDPL_1_1Vis_1_1PointListPrimitive2D.html" target="_top" xlink:title="A graphics primitive representing a list of points.">
<polygon fill="none" stroke="#000000" points="296,-114.5 296,-133.5 459,-133.5 459,-114.5 296,-114.5"/>
<text text-anchor="middle" x="377.5" y="-121.5" font-family="Helvetica,sans-Serif" font-size="10.00" fill="#000000">CDPL.Vis.PointListPrimitive2D</text>
</a>
</g>
</g>
<!-- Node1&#45;&gt;Node8 -->
<g id="edge7" class="edge">
<title>Node1&#45;&gt;Node8</title>
<path fill="none" stroke="#191970" d="M236.5461,-150.5819C265.3771,-145.1448 299.4625,-138.7168 326.8923,-133.5439"/>
<polygon fill="#191970" stroke="#191970" points="235.765,-147.1674 226.5869,-152.46 237.0623,-154.0461 235.765,-147.1674"/>
</g>
<!-- Node9 -->
<g id="node9" class="node">
<title>Node9</title>
<g id="a_node9"><a xlink:href="classCDPL_1_1Vis_1_1PolygonPrimitive2D.html" target="_top" xlink:title="A graphics primitive representing a polygon.">
<polygon fill="none" stroke="#000000" points="297.5,-76.5 297.5,-95.5 457.5,-95.5 457.5,-76.5 297.5,-76.5"/>
<text text-anchor="middle" x="377.5" y="-83.5" font-family="Helvetica,sans-Serif" font-size="10.00" fill="#000000">CDPL.Vis.PolygonPrimitive2D</text>
</a>
</g>
</g>
<!-- Node1&#45;&gt;Node9 -->
<g id="edge8" class="edge">
<title>Node1&#45;&gt;Node9</title>
<path fill="none" stroke="#191970" d="M201.6095,-147.5321C225.0374,-134.8099 260.9738,-116.5663 294,-105 304.5236,-101.3145 316.0479,-98.1577 327.0833,-95.5361"/>
<polygon fill="#191970" stroke="#191970" points="199.754,-144.5581 192.6787,-152.4442 203.1276,-150.6916 199.754,-144.5581"/>
</g>
<!-- Node10 -->
<g id="node10" class="node">
<title>Node10</title>
<g id="a_node10"><a xlink:href="classCDPL_1_1Vis_1_1PolylinePrimitive2D.html" target="_top" xlink:title="A graphics primitive representing a set of connected line segments.">
<polygon fill="none" stroke="#000000" points="297.5,-38.5 297.5,-57.5 457.5,-57.5 457.5,-38.5 297.5,-38.5"/>
<text text-anchor="middle" x="377.5" y="-45.5" font-family="Helvetica,sans-Serif" font-size="10.00" fill="#000000">CDPL.Vis.PolylinePrimitive2D</text>
</a>
</g>
</g>
<!-- Node1&#45;&gt;Node10 -->
<g id="edge9" class="edge">
<title>Node1&#45;&gt;Node10</title>
<path fill="none" stroke="#191970" d="M191.9603,-145.0646C213.1917,-123.5743 252.8571,-86.9141 294,-67 302.0292,-63.1137 310.8815,-60.0054 319.73,-57.5239"/>
<polygon fill="#191970" stroke="#191970" points="189.208,-142.8752 184.7611,-152.4917 194.2343,-147.7473 189.208,-142.8752"/>
</g>
<!-- Node11 -->
<g id="node11" class="node">
<title>Node11</title>
<g id="a_node11"><a xlink:href="classCDPL_1_1Vis_1_1TextLabelPrimitive2D.html" target="_top" xlink:title="A graphics primitive representing a text label.">
<polygon fill="none" stroke="#000000" points="294,-.5 294,-19.5 461,-19.5 461,-.5 294,-.5"/>
<text text-anchor="middle" x="377.5" y="-7.5" font-family="Helvetica,sans-Serif" font-size="10.00" fill="#000000">CDPL.Vis.TextLabelPrimitive2D</text>
</a>
</g>
</g>
<!-- Node1&#45;&gt;Node11 -->
<g id="edge10" class="edge">
<title>Node1&#45;&gt;Node11</title>
<path fill="none" stroke="#191970" d="M186.8314,-143.7324C205.0837,-114.6383 244.8356,-58.0984 294,-29 300.525,-25.1381 307.7642,-22.0609 315.174,-19.6089"/>
<polygon fill="#191970" stroke="#191970" points="183.7199,-142.1116 181.4832,-152.4677 189.6899,-145.7668 183.7199,-142.1116"/>
</g>
<!-- Node2 -->
<g id="node2" class="node">
<title>Node2</title>
<g id="a_node2"><a xlink:title=" ">
<polygon fill="none" stroke="#bfbfbf" points="0,-152.5 0,-171.5 58,-171.5 58,-152.5 0,-152.5"/>
<text text-anchor="middle" x="29" y="-159.5" font-family="Helvetica,sans-Serif" font-size="10.00" fill="#000000">instance</text>
</a>
</g>
</g>
<!-- Node2&#45;&gt;Node1 -->
<g id="edge1" class="edge">
<title>Node2&#45;&gt;Node1</title>
<path fill="none" stroke="#191970" d="M68.1783,-162C76.2337,-162 84.9984,-162 93.9343,-162"/>
<polygon fill="#191970" stroke="#191970" points="68.0425,-158.5001 58.0425,-162 68.0424,-165.5001 68.0425,-158.5001"/>
</g>
</g>
</svg>
