<?xml version="1.0" encoding="UTF-8" standalone="no"?>
<!DOCTYPE svg PUBLIC "-//W3C//DTD SVG 1.1//EN"
 "http://www.w3.org/Graphics/SVG/1.1/DTD/svg11.dtd">
<!-- Generated by graphviz version 2.40.1 (0)
 -->
<!-- Title: CDPL.Math.ConstDGridExpression Pages: 1 -->
<svg width="189pt" height="140pt"
 viewBox="0.00 0.00 189.00 140.00" xmlns="http://www.w3.org/2000/svg" xmlns:xlink="http://www.w3.org/1999/xlink">
<g id="graph0" class="graph" transform="scale(1 1) rotate(0) translate(4 136)">
<title>CDPL.Math.ConstDGridExpression</title>
<!-- Node1 -->
<g id="node1" class="node">
<title>Node1</title>
<g id="a_node1"><a xlink:title=" ">
<polygon fill="#bfbfbf" stroke="#000000" points="0,-56.5 0,-75.5 181,-75.5 181,-56.5 0,-56.5"/>
<text text-anchor="middle" x="90.5" y="-63.5" font-family="Helvetica,sans-Serif" font-size="10.00" fill="#000000">CDPL.Math.ConstDGridExpression</text>
</a>
</g>
</g>
<!-- Node3 -->
<g id="node3" class="node">
<title>Node3</title>
<g id="a_node3"><a xlink:href="classCDPL_1_1Math_1_1DGridExpression.html" target="_top" xlink:title=" ">
<polygon fill="none" stroke="#000000" points="14,-.5 14,-19.5 167,-19.5 167,-.5 14,-.5"/>
<text text-anchor="middle" x="90.5" y="-7.5" font-family="Helvetica,sans-Serif" font-size="10.00" fill="#000000">CDPL.Math.DGridExpression</text>
</a>
</g>
</g>
<!-- Node1&#45;&gt;Node3 -->
<g id="edge2" class="edge">
<title>Node1&#45;&gt;Node3</title>
<path fill="none" stroke="#191970" d="M90.5,-46.1575C90.5,-37.155 90.5,-26.9199 90.5,-19.6427"/>
<polygon fill="#191970" stroke="#191970" points="87.0001,-46.2455 90.5,-56.2455 94.0001,-46.2456 87.0001,-46.2455"/>
</g>
<!-- Node2 -->
<g id="node2" class="node">
<title>Node2</title>
<g id="a_node2"><a xlink:title=" ">
<polygon fill="none" stroke="#bfbfbf" points="61.5,-112.5 61.5,-131.5 119.5,-131.5 119.5,-112.5 61.5,-112.5"/>
<text text-anchor="middle" x="90.5" y="-119.5" font-family="Helvetica,sans-Serif" font-size="10.00" fill="#000000">instance</text>
</a>
</g>
</g>
<!-- Node2&#45;&gt;Node1 -->
<g id="edge1" class="edge">
<title>Node2&#45;&gt;Node1</title>
<path fill="none" stroke="#191970" d="M90.5,-102.1575C90.5,-93.155 90.5,-82.9199 90.5,-75.6427"/>
<polygon fill="#191970" stroke="#191970" points="87.0001,-102.2455 90.5,-112.2455 94.0001,-102.2456 87.0001,-102.2455"/>
</g>
</g>
</svg>
