<?xml version="1.0" encoding="UTF-8" standalone="no"?>
<!DOCTYPE svg PUBLIC "-//W3C//DTD SVG 1.1//EN"
 "http://www.w3.org/Graphics/SVG/1.1/DTD/svg11.dtd">
<!-- Generated by graphviz version 2.40.1 (0)
 -->
<!-- Title: CDPL.Vis.Renderer2D Pages: 1 -->
<svg width="374pt" height="151pt"
 viewBox="0.00 0.00 373.50 151.00" xmlns="http://www.w3.org/2000/svg" xmlns:xlink="http://www.w3.org/1999/xlink">
<g id="graph0" class="graph" transform="scale(1 1) rotate(0) translate(4 147)">
<title>CDPL.Vis.Renderer2D</title>
<!-- Node1 -->
<g id="node1" class="node">
<title>Node1</title>
<g id="a_node1"><a xlink:title="An interface that provides methods for low level 2D drawing operations.">
<polygon fill="#bfbfbf" stroke="#000000" points="115.5,-67.5 115.5,-86.5 235.5,-86.5 235.5,-67.5 115.5,-67.5"/>
<text text-anchor="middle" x="175.5" y="-74.5" font-family="Helvetica,sans-Serif" font-size="10.00" fill="#000000">CDPL.Vis.Renderer2D</text>
</a>
</g>
</g>
<!-- Node3 -->
<g id="node3" class="node">
<title>Node3</title>
<g id="a_node3"><a xlink:href="classCDPL_1_1Vis_1_1CairoBackend_1_1CairoRenderer2D.html" target="_top" xlink:title="Implements the Renderer2D interface on top of the Cairo 2D Graphics Library.">
<polygon fill="none" stroke="#000000" points="0,-.5 0,-30.5 159,-30.5 159,-.5 0,-.5"/>
<text text-anchor="start" x="8" y="-18.5" font-family="Helvetica,sans-Serif" font-size="10.00" fill="#000000">CDPL.Vis.CairoBackend.Cairo</text>
<text text-anchor="middle" x="79.5" y="-7.5" font-family="Helvetica,sans-Serif" font-size="10.00" fill="#000000">Renderer2D</text>
</a>
</g>
</g>
<!-- Node1&#45;&gt;Node3 -->
<g id="edge2" class="edge">
<title>Node1&#45;&gt;Node3</title>
<path fill="none" stroke="#191970" d="M151.8582,-61.8545C136.974,-52.3193 117.8383,-40.0605 102.9842,-30.5446"/>
<polygon fill="#191970" stroke="#191970" points="150.1917,-64.9434 160.5,-67.3906 153.9677,-59.0492 150.1917,-64.9434"/>
</g>
<!-- Node4 -->
<g id="node4" class="node">
<title>Node4</title>
<g id="a_node4"><a xlink:href="classCDPL_1_1Vis_1_1QtBackend_1_1QtRenderer2D.html" target="_top" xlink:title="Implements the Renderer2D interface on top of the Qt Toolkit.">
<polygon fill="none" stroke="#000000" points="177.5,-6 177.5,-25 365.5,-25 365.5,-6 177.5,-6"/>
<text text-anchor="middle" x="271.5" y="-13" font-family="Helvetica,sans-Serif" font-size="10.00" fill="#000000">CDPL.Vis.QtBackend.QtRenderer2D</text>
</a>
</g>
</g>
<!-- Node1&#45;&gt;Node4 -->
<g id="edge3" class="edge">
<title>Node1&#45;&gt;Node4</title>
<path fill="none" stroke="#191970" d="M199.2486,-61.786C217.1993,-50.2864 241.2873,-34.855 256.6053,-25.0419"/>
<polygon fill="#191970" stroke="#191970" points="197.0323,-59.0492 190.5,-67.3906 200.8083,-64.9434 197.0323,-59.0492"/>
</g>
<!-- Node2 -->
<g id="node2" class="node">
<title>Node2</title>
<g id="a_node2"><a xlink:title=" ">
<polygon fill="none" stroke="#bfbfbf" points="146.5,-123.5 146.5,-142.5 204.5,-142.5 204.5,-123.5 146.5,-123.5"/>
<text text-anchor="middle" x="175.5" y="-130.5" font-family="Helvetica,sans-Serif" font-size="10.00" fill="#000000">instance</text>
</a>
</g>
</g>
<!-- Node2&#45;&gt;Node1 -->
<g id="edge1" class="edge">
<title>Node2&#45;&gt;Node1</title>
<path fill="none" stroke="#191970" d="M175.5,-113.1575C175.5,-104.155 175.5,-93.9199 175.5,-86.6427"/>
<polygon fill="#191970" stroke="#191970" points="172.0001,-113.2455 175.5,-123.2455 179.0001,-113.2456 172.0001,-113.2455"/>
</g>
</g>
</svg>
