<?xml version="1.0" encoding="UTF-8" standalone="no"?>
<!DOCTYPE svg PUBLIC "-//W3C//DTD SVG 1.1//EN"
 "http://www.w3.org/Graphics/SVG/1.1/DTD/svg11.dtd">
<!-- Generated by graphviz version 2.40.1 (0)
 -->
<!-- Title: CDPL::Math::VectorReference&lt; V &gt; Pages: 1 -->
<svg width="366pt" height="263pt"
 viewBox="0.00 0.00 365.50 263.00" xmlns="http://www.w3.org/2000/svg" xmlns:xlink="http://www.w3.org/1999/xlink">
<g id="graph0" class="graph" transform="scale(1 1) rotate(0) translate(4 259)">
<title>CDPL::Math::VectorReference&lt; V &gt;</title>
<!-- Node1 -->
<g id="node1" class="node">
<title>Node1</title>
<g id="a_node1"><a xlink:title=" ">
<polygon fill="#bfbfbf" stroke="#000000" points="73.5,-.5 73.5,-19.5 260.5,-19.5 260.5,-.5 73.5,-.5"/>
<text text-anchor="middle" x="167" y="-7.5" font-family="Helvetica,sans-Serif" font-size="10.00" fill="#000000">CDPL::Math::VectorReference&lt; V &gt;</text>
</a>
</g>
</g>
<!-- Node2 -->
<g id="node2" class="node">
<title>Node2</title>
<g id="a_node2"><a xlink:href="classCDPL_1_1Math_1_1VectorExpression.html" target="_top" xlink:title=" ">
<polygon fill="none" stroke="#000000" points="86,-57.5 86,-87.5 248,-87.5 248,-57.5 86,-57.5"/>
<text text-anchor="start" x="94" y="-75.5" font-family="Helvetica,sans-Serif" font-size="10.00" fill="#000000">CDPL::Math::VectorExpression</text>
<text text-anchor="middle" x="167" y="-64.5" font-family="Helvetica,sans-Serif" font-size="10.00" fill="#000000">&lt; VectorReference&lt; V &gt; &gt;</text>
</a>
</g>
</g>
<!-- Node2&#45;&gt;Node1 -->
<g id="edge1" class="edge">
<title>Node2&#45;&gt;Node1</title>
<path fill="none" stroke="#191970" d="M167,-47.3498C167,-37.6481 167,-27.1303 167,-19.7356"/>
<polygon fill="#191970" stroke="#191970" points="163.5001,-47.3705 167,-57.3705 170.5001,-47.3705 163.5001,-47.3705"/>
</g>
<!-- Node3 -->
<g id="node3" class="node">
<title>Node3</title>
<g id="a_node3"><a xlink:href="classCDPL_1_1Math_1_1Expression.html" target="_top" xlink:title=" ">
<polygon fill="none" stroke="#000000" points="0,-146.5 0,-176.5 148,-176.5 148,-146.5 0,-146.5"/>
<text text-anchor="start" x="8" y="-164.5" font-family="Helvetica,sans-Serif" font-size="10.00" fill="#000000">CDPL::Math::Expression</text>
<text text-anchor="middle" x="74" y="-153.5" font-family="Helvetica,sans-Serif" font-size="10.00" fill="#000000">&lt; VectorReference&lt; V &gt; &gt;</text>
</a>
</g>
</g>
<!-- Node3&#45;&gt;Node2 -->
<g id="edge2" class="edge">
<title>Node3&#45;&gt;Node2</title>
<path fill="none" stroke="#191970" d="M97.0742,-139.4183C113.9095,-123.307 136.29,-101.8892 151.1464,-87.6717"/>
<polygon fill="#191970" stroke="#191970" points="94.581,-136.9597 89.7762,-146.4024 99.4208,-142.017 94.581,-136.9597"/>
</g>
<!-- Node4 -->
<g id="node4" class="node">
<title>Node4</title>
<g id="a_node4"><a xlink:href="classCDPL_1_1Math_1_1Expression.html" target="_top" xlink:title=" ">
<polygon fill="none" stroke="#000000" points="88,-235.5 88,-254.5 248,-254.5 248,-235.5 88,-235.5"/>
<text text-anchor="middle" x="168" y="-242.5" font-family="Helvetica,sans-Serif" font-size="10.00" fill="#000000">CDPL::Math::Expression&lt; E &gt;</text>
</a>
</g>
</g>
<!-- Node4&#45;&gt;Node3 -->
<g id="edge3" class="edge">
<title>Node4&#45;&gt;Node3</title>
<path fill="none" stroke="#ffa500" stroke-dasharray="5,2" d="M143.6949,-229.636C138.0459,-225.7323 132.175,-221.3926 127,-217 112.3734,-204.5847 97.4322,-188.5761 87.1582,-176.9449"/>
<polygon fill="#ffa500" stroke="#ffa500" points="141.9979,-232.7115 152.2573,-235.3565 145.8866,-226.891 141.9979,-232.7115"/>
<text text-anchor="start" x="127" y="-209" font-family="Helvetica,sans-Serif" font-size="10.00" fill="#000000"> &lt; VectorReference&lt;</text>
<text text-anchor="middle" x="178.5" y="-198" font-family="Helvetica,sans-Serif" font-size="10.00" fill="#000000"> V &gt; &gt;</text>
</g>
<!-- Node5 -->
<g id="node5" class="node">
<title>Node5</title>
<g id="a_node5"><a xlink:href="classCDPL_1_1Math_1_1VectorExpression.html" target="_top" xlink:title=" ">
<polygon fill="none" stroke="#000000" points="166.5,-152 166.5,-171 357.5,-171 357.5,-152 166.5,-152"/>
<text text-anchor="middle" x="262" y="-159" font-family="Helvetica,sans-Serif" font-size="10.00" fill="#000000">CDPL::Math::VectorExpression&lt; E &gt;</text>
</a>
</g>
</g>
<!-- Node4&#45;&gt;Node5 -->
<g id="edge5" class="edge">
<title>Node4&#45;&gt;Node5</title>
<path fill="none" stroke="#191970" d="M208.0859,-231.3405C215.9092,-227.4987 223.6454,-222.7558 230,-217 244.1788,-204.1574 253.7502,-183.5185 258.5048,-171.3569"/>
<polygon fill="#191970" stroke="#191970" points="206.6314,-228.1568 198.9397,-235.443 209.4963,-234.5438 206.6314,-228.1568"/>
</g>
<!-- Node5&#45;&gt;Node2 -->
<g id="edge4" class="edge">
<title>Node5&#45;&gt;Node2</title>
<path fill="none" stroke="#ffa500" stroke-dasharray="5,2" d="M244.4854,-145.0916C226.9279,-128.643 200.1235,-103.5315 183.0886,-87.5725"/>
<polygon fill="#ffa500" stroke="#ffa500" points="242.1426,-147.6928 251.8333,-151.9754 246.9285,-142.5843 242.1426,-147.6928"/>
<text text-anchor="start" x="225" y="-120" font-family="Helvetica,sans-Serif" font-size="10.00" fill="#000000"> &lt; VectorReference&lt;</text>
<text text-anchor="middle" x="276.5" y="-109" font-family="Helvetica,sans-Serif" font-size="10.00" fill="#000000"> V &gt; &gt;</text>
</g>
</g>
</svg>
