<?xml version="1.0" encoding="UTF-8" standalone="no"?>
<!DOCTYPE svg PUBLIC "-//W3C//DTD SVG 1.1//EN"
 "http://www.w3.org/Graphics/SVG/1.1/DTD/svg11.dtd">
<!-- Generated by graphviz version 2.40.1 (0)
 -->
<!-- Title: CDPL::Descr::AutoCorrelation3DVectorCalculator&lt; T &gt; Pages: 1 -->
<!--zoomable 100 -->
<svg id="main" version="1.1" xmlns="http://www.w3.org/2000/svg" xmlns:xlink="http://www.w3.org/1999/xlink" xml:space="preserve" onload="init(evt)">
<style type="text/css"><![CDATA[
.edge:hover path { stroke: red; }
.edge:hover polygon { stroke: red; fill: red; }
]]></style>
<script type="text/javascript"><![CDATA[
var edges = document.getElementsByTagName('g');
if (edges && edges.length) {
  for (var i=0;i<edges.length;i++) {
    if (edges[i].id.substr(0,4)=='edge') {
      edges[i].setAttribute('class','edge');
    }
  }
}
]]></script>
        <defs>
                <circle id="rim" cx="0" cy="0" r="7"/>
                <circle id="rim2" cx="0" cy="0" r="3.5"/>
                <g id="zoomPlus">
                        <use xlink:href="#rim" fill="#404040">
                                <set attributeName="fill" to="#808080" begin="zoomplus.mouseover" end="zoomplus.mouseout"/>
                        </use>
                        <path d="M-4,0h8M0,-4v8" fill="none" stroke="white" stroke-width="1.5" pointer-events="none"/>
                </g>
                <g id="zoomMin">
                        <use xlink:href="#rim" fill="#404040">
                                <set attributeName="fill" to="#808080" begin="zoomminus.mouseover" end="zoomminus.mouseout"/>
                        </use>
                        <path d="M-4,0h8" fill="none" stroke="white" stroke-width="1.5" pointer-events="none"/>
                </g>
                <g id="dirArrow">
                        <path fill="none" stroke="white" stroke-width="1.5" d="M0,-3.0v7 M-2.5,-0.5L0,-3.0L2.5,-0.5"/>
                </g>
               <g id="resetDef">
                       <use xlink:href="#rim2" fill="#404040">
                               <set attributeName="fill" to="#808080" begin="reset.mouseover" end="reset.mouseout"/>
                       </use>
               </g>
        </defs>

<script type="text/javascript">
var viewWidth = 724;
var viewHeight = 100;
var sectionId = 'dynsection-0';
</script>
<script xlink:href="svgpan.js"/>
<svg id="graph" class="graph">
<g id="viewport">
<title>CDPL::Descr::AutoCorrelation3DVectorCalculator&lt; T &gt;</title>
<!-- Node1 -->
<g id="node1" class="node">
<title>Node1</title>
<g id="a_node1"><a xlink:title="AutoCorrelation3DVectorCalculator.">
<polygon fill="#bfbfbf" stroke="#000000" points="0,-27.5 0,-57.5 164,-57.5 164,-27.5 0,-27.5"/>
<text text-anchor="start" x="8" y="-45.5" font-family="Helvetica,sans-Serif" font-size="10.00" fill="#000000">CDPL::Descr::AutoCorrelation3</text>
<text text-anchor="middle" x="82" y="-34.5" font-family="Helvetica,sans-Serif" font-size="10.00" fill="#000000">DVectorCalculator&lt; T &gt;</text>
</a>
</g>
</g>
<!-- Node2 -->
<g id="node2" class="node">
<title>Node2</title>
<g id="a_node2"><a xlink:href="classCDPL_1_1Descr_1_1AutoCorrelation3DVectorCalculator.html" target="_top" xlink:title=" ">
<polygon fill="none" stroke="#000000" points="312,-50 312,-91 476,-91 476,-50 312,-50"/>
<text text-anchor="start" x="320" y="-79" font-family="Helvetica,sans-Serif" font-size="10.00" fill="#000000">CDPL::Descr::AutoCorrelation3</text>
<text text-anchor="start" x="320" y="-68" font-family="Helvetica,sans-Serif" font-size="10.00" fill="#000000">DVectorCalculator&lt; Pharm</text>
<text text-anchor="middle" x="394" y="-57" font-family="Helvetica,sans-Serif" font-size="10.00" fill="#000000">::Feature &gt;</text>
</a>
</g>
</g>
<!-- Node1&#45;&gt;Node2 -->
<g id="edge1" class="edge">
<title>Node1&#45;&gt;Node2</title>
<path fill="none" stroke="#ffa500" stroke-dasharray="5,2" d="M174.4277,-50.7948C218.0732,-54.7117 269.7278,-59.3474 311.9679,-63.1381"/>
<polygon fill="#ffa500" stroke="#ffa500" points="174.6553,-47.3012 164.3824,-49.8933 174.0295,-54.2732 174.6553,-47.3012"/>
<text text-anchor="middle" x="232" y="-62.5" font-family="Helvetica,sans-Serif" font-size="10.00" fill="#000000"> &lt; Pharm::Feature &gt;</text>
</g>
<!-- Node4 -->
<g id="node4" class="node">
<title>Node4</title>
<g id="a_node4"><a xlink:href="classCDPL_1_1Descr_1_1AutoCorrelation3DVectorCalculator.html" target="_top" xlink:title=" ">
<polygon fill="none" stroke="#000000" points="300,-.5 300,-30.5 488,-30.5 488,-.5 300,-.5"/>
<text text-anchor="start" x="308" y="-18.5" font-family="Helvetica,sans-Serif" font-size="10.00" fill="#000000">CDPL::Descr::AutoCorrelation3</text>
<text text-anchor="middle" x="394" y="-7.5" font-family="Helvetica,sans-Serif" font-size="10.00" fill="#000000">DVectorCalculator&lt; Chem::Atom &gt;</text>
</a>
</g>
</g>
<!-- Node1&#45;&gt;Node4 -->
<g id="edge3" class="edge">
<title>Node1&#45;&gt;Node4</title>
<path fill="none" stroke="#ffa500" stroke-dasharray="5,2" d="M174.258,-32.2341C176.8663,-31.9816 179.4511,-31.7363 182,-31.5 220.4984,-27.9309 262.986,-24.6037 299.7525,-21.9181"/>
<polygon fill="#ffa500" stroke="#ffa500" points="173.7139,-28.7708 164.1078,-33.2398 174.4042,-35.7367 173.7139,-28.7708"/>
<text text-anchor="middle" x="232" y="-34.5" font-family="Helvetica,sans-Serif" font-size="10.00" fill="#000000"> &lt; Chem::Atom &gt;</text>
</g>
<!-- Node3 -->
<g id="node3" class="node">
<title>Node3</title>
<g id="a_node3"><a xlink:href="classCDPL_1_1Descr_1_1FeatureAutoCorrelation3DVectorCalculator.html" target="_top" xlink:title="FeatureAutoCorrelation3DVectorCalculator.">
<polygon fill="none" stroke="#000000" points="538.5,-55.5 538.5,-85.5 702.5,-85.5 702.5,-55.5 538.5,-55.5"/>
<text text-anchor="start" x="546.5" y="-73.5" font-family="Helvetica,sans-Serif" font-size="10.00" fill="#000000">CDPL::Descr::FeatureAuto</text>
<text text-anchor="middle" x="620.5" y="-62.5" font-family="Helvetica,sans-Serif" font-size="10.00" fill="#000000">Correlation3DVectorCalculator</text>
</a>
</g>
</g>
<!-- Node2&#45;&gt;Node3 -->
<g id="edge2" class="edge">
<title>Node2&#45;&gt;Node3</title>
<path fill="none" stroke="#191970" d="M486.1656,-70.5C503.4294,-70.5 521.3709,-70.5 538.3079,-70.5"/>
<polygon fill="#191970" stroke="#191970" points="486.092,-67.0001 476.0919,-70.5 486.0919,-74.0001 486.092,-67.0001"/>
</g>
<!-- Node5 -->
<g id="node5" class="node">
<title>Node5</title>
<g id="a_node5"><a xlink:href="classCDPL_1_1Descr_1_1AtomAutoCorrelation3DVectorCalculator.html" target="_top" xlink:title="AtomAutoCorrelation3DVectorCalculator.">
<polygon fill="none" stroke="#000000" points="525,-.5 525,-30.5 716,-30.5 716,-.5 525,-.5"/>
<text text-anchor="start" x="533" y="-18.5" font-family="Helvetica,sans-Serif" font-size="10.00" fill="#000000">CDPL::Descr::AtomAutoCorrelation3</text>
<text text-anchor="middle" x="620.5" y="-7.5" font-family="Helvetica,sans-Serif" font-size="10.00" fill="#000000">DVectorCalculator</text>
</a>
</g>
</g>
<!-- Node4&#45;&gt;Node5 -->
<g id="edge4" class="edge">
<title>Node4&#45;&gt;Node5</title>
<path fill="none" stroke="#191970" d="M498.1152,-15.5C507.035,-15.5 516.0309,-15.5 524.8796,-15.5"/>
<polygon fill="#191970" stroke="#191970" points="498.0887,-12.0001 488.0887,-15.5 498.0886,-19.0001 498.0887,-12.0001"/>
</g>
</g>
</svg>
        <g id="navigator" transform="translate(0 0)" fill="#404254">
                <rect fill="#f2f5e9" fill-opacity="0.5" stroke="#606060" stroke-width=".5" x="0" y="0" width="60" height="60"/>
                <use id="zoomplus" xlink:href="#zoomPlus" x="17" y="9" onmousedown="handleZoom(evt,'in')"/>
                <use id="zoomminus" xlink:href="#zoomMin" x="42" y="9" onmousedown="handleZoom(evt,'out')"/>
                <use id="reset" xlink:href="#resetDef" x="30" y="36" onmousedown="handleReset()"/>
                <g id="arrowUp" xlink:href="#dirArrow" transform="translate(30 24)" onmousedown="handlePan(0,-1)">
                  <use xlink:href="#rim" fill="#404040">
                        <set attributeName="fill" to="#808080" begin="arrowUp.mouseover" end="arrowUp.mouseout"/>
                  </use>
                  <path fill="none" stroke="white" stroke-width="1.5" d="M0,-3.0v7 M-2.5,-0.5L0,-3.0L2.5,-0.5"/>
                </g>
                <g id="arrowRight" xlink:href="#dirArrow" transform="rotate(90) translate(36 -43)" onmousedown="handlePan(1,0)">
                  <use xlink:href="#rim" fill="#404040">
                        <set attributeName="fill" to="#808080" begin="arrowRight.mouseover" end="arrowRight.mouseout"/>
                  </use>
                  <path fill="none" stroke="white" stroke-width="1.5" d="M0,-3.0v7 M-2.5,-0.5L0,-3.0L2.5,-0.5"/>
                </g>
                <g id="arrowDown" xlink:href="#dirArrow" transform="rotate(180) translate(-30 -48)" onmousedown="handlePan(0,1)">
                  <use xlink:href="#rim" fill="#404040">
                        <set attributeName="fill" to="#808080" begin="arrowDown.mouseover" end="arrowDown.mouseout"/>
                  </use>
                  <path fill="none" stroke="white" stroke-width="1.5" d="M0,-3.0v7 M-2.5,-0.5L0,-3.0L2.5,-0.5"/>
                </g>
                <g id="arrowLeft" xlink:href="#dirArrow" transform="rotate(270) translate(-36 17)" onmousedown="handlePan(-1,0)">
                  <use xlink:href="#rim" fill="#404040">
                        <set attributeName="fill" to="#808080" begin="arrowLeft.mouseover" end="arrowLeft.mouseout"/>
                  </use>
                  <path fill="none" stroke="white" stroke-width="1.5" d="M0,-3.0v7 M-2.5,-0.5L0,-3.0L2.5,-0.5"/>
                </g>
        </g>
        <svg viewBox="0 0 15 15" width="100%" height="30px" preserveAspectRatio="xMaxYMin meet">
         <g id="arrow_out" transform="scale(0.3 0.3)">
          <a xlink:href="classCDPL_1_1Descr_1_1AutoCorrelation3DVectorCalculator__inherit__graph_org.svg" target="_base">
           <rect id="button" ry="5" rx="5" y="6" x="6" height="38" width="38"
                fill="#f2f5e9" fill-opacity="0.5" stroke="#606060" stroke-width="1.0"/>
           <path id="arrow"
             d="M 11.500037,31.436501 C 11.940474,20.09759 22.043105,11.32322 32.158766,21.979434 L 37.068811,17.246167 C 37.068811,17.246167 37.088388,32 37.088388,32 L 22.160133,31.978069 C 22.160133,31.978069 26.997745,27.140456 26.997745,27.140456 C 18.528582,18.264221 13.291696,25.230495 11.500037,31.436501 z"
             style="fill:#404040;"/>
          </a>
         </g>
        </svg>
</svg>
