<?xml version="1.0" encoding="UTF-8" standalone="no"?>
<!DOCTYPE svg PUBLIC "-//W3C//DTD SVG 1.1//EN"
 "http://www.w3.org/Graphics/SVG/1.1/DTD/svg11.dtd">
<!-- Generated by graphviz version 2.40.1 (0)
 -->
<!-- Title: CDPL::Math::SparseMatrix&lt; T, A &gt; Pages: 1 -->
<svg width="1569pt" height="146pt"
 viewBox="0.00 0.00 1569.00 145.50" xmlns="http://www.w3.org/2000/svg" xmlns:xlink="http://www.w3.org/1999/xlink">
<g id="graph0" class="graph" transform="scale(1 1) rotate(0) translate(4 141.5)">
<title>CDPL::Math::SparseMatrix&lt; T, A &gt;</title>
<!-- Node1 -->
<g id="node1" class="node">
<title>Node1</title>
<g id="a_node1"><a xlink:title=" ">
<polygon fill="#bfbfbf" stroke="#000000" points="1419,-33 1419,-63 1561,-63 1561,-33 1419,-33"/>
<text text-anchor="start" x="1427" y="-51" font-family="Helvetica,sans-Serif" font-size="10.00" fill="#000000">CDPL::Math::SparseMatrix</text>
<text text-anchor="middle" x="1490" y="-40" font-family="Helvetica,sans-Serif" font-size="10.00" fill="#000000">&lt; T, A &gt;</text>
</a>
</g>
</g>
<!-- Node2 -->
<g id="node2" class="node">
<title>Node2</title>
<g id="a_node2"><a xlink:href="classCDPL_1_1Math_1_1MatrixContainer.html" target="_top" xlink:title=" ">
<polygon fill="none" stroke="#000000" points="1226,-22 1226,-74 1382,-74 1382,-22 1226,-22"/>
<text text-anchor="start" x="1234" y="-62" font-family="Helvetica,sans-Serif" font-size="10.00" fill="#000000">CDPL::Math::MatrixContainer</text>
<text text-anchor="start" x="1234" y="-51" font-family="Helvetica,sans-Serif" font-size="10.00" fill="#000000">&lt; SparseMatrix&lt; T, std::</text>
<text text-anchor="start" x="1234" y="-40" font-family="Helvetica,sans-Serif" font-size="10.00" fill="#000000">unordered_map&lt; std::uint64</text>
<text text-anchor="middle" x="1304" y="-29" font-family="Helvetica,sans-Serif" font-size="10.00" fill="#000000">_t, T &gt; &gt; &gt;</text>
</a>
</g>
</g>
<!-- Node2&#45;&gt;Node1 -->
<g id="edge1" class="edge">
<title>Node2&#45;&gt;Node1</title>
<path fill="none" stroke="#191970" d="M1392.1646,-48C1401.142,-48 1410.1797,-48 1418.9418,-48"/>
<polygon fill="#191970" stroke="#191970" points="1392.0723,-44.5001 1382.0723,-48 1392.0723,-51.5001 1392.0723,-44.5001"/>
</g>
<!-- Node3 -->
<g id="node3" class="node">
<title>Node3</title>
<g id="a_node3"><a xlink:href="classCDPL_1_1Math_1_1MatrixExpression.html" target="_top" xlink:title=" ">
<polygon fill="none" stroke="#000000" points="662,-52.5 662,-93.5 847,-93.5 847,-52.5 662,-52.5"/>
<text text-anchor="start" x="670" y="-81.5" font-family="Helvetica,sans-Serif" font-size="10.00" fill="#000000">CDPL::Math::MatrixExpression</text>
<text text-anchor="start" x="670" y="-70.5" font-family="Helvetica,sans-Serif" font-size="10.00" fill="#000000">&lt; SparseMatrix&lt; T, std::unordered</text>
<text text-anchor="middle" x="754.5" y="-59.5" font-family="Helvetica,sans-Serif" font-size="10.00" fill="#000000">_map&lt; std::uint64_t, T &gt; &gt; &gt;</text>
</a>
</g>
</g>
<!-- Node3&#45;&gt;Node2 -->
<g id="edge2" class="edge">
<title>Node3&#45;&gt;Node2</title>
<path fill="none" stroke="#191970" d="M857.2431,-71.672C949.2283,-69.99 1087.7443,-66.2417 1208,-58 1213.8512,-57.599 1219.8968,-57.1207 1225.9745,-56.5938"/>
<polygon fill="#191970" stroke="#191970" points="857.0339,-68.175 847.0979,-71.8525 857.1586,-75.1739 857.0339,-68.175"/>
</g>
<!-- Node4 -->
<g id="node4" class="node">
<title>Node4</title>
<g id="a_node4"><a xlink:href="classCDPL_1_1Math_1_1Expression.html" target="_top" xlink:title=" ">
<polygon fill="none" stroke="#000000" points="328.5,-85 328.5,-137 490.5,-137 490.5,-85 328.5,-85"/>
<text text-anchor="start" x="336.5" y="-125" font-family="Helvetica,sans-Serif" font-size="10.00" fill="#000000">CDPL::Math::Expression</text>
<text text-anchor="start" x="336.5" y="-114" font-family="Helvetica,sans-Serif" font-size="10.00" fill="#000000">&lt; SparseMatrix&lt; T, std</text>
<text text-anchor="start" x="336.5" y="-103" font-family="Helvetica,sans-Serif" font-size="10.00" fill="#000000">::unordered_map&lt; std::uint64</text>
<text text-anchor="middle" x="409.5" y="-92" font-family="Helvetica,sans-Serif" font-size="10.00" fill="#000000">_t, T &gt; &gt; &gt;</text>
</a>
</g>
</g>
<!-- Node4&#45;&gt;Node3 -->
<g id="edge3" class="edge">
<title>Node4&#45;&gt;Node3</title>
<path fill="none" stroke="#191970" d="M500.838,-110.5708C543.5829,-109.3713 595.0808,-106.495 641,-100 652.632,-98.3547 664.8192,-96.069 676.7131,-93.5176"/>
<polygon fill="#191970" stroke="#191970" points="500.6415,-107.0746 490.7338,-110.828 500.8196,-114.0723 500.6415,-107.0746"/>
</g>
<!-- Node5 -->
<g id="node5" class="node">
<title>Node5</title>
<g id="a_node5"><a xlink:href="classCDPL_1_1Math_1_1Expression.html" target="_top" xlink:title=" ">
<polygon fill="none" stroke="#000000" points="0,-43.5 0,-62.5 160,-62.5 160,-43.5 0,-43.5"/>
<text text-anchor="middle" x="80" y="-50.5" font-family="Helvetica,sans-Serif" font-size="10.00" fill="#000000">CDPL::Math::Expression&lt; E &gt;</text>
</a>
</g>
</g>
<!-- Node5&#45;&gt;Node4 -->
<g id="edge4" class="edge">
<title>Node5&#45;&gt;Node4</title>
<path fill="none" stroke="#ffa500" stroke-dasharray="5,2" d="M143.9247,-64.2523C196.5343,-73.5129 271.4309,-86.6965 328.2826,-96.7038"/>
<polygon fill="#ffa500" stroke="#ffa500" points="144.4966,-60.7992 134.0413,-62.5126 143.2831,-67.6933 144.4966,-60.7992"/>
<text text-anchor="start" x="178" y="-115" font-family="Helvetica,sans-Serif" font-size="10.00" fill="#000000"> &lt; SparseMatrix&lt; T,</text>
<text text-anchor="start" x="178" y="-104" font-family="Helvetica,sans-Serif" font-size="10.00" fill="#000000"> std::unordered_map</text>
<text text-anchor="middle" x="237" y="-93" font-family="Helvetica,sans-Serif" font-size="10.00" fill="#000000">&lt; std::uint64_t, T &gt; &gt; &gt;</text>
</g>
<!-- Node6 -->
<g id="node6" class="node">
<title>Node6</title>
<g id="a_node6"><a xlink:href="classCDPL_1_1Math_1_1MatrixExpression.html" target="_top" xlink:title=" ">
<polygon fill="none" stroke="#000000" points="314,-43.5 314,-62.5 505,-62.5 505,-43.5 314,-43.5"/>
<text text-anchor="middle" x="409.5" y="-50.5" font-family="Helvetica,sans-Serif" font-size="10.00" fill="#000000">CDPL::Math::MatrixExpression&lt; E &gt;</text>
</a>
</g>
</g>
<!-- Node5&#45;&gt;Node6 -->
<g id="edge6" class="edge">
<title>Node5&#45;&gt;Node6</title>
<path fill="none" stroke="#191970" d="M170.4235,-53C214.9946,-53 268.7484,-53 313.988,-53"/>
<polygon fill="#191970" stroke="#191970" points="170.1835,-49.5001 160.1834,-53 170.1834,-56.5001 170.1835,-49.5001"/>
</g>
<!-- Node9 -->
<g id="node9" class="node">
<title>Node9</title>
<g id="a_node9"><a xlink:href="classCDPL_1_1Math_1_1Expression.html" target="_top" xlink:title=" ">
<polygon fill="none" stroke="#000000" points="329,-.5 329,-19.5 490,-19.5 490,-.5 329,-.5"/>
<text text-anchor="middle" x="409.5" y="-7.5" font-family="Helvetica,sans-Serif" font-size="10.00" fill="#000000">CDPL::Math::Expression&lt; C &gt;</text>
</a>
</g>
</g>
<!-- Node5&#45;&gt;Node9 -->
<g id="edge10" class="edge">
<title>Node5&#45;&gt;Node9</title>
<path fill="none" stroke="#ffa500" stroke-dasharray="5,2" d="M150.1549,-41.988C159.5106,-40.5998 168.9833,-39.235 178,-38 228.0365,-31.1465 284.2803,-24.3234 328.7997,-19.1286"/>
<polygon fill="#ffa500" stroke="#ffa500" points="149.4468,-38.5549 140.0761,-43.4985 150.4844,-45.4776 149.4468,-38.5549"/>
<text text-anchor="middle" x="237" y="-41" font-family="Helvetica,sans-Serif" font-size="10.00" fill="#000000"> &lt; C &gt;</text>
</g>
<!-- Node6&#45;&gt;Node3 -->
<g id="edge5" class="edge">
<title>Node6&#45;&gt;Node3</title>
<path fill="none" stroke="#ffa500" stroke-dasharray="5,2" d="M515.3223,-59.1346C562.1622,-61.85 616.7544,-65.0147 661.9467,-67.6346"/>
<polygon fill="#ffa500" stroke="#ffa500" points="515.3294,-55.6293 505.1436,-58.5446 514.9242,-62.6175 515.3294,-55.6293"/>
<text text-anchor="start" x="523" y="-90" font-family="Helvetica,sans-Serif" font-size="10.00" fill="#000000"> &lt; SparseMatrix&lt; T,</text>
<text text-anchor="start" x="523" y="-79" font-family="Helvetica,sans-Serif" font-size="10.00" fill="#000000"> std::unordered_map</text>
<text text-anchor="middle" x="582" y="-68" font-family="Helvetica,sans-Serif" font-size="10.00" fill="#000000">&lt; std::uint64_t, T &gt; &gt; &gt;</text>
</g>
<!-- Node8 -->
<g id="node8" class="node">
<title>Node8</title>
<g id="a_node8"><a xlink:href="classCDPL_1_1Math_1_1MatrixExpression.html" target="_top" xlink:title=" ">
<polygon fill="none" stroke="#000000" points="659,-14.5 659,-33.5 850,-33.5 850,-14.5 659,-14.5"/>
<text text-anchor="middle" x="754.5" y="-21.5" font-family="Helvetica,sans-Serif" font-size="10.00" fill="#000000">CDPL::Math::MatrixExpression&lt; C &gt;</text>
</a>
</g>
</g>
<!-- Node6&#45;&gt;Node8 -->
<g id="edge11" class="edge">
<title>Node6&#45;&gt;Node8</title>
<path fill="none" stroke="#ffa500" stroke-dasharray="5,2" d="M515.1123,-44.1224C560.9756,-40.2673 614.3031,-35.7847 658.9695,-32.0301"/>
<polygon fill="#ffa500" stroke="#ffa500" points="514.8152,-40.635 505.1436,-44.9604 515.4016,-47.6104 514.8152,-40.635"/>
<text text-anchor="middle" x="582" y="-46" font-family="Helvetica,sans-Serif" font-size="10.00" fill="#000000"> &lt; C &gt;</text>
</g>
<!-- Node7 -->
<g id="node7" class="node">
<title>Node7</title>
<g id="a_node7"><a xlink:href="classCDPL_1_1Math_1_1MatrixContainer.html" target="_top" xlink:title=" ">
<polygon fill="none" stroke="#000000" points="887,-14.5 887,-33.5 1072,-33.5 1072,-14.5 887,-14.5"/>
<text text-anchor="middle" x="979.5" y="-21.5" font-family="Helvetica,sans-Serif" font-size="10.00" fill="#000000">CDPL::Math::MatrixContainer&lt; C &gt;</text>
</a>
</g>
</g>
<!-- Node7&#45;&gt;Node2 -->
<g id="edge7" class="edge">
<title>Node7&#45;&gt;Node2</title>
<path fill="none" stroke="#ffa500" stroke-dasharray="5,2" d="M1082.2399,-19.425C1121.689,-18.9824 1167.0574,-20.073 1208,-25 1213.8704,-25.7064 1219.902,-26.6402 1225.9449,-27.7272"/>
<polygon fill="#ffa500" stroke="#ffa500" points="1082.0269,-15.9277 1072.0793,-19.5739 1082.1296,-22.9269 1082.0269,-15.9277"/>
<text text-anchor="start" x="1090" y="-50" font-family="Helvetica,sans-Serif" font-size="10.00" fill="#000000"> &lt; SparseMatrix&lt; T,</text>
<text text-anchor="start" x="1090" y="-39" font-family="Helvetica,sans-Serif" font-size="10.00" fill="#000000"> std::unordered_map</text>
<text text-anchor="middle" x="1149" y="-28" font-family="Helvetica,sans-Serif" font-size="10.00" fill="#000000">&lt; std::uint64_t, T &gt; &gt; &gt;</text>
</g>
<!-- Node8&#45;&gt;Node7 -->
<g id="edge8" class="edge">
<title>Node8&#45;&gt;Node7</title>
<path fill="none" stroke="#191970" d="M860.4891,-24C869.2459,-24 878.0554,-24 886.7045,-24"/>
<polygon fill="#191970" stroke="#191970" points="860.2465,-20.5001 850.2465,-24 860.2465,-27.5001 860.2465,-20.5001"/>
</g>
<!-- Node9&#45;&gt;Node8 -->
<g id="edge9" class="edge">
<title>Node9&#45;&gt;Node8</title>
<path fill="none" stroke="#191970" d="M500.2735,-9.4219C543.003,-9.599 594.6487,-10.458 641,-13 648.2151,-13.3957 655.6801,-13.9022 663.177,-14.4798"/>
<polygon fill="#191970" stroke="#191970" points="500.1864,-5.9217 490.176,-9.3919 500.1656,-12.9217 500.1864,-5.9217"/>
</g>
</g>
</svg>
