<?xml version="1.0" encoding="UTF-8" standalone="no"?>
<!DOCTYPE svg PUBLIC "-//W3C//DTD SVG 1.1//EN"
 "http://www.w3.org/Graphics/SVG/1.1/DTD/svg11.dtd">
<!-- Generated by graphviz version 2.40.1 (0)
 -->
<!-- Title: CDPL::MolProp::MassComposition Pages: 1 -->
<svg width="215pt" height="196pt"
 viewBox="0.00 0.00 214.50 196.00" xmlns="http://www.w3.org/2000/svg" xmlns:xlink="http://www.w3.org/1999/xlink">
<g id="graph0" class="graph" transform="scale(1 1) rotate(0) translate(4 192)">
<title>CDPL::MolProp::MassComposition</title>
<!-- Node1 -->
<g id="node1" class="node">
<title>Node1</title>
<g id="a_node1"><a xlink:title="A data type for the storage of mass percent compositions of chemical compounds.">
<polygon fill="#bfbfbf" stroke="#000000" points="0,-.5 0,-19.5 179,-19.5 179,-.5 0,-.5"/>
<text text-anchor="middle" x="89.5" y="-7.5" font-family="Helvetica,sans-Serif" font-size="10.00" fill="#000000">CDPL::MolProp::MassComposition</text>
</a>
</g>
</g>
<!-- Node2 -->
<g id="node2" class="node">
<title>Node2</title>
<g id="a_node2"><a xlink:href="classCDPL_1_1Util_1_1Map.html" target="_top" xlink:title=" ">
<polygon fill="none" stroke="#000000" points="16,-57.5 16,-87.5 163,-87.5 163,-57.5 16,-57.5"/>
<text text-anchor="start" x="24" y="-75.5" font-family="Helvetica,sans-Serif" font-size="10.00" fill="#000000">CDPL::Util::Map&lt; unsigned</text>
<text text-anchor="middle" x="89.5" y="-64.5" font-family="Helvetica,sans-Serif" font-size="10.00" fill="#000000"> int, double, true &gt;</text>
</a>
</g>
</g>
<!-- Node2&#45;&gt;Node1 -->
<g id="edge1" class="edge">
<title>Node2&#45;&gt;Node1</title>
<path fill="none" stroke="#191970" d="M89.5,-47.3498C89.5,-37.6481 89.5,-27.1303 89.5,-19.7356"/>
<polygon fill="#191970" stroke="#191970" points="86.0001,-47.3705 89.5,-57.3705 93.0001,-47.3705 86.0001,-47.3705"/>
</g>
<!-- Node3 -->
<g id="node3" class="node">
<title>Node3</title>
<g id="a_node3"><a xlink:href="classCDPL_1_1Util_1_1Map.html" target="_top" xlink:title="A unique sorted associative container that maps keys to values.">
<polygon fill="none" stroke="#000000" points="23.5,-146.5 23.5,-187.5 155.5,-187.5 155.5,-146.5 23.5,-146.5"/>
<text text-anchor="start" x="31.5" y="-175.5" font-family="Helvetica,sans-Serif" font-size="10.00" fill="#000000">CDPL::Util::Map&lt; Key,</text>
<text text-anchor="start" x="31.5" y="-164.5" font-family="Helvetica,sans-Serif" font-size="10.00" fill="#000000"> Value, AllowDefValues,</text>
<text text-anchor="middle" x="89.5" y="-153.5" font-family="Helvetica,sans-Serif" font-size="10.00" fill="#000000"> KeyCompFunc &gt;</text>
</a>
</g>
</g>
<!-- Node3&#45;&gt;Node2 -->
<g id="edge2" class="edge">
<title>Node3&#45;&gt;Node2</title>
<path fill="none" stroke="#ffa500" stroke-dasharray="5,2" d="M89.5,-136.3293C89.5,-120.0543 89.5,-100.774 89.5,-87.6945"/>
<polygon fill="#ffa500" stroke="#ffa500" points="86.0001,-136.4949 89.5,-146.4949 93.0001,-136.4949 86.0001,-136.4949"/>
<text text-anchor="start" x="89.5" y="-120" font-family="Helvetica,sans-Serif" font-size="10.00" fill="#000000"> &lt; unsigned int, double,</text>
<text text-anchor="middle" x="148" y="-109" font-family="Helvetica,sans-Serif" font-size="10.00" fill="#000000"> true &gt;</text>
</g>
</g>
</svg>
