<?xml version="1.0" encoding="UTF-8" standalone="no"?>
<!DOCTYPE svg PUBLIC "-//W3C//DTD SVG 1.1//EN"
 "http://www.w3.org/Graphics/SVG/1.1/DTD/svg11.dtd">
<!-- Generated by graphviz version 2.40.1 (0)
 -->
<!-- Title: Graphical Class Hierarchy Pages: 1 -->
<svg width="532pt" height="50pt"
 viewBox="0.00 0.00 532.00 50.00" xmlns="http://www.w3.org/2000/svg" xmlns:xlink="http://www.w3.org/1999/xlink">
<g id="graph0" class="graph" transform="scale(1 1) rotate(0) translate(4 46)">
<title>Graphical Class Hierarchy</title>
<!-- Node0 -->
<g id="node1" class="node">
<title>Node0</title>
<g id="a_node1"><a xlink:href="classCDPL_1_1Util_1_1MultiMap.html" target="_top" xlink:title=" ">
<polygon fill="none" stroke="#000000" points="0,-.5 0,-41.5 134,-41.5 134,-.5 0,-.5"/>
<text text-anchor="start" x="8" y="-29.5" font-family="Helvetica,sans-Serif" font-size="10.00" fill="#000000">CDPL::Util::MultiMap</text>
<text text-anchor="start" x="8" y="-18.5" font-family="Helvetica,sans-Serif" font-size="10.00" fill="#000000">&lt; const Feature *, const</text>
<text text-anchor="middle" x="67" y="-7.5" font-family="Helvetica,sans-Serif" font-size="10.00" fill="#000000"> Feature *, true &gt;</text>
</a>
</g>
</g>
<!-- Node1 -->
<g id="node2" class="node">
<title>Node1</title>
<g id="a_node2"><a xlink:href="classCDPL_1_1Pharm_1_1FeatureMapping.html" target="_top" xlink:title="A data type for the storage and lookup of arbitrary feature to feature mappings.">
<polygon fill="none" stroke="#000000" points="170,-11.5 170,-30.5 333,-30.5 333,-11.5 170,-11.5"/>
<text text-anchor="middle" x="251.5" y="-18.5" font-family="Helvetica,sans-Serif" font-size="10.00" fill="#000000">CDPL::Pharm::FeatureMapping</text>
</a>
</g>
</g>
<!-- Node0&#45;&gt;Node1 -->
<g id="edge1" class="edge">
<title>Node0&#45;&gt;Node1</title>
<path fill="none" stroke="#191970" d="M144.3521,-21C152.8181,-21 161.456,-21 169.9703,-21"/>
<polygon fill="#191970" stroke="#191970" points="144.1307,-17.5001 134.1307,-21 144.1306,-24.5001 144.1307,-17.5001"/>
</g>
<!-- Node2 -->
<g id="node3" class="node">
<title>Node2</title>
<g id="a_node3"><a xlink:href="classCDPL_1_1Pharm_1_1SpatialFeatureMapping.html" target="_top" xlink:title="SpatialFeatureMapping.">
<polygon fill="none" stroke="#000000" points="369,-6 369,-36 524,-36 524,-6 369,-6"/>
<text text-anchor="start" x="377" y="-24" font-family="Helvetica,sans-Serif" font-size="10.00" fill="#000000">CDPL::Pharm::SpatialFeature</text>
<text text-anchor="middle" x="446.5" y="-13" font-family="Helvetica,sans-Serif" font-size="10.00" fill="#000000">Mapping</text>
</a>
</g>
</g>
<!-- Node1&#45;&gt;Node2 -->
<g id="edge2" class="edge">
<title>Node1&#45;&gt;Node2</title>
<path fill="none" stroke="#191970" d="M343.0782,-21C351.6432,-21 360.2693,-21 368.6909,-21"/>
<polygon fill="#191970" stroke="#191970" points="343.0677,-17.5001 333.0677,-21 343.0677,-24.5001 343.0677,-17.5001"/>
</g>
</g>
</svg>
