<?xml version="1.0" encoding="UTF-8" standalone="no"?>
<!DOCTYPE svg PUBLIC "-//W3C//DTD SVG 1.1//EN"
 "http://www.w3.org/Graphics/SVG/1.1/DTD/svg11.dtd">
<!-- Generated by graphviz version 2.44.0 (0)
 -->
<!-- Title: CDPL.Base.ValueError Pages: 1 -->
<svg width="438pt" height="252pt"
 viewBox="0.00 0.00 437.50 252.00" xmlns="http://www.w3.org/2000/svg" xmlns:xlink="http://www.w3.org/1999/xlink">
<g id="graph0" class="graph" transform="scale(1 1) rotate(0) translate(4 248)">
<title>CDPL.Base.ValueError</title>
<!-- Node1 -->
<g id="node1" class="node">
<title>Node1</title>
<g id="a_node1"><a xlink:title="Thrown to indicate errors caused by some invalid value.">
<polygon fill="#bfbfbf" stroke="black" points="182,-112.5 182,-131.5 298,-131.5 298,-112.5 182,-112.5"/>
<text text-anchor="middle" x="240" y="-119.5" font-family="Helvetica" font-size="10.00">CDPL.Base.ValueError</text>
</a>
</g>
</g>
<!-- Node5 -->
<g id="node5" class="node">
<title>Node5</title>
<g id="a_node5"><a xlink:href="classCDPL_1_1Base_1_1NullPointerException.html" target="_top" xlink:title="Thrown when an operation requires or expects a valid reference but a None reference was provided.">
<polygon fill="none" stroke="black" points="0,-56.5 0,-75.5 162,-75.5 162,-56.5 0,-56.5"/>
<text text-anchor="middle" x="81" y="-63.5" font-family="Helvetica" font-size="10.00">CDPL.Base.NullPointerException</text>
</a>
</g>
</g>
<!-- Node1&#45;&gt;Node5 -->
<g id="edge4" class="edge">
<title>Node1&#45;&gt;Node5</title>
<path fill="none" stroke="midnightblue" d="M205.17,-109.17C175.23,-99 132.78,-84.59 106.08,-75.52"/>
<polygon fill="midnightblue" stroke="midnightblue" points="204.21,-112.54 214.81,-112.44 206.46,-105.91 204.21,-112.54"/>
</g>
<!-- Node6 -->
<g id="node6" class="node">
<title>Node6</title>
<g id="a_node6"><a xlink:href="classCDPL_1_1Base_1_1RangeError.html" target="_top" xlink:title="Thrown to indicate that a value is out of range.">
<polygon fill="none" stroke="black" points="180,-56.5 180,-75.5 300,-75.5 300,-56.5 180,-56.5"/>
<text text-anchor="middle" x="240" y="-63.5" font-family="Helvetica" font-size="10.00">CDPL.Base.RangeError</text>
</a>
</g>
</g>
<!-- Node1&#45;&gt;Node6 -->
<g id="edge5" class="edge">
<title>Node1&#45;&gt;Node6</title>
<path fill="none" stroke="midnightblue" d="M240,-101.8C240,-92.91 240,-82.78 240,-75.75"/>
<polygon fill="midnightblue" stroke="midnightblue" points="236.5,-102.08 240,-112.08 243.5,-102.08 236.5,-102.08"/>
</g>
<!-- Node8 -->
<g id="node8" class="node">
<title>Node8</title>
<g id="a_node8"><a xlink:href="classCDPL_1_1Base_1_1SizeError.html" target="_top" xlink:title="Thrown to indicate that the size of a (multidimensional) array is not correct.">
<polygon fill="none" stroke="black" points="318.5,-56.5 318.5,-75.5 429.5,-75.5 429.5,-56.5 318.5,-56.5"/>
<text text-anchor="middle" x="374" y="-63.5" font-family="Helvetica" font-size="10.00">CDPL.Base.SizeError</text>
</a>
</g>
</g>
<!-- Node1&#45;&gt;Node8 -->
<g id="edge7" class="edge">
<title>Node1&#45;&gt;Node8</title>
<path fill="none" stroke="midnightblue" d="M270.68,-108.64C295.82,-98.5 330.75,-84.43 352.87,-75.52"/>
<polygon fill="midnightblue" stroke="midnightblue" points="269.2,-105.46 261.23,-112.44 271.82,-111.95 269.2,-105.46"/>
</g>
<!-- Node2 -->
<g id="node2" class="node">
<title>Node2</title>
<g id="a_node2"><a xlink:href="classCDPL_1_1Base_1_1Exception.html" target="_top" xlink:title="The root of the CDPL exception hierarchy.">
<polygon fill="none" stroke="black" points="121,-168.5 121,-187.5 235,-187.5 235,-168.5 121,-168.5"/>
<text text-anchor="middle" x="178" y="-175.5" font-family="Helvetica" font-size="10.00">CDPL.Base.Exception</text>
</a>
</g>
</g>
<!-- Node2&#45;&gt;Node1 -->
<g id="edge1" class="edge">
<title>Node2&#45;&gt;Node1</title>
<path fill="none" stroke="midnightblue" d="M195.75,-161.54C206.81,-151.91 220.63,-139.87 229.86,-131.83"/>
<polygon fill="midnightblue" stroke="midnightblue" points="193.2,-159.12 187.96,-168.32 197.8,-164.4 193.2,-159.12"/>
</g>
<!-- Node3 -->
<g id="node3" class="node">
<title>Node3</title>
<g id="a_node3"><a xlink:title=" ">
<polygon fill="none" stroke="#bfbfbf" points="130,-224.5 130,-243.5 226,-243.5 226,-224.5 130,-224.5"/>
<text text-anchor="middle" x="178" y="-231.5" font-family="Helvetica" font-size="10.00">builtins::Exception</text>
</a>
</g>
</g>
<!-- Node3&#45;&gt;Node2 -->
<g id="edge2" class="edge">
<title>Node3&#45;&gt;Node2</title>
<path fill="none" stroke="midnightblue" d="M178,-213.8C178,-204.91 178,-194.78 178,-187.75"/>
<polygon fill="midnightblue" stroke="midnightblue" points="174.5,-214.08 178,-224.08 181.5,-214.08 174.5,-214.08"/>
</g>
<!-- Node4 -->
<g id="node4" class="node">
<title>Node4</title>
<g id="a_node4"><a xlink:title=" ">
<polygon fill="none" stroke="#bfbfbf" points="253,-168.5 253,-187.5 351,-187.5 351,-168.5 253,-168.5"/>
<text text-anchor="middle" x="302" y="-175.5" font-family="Helvetica" font-size="10.00">builtins::ValueError</text>
</a>
</g>
</g>
<!-- Node4&#45;&gt;Node1 -->
<g id="edge3" class="edge">
<title>Node4&#45;&gt;Node1</title>
<path fill="none" stroke="midnightblue" d="M284.25,-161.54C273.19,-151.91 259.37,-139.87 250.14,-131.83"/>
<polygon fill="midnightblue" stroke="midnightblue" points="282.2,-164.4 292.04,-168.32 286.8,-159.12 282.2,-164.4"/>
</g>
<!-- Node7 -->
<g id="node7" class="node">
<title>Node7</title>
<g id="a_node7"><a xlink:href="classCDPL_1_1Base_1_1IndexError.html" target="_top" xlink:title="Thrown to indicate that an index is out of range.">
<polygon fill="none" stroke="black" points="182,-0.5 182,-19.5 298,-19.5 298,-0.5 182,-0.5"/>
<text text-anchor="middle" x="240" y="-7.5" font-family="Helvetica" font-size="10.00">CDPL.Base.IndexError</text>
</a>
</g>
</g>
<!-- Node6&#45;&gt;Node7 -->
<g id="edge6" class="edge">
<title>Node6&#45;&gt;Node7</title>
<path fill="none" stroke="midnightblue" d="M240,-45.8C240,-36.91 240,-26.78 240,-19.75"/>
<polygon fill="midnightblue" stroke="midnightblue" points="236.5,-46.08 240,-56.08 243.5,-46.08 236.5,-46.08"/>
</g>
</g>
</svg>
