<?xml version="1.0" encoding="UTF-8" standalone="no"?>
<!DOCTYPE svg PUBLIC "-//W3C//DTD SVG 1.1//EN"
 "http://www.w3.org/Graphics/SVG/1.1/DTD/svg11.dtd">
<!-- Generated by graphviz version 2.44.0 (0)
 -->
<!-- Title: CDPL.ConfGen.CanonicalFragment Pages: 1 -->
<svg width="410pt" height="252pt"
 viewBox="0.00 0.00 409.50 252.00" xmlns="http://www.w3.org/2000/svg" xmlns:xlink="http://www.w3.org/1999/xlink">
<g id="graph0" class="graph" transform="scale(1 1) rotate(0) translate(4 248)">
<title>CDPL.ConfGen.CanonicalFragment</title>
<!-- Node1 -->
<g id="node1" class="node">
<title>Node1</title>
<g id="a_node1"><a xlink:title="CanonicalFragment.">
<polygon fill="#bfbfbf" stroke="black" points="142,-0.5 142,-19.5 314,-19.5 314,-0.5 142,-0.5"/>
<text text-anchor="middle" x="228" y="-7.5" font-family="Helvetica" font-size="10.00">CDPL.ConfGen.CanonicalFragment</text>
</a>
</g>
</g>
<!-- Node2 -->
<g id="node2" class="node">
<title>Node2</title>
<g id="a_node2"><a xlink:href="classCDPL_1_1Chem_1_1MolecularGraph.html" target="_top" xlink:title="MolecularGraph.">
<polygon fill="none" stroke="black" points="156.5,-56.5 156.5,-75.5 299.5,-75.5 299.5,-56.5 156.5,-56.5"/>
<text text-anchor="middle" x="228" y="-63.5" font-family="Helvetica" font-size="10.00">CDPL.Chem.MolecularGraph</text>
</a>
</g>
</g>
<!-- Node2&#45;&gt;Node1 -->
<g id="edge1" class="edge">
<title>Node2&#45;&gt;Node1</title>
<path fill="none" stroke="midnightblue" d="M228,-45.8C228,-36.91 228,-26.78 228,-19.75"/>
<polygon fill="midnightblue" stroke="midnightblue" points="224.5,-46.08 228,-56.08 231.5,-46.08 224.5,-46.08"/>
</g>
<!-- Node3 -->
<g id="node3" class="node">
<title>Node3</title>
<g id="a_node3"><a xlink:href="classCDPL_1_1Chem_1_1AtomContainer.html" target="_top" xlink:title="A common interface for data&#45;structures that support a random access to stored Chem....">
<polygon fill="none" stroke="black" points="0,-112.5 0,-131.5 140,-131.5 140,-112.5 0,-112.5"/>
<text text-anchor="middle" x="70" y="-119.5" font-family="Helvetica" font-size="10.00">CDPL.Chem.AtomContainer</text>
</a>
</g>
</g>
<!-- Node3&#45;&gt;Node2 -->
<g id="edge2" class="edge">
<title>Node3&#45;&gt;Node2</title>
<path fill="none" stroke="midnightblue" d="M104.61,-109.17C134.36,-99 176.55,-84.59 203.08,-75.52"/>
<polygon fill="midnightblue" stroke="midnightblue" points="103.37,-105.9 95.04,-112.44 105.63,-112.52 103.37,-105.9"/>
</g>
<!-- Node4 -->
<g id="node4" class="node">
<title>Node4</title>
<g id="a_node4"><a xlink:href="classCDPL_1_1Chem_1_1Entity3DContainer.html" target="_top" xlink:title="A common interface for data&#45;structures that support a random access to stored Chem....">
<polygon fill="none" stroke="black" points="15.5,-168.5 15.5,-187.5 170.5,-187.5 170.5,-168.5 15.5,-168.5"/>
<text text-anchor="middle" x="93" y="-175.5" font-family="Helvetica" font-size="10.00">CDPL.Chem.Entity3DContainer</text>
</a>
</g>
</g>
<!-- Node4&#45;&gt;Node3 -->
<g id="edge3" class="edge">
<title>Node4&#45;&gt;Node3</title>
<path fill="none" stroke="midnightblue" d="M85.2,-158.69C81.32,-149.59 76.82,-139.01 73.73,-131.75"/>
<polygon fill="midnightblue" stroke="midnightblue" points="82.06,-160.25 89.2,-168.08 88.5,-157.51 82.06,-160.25"/>
</g>
<!-- Node5 -->
<g id="node5" class="node">
<title>Node5</title>
<g id="a_node5"><a xlink:title=" ">
<polygon fill="none" stroke="#bfbfbf" points="164.5,-224.5 164.5,-243.5 279.5,-243.5 279.5,-224.5 164.5,-224.5"/>
<text text-anchor="middle" x="222" y="-231.5" font-family="Helvetica" font-size="10.00">Boost.Python.instance</text>
</a>
</g>
</g>
<!-- Node5&#45;&gt;Node4 -->
<g id="edge4" class="edge">
<title>Node5&#45;&gt;Node4</title>
<path fill="none" stroke="midnightblue" d="M192.15,-220.5C167.96,-210.38 134.54,-196.39 113.34,-187.52"/>
<polygon fill="midnightblue" stroke="midnightblue" points="190.98,-223.81 201.56,-224.44 193.69,-217.35 190.98,-223.81"/>
</g>
<!-- Node6 -->
<g id="node6" class="node">
<title>Node6</title>
<g id="a_node6"><a xlink:href="classCDPL_1_1Chem_1_1BondContainer.html" target="_top" xlink:title="A common interface for data&#45;structures that support a random access to stored Chem....">
<polygon fill="none" stroke="black" points="158,-112.5 158,-131.5 298,-131.5 298,-112.5 158,-112.5"/>
<text text-anchor="middle" x="228" y="-119.5" font-family="Helvetica" font-size="10.00">CDPL.Chem.BondContainer</text>
</a>
</g>
</g>
<!-- Node5&#45;&gt;Node6 -->
<g id="edge6" class="edge">
<title>Node5&#45;&gt;Node6</title>
<path fill="none" stroke="midnightblue" d="M223.02,-214.35C224.33,-190.25 226.57,-149.31 227.53,-131.59"/>
<polygon fill="midnightblue" stroke="midnightblue" points="219.52,-214.19 222.47,-224.37 226.51,-214.57 219.52,-214.19"/>
</g>
<!-- Node7 -->
<g id="node7" class="node">
<title>Node7</title>
<g id="a_node7"><a xlink:href="classCDPL_1_1Base_1_1PropertyContainer.html" target="_top" xlink:title="A class providing methods for the storage and lookup of object properties.">
<polygon fill="none" stroke="black" points="250.5,-168.5 250.5,-187.5 401.5,-187.5 401.5,-168.5 250.5,-168.5"/>
<text text-anchor="middle" x="326" y="-175.5" font-family="Helvetica" font-size="10.00">CDPL.Base.PropertyContainer</text>
</a>
</g>
</g>
<!-- Node5&#45;&gt;Node7 -->
<g id="edge8" class="edge">
<title>Node5&#45;&gt;Node7</title>
<path fill="none" stroke="midnightblue" d="M247.83,-219.59C267.06,-209.61 292.74,-196.27 309.33,-187.65"/>
<polygon fill="midnightblue" stroke="midnightblue" points="245.97,-216.61 238.71,-224.32 249.2,-222.82 245.97,-216.61"/>
</g>
<!-- Node6&#45;&gt;Node2 -->
<g id="edge5" class="edge">
<title>Node6&#45;&gt;Node2</title>
<path fill="none" stroke="midnightblue" d="M228,-101.8C228,-92.91 228,-82.78 228,-75.75"/>
<polygon fill="midnightblue" stroke="midnightblue" points="224.5,-102.08 228,-112.08 231.5,-102.08 224.5,-102.08"/>
</g>
<!-- Node7&#45;&gt;Node2 -->
<g id="edge7" class="edge">
<title>Node7&#45;&gt;Node2</title>
<path fill="none" stroke="midnightblue" d="M324.35,-158.54C322.27,-144.5 317.58,-125.39 307,-112 293.2,-94.54 270.64,-82.66 253.15,-75.51"/>
<polygon fill="midnightblue" stroke="midnightblue" points="320.88,-158.97 325.52,-168.5 327.83,-158.16 320.88,-158.97"/>
</g>
</g>
</svg>
