<?xml version="1.0" encoding="UTF-8" standalone="no"?>
<!DOCTYPE svg PUBLIC "-//W3C//DTD SVG 1.1//EN"
 "http://www.w3.org/Graphics/SVG/1.1/DTD/svg11.dtd">
<!-- Generated by graphviz version 2.44.0 (0)
 -->
<!-- Title: CDPL.Grid.DRegularGridSetReaderBase Pages: 1 -->
<svg width="841pt" height="382pt"
 viewBox="0.00 0.00 841.00 382.00" xmlns="http://www.w3.org/2000/svg" xmlns:xlink="http://www.w3.org/1999/xlink">
<g id="graph0" class="graph" transform="scale(1 1) rotate(0) translate(4 378)">
<title>CDPL.Grid.DRegularGridSetReaderBase</title>
<!-- Node1 -->
<g id="node1" class="node">
<title>Node1</title>
<g id="a_node1"><a xlink:title="An interface for reading data objects of type Grid.DRegularGridSet from an arbitrary data source.">
<polygon fill="#bfbfbf" stroke="black" points="496,-171.5 496,-201.5 636,-201.5 636,-171.5 496,-171.5"/>
<text text-anchor="start" x="504" y="-189.5" font-family="Helvetica" font-size="10.00">CDPL.Grid.DRegularGridSet</text>
<text text-anchor="middle" x="566" y="-178.5" font-family="Helvetica" font-size="10.00">ReaderBase</text>
</a>
</g>
</g>
<!-- Node5 -->
<g id="node5" class="node">
<title>Node5</title>
<g id="a_node5"><a xlink:href="classCDPL_1_1Grid_1_1CDFBZ2DRegularGridSetReader.html" target="_top" xlink:title=" ">
<polygon fill="none" stroke="black" points="679.5,-343.5 679.5,-373.5 825.5,-373.5 825.5,-343.5 679.5,-343.5"/>
<text text-anchor="start" x="687.5" y="-361.5" font-family="Helvetica" font-size="10.00">CDPL.Grid.CDFBZ2DRegular</text>
<text text-anchor="middle" x="752.5" y="-350.5" font-family="Helvetica" font-size="10.00">GridSetReader</text>
</a>
</g>
</g>
<!-- Node1&#45;&gt;Node5 -->
<g id="edge4" class="edge">
<title>Node1&#45;&gt;Node5</title>
<path fill="none" stroke="midnightblue" d="M577.97,-210.94C593.97,-243.84 626.8,-301.99 672,-334.5 676.8,-337.95 682.1,-340.91 687.62,-343.45"/>
<polygon fill="midnightblue" stroke="midnightblue" points="580.99,-209.14 573.55,-201.6 574.66,-212.13 580.99,-209.14"/>
</g>
<!-- Node6 -->
<g id="node6" class="node">
<title>Node6</title>
<g id="a_node6"><a xlink:href="classCDPL_1_1Grid_1_1CDFDRegularGridSetReader.html" target="_top" xlink:title="A reader for spatial regular grid set data in the native I/O format of the CDPL.">
<polygon fill="none" stroke="black" points="679.5,-294.5 679.5,-324.5 825.5,-324.5 825.5,-294.5 679.5,-294.5"/>
<text text-anchor="start" x="687.5" y="-312.5" font-family="Helvetica" font-size="10.00">CDPL.Grid.CDFDRegularGrid</text>
<text text-anchor="middle" x="752.5" y="-301.5" font-family="Helvetica" font-size="10.00">SetReader</text>
</a>
</g>
</g>
<!-- Node1&#45;&gt;Node6 -->
<g id="edge5" class="edge">
<title>Node1&#45;&gt;Node6</title>
<path fill="none" stroke="midnightblue" d="M585.47,-209.22C604.84,-231.64 637.24,-265.38 672,-285.5 677.86,-288.89 684.26,-291.85 690.78,-294.42"/>
<polygon fill="midnightblue" stroke="midnightblue" points="588.08,-206.89 578.95,-201.52 582.74,-211.42 588.08,-206.89"/>
</g>
<!-- Node7 -->
<g id="node7" class="node">
<title>Node7</title>
<g id="a_node7"><a xlink:href="classCDPL_1_1Grid_1_1CDFGZDRegularGridSetReader.html" target="_top" xlink:title=" ">
<polygon fill="none" stroke="black" points="673,-245.5 673,-275.5 832,-275.5 832,-245.5 673,-245.5"/>
<text text-anchor="start" x="681" y="-263.5" font-family="Helvetica" font-size="10.00">CDPL.Grid.CDFGZDRegularGrid</text>
<text text-anchor="middle" x="752.5" y="-252.5" font-family="Helvetica" font-size="10.00">SetReader</text>
</a>
</g>
</g>
<!-- Node1&#45;&gt;Node7 -->
<g id="edge6" class="edge">
<title>Node1&#45;&gt;Node7</title>
<path fill="none" stroke="midnightblue" d="M604.86,-206.24C624.57,-216.07 649.24,-227.7 672,-236.5 680.2,-239.67 689.01,-242.69 697.67,-245.46"/>
<polygon fill="midnightblue" stroke="midnightblue" points="606.4,-203.09 595.9,-201.72 603.25,-209.34 606.4,-203.09"/>
</g>
<!-- Node8 -->
<g id="node8" class="node">
<title>Node8</title>
<g id="a_node8"><a xlink:href="classCDPL_1_1Grid_1_1CompoundDRegularGridSetReader.html" target="_top" xlink:title="CompoundDataReader.">
<polygon fill="none" stroke="black" points="675,-196.5 675,-226.5 830,-226.5 830,-196.5 675,-196.5"/>
<text text-anchor="start" x="683" y="-214.5" font-family="Helvetica" font-size="10.00">CDPL.Grid.CompoundDRegular</text>
<text text-anchor="middle" x="752.5" y="-203.5" font-family="Helvetica" font-size="10.00">GridSetReader</text>
</a>
</g>
</g>
<!-- Node1&#45;&gt;Node8 -->
<g id="edge7" class="edge">
<title>Node1&#45;&gt;Node8</title>
<path fill="none" stroke="midnightblue" d="M646.36,-197.25C655.78,-198.53 665.38,-199.83 674.77,-201.1"/>
<polygon fill="midnightblue" stroke="midnightblue" points="646.61,-193.75 636.23,-195.88 645.67,-200.69 646.61,-193.75"/>
</g>
<!-- Node9 -->
<g id="node9" class="node">
<title>Node9</title>
<g id="a_node9"><a xlink:href="classCDPL_1_1Grid_1_1DRegularGridSetReader.html" target="_top" xlink:title="Reader for grid set data of type Grid.DRegularGridSet in any supported format.">
<polygon fill="none" stroke="black" points="682.5,-147.5 682.5,-177.5 822.5,-177.5 822.5,-147.5 682.5,-147.5"/>
<text text-anchor="start" x="690.5" y="-165.5" font-family="Helvetica" font-size="10.00">CDPL.Grid.DRegularGridSet</text>
<text text-anchor="middle" x="752.5" y="-154.5" font-family="Helvetica" font-size="10.00">Reader</text>
</a>
</g>
</g>
<!-- Node1&#45;&gt;Node9 -->
<g id="edge8" class="edge">
<title>Node1&#45;&gt;Node9</title>
<path fill="none" stroke="midnightblue" d="M646.27,-176.19C658.32,-174.62 670.68,-173.01 682.5,-171.48"/>
<polygon fill="midnightblue" stroke="midnightblue" points="645.69,-172.73 636.23,-177.5 646.59,-179.68 645.69,-172.73"/>
</g>
<!-- Node10 -->
<g id="node10" class="node">
<title>Node10</title>
<g id="a_node10"><a xlink:href="classCDPL_1_1Grid_1_1FileCDFBZ2DRegularGridSetReader.html" target="_top" xlink:title=" ">
<polygon fill="none" stroke="black" points="672,-98.5 672,-128.5 833,-128.5 833,-98.5 672,-98.5"/>
<text text-anchor="start" x="680" y="-116.5" font-family="Helvetica" font-size="10.00">CDPL.Grid.FileCDFBZ2DRegular</text>
<text text-anchor="middle" x="752.5" y="-105.5" font-family="Helvetica" font-size="10.00">GridSetReader</text>
</a>
</g>
</g>
<!-- Node1&#45;&gt;Node10 -->
<g id="edge9" class="edge">
<title>Node1&#45;&gt;Node10</title>
<path fill="none" stroke="midnightblue" d="M605.59,-166.87C625.19,-157.32 649.55,-146.08 672,-137.5 680.22,-134.36 689.03,-131.36 697.69,-128.6"/>
<polygon fill="midnightblue" stroke="midnightblue" points="603.81,-163.85 596.38,-171.4 606.9,-170.13 603.81,-163.85"/>
</g>
<!-- Node11 -->
<g id="node11" class="node">
<title>Node11</title>
<g id="a_node11"><a xlink:href="classCDPL_1_1Grid_1_1FileCDFDRegularGridSetReader.html" target="_top" xlink:title=" ">
<polygon fill="none" stroke="black" points="681,-49.5 681,-79.5 824,-79.5 824,-49.5 681,-49.5"/>
<text text-anchor="start" x="689" y="-67.5" font-family="Helvetica" font-size="10.00">CDPL.Grid.FileCDFDRegular</text>
<text text-anchor="middle" x="752.5" y="-56.5" font-family="Helvetica" font-size="10.00">GridSetReader</text>
</a>
</g>
</g>
<!-- Node1&#45;&gt;Node11 -->
<g id="edge10" class="edge">
<title>Node1&#45;&gt;Node11</title>
<path fill="none" stroke="midnightblue" d="M585.84,-163.64C605.28,-141.46 637.54,-108.32 672,-88.5 677.87,-85.12 684.27,-82.17 690.8,-79.61"/>
<polygon fill="midnightblue" stroke="midnightblue" points="583.15,-161.41 579.28,-171.28 588.46,-165.98 583.15,-161.41"/>
</g>
<!-- Node12 -->
<g id="node12" class="node">
<title>Node12</title>
<g id="a_node12"><a xlink:href="classCDPL_1_1Grid_1_1FileCDFGZDRegularGridSetReader.html" target="_top" xlink:title=" ">
<polygon fill="none" stroke="black" points="674,-0.5 674,-30.5 831,-30.5 831,-0.5 674,-0.5"/>
<text text-anchor="start" x="682" y="-18.5" font-family="Helvetica" font-size="10.00">CDPL.Grid.FileCDFGZDRegular</text>
<text text-anchor="middle" x="752.5" y="-7.5" font-family="Helvetica" font-size="10.00">GridSetReader</text>
</a>
</g>
</g>
<!-- Node1&#45;&gt;Node12 -->
<g id="edge11" class="edge">
<title>Node1&#45;&gt;Node12</title>
<path fill="none" stroke="midnightblue" d="M578.26,-161.72C594.4,-128.96 627.18,-71.62 672,-39.5 676.8,-36.06 682.11,-33.1 687.63,-30.56"/>
<polygon fill="midnightblue" stroke="midnightblue" points="574.96,-160.52 573.79,-171.05 581.27,-163.54 574.96,-160.52"/>
</g>
<!-- Node2 -->
<g id="node2" class="node">
<title>Node2</title>
<g id="a_node2"><a xlink:href="classCDPL_1_1Base_1_1DataIOBase.html" target="_top" xlink:title="Provides infrastructure for the registration of I/O callback functions.">
<polygon fill="none" stroke="black" points="335,-177 335,-196 460,-196 460,-177 335,-177"/>
<text text-anchor="middle" x="397.5" y="-184" font-family="Helvetica" font-size="10.00">CDPL.Base.DataIOBase</text>
</a>
</g>
</g>
<!-- Node2&#45;&gt;Node1 -->
<g id="edge1" class="edge">
<title>Node2&#45;&gt;Node1</title>
<path fill="none" stroke="midnightblue" d="M470.28,-186.5C478.77,-186.5 487.42,-186.5 495.87,-186.5"/>
<polygon fill="midnightblue" stroke="midnightblue" points="470.03,-183 460.03,-186.5 470.03,-190 470.03,-183"/>
</g>
<!-- Node3 -->
<g id="node3" class="node">
<title>Node3</title>
<g id="a_node3"><a xlink:href="classCDPL_1_1Base_1_1ControlParameterContainer.html" target="_top" xlink:title="A class providing methods for the storage and lookup of control&#45;parameter values.">
<polygon fill="none" stroke="black" points="151,-171.5 151,-201.5 299,-201.5 299,-171.5 151,-171.5"/>
<text text-anchor="start" x="159" y="-189.5" font-family="Helvetica" font-size="10.00">CDPL.Base.ControlParameter</text>
<text text-anchor="middle" x="225" y="-178.5" font-family="Helvetica" font-size="10.00">Container</text>
</a>
</g>
</g>
<!-- Node3&#45;&gt;Node2 -->
<g id="edge2" class="edge">
<title>Node3&#45;&gt;Node2</title>
<path fill="none" stroke="midnightblue" d="M309.33,-186.5C317.9,-186.5 326.5,-186.5 334.77,-186.5"/>
<polygon fill="midnightblue" stroke="midnightblue" points="309.3,-183 299.3,-186.5 309.3,-190 309.3,-183"/>
</g>
<!-- Node4 -->
<g id="node4" class="node">
<title>Node4</title>
<g id="a_node4"><a xlink:title=" ">
<polygon fill="none" stroke="#bfbfbf" points="0,-177 0,-196 115,-196 115,-177 0,-177"/>
<text text-anchor="middle" x="57.5" y="-184" font-family="Helvetica" font-size="10.00">Boost.Python.instance</text>
</a>
</g>
</g>
<!-- Node4&#45;&gt;Node3 -->
<g id="edge3" class="edge">
<title>Node4&#45;&gt;Node3</title>
<path fill="none" stroke="midnightblue" d="M125.51,-186.5C133.86,-186.5 142.43,-186.5 150.86,-186.5"/>
<polygon fill="midnightblue" stroke="midnightblue" points="125.46,-183 115.46,-186.5 125.46,-190 125.46,-183"/>
</g>
</g>
</svg>
