<?xml version="1.0" encoding="UTF-8" standalone="no"?>
<!DOCTYPE svg PUBLIC "-//W3C//DTD SVG 1.1//EN"
 "http://www.w3.org/Graphics/SVG/1.1/DTD/svg11.dtd">
<!-- Generated by graphviz version 2.44.0 (0)
 -->
<!-- Title: CDPL.Vis.FontMetrics Pages: 1 -->
<svg width="320pt" height="151pt"
 viewBox="0.00 0.00 319.50 151.00" xmlns="http://www.w3.org/2000/svg" xmlns:xlink="http://www.w3.org/1999/xlink">
<g id="graph0" class="graph" transform="scale(1 1) rotate(0) translate(4 147)">
<title>CDPL.Vis.FontMetrics</title>
<!-- Node1 -->
<g id="node1" class="node">
<title>Node1</title>
<g id="a_node1"><a xlink:title="An interface class with methods that provide information about the metrics of a font.">
<polygon fill="#bfbfbf" stroke="black" points="99,-67.5 99,-86.5 214,-86.5 214,-67.5 99,-67.5"/>
<text text-anchor="middle" x="156.5" y="-74.5" font-family="Helvetica" font-size="10.00">CDPL.Vis.FontMetrics</text>
</a>
</g>
</g>
<!-- Node3 -->
<g id="node3" class="node">
<title>Node3</title>
<g id="a_node3"><a xlink:href="classCDPL_1_1Vis_1_1CairoBackend_1_1CairoFontMetrics.html" target="_top" xlink:title="Implements the FontMetrics interface for the Cairo rendering backend.">
<polygon fill="none" stroke="black" points="0,-0.5 0,-30.5 149,-30.5 149,-0.5 0,-0.5"/>
<text text-anchor="start" x="8" y="-18.5" font-family="Helvetica" font-size="10.00">CDPL.Vis.CairoBackend.Cairo</text>
<text text-anchor="middle" x="74.5" y="-7.5" font-family="Helvetica" font-size="10.00">FontMetrics</text>
</a>
</g>
</g>
<!-- Node1&#45;&gt;Node3 -->
<g id="edge2" class="edge">
<title>Node1&#45;&gt;Node3</title>
<path fill="none" stroke="midnightblue" d="M136.47,-61.47C123.49,-52.05 106.67,-39.84 93.83,-30.52"/>
<polygon fill="midnightblue" stroke="midnightblue" points="134.6,-64.43 144.75,-67.48 138.71,-58.77 134.6,-64.43"/>
</g>
<!-- Node4 -->
<g id="node4" class="node">
<title>Node4</title>
<g id="a_node4"><a xlink:href="classCDPL_1_1Vis_1_1QtBackend_1_1QtFontMetrics.html" target="_top" xlink:title="Implements the FontMetrics interface for the Qt rendering backend.">
<polygon fill="none" stroke="black" points="167.5,-0.5 167.5,-30.5 311.5,-30.5 311.5,-0.5 167.5,-0.5"/>
<text text-anchor="start" x="175.5" y="-18.5" font-family="Helvetica" font-size="10.00">CDPL.Vis.QtBackend.QtFont</text>
<text text-anchor="middle" x="239.5" y="-7.5" font-family="Helvetica" font-size="10.00">Metrics</text>
</a>
</g>
</g>
<!-- Node1&#45;&gt;Node4 -->
<g id="edge3" class="edge">
<title>Node1&#45;&gt;Node4</title>
<path fill="none" stroke="midnightblue" d="M176.77,-61.47C189.91,-52.05 206.94,-39.84 219.94,-30.52"/>
<polygon fill="midnightblue" stroke="midnightblue" points="174.48,-58.8 168.39,-67.48 178.56,-64.49 174.48,-58.8"/>
</g>
<!-- Node2 -->
<g id="node2" class="node">
<title>Node2</title>
<g id="a_node2"><a xlink:title=" ">
<polygon fill="none" stroke="#bfbfbf" points="99,-123.5 99,-142.5 214,-142.5 214,-123.5 99,-123.5"/>
<text text-anchor="middle" x="156.5" y="-130.5" font-family="Helvetica" font-size="10.00">Boost.Python.instance</text>
</a>
</g>
</g>
<!-- Node2&#45;&gt;Node1 -->
<g id="edge1" class="edge">
<title>Node2&#45;&gt;Node1</title>
<path fill="none" stroke="midnightblue" d="M156.5,-112.8C156.5,-103.91 156.5,-93.78 156.5,-86.75"/>
<polygon fill="midnightblue" stroke="midnightblue" points="153,-113.08 156.5,-123.08 160,-113.08 153,-113.08"/>
</g>
</g>
</svg>
