<?xml version="1.0" encoding="UTF-8" standalone="no"?>
<!DOCTYPE svg PUBLIC "-//W3C//DTD SVG 1.1//EN"
 "http://www.w3.org/Graphics/SVG/1.1/DTD/svg11.dtd">
<!-- Generated by graphviz version 2.44.0 (0)
 -->
<!-- Title: CDPL.Grid.DRegularGridSetWriterBase Pages: 1 -->
<!--zoomable 333 -->
<svg id="main" version="1.1" xmlns="http://www.w3.org/2000/svg" xmlns:xlink="http://www.w3.org/1999/xlink" xml:space="preserve" onload="init(evt)">
<style type="text/css"><![CDATA[
.edge:hover path { stroke: red; }
.edge:hover polygon { stroke: red; fill: red; }
]]></style>
<script type="text/javascript"><![CDATA[
var edges = document.getElementsByTagName('g');
if (edges && edges.length) {
  for (var i=0;i<edges.length;i++) {
    if (edges[i].id.substr(0,4)=='edge') {
      edges[i].setAttribute('class','edge');
    }
  }
}
]]></script>
        <defs>
                <circle id="rim" cx="0" cy="0" r="7"/>
                <circle id="rim2" cx="0" cy="0" r="3.5"/>
                <g id="zoomPlus">
                        <use xlink:href="#rim" fill="#404040">
                                <set attributeName="fill" to="#808080" begin="zoomplus.mouseover" end="zoomplus.mouseout"/>
                        </use>
                        <path d="M-4,0h8M0,-4v8" fill="none" stroke="white" stroke-width="1.5" pointer-events="none"/>
                </g>
                <g id="zoomMin">
                        <use xlink:href="#rim" fill="#404040">
                                <set attributeName="fill" to="#808080" begin="zoomminus.mouseover" end="zoomminus.mouseout"/>
                        </use>
                        <path d="M-4,0h8" fill="none" stroke="white" stroke-width="1.5" pointer-events="none"/>
                </g>
                <g id="dirArrow">
                        <path fill="none" stroke="white" stroke-width="1.5" d="M0,-3.0v7 M-2.5,-0.5L0,-3.0L2.5,-0.5"/>
                </g>
               <g id="resetDef">
                       <use xlink:href="#rim2" fill="#404040">
                               <set attributeName="fill" to="#808080" begin="reset.mouseover" end="reset.mouseout"/>
                       </use>
               </g>
        </defs>

<script type="text/javascript">
var viewWidth = 841;
var viewHeight = 333;
var sectionId = 'dynsection-0';
</script>
<script xlink:href="svgpan.js"/>
<svg id="graph" class="graph">
<g id="viewport">
<title>CDPL.Grid.DRegularGridSetWriterBase</title>
<!-- Node1 -->
<g id="node1" class="node">
<title>Node1</title>
<g id="a_node1"><a xlink:title="An interface for writing data objects of type Grid.DRegularGridSet to an arbitrary data sink.">
<polygon fill="#bfbfbf" stroke="black" points="496,-147.5 496,-177.5 636,-177.5 636,-147.5 496,-147.5"/>
<text text-anchor="start" x="504" y="-165.5" font-family="Helvetica" font-size="10.00">CDPL.Grid.DRegularGridSet</text>
<text text-anchor="middle" x="566" y="-154.5" font-family="Helvetica" font-size="10.00">WriterBase</text>
</a>
</g>
</g>
<!-- Node5 -->
<g id="node5" class="node">
<title>Node5</title>
<g id="a_node5"><a xlink:href="classCDPL_1_1Grid_1_1CDFBZ2DRegularGridSetWriter.html" target="_top" xlink:title=" ">
<polygon fill="none" stroke="black" points="679.5,-294.5 679.5,-324.5 825.5,-324.5 825.5,-294.5 679.5,-294.5"/>
<text text-anchor="start" x="687.5" y="-312.5" font-family="Helvetica" font-size="10.00">CDPL.Grid.CDFBZ2DRegular</text>
<text text-anchor="middle" x="752.5" y="-301.5" font-family="Helvetica" font-size="10.00">GridSetWriter</text>
</a>
</g>
</g>
<!-- Node1&#45;&gt;Node5 -->
<g id="edge4" class="edge">
<title>Node1&#45;&gt;Node5</title>
<path fill="none" stroke="midnightblue" d="M581.4,-186.52C599.28,-214.31 632.3,-259.56 672,-285.5 677.19,-288.89 682.88,-291.82 688.75,-294.35"/>
<polygon fill="midnightblue" stroke="midnightblue" points="584.22,-184.42 575.94,-177.81 578.29,-188.14 584.22,-184.42"/>
</g>
<!-- Node6 -->
<g id="node6" class="node">
<title>Node6</title>
<g id="a_node6"><a xlink:href="classCDPL_1_1Grid_1_1CDFDRegularGridSetWriter.html" target="_top" xlink:title="A writer for spatial regular grid set data in the native I/O format of the CDPL.">
<polygon fill="none" stroke="black" points="679.5,-245.5 679.5,-275.5 825.5,-275.5 825.5,-245.5 679.5,-245.5"/>
<text text-anchor="start" x="687.5" y="-263.5" font-family="Helvetica" font-size="10.00">CDPL.Grid.CDFDRegularGrid</text>
<text text-anchor="middle" x="752.5" y="-252.5" font-family="Helvetica" font-size="10.00">SetWriter</text>
</a>
</g>
</g>
<!-- Node1&#45;&gt;Node6 -->
<g id="edge5" class="edge">
<title>Node1&#45;&gt;Node6</title>
<path fill="none" stroke="midnightblue" d="M592.7,-184.17C613.1,-200.47 642.93,-222.33 672,-236.5 678.87,-239.85 686.3,-242.84 693.77,-245.48"/>
<polygon fill="midnightblue" stroke="midnightblue" points="594.8,-181.37 584.83,-177.79 590.39,-186.81 594.8,-181.37"/>
</g>
<!-- Node7 -->
<g id="node7" class="node">
<title>Node7</title>
<g id="a_node7"><a xlink:href="classCDPL_1_1Grid_1_1CDFGZDRegularGridSetWriter.html" target="_top" xlink:title=" ">
<polygon fill="none" stroke="black" points="673,-196.5 673,-226.5 832,-226.5 832,-196.5 673,-196.5"/>
<text text-anchor="start" x="681" y="-214.5" font-family="Helvetica" font-size="10.00">CDPL.Grid.CDFGZDRegularGrid</text>
<text text-anchor="middle" x="752.5" y="-203.5" font-family="Helvetica" font-size="10.00">SetWriter</text>
</a>
</g>
</g>
<!-- Node1&#45;&gt;Node7 -->
<g id="edge6" class="edge">
<title>Node1&#45;&gt;Node7</title>
<path fill="none" stroke="midnightblue" d="M633.36,-180.12C653.54,-185.48 675.53,-191.32 695,-196.49"/>
<polygon fill="midnightblue" stroke="midnightblue" points="634.17,-176.72 623.61,-177.53 632.38,-183.48 634.17,-176.72"/>
</g>
<!-- Node8 -->
<g id="node8" class="node">
<title>Node8</title>
<g id="a_node8"><a xlink:href="classCDPL_1_1Grid_1_1DRegularGridSetWriter.html" target="_top" xlink:title="Writer for grid set data of type Grid.DRegularGridSet in any supported format.">
<polygon fill="none" stroke="black" points="682.5,-147.5 682.5,-177.5 822.5,-177.5 822.5,-147.5 682.5,-147.5"/>
<text text-anchor="start" x="690.5" y="-165.5" font-family="Helvetica" font-size="10.00">CDPL.Grid.DRegularGridSet</text>
<text text-anchor="middle" x="752.5" y="-154.5" font-family="Helvetica" font-size="10.00">Writer</text>
</a>
</g>
</g>
<!-- Node1&#45;&gt;Node8 -->
<g id="edge7" class="edge">
<title>Node1&#45;&gt;Node8</title>
<path fill="none" stroke="midnightblue" d="M646.27,-162.5C658.32,-162.5 670.68,-162.5 682.5,-162.5"/>
<polygon fill="midnightblue" stroke="midnightblue" points="646.23,-159 636.23,-162.5 646.23,-166 646.23,-159"/>
</g>
<!-- Node9 -->
<g id="node9" class="node">
<title>Node9</title>
<g id="a_node9"><a xlink:href="classCDPL_1_1Grid_1_1FileCDFBZ2DRegularGridSetWriter.html" target="_top" xlink:title=" ">
<polygon fill="none" stroke="black" points="672,-98.5 672,-128.5 833,-128.5 833,-98.5 672,-98.5"/>
<text text-anchor="start" x="680" y="-116.5" font-family="Helvetica" font-size="10.00">CDPL.Grid.FileCDFBZ2DRegular</text>
<text text-anchor="middle" x="752.5" y="-105.5" font-family="Helvetica" font-size="10.00">GridSetWriter</text>
</a>
</g>
</g>
<!-- Node1&#45;&gt;Node9 -->
<g id="edge8" class="edge">
<title>Node1&#45;&gt;Node9</title>
<path fill="none" stroke="midnightblue" d="M633.36,-144.88C653.54,-139.52 675.53,-133.68 695,-128.51"/>
<polygon fill="midnightblue" stroke="midnightblue" points="632.38,-141.52 623.61,-147.47 634.17,-148.28 632.38,-141.52"/>
</g>
<!-- Node10 -->
<g id="node10" class="node">
<title>Node10</title>
<g id="a_node10"><a xlink:href="classCDPL_1_1Grid_1_1FileCDFDRegularGridSetWriter.html" target="_top" xlink:title=" ">
<polygon fill="none" stroke="black" points="681,-49.5 681,-79.5 824,-79.5 824,-49.5 681,-49.5"/>
<text text-anchor="start" x="689" y="-67.5" font-family="Helvetica" font-size="10.00">CDPL.Grid.FileCDFDRegular</text>
<text text-anchor="middle" x="752.5" y="-56.5" font-family="Helvetica" font-size="10.00">GridSetWriter</text>
</a>
</g>
</g>
<!-- Node1&#45;&gt;Node10 -->
<g id="edge9" class="edge">
<title>Node1&#45;&gt;Node10</title>
<path fill="none" stroke="midnightblue" d="M592.7,-140.83C613.1,-124.53 642.93,-102.67 672,-88.5 678.87,-85.15 686.3,-82.16 693.77,-79.52"/>
<polygon fill="midnightblue" stroke="midnightblue" points="590.39,-138.19 584.83,-147.21 594.8,-143.63 590.39,-138.19"/>
</g>
<!-- Node11 -->
<g id="node11" class="node">
<title>Node11</title>
<g id="a_node11"><a xlink:href="classCDPL_1_1Grid_1_1FileCDFGZDRegularGridSetWriter.html" target="_top" xlink:title=" ">
<polygon fill="none" stroke="black" points="674,-0.5 674,-30.5 831,-30.5 831,-0.5 674,-0.5"/>
<text text-anchor="start" x="682" y="-18.5" font-family="Helvetica" font-size="10.00">CDPL.Grid.FileCDFGZDRegular</text>
<text text-anchor="middle" x="752.5" y="-7.5" font-family="Helvetica" font-size="10.00">GridSetWriter</text>
</a>
</g>
</g>
<!-- Node1&#45;&gt;Node11 -->
<g id="edge10" class="edge">
<title>Node1&#45;&gt;Node11</title>
<path fill="none" stroke="midnightblue" d="M581.4,-138.48C599.28,-110.69 632.3,-65.44 672,-39.5 677.19,-36.11 682.88,-33.18 688.75,-30.65"/>
<polygon fill="midnightblue" stroke="midnightblue" points="578.29,-136.86 575.94,-147.19 584.22,-140.58 578.29,-136.86"/>
</g>
<!-- Node2 -->
<g id="node2" class="node">
<title>Node2</title>
<g id="a_node2"><a xlink:href="classCDPL_1_1Base_1_1DataIOBase.html" target="_top" xlink:title="Provides infrastructure for the registration of I/O callback functions.">
<polygon fill="none" stroke="black" points="335,-153 335,-172 460,-172 460,-153 335,-153"/>
<text text-anchor="middle" x="397.5" y="-160" font-family="Helvetica" font-size="10.00">CDPL.Base.DataIOBase</text>
</a>
</g>
</g>
<!-- Node2&#45;&gt;Node1 -->
<g id="edge1" class="edge">
<title>Node2&#45;&gt;Node1</title>
<path fill="none" stroke="midnightblue" d="M470.28,-162.5C478.77,-162.5 487.42,-162.5 495.87,-162.5"/>
<polygon fill="midnightblue" stroke="midnightblue" points="470.03,-159 460.03,-162.5 470.03,-166 470.03,-159"/>
</g>
<!-- Node3 -->
<g id="node3" class="node">
<title>Node3</title>
<g id="a_node3"><a xlink:href="classCDPL_1_1Base_1_1ControlParameterContainer.html" target="_top" xlink:title="A class providing methods for the storage and lookup of control&#45;parameter values.">
<polygon fill="none" stroke="black" points="151,-147.5 151,-177.5 299,-177.5 299,-147.5 151,-147.5"/>
<text text-anchor="start" x="159" y="-165.5" font-family="Helvetica" font-size="10.00">CDPL.Base.ControlParameter</text>
<text text-anchor="middle" x="225" y="-154.5" font-family="Helvetica" font-size="10.00">Container</text>
</a>
</g>
</g>
<!-- Node3&#45;&gt;Node2 -->
<g id="edge2" class="edge">
<title>Node3&#45;&gt;Node2</title>
<path fill="none" stroke="midnightblue" d="M309.33,-162.5C317.9,-162.5 326.5,-162.5 334.77,-162.5"/>
<polygon fill="midnightblue" stroke="midnightblue" points="309.3,-159 299.3,-162.5 309.3,-166 309.3,-159"/>
</g>
<!-- Node4 -->
<g id="node4" class="node">
<title>Node4</title>
<g id="a_node4"><a xlink:title=" ">
<polygon fill="none" stroke="#bfbfbf" points="0,-153 0,-172 115,-172 115,-153 0,-153"/>
<text text-anchor="middle" x="57.5" y="-160" font-family="Helvetica" font-size="10.00">Boost.Python.instance</text>
</a>
</g>
</g>
<!-- Node4&#45;&gt;Node3 -->
<g id="edge3" class="edge">
<title>Node4&#45;&gt;Node3</title>
<path fill="none" stroke="midnightblue" d="M125.51,-162.5C133.86,-162.5 142.43,-162.5 150.86,-162.5"/>
<polygon fill="midnightblue" stroke="midnightblue" points="125.46,-159 115.46,-162.5 125.46,-166 125.46,-159"/>
</g>
</g>
</svg>
        <g id="navigator" transform="translate(0 0)" fill="#404254">
                <rect fill="#f2f5e9" fill-opacity="0.5" stroke="#606060" stroke-width=".5" x="0" y="0" width="60" height="60"/>
                <use id="zoomplus" xlink:href="#zoomPlus" x="17" y="9" onmousedown="handleZoom(evt,'in')"/>
                <use id="zoomminus" xlink:href="#zoomMin" x="42" y="9" onmousedown="handleZoom(evt,'out')"/>
                <use id="reset" xlink:href="#resetDef" x="30" y="36" onmousedown="handleReset()"/>
                <g id="arrowUp" xlink:href="#dirArrow" transform="translate(30 24)" onmousedown="handlePan(0,-1)">
                  <use xlink:href="#rim" fill="#404040">
                        <set attributeName="fill" to="#808080" begin="arrowUp.mouseover" end="arrowUp.mouseout"/>
                  </use>
                  <path fill="none" stroke="white" stroke-width="1.5" d="M0,-3.0v7 M-2.5,-0.5L0,-3.0L2.5,-0.5"/>
                </g>
                <g id="arrowRight" xlink:href="#dirArrow" transform="rotate(90) translate(36 -43)" onmousedown="handlePan(1,0)">
                  <use xlink:href="#rim" fill="#404040">
                        <set attributeName="fill" to="#808080" begin="arrowRight.mouseover" end="arrowRight.mouseout"/>
                  </use>
                  <path fill="none" stroke="white" stroke-width="1.5" d="M0,-3.0v7 M-2.5,-0.5L0,-3.0L2.5,-0.5"/>
                </g>
                <g id="arrowDown" xlink:href="#dirArrow" transform="rotate(180) translate(-30 -48)" onmousedown="handlePan(0,1)">
                  <use xlink:href="#rim" fill="#404040">
                        <set attributeName="fill" to="#808080" begin="arrowDown.mouseover" end="arrowDown.mouseout"/>
                  </use>
                  <path fill="none" stroke="white" stroke-width="1.5" d="M0,-3.0v7 M-2.5,-0.5L0,-3.0L2.5,-0.5"/>
                </g>
                <g id="arrowLeft" xlink:href="#dirArrow" transform="rotate(270) translate(-36 17)" onmousedown="handlePan(-1,0)">
                  <use xlink:href="#rim" fill="#404040">
                        <set attributeName="fill" to="#808080" begin="arrowLeft.mouseover" end="arrowLeft.mouseout"/>
                  </use>
                  <path fill="none" stroke="white" stroke-width="1.5" d="M0,-3.0v7 M-2.5,-0.5L0,-3.0L2.5,-0.5"/>
                </g>
        </g>
        <svg viewBox="0 0 15 15" width="100%" height="30px" preserveAspectRatio="xMaxYMin meet">
         <g id="arrow_out" transform="scale(0.3 0.3)">
          <a xlink:href="classCDPL_1_1Grid_1_1DRegularGridSetWriterBase__inherit__graph_org.svg" target="_base">
           <rect id="button" ry="5" rx="5" y="6" x="6" height="38" width="38"
                fill="#f2f5e9" fill-opacity="0.5" stroke="#606060" stroke-width="1.0"/>
           <path id="arrow"
             d="M 11.500037,31.436501 C 11.940474,20.09759 22.043105,11.32322 32.158766,21.979434 L 37.068811,17.246167 C 37.068811,17.246167 37.088388,32 37.088388,32 L 22.160133,31.978069 C 22.160133,31.978069 26.997745,27.140456 26.997745,27.140456 C 18.528582,18.264221 13.291696,25.230495 11.500037,31.436501 z"
             style="fill:#404040;"/>
          </a>
         </g>
        </svg>
</svg>
