<?xml version="1.0" encoding="UTF-8" standalone="no"?>
<!DOCTYPE svg PUBLIC "-//W3C//DTD SVG 1.1//EN"
 "http://www.w3.org/Graphics/SVG/1.1/DTD/svg11.dtd">
<!-- Generated by graphviz version 2.44.0 (0)
 -->
<!-- Title: CDPL.Base.Exception Pages: 1 -->
<svg width="786pt" height="258pt"
 viewBox="0.00 0.00 786.00 257.50" xmlns="http://www.w3.org/2000/svg" xmlns:xlink="http://www.w3.org/1999/xlink">
<g id="graph0" class="graph" transform="scale(1 1) rotate(0) translate(4 253.5)">
<title>CDPL.Base.Exception</title>
<!-- Node1 -->
<g id="node1" class="node">
<title>Node1</title>
<g id="a_node1"><a xlink:title="The root of the CDPL exception hierarchy.">
<polygon fill="#bfbfbf" stroke="black" points="132,-154 132,-173 246,-173 246,-154 132,-154"/>
<text text-anchor="middle" x="189" y="-161" font-family="Helvetica" font-size="10.00">CDPL.Base.Exception</text>
</a>
</g>
</g>
<!-- Node3 -->
<g id="node3" class="node">
<title>Node3</title>
<g id="a_node3"><a xlink:href="classCDPL_1_1Base_1_1BadCast.html" target="_top" xlink:title="Thrown to indicate that a cast or conversion from a given source type to a requested target type is n...">
<polygon fill="none" stroke="black" points="297.5,-230 297.5,-249 406.5,-249 406.5,-230 297.5,-230"/>
<text text-anchor="middle" x="352" y="-237" font-family="Helvetica" font-size="10.00">CDPL.Base.BadCast</text>
</a>
</g>
</g>
<!-- Node1&#45;&gt;Node3 -->
<g id="edge2" class="edge">
<title>Node1&#45;&gt;Node3</title>
<path fill="none" stroke="midnightblue" d="M211.33,-179.17C229.38,-191.82 256.34,-209.3 282,-220.5 290.43,-224.18 299.75,-227.32 308.74,-229.92"/>
<polygon fill="midnightblue" stroke="midnightblue" points="212.93,-176.01 202.75,-173.06 208.86,-181.71 212.93,-176.01"/>
</g>
<!-- Node4 -->
<g id="node4" class="node">
<title>Node4</title>
<g id="a_node4"><a xlink:href="classCDPL_1_1Base_1_1ItemNotFound.html" target="_top" xlink:title="Thrown to indicate that some requested data item could not be found.">
<polygon fill="none" stroke="black" points="285,-192 285,-211 419,-211 419,-192 285,-192"/>
<text text-anchor="middle" x="352" y="-199" font-family="Helvetica" font-size="10.00">CDPL.Base.ItemNotFound</text>
</a>
</g>
</g>
<!-- Node1&#45;&gt;Node4 -->
<g id="edge3" class="edge">
<title>Node1&#45;&gt;Node4</title>
<path fill="none" stroke="midnightblue" d="M240.4,-175.4C263.03,-180.74 289.37,-186.95 310.67,-191.98"/>
<polygon fill="midnightblue" stroke="midnightblue" points="241.16,-171.98 230.63,-173.09 239.56,-178.79 241.16,-171.98"/>
</g>
<!-- Node5 -->
<g id="node5" class="node">
<title>Node5</title>
<g id="a_node5"><a xlink:href="classCDPL_1_1Base_1_1OperationFailed.html" target="_top" xlink:title="Thrown to indicate that some requested operation has failed (e.g.">
<polygon fill="none" stroke="black" points="282,-154 282,-173 422,-173 422,-154 282,-154"/>
<text text-anchor="middle" x="352" y="-161" font-family="Helvetica" font-size="10.00">CDPL.Base.OperationFailed</text>
</a>
</g>
</g>
<!-- Node1&#45;&gt;Node5 -->
<g id="edge4" class="edge">
<title>Node1&#45;&gt;Node5</title>
<path fill="none" stroke="midnightblue" d="M256.45,-163.5C264.88,-163.5 273.51,-163.5 281.97,-163.5"/>
<polygon fill="midnightblue" stroke="midnightblue" points="256.31,-160 246.31,-163.5 256.31,-167 256.31,-160"/>
</g>
<!-- Node8 -->
<g id="node8" class="node">
<title>Node8</title>
<g id="a_node8"><a xlink:href="classCDPL_1_1Base_1_1ValueError.html" target="_top" xlink:title="Thrown to indicate errors caused by some invalid value.">
<polygon fill="none" stroke="black" points="294,-97 294,-116 410,-116 410,-97 294,-97"/>
<text text-anchor="middle" x="352" y="-104" font-family="Helvetica" font-size="10.00">CDPL.Base.ValueError</text>
</a>
</g>
</g>
<!-- Node1&#45;&gt;Node8 -->
<g id="edge7" class="edge">
<title>Node1&#45;&gt;Node8</title>
<path fill="none" stroke="midnightblue" d="M226.52,-150.57C256.14,-140.08 297.23,-125.54 323.96,-116.07"/>
<polygon fill="midnightblue" stroke="midnightblue" points="225.21,-147.32 216.95,-153.96 227.54,-153.92 225.21,-147.32"/>
</g>
<!-- Node13 -->
<g id="node13" class="node">
<title>Node13</title>
<g id="a_node13"><a xlink:href="classCDPL_1_1ForceField_1_1Error.html" target="_top" xlink:title=" ">
<polygon fill="none" stroke="black" points="294,-37 294,-56 410,-56 410,-37 294,-37"/>
<text text-anchor="middle" x="352" y="-44" font-family="Helvetica" font-size="10.00">CDPL.ForceField.Error</text>
</a>
</g>
</g>
<!-- Node1&#45;&gt;Node13 -->
<g id="edge12" class="edge">
<title>Node1&#45;&gt;Node13</title>
<path fill="none" stroke="midnightblue" d="M208.12,-147.11C226.21,-131.09 255.11,-106.42 282,-87.5 298.75,-75.71 319.02,-63.94 333.24,-56.06"/>
<polygon fill="midnightblue" stroke="midnightblue" points="205.74,-144.54 200.61,-153.81 210.4,-149.76 205.74,-144.54"/>
</g>
<!-- Node2 -->
<g id="node2" class="node">
<title>Node2</title>
<g id="a_node2"><a xlink:title=" ">
<polygon fill="none" stroke="#bfbfbf" points="0,-154 0,-173 96,-173 96,-154 0,-154"/>
<text text-anchor="middle" x="48" y="-161" font-family="Helvetica" font-size="10.00">builtins::Exception</text>
</a>
</g>
</g>
<!-- Node2&#45;&gt;Node1 -->
<g id="edge1" class="edge">
<title>Node2&#45;&gt;Node1</title>
<path fill="none" stroke="midnightblue" d="M106.23,-163.5C114.69,-163.5 123.41,-163.5 131.85,-163.5"/>
<polygon fill="midnightblue" stroke="midnightblue" points="106.06,-160 96.06,-163.5 106.06,-167 106.06,-160"/>
</g>
<!-- Node6 -->
<g id="node6" class="node">
<title>Node6</title>
<g id="a_node6"><a xlink:href="classCDPL_1_1Base_1_1CalculationFailed.html" target="_top" xlink:title="Thrown to indicate that some requested calculation has failed.">
<polygon fill="none" stroke="black" points="469,-202 469,-221 615,-221 615,-202 469,-202"/>
<text text-anchor="middle" x="542" y="-209" font-family="Helvetica" font-size="10.00">CDPL.Base.CalculationFailed</text>
</a>
</g>
</g>
<!-- Node5&#45;&gt;Node6 -->
<g id="edge5" class="edge">
<title>Node5&#45;&gt;Node6</title>
<path fill="none" stroke="midnightblue" d="M397.5,-175.74C405.65,-177.98 414.08,-180.31 422,-182.5 438,-186.93 441.9,-188.42 458,-192.5 470.75,-195.73 484.67,-199.01 497.4,-201.92"/>
<polygon fill="midnightblue" stroke="midnightblue" points="398.32,-172.33 387.75,-173.05 396.46,-179.08 398.32,-172.33"/>
</g>
<!-- Node7 -->
<g id="node7" class="node">
<title>Node7</title>
<g id="a_node7"><a xlink:href="classCDPL_1_1Base_1_1IOError.html" target="_top" xlink:title="Thrown to indicate that an I/O operation has failed because of physical (e.g.">
<polygon fill="none" stroke="black" points="490.5,-164 490.5,-183 593.5,-183 593.5,-164 490.5,-164"/>
<text text-anchor="middle" x="542" y="-171" font-family="Helvetica" font-size="10.00">CDPL.Base.IOError</text>
</a>
</g>
</g>
<!-- Node5&#45;&gt;Node7 -->
<g id="edge6" class="edge">
<title>Node5&#45;&gt;Node7</title>
<path fill="none" stroke="midnightblue" d="M432.39,-167.72C452.06,-168.77 472.61,-169.86 490.47,-170.81"/>
<polygon fill="midnightblue" stroke="midnightblue" points="432.38,-164.22 422.2,-167.18 432,-171.21 432.38,-164.22"/>
</g>
<!-- Node9 -->
<g id="node9" class="node">
<title>Node9</title>
<g id="a_node9"><a xlink:href="classCDPL_1_1Base_1_1NullPointerException.html" target="_top" xlink:title="Thrown when an operation requires or expects a valid reference but a None reference was provided.">
<polygon fill="none" stroke="black" points="461,-126 461,-145 623,-145 623,-126 461,-126"/>
<text text-anchor="middle" x="542" y="-133" font-family="Helvetica" font-size="10.00">CDPL.Base.NullPointerException</text>
</a>
</g>
</g>
<!-- Node8&#45;&gt;Node9 -->
<g id="edge8" class="edge">
<title>Node8&#45;&gt;Node9</title>
<path fill="none" stroke="midnightblue" d="M420.08,-116.85C439.35,-119.82 460.26,-123.05 479.19,-125.97"/>
<polygon fill="midnightblue" stroke="midnightblue" points="420.59,-113.38 410.17,-115.32 419.52,-120.3 420.59,-113.38"/>
</g>
<!-- Node10 -->
<g id="node10" class="node">
<title>Node10</title>
<g id="a_node10"><a xlink:href="classCDPL_1_1Base_1_1RangeError.html" target="_top" xlink:title="Thrown to indicate that a value is out of range.">
<polygon fill="none" stroke="black" points="482,-88 482,-107 602,-107 602,-88 482,-88"/>
<text text-anchor="middle" x="542" y="-95" font-family="Helvetica" font-size="10.00">CDPL.Base.RangeError</text>
</a>
</g>
</g>
<!-- Node8&#45;&gt;Node10 -->
<g id="edge9" class="edge">
<title>Node8&#45;&gt;Node10</title>
<path fill="none" stroke="midnightblue" d="M420.2,-103.28C440.33,-102.32 462.25,-101.27 481.82,-100.33"/>
<polygon fill="midnightblue" stroke="midnightblue" points="419.99,-99.79 410.17,-103.76 420.33,-106.78 419.99,-99.79"/>
</g>
<!-- Node12 -->
<g id="node12" class="node">
<title>Node12</title>
<g id="a_node12"><a xlink:href="classCDPL_1_1Base_1_1SizeError.html" target="_top" xlink:title="Thrown to indicate that the size of a (multidimensional) array is not correct.">
<polygon fill="none" stroke="black" points="486.5,-50 486.5,-69 597.5,-69 597.5,-50 486.5,-50"/>
<text text-anchor="middle" x="542" y="-57" font-family="Helvetica" font-size="10.00">CDPL.Base.SizeError</text>
</a>
</g>
</g>
<!-- Node8&#45;&gt;Node12 -->
<g id="edge11" class="edge">
<title>Node8&#45;&gt;Node12</title>
<path fill="none" stroke="midnightblue" d="M397.18,-94.34C415.9,-89.29 437.98,-83.46 458,-78.5 470.91,-75.3 485.01,-72 497.85,-69.07"/>
<polygon fill="midnightblue" stroke="midnightblue" points="396.18,-90.99 387.44,-96.98 398.01,-97.75 396.18,-90.99"/>
</g>
<!-- Node11 -->
<g id="node11" class="node">
<title>Node11</title>
<g id="a_node11"><a xlink:href="classCDPL_1_1Base_1_1IndexError.html" target="_top" xlink:title="Thrown to indicate that an index is out of range.">
<polygon fill="none" stroke="black" points="662,-88 662,-107 778,-107 778,-88 662,-88"/>
<text text-anchor="middle" x="720" y="-95" font-family="Helvetica" font-size="10.00">CDPL.Base.IndexError</text>
</a>
</g>
</g>
<!-- Node10&#45;&gt;Node11 -->
<g id="edge10" class="edge">
<title>Node10&#45;&gt;Node11</title>
<path fill="none" stroke="midnightblue" d="M612.2,-97.5C628.64,-97.5 646.01,-97.5 661.85,-97.5"/>
<polygon fill="midnightblue" stroke="midnightblue" points="612.1,-94 602.1,-97.5 612.1,-101 612.1,-94"/>
</g>
<!-- Node14 -->
<g id="node14" class="node">
<title>Node14</title>
<g id="a_node14"><a xlink:href="classCDPL_1_1ForceField_1_1ParameterizationFailed.html" target="_top" xlink:title=" ">
<polygon fill="none" stroke="black" points="458,-0.5 458,-30.5 626,-30.5 626,-0.5 458,-0.5"/>
<text text-anchor="start" x="466" y="-18.5" font-family="Helvetica" font-size="10.00">CDPL.ForceField.Parameterization</text>
<text text-anchor="middle" x="542" y="-7.5" font-family="Helvetica" font-size="10.00">Failed</text>
</a>
</g>
</g>
<!-- Node13&#45;&gt;Node14 -->
<g id="edge13" class="edge">
<title>Node13&#45;&gt;Node14</title>
<path fill="none" stroke="midnightblue" d="M420.22,-35.42C432.39,-33.41 445.21,-31.3 457.77,-29.22"/>
<polygon fill="midnightblue" stroke="midnightblue" points="419.47,-31.99 410.17,-37.07 420.61,-38.9 419.47,-31.99"/>
</g>
</g>
</svg>
