<?xml version="1.0" encoding="UTF-8" standalone="no"?>
<!DOCTYPE svg PUBLIC "-//W3C//DTD SVG 1.1//EN"
 "http://www.w3.org/Graphics/SVG/1.1/DTD/svg11.dtd">
<!-- Generated by graphviz version 2.40.1 (0)
 -->
<!-- Title: CDPL::Math::VectorMatrixUnary&lt; E, F &gt; Pages: 1 -->
<svg width="990pt" height="88pt"
 viewBox="0.00 0.00 990.00 88.00" xmlns="http://www.w3.org/2000/svg" xmlns:xlink="http://www.w3.org/1999/xlink">
<g id="graph0" class="graph" transform="scale(1 1) rotate(0) translate(4 84)">
<title>CDPL::Math::VectorMatrixUnary&lt; E, F &gt;</title>
<!-- Node1 -->
<g id="node1" class="node">
<title>Node1</title>
<g id="a_node1"><a xlink:title=" ">
<polygon fill="#bfbfbf" stroke="#000000" points="842,-21 842,-51 982,-51 982,-21 842,-21"/>
<text text-anchor="start" x="850" y="-39" font-family="Helvetica,sans-Serif" font-size="10.00" fill="#000000">CDPL::Math::VectorMatrix</text>
<text text-anchor="middle" x="912" y="-28" font-family="Helvetica,sans-Serif" font-size="10.00" fill="#000000">Unary&lt; E, F &gt;</text>
</a>
</g>
</g>
<!-- Node2 -->
<g id="node2" class="node">
<title>Node2</title>
<g id="a_node2"><a xlink:href="classCDPL_1_1Math_1_1MatrixExpression.html" target="_top" xlink:title=" ">
<polygon fill="none" stroke="#000000" points="635,-21 635,-51 805,-51 805,-21 635,-21"/>
<text text-anchor="start" x="643" y="-39" font-family="Helvetica,sans-Serif" font-size="10.00" fill="#000000">CDPL::Math::MatrixExpression</text>
<text text-anchor="middle" x="720" y="-28" font-family="Helvetica,sans-Serif" font-size="10.00" fill="#000000">&lt; VectorMatrixUnary&lt; E, F &gt; &gt;</text>
</a>
</g>
</g>
<!-- Node2&#45;&gt;Node1 -->
<g id="edge1" class="edge">
<title>Node2&#45;&gt;Node1</title>
<path fill="none" stroke="#191970" d="M815.211,-36C824.2271,-36 833.2525,-36 841.969,-36"/>
<polygon fill="#191970" stroke="#191970" points="815.0525,-32.5001 805.0525,-36 815.0524,-39.5001 815.0525,-32.5001"/>
</g>
<!-- Node3 -->
<g id="node3" class="node">
<title>Node3</title>
<g id="a_node3"><a xlink:href="classCDPL_1_1Math_1_1Expression.html" target="_top" xlink:title=" ">
<polygon fill="none" stroke="#000000" points="328,-38.5 328,-79.5 467,-79.5 467,-38.5 328,-38.5"/>
<text text-anchor="start" x="336" y="-67.5" font-family="Helvetica,sans-Serif" font-size="10.00" fill="#000000">CDPL::Math::Expression</text>
<text text-anchor="start" x="336" y="-56.5" font-family="Helvetica,sans-Serif" font-size="10.00" fill="#000000">&lt; VectorMatrixUnary&lt; E,</text>
<text text-anchor="middle" x="397.5" y="-45.5" font-family="Helvetica,sans-Serif" font-size="10.00" fill="#000000"> F &gt; &gt;</text>
</a>
</g>
</g>
<!-- Node3&#45;&gt;Node2 -->
<g id="edge2" class="edge">
<title>Node3&#45;&gt;Node2</title>
<path fill="none" stroke="#191970" d="M477.0908,-53.3238C524.972,-49.909 585.9035,-45.5635 634.7622,-42.079"/>
<polygon fill="#191970" stroke="#191970" points="476.8063,-49.8351 467.0806,-54.0377 477.3043,-56.8173 476.8063,-49.8351"/>
</g>
<!-- Node4 -->
<g id="node4" class="node">
<title>Node4</title>
<g id="a_node4"><a xlink:href="classCDPL_1_1Math_1_1Expression.html" target="_top" xlink:title=" ">
<polygon fill="none" stroke="#000000" points="0,-24.5 0,-43.5 160,-43.5 160,-24.5 0,-24.5"/>
<text text-anchor="middle" x="80" y="-31.5" font-family="Helvetica,sans-Serif" font-size="10.00" fill="#000000">CDPL::Math::Expression&lt; E &gt;</text>
</a>
</g>
</g>
<!-- Node4&#45;&gt;Node3 -->
<g id="edge3" class="edge">
<title>Node4&#45;&gt;Node3</title>
<path fill="none" stroke="#ffa500" stroke-dasharray="5,2" d="M170.2949,-41.1098C220.3463,-45.0509 281.6271,-49.8761 327.9276,-53.5219"/>
<polygon fill="#ffa500" stroke="#ffa500" points="170.3626,-37.6044 160.1187,-40.3086 169.813,-44.5828 170.3626,-37.6044"/>
<text text-anchor="start" x="178" y="-63" font-family="Helvetica,sans-Serif" font-size="10.00" fill="#000000"> &lt; VectorMatrixUnary</text>
<text text-anchor="middle" x="231" y="-52" font-family="Helvetica,sans-Serif" font-size="10.00" fill="#000000">&lt; E, F &gt; &gt;</text>
</g>
<!-- Node5 -->
<g id="node5" class="node">
<title>Node5</title>
<g id="a_node5"><a xlink:href="classCDPL_1_1Math_1_1MatrixExpression.html" target="_top" xlink:title=" ">
<polygon fill="none" stroke="#000000" points="302,-.5 302,-19.5 493,-19.5 493,-.5 302,-.5"/>
<text text-anchor="middle" x="397.5" y="-7.5" font-family="Helvetica,sans-Serif" font-size="10.00" fill="#000000">CDPL::Math::MatrixExpression&lt; E &gt;</text>
</a>
</g>
</g>
<!-- Node4&#45;&gt;Node5 -->
<g id="edge5" class="edge">
<title>Node4&#45;&gt;Node5</title>
<path fill="none" stroke="#191970" d="M170.1345,-27.1867C211.2872,-24.0759 260.0575,-20.3894 301.8561,-17.2298"/>
<polygon fill="#191970" stroke="#191970" points="169.8264,-23.6999 160.1187,-27.9438 170.3541,-30.68 169.8264,-23.6999"/>
</g>
<!-- Node5&#45;&gt;Node2 -->
<g id="edge4" class="edge">
<title>Node5&#45;&gt;Node2</title>
<path fill="none" stroke="#ffa500" stroke-dasharray="5,2" d="M503.1449,-10.1534C539.3295,-11.0588 580.0105,-13.0214 617,-17 626.4013,-18.0112 636.233,-19.3955 645.9325,-20.9597"/>
<polygon fill="#ffa500" stroke="#ffa500" points="503.1418,-6.6525 493.0651,-9.9252 502.9833,-13.6507 503.1418,-6.6525"/>
<text text-anchor="start" x="511" y="-31" font-family="Helvetica,sans-Serif" font-size="10.00" fill="#000000"> &lt; VectorMatrixUnary</text>
<text text-anchor="middle" x="564" y="-20" font-family="Helvetica,sans-Serif" font-size="10.00" fill="#000000">&lt; E, F &gt; &gt;</text>
</g>
</g>
</svg>
