<?xml version="1.0" encoding="UTF-8" standalone="no"?>
<!DOCTYPE svg PUBLIC "-//W3C//DTD SVG 1.1//EN"
 "http://www.w3.org/Graphics/SVG/1.1/DTD/svg11.dtd">
<!-- Generated by graphviz version 2.40.1 (0)
 -->
<!-- Title: CDPL::Math::VectorMatrixBinary&lt; E1, E2, F &gt; Pages: 1 -->
<svg width="986pt" height="88pt"
 viewBox="0.00 0.00 986.00 88.00" xmlns="http://www.w3.org/2000/svg" xmlns:xlink="http://www.w3.org/1999/xlink">
<g id="graph0" class="graph" transform="scale(1 1) rotate(0) translate(4 84)">
<title>CDPL::Math::VectorMatrixBinary&lt; E1, E2, F &gt;</title>
<!-- Node1 -->
<g id="node1" class="node">
<title>Node1</title>
<g id="a_node1"><a xlink:title=" ">
<polygon fill="#bfbfbf" stroke="#000000" points="838,-21 838,-51 978,-51 978,-21 838,-21"/>
<text text-anchor="start" x="846" y="-39" font-family="Helvetica,sans-Serif" font-size="10.00" fill="#000000">CDPL::Math::VectorMatrix</text>
<text text-anchor="middle" x="908" y="-28" font-family="Helvetica,sans-Serif" font-size="10.00" fill="#000000">Binary&lt; E1, E2, F &gt;</text>
</a>
</g>
</g>
<!-- Node2 -->
<g id="node2" class="node">
<title>Node2</title>
<g id="a_node2"><a xlink:href="classCDPL_1_1Math_1_1MatrixExpression.html" target="_top" xlink:title=" ">
<polygon fill="none" stroke="#000000" points="639,-15.5 639,-56.5 801,-56.5 801,-15.5 639,-15.5"/>
<text text-anchor="start" x="647" y="-44.5" font-family="Helvetica,sans-Serif" font-size="10.00" fill="#000000">CDPL::Math::MatrixExpression</text>
<text text-anchor="start" x="647" y="-33.5" font-family="Helvetica,sans-Serif" font-size="10.00" fill="#000000">&lt; VectorMatrixBinary&lt; E1,</text>
<text text-anchor="middle" x="720" y="-22.5" font-family="Helvetica,sans-Serif" font-size="10.00" fill="#000000"> E2, F &gt; &gt;</text>
</a>
</g>
</g>
<!-- Node2&#45;&gt;Node1 -->
<g id="edge1" class="edge">
<title>Node2&#45;&gt;Node1</title>
<path fill="none" stroke="#191970" d="M811.1694,-36C820.1225,-36 829.1099,-36 837.8062,-36"/>
<polygon fill="#191970" stroke="#191970" points="811.093,-32.5001 801.093,-36 811.093,-39.5001 811.093,-32.5001"/>
</g>
<!-- Node3 -->
<g id="node3" class="node">
<title>Node3</title>
<g id="a_node3"><a xlink:href="classCDPL_1_1Math_1_1Expression.html" target="_top" xlink:title=" ">
<polygon fill="none" stroke="#000000" points="334,-38.5 334,-79.5 465,-79.5 465,-38.5 334,-38.5"/>
<text text-anchor="start" x="342" y="-67.5" font-family="Helvetica,sans-Serif" font-size="10.00" fill="#000000">CDPL::Math::Expression</text>
<text text-anchor="start" x="342" y="-56.5" font-family="Helvetica,sans-Serif" font-size="10.00" fill="#000000">&lt; VectorMatrixBinary&lt;</text>
<text text-anchor="middle" x="399.5" y="-45.5" font-family="Helvetica,sans-Serif" font-size="10.00" fill="#000000"> E1, E2, F &gt; &gt;</text>
</a>
</g>
</g>
<!-- Node3&#45;&gt;Node2 -->
<g id="edge2" class="edge">
<title>Node3&#45;&gt;Node2</title>
<path fill="none" stroke="#191970" d="M475.3921,-53.5538C524.58,-50.0239 588.6,-45.4296 638.8063,-41.8267"/>
<polygon fill="#191970" stroke="#191970" points="474.8551,-50.0832 465.1313,-54.2901 475.3563,-57.0653 474.8551,-50.0832"/>
</g>
<!-- Node4 -->
<g id="node4" class="node">
<title>Node4</title>
<g id="a_node4"><a xlink:href="classCDPL_1_1Math_1_1Expression.html" target="_top" xlink:title=" ">
<polygon fill="none" stroke="#000000" points="0,-24.5 0,-43.5 160,-43.5 160,-24.5 0,-24.5"/>
<text text-anchor="middle" x="80" y="-31.5" font-family="Helvetica,sans-Serif" font-size="10.00" fill="#000000">CDPL::Math::Expression&lt; E &gt;</text>
</a>
</g>
</g>
<!-- Node4&#45;&gt;Node3 -->
<g id="edge3" class="edge">
<title>Node4&#45;&gt;Node3</title>
<path fill="none" stroke="#ffa500" stroke-dasharray="5,2" d="M170.4414,-41.0768C222.4473,-45.1461 286.61,-50.1667 333.785,-53.858"/>
<polygon fill="#ffa500" stroke="#ffa500" points="170.4535,-37.5671 160.2109,-40.2763 169.9074,-44.5458 170.4535,-37.5671"/>
<text text-anchor="start" x="178" y="-63" font-family="Helvetica,sans-Serif" font-size="10.00" fill="#000000"> &lt; VectorMatrixBinary</text>
<text text-anchor="middle" x="232" y="-52" font-family="Helvetica,sans-Serif" font-size="10.00" fill="#000000">&lt; E1, E2, F &gt; &gt;</text>
</g>
<!-- Node5 -->
<g id="node5" class="node">
<title>Node5</title>
<g id="a_node5"><a xlink:href="classCDPL_1_1Math_1_1MatrixExpression.html" target="_top" xlink:title=" ">
<polygon fill="none" stroke="#000000" points="304,-.5 304,-19.5 495,-19.5 495,-.5 304,-.5"/>
<text text-anchor="middle" x="399.5" y="-7.5" font-family="Helvetica,sans-Serif" font-size="10.00" fill="#000000">CDPL::Math::MatrixExpression&lt; E &gt;</text>
</a>
</g>
</g>
<!-- Node4&#45;&gt;Node5 -->
<g id="edge5" class="edge">
<title>Node4&#45;&gt;Node5</title>
<path fill="none" stroke="#191970" d="M170.3562,-27.2127C212.0504,-24.0807 261.5727,-20.3607 303.8931,-17.1817"/>
<polygon fill="#191970" stroke="#191970" points="169.9206,-23.7354 160.2109,-27.9748 170.4451,-30.7158 169.9206,-23.7354"/>
</g>
<!-- Node5&#45;&gt;Node2 -->
<g id="edge4" class="edge">
<title>Node5&#45;&gt;Node2</title>
<path fill="none" stroke="#ffa500" stroke-dasharray="5,2" d="M505.3552,-9.945C542.0627,-10.8264 583.4257,-12.8271 621,-17 626.8271,-17.6471 632.8244,-18.4503 638.8476,-19.3575"/>
<polygon fill="#ffa500" stroke="#ffa500" points="505.2052,-6.4411 495.1322,-9.7252 505.0546,-13.4394 505.2052,-6.4411"/>
<text text-anchor="start" x="513" y="-31" font-family="Helvetica,sans-Serif" font-size="10.00" fill="#000000"> &lt; VectorMatrixBinary</text>
<text text-anchor="middle" x="567" y="-20" font-family="Helvetica,sans-Serif" font-size="10.00" fill="#000000">&lt; E1, E2, F &gt; &gt;</text>
</g>
</g>
</svg>
