<?xml version="1.0" encoding="UTF-8" standalone="no"?>
<!DOCTYPE svg PUBLIC "-//W3C//DTD SVG 1.1//EN"
 "http://www.w3.org/Graphics/SVG/1.1/DTD/svg11.dtd">
<!-- Generated by graphviz version 2.40.1 (0)
 -->
<!-- Title: CDPL::Util::DecompressionIStream&lt; CompAlgo, CharT, TraitsT &gt; Pages: 1 -->
<!--zoomable 100 -->
<svg id="main" version="1.1" xmlns="http://www.w3.org/2000/svg" xmlns:xlink="http://www.w3.org/1999/xlink" xml:space="preserve" onload="init(evt)">
<style type="text/css"><![CDATA[
.edge:hover path { stroke: red; }
.edge:hover polygon { stroke: red; fill: red; }
]]></style>
<script type="text/javascript"><![CDATA[
var edges = document.getElementsByTagName('g');
if (edges && edges.length) {
  for (var i=0;i<edges.length;i++) {
    if (edges[i].id.substr(0,4)=='edge') {
      edges[i].setAttribute('class','edge');
    }
  }
}
]]></script>
        <defs>
                <circle id="rim" cx="0" cy="0" r="7"/>
                <circle id="rim2" cx="0" cy="0" r="3.5"/>
                <g id="zoomPlus">
                        <use xlink:href="#rim" fill="#404040">
                                <set attributeName="fill" to="#808080" begin="zoomplus.mouseover" end="zoomplus.mouseout"/>
                        </use>
                        <path d="M-4,0h8M0,-4v8" fill="none" stroke="white" stroke-width="1.5" pointer-events="none"/>
                </g>
                <g id="zoomMin">
                        <use xlink:href="#rim" fill="#404040">
                                <set attributeName="fill" to="#808080" begin="zoomminus.mouseover" end="zoomminus.mouseout"/>
                        </use>
                        <path d="M-4,0h8" fill="none" stroke="white" stroke-width="1.5" pointer-events="none"/>
                </g>
                <g id="dirArrow">
                        <path fill="none" stroke="white" stroke-width="1.5" d="M0,-3.0v7 M-2.5,-0.5L0,-3.0L2.5,-0.5"/>
                </g>
               <g id="resetDef">
                       <use xlink:href="#rim2" fill="#404040">
                               <set attributeName="fill" to="#808080" begin="reset.mouseover" end="reset.mouseout"/>
                       </use>
               </g>
        </defs>

<script type="text/javascript">
var viewWidth = 988;
var viewHeight = 100;
var sectionId = 'dynsection-0';
</script>
<script xlink:href="svgpan.js"/>
<svg id="graph" class="graph">
<g id="viewport">
<title>CDPL::Util::DecompressionIStream&lt; CompAlgo, CharT, TraitsT &gt;</title>
<!-- Node1 -->
<g id="node1" class="node">
<title>Node1</title>
<g id="a_node1"><a xlink:title=" ">
<polygon fill="#bfbfbf" stroke="#000000" points="826,-22 826,-63 980,-63 980,-22 826,-22"/>
<text text-anchor="start" x="834" y="-51" font-family="Helvetica,sans-Serif" font-size="10.00" fill="#000000">CDPL::Util::Decompression</text>
<text text-anchor="start" x="834" y="-40" font-family="Helvetica,sans-Serif" font-size="10.00" fill="#000000">IStream&lt; CompAlgo, CharT,</text>
<text text-anchor="middle" x="903" y="-29" font-family="Helvetica,sans-Serif" font-size="10.00" fill="#000000"> TraitsT &gt;</text>
</a>
</g>
</g>
<!-- Node2 -->
<g id="node2" class="node">
<title>Node2</title>
<g id="a_node2"><a xlink:href="classCDPL_1_1Util_1_1CompressionStreamBase.html" target="_top" xlink:title=" ">
<polygon fill="none" stroke="#000000" points="619,-16.5 619,-68.5 789,-68.5 789,-16.5 619,-16.5"/>
<text text-anchor="start" x="627" y="-56.5" font-family="Helvetica,sans-Serif" font-size="10.00" fill="#000000">CDPL::Util::CompressionStream</text>
<text text-anchor="start" x="627" y="-45.5" font-family="Helvetica,sans-Serif" font-size="10.00" fill="#000000">Base&lt; CompAlgo, std::basic</text>
<text text-anchor="start" x="627" y="-34.5" font-family="Helvetica,sans-Serif" font-size="10.00" fill="#000000">_istream&lt; char, std::char_traits</text>
<text text-anchor="middle" x="704" y="-23.5" font-family="Helvetica,sans-Serif" font-size="10.00" fill="#000000">&lt; char &gt; &gt; &gt;</text>
</a>
</g>
</g>
<!-- Node2&#45;&gt;Node1 -->
<g id="edge1" class="edge">
<title>Node2&#45;&gt;Node1</title>
<path fill="none" stroke="#191970" d="M799.2611,-42.5C808.1498,-42.5 817.0836,-42.5 825.7782,-42.5"/>
<polygon fill="#191970" stroke="#191970" points="799.26,-39.0001 789.2599,-42.5 799.2599,-46.0001 799.26,-39.0001"/>
</g>
<!-- Node3 -->
<g id="node3" class="node">
<title>Node3</title>
<g id="a_node3"><a xlink:title="STL class.">
<polygon fill="none" stroke="#bfbfbf" points="306.5,-50 306.5,-91 434.5,-91 434.5,-50 306.5,-50"/>
<text text-anchor="start" x="314.5" y="-79" font-family="Helvetica,sans-Serif" font-size="10.00" fill="#000000">std::basic_istream</text>
<text text-anchor="start" x="314.5" y="-68" font-family="Helvetica,sans-Serif" font-size="10.00" fill="#000000">&lt; char, std::char_traits</text>
<text text-anchor="middle" x="370.5" y="-57" font-family="Helvetica,sans-Serif" font-size="10.00" fill="#000000">&lt; char &gt; &gt;</text>
</a>
</g>
</g>
<!-- Node3&#45;&gt;Node2 -->
<g id="edge2" class="edge">
<title>Node3&#45;&gt;Node2</title>
<path fill="none" stroke="#191970" d="M444.6674,-66.2338C489.887,-63.4135 548.8278,-59.3472 601,-54.5 606.8259,-53.9587 612.8325,-53.3615 618.8803,-52.7312"/>
<polygon fill="#191970" stroke="#191970" points="444.4172,-62.7425 434.6519,-66.8521 444.8486,-69.7292 444.4172,-62.7425"/>
</g>
<!-- Node4 -->
<g id="node4" class="node">
<title>Node4</title>
<g id="a_node4"><a xlink:title="STL class.">
<polygon fill="none" stroke="#bfbfbf" points="117,-61 117,-80 245,-80 245,-61 117,-61"/>
<text text-anchor="middle" x="181" y="-68" font-family="Helvetica,sans-Serif" font-size="10.00" fill="#000000">std::basic_ios&lt; Char &gt;</text>
</a>
</g>
</g>
<!-- Node4&#45;&gt;Node3 -->
<g id="edge3" class="edge">
<title>Node4&#45;&gt;Node3</title>
<path fill="none" stroke="#191970" d="M255.4991,-70.5C272.3288,-70.5 290.0526,-70.5 306.41,-70.5"/>
<polygon fill="#191970" stroke="#191970" points="255.1561,-67.0001 245.1561,-70.5 255.156,-74.0001 255.1561,-67.0001"/>
</g>
<!-- Node5 -->
<g id="node5" class="node">
<title>Node5</title>
<g id="a_node5"><a xlink:title="STL class.">
<polygon fill="none" stroke="#bfbfbf" points="0,-61 0,-80 80,-80 80,-61 0,-61"/>
<text text-anchor="middle" x="40" y="-68" font-family="Helvetica,sans-Serif" font-size="10.00" fill="#000000">std::ios_base</text>
</a>
</g>
</g>
<!-- Node5&#45;&gt;Node4 -->
<g id="edge4" class="edge">
<title>Node5&#45;&gt;Node4</title>
<path fill="none" stroke="#191970" d="M90.2788,-70.5C98.8935,-70.5 107.9483,-70.5 116.8661,-70.5"/>
<polygon fill="#191970" stroke="#191970" points="90.0278,-67.0001 80.0278,-70.5 90.0278,-74.0001 90.0278,-67.0001"/>
</g>
<!-- Node6 -->
<g id="node6" class="node">
<title>Node6</title>
<g id="a_node6"><a xlink:href="classCDPL_1_1Util_1_1CompressionStreamBase.html" target="_top" xlink:title=" ">
<polygon fill="none" stroke="#000000" points="282,-.5 282,-30.5 459,-30.5 459,-.5 282,-.5"/>
<text text-anchor="start" x="290" y="-18.5" font-family="Helvetica,sans-Serif" font-size="10.00" fill="#000000">CDPL::Util::CompressionStream</text>
<text text-anchor="middle" x="370.5" y="-7.5" font-family="Helvetica,sans-Serif" font-size="10.00" fill="#000000">Base&lt; CompAlgo, StreamType &gt;</text>
</a>
</g>
</g>
<!-- Node6&#45;&gt;Node2 -->
<g id="edge5" class="edge">
<title>Node6&#45;&gt;Node2</title>
<path fill="none" stroke="#ffa500" stroke-dasharray="5,2" d="M469.3698,-14.2833C510.23,-14.7638 558.0094,-16.5962 601,-21.5 606.8023,-22.1619 612.7634,-22.9864 618.753,-23.9225"/>
<polygon fill="#ffa500" stroke="#ffa500" points="469.1696,-10.7814 459.1378,-14.1893 469.1052,-17.7811 469.1696,-10.7814"/>
<text text-anchor="start" x="477" y="-46.5" font-family="Helvetica,sans-Serif" font-size="10.00" fill="#000000"> &lt; CompAlgo, std::basic</text>
<text text-anchor="start" x="477" y="-35.5" font-family="Helvetica,sans-Serif" font-size="10.00" fill="#000000">_istream&lt; char, std::char</text>
<text text-anchor="middle" x="539" y="-24.5" font-family="Helvetica,sans-Serif" font-size="10.00" fill="#000000">_traits&lt; char &gt; &gt; &gt;</text>
</g>
<!-- Node7 -->
<g id="node7" class="node">
<title>Node7</title>
<g id="a_node7"><a xlink:href="classStreamType.html" target="_top" xlink:title=" ">
<polygon fill="none" stroke="#000000" points="144,-6 144,-25 218,-25 218,-6 144,-6"/>
<text text-anchor="middle" x="181" y="-13" font-family="Helvetica,sans-Serif" font-size="10.00" fill="#000000">StreamType</text>
</a>
</g>
</g>
<!-- Node7&#45;&gt;Node6 -->
<g id="edge6" class="edge">
<title>Node7&#45;&gt;Node6</title>
<path fill="none" stroke="#191970" d="M228.6759,-15.5C244.8338,-15.5 263.4403,-15.5 281.7471,-15.5"/>
<polygon fill="#191970" stroke="#191970" points="228.4391,-12.0001 218.4391,-15.5 228.4391,-19.0001 228.4391,-12.0001"/>
</g>
</g>
</svg>
        <g id="navigator" transform="translate(0 0)" fill="#404254">
                <rect fill="#f2f5e9" fill-opacity="0.5" stroke="#606060" stroke-width=".5" x="0" y="0" width="60" height="60"/>
                <use id="zoomplus" xlink:href="#zoomPlus" x="17" y="9" onmousedown="handleZoom(evt,'in')"/>
                <use id="zoomminus" xlink:href="#zoomMin" x="42" y="9" onmousedown="handleZoom(evt,'out')"/>
                <use id="reset" xlink:href="#resetDef" x="30" y="36" onmousedown="handleReset()"/>
                <g id="arrowUp" xlink:href="#dirArrow" transform="translate(30 24)" onmousedown="handlePan(0,-1)">
                  <use xlink:href="#rim" fill="#404040">
                        <set attributeName="fill" to="#808080" begin="arrowUp.mouseover" end="arrowUp.mouseout"/>
                  </use>
                  <path fill="none" stroke="white" stroke-width="1.5" d="M0,-3.0v7 M-2.5,-0.5L0,-3.0L2.5,-0.5"/>
                </g>
                <g id="arrowRight" xlink:href="#dirArrow" transform="rotate(90) translate(36 -43)" onmousedown="handlePan(1,0)">
                  <use xlink:href="#rim" fill="#404040">
                        <set attributeName="fill" to="#808080" begin="arrowRight.mouseover" end="arrowRight.mouseout"/>
                  </use>
                  <path fill="none" stroke="white" stroke-width="1.5" d="M0,-3.0v7 M-2.5,-0.5L0,-3.0L2.5,-0.5"/>
                </g>
                <g id="arrowDown" xlink:href="#dirArrow" transform="rotate(180) translate(-30 -48)" onmousedown="handlePan(0,1)">
                  <use xlink:href="#rim" fill="#404040">
                        <set attributeName="fill" to="#808080" begin="arrowDown.mouseover" end="arrowDown.mouseout"/>
                  </use>
                  <path fill="none" stroke="white" stroke-width="1.5" d="M0,-3.0v7 M-2.5,-0.5L0,-3.0L2.5,-0.5"/>
                </g>
                <g id="arrowLeft" xlink:href="#dirArrow" transform="rotate(270) translate(-36 17)" onmousedown="handlePan(-1,0)">
                  <use xlink:href="#rim" fill="#404040">
                        <set attributeName="fill" to="#808080" begin="arrowLeft.mouseover" end="arrowLeft.mouseout"/>
                  </use>
                  <path fill="none" stroke="white" stroke-width="1.5" d="M0,-3.0v7 M-2.5,-0.5L0,-3.0L2.5,-0.5"/>
                </g>
        </g>
        <svg viewBox="0 0 15 15" width="100%" height="30px" preserveAspectRatio="xMaxYMin meet">
         <g id="arrow_out" transform="scale(0.3 0.3)">
          <a xlink:href="classCDPL_1_1Util_1_1DecompressionIStream__inherit__graph_org.svg" target="_base">
           <rect id="button" ry="5" rx="5" y="6" x="6" height="38" width="38"
                fill="#f2f5e9" fill-opacity="0.5" stroke="#606060" stroke-width="1.0"/>
           <path id="arrow"
             d="M 11.500037,31.436501 C 11.940474,20.09759 22.043105,11.32322 32.158766,21.979434 L 37.068811,17.246167 C 37.068811,17.246167 37.088388,32 37.088388,32 L 22.160133,31.978069 C 22.160133,31.978069 26.997745,27.140456 26.997745,27.140456 C 18.528582,18.264221 13.291696,25.230495 11.500037,31.436501 z"
             style="fill:#404040;"/>
          </a>
         </g>
        </svg>
</svg>
