<?xml version="1.0" encoding="UTF-8" standalone="no"?>
<!DOCTYPE svg PUBLIC "-//W3C//DTD SVG 1.1//EN"
 "http://www.w3.org/Graphics/SVG/1.1/DTD/svg11.dtd">
<!-- Generated by graphviz version 2.40.1 (0)
 -->
<!-- Title: CDPL::Math::QuaternionReference&lt; Q &gt; Pages: 1 -->
<svg width="1123pt" height="88pt"
 viewBox="0.00 0.00 1123.00 88.00" xmlns="http://www.w3.org/2000/svg" xmlns:xlink="http://www.w3.org/1999/xlink">
<g id="graph0" class="graph" transform="scale(1 1) rotate(0) translate(4 84)">
<title>CDPL::Math::QuaternionReference&lt; Q &gt;</title>
<!-- Node1 -->
<g id="node1" class="node">
<title>Node1</title>
<g id="a_node1"><a xlink:title=" ">
<polygon fill="#bfbfbf" stroke="#000000" points="904,-26.5 904,-45.5 1115,-45.5 1115,-26.5 904,-26.5"/>
<text text-anchor="middle" x="1009.5" y="-33.5" font-family="Helvetica,sans-Serif" font-size="10.00" fill="#000000">CDPL::Math::QuaternionReference&lt; Q &gt;</text>
</a>
</g>
</g>
<!-- Node2 -->
<g id="node2" class="node">
<title>Node2</title>
<g id="a_node2"><a xlink:href="classCDPL_1_1Math_1_1QuaternionExpression.html" target="_top" xlink:title=" ">
<polygon fill="none" stroke="#000000" points="682,-21 682,-51 867,-51 867,-21 682,-21"/>
<text text-anchor="start" x="690" y="-39" font-family="Helvetica,sans-Serif" font-size="10.00" fill="#000000">CDPL::Math::QuaternionExpression</text>
<text text-anchor="middle" x="774.5" y="-28" font-family="Helvetica,sans-Serif" font-size="10.00" fill="#000000">&lt; QuaternionReference&lt; Q &gt; &gt;</text>
</a>
</g>
</g>
<!-- Node2&#45;&gt;Node1 -->
<g id="edge1" class="edge">
<title>Node2&#45;&gt;Node1</title>
<path fill="none" stroke="#191970" d="M877.3033,-36C886.0993,-36 895.0069,-36 903.8248,-36"/>
<polygon fill="#191970" stroke="#191970" points="877.0409,-32.5001 867.0409,-36 877.0409,-39.5001 877.0409,-32.5001"/>
</g>
<!-- Node3 -->
<g id="node3" class="node">
<title>Node3</title>
<g id="a_node3"><a xlink:href="classCDPL_1_1Math_1_1Expression.html" target="_top" xlink:title=" ">
<polygon fill="none" stroke="#000000" points="355.5,-38.5 355.5,-79.5 486.5,-79.5 486.5,-38.5 355.5,-38.5"/>
<text text-anchor="start" x="363.5" y="-67.5" font-family="Helvetica,sans-Serif" font-size="10.00" fill="#000000">CDPL::Math::Expression</text>
<text text-anchor="start" x="363.5" y="-56.5" font-family="Helvetica,sans-Serif" font-size="10.00" fill="#000000">&lt; QuaternionReference</text>
<text text-anchor="middle" x="421" y="-45.5" font-family="Helvetica,sans-Serif" font-size="10.00" fill="#000000">&lt; Q &gt; &gt;</text>
</a>
</g>
</g>
<!-- Node3&#45;&gt;Node2 -->
<g id="edge2" class="edge">
<title>Node3&#45;&gt;Node2</title>
<path fill="none" stroke="#191970" d="M496.8911,-54.0623C551.0678,-50.5373 624.2464,-45.776 681.8692,-42.0269"/>
<polygon fill="#191970" stroke="#191970" points="496.4138,-50.5858 486.6622,-54.7278 496.8684,-57.571 496.4138,-50.5858"/>
</g>
<!-- Node4 -->
<g id="node4" class="node">
<title>Node4</title>
<g id="a_node4"><a xlink:href="classCDPL_1_1Math_1_1Expression.html" target="_top" xlink:title=" ">
<polygon fill="none" stroke="#000000" points="0,-24.5 0,-43.5 160,-43.5 160,-24.5 0,-24.5"/>
<text text-anchor="middle" x="80" y="-31.5" font-family="Helvetica,sans-Serif" font-size="10.00" fill="#000000">CDPL::Math::Expression&lt; E &gt;</text>
</a>
</g>
</g>
<!-- Node4&#45;&gt;Node3 -->
<g id="edge3" class="edge">
<title>Node4&#45;&gt;Node3</title>
<path fill="none" stroke="#ffa500" stroke-dasharray="5,2" d="M170.6742,-40.6477C228.8282,-44.9112 302.9837,-50.3478 355.4457,-54.194"/>
<polygon fill="#ffa500" stroke="#ffa500" points="170.6096,-37.1336 160.3804,-39.893 170.0977,-44.1149 170.6096,-37.1336"/>
<text text-anchor="start" x="178" y="-63" font-family="Helvetica,sans-Serif" font-size="10.00" fill="#000000"> &lt; QuaternionReference</text>
<text text-anchor="middle" x="237" y="-52" font-family="Helvetica,sans-Serif" font-size="10.00" fill="#000000">&lt; Q &gt; &gt;</text>
</g>
<!-- Node5 -->
<g id="node5" class="node">
<title>Node5</title>
<g id="a_node5"><a xlink:href="classCDPL_1_1Math_1_1QuaternionExpression.html" target="_top" xlink:title=" ">
<polygon fill="none" stroke="#000000" points="314,-.5 314,-19.5 528,-19.5 528,-.5 314,-.5"/>
<text text-anchor="middle" x="421" y="-7.5" font-family="Helvetica,sans-Serif" font-size="10.00" fill="#000000">CDPL::Math::QuaternionExpression&lt; E &gt;</text>
</a>
</g>
</g>
<!-- Node4&#45;&gt;Node5 -->
<g id="edge5" class="edge">
<title>Node4&#45;&gt;Node5</title>
<path fill="none" stroke="#191970" d="M170.4882,-27.6313C214.4918,-24.5343 267.6907,-20.7901 313.7256,-17.5501"/>
<polygon fill="#191970" stroke="#191970" points="170.11,-24.1492 160.3804,-28.3427 170.6015,-31.1319 170.11,-24.1492"/>
</g>
<!-- Node5&#45;&gt;Node2 -->
<g id="edge4" class="edge">
<title>Node5&#45;&gt;Node2</title>
<path fill="none" stroke="#ffa500" stroke-dasharray="5,2" d="M538.3149,-10.0313C578.2726,-10.9308 623.1555,-12.9209 664,-17 674.1688,-18.0156 684.8142,-19.4137 695.3129,-20.9947"/>
<polygon fill="#ffa500" stroke="#ffa500" points="538.3374,-6.5311 528.2678,-9.8255 538.194,-13.5297 538.3374,-6.5311"/>
<text text-anchor="start" x="546" y="-31" font-family="Helvetica,sans-Serif" font-size="10.00" fill="#000000"> &lt; QuaternionReference</text>
<text text-anchor="middle" x="605" y="-20" font-family="Helvetica,sans-Serif" font-size="10.00" fill="#000000">&lt; Q &gt; &gt;</text>
</g>
</g>
</svg>
