<?xml version="1.0" encoding="UTF-8" standalone="no"?>
<!DOCTYPE svg PUBLIC "-//W3C//DTD SVG 1.1//EN"
 "http://www.w3.org/Graphics/SVG/1.1/DTD/svg11.dtd">
<!-- Generated by graphviz version 2.40.1 (0)
 -->
<!-- Title: CDPL::Math::UnitVector&lt; T &gt; Pages: 1 -->
<svg width="1549pt" height="120pt"
 viewBox="0.00 0.00 1549.00 119.50" xmlns="http://www.w3.org/2000/svg" xmlns:xlink="http://www.w3.org/1999/xlink">
<g id="graph0" class="graph" transform="scale(1 1) rotate(0) translate(4 115.5)">
<title>CDPL::Math::UnitVector&lt; T &gt;</title>
<!-- Node1 -->
<g id="node1" class="node">
<title>Node1</title>
<g id="a_node1"><a xlink:title=" ">
<polygon fill="#bfbfbf" stroke="#000000" points="1383,-47.5 1383,-66.5 1541,-66.5 1541,-47.5 1383,-47.5"/>
<text text-anchor="middle" x="1462" y="-54.5" font-family="Helvetica,sans-Serif" font-size="10.00" fill="#000000">CDPL::Math::UnitVector&lt; T &gt;</text>
</a>
</g>
</g>
<!-- Node2 -->
<g id="node2" class="node">
<title>Node2</title>
<g id="a_node2"><a xlink:href="classCDPL_1_1Math_1_1VectorContainer.html" target="_top" xlink:title=" ">
<polygon fill="none" stroke="#000000" points="1190,-42 1190,-72 1346,-72 1346,-42 1190,-42"/>
<text text-anchor="start" x="1198" y="-60" font-family="Helvetica,sans-Serif" font-size="10.00" fill="#000000">CDPL::Math::VectorContainer</text>
<text text-anchor="middle" x="1268" y="-49" font-family="Helvetica,sans-Serif" font-size="10.00" fill="#000000">&lt; UnitVector&lt; T &gt; &gt;</text>
</a>
</g>
</g>
<!-- Node2&#45;&gt;Node1 -->
<g id="edge1" class="edge">
<title>Node2&#45;&gt;Node1</title>
<path fill="none" stroke="#191970" d="M1356.0767,-57C1364.9935,-57 1374.0118,-57 1382.8266,-57"/>
<polygon fill="#191970" stroke="#191970" points="1356.0687,-53.5001 1346.0686,-57 1356.0686,-60.5001 1356.0687,-53.5001"/>
</g>
<!-- Node3 -->
<g id="node3" class="node">
<title>Node3</title>
<g id="a_node3"><a xlink:href="classCDPL_1_1Math_1_1VectorExpression.html" target="_top" xlink:title=" ">
<polygon fill="none" stroke="#000000" points="649.5,-62 649.5,-92 811.5,-92 811.5,-62 649.5,-62"/>
<text text-anchor="start" x="657.5" y="-80" font-family="Helvetica,sans-Serif" font-size="10.00" fill="#000000">CDPL::Math::VectorExpression</text>
<text text-anchor="middle" x="730.5" y="-69" font-family="Helvetica,sans-Serif" font-size="10.00" fill="#000000">&lt; UnitVector&lt; T &gt; &gt;</text>
</a>
</g>
</g>
<!-- Node3&#45;&gt;Node2 -->
<g id="edge2" class="edge">
<title>Node3&#45;&gt;Node2</title>
<path fill="none" stroke="#191970" d="M821.9853,-74.3741C911.2863,-71.6969 1051.0021,-67.206 1172,-62 1177.8358,-61.7489 1183.8704,-61.473 1189.9402,-61.1838"/>
<polygon fill="#191970" stroke="#191970" points="821.7802,-70.8785 811.8891,-74.6755 821.9891,-77.8754 821.7802,-70.8785"/>
</g>
<!-- Node4 -->
<g id="node4" class="node">
<title>Node4</title>
<g id="a_node4"><a xlink:href="classCDPL_1_1Math_1_1Expression.html" target="_top" xlink:title=" ">
<polygon fill="none" stroke="#000000" points="332,-81 332,-111 463,-111 463,-81 332,-81"/>
<text text-anchor="start" x="340" y="-99" font-family="Helvetica,sans-Serif" font-size="10.00" fill="#000000">CDPL::Math::Expression</text>
<text text-anchor="middle" x="397.5" y="-88" font-family="Helvetica,sans-Serif" font-size="10.00" fill="#000000">&lt; UnitVector&lt; T &gt; &gt;</text>
</a>
</g>
</g>
<!-- Node4&#45;&gt;Node3 -->
<g id="edge3" class="edge">
<title>Node4&#45;&gt;Node3</title>
<path fill="none" stroke="#191970" d="M473.5138,-91.9752C515.7729,-89.7047 569.3067,-86.7744 617,-84 627.4458,-83.3924 638.4312,-82.7363 649.285,-82.0779"/>
<polygon fill="#191970" stroke="#191970" points="473.0985,-88.4923 463.3003,-92.5229 473.4734,-95.4823 473.0985,-88.4923"/>
</g>
<!-- Node5 -->
<g id="node5" class="node">
<title>Node5</title>
<g id="a_node5"><a xlink:href="classCDPL_1_1Math_1_1Expression.html" target="_top" xlink:title=" ">
<polygon fill="none" stroke="#000000" points="0,-41.5 0,-60.5 160,-60.5 160,-41.5 0,-41.5"/>
<text text-anchor="middle" x="80" y="-48.5" font-family="Helvetica,sans-Serif" font-size="10.00" fill="#000000">CDPL::Math::Expression&lt; E &gt;</text>
</a>
</g>
</g>
<!-- Node5&#45;&gt;Node4 -->
<g id="edge4" class="edge">
<title>Node5&#45;&gt;Node4</title>
<path fill="none" stroke="#ffa500" stroke-dasharray="5,2" d="M156.3688,-61.9219C163.6795,-62.9638 170.981,-64.003 178,-65 229.63,-72.3337 288.0989,-80.5888 331.7026,-86.7353"/>
<polygon fill="#ffa500" stroke="#ffa500" points="156.8137,-58.45 146.4197,-60.5031 155.8254,-65.3799 156.8137,-58.45"/>
<text text-anchor="middle" x="231" y="-82" font-family="Helvetica,sans-Serif" font-size="10.00" fill="#000000"> &lt; UnitVector&lt; T &gt; &gt;</text>
</g>
<!-- Node6 -->
<g id="node6" class="node">
<title>Node6</title>
<g id="a_node6"><a xlink:href="classCDPL_1_1Math_1_1VectorExpression.html" target="_top" xlink:title=" ">
<polygon fill="none" stroke="#000000" points="302,-41.5 302,-60.5 493,-60.5 493,-41.5 302,-41.5"/>
<text text-anchor="middle" x="397.5" y="-48.5" font-family="Helvetica,sans-Serif" font-size="10.00" fill="#000000">CDPL::Math::VectorExpression&lt; E &gt;</text>
</a>
</g>
</g>
<!-- Node5&#45;&gt;Node6 -->
<g id="edge6" class="edge">
<title>Node5&#45;&gt;Node6</title>
<path fill="none" stroke="#191970" d="M170.1345,-51C211.2872,-51 260.0575,-51 301.8561,-51"/>
<polygon fill="#191970" stroke="#191970" points="170.1187,-47.5001 160.1187,-51 170.1186,-54.5001 170.1187,-47.5001"/>
</g>
<!-- Node9 -->
<g id="node9" class="node">
<title>Node9</title>
<g id="a_node9"><a xlink:href="classCDPL_1_1Math_1_1Expression.html" target="_top" xlink:title=" ">
<polygon fill="none" stroke="#000000" points="317,-.5 317,-19.5 478,-19.5 478,-.5 317,-.5"/>
<text text-anchor="middle" x="397.5" y="-7.5" font-family="Helvetica,sans-Serif" font-size="10.00" fill="#000000">CDPL::Math::Expression&lt; C &gt;</text>
</a>
</g>
</g>
<!-- Node5&#45;&gt;Node9 -->
<g id="edge10" class="edge">
<title>Node5&#45;&gt;Node9</title>
<path fill="none" stroke="#ffa500" stroke-dasharray="5,2" d="M150.1521,-39.967C159.5082,-38.5821 168.9818,-37.2239 178,-36 223.9157,-29.7685 275.3512,-23.631 316.8838,-18.8853"/>
<polygon fill="#ffa500" stroke="#ffa500" points="149.4449,-36.5338 140.0729,-41.4751 150.4807,-43.4567 149.4449,-36.5338"/>
<text text-anchor="middle" x="231" y="-39" font-family="Helvetica,sans-Serif" font-size="10.00" fill="#000000"> &lt; C &gt;</text>
</g>
<!-- Node6&#45;&gt;Node3 -->
<g id="edge5" class="edge">
<title>Node6&#45;&gt;Node3</title>
<path fill="none" stroke="#ffa500" stroke-dasharray="5,2" d="M503.6327,-59.2866C550.8339,-62.972 605.5215,-67.2419 649.3759,-70.666"/>
<polygon fill="#ffa500" stroke="#ffa500" points="503.6128,-55.7745 493.3706,-58.4854 503.0678,-62.7533 503.6128,-55.7745"/>
<text text-anchor="middle" x="564" y="-70" font-family="Helvetica,sans-Serif" font-size="10.00" fill="#000000"> &lt; UnitVector&lt; T &gt; &gt;</text>
</g>
<!-- Node8 -->
<g id="node8" class="node">
<title>Node8</title>
<g id="a_node8"><a xlink:href="classCDPL_1_1Math_1_1VectorExpression.html" target="_top" xlink:title=" ">
<polygon fill="none" stroke="#000000" points="635,-23.5 635,-42.5 826,-42.5 826,-23.5 635,-23.5"/>
<text text-anchor="middle" x="730.5" y="-30.5" font-family="Helvetica,sans-Serif" font-size="10.00" fill="#000000">CDPL::Math::VectorExpression&lt; C &gt;</text>
</a>
</g>
</g>
<!-- Node6&#45;&gt;Node8 -->
<g id="edge11" class="edge">
<title>Node6&#45;&gt;Node8</title>
<path fill="none" stroke="#ffa500" stroke-dasharray="5,2" d="M490.4034,-40.5825C497.3679,-39.9839 504.2917,-39.4456 511,-39 551.5105,-36.3089 596.3037,-34.8185 634.805,-33.9955"/>
<polygon fill="#ffa500" stroke="#ffa500" points="489.8382,-37.1191 480.1911,-41.4988 490.4639,-44.091 489.8382,-37.1191"/>
<text text-anchor="middle" x="564" y="-42" font-family="Helvetica,sans-Serif" font-size="10.00" fill="#000000"> &lt; C &gt;</text>
</g>
<!-- Node7 -->
<g id="node7" class="node">
<title>Node7</title>
<g id="a_node7"><a xlink:href="classCDPL_1_1Math_1_1VectorContainer.html" target="_top" xlink:title=" ">
<polygon fill="none" stroke="#000000" points="863,-27.5 863,-46.5 1048,-46.5 1048,-27.5 863,-27.5"/>
<text text-anchor="middle" x="955.5" y="-34.5" font-family="Helvetica,sans-Serif" font-size="10.00" fill="#000000">CDPL::Math::VectorContainer&lt; C &gt;</text>
</a>
</g>
</g>
<!-- Node7&#45;&gt;Node2 -->
<g id="edge7" class="edge">
<title>Node7&#45;&gt;Node2</title>
<path fill="none" stroke="#ffa500" stroke-dasharray="5,2" d="M1058.5811,-43.5972C1101.3705,-46.3357 1150.2,-49.4608 1189.9389,-52.0041"/>
<polygon fill="#ffa500" stroke="#ffa500" points="1058.6174,-40.0924 1048.4142,-42.9465 1058.1702,-47.0781 1058.6174,-40.0924"/>
<text text-anchor="middle" x="1119" y="-54" font-family="Helvetica,sans-Serif" font-size="10.00" fill="#000000"> &lt; UnitVector&lt; T &gt; &gt;</text>
</g>
<!-- Node8&#45;&gt;Node7 -->
<g id="edge8" class="edge">
<title>Node8&#45;&gt;Node7</title>
<path fill="none" stroke="#191970" d="M836.4891,-34.8843C845.2459,-35.0399 854.0554,-35.1965 862.7045,-35.3503"/>
<polygon fill="#191970" stroke="#191970" points="836.3072,-31.3806 826.2465,-34.7022 836.1827,-38.3795 836.3072,-31.3806"/>
</g>
<!-- Node9&#45;&gt;Node8 -->
<g id="edge9" class="edge">
<title>Node9&#45;&gt;Node8</title>
<path fill="none" stroke="#191970" d="M488.2584,-16.2686C533.7466,-19.4104 588.82,-23.2143 634.9536,-26.4007"/>
<polygon fill="#191970" stroke="#191970" points="488.3274,-12.7651 478.11,-15.5677 487.845,-19.7485 488.3274,-12.7651"/>
</g>
</g>
</svg>
