<?xml version="1.0" encoding="UTF-8" standalone="no"?>
<!DOCTYPE svg PUBLIC "-//W3C//DTD SVG 1.1//EN"
 "http://www.w3.org/Graphics/SVG/1.1/DTD/svg11.dtd">
<!-- Generated by graphviz version 2.40.1 (0)
 -->
<!-- Title: CDPL::Vis::View2D Pages: 1 -->
<svg width="326pt" height="151pt"
 viewBox="0.00 0.00 326.00 151.00" xmlns="http://www.w3.org/2000/svg" xmlns:xlink="http://www.w3.org/1999/xlink">
<g id="graph0" class="graph" transform="scale(1 1) rotate(0) translate(4 147)">
<title>CDPL::Vis::View2D</title>
<!-- Node1 -->
<g id="node1" class="node">
<title>Node1</title>
<g id="a_node1"><a xlink:title="The abstract base of classes implementing the 2D visualization of data objects.">
<polygon fill="#bfbfbf" stroke="#000000" points="105,-56.5 105,-75.5 212,-75.5 212,-56.5 105,-56.5"/>
<text text-anchor="middle" x="158.5" y="-63.5" font-family="Helvetica,sans-Serif" font-size="10.00" fill="#000000">CDPL::Vis::View2D</text>
</a>
</g>
</g>
<!-- Node3 -->
<g id="node3" class="node">
<title>Node3</title>
<g id="a_node3"><a xlink:href="classCDPL_1_1Vis_1_1ReactionView2D.html" target="_top" xlink:title="Implements the 2D visualization of chemical reactions.">
<polygon fill="none" stroke="#000000" points="0,-.5 0,-19.5 149,-19.5 149,-.5 0,-.5"/>
<text text-anchor="middle" x="74.5" y="-7.5" font-family="Helvetica,sans-Serif" font-size="10.00" fill="#000000">CDPL::Vis::ReactionView2D</text>
</a>
</g>
</g>
<!-- Node1&#45;&gt;Node3 -->
<g id="edge2" class="edge">
<title>Node1&#45;&gt;Node3</title>
<path fill="none" stroke="#191970" d="M135.2351,-50.49C120.4144,-40.6096 101.6791,-28.1194 88.964,-19.6427"/>
<polygon fill="#191970" stroke="#191970" points="133.6063,-53.6107 143.8683,-56.2455 137.4893,-47.7863 133.6063,-53.6107"/>
</g>
<!-- Node4 -->
<g id="node4" class="node">
<title>Node4</title>
<g id="a_node4"><a xlink:href="classCDPL_1_1Vis_1_1StructureView2D.html" target="_top" xlink:title="Implements the 2D visualization of chemical structures.">
<polygon fill="none" stroke="#000000" points="167,-.5 167,-19.5 318,-19.5 318,-.5 167,-.5"/>
<text text-anchor="middle" x="242.5" y="-7.5" font-family="Helvetica,sans-Serif" font-size="10.00" fill="#000000">CDPL::Vis::StructureView2D</text>
</a>
</g>
</g>
<!-- Node1&#45;&gt;Node4 -->
<g id="edge3" class="edge">
<title>Node1&#45;&gt;Node4</title>
<path fill="none" stroke="#191970" d="M181.7649,-50.49C196.5856,-40.6096 215.3209,-28.1194 228.036,-19.6427"/>
<polygon fill="#191970" stroke="#191970" points="179.5107,-47.7863 173.1317,-56.2455 183.3937,-53.6107 179.5107,-47.7863"/>
</g>
<!-- Node2 -->
<g id="node2" class="node">
<title>Node2</title>
<g id="a_node2"><a xlink:href="classCDPL_1_1Base_1_1ControlParameterContainer.html" target="_top" xlink:title="A class providing methods for the storage and lookup of control&#45;parameter values.">
<polygon fill="none" stroke="#000000" points="76.5,-112.5 76.5,-142.5 240.5,-142.5 240.5,-112.5 76.5,-112.5"/>
<text text-anchor="start" x="84.5" y="-130.5" font-family="Helvetica,sans-Serif" font-size="10.00" fill="#000000">CDPL::Base::ControlParameter</text>
<text text-anchor="middle" x="158.5" y="-119.5" font-family="Helvetica,sans-Serif" font-size="10.00" fill="#000000">Container</text>
</a>
</g>
</g>
<!-- Node2&#45;&gt;Node1 -->
<g id="edge1" class="edge">
<title>Node2&#45;&gt;Node1</title>
<path fill="none" stroke="#191970" d="M158.5,-102.2849C158.5,-92.9858 158.5,-82.9883 158.5,-75.8469"/>
<polygon fill="#191970" stroke="#191970" points="155.0001,-102.2977 158.5,-112.2977 162.0001,-102.2978 155.0001,-102.2977"/>
</g>
</g>
</svg>
