<?xml version="1.0" encoding="UTF-8" standalone="no"?>
<!DOCTYPE svg PUBLIC "-//W3C//DTD SVG 1.1//EN"
 "http://www.w3.org/Graphics/SVG/1.1/DTD/svg11.dtd">
<!-- Generated by graphviz version 2.40.1 (0)
 -->
<!-- Title: Biomol Pages: 1 -->
<svg width="133pt" height="295pt"
 viewBox="0.00 0.00 133.00 295.00" xmlns="http://www.w3.org/2000/svg" xmlns:xlink="http://www.w3.org/1999/xlink">
<g id="graph0" class="graph" transform="scale(1 1) rotate(0) translate(4 291)">
<title>Biomol</title>
<g id="clust1" class="cluster">
<title>clusterdir_828930cd332be6857ee3715b9ff57b37</title>
<g id="a_clust1"><a xlink:href="dir_828930cd332be6857ee3715b9ff57b37.html" target="_top" xlink:title="CDPL">
<polygon fill="#ddddee" stroke="#000000" points="47,-208 47,-279 117,-279 117,-208 47,-208"/>
<text text-anchor="middle" x="82" y="-267" font-family="Helvetica,sans-Serif" font-size="10.00" fill="#000000">CDPL</text>
</a>
</g>
</g>
<!-- dir_fee4d22e5b4d9dd45b24b076e872ab82 -->
<g id="node1" class="node">
<title>dir_fee4d22e5b4d9dd45b24b076e872ab82</title>
<g id="a_node1"><a xlink:href="dir_fee4d22e5b4d9dd45b24b076e872ab82.html" target="_top" xlink:title="Biomol">
<polygon fill="#eeeeff" stroke="#000000" points="109,-252 55,-252 55,-216 109,-216 109,-252"/>
<text text-anchor="middle" x="82" y="-231.5" font-family="Helvetica,sans-Serif" font-size="10.00" fill="#000000">Biomol</text>
</a>
</g>
</g>
<!-- dir_3d52340c553c069bdbb581ee4d36c54a -->
<g id="node2" class="node">
<title>dir_3d52340c553c069bdbb581ee4d36c54a</title>
<g id="a_node2"><a xlink:href="dir_3d52340c553c069bdbb581ee4d36c54a.html" target="_top" xlink:title="Chem">
<polygon fill="none" stroke="#000000" points="54,-180 0,-180 0,-144 54,-144 54,-180"/>
<text text-anchor="middle" x="27" y="-159.5" font-family="Helvetica,sans-Serif" font-size="10.00" fill="#000000">Chem</text>
</a>
</g>
</g>
<!-- dir_fee4d22e5b4d9dd45b24b076e872ab82&#45;&gt;dir_3d52340c553c069bdbb581ee4d36c54a -->
<g id="edge3" class="edge">
<title>dir_fee4d22e5b4d9dd45b24b076e872ab82&#45;&gt;dir_3d52340c553c069bdbb581ee4d36c54a</title>
<path fill="none" stroke="#000000" d="M68.1212,-215.8314C61.7864,-207.5386 54.1616,-197.557 47.2074,-188.4533"/>
<polygon fill="#000000" stroke="#000000" points="49.9175,-186.2353 41.0657,-180.4133 44.3548,-190.4847 49.9175,-186.2353"/>
<g id="a_edge3&#45;headlabel"><a xlink:href="dir_000006_000004.html" target="_top" xlink:title="5">
<text text-anchor="middle" x="54.3558" y="-184.8683" font-family="Helvetica,sans-Serif" font-size="10.00" fill="#000000">5</text>
</a>
</g>
</g>
<!-- dir_4d21d12b787921f0046ea3d09cd20874 -->
<g id="node3" class="node">
<title>dir_4d21d12b787921f0046ea3d09cd20874</title>
<g id="a_node3"><a xlink:href="dir_4d21d12b787921f0046ea3d09cd20874.html" target="_top" xlink:title="Base">
<polygon fill="none" stroke="#000000" points="100,-36 46,-36 46,0 100,0 100,-36"/>
<text text-anchor="middle" x="73" y="-15.5" font-family="Helvetica,sans-Serif" font-size="10.00" fill="#000000">Base</text>
</a>
</g>
</g>
<!-- dir_fee4d22e5b4d9dd45b24b076e872ab82&#45;&gt;dir_4d21d12b787921f0046ea3d09cd20874 -->
<g id="edge4" class="edge">
<title>dir_fee4d22e5b4d9dd45b24b076e872ab82&#45;&gt;dir_4d21d12b787921f0046ea3d09cd20874</title>
<path fill="none" stroke="#000000" d="M90.3994,-215.672C103.1515,-185.2772 124.3684,-122.7585 109,-72 106.0436,-62.2355 100.6748,-52.6229 94.97,-44.2762"/>
<polygon fill="#000000" stroke="#000000" points="97.7129,-42.0973 88.9905,-36.0831 92.0586,-46.2239 97.7129,-42.0973"/>
<g id="a_edge4&#45;headlabel"><a xlink:href="dir_000006_000005.html" target="_top" xlink:title="2">
<text text-anchor="middle" x="102.1253" y="-40.827" font-family="Helvetica,sans-Serif" font-size="10.00" fill="#000000">2</text>
</a>
</g>
</g>
<!-- dir_c2cbb7a64ef9eb474657933303858847 -->
<g id="node4" class="node">
<title>dir_c2cbb7a64ef9eb474657933303858847</title>
<g id="a_node4"><a xlink:href="dir_c2cbb7a64ef9eb474657933303858847.html" target="_top" xlink:title="Util">
<polygon fill="none" stroke="#000000" points="100,-108 46,-108 46,-72 100,-72 100,-108"/>
<text text-anchor="middle" x="73" y="-87.5" font-family="Helvetica,sans-Serif" font-size="10.00" fill="#000000">Util</text>
</a>
</g>
</g>
<!-- dir_fee4d22e5b4d9dd45b24b076e872ab82&#45;&gt;dir_c2cbb7a64ef9eb474657933303858847 -->
<g id="edge5" class="edge">
<title>dir_fee4d22e5b4d9dd45b24b076e872ab82&#45;&gt;dir_c2cbb7a64ef9eb474657933303858847</title>
<path fill="none" stroke="#000000" d="M80.8601,-215.7623C79.3251,-191.201 76.578,-147.2474 74.7721,-118.3541"/>
<polygon fill="#000000" stroke="#000000" points="78.2477,-117.8518 74.1306,-108.0896 71.2613,-118.2885 78.2477,-117.8518"/>
<g id="a_edge5&#45;headlabel"><a xlink:href="dir_000006_000014.html" target="_top" xlink:title="23">
<text text-anchor="middle" x="81.3055" y="-118.7623" font-family="Helvetica,sans-Serif" font-size="10.00" fill="#000000">23</text>
</a>
</g>
</g>
<!-- dir_3d52340c553c069bdbb581ee4d36c54a&#45;&gt;dir_4d21d12b787921f0046ea3d09cd20874 -->
<g id="edge1" class="edge">
<title>dir_3d52340c553c069bdbb581ee4d36c54a&#45;&gt;dir_4d21d12b787921f0046ea3d09cd20874</title>
<path fill="none" stroke="#000000" d="M26.5302,-143.842C26.6151,-125.248 28.3368,-95.7823 37,-72 40.4919,-62.414 46.0173,-52.8535 51.701,-44.4998"/>
<polygon fill="#000000" stroke="#000000" points="54.613,-46.445 57.6025,-36.2807 48.927,-42.3622 54.613,-46.445"/>
<g id="a_edge1&#45;headlabel"><a xlink:href="dir_000004_000005.html" target="_top" xlink:title="20">
<text text-anchor="middle" x="54.8228" y="-48.5209" font-family="Helvetica,sans-Serif" font-size="10.00" fill="#000000">20</text>
</a>
</g>
</g>
<!-- dir_3d52340c553c069bdbb581ee4d36c54a&#45;&gt;dir_c2cbb7a64ef9eb474657933303858847 -->
<g id="edge2" class="edge">
<title>dir_3d52340c553c069bdbb581ee4d36c54a&#45;&gt;dir_c2cbb7a64ef9eb474657933303858847</title>
<path fill="none" stroke="#000000" d="M38.6077,-143.8314C43.7978,-135.7079 50.0232,-125.9637 55.7425,-117.0118"/>
<polygon fill="#000000" stroke="#000000" points="58.8015,-118.7246 61.236,-108.4133 52.9026,-114.9559 58.8015,-118.7246"/>
<g id="a_edge2&#45;headlabel"><a xlink:href="dir_000004_000014.html" target="_top" xlink:title="178">
<text text-anchor="middle" x="59.2589" y="-120.7824" font-family="Helvetica,sans-Serif" font-size="10.00" fill="#000000">178</text>
</a>
</g>
</g>
<!-- dir_c2cbb7a64ef9eb474657933303858847&#45;&gt;dir_4d21d12b787921f0046ea3d09cd20874 -->
<g id="edge6" class="edge">
<title>dir_c2cbb7a64ef9eb474657933303858847&#45;&gt;dir_4d21d12b787921f0046ea3d09cd20874</title>
<path fill="none" stroke="#000000" d="M73,-71.8314C73,-64.131 73,-54.9743 73,-46.4166"/>
<polygon fill="#000000" stroke="#000000" points="76.5001,-46.4132 73,-36.4133 69.5001,-46.4133 76.5001,-46.4132"/>
<g id="a_edge6&#45;headlabel"><a xlink:href="dir_000014_000005.html" target="_top" xlink:title="25">
<text text-anchor="middle" x="79.3393" y="-47.5079" font-family="Helvetica,sans-Serif" font-size="10.00" fill="#000000">25</text>
</a>
</g>
</g>
</g>
</svg>
