<?xml version="1.0" encoding="UTF-8" standalone="no"?>
<!DOCTYPE svg PUBLIC "-//W3C//DTD SVG 1.1//EN"
 "http://www.w3.org/Graphics/SVG/1.1/DTD/svg11.dtd">
<!-- Generated by graphviz version 2.40.1 (0)
 -->
<!-- Title: GRAIL Pages: 1 -->
<svg width="313pt" height="367pt"
 viewBox="0.00 0.00 312.58 367.00" xmlns="http://www.w3.org/2000/svg" xmlns:xlink="http://www.w3.org/1999/xlink">
<g id="graph0" class="graph" transform="scale(1 1) rotate(0) translate(4 363)">
<title>GRAIL</title>
<g id="clust1" class="cluster">
<title>clusterdir_828930cd332be6857ee3715b9ff57b37</title>
<g id="a_clust1"><a xlink:href="dir_828930cd332be6857ee3715b9ff57b37.html" target="_top" xlink:title="CDPL">
<polygon fill="#ddddee" stroke="#000000" points="91.5787,-280 91.5787,-351 161.5787,-351 161.5787,-280 91.5787,-280"/>
<text text-anchor="middle" x="126.5787" y="-339" font-family="Helvetica,sans-Serif" font-size="10.00" fill="#000000">CDPL</text>
</a>
</g>
</g>
<!-- dir_564f5bcc11f04af22e006ad7f3d3cdd6 -->
<g id="node1" class="node">
<title>dir_564f5bcc11f04af22e006ad7f3d3cdd6</title>
<g id="a_node1"><a xlink:href="dir_564f5bcc11f04af22e006ad7f3d3cdd6.html" target="_top" xlink:title="GRAIL">
<polygon fill="#eeeeff" stroke="#000000" points="153.5787,-324 99.5787,-324 99.5787,-288 153.5787,-288 153.5787,-324"/>
<text text-anchor="middle" x="126.5787" y="-303.5" font-family="Helvetica,sans-Serif" font-size="10.00" fill="#000000">GRAIL</text>
</a>
</g>
</g>
<!-- dir_49ddf49165d39051215e3e9e5ff3808c -->
<g id="node2" class="node">
<title>dir_49ddf49165d39051215e3e9e5ff3808c</title>
<g id="a_node2"><a xlink:href="dir_49ddf49165d39051215e3e9e5ff3808c.html" target="_top" xlink:title="Grid">
<polygon fill="none" stroke="#000000" points="66.5787,-180 12.5787,-180 12.5787,-144 66.5787,-144 66.5787,-180"/>
<text text-anchor="middle" x="39.5787" y="-159.5" font-family="Helvetica,sans-Serif" font-size="10.00" fill="#000000">Grid</text>
</a>
</g>
</g>
<!-- dir_564f5bcc11f04af22e006ad7f3d3cdd6&#45;&gt;dir_49ddf49165d39051215e3e9e5ff3808c -->
<g id="edge1" class="edge">
<title>dir_564f5bcc11f04af22e006ad7f3d3cdd6&#45;&gt;dir_49ddf49165d39051215e3e9e5ff3808c</title>
<path fill="none" stroke="#000000" d="M108.5908,-287.5234C99.4676,-277.5358 88.6425,-264.6775 80.5787,-252 68.0607,-232.3195 57.2831,-208.1835 49.9236,-189.862"/>
<polygon fill="#000000" stroke="#000000" points="53.1029,-188.3821 46.1973,-180.3469 46.5849,-190.9347 53.1029,-188.3821"/>
<g id="a_edge1&#45;headlabel"><a xlink:href="dir_000010_000011.html" target="_top" xlink:title="4">
<text text-anchor="middle" x="57.0574" y="-188.1938" font-family="Helvetica,sans-Serif" font-size="10.00" fill="#000000">4</text>
</a>
</g>
</g>
<!-- dir_3d52340c553c069bdbb581ee4d36c54a -->
<g id="node3" class="node">
<title>dir_3d52340c553c069bdbb581ee4d36c54a</title>
<g id="a_node3"><a xlink:href="dir_3d52340c553c069bdbb581ee4d36c54a.html" target="_top" xlink:title="Chem">
<polygon fill="none" stroke="#000000" points="252.5787,-180 198.5787,-180 198.5787,-144 252.5787,-144 252.5787,-180"/>
<text text-anchor="middle" x="225.5787" y="-159.5" font-family="Helvetica,sans-Serif" font-size="10.00" fill="#000000">Chem</text>
</a>
</g>
</g>
<!-- dir_564f5bcc11f04af22e006ad7f3d3cdd6&#45;&gt;dir_3d52340c553c069bdbb581ee4d36c54a -->
<g id="edge2" class="edge">
<title>dir_564f5bcc11f04af22e006ad7f3d3cdd6&#45;&gt;dir_3d52340c553c069bdbb581ee4d36c54a</title>
<path fill="none" stroke="#000000" d="M153.7948,-290.6069C168.3256,-281.1498 185.4568,-267.8212 196.5787,-252 209.5027,-233.6153 216.8972,-209.1572 220.9804,-190.3783"/>
<polygon fill="#000000" stroke="#000000" points="224.4597,-190.8257 222.9704,-180.336 217.5932,-189.4649 224.4597,-190.8257"/>
<g id="a_edge2&#45;headlabel"><a xlink:href="dir_000010_000004.html" target="_top" xlink:title="5">
<text text-anchor="middle" x="226.5461" y="-192.4036" font-family="Helvetica,sans-Serif" font-size="10.00" fill="#000000">5</text>
</a>
</g>
</g>
<!-- dir_30706b7139b12234392acb7bfbc098c1 -->
<g id="node4" class="node">
<title>dir_30706b7139b12234392acb7bfbc098c1</title>
<g id="a_node4"><a xlink:href="dir_30706b7139b12234392acb7bfbc098c1.html" target="_top" xlink:title="MolProp">
<polygon fill="none" stroke="#000000" points="187.5787,-252 131.5787,-252 131.5787,-216 187.5787,-216 187.5787,-252"/>
<text text-anchor="middle" x="159.5787" y="-231.5" font-family="Helvetica,sans-Serif" font-size="10.00" fill="#000000">MolProp</text>
</a>
</g>
</g>
<!-- dir_564f5bcc11f04af22e006ad7f3d3cdd6&#45;&gt;dir_30706b7139b12234392acb7bfbc098c1 -->
<g id="edge3" class="edge">
<title>dir_564f5bcc11f04af22e006ad7f3d3cdd6&#45;&gt;dir_30706b7139b12234392acb7bfbc098c1</title>
<path fill="none" stroke="#000000" d="M134.906,-287.8314C138.5517,-279.8771 142.9096,-270.369 146.9414,-261.5723"/>
<polygon fill="#000000" stroke="#000000" points="150.1544,-262.9622 151.1393,-252.4133 143.791,-260.0456 150.1544,-262.9622"/>
<g id="a_edge3&#45;headlabel"><a xlink:href="dir_000010_000012.html" target="_top" xlink:title="1">
<text text-anchor="middle" x="151.2379" y="-264.9129" font-family="Helvetica,sans-Serif" font-size="10.00" fill="#000000">1</text>
</a>
</g>
</g>
<!-- dir_b926aec6628f7b9eecbe0d74bf6edb9a -->
<g id="node5" class="node">
<title>dir_b926aec6628f7b9eecbe0d74bf6edb9a</title>
<g id="a_node5"><a xlink:href="dir_b926aec6628f7b9eecbe0d74bf6edb9a.html" target="_top" xlink:title="Math">
<polygon fill="none" stroke="#000000" points="142.5787,-108 88.5787,-108 88.5787,-72 142.5787,-72 142.5787,-108"/>
<text text-anchor="middle" x="115.5787" y="-87.5" font-family="Helvetica,sans-Serif" font-size="10.00" fill="#000000">Math</text>
</a>
</g>
</g>
<!-- dir_564f5bcc11f04af22e006ad7f3d3cdd6&#45;&gt;dir_b926aec6628f7b9eecbe0d74bf6edb9a -->
<g id="edge4" class="edge">
<title>dir_564f5bcc11f04af22e006ad7f3d3cdd6&#45;&gt;dir_b926aec6628f7b9eecbe0d74bf6edb9a</title>
<path fill="none" stroke="#000000" d="M125.0682,-287.515C124.2518,-277.0907 123.272,-263.8246 122.5787,-252 119.8402,-205.2898 117.7069,-150.9443 116.5474,-118.5684"/>
<polygon fill="#000000" stroke="#000000" points="120.0418,-118.3443 116.192,-108.4737 113.0461,-118.5907 120.0418,-118.3443"/>
<g id="a_edge4&#45;headlabel"><a xlink:href="dir_000010_000001.html" target="_top" xlink:title="13">
<text text-anchor="middle" x="123.0057" y="-119.3369" font-family="Helvetica,sans-Serif" font-size="10.00" fill="#000000">13</text>
</a>
</g>
</g>
<!-- dir_df1f48fe64f83c9a5e5fa3ed000a7e3d -->
<g id="node6" class="node">
<title>dir_df1f48fe64f83c9a5e5fa3ed000a7e3d</title>
<g id="a_node6"><a xlink:href="dir_df1f48fe64f83c9a5e5fa3ed000a7e3d.html" target="_top" xlink:title="Pharm">
<polygon fill="none" stroke="#000000" points="304.5787,-252 250.5787,-252 250.5787,-216 304.5787,-216 304.5787,-252"/>
<text text-anchor="middle" x="277.5787" y="-231.5" font-family="Helvetica,sans-Serif" font-size="10.00" fill="#000000">Pharm</text>
</a>
</g>
</g>
<!-- dir_564f5bcc11f04af22e006ad7f3d3cdd6&#45;&gt;dir_df1f48fe64f83c9a5e5fa3ed000a7e3d -->
<g id="edge5" class="edge">
<title>dir_564f5bcc11f04af22e006ad7f3d3cdd6&#45;&gt;dir_df1f48fe64f83c9a5e5fa3ed000a7e3d</title>
<path fill="none" stroke="#000000" d="M153.9237,-292.9613C178.4037,-281.2888 214.4758,-264.0888 241.3494,-251.2749"/>
<polygon fill="#000000" stroke="#000000" points="242.9172,-254.4049 250.4372,-246.9417 239.9044,-248.0864 242.9172,-254.4049"/>
<g id="a_edge5&#45;headlabel"><a xlink:href="dir_000010_000013.html" target="_top" xlink:title="5">
<text text-anchor="middle" x="240.8946" y="-256.0148" font-family="Helvetica,sans-Serif" font-size="10.00" fill="#000000">5</text>
</a>
</g>
</g>
<!-- dir_c2cbb7a64ef9eb474657933303858847 -->
<g id="node7" class="node">
<title>dir_c2cbb7a64ef9eb474657933303858847</title>
<g id="a_node7"><a xlink:href="dir_c2cbb7a64ef9eb474657933303858847.html" target="_top" xlink:title="Util">
<polygon fill="none" stroke="#000000" points="169.5787,-36 115.5787,-36 115.5787,0 169.5787,0 169.5787,-36"/>
<text text-anchor="middle" x="142.5787" y="-15.5" font-family="Helvetica,sans-Serif" font-size="10.00" fill="#000000">Util</text>
</a>
</g>
</g>
<!-- dir_564f5bcc11f04af22e006ad7f3d3cdd6&#45;&gt;dir_c2cbb7a64ef9eb474657933303858847 -->
<g id="edge6" class="edge">
<title>dir_564f5bcc11f04af22e006ad7f3d3cdd6&#45;&gt;dir_c2cbb7a64ef9eb474657933303858847</title>
<path fill="none" stroke="#000000" d="M99.4858,-290.3049C57.4581,-263.6964 -16.6297,-206.4964 3.5787,-144 15.7234,-106.4416 26.7076,-98.918 55.5787,-72 70.6088,-57.9868 89.8037,-45.6187 106.3378,-36.2672"/>
<polygon fill="#000000" stroke="#000000" points="108.1299,-39.276 115.2064,-31.3909 104.7573,-33.1421 108.1299,-39.276"/>
<g id="a_edge6&#45;headlabel"><a xlink:href="dir_000010_000014.html" target="_top" xlink:title="1">
<text text-anchor="middle" x="106.348" y="-40.9959" font-family="Helvetica,sans-Serif" font-size="10.00" fill="#000000">1</text>
</a>
</g>
</g>
<!-- dir_49ddf49165d39051215e3e9e5ff3808c&#45;&gt;dir_b926aec6628f7b9eecbe0d74bf6edb9a -->
<g id="edge7" class="edge">
<title>dir_49ddf49165d39051215e3e9e5ff3808c&#45;&gt;dir_b926aec6628f7b9eecbe0d74bf6edb9a</title>
<path fill="none" stroke="#000000" d="M58.7567,-143.8314C67.9376,-135.1337 79.0794,-124.5783 89.0563,-115.1265"/>
<polygon fill="#000000" stroke="#000000" points="91.5544,-117.5811 96.4069,-108.1628 86.7402,-112.4995 91.5544,-117.5811"/>
<g id="a_edge7&#45;headlabel"><a xlink:href="dir_000011_000001.html" target="_top" xlink:title="2">
<text text-anchor="middle" x="90.8976" y="-119.6145" font-family="Helvetica,sans-Serif" font-size="10.00" fill="#000000">2</text>
</a>
</g>
</g>
<!-- dir_49ddf49165d39051215e3e9e5ff3808c&#45;&gt;dir_c2cbb7a64ef9eb474657933303858847 -->
<g id="edge8" class="edge">
<title>dir_49ddf49165d39051215e3e9e5ff3808c&#45;&gt;dir_c2cbb7a64ef9eb474657933303858847</title>
<path fill="none" stroke="#000000" d="M44.9885,-143.8466C51.2659,-124.727 62.93,-94.3518 79.5787,-72 87.6589,-61.152 98.2873,-50.997 108.5076,-42.486"/>
<polygon fill="#000000" stroke="#000000" points="110.9466,-45.0166 116.5601,-36.031 106.5684,-39.5548 110.9466,-45.0166"/>
<g id="a_edge8&#45;headlabel"><a xlink:href="dir_000011_000014.html" target="_top" xlink:title="27">
<text text-anchor="middle" x="109.9178" y="-46.9802" font-family="Helvetica,sans-Serif" font-size="10.00" fill="#000000">27</text>
</a>
</g>
</g>
<!-- dir_3d52340c553c069bdbb581ee4d36c54a&#45;&gt;dir_b926aec6628f7b9eecbe0d74bf6edb9a -->
<g id="edge9" class="edge">
<title>dir_3d52340c553c069bdbb581ee4d36c54a&#45;&gt;dir_b926aec6628f7b9eecbe0d74bf6edb9a</title>
<path fill="none" stroke="#000000" d="M198.3877,-144.2022C184.2409,-134.9425 166.7631,-123.5025 151.5158,-113.5224"/>
<polygon fill="#000000" stroke="#000000" points="153.122,-110.3907 142.8382,-107.8425 149.2884,-116.2476 153.122,-110.3907"/>
<g id="a_edge9&#45;headlabel"><a xlink:href="dir_000004_000001.html" target="_top" xlink:title="32">
<text text-anchor="middle" x="157.6846" y="-107.4837" font-family="Helvetica,sans-Serif" font-size="10.00" fill="#000000">32</text>
</a>
</g>
</g>
<!-- dir_3d52340c553c069bdbb581ee4d36c54a&#45;&gt;dir_c2cbb7a64ef9eb474657933303858847 -->
<g id="edge10" class="edge">
<title>dir_3d52340c553c069bdbb581ee4d36c54a&#45;&gt;dir_c2cbb7a64ef9eb474657933303858847</title>
<path fill="none" stroke="#000000" d="M218.7441,-143.7871C211.4183,-125.1494 198.892,-95.6495 184.5787,-72 178.8,-62.452 171.6047,-52.6377 164.8114,-44.0391"/>
<polygon fill="#000000" stroke="#000000" points="167.492,-41.7878 158.4806,-36.2159 162.0505,-46.1912 167.492,-41.7878"/>
<g id="a_edge10&#45;headlabel"><a xlink:href="dir_000004_000014.html" target="_top" xlink:title="178">
<text text-anchor="middle" x="171.9603" y="-40.296" font-family="Helvetica,sans-Serif" font-size="10.00" fill="#000000">178</text>
</a>
</g>
</g>
<!-- dir_30706b7139b12234392acb7bfbc098c1&#45;&gt;dir_3d52340c553c069bdbb581ee4d36c54a -->
<g id="edge11" class="edge">
<title>dir_30706b7139b12234392acb7bfbc098c1&#45;&gt;dir_3d52340c553c069bdbb581ee4d36c54a</title>
<path fill="none" stroke="#000000" d="M176.2333,-215.8314C183.9901,-207.3694 193.3589,-197.1489 201.8397,-187.8971"/>
<polygon fill="#000000" stroke="#000000" points="204.5227,-190.1499 208.6999,-180.4133 199.3626,-185.4198 204.5227,-190.1499"/>
<g id="a_edge11&#45;headlabel"><a xlink:href="dir_000012_000004.html" target="_top" xlink:title="11">
<text text-anchor="middle" x="204.1867" y="-192.2182" font-family="Helvetica,sans-Serif" font-size="10.00" fill="#000000">11</text>
</a>
</g>
</g>
<!-- dir_30706b7139b12234392acb7bfbc098c1&#45;&gt;dir_b926aec6628f7b9eecbe0d74bf6edb9a -->
<g id="edge12" class="edge">
<title>dir_30706b7139b12234392acb7bfbc098c1&#45;&gt;dir_b926aec6628f7b9eecbe0d74bf6edb9a</title>
<path fill="none" stroke="#000000" d="M154.0061,-215.7623C146.4682,-191.0928 132.9526,-146.8598 124.1261,-117.9731"/>
<polygon fill="#000000" stroke="#000000" points="127.3756,-116.6303 121.1061,-108.0896 120.6811,-118.6759 127.3756,-116.6303"/>
<g id="a_edge12&#45;headlabel"><a xlink:href="dir_000012_000001.html" target="_top" xlink:title="4">
<text text-anchor="middle" x="131.1413" y="-116.7384" font-family="Helvetica,sans-Serif" font-size="10.00" fill="#000000">4</text>
</a>
</g>
</g>
<!-- dir_30706b7139b12234392acb7bfbc098c1&#45;&gt;dir_c2cbb7a64ef9eb474657933303858847 -->
<g id="edge13" class="edge">
<title>dir_30706b7139b12234392acb7bfbc098c1&#45;&gt;dir_c2cbb7a64ef9eb474657933303858847</title>
<path fill="none" stroke="#000000" d="M159.3689,-215.9674C158.8679,-185.9974 157.1851,-124.0753 151.5787,-72 150.6774,-63.6281 149.3221,-54.5835 147.9349,-46.3344"/>
<polygon fill="#000000" stroke="#000000" points="151.3709,-45.6646 146.1925,-36.4215 144.4766,-46.8765 151.3709,-45.6646"/>
<g id="a_edge13&#45;headlabel"><a xlink:href="dir_000012_000014.html" target="_top" xlink:title="6">
<text text-anchor="middle" x="154.7895" y="-46.2135" font-family="Helvetica,sans-Serif" font-size="10.00" fill="#000000">6</text>
</a>
</g>
</g>
<!-- dir_b926aec6628f7b9eecbe0d74bf6edb9a&#45;&gt;dir_c2cbb7a64ef9eb474657933303858847 -->
<g id="edge14" class="edge">
<title>dir_b926aec6628f7b9eecbe0d74bf6edb9a&#45;&gt;dir_c2cbb7a64ef9eb474657933303858847</title>
<path fill="none" stroke="#000000" d="M122.392,-71.8314C125.3431,-63.9617 128.8646,-54.5712 132.1338,-45.8533"/>
<polygon fill="#000000" stroke="#000000" points="135.4396,-47.0055 135.6738,-36.4133 128.8853,-44.5476 135.4396,-47.0055"/>
<g id="a_edge14&#45;headlabel"><a xlink:href="dir_000001_000014.html" target="_top" xlink:title="2">
<text text-anchor="middle" x="136.836" y="-48.8682" font-family="Helvetica,sans-Serif" font-size="10.00" fill="#000000">2</text>
</a>
</g>
</g>
<!-- dir_df1f48fe64f83c9a5e5fa3ed000a7e3d&#45;&gt;dir_3d52340c553c069bdbb581ee4d36c54a -->
<g id="edge15" class="edge">
<title>dir_df1f48fe64f83c9a5e5fa3ed000a7e3d&#45;&gt;dir_3d52340c553c069bdbb581ee4d36c54a</title>
<path fill="none" stroke="#000000" d="M264.4569,-215.8314C258.5288,-207.6232 251.4058,-197.7606 244.8854,-188.7323"/>
<polygon fill="#000000" stroke="#000000" points="247.5695,-186.4708 238.8772,-180.4133 241.8948,-190.5693 247.5695,-186.4708"/>
<g id="a_edge15&#45;headlabel"><a xlink:href="dir_000013_000004.html" target="_top" xlink:title="15">
<text text-anchor="middle" x="251.9758" y="-185.2226" font-family="Helvetica,sans-Serif" font-size="10.00" fill="#000000">15</text>
</a>
</g>
</g>
<!-- dir_df1f48fe64f83c9a5e5fa3ed000a7e3d&#45;&gt;dir_b926aec6628f7b9eecbe0d74bf6edb9a -->
<g id="edge16" class="edge">
<title>dir_df1f48fe64f83c9a5e5fa3ed000a7e3d&#45;&gt;dir_b926aec6628f7b9eecbe0d74bf6edb9a</title>
<path fill="none" stroke="#000000" d="M279.3012,-215.945C280.1859,-196.0546 278.4742,-164.2128 261.5787,-144 234.5619,-111.6785 186.317,-98.6972 152.7113,-93.487"/>
<polygon fill="#000000" stroke="#000000" points="153.1786,-90.0184 142.7916,-92.1067 152.2138,-96.9516 153.1786,-90.0184"/>
<g id="a_edge16&#45;headlabel"><a xlink:href="dir_000013_000001.html" target="_top" xlink:title="15">
<text text-anchor="middle" x="157.1301" y="-85.2015" font-family="Helvetica,sans-Serif" font-size="10.00" fill="#000000">15</text>
</a>
</g>
</g>
<!-- dir_df1f48fe64f83c9a5e5fa3ed000a7e3d&#45;&gt;dir_c2cbb7a64ef9eb474657933303858847 -->
<g id="edge17" class="edge">
<title>dir_df1f48fe64f83c9a5e5fa3ed000a7e3d&#45;&gt;dir_c2cbb7a64ef9eb474657933303858847</title>
<path fill="none" stroke="#000000" d="M283.1266,-215.9411C287.8762,-197.1674 292.5188,-167.3216 282.5787,-144 262.0998,-95.952 212.6751,-58.8107 178.3972,-37.6707"/>
<polygon fill="#000000" stroke="#000000" points="179.9772,-34.537 169.6021,-32.3903 176.3741,-40.5384 179.9772,-34.537"/>
<g id="a_edge17&#45;headlabel"><a xlink:href="dir_000013_000014.html" target="_top" xlink:title="26">
<text text-anchor="middle" x="184.5205" y="-31.4529" font-family="Helvetica,sans-Serif" font-size="10.00" fill="#000000">26</text>
</a>
</g>
</g>
</g>
</svg>
