<?xml version="1.0" encoding="UTF-8" standalone="no"?>
<!DOCTYPE svg PUBLIC "-//W3C//DTD SVG 1.1//EN"
 "http://www.w3.org/Graphics/SVG/1.1/DTD/svg11.dtd">
<!-- Generated by graphviz version 2.40.1 (0)
 -->
<!-- Title: Math Pages: 1 -->
<svg width="105pt" height="223pt"
 viewBox="0.00 0.00 105.00 223.00" xmlns="http://www.w3.org/2000/svg" xmlns:xlink="http://www.w3.org/1999/xlink">
<g id="graph0" class="graph" transform="scale(1 1) rotate(0) translate(4 219)">
<title>Math</title>
<g id="clust1" class="cluster">
<title>clusterdir_828930cd332be6857ee3715b9ff57b37</title>
<g id="a_clust1"><a xlink:href="dir_828930cd332be6857ee3715b9ff57b37.html" target="_top" xlink:title="CDPL">
<polygon fill="#ddddee" stroke="#000000" points="8,-136 8,-207 78,-207 78,-136 8,-136"/>
<text text-anchor="middle" x="43" y="-195" font-family="Helvetica,sans-Serif" font-size="10.00" fill="#000000">CDPL</text>
</a>
</g>
</g>
<!-- dir_b926aec6628f7b9eecbe0d74bf6edb9a -->
<g id="node1" class="node">
<title>dir_b926aec6628f7b9eecbe0d74bf6edb9a</title>
<g id="a_node1"><a xlink:href="dir_b926aec6628f7b9eecbe0d74bf6edb9a.html" target="_top" xlink:title="Math">
<polygon fill="#eeeeff" stroke="#000000" points="70,-180 16,-180 16,-144 70,-144 70,-180"/>
<text text-anchor="middle" x="43" y="-159.5" font-family="Helvetica,sans-Serif" font-size="10.00" fill="#000000">Math</text>
</a>
</g>
</g>
<!-- dir_4d21d12b787921f0046ea3d09cd20874 -->
<g id="node2" class="node">
<title>dir_4d21d12b787921f0046ea3d09cd20874</title>
<g id="a_node2"><a xlink:href="dir_4d21d12b787921f0046ea3d09cd20874.html" target="_top" xlink:title="Base">
<polygon fill="none" stroke="#000000" points="69,-36 15,-36 15,0 69,0 69,-36"/>
<text text-anchor="middle" x="42" y="-15.5" font-family="Helvetica,sans-Serif" font-size="10.00" fill="#000000">Base</text>
</a>
</g>
</g>
<!-- dir_b926aec6628f7b9eecbe0d74bf6edb9a&#45;&gt;dir_4d21d12b787921f0046ea3d09cd20874 -->
<g id="edge1" class="edge">
<title>dir_b926aec6628f7b9eecbe0d74bf6edb9a&#45;&gt;dir_4d21d12b787921f0046ea3d09cd20874</title>
<path fill="none" stroke="#000000" d="M39.1587,-143.6001C37.1834,-133.2025 34.9877,-119.9346 34,-108 32.6803,-92.0545 32.8244,-87.9568 34,-72 34.6169,-63.6264 35.7649,-54.5812 37.0026,-46.3322"/>
<polygon fill="#000000" stroke="#000000" points="40.4648,-46.8463 38.585,-36.4196 33.5523,-45.7428 40.4648,-46.8463"/>
<g id="a_edge1&#45;headlabel"><a xlink:href="dir_000001_000005.html" target="_top" xlink:title="19">
<text text-anchor="middle" x="42.702" y="-48.3436" font-family="Helvetica,sans-Serif" font-size="10.00" fill="#000000">19</text>
</a>
</g>
</g>
<!-- dir_c2cbb7a64ef9eb474657933303858847 -->
<g id="node3" class="node">
<title>dir_c2cbb7a64ef9eb474657933303858847</title>
<g id="a_node3"><a xlink:href="dir_c2cbb7a64ef9eb474657933303858847.html" target="_top" xlink:title="Util">
<polygon fill="none" stroke="#000000" points="97,-108 43,-108 43,-72 97,-72 97,-108"/>
<text text-anchor="middle" x="70" y="-87.5" font-family="Helvetica,sans-Serif" font-size="10.00" fill="#000000">Util</text>
</a>
</g>
</g>
<!-- dir_b926aec6628f7b9eecbe0d74bf6edb9a&#45;&gt;dir_c2cbb7a64ef9eb474657933303858847 -->
<g id="edge2" class="edge">
<title>dir_b926aec6628f7b9eecbe0d74bf6edb9a&#45;&gt;dir_c2cbb7a64ef9eb474657933303858847</title>
<path fill="none" stroke="#000000" d="M49.8132,-143.8314C52.7644,-135.9617 56.2858,-126.5712 59.555,-117.8533"/>
<polygon fill="#000000" stroke="#000000" points="62.8609,-119.0055 63.095,-108.4133 56.3066,-116.5476 62.8609,-119.0055"/>
<g id="a_edge2&#45;headlabel"><a xlink:href="dir_000001_000014.html" target="_top" xlink:title="2">
<text text-anchor="middle" x="64.2573" y="-120.8682" font-family="Helvetica,sans-Serif" font-size="10.00" fill="#000000">2</text>
</a>
</g>
</g>
<!-- dir_c2cbb7a64ef9eb474657933303858847&#45;&gt;dir_4d21d12b787921f0046ea3d09cd20874 -->
<g id="edge3" class="edge">
<title>dir_c2cbb7a64ef9eb474657933303858847&#45;&gt;dir_4d21d12b787921f0046ea3d09cd20874</title>
<path fill="none" stroke="#000000" d="M62.9344,-71.8314C59.874,-63.9617 56.2221,-54.5712 52.8318,-45.8533"/>
<polygon fill="#000000" stroke="#000000" points="56.0473,-44.4647 49.1607,-36.4133 49.5232,-47.0019 56.0473,-44.4647"/>
<g id="a_edge3&#45;headlabel"><a xlink:href="dir_000014_000005.html" target="_top" xlink:title="25">
<text text-anchor="middle" x="59.9963" y="-44.2859" font-family="Helvetica,sans-Serif" font-size="10.00" fill="#000000">25</text>
</a>
</g>
</g>
</g>
</svg>
