<?xml version="1.0" encoding="UTF-8" standalone="no"?>
<!DOCTYPE svg PUBLIC "-//W3C//DTD SVG 1.1//EN"
 "http://www.w3.org/Graphics/SVG/1.1/DTD/svg11.dtd">
<!-- Generated by graphviz version 2.40.1 (0)
 -->
<!-- Title: Graphical Class Hierarchy Pages: 1 -->
<svg width="833pt" height="258pt"
 viewBox="0.00 0.00 833.00 257.50" xmlns="http://www.w3.org/2000/svg" xmlns:xlink="http://www.w3.org/1999/xlink">
<g id="graph0" class="graph" transform="scale(1 1) rotate(0) translate(4 253.5)">
<title>Graphical Class Hierarchy</title>
<!-- Node831 -->
<g id="node1" class="node">
<title>Node831</title>
<g id="a_node1"><a xlink:title="STL class.">
<polygon fill="none" stroke="#bfbfbf" points="0,-154 0,-173 86,-173 86,-154 0,-154"/>
<text text-anchor="middle" x="43" y="-161" font-family="Helvetica,sans-Serif" font-size="10.00" fill="#000000">std::exception</text>
</a>
</g>
</g>
<!-- Node0 -->
<g id="node2" class="node">
<title>Node0</title>
<g id="a_node2"><a xlink:href="classCDPL_1_1Base_1_1Exception.html" target="_top" xlink:title="The root of the CDPL exception hierarchy.">
<polygon fill="none" stroke="#000000" points="122,-154 122,-173 248,-173 248,-154 122,-154"/>
<text text-anchor="middle" x="185" y="-161" font-family="Helvetica,sans-Serif" font-size="10.00" fill="#000000">CDPL::Base::Exception</text>
</a>
</g>
</g>
<!-- Node831&#45;&gt;Node0 -->
<g id="edge1" class="edge">
<title>Node831&#45;&gt;Node0</title>
<path fill="none" stroke="#191970" d="M96.5779,-163.5C104.8007,-163.5 113.3557,-163.5 121.7637,-163.5"/>
<polygon fill="#191970" stroke="#191970" points="96.3763,-160.0001 86.3763,-163.5 96.3762,-167.0001 96.3763,-160.0001"/>
</g>
<!-- Node1 -->
<g id="node3" class="node">
<title>Node1</title>
<g id="a_node3"><a xlink:href="classCDPL_1_1Base_1_1BadCast.html" target="_top" xlink:title="Thrown to indicate that a cast or conversion from a given source type to a requested target type is n...">
<polygon fill="none" stroke="#000000" points="302,-230 302,-249 421,-249 421,-230 302,-230"/>
<text text-anchor="middle" x="361.5" y="-237" font-family="Helvetica,sans-Serif" font-size="10.00" fill="#000000">CDPL::Base::BadCast</text>
</a>
</g>
</g>
<!-- Node0&#45;&gt;Node1 -->
<g id="edge2" class="edge">
<title>Node0&#45;&gt;Node1</title>
<path fill="none" stroke="#191970" d="M207.2452,-178.7563C226.7265,-191.507 256.1909,-209.3472 284,-220.5 293.2576,-224.2128 303.4382,-227.34 313.2903,-229.9175"/>
<polygon fill="#191970" stroke="#191970" points="209.051,-175.754 198.7867,-173.1281 205.1732,-181.5817 209.051,-175.754"/>
</g>
<!-- Node2 -->
<g id="node4" class="node">
<title>Node2</title>
<g id="a_node4"><a xlink:href="classCDPL_1_1Base_1_1ItemNotFound.html" target="_top" xlink:title="Thrown to indicate that some requested data item could not be found.">
<polygon fill="none" stroke="#000000" points="288,-192 288,-211 435,-211 435,-192 288,-192"/>
<text text-anchor="middle" x="361.5" y="-199" font-family="Helvetica,sans-Serif" font-size="10.00" fill="#000000">CDPL::Base::ItemNotFound</text>
</a>
</g>
</g>
<!-- Node0&#45;&gt;Node2 -->
<g id="edge3" class="edge">
<title>Node0&#45;&gt;Node2</title>
<path fill="none" stroke="#191970" d="M239.5876,-175.2526C264.5447,-180.6258 293.7268,-186.9086 317.2819,-191.9799"/>
<polygon fill="#191970" stroke="#191970" points="240.0511,-171.7722 229.5384,-173.089 238.5777,-178.6154 240.0511,-171.7722"/>
</g>
<!-- Node3 -->
<g id="node5" class="node">
<title>Node3</title>
<g id="a_node5"><a xlink:href="classCDPL_1_1Base_1_1OperationFailed.html" target="_top" xlink:title="Thrown to indicate that some requested operation has failed (e.g. due to unfulfilled preconditions or...">
<polygon fill="none" stroke="#000000" points="284,-154 284,-173 439,-173 439,-154 284,-154"/>
<text text-anchor="middle" x="361.5" y="-161" font-family="Helvetica,sans-Serif" font-size="10.00" fill="#000000">CDPL::Base::OperationFailed</text>
</a>
</g>
</g>
<!-- Node0&#45;&gt;Node3 -->
<g id="edge4" class="edge">
<title>Node0&#45;&gt;Node3</title>
<path fill="none" stroke="#191970" d="M258.3935,-163.5C266.8257,-163.5 275.4442,-163.5 283.929,-163.5"/>
<polygon fill="#191970" stroke="#191970" points="258.2221,-160.0001 248.222,-163.5 258.222,-167.0001 258.2221,-160.0001"/>
</g>
<!-- Node6 -->
<g id="node8" class="node">
<title>Node6</title>
<g id="a_node8"><a xlink:href="classCDPL_1_1Base_1_1ValueError.html" target="_top" xlink:title="Thrown to indicate errors caused by some invalid value.">
<polygon fill="none" stroke="#000000" points="297.5,-97 297.5,-116 425.5,-116 425.5,-97 297.5,-97"/>
<text text-anchor="middle" x="361.5" y="-104" font-family="Helvetica,sans-Serif" font-size="10.00" fill="#000000">CDPL::Base::ValueError</text>
</a>
</g>
</g>
<!-- Node0&#45;&gt;Node6 -->
<g id="edge7" class="edge">
<title>Node0&#45;&gt;Node6</title>
<path fill="none" stroke="#191970" d="M224.1885,-150.8442C256.724,-140.337 302.3002,-125.6184 331.8615,-116.0716"/>
<polygon fill="#191970" stroke="#191970" points="222.9826,-147.5556 214.5421,-153.9595 225.1338,-154.2169 222.9826,-147.5556"/>
</g>
<!-- Node11 -->
<g id="node13" class="node">
<title>Node11</title>
<g id="a_node13"><a xlink:href="classCDPL_1_1ForceField_1_1Error.html" target="_top" xlink:title=" ">
<polygon fill="none" stroke="#000000" points="298.5,-37 298.5,-56 424.5,-56 424.5,-37 298.5,-37"/>
<text text-anchor="middle" x="361.5" y="-44" font-family="Helvetica,sans-Serif" font-size="10.00" fill="#000000">CDPL::ForceField::Error</text>
</a>
</g>
</g>
<!-- Node0&#45;&gt;Node11 -->
<g id="edge12" class="edge">
<title>Node0&#45;&gt;Node11</title>
<path fill="none" stroke="#191970" d="M203.9135,-147.4388C223.3363,-131.3212 254.7733,-106.2606 284,-87.5 302.7022,-75.495 325.2796,-63.8477 341.229,-56.0548"/>
<polygon fill="#191970" stroke="#191970" points="201.5478,-144.8546 196.1262,-153.9572 206.0409,-150.2224 201.5478,-144.8546"/>
</g>
<!-- Node4 -->
<g id="node6" class="node">
<title>Node4</title>
<g id="a_node6"><a xlink:href="classCDPL_1_1Base_1_1CalculationFailed.html" target="_top" xlink:title="Thrown to indicate that some requested calculation has failed.">
<polygon fill="none" stroke="#000000" points="487.5,-202 487.5,-221 648.5,-221 648.5,-202 487.5,-202"/>
<text text-anchor="middle" x="568" y="-209" font-family="Helvetica,sans-Serif" font-size="10.00" fill="#000000">CDPL::Base::CalculationFailed</text>
</a>
</g>
</g>
<!-- Node3&#45;&gt;Node4 -->
<g id="edge5" class="edge">
<title>Node3&#45;&gt;Node4</title>
<path fill="none" stroke="#191970" d="M411.2406,-175.4561C420.4812,-177.7449 430.0431,-180.1586 439,-182.5 455.066,-186.6997 458.8554,-188.6135 475,-192.5 488.9388,-195.8555 504.1445,-199.1247 518.1462,-201.9787"/>
<polygon fill="#191970" stroke="#191970" points="411.9302,-172.0215 401.3835,-173.031 410.2578,-178.8188 411.9302,-172.0215"/>
</g>
<!-- Node5 -->
<g id="node7" class="node">
<title>Node5</title>
<g id="a_node7"><a xlink:href="classCDPL_1_1Base_1_1IOError.html" target="_top" xlink:title="Thrown to indicate that an I/O operation has failed because of physical (e.g. broken pipe) or logical...">
<polygon fill="none" stroke="#000000" points="512,-164 512,-183 624,-183 624,-164 512,-164"/>
<text text-anchor="middle" x="568" y="-171" font-family="Helvetica,sans-Serif" font-size="10.00" fill="#000000">CDPL::Base::IOError</text>
</a>
</g>
</g>
<!-- Node3&#45;&gt;Node5 -->
<g id="edge6" class="edge">
<title>Node3&#45;&gt;Node5</title>
<path fill="none" stroke="#191970" d="M449.2653,-167.7501C470.4653,-168.7768 492.5565,-169.8466 511.8537,-170.7811"/>
<polygon fill="#191970" stroke="#191970" points="449.4322,-164.2542 439.2745,-167.2663 449.0935,-171.246 449.4322,-164.2542"/>
</g>
<!-- Node7 -->
<g id="node9" class="node">
<title>Node7</title>
<g id="a_node9"><a xlink:href="classCDPL_1_1Base_1_1NullPointerException.html" target="_top" xlink:title="Thrown when an operation requires or expects a valid pointer but a null pointer was provided.">
<polygon fill="none" stroke="#000000" points="478,-126 478,-145 658,-145 658,-126 478,-126"/>
<text text-anchor="middle" x="568" y="-133" font-family="Helvetica,sans-Serif" font-size="10.00" fill="#000000">CDPL::Base::NullPointerException</text>
</a>
</g>
</g>
<!-- Node6&#45;&gt;Node7 -->
<g id="edge8" class="edge">
<title>Node6&#45;&gt;Node7</title>
<path fill="none" stroke="#191970" d="M435.8692,-116.9441C456.8909,-119.8963 479.6497,-123.0924 500.2591,-125.9867"/>
<polygon fill="#191970" stroke="#191970" points="436.0955,-113.4416 425.7059,-115.5168 435.122,-120.3736 436.0955,-113.4416"/>
</g>
<!-- Node8 -->
<g id="node10" class="node">
<title>Node8</title>
<g id="a_node10"><a xlink:href="classCDPL_1_1Base_1_1RangeError.html" target="_top" xlink:title="Thrown to indicate that a value is out of range.">
<polygon fill="none" stroke="#000000" points="502,-88 502,-107 634,-107 634,-88 502,-88"/>
<text text-anchor="middle" x="568" y="-95" font-family="Helvetica,sans-Serif" font-size="10.00" fill="#000000">CDPL::Base::RangeError</text>
</a>
</g>
</g>
<!-- Node6&#45;&gt;Node8 -->
<g id="edge9" class="edge">
<title>Node6&#45;&gt;Node8</title>
<path fill="none" stroke="#191970" d="M435.7832,-103.2625C457.318,-102.3239 480.682,-101.3056 501.6945,-100.3898"/>
<polygon fill="#191970" stroke="#191970" points="435.544,-99.7695 425.7059,-103.7017 435.8489,-106.7628 435.544,-99.7695"/>
</g>
<!-- Node10 -->
<g id="node12" class="node">
<title>Node10</title>
<g id="a_node12"><a xlink:href="classCDPL_1_1Base_1_1SizeError.html" target="_top" xlink:title="Thrown to indicate that the size of a (multidimensional) array is not correct.">
<polygon fill="none" stroke="#000000" points="507,-50 507,-69 629,-69 629,-50 507,-50"/>
<text text-anchor="middle" x="568" y="-57" font-family="Helvetica,sans-Serif" font-size="10.00" fill="#000000">CDPL::Base::SizeError</text>
</a>
</g>
</g>
<!-- Node6&#45;&gt;Node10 -->
<g id="edge11" class="edge">
<title>Node6&#45;&gt;Node10</title>
<path fill="none" stroke="#191970" d="M408.1782,-94.5349C428.6397,-89.4065 452.966,-83.4665 475,-78.5 489.3077,-75.275 504.9075,-71.996 519.1717,-69.0903"/>
<polygon fill="#191970" stroke="#191970" points="407.3134,-91.1433 398.4709,-96.9795 409.0229,-97.9314 407.3134,-91.1433"/>
</g>
<!-- Node9 -->
<g id="node11" class="node">
<title>Node9</title>
<g id="a_node11"><a xlink:href="classCDPL_1_1Base_1_1IndexError.html" target="_top" xlink:title="Thrown to indicate that an index is out of range.">
<polygon fill="none" stroke="#000000" points="697,-88 697,-107 825,-107 825,-88 697,-88"/>
<text text-anchor="middle" x="761" y="-95" font-family="Helvetica,sans-Serif" font-size="10.00" fill="#000000">CDPL::Base::IndexError</text>
</a>
</g>
</g>
<!-- Node8&#45;&gt;Node9 -->
<g id="edge10" class="edge">
<title>Node8&#45;&gt;Node9</title>
<path fill="none" stroke="#191970" d="M644.2821,-97.5C661.7027,-97.5 680.0437,-97.5 696.894,-97.5"/>
<polygon fill="#191970" stroke="#191970" points="644.1497,-94.0001 634.1496,-97.5 644.1496,-101.0001 644.1497,-94.0001"/>
</g>
<!-- Node12 -->
<g id="node14" class="node">
<title>Node12</title>
<g id="a_node14"><a xlink:href="classCDPL_1_1ForceField_1_1ParameterizationFailed.html" target="_top" xlink:title=" ">
<polygon fill="none" stroke="#000000" points="475,-.5 475,-30.5 661,-30.5 661,-.5 475,-.5"/>
<text text-anchor="start" x="483" y="-18.5" font-family="Helvetica,sans-Serif" font-size="10.00" fill="#000000">CDPL::ForceField::Parameterization</text>
<text text-anchor="middle" x="568" y="-7.5" font-family="Helvetica,sans-Serif" font-size="10.00" fill="#000000">Failed</text>
</a>
</g>
</g>
<!-- Node11&#45;&gt;Node12 -->
<g id="edge13" class="edge">
<title>Node11&#45;&gt;Node12</title>
<path fill="none" stroke="#191970" d="M434.8198,-35.4932C447.7958,-33.5452 461.4622,-31.4936 474.8972,-29.4767"/>
<polygon fill="#191970" stroke="#191970" points="433.9484,-32.0847 424.5789,-37.0305 434.9877,-39.0071 433.9484,-32.0847"/>
</g>
</g>
</svg>
