<?xml version="1.0" encoding="UTF-8" standalone="no"?>
<!DOCTYPE svg PUBLIC "-//W3C//DTD SVG 1.1//EN"
 "http://www.w3.org/Graphics/SVG/1.1/DTD/svg11.dtd">
<!-- Generated by graphviz version 2.40.1 (0)
 -->
<!-- Title: CDPL::Math::VectorTemporaryTraits&lt; const MatrixRange&lt; M &gt; &gt; Pages: 1 -->
<svg width="195pt" height="185pt"
 viewBox="0.00 0.00 195.00 185.00" xmlns="http://www.w3.org/2000/svg" xmlns:xlink="http://www.w3.org/1999/xlink">
<g id="graph0" class="graph" transform="scale(1 1) rotate(0) translate(4 181)">
<title>CDPL::Math::VectorTemporaryTraits&lt; const MatrixRange&lt; M &gt; &gt;</title>
<!-- Node1 -->
<g id="node1" class="node">
<title>Node1</title>
<g id="a_node1"><a xlink:title=" ">
<polygon fill="#bfbfbf" stroke="#000000" points="0,-.5 0,-30.5 187,-30.5 187,-.5 0,-.5"/>
<text text-anchor="start" x="8" y="-18.5" font-family="Helvetica,sans-Serif" font-size="10.00" fill="#000000">CDPL::Math::VectorTemporary</text>
<text text-anchor="middle" x="93.5" y="-7.5" font-family="Helvetica,sans-Serif" font-size="10.00" fill="#000000">Traits&lt; const MatrixRange&lt; M &gt; &gt;</text>
</a>
</g>
</g>
<!-- Node2 -->
<g id="node2" class="node">
<title>Node2</title>
<g id="a_node2"><a xlink:href="structCDPL_1_1Math_1_1VectorTemporaryTraits.html" target="_top" xlink:title=" ">
<polygon fill="none" stroke="#000000" points="13,-68.5 13,-98.5 174,-98.5 174,-68.5 13,-68.5"/>
<text text-anchor="start" x="21" y="-86.5" font-family="Helvetica,sans-Serif" font-size="10.00" fill="#000000">CDPL::Math::VectorTemporary</text>
<text text-anchor="middle" x="93.5" y="-75.5" font-family="Helvetica,sans-Serif" font-size="10.00" fill="#000000">Traits&lt; M &gt;</text>
</a>
</g>
</g>
<!-- Node2&#45;&gt;Node1 -->
<g id="edge1" class="edge">
<title>Node2&#45;&gt;Node1</title>
<path fill="none" stroke="#191970" d="M93.5,-58.1174C93.5,-48.8378 93.5,-38.6413 93.5,-30.5492"/>
<polygon fill="#191970" stroke="#191970" points="90.0001,-58.4086 93.5,-68.4086 97.0001,-58.4086 90.0001,-58.4086"/>
</g>
<!-- Node3 -->
<g id="node3" class="node">
<title>Node3</title>
<g id="a_node3"><a xlink:href="structCDPL_1_1Math_1_1VectorTemporaryTraits.html" target="_top" xlink:title=" ">
<polygon fill="none" stroke="#000000" points="13,-146.5 13,-176.5 174,-176.5 174,-146.5 13,-146.5"/>
<text text-anchor="start" x="21" y="-164.5" font-family="Helvetica,sans-Serif" font-size="10.00" fill="#000000">CDPL::Math::VectorTemporary</text>
<text text-anchor="middle" x="93.5" y="-153.5" font-family="Helvetica,sans-Serif" font-size="10.00" fill="#000000">Traits&lt; V &gt;</text>
</a>
</g>
</g>
<!-- Node3&#45;&gt;Node2 -->
<g id="edge2" class="edge">
<title>Node3&#45;&gt;Node2</title>
<path fill="none" stroke="#ffa500" stroke-dasharray="5,2" d="M93.5,-136.2875C93.5,-123.9187 93.5,-109.4264 93.5,-98.7592"/>
<polygon fill="#ffa500" stroke="#ffa500" points="90.0001,-136.4608 93.5,-146.4608 97.0001,-136.4608 90.0001,-136.4608"/>
<text text-anchor="middle" x="110.5" y="-120" font-family="Helvetica,sans-Serif" font-size="10.00" fill="#000000"> &lt; M &gt;</text>
</g>
</g>
</svg>
