<?xml version="1.0" encoding="UTF-8" standalone="no"?>
<!DOCTYPE svg PUBLIC "-//W3C//DTD SVG 1.1//EN"
 "http://www.w3.org/Graphics/SVG/1.1/DTD/svg11.dtd">
<!-- Generated by graphviz version 2.40.1 (0)
 -->
<!-- Title: CDPL::Descr::RDFCodeCalculator&lt; T &gt; Pages: 1 -->
<svg width="723pt" height="88pt"
 viewBox="0.00 0.00 723.00 88.00" xmlns="http://www.w3.org/2000/svg" xmlns:xlink="http://www.w3.org/1999/xlink">
<g id="graph0" class="graph" transform="scale(1 1) rotate(0) translate(4 84)">
<title>CDPL::Descr::RDFCodeCalculator&lt; T &gt;</title>
<!-- Node1 -->
<g id="node1" class="node">
<title>Node1</title>
<g id="a_node1"><a xlink:title="RDFCodeCalculator.">
<polygon fill="#bfbfbf" stroke="#000000" points="0,-30 0,-49 204,-49 204,-30 0,-30"/>
<text text-anchor="middle" x="102" y="-37" font-family="Helvetica,sans-Serif" font-size="10.00" fill="#000000">CDPL::Descr::RDFCodeCalculator&lt; T &gt;</text>
</a>
</g>
</g>
<!-- Node2 -->
<g id="node2" class="node">
<title>Node2</title>
<g id="a_node2"><a xlink:href="classCDPL_1_1Descr_1_1RDFCodeCalculator.html" target="_top" xlink:title=" ">
<polygon fill="none" stroke="#000000" points="340,-49.5 340,-79.5 516,-79.5 516,-49.5 340,-49.5"/>
<text text-anchor="start" x="348" y="-67.5" font-family="Helvetica,sans-Serif" font-size="10.00" fill="#000000">CDPL::Descr::RDFCodeCalculator</text>
<text text-anchor="middle" x="428" y="-56.5" font-family="Helvetica,sans-Serif" font-size="10.00" fill="#000000">&lt; Pharm::Feature &gt;</text>
</a>
</g>
</g>
<!-- Node1&#45;&gt;Node2 -->
<g id="edge1" class="edge">
<title>Node1&#45;&gt;Node2</title>
<path fill="none" stroke="#ffa500" stroke-dasharray="5,2" d="M214.3068,-48.1125C255.3677,-51.2613 301.1947,-54.7757 339.8485,-57.7399"/>
<polygon fill="#ffa500" stroke="#ffa500" points="214.4924,-44.6165 204.254,-47.3416 213.9571,-51.596 214.4924,-44.6165"/>
<text text-anchor="middle" x="272" y="-58.5" font-family="Helvetica,sans-Serif" font-size="10.00" fill="#000000"> &lt; Pharm::Feature &gt;</text>
</g>
<!-- Node4 -->
<g id="node4" class="node">
<title>Node4</title>
<g id="a_node4"><a xlink:href="classCDPL_1_1Descr_1_1RDFCodeCalculator.html" target="_top" xlink:title=" ">
<polygon fill="none" stroke="#000000" points="340,-.5 340,-30.5 516,-30.5 516,-.5 340,-.5"/>
<text text-anchor="start" x="348" y="-18.5" font-family="Helvetica,sans-Serif" font-size="10.00" fill="#000000">CDPL::Descr::RDFCodeCalculator</text>
<text text-anchor="middle" x="428" y="-7.5" font-family="Helvetica,sans-Serif" font-size="10.00" fill="#000000">&lt; Chem::Atom &gt;</text>
</a>
</g>
</g>
<!-- Node1&#45;&gt;Node4 -->
<g id="edge3" class="edge">
<title>Node1&#45;&gt;Node4</title>
<path fill="none" stroke="#ffa500" stroke-dasharray="5,2" d="M203.1066,-29.0868C209.4977,-28.5222 215.8362,-27.9875 222,-27.5 260.6593,-24.4424 303.4578,-21.8249 339.9826,-19.8221"/>
<polygon fill="#ffa500" stroke="#ffa500" points="202.6827,-25.6107 193.038,-29.996 203.3123,-32.5824 202.6827,-25.6107"/>
<text text-anchor="middle" x="272" y="-30.5" font-family="Helvetica,sans-Serif" font-size="10.00" fill="#000000"> &lt; Chem::Atom &gt;</text>
</g>
<!-- Node3 -->
<g id="node3" class="node">
<title>Node3</title>
<g id="a_node3"><a xlink:href="classCDPL_1_1Descr_1_1FeatureRDFCodeCalculator.html" target="_top" xlink:title="FeatureRDFCodeCalculator.">
<polygon fill="none" stroke="#000000" points="553,-49.5 553,-79.5 715,-79.5 715,-49.5 553,-49.5"/>
<text text-anchor="start" x="561" y="-67.5" font-family="Helvetica,sans-Serif" font-size="10.00" fill="#000000">CDPL::Descr::FeatureRDFCode</text>
<text text-anchor="middle" x="634" y="-56.5" font-family="Helvetica,sans-Serif" font-size="10.00" fill="#000000">Calculator</text>
</a>
</g>
</g>
<!-- Node2&#45;&gt;Node3 -->
<g id="edge2" class="edge">
<title>Node2&#45;&gt;Node3</title>
<path fill="none" stroke="#191970" d="M526.5372,-64.5C535.3227,-64.5 544.1516,-64.5 552.7676,-64.5"/>
<polygon fill="#191970" stroke="#191970" points="526.259,-61.0001 516.259,-64.5 526.259,-68.0001 526.259,-61.0001"/>
</g>
<!-- Node5 -->
<g id="node5" class="node">
<title>Node5</title>
<g id="a_node5"><a xlink:href="classCDPL_1_1Descr_1_1AtomRDFCodeCalculator.html" target="_top" xlink:title="AtomRDFCodeCalculator.">
<polygon fill="none" stroke="#000000" points="558,-.5 558,-30.5 710,-30.5 710,-.5 558,-.5"/>
<text text-anchor="start" x="566" y="-18.5" font-family="Helvetica,sans-Serif" font-size="10.00" fill="#000000">CDPL::Descr::AtomRDFCode</text>
<text text-anchor="middle" x="634" y="-7.5" font-family="Helvetica,sans-Serif" font-size="10.00" fill="#000000">Calculator</text>
</a>
</g>
</g>
<!-- Node4&#45;&gt;Node5 -->
<g id="edge4" class="edge">
<title>Node4&#45;&gt;Node5</title>
<path fill="none" stroke="#191970" d="M526.3849,-15.5C536.9825,-15.5 547.6454,-15.5 557.9236,-15.5"/>
<polygon fill="#191970" stroke="#191970" points="526.259,-12.0001 516.259,-15.5 526.259,-19.0001 526.259,-12.0001"/>
</g>
</g>
</svg>
