<?xml version="1.0" encoding="UTF-8" standalone="no"?>
<!DOCTYPE svg PUBLIC "-//W3C//DTD SVG 1.1//EN"
 "http://www.w3.org/Graphics/SVG/1.1/DTD/svg11.dtd">
<!-- Generated by graphviz version 2.40.1 (0)
 -->
<!-- Title: CDPL::Base::ValueError Pages: 1 -->
<svg width="478pt" height="252pt"
 viewBox="0.00 0.00 478.00 252.00" xmlns="http://www.w3.org/2000/svg" xmlns:xlink="http://www.w3.org/1999/xlink">
<g id="graph0" class="graph" transform="scale(1 1) rotate(0) translate(4 248)">
<title>CDPL::Base::ValueError</title>
<!-- Node1 -->
<g id="node1" class="node">
<title>Node1</title>
<g id="a_node1"><a xlink:title="Thrown to indicate errors caused by some invalid value.">
<polygon fill="#bfbfbf" stroke="#000000" points="200,-112.5 200,-131.5 328,-131.5 328,-112.5 200,-112.5"/>
<text text-anchor="middle" x="264" y="-119.5" font-family="Helvetica,sans-Serif" font-size="10.00" fill="#000000">CDPL::Base::ValueError</text>
</a>
</g>
</g>
<!-- Node4 -->
<g id="node4" class="node">
<title>Node4</title>
<g id="a_node4"><a xlink:href="classCDPL_1_1Base_1_1NullPointerException.html" target="_top" xlink:title="Thrown when an operation requires or expects a valid pointer but a null pointer was provided.">
<polygon fill="none" stroke="#000000" points="0,-56.5 0,-75.5 180,-75.5 180,-56.5 0,-56.5"/>
<text text-anchor="middle" x="90" y="-63.5" font-family="Helvetica,sans-Serif" font-size="10.00" fill="#000000">CDPL::Base::NullPointerException</text>
</a>
</g>
</g>
<!-- Node1&#45;&gt;Node4 -->
<g id="edge3" class="edge">
<title>Node1&#45;&gt;Node4</title>
<path fill="none" stroke="#191970" d="M224.199,-109.1905C192.321,-98.9309 148.3184,-84.7691 119.5213,-75.5011"/>
<polygon fill="#191970" stroke="#191970" points="223.4969,-112.6413 234.0883,-112.3733 225.6415,-105.9779 223.4969,-112.6413"/>
</g>
<!-- Node5 -->
<g id="node5" class="node">
<title>Node5</title>
<g id="a_node5"><a xlink:href="classCDPL_1_1Base_1_1RangeError.html" target="_top" xlink:title="Thrown to indicate that a value is out of range.">
<polygon fill="none" stroke="#000000" points="198,-56.5 198,-75.5 330,-75.5 330,-56.5 198,-56.5"/>
<text text-anchor="middle" x="264" y="-63.5" font-family="Helvetica,sans-Serif" font-size="10.00" fill="#000000">CDPL::Base::RangeError</text>
</a>
</g>
</g>
<!-- Node1&#45;&gt;Node5 -->
<g id="edge4" class="edge">
<title>Node1&#45;&gt;Node5</title>
<path fill="none" stroke="#191970" d="M264,-102.1575C264,-93.155 264,-82.9199 264,-75.6427"/>
<polygon fill="#191970" stroke="#191970" points="260.5001,-102.2455 264,-112.2455 267.5001,-102.2456 260.5001,-102.2455"/>
</g>
<!-- Node7 -->
<g id="node7" class="node">
<title>Node7</title>
<g id="a_node7"><a xlink:href="classCDPL_1_1Base_1_1SizeError.html" target="_top" xlink:title="Thrown to indicate that the size of a (multidimensional) array is not correct.">
<polygon fill="none" stroke="#000000" points="348,-56.5 348,-75.5 470,-75.5 470,-56.5 348,-56.5"/>
<text text-anchor="middle" x="409" y="-63.5" font-family="Helvetica,sans-Serif" font-size="10.00" fill="#000000">CDPL::Base::SizeError</text>
</a>
</g>
</g>
<!-- Node1&#45;&gt;Node7 -->
<g id="edge6" class="edge">
<title>Node1&#45;&gt;Node7</title>
<path fill="none" stroke="#191970" d="M298.5565,-108.6541C324.9986,-98.4419 360.8169,-84.6086 384.3989,-75.5011"/>
<polygon fill="#191970" stroke="#191970" points="296.9939,-105.5055 288.9264,-112.3733 299.5158,-112.0354 296.9939,-105.5055"/>
</g>
<!-- Node2 -->
<g id="node2" class="node">
<title>Node2</title>
<g id="a_node2"><a xlink:href="classCDPL_1_1Base_1_1Exception.html" target="_top" xlink:title="The root of the CDPL exception hierarchy.">
<polygon fill="none" stroke="#000000" points="201,-168.5 201,-187.5 327,-187.5 327,-168.5 201,-168.5"/>
<text text-anchor="middle" x="264" y="-175.5" font-family="Helvetica,sans-Serif" font-size="10.00" fill="#000000">CDPL::Base::Exception</text>
</a>
</g>
</g>
<!-- Node2&#45;&gt;Node1 -->
<g id="edge1" class="edge">
<title>Node2&#45;&gt;Node1</title>
<path fill="none" stroke="#191970" d="M264,-158.1575C264,-149.155 264,-138.9199 264,-131.6427"/>
<polygon fill="#191970" stroke="#191970" points="260.5001,-158.2455 264,-168.2455 267.5001,-158.2456 260.5001,-158.2455"/>
</g>
<!-- Node3 -->
<g id="node3" class="node">
<title>Node3</title>
<g id="a_node3"><a xlink:title="STL class.">
<polygon fill="none" stroke="#bfbfbf" points="221,-224.5 221,-243.5 307,-243.5 307,-224.5 221,-224.5"/>
<text text-anchor="middle" x="264" y="-231.5" font-family="Helvetica,sans-Serif" font-size="10.00" fill="#000000">std::exception</text>
</a>
</g>
</g>
<!-- Node3&#45;&gt;Node2 -->
<g id="edge2" class="edge">
<title>Node3&#45;&gt;Node2</title>
<path fill="none" stroke="#191970" d="M264,-214.1575C264,-205.155 264,-194.9199 264,-187.6427"/>
<polygon fill="#191970" stroke="#191970" points="260.5001,-214.2455 264,-224.2455 267.5001,-214.2456 260.5001,-214.2455"/>
</g>
<!-- Node6 -->
<g id="node6" class="node">
<title>Node6</title>
<g id="a_node6"><a xlink:href="classCDPL_1_1Base_1_1IndexError.html" target="_top" xlink:title="Thrown to indicate that an index is out of range.">
<polygon fill="none" stroke="#000000" points="200,-.5 200,-19.5 328,-19.5 328,-.5 200,-.5"/>
<text text-anchor="middle" x="264" y="-7.5" font-family="Helvetica,sans-Serif" font-size="10.00" fill="#000000">CDPL::Base::IndexError</text>
</a>
</g>
</g>
<!-- Node5&#45;&gt;Node6 -->
<g id="edge5" class="edge">
<title>Node5&#45;&gt;Node6</title>
<path fill="none" stroke="#191970" d="M264,-46.1575C264,-37.155 264,-26.9199 264,-19.6427"/>
<polygon fill="#191970" stroke="#191970" points="260.5001,-46.2455 264,-56.2455 267.5001,-46.2456 260.5001,-46.2455"/>
</g>
</g>
</svg>
