<?xml version="1.0" encoding="UTF-8" standalone="no"?>
<!DOCTYPE svg PUBLIC "-//W3C//DTD SVG 1.1//EN"
 "http://www.w3.org/Graphics/SVG/1.1/DTD/svg11.dtd">
<!-- Generated by graphviz version 2.40.1 (0)
 -->
<!-- Title: CDPL::Vis::SVGReactionWriter Pages: 1 -->
<svg width="307pt" height="288pt"
 viewBox="0.00 0.00 306.50 288.00" xmlns="http://www.w3.org/2000/svg" xmlns:xlink="http://www.w3.org/1999/xlink">
<g id="graph0" class="graph" transform="scale(1 1) rotate(0) translate(4 284)">
<title>CDPL::Vis::SVGReactionWriter</title>
<!-- Node1 -->
<g id="node1" class="node">
<title>Node1</title>
<g id="a_node1"><a xlink:title="Creates 2D depictions of chemical reactions in the Scalable Vector Graphics (SVG) [WSVG] format.">
<polygon fill="#bfbfbf" stroke="#000000" points="79.5,-.5 79.5,-19.5 240.5,-19.5 240.5,-.5 79.5,-.5"/>
<text text-anchor="middle" x="160" y="-7.5" font-family="Helvetica,sans-Serif" font-size="10.00" fill="#000000">CDPL::Vis::SVGReactionWriter</text>
</a>
</g>
</g>
<!-- Node2 -->
<g id="node2" class="node">
<title>Node2</title>
<g id="a_node2"><a xlink:href="classCDPL_1_1Base_1_1DataWriter.html" target="_top" xlink:title=" ">
<polygon fill="none" stroke="#000000" points="20.5,-57.5 20.5,-87.5 151.5,-87.5 151.5,-57.5 20.5,-57.5"/>
<text text-anchor="start" x="28.5" y="-75.5" font-family="Helvetica,sans-Serif" font-size="10.00" fill="#000000">CDPL::Base::DataWriter</text>
<text text-anchor="middle" x="86" y="-64.5" font-family="Helvetica,sans-Serif" font-size="10.00" fill="#000000">&lt; Chem::Reaction &gt;</text>
</a>
</g>
</g>
<!-- Node2&#45;&gt;Node1 -->
<g id="edge1" class="edge">
<title>Node2&#45;&gt;Node1</title>
<path fill="none" stroke="#191970" d="M111.7924,-50.7159C124.2995,-40.1525 138.6932,-27.9956 148.473,-19.7356"/>
<polygon fill="#191970" stroke="#191970" points="109.2947,-48.2441 103.9133,-57.3705 113.8115,-53.5919 109.2947,-48.2441"/>
</g>
<!-- Node3 -->
<g id="node3" class="node">
<title>Node3</title>
<g id="a_node3"><a xlink:href="classCDPL_1_1Base_1_1DataIOBase.html" target="_top" xlink:title="Provides infrastructure for the registration of I/O callback functions.">
<polygon fill="none" stroke="#000000" points="14,-192.5 14,-211.5 150,-211.5 150,-192.5 14,-192.5"/>
<text text-anchor="middle" x="82" y="-199.5" font-family="Helvetica,sans-Serif" font-size="10.00" fill="#000000">CDPL::Base::DataIOBase</text>
</a>
</g>
</g>
<!-- Node3&#45;&gt;Node2 -->
<g id="edge2" class="edge">
<title>Node3&#45;&gt;Node2</title>
<path fill="none" stroke="#191970" d="M82.6141,-182.1183C83.4157,-156.1655 84.8017,-111.2948 85.5268,-87.8199"/>
<polygon fill="#191970" stroke="#191970" points="79.1111,-182.1631 82.3007,-192.2665 86.1078,-182.3793 79.1111,-182.1631"/>
</g>
<!-- Node5 -->
<g id="node5" class="node">
<title>Node5</title>
<g id="a_node5"><a xlink:href="classCDPL_1_1Base_1_1DataWriter.html" target="_top" xlink:title="An interface for writing data objects of a given type to an arbitrary data sink.">
<polygon fill="none" stroke="#000000" points="98.5,-135.5 98.5,-154.5 257.5,-154.5 257.5,-135.5 98.5,-135.5"/>
<text text-anchor="middle" x="178" y="-142.5" font-family="Helvetica,sans-Serif" font-size="10.00" fill="#000000">CDPL::Base::DataWriter&lt; T &gt;</text>
</a>
</g>
</g>
<!-- Node3&#45;&gt;Node5 -->
<g id="edge5" class="edge">
<title>Node3&#45;&gt;Node5</title>
<path fill="none" stroke="#191970" d="M107.2978,-186.9794C124.6136,-176.6982 147.0507,-163.3762 161.9554,-154.5265"/>
<polygon fill="#191970" stroke="#191970" points="105.0968,-184.2158 98.2851,-192.3307 108.6706,-190.2348 105.0968,-184.2158"/>
</g>
<!-- Node4 -->
<g id="node4" class="node">
<title>Node4</title>
<g id="a_node4"><a xlink:href="classCDPL_1_1Base_1_1ControlParameterContainer.html" target="_top" xlink:title="A class providing methods for the storage and lookup of control&#45;parameter values.">
<polygon fill="none" stroke="#000000" points="0,-249.5 0,-279.5 164,-279.5 164,-249.5 0,-249.5"/>
<text text-anchor="start" x="8" y="-267.5" font-family="Helvetica,sans-Serif" font-size="10.00" fill="#000000">CDPL::Base::ControlParameter</text>
<text text-anchor="middle" x="82" y="-256.5" font-family="Helvetica,sans-Serif" font-size="10.00" fill="#000000">Container</text>
</a>
</g>
</g>
<!-- Node4&#45;&gt;Node3 -->
<g id="edge3" class="edge">
<title>Node4&#45;&gt;Node3</title>
<path fill="none" stroke="#191970" d="M82,-239.3498C82,-229.6481 82,-219.1303 82,-211.7356"/>
<polygon fill="#191970" stroke="#191970" points="78.5001,-239.3705 82,-249.3705 85.5001,-239.3705 78.5001,-239.3705"/>
</g>
<!-- Node5&#45;&gt;Node2 -->
<g id="edge4" class="edge">
<title>Node5&#45;&gt;Node2</title>
<path fill="none" stroke="#ffa500" stroke-dasharray="5,2" d="M157.5832,-128.9107C141.9624,-116.6008 120.5703,-99.7429 105.2477,-87.668"/>
<polygon fill="#ffa500" stroke="#ffa500" points="155.5718,-131.7818 165.5925,-135.2223 159.9045,-126.2838 155.5718,-131.7818"/>
<text text-anchor="middle" x="192.5" y="-109" font-family="Helvetica,sans-Serif" font-size="10.00" fill="#000000"> &lt; Chem::Reaction &gt;</text>
</g>
<!-- Node6 -->
<g id="node6" class="node">
<title>Node6</title>
<g id="a_node6"><a xlink:href="classCDPL_1_1Vis_1_1ImageWriter.html" target="_top" xlink:title=" ">
<polygon fill="none" stroke="#000000" points="169.5,-63 169.5,-82 298.5,-82 298.5,-63 169.5,-63"/>
<text text-anchor="middle" x="234" y="-70" font-family="Helvetica,sans-Serif" font-size="10.00" fill="#000000">CDPL::Vis::ImageWriter</text>
</a>
</g>
</g>
<!-- Node6&#45;&gt;Node1 -->
<g id="edge6" class="edge">
<title>Node6&#45;&gt;Node1</title>
<path fill="none" stroke="#8b1a1a" d="M214.5906,-56.1069C200.9799,-44.6114 183.2302,-29.6201 171.7255,-19.9033"/>
<polygon fill="#8b1a1a" stroke="#8b1a1a" points="212.5394,-58.9558 222.4375,-62.7344 217.0561,-53.6079 212.5394,-58.9558"/>
</g>
</g>
</svg>
