<?xml version="1.0" encoding="UTF-8" standalone="no"?>
<!DOCTYPE svg PUBLIC "-//W3C//DTD SVG 1.1//EN"
 "http://www.w3.org/Graphics/SVG/1.1/DTD/svg11.dtd">
<!-- Generated by graphviz version 2.40.1 (0)
 -->
<!-- Title: CDPL::Base::DataOutputHandler&lt; T &gt; Pages: 1 -->
<svg width="779pt" height="100pt"
 viewBox="0.00 0.00 779.00 99.50" xmlns="http://www.w3.org/2000/svg" xmlns:xlink="http://www.w3.org/1999/xlink">
<g id="graph0" class="graph" transform="scale(1 1) rotate(0) translate(4 95.5)">
<title>CDPL::Base::DataOutputHandler&lt; T &gt;</title>
<!-- Node1 -->
<g id="node1" class="node">
<title>Node1</title>
<g id="a_node1"><a xlink:title="A factory interface providing methods for the creation of Base::DataWriter instances handling a parti...">
<polygon fill="#bfbfbf" stroke="#000000" points="0,-32 0,-51 201,-51 201,-32 0,-32"/>
<text text-anchor="middle" x="100.5" y="-39" font-family="Helvetica,sans-Serif" font-size="10.00" fill="#000000">CDPL::Base::DataOutputHandler&lt; T &gt;</text>
</a>
</g>
</g>
<!-- Node2 -->
<g id="node2" class="node">
<title>Node2</title>
<g id="a_node2"><a xlink:href="classCDPL_1_1Base_1_1DataOutputHandler.html" target="_top" xlink:title=" ">
<polygon fill="none" stroke="#000000" points="374,-54.5 374,-84.5 568,-84.5 568,-54.5 374,-54.5"/>
<text text-anchor="start" x="382" y="-72.5" font-family="Helvetica,sans-Serif" font-size="10.00" fill="#000000">CDPL::Base::DataOutputHandler</text>
<text text-anchor="middle" x="471" y="-61.5" font-family="Helvetica,sans-Serif" font-size="10.00" fill="#000000">&lt; typename WriterImpl::DataType &gt;</text>
</a>
</g>
</g>
<!-- Node1&#45;&gt;Node2 -->
<g id="edge1" class="edge">
<title>Node1&#45;&gt;Node2</title>
<path fill="none" stroke="#ffa500" stroke-dasharray="5,2" d="M211.4511,-49.885C263.0953,-53.7879 323.9737,-58.3887 373.7865,-62.1532"/>
<polygon fill="#ffa500" stroke="#ffa500" points="211.4867,-46.3778 201.2514,-49.1141 210.9591,-53.3579 211.4867,-46.3778"/>
<text text-anchor="start" x="228.5" y="-73.5" font-family="Helvetica,sans-Serif" font-size="10.00" fill="#000000"> &lt; typename WriterImpl</text>
<text text-anchor="middle" x="287.5" y="-62.5" font-family="Helvetica,sans-Serif" font-size="10.00" fill="#000000">::DataType &gt;</text>
</g>
<!-- Node4 -->
<g id="node4" class="node">
<title>Node4</title>
<g id="a_node4"><a xlink:href="classCDPL_1_1Base_1_1DataOutputHandler.html" target="_top" xlink:title=" ">
<polygon fill="none" stroke="#000000" points="384.5,-2.5 384.5,-32.5 557.5,-32.5 557.5,-2.5 384.5,-2.5"/>
<text text-anchor="start" x="392.5" y="-20.5" font-family="Helvetica,sans-Serif" font-size="10.00" fill="#000000">CDPL::Base::DataOutputHandler</text>
<text text-anchor="middle" x="471" y="-9.5" font-family="Helvetica,sans-Serif" font-size="10.00" fill="#000000">&lt; Chem::MolecularGraph &gt;</text>
</a>
</g>
</g>
<!-- Node1&#45;&gt;Node4 -->
<g id="edge3" class="edge">
<title>Node1&#45;&gt;Node4</title>
<path fill="none" stroke="#ffa500" stroke-dasharray="5,2" d="M199.7044,-31.0604C206.2311,-30.4951 212.7073,-29.9681 219,-29.5 273.9262,-25.4141 335.6963,-22.4468 384.3337,-20.4851"/>
<polygon fill="#ffa500" stroke="#ffa500" points="199.0754,-27.6025 189.4259,-31.9771 199.6973,-34.5748 199.0754,-27.6025"/>
<text text-anchor="middle" x="287.5" y="-32.5" font-family="Helvetica,sans-Serif" font-size="10.00" fill="#000000"> &lt; Chem::MolecularGraph &gt;</text>
</g>
<!-- Node3 -->
<g id="node3" class="node">
<title>Node3</title>
<g id="a_node3"><a xlink:href="classCDPL_1_1Util_1_1DefaultDataOutputHandler.html" target="_top" xlink:title="DefaultDataOutputHandler.">
<polygon fill="none" stroke="#000000" points="605,-50 605,-91 771,-91 771,-50 605,-50"/>
<text text-anchor="start" x="613" y="-79" font-family="Helvetica,sans-Serif" font-size="10.00" fill="#000000">CDPL::Util::DefaultDataOutput</text>
<text text-anchor="start" x="613" y="-68" font-family="Helvetica,sans-Serif" font-size="10.00" fill="#000000">Handler&lt; WriterImpl, FORMAT,</text>
<text text-anchor="middle" x="688" y="-57" font-family="Helvetica,sans-Serif" font-size="10.00" fill="#000000"> DataType &gt;</text>
</a>
</g>
</g>
<!-- Node2&#45;&gt;Node3 -->
<g id="edge2" class="edge">
<title>Node2&#45;&gt;Node3</title>
<path fill="none" stroke="#191970" d="M578.1969,-69.994C587.1776,-70.0354 596.1702,-70.0768 604.9286,-70.1172"/>
<polygon fill="#191970" stroke="#191970" points="578.0916,-66.4936 568.0755,-69.9474 578.0592,-73.4935 578.0916,-66.4936"/>
</g>
<!-- Node5 -->
<g id="node5" class="node">
<title>Node5</title>
<g id="a_node5"><a xlink:href="classCDPL_1_1Pharm_1_1PSDMolecularGraphOutputHandler.html" target="_top" xlink:title="A handler for the output of molecular graph dara in the PSD&#45;format of the CDPL.">
<polygon fill="none" stroke="#000000" points="612,-.5 612,-30.5 764,-30.5 764,-.5 612,-.5"/>
<text text-anchor="start" x="620" y="-18.5" font-family="Helvetica,sans-Serif" font-size="10.00" fill="#000000">CDPL::Pharm::PSDMolecular</text>
<text text-anchor="middle" x="688" y="-7.5" font-family="Helvetica,sans-Serif" font-size="10.00" fill="#000000">GraphOutputHandler</text>
</a>
</g>
</g>
<!-- Node4&#45;&gt;Node5 -->
<g id="edge4" class="edge">
<title>Node4&#45;&gt;Node5</title>
<path fill="none" stroke="#191970" d="M567.867,-16.6072C582.6401,-16.4711 597.7042,-16.3322 611.9468,-16.201"/>
<polygon fill="#191970" stroke="#191970" points="567.667,-13.1088 557.6997,-16.7009 567.7315,-20.1085 567.667,-13.1088"/>
</g>
</g>
</svg>
