<?xml version="1.0" encoding="UTF-8" standalone="no"?>
<!DOCTYPE svg PUBLIC "-//W3C//DTD SVG 1.1//EN"
 "http://www.w3.org/Graphics/SVG/1.1/DTD/svg11.dtd">
<!-- Generated by graphviz version 2.40.1 (0)
 -->
<!-- Title: CDPL::Math::KabschAlgorithm&lt; T &gt; Pages: 1 -->
<svg width="348pt" height="106pt"
 viewBox="0.00 0.00 348.00 106.00" xmlns="http://www.w3.org/2000/svg" xmlns:xlink="http://www.w3.org/1999/xlink">
<g id="graph0" class="graph" transform="scale(1 1) rotate(0) translate(4 102)">
<title>CDPL::Math::KabschAlgorithm&lt; T &gt;</title>
<!-- Node1 -->
<g id="node1" class="node">
<title>Node1</title>
<g id="a_node1"><a xlink:title="Implementation of the Kabsch algorithm [KABA].">
<polygon fill="#bfbfbf" stroke="#000000" points="74.5,-78.5 74.5,-97.5 264.5,-97.5 264.5,-78.5 74.5,-78.5"/>
<text text-anchor="middle" x="169.5" y="-85.5" font-family="Helvetica,sans-Serif" font-size="10.00" fill="#000000">CDPL::Math::KabschAlgorithm&lt; T &gt;</text>
</a>
</g>
</g>
<!-- Node2 -->
<g id="node2" class="node">
<title>Node2</title>
<g id="a_node2"><a xlink:href="classCDPL_1_1Math_1_1KabschAlgorithm.html" target="_top" xlink:title=" ">
<polygon fill="none" stroke="#000000" points="0,-.5 0,-30.5 161,-30.5 161,-.5 0,-.5"/>
<text text-anchor="start" x="8" y="-18.5" font-family="Helvetica,sans-Serif" font-size="10.00" fill="#000000">CDPL::Math::KabschAlgorithm</text>
<text text-anchor="middle" x="80.5" y="-7.5" font-family="Helvetica,sans-Serif" font-size="10.00" fill="#000000">&lt; double &gt;</text>
</a>
</g>
</g>
<!-- Node1&#45;&gt;Node2 -->
<g id="edge1" class="edge">
<title>Node1&#45;&gt;Node2</title>
<path fill="none" stroke="#ffa500" stroke-dasharray="5,2" d="M149.3278,-71.5676C134.2548,-59.2891 113.8057,-42.6311 99.1201,-30.668"/>
<polygon fill="#ffa500" stroke="#ffa500" points="147.5334,-74.6201 157.4971,-78.2223 151.9544,-69.1929 147.5334,-74.6201"/>
<text text-anchor="middle" x="163" y="-52" font-family="Helvetica,sans-Serif" font-size="10.00" fill="#000000"> &lt; double &gt;</text>
</g>
<!-- Node3 -->
<g id="node3" class="node">
<title>Node3</title>
<g id="a_node3"><a xlink:href="classCDPL_1_1Math_1_1KabschAlgorithm.html" target="_top" xlink:title=" ">
<polygon fill="none" stroke="#000000" points="179,-.5 179,-30.5 340,-30.5 340,-.5 179,-.5"/>
<text text-anchor="start" x="187" y="-18.5" font-family="Helvetica,sans-Serif" font-size="10.00" fill="#000000">CDPL::Math::KabschAlgorithm</text>
<text text-anchor="middle" x="259.5" y="-7.5" font-family="Helvetica,sans-Serif" font-size="10.00" fill="#000000">&lt; ValueType &gt;</text>
</a>
</g>
</g>
<!-- Node1&#45;&gt;Node3 -->
<g id="edge2" class="edge">
<title>Node1&#45;&gt;Node3</title>
<path fill="none" stroke="#ffa500" stroke-dasharray="5,2" d="M189.4729,-71.9107C204.7541,-59.6008 225.6813,-42.7429 240.6707,-30.668"/>
<polygon fill="#ffa500" stroke="#ffa500" points="187.2297,-69.2233 181.6378,-78.2223 191.621,-74.6746 187.2297,-69.2233"/>
<text text-anchor="middle" x="254.5" y="-52" font-family="Helvetica,sans-Serif" font-size="10.00" fill="#000000"> &lt; ValueType &gt;</text>
</g>
</g>
</svg>
