<?xml version="1.0" encoding="UTF-8" standalone="no"?>
<!DOCTYPE svg PUBLIC "-//W3C//DTD SVG 1.1//EN"
 "http://www.w3.org/Graphics/SVG/1.1/DTD/svg11.dtd">
<!-- Generated by graphviz version 2.40.1 (0)
 -->
<!-- Title: CDPL::Math::Scalar2QuaternionBinary2&lt; E1, E2, F &gt; Pages: 1 -->
<svg width="1128pt" height="88pt"
 viewBox="0.00 0.00 1128.00 88.00" xmlns="http://www.w3.org/2000/svg" xmlns:xlink="http://www.w3.org/1999/xlink">
<g id="graph0" class="graph" transform="scale(1 1) rotate(0) translate(4 84)">
<title>CDPL::Math::Scalar2QuaternionBinary2&lt; E1, E2, F &gt;</title>
<!-- Node1 -->
<g id="node1" class="node">
<title>Node1</title>
<g id="a_node1"><a xlink:title=" ">
<polygon fill="#bfbfbf" stroke="#000000" points="952,-21 952,-51 1120,-51 1120,-21 952,-21"/>
<text text-anchor="start" x="960" y="-39" font-family="Helvetica,sans-Serif" font-size="10.00" fill="#000000">CDPL::Math::Scalar2Quaternion</text>
<text text-anchor="middle" x="1036" y="-28" font-family="Helvetica,sans-Serif" font-size="10.00" fill="#000000">Binary2&lt; E1, E2, F &gt;</text>
</a>
</g>
</g>
<!-- Node2 -->
<g id="node2" class="node">
<title>Node2</title>
<g id="a_node2"><a xlink:href="classCDPL_1_1Math_1_1QuaternionExpression.html" target="_top" xlink:title=" ">
<polygon fill="none" stroke="#000000" points="730,-15.5 730,-56.5 915,-56.5 915,-15.5 730,-15.5"/>
<text text-anchor="start" x="738" y="-44.5" font-family="Helvetica,sans-Serif" font-size="10.00" fill="#000000">CDPL::Math::QuaternionExpression</text>
<text text-anchor="start" x="738" y="-33.5" font-family="Helvetica,sans-Serif" font-size="10.00" fill="#000000">&lt; Scalar2QuaternionBinary2</text>
<text text-anchor="middle" x="822.5" y="-22.5" font-family="Helvetica,sans-Serif" font-size="10.00" fill="#000000">&lt; E1, E2, F &gt; &gt;</text>
</a>
</g>
</g>
<!-- Node2&#45;&gt;Node1 -->
<g id="edge1" class="edge">
<title>Node2&#45;&gt;Node1</title>
<path fill="none" stroke="#191970" d="M925.2248,-36C934.1184,-36 943.0492,-36 951.77,-36"/>
<polygon fill="#191970" stroke="#191970" points="925.2128,-32.5001 915.2128,-36 925.2127,-39.5001 925.2128,-32.5001"/>
</g>
<!-- Node3 -->
<g id="node3" class="node">
<title>Node3</title>
<g id="a_node3"><a xlink:href="classCDPL_1_1Math_1_1Expression.html" target="_top" xlink:title=" ">
<polygon fill="none" stroke="#000000" points="367.5,-38.5 367.5,-79.5 522.5,-79.5 522.5,-38.5 367.5,-38.5"/>
<text text-anchor="start" x="375.5" y="-67.5" font-family="Helvetica,sans-Serif" font-size="10.00" fill="#000000">CDPL::Math::Expression</text>
<text text-anchor="start" x="375.5" y="-56.5" font-family="Helvetica,sans-Serif" font-size="10.00" fill="#000000">&lt; Scalar2QuaternionBinary2</text>
<text text-anchor="middle" x="445" y="-45.5" font-family="Helvetica,sans-Serif" font-size="10.00" fill="#000000">&lt; E1, E2, F &gt; &gt;</text>
</a>
</g>
</g>
<!-- Node3&#45;&gt;Node2 -->
<g id="edge2" class="edge">
<title>Node3&#45;&gt;Node2</title>
<path fill="none" stroke="#191970" d="M532.8243,-53.6491C591.9338,-50.0477 669.7501,-45.3066 729.8439,-41.6453"/>
<polygon fill="#191970" stroke="#191970" points="532.5291,-50.1605 522.7605,-54.2623 532.9549,-57.1476 532.5291,-50.1605"/>
</g>
<!-- Node4 -->
<g id="node4" class="node">
<title>Node4</title>
<g id="a_node4"><a xlink:href="classCDPL_1_1Math_1_1Expression.html" target="_top" xlink:title=" ">
<polygon fill="none" stroke="#000000" points="0,-24.5 0,-43.5 160,-43.5 160,-24.5 0,-24.5"/>
<text text-anchor="middle" x="80" y="-31.5" font-family="Helvetica,sans-Serif" font-size="10.00" fill="#000000">CDPL::Math::Expression&lt; E &gt;</text>
</a>
</g>
</g>
<!-- Node4&#45;&gt;Node3 -->
<g id="edge3" class="edge">
<title>Node4&#45;&gt;Node3</title>
<path fill="none" stroke="#ffa500" stroke-dasharray="5,2" d="M170.4044,-40.1921C230.8743,-44.3339 309.625,-49.7277 367.2779,-53.6766"/>
<polygon fill="#ffa500" stroke="#ffa500" points="170.3166,-36.678 160.1008,-39.4864 169.8382,-43.6616 170.3166,-36.678"/>
<text text-anchor="start" x="178" y="-64" font-family="Helvetica,sans-Serif" font-size="10.00" fill="#000000"> &lt; Scalar2QuaternionBinary2</text>
<text text-anchor="middle" x="249" y="-53" font-family="Helvetica,sans-Serif" font-size="10.00" fill="#000000">&lt; E1, E2, F &gt; &gt;</text>
</g>
<!-- Node5 -->
<g id="node5" class="node">
<title>Node5</title>
<g id="a_node5"><a xlink:href="classCDPL_1_1Math_1_1QuaternionExpression.html" target="_top" xlink:title=" ">
<polygon fill="none" stroke="#000000" points="338,-.5 338,-19.5 552,-19.5 552,-.5 338,-.5"/>
<text text-anchor="middle" x="445" y="-7.5" font-family="Helvetica,sans-Serif" font-size="10.00" fill="#000000">CDPL::Math::QuaternionExpression&lt; E &gt;</text>
</a>
</g>
</g>
<!-- Node4&#45;&gt;Node5 -->
<g id="edge5" class="edge">
<title>Node4&#45;&gt;Node5</title>
<path fill="none" stroke="#191970" d="M170.3821,-28.0571C221.0479,-24.7256 284.5526,-20.55 337.7284,-17.0535"/>
<polygon fill="#191970" stroke="#191970" points="169.8496,-24.5844 160.1008,-28.7331 170.3089,-31.5693 169.8496,-24.5844"/>
</g>
<!-- Node5&#45;&gt;Node2 -->
<g id="edge4" class="edge">
<title>Node5&#45;&gt;Node2</title>
<path fill="none" stroke="#ffa500" stroke-dasharray="5,2" d="M562.2493,-8.6741C608.9469,-9.1786 663.1134,-11.0573 712,-16 717.8191,-16.5883 723.7917,-17.3134 729.8022,-18.1352"/>
<polygon fill="#ffa500" stroke="#ffa500" points="562.1262,-5.173 552.0957,-8.5846 562.0644,-12.1727 562.1262,-5.173"/>
<text text-anchor="start" x="570" y="-30" font-family="Helvetica,sans-Serif" font-size="10.00" fill="#000000"> &lt; Scalar2QuaternionBinary2</text>
<text text-anchor="middle" x="641" y="-19" font-family="Helvetica,sans-Serif" font-size="10.00" fill="#000000">&lt; E1, E2, F &gt; &gt;</text>
</g>
</g>
</svg>
