<?xml version="1.0" encoding="UTF-8" standalone="no"?>
<!DOCTYPE svg PUBLIC "-//W3C//DTD SVG 1.1//EN"
 "http://www.w3.org/Graphics/SVG/1.1/DTD/svg11.dtd">
<!-- Generated by graphviz version 2.40.1 (0)
 -->
<!-- Title: CDPL::Math::Scalar2GridBinary&lt; E1, E2, F &gt; Pages: 1 -->
<svg width="981pt" height="88pt"
 viewBox="0.00 0.00 981.00 88.00" xmlns="http://www.w3.org/2000/svg" xmlns:xlink="http://www.w3.org/1999/xlink">
<g id="graph0" class="graph" transform="scale(1 1) rotate(0) translate(4 84)">
<title>CDPL::Math::Scalar2GridBinary&lt; E1, E2, F &gt;</title>
<!-- Node1 -->
<g id="node1" class="node">
<title>Node1</title>
<g id="a_node1"><a xlink:title=" ">
<polygon fill="#bfbfbf" stroke="#000000" points="807,-21 807,-51 973,-51 973,-21 807,-21"/>
<text text-anchor="start" x="815" y="-39" font-family="Helvetica,sans-Serif" font-size="10.00" fill="#000000">CDPL::Math::Scalar2GridBinary</text>
<text text-anchor="middle" x="890" y="-28" font-family="Helvetica,sans-Serif" font-size="10.00" fill="#000000">&lt; E1, E2, F &gt;</text>
</a>
</g>
</g>
<!-- Node2 -->
<g id="node2" class="node">
<title>Node2</title>
<g id="a_node2"><a xlink:href="classCDPL_1_1Math_1_1GridExpression.html" target="_top" xlink:title=" ">
<polygon fill="none" stroke="#000000" points="618,-15.5 618,-56.5 770,-56.5 770,-15.5 618,-15.5"/>
<text text-anchor="start" x="626" y="-44.5" font-family="Helvetica,sans-Serif" font-size="10.00" fill="#000000">CDPL::Math::GridExpression</text>
<text text-anchor="start" x="626" y="-33.5" font-family="Helvetica,sans-Serif" font-size="10.00" fill="#000000">&lt; Scalar2GridBinary&lt; E1,</text>
<text text-anchor="middle" x="694" y="-22.5" font-family="Helvetica,sans-Serif" font-size="10.00" fill="#000000"> E2, F &gt; &gt;</text>
</a>
</g>
</g>
<!-- Node2&#45;&gt;Node1 -->
<g id="edge1" class="edge">
<title>Node2&#45;&gt;Node1</title>
<path fill="none" stroke="#191970" d="M780.3214,-36C789.1279,-36 798.0621,-36 806.834,-36"/>
<polygon fill="#191970" stroke="#191970" points="780.0593,-32.5001 770.0592,-36 780.0592,-39.5001 780.0593,-32.5001"/>
</g>
<!-- Node3 -->
<g id="node3" class="node">
<title>Node3</title>
<g id="a_node3"><a xlink:href="classCDPL_1_1Math_1_1Expression.html" target="_top" xlink:title=" ">
<polygon fill="none" stroke="#000000" points="318,-38.5 318,-79.5 460,-79.5 460,-38.5 318,-38.5"/>
<text text-anchor="start" x="326" y="-67.5" font-family="Helvetica,sans-Serif" font-size="10.00" fill="#000000">CDPL::Math::Expression</text>
<text text-anchor="start" x="326" y="-56.5" font-family="Helvetica,sans-Serif" font-size="10.00" fill="#000000">&lt; Scalar2GridBinary&lt; E1,</text>
<text text-anchor="middle" x="389" y="-45.5" font-family="Helvetica,sans-Serif" font-size="10.00" fill="#000000"> E2, F &gt; &gt;</text>
</a>
</g>
</g>
<!-- Node3&#45;&gt;Node2 -->
<g id="edge2" class="edge">
<title>Node3&#45;&gt;Node2</title>
<path fill="none" stroke="#191970" d="M470.3217,-52.8675C516.1469,-49.4119 573.0267,-45.1226 617.9597,-41.7342"/>
<polygon fill="#191970" stroke="#191970" points="469.8325,-49.3944 460.124,-53.6365 470.3589,-56.3746 469.8325,-49.3944"/>
</g>
<!-- Node4 -->
<g id="node4" class="node">
<title>Node4</title>
<g id="a_node4"><a xlink:href="classCDPL_1_1Math_1_1Expression.html" target="_top" xlink:title=" ">
<polygon fill="none" stroke="#000000" points="0,-24.5 0,-43.5 160,-43.5 160,-24.5 0,-24.5"/>
<text text-anchor="middle" x="80" y="-31.5" font-family="Helvetica,sans-Serif" font-size="10.00" fill="#000000">CDPL::Math::Expression&lt; E &gt;</text>
</a>
</g>
</g>
<!-- Node4&#45;&gt;Node3 -->
<g id="edge3" class="edge">
<title>Node4&#45;&gt;Node3</title>
<path fill="none" stroke="#ffa500" stroke-dasharray="5,2" d="M170.5634,-41.3271C217.5714,-45.1304 274.1675,-49.7093 317.9713,-53.2533"/>
<polygon fill="#ffa500" stroke="#ffa500" points="170.6292,-37.8211 160.3795,-40.5032 170.0646,-44.7983 170.6292,-37.8211"/>
<text text-anchor="start" x="178" y="-64" font-family="Helvetica,sans-Serif" font-size="10.00" fill="#000000"> &lt; Scalar2GridBinary</text>
<text text-anchor="middle" x="229.5" y="-53" font-family="Helvetica,sans-Serif" font-size="10.00" fill="#000000">&lt; E1, E2, F &gt; &gt;</text>
</g>
<!-- Node5 -->
<g id="node5" class="node">
<title>Node5</title>
<g id="a_node5"><a xlink:href="classCDPL_1_1Math_1_1GridExpression.html" target="_top" xlink:title=" ">
<polygon fill="none" stroke="#000000" points="299,-.5 299,-19.5 479,-19.5 479,-.5 299,-.5"/>
<text text-anchor="middle" x="389" y="-7.5" font-family="Helvetica,sans-Serif" font-size="10.00" fill="#000000">CDPL::Math::GridExpression&lt; E &gt;</text>
</a>
</g>
</g>
<!-- Node4&#45;&gt;Node5 -->
<g id="edge5" class="edge">
<title>Node4&#45;&gt;Node5</title>
<path fill="none" stroke="#191970" d="M170.5039,-26.9706C210.9634,-23.8281 258.5353,-20.1332 298.9423,-16.9948"/>
<polygon fill="#191970" stroke="#191970" points="170.0784,-23.493 160.3795,-27.7569 170.6205,-30.472 170.0784,-23.493"/>
</g>
<!-- Node5&#45;&gt;Node2 -->
<g id="edge4" class="edge">
<title>Node5&#45;&gt;Node2</title>
<path fill="none" stroke="#ffa500" stroke-dasharray="5,2" d="M489.3385,-9.9247C524.4378,-10.7986 564.0498,-12.8 600,-17 605.8706,-17.6859 611.9207,-18.5469 617.9875,-19.5213"/>
<polygon fill="#ffa500" stroke="#ffa500" points="489.1591,-6.42 479.0841,-9.6978 489.0042,-13.4183 489.1591,-6.42"/>
<text text-anchor="start" x="497" y="-31" font-family="Helvetica,sans-Serif" font-size="10.00" fill="#000000"> &lt; Scalar2GridBinary</text>
<text text-anchor="middle" x="548.5" y="-20" font-family="Helvetica,sans-Serif" font-size="10.00" fill="#000000">&lt; E1, E2, F &gt; &gt;</text>
</g>
</g>
</svg>
