<?xml version="1.0" encoding="UTF-8" standalone="no"?>
<!DOCTYPE svg PUBLIC "-//W3C//DTD SVG 1.1//EN"
 "http://www.w3.org/Graphics/SVG/1.1/DTD/svg11.dtd">
<!-- Generated by graphviz version 2.40.1 (0)
 -->
<!-- Title: CDPL::Grid::SpatialGrid&lt; T, CVT &gt; Pages: 1 -->
<svg width="175pt" height="151pt"
 viewBox="0.00 0.00 175.00 151.00" xmlns="http://www.w3.org/2000/svg" xmlns:xlink="http://www.w3.org/1999/xlink">
<g id="graph0" class="graph" transform="scale(1 1) rotate(0) translate(4 147)">
<title>CDPL::Grid::SpatialGrid&lt; T, CVT &gt;</title>
<!-- Node1 -->
<g id="node1" class="node">
<title>Node1</title>
<g id="a_node1"><a xlink:title="SpatialGrid.">
<polygon fill="#bfbfbf" stroke="#000000" points="19.5,-.5 19.5,-30.5 147.5,-30.5 147.5,-.5 19.5,-.5"/>
<text text-anchor="start" x="27.5" y="-18.5" font-family="Helvetica,sans-Serif" font-size="10.00" fill="#000000">CDPL::Grid::SpatialGrid</text>
<text text-anchor="middle" x="83.5" y="-7.5" font-family="Helvetica,sans-Serif" font-size="10.00" fill="#000000">&lt; T, CVT &gt;</text>
</a>
</g>
</g>
<!-- Node2 -->
<g id="node2" class="node">
<title>Node2</title>
<g id="a_node2"><a xlink:href="classCDPL_1_1Grid_1_1AttributedGrid.html" target="_top" xlink:title="AttributedGrid.">
<polygon fill="none" stroke="#000000" points="12,-67.5 12,-86.5 155,-86.5 155,-67.5 12,-67.5"/>
<text text-anchor="middle" x="83.5" y="-74.5" font-family="Helvetica,sans-Serif" font-size="10.00" fill="#000000">CDPL::Grid::AttributedGrid</text>
</a>
</g>
</g>
<!-- Node2&#45;&gt;Node1 -->
<g id="edge1" class="edge">
<title>Node2&#45;&gt;Node1</title>
<path fill="none" stroke="#191970" d="M83.5,-57.3693C83.5,-48.681 83.5,-38.6241 83.5,-30.5446"/>
<polygon fill="#191970" stroke="#191970" points="80.0001,-57.3906 83.5,-67.3906 87.0001,-57.3907 80.0001,-57.3906"/>
</g>
<!-- Node3 -->
<g id="node3" class="node">
<title>Node3</title>
<g id="a_node3"><a xlink:href="classCDPL_1_1Base_1_1PropertyContainer.html" target="_top" xlink:title="A class providing methods for the storage and lookup of object properties.">
<polygon fill="none" stroke="#000000" points="0,-123.5 0,-142.5 167,-142.5 167,-123.5 0,-123.5"/>
<text text-anchor="middle" x="83.5" y="-130.5" font-family="Helvetica,sans-Serif" font-size="10.00" fill="#000000">CDPL::Base::PropertyContainer</text>
</a>
</g>
</g>
<!-- Node3&#45;&gt;Node2 -->
<g id="edge2" class="edge">
<title>Node3&#45;&gt;Node2</title>
<path fill="none" stroke="#191970" d="M83.5,-113.1575C83.5,-104.155 83.5,-93.9199 83.5,-86.6427"/>
<polygon fill="#191970" stroke="#191970" points="80.0001,-113.2455 83.5,-123.2455 87.0001,-113.2456 80.0001,-113.2455"/>
</g>
</g>
</svg>
