<?xml version="1.0" encoding="UTF-8" standalone="no"?>
<!DOCTYPE svg PUBLIC "-//W3C//DTD SVG 1.1//EN"
 "http://www.w3.org/Graphics/SVG/1.1/DTD/svg11.dtd">
<!-- Generated by graphviz version 2.40.1 (0)
 -->
<!-- Title: CDPL::Util::MultiMap&lt; Key, Value, AllowDefValues, KeyCompFunc &gt; Pages: 1 -->
<svg width="863pt" height="230pt"
 viewBox="0.00 0.00 863.00 230.00" xmlns="http://www.w3.org/2000/svg" xmlns:xlink="http://www.w3.org/1999/xlink">
<g id="graph0" class="graph" transform="scale(1 1) rotate(0) translate(4 226)">
<title>CDPL::Util::MultiMap&lt; Key, Value, AllowDefValues, KeyCompFunc &gt;</title>
<!-- Node1 -->
<g id="node1" class="node">
<title>Node1</title>
<g id="a_node1"><a xlink:title="A multiple sorted associative container that maps keys to values.">
<polygon fill="#bfbfbf" stroke="#000000" points="0,-89.5 0,-130.5 164,-130.5 164,-89.5 0,-89.5"/>
<text text-anchor="start" x="8" y="-118.5" font-family="Helvetica,sans-Serif" font-size="10.00" fill="#000000">CDPL::Util::MultiMap</text>
<text text-anchor="start" x="8" y="-107.5" font-family="Helvetica,sans-Serif" font-size="10.00" fill="#000000">&lt; Key, Value, AllowDefValues,</text>
<text text-anchor="middle" x="82" y="-96.5" font-family="Helvetica,sans-Serif" font-size="10.00" fill="#000000"> KeyCompFunc &gt;</text>
</a>
</g>
</g>
<!-- Node2 -->
<g id="node2" class="node">
<title>Node2</title>
<g id="a_node2"><a xlink:href="classCDPL_1_1Util_1_1MultiMap.html" target="_top" xlink:title=" ">
<polygon fill="none" stroke="#000000" points="323,-180.5 323,-221.5 457,-221.5 457,-180.5 323,-180.5"/>
<text text-anchor="start" x="331" y="-209.5" font-family="Helvetica,sans-Serif" font-size="10.00" fill="#000000">CDPL::Util::MultiMap</text>
<text text-anchor="start" x="331" y="-198.5" font-family="Helvetica,sans-Serif" font-size="10.00" fill="#000000">&lt; const Feature *, const</text>
<text text-anchor="middle" x="390" y="-187.5" font-family="Helvetica,sans-Serif" font-size="10.00" fill="#000000"> Feature *, true &gt;</text>
</a>
</g>
</g>
<!-- Node1&#45;&gt;Node2 -->
<g id="edge1" class="edge">
<title>Node1&#45;&gt;Node2</title>
<path fill="none" stroke="#ffa500" stroke-dasharray="5,2" d="M128.9218,-135.4311C145.3496,-143.5458 164.1554,-151.9736 182,-158 227.9411,-173.515 281.5675,-184.4367 322.8618,-191.3902"/>
<polygon fill="#ffa500" stroke="#ffa500" points="130.0548,-132.0829 119.5493,-130.71 126.9057,-138.3346 130.0548,-132.0829"/>
<text text-anchor="start" x="185" y="-201" font-family="Helvetica,sans-Serif" font-size="10.00" fill="#000000"> &lt; const Feature *,</text>
<text text-anchor="middle" x="242" y="-190" font-family="Helvetica,sans-Serif" font-size="10.00" fill="#000000"> const Feature *, true &gt;</text>
</g>
<!-- Node5 -->
<g id="node5" class="node">
<title>Node5</title>
<g id="a_node5"><a xlink:href="classCDPL_1_1Util_1_1MultiMap.html" target="_top" xlink:title=" ">
<polygon fill="none" stroke="#000000" points="328,-120.5 328,-161.5 452,-161.5 452,-120.5 328,-120.5"/>
<text text-anchor="start" x="336" y="-149.5" font-family="Helvetica,sans-Serif" font-size="10.00" fill="#000000">CDPL::Util::MultiMap</text>
<text text-anchor="start" x="336" y="-138.5" font-family="Helvetica,sans-Serif" font-size="10.00" fill="#000000">&lt; const Atom *, const</text>
<text text-anchor="middle" x="390" y="-127.5" font-family="Helvetica,sans-Serif" font-size="10.00" fill="#000000"> Atom *, true &gt;</text>
</a>
</g>
</g>
<!-- Node1&#45;&gt;Node5 -->
<g id="edge4" class="edge">
<title>Node1&#45;&gt;Node5</title>
<path fill="none" stroke="#ffa500" stroke-dasharray="5,2" d="M174.2201,-119.2819C223.7673,-124.2688 283.5421,-130.2851 327.6021,-134.7197"/>
<polygon fill="#ffa500" stroke="#ffa500" points="174.434,-115.7858 164.1337,-118.2667 173.7329,-122.7506 174.434,-115.7858"/>
<text text-anchor="start" x="186.5" y="-146" font-family="Helvetica,sans-Serif" font-size="10.00" fill="#000000"> &lt; const Atom *, const</text>
<text text-anchor="middle" x="242" y="-135" font-family="Helvetica,sans-Serif" font-size="10.00" fill="#000000"> Atom *, true &gt;</text>
</g>
<!-- Node7 -->
<g id="node7" class="node">
<title>Node7</title>
<g id="a_node7"><a xlink:href="classCDPL_1_1Util_1_1MultiMap.html" target="_top" xlink:title=" ">
<polygon fill="none" stroke="#000000" points="329,-60.5 329,-101.5 451,-101.5 451,-60.5 329,-60.5"/>
<text text-anchor="start" x="337" y="-89.5" font-family="Helvetica,sans-Serif" font-size="10.00" fill="#000000">CDPL::Util::MultiMap</text>
<text text-anchor="start" x="337" y="-78.5" font-family="Helvetica,sans-Serif" font-size="10.00" fill="#000000">&lt; const Bond *, const</text>
<text text-anchor="middle" x="390" y="-67.5" font-family="Helvetica,sans-Serif" font-size="10.00" fill="#000000"> Bond *, true &gt;</text>
</a>
</g>
</g>
<!-- Node1&#45;&gt;Node7 -->
<g id="edge6" class="edge">
<title>Node1&#45;&gt;Node7</title>
<path fill="none" stroke="#ffa500" stroke-dasharray="5,2" d="M174.2164,-93.9368C176.8368,-93.6045 179.4355,-93.2911 182,-93 231.2384,-87.4118 287.3459,-84.368 328.8689,-82.7457"/>
<polygon fill="#ffa500" stroke="#ffa500" points="173.4722,-90.5052 164.0268,-95.3048 174.4037,-97.443 173.4722,-90.5052"/>
<text text-anchor="start" x="187.5" y="-107" font-family="Helvetica,sans-Serif" font-size="10.00" fill="#000000"> &lt; const Bond *, const</text>
<text text-anchor="middle" x="242" y="-96" font-family="Helvetica,sans-Serif" font-size="10.00" fill="#000000"> Bond *, true &gt;</text>
</g>
<!-- Node9 -->
<g id="node9" class="node">
<title>Node9</title>
<g id="a_node9"><a xlink:href="classCDPL_1_1Util_1_1MultiMap.html" target="_top" xlink:title=" ">
<polygon fill="none" stroke="#000000" points="320,-.5 320,-41.5 460,-41.5 460,-.5 320,-.5"/>
<text text-anchor="start" x="328" y="-29.5" font-family="Helvetica,sans-Serif" font-size="10.00" fill="#000000">CDPL::Util::MultiMap</text>
<text text-anchor="start" x="328" y="-18.5" font-family="Helvetica,sans-Serif" font-size="10.00" fill="#000000">&lt; const Entity3D *, const</text>
<text text-anchor="middle" x="390" y="-7.5" font-family="Helvetica,sans-Serif" font-size="10.00" fill="#000000"> Entity3D *, true &gt;</text>
</a>
</g>
</g>
<!-- Node1&#45;&gt;Node9 -->
<g id="edge8" class="edge">
<title>Node1&#45;&gt;Node9</title>
<path fill="none" stroke="#ffa500" stroke-dasharray="5,2" d="M125.2838,-84.4453C142.4549,-75.2446 162.685,-65.533 182,-59 226.684,-43.8862 278.9165,-34.3709 319.861,-28.6417"/>
<polygon fill="#ffa500" stroke="#ffa500" points="123.1757,-81.6092 116.0843,-89.4808 126.5367,-87.7495 123.1757,-81.6092"/>
<text text-anchor="start" x="182" y="-73" font-family="Helvetica,sans-Serif" font-size="10.00" fill="#000000"> &lt; const Entity3D *,</text>
<text text-anchor="middle" x="242" y="-62" font-family="Helvetica,sans-Serif" font-size="10.00" fill="#000000"> const Entity3D *, true &gt;</text>
</g>
<!-- Node3 -->
<g id="node3" class="node">
<title>Node3</title>
<g id="a_node3"><a xlink:href="classCDPL_1_1Pharm_1_1FeatureMapping.html" target="_top" xlink:title="A data type for the storage and lookup of arbitrary feature to feature mappings.">
<polygon fill="none" stroke="#000000" points="498.5,-191.5 498.5,-210.5 661.5,-210.5 661.5,-191.5 498.5,-191.5"/>
<text text-anchor="middle" x="580" y="-198.5" font-family="Helvetica,sans-Serif" font-size="10.00" fill="#000000">CDPL::Pharm::FeatureMapping</text>
</a>
</g>
</g>
<!-- Node2&#45;&gt;Node3 -->
<g id="edge2" class="edge">
<title>Node2&#45;&gt;Node3</title>
<path fill="none" stroke="#191970" d="M467.3118,-201C477.4809,-201 487.9303,-201 498.1715,-201"/>
<polygon fill="#191970" stroke="#191970" points="467.2543,-197.5001 457.2543,-201 467.2542,-204.5001 467.2543,-197.5001"/>
</g>
<!-- Node4 -->
<g id="node4" class="node">
<title>Node4</title>
<g id="a_node4"><a xlink:href="classCDPL_1_1Pharm_1_1SpatialFeatureMapping.html" target="_top" xlink:title="SpatialFeatureMapping.">
<polygon fill="none" stroke="#000000" points="700,-186 700,-216 855,-216 855,-186 700,-186"/>
<text text-anchor="start" x="708" y="-204" font-family="Helvetica,sans-Serif" font-size="10.00" fill="#000000">CDPL::Pharm::SpatialFeature</text>
<text text-anchor="middle" x="777.5" y="-193" font-family="Helvetica,sans-Serif" font-size="10.00" fill="#000000">Mapping</text>
</a>
</g>
</g>
<!-- Node3&#45;&gt;Node4 -->
<g id="edge3" class="edge">
<title>Node3&#45;&gt;Node4</title>
<path fill="none" stroke="#191970" d="M671.8844,-201C681.2629,-201 690.7244,-201 699.9283,-201"/>
<polygon fill="#191970" stroke="#191970" points="671.7565,-197.5001 661.7565,-201 671.7564,-204.5001 671.7565,-197.5001"/>
</g>
<!-- Node6 -->
<g id="node6" class="node">
<title>Node6</title>
<g id="a_node6"><a xlink:href="classCDPL_1_1Chem_1_1AtomMapping.html" target="_top" xlink:title="A data type for the storage and lookup of arbitrary atom to atom mappings.">
<polygon fill="none" stroke="#000000" points="505,-131.5 505,-150.5 655,-150.5 655,-131.5 505,-131.5"/>
<text text-anchor="middle" x="580" y="-138.5" font-family="Helvetica,sans-Serif" font-size="10.00" fill="#000000">CDPL::Chem::AtomMapping</text>
</a>
</g>
</g>
<!-- Node5&#45;&gt;Node6 -->
<g id="edge5" class="edge">
<title>Node5&#45;&gt;Node6</title>
<path fill="none" stroke="#191970" d="M462.6071,-141C476.3966,-141 490.8535,-141 504.7236,-141"/>
<polygon fill="#191970" stroke="#191970" points="462.2131,-137.5001 452.2131,-141 462.2131,-144.5001 462.2131,-137.5001"/>
</g>
<!-- Node8 -->
<g id="node8" class="node">
<title>Node8</title>
<g id="a_node8"><a xlink:href="classCDPL_1_1Chem_1_1BondMapping.html" target="_top" xlink:title="A data type for the storage and lookup of arbitrary bond to bond mappings.">
<polygon fill="none" stroke="#000000" points="505.5,-71.5 505.5,-90.5 654.5,-90.5 654.5,-71.5 505.5,-71.5"/>
<text text-anchor="middle" x="580" y="-78.5" font-family="Helvetica,sans-Serif" font-size="10.00" fill="#000000">CDPL::Chem::BondMapping</text>
</a>
</g>
</g>
<!-- Node7&#45;&gt;Node8 -->
<g id="edge7" class="edge">
<title>Node7&#45;&gt;Node8</title>
<path fill="none" stroke="#191970" d="M461.4453,-81C475.7795,-81 490.8774,-81 505.3182,-81"/>
<polygon fill="#191970" stroke="#191970" points="461.1631,-77.5001 451.163,-81 461.163,-84.5001 461.1631,-77.5001"/>
</g>
<!-- Node10 -->
<g id="node10" class="node">
<title>Node10</title>
<g id="a_node10"><a xlink:href="classCDPL_1_1Chem_1_1Entity3DMapping.html" target="_top" xlink:title="A data type for the storage and lookup of arbitrary entity to entity mappings.">
<polygon fill="none" stroke="#000000" points="497,-11.5 497,-30.5 663,-30.5 663,-11.5 497,-11.5"/>
<text text-anchor="middle" x="580" y="-18.5" font-family="Helvetica,sans-Serif" font-size="10.00" fill="#000000">CDPL::Chem::Entity3DMapping</text>
</a>
</g>
</g>
<!-- Node9&#45;&gt;Node10 -->
<g id="edge9" class="edge">
<title>Node9&#45;&gt;Node10</title>
<path fill="none" stroke="#191970" d="M470.403,-21C479.1688,-21 488.1045,-21 496.9019,-21"/>
<polygon fill="#191970" stroke="#191970" points="470.2092,-17.5001 460.2092,-21 470.2091,-24.5001 470.2092,-17.5001"/>
</g>
</g>
</svg>
