<?xml version="1.0" encoding="UTF-8" standalone="no"?>
<!DOCTYPE svg PUBLIC "-//W3C//DTD SVG 1.1//EN"
 "http://www.w3.org/Graphics/SVG/1.1/DTD/svg11.dtd">
<!-- Generated by graphviz version 2.40.1 (0)
 -->
<!-- Title: CDPL::Util::CompressedDataReader&lt; ReaderImpl, DecompStream, DataType &gt; Pages: 1 -->
<svg width="295pt" height="332pt"
 viewBox="0.00 0.00 295.00 332.00" xmlns="http://www.w3.org/2000/svg" xmlns:xlink="http://www.w3.org/1999/xlink">
<g id="graph0" class="graph" transform="scale(1 1) rotate(0) translate(4 328)">
<title>CDPL::Util::CompressedDataReader&lt; ReaderImpl, DecompStream, DataType &gt;</title>
<!-- Node1 -->
<g id="node1" class="node">
<title>Node1</title>
<g id="a_node1"><a xlink:title="CompressedDataReader.">
<polygon fill="#bfbfbf" stroke="#000000" points="0,-.5 0,-41.5 202,-41.5 202,-.5 0,-.5"/>
<text text-anchor="start" x="8" y="-29.5" font-family="Helvetica,sans-Serif" font-size="10.00" fill="#000000">CDPL::Util::CompressedData</text>
<text text-anchor="start" x="8" y="-18.5" font-family="Helvetica,sans-Serif" font-size="10.00" fill="#000000">Reader&lt; ReaderImpl, DecompStream,</text>
<text text-anchor="middle" x="101" y="-7.5" font-family="Helvetica,sans-Serif" font-size="10.00" fill="#000000"> DataType &gt;</text>
</a>
</g>
</g>
<!-- Node2 -->
<g id="node2" class="node">
<title>Node2</title>
<g id="a_node2"><a xlink:href="classCDPL_1_1Base_1_1DataReader.html" target="_top" xlink:title=" ">
<polygon fill="none" stroke="#000000" points="33,-79.5 33,-120.5 169,-120.5 169,-79.5 33,-79.5"/>
<text text-anchor="start" x="41" y="-108.5" font-family="Helvetica,sans-Serif" font-size="10.00" fill="#000000">CDPL::Base::DataReader</text>
<text text-anchor="start" x="41" y="-97.5" font-family="Helvetica,sans-Serif" font-size="10.00" fill="#000000">&lt; typename ReaderImpl</text>
<text text-anchor="middle" x="101" y="-86.5" font-family="Helvetica,sans-Serif" font-size="10.00" fill="#000000">::DataType &gt;</text>
</a>
</g>
</g>
<!-- Node2&#45;&gt;Node1 -->
<g id="edge1" class="edge">
<title>Node2&#45;&gt;Node1</title>
<path fill="none" stroke="#191970" d="M101,-69.2029C101,-59.9553 101,-50.038 101,-41.6177"/>
<polygon fill="#191970" stroke="#191970" points="97.5001,-69.2436 101,-79.2437 104.5001,-69.2437 97.5001,-69.2436"/>
</g>
<!-- Node3 -->
<g id="node3" class="node">
<title>Node3</title>
<g id="a_node3"><a xlink:href="classCDPL_1_1Base_1_1DataIOBase.html" target="_top" xlink:title="Provides infrastructure for the registration of I/O callback functions.">
<polygon fill="none" stroke="#000000" points="29,-236.5 29,-255.5 165,-255.5 165,-236.5 29,-236.5"/>
<text text-anchor="middle" x="97" y="-243.5" font-family="Helvetica,sans-Serif" font-size="10.00" fill="#000000">CDPL::Base::DataIOBase</text>
</a>
</g>
</g>
<!-- Node3&#45;&gt;Node2 -->
<g id="edge2" class="edge">
<title>Node3&#45;&gt;Node2</title>
<path fill="none" stroke="#191970" d="M97.537,-226.4002C98.2939,-198.7713 99.6681,-148.6127 100.4383,-120.5025"/>
<polygon fill="#191970" stroke="#191970" points="94.0377,-226.3284 97.2625,-236.4205 101.0351,-226.5202 94.0377,-226.3284"/>
</g>
<!-- Node5 -->
<g id="node5" class="node">
<title>Node5</title>
<g id="a_node5"><a xlink:href="classCDPL_1_1Base_1_1DataReader.html" target="_top" xlink:title="An interface for reading data objects of a given type from an arbitrary data source.">
<polygon fill="none" stroke="#000000" points="113,-179.5 113,-198.5 277,-198.5 277,-179.5 113,-179.5"/>
<text text-anchor="middle" x="195" y="-186.5" font-family="Helvetica,sans-Serif" font-size="10.00" fill="#000000">CDPL::Base::DataReader&lt; T &gt;</text>
</a>
</g>
</g>
<!-- Node3&#45;&gt;Node5 -->
<g id="edge5" class="edge">
<title>Node3&#45;&gt;Node5</title>
<path fill="none" stroke="#191970" d="M122.3352,-231.2642C140.0766,-220.9452 163.265,-207.4581 178.6212,-198.5265"/>
<polygon fill="#191970" stroke="#191970" points="120.5088,-228.2775 113.6244,-236.3307 124.0283,-234.3284 120.5088,-228.2775"/>
</g>
<!-- Node4 -->
<g id="node4" class="node">
<title>Node4</title>
<g id="a_node4"><a xlink:href="classCDPL_1_1Base_1_1ControlParameterContainer.html" target="_top" xlink:title="A class providing methods for the storage and lookup of control&#45;parameter values.">
<polygon fill="none" stroke="#000000" points="15,-293.5 15,-323.5 179,-323.5 179,-293.5 15,-293.5"/>
<text text-anchor="start" x="23" y="-311.5" font-family="Helvetica,sans-Serif" font-size="10.00" fill="#000000">CDPL::Base::ControlParameter</text>
<text text-anchor="middle" x="97" y="-300.5" font-family="Helvetica,sans-Serif" font-size="10.00" fill="#000000">Container</text>
</a>
</g>
</g>
<!-- Node4&#45;&gt;Node3 -->
<g id="edge3" class="edge">
<title>Node4&#45;&gt;Node3</title>
<path fill="none" stroke="#191970" d="M97,-283.3498C97,-273.6481 97,-263.1303 97,-255.7356"/>
<polygon fill="#191970" stroke="#191970" points="93.5001,-283.3705 97,-293.3705 100.5001,-283.3705 93.5001,-283.3705"/>
</g>
<!-- Node5&#45;&gt;Node2 -->
<g id="edge4" class="edge">
<title>Node5&#45;&gt;Node2</title>
<path fill="none" stroke="#ffa500" stroke-dasharray="5,2" d="M177.5604,-172.4881C162.0537,-157.8061 139.3204,-136.2821 122.654,-120.5022"/>
<polygon fill="#ffa500" stroke="#ffa500" points="175.2724,-175.1417 184.9404,-179.4754 180.0851,-170.0586 175.2724,-175.1417"/>
<text text-anchor="start" x="164" y="-153" font-family="Helvetica,sans-Serif" font-size="10.00" fill="#000000"> &lt; typename ReaderImpl</text>
<text text-anchor="middle" x="225.5" y="-142" font-family="Helvetica,sans-Serif" font-size="10.00" fill="#000000">::DataType &gt;</text>
</g>
</g>
</svg>
