<?xml version="1.0" encoding="UTF-8" standalone="no"?>
<!DOCTYPE svg PUBLIC "-//W3C//DTD SVG 1.1//EN"
 "http://www.w3.org/Graphics/SVG/1.1/DTD/svg11.dtd">
<!-- Generated by graphviz version 2.40.1 (0)
 -->
<!-- Title: CDPL::Math::ScalarMatrix&lt; T &gt; Pages: 1 -->
<svg width="1585pt" height="120pt"
 viewBox="0.00 0.00 1585.00 119.50" xmlns="http://www.w3.org/2000/svg" xmlns:xlink="http://www.w3.org/1999/xlink">
<g id="graph0" class="graph" transform="scale(1 1) rotate(0) translate(4 115.5)">
<title>CDPL::Math::ScalarMatrix&lt; T &gt;</title>
<!-- Node1 -->
<g id="node1" class="node">
<title>Node1</title>
<g id="a_node1"><a xlink:title=" ">
<polygon fill="#bfbfbf" stroke="#000000" points="1410,-47.5 1410,-66.5 1577,-66.5 1577,-47.5 1410,-47.5"/>
<text text-anchor="middle" x="1493.5" y="-54.5" font-family="Helvetica,sans-Serif" font-size="10.00" fill="#000000">CDPL::Math::ScalarMatrix&lt; T &gt;</text>
</a>
</g>
</g>
<!-- Node2 -->
<g id="node2" class="node">
<title>Node2</title>
<g id="a_node2"><a xlink:href="classCDPL_1_1Math_1_1MatrixContainer.html" target="_top" xlink:title=" ">
<polygon fill="none" stroke="#000000" points="1217,-42 1217,-72 1373,-72 1373,-42 1217,-42"/>
<text text-anchor="start" x="1225" y="-60" font-family="Helvetica,sans-Serif" font-size="10.00" fill="#000000">CDPL::Math::MatrixContainer</text>
<text text-anchor="middle" x="1295" y="-49" font-family="Helvetica,sans-Serif" font-size="10.00" fill="#000000">&lt; ScalarMatrix&lt; T &gt; &gt;</text>
</a>
</g>
</g>
<!-- Node2&#45;&gt;Node1 -->
<g id="edge1" class="edge">
<title>Node2&#45;&gt;Node1</title>
<path fill="none" stroke="#191970" d="M1383.4147,-57C1392.2029,-57 1401.1059,-57 1409.8435,-57"/>
<polygon fill="#191970" stroke="#191970" points="1383.1675,-53.5001 1373.1675,-57 1383.1675,-60.5001 1383.1675,-53.5001"/>
</g>
<!-- Node3 -->
<g id="node3" class="node">
<title>Node3</title>
<g id="a_node3"><a xlink:href="classCDPL_1_1Math_1_1MatrixExpression.html" target="_top" xlink:title=" ">
<polygon fill="none" stroke="#000000" points="667.5,-62 667.5,-92 829.5,-92 829.5,-62 667.5,-62"/>
<text text-anchor="start" x="675.5" y="-80" font-family="Helvetica,sans-Serif" font-size="10.00" fill="#000000">CDPL::Math::MatrixExpression</text>
<text text-anchor="middle" x="748.5" y="-69" font-family="Helvetica,sans-Serif" font-size="10.00" fill="#000000">&lt; ScalarMatrix&lt; T &gt; &gt;</text>
</a>
</g>
</g>
<!-- Node3&#45;&gt;Node2 -->
<g id="edge2" class="edge">
<title>Node3&#45;&gt;Node2</title>
<path fill="none" stroke="#191970" d="M839.9128,-74.4588C930.9419,-71.8098 1074.6577,-67.3077 1199,-62 1204.8359,-61.7509 1210.8705,-61.4764 1216.9404,-61.1882"/>
<polygon fill="#191970" stroke="#191970" points="839.7958,-70.9606 829.9014,-74.7488 839.9986,-77.9577 839.7958,-70.9606"/>
</g>
<!-- Node4 -->
<g id="node4" class="node">
<title>Node4</title>
<g id="a_node4"><a xlink:href="classCDPL_1_1Math_1_1Expression.html" target="_top" xlink:title=" ">
<polygon fill="none" stroke="#000000" points="341,-81 341,-111 472,-111 472,-81 341,-81"/>
<text text-anchor="start" x="349" y="-99" font-family="Helvetica,sans-Serif" font-size="10.00" fill="#000000">CDPL::Math::Expression</text>
<text text-anchor="middle" x="406.5" y="-88" font-family="Helvetica,sans-Serif" font-size="10.00" fill="#000000">&lt; ScalarMatrix&lt; T &gt; &gt;</text>
</a>
</g>
</g>
<!-- Node4&#45;&gt;Node3 -->
<g id="edge3" class="edge">
<title>Node4&#45;&gt;Node3</title>
<path fill="none" stroke="#191970" d="M482.1652,-92.2C526.6714,-89.9214 584.0401,-86.9095 635,-84 645.4464,-83.4036 656.4322,-82.7541 667.2862,-82.099"/>
<polygon fill="#191970" stroke="#191970" points="481.8165,-88.7131 472.008,-92.7187 482.1736,-95.704 481.8165,-88.7131"/>
</g>
<!-- Node5 -->
<g id="node5" class="node">
<title>Node5</title>
<g id="a_node5"><a xlink:href="classCDPL_1_1Math_1_1Expression.html" target="_top" xlink:title=" ">
<polygon fill="none" stroke="#000000" points="0,-41.5 0,-60.5 160,-60.5 160,-41.5 0,-41.5"/>
<text text-anchor="middle" x="80" y="-48.5" font-family="Helvetica,sans-Serif" font-size="10.00" fill="#000000">CDPL::Math::Expression&lt; E &gt;</text>
</a>
</g>
</g>
<!-- Node5&#45;&gt;Node4 -->
<g id="edge4" class="edge">
<title>Node5&#45;&gt;Node4</title>
<path fill="none" stroke="#ffa500" stroke-dasharray="5,2" d="M156.1803,-61.9365C163.5532,-62.9788 170.9198,-64.014 178,-65 232.9165,-72.6477 295.2931,-81.094 340.9838,-87.2363"/>
<polygon fill="#ffa500" stroke="#ffa500" points="156.541,-58.4527 146.1487,-60.5146 155.5585,-65.3834 156.541,-58.4527"/>
<text text-anchor="middle" x="235.5" y="-83" font-family="Helvetica,sans-Serif" font-size="10.00" fill="#000000"> &lt; ScalarMatrix&lt; T &gt; &gt;</text>
</g>
<!-- Node6 -->
<g id="node6" class="node">
<title>Node6</title>
<g id="a_node6"><a xlink:href="classCDPL_1_1Math_1_1MatrixExpression.html" target="_top" xlink:title=" ">
<polygon fill="none" stroke="#000000" points="311,-41.5 311,-60.5 502,-60.5 502,-41.5 311,-41.5"/>
<text text-anchor="middle" x="406.5" y="-48.5" font-family="Helvetica,sans-Serif" font-size="10.00" fill="#000000">CDPL::Math::MatrixExpression&lt; E &gt;</text>
</a>
</g>
</g>
<!-- Node5&#45;&gt;Node6 -->
<g id="edge6" class="edge">
<title>Node5&#45;&gt;Node6</title>
<path fill="none" stroke="#191970" d="M170.3298,-51C214.0142,-51 266.4666,-51 310.8321,-51"/>
<polygon fill="#191970" stroke="#191970" points="170.2891,-47.5001 160.2891,-51 170.289,-54.5001 170.2891,-47.5001"/>
</g>
<!-- Node9 -->
<g id="node9" class="node">
<title>Node9</title>
<g id="a_node9"><a xlink:href="classCDPL_1_1Math_1_1Expression.html" target="_top" xlink:title=" ">
<polygon fill="none" stroke="#000000" points="326,-.5 326,-19.5 487,-19.5 487,-.5 326,-.5"/>
<text text-anchor="middle" x="406.5" y="-7.5" font-family="Helvetica,sans-Serif" font-size="10.00" fill="#000000">CDPL::Math::Expression&lt; C &gt;</text>
</a>
</g>
</g>
<!-- Node5&#45;&gt;Node9 -->
<g id="edge10" class="edge">
<title>Node5&#45;&gt;Node9</title>
<path fill="none" stroke="#ffa500" stroke-dasharray="5,2" d="M149.9519,-39.9565C159.3722,-38.5679 168.9164,-37.2115 178,-36 226.9749,-29.4681 281.9955,-23.1757 325.7728,-18.4176"/>
<polygon fill="#ffa500" stroke="#ffa500" points="149.18,-36.5329 139.8062,-41.4706 150.2133,-43.4562 149.18,-36.5329"/>
<text text-anchor="middle" x="235.5" y="-39" font-family="Helvetica,sans-Serif" font-size="10.00" fill="#000000"> &lt; C &gt;</text>
</g>
<!-- Node6&#45;&gt;Node3 -->
<g id="edge5" class="edge">
<title>Node6&#45;&gt;Node3</title>
<path fill="none" stroke="#ffa500" stroke-dasharray="5,2" d="M512.4075,-59.0514C562.3272,-62.8465 620.9463,-67.3029 667.2856,-70.8258"/>
<polygon fill="#ffa500" stroke="#ffa500" points="512.4574,-55.5452 502.2208,-58.277 511.9267,-62.5251 512.4574,-55.5452"/>
<text text-anchor="middle" x="577.5" y="-70" font-family="Helvetica,sans-Serif" font-size="10.00" fill="#000000"> &lt; ScalarMatrix&lt; T &gt; &gt;</text>
</g>
<!-- Node8 -->
<g id="node8" class="node">
<title>Node8</title>
<g id="a_node8"><a xlink:href="classCDPL_1_1Math_1_1MatrixExpression.html" target="_top" xlink:title=" ">
<polygon fill="none" stroke="#000000" points="653,-23.5 653,-42.5 844,-42.5 844,-23.5 653,-23.5"/>
<text text-anchor="middle" x="748.5" y="-30.5" font-family="Helvetica,sans-Serif" font-size="10.00" fill="#000000">CDPL::Math::MatrixExpression&lt; C &gt;</text>
</a>
</g>
</g>
<!-- Node6&#45;&gt;Node8 -->
<g id="edge11" class="edge">
<title>Node6&#45;&gt;Node8</title>
<path fill="none" stroke="#ffa500" stroke-dasharray="5,2" d="M499.4029,-40.5744C506.3675,-39.9777 513.2915,-39.442 520,-39 563.5577,-36.13 611.8713,-34.6186 652.8116,-33.8282"/>
<polygon fill="#ffa500" stroke="#ffa500" points="498.8385,-37.1108 489.1904,-41.4885 499.4626,-44.0829 498.8385,-37.1108"/>
<text text-anchor="middle" x="577.5" y="-42" font-family="Helvetica,sans-Serif" font-size="10.00" fill="#000000"> &lt; C &gt;</text>
</g>
<!-- Node7 -->
<g id="node7" class="node">
<title>Node7</title>
<g id="a_node7"><a xlink:href="classCDPL_1_1Math_1_1MatrixContainer.html" target="_top" xlink:title=" ">
<polygon fill="none" stroke="#000000" points="881,-27.5 881,-46.5 1066,-46.5 1066,-27.5 881,-27.5"/>
<text text-anchor="middle" x="973.5" y="-34.5" font-family="Helvetica,sans-Serif" font-size="10.00" fill="#000000">CDPL::Math::MatrixContainer&lt; C &gt;</text>
</a>
</g>
</g>
<!-- Node7&#45;&gt;Node2 -->
<g id="edge7" class="edge">
<title>Node7&#45;&gt;Node2</title>
<path fill="none" stroke="#ffa500" stroke-dasharray="5,2" d="M1076.381,-43.3783C1114.854,-45.7659 1158.9298,-48.5039 1199,-51 1204.8334,-51.3634 1210.8662,-51.7395 1216.9348,-52.1182"/>
<polygon fill="#ffa500" stroke="#ffa500" points="1076.4056,-39.8732 1066.208,-42.747 1075.972,-46.8597 1076.4056,-39.8732"/>
<text text-anchor="middle" x="1141.5" y="-54" font-family="Helvetica,sans-Serif" font-size="10.00" fill="#000000"> &lt; ScalarMatrix&lt; T &gt; &gt;</text>
</g>
<!-- Node8&#45;&gt;Node7 -->
<g id="edge8" class="edge">
<title>Node8&#45;&gt;Node7</title>
<path fill="none" stroke="#191970" d="M854.4891,-34.8843C863.2459,-35.0399 872.0554,-35.1965 880.7045,-35.3503"/>
<polygon fill="#191970" stroke="#191970" points="854.3072,-31.3806 844.2465,-34.7022 854.1827,-38.3795 854.3072,-31.3806"/>
</g>
<!-- Node9&#45;&gt;Node8 -->
<g id="edge9" class="edge">
<title>Node9&#45;&gt;Node8</title>
<path fill="none" stroke="#191970" d="M497.1919,-16.0992C545.2231,-19.3293 604.1914,-23.295 652.9333,-26.573"/>
<polygon fill="#191970" stroke="#191970" points="497.3285,-12.6005 487.1162,-15.4216 496.8587,-19.5848 497.3285,-12.6005"/>
</g>
</g>
</svg>
