<?xml version="1.0" encoding="UTF-8" standalone="no"?>
<!DOCTYPE svg PUBLIC "-//W3C//DTD SVG 1.1//EN"
 "http://www.w3.org/Graphics/SVG/1.1/DTD/svg11.dtd">
<!-- Generated by graphviz version 2.40.1 (0)
 -->
<!-- Title: CDPL::Base::DataInputHandler&lt; T &gt; Pages: 1 -->
<svg width="778pt" height="149pt"
 viewBox="0.00 0.00 778.00 149.00" xmlns="http://www.w3.org/2000/svg" xmlns:xlink="http://www.w3.org/1999/xlink">
<g id="graph0" class="graph" transform="scale(1 1) rotate(0) translate(4 145)">
<title>CDPL::Base::DataInputHandler&lt; T &gt;</title>
<!-- Node1 -->
<g id="node1" class="node">
<title>Node1</title>
<g id="a_node1"><a xlink:title="A factory interface providing methods for the creation of Base::DataReader instances handling a parti...">
<polygon fill="#bfbfbf" stroke="#000000" points="0,-61 0,-80 193,-80 193,-61 0,-61"/>
<text text-anchor="middle" x="96.5" y="-68" font-family="Helvetica,sans-Serif" font-size="10.00" fill="#000000">CDPL::Base::DataInputHandler&lt; T &gt;</text>
</a>
</g>
</g>
<!-- Node2 -->
<g id="node2" class="node">
<title>Node2</title>
<g id="a_node2"><a xlink:href="classCDPL_1_1Base_1_1DataInputHandler.html" target="_top" xlink:title=" ">
<polygon fill="none" stroke="#000000" points="369.5,-108.5 369.5,-138.5 533.5,-138.5 533.5,-108.5 369.5,-108.5"/>
<text text-anchor="start" x="377.5" y="-126.5" font-family="Helvetica,sans-Serif" font-size="10.00" fill="#000000">CDPL::Base::DataInputHandler</text>
<text text-anchor="middle" x="451.5" y="-115.5" font-family="Helvetica,sans-Serif" font-size="10.00" fill="#000000">&lt; Chem::Molecule &gt;</text>
</a>
</g>
</g>
<!-- Node1&#45;&gt;Node2 -->
<g id="edge1" class="edge">
<title>Node1&#45;&gt;Node2</title>
<path fill="none" stroke="#ffa500" stroke-dasharray="5,2" d="M143.4553,-82.4048C164.073,-87.3094 188.6319,-92.7169 211,-96.5 263.4057,-105.3633 322.7439,-112.0599 369.3672,-116.5669"/>
<polygon fill="#ffa500" stroke="#ffa500" points="144.2192,-78.9888 133.6773,-80.0468 142.5781,-85.7937 144.2192,-78.9888"/>
<text text-anchor="middle" x="272.5" y="-114.5" font-family="Helvetica,sans-Serif" font-size="10.00" fill="#000000"> &lt; Chem::Molecule &gt;</text>
</g>
<!-- Node4 -->
<g id="node4" class="node">
<title>Node4</title>
<g id="a_node4"><a xlink:href="classCDPL_1_1Base_1_1DataInputHandler.html" target="_top" xlink:title=" ">
<polygon fill="none" stroke="#000000" points="352,-55.5 352,-85.5 551,-85.5 551,-55.5 352,-55.5"/>
<text text-anchor="start" x="360" y="-73.5" font-family="Helvetica,sans-Serif" font-size="10.00" fill="#000000">CDPL::Base::DataInputHandler</text>
<text text-anchor="middle" x="451.5" y="-62.5" font-family="Helvetica,sans-Serif" font-size="10.00" fill="#000000">&lt; typename ReaderImpl::DataType &gt;</text>
</a>
</g>
</g>
<!-- Node1&#45;&gt;Node4 -->
<g id="edge3" class="edge">
<title>Node1&#45;&gt;Node4</title>
<path fill="none" stroke="#ffa500" stroke-dasharray="5,2" d="M203.2838,-70.5C250.4506,-70.5 305.5815,-70.5 351.8896,-70.5"/>
<polygon fill="#ffa500" stroke="#ffa500" points="203.0364,-67.0001 193.0364,-70.5 203.0364,-74.0001 203.0364,-67.0001"/>
<text text-anchor="start" x="211" y="-84.5" font-family="Helvetica,sans-Serif" font-size="10.00" fill="#000000"> &lt; typename ReaderImpl</text>
<text text-anchor="middle" x="272.5" y="-73.5" font-family="Helvetica,sans-Serif" font-size="10.00" fill="#000000">::DataType &gt;</text>
</g>
<!-- Node6 -->
<g id="node6" class="node">
<title>Node6</title>
<g id="a_node6"><a xlink:href="classCDPL_1_1Base_1_1DataInputHandler.html" target="_top" xlink:title=" ">
<polygon fill="none" stroke="#000000" points="369.5,-3.5 369.5,-33.5 533.5,-33.5 533.5,-3.5 369.5,-3.5"/>
<text text-anchor="start" x="377.5" y="-21.5" font-family="Helvetica,sans-Serif" font-size="10.00" fill="#000000">CDPL::Base::DataInputHandler</text>
<text text-anchor="middle" x="451.5" y="-10.5" font-family="Helvetica,sans-Serif" font-size="10.00" fill="#000000">&lt; Pharmacophore &gt;</text>
</a>
</g>
</g>
<!-- Node1&#45;&gt;Node6 -->
<g id="edge5" class="edge">
<title>Node1&#45;&gt;Node6</title>
<path fill="none" stroke="#ffa500" stroke-dasharray="5,2" d="M171.8008,-59.47C229.7377,-50.9835 309.7078,-39.2696 369.3032,-30.5401"/>
<polygon fill="#ffa500" stroke="#ffa500" points="170.9996,-56.0499 161.6125,-60.9624 172.0142,-62.976 170.9996,-56.0499"/>
<text text-anchor="middle" x="272.5" y="-56.5" font-family="Helvetica,sans-Serif" font-size="10.00" fill="#000000"> &lt; Pharmacophore &gt;</text>
</g>
<!-- Node3 -->
<g id="node3" class="node">
<title>Node3</title>
<g id="a_node3"><a xlink:href="classCDPL_1_1Pharm_1_1PSDMoleculeInputHandler.html" target="_top" xlink:title="A handler for the input of molecule data in the PSD&#45;format of the CDPL.">
<polygon fill="none" stroke="#000000" points="604.5,-110.5 604.5,-140.5 753.5,-140.5 753.5,-110.5 604.5,-110.5"/>
<text text-anchor="start" x="612.5" y="-128.5" font-family="Helvetica,sans-Serif" font-size="10.00" fill="#000000">CDPL::Pharm::PSDMolecule</text>
<text text-anchor="middle" x="679" y="-117.5" font-family="Helvetica,sans-Serif" font-size="10.00" fill="#000000">InputHandler</text>
</a>
</g>
</g>
<!-- Node2&#45;&gt;Node3 -->
<g id="edge2" class="edge">
<title>Node2&#45;&gt;Node3</title>
<path fill="none" stroke="#191970" d="M543.7264,-124.3108C563.8231,-124.4875 584.8501,-124.6723 604.1732,-124.8422"/>
<polygon fill="#191970" stroke="#191970" points="543.6631,-120.8102 533.6327,-124.222 543.6015,-127.8099 543.6631,-120.8102"/>
</g>
<!-- Node5 -->
<g id="node5" class="node">
<title>Node5</title>
<g id="a_node5"><a xlink:href="classCDPL_1_1Util_1_1DefaultDataInputHandler.html" target="_top" xlink:title="DefaultDataInputHandler.">
<polygon fill="none" stroke="#000000" points="596.5,-50 596.5,-91 761.5,-91 761.5,-50 596.5,-50"/>
<text text-anchor="start" x="604.5" y="-79" font-family="Helvetica,sans-Serif" font-size="10.00" fill="#000000">CDPL::Util::DefaultDataInput</text>
<text text-anchor="start" x="604.5" y="-68" font-family="Helvetica,sans-Serif" font-size="10.00" fill="#000000">Handler&lt; ReaderImpl, Format,</text>
<text text-anchor="middle" x="679" y="-57" font-family="Helvetica,sans-Serif" font-size="10.00" fill="#000000"> DataType &gt;</text>
</a>
</g>
</g>
<!-- Node4&#45;&gt;Node5 -->
<g id="edge4" class="edge">
<title>Node4&#45;&gt;Node5</title>
<path fill="none" stroke="#191970" d="M561.5477,-70.5C573.2557,-70.5 585.016,-70.5 596.3319,-70.5"/>
<polygon fill="#191970" stroke="#191970" points="561.2848,-67.0001 551.2848,-70.5 561.2848,-74.0001 561.2848,-67.0001"/>
</g>
<!-- Node7 -->
<g id="node7" class="node">
<title>Node7</title>
<g id="a_node7"><a xlink:href="classCDPL_1_1Pharm_1_1PSDPharmacophoreInputHandler.html" target="_top" xlink:title="A handler for the input of pharmacophore data in the PSD&#45;format of the CDPL.">
<polygon fill="none" stroke="#000000" points="588,-.5 588,-30.5 770,-30.5 770,-.5 588,-.5"/>
<text text-anchor="start" x="596" y="-18.5" font-family="Helvetica,sans-Serif" font-size="10.00" fill="#000000">CDPL::Pharm::PSDPharmacophore</text>
<text text-anchor="middle" x="679" y="-7.5" font-family="Helvetica,sans-Serif" font-size="10.00" fill="#000000">InputHandler</text>
</a>
</g>
</g>
<!-- Node6&#45;&gt;Node7 -->
<g id="edge6" class="edge">
<title>Node6&#45;&gt;Node7</title>
<path fill="none" stroke="#191970" d="M544.0352,-17.2798C558.4548,-17.0896 573.346,-16.8932 587.737,-16.7035"/>
<polygon fill="#191970" stroke="#191970" points="543.5857,-13.7853 533.6327,-17.4169 543.678,-20.7847 543.5857,-13.7853"/>
</g>
</g>
</svg>
