<?xml version="1.0" encoding="UTF-8" standalone="no"?>
<!DOCTYPE svg PUBLIC "-//W3C//DTD SVG 1.1//EN"
 "http://www.w3.org/Graphics/SVG/1.1/DTD/svg11.dtd">
<!-- Generated by graphviz version 2.40.1 (0)
 -->
<!-- Title: CDPL::Math::QuaternionVectorBinary&lt; E1, E2, F &gt; Pages: 1 -->
<svg width="1055pt" height="88pt"
 viewBox="0.00 0.00 1055.00 88.00" xmlns="http://www.w3.org/2000/svg" xmlns:xlink="http://www.w3.org/1999/xlink">
<g id="graph0" class="graph" transform="scale(1 1) rotate(0) translate(4 84)">
<title>CDPL::Math::QuaternionVectorBinary&lt; E1, E2, F &gt;</title>
<!-- Node1 -->
<g id="node1" class="node">
<title>Node1</title>
<g id="a_node1"><a xlink:title=" ">
<polygon fill="#bfbfbf" stroke="#000000" points="884,-21 884,-51 1047,-51 1047,-21 884,-21"/>
<text text-anchor="start" x="892" y="-39" font-family="Helvetica,sans-Serif" font-size="10.00" fill="#000000">CDPL::Math::QuaternionVector</text>
<text text-anchor="middle" x="965.5" y="-28" font-family="Helvetica,sans-Serif" font-size="10.00" fill="#000000">Binary&lt; E1, E2, F &gt;</text>
</a>
</g>
</g>
<!-- Node2 -->
<g id="node2" class="node">
<title>Node2</title>
<g id="a_node2"><a xlink:href="classCDPL_1_1Math_1_1VectorExpression.html" target="_top" xlink:title=" ">
<polygon fill="none" stroke="#000000" points="685,-15.5 685,-56.5 847,-56.5 847,-15.5 685,-15.5"/>
<text text-anchor="start" x="693" y="-44.5" font-family="Helvetica,sans-Serif" font-size="10.00" fill="#000000">CDPL::Math::VectorExpression</text>
<text text-anchor="start" x="693" y="-33.5" font-family="Helvetica,sans-Serif" font-size="10.00" fill="#000000">&lt; QuaternionVectorBinary</text>
<text text-anchor="middle" x="766" y="-22.5" font-family="Helvetica,sans-Serif" font-size="10.00" fill="#000000">&lt; E1, E2, F &gt; &gt;</text>
</a>
</g>
</g>
<!-- Node2&#45;&gt;Node1 -->
<g id="edge1" class="edge">
<title>Node2&#45;&gt;Node1</title>
<path fill="none" stroke="#191970" d="M857.4117,-36C866.2061,-36 875.0876,-36 883.7801,-36"/>
<polygon fill="#191970" stroke="#191970" points="857.1443,-32.5001 847.1443,-36 857.1443,-39.5001 857.1443,-32.5001"/>
</g>
<!-- Node3 -->
<g id="node3" class="node">
<title>Node3</title>
<g id="a_node3"><a xlink:href="classCDPL_1_1Math_1_1Expression.html" target="_top" xlink:title=" ">
<polygon fill="none" stroke="#000000" points="350.5,-38.5 350.5,-79.5 494.5,-79.5 494.5,-38.5 350.5,-38.5"/>
<text text-anchor="start" x="358.5" y="-67.5" font-family="Helvetica,sans-Serif" font-size="10.00" fill="#000000">CDPL::Math::Expression</text>
<text text-anchor="start" x="358.5" y="-56.5" font-family="Helvetica,sans-Serif" font-size="10.00" fill="#000000">&lt; QuaternionVectorBinary</text>
<text text-anchor="middle" x="422.5" y="-45.5" font-family="Helvetica,sans-Serif" font-size="10.00" fill="#000000">&lt; E1, E2, F &gt; &gt;</text>
</a>
</g>
</g>
<!-- Node3&#45;&gt;Node2 -->
<g id="edge2" class="edge">
<title>Node3&#45;&gt;Node2</title>
<path fill="none" stroke="#191970" d="M504.4895,-53.5102C559.0307,-49.8582 630.3688,-45.0816 684.7559,-41.4399"/>
<polygon fill="#191970" stroke="#191970" points="504.2527,-50.0181 494.5089,-54.1784 504.7204,-57.0025 504.2527,-50.0181"/>
</g>
<!-- Node4 -->
<g id="node4" class="node">
<title>Node4</title>
<g id="a_node4"><a xlink:href="classCDPL_1_1Math_1_1Expression.html" target="_top" xlink:title=" ">
<polygon fill="none" stroke="#000000" points="0,-24.5 0,-43.5 160,-43.5 160,-24.5 0,-24.5"/>
<text text-anchor="middle" x="80" y="-31.5" font-family="Helvetica,sans-Serif" font-size="10.00" fill="#000000">CDPL::Math::Expression&lt; E &gt;</text>
</a>
</g>
</g>
<!-- Node4&#45;&gt;Node3 -->
<g id="edge3" class="edge">
<title>Node4&#45;&gt;Node3</title>
<path fill="none" stroke="#ffa500" stroke-dasharray="5,2" d="M170.6055,-40.6135C226.7685,-44.713 297.9283,-49.9072 350.2782,-53.7283"/>
<polygon fill="#ffa500" stroke="#ffa500" points="170.5293,-37.0988 160.301,-39.8614 170.0197,-44.0802 170.5293,-37.0988"/>
<text text-anchor="start" x="178" y="-64" font-family="Helvetica,sans-Serif" font-size="10.00" fill="#000000"> &lt; QuaternionVectorBinary</text>
<text text-anchor="middle" x="243.5" y="-53" font-family="Helvetica,sans-Serif" font-size="10.00" fill="#000000">&lt; E1, E2, F &gt; &gt;</text>
</g>
<!-- Node5 -->
<g id="node5" class="node">
<title>Node5</title>
<g id="a_node5"><a xlink:href="classCDPL_1_1Math_1_1VectorExpression.html" target="_top" xlink:title=" ">
<polygon fill="none" stroke="#000000" points="327,-.5 327,-19.5 518,-19.5 518,-.5 327,-.5"/>
<text text-anchor="middle" x="422.5" y="-7.5" font-family="Helvetica,sans-Serif" font-size="10.00" fill="#000000">CDPL::Math::VectorExpression&lt; E &gt;</text>
</a>
</g>
</g>
<!-- Node4&#45;&gt;Node5 -->
<g id="edge5" class="edge">
<title>Node4&#45;&gt;Node5</title>
<path fill="none" stroke="#191970" d="M170.4109,-27.6646C218.6136,-24.2869 277.9055,-20.1322 326.8741,-16.7008"/>
<polygon fill="#191970" stroke="#191970" points="170.0319,-24.1825 160.301,-28.3731 170.5213,-31.1654 170.0319,-24.1825"/>
</g>
<!-- Node5&#45;&gt;Node2 -->
<g id="edge4" class="edge">
<title>Node5&#45;&gt;Node2</title>
<path fill="none" stroke="#ffa500" stroke-dasharray="5,2" d="M528.4893,-8.572C571.5814,-9.0386 621.7842,-10.9175 667,-16 672.8374,-16.6562 678.8423,-17.4831 684.8709,-18.4248"/>
<polygon fill="#ffa500" stroke="#ffa500" points="528.2978,-5.0703 518.2687,-8.486 528.2389,-12.0701 528.2978,-5.0703"/>
<text text-anchor="start" x="536" y="-30" font-family="Helvetica,sans-Serif" font-size="10.00" fill="#000000"> &lt; QuaternionVectorBinary</text>
<text text-anchor="middle" x="601.5" y="-19" font-family="Helvetica,sans-Serif" font-size="10.00" fill="#000000">&lt; E1, E2, F &gt; &gt;</text>
</g>
</g>
</svg>
