<?xml version="1.0" encoding="UTF-8" standalone="no"?>
<!DOCTYPE svg PUBLIC "-//W3C//DTD SVG 1.1//EN"
 "http://www.w3.org/Graphics/SVG/1.1/DTD/svg11.dtd">
<!-- Generated by graphviz version 2.40.1 (0)
 -->
<!-- Title: CDPL::Util::FileDataReader&lt; ReaderImpl, DataType &gt; Pages: 1 -->
<svg width="280pt" height="321pt"
 viewBox="0.00 0.00 280.00 321.00" xmlns="http://www.w3.org/2000/svg" xmlns:xlink="http://www.w3.org/1999/xlink">
<g id="graph0" class="graph" transform="scale(1 1) rotate(0) translate(4 317)">
<title>CDPL::Util::FileDataReader&lt; ReaderImpl, DataType &gt;</title>
<!-- Node1 -->
<g id="node1" class="node">
<title>Node1</title>
<g id="a_node1"><a xlink:title="FileDataReader.">
<polygon fill="#bfbfbf" stroke="#000000" points="13,-.5 13,-30.5 159,-30.5 159,-.5 13,-.5"/>
<text text-anchor="start" x="21" y="-18.5" font-family="Helvetica,sans-Serif" font-size="10.00" fill="#000000">CDPL::Util::FileDataReader</text>
<text text-anchor="middle" x="86" y="-7.5" font-family="Helvetica,sans-Serif" font-size="10.00" fill="#000000">&lt; ReaderImpl, DataType &gt;</text>
</a>
</g>
</g>
<!-- Node2 -->
<g id="node2" class="node">
<title>Node2</title>
<g id="a_node2"><a xlink:href="classCDPL_1_1Base_1_1DataReader.html" target="_top" xlink:title=" ">
<polygon fill="none" stroke="#000000" points="18,-68.5 18,-109.5 154,-109.5 154,-68.5 18,-68.5"/>
<text text-anchor="start" x="26" y="-97.5" font-family="Helvetica,sans-Serif" font-size="10.00" fill="#000000">CDPL::Base::DataReader</text>
<text text-anchor="start" x="26" y="-86.5" font-family="Helvetica,sans-Serif" font-size="10.00" fill="#000000">&lt; typename ReaderImpl</text>
<text text-anchor="middle" x="86" y="-75.5" font-family="Helvetica,sans-Serif" font-size="10.00" fill="#000000">::DataType &gt;</text>
</a>
</g>
</g>
<!-- Node2&#45;&gt;Node1 -->
<g id="edge1" class="edge">
<title>Node2&#45;&gt;Node1</title>
<path fill="none" stroke="#191970" d="M86,-57.9048C86,-48.5365 86,-38.666 86,-30.8074"/>
<polygon fill="#191970" stroke="#191970" points="82.5001,-58.1344 86,-68.1345 89.5001,-58.1345 82.5001,-58.1344"/>
</g>
<!-- Node3 -->
<g id="node3" class="node">
<title>Node3</title>
<g id="a_node3"><a xlink:href="classCDPL_1_1Base_1_1DataIOBase.html" target="_top" xlink:title="Provides infrastructure for the registration of I/O callback functions.">
<polygon fill="none" stroke="#000000" points="14,-225.5 14,-244.5 150,-244.5 150,-225.5 14,-225.5"/>
<text text-anchor="middle" x="82" y="-232.5" font-family="Helvetica,sans-Serif" font-size="10.00" fill="#000000">CDPL::Base::DataIOBase</text>
</a>
</g>
</g>
<!-- Node3&#45;&gt;Node2 -->
<g id="edge2" class="edge">
<title>Node3&#45;&gt;Node2</title>
<path fill="none" stroke="#191970" d="M82.537,-215.4002C83.2939,-187.7713 84.6681,-137.6127 85.4383,-109.5025"/>
<polygon fill="#191970" stroke="#191970" points="79.0377,-215.3284 82.2625,-225.4205 86.0351,-215.5202 79.0377,-215.3284"/>
</g>
<!-- Node5 -->
<g id="node5" class="node">
<title>Node5</title>
<g id="a_node5"><a xlink:href="classCDPL_1_1Base_1_1DataReader.html" target="_top" xlink:title="An interface for reading data objects of a given type from an arbitrary data source.">
<polygon fill="none" stroke="#000000" points="98,-168.5 98,-187.5 262,-187.5 262,-168.5 98,-168.5"/>
<text text-anchor="middle" x="180" y="-175.5" font-family="Helvetica,sans-Serif" font-size="10.00" fill="#000000">CDPL::Base::DataReader&lt; T &gt;</text>
</a>
</g>
</g>
<!-- Node3&#45;&gt;Node5 -->
<g id="edge5" class="edge">
<title>Node3&#45;&gt;Node5</title>
<path fill="none" stroke="#191970" d="M107.3352,-220.2642C125.0766,-209.9452 148.265,-196.4581 163.6212,-187.5265"/>
<polygon fill="#191970" stroke="#191970" points="105.5088,-217.2775 98.6244,-225.3307 109.0283,-223.3284 105.5088,-217.2775"/>
</g>
<!-- Node4 -->
<g id="node4" class="node">
<title>Node4</title>
<g id="a_node4"><a xlink:href="classCDPL_1_1Base_1_1ControlParameterContainer.html" target="_top" xlink:title="A class providing methods for the storage and lookup of control&#45;parameter values.">
<polygon fill="none" stroke="#000000" points="0,-282.5 0,-312.5 164,-312.5 164,-282.5 0,-282.5"/>
<text text-anchor="start" x="8" y="-300.5" font-family="Helvetica,sans-Serif" font-size="10.00" fill="#000000">CDPL::Base::ControlParameter</text>
<text text-anchor="middle" x="82" y="-289.5" font-family="Helvetica,sans-Serif" font-size="10.00" fill="#000000">Container</text>
</a>
</g>
</g>
<!-- Node4&#45;&gt;Node3 -->
<g id="edge3" class="edge">
<title>Node4&#45;&gt;Node3</title>
<path fill="none" stroke="#191970" d="M82,-272.3498C82,-262.6481 82,-252.1303 82,-244.7356"/>
<polygon fill="#191970" stroke="#191970" points="78.5001,-272.3705 82,-282.3705 85.5001,-272.3705 78.5001,-272.3705"/>
</g>
<!-- Node5&#45;&gt;Node2 -->
<g id="edge4" class="edge">
<title>Node5&#45;&gt;Node2</title>
<path fill="none" stroke="#ffa500" stroke-dasharray="5,2" d="M162.5604,-161.4881C147.0537,-146.8061 124.3204,-125.2821 107.654,-109.5022"/>
<polygon fill="#ffa500" stroke="#ffa500" points="160.2724,-164.1417 169.9404,-168.4754 165.0851,-159.0586 160.2724,-164.1417"/>
<text text-anchor="start" x="149" y="-142" font-family="Helvetica,sans-Serif" font-size="10.00" fill="#000000"> &lt; typename ReaderImpl</text>
<text text-anchor="middle" x="210.5" y="-131" font-family="Helvetica,sans-Serif" font-size="10.00" fill="#000000">::DataType &gt;</text>
</g>
</g>
</svg>
