<?xml version="1.0" encoding="UTF-8" standalone="no"?>
<!DOCTYPE svg PUBLIC "-//W3C//DTD SVG 1.1//EN"
 "http://www.w3.org/Graphics/SVG/1.1/DTD/svg11.dtd">
<!-- Generated by graphviz version 2.40.1 (0)
 -->
<!-- Title: Graphical Class Hierarchy Pages: 1 -->
<svg width="358pt" height="186pt"
 viewBox="0.00 0.00 358.00 186.00" xmlns="http://www.w3.org/2000/svg" xmlns:xlink="http://www.w3.org/1999/xlink">
<g id="graph0" class="graph" transform="scale(1 1) rotate(0) translate(4 182)">
<title>Graphical Class Hierarchy</title>
<!-- Node0 -->
<g id="node1" class="node">
<title>Node0</title>
<g id="a_node1"><a xlink:href="structCDPL_1_1Math_1_1ScalarBinaryFunctor.html" target="_top" xlink:title=" ">
<polygon fill="none" stroke="#000000" points="0,-73.5 0,-103.5 140,-103.5 140,-73.5 0,-73.5"/>
<text text-anchor="start" x="8" y="-91.5" font-family="Helvetica,sans-Serif" font-size="10.00" fill="#000000">CDPL::Math::ScalarBinary</text>
<text text-anchor="middle" x="70" y="-80.5" font-family="Helvetica,sans-Serif" font-size="10.00" fill="#000000">Functor&lt; T1, T2 &gt;</text>
</a>
</g>
</g>
<!-- Node1 -->
<g id="node2" class="node">
<title>Node1</title>
<g id="a_node2"><a xlink:href="structCDPL_1_1Math_1_1ScalarAddition.html" target="_top" xlink:title=" ">
<polygon fill="none" stroke="#000000" points="188.5,-147.5 188.5,-177.5 337.5,-177.5 337.5,-147.5 188.5,-147.5"/>
<text text-anchor="start" x="196.5" y="-165.5" font-family="Helvetica,sans-Serif" font-size="10.00" fill="#000000">CDPL::Math::ScalarAddition</text>
<text text-anchor="middle" x="263" y="-154.5" font-family="Helvetica,sans-Serif" font-size="10.00" fill="#000000">&lt; T1, T2 &gt;</text>
</a>
</g>
</g>
<!-- Node0&#45;&gt;Node1 -->
<g id="edge1" class="edge">
<title>Node0&#45;&gt;Node1</title>
<path fill="none" stroke="#191970" d="M107.7279,-108.2329C127.6732,-118.1659 152.7767,-129.8921 176,-138.5 184.668,-141.7129 193.9617,-144.7196 203.1323,-147.4445"/>
<polygon fill="#191970" stroke="#191970" points="109.1731,-105.0419 98.6677,-103.668 106.0234,-111.2933 109.1731,-105.0419"/>
</g>
<!-- Node2 -->
<g id="node3" class="node">
<title>Node2</title>
<g id="a_node3"><a xlink:href="structCDPL_1_1Math_1_1ScalarDivision.html" target="_top" xlink:title=" ">
<polygon fill="none" stroke="#000000" points="189,-98.5 189,-128.5 337,-128.5 337,-98.5 189,-98.5"/>
<text text-anchor="start" x="197" y="-116.5" font-family="Helvetica,sans-Serif" font-size="10.00" fill="#000000">CDPL::Math::ScalarDivision</text>
<text text-anchor="middle" x="263" y="-105.5" font-family="Helvetica,sans-Serif" font-size="10.00" fill="#000000">&lt; T1, T2 &gt;</text>
</a>
</g>
</g>
<!-- Node0&#45;&gt;Node2 -->
<g id="edge2" class="edge">
<title>Node0&#45;&gt;Node2</title>
<path fill="none" stroke="#191970" d="M150.3683,-98.9104C163.144,-100.5653 176.3079,-102.2705 188.9299,-103.9054"/>
<polygon fill="#191970" stroke="#191970" points="150.5902,-95.41 140.2234,-97.5963 149.6909,-102.352 150.5902,-95.41"/>
</g>
<!-- Node3 -->
<g id="node4" class="node">
<title>Node3</title>
<g id="a_node4"><a xlink:href="structCDPL_1_1Math_1_1ScalarMultiplication.html" target="_top" xlink:title=" ">
<polygon fill="none" stroke="#000000" points="176,-49.5 176,-79.5 350,-79.5 350,-49.5 176,-49.5"/>
<text text-anchor="start" x="184" y="-67.5" font-family="Helvetica,sans-Serif" font-size="10.00" fill="#000000">CDPL::Math::ScalarMultiplication</text>
<text text-anchor="middle" x="263" y="-56.5" font-family="Helvetica,sans-Serif" font-size="10.00" fill="#000000">&lt; T1, T2 &gt;</text>
</a>
</g>
</g>
<!-- Node0&#45;&gt;Node3 -->
<g id="edge3" class="edge">
<title>Node0&#45;&gt;Node3</title>
<path fill="none" stroke="#191970" d="M150.3424,-78.5092C158.7207,-77.4674 167.2662,-76.4047 175.7166,-75.3539"/>
<polygon fill="#191970" stroke="#191970" points="149.715,-75.0602 140.2234,-79.7676 150.5789,-82.0067 149.715,-75.0602"/>
</g>
<!-- Node4 -->
<g id="node5" class="node">
<title>Node4</title>
<g id="a_node5"><a xlink:href="structCDPL_1_1Math_1_1ScalarSubtraction.html" target="_top" xlink:title=" ">
<polygon fill="none" stroke="#000000" points="181,-.5 181,-30.5 345,-30.5 345,-.5 181,-.5"/>
<text text-anchor="start" x="189" y="-18.5" font-family="Helvetica,sans-Serif" font-size="10.00" fill="#000000">CDPL::Math::ScalarSubtraction</text>
<text text-anchor="middle" x="263" y="-7.5" font-family="Helvetica,sans-Serif" font-size="10.00" fill="#000000">&lt; T1, T2 &gt;</text>
</a>
</g>
</g>
<!-- Node0&#45;&gt;Node4 -->
<g id="edge4" class="edge">
<title>Node0&#45;&gt;Node4</title>
<path fill="none" stroke="#191970" d="M109.3986,-69.0082C129.1147,-59.6806 153.5153,-48.7716 176,-40.5 185.5869,-36.9732 195.9142,-33.6257 205.9878,-30.5937"/>
<polygon fill="#191970" stroke="#191970" points="107.6374,-65.9708 100.125,-73.4417 110.6567,-72.2861 107.6374,-65.9708"/>
</g>
</g>
</svg>
