<?xml version="1.0" encoding="UTF-8" standalone="no"?>
<!DOCTYPE svg PUBLIC "-//W3C//DTD SVG 1.1//EN"
 "http://www.w3.org/Graphics/SVG/1.1/DTD/svg11.dtd">
<!-- Generated by graphviz version 2.40.1 (0)
 -->
<!-- Title: Graphical Class Hierarchy Pages: 1 -->
<svg width="322pt" height="66pt"
 viewBox="0.00 0.00 322.00 66.00" xmlns="http://www.w3.org/2000/svg" xmlns:xlink="http://www.w3.org/1999/xlink">
<g id="graph0" class="graph" transform="scale(1 1) rotate(0) translate(4 62)">
<title>Graphical Class Hierarchy</title>
<!-- Node0 -->
<g id="node1" class="node">
<title>Node0</title>
<g id="a_node1"><a xlink:href="classCDPL_1_1Vis_1_1Renderer2D.html" target="_top" xlink:title="An interface that provides methods for low level 2D drawing operations.">
<polygon fill="none" stroke="#000000" points="0,-19.5 0,-38.5 126,-38.5 126,-19.5 0,-19.5"/>
<text text-anchor="middle" x="63" y="-26.5" font-family="Helvetica,sans-Serif" font-size="10.00" fill="#000000">CDPL::Vis::Renderer2D</text>
</a>
</g>
</g>
<!-- Node1 -->
<g id="node2" class="node">
<title>Node1</title>
<g id="a_node2"><a xlink:href="classCDPL_1_1Vis_1_1CairoRenderer2D.html" target="_top" xlink:title="Implements the Renderer2D interface on top of the Cairo 2D Graphics Library.">
<polygon fill="none" stroke="#000000" points="162,-38.5 162,-57.5 314,-57.5 314,-38.5 162,-38.5"/>
<text text-anchor="middle" x="238" y="-45.5" font-family="Helvetica,sans-Serif" font-size="10.00" fill="#000000">CDPL::Vis::CairoRenderer2D</text>
</a>
</g>
</g>
<!-- Node0&#45;&gt;Node1 -->
<g id="edge1" class="edge">
<title>Node0&#45;&gt;Node1</title>
<path fill="none" stroke="#191970" d="M136.3297,-36.9615C144.7421,-37.8749 153.3341,-38.8077 161.7833,-39.725"/>
<polygon fill="#191970" stroke="#191970" points="136.4984,-33.4593 126.179,-35.8594 135.7428,-40.4184 136.4984,-33.4593"/>
</g>
<!-- Node2 -->
<g id="node3" class="node">
<title>Node2</title>
<g id="a_node3"><a xlink:href="classCDPL_1_1Vis_1_1QtRenderer2D.html" target="_top" xlink:title="Implements the Renderer2D interface on top of the Qt Toolkit.">
<polygon fill="none" stroke="#000000" points="169.5,-.5 169.5,-19.5 306.5,-19.5 306.5,-.5 169.5,-.5"/>
<text text-anchor="middle" x="238" y="-7.5" font-family="Helvetica,sans-Serif" font-size="10.00" fill="#000000">CDPL::Vis::QtRenderer2D</text>
</a>
</g>
</g>
<!-- Node0&#45;&gt;Node2 -->
<g id="edge2" class="edge">
<title>Node0&#45;&gt;Node2</title>
<path fill="none" stroke="#191970" d="M136.1511,-21.0579C147.1267,-19.8662 158.412,-18.641 169.2906,-17.4599"/>
<polygon fill="#191970" stroke="#191970" points="135.7428,-17.5816 126.179,-22.1406 136.4984,-24.5407 135.7428,-17.5816"/>
</g>
</g>
</svg>
