<?xml version="1.0" encoding="UTF-8" standalone="no"?>
<!DOCTYPE svg PUBLIC "-//W3C//DTD SVG 1.1//EN"
 "http://www.w3.org/Graphics/SVG/1.1/DTD/svg11.dtd">
<!-- Generated by graphviz version 2.40.1 (0)
 -->
<!-- Title: Graphical Class Hierarchy Pages: 1 -->
<svg width="396pt" height="104pt"
 viewBox="0.00 0.00 396.00 104.00" xmlns="http://www.w3.org/2000/svg" xmlns:xlink="http://www.w3.org/1999/xlink">
<g id="graph0" class="graph" transform="scale(1 1) rotate(0) translate(4 100)">
<title>Graphical Class Hierarchy</title>
<!-- Node0 -->
<g id="node1" class="node">
<title>Node0</title>
<g id="a_node1"><a xlink:href="structCDPL_1_1Math_1_1MatrixScalarRealUnaryFunctor.html" target="_top" xlink:title=" ">
<polygon fill="none" stroke="#000000" points="0,-33 0,-63 139,-63 139,-33 0,-33"/>
<text text-anchor="start" x="8" y="-51" font-family="Helvetica,sans-Serif" font-size="10.00" fill="#000000">CDPL::Math::MatrixScalar</text>
<text text-anchor="middle" x="69.5" y="-40" font-family="Helvetica,sans-Serif" font-size="10.00" fill="#000000">RealUnaryFunctor&lt; M &gt;</text>
</a>
</g>
</g>
<!-- Node1 -->
<g id="node2" class="node">
<title>Node1</title>
<g id="a_node2"><a xlink:href="structCDPL_1_1Math_1_1MatrixNorm1.html" target="_top" xlink:title=" ">
<polygon fill="none" stroke="#000000" points="195,-76.5 195,-95.5 368,-95.5 368,-76.5 195,-76.5"/>
<text text-anchor="middle" x="281.5" y="-83.5" font-family="Helvetica,sans-Serif" font-size="10.00" fill="#000000">CDPL::Math::MatrixNorm1&lt; M &gt;</text>
</a>
</g>
</g>
<!-- Node0&#45;&gt;Node1 -->
<g id="edge1" class="edge">
<title>Node0&#45;&gt;Node1</title>
<path fill="none" stroke="#191970" d="M148.9158,-62.3168C157.7164,-63.899 166.5484,-65.4851 175,-67 192.2852,-70.0984 211.1508,-73.468 228.1366,-76.4974"/>
<polygon fill="#191970" stroke="#191970" points="149.4765,-58.8616 139.0149,-60.536 148.2373,-65.751 149.4765,-58.8616"/>
</g>
<!-- Node2 -->
<g id="node3" class="node">
<title>Node2</title>
<g id="a_node3"><a xlink:href="structCDPL_1_1Math_1_1MatrixNormFrobenius.html" target="_top" xlink:title=" ">
<polygon fill="none" stroke="#000000" points="175,-38.5 175,-57.5 388,-57.5 388,-38.5 175,-38.5"/>
<text text-anchor="middle" x="281.5" y="-45.5" font-family="Helvetica,sans-Serif" font-size="10.00" fill="#000000">CDPL::Math::MatrixNormFrobenius&lt; M &gt;</text>
</a>
</g>
</g>
<!-- Node0&#45;&gt;Node2 -->
<g id="edge2" class="edge">
<title>Node0&#45;&gt;Node2</title>
<path fill="none" stroke="#191970" d="M149.2988,-48C157.6767,-48 166.2876,-48 174.9038,-48"/>
<polygon fill="#191970" stroke="#191970" points="149.2104,-44.5001 139.2104,-48 149.2103,-51.5001 149.2104,-44.5001"/>
</g>
<!-- Node3 -->
<g id="node4" class="node">
<title>Node3</title>
<g id="a_node4"><a xlink:href="structCDPL_1_1Math_1_1MatrixNormInfinity.html" target="_top" xlink:title=" ">
<polygon fill="none" stroke="#000000" points="181.5,-.5 181.5,-19.5 381.5,-19.5 381.5,-.5 181.5,-.5"/>
<text text-anchor="middle" x="281.5" y="-7.5" font-family="Helvetica,sans-Serif" font-size="10.00" fill="#000000">CDPL::Math::MatrixNormInfinity&lt; M &gt;</text>
</a>
</g>
</g>
<!-- Node0&#45;&gt;Node3 -->
<g id="edge3" class="edge">
<title>Node0&#45;&gt;Node3</title>
<path fill="none" stroke="#191970" d="M148.9158,-33.6832C157.7164,-32.101 166.5484,-30.5149 175,-29 192.2852,-25.9016 211.1508,-22.532 228.1366,-19.5026"/>
<polygon fill="#191970" stroke="#191970" points="148.2373,-30.249 139.0149,-35.464 149.4765,-37.1384 148.2373,-30.249"/>
</g>
</g>
</svg>
