<?xml version="1.0" encoding="UTF-8" standalone="no"?>
<!DOCTYPE svg PUBLIC "-//W3C//DTD SVG 1.1//EN"
 "http://www.w3.org/Graphics/SVG/1.1/DTD/svg11.dtd">
<!-- Generated by graphviz version 2.40.1 (0)
 -->
<!-- Title: Graphical Class Hierarchy Pages: 1 -->
<svg width="382pt" height="88pt"
 viewBox="0.00 0.00 382.00 88.00" xmlns="http://www.w3.org/2000/svg" xmlns:xlink="http://www.w3.org/1999/xlink">
<g id="graph0" class="graph" transform="scale(1 1) rotate(0) translate(4 84)">
<title>Graphical Class Hierarchy</title>
<!-- Node0 -->
<g id="node1" class="node">
<title>Node0</title>
<g id="a_node1"><a xlink:href="classCDPL_1_1Chem_1_1FragmentGenerator.html" target="_top" xlink:title="FragmentGenerator.">
<polygon fill="none" stroke="#000000" points="0,-30 0,-49 177,-49 177,-30 0,-30"/>
<text text-anchor="middle" x="88.5" y="-37" font-family="Helvetica,sans-Serif" font-size="10.00" fill="#000000">CDPL::Chem::FragmentGenerator</text>
</a>
</g>
</g>
<!-- Node1 -->
<g id="node2" class="node">
<title>Node1</title>
<g id="a_node2"><a xlink:href="classCDPL_1_1Chem_1_1BRICSFragmentGenerator.html" target="_top" xlink:title="BRICSFragmentGenerator.">
<polygon fill="none" stroke="#000000" points="214.5,-49.5 214.5,-79.5 372.5,-79.5 372.5,-49.5 214.5,-49.5"/>
<text text-anchor="start" x="222.5" y="-67.5" font-family="Helvetica,sans-Serif" font-size="10.00" fill="#000000">CDPL::Chem::BRICSFragment</text>
<text text-anchor="middle" x="293.5" y="-56.5" font-family="Helvetica,sans-Serif" font-size="10.00" fill="#000000">Generator</text>
</a>
</g>
</g>
<!-- Node0&#45;&gt;Node1 -->
<g id="edge1" class="edge">
<title>Node0&#45;&gt;Node1</title>
<path fill="none" stroke="#191970" d="M176.5601,-50.239C189.0933,-51.7675 201.9203,-53.3317 214.2714,-54.838"/>
<polygon fill="#191970" stroke="#191970" points="176.9367,-46.7591 166.5865,-49.0227 176.0893,-53.7076 176.9367,-46.7591"/>
</g>
<!-- Node2 -->
<g id="node3" class="node">
<title>Node2</title>
<g id="a_node3"><a xlink:href="classCDPL_1_1Chem_1_1RECAPFragmentGenerator.html" target="_top" xlink:title="RECAPFragmentGenerator.">
<polygon fill="none" stroke="#000000" points="213,-.5 213,-30.5 374,-30.5 374,-.5 213,-.5"/>
<text text-anchor="start" x="221" y="-18.5" font-family="Helvetica,sans-Serif" font-size="10.00" fill="#000000">CDPL::Chem::RECAPFragment</text>
<text text-anchor="middle" x="293.5" y="-7.5" font-family="Helvetica,sans-Serif" font-size="10.00" fill="#000000">Generator</text>
</a>
</g>
</g>
<!-- Node0&#45;&gt;Node2 -->
<g id="edge2" class="edge">
<title>Node0&#45;&gt;Node2</title>
<path fill="none" stroke="#191970" d="M179.8766,-28.8022C190.901,-27.5116 202.0991,-26.2006 212.9527,-24.9299"/>
<polygon fill="#191970" stroke="#191970" points="179.341,-25.341 169.8159,-29.9801 180.155,-32.2935 179.341,-25.341"/>
</g>
</g>
</svg>
