<?xml version="1.0" encoding="UTF-8" standalone="no"?>
<!DOCTYPE svg PUBLIC "-//W3C//DTD SVG 1.1//EN"
 "http://www.w3.org/Graphics/SVG/1.1/DTD/svg11.dtd">
<!-- Generated by graphviz version 2.40.1 (0)
 -->
<!-- Title: CDPL::Math::MinimizerVariableArrayTraits&lt; A &gt; Pages: 1 -->
<svg width="583pt" height="88pt"
 viewBox="0.00 0.00 583.00 88.00" xmlns="http://www.w3.org/2000/svg" xmlns:xlink="http://www.w3.org/1999/xlink">
<g id="graph0" class="graph" transform="scale(1 1) rotate(0) translate(4 84)">
<title>CDPL::Math::MinimizerVariableArrayTraits&lt; A &gt;</title>
<!-- Node1 -->
<g id="node1" class="node">
<title>Node1</title>
<g id="a_node1"><a xlink:title=" ">
<polygon fill="#bfbfbf" stroke="#000000" points="0,-24.5 0,-54.5 166,-54.5 166,-24.5 0,-24.5"/>
<text text-anchor="start" x="8" y="-42.5" font-family="Helvetica,sans-Serif" font-size="10.00" fill="#000000">CDPL::Math::MinimizerVariable</text>
<text text-anchor="middle" x="83" y="-31.5" font-family="Helvetica,sans-Serif" font-size="10.00" fill="#000000">ArrayTraits&lt; A &gt;</text>
</a>
</g>
</g>
<!-- Node2 -->
<g id="node2" class="node">
<title>Node2</title>
<g id="a_node2"><a xlink:href="structCDPL_1_1Math_1_1MinimizerVariableArrayTraits.html" target="_top" xlink:title=" ">
<polygon fill="none" stroke="#000000" points="356,-49.5 356,-79.5 575,-79.5 575,-49.5 356,-49.5"/>
<text text-anchor="start" x="364" y="-67.5" font-family="Helvetica,sans-Serif" font-size="10.00" fill="#000000">CDPL::Math::MinimizerVariable</text>
<text text-anchor="middle" x="465.5" y="-56.5" font-family="Helvetica,sans-Serif" font-size="10.00" fill="#000000">ArrayTraits&lt; QuaternionTransformation &gt;</text>
</a>
</g>
</g>
<!-- Node1&#45;&gt;Node2 -->
<g id="edge1" class="edge">
<title>Node1&#45;&gt;Node2</title>
<path fill="none" stroke="#ffa500" stroke-dasharray="5,2" d="M176.7412,-45.6269C230.8227,-49.1616 299.1059,-53.6246 355.6922,-57.323"/>
<polygon fill="#ffa500" stroke="#ffa500" points="176.6756,-42.1152 166.4686,-44.9555 176.219,-49.1003 176.6756,-42.1152"/>
<text text-anchor="middle" x="261" y="-58.5" font-family="Helvetica,sans-Serif" font-size="10.00" fill="#000000"> &lt; QuaternionTransformation &gt;</text>
</g>
<!-- Node3 -->
<g id="node3" class="node">
<title>Node3</title>
<g id="a_node3"><a xlink:href="structCDPL_1_1Math_1_1MinimizerVariableArrayTraits.html" target="_top" xlink:title=" ">
<polygon fill="none" stroke="#000000" points="382.5,-.5 382.5,-30.5 548.5,-30.5 548.5,-.5 382.5,-.5"/>
<text text-anchor="start" x="390.5" y="-18.5" font-family="Helvetica,sans-Serif" font-size="10.00" fill="#000000">CDPL::Math::MinimizerVariable</text>
<text text-anchor="middle" x="465.5" y="-7.5" font-family="Helvetica,sans-Serif" font-size="10.00" fill="#000000">ArrayTraits&lt; VA &gt;</text>
</a>
</g>
</g>
<!-- Node1&#45;&gt;Node3 -->
<g id="edge2" class="edge">
<title>Node1&#45;&gt;Node3</title>
<path fill="none" stroke="#ffa500" stroke-dasharray="5,2" d="M176.3047,-32.0338C178.8972,-31.8507 181.4663,-31.6723 184,-31.5 250.6633,-26.9659 326.2684,-22.7181 382.3271,-19.7404"/>
<polygon fill="#ffa500" stroke="#ffa500" points="175.937,-28.5511 166.2146,-32.7612 176.4404,-35.533 175.937,-28.5511"/>
<text text-anchor="middle" x="261" y="-34.5" font-family="Helvetica,sans-Serif" font-size="10.00" fill="#000000"> &lt; VA &gt;</text>
</g>
</g>
</svg>
