<?xml version="1.0" encoding="UTF-8" standalone="no"?>
<!DOCTYPE svg PUBLIC "-//W3C//DTD SVG 1.1//EN"
 "http://www.w3.org/Graphics/SVG/1.1/DTD/svg11.dtd">
<!-- Generated by graphviz version 2.40.1 (0)
 -->
<!-- Title: CDPL::Math::MatrixTemporaryTraits&lt; M &gt; Pages: 1 -->
<svg width="410pt" height="700pt"
 viewBox="0.00 0.00 410.00 699.50" xmlns="http://www.w3.org/2000/svg" xmlns:xlink="http://www.w3.org/1999/xlink">
<g id="graph0" class="graph" transform="scale(1 1) rotate(0) translate(4 695.5)">
<title>CDPL::Math::MatrixTemporaryTraits&lt; M &gt;</title>
<!-- Node1 -->
<g id="node1" class="node">
<title>Node1</title>
<g id="a_node1"><a xlink:title=" ">
<polygon fill="#bfbfbf" stroke="#000000" points="0,-333 0,-363 161,-363 161,-333 0,-333"/>
<text text-anchor="start" x="8" y="-351" font-family="Helvetica,sans-Serif" font-size="10.00" fill="#000000">CDPL::Math::MatrixTemporary</text>
<text text-anchor="middle" x="80.5" y="-340" font-family="Helvetica,sans-Serif" font-size="10.00" fill="#000000">Traits&lt; M &gt;</text>
</a>
</g>
</g>
<!-- Node2 -->
<g id="node2" class="node">
<title>Node2</title>
<g id="a_node2"><a xlink:href="structCDPL_1_1Math_1_1MatrixTemporaryTraits_3_01const_01MatrixColumn_3_01M_01_4_01_4.html" target="_top" xlink:title=" ">
<polygon fill="none" stroke="#000000" points="202.5,-661 202.5,-691 396.5,-691 396.5,-661 202.5,-661"/>
<text text-anchor="start" x="210.5" y="-679" font-family="Helvetica,sans-Serif" font-size="10.00" fill="#000000">CDPL::Math::MatrixTemporary</text>
<text text-anchor="middle" x="299.5" y="-668" font-family="Helvetica,sans-Serif" font-size="10.00" fill="#000000">Traits&lt; const MatrixColumn&lt; M &gt; &gt;</text>
</a>
</g>
</g>
<!-- Node1&#45;&gt;Node2 -->
<g id="edge1" class="edge">
<title>Node1&#45;&gt;Node2</title>
<path fill="none" stroke="#191970" d="M82.4228,-373.276C88.2818,-431.7606 111.1787,-577.1199 197,-652 200.856,-655.3644 205.0947,-658.2799 209.5862,-660.8046"/>
<polygon fill="#191970" stroke="#191970" points="85.8877,-372.7318 81.49,-363.0928 78.9169,-373.3704 85.8877,-372.7318"/>
</g>
<!-- Node3 -->
<g id="node3" class="node">
<title>Node3</title>
<g id="a_node3"><a xlink:href="structCDPL_1_1Math_1_1MatrixTemporaryTraits_3_01const_01MatrixRange_3_01M_01_4_01_4.html" target="_top" xlink:title=" ">
<polygon fill="none" stroke="#000000" points="206,-612 206,-642 393,-642 393,-612 206,-612"/>
<text text-anchor="start" x="214" y="-630" font-family="Helvetica,sans-Serif" font-size="10.00" fill="#000000">CDPL::Math::MatrixTemporary</text>
<text text-anchor="middle" x="299.5" y="-619" font-family="Helvetica,sans-Serif" font-size="10.00" fill="#000000">Traits&lt; const MatrixRange&lt; M &gt; &gt;</text>
</a>
</g>
</g>
<!-- Node1&#45;&gt;Node3 -->
<g id="edge2" class="edge">
<title>Node1&#45;&gt;Node3</title>
<path fill="none" stroke="#191970" d="M84.4593,-373.0854C93.9571,-424.5681 122.994,-542.4006 197,-603 201.1008,-606.3579 205.5878,-609.263 210.321,-611.7748"/>
<polygon fill="#191970" stroke="#191970" points="87.8923,-372.3977 82.72,-363.1511 80.9971,-373.6049 87.8923,-372.3977"/>
</g>
<!-- Node4 -->
<g id="node4" class="node">
<title>Node4</title>
<g id="a_node4"><a xlink:href="structCDPL_1_1Math_1_1MatrixTemporaryTraits_3_01const_01MatrixReference_3_01M_01_4_01_4.html" target="_top" xlink:title=" ">
<polygon fill="none" stroke="#000000" points="197,-563 197,-593 402,-593 402,-563 197,-563"/>
<text text-anchor="start" x="205" y="-581" font-family="Helvetica,sans-Serif" font-size="10.00" fill="#000000">CDPL::Math::MatrixTemporary</text>
<text text-anchor="middle" x="299.5" y="-570" font-family="Helvetica,sans-Serif" font-size="10.00" fill="#000000">Traits&lt; const MatrixReference&lt; M &gt; &gt;</text>
</a>
</g>
</g>
<!-- Node1&#45;&gt;Node4 -->
<g id="edge3" class="edge">
<title>Node1&#45;&gt;Node4</title>
<path fill="none" stroke="#191970" d="M87.4105,-373.1085C100.8341,-416.9771 134.7292,-507.3404 197,-554 201.6072,-557.4522 206.6325,-560.4182 211.9033,-562.9654"/>
<polygon fill="#191970" stroke="#191970" points="90.6904,-371.8567 84.5032,-363.2562 83.9766,-373.8379 90.6904,-371.8567"/>
</g>
<!-- Node5 -->
<g id="node5" class="node">
<title>Node5</title>
<g id="a_node5"><a xlink:href="structCDPL_1_1Math_1_1MatrixTemporaryTraits_3_01const_01MatrixRow_3_01M_01_4_01_4.html" target="_top" xlink:title=" ">
<polygon fill="none" stroke="#000000" points="211.5,-514 211.5,-544 387.5,-544 387.5,-514 211.5,-514"/>
<text text-anchor="start" x="219.5" y="-532" font-family="Helvetica,sans-Serif" font-size="10.00" fill="#000000">CDPL::Math::MatrixTemporary</text>
<text text-anchor="middle" x="299.5" y="-521" font-family="Helvetica,sans-Serif" font-size="10.00" fill="#000000">Traits&lt; const MatrixRow&lt; M &gt; &gt;</text>
</a>
</g>
</g>
<!-- Node1&#45;&gt;Node5 -->
<g id="edge4" class="edge">
<title>Node1&#45;&gt;Node5</title>
<path fill="none" stroke="#191970" d="M91.6851,-372.3857C109.0568,-407.4155 145.9172,-471.444 197,-505 202.27,-508.4619 207.9812,-511.4265 213.9189,-513.9651"/>
<polygon fill="#191970" stroke="#191970" points="94.8086,-370.8052 87.3065,-363.3239 88.5058,-373.8507 94.8086,-370.8052"/>
</g>
<!-- Node6 -->
<g id="node6" class="node">
<title>Node6</title>
<g id="a_node6"><a xlink:href="structCDPL_1_1Math_1_1MatrixTemporaryTraits_3_01const_01MatrixSlice_3_01M_01_4_01_4.html" target="_top" xlink:title=" ">
<polygon fill="none" stroke="#000000" points="210,-465 210,-495 389,-495 389,-465 210,-465"/>
<text text-anchor="start" x="218" y="-483" font-family="Helvetica,sans-Serif" font-size="10.00" fill="#000000">CDPL::Math::MatrixTemporary</text>
<text text-anchor="middle" x="299.5" y="-472" font-family="Helvetica,sans-Serif" font-size="10.00" fill="#000000">Traits&lt; const MatrixSlice&lt; M &gt; &gt;</text>
</a>
</g>
</g>
<!-- Node1&#45;&gt;Node6 -->
<g id="edge5" class="edge">
<title>Node1&#45;&gt;Node6</title>
<path fill="none" stroke="#191970" d="M98.8466,-370.9974C119.9001,-395.797 156.7459,-434.592 197,-456 203.4546,-459.4327 210.3945,-462.3786 217.5106,-464.906"/>
<polygon fill="#191970" stroke="#191970" points="101.4178,-368.6154 92.33,-363.169 96.0378,-373.0939 101.4178,-368.6154"/>
</g>
<!-- Node7 -->
<g id="node7" class="node">
<title>Node7</title>
<g id="a_node7"><a xlink:href="structCDPL_1_1Math_1_1MatrixTemporaryTraits_3_01const_01MatrixTranspose_3_01M_01_4_01_4.html" target="_top" xlink:title=" ">
<polygon fill="none" stroke="#000000" points="197,-416 197,-446 402,-446 402,-416 197,-416"/>
<text text-anchor="start" x="205" y="-434" font-family="Helvetica,sans-Serif" font-size="10.00" fill="#000000">CDPL::Math::MatrixTemporary</text>
<text text-anchor="middle" x="299.5" y="-423" font-family="Helvetica,sans-Serif" font-size="10.00" fill="#000000">Traits&lt; const MatrixTranspose&lt; M &gt; &gt;</text>
</a>
</g>
</g>
<!-- Node1&#45;&gt;Node7 -->
<g id="edge6" class="edge">
<title>Node1&#45;&gt;Node7</title>
<path fill="none" stroke="#191970" d="M115.4909,-367.9901C138.1649,-380.2916 168.6523,-395.6336 197,-406 207.1496,-409.7116 218.0652,-413.0402 228.8547,-415.9653"/>
<polygon fill="#191970" stroke="#191970" points="117.0396,-364.8476 106.59,-363.0996 113.6688,-370.9825 117.0396,-364.8476"/>
</g>
<!-- Node8 -->
<g id="node8" class="node">
<title>Node8</title>
<g id="a_node8"><a xlink:href="structCDPL_1_1Math_1_1MatrixTemporaryTraits_3_01const_01TriangularAdapter_3_01M_00_01Tri_01_4_01_4.html" target="_top" xlink:title=" ">
<polygon fill="none" stroke="#000000" points="214.5,-355.5 214.5,-396.5 384.5,-396.5 384.5,-355.5 214.5,-355.5"/>
<text text-anchor="start" x="222.5" y="-384.5" font-family="Helvetica,sans-Serif" font-size="10.00" fill="#000000">CDPL::Math::MatrixTemporary</text>
<text text-anchor="start" x="222.5" y="-373.5" font-family="Helvetica,sans-Serif" font-size="10.00" fill="#000000">Traits&lt; const TriangularAdapter</text>
<text text-anchor="middle" x="299.5" y="-362.5" font-family="Helvetica,sans-Serif" font-size="10.00" fill="#000000">&lt; M, Tri &gt; &gt;</text>
</a>
</g>
</g>
<!-- Node1&#45;&gt;Node8 -->
<g id="edge7" class="edge">
<title>Node1&#45;&gt;Node8</title>
<path fill="none" stroke="#191970" d="M171.3667,-359.6177C185.5704,-361.4337 200.2051,-363.3048 214.2765,-365.1039"/>
<polygon fill="#191970" stroke="#191970" points="171.4777,-356.1034 161.1145,-358.3069 170.5899,-363.0469 171.4777,-356.1034"/>
</g>
<!-- Node9 -->
<g id="node9" class="node">
<title>Node9</title>
<g id="a_node9"><a xlink:href="structCDPL_1_1Math_1_1MatrixTemporaryTraits_3_01MatrixColumn_3_01M_01_4_01_4.html" target="_top" xlink:title=" ">
<polygon fill="none" stroke="#000000" points="217.5,-306 217.5,-336 381.5,-336 381.5,-306 217.5,-306"/>
<text text-anchor="start" x="225.5" y="-324" font-family="Helvetica,sans-Serif" font-size="10.00" fill="#000000">CDPL::Math::MatrixTemporary</text>
<text text-anchor="middle" x="299.5" y="-313" font-family="Helvetica,sans-Serif" font-size="10.00" fill="#000000">Traits&lt; MatrixColumn&lt; M &gt; &gt;</text>
</a>
</g>
</g>
<!-- Node1&#45;&gt;Node9 -->
<g id="edge8" class="edge">
<title>Node1&#45;&gt;Node9</title>
<path fill="none" stroke="#191970" d="M171.0754,-336.8332C186.3643,-334.9482 202.1608,-333.0007 217.2234,-331.1437"/>
<polygon fill="#191970" stroke="#191970" points="170.6111,-333.3638 161.1145,-338.0612 171.4677,-340.3112 170.6111,-333.3638"/>
</g>
<!-- Node10 -->
<g id="node10" class="node">
<title>Node10</title>
<g id="a_node10"><a xlink:href="structCDPL_1_1Math_1_1MatrixTemporaryTraits_3_01MatrixRange_3_01M_01_4_01_4.html" target="_top" xlink:title=" ">
<polygon fill="none" stroke="#000000" points="219,-257 219,-287 380,-287 380,-257 219,-257"/>
<text text-anchor="start" x="227" y="-275" font-family="Helvetica,sans-Serif" font-size="10.00" fill="#000000">CDPL::Math::MatrixTemporary</text>
<text text-anchor="middle" x="299.5" y="-264" font-family="Helvetica,sans-Serif" font-size="10.00" fill="#000000">Traits&lt; MatrixRange&lt; M &gt; &gt;</text>
</a>
</g>
</g>
<!-- Node1&#45;&gt;Node10 -->
<g id="edge9" class="edge">
<title>Node1&#45;&gt;Node10</title>
<path fill="none" stroke="#191970" d="M120.1918,-328.5767C142.4091,-318.2281 170.8283,-305.8457 197,-297 207.7585,-293.3638 219.318,-290.0224 230.6594,-287.0465"/>
<polygon fill="#191970" stroke="#191970" points="118.6297,-325.4435 111.0744,-332.871 121.6125,-331.7762 118.6297,-325.4435"/>
</g>
<!-- Node11 -->
<g id="node11" class="node">
<title>Node11</title>
<g id="a_node11"><a xlink:href="structCDPL_1_1Math_1_1MatrixTemporaryTraits_3_01MatrixReference_3_01M_01_4_01_4.html" target="_top" xlink:title=" ">
<polygon fill="none" stroke="#000000" points="211.5,-208 211.5,-238 387.5,-238 387.5,-208 211.5,-208"/>
<text text-anchor="start" x="219.5" y="-226" font-family="Helvetica,sans-Serif" font-size="10.00" fill="#000000">CDPL::Math::MatrixTemporary</text>
<text text-anchor="middle" x="299.5" y="-215" font-family="Helvetica,sans-Serif" font-size="10.00" fill="#000000">Traits&lt; MatrixReference&lt; M &gt; &gt;</text>
</a>
</g>
</g>
<!-- Node1&#45;&gt;Node11 -->
<g id="edge10" class="edge">
<title>Node1&#45;&gt;Node11</title>
<path fill="none" stroke="#191970" d="M100.5848,-325.3919C122.177,-302.489 158.6066,-267.7098 197,-248 204.5772,-244.1101 212.7835,-240.8086 221.1405,-238.0099"/>
<polygon fill="#191970" stroke="#191970" points="97.8105,-323.2367 93.5873,-332.9534 102.9482,-327.9911 97.8105,-323.2367"/>
</g>
<!-- Node12 -->
<g id="node12" class="node">
<title>Node12</title>
<g id="a_node12"><a xlink:href="structCDPL_1_1Math_1_1MatrixTemporaryTraits_3_01MatrixRow_3_01M_01_4_01_4.html" target="_top" xlink:title=" ">
<polygon fill="none" stroke="#000000" points="219,-159 219,-189 380,-189 380,-159 219,-159"/>
<text text-anchor="start" x="227" y="-177" font-family="Helvetica,sans-Serif" font-size="10.00" fill="#000000">CDPL::Math::MatrixTemporary</text>
<text text-anchor="middle" x="299.5" y="-166" font-family="Helvetica,sans-Serif" font-size="10.00" fill="#000000">Traits&lt; MatrixRow&lt; M &gt; &gt;</text>
</a>
</g>
</g>
<!-- Node1&#45;&gt;Node12 -->
<g id="edge11" class="edge">
<title>Node1&#45;&gt;Node12</title>
<path fill="none" stroke="#191970" d="M92.8375,-323.4672C110.9696,-290.0041 148.0368,-230.6066 197,-199 203.7712,-194.6291 211.2427,-191.0222 218.9738,-188.0457"/>
<polygon fill="#191970" stroke="#191970" points="89.6065,-322.0904 88.0283,-332.567 95.7953,-325.3612 89.6065,-322.0904"/>
</g>
<!-- Node13 -->
<g id="node13" class="node">
<title>Node13</title>
<g id="a_node13"><a xlink:href="structCDPL_1_1Math_1_1MatrixTemporaryTraits_3_01MatrixSlice_3_01M_01_4_01_4.html" target="_top" xlink:title=" ">
<polygon fill="none" stroke="#000000" points="219,-110 219,-140 380,-140 380,-110 219,-110"/>
<text text-anchor="start" x="227" y="-128" font-family="Helvetica,sans-Serif" font-size="10.00" fill="#000000">CDPL::Math::MatrixTemporary</text>
<text text-anchor="middle" x="299.5" y="-117" font-family="Helvetica,sans-Serif" font-size="10.00" fill="#000000">Traits&lt; MatrixSlice&lt; M &gt; &gt;</text>
</a>
</g>
</g>
<!-- Node1&#45;&gt;Node13 -->
<g id="edge12" class="edge">
<title>Node1&#45;&gt;Node13</title>
<path fill="none" stroke="#191970" d="M87.9502,-323.2892C102.029,-280.9636 136.6696,-194.834 197,-150 203.6158,-145.0836 211.0728,-141.1231 218.871,-137.9344"/>
<polygon fill="#191970" stroke="#191970" points="84.6156,-322.2262 84.8842,-332.8176 91.2791,-324.3704 84.6156,-322.2262"/>
</g>
<!-- Node14 -->
<g id="node14" class="node">
<title>Node14</title>
<g id="a_node14"><a xlink:href="structCDPL_1_1Math_1_1MatrixTemporaryTraits_3_01MatrixTranspose_3_01M_01_4_01_4.html" target="_top" xlink:title=" ">
<polygon fill="none" stroke="#000000" points="211.5,-61 211.5,-91 387.5,-91 387.5,-61 211.5,-61"/>
<text text-anchor="start" x="219.5" y="-79" font-family="Helvetica,sans-Serif" font-size="10.00" fill="#000000">CDPL::Math::MatrixTemporary</text>
<text text-anchor="middle" x="299.5" y="-68" font-family="Helvetica,sans-Serif" font-size="10.00" fill="#000000">Traits&lt; MatrixTranspose&lt; M &gt; &gt;</text>
</a>
</g>
</g>
<!-- Node1&#45;&gt;Node14 -->
<g id="edge13" class="edge">
<title>Node1&#45;&gt;Node14</title>
<path fill="none" stroke="#191970" d="M84.9643,-322.7085C95.219,-272.3838 125.3158,-159.5221 197,-101 201.6823,-97.1774 206.8607,-93.9249 212.3295,-91.159"/>
<polygon fill="#191970" stroke="#191970" points="81.4888,-322.2462 83.0189,-332.73 88.3605,-323.5803 81.4888,-322.2462"/>
</g>
<!-- Node15 -->
<g id="node15" class="node">
<title>Node15</title>
<g id="a_node15"><a xlink:href="structCDPL_1_1Math_1_1MatrixTemporaryTraits_3_01TriangularAdapter_3_01M_00_01Tri_01_4_01_4.html" target="_top" xlink:title=" ">
<polygon fill="none" stroke="#000000" points="219,-.5 219,-41.5 380,-41.5 380,-.5 219,-.5"/>
<text text-anchor="start" x="227" y="-29.5" font-family="Helvetica,sans-Serif" font-size="10.00" fill="#000000">CDPL::Math::MatrixTemporary</text>
<text text-anchor="start" x="227" y="-18.5" font-family="Helvetica,sans-Serif" font-size="10.00" fill="#000000">Traits&lt; TriangularAdapter</text>
<text text-anchor="middle" x="299.5" y="-7.5" font-family="Helvetica,sans-Serif" font-size="10.00" fill="#000000">&lt; M, Tri &gt; &gt;</text>
</a>
</g>
</g>
<!-- Node1&#45;&gt;Node15 -->
<g id="edge14" class="edge">
<title>Node1&#45;&gt;Node15</title>
<path fill="none" stroke="#191970" d="M83.1103,-322.5852C90.3252,-265.6336 115.7272,-126.9225 197,-52 203.4245,-46.0775 210.9449,-41.2847 218.9423,-37.4066"/>
<polygon fill="#191970" stroke="#191970" points="79.596,-322.5007 81.8986,-332.8423 86.5477,-323.3219 79.596,-322.5007"/>
</g>
</g>
</svg>
