<?xml version="1.0" encoding="UTF-8" standalone="no"?>
<!DOCTYPE svg PUBLIC "-//W3C//DTD SVG 1.1//EN"
 "http://www.w3.org/Graphics/SVG/1.1/DTD/svg11.dtd">
<!-- Generated by graphviz version 2.40.1 (0)
 -->
<!-- Title: CDPL::Math::GridCoordinatesTransformTraits&lt; CMatrix&lt; T, 4, 4 &gt; &gt; Pages: 1 -->
<svg width="223pt" height="207pt"
 viewBox="0.00 0.00 223.00 207.00" xmlns="http://www.w3.org/2000/svg" xmlns:xlink="http://www.w3.org/1999/xlink">
<g id="graph0" class="graph" transform="scale(1 1) rotate(0) translate(4 203)">
<title>CDPL::Math::GridCoordinatesTransformTraits&lt; CMatrix&lt; T, 4, 4 &gt; &gt;</title>
<!-- Node1 -->
<g id="node1" class="node">
<title>Node1</title>
<g id="a_node1"><a xlink:title=" ">
<polygon fill="#bfbfbf" stroke="#000000" points="20.5,-.5 20.5,-41.5 177.5,-41.5 177.5,-.5 20.5,-.5"/>
<text text-anchor="start" x="28.5" y="-29.5" font-family="Helvetica,sans-Serif" font-size="10.00" fill="#000000">CDPL::Math::GridCoordinates</text>
<text text-anchor="start" x="28.5" y="-18.5" font-family="Helvetica,sans-Serif" font-size="10.00" fill="#000000">TransformTraits&lt; CMatrix</text>
<text text-anchor="middle" x="99" y="-7.5" font-family="Helvetica,sans-Serif" font-size="10.00" fill="#000000">&lt; T, 4, 4 &gt; &gt;</text>
</a>
</g>
</g>
<!-- Node2 -->
<g id="node2" class="node">
<title>Node2</title>
<g id="a_node2"><a xlink:href="structCDPL_1_1Math_1_1GridCoordinatesMatrixTransformTraits.html" target="_top" xlink:title=" ">
<polygon fill="none" stroke="#000000" points="13.5,-79.5 13.5,-120.5 184.5,-120.5 184.5,-79.5 13.5,-79.5"/>
<text text-anchor="start" x="21.5" y="-108.5" font-family="Helvetica,sans-Serif" font-size="10.00" fill="#000000">CDPL::Math::GridCoordinates</text>
<text text-anchor="start" x="21.5" y="-97.5" font-family="Helvetica,sans-Serif" font-size="10.00" fill="#000000">MatrixTransformTraits&lt; CMatrix</text>
<text text-anchor="middle" x="99" y="-86.5" font-family="Helvetica,sans-Serif" font-size="10.00" fill="#000000">&lt; T, 4, 4 &gt; &gt;</text>
</a>
</g>
</g>
<!-- Node2&#45;&gt;Node1 -->
<g id="edge1" class="edge">
<title>Node2&#45;&gt;Node1</title>
<path fill="none" stroke="#191970" d="M99,-69.2029C99,-59.9553 99,-50.038 99,-41.6177"/>
<polygon fill="#191970" stroke="#191970" points="95.5001,-69.2436 99,-79.2437 102.5001,-69.2437 95.5001,-69.2436"/>
</g>
<!-- Node3 -->
<g id="node3" class="node">
<title>Node3</title>
<g id="a_node3"><a xlink:href="structCDPL_1_1Math_1_1GridCoordinatesMatrixTransformTraits.html" target="_top" xlink:title=" ">
<polygon fill="none" stroke="#000000" points="0,-168.5 0,-198.5 198,-198.5 198,-168.5 0,-168.5"/>
<text text-anchor="start" x="8" y="-186.5" font-family="Helvetica,sans-Serif" font-size="10.00" fill="#000000">CDPL::Math::GridCoordinates</text>
<text text-anchor="middle" x="99" y="-175.5" font-family="Helvetica,sans-Serif" font-size="10.00" fill="#000000">MatrixTransformTraits&lt; MatrixType &gt;</text>
</a>
</g>
</g>
<!-- Node3&#45;&gt;Node2 -->
<g id="edge2" class="edge">
<title>Node3&#45;&gt;Node2</title>
<path fill="none" stroke="#ffa500" stroke-dasharray="5,2" d="M99,-157.9112C99,-145.9282 99,-131.8447 99,-120.5668"/>
<polygon fill="#ffa500" stroke="#ffa500" points="95.5001,-158.1848 99,-168.1848 102.5001,-158.1848 95.5001,-158.1848"/>
<text text-anchor="middle" x="157" y="-142" font-family="Helvetica,sans-Serif" font-size="10.00" fill="#000000"> &lt; CMatrix&lt; T, 4, 4 &gt; &gt;</text>
</g>
</g>
</svg>
