<?xml version="1.0" encoding="UTF-8" standalone="no"?>
<!DOCTYPE svg PUBLIC "-//W3C//DTD SVG 1.1//EN"
 "http://www.w3.org/Graphics/SVG/1.1/DTD/svg11.dtd">
<!-- Generated by graphviz version 2.40.1 (0)
 -->
<!-- Title: CDPL::Math::VectorScalarRealUnaryFunctor&lt; V &gt; Pages: 1 -->
<svg width="382pt" height="104pt"
 viewBox="0.00 0.00 382.00 104.00" xmlns="http://www.w3.org/2000/svg" xmlns:xlink="http://www.w3.org/1999/xlink">
<g id="graph0" class="graph" transform="scale(1 1) rotate(0) translate(4 100)">
<title>CDPL::Math::VectorScalarRealUnaryFunctor&lt; V &gt;</title>
<!-- Node1 -->
<g id="node1" class="node">
<title>Node1</title>
<g id="a_node1"><a xlink:title=" ">
<polygon fill="#bfbfbf" stroke="#000000" points="0,-33 0,-63 139,-63 139,-33 0,-33"/>
<text text-anchor="start" x="8" y="-51" font-family="Helvetica,sans-Serif" font-size="10.00" fill="#000000">CDPL::Math::VectorScalar</text>
<text text-anchor="middle" x="69.5" y="-40" font-family="Helvetica,sans-Serif" font-size="10.00" fill="#000000">RealUnaryFunctor&lt; V &gt;</text>
</a>
</g>
</g>
<!-- Node2 -->
<g id="node2" class="node">
<title>Node2</title>
<g id="a_node2"><a xlink:href="structCDPL_1_1Math_1_1VectorNorm1.html" target="_top" xlink:title=" ">
<polygon fill="none" stroke="#000000" points="189,-76.5 189,-95.5 360,-95.5 360,-76.5 189,-76.5"/>
<text text-anchor="middle" x="274.5" y="-83.5" font-family="Helvetica,sans-Serif" font-size="10.00" fill="#000000">CDPL::Math::VectorNorm1&lt; V &gt;</text>
</a>
</g>
</g>
<!-- Node1&#45;&gt;Node2 -->
<g id="edge1" class="edge">
<title>Node1&#45;&gt;Node2</title>
<path fill="none" stroke="#191970" d="M149.3222,-62.7963C174.1327,-67.3953 200.8095,-72.3403 223.1351,-76.4787"/>
<polygon fill="#191970" stroke="#191970" points="149.6601,-59.2994 139.1897,-60.9181 148.3843,-66.1822 149.6601,-59.2994"/>
</g>
<!-- Node3 -->
<g id="node3" class="node">
<title>Node3</title>
<g id="a_node3"><a xlink:href="structCDPL_1_1Math_1_1VectorNorm2.html" target="_top" xlink:title=" ">
<polygon fill="none" stroke="#000000" points="189,-38.5 189,-57.5 360,-57.5 360,-38.5 189,-38.5"/>
<text text-anchor="middle" x="274.5" y="-45.5" font-family="Helvetica,sans-Serif" font-size="10.00" fill="#000000">CDPL::Math::VectorNorm2&lt; V &gt;</text>
</a>
</g>
</g>
<!-- Node1&#45;&gt;Node3 -->
<g id="edge2" class="edge">
<title>Node1&#45;&gt;Node3</title>
<path fill="none" stroke="#191970" d="M149.3934,-48C162.2711,-48 175.6499,-48 188.6607,-48"/>
<polygon fill="#191970" stroke="#191970" points="149.1897,-44.5001 139.1897,-48 149.1897,-51.5001 149.1897,-44.5001"/>
</g>
<!-- Node4 -->
<g id="node4" class="node">
<title>Node4</title>
<g id="a_node4"><a xlink:href="structCDPL_1_1Math_1_1VectorNormInfinity.html" target="_top" xlink:title=" ">
<polygon fill="none" stroke="#000000" points="175,-.5 175,-19.5 374,-19.5 374,-.5 175,-.5"/>
<text text-anchor="middle" x="274.5" y="-7.5" font-family="Helvetica,sans-Serif" font-size="10.00" fill="#000000">CDPL::Math::VectorNormInfinity&lt; V &gt;</text>
</a>
</g>
</g>
<!-- Node1&#45;&gt;Node4 -->
<g id="edge3" class="edge">
<title>Node1&#45;&gt;Node4</title>
<path fill="none" stroke="#191970" d="M149.3222,-33.2037C174.1327,-28.6047 200.8095,-23.6597 223.1351,-19.5213"/>
<polygon fill="#191970" stroke="#191970" points="148.3843,-29.8178 139.1897,-35.0819 149.6601,-36.7006 148.3843,-29.8178"/>
</g>
</g>
</svg>
