<?xml version="1.0" encoding="UTF-8" standalone="no"?>
<!DOCTYPE svg PUBLIC "-//W3C//DTD SVG 1.1//EN"
 "http://www.w3.org/Graphics/SVG/1.1/DTD/svg11.dtd">
<!-- Generated by graphviz version 2.44.0 (0)
 -->
<!-- Title: CDPL::Util::CompressionOStream&lt; CompAlgo, CharT, TraitsT &gt; Pages: 1 -->
<svg width="946pt" height="88pt"
 viewBox="0.00 0.00 946.00 88.00" xmlns="http://www.w3.org/2000/svg" xmlns:xlink="http://www.w3.org/1999/xlink">
<g id="graph0" class="graph" transform="scale(1 1) rotate(0) translate(4 84)">
<title>CDPL::Util::CompressionOStream&lt; CompAlgo, CharT, TraitsT &gt;</title>
<!-- Node1 -->
<g id="node1" class="node">
<title>Node1</title>
<g id="a_node1"><a xlink:title=" ">
<polygon fill="#bfbfbf" stroke="black" points="771,-24.5 771,-54.5 938,-54.5 938,-24.5 771,-24.5"/>
<text text-anchor="start" x="779" y="-42.5" font-family="Helvetica" font-size="10.00">CDPL::Util::CompressionOStream</text>
<text text-anchor="middle" x="854.5" y="-31.5" font-family="Helvetica" font-size="10.00">&lt; CompAlgo, CharT, TraitsT &gt;</text>
</a>
</g>
</g>
<!-- Node2 -->
<g id="node2" class="node">
<title>Node2</title>
<g id="a_node2"><a xlink:href="classCDPL_1_1Util_1_1CompressionStreamBase.html" target="_top" xlink:title=" ">
<polygon fill="none" stroke="black" points="575,-13.5 575,-65.5 734,-65.5 734,-13.5 575,-13.5"/>
<text text-anchor="start" x="583" y="-53.5" font-family="Helvetica" font-size="10.00">CDPL::Util::CompressionStream</text>
<text text-anchor="start" x="583" y="-42.5" font-family="Helvetica" font-size="10.00">Base&lt; CompAlgo, std::basic</text>
<text text-anchor="start" x="583" y="-31.5" font-family="Helvetica" font-size="10.00">_ostream&lt; char, std::char_traits</text>
<text text-anchor="middle" x="654.5" y="-20.5" font-family="Helvetica" font-size="10.00">&lt; char &gt; &gt; &gt;</text>
</a>
</g>
</g>
<!-- Node2&#45;&gt;Node1 -->
<g id="edge1" class="edge">
<title>Node2&#45;&gt;Node1</title>
<path fill="none" stroke="midnightblue" d="M744.33,-39.5C753.15,-39.5 762.08,-39.5 770.83,-39.5"/>
<polygon fill="midnightblue" stroke="midnightblue" points="744.04,-36 734.04,-39.5 744.04,-43 744.04,-36"/>
</g>
<!-- Node3 -->
<g id="node3" class="node">
<title>Node3</title>
<g id="a_node3"><a xlink:title=" ">
<polygon fill="none" stroke="#bfbfbf" points="295.5,-49.5 295.5,-79.5 395.5,-79.5 395.5,-49.5 295.5,-49.5"/>
<text text-anchor="start" x="303.5" y="-67.5" font-family="Helvetica" font-size="10.00">std::basic_ostream</text>
<text text-anchor="middle" x="345.5" y="-56.5" font-family="Helvetica" font-size="10.00">&lt; Char &gt;</text>
</a>
</g>
</g>
<!-- Node3&#45;&gt;Node2 -->
<g id="edge2" class="edge">
<title>Node3&#45;&gt;Node2</title>
<path fill="none" stroke="midnightblue" d="M405.97,-60.77C448.15,-58.01 506.09,-53.95 557,-49.5 562.79,-48.99 568.77,-48.44 574.79,-47.87"/>
<polygon fill="midnightblue" stroke="midnightblue" points="405.62,-57.29 395.87,-61.43 406.08,-64.27 405.62,-57.29"/>
</g>
<!-- Node4 -->
<g id="node4" class="node">
<title>Node4</title>
<g id="a_node4"><a xlink:title=" ">
<polygon fill="none" stroke="#bfbfbf" points="112,-55 112,-74 228,-74 228,-55 112,-55"/>
<text text-anchor="middle" x="170" y="-62" font-family="Helvetica" font-size="10.00">std::basic_ios&lt; Char &gt;</text>
</a>
</g>
</g>
<!-- Node4&#45;&gt;Node3 -->
<g id="edge3" class="edge">
<title>Node4&#45;&gt;Node3</title>
<path fill="none" stroke="midnightblue" d="M238.39,-64.5C257.39,-64.5 277.7,-64.5 295.41,-64.5"/>
<polygon fill="midnightblue" stroke="midnightblue" points="238.29,-61 228.29,-64.5 238.29,-68 238.29,-61"/>
</g>
<!-- Node5 -->
<g id="node5" class="node">
<title>Node5</title>
<g id="a_node5"><a xlink:title=" ">
<polygon fill="none" stroke="#bfbfbf" points="0,-55 0,-74 75,-74 75,-55 0,-55"/>
<text text-anchor="middle" x="37.5" y="-62" font-family="Helvetica" font-size="10.00">std::ios_base</text>
</a>
</g>
</g>
<!-- Node5&#45;&gt;Node4 -->
<g id="edge4" class="edge">
<title>Node5&#45;&gt;Node4</title>
<path fill="none" stroke="midnightblue" d="M85.32,-64.5C93.84,-64.5 102.81,-64.5 111.59,-64.5"/>
<polygon fill="midnightblue" stroke="midnightblue" points="85.2,-61 75.2,-64.5 85.2,-68 85.2,-61"/>
</g>
<!-- Node6 -->
<g id="node6" class="node">
<title>Node6</title>
<g id="a_node6"><a xlink:href="classCDPL_1_1Util_1_1CompressionStreamBase.html" target="_top" xlink:title=" ">
<polygon fill="none" stroke="black" points="265,-0.5 265,-30.5 426,-30.5 426,-0.5 265,-0.5"/>
<text text-anchor="start" x="273" y="-18.5" font-family="Helvetica" font-size="10.00">CDPL::Util::CompressionStream</text>
<text text-anchor="middle" x="345.5" y="-7.5" font-family="Helvetica" font-size="10.00">Base&lt; CompAlgo, StreamType &gt;</text>
</a>
</g>
</g>
<!-- Node6&#45;&gt;Node2 -->
<g id="edge5" class="edge">
<title>Node6&#45;&gt;Node2</title>
<path fill="none" stroke="orange" stroke-dasharray="5,2" d="M436.6,-11.41C473.97,-10.88 517.7,-11.79 557,-16.5 562.81,-17.2 568.79,-18.12 574.77,-19.18"/>
<polygon fill="orange" stroke="orange" points="436.17,-7.92 426.23,-11.59 436.29,-14.91 436.17,-7.92"/>
<text text-anchor="start" x="444" y="-41.5" font-family="Helvetica" font-size="10.00"> &lt; CompAlgo, std::basic</text>
<text text-anchor="start" x="444" y="-30.5" font-family="Helvetica" font-size="10.00">_ostream&lt; char, std::char</text>
<text text-anchor="middle" x="500.5" y="-19.5" font-family="Helvetica" font-size="10.00">_traits&lt; char &gt; &gt; &gt;</text>
</g>
<!-- Node7 -->
<g id="node7" class="node">
<title>Node7</title>
<g id="a_node7"><a xlink:title=" ">
<polygon fill="none" stroke="#bfbfbf" points="135.5,-6 135.5,-25 204.5,-25 204.5,-6 135.5,-6"/>
<text text-anchor="middle" x="170" y="-13" font-family="Helvetica" font-size="10.00">StreamType</text>
</a>
</g>
</g>
<!-- Node7&#45;&gt;Node6 -->
<g id="edge6" class="edge">
<title>Node7&#45;&gt;Node6</title>
<path fill="none" stroke="midnightblue" d="M214.95,-15.5C230.11,-15.5 247.6,-15.5 264.72,-15.5"/>
<polygon fill="midnightblue" stroke="midnightblue" points="214.86,-12 204.86,-15.5 214.86,-19 214.86,-12"/>
</g>
</g>
</svg>
