<?xml version="1.0" encoding="UTF-8" standalone="no"?>
<!DOCTYPE svg PUBLIC "-//W3C//DTD SVG 1.1//EN"
 "http://www.w3.org/Graphics/SVG/1.1/DTD/svg11.dtd">
<!-- Generated by graphviz version 2.44.0 (0)
 -->
<!-- Title: CDPL::Descr::FeatureAutoCorrelation3DVectorCalculator Pages: 1 -->
<svg width="174pt" height="196pt"
 viewBox="0.00 0.00 174.00 196.00" xmlns="http://www.w3.org/2000/svg" xmlns:xlink="http://www.w3.org/1999/xlink">
<g id="graph0" class="graph" transform="scale(1 1) rotate(0) translate(4 192)">
<title>CDPL::Descr::FeatureAutoCorrelation3DVectorCalculator</title>
<!-- Node1 -->
<g id="node1" class="node">
<title>Node1</title>
<g id="a_node1"><a xlink:title="FeatureAutoCorrelation3DVectorCalculator.">
<polygon fill="#bfbfbf" stroke="black" points="3.5,-0.5 3.5,-30.5 150.5,-30.5 150.5,-0.5 3.5,-0.5"/>
<text text-anchor="start" x="11.5" y="-18.5" font-family="Helvetica" font-size="10.00">CDPL::Descr::FeatureAuto</text>
<text text-anchor="middle" x="77" y="-7.5" font-family="Helvetica" font-size="10.00">Correlation3DVectorCalculator</text>
</a>
</g>
</g>
<!-- Node2 -->
<g id="node2" class="node">
<title>Node2</title>
<g id="a_node2"><a xlink:href="classCDPL_1_1Descr_1_1AutoCorrelation3DVectorCalculator.html" target="_top" xlink:title=" ">
<polygon fill="none" stroke="black" points="0,-68.5 0,-109.5 154,-109.5 154,-68.5 0,-68.5"/>
<text text-anchor="start" x="8" y="-97.5" font-family="Helvetica" font-size="10.00">CDPL::Descr::AutoCorrelation3</text>
<text text-anchor="start" x="8" y="-86.5" font-family="Helvetica" font-size="10.00">DVectorCalculator&lt; Pharm</text>
<text text-anchor="middle" x="77" y="-75.5" font-family="Helvetica" font-size="10.00">::Feature &gt;</text>
</a>
</g>
</g>
<!-- Node2&#45;&gt;Node1 -->
<g id="edge1" class="edge">
<title>Node2&#45;&gt;Node1</title>
<path fill="none" stroke="midnightblue" d="M77,-58.16C77,-48.69 77,-38.65 77,-30.8"/>
<polygon fill="midnightblue" stroke="midnightblue" points="73.5,-58.46 77,-68.46 80.5,-58.46 73.5,-58.46"/>
</g>
<!-- Node3 -->
<g id="node3" class="node">
<title>Node3</title>
<g id="a_node3"><a xlink:href="classCDPL_1_1Descr_1_1AutoCorrelation3DVectorCalculator.html" target="_top" xlink:title="AutoCorrelation3DVectorCalculator.">
<polygon fill="none" stroke="black" points="0,-157.5 0,-187.5 154,-187.5 154,-157.5 0,-157.5"/>
<text text-anchor="start" x="8" y="-175.5" font-family="Helvetica" font-size="10.00">CDPL::Descr::AutoCorrelation3</text>
<text text-anchor="middle" x="77" y="-164.5" font-family="Helvetica" font-size="10.00">DVectorCalculator&lt; T &gt;</text>
</a>
</g>
</g>
<!-- Node3&#45;&gt;Node2 -->
<g id="edge2" class="edge">
<title>Node3&#45;&gt;Node2</title>
<path fill="none" stroke="orange" stroke-dasharray="5,2" d="M77,-147.07C77,-135.06 77,-120.79 77,-109.53"/>
<polygon fill="orange" stroke="orange" points="73.5,-147.3 77,-157.3 80.5,-147.3 73.5,-147.3"/>
<text text-anchor="middle" x="121.5" y="-131" font-family="Helvetica" font-size="10.00"> &lt; Pharm::Feature &gt;</text>
</g>
</g>
</svg>
