<?xml version="1.0" encoding="UTF-8" standalone="no"?>
<!DOCTYPE svg PUBLIC "-//W3C//DTD SVG 1.1//EN"
 "http://www.w3.org/Graphics/SVG/1.1/DTD/svg11.dtd">
<!-- Generated by graphviz version 2.44.0 (0)
 -->
<!-- Title: CDPL::Util::DecompressionIStream&lt; CompAlgo, CharT, TraitsT &gt; Pages: 1 -->
<svg width="917pt" height="88pt"
 viewBox="0.00 0.00 917.00 88.00" xmlns="http://www.w3.org/2000/svg" xmlns:xlink="http://www.w3.org/1999/xlink">
<g id="graph0" class="graph" transform="scale(1 1) rotate(0) translate(4 84)">
<title>CDPL::Util::DecompressionIStream&lt; CompAlgo, CharT, TraitsT &gt;</title>
<!-- Node1 -->
<g id="node1" class="node">
<title>Node1</title>
<g id="a_node1"><a xlink:title=" ">
<polygon fill="#bfbfbf" stroke="black" points="768,-19 768,-60 909,-60 909,-19 768,-19"/>
<text text-anchor="start" x="776" y="-48" font-family="Helvetica" font-size="10.00">CDPL::Util::Decompression</text>
<text text-anchor="start" x="776" y="-37" font-family="Helvetica" font-size="10.00">IStream&lt; CompAlgo, CharT,</text>
<text text-anchor="middle" x="838.5" y="-26" font-family="Helvetica" font-size="10.00"> TraitsT &gt;</text>
</a>
</g>
</g>
<!-- Node2 -->
<g id="node2" class="node">
<title>Node2</title>
<g id="a_node2"><a xlink:href="classCDPL_1_1Util_1_1CompressionStreamBase.html" target="_top" xlink:title=" ">
<polygon fill="none" stroke="black" points="572,-13.5 572,-65.5 731,-65.5 731,-13.5 572,-13.5"/>
<text text-anchor="start" x="580" y="-53.5" font-family="Helvetica" font-size="10.00">CDPL::Util::CompressionStream</text>
<text text-anchor="start" x="580" y="-42.5" font-family="Helvetica" font-size="10.00">Base&lt; CompAlgo, std::basic</text>
<text text-anchor="start" x="580" y="-31.5" font-family="Helvetica" font-size="10.00">_istream&lt; char, std::char_traits</text>
<text text-anchor="middle" x="651.5" y="-20.5" font-family="Helvetica" font-size="10.00">&lt; char &gt; &gt; &gt;</text>
</a>
</g>
</g>
<!-- Node2&#45;&gt;Node1 -->
<g id="edge1" class="edge">
<title>Node2&#45;&gt;Node1</title>
<path fill="none" stroke="midnightblue" d="M741.28,-39.5C750.23,-39.5 759.22,-39.5 767.92,-39.5"/>
<polygon fill="midnightblue" stroke="midnightblue" points="741.22,-36 731.22,-39.5 741.22,-43 741.22,-36"/>
</g>
<!-- Node3 -->
<g id="node3" class="node">
<title>Node3</title>
<g id="a_node3"><a xlink:title=" ">
<polygon fill="none" stroke="#bfbfbf" points="297,-49.5 297,-79.5 394,-79.5 394,-49.5 297,-49.5"/>
<text text-anchor="start" x="305" y="-67.5" font-family="Helvetica" font-size="10.00">std::basic_istream</text>
<text text-anchor="middle" x="345.5" y="-56.5" font-family="Helvetica" font-size="10.00">&lt; Char &gt;</text>
</a>
</g>
</g>
<!-- Node3&#45;&gt;Node2 -->
<g id="edge2" class="edge">
<title>Node3&#45;&gt;Node2</title>
<path fill="none" stroke="midnightblue" d="M404.56,-60.79C446.19,-58.01 503.58,-53.93 554,-49.5 559.79,-48.99 565.77,-48.44 571.79,-47.86"/>
<polygon fill="midnightblue" stroke="midnightblue" points="404.08,-57.31 394.33,-61.47 404.54,-64.3 404.08,-57.31"/>
</g>
<!-- Node4 -->
<g id="node4" class="node">
<title>Node4</title>
<g id="a_node4"><a xlink:title=" ">
<polygon fill="none" stroke="#bfbfbf" points="112,-55 112,-74 228,-74 228,-55 112,-55"/>
<text text-anchor="middle" x="170" y="-62" font-family="Helvetica" font-size="10.00">std::basic_ios&lt; Char &gt;</text>
</a>
</g>
</g>
<!-- Node4&#45;&gt;Node3 -->
<g id="edge3" class="edge">
<title>Node4&#45;&gt;Node3</title>
<path fill="none" stroke="midnightblue" d="M238.35,-64.5C257.87,-64.5 278.78,-64.5 296.83,-64.5"/>
<polygon fill="midnightblue" stroke="midnightblue" points="238.29,-61 228.29,-64.5 238.29,-68 238.29,-61"/>
</g>
<!-- Node5 -->
<g id="node5" class="node">
<title>Node5</title>
<g id="a_node5"><a xlink:title=" ">
<polygon fill="none" stroke="#bfbfbf" points="0,-55 0,-74 75,-74 75,-55 0,-55"/>
<text text-anchor="middle" x="37.5" y="-62" font-family="Helvetica" font-size="10.00">std::ios_base</text>
</a>
</g>
</g>
<!-- Node5&#45;&gt;Node4 -->
<g id="edge4" class="edge">
<title>Node5&#45;&gt;Node4</title>
<path fill="none" stroke="midnightblue" d="M85.32,-64.5C93.84,-64.5 102.81,-64.5 111.59,-64.5"/>
<polygon fill="midnightblue" stroke="midnightblue" points="85.2,-61 75.2,-64.5 85.2,-68 85.2,-61"/>
</g>
<!-- Node6 -->
<g id="node6" class="node">
<title>Node6</title>
<g id="a_node6"><a xlink:href="classCDPL_1_1Util_1_1CompressionStreamBase.html" target="_top" xlink:title=" ">
<polygon fill="none" stroke="black" points="265,-0.5 265,-30.5 426,-30.5 426,-0.5 265,-0.5"/>
<text text-anchor="start" x="273" y="-18.5" font-family="Helvetica" font-size="10.00">CDPL::Util::CompressionStream</text>
<text text-anchor="middle" x="345.5" y="-7.5" font-family="Helvetica" font-size="10.00">Base&lt; CompAlgo, StreamType &gt;</text>
</a>
</g>
</g>
<!-- Node6&#45;&gt;Node2 -->
<g id="edge5" class="edge">
<title>Node6&#45;&gt;Node2</title>
<path fill="none" stroke="orange" stroke-dasharray="5,2" d="M436.25,-11.46C472.88,-10.97 515.58,-11.89 554,-16.5 559.81,-17.2 565.79,-18.12 571.77,-19.18"/>
<polygon fill="orange" stroke="orange" points="436.02,-7.96 426.08,-11.63 436.14,-14.96 436.02,-7.96"/>
<text text-anchor="start" x="444" y="-41.5" font-family="Helvetica" font-size="10.00"> &lt; CompAlgo, std::basic</text>
<text text-anchor="start" x="444" y="-30.5" font-family="Helvetica" font-size="10.00">_istream&lt; char, std::char</text>
<text text-anchor="middle" x="499" y="-19.5" font-family="Helvetica" font-size="10.00">_traits&lt; char &gt; &gt; &gt;</text>
</g>
<!-- Node7 -->
<g id="node7" class="node">
<title>Node7</title>
<g id="a_node7"><a xlink:title=" ">
<polygon fill="none" stroke="#bfbfbf" points="135.5,-6 135.5,-25 204.5,-25 204.5,-6 135.5,-6"/>
<text text-anchor="middle" x="170" y="-13" font-family="Helvetica" font-size="10.00">StreamType</text>
</a>
</g>
</g>
<!-- Node7&#45;&gt;Node6 -->
<g id="edge6" class="edge">
<title>Node7&#45;&gt;Node6</title>
<path fill="none" stroke="midnightblue" d="M214.95,-15.5C230.11,-15.5 247.6,-15.5 264.72,-15.5"/>
<polygon fill="midnightblue" stroke="midnightblue" points="214.86,-12 204.86,-15.5 214.86,-19 214.86,-12"/>
</g>
</g>
</svg>
