<?xml version="1.0" encoding="UTF-8" standalone="no"?>
<!DOCTYPE svg PUBLIC "-//W3C//DTD SVG 1.1//EN"
 "http://www.w3.org/Graphics/SVG/1.1/DTD/svg11.dtd">
<!-- Generated by graphviz version 2.44.0 (0)
 -->
<!-- Title: Graphical Class Hierarchy Pages: 1 -->
<svg width="555pt" height="431pt"
 viewBox="0.00 0.00 555.00 431.00" xmlns="http://www.w3.org/2000/svg" xmlns:xlink="http://www.w3.org/1999/xlink">
<g id="graph0" class="graph" transform="scale(1 1) rotate(0) translate(4 427)">
<title>Graphical Class Hierarchy</title>
<!-- Node0 -->
<g id="node1" class="node">
<title>Node0</title>
<g id="a_node1"><a xlink:href="classCDPL_1_1Pharm_1_1FeatureGenerator.html" target="_top" xlink:title="FeatureGenerator.">
<polygon fill="none" stroke="black" points="0,-202 0,-221 159,-221 159,-202 0,-202"/>
<text text-anchor="middle" x="79.5" y="-209" font-family="Helvetica" font-size="10.00">CDPL::Pharm::FeatureGenerator</text>
</a>
</g>
</g>
<!-- Node1 -->
<g id="node2" class="node">
<title>Node1</title>
<g id="a_node2"><a xlink:href="classCDPL_1_1Pharm_1_1PatternBasedFeatureGenerator.html" target="_top" xlink:title="PatternBasedFeatureGenerator.">
<polygon fill="none" stroke="black" points="195,-196.5 195,-226.5 338,-226.5 338,-196.5 195,-196.5"/>
<text text-anchor="start" x="203" y="-214.5" font-family="Helvetica" font-size="10.00">CDPL::Pharm::PatternBased</text>
<text text-anchor="middle" x="266.5" y="-203.5" font-family="Helvetica" font-size="10.00">FeatureGenerator</text>
</a>
</g>
</g>
<!-- Node0&#45;&gt;Node1 -->
<g id="edge1" class="edge">
<title>Node0&#45;&gt;Node1</title>
<path fill="none" stroke="midnightblue" d="M169.24,-211.5C177.8,-211.5 186.4,-211.5 194.76,-211.5"/>
<polygon fill="midnightblue" stroke="midnightblue" points="169.22,-208 159.22,-211.5 169.22,-215 169.22,-208"/>
</g>
<!-- Node2 -->
<g id="node3" class="node">
<title>Node2</title>
<g id="a_node3"><a xlink:href="classCDPL_1_1Pharm_1_1AromaticFeatureGenerator.html" target="_top" xlink:title="AromaticFeatureGenerator.">
<polygon fill="none" stroke="black" points="383,-392.5 383,-422.5 538,-422.5 538,-392.5 383,-392.5"/>
<text text-anchor="start" x="391" y="-410.5" font-family="Helvetica" font-size="10.00">CDPL::Pharm::AromaticFeature</text>
<text text-anchor="middle" x="460.5" y="-399.5" font-family="Helvetica" font-size="10.00">Generator</text>
</a>
</g>
</g>
<!-- Node1&#45;&gt;Node2 -->
<g id="edge2" class="edge">
<title>Node1&#45;&gt;Node2</title>
<path fill="none" stroke="midnightblue" d="M276.06,-236.17C290.35,-273.72 322.69,-344.9 374,-383.5 378.56,-386.93 383.59,-389.87 388.85,-392.39"/>
<polygon fill="midnightblue" stroke="midnightblue" points="279.24,-234.7 272.5,-226.53 272.68,-237.12 279.24,-234.7"/>
</g>
<!-- Node3 -->
<g id="node4" class="node">
<title>Node3</title>
<g id="a_node4"><a xlink:href="classCDPL_1_1Pharm_1_1HBondAcceptorFeatureGenerator.html" target="_top" xlink:title="HBondAcceptorFeatureGenerator.">
<polygon fill="none" stroke="black" points="384.5,-343.5 384.5,-373.5 536.5,-373.5 536.5,-343.5 384.5,-343.5"/>
<text text-anchor="start" x="392.5" y="-361.5" font-family="Helvetica" font-size="10.00">CDPL::Pharm::HBondAcceptor</text>
<text text-anchor="middle" x="460.5" y="-350.5" font-family="Helvetica" font-size="10.00">FeatureGenerator</text>
</a>
</g>
</g>
<!-- Node1&#45;&gt;Node3 -->
<g id="edge3" class="edge">
<title>Node1&#45;&gt;Node3</title>
<path fill="none" stroke="midnightblue" d="M282.1,-235.65C300.23,-263.56 333.72,-308.94 374,-334.5 379.47,-337.97 385.44,-340.95 391.61,-343.5"/>
<polygon fill="midnightblue" stroke="midnightblue" points="284.87,-233.47 276.56,-226.9 278.96,-237.22 284.87,-233.47"/>
</g>
<!-- Node4 -->
<g id="node5" class="node">
<title>Node4</title>
<g id="a_node5"><a xlink:href="classCDPL_1_1Pharm_1_1HBondDonorFeatureGenerator.html" target="_top" xlink:title="HBondDonorFeatureGenerator.">
<polygon fill="none" stroke="black" points="374,-294.5 374,-324.5 547,-324.5 547,-294.5 374,-294.5"/>
<text text-anchor="start" x="382" y="-312.5" font-family="Helvetica" font-size="10.00">CDPL::Pharm::HBondDonorFeature</text>
<text text-anchor="middle" x="460.5" y="-301.5" font-family="Helvetica" font-size="10.00">Generator</text>
</a>
</g>
</g>
<!-- Node1&#45;&gt;Node4 -->
<g id="edge4" class="edge">
<title>Node1&#45;&gt;Node4</title>
<path fill="none" stroke="midnightblue" d="M293.17,-233.02C313.85,-249.42 344.29,-271.49 374,-285.5 381.11,-288.85 388.78,-291.82 396.51,-294.43"/>
<polygon fill="midnightblue" stroke="midnightblue" points="295.18,-230.15 285.2,-226.6 290.79,-235.6 295.18,-230.15"/>
</g>
<!-- Node5 -->
<g id="node6" class="node">
<title>Node5</title>
<g id="a_node6"><a xlink:href="classCDPL_1_1Pharm_1_1HydrophobicAtomFeatureGenerator.html" target="_top" xlink:title="HydrophobicAtomFeatureGenerator.">
<polygon fill="none" stroke="black" points="392,-245.5 392,-275.5 529,-275.5 529,-245.5 392,-245.5"/>
<text text-anchor="start" x="400" y="-263.5" font-family="Helvetica" font-size="10.00">CDPL::Pharm::Hydrophobic</text>
<text text-anchor="middle" x="460.5" y="-252.5" font-family="Helvetica" font-size="10.00">AtomFeatureGenerator</text>
</a>
</g>
</g>
<!-- Node1&#45;&gt;Node5 -->
<g id="edge5" class="edge">
<title>Node1&#45;&gt;Node5</title>
<path fill="none" stroke="midnightblue" d="M336.27,-229.05C357.35,-234.43 380.35,-240.3 400.7,-245.49"/>
<polygon fill="midnightblue" stroke="midnightblue" points="336.97,-225.62 326.41,-226.53 335.24,-232.4 336.97,-225.62"/>
</g>
<!-- Node6 -->
<g id="node7" class="node">
<title>Node6</title>
<g id="a_node7"><a xlink:href="classCDPL_1_1Pharm_1_1HydrophobicFeatureGenerator.html" target="_top" xlink:title="HydrophobicFeatureGenerator.">
<polygon fill="none" stroke="black" points="392,-196.5 392,-226.5 529,-226.5 529,-196.5 392,-196.5"/>
<text text-anchor="start" x="400" y="-214.5" font-family="Helvetica" font-size="10.00">CDPL::Pharm::Hydrophobic</text>
<text text-anchor="middle" x="460.5" y="-203.5" font-family="Helvetica" font-size="10.00">FeatureGenerator</text>
</a>
</g>
</g>
<!-- Node1&#45;&gt;Node6 -->
<g id="edge6" class="edge">
<title>Node1&#45;&gt;Node6</title>
<path fill="none" stroke="midnightblue" d="M348.57,-211.5C362.98,-211.5 377.86,-211.5 391.85,-211.5"/>
<polygon fill="midnightblue" stroke="midnightblue" points="348.18,-208 338.18,-211.5 348.18,-215 348.18,-208"/>
</g>
<!-- Node7 -->
<g id="node8" class="node">
<title>Node7</title>
<g id="a_node8"><a xlink:href="classCDPL_1_1Pharm_1_1NegIonizableFeatureGenerator.html" target="_top" xlink:title="NegIonizableFeatureGenerator.">
<polygon fill="none" stroke="black" points="390.5,-147.5 390.5,-177.5 530.5,-177.5 530.5,-147.5 390.5,-147.5"/>
<text text-anchor="start" x="398.5" y="-165.5" font-family="Helvetica" font-size="10.00">CDPL::Pharm::NegIonizable</text>
<text text-anchor="middle" x="460.5" y="-154.5" font-family="Helvetica" font-size="10.00">FeatureGenerator</text>
</a>
</g>
</g>
<!-- Node1&#45;&gt;Node7 -->
<g id="edge7" class="edge">
<title>Node1&#45;&gt;Node7</title>
<path fill="none" stroke="midnightblue" d="M336.27,-193.95C357.35,-188.57 380.35,-182.7 400.7,-177.51"/>
<polygon fill="midnightblue" stroke="midnightblue" points="335.24,-190.6 326.41,-196.47 336.97,-197.38 335.24,-190.6"/>
</g>
<!-- Node8 -->
<g id="node9" class="node">
<title>Node8</title>
<g id="a_node9"><a xlink:href="classCDPL_1_1Pharm_1_1PosIonizableFeatureGenerator.html" target="_top" xlink:title="PosIonizableFeatureGenerator.">
<polygon fill="none" stroke="black" points="390.5,-98.5 390.5,-128.5 530.5,-128.5 530.5,-98.5 390.5,-98.5"/>
<text text-anchor="start" x="398.5" y="-116.5" font-family="Helvetica" font-size="10.00">CDPL::Pharm::PosIonizable</text>
<text text-anchor="middle" x="460.5" y="-105.5" font-family="Helvetica" font-size="10.00">FeatureGenerator</text>
</a>
</g>
</g>
<!-- Node1&#45;&gt;Node8 -->
<g id="edge8" class="edge">
<title>Node1&#45;&gt;Node8</title>
<path fill="none" stroke="midnightblue" d="M293.63,-190.09C314.36,-174 344.63,-152.43 374,-138.5 381.83,-134.79 390.32,-131.51 398.81,-128.64"/>
<polygon fill="midnightblue" stroke="midnightblue" points="291.32,-187.45 285.64,-196.39 295.66,-192.95 291.32,-187.45"/>
</g>
<!-- Node9 -->
<g id="node10" class="node">
<title>Node9</title>
<g id="a_node10"><a xlink:href="classCDPL_1_1Pharm_1_1XBondAcceptorFeatureGenerator.html" target="_top" xlink:title="XBondAcceptorFeatureGenerator.">
<polygon fill="none" stroke="black" points="384.5,-49.5 384.5,-79.5 536.5,-79.5 536.5,-49.5 384.5,-49.5"/>
<text text-anchor="start" x="392.5" y="-67.5" font-family="Helvetica" font-size="10.00">CDPL::Pharm::XBondAcceptor</text>
<text text-anchor="middle" x="460.5" y="-56.5" font-family="Helvetica" font-size="10.00">FeatureGenerator</text>
</a>
</g>
</g>
<!-- Node1&#45;&gt;Node9 -->
<g id="edge9" class="edge">
<title>Node1&#45;&gt;Node9</title>
<path fill="none" stroke="midnightblue" d="M282.2,-187.63C300.41,-160.01 333.99,-115.08 374,-89.5 379.99,-85.67 386.59,-82.41 393.39,-79.63"/>
<polygon fill="midnightblue" stroke="midnightblue" points="279.1,-185.97 276.62,-196.28 284.98,-189.77 279.1,-185.97"/>
</g>
<!-- Node10 -->
<g id="node11" class="node">
<title>Node10</title>
<g id="a_node11"><a xlink:href="classCDPL_1_1Pharm_1_1XBondDonorFeatureGenerator.html" target="_top" xlink:title="XBondDonorFeatureGenerator.">
<polygon fill="none" stroke="black" points="374.5,-0.5 374.5,-30.5 546.5,-30.5 546.5,-0.5 374.5,-0.5"/>
<text text-anchor="start" x="382.5" y="-18.5" font-family="Helvetica" font-size="10.00">CDPL::Pharm::XBondDonorFeature</text>
<text text-anchor="middle" x="460.5" y="-7.5" font-family="Helvetica" font-size="10.00">Generator</text>
</a>
</g>
</g>
<!-- Node1&#45;&gt;Node10 -->
<g id="edge10" class="edge">
<title>Node1&#45;&gt;Node10</title>
<path fill="none" stroke="midnightblue" d="M276.26,-186.76C290.73,-149.45 323.19,-79.05 374,-40.5 379.05,-36.67 384.68,-33.42 390.57,-30.67"/>
<polygon fill="midnightblue" stroke="midnightblue" points="272.89,-185.76 272.65,-196.35 279.45,-188.22 272.89,-185.76"/>
</g>
</g>
</svg>
