<?xml version="1.0" encoding="UTF-8" standalone="no"?>
<!DOCTYPE svg PUBLIC "-//W3C//DTD SVG 1.1//EN"
 "http://www.w3.org/Graphics/SVG/1.1/DTD/svg11.dtd">
<!-- Generated by graphviz version 2.44.0 (0)
 -->
<!-- Title: CDPL::Math::QuaternionTemporaryTraits&lt; Q &gt; Pages: 1 -->
<svg width="417pt" height="88pt"
 viewBox="0.00 0.00 417.00 88.00" xmlns="http://www.w3.org/2000/svg" xmlns:xlink="http://www.w3.org/1999/xlink">
<g id="graph0" class="graph" transform="scale(1 1) rotate(0) translate(4 84)">
<title>CDPL::Math::QuaternionTemporaryTraits&lt; Q &gt;</title>
<!-- Node1 -->
<g id="node1" class="node">
<title>Node1</title>
<g id="a_node1"><a xlink:title=" ">
<polygon fill="#bfbfbf" stroke="black" points="0,-24.5 0,-54.5 170,-54.5 170,-24.5 0,-24.5"/>
<text text-anchor="start" x="8" y="-42.5" font-family="Helvetica" font-size="10.00">CDPL::Math::QuaternionTemporary</text>
<text text-anchor="middle" x="85" y="-31.5" font-family="Helvetica" font-size="10.00">Traits&lt; Q &gt;</text>
</a>
</g>
</g>
<!-- Node2 -->
<g id="node2" class="node">
<title>Node2</title>
<g id="a_node2"><a xlink:href="structCDPL_1_1Math_1_1QuaternionTemporaryTraits_3_01QuaternionReference_3_01Q_01_4_01_4.html" target="_top" xlink:title=" ">
<polygon fill="none" stroke="black" points="219.5,-49.5 219.5,-79.5 395.5,-79.5 395.5,-49.5 219.5,-49.5"/>
<text text-anchor="start" x="227.5" y="-67.5" font-family="Helvetica" font-size="10.00">CDPL::Math::QuaternionTemporary</text>
<text text-anchor="middle" x="307.5" y="-56.5" font-family="Helvetica" font-size="10.00">Traits&lt; QuaternionReference&lt; Q &gt; &gt;</text>
</a>
</g>
</g>
<!-- Node1&#45;&gt;Node2 -->
<g id="edge1" class="edge">
<title>Node1&#45;&gt;Node2</title>
<path fill="none" stroke="midnightblue" d="M180.55,-50.22C193.42,-51.68 206.58,-53.17 219.32,-54.62"/>
<polygon fill="midnightblue" stroke="midnightblue" points="180.64,-46.71 170.31,-49.06 179.85,-53.66 180.64,-46.71"/>
</g>
<!-- Node3 -->
<g id="node3" class="node">
<title>Node3</title>
<g id="a_node3"><a xlink:href="structCDPL_1_1Math_1_1QuaternionTemporaryTraits_3_01const_01QuaternionReference_3_01Q_01_4_01_4.html" target="_top" xlink:title=" ">
<polygon fill="none" stroke="black" points="206,-0.5 206,-30.5 409,-30.5 409,-0.5 206,-0.5"/>
<text text-anchor="start" x="214" y="-18.5" font-family="Helvetica" font-size="10.00">CDPL::Math::QuaternionTemporary</text>
<text text-anchor="middle" x="307.5" y="-7.5" font-family="Helvetica" font-size="10.00">Traits&lt; const QuaternionReference&lt; Q &gt; &gt;</text>
</a>
</g>
</g>
<!-- Node1&#45;&gt;Node3 -->
<g id="edge2" class="edge">
<title>Node1&#45;&gt;Node3</title>
<path fill="none" stroke="midnightblue" d="M180.52,-29.21C188.95,-28.29 197.51,-27.36 205.99,-26.44"/>
<polygon fill="midnightblue" stroke="midnightblue" points="179.87,-25.76 170.31,-30.32 180.63,-32.72 179.87,-25.76"/>
</g>
</g>
</svg>
