<?xml version="1.0" encoding="UTF-8" standalone="no"?>
<!DOCTYPE svg PUBLIC "-//W3C//DTD SVG 1.1//EN"
 "http://www.w3.org/Graphics/SVG/1.1/DTD/svg11.dtd">
<!-- Generated by graphviz version 2.44.0 (0)
 -->
<!-- Title: CDPL::Math::VectorTemporaryTraits&lt; const MatrixTranspose&lt; M &gt; &gt; Pages: 1 -->
<svg width="192pt" height="185pt"
 viewBox="0.00 0.00 192.00 185.00" xmlns="http://www.w3.org/2000/svg" xmlns:xlink="http://www.w3.org/1999/xlink">
<g id="graph0" class="graph" transform="scale(1 1) rotate(0) translate(4 181)">
<title>CDPL::Math::VectorTemporaryTraits&lt; const MatrixTranspose&lt; M &gt; &gt;</title>
<!-- Node1 -->
<g id="node1" class="node">
<title>Node1</title>
<g id="a_node1"><a xlink:title=" ">
<polygon fill="#bfbfbf" stroke="black" points="0,-0.5 0,-30.5 184,-30.5 184,-0.5 0,-0.5"/>
<text text-anchor="start" x="8" y="-18.5" font-family="Helvetica" font-size="10.00">CDPL::Math::VectorTemporary</text>
<text text-anchor="middle" x="92" y="-7.5" font-family="Helvetica" font-size="10.00">Traits&lt; const MatrixTranspose&lt; M &gt; &gt;</text>
</a>
</g>
</g>
<!-- Node2 -->
<g id="node2" class="node">
<title>Node2</title>
<g id="a_node2"><a xlink:href="structCDPL_1_1Math_1_1VectorTemporaryTraits.html" target="_top" xlink:title=" ">
<polygon fill="none" stroke="black" points="16.5,-68.5 16.5,-98.5 167.5,-98.5 167.5,-68.5 16.5,-68.5"/>
<text text-anchor="start" x="24.5" y="-86.5" font-family="Helvetica" font-size="10.00">CDPL::Math::VectorTemporary</text>
<text text-anchor="middle" x="92" y="-75.5" font-family="Helvetica" font-size="10.00">Traits&lt; M &gt;</text>
</a>
</g>
</g>
<!-- Node2&#45;&gt;Node1 -->
<g id="edge1" class="edge">
<title>Node2&#45;&gt;Node1</title>
<path fill="none" stroke="midnightblue" d="M92,-58.03C92,-48.86 92,-38.74 92,-30.79"/>
<polygon fill="midnightblue" stroke="midnightblue" points="88.5,-58.18 92,-68.18 95.5,-58.18 88.5,-58.18"/>
</g>
<!-- Node3 -->
<g id="node3" class="node">
<title>Node3</title>
<g id="a_node3"><a xlink:href="structCDPL_1_1Math_1_1VectorTemporaryTraits.html" target="_top" xlink:title=" ">
<polygon fill="none" stroke="black" points="16.5,-146.5 16.5,-176.5 167.5,-176.5 167.5,-146.5 16.5,-146.5"/>
<text text-anchor="start" x="24.5" y="-164.5" font-family="Helvetica" font-size="10.00">CDPL::Math::VectorTemporary</text>
<text text-anchor="middle" x="92" y="-153.5" font-family="Helvetica" font-size="10.00">Traits&lt; V &gt;</text>
</a>
</g>
</g>
<!-- Node3&#45;&gt;Node2 -->
<g id="edge2" class="edge">
<title>Node3&#45;&gt;Node2</title>
<path fill="none" stroke="orange" stroke-dasharray="5,2" d="M92,-136.09C92,-123.76 92,-109.22 92,-98.73"/>
<polygon fill="orange" stroke="orange" points="88.5,-136.2 92,-146.2 95.5,-136.21 88.5,-136.2"/>
<text text-anchor="middle" x="107" y="-120" font-family="Helvetica" font-size="10.00"> &lt; M &gt;</text>
</g>
</g>
</svg>
