<?xml version="1.0" encoding="UTF-8" standalone="no"?>
<!DOCTYPE svg PUBLIC "-//W3C//DTD SVG 1.1//EN"
 "http://www.w3.org/Graphics/SVG/1.1/DTD/svg11.dtd">
<!-- Generated by graphviz version 2.44.0 (0)
 -->
<!-- Title: CDPL::Math::QuaternionScalarRealUnaryFunctor&lt; Q &gt; Pages: 1 -->
<svg width="378pt" height="95pt"
 viewBox="0.00 0.00 378.00 95.00" xmlns="http://www.w3.org/2000/svg" xmlns:xlink="http://www.w3.org/1999/xlink">
<g id="graph0" class="graph" transform="scale(1 1) rotate(0) translate(4 91)">
<title>CDPL::Math::QuaternionScalarRealUnaryFunctor&lt; Q &gt;</title>
<!-- Node1 -->
<g id="node1" class="node">
<title>Node1</title>
<g id="a_node1"><a xlink:title=" ">
<polygon fill="#bfbfbf" stroke="black" points="107.5,-56.5 107.5,-86.5 259.5,-86.5 259.5,-56.5 107.5,-56.5"/>
<text text-anchor="start" x="115.5" y="-74.5" font-family="Helvetica" font-size="10.00">CDPL::Math::QuaternionScalar</text>
<text text-anchor="middle" x="183.5" y="-63.5" font-family="Helvetica" font-size="10.00">RealUnaryFunctor&lt; Q &gt;</text>
</a>
</g>
</g>
<!-- Node2 -->
<g id="node2" class="node">
<title>Node2</title>
<g id="a_node2"><a xlink:href="structCDPL_1_1Math_1_1QuaternionNorm.html" target="_top" xlink:title=" ">
<polygon fill="none" stroke="black" points="0,-0.5 0,-19.5 173,-19.5 173,-0.5 0,-0.5"/>
<text text-anchor="middle" x="86.5" y="-7.5" font-family="Helvetica" font-size="10.00">CDPL::Math::QuaternionNorm&lt; Q &gt;</text>
</a>
</g>
</g>
<!-- Node1&#45;&gt;Node2 -->
<g id="edge1" class="edge">
<title>Node1&#45;&gt;Node2</title>
<path fill="none" stroke="midnightblue" d="M151.82,-51.07C134.53,-40.46 113.98,-27.86 100.61,-19.66"/>
<polygon fill="midnightblue" stroke="midnightblue" points="150.16,-54.15 160.51,-56.4 153.82,-48.19 150.16,-54.15"/>
</g>
<!-- Node3 -->
<g id="node3" class="node">
<title>Node3</title>
<g id="a_node3"><a xlink:href="structCDPL_1_1Math_1_1QuaternionNorm2.html" target="_top" xlink:title=" ">
<polygon fill="none" stroke="black" points="191,-0.5 191,-19.5 370,-19.5 370,-0.5 191,-0.5"/>
<text text-anchor="middle" x="280.5" y="-7.5" font-family="Helvetica" font-size="10.00">CDPL::Math::QuaternionNorm2&lt; Q &gt;</text>
</a>
</g>
</g>
<!-- Node1&#45;&gt;Node3 -->
<g id="edge2" class="edge">
<title>Node1&#45;&gt;Node3</title>
<path fill="none" stroke="midnightblue" d="M215.18,-51.07C232.47,-40.46 253.02,-27.86 266.39,-19.66"/>
<polygon fill="midnightblue" stroke="midnightblue" points="213.18,-48.19 206.49,-56.4 216.84,-54.15 213.18,-48.19"/>
</g>
</g>
</svg>
