<?xml version="1.0" encoding="UTF-8" standalone="no"?>
<!DOCTYPE svg PUBLIC "-//W3C//DTD SVG 1.1//EN"
 "http://www.w3.org/Graphics/SVG/1.1/DTD/svg11.dtd">
<!-- Generated by graphviz version 2.40.1 (0)
 -->
<!-- Title: CDPL::Math::InitListMatrix&lt; T &gt; Pages: 1 -->
<svg width="1597pt" height="120pt"
 viewBox="0.00 0.00 1597.00 119.50" xmlns="http://www.w3.org/2000/svg" xmlns:xlink="http://www.w3.org/1999/xlink">
<g id="graph0" class="graph" transform="scale(1 1) rotate(0) translate(4 115.5)">
<title>CDPL::Math::InitListMatrix&lt; T &gt;</title>
<!-- Node1 -->
<g id="node1" class="node">
<title>Node1</title>
<g id="a_node1"><a xlink:title=" ">
<polygon fill="#bfbfbf" stroke="#000000" points="1419,-47.5 1419,-66.5 1589,-66.5 1589,-47.5 1419,-47.5"/>
<text text-anchor="middle" x="1504" y="-54.5" font-family="Helvetica,sans-Serif" font-size="10.00" fill="#000000">CDPL::Math::InitListMatrix&lt; T &gt;</text>
</a>
</g>
</g>
<!-- Node2 -->
<g id="node2" class="node">
<title>Node2</title>
<g id="a_node2"><a xlink:href="classCDPL_1_1Math_1_1MatrixContainer.html" target="_top" xlink:title=" ">
<polygon fill="none" stroke="#000000" points="1226,-42 1226,-72 1382,-72 1382,-42 1226,-42"/>
<text text-anchor="start" x="1234" y="-60" font-family="Helvetica,sans-Serif" font-size="10.00" fill="#000000">CDPL::Math::MatrixContainer</text>
<text text-anchor="middle" x="1304" y="-49" font-family="Helvetica,sans-Serif" font-size="10.00" fill="#000000">&lt; InitListMatrix&lt; T &gt; &gt;</text>
</a>
</g>
</g>
<!-- Node2&#45;&gt;Node1 -->
<g id="edge1" class="edge">
<title>Node2&#45;&gt;Node1</title>
<path fill="none" stroke="#191970" d="M1392.4418,-57C1401.2409,-57 1410.1611,-57 1418.9248,-57"/>
<polygon fill="#191970" stroke="#191970" points="1392.1845,-53.5001 1382.1845,-57 1392.1845,-60.5001 1392.1845,-53.5001"/>
</g>
<!-- Node3 -->
<g id="node3" class="node">
<title>Node3</title>
<g id="a_node3"><a xlink:href="classCDPL_1_1Math_1_1MatrixExpression.html" target="_top" xlink:title=" ">
<polygon fill="none" stroke="#000000" points="673.5,-62 673.5,-92 835.5,-92 835.5,-62 673.5,-62"/>
<text text-anchor="start" x="681.5" y="-80" font-family="Helvetica,sans-Serif" font-size="10.00" fill="#000000">CDPL::Math::MatrixExpression</text>
<text text-anchor="middle" x="754.5" y="-69" font-family="Helvetica,sans-Serif" font-size="10.00" fill="#000000">&lt; InitListMatrix&lt; T &gt; &gt;</text>
</a>
</g>
</g>
<!-- Node3&#45;&gt;Node2 -->
<g id="edge2" class="edge">
<title>Node3&#45;&gt;Node2</title>
<path fill="none" stroke="#191970" d="M845.6901,-74.492C937.2801,-71.8533 1082.4507,-67.3454 1208,-62 1213.836,-61.7515 1219.8706,-61.4775 1225.9404,-61.1897"/>
<polygon fill="#191970" stroke="#191970" points="845.5149,-70.9955 835.6194,-74.7808 845.7157,-77.9926 845.5149,-70.9955"/>
</g>
<!-- Node4 -->
<g id="node4" class="node">
<title>Node4</title>
<g id="a_node4"><a xlink:href="classCDPL_1_1Math_1_1Expression.html" target="_top" xlink:title=" ">
<polygon fill="none" stroke="#000000" points="344,-81 344,-111 475,-111 475,-81 344,-81"/>
<text text-anchor="start" x="352" y="-99" font-family="Helvetica,sans-Serif" font-size="10.00" fill="#000000">CDPL::Math::Expression</text>
<text text-anchor="middle" x="409.5" y="-88" font-family="Helvetica,sans-Serif" font-size="10.00" fill="#000000">&lt; InitListMatrix&lt; T &gt; &gt;</text>
</a>
</g>
</g>
<!-- Node4&#45;&gt;Node3 -->
<g id="edge3" class="edge">
<title>Node4&#45;&gt;Node3</title>
<path fill="none" stroke="#191970" d="M485.3864,-92.2542C530.5845,-89.9764 589.0764,-86.9468 641,-84 651.4466,-83.4071 662.4325,-82.7597 673.2866,-82.1057"/>
<polygon fill="#191970" stroke="#191970" points="485.1797,-88.7601 475.368,-92.7578 485.5312,-95.7513 485.1797,-88.7601"/>
</g>
<!-- Node5 -->
<g id="node5" class="node">
<title>Node5</title>
<g id="a_node5"><a xlink:href="classCDPL_1_1Math_1_1Expression.html" target="_top" xlink:title=" ">
<polygon fill="none" stroke="#000000" points="0,-41.5 0,-60.5 160,-60.5 160,-41.5 0,-41.5"/>
<text text-anchor="middle" x="80" y="-48.5" font-family="Helvetica,sans-Serif" font-size="10.00" fill="#000000">CDPL::Math::Expression&lt; E &gt;</text>
</a>
</g>
</g>
<!-- Node5&#45;&gt;Node4 -->
<g id="edge4" class="edge">
<title>Node5&#45;&gt;Node4</title>
<path fill="none" stroke="#ffa500" stroke-dasharray="5,2" d="M156.1785,-61.9494C163.5518,-62.9891 170.9189,-64.0201 178,-65 233.8321,-72.7261 297.2837,-81.2014 343.6204,-87.3345"/>
<polygon fill="#ffa500" stroke="#ffa500" points="156.5382,-58.4655 146.1466,-60.5302 155.5577,-65.3965 156.5382,-58.4655"/>
<text text-anchor="middle" x="237" y="-83" font-family="Helvetica,sans-Serif" font-size="10.00" fill="#000000"> &lt; InitListMatrix&lt; T &gt; &gt;</text>
</g>
<!-- Node6 -->
<g id="node6" class="node">
<title>Node6</title>
<g id="a_node6"><a xlink:href="classCDPL_1_1Math_1_1MatrixExpression.html" target="_top" xlink:title=" ">
<polygon fill="none" stroke="#000000" points="314,-41.5 314,-60.5 505,-60.5 505,-41.5 314,-41.5"/>
<text text-anchor="middle" x="409.5" y="-48.5" font-family="Helvetica,sans-Serif" font-size="10.00" fill="#000000">CDPL::Math::MatrixExpression&lt; E &gt;</text>
</a>
</g>
</g>
<!-- Node5&#45;&gt;Node6 -->
<g id="edge6" class="edge">
<title>Node5&#45;&gt;Node6</title>
<path fill="none" stroke="#191970" d="M170.4235,-51C214.9946,-51 268.7484,-51 313.988,-51"/>
<polygon fill="#191970" stroke="#191970" points="170.1835,-47.5001 160.1834,-51 170.1834,-54.5001 170.1835,-47.5001"/>
</g>
<!-- Node9 -->
<g id="node9" class="node">
<title>Node9</title>
<g id="a_node9"><a xlink:href="classCDPL_1_1Math_1_1Expression.html" target="_top" xlink:title=" ">
<polygon fill="none" stroke="#000000" points="329,-.5 329,-19.5 490,-19.5 490,-.5 329,-.5"/>
<text text-anchor="middle" x="409.5" y="-7.5" font-family="Helvetica,sans-Serif" font-size="10.00" fill="#000000">CDPL::Math::Expression&lt; C &gt;</text>
</a>
</g>
</g>
<!-- Node5&#45;&gt;Node9 -->
<g id="edge10" class="edge">
<title>Node5&#45;&gt;Node9</title>
<path fill="none" stroke="#ffa500" stroke-dasharray="5,2" d="M149.4527,-40.0174C159.0345,-38.6051 168.7555,-37.2261 178,-36 228.0155,-29.3663 284.2587,-23.0238 328.7832,-18.2639"/>
<polygon fill="#ffa500" stroke="#ffa500" points="148.9176,-36.5584 139.5437,-41.4961 149.9508,-43.4817 148.9176,-36.5584"/>
<text text-anchor="middle" x="237" y="-39" font-family="Helvetica,sans-Serif" font-size="10.00" fill="#000000"> &lt; C &gt;</text>
</g>
<!-- Node6&#45;&gt;Node3 -->
<g id="edge5" class="edge">
<title>Node6&#45;&gt;Node3</title>
<path fill="none" stroke="#ffa500" stroke-dasharray="5,2" d="M515.1873,-58.9648C566.0495,-62.7979 626.0778,-67.3218 673.2901,-70.8798"/>
<polygon fill="#ffa500" stroke="#ffa500" points="515.3784,-55.4694 505.1436,-58.2079 514.8522,-62.4496 515.3784,-55.4694"/>
<text text-anchor="middle" x="582" y="-70" font-family="Helvetica,sans-Serif" font-size="10.00" fill="#000000"> &lt; InitListMatrix&lt; T &gt; &gt;</text>
</g>
<!-- Node8 -->
<g id="node8" class="node">
<title>Node8</title>
<g id="a_node8"><a xlink:href="classCDPL_1_1Math_1_1MatrixExpression.html" target="_top" xlink:title=" ">
<polygon fill="none" stroke="#000000" points="659,-23.5 659,-42.5 850,-42.5 850,-23.5 659,-23.5"/>
<text text-anchor="middle" x="754.5" y="-30.5" font-family="Helvetica,sans-Serif" font-size="10.00" fill="#000000">CDPL::Math::MatrixExpression&lt; C &gt;</text>
</a>
</g>
</g>
<!-- Node6&#45;&gt;Node8 -->
<g id="edge11" class="edge">
<title>Node6&#45;&gt;Node8</title>
<path fill="none" stroke="#ffa500" stroke-dasharray="5,2" d="M502.4027,-40.5718C509.3673,-39.9757 516.2914,-39.4409 523,-39 567.6312,-36.0669 617.1907,-34.55 658.9664,-33.7723"/>
<polygon fill="#ffa500" stroke="#ffa500" points="501.8386,-37.1082 492.1902,-41.4852 502.4622,-44.0803 501.8386,-37.1082"/>
<text text-anchor="middle" x="582" y="-42" font-family="Helvetica,sans-Serif" font-size="10.00" fill="#000000"> &lt; C &gt;</text>
</g>
<!-- Node7 -->
<g id="node7" class="node">
<title>Node7</title>
<g id="a_node7"><a xlink:href="classCDPL_1_1Math_1_1MatrixContainer.html" target="_top" xlink:title=" ">
<polygon fill="none" stroke="#000000" points="887,-27.5 887,-46.5 1072,-46.5 1072,-27.5 887,-27.5"/>
<text text-anchor="middle" x="979.5" y="-34.5" font-family="Helvetica,sans-Serif" font-size="10.00" fill="#000000">CDPL::Math::MatrixContainer&lt; C &gt;</text>
</a>
</g>
</g>
<!-- Node7&#45;&gt;Node2 -->
<g id="edge7" class="edge">
<title>Node7&#45;&gt;Node2</title>
<path fill="none" stroke="#ffa500" stroke-dasharray="5,2" d="M1082.191,-43.2649C1121.5414,-45.6726 1166.8552,-48.4538 1208,-51 1213.8336,-51.361 1219.8664,-51.7355 1225.9351,-52.1129"/>
<polygon fill="#ffa500" stroke="#ffa500" points="1082.2521,-39.7622 1072.0571,-42.645 1081.8247,-46.7491 1082.2521,-39.7622"/>
<text text-anchor="middle" x="1149" y="-54" font-family="Helvetica,sans-Serif" font-size="10.00" fill="#000000"> &lt; InitListMatrix&lt; T &gt; &gt;</text>
</g>
<!-- Node8&#45;&gt;Node7 -->
<g id="edge8" class="edge">
<title>Node8&#45;&gt;Node7</title>
<path fill="none" stroke="#191970" d="M860.4891,-34.8843C869.2459,-35.0399 878.0554,-35.1965 886.7045,-35.3503"/>
<polygon fill="#191970" stroke="#191970" points="860.3072,-31.3806 850.2465,-34.7022 860.1827,-38.3795 860.3072,-31.3806"/>
</g>
<!-- Node9&#45;&gt;Node8 -->
<g id="edge9" class="edge">
<title>Node9&#45;&gt;Node8</title>
<path fill="none" stroke="#191970" d="M500.612,-16.0741C549.3655,-19.3244 609.3719,-23.3248 658.8045,-26.6203"/>
<polygon fill="#191970" stroke="#191970" points="500.5979,-12.5655 490.3872,-15.3925 500.1322,-19.55 500.5979,-12.5655"/>
</g>
</g>
</svg>
