<?xml version="1.0" encoding="UTF-8" standalone="no"?>
<!DOCTYPE svg PUBLIC "-//W3C//DTD SVG 1.1//EN"
 "http://www.w3.org/Graphics/SVG/1.1/DTD/svg11.dtd">
<!-- Generated by graphviz version 2.40.1 (0)
 -->
<!-- Title: CDPL::Math::ZeroMatrix&lt; T &gt; Pages: 1 -->
<svg width="1557pt" height="120pt"
 viewBox="0.00 0.00 1557.00 119.50" xmlns="http://www.w3.org/2000/svg" xmlns:xlink="http://www.w3.org/1999/xlink">
<g id="graph0" class="graph" transform="scale(1 1) rotate(0) translate(4 115.5)">
<title>CDPL::Math::ZeroMatrix&lt; T &gt;</title>
<!-- Node1 -->
<g id="node1" class="node">
<title>Node1</title>
<g id="a_node1"><a xlink:title=" ">
<polygon fill="#bfbfbf" stroke="#000000" points="1389,-47.5 1389,-66.5 1549,-66.5 1549,-47.5 1389,-47.5"/>
<text text-anchor="middle" x="1469" y="-54.5" font-family="Helvetica,sans-Serif" font-size="10.00" fill="#000000">CDPL::Math::ZeroMatrix&lt; T &gt;</text>
</a>
</g>
</g>
<!-- Node2 -->
<g id="node2" class="node">
<title>Node2</title>
<g id="a_node2"><a xlink:href="classCDPL_1_1Math_1_1MatrixContainer.html" target="_top" xlink:title=" ">
<polygon fill="none" stroke="#000000" points="1196,-42 1196,-72 1352,-72 1352,-42 1196,-42"/>
<text text-anchor="start" x="1204" y="-60" font-family="Helvetica,sans-Serif" font-size="10.00" fill="#000000">CDPL::Math::MatrixContainer</text>
<text text-anchor="middle" x="1274" y="-49" font-family="Helvetica,sans-Serif" font-size="10.00" fill="#000000">&lt; ZeroMatrix&lt; T &gt; &gt;</text>
</a>
</g>
</g>
<!-- Node2&#45;&gt;Node1 -->
<g id="edge1" class="edge">
<title>Node2&#45;&gt;Node1</title>
<path fill="none" stroke="#191970" d="M1362.4626,-57C1371.2665,-57 1380.1697,-57 1388.8815,-57"/>
<polygon fill="#191970" stroke="#191970" points="1362.1904,-53.5001 1352.1904,-57 1362.1903,-60.5001 1362.1904,-53.5001"/>
</g>
<!-- Node3 -->
<g id="node3" class="node">
<title>Node3</title>
<g id="a_node3"><a xlink:href="classCDPL_1_1Math_1_1MatrixExpression.html" target="_top" xlink:title=" ">
<polygon fill="none" stroke="#000000" points="653.5,-62 653.5,-92 815.5,-92 815.5,-62 653.5,-62"/>
<text text-anchor="start" x="661.5" y="-80" font-family="Helvetica,sans-Serif" font-size="10.00" fill="#000000">CDPL::Math::MatrixExpression</text>
<text text-anchor="middle" x="734.5" y="-69" font-family="Helvetica,sans-Serif" font-size="10.00" fill="#000000">&lt; ZeroMatrix&lt; T &gt; &gt;</text>
</a>
</g>
</g>
<!-- Node3&#45;&gt;Node2 -->
<g id="edge2" class="edge">
<title>Node3&#45;&gt;Node2</title>
<path fill="none" stroke="#191970" d="M825.99,-74.3926C915.6775,-71.7215 1056.2689,-67.2282 1178,-62 1183.8359,-61.7494 1189.8704,-61.4738 1195.9402,-61.1848"/>
<polygon fill="#191970" stroke="#191970" points="825.7431,-70.8982 815.8513,-74.6932 825.9506,-77.8952 825.7431,-70.8982"/>
</g>
<!-- Node4 -->
<g id="node4" class="node">
<title>Node4</title>
<g id="a_node4"><a xlink:href="classCDPL_1_1Math_1_1Expression.html" target="_top" xlink:title=" ">
<polygon fill="none" stroke="#000000" points="334,-81 334,-111 465,-111 465,-81 334,-81"/>
<text text-anchor="start" x="342" y="-99" font-family="Helvetica,sans-Serif" font-size="10.00" fill="#000000">CDPL::Math::Expression</text>
<text text-anchor="middle" x="399.5" y="-88" font-family="Helvetica,sans-Serif" font-size="10.00" fill="#000000">&lt; ZeroMatrix&lt; T &gt; &gt;</text>
</a>
</g>
</g>
<!-- Node4&#45;&gt;Node3 -->
<g id="edge3" class="edge">
<title>Node4&#45;&gt;Node3</title>
<path fill="none" stroke="#191970" d="M475.4645,-92.0251C518.223,-89.7525 572.5931,-86.8039 621,-84 631.4459,-83.3949 642.4314,-82.7404 653.2853,-82.0827"/>
<polygon fill="#191970" stroke="#191970" points="475.2143,-88.5334 465.4137,-92.5582 475.5851,-95.5235 475.2143,-88.5334"/>
</g>
<!-- Node5 -->
<g id="node5" class="node">
<title>Node5</title>
<g id="a_node5"><a xlink:href="classCDPL_1_1Math_1_1Expression.html" target="_top" xlink:title=" ">
<polygon fill="none" stroke="#000000" points="0,-41.5 0,-60.5 160,-60.5 160,-41.5 0,-41.5"/>
<text text-anchor="middle" x="80" y="-48.5" font-family="Helvetica,sans-Serif" font-size="10.00" fill="#000000">CDPL::Math::Expression&lt; E &gt;</text>
</a>
</g>
</g>
<!-- Node5&#45;&gt;Node4 -->
<g id="edge4" class="edge">
<title>Node5&#45;&gt;Node4</title>
<path fill="none" stroke="#ffa500" stroke-dasharray="5,2" d="M156.3675,-61.9312C163.6784,-62.9712 170.9804,-64.0074 178,-65 230.2881,-72.3938 289.5333,-80.6808 333.5866,-86.8251"/>
<polygon fill="#ffa500" stroke="#ffa500" points="156.8117,-58.4592 146.4181,-60.5144 155.8248,-65.3893 156.8117,-58.4592"/>
<text text-anchor="middle" x="232" y="-82" font-family="Helvetica,sans-Serif" font-size="10.00" fill="#000000"> &lt; ZeroMatrix&lt; T &gt; &gt;</text>
</g>
<!-- Node6 -->
<g id="node6" class="node">
<title>Node6</title>
<g id="a_node6"><a xlink:href="classCDPL_1_1Math_1_1MatrixExpression.html" target="_top" xlink:title=" ">
<polygon fill="none" stroke="#000000" points="304,-41.5 304,-60.5 495,-60.5 495,-41.5 304,-41.5"/>
<text text-anchor="middle" x="399.5" y="-48.5" font-family="Helvetica,sans-Serif" font-size="10.00" fill="#000000">CDPL::Math::MatrixExpression&lt; E &gt;</text>
</a>
</g>
</g>
<!-- Node5&#45;&gt;Node6 -->
<g id="edge6" class="edge">
<title>Node5&#45;&gt;Node6</title>
<path fill="none" stroke="#191970" d="M170.3562,-51C212.0504,-51 261.5727,-51 303.8931,-51"/>
<polygon fill="#191970" stroke="#191970" points="170.211,-47.5001 160.2109,-51 170.2109,-54.5001 170.211,-47.5001"/>
</g>
<!-- Node9 -->
<g id="node9" class="node">
<title>Node9</title>
<g id="a_node9"><a xlink:href="classCDPL_1_1Math_1_1Expression.html" target="_top" xlink:title=" ">
<polygon fill="none" stroke="#000000" points="319,-.5 319,-19.5 480,-19.5 480,-.5 319,-.5"/>
<text text-anchor="middle" x="399.5" y="-7.5" font-family="Helvetica,sans-Serif" font-size="10.00" fill="#000000">CDPL::Math::Expression&lt; C &gt;</text>
</a>
</g>
</g>
<!-- Node5&#45;&gt;Node9 -->
<g id="edge10" class="edge">
<title>Node5&#45;&gt;Node9</title>
<path fill="none" stroke="#ffa500" stroke-dasharray="5,2" d="M150.1509,-39.958C159.5072,-38.5746 168.9812,-37.2192 178,-36 224.6194,-29.698 276.8806,-23.5214 318.927,-18.7707"/>
<polygon fill="#ffa500" stroke="#ffa500" points="149.444,-36.5247 140.0715,-41.465 150.4792,-43.4478 149.444,-36.5247"/>
<text text-anchor="middle" x="232" y="-39" font-family="Helvetica,sans-Serif" font-size="10.00" fill="#000000"> &lt; C &gt;</text>
</g>
<!-- Node6&#45;&gt;Node3 -->
<g id="edge5" class="edge">
<title>Node6&#45;&gt;Node3</title>
<path fill="none" stroke="#ffa500" stroke-dasharray="5,2" d="M505.1414,-59.199C553.0262,-62.9155 608.7583,-67.2409 653.2936,-70.6974"/>
<polygon fill="#ffa500" stroke="#ffa500" points="505.2901,-55.7001 495.0492,-58.4158 504.7484,-62.6792 505.2901,-55.7001"/>
<text text-anchor="middle" x="567" y="-70" font-family="Helvetica,sans-Serif" font-size="10.00" fill="#000000"> &lt; ZeroMatrix&lt; T &gt; &gt;</text>
</g>
<!-- Node8 -->
<g id="node8" class="node">
<title>Node8</title>
<g id="a_node8"><a xlink:href="classCDPL_1_1Math_1_1MatrixExpression.html" target="_top" xlink:title=" ">
<polygon fill="none" stroke="#000000" points="639,-23.5 639,-42.5 830,-42.5 830,-23.5 639,-23.5"/>
<text text-anchor="middle" x="734.5" y="-30.5" font-family="Helvetica,sans-Serif" font-size="10.00" fill="#000000">CDPL::Math::MatrixExpression&lt; C &gt;</text>
</a>
</g>
</g>
<!-- Node6&#45;&gt;Node8 -->
<g id="edge11" class="edge">
<title>Node6&#45;&gt;Node8</title>
<path fill="none" stroke="#ffa500" stroke-dasharray="5,2" d="M492.4033,-40.5806C499.3678,-39.9825 506.2917,-39.4448 513,-39 554.1676,-36.2704 599.7178,-34.7748 638.753,-33.9583"/>
<polygon fill="#ffa500" stroke="#ffa500" points="491.8383,-37.1172 482.1909,-41.4965 492.4636,-44.0892 491.8383,-37.1172"/>
<text text-anchor="middle" x="567" y="-42" font-family="Helvetica,sans-Serif" font-size="10.00" fill="#000000"> &lt; C &gt;</text>
</g>
<!-- Node7 -->
<g id="node7" class="node">
<title>Node7</title>
<g id="a_node7"><a xlink:href="classCDPL_1_1Math_1_1MatrixContainer.html" target="_top" xlink:title=" ">
<polygon fill="none" stroke="#000000" points="867,-27.5 867,-46.5 1052,-46.5 1052,-27.5 867,-27.5"/>
<text text-anchor="middle" x="959.5" y="-34.5" font-family="Helvetica,sans-Serif" font-size="10.00" fill="#000000">CDPL::Math::MatrixContainer&lt; C &gt;</text>
</a>
</g>
</g>
<!-- Node7&#45;&gt;Node2 -->
<g id="edge7" class="edge">
<title>Node7&#45;&gt;Node2</title>
<path fill="none" stroke="#ffa500" stroke-dasharray="5,2" d="M1062.1887,-43.5303C1105.6327,-46.293 1155.4192,-49.4591 1195.8038,-52.0273"/>
<polygon fill="#ffa500" stroke="#ffa500" points="1062.3614,-40.0343 1052.1594,-42.8925 1061.917,-47.0202 1062.3614,-40.0343"/>
<text text-anchor="middle" x="1124" y="-54" font-family="Helvetica,sans-Serif" font-size="10.00" fill="#000000"> &lt; ZeroMatrix&lt; T &gt; &gt;</text>
</g>
<!-- Node8&#45;&gt;Node7 -->
<g id="edge8" class="edge">
<title>Node8&#45;&gt;Node7</title>
<path fill="none" stroke="#191970" d="M840.4891,-34.8843C849.2459,-35.0399 858.0554,-35.1965 866.7045,-35.3503"/>
<polygon fill="#191970" stroke="#191970" points="840.3072,-31.3806 830.2465,-34.7022 840.1827,-38.3795 840.3072,-31.3806"/>
</g>
<!-- Node9&#45;&gt;Node8 -->
<g id="edge9" class="edge">
<title>Node9&#45;&gt;Node8</title>
<path fill="none" stroke="#191970" d="M490.4185,-16.2422C536.3778,-19.3976 592.1394,-23.226 638.7569,-26.4266"/>
<polygon fill="#191970" stroke="#191970" points="490.3834,-12.7316 480.1672,-15.5383 489.9039,-19.7152 490.3834,-12.7316"/>
</g>
</g>
</svg>
