<?xml version="1.0" encoding="UTF-8" standalone="no"?>
<!DOCTYPE svg PUBLIC "-//W3C//DTD SVG 1.1//EN"
 "http://www.w3.org/Graphics/SVG/1.1/DTD/svg11.dtd">
<!-- Generated by graphviz version 2.40.1 (0)
 -->
<!-- Title: CDPL::Math::GridBinary1&lt; E1, E2, F &gt; Pages: 1 -->
<svg width="952pt" height="88pt"
 viewBox="0.00 0.00 952.00 88.00" xmlns="http://www.w3.org/2000/svg" xmlns:xlink="http://www.w3.org/1999/xlink">
<g id="graph0" class="graph" transform="scale(1 1) rotate(0) translate(4 84)">
<title>CDPL::Math::GridBinary1&lt; E1, E2, F &gt;</title>
<!-- Node1 -->
<g id="node1" class="node">
<title>Node1</title>
<g id="a_node1"><a xlink:title=" ">
<polygon fill="#bfbfbf" stroke="#000000" points="808,-21 808,-51 944,-51 944,-21 808,-21"/>
<text text-anchor="start" x="816" y="-39" font-family="Helvetica,sans-Serif" font-size="10.00" fill="#000000">CDPL::Math::GridBinary1</text>
<text text-anchor="middle" x="876" y="-28" font-family="Helvetica,sans-Serif" font-size="10.00" fill="#000000">&lt; E1, E2, F &gt;</text>
</a>
</g>
</g>
<!-- Node2 -->
<g id="node2" class="node">
<title>Node2</title>
<g id="a_node2"><a xlink:href="classCDPL_1_1Math_1_1GridExpression.html" target="_top" xlink:title=" ">
<polygon fill="none" stroke="#000000" points="610,-21 610,-51 771,-51 771,-21 610,-21"/>
<text text-anchor="start" x="618" y="-39" font-family="Helvetica,sans-Serif" font-size="10.00" fill="#000000">CDPL::Math::GridExpression</text>
<text text-anchor="middle" x="690.5" y="-28" font-family="Helvetica,sans-Serif" font-size="10.00" fill="#000000">&lt; GridBinary1&lt; E1, E2, F &gt; &gt;</text>
</a>
</g>
</g>
<!-- Node2&#45;&gt;Node1 -->
<g id="edge1" class="edge">
<title>Node2&#45;&gt;Node1</title>
<path fill="none" stroke="#191970" d="M781.2071,-36C790.2259,-36 799.2705,-36 807.9995,-36"/>
<polygon fill="#191970" stroke="#191970" points="781.0537,-32.5001 771.0537,-36 781.0537,-39.5001 781.0537,-32.5001"/>
</g>
<!-- Node3 -->
<g id="node3" class="node">
<title>Node3</title>
<g id="a_node3"><a xlink:href="classCDPL_1_1Math_1_1Expression.html" target="_top" xlink:title=" ">
<polygon fill="none" stroke="#000000" points="319.5,-38.5 319.5,-79.5 450.5,-79.5 450.5,-38.5 319.5,-38.5"/>
<text text-anchor="start" x="327.5" y="-67.5" font-family="Helvetica,sans-Serif" font-size="10.00" fill="#000000">CDPL::Math::Expression</text>
<text text-anchor="start" x="327.5" y="-56.5" font-family="Helvetica,sans-Serif" font-size="10.00" fill="#000000">&lt; GridBinary1&lt; E1, E2,</text>
<text text-anchor="middle" x="385" y="-45.5" font-family="Helvetica,sans-Serif" font-size="10.00" fill="#000000"> F &gt; &gt;</text>
</a>
</g>
</g>
<!-- Node3&#45;&gt;Node2 -->
<g id="edge2" class="edge">
<title>Node3&#45;&gt;Node2</title>
<path fill="none" stroke="#191970" d="M460.6064,-53.3079C505.9602,-49.8933 563.617,-45.5526 609.8432,-42.0724"/>
<polygon fill="#191970" stroke="#191970" points="460.2464,-49.825 450.5374,-54.0659 460.772,-56.8052 460.2464,-49.825"/>
</g>
<!-- Node4 -->
<g id="node4" class="node">
<title>Node4</title>
<g id="a_node4"><a xlink:href="classCDPL_1_1Math_1_1Expression.html" target="_top" xlink:title=" ">
<polygon fill="none" stroke="#000000" points="0,-24.5 0,-43.5 160,-43.5 160,-24.5 0,-24.5"/>
<text text-anchor="middle" x="80" y="-31.5" font-family="Helvetica,sans-Serif" font-size="10.00" fill="#000000">CDPL::Math::Expression&lt; E &gt;</text>
</a>
</g>
</g>
<!-- Node4&#45;&gt;Node3 -->
<g id="edge3" class="edge">
<title>Node4&#45;&gt;Node3</title>
<path fill="none" stroke="#ffa500" stroke-dasharray="5,2" d="M170.1827,-41.392C218.0115,-45.3124 275.7174,-50.0424 319.2712,-53.6124"/>
<polygon fill="#ffa500" stroke="#ffa500" points="170.3877,-37.8972 160.1352,-40.5685 169.8158,-44.8738 170.3877,-37.8972"/>
<text text-anchor="start" x="178" y="-63" font-family="Helvetica,sans-Serif" font-size="10.00" fill="#000000"> &lt; GridBinary1&lt; E1,</text>
<text text-anchor="middle" x="227.5" y="-52" font-family="Helvetica,sans-Serif" font-size="10.00" fill="#000000"> E2, F &gt; &gt;</text>
</g>
<!-- Node5 -->
<g id="node5" class="node">
<title>Node5</title>
<g id="a_node5"><a xlink:href="classCDPL_1_1Math_1_1GridExpression.html" target="_top" xlink:title=" ">
<polygon fill="none" stroke="#000000" points="295,-.5 295,-19.5 475,-19.5 475,-.5 295,-.5"/>
<text text-anchor="middle" x="385" y="-7.5" font-family="Helvetica,sans-Serif" font-size="10.00" fill="#000000">CDPL::Math::GridExpression&lt; E &gt;</text>
</a>
</g>
</g>
<!-- Node4&#45;&gt;Node5 -->
<g id="edge5" class="edge">
<title>Node4&#45;&gt;Node5</title>
<path fill="none" stroke="#191970" d="M170.2474,-26.8986C209.5842,-23.8032 255.5924,-20.1829 294.9113,-17.0889"/>
<polygon fill="#191970" stroke="#191970" points="169.8298,-23.4205 160.1352,-27.6943 170.3789,-30.3989 169.8298,-23.4205"/>
</g>
<!-- Node5&#45;&gt;Node2 -->
<g id="edge4" class="edge">
<title>Node5&#45;&gt;Node2</title>
<path fill="none" stroke="#ffa500" stroke-dasharray="5,2" d="M485.5243,-10.2354C519.4293,-11.1553 557.4321,-13.1059 592,-17 600.9994,-18.0138 610.4068,-19.3997 619.6853,-20.9646"/>
<polygon fill="#ffa500" stroke="#ffa500" points="485.2244,-6.7271 475.142,-9.982 485.0536,-13.725 485.2244,-6.7271"/>
<text text-anchor="start" x="493" y="-31" font-family="Helvetica,sans-Serif" font-size="10.00" fill="#000000"> &lt; GridBinary1&lt; E1,</text>
<text text-anchor="middle" x="542.5" y="-20" font-family="Helvetica,sans-Serif" font-size="10.00" fill="#000000"> E2, F &gt; &gt;</text>
</g>
</g>
</svg>
