<?xml version="1.0" encoding="UTF-8" standalone="no"?>
<!DOCTYPE svg PUBLIC "-//W3C//DTD SVG 1.1//EN"
 "http://www.w3.org/Graphics/SVG/1.1/DTD/svg11.dtd">
<!-- Generated by graphviz version 2.40.1 (0)
 -->
<!-- Title: CDPL::Math::VectorContainer&lt; C &gt; Pages: 1 -->
<svg width="1427pt" height="257pt"
 viewBox="0.00 0.00 1427.00 257.00" xmlns="http://www.w3.org/2000/svg" xmlns:xlink="http://www.w3.org/1999/xlink">
<g id="graph0" class="graph" transform="scale(1 1) rotate(0) translate(4 253)">
<title>CDPL::Math::VectorContainer&lt; C &gt;</title>
<!-- Node1 -->
<g id="node1" class="node">
<title>Node1</title>
<g id="a_node1"><a xlink:title=" ">
<polygon fill="#bfbfbf" stroke="#000000" points="717,-126 717,-145 902,-145 902,-126 717,-126"/>
<text text-anchor="middle" x="809.5" y="-133" font-family="Helvetica,sans-Serif" font-size="10.00" fill="#000000">CDPL::Math::VectorContainer&lt; C &gt;</text>
</a>
</g>
</g>
<!-- Node6 -->
<g id="node6" class="node">
<title>Node6</title>
<g id="a_node6"><a xlink:href="classCDPL_1_1Math_1_1VectorContainer.html" target="_top" xlink:title=" ">
<polygon fill="none" stroke="#000000" points="1056,-218.5 1056,-248.5 1212,-248.5 1212,-218.5 1056,-218.5"/>
<text text-anchor="start" x="1064" y="-236.5" font-family="Helvetica,sans-Serif" font-size="10.00" fill="#000000">CDPL::Math::VectorContainer</text>
<text text-anchor="middle" x="1134" y="-225.5" font-family="Helvetica,sans-Serif" font-size="10.00" fill="#000000">&lt; ScalarVector&lt; T &gt; &gt;</text>
</a>
</g>
</g>
<!-- Node1&#45;&gt;Node6 -->
<g id="edge6" class="edge">
<title>Node1&#45;&gt;Node6</title>
<path fill="none" stroke="#ffa500" stroke-dasharray="5,2" d="M837.7508,-149.458C859.7559,-159.9138 891.2875,-173.9958 920,-183.5 964.1891,-198.1272 1014.8624,-210.1685 1055.8038,-218.7665"/>
<polygon fill="#ffa500" stroke="#ffa500" points="839.1766,-146.26 828.6476,-145.0809 836.1432,-152.5686 839.1766,-146.26"/>
<text text-anchor="middle" x="979" y="-216.5" font-family="Helvetica,sans-Serif" font-size="10.00" fill="#000000"> &lt; ScalarVector&lt; T &gt; &gt;</text>
</g>
<!-- Node8 -->
<g id="node8" class="node">
<title>Node8</title>
<g id="a_node8"><a xlink:href="classCDPL_1_1Math_1_1VectorContainer.html" target="_top" xlink:title=" ">
<polygon fill="none" stroke="#000000" points="1056,-169.5 1056,-199.5 1212,-199.5 1212,-169.5 1056,-169.5"/>
<text text-anchor="start" x="1064" y="-187.5" font-family="Helvetica,sans-Serif" font-size="10.00" fill="#000000">CDPL::Math::VectorContainer</text>
<text text-anchor="middle" x="1134" y="-176.5" font-family="Helvetica,sans-Serif" font-size="10.00" fill="#000000">&lt; ZeroVector&lt; T &gt; &gt;</text>
</a>
</g>
</g>
<!-- Node1&#45;&gt;Node8 -->
<g id="edge8" class="edge">
<title>Node1&#45;&gt;Node8</title>
<path fill="none" stroke="#ffa500" stroke-dasharray="5,2" d="M882.5186,-146.5259C934.0665,-154.3097 1003.0551,-164.7271 1055.7353,-172.6819"/>
<polygon fill="#ffa500" stroke="#ffa500" points="882.8621,-143.0382 872.4516,-145.0058 881.8169,-149.9597 882.8621,-143.0382"/>
<text text-anchor="middle" x="979" y="-171.5" font-family="Helvetica,sans-Serif" font-size="10.00" fill="#000000"> &lt; ZeroVector&lt; T &gt; &gt;</text>
</g>
<!-- Node10 -->
<g id="node10" class="node">
<title>Node10</title>
<g id="a_node10"><a xlink:href="classCDPL_1_1Math_1_1VectorContainer.html" target="_top" xlink:title=" ">
<polygon fill="none" stroke="#000000" points="1056,-120.5 1056,-150.5 1212,-150.5 1212,-120.5 1056,-120.5"/>
<text text-anchor="start" x="1064" y="-138.5" font-family="Helvetica,sans-Serif" font-size="10.00" fill="#000000">CDPL::Math::VectorContainer</text>
<text text-anchor="middle" x="1134" y="-127.5" font-family="Helvetica,sans-Serif" font-size="10.00" fill="#000000">&lt; UnitVector&lt; T &gt; &gt;</text>
</a>
</g>
</g>
<!-- Node1&#45;&gt;Node10 -->
<g id="edge10" class="edge">
<title>Node1&#45;&gt;Node10</title>
<path fill="none" stroke="#ffa500" stroke-dasharray="5,2" d="M912.1609,-135.5C958.6629,-135.5 1012.7493,-135.5 1055.8745,-135.5"/>
<polygon fill="#ffa500" stroke="#ffa500" points="912.0544,-132.0001 902.0544,-135.5 912.0544,-139.0001 912.0544,-132.0001"/>
<text text-anchor="middle" x="979" y="-138.5" font-family="Helvetica,sans-Serif" font-size="10.00" fill="#000000"> &lt; UnitVector&lt; T &gt; &gt;</text>
</g>
<!-- Node12 -->
<g id="node12" class="node">
<title>Node12</title>
<g id="a_node12"><a xlink:href="classCDPL_1_1Math_1_1VectorContainer.html" target="_top" xlink:title=" ">
<polygon fill="none" stroke="#000000" points="1056,-71.5 1056,-101.5 1212,-101.5 1212,-71.5 1056,-71.5"/>
<text text-anchor="start" x="1064" y="-89.5" font-family="Helvetica,sans-Serif" font-size="10.00" fill="#000000">CDPL::Math::VectorContainer</text>
<text text-anchor="middle" x="1134" y="-78.5" font-family="Helvetica,sans-Serif" font-size="10.00" fill="#000000">&lt; InitListVector&lt; T &gt; &gt;</text>
</a>
</g>
</g>
<!-- Node1&#45;&gt;Node12 -->
<g id="edge12" class="edge">
<title>Node1&#45;&gt;Node12</title>
<path fill="none" stroke="#ffa500" stroke-dasharray="5,2" d="M882.5186,-124.4741C934.0665,-116.6903 1003.0551,-106.2729 1055.7353,-98.3181"/>
<polygon fill="#ffa500" stroke="#ffa500" points="881.8169,-121.0403 872.4516,-125.9942 882.8621,-127.9618 881.8169,-121.0403"/>
<text text-anchor="middle" x="979" y="-121.5" font-family="Helvetica,sans-Serif" font-size="10.00" fill="#000000"> &lt; InitListVector&lt; T &gt; &gt;</text>
</g>
<!-- Node14 -->
<g id="node14" class="node">
<title>Node14</title>
<g id="a_node14"><a xlink:href="classCDPL_1_1Math_1_1VectorContainer.html" target="_top" xlink:title=" ">
<polygon fill="none" stroke="#000000" points="1056,-.5 1056,-52.5 1212,-52.5 1212,-.5 1056,-.5"/>
<text text-anchor="start" x="1064" y="-40.5" font-family="Helvetica,sans-Serif" font-size="10.00" fill="#000000">CDPL::Math::VectorContainer</text>
<text text-anchor="start" x="1064" y="-29.5" font-family="Helvetica,sans-Serif" font-size="10.00" fill="#000000">&lt; SparseVector&lt; T, std::</text>
<text text-anchor="start" x="1064" y="-18.5" font-family="Helvetica,sans-Serif" font-size="10.00" fill="#000000">unordered_map&lt; std::size</text>
<text text-anchor="middle" x="1134" y="-7.5" font-family="Helvetica,sans-Serif" font-size="10.00" fill="#000000">_t, T &gt; &gt; &gt;</text>
</a>
</g>
</g>
<!-- Node1&#45;&gt;Node14 -->
<g id="edge14" class="edge">
<title>Node1&#45;&gt;Node14</title>
<path fill="none" stroke="#ffa500" stroke-dasharray="5,2" d="M829.1599,-119.7112C850.3262,-103.5444 885.607,-78.9377 920,-65.5 963.2655,-48.5958 1014.3575,-38.9323 1055.7674,-33.454"/>
<polygon fill="#ffa500" stroke="#ffa500" points="826.9979,-116.9587 821.2542,-125.8616 831.2962,-122.4837 826.9979,-116.9587"/>
<text text-anchor="start" x="925.5" y="-90.5" font-family="Helvetica,sans-Serif" font-size="10.00" fill="#000000"> &lt; SparseVector&lt; T,</text>
<text text-anchor="start" x="925.5" y="-79.5" font-family="Helvetica,sans-Serif" font-size="10.00" fill="#000000"> std::unordered_map</text>
<text text-anchor="middle" x="979" y="-68.5" font-family="Helvetica,sans-Serif" font-size="10.00" fill="#000000">&lt; std::size_t, T &gt; &gt; &gt;</text>
</g>
<!-- Node2 -->
<g id="node2" class="node">
<title>Node2</title>
<g id="a_node2"><a xlink:href="classCDPL_1_1Math_1_1VectorExpression.html" target="_top" xlink:title=" ">
<polygon fill="none" stroke="#000000" points="489,-126 489,-145 680,-145 680,-126 489,-126"/>
<text text-anchor="middle" x="584.5" y="-133" font-family="Helvetica,sans-Serif" font-size="10.00" fill="#000000">CDPL::Math::VectorExpression&lt; C &gt;</text>
</a>
</g>
</g>
<!-- Node2&#45;&gt;Node1 -->
<g id="edge1" class="edge">
<title>Node2&#45;&gt;Node1</title>
<path fill="none" stroke="#191970" d="M690.4891,-135.5C699.2459,-135.5 708.0554,-135.5 716.7045,-135.5"/>
<polygon fill="#191970" stroke="#191970" points="690.2465,-132.0001 680.2465,-135.5 690.2465,-139.0001 690.2465,-132.0001"/>
</g>
<!-- Node3 -->
<g id="node3" class="node">
<title>Node3</title>
<g id="a_node3"><a xlink:href="classCDPL_1_1Math_1_1Expression.html" target="_top" xlink:title=" ">
<polygon fill="none" stroke="#000000" points="244,-144 244,-163 405,-163 405,-144 244,-144"/>
<text text-anchor="middle" x="324.5" y="-151" font-family="Helvetica,sans-Serif" font-size="10.00" fill="#000000">CDPL::Math::Expression&lt; C &gt;</text>
</a>
</g>
</g>
<!-- Node3&#45;&gt;Node2 -->
<g id="edge2" class="edge">
<title>Node3&#45;&gt;Node2</title>
<path fill="none" stroke="#191970" d="M415.373,-147.2088C439.0802,-145.5675 464.7018,-143.7937 488.6578,-142.1352"/>
<polygon fill="#191970" stroke="#191970" points="415.0748,-143.721 405.3404,-147.9034 415.5583,-150.7043 415.0748,-143.721"/>
</g>
<!-- Node4 -->
<g id="node4" class="node">
<title>Node4</title>
<g id="a_node4"><a xlink:href="classCDPL_1_1Math_1_1Expression.html" target="_top" xlink:title=" ">
<polygon fill="none" stroke="#000000" points="0,-124 0,-143 160,-143 160,-124 0,-124"/>
<text text-anchor="middle" x="80" y="-131" font-family="Helvetica,sans-Serif" font-size="10.00" fill="#000000">CDPL::Math::Expression&lt; E &gt;</text>
</a>
</g>
</g>
<!-- Node4&#45;&gt;Node3 -->
<g id="edge3" class="edge">
<title>Node4&#45;&gt;Node3</title>
<path fill="none" stroke="#ffa500" stroke-dasharray="5,2" d="M170.2715,-140.8842C194.3851,-142.8567 220.2842,-144.9752 243.8434,-146.9023"/>
<polygon fill="#ffa500" stroke="#ffa500" points="170.3105,-137.3758 160.0584,-140.0487 169.7398,-144.3525 170.3105,-137.3758"/>
<text text-anchor="middle" x="194.5" y="-147.5" font-family="Helvetica,sans-Serif" font-size="10.00" fill="#000000"> &lt; C &gt;</text>
</g>
<!-- Node5 -->
<g id="node5" class="node">
<title>Node5</title>
<g id="a_node5"><a xlink:href="classCDPL_1_1Math_1_1VectorExpression.html" target="_top" xlink:title=" ">
<polygon fill="none" stroke="#000000" points="229,-106 229,-125 420,-125 420,-106 229,-106"/>
<text text-anchor="middle" x="324.5" y="-113" font-family="Helvetica,sans-Serif" font-size="10.00" fill="#000000">CDPL::Math::VectorExpression&lt; E &gt;</text>
</a>
</g>
</g>
<!-- Node4&#45;&gt;Node5 -->
<g id="edge5" class="edge">
<title>Node4&#45;&gt;Node5</title>
<path fill="none" stroke="#191970" d="M170.2481,-126.856C189.371,-125.4482 209.6176,-123.9576 228.9304,-122.5358"/>
<polygon fill="#191970" stroke="#191970" points="169.7745,-123.3813 160.0584,-127.6061 170.2885,-130.3624 169.7745,-123.3813"/>
</g>
<!-- Node5&#45;&gt;Node2 -->
<g id="edge4" class="edge">
<title>Node5&#45;&gt;Node2</title>
<path fill="none" stroke="#ffa500" stroke-dasharray="5,2" d="M430.2884,-123.6376C449.716,-125.132 469.8915,-126.684 488.9956,-128.1535"/>
<polygon fill="#ffa500" stroke="#ffa500" points="430.4458,-120.1394 420.2067,-122.8621 429.9088,-127.1188 430.4458,-120.1394"/>
<text text-anchor="middle" x="454.5" y="-130.5" font-family="Helvetica,sans-Serif" font-size="10.00" fill="#000000"> &lt; C &gt;</text>
</g>
<!-- Node7 -->
<g id="node7" class="node">
<title>Node7</title>
<g id="a_node7"><a xlink:href="classCDPL_1_1Math_1_1ScalarVector.html" target="_top" xlink:title=" ">
<polygon fill="none" stroke="#000000" points="1250.5,-224 1250.5,-243 1417.5,-243 1417.5,-224 1250.5,-224"/>
<text text-anchor="middle" x="1334" y="-231" font-family="Helvetica,sans-Serif" font-size="10.00" fill="#000000">CDPL::Math::ScalarVector&lt; T &gt;</text>
</a>
</g>
</g>
<!-- Node6&#45;&gt;Node7 -->
<g id="edge7" class="edge">
<title>Node6&#45;&gt;Node7</title>
<path fill="none" stroke="#191970" d="M1222.2227,-233.5C1231.5379,-233.5 1240.9914,-233.5 1250.2538,-233.5"/>
<polygon fill="#191970" stroke="#191970" points="1222.1845,-230.0001 1212.1845,-233.5 1222.1845,-237.0001 1222.1845,-230.0001"/>
</g>
<!-- Node9 -->
<g id="node9" class="node">
<title>Node9</title>
<g id="a_node9"><a xlink:href="classCDPL_1_1Math_1_1ZeroVector.html" target="_top" xlink:title=" ">
<polygon fill="none" stroke="#000000" points="1254,-175 1254,-194 1414,-194 1414,-175 1254,-175"/>
<text text-anchor="middle" x="1334" y="-182" font-family="Helvetica,sans-Serif" font-size="10.00" fill="#000000">CDPL::Math::ZeroVector&lt; T &gt;</text>
</a>
</g>
</g>
<!-- Node8&#45;&gt;Node9 -->
<g id="edge9" class="edge">
<title>Node8&#45;&gt;Node9</title>
<path fill="none" stroke="#191970" d="M1222.2201,-184.5C1232.7601,-184.5 1243.4772,-184.5 1253.8941,-184.5"/>
<polygon fill="#191970" stroke="#191970" points="1222.1845,-181.0001 1212.1845,-184.5 1222.1845,-188.0001 1222.1845,-181.0001"/>
</g>
<!-- Node11 -->
<g id="node11" class="node">
<title>Node11</title>
<g id="a_node11"><a xlink:href="classCDPL_1_1Math_1_1UnitVector.html" target="_top" xlink:title=" ">
<polygon fill="none" stroke="#000000" points="1255,-126 1255,-145 1413,-145 1413,-126 1255,-126"/>
<text text-anchor="middle" x="1334" y="-133" font-family="Helvetica,sans-Serif" font-size="10.00" fill="#000000">CDPL::Math::UnitVector&lt; T &gt;</text>
</a>
</g>
</g>
<!-- Node10&#45;&gt;Node11 -->
<g id="edge11" class="edge">
<title>Node10&#45;&gt;Node11</title>
<path fill="none" stroke="#191970" d="M1222.4626,-135.5C1233.2584,-135.5 1244.2359,-135.5 1254.8829,-135.5"/>
<polygon fill="#191970" stroke="#191970" points="1222.1845,-132.0001 1212.1845,-135.5 1222.1845,-139.0001 1222.1845,-132.0001"/>
</g>
<!-- Node13 -->
<g id="node13" class="node">
<title>Node13</title>
<g id="a_node13"><a xlink:href="classCDPL_1_1Math_1_1InitListVector.html" target="_top" xlink:title=" ">
<polygon fill="none" stroke="#000000" points="1249,-77 1249,-96 1419,-96 1419,-77 1249,-77"/>
<text text-anchor="middle" x="1334" y="-84" font-family="Helvetica,sans-Serif" font-size="10.00" fill="#000000">CDPL::Math::InitListVector&lt; T &gt;</text>
</a>
</g>
</g>
<!-- Node12&#45;&gt;Node13 -->
<g id="edge13" class="edge">
<title>Node12&#45;&gt;Node13</title>
<path fill="none" stroke="#191970" d="M1222.4418,-86.5C1231.2409,-86.5 1240.1611,-86.5 1248.9248,-86.5"/>
<polygon fill="#191970" stroke="#191970" points="1222.1845,-83.0001 1212.1845,-86.5 1222.1845,-90.0001 1222.1845,-83.0001"/>
</g>
<!-- Node15 -->
<g id="node15" class="node">
<title>Node15</title>
<g id="a_node15"><a xlink:href="classCDPL_1_1Math_1_1SparseVector.html" target="_top" xlink:title=" ">
<polygon fill="none" stroke="#000000" points="1263,-11.5 1263,-41.5 1405,-41.5 1405,-11.5 1263,-11.5"/>
<text text-anchor="start" x="1271" y="-29.5" font-family="Helvetica,sans-Serif" font-size="10.00" fill="#000000">CDPL::Math::SparseVector</text>
<text text-anchor="middle" x="1334" y="-18.5" font-family="Helvetica,sans-Serif" font-size="10.00" fill="#000000">&lt; T, A &gt;</text>
</a>
</g>
</g>
<!-- Node14&#45;&gt;Node15 -->
<g id="edge15" class="edge">
<title>Node14&#45;&gt;Node15</title>
<path fill="none" stroke="#191970" d="M1222.4209,-26.5C1235.9011,-26.5 1249.6658,-26.5 1262.7173,-26.5"/>
<polygon fill="#191970" stroke="#191970" points="1222.1845,-23.0001 1212.1845,-26.5 1222.1845,-30.0001 1222.1845,-23.0001"/>
</g>
</g>
</svg>
