<?xml version="1.0" encoding="UTF-8" standalone="no"?>
<!DOCTYPE svg PUBLIC "-//W3C//DTD SVG 1.1//EN"
 "http://www.w3.org/Graphics/SVG/1.1/DTD/svg11.dtd">
<!-- Generated by graphviz version 2.40.1 (0)
 -->
<!-- Title: CDPL::Math::MatrixContainer&lt; C &gt; Pages: 1 -->
<svg width="1935pt" height="541pt"
 viewBox="0.00 0.00 1935.00 541.00" xmlns="http://www.w3.org/2000/svg" xmlns:xlink="http://www.w3.org/1999/xlink">
<g id="graph0" class="graph" transform="scale(1 1) rotate(0) translate(4 537)">
<title>CDPL::Math::MatrixContainer&lt; C &gt;</title>
<!-- Node1 -->
<g id="node1" class="node">
<title>Node1</title>
<g id="a_node1"><a xlink:title=" ">
<polygon fill="#bfbfbf" stroke="#000000" points="717,-253 717,-272 902,-272 902,-253 717,-253"/>
<text text-anchor="middle" x="809.5" y="-260" font-family="Helvetica,sans-Serif" font-size="10.00" fill="#000000">CDPL::Math::MatrixContainer&lt; C &gt;</text>
</a>
</g>
</g>
<!-- Node6 -->
<g id="node6" class="node">
<title>Node6</title>
<g id="a_node6"><a xlink:href="classCDPL_1_1Math_1_1MatrixContainer.html" target="_top" xlink:title=" ">
<polygon fill="none" stroke="#000000" points="1077.5,-502.5 1077.5,-532.5 1233.5,-532.5 1233.5,-502.5 1077.5,-502.5"/>
<text text-anchor="start" x="1085.5" y="-520.5" font-family="Helvetica,sans-Serif" font-size="10.00" fill="#000000">CDPL::Math::MatrixContainer</text>
<text text-anchor="middle" x="1155.5" y="-509.5" font-family="Helvetica,sans-Serif" font-size="10.00" fill="#000000">&lt; IdentityMatrix&lt; T &gt; &gt;</text>
</a>
</g>
</g>
<!-- Node1&#45;&gt;Node6 -->
<g id="edge6" class="edge">
<title>Node1&#45;&gt;Node6</title>
<path fill="none" stroke="#ffa500" stroke-dasharray="5,2" d="M813.3387,-282.0951C822.9072,-325.3109 852.1073,-428.8919 920,-478.5 965.0893,-511.4461 1027.9598,-520.5141 1077.4,-521.7132"/>
<polygon fill="#ffa500" stroke="#ffa500" points="816.7534,-281.3248 811.2737,-272.2571 809.9027,-282.7628 816.7534,-281.3248"/>
<text text-anchor="middle" x="986.5" y="-522.5" font-family="Helvetica,sans-Serif" font-size="10.00" fill="#000000"> &lt; IdentityMatrix&lt; T &gt; &gt;</text>
</g>
<!-- Node8 -->
<g id="node8" class="node">
<title>Node8</title>
<g id="a_node8"><a xlink:href="classCDPL_1_1Math_1_1MatrixContainer.html" target="_top" xlink:title=" ">
<polygon fill="none" stroke="#000000" points="1077.5,-453.5 1077.5,-483.5 1233.5,-483.5 1233.5,-453.5 1077.5,-453.5"/>
<text text-anchor="start" x="1085.5" y="-471.5" font-family="Helvetica,sans-Serif" font-size="10.00" fill="#000000">CDPL::Math::MatrixContainer</text>
<text text-anchor="middle" x="1155.5" y="-460.5" font-family="Helvetica,sans-Serif" font-size="10.00" fill="#000000">&lt; ScalarMatrix&lt; T &gt; &gt;</text>
</a>
</g>
</g>
<!-- Node1&#45;&gt;Node8 -->
<g id="edge8" class="edge">
<title>Node1&#45;&gt;Node8</title>
<path fill="none" stroke="#ffa500" stroke-dasharray="5,2" d="M815.4038,-282.048C827.8857,-319.6671 860.7843,-401.7435 920,-439.5 945.4864,-455.7503 1019.1399,-462.8995 1077.3626,-466.0419"/>
<polygon fill="#ffa500" stroke="#ffa500" points="818.6669,-280.7599 812.2987,-272.2926 811.9967,-282.8831 818.6669,-280.7599"/>
<text text-anchor="middle" x="986.5" y="-466.5" font-family="Helvetica,sans-Serif" font-size="10.00" fill="#000000"> &lt; ScalarMatrix&lt; T &gt; &gt;</text>
</g>
<!-- Node10 -->
<g id="node10" class="node">
<title>Node10</title>
<g id="a_node10"><a xlink:href="classCDPL_1_1Math_1_1MatrixContainer.html" target="_top" xlink:title=" ">
<polygon fill="none" stroke="#000000" points="1077.5,-404.5 1077.5,-434.5 1233.5,-434.5 1233.5,-404.5 1077.5,-404.5"/>
<text text-anchor="start" x="1085.5" y="-422.5" font-family="Helvetica,sans-Serif" font-size="10.00" fill="#000000">CDPL::Math::MatrixContainer</text>
<text text-anchor="middle" x="1155.5" y="-411.5" font-family="Helvetica,sans-Serif" font-size="10.00" fill="#000000">&lt; TranslationMatrix&lt; T &gt; &gt;</text>
</a>
</g>
</g>
<!-- Node1&#45;&gt;Node10 -->
<g id="edge10" class="edge">
<title>Node1&#45;&gt;Node10</title>
<path fill="none" stroke="#ffa500" stroke-dasharray="5,2" d="M820.921,-280.8702C838.5974,-307.5838 875.2558,-356.5672 920,-380.5 968.3284,-406.35 1029.5733,-415.8999 1077.4916,-419.0922"/>
<polygon fill="#ffa500" stroke="#ffa500" points="823.6449,-278.6356 815.2876,-272.1236 817.7599,-282.4259 823.6449,-278.6356"/>
<text text-anchor="start" x="937" y="-430.5" font-family="Helvetica,sans-Serif" font-size="10.00" fill="#000000"> &lt; TranslationMatrix</text>
<text text-anchor="middle" x="986.5" y="-419.5" font-family="Helvetica,sans-Serif" font-size="10.00" fill="#000000">&lt; T &gt; &gt;</text>
</g>
<!-- Node12 -->
<g id="node12" class="node">
<title>Node12</title>
<g id="a_node12"><a xlink:href="classCDPL_1_1Math_1_1MatrixContainer.html" target="_top" xlink:title=" ">
<polygon fill="none" stroke="#000000" points="1077.5,-355.5 1077.5,-385.5 1233.5,-385.5 1233.5,-355.5 1077.5,-355.5"/>
<text text-anchor="start" x="1085.5" y="-373.5" font-family="Helvetica,sans-Serif" font-size="10.00" fill="#000000">CDPL::Math::MatrixContainer</text>
<text text-anchor="middle" x="1155.5" y="-362.5" font-family="Helvetica,sans-Serif" font-size="10.00" fill="#000000">&lt; ScalingMatrix&lt; T &gt; &gt;</text>
</a>
</g>
</g>
<!-- Node1&#45;&gt;Node12 -->
<g id="edge12" class="edge">
<title>Node1&#45;&gt;Node12</title>
<path fill="none" stroke="#ffa500" stroke-dasharray="5,2" d="M827.8405,-278.9043C848.6158,-296.4878 884.2512,-323.7262 920,-337.5 970.2742,-356.8704 1030.4895,-365.0675 1077.4464,-368.4492"/>
<polygon fill="#ffa500" stroke="#ffa500" points="829.9925,-276.1382 820.1381,-272.2468 825.4149,-281.4341 829.9925,-276.1382"/>
<text text-anchor="middle" x="986.5" y="-368.5" font-family="Helvetica,sans-Serif" font-size="10.00" fill="#000000"> &lt; ScalingMatrix&lt; T &gt; &gt;</text>
</g>
<!-- Node14 -->
<g id="node14" class="node">
<title>Node14</title>
<g id="a_node14"><a xlink:href="classCDPL_1_1Math_1_1MatrixContainer.html" target="_top" xlink:title=" ">
<polygon fill="none" stroke="#000000" points="1077.5,-284.5 1077.5,-336.5 1233.5,-336.5 1233.5,-284.5 1077.5,-284.5"/>
<text text-anchor="start" x="1085.5" y="-324.5" font-family="Helvetica,sans-Serif" font-size="10.00" fill="#000000">CDPL::Math::MatrixContainer</text>
<text text-anchor="start" x="1085.5" y="-313.5" font-family="Helvetica,sans-Serif" font-size="10.00" fill="#000000">&lt; SparseMatrix&lt; T, std::</text>
<text text-anchor="start" x="1085.5" y="-302.5" font-family="Helvetica,sans-Serif" font-size="10.00" fill="#000000">unordered_map&lt; std::uint64</text>
<text text-anchor="middle" x="1155.5" y="-291.5" font-family="Helvetica,sans-Serif" font-size="10.00" fill="#000000">_t, T &gt; &gt; &gt;</text>
</a>
</g>
</g>
<!-- Node1&#45;&gt;Node14 -->
<g id="edge14" class="edge">
<title>Node1&#45;&gt;Node14</title>
<path fill="none" stroke="#ffa500" stroke-dasharray="5,2" d="M860.3056,-274.179C878.9989,-278.1838 900.3905,-282.4262 920,-285.5 972.1956,-293.6818 1031.3276,-299.9488 1077.2814,-304.1618"/>
<polygon fill="#ffa500" stroke="#ffa500" points="861.0294,-270.7547 850.5142,-272.0509 859.5426,-277.595 861.0294,-270.7547"/>
<text text-anchor="start" x="927.5" y="-325.5" font-family="Helvetica,sans-Serif" font-size="10.00" fill="#000000"> &lt; SparseMatrix&lt; T,</text>
<text text-anchor="start" x="927.5" y="-314.5" font-family="Helvetica,sans-Serif" font-size="10.00" fill="#000000"> std::unordered_map</text>
<text text-anchor="middle" x="986.5" y="-303.5" font-family="Helvetica,sans-Serif" font-size="10.00" fill="#000000">&lt; std::uint64_t, T &gt; &gt; &gt;</text>
</g>
<!-- Node16 -->
<g id="node16" class="node">
<title>Node16</title>
<g id="a_node16"><a xlink:href="classCDPL_1_1Math_1_1MatrixContainer.html" target="_top" xlink:title=" ">
<polygon fill="none" stroke="#000000" points="1071,-235.5 1071,-265.5 1240,-265.5 1240,-235.5 1071,-235.5"/>
<text text-anchor="start" x="1079" y="-253.5" font-family="Helvetica,sans-Serif" font-size="10.00" fill="#000000">CDPL::Math::MatrixContainer</text>
<text text-anchor="middle" x="1155.5" y="-242.5" font-family="Helvetica,sans-Serif" font-size="10.00" fill="#000000">&lt; BoundedMatrix&lt; T, M, N &gt; &gt;</text>
</a>
</g>
</g>
<!-- Node1&#45;&gt;Node16 -->
<g id="edge16" class="edge">
<title>Node1&#45;&gt;Node16</title>
<path fill="none" stroke="#ffa500" stroke-dasharray="5,2" d="M912.513,-258.9273C963,-257.1763 1023.0519,-255.0936 1070.8243,-253.4367"/>
<polygon fill="#ffa500" stroke="#ffa500" points="912.0943,-255.4396 902.2217,-259.2842 912.337,-262.4354 912.0943,-255.4396"/>
<text text-anchor="start" x="932" y="-273.5" font-family="Helvetica,sans-Serif" font-size="10.00" fill="#000000"> &lt; BoundedMatrix&lt; T,</text>
<text text-anchor="middle" x="986.5" y="-262.5" font-family="Helvetica,sans-Serif" font-size="10.00" fill="#000000"> M, N &gt; &gt;</text>
</g>
<!-- Node18 -->
<g id="node18" class="node">
<title>Node18</title>
<g id="a_node18"><a xlink:href="classCDPL_1_1Math_1_1MatrixContainer.html" target="_top" xlink:title=" ">
<polygon fill="none" stroke="#000000" points="1258,-184 1258,-225 1436,-225 1436,-184 1258,-184"/>
<text text-anchor="start" x="1266" y="-213" font-family="Helvetica,sans-Serif" font-size="10.00" fill="#000000">CDPL::Math::MatrixContainer</text>
<text text-anchor="start" x="1266" y="-202" font-family="Helvetica,sans-Serif" font-size="10.00" fill="#000000">&lt; CMatrix&lt; typename TypeTraits</text>
<text text-anchor="middle" x="1347" y="-191" font-family="Helvetica,sans-Serif" font-size="10.00" fill="#000000">&lt; T &gt;::RealType, M, N &gt; &gt;</text>
</a>
</g>
</g>
<!-- Node1&#45;&gt;Node18 -->
<g id="edge18" class="edge">
<title>Node1&#45;&gt;Node18</title>
<path fill="none" stroke="#ffa500" stroke-dasharray="5,2" d="M836.2413,-248.4491C858.1041,-237.7477 890.1671,-223.8145 920,-217.5 1034.8242,-193.196 1170.8562,-193.9721 1257.9987,-198.1082"/>
<polygon fill="#ffa500" stroke="#ffa500" points="834.621,-245.3461 827.2458,-252.9524 837.7547,-251.6055 834.621,-245.3461"/>
<text text-anchor="start" x="920" y="-242.5" font-family="Helvetica,sans-Serif" font-size="10.00" fill="#000000"> &lt; CMatrix&lt; typename</text>
<text text-anchor="start" x="920" y="-231.5" font-family="Helvetica,sans-Serif" font-size="10.00" fill="#000000"> TypeTraits&lt; T &gt;::RealType,</text>
<text text-anchor="middle" x="986.5" y="-220.5" font-family="Helvetica,sans-Serif" font-size="10.00" fill="#000000"> M, N &gt; &gt;</text>
</g>
<!-- Node20 -->
<g id="node20" class="node">
<title>Node20</title>
<g id="a_node20"><a xlink:href="classCDPL_1_1Math_1_1MatrixContainer.html" target="_top" xlink:title=" ">
<polygon fill="none" stroke="#000000" points="1077.5,-147.5 1077.5,-177.5 1233.5,-177.5 1233.5,-147.5 1077.5,-147.5"/>
<text text-anchor="start" x="1085.5" y="-165.5" font-family="Helvetica,sans-Serif" font-size="10.00" fill="#000000">CDPL::Math::MatrixContainer</text>
<text text-anchor="middle" x="1155.5" y="-154.5" font-family="Helvetica,sans-Serif" font-size="10.00" fill="#000000">&lt; ZeroMatrix&lt; T &gt; &gt;</text>
</a>
</g>
</g>
<!-- Node1&#45;&gt;Node20 -->
<g id="edge20" class="edge">
<title>Node1&#45;&gt;Node20</title>
<path fill="none" stroke="#ffa500" stroke-dasharray="5,2" d="M824.2381,-245.2753C843.6851,-223.9527 880.1454,-188.6088 920,-173.5 970.0408,-154.5296 1030.3977,-152.0677 1077.4794,-154.1998"/>
<polygon fill="#ffa500" stroke="#ffa500" points="821.4493,-243.1446 817.4249,-252.9453 826.6828,-247.7934 821.4493,-243.1446"/>
<text text-anchor="middle" x="986.5" y="-176.5" font-family="Helvetica,sans-Serif" font-size="10.00" fill="#000000"> &lt; ZeroMatrix&lt; T &gt; &gt;</text>
</g>
<!-- Node22 -->
<g id="node22" class="node">
<title>Node22</title>
<g id="a_node22"><a xlink:href="classCDPL_1_1Math_1_1MatrixContainer.html" target="_top" xlink:title=" ">
<polygon fill="none" stroke="#000000" points="1077.5,-98.5 1077.5,-128.5 1233.5,-128.5 1233.5,-98.5 1077.5,-98.5"/>
<text text-anchor="start" x="1085.5" y="-116.5" font-family="Helvetica,sans-Serif" font-size="10.00" fill="#000000">CDPL::Math::MatrixContainer</text>
<text text-anchor="middle" x="1155.5" y="-105.5" font-family="Helvetica,sans-Serif" font-size="10.00" fill="#000000">&lt; CMatrix&lt; T, M, N &gt; &gt;</text>
</a>
</g>
</g>
<!-- Node1&#45;&gt;Node22 -->
<g id="edge22" class="edge">
<title>Node1&#45;&gt;Node22</title>
<path fill="none" stroke="#ffa500" stroke-dasharray="5,2" d="M820.0756,-243.8158C837.0887,-215.7435 873.4016,-163.43 920,-139.5 968.3,-114.6961 1029.4028,-108.5586 1077.2641,-108.4324"/>
<polygon fill="#ffa500" stroke="#ffa500" points="816.9332,-242.2546 814.8775,-252.6481 822.966,-245.8051 816.9332,-242.2546"/>
<text text-anchor="middle" x="986.5" y="-142.5" font-family="Helvetica,sans-Serif" font-size="10.00" fill="#000000"> &lt; CMatrix&lt; T, M, N &gt; &gt;</text>
</g>
<!-- Node24 -->
<g id="node24" class="node">
<title>Node24</title>
<g id="a_node24"><a xlink:href="classCDPL_1_1Math_1_1MatrixContainer.html" target="_top" xlink:title=" ">
<polygon fill="none" stroke="#000000" points="1077.5,-49.5 1077.5,-79.5 1233.5,-79.5 1233.5,-49.5 1077.5,-49.5"/>
<text text-anchor="start" x="1085.5" y="-67.5" font-family="Helvetica,sans-Serif" font-size="10.00" fill="#000000">CDPL::Math::MatrixContainer</text>
<text text-anchor="middle" x="1155.5" y="-56.5" font-family="Helvetica,sans-Serif" font-size="10.00" fill="#000000">&lt; RotationMatrix&lt; T &gt; &gt;</text>
</a>
</g>
</g>
<!-- Node1&#45;&gt;Node24 -->
<g id="edge25" class="edge">
<title>Node1&#45;&gt;Node24</title>
<path fill="none" stroke="#ffa500" stroke-dasharray="5,2" d="M816.0773,-242.9735C829.367,-206.841 863.0972,-130.0052 920,-94.5 966.6813,-65.3726 1028.7187,-58.4658 1077.4015,-58.5253"/>
<polygon fill="#ffa500" stroke="#ffa500" points="812.6404,-242.1946 812.6062,-252.7894 819.2399,-244.5284 812.6404,-242.1946"/>
<text text-anchor="middle" x="986.5" y="-97.5" font-family="Helvetica,sans-Serif" font-size="10.00" fill="#000000"> &lt; RotationMatrix&lt; T &gt; &gt;</text>
</g>
<!-- Node26 -->
<g id="node26" class="node">
<title>Node26</title>
<g id="a_node26"><a xlink:href="classCDPL_1_1Math_1_1MatrixContainer.html" target="_top" xlink:title=" ">
<polygon fill="none" stroke="#000000" points="1077.5,-.5 1077.5,-30.5 1233.5,-30.5 1233.5,-.5 1077.5,-.5"/>
<text text-anchor="start" x="1085.5" y="-18.5" font-family="Helvetica,sans-Serif" font-size="10.00" fill="#000000">CDPL::Math::MatrixContainer</text>
<text text-anchor="middle" x="1155.5" y="-7.5" font-family="Helvetica,sans-Serif" font-size="10.00" fill="#000000">&lt; InitListMatrix&lt; T &gt; &gt;</text>
</a>
</g>
</g>
<!-- Node1&#45;&gt;Node26 -->
<g id="edge27" class="edge">
<title>Node1&#45;&gt;Node26</title>
<path fill="none" stroke="#ffa500" stroke-dasharray="5,2" d="M813.1303,-242.52C822.2762,-198.4915 850.6749,-93.1689 920,-44.5 965.3471,-12.6646 1028.0506,-6.2762 1077.3554,-7.3833"/>
<polygon fill="#ffa500" stroke="#ffa500" points="809.6539,-242.0602 811.1653,-252.5467 816.5233,-243.4066 809.6539,-242.0602"/>
<text text-anchor="middle" x="986.5" y="-47.5" font-family="Helvetica,sans-Serif" font-size="10.00" fill="#000000"> &lt; InitListMatrix&lt; T &gt; &gt;</text>
</g>
<!-- Node2 -->
<g id="node2" class="node">
<title>Node2</title>
<g id="a_node2"><a xlink:href="classCDPL_1_1Math_1_1MatrixExpression.html" target="_top" xlink:title=" ">
<polygon fill="none" stroke="#000000" points="489,-253 489,-272 680,-272 680,-253 489,-253"/>
<text text-anchor="middle" x="584.5" y="-260" font-family="Helvetica,sans-Serif" font-size="10.00" fill="#000000">CDPL::Math::MatrixExpression&lt; C &gt;</text>
</a>
</g>
</g>
<!-- Node2&#45;&gt;Node1 -->
<g id="edge1" class="edge">
<title>Node2&#45;&gt;Node1</title>
<path fill="none" stroke="#191970" d="M690.4891,-262.5C699.2459,-262.5 708.0554,-262.5 716.7045,-262.5"/>
<polygon fill="#191970" stroke="#191970" points="690.2465,-259.0001 680.2465,-262.5 690.2465,-266.0001 690.2465,-259.0001"/>
</g>
<!-- Node3 -->
<g id="node3" class="node">
<title>Node3</title>
<g id="a_node3"><a xlink:href="classCDPL_1_1Math_1_1Expression.html" target="_top" xlink:title=" ">
<polygon fill="none" stroke="#000000" points="244,-271 244,-290 405,-290 405,-271 244,-271"/>
<text text-anchor="middle" x="324.5" y="-278" font-family="Helvetica,sans-Serif" font-size="10.00" fill="#000000">CDPL::Math::Expression&lt; C &gt;</text>
</a>
</g>
</g>
<!-- Node3&#45;&gt;Node2 -->
<g id="edge2" class="edge">
<title>Node3&#45;&gt;Node2</title>
<path fill="none" stroke="#191970" d="M415.373,-274.2088C439.0802,-272.5675 464.7018,-270.7937 488.6578,-269.1352"/>
<polygon fill="#191970" stroke="#191970" points="415.0748,-270.721 405.3404,-274.9034 415.5583,-277.7043 415.0748,-270.721"/>
</g>
<!-- Node4 -->
<g id="node4" class="node">
<title>Node4</title>
<g id="a_node4"><a xlink:href="classCDPL_1_1Math_1_1Expression.html" target="_top" xlink:title=" ">
<polygon fill="none" stroke="#000000" points="0,-251 0,-270 160,-270 160,-251 0,-251"/>
<text text-anchor="middle" x="80" y="-258" font-family="Helvetica,sans-Serif" font-size="10.00" fill="#000000">CDPL::Math::Expression&lt; E &gt;</text>
</a>
</g>
</g>
<!-- Node4&#45;&gt;Node3 -->
<g id="edge3" class="edge">
<title>Node4&#45;&gt;Node3</title>
<path fill="none" stroke="#ffa500" stroke-dasharray="5,2" d="M170.2715,-267.8842C194.3851,-269.8567 220.2842,-271.9752 243.8434,-273.9023"/>
<polygon fill="#ffa500" stroke="#ffa500" points="170.3105,-264.3758 160.0584,-267.0487 169.7398,-271.3525 170.3105,-264.3758"/>
<text text-anchor="middle" x="194.5" y="-274.5" font-family="Helvetica,sans-Serif" font-size="10.00" fill="#000000"> &lt; C &gt;</text>
</g>
<!-- Node5 -->
<g id="node5" class="node">
<title>Node5</title>
<g id="a_node5"><a xlink:href="classCDPL_1_1Math_1_1MatrixExpression.html" target="_top" xlink:title=" ">
<polygon fill="none" stroke="#000000" points="229,-233 229,-252 420,-252 420,-233 229,-233"/>
<text text-anchor="middle" x="324.5" y="-240" font-family="Helvetica,sans-Serif" font-size="10.00" fill="#000000">CDPL::Math::MatrixExpression&lt; E &gt;</text>
</a>
</g>
</g>
<!-- Node4&#45;&gt;Node5 -->
<g id="edge5" class="edge">
<title>Node4&#45;&gt;Node5</title>
<path fill="none" stroke="#191970" d="M170.2481,-253.856C189.371,-252.4482 209.6176,-250.9576 228.9304,-249.5358"/>
<polygon fill="#191970" stroke="#191970" points="169.7745,-250.3813 160.0584,-254.6061 170.2885,-257.3624 169.7745,-250.3813"/>
</g>
<!-- Node5&#45;&gt;Node2 -->
<g id="edge4" class="edge">
<title>Node5&#45;&gt;Node2</title>
<path fill="none" stroke="#ffa500" stroke-dasharray="5,2" d="M430.2884,-250.6376C449.716,-252.132 469.8915,-253.684 488.9956,-255.1535"/>
<polygon fill="#ffa500" stroke="#ffa500" points="430.4458,-247.1394 420.2067,-249.8621 429.9088,-254.1188 430.4458,-247.1394"/>
<text text-anchor="middle" x="454.5" y="-257.5" font-family="Helvetica,sans-Serif" font-size="10.00" fill="#000000"> &lt; C &gt;</text>
</g>
<!-- Node7 -->
<g id="node7" class="node">
<title>Node7</title>
<g id="a_node7"><a xlink:href="classCDPL_1_1Math_1_1IdentityMatrix.html" target="_top" xlink:title=" ">
<polygon fill="none" stroke="#000000" points="1462,-508 1462,-527 1637,-527 1637,-508 1462,-508"/>
<text text-anchor="middle" x="1549.5" y="-515" font-family="Helvetica,sans-Serif" font-size="10.00" fill="#000000">CDPL::Math::IdentityMatrix&lt; T &gt;</text>
</a>
</g>
</g>
<!-- Node6&#45;&gt;Node7 -->
<g id="edge7" class="edge">
<title>Node6&#45;&gt;Node7</title>
<path fill="none" stroke="#191970" d="M1244.0407,-517.5C1309.0361,-517.5 1396.915,-517.5 1461.7289,-517.5"/>
<polygon fill="#191970" stroke="#191970" points="1243.8128,-514.0001 1233.8128,-517.5 1243.8128,-521.0001 1243.8128,-514.0001"/>
</g>
<!-- Node9 -->
<g id="node9" class="node">
<title>Node9</title>
<g id="a_node9"><a xlink:href="classCDPL_1_1Math_1_1ScalarMatrix.html" target="_top" xlink:title=" ">
<polygon fill="none" stroke="#000000" points="1466,-459 1466,-478 1633,-478 1633,-459 1466,-459"/>
<text text-anchor="middle" x="1549.5" y="-466" font-family="Helvetica,sans-Serif" font-size="10.00" fill="#000000">CDPL::Math::ScalarMatrix&lt; T &gt;</text>
</a>
</g>
</g>
<!-- Node8&#45;&gt;Node9 -->
<g id="edge9" class="edge">
<title>Node8&#45;&gt;Node9</title>
<path fill="none" stroke="#191970" d="M1243.8449,-468.5C1310.2608,-468.5 1400.6533,-468.5 1465.891,-468.5"/>
<polygon fill="#191970" stroke="#191970" points="1243.8128,-465.0001 1233.8128,-468.5 1243.8128,-472.0001 1243.8128,-465.0001"/>
</g>
<!-- Node11 -->
<g id="node11" class="node">
<title>Node11</title>
<g id="a_node11"><a xlink:href="classCDPL_1_1Math_1_1TranslationMatrix.html" target="_top" xlink:title=" ">
<polygon fill="none" stroke="#000000" points="1454,-410 1454,-429 1645,-429 1645,-410 1454,-410"/>
<text text-anchor="middle" x="1549.5" y="-417" font-family="Helvetica,sans-Serif" font-size="10.00" fill="#000000">CDPL::Math::TranslationMatrix&lt; T &gt;</text>
</a>
</g>
</g>
<!-- Node10&#45;&gt;Node11 -->
<g id="edge11" class="edge">
<title>Node10&#45;&gt;Node11</title>
<path fill="none" stroke="#191970" d="M1244.0352,-419.5C1306.4606,-419.5 1389.9975,-419.5 1453.9331,-419.5"/>
<polygon fill="#191970" stroke="#191970" points="1243.8128,-416.0001 1233.8128,-419.5 1243.8128,-423.0001 1243.8128,-416.0001"/>
</g>
<!-- Node13 -->
<g id="node13" class="node">
<title>Node13</title>
<g id="a_node13"><a xlink:href="classCDPL_1_1Math_1_1ScalingMatrix.html" target="_top" xlink:title=" ">
<polygon fill="none" stroke="#000000" points="1463,-361 1463,-380 1636,-380 1636,-361 1463,-361"/>
<text text-anchor="middle" x="1549.5" y="-368" font-family="Helvetica,sans-Serif" font-size="10.00" fill="#000000">CDPL::Math::ScalingMatrix&lt; T &gt;</text>
</a>
</g>
</g>
<!-- Node12&#45;&gt;Node13 -->
<g id="edge13" class="edge">
<title>Node12&#45;&gt;Node13</title>
<path fill="none" stroke="#191970" d="M1244.0941,-370.5C1309.4349,-370.5 1397.8813,-370.5 1462.7755,-370.5"/>
<polygon fill="#191970" stroke="#191970" points="1243.8128,-367.0001 1233.8128,-370.5 1243.8128,-374.0001 1243.8128,-367.0001"/>
</g>
<!-- Node15 -->
<g id="node15" class="node">
<title>Node15</title>
<g id="a_node15"><a xlink:href="classCDPL_1_1Math_1_1SparseMatrix.html" target="_top" xlink:title=" ">
<polygon fill="none" stroke="#000000" points="1478.5,-295.5 1478.5,-325.5 1620.5,-325.5 1620.5,-295.5 1478.5,-295.5"/>
<text text-anchor="start" x="1486.5" y="-313.5" font-family="Helvetica,sans-Serif" font-size="10.00" fill="#000000">CDPL::Math::SparseMatrix</text>
<text text-anchor="middle" x="1549.5" y="-302.5" font-family="Helvetica,sans-Serif" font-size="10.00" fill="#000000">&lt; T, A &gt;</text>
</a>
</g>
</g>
<!-- Node14&#45;&gt;Node15 -->
<g id="edge15" class="edge">
<title>Node14&#45;&gt;Node15</title>
<path fill="none" stroke="#191970" d="M1244.0434,-310.5C1314.7642,-310.5 1412.5761,-310.5 1478.2891,-310.5"/>
<polygon fill="#191970" stroke="#191970" points="1243.8128,-307.0001 1233.8128,-310.5 1243.8128,-314.0001 1243.8128,-307.0001"/>
</g>
<!-- Node17 -->
<g id="node17" class="node">
<title>Node17</title>
<g id="a_node17"><a xlink:href="classCDPL_1_1Math_1_1BoundedMatrix.html" target="_top" xlink:title=" ">
<polygon fill="none" stroke="#000000" points="1473.5,-235.5 1473.5,-265.5 1625.5,-265.5 1625.5,-235.5 1473.5,-235.5"/>
<text text-anchor="start" x="1481.5" y="-253.5" font-family="Helvetica,sans-Serif" font-size="10.00" fill="#000000">CDPL::Math::BoundedMatrix</text>
<text text-anchor="middle" x="1549.5" y="-242.5" font-family="Helvetica,sans-Serif" font-size="10.00" fill="#000000">&lt; T, M, N &gt;</text>
</a>
</g>
</g>
<!-- Node16&#45;&gt;Node17 -->
<g id="edge17" class="edge">
<title>Node16&#45;&gt;Node17</title>
<path fill="none" stroke="#191970" d="M1250.3678,-250.5C1318.7498,-250.5 1409.8261,-250.5 1473.4481,-250.5"/>
<polygon fill="#191970" stroke="#191970" points="1250.0229,-247.0001 1240.0229,-250.5 1250.0229,-254.0001 1250.0229,-247.0001"/>
</g>
<!-- Node19 -->
<g id="node19" class="node">
<title>Node19</title>
<g id="a_node19"><a xlink:href="classCDPL_1_1Math_1_1CMatrix.html" target="_top" xlink:title=" ">
<polygon fill="none" stroke="#000000" points="1797,-139 1797,-180 1927,-180 1927,-139 1797,-139"/>
<text text-anchor="start" x="1805" y="-168" font-family="Helvetica,sans-Serif" font-size="10.00" fill="#000000">CDPL::Math::CMatrix</text>
<text text-anchor="start" x="1805" y="-157" font-family="Helvetica,sans-Serif" font-size="10.00" fill="#000000">&lt; typename TypeTraits</text>
<text text-anchor="middle" x="1862" y="-146" font-family="Helvetica,sans-Serif" font-size="10.00" fill="#000000">&lt; T &gt;::RealType, 4, 4 &gt;</text>
</a>
</g>
</g>
<!-- Node18&#45;&gt;Node19 -->
<g id="edge19" class="edge">
<title>Node18&#45;&gt;Node19</title>
<path fill="none" stroke="#191970" d="M1446.4317,-200.6888C1534.1843,-196.5889 1665.4375,-188.6617 1779,-174.5 1784.8122,-173.7752 1790.8345,-172.9107 1796.8593,-171.9678"/>
<polygon fill="#191970" stroke="#191970" points="1446.0456,-197.2027 1436.2167,-201.1579 1446.3668,-204.1953 1446.0456,-197.2027"/>
</g>
<!-- Node21 -->
<g id="node21" class="node">
<title>Node21</title>
<g id="a_node21"><a xlink:href="classCDPL_1_1Math_1_1ZeroMatrix.html" target="_top" xlink:title=" ">
<polygon fill="none" stroke="#000000" points="1469.5,-153 1469.5,-172 1629.5,-172 1629.5,-153 1469.5,-153"/>
<text text-anchor="middle" x="1549.5" y="-160" font-family="Helvetica,sans-Serif" font-size="10.00" fill="#000000">CDPL::Math::ZeroMatrix&lt; T &gt;</text>
</a>
</g>
</g>
<!-- Node20&#45;&gt;Node21 -->
<g id="edge21" class="edge">
<title>Node20&#45;&gt;Node21</title>
<path fill="none" stroke="#191970" d="M1244.016,-162.5C1311.5843,-162.5 1403.8943,-162.5 1469.3082,-162.5"/>
<polygon fill="#191970" stroke="#191970" points="1243.8128,-159.0001 1233.8128,-162.5 1243.8128,-166.0001 1243.8128,-159.0001"/>
</g>
<!-- Node23 -->
<g id="node23" class="node">
<title>Node23</title>
<g id="a_node23"><a xlink:href="classCDPL_1_1Math_1_1CMatrix.html" target="_top" xlink:title=" ">
<polygon fill="none" stroke="#000000" points="1491.5,-101.5 1491.5,-131.5 1607.5,-131.5 1607.5,-101.5 1491.5,-101.5"/>
<text text-anchor="start" x="1499.5" y="-119.5" font-family="Helvetica,sans-Serif" font-size="10.00" fill="#000000">CDPL::Math::CMatrix</text>
<text text-anchor="middle" x="1549.5" y="-108.5" font-family="Helvetica,sans-Serif" font-size="10.00" fill="#000000">&lt; T, M, N &gt;</text>
</a>
</g>
</g>
<!-- Node22&#45;&gt;Node23 -->
<g id="edge23" class="edge">
<title>Node22&#45;&gt;Node23</title>
<path fill="none" stroke="#191970" d="M1244.2701,-114.1759C1319.8847,-114.7517 1426.3469,-115.5623 1491.486,-116.0583"/>
<polygon fill="#191970" stroke="#191970" points="1243.8392,-110.6726 1233.8128,-114.0963 1243.7858,-117.6724 1243.8392,-110.6726"/>
</g>
<!-- Node23&#45;&gt;Node19 -->
<g id="edge24" class="edge">
<title>Node23&#45;&gt;Node19</title>
<path fill="none" stroke="#ffa500" stroke-dasharray="5,2" d="M1617.5847,-125.8685C1670.8711,-133.2007 1744.4937,-143.3311 1796.9792,-150.5531"/>
<polygon fill="#ffa500" stroke="#ffa500" points="1617.9303,-122.3831 1607.5465,-124.4872 1616.976,-129.3178 1617.9303,-122.3831"/>
<text text-anchor="start" x="1663" y="-162.5" font-family="Helvetica,sans-Serif" font-size="10.00" fill="#000000"> &lt; typename TypeTraits</text>
<text text-anchor="middle" x="1721" y="-151.5" font-family="Helvetica,sans-Serif" font-size="10.00" fill="#000000">&lt; T &gt;::RealType, 4, 4 &gt;</text>
</g>
<!-- Node25 -->
<g id="node25" class="node">
<title>Node25</title>
<g id="a_node25"><a xlink:href="classCDPL_1_1Math_1_1RotationMatrix.html" target="_top" xlink:title=" ">
<polygon fill="none" stroke="#000000" points="1460.5,-55 1460.5,-74 1638.5,-74 1638.5,-55 1460.5,-55"/>
<text text-anchor="middle" x="1549.5" y="-62" font-family="Helvetica,sans-Serif" font-size="10.00" fill="#000000">CDPL::Math::RotationMatrix&lt; T &gt;</text>
</a>
</g>
</g>
<!-- Node24&#45;&gt;Node25 -->
<g id="edge26" class="edge">
<title>Node24&#45;&gt;Node25</title>
<path fill="none" stroke="#191970" d="M1243.9695,-64.5C1308.5047,-64.5 1395.6285,-64.5 1460.3271,-64.5"/>
<polygon fill="#191970" stroke="#191970" points="1243.8128,-61.0001 1233.8128,-64.5 1243.8128,-68.0001 1243.8128,-61.0001"/>
</g>
<!-- Node27 -->
<g id="node27" class="node">
<title>Node27</title>
<g id="a_node27"><a xlink:href="classCDPL_1_1Math_1_1InitListMatrix.html" target="_top" xlink:title=" ">
<polygon fill="none" stroke="#000000" points="1464.5,-6 1464.5,-25 1634.5,-25 1634.5,-6 1464.5,-6"/>
<text text-anchor="middle" x="1549.5" y="-13" font-family="Helvetica,sans-Serif" font-size="10.00" fill="#000000">CDPL::Math::InitListMatrix&lt; T &gt;</text>
</a>
</g>
</g>
<!-- Node26&#45;&gt;Node27 -->
<g id="edge28" class="edge">
<title>Node26&#45;&gt;Node27</title>
<path fill="none" stroke="#191970" d="M1244.1653,-15.5C1309.9667,-15.5 1399.1715,-15.5 1464.1648,-15.5"/>
<polygon fill="#191970" stroke="#191970" points="1243.8128,-12.0001 1233.8128,-15.5 1243.8128,-19.0001 1243.8128,-12.0001"/>
</g>
</g>
</svg>
