<?xml version="1.0" encoding="UTF-8" standalone="no"?>
<!DOCTYPE svg PUBLIC "-//W3C//DTD SVG 1.1//EN"
 "http://www.w3.org/Graphics/SVG/1.1/DTD/svg11.dtd">
<!-- Generated by graphviz version 2.40.1 (0)
 -->
<!-- Title: Graphical Class Hierarchy Pages: 1 -->
<svg width="382pt" height="186pt"
 viewBox="0.00 0.00 382.00 186.00" xmlns="http://www.w3.org/2000/svg" xmlns:xlink="http://www.w3.org/1999/xlink">
<g id="graph0" class="graph" transform="scale(1 1) rotate(0) translate(4 182)">
<title>Graphical Class Hierarchy</title>
<!-- Node0 -->
<g id="node1" class="node">
<title>Node0</title>
<g id="a_node1"><a xlink:href="classCDPL_1_1Chem_1_1MatchExpression.html" target="_top" xlink:title=" ">
<polygon fill="none" stroke="#000000" points="0,-73.5 0,-103.5 165,-103.5 165,-73.5 0,-73.5"/>
<text text-anchor="start" x="8" y="-91.5" font-family="Helvetica,sans-Serif" font-size="10.00" fill="#000000">CDPL::Chem::MatchExpression</text>
<text text-anchor="middle" x="82.5" y="-80.5" font-family="Helvetica,sans-Serif" font-size="10.00" fill="#000000">&lt; Bond, MolecularGraph &gt;</text>
</a>
</g>
</g>
<!-- Node1 -->
<g id="node2" class="node">
<title>Node1</title>
<g id="a_node2"><a xlink:href="classCDPL_1_1Chem_1_1BondConfigurationMatchExpression.html" target="_top" xlink:title="BondConfigurationMatchExpression.">
<polygon fill="none" stroke="#000000" points="201,-147.5 201,-177.5 374,-177.5 374,-147.5 201,-147.5"/>
<text text-anchor="start" x="209" y="-165.5" font-family="Helvetica,sans-Serif" font-size="10.00" fill="#000000">CDPL::Chem::BondConfiguration</text>
<text text-anchor="middle" x="287.5" y="-154.5" font-family="Helvetica,sans-Serif" font-size="10.00" fill="#000000">MatchExpression</text>
</a>
</g>
</g>
<!-- Node0&#45;&gt;Node1 -->
<g id="edge1" class="edge">
<title>Node0&#45;&gt;Node1</title>
<path fill="none" stroke="#191970" d="M124.2507,-107.6684C146.7213,-117.5882 175.0746,-129.4759 201,-138.5 209.9783,-141.6252 219.5892,-144.6237 229.0214,-147.3784"/>
<polygon fill="#191970" stroke="#191970" points="125.5639,-104.4218 115.0049,-103.5516 122.7166,-110.8166 125.5639,-104.4218"/>
</g>
<!-- Node2 -->
<g id="node3" class="node">
<title>Node2</title>
<g id="a_node3"><a xlink:href="classCDPL_1_1Chem_1_1BondDirectionMatchExpression.html" target="_top" xlink:title="BondDirectionMatchExpression.">
<polygon fill="none" stroke="#000000" points="211.5,-98.5 211.5,-128.5 363.5,-128.5 363.5,-98.5 211.5,-98.5"/>
<text text-anchor="start" x="219.5" y="-116.5" font-family="Helvetica,sans-Serif" font-size="10.00" fill="#000000">CDPL::Chem::BondDirection</text>
<text text-anchor="middle" x="287.5" y="-105.5" font-family="Helvetica,sans-Serif" font-size="10.00" fill="#000000">MatchExpression</text>
</a>
</g>
</g>
<!-- Node0&#45;&gt;Node2 -->
<g id="edge2" class="edge">
<title>Node0&#45;&gt;Node2</title>
<path fill="none" stroke="#191970" d="M175.3529,-99.8235C187.3997,-101.2927 199.626,-102.7837 211.3579,-104.2144"/>
<polygon fill="#191970" stroke="#191970" points="175.6406,-96.3328 165.2904,-98.5964 174.7932,-103.2813 175.6406,-96.3328"/>
</g>
<!-- Node3 -->
<g id="node4" class="node">
<title>Node3</title>
<g id="a_node4"><a xlink:href="classCDPL_1_1Chem_1_1BondReactionCenterStatusMatchExpression.html" target="_top" xlink:title="BondReactionCenterStatusMatchExpression.">
<polygon fill="none" stroke="#000000" points="206.5,-49.5 206.5,-79.5 368.5,-79.5 368.5,-49.5 206.5,-49.5"/>
<text text-anchor="start" x="214.5" y="-67.5" font-family="Helvetica,sans-Serif" font-size="10.00" fill="#000000">CDPL::Chem::BondReaction</text>
<text text-anchor="middle" x="287.5" y="-56.5" font-family="Helvetica,sans-Serif" font-size="10.00" fill="#000000">CenterStatusMatchExpression</text>
</a>
</g>
</g>
<!-- Node0&#45;&gt;Node3 -->
<g id="edge3" class="edge">
<title>Node0&#45;&gt;Node3</title>
<path fill="none" stroke="#191970" d="M175.5323,-77.6084C185.8325,-76.4025 196.2614,-75.1816 206.3981,-73.9949"/>
<polygon fill="#191970" stroke="#191970" points="174.8156,-74.1683 165.2904,-78.8075 175.6296,-81.1208 174.8156,-74.1683"/>
</g>
<!-- Node4 -->
<g id="node5" class="node">
<title>Node4</title>
<g id="a_node5"><a xlink:href="classCDPL_1_1Chem_1_1BondSubstituentDirectionMatchExpression.html" target="_top" xlink:title="BondSubstituentDirectionMatchExpression.">
<polygon fill="none" stroke="#000000" points="206,-.5 206,-30.5 369,-30.5 369,-.5 206,-.5"/>
<text text-anchor="start" x="214" y="-18.5" font-family="Helvetica,sans-Serif" font-size="10.00" fill="#000000">CDPL::Chem::BondSubstituent</text>
<text text-anchor="middle" x="287.5" y="-7.5" font-family="Helvetica,sans-Serif" font-size="10.00" fill="#000000">DirectionMatchExpression</text>
</a>
</g>
</g>
<!-- Node0&#45;&gt;Node4 -->
<g id="edge4" class="edge">
<title>Node0&#45;&gt;Node4</title>
<path fill="none" stroke="#191970" d="M126.3524,-69.473C148.5211,-60.1787 175.9667,-49.1615 201,-40.5 211.0454,-37.0243 221.8574,-33.6311 232.3199,-30.5219"/>
<polygon fill="#191970" stroke="#191970" points="124.7326,-66.3577 116.8823,-73.4727 127.4562,-72.8061 124.7326,-66.3577"/>
</g>
</g>
</svg>
