<?xml version="1.0" encoding="UTF-8" standalone="no"?>
<!DOCTYPE svg PUBLIC "-//W3C//DTD SVG 1.1//EN"
 "http://www.w3.org/Graphics/SVG/1.1/DTD/svg11.dtd">
<!-- Generated by graphviz version 2.40.1 (0)
 -->
<!-- Title: CDPL::Math::QuaternionScalarRealUnaryFunctor&lt; Q &gt; Pages: 1 -->
<svg width="410pt" height="95pt"
 viewBox="0.00 0.00 410.00 95.00" xmlns="http://www.w3.org/2000/svg" xmlns:xlink="http://www.w3.org/1999/xlink">
<g id="graph0" class="graph" transform="scale(1 1) rotate(0) translate(4 91)">
<title>CDPL::Math::QuaternionScalarRealUnaryFunctor&lt; Q &gt;</title>
<!-- Node1 -->
<g id="node1" class="node">
<title>Node1</title>
<g id="a_node1"><a xlink:title=" ">
<polygon fill="#bfbfbf" stroke="#000000" points="118.5,-56.5 118.5,-86.5 280.5,-86.5 280.5,-56.5 118.5,-56.5"/>
<text text-anchor="start" x="126.5" y="-74.5" font-family="Helvetica,sans-Serif" font-size="10.00" fill="#000000">CDPL::Math::QuaternionScalar</text>
<text text-anchor="middle" x="199.5" y="-63.5" font-family="Helvetica,sans-Serif" font-size="10.00" fill="#000000">RealUnaryFunctor&lt; Q &gt;</text>
</a>
</g>
</g>
<!-- Node2 -->
<g id="node2" class="node">
<title>Node2</title>
<g id="a_node2"><a xlink:href="structCDPL_1_1Math_1_1QuaternionNorm.html" target="_top" xlink:title=" ">
<polygon fill="none" stroke="#000000" points="0,-.5 0,-19.5 189,-19.5 189,-.5 0,-.5"/>
<text text-anchor="middle" x="94.5" y="-7.5" font-family="Helvetica,sans-Serif" font-size="10.00" fill="#000000">CDPL::Math::QuaternionNorm&lt; Q &gt;</text>
</a>
</g>
</g>
<!-- Node1&#45;&gt;Node2 -->
<g id="edge1" class="edge">
<title>Node1&#45;&gt;Node2</title>
<path fill="none" stroke="#191970" d="M165.1542,-51.3832C146.8716,-40.6748 125.2392,-28.0044 110.7713,-19.5303"/>
<polygon fill="#191970" stroke="#191970" points="163.4163,-54.4214 173.8141,-56.4554 166.9542,-48.3812 163.4163,-54.4214"/>
</g>
<!-- Node3 -->
<g id="node3" class="node">
<title>Node3</title>
<g id="a_node3"><a xlink:href="structCDPL_1_1Math_1_1QuaternionNorm2.html" target="_top" xlink:title=" ">
<polygon fill="none" stroke="#000000" points="207,-.5 207,-19.5 402,-19.5 402,-.5 207,-.5"/>
<text text-anchor="middle" x="304.5" y="-7.5" font-family="Helvetica,sans-Serif" font-size="10.00" fill="#000000">CDPL::Math::QuaternionNorm2&lt; Q &gt;</text>
</a>
</g>
</g>
<!-- Node1&#45;&gt;Node3 -->
<g id="edge2" class="edge">
<title>Node1&#45;&gt;Node3</title>
<path fill="none" stroke="#191970" d="M233.8458,-51.3832C252.1284,-40.6748 273.7608,-28.0044 288.2287,-19.5303"/>
<polygon fill="#191970" stroke="#191970" points="232.0458,-48.3812 225.1859,-56.4554 235.5837,-54.4214 232.0458,-48.3812"/>
</g>
</g>
</svg>
