<?xml version="1.0" encoding="UTF-8" standalone="no"?>
<!DOCTYPE svg PUBLIC "-//W3C//DTD SVG 1.1//EN"
 "http://www.w3.org/Graphics/SVG/1.1/DTD/svg11.dtd">
<!-- Generated by graphviz version 2.40.1 (0)
 -->
<!-- Title: CDPL::Math::SparseVector&lt; T, A &gt; Pages: 1 -->
<!--zoomable 146 -->
<svg id="main" version="1.1" xmlns="http://www.w3.org/2000/svg" xmlns:xlink="http://www.w3.org/1999/xlink" xml:space="preserve" onload="init(evt)">
<style type="text/css"><![CDATA[
.edge:hover path { stroke: red; }
.edge:hover polygon { stroke: red; fill: red; }
]]></style>
<script type="text/javascript"><![CDATA[
var edges = document.getElementsByTagName('g');
if (edges && edges.length) {
  for (var i=0;i<edges.length;i++) {
    if (edges[i].id.substr(0,4)=='edge') {
      edges[i].setAttribute('class','edge');
    }
  }
}
]]></script>
        <defs>
                <circle id="rim" cx="0" cy="0" r="7"/>
                <circle id="rim2" cx="0" cy="0" r="3.5"/>
                <g id="zoomPlus">
                        <use xlink:href="#rim" fill="#404040">
                                <set attributeName="fill" to="#808080" begin="zoomplus.mouseover" end="zoomplus.mouseout"/>
                        </use>
                        <path d="M-4,0h8M0,-4v8" fill="none" stroke="white" stroke-width="1.5" pointer-events="none"/>
                </g>
                <g id="zoomMin">
                        <use xlink:href="#rim" fill="#404040">
                                <set attributeName="fill" to="#808080" begin="zoomminus.mouseover" end="zoomminus.mouseout"/>
                        </use>
                        <path d="M-4,0h8" fill="none" stroke="white" stroke-width="1.5" pointer-events="none"/>
                </g>
                <g id="dirArrow">
                        <path fill="none" stroke="white" stroke-width="1.5" d="M0,-3.0v7 M-2.5,-0.5L0,-3.0L2.5,-0.5"/>
                </g>
               <g id="resetDef">
                       <use xlink:href="#rim2" fill="#404040">
                               <set attributeName="fill" to="#808080" begin="reset.mouseover" end="reset.mouseout"/>
                       </use>
               </g>
        </defs>

<script type="text/javascript">
var viewWidth = 1536;
var viewHeight = 146;
var sectionId = 'dynsection-0';
</script>
<script xlink:href="svgpan.js"/>
<svg id="graph" class="graph">
<g id="viewport">
<title>CDPL::Math::SparseVector&lt; T, A &gt;</title>
<!-- Node1 -->
<g id="node1" class="node">
<title>Node1</title>
<g id="a_node1"><a xlink:title=" ">
<polygon fill="#bfbfbf" stroke="#000000" points="1386,-33 1386,-63 1528,-63 1528,-33 1386,-33"/>
<text text-anchor="start" x="1394" y="-51" font-family="Helvetica,sans-Serif" font-size="10.00" fill="#000000">CDPL::Math::SparseVector</text>
<text text-anchor="middle" x="1457" y="-40" font-family="Helvetica,sans-Serif" font-size="10.00" fill="#000000">&lt; T, A &gt;</text>
</a>
</g>
</g>
<!-- Node2 -->
<g id="node2" class="node">
<title>Node2</title>
<g id="a_node2"><a xlink:href="classCDPL_1_1Math_1_1VectorContainer.html" target="_top" xlink:title=" ">
<polygon fill="none" stroke="#000000" points="1193,-22 1193,-74 1349,-74 1349,-22 1193,-22"/>
<text text-anchor="start" x="1201" y="-62" font-family="Helvetica,sans-Serif" font-size="10.00" fill="#000000">CDPL::Math::VectorContainer</text>
<text text-anchor="start" x="1201" y="-51" font-family="Helvetica,sans-Serif" font-size="10.00" fill="#000000">&lt; SparseVector&lt; T, std::</text>
<text text-anchor="start" x="1201" y="-40" font-family="Helvetica,sans-Serif" font-size="10.00" fill="#000000">unordered_map&lt; std::size</text>
<text text-anchor="middle" x="1271" y="-29" font-family="Helvetica,sans-Serif" font-size="10.00" fill="#000000">_t, T &gt; &gt; &gt;</text>
</a>
</g>
</g>
<!-- Node2&#45;&gt;Node1 -->
<g id="edge1" class="edge">
<title>Node2&#45;&gt;Node1</title>
<path fill="none" stroke="#191970" d="M1359.1646,-48C1368.142,-48 1377.1797,-48 1385.9418,-48"/>
<polygon fill="#191970" stroke="#191970" points="1359.0723,-44.5001 1349.0723,-48 1359.0723,-51.5001 1359.0723,-44.5001"/>
</g>
<!-- Node3 -->
<g id="node3" class="node">
<title>Node3</title>
<g id="a_node3"><a xlink:href="classCDPL_1_1Math_1_1VectorExpression.html" target="_top" xlink:title=" ">
<polygon fill="none" stroke="#000000" points="640,-52.5 640,-93.5 825,-93.5 825,-52.5 640,-52.5"/>
<text text-anchor="start" x="648" y="-81.5" font-family="Helvetica,sans-Serif" font-size="10.00" fill="#000000">CDPL::Math::VectorExpression</text>
<text text-anchor="start" x="648" y="-70.5" font-family="Helvetica,sans-Serif" font-size="10.00" fill="#000000">&lt; SparseVector&lt; T, std::unordered</text>
<text text-anchor="middle" x="732.5" y="-59.5" font-family="Helvetica,sans-Serif" font-size="10.00" fill="#000000">_map&lt; std::size_t, T &gt; &gt; &gt;</text>
</a>
</g>
</g>
<!-- Node3&#45;&gt;Node2 -->
<g id="edge2" class="edge">
<title>Node3&#45;&gt;Node2</title>
<path fill="none" stroke="#191970" d="M835.5803,-71.5435C925.3286,-69.7887 1058.8878,-66.0057 1175,-58 1180.851,-57.5966 1186.8966,-57.1166 1192.9741,-56.5884"/>
<polygon fill="#191970" stroke="#191970" points="835.3339,-68.0474 825.4024,-71.7374 835.4673,-75.0462 835.3339,-68.0474"/>
</g>
<!-- Node4 -->
<g id="node4" class="node">
<title>Node4</title>
<g id="a_node4"><a xlink:href="classCDPL_1_1Math_1_1Expression.html" target="_top" xlink:title=" ">
<polygon fill="none" stroke="#000000" points="323,-85 323,-137 474,-137 474,-85 323,-85"/>
<text text-anchor="start" x="331" y="-125" font-family="Helvetica,sans-Serif" font-size="10.00" fill="#000000">CDPL::Math::Expression</text>
<text text-anchor="start" x="331" y="-114" font-family="Helvetica,sans-Serif" font-size="10.00" fill="#000000">&lt; SparseVector&lt; T, std</text>
<text text-anchor="start" x="331" y="-103" font-family="Helvetica,sans-Serif" font-size="10.00" fill="#000000">::unordered_map&lt; std::size</text>
<text text-anchor="middle" x="398.5" y="-92" font-family="Helvetica,sans-Serif" font-size="10.00" fill="#000000">_t, T &gt; &gt; &gt;</text>
</a>
</g>
</g>
<!-- Node4&#45;&gt;Node3 -->
<g id="edge3" class="edge">
<title>Node4&#45;&gt;Node3</title>
<path fill="none" stroke="#191970" d="M484.3083,-110.3747C525.2546,-109.145 574.8374,-106.2998 619,-100 630.5298,-98.3553 642.6061,-96.0873 654.4019,-93.5589"/>
<polygon fill="#191970" stroke="#191970" points="483.9935,-106.8819 474.0928,-110.6536 484.1846,-113.8793 483.9935,-106.8819"/>
</g>
<!-- Node5 -->
<g id="node5" class="node">
<title>Node5</title>
<g id="a_node5"><a xlink:href="classCDPL_1_1Math_1_1Expression.html" target="_top" xlink:title=" ">
<polygon fill="none" stroke="#000000" points="0,-43.5 0,-62.5 160,-62.5 160,-43.5 0,-43.5"/>
<text text-anchor="middle" x="80" y="-50.5" font-family="Helvetica,sans-Serif" font-size="10.00" fill="#000000">CDPL::Math::Expression&lt; E &gt;</text>
</a>
</g>
</g>
<!-- Node5&#45;&gt;Node4 -->
<g id="edge4" class="edge">
<title>Node5&#45;&gt;Node4</title>
<path fill="none" stroke="#ffa500" stroke-dasharray="5,2" d="M142.2665,-64.3389C193.9399,-73.7489 267.6153,-87.1654 322.7119,-97.1987"/>
<polygon fill="#ffa500" stroke="#ffa500" points="142.7024,-60.8609 132.2371,-62.5126 141.4483,-67.7476 142.7024,-60.8609"/>
<text text-anchor="start" x="178" y="-113" font-family="Helvetica,sans-Serif" font-size="10.00" fill="#000000"> &lt; SparseVector&lt; T,</text>
<text text-anchor="start" x="178" y="-102" font-family="Helvetica,sans-Serif" font-size="10.00" fill="#000000"> std::unordered_map</text>
<text text-anchor="middle" x="231.5" y="-91" font-family="Helvetica,sans-Serif" font-size="10.00" fill="#000000">&lt; std::size_t, T &gt; &gt; &gt;</text>
</g>
<!-- Node6 -->
<g id="node6" class="node">
<title>Node6</title>
<g id="a_node6"><a xlink:href="classCDPL_1_1Math_1_1VectorExpression.html" target="_top" xlink:title=" ">
<polygon fill="none" stroke="#000000" points="303,-43.5 303,-62.5 494,-62.5 494,-43.5 303,-43.5"/>
<text text-anchor="middle" x="398.5" y="-50.5" font-family="Helvetica,sans-Serif" font-size="10.00" fill="#000000">CDPL::Math::VectorExpression&lt; E &gt;</text>
</a>
</g>
</g>
<!-- Node5&#45;&gt;Node6 -->
<g id="edge6" class="edge">
<title>Node5&#45;&gt;Node6</title>
<path fill="none" stroke="#191970" d="M170.4402,-53C211.8132,-53 260.8578,-53 302.8451,-53"/>
<polygon fill="#191970" stroke="#191970" points="170.371,-49.5001 160.371,-53 170.371,-56.5001 170.371,-49.5001"/>
</g>
<!-- Node9 -->
<g id="node9" class="node">
<title>Node9</title>
<g id="a_node9"><a xlink:href="classCDPL_1_1Math_1_1Expression.html" target="_top" xlink:title=" ">
<polygon fill="none" stroke="#000000" points="318,-.5 318,-19.5 479,-19.5 479,-.5 318,-.5"/>
<text text-anchor="middle" x="398.5" y="-7.5" font-family="Helvetica,sans-Serif" font-size="10.00" fill="#000000">CDPL::Math::Expression&lt; C &gt;</text>
</a>
</g>
</g>
<!-- Node5&#45;&gt;Node9 -->
<g id="edge10" class="edge">
<title>Node5&#45;&gt;Node9</title>
<path fill="none" stroke="#ffa500" stroke-dasharray="5,2" d="M150.5518,-41.9804C159.7795,-40.604 169.1122,-39.2443 178,-38 224.9101,-31.4326 277.5299,-24.7257 319.5987,-19.523"/>
<polygon fill="#ffa500" stroke="#ffa500" points="149.9744,-38.5278 140.606,-43.4759 151.0153,-45.45 149.9744,-38.5278"/>
<text text-anchor="middle" x="231.5" y="-41" font-family="Helvetica,sans-Serif" font-size="10.00" fill="#000000"> &lt; C &gt;</text>
</g>
<!-- Node6&#45;&gt;Node3 -->
<g id="edge5" class="edge">
<title>Node6&#45;&gt;Node3</title>
<path fill="none" stroke="#ffa500" stroke-dasharray="5,2" d="M504.2675,-59.3334C547.8336,-61.9421 597.8532,-64.9373 639.9414,-67.4576"/>
<polygon fill="#ffa500" stroke="#ffa500" points="504.4024,-55.8353 494.211,-58.7312 503.9839,-62.8228 504.4024,-55.8353"/>
<text text-anchor="start" x="512" y="-90" font-family="Helvetica,sans-Serif" font-size="10.00" fill="#000000"> &lt; SparseVector&lt; T,</text>
<text text-anchor="start" x="512" y="-79" font-family="Helvetica,sans-Serif" font-size="10.00" fill="#000000"> std::unordered_map</text>
<text text-anchor="middle" x="565.5" y="-68" font-family="Helvetica,sans-Serif" font-size="10.00" fill="#000000">&lt; std::size_t, T &gt; &gt; &gt;</text>
</g>
<!-- Node8 -->
<g id="node8" class="node">
<title>Node8</title>
<g id="a_node8"><a xlink:href="classCDPL_1_1Math_1_1VectorExpression.html" target="_top" xlink:title=" ">
<polygon fill="none" stroke="#000000" points="637,-14.5 637,-33.5 828,-33.5 828,-14.5 637,-14.5"/>
<text text-anchor="middle" x="732.5" y="-21.5" font-family="Helvetica,sans-Serif" font-size="10.00" fill="#000000">CDPL::Math::VectorExpression&lt; C &gt;</text>
</a>
</g>
</g>
<!-- Node6&#45;&gt;Node8 -->
<g id="edge11" class="edge">
<title>Node6&#45;&gt;Node8</title>
<path fill="none" stroke="#ffa500" stroke-dasharray="5,2" d="M504.3005,-43.8137C546.7713,-40.1261 595.3708,-35.9064 636.775,-32.3114"/>
<polygon fill="#ffa500" stroke="#ffa500" points="503.8707,-40.3378 494.211,-44.6898 504.4763,-47.3115 503.8707,-40.3378"/>
<text text-anchor="middle" x="565.5" y="-46" font-family="Helvetica,sans-Serif" font-size="10.00" fill="#000000"> &lt; C &gt;</text>
</g>
<!-- Node7 -->
<g id="node7" class="node">
<title>Node7</title>
<g id="a_node7"><a xlink:href="classCDPL_1_1Math_1_1VectorContainer.html" target="_top" xlink:title=" ">
<polygon fill="none" stroke="#000000" points="865,-14.5 865,-33.5 1050,-33.5 1050,-14.5 865,-14.5"/>
<text text-anchor="middle" x="957.5" y="-21.5" font-family="Helvetica,sans-Serif" font-size="10.00" fill="#000000">CDPL::Math::VectorContainer&lt; C &gt;</text>
</a>
</g>
</g>
<!-- Node7&#45;&gt;Node2 -->
<g id="edge7" class="edge">
<title>Node7&#45;&gt;Node2</title>
<path fill="none" stroke="#ffa500" stroke-dasharray="5,2" d="M1060.2534,-19.6259C1096.6144,-19.3576 1137.7335,-20.5112 1175,-25 1180.8703,-25.7071 1186.9019,-26.6413 1192.9447,-27.7286"/>
<polygon fill="#ffa500" stroke="#ffa500" points="1060.0918,-16.1274 1050.1311,-19.7377 1060.1692,-23.1269 1060.0918,-16.1274"/>
<text text-anchor="start" x="1068" y="-50" font-family="Helvetica,sans-Serif" font-size="10.00" fill="#000000"> &lt; SparseVector&lt; T,</text>
<text text-anchor="start" x="1068" y="-39" font-family="Helvetica,sans-Serif" font-size="10.00" fill="#000000"> std::unordered_map</text>
<text text-anchor="middle" x="1121.5" y="-28" font-family="Helvetica,sans-Serif" font-size="10.00" fill="#000000">&lt; std::size_t, T &gt; &gt; &gt;</text>
</g>
<!-- Node8&#45;&gt;Node7 -->
<g id="edge8" class="edge">
<title>Node8&#45;&gt;Node7</title>
<path fill="none" stroke="#191970" d="M838.4891,-24C847.2459,-24 856.0554,-24 864.7045,-24"/>
<polygon fill="#191970" stroke="#191970" points="838.2465,-20.5001 828.2465,-24 838.2465,-27.5001 838.2465,-20.5001"/>
</g>
<!-- Node9&#45;&gt;Node8 -->
<g id="edge9" class="edge">
<title>Node9&#45;&gt;Node8</title>
<path fill="none" stroke="#191970" d="M489.4132,-9.5422C529.2146,-9.7795 576.4497,-10.6527 619,-13 626.215,-13.398 633.6799,-13.9062 641.1767,-14.4849"/>
<polygon fill="#191970" stroke="#191970" points="489.2126,-6.0413 479.1962,-9.4942 489.1796,-13.0412 489.2126,-6.0413"/>
</g>
</g>
</svg>
        <g id="navigator" transform="translate(0 0)" fill="#404254">
                <rect fill="#f2f5e9" fill-opacity="0.5" stroke="#606060" stroke-width=".5" x="0" y="0" width="60" height="60"/>
                <use id="zoomplus" xlink:href="#zoomPlus" x="17" y="9" onmousedown="handleZoom(evt,'in')"/>
                <use id="zoomminus" xlink:href="#zoomMin" x="42" y="9" onmousedown="handleZoom(evt,'out')"/>
                <use id="reset" xlink:href="#resetDef" x="30" y="36" onmousedown="handleReset()"/>
                <g id="arrowUp" xlink:href="#dirArrow" transform="translate(30 24)" onmousedown="handlePan(0,-1)">
                  <use xlink:href="#rim" fill="#404040">
                        <set attributeName="fill" to="#808080" begin="arrowUp.mouseover" end="arrowUp.mouseout"/>
                  </use>
                  <path fill="none" stroke="white" stroke-width="1.5" d="M0,-3.0v7 M-2.5,-0.5L0,-3.0L2.5,-0.5"/>
                </g>
                <g id="arrowRight" xlink:href="#dirArrow" transform="rotate(90) translate(36 -43)" onmousedown="handlePan(1,0)">
                  <use xlink:href="#rim" fill="#404040">
                        <set attributeName="fill" to="#808080" begin="arrowRight.mouseover" end="arrowRight.mouseout"/>
                  </use>
                  <path fill="none" stroke="white" stroke-width="1.5" d="M0,-3.0v7 M-2.5,-0.5L0,-3.0L2.5,-0.5"/>
                </g>
                <g id="arrowDown" xlink:href="#dirArrow" transform="rotate(180) translate(-30 -48)" onmousedown="handlePan(0,1)">
                  <use xlink:href="#rim" fill="#404040">
                        <set attributeName="fill" to="#808080" begin="arrowDown.mouseover" end="arrowDown.mouseout"/>
                  </use>
                  <path fill="none" stroke="white" stroke-width="1.5" d="M0,-3.0v7 M-2.5,-0.5L0,-3.0L2.5,-0.5"/>
                </g>
                <g id="arrowLeft" xlink:href="#dirArrow" transform="rotate(270) translate(-36 17)" onmousedown="handlePan(-1,0)">
                  <use xlink:href="#rim" fill="#404040">
                        <set attributeName="fill" to="#808080" begin="arrowLeft.mouseover" end="arrowLeft.mouseout"/>
                  </use>
                  <path fill="none" stroke="white" stroke-width="1.5" d="M0,-3.0v7 M-2.5,-0.5L0,-3.0L2.5,-0.5"/>
                </g>
        </g>
        <svg viewBox="0 0 15 15" width="100%" height="30px" preserveAspectRatio="xMaxYMin meet">
         <g id="arrow_out" transform="scale(0.3 0.3)">
          <a xlink:href="classCDPL_1_1Math_1_1SparseVector__inherit__graph_org.svg" target="_base">
           <rect id="button" ry="5" rx="5" y="6" x="6" height="38" width="38"
                fill="#f2f5e9" fill-opacity="0.5" stroke="#606060" stroke-width="1.0"/>
           <path id="arrow"
             d="M 11.500037,31.436501 C 11.940474,20.09759 22.043105,11.32322 32.158766,21.979434 L 37.068811,17.246167 C 37.068811,17.246167 37.088388,32 37.088388,32 L 22.160133,31.978069 C 22.160133,31.978069 26.997745,27.140456 26.997745,27.140456 C 18.528582,18.264221 13.291696,25.230495 11.500037,31.436501 z"
             style="fill:#404040;"/>
          </a>
         </g>
        </svg>
</svg>
