<?xml version="1.0" encoding="UTF-8" standalone="no"?>
<!DOCTYPE svg PUBLIC "-//W3C//DTD SVG 1.1//EN"
 "http://www.w3.org/Graphics/SVG/1.1/DTD/svg11.dtd">
<!-- Generated by graphviz version 2.40.1 (0)
 -->
<!-- Title: CDPL::Util::DGCoordinatesGeneratorBase&lt; Dim, T, Derived &gt; Pages: 1 -->
<svg width="744pt" height="122pt"
 viewBox="0.00 0.00 744.00 121.50" xmlns="http://www.w3.org/2000/svg" xmlns:xlink="http://www.w3.org/1999/xlink">
<g id="graph0" class="graph" transform="scale(1 1) rotate(0) translate(4 117.5)">
<title>CDPL::Util::DGCoordinatesGeneratorBase&lt; Dim, T, Derived &gt;</title>
<!-- Node1 -->
<g id="node1" class="node">
<title>Node1</title>
<g id="a_node1"><a xlink:title="Base for classes dedicated to the generation of coordinates that fulfill user&#45;provided point distance...">
<polygon fill="#bfbfbf" stroke="#000000" points="0,-32.5 0,-73.5 145,-73.5 145,-32.5 0,-32.5"/>
<text text-anchor="start" x="8" y="-61.5" font-family="Helvetica,sans-Serif" font-size="10.00" fill="#000000">CDPL::Util::DGCoordinates</text>
<text text-anchor="start" x="8" y="-50.5" font-family="Helvetica,sans-Serif" font-size="10.00" fill="#000000">GeneratorBase&lt; Dim, T,</text>
<text text-anchor="middle" x="72.5" y="-39.5" font-family="Helvetica,sans-Serif" font-size="10.00" fill="#000000"> Derived &gt;</text>
</a>
</g>
</g>
<!-- Node2 -->
<g id="node2" class="node">
<title>Node2</title>
<g id="a_node2"><a xlink:href="classCDPL_1_1Util_1_1DGCoordinatesGeneratorBase.html" target="_top" xlink:title=" ">
<polygon fill="none" stroke="#000000" points="382.5,-61 382.5,-113 527.5,-113 527.5,-61 382.5,-61"/>
<text text-anchor="start" x="390.5" y="-101" font-family="Helvetica,sans-Serif" font-size="10.00" fill="#000000">CDPL::Util::DGCoordinates</text>
<text text-anchor="start" x="390.5" y="-90" font-family="Helvetica,sans-Serif" font-size="10.00" fill="#000000">GeneratorBase&lt; Dim, T,</text>
<text text-anchor="start" x="390.5" y="-79" font-family="Helvetica,sans-Serif" font-size="10.00" fill="#000000"> DGCoordinatesGenerator</text>
<text text-anchor="middle" x="455" y="-68" font-family="Helvetica,sans-Serif" font-size="10.00" fill="#000000">&lt; Dim, T &gt; &gt;</text>
</a>
</g>
</g>
<!-- Node1&#45;&gt;Node2 -->
<g id="edge1" class="edge">
<title>Node1&#45;&gt;Node2</title>
<path fill="none" stroke="#ffa500" stroke-dasharray="5,2" d="M155.5438,-60.3817C223.1958,-66.3952 317.7711,-74.8019 382.4256,-80.5489"/>
<polygon fill="#ffa500" stroke="#ffa500" points="155.6163,-56.8744 145.3457,-59.4752 154.9965,-63.8469 155.6163,-56.8744"/>
<text text-anchor="start" x="163" y="-90" font-family="Helvetica,sans-Serif" font-size="10.00" fill="#000000"> &lt; Dim, T, DGCoordinatesGenerator</text>
<text text-anchor="middle" x="250.5" y="-79" font-family="Helvetica,sans-Serif" font-size="10.00" fill="#000000">&lt; Dim, T &gt; &gt;</text>
</g>
<!-- Node4 -->
<g id="node4" class="node">
<title>Node4</title>
<g id="a_node4"><a xlink:href="classCDPL_1_1Util_1_1DGCoordinatesGeneratorBase.html" target="_top" xlink:title=" ">
<polygon fill="none" stroke="#000000" points="356,-.5 356,-41.5 554,-41.5 554,-.5 356,-.5"/>
<text text-anchor="start" x="364" y="-29.5" font-family="Helvetica,sans-Serif" font-size="10.00" fill="#000000">CDPL::Util::DGCoordinates</text>
<text text-anchor="start" x="364" y="-18.5" font-family="Helvetica,sans-Serif" font-size="10.00" fill="#000000">GeneratorBase&lt; 3, T, DGCoordinates</text>
<text text-anchor="middle" x="455" y="-7.5" font-family="Helvetica,sans-Serif" font-size="10.00" fill="#000000">Generator&lt; 3, T &gt; &gt;</text>
</a>
</g>
</g>
<!-- Node1&#45;&gt;Node4 -->
<g id="edge3" class="edge">
<title>Node1&#45;&gt;Node4</title>
<path fill="none" stroke="#ffa500" stroke-dasharray="5,2" d="M155.4184,-37.9352C157.9718,-37.6012 160.5036,-37.288 163,-37 226.9275,-29.6246 299.133,-25.6303 355.7481,-23.4771"/>
<polygon fill="#ffa500" stroke="#ffa500" points="154.9131,-34.4717 145.492,-39.3188 155.8794,-41.4047 154.9131,-34.4717"/>
<text text-anchor="start" x="170" y="-51" font-family="Helvetica,sans-Serif" font-size="10.00" fill="#000000"> &lt; 3, T, DGCoordinatesGenerator</text>
<text text-anchor="middle" x="250.5" y="-40" font-family="Helvetica,sans-Serif" font-size="10.00" fill="#000000">&lt; 3, T &gt; &gt;</text>
</g>
<!-- Node3 -->
<g id="node3" class="node">
<title>Node3</title>
<g id="a_node3"><a xlink:href="classCDPL_1_1Util_1_1DGCoordinatesGenerator.html" target="_top" xlink:title="Generic implementation for generation of coordinates that fulfill user&#45;provided point distance constr...">
<polygon fill="none" stroke="#000000" points="591,-72 591,-102 736,-102 736,-72 591,-72"/>
<text text-anchor="start" x="599" y="-90" font-family="Helvetica,sans-Serif" font-size="10.00" fill="#000000">CDPL::Util::DGCoordinates</text>
<text text-anchor="middle" x="663.5" y="-79" font-family="Helvetica,sans-Serif" font-size="10.00" fill="#000000">Generator&lt; Dim, T &gt;</text>
</a>
</g>
</g>
<!-- Node2&#45;&gt;Node3 -->
<g id="edge2" class="edge">
<title>Node2&#45;&gt;Node3</title>
<path fill="none" stroke="#191970" d="M537.8244,-87C555.33,-87 573.678,-87 590.7769,-87"/>
<polygon fill="#191970" stroke="#191970" points="537.6305,-83.5001 527.6305,-87 537.6305,-90.5001 537.6305,-83.5001"/>
</g>
<!-- Node5 -->
<g id="node5" class="node">
<title>Node5</title>
<g id="a_node5"><a xlink:href="classCDPL_1_1Util_1_1DGCoordinatesGenerator_3_013_00_01T_01_4.html" target="_top" xlink:title="Specialized implementation for the generation of 3D coordinates that fulfill user&#45;provided point dist...">
<polygon fill="none" stroke="#000000" points="591,-6 591,-36 736,-36 736,-6 591,-6"/>
<text text-anchor="start" x="599" y="-24" font-family="Helvetica,sans-Serif" font-size="10.00" fill="#000000">CDPL::Util::DGCoordinates</text>
<text text-anchor="middle" x="663.5" y="-13" font-family="Helvetica,sans-Serif" font-size="10.00" fill="#000000">Generator&lt; 3, T &gt;</text>
</a>
</g>
</g>
<!-- Node4&#45;&gt;Node5 -->
<g id="edge4" class="edge">
<title>Node4&#45;&gt;Node5</title>
<path fill="none" stroke="#191970" d="M564.2379,-21C573.2469,-21 582.2061,-21 590.8455,-21"/>
<polygon fill="#191970" stroke="#191970" points="564.0598,-17.5001 554.0598,-21 564.0597,-24.5001 564.0598,-17.5001"/>
</g>
</g>
</svg>
