<?xml version="1.0" encoding="UTF-8" standalone="no"?>
<!DOCTYPE svg PUBLIC "-//W3C//DTD SVG 1.1//EN"
 "http://www.w3.org/Graphics/SVG/1.1/DTD/svg11.dtd">
<!-- Generated by graphviz version 2.40.1 (0)
 -->
<!-- Title: CDPL::Vis::Renderer2D Pages: 1 -->
<svg width="316pt" height="84pt"
 viewBox="0.00 0.00 315.50 84.00" xmlns="http://www.w3.org/2000/svg" xmlns:xlink="http://www.w3.org/1999/xlink">
<g id="graph0" class="graph" transform="scale(1 1) rotate(0) translate(4 80)">
<title>CDPL::Vis::Renderer2D</title>
<!-- Node1 -->
<g id="node1" class="node">
<title>Node1</title>
<g id="a_node1"><a xlink:title="An interface that provides methods for low level 2D drawing operations.">
<polygon fill="#bfbfbf" stroke="#000000" points="94,-56.5 94,-75.5 220,-75.5 220,-56.5 94,-56.5"/>
<text text-anchor="middle" x="157" y="-63.5" font-family="Helvetica,sans-Serif" font-size="10.00" fill="#000000">CDPL::Vis::Renderer2D</text>
</a>
</g>
</g>
<!-- Node2 -->
<g id="node2" class="node">
<title>Node2</title>
<g id="a_node2"><a xlink:href="classCDPL_1_1Vis_1_1CairoRenderer2D.html" target="_top" xlink:title="Implements the Renderer2D interface on top of the Cairo 2D Graphics Library.">
<polygon fill="none" stroke="#000000" points="0,-.5 0,-19.5 152,-19.5 152,-.5 0,-.5"/>
<text text-anchor="middle" x="76" y="-7.5" font-family="Helvetica,sans-Serif" font-size="10.00" fill="#000000">CDPL::Vis::CairoRenderer2D</text>
</a>
</g>
</g>
<!-- Node1&#45;&gt;Node2 -->
<g id="edge1" class="edge">
<title>Node1&#45;&gt;Node2</title>
<path fill="none" stroke="#191970" d="M134.566,-50.49C120.2746,-40.6096 102.2084,-28.1194 89.9474,-19.6427"/>
<polygon fill="#191970" stroke="#191970" points="132.6749,-53.4376 142.8909,-56.2455 136.6557,-47.6797 132.6749,-53.4376"/>
</g>
<!-- Node3 -->
<g id="node3" class="node">
<title>Node3</title>
<g id="a_node3"><a xlink:href="classCDPL_1_1Vis_1_1QtRenderer2D.html" target="_top" xlink:title="Implements the Renderer2D interface on top of the Qt Toolkit.">
<polygon fill="none" stroke="#000000" points="170.5,-.5 170.5,-19.5 307.5,-19.5 307.5,-.5 170.5,-.5"/>
<text text-anchor="middle" x="239" y="-7.5" font-family="Helvetica,sans-Serif" font-size="10.00" fill="#000000">CDPL::Vis::QtRenderer2D</text>
</a>
</g>
</g>
<!-- Node1&#45;&gt;Node3 -->
<g id="edge2" class="edge">
<title>Node1&#45;&gt;Node3</title>
<path fill="none" stroke="#191970" d="M179.711,-50.49C194.1788,-40.6096 212.468,-28.1194 224.8804,-19.6427"/>
<polygon fill="#191970" stroke="#191970" points="177.5675,-47.7156 171.2833,-56.2455 181.5152,-53.4962 177.5675,-47.7156"/>
</g>
</g>
</svg>
