<?xml version="1.0" encoding="UTF-8" standalone="no"?>
<!DOCTYPE svg PUBLIC "-//W3C//DTD SVG 1.1//EN"
 "http://www.w3.org/Graphics/SVG/1.1/DTD/svg11.dtd">
<!-- Generated by graphviz version 2.40.1 (0)
 -->
<!-- Title: CDPL::Descr::AtomRDFCodeCalculator Pages: 1 -->
<svg width="212pt" height="174pt"
 viewBox="0.00 0.00 212.00 174.00" xmlns="http://www.w3.org/2000/svg" xmlns:xlink="http://www.w3.org/1999/xlink">
<g id="graph0" class="graph" transform="scale(1 1) rotate(0) translate(4 170)">
<title>CDPL::Descr::AtomRDFCodeCalculator</title>
<!-- Node1 -->
<g id="node1" class="node">
<title>Node1</title>
<g id="a_node1"><a xlink:title="AtomRDFCodeCalculator.">
<polygon fill="#bfbfbf" stroke="#000000" points="26,-.5 26,-30.5 178,-30.5 178,-.5 26,-.5"/>
<text text-anchor="start" x="34" y="-18.5" font-family="Helvetica,sans-Serif" font-size="10.00" fill="#000000">CDPL::Descr::AtomRDFCode</text>
<text text-anchor="middle" x="102" y="-7.5" font-family="Helvetica,sans-Serif" font-size="10.00" fill="#000000">Calculator</text>
</a>
</g>
</g>
<!-- Node2 -->
<g id="node2" class="node">
<title>Node2</title>
<g id="a_node2"><a xlink:href="classCDPL_1_1Descr_1_1RDFCodeCalculator.html" target="_top" xlink:title=" ">
<polygon fill="none" stroke="#000000" points="14,-68.5 14,-98.5 190,-98.5 190,-68.5 14,-68.5"/>
<text text-anchor="start" x="22" y="-86.5" font-family="Helvetica,sans-Serif" font-size="10.00" fill="#000000">CDPL::Descr::RDFCodeCalculator</text>
<text text-anchor="middle" x="102" y="-75.5" font-family="Helvetica,sans-Serif" font-size="10.00" fill="#000000">&lt; Chem::Atom &gt;</text>
</a>
</g>
</g>
<!-- Node2&#45;&gt;Node1 -->
<g id="edge1" class="edge">
<title>Node2&#45;&gt;Node1</title>
<path fill="none" stroke="#191970" d="M102,-58.1174C102,-48.8378 102,-38.6413 102,-30.5492"/>
<polygon fill="#191970" stroke="#191970" points="98.5001,-58.4086 102,-68.4086 105.5001,-58.4086 98.5001,-58.4086"/>
</g>
<!-- Node3 -->
<g id="node3" class="node">
<title>Node3</title>
<g id="a_node3"><a xlink:href="classCDPL_1_1Descr_1_1RDFCodeCalculator.html" target="_top" xlink:title="RDFCodeCalculator.">
<polygon fill="none" stroke="#000000" points="0,-146.5 0,-165.5 204,-165.5 204,-146.5 0,-146.5"/>
<text text-anchor="middle" x="102" y="-153.5" font-family="Helvetica,sans-Serif" font-size="10.00" fill="#000000">CDPL::Descr::RDFCodeCalculator&lt; T &gt;</text>
</a>
</g>
</g>
<!-- Node3&#45;&gt;Node2 -->
<g id="edge2" class="edge">
<title>Node3&#45;&gt;Node2</title>
<path fill="none" stroke="#ffa500" stroke-dasharray="5,2" d="M102,-136.0177C102,-124.2164 102,-109.513 102,-98.668"/>
<polygon fill="#ffa500" stroke="#ffa500" points="98.5001,-136.2223 102,-146.2223 105.5001,-136.2224 98.5001,-136.2223"/>
<text text-anchor="middle" x="145.5" y="-120" font-family="Helvetica,sans-Serif" font-size="10.00" fill="#000000"> &lt; Chem::Atom &gt;</text>
</g>
</g>
</svg>
