<?xml version="1.0" encoding="UTF-8" standalone="no"?>
<!DOCTYPE svg PUBLIC "-//W3C//DTD SVG 1.1//EN"
 "http://www.w3.org/Graphics/SVG/1.1/DTD/svg11.dtd">
<!-- Generated by graphviz version 2.40.1 (0)
 -->
<!-- Title: CDPL::Base::SizeError Pages: 1 -->
<svg width="136pt" height="196pt"
 viewBox="0.00 0.00 136.00 196.00" xmlns="http://www.w3.org/2000/svg" xmlns:xlink="http://www.w3.org/1999/xlink">
<g id="graph0" class="graph" transform="scale(1 1) rotate(0) translate(4 192)">
<title>CDPL::Base::SizeError</title>
<!-- Node1 -->
<g id="node1" class="node">
<title>Node1</title>
<g id="a_node1"><a xlink:title="Thrown to indicate that the size of a (multidimensional) array is not correct.">
<polygon fill="#bfbfbf" stroke="#000000" points="3,-.5 3,-19.5 125,-19.5 125,-.5 3,-.5"/>
<text text-anchor="middle" x="64" y="-7.5" font-family="Helvetica,sans-Serif" font-size="10.00" fill="#000000">CDPL::Base::SizeError</text>
</a>
</g>
</g>
<!-- Node2 -->
<g id="node2" class="node">
<title>Node2</title>
<g id="a_node2"><a xlink:href="classCDPL_1_1Base_1_1ValueError.html" target="_top" xlink:title="Thrown to indicate errors caused by some invalid value.">
<polygon fill="none" stroke="#000000" points="0,-56.5 0,-75.5 128,-75.5 128,-56.5 0,-56.5"/>
<text text-anchor="middle" x="64" y="-63.5" font-family="Helvetica,sans-Serif" font-size="10.00" fill="#000000">CDPL::Base::ValueError</text>
</a>
</g>
</g>
<!-- Node2&#45;&gt;Node1 -->
<g id="edge1" class="edge">
<title>Node2&#45;&gt;Node1</title>
<path fill="none" stroke="#191970" d="M64,-46.1575C64,-37.155 64,-26.9199 64,-19.6427"/>
<polygon fill="#191970" stroke="#191970" points="60.5001,-46.2455 64,-56.2455 67.5001,-46.2456 60.5001,-46.2455"/>
</g>
<!-- Node3 -->
<g id="node3" class="node">
<title>Node3</title>
<g id="a_node3"><a xlink:href="classCDPL_1_1Base_1_1Exception.html" target="_top" xlink:title="The root of the CDPL exception hierarchy.">
<polygon fill="none" stroke="#000000" points="1,-112.5 1,-131.5 127,-131.5 127,-112.5 1,-112.5"/>
<text text-anchor="middle" x="64" y="-119.5" font-family="Helvetica,sans-Serif" font-size="10.00" fill="#000000">CDPL::Base::Exception</text>
</a>
</g>
</g>
<!-- Node3&#45;&gt;Node2 -->
<g id="edge2" class="edge">
<title>Node3&#45;&gt;Node2</title>
<path fill="none" stroke="#191970" d="M64,-102.1575C64,-93.155 64,-82.9199 64,-75.6427"/>
<polygon fill="#191970" stroke="#191970" points="60.5001,-102.2455 64,-112.2455 67.5001,-102.2456 60.5001,-102.2455"/>
</g>
<!-- Node4 -->
<g id="node4" class="node">
<title>Node4</title>
<g id="a_node4"><a xlink:title="STL class.">
<polygon fill="none" stroke="#bfbfbf" points="21,-168.5 21,-187.5 107,-187.5 107,-168.5 21,-168.5"/>
<text text-anchor="middle" x="64" y="-175.5" font-family="Helvetica,sans-Serif" font-size="10.00" fill="#000000">std::exception</text>
</a>
</g>
</g>
<!-- Node4&#45;&gt;Node3 -->
<g id="edge3" class="edge">
<title>Node4&#45;&gt;Node3</title>
<path fill="none" stroke="#191970" d="M64,-158.1575C64,-149.155 64,-138.9199 64,-131.6427"/>
<polygon fill="#191970" stroke="#191970" points="60.5001,-158.2455 64,-168.2455 67.5001,-158.2456 60.5001,-158.2455"/>
</g>
</g>
</svg>
