<?xml version="1.0" encoding="UTF-8" standalone="no"?>
<!DOCTYPE svg PUBLIC "-//W3C//DTD SVG 1.1//EN"
 "http://www.w3.org/Graphics/SVG/1.1/DTD/svg11.dtd">
<!-- Generated by graphviz version 2.40.1 (0)
 -->
<!-- Title: CDPL::Base::DataOutputHandler&lt; T &gt; Pages: 1 -->
<!--zoomable 100 -->
<svg id="main" version="1.1" xmlns="http://www.w3.org/2000/svg" xmlns:xlink="http://www.w3.org/1999/xlink" xml:space="preserve" onload="init(evt)">
<style type="text/css"><![CDATA[
.edge:hover path { stroke: red; }
.edge:hover polygon { stroke: red; fill: red; }
]]></style>
<script type="text/javascript"><![CDATA[
var edges = document.getElementsByTagName('g');
if (edges && edges.length) {
  for (var i=0;i<edges.length;i++) {
    if (edges[i].id.substr(0,4)=='edge') {
      edges[i].setAttribute('class','edge');
    }
  }
}
]]></script>
        <defs>
                <circle id="rim" cx="0" cy="0" r="7"/>
                <circle id="rim2" cx="0" cy="0" r="3.5"/>
                <g id="zoomPlus">
                        <use xlink:href="#rim" fill="#404040">
                                <set attributeName="fill" to="#808080" begin="zoomplus.mouseover" end="zoomplus.mouseout"/>
                        </use>
                        <path d="M-4,0h8M0,-4v8" fill="none" stroke="white" stroke-width="1.5" pointer-events="none"/>
                </g>
                <g id="zoomMin">
                        <use xlink:href="#rim" fill="#404040">
                                <set attributeName="fill" to="#808080" begin="zoomminus.mouseover" end="zoomminus.mouseout"/>
                        </use>
                        <path d="M-4,0h8" fill="none" stroke="white" stroke-width="1.5" pointer-events="none"/>
                </g>
                <g id="dirArrow">
                        <path fill="none" stroke="white" stroke-width="1.5" d="M0,-3.0v7 M-2.5,-0.5L0,-3.0L2.5,-0.5"/>
                </g>
               <g id="resetDef">
                       <use xlink:href="#rim2" fill="#404040">
                               <set attributeName="fill" to="#808080" begin="reset.mouseover" end="reset.mouseout"/>
                       </use>
               </g>
        </defs>

<script type="text/javascript">
var viewWidth = 779;
var viewHeight = 100;
var sectionId = 'dynsection-0';
</script>
<script xlink:href="svgpan.js"/>
<svg id="graph" class="graph">
<g id="viewport">
<title>CDPL::Base::DataOutputHandler&lt; T &gt;</title>
<!-- Node1 -->
<g id="node1" class="node">
<title>Node1</title>
<g id="a_node1"><a xlink:title="A factory interface providing methods for the creation of Base::DataWriter instances handling a parti...">
<polygon fill="#bfbfbf" stroke="#000000" points="0,-32 0,-51 201,-51 201,-32 0,-32"/>
<text text-anchor="middle" x="100.5" y="-39" font-family="Helvetica,sans-Serif" font-size="10.00" fill="#000000">CDPL::Base::DataOutputHandler&lt; T &gt;</text>
</a>
</g>
</g>
<!-- Node2 -->
<g id="node2" class="node">
<title>Node2</title>
<g id="a_node2"><a xlink:href="classCDPL_1_1Base_1_1DataOutputHandler.html" target="_top" xlink:title=" ">
<polygon fill="none" stroke="#000000" points="374,-54.5 374,-84.5 568,-84.5 568,-54.5 374,-54.5"/>
<text text-anchor="start" x="382" y="-72.5" font-family="Helvetica,sans-Serif" font-size="10.00" fill="#000000">CDPL::Base::DataOutputHandler</text>
<text text-anchor="middle" x="471" y="-61.5" font-family="Helvetica,sans-Serif" font-size="10.00" fill="#000000">&lt; typename WriterImpl::DataType &gt;</text>
</a>
</g>
</g>
<!-- Node1&#45;&gt;Node2 -->
<g id="edge1" class="edge">
<title>Node1&#45;&gt;Node2</title>
<path fill="none" stroke="#ffa500" stroke-dasharray="5,2" d="M211.4511,-49.885C263.0953,-53.7879 323.9737,-58.3887 373.7865,-62.1532"/>
<polygon fill="#ffa500" stroke="#ffa500" points="211.4867,-46.3778 201.2514,-49.1141 210.9591,-53.3579 211.4867,-46.3778"/>
<text text-anchor="start" x="228.5" y="-73.5" font-family="Helvetica,sans-Serif" font-size="10.00" fill="#000000"> &lt; typename WriterImpl</text>
<text text-anchor="middle" x="287.5" y="-62.5" font-family="Helvetica,sans-Serif" font-size="10.00" fill="#000000">::DataType &gt;</text>
</g>
<!-- Node4 -->
<g id="node4" class="node">
<title>Node4</title>
<g id="a_node4"><a xlink:href="classCDPL_1_1Base_1_1DataOutputHandler.html" target="_top" xlink:title=" ">
<polygon fill="none" stroke="#000000" points="384.5,-2.5 384.5,-32.5 557.5,-32.5 557.5,-2.5 384.5,-2.5"/>
<text text-anchor="start" x="392.5" y="-20.5" font-family="Helvetica,sans-Serif" font-size="10.00" fill="#000000">CDPL::Base::DataOutputHandler</text>
<text text-anchor="middle" x="471" y="-9.5" font-family="Helvetica,sans-Serif" font-size="10.00" fill="#000000">&lt; Chem::MolecularGraph &gt;</text>
</a>
</g>
</g>
<!-- Node1&#45;&gt;Node4 -->
<g id="edge3" class="edge">
<title>Node1&#45;&gt;Node4</title>
<path fill="none" stroke="#ffa500" stroke-dasharray="5,2" d="M199.7044,-31.0604C206.2311,-30.4951 212.7073,-29.9681 219,-29.5 273.9262,-25.4141 335.6963,-22.4468 384.3337,-20.4851"/>
<polygon fill="#ffa500" stroke="#ffa500" points="199.0754,-27.6025 189.4259,-31.9771 199.6973,-34.5748 199.0754,-27.6025"/>
<text text-anchor="middle" x="287.5" y="-32.5" font-family="Helvetica,sans-Serif" font-size="10.00" fill="#000000"> &lt; Chem::MolecularGraph &gt;</text>
</g>
<!-- Node3 -->
<g id="node3" class="node">
<title>Node3</title>
<g id="a_node3"><a xlink:href="classCDPL_1_1Util_1_1DefaultDataOutputHandler.html" target="_top" xlink:title="DefaultDataOutputHandler.">
<polygon fill="none" stroke="#000000" points="605,-50 605,-91 771,-91 771,-50 605,-50"/>
<text text-anchor="start" x="613" y="-79" font-family="Helvetica,sans-Serif" font-size="10.00" fill="#000000">CDPL::Util::DefaultDataOutput</text>
<text text-anchor="start" x="613" y="-68" font-family="Helvetica,sans-Serif" font-size="10.00" fill="#000000">Handler&lt; WriterImpl, FORMAT,</text>
<text text-anchor="middle" x="688" y="-57" font-family="Helvetica,sans-Serif" font-size="10.00" fill="#000000"> DataType &gt;</text>
</a>
</g>
</g>
<!-- Node2&#45;&gt;Node3 -->
<g id="edge2" class="edge">
<title>Node2&#45;&gt;Node3</title>
<path fill="none" stroke="#191970" d="M578.1969,-69.994C587.1776,-70.0354 596.1702,-70.0768 604.9286,-70.1172"/>
<polygon fill="#191970" stroke="#191970" points="578.0916,-66.4936 568.0755,-69.9474 578.0592,-73.4935 578.0916,-66.4936"/>
</g>
<!-- Node5 -->
<g id="node5" class="node">
<title>Node5</title>
<g id="a_node5"><a xlink:href="classCDPL_1_1Pharm_1_1PSDMolecularGraphOutputHandler.html" target="_top" xlink:title="A handler for the output of molecular graph dara in the PSD&#45;format of the CDPL.">
<polygon fill="none" stroke="#000000" points="612,-.5 612,-30.5 764,-30.5 764,-.5 612,-.5"/>
<text text-anchor="start" x="620" y="-18.5" font-family="Helvetica,sans-Serif" font-size="10.00" fill="#000000">CDPL::Pharm::PSDMolecular</text>
<text text-anchor="middle" x="688" y="-7.5" font-family="Helvetica,sans-Serif" font-size="10.00" fill="#000000">GraphOutputHandler</text>
</a>
</g>
</g>
<!-- Node4&#45;&gt;Node5 -->
<g id="edge4" class="edge">
<title>Node4&#45;&gt;Node5</title>
<path fill="none" stroke="#191970" d="M567.867,-16.6072C582.6401,-16.4711 597.7042,-16.3322 611.9468,-16.201"/>
<polygon fill="#191970" stroke="#191970" points="567.667,-13.1088 557.6997,-16.7009 567.7315,-20.1085 567.667,-13.1088"/>
</g>
</g>
</svg>
        <g id="navigator" transform="translate(0 0)" fill="#404254">
                <rect fill="#f2f5e9" fill-opacity="0.5" stroke="#606060" stroke-width=".5" x="0" y="0" width="60" height="60"/>
                <use id="zoomplus" xlink:href="#zoomPlus" x="17" y="9" onmousedown="handleZoom(evt,'in')"/>
                <use id="zoomminus" xlink:href="#zoomMin" x="42" y="9" onmousedown="handleZoom(evt,'out')"/>
                <use id="reset" xlink:href="#resetDef" x="30" y="36" onmousedown="handleReset()"/>
                <g id="arrowUp" xlink:href="#dirArrow" transform="translate(30 24)" onmousedown="handlePan(0,-1)">
                  <use xlink:href="#rim" fill="#404040">
                        <set attributeName="fill" to="#808080" begin="arrowUp.mouseover" end="arrowUp.mouseout"/>
                  </use>
                  <path fill="none" stroke="white" stroke-width="1.5" d="M0,-3.0v7 M-2.5,-0.5L0,-3.0L2.5,-0.5"/>
                </g>
                <g id="arrowRight" xlink:href="#dirArrow" transform="rotate(90) translate(36 -43)" onmousedown="handlePan(1,0)">
                  <use xlink:href="#rim" fill="#404040">
                        <set attributeName="fill" to="#808080" begin="arrowRight.mouseover" end="arrowRight.mouseout"/>
                  </use>
                  <path fill="none" stroke="white" stroke-width="1.5" d="M0,-3.0v7 M-2.5,-0.5L0,-3.0L2.5,-0.5"/>
                </g>
                <g id="arrowDown" xlink:href="#dirArrow" transform="rotate(180) translate(-30 -48)" onmousedown="handlePan(0,1)">
                  <use xlink:href="#rim" fill="#404040">
                        <set attributeName="fill" to="#808080" begin="arrowDown.mouseover" end="arrowDown.mouseout"/>
                  </use>
                  <path fill="none" stroke="white" stroke-width="1.5" d="M0,-3.0v7 M-2.5,-0.5L0,-3.0L2.5,-0.5"/>
                </g>
                <g id="arrowLeft" xlink:href="#dirArrow" transform="rotate(270) translate(-36 17)" onmousedown="handlePan(-1,0)">
                  <use xlink:href="#rim" fill="#404040">
                        <set attributeName="fill" to="#808080" begin="arrowLeft.mouseover" end="arrowLeft.mouseout"/>
                  </use>
                  <path fill="none" stroke="white" stroke-width="1.5" d="M0,-3.0v7 M-2.5,-0.5L0,-3.0L2.5,-0.5"/>
                </g>
        </g>
        <svg viewBox="0 0 15 15" width="100%" height="30px" preserveAspectRatio="xMaxYMin meet">
         <g id="arrow_out" transform="scale(0.3 0.3)">
          <a xlink:href="classCDPL_1_1Base_1_1DataOutputHandler__inherit__graph_org.svg" target="_base">
           <rect id="button" ry="5" rx="5" y="6" x="6" height="38" width="38"
                fill="#f2f5e9" fill-opacity="0.5" stroke="#606060" stroke-width="1.0"/>
           <path id="arrow"
             d="M 11.500037,31.436501 C 11.940474,20.09759 22.043105,11.32322 32.158766,21.979434 L 37.068811,17.246167 C 37.068811,17.246167 37.088388,32 37.088388,32 L 22.160133,31.978069 C 22.160133,31.978069 26.997745,27.140456 26.997745,27.140456 C 18.528582,18.264221 13.291696,25.230495 11.500037,31.436501 z"
             style="fill:#404040;"/>
          </a>
         </g>
        </svg>
</svg>
