<?xml version="1.0" encoding="UTF-8" standalone="no"?>
<!DOCTYPE svg PUBLIC "-//W3C//DTD SVG 1.1//EN"
 "http://www.w3.org/Graphics/SVG/1.1/DTD/svg11.dtd">
<!-- Generated by graphviz version 2.40.1 (0)
 -->
<!-- Title: Grid Pages: 1 -->
<svg width="133pt" height="295pt"
 viewBox="0.00 0.00 133.00 295.00" xmlns="http://www.w3.org/2000/svg" xmlns:xlink="http://www.w3.org/1999/xlink">
<g id="graph0" class="graph" transform="scale(1 1) rotate(0) translate(4 291)">
<title>Grid</title>
<g id="clust1" class="cluster">
<title>clusterdir_a994778004acca3ffd9b7b243e563193</title>
<g id="a_clust1"><a xlink:href="dir_a994778004acca3ffd9b7b243e563193.html" target="_top" xlink:title="CDPL">
<polygon fill="#ddddee" stroke="#000000" points="8,-208 8,-279 78,-279 78,-208 8,-208"/>
<text text-anchor="middle" x="43" y="-267" font-family="Helvetica,sans-Serif" font-size="10.00" fill="#000000">CDPL</text>
</a>
</g>
</g>
<!-- dir_491d063340da125db89438dc192c4052 -->
<g id="node1" class="node">
<title>dir_491d063340da125db89438dc192c4052</title>
<g id="a_node1"><a xlink:href="dir_491d063340da125db89438dc192c4052.html" target="_top" xlink:title="Grid">
<polygon fill="#eeeeff" stroke="#000000" points="70,-252 16,-252 16,-216 70,-216 70,-252"/>
<text text-anchor="middle" x="43" y="-231.5" font-family="Helvetica,sans-Serif" font-size="10.00" fill="#000000">Grid</text>
</a>
</g>
</g>
<!-- dir_b01a315eaf7c400e919f1224442bc193 -->
<g id="node2" class="node">
<title>dir_b01a315eaf7c400e919f1224442bc193</title>
<g id="a_node2"><a xlink:href="dir_b01a315eaf7c400e919f1224442bc193.html" target="_top" xlink:title="Base">
<polygon fill="none" stroke="#000000" points="79,-36 25,-36 25,0 79,0 79,-36"/>
<text text-anchor="middle" x="52" y="-15.5" font-family="Helvetica,sans-Serif" font-size="10.00" fill="#000000">Base</text>
</a>
</g>
</g>
<!-- dir_491d063340da125db89438dc192c4052&#45;&gt;dir_b01a315eaf7c400e919f1224442bc193 -->
<g id="edge1" class="edge">
<title>dir_491d063340da125db89438dc192c4052&#45;&gt;dir_b01a315eaf7c400e919f1224442bc193</title>
<path fill="none" stroke="#000000" d="M34.6006,-215.672C21.8485,-185.2772 .6316,-122.7585 16,-72 18.9564,-62.2355 24.3252,-52.6229 30.03,-44.2762"/>
<polygon fill="#000000" stroke="#000000" points="32.9414,-46.2239 36.0095,-36.0831 27.2871,-42.0973 32.9414,-46.2239"/>
<g id="a_edge1&#45;headlabel"><a xlink:href="dir_000011_000005.html" target="_top" xlink:title="3">
<text text-anchor="middle" x="33.1158" y="-48.3013" font-family="Helvetica,sans-Serif" font-size="10.00" fill="#000000">3</text>
</a>
</g>
</g>
<!-- dir_a9a228af373b273559f2cd997169f402 -->
<g id="node3" class="node">
<title>dir_a9a228af373b273559f2cd997169f402</title>
<g id="a_node3"><a xlink:href="dir_a9a228af373b273559f2cd997169f402.html" target="_top" xlink:title="Util">
<polygon fill="none" stroke="#000000" points="79,-108 25,-108 25,-72 79,-72 79,-108"/>
<text text-anchor="middle" x="52" y="-87.5" font-family="Helvetica,sans-Serif" font-size="10.00" fill="#000000">Util</text>
</a>
</g>
</g>
<!-- dir_491d063340da125db89438dc192c4052&#45;&gt;dir_a9a228af373b273559f2cd997169f402 -->
<g id="edge2" class="edge">
<title>dir_491d063340da125db89438dc192c4052&#45;&gt;dir_a9a228af373b273559f2cd997169f402</title>
<path fill="none" stroke="#000000" d="M44.1399,-215.7623C45.6749,-191.201 48.422,-147.2474 50.2279,-118.3541"/>
<polygon fill="#000000" stroke="#000000" points="53.7387,-118.2885 50.8694,-108.0896 46.7523,-117.8518 53.7387,-118.2885"/>
<g id="a_edge2&#45;headlabel"><a xlink:href="dir_000011_000014.html" target="_top" xlink:title="27">
<text text-anchor="middle" x="56.3483" y="-119.5532" font-family="Helvetica,sans-Serif" font-size="10.00" fill="#000000">27</text>
</a>
</g>
</g>
<!-- dir_5dc2169f373070219fdbac534bcee36f -->
<g id="node4" class="node">
<title>dir_5dc2169f373070219fdbac534bcee36f</title>
<g id="a_node4"><a xlink:href="dir_5dc2169f373070219fdbac534bcee36f.html" target="_top" xlink:title="Math">
<polygon fill="none" stroke="#000000" points="125,-180 71,-180 71,-144 125,-144 125,-180"/>
<text text-anchor="middle" x="98" y="-159.5" font-family="Helvetica,sans-Serif" font-size="10.00" fill="#000000">Math</text>
</a>
</g>
</g>
<!-- dir_491d063340da125db89438dc192c4052&#45;&gt;dir_5dc2169f373070219fdbac534bcee36f -->
<g id="edge3" class="edge">
<title>dir_491d063340da125db89438dc192c4052&#45;&gt;dir_5dc2169f373070219fdbac534bcee36f</title>
<path fill="none" stroke="#000000" d="M56.8788,-215.8314C63.2136,-207.5386 70.8384,-197.557 77.7926,-188.4533"/>
<polygon fill="#000000" stroke="#000000" points="80.6452,-190.4847 83.9343,-180.4133 75.0825,-186.2353 80.6452,-190.4847"/>
<g id="a_edge3&#45;headlabel"><a xlink:href="dir_000011_000001.html" target="_top" xlink:title="2">
<text text-anchor="middle" x="80.7195" y="-192.5647" font-family="Helvetica,sans-Serif" font-size="10.00" fill="#000000">2</text>
</a>
</g>
</g>
<!-- dir_a9a228af373b273559f2cd997169f402&#45;&gt;dir_b01a315eaf7c400e919f1224442bc193 -->
<g id="edge4" class="edge">
<title>dir_a9a228af373b273559f2cd997169f402&#45;&gt;dir_b01a315eaf7c400e919f1224442bc193</title>
<path fill="none" stroke="#000000" d="M52,-71.8314C52,-64.131 52,-54.9743 52,-46.4166"/>
<polygon fill="#000000" stroke="#000000" points="55.5001,-46.4132 52,-36.4133 48.5001,-46.4133 55.5001,-46.4132"/>
<g id="a_edge4&#45;headlabel"><a xlink:href="dir_000014_000005.html" target="_top" xlink:title="25">
<text text-anchor="middle" x="58.3393" y="-47.5079" font-family="Helvetica,sans-Serif" font-size="10.00" fill="#000000">25</text>
</a>
</g>
</g>
<!-- dir_5dc2169f373070219fdbac534bcee36f&#45;&gt;dir_b01a315eaf7c400e919f1224442bc193 -->
<g id="edge5" class="edge">
<title>dir_5dc2169f373070219fdbac534bcee36f&#45;&gt;dir_b01a315eaf7c400e919f1224442bc193</title>
<path fill="none" stroke="#000000" d="M98.4698,-143.842C98.3849,-125.248 96.6632,-95.7823 88,-72 84.5081,-62.414 78.9827,-52.8535 73.299,-44.4998"/>
<polygon fill="#000000" stroke="#000000" points="76.073,-42.3622 67.3975,-36.2807 70.387,-46.445 76.073,-42.3622"/>
<g id="a_edge5&#45;headlabel"><a xlink:href="dir_000001_000005.html" target="_top" xlink:title="19">
<text text-anchor="middle" x="80.4759" y="-41.1261" font-family="Helvetica,sans-Serif" font-size="10.00" fill="#000000">19</text>
</a>
</g>
</g>
<!-- dir_5dc2169f373070219fdbac534bcee36f&#45;&gt;dir_a9a228af373b273559f2cd997169f402 -->
<g id="edge6" class="edge">
<title>dir_5dc2169f373070219fdbac534bcee36f&#45;&gt;dir_a9a228af373b273559f2cd997169f402</title>
<path fill="none" stroke="#000000" d="M86.3923,-143.8314C81.2022,-135.7079 74.9768,-125.9637 69.2575,-117.0118"/>
<polygon fill="#000000" stroke="#000000" points="72.0974,-114.9559 63.764,-108.4133 66.1985,-118.7246 72.0974,-114.9559"/>
<g id="a_edge6&#45;headlabel"><a xlink:href="dir_000001_000014.html" target="_top" xlink:title="2">
<text text-anchor="middle" x="76.4253" y="-113.9564" font-family="Helvetica,sans-Serif" font-size="10.00" fill="#000000">2</text>
</a>
</g>
</g>
</g>
</svg>
