<?xml version="1.0" encoding="UTF-8" standalone="no"?>
<!DOCTYPE svg PUBLIC "-//W3C//DTD SVG 1.1//EN"
 "http://www.w3.org/Graphics/SVG/1.1/DTD/svg11.dtd">
<!-- Generated by graphviz version 2.40.1 (0)
 -->
<!-- Title: Graphical Class Hierarchy Pages: 1 -->
<svg width="583pt" height="431pt"
 viewBox="0.00 0.00 583.00 431.00" xmlns="http://www.w3.org/2000/svg" xmlns:xlink="http://www.w3.org/1999/xlink">
<g id="graph0" class="graph" transform="scale(1 1) rotate(0) translate(4 427)">
<title>Graphical Class Hierarchy</title>
<!-- Node0 -->
<g id="node1" class="node">
<title>Node0</title>
<g id="a_node1"><a xlink:href="classCDPL_1_1Pharm_1_1FeatureGenerator.html" target="_top" xlink:title="FeatureGenerator.">
<polygon fill="none" stroke="#000000" points="0,-202 0,-221 170,-221 170,-202 0,-202"/>
<text text-anchor="middle" x="85" y="-209" font-family="Helvetica,sans-Serif" font-size="10.00" fill="#000000">CDPL::Pharm::FeatureGenerator</text>
</a>
</g>
</g>
<!-- Node1 -->
<g id="node2" class="node">
<title>Node1</title>
<g id="a_node2"><a xlink:href="classCDPL_1_1Pharm_1_1PatternBasedFeatureGenerator.html" target="_top" xlink:title="PatternBasedFeatureGenerator.">
<polygon fill="none" stroke="#000000" points="206,-196.5 206,-226.5 356,-226.5 356,-196.5 206,-196.5"/>
<text text-anchor="start" x="214" y="-214.5" font-family="Helvetica,sans-Serif" font-size="10.00" fill="#000000">CDPL::Pharm::PatternBased</text>
<text text-anchor="middle" x="281" y="-203.5" font-family="Helvetica,sans-Serif" font-size="10.00" fill="#000000">FeatureGenerator</text>
</a>
</g>
</g>
<!-- Node0&#45;&gt;Node1 -->
<g id="edge1" class="edge">
<title>Node0&#45;&gt;Node1</title>
<path fill="none" stroke="#191970" d="M180.1828,-211.5C188.7853,-211.5 197.4169,-211.5 205.8119,-211.5"/>
<polygon fill="#191970" stroke="#191970" points="180.1134,-208.0001 170.1133,-211.5 180.1133,-215.0001 180.1134,-208.0001"/>
</g>
<!-- Node2 -->
<g id="node3" class="node">
<title>Node2</title>
<g id="a_node3"><a xlink:href="classCDPL_1_1Pharm_1_1AromaticFeatureGenerator.html" target="_top" xlink:title="AromaticFeatureGenerator.">
<polygon fill="none" stroke="#000000" points="400.5,-392.5 400.5,-422.5 566.5,-422.5 566.5,-392.5 400.5,-392.5"/>
<text text-anchor="start" x="408.5" y="-410.5" font-family="Helvetica,sans-Serif" font-size="10.00" fill="#000000">CDPL::Pharm::AromaticFeature</text>
<text text-anchor="middle" x="483.5" y="-399.5" font-family="Helvetica,sans-Serif" font-size="10.00" fill="#000000">Generator</text>
</a>
</g>
</g>
<!-- Node1&#45;&gt;Node2 -->
<g id="edge2" class="edge">
<title>Node1&#45;&gt;Node2</title>
<path fill="none" stroke="#191970" d="M290.1301,-236.2877C305.3147,-273.9887 339.3915,-345.375 392,-383.5 396.7873,-386.9693 402.0376,-389.9375 407.526,-392.4769"/>
<polygon fill="#191970" stroke="#191970" points="293.2461,-234.645 286.3486,-226.603 286.7255,-237.1911 293.2461,-234.645"/>
</g>
<!-- Node3 -->
<g id="node4" class="node">
<title>Node3</title>
<g id="a_node4"><a xlink:href="classCDPL_1_1Pharm_1_1HBondAcceptorFeatureGenerator.html" target="_top" xlink:title="HBondAcceptorFeatureGenerator.">
<polygon fill="none" stroke="#000000" points="403,-343.5 403,-373.5 564,-373.5 564,-343.5 403,-343.5"/>
<text text-anchor="start" x="411" y="-361.5" font-family="Helvetica,sans-Serif" font-size="10.00" fill="#000000">CDPL::Pharm::HBondAcceptor</text>
<text text-anchor="middle" x="483.5" y="-350.5" font-family="Helvetica,sans-Serif" font-size="10.00" fill="#000000">FeatureGenerator</text>
</a>
</g>
</g>
<!-- Node1&#45;&gt;Node3 -->
<g id="edge3" class="edge">
<title>Node1&#45;&gt;Node3</title>
<path fill="none" stroke="#191970" d="M295.8394,-234.9445C314.7589,-262.8899 350.0919,-309.003 392,-334.5 397.6121,-337.9144 403.7042,-340.8477 409.9895,-343.367"/>
<polygon fill="#191970" stroke="#191970" points="298.7256,-232.9637 290.2859,-226.5589 292.8894,-236.8288 298.7256,-232.9637"/>
</g>
<!-- Node4 -->
<g id="node5" class="node">
<title>Node4</title>
<g id="a_node5"><a xlink:href="classCDPL_1_1Pharm_1_1HBondDonorFeatureGenerator.html" target="_top" xlink:title="HBondDonorFeatureGenerator.">
<polygon fill="none" stroke="#000000" points="392,-294.5 392,-324.5 575,-324.5 575,-294.5 392,-294.5"/>
<text text-anchor="start" x="400" y="-312.5" font-family="Helvetica,sans-Serif" font-size="10.00" fill="#000000">CDPL::Pharm::HBondDonorFeature</text>
<text text-anchor="middle" x="483.5" y="-301.5" font-family="Helvetica,sans-Serif" font-size="10.00" fill="#000000">Generator</text>
</a>
</g>
</g>
<!-- Node1&#45;&gt;Node4 -->
<g id="edge4" class="edge">
<title>Node1&#45;&gt;Node4</title>
<path fill="none" stroke="#191970" d="M307.5432,-232.8863C329.1516,-249.356 361.04,-271.5901 392,-285.5 399.4901,-288.8652 407.5449,-291.8314 415.658,-294.4261"/>
<polygon fill="#191970" stroke="#191970" points="309.5576,-230.0195 299.5078,-226.6652 305.2724,-235.5546 309.5576,-230.0195"/>
</g>
<!-- Node5 -->
<g id="node6" class="node">
<title>Node5</title>
<g id="a_node6"><a xlink:href="classCDPL_1_1Pharm_1_1HydrophobicAtomFeatureGenerator.html" target="_top" xlink:title="HydrophobicAtomFeatureGenerator.">
<polygon fill="none" stroke="#000000" points="410,-245.5 410,-275.5 557,-275.5 557,-245.5 410,-245.5"/>
<text text-anchor="start" x="418" y="-263.5" font-family="Helvetica,sans-Serif" font-size="10.00" fill="#000000">CDPL::Pharm::Hydrophobic</text>
<text text-anchor="middle" x="483.5" y="-252.5" font-family="Helvetica,sans-Serif" font-size="10.00" fill="#000000">AtomFeatureGenerator</text>
</a>
</g>
</g>
<!-- Node1&#45;&gt;Node5 -->
<g id="edge5" class="edge">
<title>Node1&#45;&gt;Node5</title>
<path fill="none" stroke="#191970" d="M352.924,-228.9038C375.3251,-234.3243 399.8221,-240.252 421.4846,-245.4938"/>
<polygon fill="#191970" stroke="#191970" points="353.6755,-225.4847 343.1329,-226.5346 352.0292,-232.2884 353.6755,-225.4847"/>
</g>
<!-- Node6 -->
<g id="node7" class="node">
<title>Node6</title>
<g id="a_node7"><a xlink:href="classCDPL_1_1Pharm_1_1HydrophobicFeatureGenerator.html" target="_top" xlink:title="HydrophobicFeatureGenerator.">
<polygon fill="none" stroke="#000000" points="410,-196.5 410,-226.5 557,-226.5 557,-196.5 410,-196.5"/>
<text text-anchor="start" x="418" y="-214.5" font-family="Helvetica,sans-Serif" font-size="10.00" fill="#000000">CDPL::Pharm::Hydrophobic</text>
<text text-anchor="middle" x="483.5" y="-203.5" font-family="Helvetica,sans-Serif" font-size="10.00" fill="#000000">FeatureGenerator</text>
</a>
</g>
</g>
<!-- Node1&#45;&gt;Node6 -->
<g id="edge6" class="edge">
<title>Node1&#45;&gt;Node6</title>
<path fill="none" stroke="#191970" d="M366.5158,-211.5C380.928,-211.5 395.7762,-211.5 409.8536,-211.5"/>
<polygon fill="#191970" stroke="#191970" points="366.1158,-208.0001 356.1158,-211.5 366.1157,-215.0001 366.1158,-208.0001"/>
</g>
<!-- Node7 -->
<g id="node8" class="node">
<title>Node7</title>
<g id="a_node8"><a xlink:href="classCDPL_1_1Pharm_1_1NegIonizableFeatureGenerator.html" target="_top" xlink:title="NegIonizableFeatureGenerator.">
<polygon fill="none" stroke="#000000" points="409,-147.5 409,-177.5 558,-177.5 558,-147.5 409,-147.5"/>
<text text-anchor="start" x="417" y="-165.5" font-family="Helvetica,sans-Serif" font-size="10.00" fill="#000000">CDPL::Pharm::NegIonizable</text>
<text text-anchor="middle" x="483.5" y="-154.5" font-family="Helvetica,sans-Serif" font-size="10.00" fill="#000000">FeatureGenerator</text>
</a>
</g>
</g>
<!-- Node1&#45;&gt;Node7 -->
<g id="edge7" class="edge">
<title>Node1&#45;&gt;Node7</title>
<path fill="none" stroke="#191970" d="M352.924,-194.0962C375.3251,-188.6757 399.8221,-182.748 421.4846,-177.5062"/>
<polygon fill="#191970" stroke="#191970" points="352.0292,-190.7116 343.1329,-196.4654 353.6755,-197.5153 352.0292,-190.7116"/>
</g>
<!-- Node8 -->
<g id="node9" class="node">
<title>Node8</title>
<g id="a_node9"><a xlink:href="classCDPL_1_1Pharm_1_1PosIonizableFeatureGenerator.html" target="_top" xlink:title="PosIonizableFeatureGenerator.">
<polygon fill="none" stroke="#000000" points="410,-98.5 410,-128.5 557,-128.5 557,-98.5 410,-98.5"/>
<text text-anchor="start" x="418" y="-116.5" font-family="Helvetica,sans-Serif" font-size="10.00" fill="#000000">CDPL::Pharm::PosIonizable</text>
<text text-anchor="middle" x="483.5" y="-105.5" font-family="Helvetica,sans-Serif" font-size="10.00" fill="#000000">FeatureGenerator</text>
</a>
</g>
</g>
<!-- Node1&#45;&gt;Node8 -->
<g id="edge8" class="edge">
<title>Node1&#45;&gt;Node8</title>
<path fill="none" stroke="#191970" d="M308.021,-190.2143C329.6689,-174.0553 361.381,-152.3291 392,-138.5 400.2544,-134.7719 409.1854,-131.4918 418.1213,-128.6392"/>
<polygon fill="#191970" stroke="#191970" points="305.8149,-187.4946 299.9582,-196.3235 310.0424,-193.0739 305.8149,-187.4946"/>
</g>
<!-- Node9 -->
<g id="node10" class="node">
<title>Node9</title>
<g id="a_node10"><a xlink:href="classCDPL_1_1Pharm_1_1XBondAcceptorFeatureGenerator.html" target="_top" xlink:title="XBondAcceptorFeatureGenerator.">
<polygon fill="none" stroke="#000000" points="403.5,-49.5 403.5,-79.5 563.5,-79.5 563.5,-49.5 403.5,-49.5"/>
<text text-anchor="start" x="411.5" y="-67.5" font-family="Helvetica,sans-Serif" font-size="10.00" fill="#000000">CDPL::Pharm::XBondAcceptor</text>
<text text-anchor="middle" x="483.5" y="-56.5" font-family="Helvetica,sans-Serif" font-size="10.00" fill="#000000">FeatureGenerator</text>
</a>
</g>
</g>
<!-- Node1&#45;&gt;Node9 -->
<g id="edge9" class="edge">
<title>Node1&#45;&gt;Node9</title>
<path fill="none" stroke="#191970" d="M296.2313,-187.8797C315.3112,-160.1929 350.5778,-114.8759 392,-89.5 398.319,-85.6289 405.2437,-82.3463 412.366,-79.5648"/>
<polygon fill="#191970" stroke="#191970" points="293.3083,-185.9543 290.618,-196.2018 299.1116,-189.8686 293.3083,-185.9543"/>
</g>
<!-- Node10 -->
<g id="node11" class="node">
<title>Node10</title>
<g id="a_node11"><a xlink:href="classCDPL_1_1Pharm_1_1XBondDonorFeatureGenerator.html" target="_top" xlink:title="XBondDonorFeatureGenerator.">
<polygon fill="none" stroke="#000000" points="392.5,-.5 392.5,-30.5 574.5,-30.5 574.5,-.5 392.5,-.5"/>
<text text-anchor="start" x="400.5" y="-18.5" font-family="Helvetica,sans-Serif" font-size="10.00" fill="#000000">CDPL::Pharm::XBondDonorFeature</text>
<text text-anchor="middle" x="483.5" y="-7.5" font-family="Helvetica,sans-Serif" font-size="10.00" fill="#000000">Generator</text>
</a>
</g>
</g>
<!-- Node1&#45;&gt;Node10 -->
<g id="edge10" class="edge">
<title>Node1&#45;&gt;Node10</title>
<path fill="none" stroke="#191970" d="M290.3333,-186.6397C305.6913,-149.1706 339.8814,-78.5704 392,-40.5 397.3191,-36.6146 403.2099,-33.333 409.3639,-30.5615"/>
<polygon fill="#191970" stroke="#191970" points="286.9447,-185.6892 286.5017,-196.2747 293.4493,-188.2759 286.9447,-185.6892"/>
</g>
</g>
</svg>
