<?xml version="1.0" encoding="UTF-8" standalone="no"?>
<!DOCTYPE svg PUBLIC "-//W3C//DTD SVG 1.1//EN"
 "http://www.w3.org/Graphics/SVG/1.1/DTD/svg11.dtd">
<!-- Generated by graphviz version 2.40.1 (0)
 -->
<!-- Title: Graphical Class Hierarchy Pages: 1 -->
<svg width="418pt" height="142pt"
 viewBox="0.00 0.00 418.00 142.00" xmlns="http://www.w3.org/2000/svg" xmlns:xlink="http://www.w3.org/1999/xlink">
<g id="graph0" class="graph" transform="scale(1 1) rotate(0) translate(4 138)">
<title>Graphical Class Hierarchy</title>
<!-- Node0 -->
<g id="node1" class="node">
<title>Node0</title>
<g id="a_node1"><a xlink:href="classCDPL_1_1Math_1_1Expression.html" target="_top" xlink:title=" ">
<polygon fill="none" stroke="#000000" points="0,-57.5 0,-76.5 160,-76.5 160,-57.5 0,-57.5"/>
<text text-anchor="middle" x="80" y="-64.5" font-family="Helvetica,sans-Serif" font-size="10.00" fill="#000000">CDPL::Math::Expression&lt; E &gt;</text>
</a>
</g>
</g>
<!-- Node1 -->
<g id="node2" class="node">
<title>Node1</title>
<g id="a_node2"><a xlink:href="classCDPL_1_1Math_1_1GridExpression.html" target="_top" xlink:title=" ">
<polygon fill="none" stroke="#000000" points="213,-114.5 213,-133.5 393,-133.5 393,-114.5 213,-114.5"/>
<text text-anchor="middle" x="303" y="-121.5" font-family="Helvetica,sans-Serif" font-size="10.00" fill="#000000">CDPL::Math::GridExpression&lt; E &gt;</text>
</a>
</g>
</g>
<!-- Node0&#45;&gt;Node1 -->
<g id="edge1" class="edge">
<title>Node0&#45;&gt;Node1</title>
<path fill="none" stroke="#191970" d="M115.0843,-79.9237C137.8998,-87.9708 168.4283,-98.0726 196,-105 210.3641,-108.609 225.9801,-111.7912 240.7295,-114.469"/>
<polygon fill="#191970" stroke="#191970" points="116.0914,-76.567 105.4967,-76.5031 113.7392,-83.1599 116.0914,-76.567"/>
</g>
<!-- Node2 -->
<g id="node3" class="node">
<title>Node2</title>
<g id="a_node3"><a xlink:href="classCDPL_1_1Math_1_1MatrixExpression.html" target="_top" xlink:title=" ">
<polygon fill="none" stroke="#000000" points="207.5,-76.5 207.5,-95.5 398.5,-95.5 398.5,-76.5 207.5,-76.5"/>
<text text-anchor="middle" x="303" y="-83.5" font-family="Helvetica,sans-Serif" font-size="10.00" fill="#000000">CDPL::Math::MatrixExpression&lt; E &gt;</text>
</a>
</g>
</g>
<!-- Node0&#45;&gt;Node2 -->
<g id="edge2" class="edge">
<title>Node0&#45;&gt;Node2</title>
<path fill="none" stroke="#191970" d="M170.2987,-74.6936C182.4427,-75.7283 194.935,-76.7927 207.1704,-77.8351"/>
<polygon fill="#191970" stroke="#191970" points="170.4541,-71.1943 160.1931,-73.8326 169.8598,-78.169 170.4541,-71.1943"/>
</g>
<!-- Node3 -->
<g id="node4" class="node">
<title>Node3</title>
<g id="a_node4"><a xlink:href="classCDPL_1_1Math_1_1QuaternionExpression.html" target="_top" xlink:title=" ">
<polygon fill="none" stroke="#000000" points="196,-38.5 196,-57.5 410,-57.5 410,-38.5 196,-38.5"/>
<text text-anchor="middle" x="303" y="-45.5" font-family="Helvetica,sans-Serif" font-size="10.00" fill="#000000">CDPL::Math::QuaternionExpression&lt; E &gt;</text>
</a>
</g>
</g>
<!-- Node0&#45;&gt;Node3 -->
<g id="edge3" class="edge">
<title>Node0&#45;&gt;Node3</title>
<path fill="none" stroke="#191970" d="M170.3734,-59.3C178.7985,-58.5822 187.3906,-57.8501 195.9478,-57.121"/>
<polygon fill="#191970" stroke="#191970" points="169.8598,-55.831 160.1931,-60.1674 170.4541,-62.8057 169.8598,-55.831"/>
</g>
<!-- Node4 -->
<g id="node5" class="node">
<title>Node4</title>
<g id="a_node5"><a xlink:href="classCDPL_1_1Math_1_1VectorExpression.html" target="_top" xlink:title=" ">
<polygon fill="none" stroke="#000000" points="207.5,-.5 207.5,-19.5 398.5,-19.5 398.5,-.5 207.5,-.5"/>
<text text-anchor="middle" x="303" y="-7.5" font-family="Helvetica,sans-Serif" font-size="10.00" fill="#000000">CDPL::Math::VectorExpression&lt; E &gt;</text>
</a>
</g>
</g>
<!-- Node0&#45;&gt;Node4 -->
<g id="edge4" class="edge">
<title>Node0&#45;&gt;Node4</title>
<path fill="none" stroke="#191970" d="M115.0843,-54.0763C137.8998,-46.0292 168.4283,-35.9274 196,-29 210.3641,-25.391 225.9801,-22.2088 240.7295,-19.531"/>
<polygon fill="#191970" stroke="#191970" points="113.7392,-50.8401 105.4967,-57.4969 116.0914,-57.433 113.7392,-50.8401"/>
</g>
</g>
</svg>
