<?xml version="1.0" encoding="UTF-8" standalone="no"?>
<!DOCTYPE svg PUBLIC "-//W3C//DTD SVG 1.1//EN"
 "http://www.w3.org/Graphics/SVG/1.1/DTD/svg11.dtd">
<!-- Generated by graphviz version 2.40.1 (0)
 -->
<!-- Title: Graphical Class Hierarchy Pages: 1 -->
<svg width="465pt" height="382pt"
 viewBox="0.00 0.00 465.00 382.00" xmlns="http://www.w3.org/2000/svg" xmlns:xlink="http://www.w3.org/1999/xlink">
<g id="graph0" class="graph" transform="scale(1 1) rotate(0) translate(4 378)">
<title>Graphical Class Hierarchy</title>
<!-- Node0 -->
<g id="node1" class="node">
<title>Node0</title>
<g id="a_node1"><a xlink:href="structCDPL_1_1Math_1_1VectorTemporaryTraits.html" target="_top" xlink:title=" ">
<polygon fill="none" stroke="#000000" points="0,-171.5 0,-201.5 161,-201.5 161,-171.5 0,-171.5"/>
<text text-anchor="start" x="8" y="-189.5" font-family="Helvetica,sans-Serif" font-size="10.00" fill="#000000">CDPL::Math::VectorTemporary</text>
<text text-anchor="middle" x="80.5" y="-178.5" font-family="Helvetica,sans-Serif" font-size="10.00" fill="#000000">Traits&lt; V &gt;</text>
</a>
</g>
</g>
<!-- Node1 -->
<g id="node2" class="node">
<title>Node1</title>
<g id="a_node2"><a xlink:href="structCDPL_1_1Math_1_1VectorTemporaryTraits_3_01const_01HomogenousCoordsAdapter_3_01V_01_4_01_4.html" target="_top" xlink:title=" ">
<polygon fill="none" stroke="#000000" points="197,-343.5 197,-373.5 457,-373.5 457,-343.5 197,-343.5"/>
<text text-anchor="start" x="205" y="-361.5" font-family="Helvetica,sans-Serif" font-size="10.00" fill="#000000">CDPL::Math::VectorTemporary</text>
<text text-anchor="middle" x="327" y="-350.5" font-family="Helvetica,sans-Serif" font-size="10.00" fill="#000000">Traits&lt; const HomogenousCoordsAdapter&lt; V &gt; &gt;</text>
</a>
</g>
</g>
<!-- Node0&#45;&gt;Node1 -->
<g id="edge1" class="edge">
<title>Node0&#45;&gt;Node1</title>
<path fill="none" stroke="#191970" d="M92.3612,-210.7454C110.1524,-244.3508 147.0644,-304.3464 197,-334.5 202.6976,-337.9405 208.7725,-340.9094 215.0662,-343.4696"/>
<polygon fill="#191970" stroke="#191970" points="95.3499,-208.9044 87.6574,-201.6191 89.1278,-212.1114 95.3499,-208.9044"/>
</g>
<!-- Node2 -->
<g id="node3" class="node">
<title>Node2</title>
<g id="a_node3"><a xlink:href="structCDPL_1_1Math_1_1VectorTemporaryTraits_3_01const_01VectorRange_3_01V_01_4_01_4.html" target="_top" xlink:title=" ">
<polygon fill="none" stroke="#000000" points="234.5,-294.5 234.5,-324.5 419.5,-324.5 419.5,-294.5 234.5,-294.5"/>
<text text-anchor="start" x="242.5" y="-312.5" font-family="Helvetica,sans-Serif" font-size="10.00" fill="#000000">CDPL::Math::VectorTemporary</text>
<text text-anchor="middle" x="327" y="-301.5" font-family="Helvetica,sans-Serif" font-size="10.00" fill="#000000">Traits&lt; const VectorRange&lt; V &gt; &gt;</text>
</a>
</g>
</g>
<!-- Node0&#45;&gt;Node2 -->
<g id="edge2" class="edge">
<title>Node0&#45;&gt;Node2</title>
<path fill="none" stroke="#191970" d="M100.4129,-209.3171C121.8652,-232.3451 158.1824,-267.0609 197,-285.5 208.6093,-291.0146 221.3602,-295.265 234.1977,-298.5405"/>
<polygon fill="#191970" stroke="#191970" points="102.7918,-206.7316 93.4652,-201.7051 97.6215,-211.4507 102.7918,-206.7316"/>
</g>
<!-- Node3 -->
<g id="node4" class="node">
<title>Node3</title>
<g id="a_node4"><a xlink:href="structCDPL_1_1Math_1_1VectorTemporaryTraits_3_01const_01VectorReference_3_01V_01_4_01_4.html" target="_top" xlink:title=" ">
<polygon fill="none" stroke="#000000" points="225.5,-245.5 225.5,-275.5 428.5,-275.5 428.5,-245.5 225.5,-245.5"/>
<text text-anchor="start" x="233.5" y="-263.5" font-family="Helvetica,sans-Serif" font-size="10.00" fill="#000000">CDPL::Math::VectorTemporary</text>
<text text-anchor="middle" x="327" y="-252.5" font-family="Helvetica,sans-Serif" font-size="10.00" fill="#000000">Traits&lt; const VectorReference&lt; V &gt; &gt;</text>
</a>
</g>
</g>
<!-- Node0&#45;&gt;Node3 -->
<g id="edge3" class="edge">
<title>Node0&#45;&gt;Node3</title>
<path fill="none" stroke="#191970" d="M119.5813,-205.8691C141.8208,-216.2261 170.4575,-228.464 197,-236.5 208.0929,-239.8585 219.8681,-242.8258 231.6248,-245.4257"/>
<polygon fill="#191970" stroke="#191970" points="121.0034,-202.6701 110.4665,-201.5633 118.0134,-208.9994 121.0034,-202.6701"/>
</g>
<!-- Node4 -->
<g id="node5" class="node">
<title>Node4</title>
<g id="a_node5"><a xlink:href="structCDPL_1_1Math_1_1VectorTemporaryTraits_3_01const_01VectorSlice_3_01V_01_4_01_4.html" target="_top" xlink:title=" ">
<polygon fill="none" stroke="#000000" points="238,-196.5 238,-226.5 416,-226.5 416,-196.5 238,-196.5"/>
<text text-anchor="start" x="246" y="-214.5" font-family="Helvetica,sans-Serif" font-size="10.00" fill="#000000">CDPL::Math::VectorTemporary</text>
<text text-anchor="middle" x="327" y="-203.5" font-family="Helvetica,sans-Serif" font-size="10.00" fill="#000000">Traits&lt; const VectorSlice&lt; V &gt; &gt;</text>
</a>
</g>
</g>
<!-- Node0&#45;&gt;Node4 -->
<g id="edge4" class="edge">
<title>Node0&#45;&gt;Node4</title>
<path fill="none" stroke="#191970" d="M171.3649,-195.7155C192.9825,-197.908 216.0308,-200.2455 237.583,-202.4313"/>
<polygon fill="#191970" stroke="#191970" points="171.5155,-192.2129 161.2133,-194.6859 170.8091,-199.1772 171.5155,-192.2129"/>
</g>
<!-- Node5 -->
<g id="node6" class="node">
<title>Node5</title>
<g id="a_node6"><a xlink:href="structCDPL_1_1Math_1_1VectorTemporaryTraits_3_01HomogenousCoordsAdapter_3_01V_01_4_01_4.html" target="_top" xlink:title=" ">
<polygon fill="none" stroke="#000000" points="211.5,-147.5 211.5,-177.5 442.5,-177.5 442.5,-147.5 211.5,-147.5"/>
<text text-anchor="start" x="219.5" y="-165.5" font-family="Helvetica,sans-Serif" font-size="10.00" fill="#000000">CDPL::Math::VectorTemporary</text>
<text text-anchor="middle" x="327" y="-154.5" font-family="Helvetica,sans-Serif" font-size="10.00" fill="#000000">Traits&lt; HomogenousCoordsAdapter&lt; V &gt; &gt;</text>
</a>
</g>
</g>
<!-- Node0&#45;&gt;Node5 -->
<g id="edge5" class="edge">
<title>Node0&#45;&gt;Node5</title>
<path fill="none" stroke="#191970" d="M171.4762,-177.6423C184.4248,-176.3816 197.8846,-175.0711 211.2271,-173.772"/>
<polygon fill="#191970" stroke="#191970" points="170.8271,-174.1888 161.2133,-178.6415 171.5055,-181.1559 170.8271,-174.1888"/>
</g>
<!-- Node6 -->
<g id="node7" class="node">
<title>Node6</title>
<g id="a_node7"><a xlink:href="structCDPL_1_1Math_1_1VectorTemporaryTraits_3_01VectorRange_3_01V_01_4_01_4.html" target="_top" xlink:title=" ">
<polygon fill="none" stroke="#000000" points="246.5,-98.5 246.5,-128.5 407.5,-128.5 407.5,-98.5 246.5,-98.5"/>
<text text-anchor="start" x="254.5" y="-116.5" font-family="Helvetica,sans-Serif" font-size="10.00" fill="#000000">CDPL::Math::VectorTemporary</text>
<text text-anchor="middle" x="327" y="-105.5" font-family="Helvetica,sans-Serif" font-size="10.00" fill="#000000">Traits&lt; VectorRange&lt; V &gt; &gt;</text>
</a>
</g>
</g>
<!-- Node0&#45;&gt;Node6 -->
<g id="edge6" class="edge">
<title>Node0&#45;&gt;Node6</title>
<path fill="none" stroke="#191970" d="M121.3809,-167.2912C143.3988,-157.5537 171.257,-146.1934 197,-138.5 212.7448,-133.7946 229.8355,-129.7674 246.2921,-126.4067"/>
<polygon fill="#191970" stroke="#191970" points="119.7084,-164.2054 112.0156,-171.4904 122.5724,-170.5927 119.7084,-164.2054"/>
</g>
<!-- Node7 -->
<g id="node8" class="node">
<title>Node7</title>
<g id="a_node8"><a xlink:href="structCDPL_1_1Math_1_1VectorTemporaryTraits_3_01VectorReference_3_01V_01_4_01_4.html" target="_top" xlink:title=" ">
<polygon fill="none" stroke="#000000" points="240,-49.5 240,-79.5 414,-79.5 414,-49.5 240,-49.5"/>
<text text-anchor="start" x="248" y="-67.5" font-family="Helvetica,sans-Serif" font-size="10.00" fill="#000000">CDPL::Math::VectorTemporary</text>
<text text-anchor="middle" x="327" y="-56.5" font-family="Helvetica,sans-Serif" font-size="10.00" fill="#000000">Traits&lt; VectorReference&lt; V &gt; &gt;</text>
</a>
</g>
</g>
<!-- Node0&#45;&gt;Node7 -->
<g id="edge7" class="edge">
<title>Node0&#45;&gt;Node7</title>
<path fill="none" stroke="#191970" d="M100.8942,-163.8373C122.4901,-141.3288 158.6981,-107.6326 197,-89.5 210.2946,-83.2062 225.0669,-78.4968 239.7471,-74.9729"/>
<polygon fill="#191970" stroke="#191970" points="98.1876,-161.6064 93.8854,-171.2884 103.2864,-166.4025 98.1876,-161.6064"/>
</g>
<!-- Node8 -->
<g id="node9" class="node">
<title>Node8</title>
<g id="a_node9"><a xlink:href="structCDPL_1_1Math_1_1VectorTemporaryTraits_3_01VectorSlice_3_01V_01_4_01_4.html" target="_top" xlink:title=" ">
<polygon fill="none" stroke="#000000" points="246.5,-.5 246.5,-30.5 407.5,-30.5 407.5,-.5 246.5,-.5"/>
<text text-anchor="start" x="254.5" y="-18.5" font-family="Helvetica,sans-Serif" font-size="10.00" fill="#000000">CDPL::Math::VectorTemporary</text>
<text text-anchor="middle" x="327" y="-7.5" font-family="Helvetica,sans-Serif" font-size="10.00" fill="#000000">Traits&lt; VectorSlice&lt; V &gt; &gt;</text>
</a>
</g>
</g>
<!-- Node0&#45;&gt;Node8 -->
<g id="edge8" class="edge">
<title>Node0&#45;&gt;Node8</title>
<path fill="none" stroke="#191970" d="M92.7551,-162.1224C110.7904,-128.9356 147.7446,-70.27 197,-40.5 211.8504,-31.5244 229.2487,-25.6685 246.4003,-21.8729"/>
<polygon fill="#191970" stroke="#191970" points="89.5597,-160.6777 87.9736,-171.1531 95.7461,-163.9532 89.5597,-160.6777"/>
</g>
</g>
</svg>
