<?xml version="1.0" encoding="UTF-8" standalone="no"?>
<!DOCTYPE svg PUBLIC "-//W3C//DTD SVG 1.1//EN"
 "http://www.w3.org/Graphics/SVG/1.1/DTD/svg11.dtd">
<!-- Generated by graphviz version 2.40.1 (0)
 -->
<!-- Title: CDPL::Math::MatrixVectorBinaryFunctor&lt; M, V &gt; Pages: 1 -->
<svg width="306pt" height="106pt"
 viewBox="0.00 0.00 306.00 106.00" xmlns="http://www.w3.org/2000/svg" xmlns:xlink="http://www.w3.org/1999/xlink">
<g id="graph0" class="graph" transform="scale(1 1) rotate(0) translate(4 102)">
<title>CDPL::Math::MatrixVectorBinaryFunctor&lt; M, V &gt;</title>
<!-- Node1 -->
<g id="node1" class="node">
<title>Node1</title>
<g id="a_node1"><a xlink:title=" ">
<polygon fill="#bfbfbf" stroke="#000000" points="79,-67.5 79,-97.5 219,-97.5 219,-67.5 79,-67.5"/>
<text text-anchor="start" x="87" y="-85.5" font-family="Helvetica,sans-Serif" font-size="10.00" fill="#000000">CDPL::Math::MatrixVector</text>
<text text-anchor="middle" x="149" y="-74.5" font-family="Helvetica,sans-Serif" font-size="10.00" fill="#000000">BinaryFunctor&lt; M, V &gt;</text>
</a>
</g>
</g>
<!-- Node2 -->
<g id="node2" class="node">
<title>Node2</title>
<g id="a_node2"><a xlink:href="structCDPL_1_1Math_1_1MatrixVectorProduct.html" target="_top" xlink:title=" ">
<polygon fill="none" stroke="#000000" points="0,-.5 0,-30.5 140,-30.5 140,-.5 0,-.5"/>
<text text-anchor="start" x="8" y="-18.5" font-family="Helvetica,sans-Serif" font-size="10.00" fill="#000000">CDPL::Math::MatrixVector</text>
<text text-anchor="middle" x="70" y="-7.5" font-family="Helvetica,sans-Serif" font-size="10.00" fill="#000000">Product&lt; M, V &gt;</text>
</a>
</g>
</g>
<!-- Node1&#45;&gt;Node2 -->
<g id="edge1" class="edge">
<title>Node1&#45;&gt;Node2</title>
<path fill="none" stroke="#191970" d="M123.3908,-60.7808C111.7854,-50.9383 98.3468,-39.541 87.8554,-30.6432"/>
<polygon fill="#191970" stroke="#191970" points="121.1833,-63.4978 131.0737,-67.2967 125.711,-58.1593 121.1833,-63.4978"/>
</g>
<!-- Node3 -->
<g id="node3" class="node">
<title>Node3</title>
<g id="a_node3"><a xlink:href="structCDPL_1_1Math_1_1VectorMatrixProduct.html" target="_top" xlink:title=" ">
<polygon fill="none" stroke="#000000" points="158,-.5 158,-30.5 298,-30.5 298,-.5 158,-.5"/>
<text text-anchor="start" x="166" y="-18.5" font-family="Helvetica,sans-Serif" font-size="10.00" fill="#000000">CDPL::Math::VectorMatrix</text>
<text text-anchor="middle" x="228" y="-7.5" font-family="Helvetica,sans-Serif" font-size="10.00" fill="#000000">Product&lt; M, V &gt;</text>
</a>
</g>
</g>
<!-- Node1&#45;&gt;Node3 -->
<g id="edge2" class="edge">
<title>Node1&#45;&gt;Node3</title>
<path fill="none" stroke="#191970" d="M174.6092,-60.7808C186.2146,-50.9383 199.6532,-39.541 210.1446,-30.6432"/>
<polygon fill="#191970" stroke="#191970" points="172.289,-58.1593 166.9263,-67.2967 176.8167,-63.4978 172.289,-58.1593"/>
</g>
</g>
</svg>
