<?xml version="1.0" encoding="UTF-8" standalone="no"?>
<!DOCTYPE svg PUBLIC "-//W3C//DTD SVG 1.1//EN"
 "http://www.w3.org/Graphics/SVG/1.1/DTD/svg11.dtd">
<!-- Generated by graphviz version 2.40.1 (0)
 -->
<!-- Title: CDPL.Base.PropertyContainer Pages: 1 -->
<!--zoomable 417 -->
<svg id="main" version="1.1" xmlns="http://www.w3.org/2000/svg" xmlns:xlink="http://www.w3.org/1999/xlink" xml:space="preserve" onload="init(evt)">
<style type="text/css"><![CDATA[
.edge:hover path { stroke: red; }
.edge:hover polygon { stroke: red; fill: red; }
]]></style>
<script type="text/javascript"><![CDATA[
var edges = document.getElementsByTagName('g');
if (edges && edges.length) {
  for (var i=0;i<edges.length;i++) {
    if (edges[i].id.substr(0,4)=='edge') {
      edges[i].setAttribute('class','edge');
    }
  }
}
]]></script>
        <defs>
                <circle id="rim" cx="0" cy="0" r="7"/>
                <circle id="rim2" cx="0" cy="0" r="3.5"/>
                <g id="zoomPlus">
                        <use xlink:href="#rim" fill="#404040">
                                <set attributeName="fill" to="#808080" begin="zoomplus.mouseover" end="zoomplus.mouseout"/>
                        </use>
                        <path d="M-4,0h8M0,-4v8" fill="none" stroke="white" stroke-width="1.5" pointer-events="none"/>
                </g>
                <g id="zoomMin">
                        <use xlink:href="#rim" fill="#404040">
                                <set attributeName="fill" to="#808080" begin="zoomminus.mouseover" end="zoomminus.mouseout"/>
                        </use>
                        <path d="M-4,0h8" fill="none" stroke="white" stroke-width="1.5" pointer-events="none"/>
                </g>
                <g id="dirArrow">
                        <path fill="none" stroke="white" stroke-width="1.5" d="M0,-3.0v7 M-2.5,-0.5L0,-3.0L2.5,-0.5"/>
                </g>
               <g id="resetDef">
                       <use xlink:href="#rim2" fill="#404040">
                               <set attributeName="fill" to="#808080" begin="reset.mouseover" end="reset.mouseout"/>
                       </use>
               </g>
        </defs>

<script type="text/javascript">
var viewWidth = 1090;
var viewHeight = 417;
var sectionId = 'dynsection-0';
</script>
<script xlink:href="svgpan.js"/>
<svg id="graph" class="graph">
<g id="viewport">
<title>CDPL.Base.PropertyContainer</title>
<!-- Node1 -->
<g id="node1" class="node">
<title>Node1</title>
<g id="a_node1"><a xlink:title="A class providing methods for the storage and lookup of object properties.">
<polygon fill="#bfbfbf" stroke="#000000" points="94,-152.5 94,-171.5 255,-171.5 255,-152.5 94,-152.5"/>
<text text-anchor="middle" x="174.5" y="-159.5" font-family="Helvetica,sans-Serif" font-size="10.00" fill="#000000">CDPL.Base.PropertyContainer</text>
</a>
</g>
</g>
<!-- Node3 -->
<g id="node3" class="node">
<title>Node3</title>
<g id="a_node3"><a xlink:href="classCDPL_1_1Chem_1_1Bond.html" target="_top" xlink:title="Bond.">
<polygon fill="none" stroke="#000000" points="322,-370.5 322,-389.5 423,-389.5 423,-370.5 322,-370.5"/>
<text text-anchor="middle" x="372.5" y="-377.5" font-family="Helvetica,sans-Serif" font-size="10.00" fill="#000000">CDPL.Chem.Bond</text>
</a>
</g>
</g>
<!-- Node1&#45;&gt;Node3 -->
<g id="edge2" class="edge">
<title>Node1&#45;&gt;Node3</title>
<path fill="none" stroke="#191970" d="M182.3606,-180.7933C198.1339,-216.5123 236.8281,-294.8378 291,-342 305.7183,-354.8138 325.4944,-364.174 341.8799,-370.3983"/>
<polygon fill="#191970" stroke="#191970" points="185.5406,-179.3286 178.3668,-171.5321 179.1129,-182.1006 185.5406,-179.3286"/>
</g>
<!-- Node5 -->
<g id="node5" class="node">
<title>Node5</title>
<g id="a_node5"><a xlink:href="classCDPL_1_1Chem_1_1Entity3D.html" target="_top" xlink:title="Entity3D.">
<polygon fill="none" stroke="#000000" points="313,-313.5 313,-332.5 432,-332.5 432,-313.5 313,-313.5"/>
<text text-anchor="middle" x="372.5" y="-320.5" font-family="Helvetica,sans-Serif" font-size="10.00" fill="#000000">CDPL.Chem.Entity3D</text>
</a>
</g>
</g>
<!-- Node1&#45;&gt;Node5 -->
<g id="edge4" class="edge">
<title>Node1&#45;&gt;Node5</title>
<path fill="none" stroke="#191970" d="M194.1798,-178.0023C235.0338,-211.222 327.9667,-286.7886 360.769,-313.4611"/>
<polygon fill="#191970" stroke="#191970" points="196.2597,-175.1825 186.2928,-171.5891 191.8435,-180.6136 196.2597,-175.1825"/>
</g>
<!-- Node10 -->
<g id="node10" class="node">
<title>Node10</title>
<g id="a_node10"><a xlink:href="classCDPL_1_1Chem_1_1MolecularGraph.html" target="_top" xlink:title="MolecularGraph.">
<polygon fill="none" stroke="#000000" points="296,-209.5 296,-228.5 449,-228.5 449,-209.5 296,-209.5"/>
<text text-anchor="middle" x="372.5" y="-216.5" font-family="Helvetica,sans-Serif" font-size="10.00" fill="#000000">CDPL.Chem.MolecularGraph</text>
</a>
</g>
</g>
<!-- Node1&#45;&gt;Node10 -->
<g id="edge9" class="edge">
<title>Node1&#45;&gt;Node10</title>
<path fill="none" stroke="#191970" d="M217.5215,-174.385C254.078,-184.9088 305.803,-199.7993 339.2511,-209.4284"/>
<polygon fill="#191970" stroke="#191970" points="218.2188,-170.9436 207.6407,-171.5405 216.2822,-177.6704 218.2188,-170.9436"/>
</g>
<!-- Node21 -->
<g id="node21" class="node">
<title>Node21</title>
<g id="a_node21"><a xlink:href="classCDPL_1_1Chem_1_1Reaction.html" target="_top" xlink:title="Reaction.">
<polygon fill="none" stroke="#000000" points="313,-152.5 313,-171.5 432,-171.5 432,-152.5 313,-152.5"/>
<text text-anchor="middle" x="372.5" y="-159.5" font-family="Helvetica,sans-Serif" font-size="10.00" fill="#000000">CDPL.Chem.Reaction</text>
</a>
</g>
</g>
<!-- Node1&#45;&gt;Node21 -->
<g id="edge20" class="edge">
<title>Node1&#45;&gt;Node21</title>
<path fill="none" stroke="#191970" d="M265.0973,-162C281.3478,-162 297.9024,-162 312.9928,-162"/>
<polygon fill="#191970" stroke="#191970" points="265.0342,-158.5001 255.0342,-162 265.0341,-165.5001 265.0342,-158.5001"/>
</g>
<!-- Node23 -->
<g id="node23" class="node">
<title>Node23</title>
<g id="a_node23"><a xlink:href="classCDPL_1_1Grid_1_1AttributedGrid.html" target="_top" xlink:title="AttributedGrid.">
<polygon fill="none" stroke="#000000" points="304,-114.5 304,-133.5 441,-133.5 441,-114.5 304,-114.5"/>
<text text-anchor="middle" x="372.5" y="-121.5" font-family="Helvetica,sans-Serif" font-size="10.00" fill="#000000">CDPL.Grid.AttributedGrid</text>
</a>
</g>
</g>
<!-- Node1&#45;&gt;Node23 -->
<g id="edge22" class="edge">
<title>Node1&#45;&gt;Node23</title>
<path fill="none" stroke="#191970" d="M234.3659,-150.5106C262.6171,-145.0886 295.9357,-138.6942 322.7714,-133.5439"/>
<polygon fill="#191970" stroke="#191970" points="233.3693,-147.1379 224.2082,-152.46 234.6887,-154.0124 233.3693,-147.1379"/>
</g>
<!-- Node28 -->
<g id="node28" class="node">
<title>Node28</title>
<g id="a_node28"><a xlink:href="classCDPL_1_1Pharm_1_1FeatureContainer.html" target="_top" xlink:title="FeatureContainer.">
<polygon fill="none" stroke="#000000" points="291,-57.5 291,-76.5 454,-76.5 454,-57.5 291,-57.5"/>
<text text-anchor="middle" x="372.5" y="-64.5" font-family="Helvetica,sans-Serif" font-size="10.00" fill="#000000">CDPL.Pharm.FeatureContainer</text>
</a>
</g>
</g>
<!-- Node1&#45;&gt;Node28 -->
<g id="edge27" class="edge">
<title>Node1&#45;&gt;Node28</title>
<path fill="none" stroke="#191970" d="M202.8985,-147.9211C226.4432,-136.2929 260.8214,-119.4167 291,-105 311.5668,-95.175 335.183,-84.1969 351.6809,-76.5766"/>
<polygon fill="#191970" stroke="#191970" points="201.2357,-144.8387 193.8229,-152.4084 204.3383,-151.1136 201.2357,-144.8387"/>
</g>
<!-- Node32 -->
<g id="node32" class="node">
<title>Node32</title>
<g id="a_node32"><a xlink:href="classCDPL_1_1Shape_1_1GaussianShape.html" target="_top" xlink:title="A data type for the descripton of arbitrary shapes composed of spheres approximated by gaussian funct...">
<polygon fill="none" stroke="#000000" points="296,-19.5 296,-38.5 449,-38.5 449,-19.5 296,-19.5"/>
<text text-anchor="middle" x="372.5" y="-26.5" font-family="Helvetica,sans-Serif" font-size="10.00" fill="#000000">CDPL.Shape.GaussianShape</text>
</a>
</g>
</g>
<!-- Node1&#45;&gt;Node32 -->
<g id="edge31" class="edge">
<title>Node1&#45;&gt;Node32</title>
<path fill="none" stroke="#191970" d="M187.4639,-144.2172C206.9762,-118.8044 246.3921,-72.4735 291,-48 298.1331,-44.0865 306.0453,-40.976 314.0545,-38.5045"/>
<polygon fill="#191970" stroke="#191970" points="184.6266,-142.1668 181.4163,-152.2635 190.2223,-146.3725 184.6266,-142.1668"/>
</g>
<!-- Node2 -->
<g id="node2" class="node">
<title>Node2</title>
<g id="a_node2"><a xlink:title=" ">
<polygon fill="none" stroke="#bfbfbf" points="0,-152.5 0,-171.5 58,-171.5 58,-152.5 0,-152.5"/>
<text text-anchor="middle" x="29" y="-159.5" font-family="Helvetica,sans-Serif" font-size="10.00" fill="#000000">instance</text>
</a>
</g>
</g>
<!-- Node2&#45;&gt;Node1 -->
<g id="edge1" class="edge">
<title>Node2&#45;&gt;Node1</title>
<path fill="none" stroke="#191970" d="M68.2155,-162C76.2556,-162 84.9952,-162 93.8935,-162"/>
<polygon fill="#191970" stroke="#191970" points="68.0944,-158.5001 58.0944,-162 68.0944,-165.5001 68.0944,-158.5001"/>
</g>
<!-- Node4 -->
<g id="node4" class="node">
<title>Node4</title>
<g id="a_node4"><a xlink:href="classCDPL_1_1Chem_1_1BasicBond.html" target="_top" xlink:title="BasicBond.">
<polygon fill="none" stroke="#000000" points="518,-389.5 518,-408.5 646,-408.5 646,-389.5 518,-389.5"/>
<text text-anchor="middle" x="582" y="-396.5" font-family="Helvetica,sans-Serif" font-size="10.00" fill="#000000">CDPL.Chem.BasicBond</text>
</a>
</g>
</g>
<!-- Node3&#45;&gt;Node4 -->
<g id="edge3" class="edge">
<title>Node3&#45;&gt;Node4</title>
<path fill="none" stroke="#191970" d="M433.5003,-385.5322C459.9852,-387.9342 491.0189,-390.7487 517.8487,-393.182"/>
<polygon fill="#191970" stroke="#191970" points="433.4894,-382.017 423.2141,-384.5994 432.8571,-388.9884 433.4894,-382.017"/>
</g>
<!-- Node6 -->
<g id="node6" class="node">
<title>Node6</title>
<g id="a_node6"><a xlink:href="classCDPL_1_1Chem_1_1Atom.html" target="_top" xlink:title="Atom.">
<polygon fill="none" stroke="#000000" points="530.5,-351.5 530.5,-370.5 633.5,-370.5 633.5,-351.5 530.5,-351.5"/>
<text text-anchor="middle" x="582" y="-358.5" font-family="Helvetica,sans-Serif" font-size="10.00" fill="#000000">CDPL.Chem.Atom</text>
</a>
</g>
</g>
<!-- Node5&#45;&gt;Node6 -->
<g id="edge5" class="edge">
<title>Node5&#45;&gt;Node6</title>
<path fill="none" stroke="#191970" d="M435.1738,-334.368C465.5896,-339.885 501.6819,-346.4316 530.4707,-351.6534"/>
<polygon fill="#191970" stroke="#191970" points="435.5594,-330.8809 425.0953,-332.54 434.3101,-337.7686 435.5594,-330.8809"/>
</g>
<!-- Node8 -->
<g id="node8" class="node">
<title>Node8</title>
<g id="a_node8"><a xlink:href="classCDPL_1_1Pharm_1_1Feature.html" target="_top" xlink:title="Feature.">
<polygon fill="none" stroke="#000000" points="524,-313.5 524,-332.5 640,-332.5 640,-313.5 524,-313.5"/>
<text text-anchor="middle" x="582" y="-320.5" font-family="Helvetica,sans-Serif" font-size="10.00" fill="#000000">CDPL.Pharm.Feature</text>
</a>
</g>
</g>
<!-- Node5&#45;&gt;Node8 -->
<g id="edge7" class="edge">
<title>Node5&#45;&gt;Node8</title>
<path fill="none" stroke="#191970" d="M442.5856,-323C469.0162,-323 498.7655,-323 523.974,-323"/>
<polygon fill="#191970" stroke="#191970" points="442.254,-319.5001 432.2539,-323 442.2539,-326.5001 442.254,-319.5001"/>
</g>
<!-- Node7 -->
<g id="node7" class="node">
<title>Node7</title>
<g id="a_node7"><a xlink:href="classCDPL_1_1Chem_1_1BasicAtom.html" target="_top" xlink:title="BasicAtom.">
<polygon fill="none" stroke="#000000" points="736.5,-361.5 736.5,-380.5 865.5,-380.5 865.5,-361.5 736.5,-361.5"/>
<text text-anchor="middle" x="801" y="-368.5" font-family="Helvetica,sans-Serif" font-size="10.00" fill="#000000">CDPL.Chem.BasicAtom</text>
</a>
</g>
</g>
<!-- Node6&#45;&gt;Node7 -->
<g id="edge6" class="edge">
<title>Node6&#45;&gt;Node7</title>
<path fill="none" stroke="#191970" d="M643.6126,-363.8134C672.5615,-365.1352 707.0712,-366.711 736.389,-368.0497"/>
<polygon fill="#191970" stroke="#191970" points="643.7719,-360.3171 633.6226,-363.3572 643.4525,-367.3098 643.7719,-360.3171"/>
</g>
<!-- Node9 -->
<g id="node9" class="node">
<title>Node9</title>
<g id="a_node9"><a xlink:href="classCDPL_1_1Pharm_1_1BasicFeature.html" target="_top" xlink:title="BasicFeature.">
<polygon fill="none" stroke="#000000" points="730,-323.5 730,-342.5 872,-342.5 872,-323.5 730,-323.5"/>
<text text-anchor="middle" x="801" y="-330.5" font-family="Helvetica,sans-Serif" font-size="10.00" fill="#000000">CDPL.Pharm.BasicFeature</text>
</a>
</g>
</g>
<!-- Node8&#45;&gt;Node9 -->
<g id="edge8" class="edge">
<title>Node8&#45;&gt;Node9</title>
<path fill="none" stroke="#191970" d="M650.3313,-326.1201C675.5648,-327.2724 704.2121,-328.5805 729.7019,-329.7444"/>
<polygon fill="#191970" stroke="#191970" points="650.2623,-322.6134 640.113,-325.6536 649.9429,-329.6062 650.2623,-322.6134"/>
</g>
<!-- Node11 -->
<g id="node11" class="node">
<title>Node11</title>
<g id="a_node11"><a xlink:href="classCDPL_1_1Chem_1_1Fragment.html" target="_top" xlink:title="Fragment.">
<polygon fill="none" stroke="#000000" points="521,-266.5 521,-285.5 643,-285.5 643,-266.5 521,-266.5"/>
<text text-anchor="middle" x="582" y="-273.5" font-family="Helvetica,sans-Serif" font-size="10.00" fill="#000000">CDPL.Chem.Fragment</text>
</a>
</g>
</g>
<!-- Node10&#45;&gt;Node11 -->
<g id="edge10" class="edge">
<title>Node10&#45;&gt;Node11</title>
<path fill="none" stroke="#191970" d="M409.0258,-231.9504C432.0664,-239.8352 462.5538,-249.7509 490,-257 503.0879,-260.4568 517.36,-263.6693 530.6725,-266.4326"/>
<polygon fill="#191970" stroke="#191970" points="409.9149,-228.5547 399.3202,-228.5986 407.6299,-235.1712 409.9149,-228.5547"/>
</g>
<!-- Node18 -->
<g id="node18" class="node">
<title>Node18</title>
<g id="a_node18"><a xlink:href="classCDPL_1_1Chem_1_1Molecule.html" target="_top" xlink:title="Molecule.">
<polygon fill="none" stroke="#000000" points="522,-228.5 522,-247.5 642,-247.5 642,-228.5 522,-228.5"/>
<text text-anchor="middle" x="582" y="-235.5" font-family="Helvetica,sans-Serif" font-size="10.00" fill="#000000">CDPL.Chem.Molecule</text>
</a>
</g>
</g>
<!-- Node10&#45;&gt;Node18 -->
<g id="edge17" class="edge">
<title>Node10&#45;&gt;Node18</title>
<path fill="none" stroke="#191970" d="M459.2435,-226.8669C480.2562,-228.7726 502.2656,-230.7687 521.7514,-232.5359"/>
<polygon fill="#191970" stroke="#191970" points="459.2989,-223.3577 449.0236,-225.9401 458.6666,-230.3291 459.2989,-223.3577"/>
</g>
<!-- Node20 -->
<g id="node20" class="node">
<title>Node20</title>
<g id="a_node20"><a xlink:href="classCDPL_1_1ConfGen_1_1CanonicalFragment.html" target="_top" xlink:title="CanonicalFragment.">
<polygon fill="none" stroke="#000000" points="490,-190.5 490,-209.5 674,-209.5 674,-190.5 490,-190.5"/>
<text text-anchor="middle" x="582" y="-197.5" font-family="Helvetica,sans-Serif" font-size="10.00" fill="#000000">CDPL.ConfGen.CanonicalFragment</text>
</a>
</g>
</g>
<!-- Node10&#45;&gt;Node20 -->
<g id="edge19" class="edge">
<title>Node10&#45;&gt;Node20</title>
<path fill="none" stroke="#191970" d="M459.0366,-211.1518C469.142,-210.2353 479.4806,-209.2977 489.6607,-208.3745"/>
<polygon fill="#191970" stroke="#191970" points="458.6666,-207.6709 449.0236,-212.0599 459.2989,-214.6423 458.6666,-207.6709"/>
</g>
<!-- Node12 -->
<g id="node12" class="node">
<title>Node12</title>
<g id="a_node12"><a xlink:href="classCDPL_1_1Biomol_1_1HierarchyViewNode.html" target="_top" xlink:title="HierarchyViewNode.">
<polygon fill="none" stroke="#000000" points="711.5,-285.5 711.5,-304.5 890.5,-304.5 890.5,-285.5 711.5,-285.5"/>
<text text-anchor="middle" x="801" y="-292.5" font-family="Helvetica,sans-Serif" font-size="10.00" fill="#000000">CDPL.Biomol.HierarchyViewNode</text>
</a>
</g>
</g>
<!-- Node11&#45;&gt;Node12 -->
<g id="edge11" class="edge">
<title>Node11&#45;&gt;Node12</title>
<path fill="none" stroke="#191970" d="M653.1164,-282.1699C671.6596,-283.7787 691.884,-285.5333 711.2554,-287.2139"/>
<polygon fill="#191970" stroke="#191970" points="653.2688,-278.6701 643.0037,-281.2926 652.6637,-285.6439 653.2688,-278.6701"/>
</g>
<!-- Node16 -->
<g id="node16" class="node">
<title>Node16</title>
<g id="a_node16"><a xlink:href="classCDPL_1_1Chem_1_1AromaticSubstructure.html" target="_top" xlink:title="Implements the perception of aromatic atoms and bonds in a molecular graph.">
<polygon fill="none" stroke="#000000" points="710,-247.5 710,-266.5 892,-266.5 892,-247.5 710,-247.5"/>
<text text-anchor="middle" x="801" y="-254.5" font-family="Helvetica,sans-Serif" font-size="10.00" fill="#000000">CDPL.Chem.AromaticSubstructure</text>
</a>
</g>
</g>
<!-- Node11&#45;&gt;Node16 -->
<g id="edge15" class="edge">
<title>Node11&#45;&gt;Node16</title>
<path fill="none" stroke="#191970" d="M653.121,-269.8297C671.1365,-268.2667 690.7388,-266.566 709.6037,-264.9294"/>
<polygon fill="#191970" stroke="#191970" points="652.6637,-266.3561 643.0037,-270.7074 653.2688,-273.3299 652.6637,-266.3561"/>
</g>
<!-- Node17 -->
<g id="node17" class="node">
<title>Node17</title>
<g id="a_node17"><a xlink:href="classCDPL_1_1Chem_1_1CyclicSubstructure.html" target="_top" xlink:title="Implements the perception of ring atoms and bonds in a molecular graph.">
<polygon fill="none" stroke="#000000" points="717.5,-209.5 717.5,-228.5 884.5,-228.5 884.5,-209.5 717.5,-209.5"/>
<text text-anchor="middle" x="801" y="-216.5" font-family="Helvetica,sans-Serif" font-size="10.00" fill="#000000">CDPL.Chem.CyclicSubstructure</text>
</a>
</g>
</g>
<!-- Node11&#45;&gt;Node17 -->
<g id="edge16" class="edge">
<title>Node11&#45;&gt;Node17</title>
<path fill="none" stroke="#191970" d="M650.3983,-264.1247C658.4477,-262.0678 666.47,-259.703 674,-257 691.0278,-250.8876 692.9788,-244.1309 710,-238 720.4772,-234.2262 731.9174,-231.1064 743.0404,-228.5622"/>
<polygon fill="#191970" stroke="#191970" points="649.5012,-260.7405 640.5976,-266.483 651.1389,-267.5463 649.5012,-260.7405"/>
</g>
<!-- Node13 -->
<g id="node13" class="node">
<title>Node13</title>
<g id="a_node13"><a xlink:href="classCDPL_1_1Biomol_1_1HierarchyViewChain.html" target="_top" xlink:title="HierarchyViewChain.">
<polygon fill="none" stroke="#000000" points="928,-329 928,-359 1082,-359 1082,-329 928,-329"/>
<text text-anchor="start" x="936" y="-347" font-family="Helvetica,sans-Serif" font-size="10.00" fill="#000000">CDPL.Biomol.HierarchyView</text>
<text text-anchor="middle" x="1005" y="-336" font-family="Helvetica,sans-Serif" font-size="10.00" fill="#000000">Chain</text>
</a>
</g>
</g>
<!-- Node12&#45;&gt;Node13 -->
<g id="edge12" class="edge">
<title>Node12&#45;&gt;Node13</title>
<path fill="none" stroke="#191970" d="M859.1753,-306.6611C870.1045,-308.9892 881.4191,-311.4928 892,-314 911.257,-318.5631 932.2366,-324.002 950.8335,-328.9877"/>
<polygon fill="#191970" stroke="#191970" points="859.7853,-303.2128 849.2787,-304.5772 858.3429,-310.0626 859.7853,-303.2128"/>
</g>
<!-- Node14 -->
<g id="node14" class="node">
<title>Node14</title>
<g id="a_node14"><a xlink:href="classCDPL_1_1Biomol_1_1HierarchyViewFragment.html" target="_top" xlink:title="HierarchyViewFragment.">
<polygon fill="none" stroke="#000000" points="928,-280 928,-310 1082,-310 1082,-280 928,-280"/>
<text text-anchor="start" x="936" y="-298" font-family="Helvetica,sans-Serif" font-size="10.00" fill="#000000">CDPL.Biomol.HierarchyView</text>
<text text-anchor="middle" x="1005" y="-287" font-family="Helvetica,sans-Serif" font-size="10.00" fill="#000000">Fragment</text>
</a>
</g>
</g>
<!-- Node12&#45;&gt;Node14 -->
<g id="edge13" class="edge">
<title>Node12&#45;&gt;Node14</title>
<path fill="none" stroke="#191970" d="M900.9856,-295C910.0515,-295 919.1387,-295 927.9604,-295"/>
<polygon fill="#191970" stroke="#191970" points="900.7743,-291.5001 890.7742,-295 900.7742,-298.5001 900.7743,-291.5001"/>
</g>
<!-- Node15 -->
<g id="node15" class="node">
<title>Node15</title>
<g id="a_node15"><a xlink:href="classCDPL_1_1Biomol_1_1HierarchyViewModel.html" target="_top" xlink:title="HierarchyViewModel.">
<polygon fill="none" stroke="#000000" points="928,-231 928,-261 1082,-261 1082,-231 928,-231"/>
<text text-anchor="start" x="936" y="-249" font-family="Helvetica,sans-Serif" font-size="10.00" fill="#000000">CDPL.Biomol.HierarchyView</text>
<text text-anchor="middle" x="1005" y="-238" font-family="Helvetica,sans-Serif" font-size="10.00" fill="#000000">Model</text>
</a>
</g>
</g>
<!-- Node12&#45;&gt;Node15 -->
<g id="edge14" class="edge">
<title>Node12&#45;&gt;Node15</title>
<path fill="none" stroke="#191970" d="M859.1753,-283.3389C870.1045,-281.0108 881.4191,-278.5072 892,-276 911.257,-271.4369 932.2366,-265.998 950.8335,-261.0123"/>
<polygon fill="#191970" stroke="#191970" points="858.3429,-279.9374 849.2787,-285.4228 859.7853,-286.7872 858.3429,-279.9374"/>
</g>
<!-- Node19 -->
<g id="node19" class="node">
<title>Node19</title>
<g id="a_node19"><a xlink:href="classCDPL_1_1Chem_1_1BasicMolecule.html" target="_top" xlink:title="BasicMolecule.">
<polygon fill="none" stroke="#000000" points="728,-171.5 728,-190.5 874,-190.5 874,-171.5 728,-171.5"/>
<text text-anchor="middle" x="801" y="-178.5" font-family="Helvetica,sans-Serif" font-size="10.00" fill="#000000">CDPL.Chem.BasicMolecule</text>
</a>
</g>
</g>
<!-- Node18&#45;&gt;Node19 -->
<g id="edge18" class="edge">
<title>Node18&#45;&gt;Node19</title>
<path fill="none" stroke="#191970" d="M650.3983,-226.1247C658.4477,-224.0678 666.47,-221.703 674,-219 691.0278,-212.8876 692.9788,-206.1309 710,-200 720.4772,-196.2262 731.9174,-193.1064 743.0404,-190.5622"/>
<polygon fill="#191970" stroke="#191970" points="649.5012,-222.7405 640.5976,-228.483 651.1389,-229.5463 649.5012,-222.7405"/>
</g>
<!-- Node22 -->
<g id="node22" class="node">
<title>Node22</title>
<g id="a_node22"><a xlink:href="classCDPL_1_1Chem_1_1BasicReaction.html" target="_top" xlink:title="BasicReaction.">
<polygon fill="none" stroke="#000000" points="509.5,-152.5 509.5,-171.5 654.5,-171.5 654.5,-152.5 509.5,-152.5"/>
<text text-anchor="middle" x="582" y="-159.5" font-family="Helvetica,sans-Serif" font-size="10.00" fill="#000000">CDPL.Chem.BasicReaction</text>
</a>
</g>
</g>
<!-- Node21&#45;&gt;Node22 -->
<g id="edge21" class="edge">
<title>Node21&#45;&gt;Node22</title>
<path fill="none" stroke="#191970" d="M442.2762,-162C463.757,-162 487.4545,-162 509.1371,-162"/>
<polygon fill="#191970" stroke="#191970" points="442.254,-158.5001 432.2539,-162 442.2539,-165.5001 442.254,-158.5001"/>
</g>
<!-- Node24 -->
<g id="node24" class="node">
<title>Node24</title>
<g id="a_node24"><a xlink:href="classCDPL_1_1Grid_1_1DSpatialGrid.html" target="_top" xlink:title="SpatialGrid.">
<polygon fill="none" stroke="#000000" points="517,-114.5 517,-133.5 647,-133.5 647,-114.5 517,-114.5"/>
<text text-anchor="middle" x="582" y="-121.5" font-family="Helvetica,sans-Serif" font-size="10.00" fill="#000000">CDPL.Grid.DSpatialGrid</text>
</a>
</g>
</g>
<!-- Node23&#45;&gt;Node24 -->
<g id="edge23" class="edge">
<title>Node23&#45;&gt;Node24</title>
<path fill="none" stroke="#191970" d="M451.2336,-124C472.8498,-124 496.044,-124 516.8076,-124"/>
<polygon fill="#191970" stroke="#191970" points="451.0982,-120.5001 441.0981,-124 451.0981,-127.5001 451.0982,-120.5001"/>
</g>
<!-- Node26 -->
<g id="node26" class="node">
<title>Node26</title>
<g id="a_node26"><a xlink:href="classCDPL_1_1Grid_1_1FSpatialGrid.html" target="_top" xlink:title="SpatialGrid.">
<polygon fill="none" stroke="#000000" points="518,-76.5 518,-95.5 646,-95.5 646,-76.5 518,-76.5"/>
<text text-anchor="middle" x="582" y="-83.5" font-family="Helvetica,sans-Serif" font-size="10.00" fill="#000000">CDPL.Grid.FSpatialGrid</text>
</a>
</g>
</g>
<!-- Node23&#45;&gt;Node26 -->
<g id="edge25" class="edge">
<title>Node23&#45;&gt;Node26</title>
<path fill="none" stroke="#191970" d="M435.0575,-112.653C465.116,-107.2009 500.7397,-100.7393 529.3831,-95.5439"/>
<polygon fill="#191970" stroke="#191970" points="434.3101,-109.2314 425.0953,-114.46 435.5594,-116.1191 434.3101,-109.2314"/>
</g>
<!-- Node25 -->
<g id="node25" class="node">
<title>Node25</title>
<g id="a_node25"><a xlink:href="classCDPL_1_1Grid_1_1DRegularGrid.html" target="_top" xlink:title="RegularGrid.">
<polygon fill="none" stroke="#000000" points="734.5,-114.5 734.5,-133.5 867.5,-133.5 867.5,-114.5 734.5,-114.5"/>
<text text-anchor="middle" x="801" y="-121.5" font-family="Helvetica,sans-Serif" font-size="10.00" fill="#000000">CDPL.Grid.DRegularGrid</text>
</a>
</g>
</g>
<!-- Node24&#45;&gt;Node25 -->
<g id="edge24" class="edge">
<title>Node24&#45;&gt;Node25</title>
<path fill="none" stroke="#191970" d="M657.2815,-124C682.282,-124 709.9282,-124 734.2402,-124"/>
<polygon fill="#191970" stroke="#191970" points="657.1143,-120.5001 647.1143,-124 657.1142,-127.5001 657.1143,-120.5001"/>
</g>
<!-- Node27 -->
<g id="node27" class="node">
<title>Node27</title>
<g id="a_node27"><a xlink:href="classCDPL_1_1Grid_1_1FRegularGrid.html" target="_top" xlink:title="RegularGrid.">
<polygon fill="none" stroke="#000000" points="735.5,-76.5 735.5,-95.5 866.5,-95.5 866.5,-76.5 735.5,-76.5"/>
<text text-anchor="middle" x="801" y="-83.5" font-family="Helvetica,sans-Serif" font-size="10.00" fill="#000000">CDPL.Grid.FRegularGrid</text>
</a>
</g>
</g>
<!-- Node26&#45;&gt;Node27 -->
<g id="edge26" class="edge">
<title>Node26&#45;&gt;Node27</title>
<path fill="none" stroke="#191970" d="M656.2605,-86C681.875,-86 710.369,-86 735.2545,-86"/>
<polygon fill="#191970" stroke="#191970" points="656.2275,-82.5001 646.2275,-86 656.2274,-89.5001 656.2275,-82.5001"/>
</g>
<!-- Node29 -->
<g id="node29" class="node">
<title>Node29</title>
<g id="a_node29"><a xlink:href="classCDPL_1_1Pharm_1_1FeatureSet.html" target="_top" xlink:title="FeatureSet.">
<polygon fill="none" stroke="#000000" points="516.5,-38.5 516.5,-57.5 647.5,-57.5 647.5,-38.5 516.5,-38.5"/>
<text text-anchor="middle" x="582" y="-45.5" font-family="Helvetica,sans-Serif" font-size="10.00" fill="#000000">CDPL.Pharm.FeatureSet</text>
</a>
</g>
</g>
<!-- Node28&#45;&gt;Node29 -->
<g id="edge28" class="edge">
<title>Node28&#45;&gt;Node29</title>
<path fill="none" stroke="#191970" d="M464.3638,-58.6687C481.9213,-57.0763 499.9692,-55.4395 516.494,-53.9409"/>
<polygon fill="#191970" stroke="#191970" points="463.741,-55.2107 454.0981,-59.5997 464.3733,-62.1821 463.741,-55.2107"/>
</g>
<!-- Node30 -->
<g id="node30" class="node">
<title>Node30</title>
<g id="a_node30"><a xlink:href="classCDPL_1_1Pharm_1_1Pharmacophore.html" target="_top" xlink:title="Pharmacophore.">
<polygon fill="none" stroke="#000000" points="504,-.5 504,-19.5 660,-19.5 660,-.5 504,-.5"/>
<text text-anchor="middle" x="582" y="-7.5" font-family="Helvetica,sans-Serif" font-size="10.00" fill="#000000">CDPL.Pharm.Pharmacophore</text>
</a>
</g>
</g>
<!-- Node28&#45;&gt;Node30 -->
<g id="edge29" class="edge">
<title>Node28&#45;&gt;Node30</title>
<path fill="none" stroke="#191970" d="M432.5856,-54.8497C439.884,-52.8311 447.169,-50.5504 454,-48 470.9489,-41.672 472.9722,-35.1124 490,-29 500.5917,-25.1979 512.1573,-22.0651 523.4024,-19.517"/>
<polygon fill="#191970" stroke="#191970" points="431.457,-51.527 422.6662,-57.4408 433.2262,-58.2998 431.457,-51.527"/>
</g>
<!-- Node31 -->
<g id="node31" class="node">
<title>Node31</title>
<g id="a_node31"><a xlink:href="classCDPL_1_1Pharm_1_1BasicPharmacophore.html" target="_top" xlink:title="BasicPharmacophore.">
<polygon fill="none" stroke="#000000" points="710,-.5 710,-19.5 892,-19.5 892,-.5 710,-.5"/>
<text text-anchor="middle" x="801" y="-7.5" font-family="Helvetica,sans-Serif" font-size="10.00" fill="#000000">CDPL.Pharm.BasicPharmacophore</text>
</a>
</g>
</g>
<!-- Node30&#45;&gt;Node31 -->
<g id="edge30" class="edge">
<title>Node30&#45;&gt;Node31</title>
<path fill="none" stroke="#191970" d="M670.4368,-10C683.4082,-10 696.7893,-10 709.8147,-10"/>
<polygon fill="#191970" stroke="#191970" points="670.1366,-6.5001 660.1365,-10 670.1365,-13.5001 670.1366,-6.5001"/>
</g>
</g>
</svg>
        <g id="navigator" transform="translate(0 0)" fill="#404254">
                <rect fill="#f2f5e9" fill-opacity="0.5" stroke="#606060" stroke-width=".5" x="0" y="0" width="60" height="60"/>
                <use id="zoomplus" xlink:href="#zoomPlus" x="17" y="9" onmousedown="handleZoom(evt,'in')"/>
                <use id="zoomminus" xlink:href="#zoomMin" x="42" y="9" onmousedown="handleZoom(evt,'out')"/>
                <use id="reset" xlink:href="#resetDef" x="30" y="36" onmousedown="handleReset()"/>
                <g id="arrowUp" xlink:href="#dirArrow" transform="translate(30 24)" onmousedown="handlePan(0,-1)">
                  <use xlink:href="#rim" fill="#404040">
                        <set attributeName="fill" to="#808080" begin="arrowUp.mouseover" end="arrowUp.mouseout"/>
                  </use>
                  <path fill="none" stroke="white" stroke-width="1.5" d="M0,-3.0v7 M-2.5,-0.5L0,-3.0L2.5,-0.5"/>
                </g>
                <g id="arrowRight" xlink:href="#dirArrow" transform="rotate(90) translate(36 -43)" onmousedown="handlePan(1,0)">
                  <use xlink:href="#rim" fill="#404040">
                        <set attributeName="fill" to="#808080" begin="arrowRight.mouseover" end="arrowRight.mouseout"/>
                  </use>
                  <path fill="none" stroke="white" stroke-width="1.5" d="M0,-3.0v7 M-2.5,-0.5L0,-3.0L2.5,-0.5"/>
                </g>
                <g id="arrowDown" xlink:href="#dirArrow" transform="rotate(180) translate(-30 -48)" onmousedown="handlePan(0,1)">
                  <use xlink:href="#rim" fill="#404040">
                        <set attributeName="fill" to="#808080" begin="arrowDown.mouseover" end="arrowDown.mouseout"/>
                  </use>
                  <path fill="none" stroke="white" stroke-width="1.5" d="M0,-3.0v7 M-2.5,-0.5L0,-3.0L2.5,-0.5"/>
                </g>
                <g id="arrowLeft" xlink:href="#dirArrow" transform="rotate(270) translate(-36 17)" onmousedown="handlePan(-1,0)">
                  <use xlink:href="#rim" fill="#404040">
                        <set attributeName="fill" to="#808080" begin="arrowLeft.mouseover" end="arrowLeft.mouseout"/>
                  </use>
                  <path fill="none" stroke="white" stroke-width="1.5" d="M0,-3.0v7 M-2.5,-0.5L0,-3.0L2.5,-0.5"/>
                </g>
        </g>
        <svg viewBox="0 0 15 15" width="100%" height="30px" preserveAspectRatio="xMaxYMin meet">
         <g id="arrow_out" transform="scale(0.3 0.3)">
          <a xlink:href="classCDPL_1_1Base_1_1PropertyContainer__inherit__graph_org.svg" target="_base">
           <rect id="button" ry="5" rx="5" y="6" x="6" height="38" width="38"
                fill="#f2f5e9" fill-opacity="0.5" stroke="#606060" stroke-width="1.0"/>
           <path id="arrow"
             d="M 11.500037,31.436501 C 11.940474,20.09759 22.043105,11.32322 32.158766,21.979434 L 37.068811,17.246167 C 37.068811,17.246167 37.088388,32 37.088388,32 L 22.160133,31.978069 C 22.160133,31.978069 26.997745,27.140456 26.997745,27.140456 C 18.528582,18.264221 13.291696,25.230495 11.500037,31.436501 z"
             style="fill:#404040;"/>
          </a>
         </g>
        </svg>
</svg>
