<?xml version="1.0" encoding="UTF-8" standalone="no"?>
<!DOCTYPE svg PUBLIC "-//W3C//DTD SVG 1.1//EN"
 "http://www.w3.org/Graphics/SVG/1.1/DTD/svg11.dtd">
<!-- Generated by graphviz version 2.40.1 (0)
 -->
<!-- Title: CDPL.Grid.DRegularGridSetInputHandler Pages: 1 -->
<svg width="454pt" height="137pt"
 viewBox="0.00 0.00 454.00 137.00" xmlns="http://www.w3.org/2000/svg" xmlns:xlink="http://www.w3.org/1999/xlink">
<g id="graph0" class="graph" transform="scale(1 1) rotate(0) translate(4 133)">
<title>CDPL.Grid.DRegularGridSetInputHandler</title>
<!-- Node1 -->
<g id="node1" class="node">
<title>Node1</title>
<g id="a_node1"><a xlink:title="A factory interface providing methods for the creation of Grid.DRegularGridSetReaderBase instances fo...">
<polygon fill="#bfbfbf" stroke="#000000" points="94,-49.5 94,-79.5 243,-79.5 243,-49.5 94,-49.5"/>
<text text-anchor="start" x="102" y="-67.5" font-family="Helvetica,sans-Serif" font-size="10.00" fill="#000000">CDPL.Grid.DRegularGridSet</text>
<text text-anchor="middle" x="168.5" y="-56.5" font-family="Helvetica,sans-Serif" font-size="10.00" fill="#000000">InputHandler</text>
</a>
</g>
</g>
<!-- Node3 -->
<g id="node3" class="node">
<title>Node3</title>
<g id="a_node3"><a xlink:href="classCDPL_1_1Grid_1_1CDFBZ2DRegularGridSetInputHandler.html" target="_top" xlink:title="A handler for the input of bzip2&#45;compressed spatial regular grid set data in the native I/O format of...">
<polygon fill="none" stroke="#000000" points="286.5,-98.5 286.5,-128.5 438.5,-128.5 438.5,-98.5 286.5,-98.5"/>
<text text-anchor="start" x="294.5" y="-116.5" font-family="Helvetica,sans-Serif" font-size="10.00" fill="#000000">CDPL.Grid.CDFBZ2DRegular</text>
<text text-anchor="middle" x="362.5" y="-105.5" font-family="Helvetica,sans-Serif" font-size="10.00" fill="#000000">GridSetInputHandler</text>
</a>
</g>
</g>
<!-- Node1&#45;&gt;Node3 -->
<g id="edge2" class="edge">
<title>Node1&#45;&gt;Node3</title>
<path fill="none" stroke="#191970" d="M237.9829,-82.0498C259.2865,-87.4306 282.5207,-93.299 303.0878,-98.4938"/>
<polygon fill="#191970" stroke="#191970" points="238.5775,-78.5901 228.0248,-79.5346 236.8632,-85.377 238.5775,-78.5901"/>
</g>
<!-- Node4 -->
<g id="node4" class="node">
<title>Node4</title>
<g id="a_node4"><a xlink:href="classCDPL_1_1Grid_1_1CDFDRegularGridSetInputHandler.html" target="_top" xlink:title="A handler for the input of spatial regular grid set data in the native I/O format of the CDPL.">
<polygon fill="none" stroke="#000000" points="286.5,-49.5 286.5,-79.5 438.5,-79.5 438.5,-49.5 286.5,-49.5"/>
<text text-anchor="start" x="294.5" y="-67.5" font-family="Helvetica,sans-Serif" font-size="10.00" fill="#000000">CDPL.Grid.CDFDRegularGrid</text>
<text text-anchor="middle" x="362.5" y="-56.5" font-family="Helvetica,sans-Serif" font-size="10.00" fill="#000000">SetInputHandler</text>
</a>
</g>
</g>
<!-- Node1&#45;&gt;Node4 -->
<g id="edge3" class="edge">
<title>Node1&#45;&gt;Node4</title>
<path fill="none" stroke="#191970" d="M253.5634,-64.5C264.4271,-64.5 275.4937,-64.5 286.2068,-64.5"/>
<polygon fill="#191970" stroke="#191970" points="253.228,-61.0001 243.228,-64.5 253.2279,-68.0001 253.228,-61.0001"/>
</g>
<!-- Node5 -->
<g id="node5" class="node">
<title>Node5</title>
<g id="a_node5"><a xlink:href="classCDPL_1_1Grid_1_1CDFGZDRegularGridSetInputHandler.html" target="_top" xlink:title="A handler for the input of gzip&#45;compressed spatial regular grid set data in the native I/O format of ...">
<polygon fill="none" stroke="#000000" points="279,-.5 279,-30.5 446,-30.5 446,-.5 279,-.5"/>
<text text-anchor="start" x="287" y="-18.5" font-family="Helvetica,sans-Serif" font-size="10.00" fill="#000000">CDPL.Grid.CDFGZDRegularGrid</text>
<text text-anchor="middle" x="362.5" y="-7.5" font-family="Helvetica,sans-Serif" font-size="10.00" fill="#000000">SetInputHandler</text>
</a>
</g>
</g>
<!-- Node1&#45;&gt;Node5 -->
<g id="edge4" class="edge">
<title>Node1&#45;&gt;Node5</title>
<path fill="none" stroke="#191970" d="M237.9829,-46.9502C259.2865,-41.5694 282.5207,-35.701 303.0878,-30.5062"/>
<polygon fill="#191970" stroke="#191970" points="236.8632,-43.623 228.0248,-49.4654 238.5775,-50.4099 236.8632,-43.623"/>
</g>
<!-- Node2 -->
<g id="node2" class="node">
<title>Node2</title>
<g id="a_node2"><a xlink:title=" ">
<polygon fill="none" stroke="#bfbfbf" points="0,-55 0,-74 58,-74 58,-55 0,-55"/>
<text text-anchor="middle" x="29" y="-62" font-family="Helvetica,sans-Serif" font-size="10.00" fill="#000000">instance</text>
</a>
</g>
</g>
<!-- Node2&#45;&gt;Node1 -->
<g id="edge1" class="edge">
<title>Node2&#45;&gt;Node1</title>
<path fill="none" stroke="#191970" d="M68.3627,-64.5C76.3884,-64.5 85.0812,-64.5 93.878,-64.5"/>
<polygon fill="#191970" stroke="#191970" points="68.2438,-61.0001 58.2438,-64.5 68.2437,-68.0001 68.2438,-61.0001"/>
</g>
</g>
</svg>
