<?xml version="1.0" encoding="UTF-8" standalone="no"?>
<!DOCTYPE svg PUBLIC "-//W3C//DTD SVG 1.1//EN"
 "http://www.w3.org/Graphics/SVG/1.1/DTD/svg11.dtd">
<!-- Generated by graphviz version 2.40.1 (0)
 -->
<!-- Title: CDPL.Vis.FontMetrics Pages: 1 -->
<svg width="338pt" height="151pt"
 viewBox="0.00 0.00 337.50 151.00" xmlns="http://www.w3.org/2000/svg" xmlns:xlink="http://www.w3.org/1999/xlink">
<g id="graph0" class="graph" transform="scale(1 1) rotate(0) translate(4 147)">
<title>CDPL.Vis.FontMetrics</title>
<!-- Node1 -->
<g id="node1" class="node">
<title>Node1</title>
<g id="a_node1"><a xlink:title="An interface class with methods that provide information about the metrics of a font.">
<polygon fill="#bfbfbf" stroke="#000000" points="107,-67.5 107,-86.5 226,-86.5 226,-67.5 107,-67.5"/>
<text text-anchor="middle" x="166.5" y="-74.5" font-family="Helvetica,sans-Serif" font-size="10.00" fill="#000000">CDPL.Vis.FontMetrics</text>
</a>
</g>
</g>
<!-- Node3 -->
<g id="node3" class="node">
<title>Node3</title>
<g id="a_node3"><a xlink:href="classCDPL_1_1Vis_1_1CairoBackend_1_1CairoFontMetrics.html" target="_top" xlink:title="Implements the FontMetrics interface for the Cairo rendering backend.">
<polygon fill="none" stroke="#000000" points="0,-.5 0,-30.5 159,-30.5 159,-.5 0,-.5"/>
<text text-anchor="start" x="8" y="-18.5" font-family="Helvetica,sans-Serif" font-size="10.00" fill="#000000">CDPL.Vis.CairoBackend.Cairo</text>
<text text-anchor="middle" x="79.5" y="-7.5" font-family="Helvetica,sans-Serif" font-size="10.00" fill="#000000">FontMetrics</text>
</a>
</g>
</g>
<!-- Node1&#45;&gt;Node3 -->
<g id="edge2" class="edge">
<title>Node1&#45;&gt;Node3</title>
<path fill="none" stroke="#191970" d="M144.6918,-61.5839C131.259,-52.0882 114.1171,-39.9707 100.7826,-30.5446"/>
<polygon fill="#191970" stroke="#191970" points="142.7201,-64.4763 152.9063,-67.3906 146.7608,-58.7602 142.7201,-64.4763"/>
</g>
<!-- Node4 -->
<g id="node4" class="node">
<title>Node4</title>
<g id="a_node4"><a xlink:href="classCDPL_1_1Vis_1_1QtBackend_1_1QtFontMetrics.html" target="_top" xlink:title="Implements the FontMetrics interface for the Qt rendering backend.">
<polygon fill="none" stroke="#000000" points="177.5,-.5 177.5,-30.5 329.5,-30.5 329.5,-.5 177.5,-.5"/>
<text text-anchor="start" x="185.5" y="-18.5" font-family="Helvetica,sans-Serif" font-size="10.00" fill="#000000">CDPL.Vis.QtBackend.QtFont</text>
<text text-anchor="middle" x="253.5" y="-7.5" font-family="Helvetica,sans-Serif" font-size="10.00" fill="#000000">Metrics</text>
</a>
</g>
</g>
<!-- Node1&#45;&gt;Node4 -->
<g id="edge3" class="edge">
<title>Node1&#45;&gt;Node4</title>
<path fill="none" stroke="#191970" d="M188.3082,-61.5839C201.741,-52.0882 218.8829,-39.9707 232.2174,-30.5446"/>
<polygon fill="#191970" stroke="#191970" points="186.2392,-58.7602 180.0938,-67.3906 190.2799,-64.4763 186.2392,-58.7602"/>
</g>
<!-- Node2 -->
<g id="node2" class="node">
<title>Node2</title>
<g id="a_node2"><a xlink:title=" ">
<polygon fill="none" stroke="#bfbfbf" points="137.5,-123.5 137.5,-142.5 195.5,-142.5 195.5,-123.5 137.5,-123.5"/>
<text text-anchor="middle" x="166.5" y="-130.5" font-family="Helvetica,sans-Serif" font-size="10.00" fill="#000000">instance</text>
</a>
</g>
</g>
<!-- Node2&#45;&gt;Node1 -->
<g id="edge1" class="edge">
<title>Node2&#45;&gt;Node1</title>
<path fill="none" stroke="#191970" d="M166.5,-113.1575C166.5,-104.155 166.5,-93.9199 166.5,-86.6427"/>
<polygon fill="#191970" stroke="#191970" points="163.0001,-113.2455 166.5,-123.2455 170.0001,-113.2456 163.0001,-113.2455"/>
</g>
</g>
</svg>
