<?xml version="1.0" encoding="UTF-8" standalone="no"?>
<!DOCTYPE svg PUBLIC "-//W3C//DTD SVG 1.1//EN"
 "http://www.w3.org/Graphics/SVG/1.1/DTD/svg11.dtd">
<!-- Generated by graphviz version 2.44.0 (0)
 -->
<!-- Title: CDPL::Math::Vector&lt; T, A &gt; Pages: 1 -->
<svg width="304pt" height="455pt"
 viewBox="0.00 0.00 303.50 455.00" xmlns="http://www.w3.org/2000/svg" xmlns:xlink="http://www.w3.org/1999/xlink">
<g id="graph0" class="graph" transform="scale(1 1) rotate(0) translate(4 451)">
<title>CDPL::Math::Vector&lt; T, A &gt;</title>
<!-- Node1 -->
<g id="node1" class="node">
<title>Node1</title>
<g id="a_node1"><a xlink:title=" ">
<polygon fill="#bfbfbf" stroke="black" points="52,-78.5 52,-108.5 156,-108.5 156,-78.5 52,-78.5"/>
<text text-anchor="start" x="60" y="-96.5" font-family="Helvetica" font-size="10.00">CDPL::Math::Vector</text>
<text text-anchor="middle" x="104" y="-85.5" font-family="Helvetica" font-size="10.00">&lt; T, A &gt;</text>
</a>
</g>
</g>
<!-- Node7 -->
<g id="node7" class="node">
<title>Node7</title>
<g id="a_node7"><a xlink:href="classCDPL_1_1Math_1_1Vector.html" target="_top" xlink:title=" ">
<polygon fill="none" stroke="black" points="52,-0.5 52,-30.5 156,-30.5 156,-0.5 52,-0.5"/>
<text text-anchor="start" x="60" y="-18.5" font-family="Helvetica" font-size="10.00">CDPL::Math::Vector</text>
<text text-anchor="middle" x="104" y="-7.5" font-family="Helvetica" font-size="10.00">&lt; double &gt;</text>
</a>
</g>
</g>
<!-- Node1&#45;&gt;Node7 -->
<g id="edge8" class="edge">
<title>Node1&#45;&gt;Node7</title>
<path fill="none" stroke="orange" stroke-dasharray="5,2" d="M104,-68.09C104,-55.76 104,-41.22 104,-30.73"/>
<polygon fill="orange" stroke="orange" points="100.5,-68.2 104,-78.2 107.5,-68.21 100.5,-68.2"/>
<text text-anchor="middle" x="129" y="-52" font-family="Helvetica" font-size="10.00"> &lt; double &gt;</text>
</g>
<!-- Node2 -->
<g id="node2" class="node">
<title>Node2</title>
<g id="a_node2"><a xlink:href="classCDPL_1_1Math_1_1VectorContainer.html" target="_top" xlink:title=" ">
<polygon fill="none" stroke="black" points="31,-146.5 31,-187.5 177,-187.5 177,-146.5 31,-146.5"/>
<text text-anchor="start" x="39" y="-175.5" font-family="Helvetica" font-size="10.00">CDPL::Math::VectorContainer</text>
<text text-anchor="start" x="39" y="-164.5" font-family="Helvetica" font-size="10.00">&lt; Vector&lt; T, std::vector</text>
<text text-anchor="middle" x="104" y="-153.5" font-family="Helvetica" font-size="10.00">&lt; T &gt; &gt; &gt;</text>
</a>
</g>
</g>
<!-- Node2&#45;&gt;Node1 -->
<g id="edge1" class="edge">
<title>Node2&#45;&gt;Node1</title>
<path fill="none" stroke="midnightblue" d="M104,-136.16C104,-126.69 104,-116.65 104,-108.8"/>
<polygon fill="midnightblue" stroke="midnightblue" points="100.5,-136.46 104,-146.46 107.5,-136.46 100.5,-136.46"/>
</g>
<!-- Node3 -->
<g id="node3" class="node">
<title>Node3</title>
<g id="a_node3"><a xlink:href="classCDPL_1_1Math_1_1VectorExpression.html" target="_top" xlink:title=" ">
<polygon fill="none" stroke="black" points="0,-370.5 0,-389.5 178,-389.5 178,-370.5 0,-370.5"/>
<text text-anchor="middle" x="89" y="-377.5" font-family="Helvetica" font-size="10.00">CDPL::Math::VectorExpression&lt; E &gt;</text>
</a>
</g>
</g>
<!-- Node3&#45;&gt;Node2 -->
<g id="edge2" class="edge">
<title>Node3&#45;&gt;Node2</title>
<path fill="none" stroke="midnightblue" d="M90.32,-360.37C93.14,-320.73 99.71,-228.33 102.6,-187.73"/>
<polygon fill="midnightblue" stroke="midnightblue" points="86.82,-360.24 89.61,-370.47 93.81,-360.74 86.82,-360.24"/>
</g>
<!-- Node6 -->
<g id="node6" class="node">
<title>Node6</title>
<g id="a_node6"><a xlink:href="classCDPL_1_1Math_1_1VectorExpression.html" target="_top" xlink:title=" ">
<polygon fill="none" stroke="black" points="116.5,-303.5 116.5,-322.5 295.5,-322.5 295.5,-303.5 116.5,-303.5"/>
<text text-anchor="middle" x="206" y="-310.5" font-family="Helvetica" font-size="10.00">CDPL::Math::VectorExpression&lt; C &gt;</text>
</a>
</g>
</g>
<!-- Node3&#45;&gt;Node6 -->
<g id="edge7" class="edge">
<title>Node3&#45;&gt;Node6</title>
<path fill="none" stroke="orange" stroke-dasharray="5,2" d="M113.68,-365.29C136.87,-352.4 170.86,-333.52 190.47,-322.63"/>
<polygon fill="orange" stroke="orange" points="111.82,-362.32 104.78,-370.23 115.22,-368.44 111.82,-362.32"/>
<text text-anchor="middle" x="168.5" y="-344" font-family="Helvetica" font-size="10.00"> &lt; C &gt;</text>
</g>
<!-- Node4 -->
<g id="node4" class="node">
<title>Node4</title>
<g id="a_node4"><a xlink:href="classCDPL_1_1Math_1_1Expression.html" target="_top" xlink:title=" ">
<polygon fill="none" stroke="black" points="72,-427.5 72,-446.5 222,-446.5 222,-427.5 72,-427.5"/>
<text text-anchor="middle" x="147" y="-434.5" font-family="Helvetica" font-size="10.00">CDPL::Math::Expression&lt; E &gt;</text>
</a>
</g>
</g>
<!-- Node4&#45;&gt;Node3 -->
<g id="edge3" class="edge">
<title>Node4&#45;&gt;Node3</title>
<path fill="none" stroke="midnightblue" d="M130.57,-420.42C120.08,-410.47 106.87,-397.94 98.19,-389.71"/>
<polygon fill="midnightblue" stroke="midnightblue" points="128.27,-423.06 137.94,-427.41 133.09,-417.99 128.27,-423.06"/>
</g>
<!-- Node4&#45;&gt;Node6 -->
<g id="edge6" class="edge">
<title>Node4&#45;&gt;Node6</title>
<path fill="none" stroke="midnightblue" d="M163.96,-420.33C172.02,-412.03 181.14,-401.24 187,-390 198.69,-367.57 203.42,-337.61 205.14,-322.91"/>
<polygon fill="midnightblue" stroke="midnightblue" points="161.38,-417.95 156.7,-427.46 166.29,-422.95 161.38,-417.95"/>
</g>
<!-- Node5 -->
<g id="node5" class="node">
<title>Node5</title>
<g id="a_node5"><a xlink:href="classCDPL_1_1Math_1_1VectorContainer.html" target="_top" xlink:title=" ">
<polygon fill="none" stroke="black" points="118,-246.5 118,-265.5 290,-265.5 290,-246.5 118,-246.5"/>
<text text-anchor="middle" x="204" y="-253.5" font-family="Helvetica" font-size="10.00">CDPL::Math::VectorContainer&lt; C &gt;</text>
</a>
</g>
</g>
<!-- Node5&#45;&gt;Node2 -->
<g id="edge4" class="edge">
<title>Node5&#45;&gt;Node2</title>
<path fill="none" stroke="orange" stroke-dasharray="5,2" d="M186.18,-239.5C169.55,-225.03 144.65,-203.37 126.62,-187.68"/>
<polygon fill="orange" stroke="orange" points="184.2,-242.42 194.05,-246.34 188.8,-237.14 184.2,-242.42"/>
<text text-anchor="start" x="171" y="-220" font-family="Helvetica" font-size="10.00"> &lt; Vector&lt; T, std::vector</text>
<text text-anchor="middle" x="224" y="-209" font-family="Helvetica" font-size="10.00">&lt; T &gt; &gt; &gt;</text>
</g>
<!-- Node6&#45;&gt;Node5 -->
<g id="edge5" class="edge">
<title>Node6&#45;&gt;Node5</title>
<path fill="none" stroke="midnightblue" d="M205.31,-293.12C204.98,-283.82 204.58,-273.06 204.32,-265.71"/>
<polygon fill="midnightblue" stroke="midnightblue" points="201.83,-293.54 205.69,-303.41 208.82,-293.29 201.83,-293.54"/>
</g>
</g>
</svg>
