<?xml version="1.0" encoding="UTF-8" standalone="no"?>
<!DOCTYPE svg PUBLIC "-//W3C//DTD SVG 1.1//EN"
 "http://www.w3.org/Graphics/SVG/1.1/DTD/svg11.dtd">
<!-- Generated by graphviz version 2.44.0 (0)
 -->
<!-- Title: CDPL::Vis::Path2D Pages: 1 -->
<svg width="324pt" height="84pt"
 viewBox="0.00 0.00 323.50 84.00" xmlns="http://www.w3.org/2000/svg" xmlns:xlink="http://www.w3.org/1999/xlink">
<g id="graph0" class="graph" transform="scale(1 1) rotate(0) translate(4 80)">
<title>CDPL::Vis::Path2D</title>
<!-- Node1 -->
<g id="node1" class="node">
<title>Node1</title>
<g id="a_node1"><a xlink:title="Provides a container for painting operations, enabling arbitrary graphical shapes to be constructed a...">
<polygon fill="#bfbfbf" stroke="black" points="110.5,-56.5 110.5,-75.5 212.5,-75.5 212.5,-56.5 110.5,-56.5"/>
<text text-anchor="middle" x="161.5" y="-63.5" font-family="Helvetica" font-size="10.00">CDPL::Vis::Path2D</text>
</a>
</g>
</g>
<!-- Node2 -->
<g id="node2" class="node">
<title>Node2</title>
<g id="a_node2"><a xlink:href="classCDPL_1_1Vis_1_1ClipPathPrimitive2D.html" target="_top" xlink:title="A graphics primitive representing a clipping region in 2D space.">
<polygon fill="none" stroke="black" points="0,-0.5 0,-19.5 157,-19.5 157,-0.5 0,-0.5"/>
<text text-anchor="middle" x="78.5" y="-7.5" font-family="Helvetica" font-size="10.00">CDPL::Vis::ClipPathPrimitive2D</text>
</a>
</g>
</g>
<!-- Node1&#45;&gt;Node2 -->
<g id="edge1" class="edge">
<title>Node1&#45;&gt;Node2</title>
<path fill="none" stroke="midnightblue" d="M139.4,-50.62C124.24,-40.76 104.62,-27.99 91.8,-19.65"/>
<polygon fill="midnightblue" stroke="midnightblue" points="137.87,-53.8 148.16,-56.32 141.69,-47.94 137.87,-53.8"/>
</g>
<!-- Node3 -->
<g id="node3" class="node">
<title>Node3</title>
<g id="a_node3"><a xlink:href="classCDPL_1_1Vis_1_1PathPrimitive2D.html" target="_top" xlink:title="A graphics primitive representing an arbitrary path in 2D space.">
<polygon fill="none" stroke="black" points="175.5,-0.5 175.5,-19.5 315.5,-19.5 315.5,-0.5 175.5,-0.5"/>
<text text-anchor="middle" x="245.5" y="-7.5" font-family="Helvetica" font-size="10.00">CDPL::Vis::PathPrimitive2D</text>
</a>
</g>
</g>
<!-- Node1&#45;&gt;Node3 -->
<g id="edge2" class="edge">
<title>Node1&#45;&gt;Node3</title>
<path fill="none" stroke="midnightblue" d="M183.43,-50.9C198.84,-41 218.95,-28.07 232.04,-19.65"/>
<polygon fill="midnightblue" stroke="midnightblue" points="181.52,-47.97 175,-56.32 185.3,-53.86 181.52,-47.97"/>
</g>
</g>
</svg>
