<?xml version="1.0" encoding="UTF-8" standalone="no"?>
<!DOCTYPE svg PUBLIC "-//W3C//DTD SVG 1.1//EN"
 "http://www.w3.org/Graphics/SVG/1.1/DTD/svg11.dtd">
<!-- Generated by graphviz version 2.44.0 (0)
 -->
<!-- Title: CDPL::Vis::GraphicsPrimitive2D Pages: 1 -->
<svg width="365pt" height="382pt"
 viewBox="0.00 0.00 365.00 382.00" xmlns="http://www.w3.org/2000/svg" xmlns:xlink="http://www.w3.org/1999/xlink">
<g id="graph0" class="graph" transform="scale(1 1) rotate(0) translate(4 378)">
<title>CDPL::Vis::GraphicsPrimitive2D</title>
<!-- Node1 -->
<g id="node1" class="node">
<title>Node1</title>
<g id="a_node1"><a xlink:title="The abstract base class of all 2D graphics primitives.">
<polygon fill="#bfbfbf" stroke="black" points="0,-171.5 0,-190.5 158,-190.5 158,-171.5 0,-171.5"/>
<text text-anchor="middle" x="79" y="-178.5" font-family="Helvetica" font-size="10.00">CDPL::Vis::GraphicsPrimitive2D</text>
</a>
</g>
</g>
<!-- Node2 -->
<g id="node2" class="node">
<title>Node2</title>
<g id="a_node2"><a xlink:href="classCDPL_1_1Vis_1_1ClipPathPrimitive2D.html" target="_top" xlink:title="A graphics primitive representing a clipping region in 2D space.">
<polygon fill="none" stroke="black" points="197,-354.5 197,-373.5 354,-373.5 354,-354.5 197,-354.5"/>
<text text-anchor="middle" x="275.5" y="-361.5" font-family="Helvetica" font-size="10.00">CDPL::Vis::ClipPathPrimitive2D</text>
</a>
</g>
</g>
<!-- Node1&#45;&gt;Node2 -->
<g id="edge1" class="edge">
<title>Node1&#45;&gt;Node2</title>
<path fill="none" stroke="midnightblue" d="M87.68,-200.02C102.65,-234.62 139.18,-307.69 194,-345 199.7,-348.88 206.09,-351.97 212.71,-354.43"/>
<polygon fill="midnightblue" stroke="midnightblue" points="90.82,-198.47 83.72,-190.6 84.36,-201.18 90.82,-198.47"/>
</g>
<!-- Node3 -->
<g id="node3" class="node">
<title>Node3</title>
<g id="a_node3"><a xlink:href="classCDPL_1_1Vis_1_1EllipsePrimitive2D.html" target="_top" xlink:title="A graphics primitive representing a ellipse.">
<polygon fill="none" stroke="black" points="201,-316.5 201,-335.5 350,-335.5 350,-316.5 201,-316.5"/>
<text text-anchor="middle" x="275.5" y="-323.5" font-family="Helvetica" font-size="10.00">CDPL::Vis::EllipsePrimitive2D</text>
</a>
</g>
</g>
<!-- Node1&#45;&gt;Node3 -->
<g id="edge2" class="edge">
<title>Node1&#45;&gt;Node3</title>
<path fill="none" stroke="midnightblue" d="M91.34,-199.43C109.45,-227.25 147.65,-279.62 194,-307 200.55,-310.87 207.84,-313.95 215.28,-316.41"/>
<polygon fill="midnightblue" stroke="midnightblue" points="94.1,-197.26 85.79,-190.7 88.2,-201.01 94.1,-197.26"/>
</g>
<!-- Node4 -->
<g id="node4" class="node">
<title>Node4</title>
<g id="a_node4"><a xlink:href="classCDPL_1_1Vis_1_1LinePrimitive2D.html" target="_top" xlink:title="A graphics primitive representing a single line.">
<polygon fill="none" stroke="black" points="207,-278.5 207,-297.5 344,-297.5 344,-278.5 207,-278.5"/>
<text text-anchor="middle" x="275.5" y="-285.5" font-family="Helvetica" font-size="10.00">CDPL::Vis::LinePrimitive2D</text>
</a>
</g>
</g>
<!-- Node1&#45;&gt;Node4 -->
<g id="edge3" class="edge">
<title>Node1&#45;&gt;Node4</title>
<path fill="none" stroke="midnightblue" d="M96.82,-197.8C117.78,-217.76 155.54,-250.68 194,-269 202.04,-272.83 210.9,-275.92 219.73,-278.4"/>
<polygon fill="midnightblue" stroke="midnightblue" points="99.01,-195.05 89.4,-190.59 94.14,-200.07 99.01,-195.05"/>
</g>
<!-- Node5 -->
<g id="node5" class="node">
<title>Node5</title>
<g id="a_node5"><a xlink:href="classCDPL_1_1Vis_1_1LineSegmentListPrimitive2D.html" target="_top" xlink:title="A graphics primitive representing a list of disjoint line segments.">
<polygon fill="none" stroke="black" points="204.5,-229 204.5,-259 346.5,-259 346.5,-229 204.5,-229"/>
<text text-anchor="start" x="212.5" y="-247" font-family="Helvetica" font-size="10.00">CDPL::Vis::LineSegmentList</text>
<text text-anchor="middle" x="275.5" y="-236" font-family="Helvetica" font-size="10.00">Primitive2D</text>
</a>
</g>
</g>
<!-- Node1&#45;&gt;Node5 -->
<g id="edge4" class="edge">
<title>Node1&#45;&gt;Node5</title>
<path fill="none" stroke="midnightblue" d="M117.76,-193.8C139.93,-201.27 168.51,-210.8 194,-219 204.17,-222.27 215.08,-225.71 225.49,-228.96"/>
<polygon fill="midnightblue" stroke="midnightblue" points="118.65,-190.41 108.06,-190.53 116.41,-197.04 118.65,-190.41"/>
</g>
<!-- Node6 -->
<g id="node6" class="node">
<title>Node6</title>
<g id="a_node6"><a xlink:href="classCDPL_1_1Vis_1_1PathPrimitive2D.html" target="_top" xlink:title="A graphics primitive representing an arbitrary path in 2D space.">
<polygon fill="none" stroke="black" points="205.5,-190.5 205.5,-209.5 345.5,-209.5 345.5,-190.5 205.5,-190.5"/>
<text text-anchor="middle" x="275.5" y="-197.5" font-family="Helvetica" font-size="10.00">CDPL::Vis::PathPrimitive2D</text>
</a>
</g>
</g>
<!-- Node1&#45;&gt;Node6 -->
<g id="edge5" class="edge">
<title>Node1&#45;&gt;Node6</title>
<path fill="none" stroke="midnightblue" d="M168.23,-189.62C180.73,-190.84 193.42,-192.08 205.48,-193.26"/>
<polygon fill="midnightblue" stroke="midnightblue" points="168.56,-186.13 158.27,-188.65 167.88,-193.1 168.56,-186.13"/>
</g>
<!-- Node7 -->
<g id="node7" class="node">
<title>Node7</title>
<g id="a_node7"><a xlink:href="classCDPL_1_1Vis_1_1PointListPrimitive2D.html" target="_top" xlink:title="A graphics primitive representing a list of points.">
<polygon fill="none" stroke="black" points="196.5,-152.5 196.5,-171.5 354.5,-171.5 354.5,-152.5 196.5,-152.5"/>
<text text-anchor="middle" x="275.5" y="-159.5" font-family="Helvetica" font-size="10.00">CDPL::Vis::PointListPrimitive2D</text>
</a>
</g>
</g>
<!-- Node1&#45;&gt;Node7 -->
<g id="edge6" class="edge">
<title>Node1&#45;&gt;Node7</title>
<path fill="none" stroke="midnightblue" d="M168.36,-172.37C177.71,-171.46 187.17,-170.53 196.39,-169.63"/>
<polygon fill="midnightblue" stroke="midnightblue" points="167.88,-168.9 158.27,-173.35 168.56,-175.87 167.88,-168.9"/>
</g>
<!-- Node8 -->
<g id="node8" class="node">
<title>Node8</title>
<g id="a_node8"><a xlink:href="classCDPL_1_1Vis_1_1PolygonPrimitive2D.html" target="_top" xlink:title="A graphics primitive representing a polygon.">
<polygon fill="none" stroke="black" points="198.5,-114.5 198.5,-133.5 352.5,-133.5 352.5,-114.5 198.5,-114.5"/>
<text text-anchor="middle" x="275.5" y="-121.5" font-family="Helvetica" font-size="10.00">CDPL::Vis::PolygonPrimitive2D</text>
</a>
</g>
</g>
<!-- Node1&#45;&gt;Node8 -->
<g id="edge7" class="edge">
<title>Node1&#45;&gt;Node8</title>
<path fill="none" stroke="midnightblue" d="M116.22,-168C138.5,-160.24 167.72,-150.46 194,-143 205.88,-139.63 218.86,-136.37 230.87,-133.54"/>
<polygon fill="midnightblue" stroke="midnightblue" points="114.78,-164.79 106.51,-171.41 117.1,-171.4 114.78,-164.79"/>
</g>
<!-- Node9 -->
<g id="node9" class="node">
<title>Node9</title>
<g id="a_node9"><a xlink:href="classCDPL_1_1Vis_1_1PolylinePrimitive2D.html" target="_top" xlink:title="A graphics primitive representing a set of connected line segments.">
<polygon fill="none" stroke="black" points="198.5,-76.5 198.5,-95.5 352.5,-95.5 352.5,-76.5 198.5,-76.5"/>
<text text-anchor="middle" x="275.5" y="-83.5" font-family="Helvetica" font-size="10.00">CDPL::Vis::PolylinePrimitive2D</text>
</a>
</g>
</g>
<!-- Node1&#45;&gt;Node9 -->
<g id="edge8" class="edge">
<title>Node1&#45;&gt;Node9</title>
<path fill="none" stroke="midnightblue" d="M99.29,-164.97C121.01,-147.72 157.98,-120.65 194,-105 202.82,-101.17 212.54,-98.04 222.08,-95.51"/>
<polygon fill="midnightblue" stroke="midnightblue" points="97.07,-162.27 91.49,-171.28 101.47,-167.72 97.07,-162.27"/>
</g>
<!-- Node10 -->
<g id="node10" class="node">
<title>Node10</title>
<g id="a_node10"><a xlink:href="classCDPL_1_1Vis_1_1TextBlockPrimitive2D.html" target="_top" xlink:title="A graphics primitive representing a block of styled text.">
<polygon fill="none" stroke="black" points="194,-38.5 194,-57.5 357,-57.5 357,-38.5 194,-38.5"/>
<text text-anchor="middle" x="275.5" y="-45.5" font-family="Helvetica" font-size="10.00">CDPL::Vis::TextBlockPrimitive2D</text>
</a>
</g>
</g>
<!-- Node1&#45;&gt;Node10 -->
<g id="edge9" class="edge">
<title>Node1&#45;&gt;Node10</title>
<path fill="none" stroke="midnightblue" d="M92.85,-162.89C111.93,-137.42 150.24,-91.4 194,-67 201.02,-63.08 208.83,-59.97 216.73,-57.5"/>
<polygon fill="midnightblue" stroke="midnightblue" points="89.8,-161.13 86.72,-171.27 95.45,-165.27 89.8,-161.13"/>
</g>
<!-- Node11 -->
<g id="node11" class="node">
<title>Node11</title>
<g id="a_node11"><a xlink:href="classCDPL_1_1Vis_1_1TextLabelPrimitive2D.html" target="_top" xlink:title="A graphics primitive representing a text label.">
<polygon fill="none" stroke="black" points="195,-0.5 195,-19.5 356,-19.5 356,-0.5 195,-0.5"/>
<text text-anchor="middle" x="275.5" y="-7.5" font-family="Helvetica" font-size="10.00">CDPL::Vis::TextLabelPrimitive2D</text>
</a>
</g>
</g>
<!-- Node1&#45;&gt;Node11 -->
<g id="edge10" class="edge">
<title>Node1&#45;&gt;Node11</title>
<path fill="none" stroke="midnightblue" d="M88.72,-162.02C104.72,-129.43 141.95,-63.07 194,-29 199.89,-25.15 206.47,-22.07 213.27,-19.62"/>
<polygon fill="midnightblue" stroke="midnightblue" points="85.43,-160.8 84.28,-171.33 91.75,-163.81 85.43,-160.8"/>
</g>
</g>
</svg>
