<?xml version="1.0" encoding="UTF-8" standalone="no"?>
<!DOCTYPE svg PUBLIC "-//W3C//DTD SVG 1.1//EN"
 "http://www.w3.org/Graphics/SVG/1.1/DTD/svg11.dtd">
<!-- Generated by graphviz version 2.44.0 (0)
 -->
<!-- Title: CDPL::Math::MatrixContainer&lt; C &gt; Pages: 1 -->
<!--zoomable 686 -->
<svg id="main" version="1.1" xmlns="http://www.w3.org/2000/svg" xmlns:xlink="http://www.w3.org/1999/xlink" xml:space="preserve" onload="init(evt)">
<style type="text/css"><![CDATA[
.edge:hover path { stroke: red; }
.edge:hover polygon { stroke: red; fill: red; }
]]></style>
<script type="text/javascript"><![CDATA[
var edges = document.getElementsByTagName('g');
if (edges && edges.length) {
  for (var i=0;i<edges.length;i++) {
    if (edges[i].id.substr(0,4)=='edge') {
      edges[i].setAttribute('class','edge');
    }
  }
}
]]></script>
        <defs>
                <circle id="rim" cx="0" cy="0" r="7"/>
                <circle id="rim2" cx="0" cy="0" r="3.5"/>
                <g id="zoomPlus">
                        <use xlink:href="#rim" fill="#404040">
                                <set attributeName="fill" to="#808080" begin="zoomplus.mouseover" end="zoomplus.mouseout"/>
                        </use>
                        <path d="M-4,0h8M0,-4v8" fill="none" stroke="white" stroke-width="1.5" pointer-events="none"/>
                </g>
                <g id="zoomMin">
                        <use xlink:href="#rim" fill="#404040">
                                <set attributeName="fill" to="#808080" begin="zoomminus.mouseover" end="zoomminus.mouseout"/>
                        </use>
                        <path d="M-4,0h8" fill="none" stroke="white" stroke-width="1.5" pointer-events="none"/>
                </g>
                <g id="dirArrow">
                        <path fill="none" stroke="white" stroke-width="1.5" d="M0,-3.0v7 M-2.5,-0.5L0,-3.0L2.5,-0.5"/>
                </g>
               <g id="resetDef">
                       <use xlink:href="#rim2" fill="#404040">
                               <set attributeName="fill" to="#808080" begin="reset.mouseover" end="reset.mouseout"/>
                       </use>
               </g>
        </defs>

<script type="text/javascript">
var viewWidth = 1589;
var viewHeight = 686;
var sectionId = 'dynsection-0';
</script>
<script xlink:href="svgpan.js"/>
<svg id="graph" class="graph">
<g id="viewport">
<title>CDPL::Math::MatrixContainer&lt; C &gt;</title>
<!-- Node1 -->
<g id="node1" class="node">
<title>Node1</title>
<g id="a_node1"><a xlink:title=" ">
<polygon fill="#bfbfbf" stroke="black" points="644,-318 644,-337 815,-337 815,-318 644,-318"/>
<text text-anchor="middle" x="729.5" y="-325" font-family="Helvetica" font-size="10.00">CDPL::Math::MatrixContainer&lt; C &gt;</text>
</a>
</g>
</g>
<!-- Node5 -->
<g id="node5" class="node">
<title>Node5</title>
<g id="a_node5"><a xlink:href="classCDPL_1_1Math_1_1CMatrix.html" target="_top" xlink:title=" ">
<polygon fill="none" stroke="black" points="1462,-583 1462,-624 1581,-624 1581,-583 1462,-583"/>
<text text-anchor="start" x="1470" y="-612" font-family="Helvetica" font-size="10.00">CDPL::Math::CMatrix</text>
<text text-anchor="start" x="1470" y="-601" font-family="Helvetica" font-size="10.00">&lt; typename TypeTraits</text>
<text text-anchor="middle" x="1521.5" y="-590" font-family="Helvetica" font-size="10.00">&lt; T &gt;::RealType, 4, 4 &gt;</text>
</a>
</g>
</g>
<!-- Node1&#45;&gt;Node5 -->
<g id="edge5" class="edge">
<title>Node1&#45;&gt;Node5</title>
<path fill="none" stroke="midnightblue" d="M731.38,-347.38C734.79,-398.12 751.47,-532.7 833,-593.5 1023.42,-735.51 1333.23,-662.78 1461.75,-623.35"/>
<polygon fill="midnightblue" stroke="midnightblue" points="734.85,-346.91 730.8,-337.12 727.87,-347.3 734.85,-346.91"/>
</g>
<!-- Node6 -->
<g id="node6" class="node">
<title>Node6</title>
<g id="a_node6"><a xlink:href="classCDPL_1_1Math_1_1Matrix.html" target="_top" xlink:title=" ">
<polygon fill="none" stroke="black" points="1469.5,-142.5 1469.5,-172.5 1573.5,-172.5 1573.5,-142.5 1469.5,-142.5"/>
<text text-anchor="start" x="1477.5" y="-160.5" font-family="Helvetica" font-size="10.00">CDPL::Math::Matrix</text>
<text text-anchor="middle" x="1521.5" y="-149.5" font-family="Helvetica" font-size="10.00">&lt; double &gt;</text>
</a>
</g>
</g>
<!-- Node1&#45;&gt;Node6 -->
<g id="edge6" class="edge">
<title>Node1&#45;&gt;Node6</title>
<path fill="none" stroke="midnightblue" d="M736.47,-308.32C748.57,-272.72 779.5,-196.51 833,-157.5 933.72,-84.05 1327.76,-130.46 1469.43,-150.03"/>
<polygon fill="midnightblue" stroke="midnightblue" points="733.09,-307.38 733.31,-317.98 739.74,-309.56 733.09,-307.38"/>
</g>
<!-- Node7 -->
<g id="node7" class="node">
<title>Node7</title>
<g id="a_node7"><a xlink:href="classCDPL_1_1Math_1_1MatrixContainer.html" target="_top" xlink:title=" ">
<polygon fill="none" stroke="black" points="962.5,-514.5 962.5,-544.5 1108.5,-544.5 1108.5,-514.5 962.5,-514.5"/>
<text text-anchor="start" x="970.5" y="-532.5" font-family="Helvetica" font-size="10.00">CDPL::Math::MatrixContainer</text>
<text text-anchor="middle" x="1035.5" y="-521.5" font-family="Helvetica" font-size="10.00">&lt; IdentityMatrix&lt; T &gt; &gt;</text>
</a>
</g>
</g>
<!-- Node1&#45;&gt;Node7 -->
<g id="edge7" class="edge">
<title>Node1&#45;&gt;Node7</title>
<path fill="none" stroke="orange" stroke-dasharray="5,2" d="M736.95,-346.9C749.52,-381.52 780.75,-453.65 833,-489.5 870.79,-515.43 921.41,-525.4 962.46,-528.91"/>
<polygon fill="orange" stroke="orange" points="740.12,-345.36 733.52,-337.07 733.51,-347.67 740.12,-345.36"/>
<text text-anchor="middle" x="887.5" y="-529.5" font-family="Helvetica" font-size="10.00"> &lt; IdentityMatrix&lt; T &gt; &gt;</text>
</g>
<!-- Node9 -->
<g id="node9" class="node">
<title>Node9</title>
<g id="a_node9"><a xlink:href="classCDPL_1_1Math_1_1MatrixContainer.html" target="_top" xlink:title=" ">
<polygon fill="none" stroke="black" points="962.5,-465.5 962.5,-495.5 1108.5,-495.5 1108.5,-465.5 962.5,-465.5"/>
<text text-anchor="start" x="970.5" y="-483.5" font-family="Helvetica" font-size="10.00">CDPL::Math::MatrixContainer</text>
<text text-anchor="middle" x="1035.5" y="-472.5" font-family="Helvetica" font-size="10.00">&lt; ScalarMatrix&lt; T &gt; &gt;</text>
</a>
</g>
</g>
<!-- Node1&#45;&gt;Node9 -->
<g id="edge9" class="edge">
<title>Node1&#45;&gt;Node9</title>
<path fill="none" stroke="orange" stroke-dasharray="5,2" d="M741.45,-345.82C757.9,-371.59 791.51,-418.03 833,-441.5 872.23,-463.69 921.89,-473.48 962.1,-477.7"/>
<polygon fill="orange" stroke="orange" points="744.26,-343.7 736.01,-337.04 738.31,-347.39 744.26,-343.7"/>
<text text-anchor="middle" x="887.5" y="-477.5" font-family="Helvetica" font-size="10.00"> &lt; ScalarMatrix&lt; T &gt; &gt;</text>
</g>
<!-- Node11 -->
<g id="node11" class="node">
<title>Node11</title>
<g id="a_node11"><a xlink:href="classCDPL_1_1Math_1_1MatrixContainer.html" target="_top" xlink:title=" ">
<polygon fill="none" stroke="black" points="962.5,-416.5 962.5,-446.5 1108.5,-446.5 1108.5,-416.5 962.5,-416.5"/>
<text text-anchor="start" x="970.5" y="-434.5" font-family="Helvetica" font-size="10.00">CDPL::Math::MatrixContainer</text>
<text text-anchor="middle" x="1035.5" y="-423.5" font-family="Helvetica" font-size="10.00">&lt; TranslationMatrix&lt; T &gt; &gt;</text>
</a>
</g>
</g>
<!-- Node1&#45;&gt;Node11 -->
<g id="edge11" class="edge">
<title>Node1&#45;&gt;Node11</title>
<path fill="none" stroke="orange" stroke-dasharray="5,2" d="M752.91,-342.72C773.07,-355.78 803.9,-374.22 833,-385.5 874.49,-401.58 923.06,-412.87 962.12,-420.25"/>
<polygon fill="orange" stroke="orange" points="754.72,-339.72 744.44,-337.14 750.87,-345.57 754.72,-339.72"/>
<text text-anchor="start" x="844" y="-429.5" font-family="Helvetica" font-size="10.00"> &lt; TranslationMatrix</text>
<text text-anchor="middle" x="887.5" y="-418.5" font-family="Helvetica" font-size="10.00">&lt; T &gt; &gt;</text>
</g>
<!-- Node13 -->
<g id="node13" class="node">
<title>Node13</title>
<g id="a_node13"><a xlink:href="classCDPL_1_1Math_1_1MatrixContainer.html" target="_top" xlink:title=" ">
<polygon fill="none" stroke="black" points="962.5,-367.5 962.5,-397.5 1108.5,-397.5 1108.5,-367.5 962.5,-367.5"/>
<text text-anchor="start" x="970.5" y="-385.5" font-family="Helvetica" font-size="10.00">CDPL::Math::MatrixContainer</text>
<text text-anchor="middle" x="1035.5" y="-374.5" font-family="Helvetica" font-size="10.00">&lt; ScalingMatrix&lt; T &gt; &gt;</text>
</a>
</g>
</g>
<!-- Node1&#45;&gt;Node13 -->
<g id="edge13" class="edge">
<title>Node1&#45;&gt;Node13</title>
<path fill="none" stroke="orange" stroke-dasharray="5,2" d="M774.16,-339.66C792.27,-344.42 813.55,-349.64 833,-353.5 875.64,-361.95 923.82,-368.98 962.38,-374"/>
<polygon fill="orange" stroke="orange" points="775.03,-336.26 764.46,-337.07 773.22,-343.03 775.03,-336.26"/>
<text text-anchor="middle" x="887.5" y="-373.5" font-family="Helvetica" font-size="10.00"> &lt; ScalingMatrix&lt; T &gt; &gt;</text>
</g>
<!-- Node15 -->
<g id="node15" class="node">
<title>Node15</title>
<g id="a_node15"><a xlink:href="classCDPL_1_1Math_1_1MatrixContainer.html" target="_top" xlink:title=" ">
<polygon fill="none" stroke="black" points="962.5,-307 962.5,-348 1108.5,-348 1108.5,-307 962.5,-307"/>
<text text-anchor="start" x="970.5" y="-336" font-family="Helvetica" font-size="10.00">CDPL::Math::MatrixContainer</text>
<text text-anchor="start" x="970.5" y="-325" font-family="Helvetica" font-size="10.00">&lt; Matrix&lt; T, std::vector</text>
<text text-anchor="middle" x="1035.5" y="-314" font-family="Helvetica" font-size="10.00">&lt; T &gt; &gt; &gt;</text>
</a>
</g>
</g>
<!-- Node1&#45;&gt;Node15 -->
<g id="edge15" class="edge">
<title>Node1&#45;&gt;Node15</title>
<path fill="none" stroke="orange" stroke-dasharray="5,2" d="M825.37,-327.5C869.61,-327.5 921.4,-327.5 962.37,-327.5"/>
<polygon fill="orange" stroke="orange" points="825.18,-324 815.18,-327.5 825.18,-331 825.18,-324"/>
<text text-anchor="start" x="834.5" y="-341.5" font-family="Helvetica" font-size="10.00"> &lt; Matrix&lt; T, std::vector</text>
<text text-anchor="middle" x="887.5" y="-330.5" font-family="Helvetica" font-size="10.00">&lt; T &gt; &gt; &gt;</text>
</g>
<!-- Node17 -->
<g id="node17" class="node">
<title>Node17</title>
<g id="a_node17"><a xlink:href="classCDPL_1_1Math_1_1MatrixContainer.html" target="_top" xlink:title=" ">
<polygon fill="none" stroke="black" points="962.5,-235.5 962.5,-287.5 1108.5,-287.5 1108.5,-235.5 962.5,-235.5"/>
<text text-anchor="start" x="970.5" y="-275.5" font-family="Helvetica" font-size="10.00">CDPL::Math::MatrixContainer</text>
<text text-anchor="start" x="970.5" y="-264.5" font-family="Helvetica" font-size="10.00">&lt; SparseMatrix&lt; T, std::</text>
<text text-anchor="start" x="970.5" y="-253.5" font-family="Helvetica" font-size="10.00">unordered_map&lt; std::uint64</text>
<text text-anchor="middle" x="1035.5" y="-242.5" font-family="Helvetica" font-size="10.00">_t, T &gt; &gt; &gt;</text>
</a>
</g>
</g>
<!-- Node1&#45;&gt;Node17 -->
<g id="edge18" class="edge">
<title>Node1&#45;&gt;Node17</title>
<path fill="none" stroke="orange" stroke-dasharray="5,2" d="M762.41,-314.08C782.38,-306.16 808.82,-296.54 833,-290.5 875.35,-279.93 923.73,-272.81 962.47,-268.27"/>
<polygon fill="orange" stroke="orange" points="760.85,-310.93 752.89,-317.92 763.47,-317.43 760.85,-310.93"/>
<text text-anchor="start" x="836.5" y="-315.5" font-family="Helvetica" font-size="10.00"> &lt; SparseMatrix&lt; T,</text>
<text text-anchor="start" x="836.5" y="-304.5" font-family="Helvetica" font-size="10.00"> std::unordered_map</text>
<text text-anchor="middle" x="887.5" y="-293.5" font-family="Helvetica" font-size="10.00">&lt; std::uint64_t, T &gt; &gt; &gt;</text>
</g>
<!-- Node19 -->
<g id="node19" class="node">
<title>Node19</title>
<g id="a_node19"><a xlink:href="classCDPL_1_1Math_1_1MatrixContainer.html" target="_top" xlink:title=" ">
<polygon fill="none" stroke="black" points="960,-186.5 960,-216.5 1111,-216.5 1111,-186.5 960,-186.5"/>
<text text-anchor="start" x="968" y="-204.5" font-family="Helvetica" font-size="10.00">CDPL::Math::MatrixContainer</text>
<text text-anchor="middle" x="1035.5" y="-193.5" font-family="Helvetica" font-size="10.00">&lt; BoundedMatrix&lt; T, M, N &gt; &gt;</text>
</a>
</g>
</g>
<!-- Node1&#45;&gt;Node19 -->
<g id="edge20" class="edge">
<title>Node1&#45;&gt;Node19</title>
<path fill="none" stroke="orange" stroke-dasharray="5,2" d="M746.55,-310.64C765.44,-291.83 798.62,-261.89 833,-245.5 872.59,-226.62 920.43,-215.74 959.56,-209.52"/>
<polygon fill="orange" stroke="orange" points="743.88,-308.36 739.37,-317.95 748.88,-313.27 743.88,-308.36"/>
<text text-anchor="start" x="840" y="-259.5" font-family="Helvetica" font-size="10.00"> &lt; BoundedMatrix&lt; T,</text>
<text text-anchor="middle" x="887.5" y="-248.5" font-family="Helvetica" font-size="10.00"> M, N &gt; &gt;</text>
</g>
<!-- Node21 -->
<g id="node21" class="node">
<title>Node21</title>
<g id="a_node21"><a xlink:href="classCDPL_1_1Math_1_1MatrixContainer.html" target="_top" xlink:title=" ">
<polygon fill="none" stroke="black" points="962.5,-137.5 962.5,-167.5 1108.5,-167.5 1108.5,-137.5 962.5,-137.5"/>
<text text-anchor="start" x="970.5" y="-155.5" font-family="Helvetica" font-size="10.00">CDPL::Math::MatrixContainer</text>
<text text-anchor="middle" x="1035.5" y="-144.5" font-family="Helvetica" font-size="10.00">&lt; ZeroMatrix&lt; T &gt; &gt;</text>
</a>
</g>
</g>
<!-- Node1&#45;&gt;Node21 -->
<g id="edge22" class="edge">
<title>Node1&#45;&gt;Node21</title>
<path fill="none" stroke="orange" stroke-dasharray="5,2" d="M739.85,-308.99C755.22,-280.55 788.61,-226.45 833,-198.5 871.72,-174.12 921.85,-162.62 962.42,-157.21"/>
<polygon fill="orange" stroke="orange" points="736.72,-307.42 735.17,-317.9 742.92,-310.67 736.72,-307.42"/>
<text text-anchor="middle" x="887.5" y="-201.5" font-family="Helvetica" font-size="10.00"> &lt; ZeroMatrix&lt; T &gt; &gt;</text>
</g>
<!-- Node23 -->
<g id="node23" class="node">
<title>Node23</title>
<g id="a_node23"><a xlink:href="classCDPL_1_1Math_1_1MatrixContainer.html" target="_top" xlink:title=" ">
<polygon fill="none" stroke="black" points="962.5,-563.5 962.5,-593.5 1108.5,-593.5 1108.5,-563.5 962.5,-563.5"/>
<text text-anchor="start" x="970.5" y="-581.5" font-family="Helvetica" font-size="10.00">CDPL::Math::MatrixContainer</text>
<text text-anchor="middle" x="1035.5" y="-570.5" font-family="Helvetica" font-size="10.00">&lt; CMatrix&lt; T, M, N &gt; &gt;</text>
</a>
</g>
</g>
<!-- Node1&#45;&gt;Node23 -->
<g id="edge24" class="edge">
<title>Node1&#45;&gt;Node23</title>
<path fill="none" stroke="orange" stroke-dasharray="5,2" d="M733.77,-347.07C742.01,-389.81 767.82,-491.65 833,-541.5 869.59,-569.48 920.72,-578.62 962.32,-580.82"/>
<polygon fill="orange" stroke="orange" points="737.19,-346.32 731.97,-337.11 730.31,-347.57 737.19,-346.32"/>
<text text-anchor="middle" x="887.5" y="-581.5" font-family="Helvetica" font-size="10.00"> &lt; CMatrix&lt; T, M, N &gt; &gt;</text>
</g>
<!-- Node25 -->
<g id="node25" class="node">
<title>Node25</title>
<g id="a_node25"><a xlink:href="classCDPL_1_1Math_1_1MatrixContainer.html" target="_top" xlink:title=" ">
<polygon fill="none" stroke="black" points="962.5,-49.5 962.5,-79.5 1108.5,-79.5 1108.5,-49.5 962.5,-49.5"/>
<text text-anchor="start" x="970.5" y="-67.5" font-family="Helvetica" font-size="10.00">CDPL::Math::MatrixContainer</text>
<text text-anchor="middle" x="1035.5" y="-56.5" font-family="Helvetica" font-size="10.00">&lt; RotationMatrix&lt; T &gt; &gt;</text>
</a>
</g>
</g>
<!-- Node1&#45;&gt;Node25 -->
<g id="edge27" class="edge">
<title>Node1&#45;&gt;Node25</title>
<path fill="none" stroke="orange" stroke-dasharray="5,2" d="M732.18,-307.73C737.37,-260.08 757.74,-138.78 833,-83.5 869.67,-56.56 920.81,-52.01 962.38,-54.1"/>
<polygon fill="orange" stroke="orange" points="728.67,-307.64 731.18,-317.93 735.64,-308.32 728.67,-307.64"/>
<text text-anchor="middle" x="887.5" y="-86.5" font-family="Helvetica" font-size="10.00"> &lt; RotationMatrix&lt; T &gt; &gt;</text>
</g>
<!-- Node27 -->
<g id="node27" class="node">
<title>Node27</title>
<g id="a_node27"><a xlink:href="classCDPL_1_1Math_1_1MatrixContainer.html" target="_top" xlink:title=" ">
<polygon fill="none" stroke="black" points="962.5,-0.5 962.5,-30.5 1108.5,-30.5 1108.5,-0.5 962.5,-0.5"/>
<text text-anchor="start" x="970.5" y="-18.5" font-family="Helvetica" font-size="10.00">CDPL::Math::MatrixContainer</text>
<text text-anchor="middle" x="1035.5" y="-7.5" font-family="Helvetica" font-size="10.00">&lt; InitListMatrix&lt; T &gt; &gt;</text>
</a>
</g>
</g>
<!-- Node1&#45;&gt;Node27 -->
<g id="edge29" class="edge">
<title>Node1&#45;&gt;Node27</title>
<path fill="none" stroke="orange" stroke-dasharray="5,2" d="M730.88,-307.64C733.08,-254.45 747.02,-108.14 833,-39.5 868.79,-10.93 920.19,-5.18 962.12,-6.45"/>
<polygon fill="orange" stroke="orange" points="727.38,-307.68 730.57,-317.78 734.38,-307.89 727.38,-307.68"/>
<text text-anchor="middle" x="887.5" y="-42.5" font-family="Helvetica" font-size="10.00"> &lt; InitListMatrix&lt; T &gt; &gt;</text>
</g>
<!-- Node2 -->
<g id="node2" class="node">
<title>Node2</title>
<g id="a_node2"><a xlink:href="classCDPL_1_1Math_1_1MatrixExpression.html" target="_top" xlink:title=" ">
<polygon fill="none" stroke="black" points="429,-318 429,-337 607,-337 607,-318 429,-318"/>
<text text-anchor="middle" x="518" y="-325" font-family="Helvetica" font-size="10.00">CDPL::Math::MatrixExpression&lt; C &gt;</text>
</a>
</g>
</g>
<!-- Node2&#45;&gt;Node1 -->
<g id="edge1" class="edge">
<title>Node2&#45;&gt;Node1</title>
<path fill="none" stroke="midnightblue" d="M617.49,-327.5C626.25,-327.5 635.07,-327.5 643.71,-327.5"/>
<polygon fill="midnightblue" stroke="midnightblue" points="617.24,-324 607.24,-327.5 617.24,-331 617.24,-324"/>
</g>
<!-- Node3 -->
<g id="node3" class="node">
<title>Node3</title>
<g id="a_node3"><a xlink:href="classCDPL_1_1Math_1_1Expression.html" target="_top" xlink:title=" ">
<polygon fill="none" stroke="black" points="0,-315 0,-334 150,-334 150,-315 0,-315"/>
<text text-anchor="middle" x="75" y="-322" font-family="Helvetica" font-size="10.00">CDPL::Math::Expression&lt; E &gt;</text>
</a>
</g>
</g>
<!-- Node3&#45;&gt;Node2 -->
<g id="edge2" class="edge">
<title>Node3&#45;&gt;Node2</title>
<path fill="none" stroke="midnightblue" d="M160.34,-329.26C162.92,-329.35 165.48,-329.43 168,-329.5 256.73,-331.91 358.2,-330.91 428.77,-329.61"/>
<polygon fill="midnightblue" stroke="midnightblue" points="160.43,-325.77 150.3,-328.88 160.16,-332.76 160.43,-325.77"/>
</g>
<!-- Node4 -->
<g id="node4" class="node">
<title>Node4</title>
<g id="a_node4"><a xlink:href="classCDPL_1_1Math_1_1MatrixExpression.html" target="_top" xlink:title=" ">
<polygon fill="none" stroke="black" points="187,-296 187,-315 364,-315 364,-296 187,-296"/>
<text text-anchor="middle" x="275.5" y="-303" font-family="Helvetica" font-size="10.00">CDPL::Math::MatrixExpression&lt; E &gt;</text>
</a>
</g>
</g>
<!-- Node3&#45;&gt;Node4 -->
<g id="edge4" class="edge">
<title>Node3&#45;&gt;Node4</title>
<path fill="none" stroke="midnightblue" d="M160.34,-316.43C169.05,-315.59 177.92,-314.74 186.67,-313.91"/>
<polygon fill="midnightblue" stroke="midnightblue" points="159.82,-312.96 150.2,-317.4 160.48,-319.93 159.82,-312.96"/>
</g>
<!-- Node4&#45;&gt;Node2 -->
<g id="edge3" class="edge">
<title>Node4&#45;&gt;Node2</title>
<path fill="none" stroke="orange" stroke-dasharray="5,2" d="M373.99,-314.42C392.1,-316.07 410.93,-317.8 428.75,-319.43"/>
<polygon fill="orange" stroke="orange" points="374.28,-310.93 364.01,-313.5 373.65,-317.9 374.28,-310.93"/>
<text text-anchor="middle" x="396.5" y="-320.5" font-family="Helvetica" font-size="10.00"> &lt; C &gt;</text>
</g>
<!-- Node8 -->
<g id="node8" class="node">
<title>Node8</title>
<g id="a_node8"><a xlink:href="classCDPL_1_1Math_1_1IdentityMatrix.html" target="_top" xlink:title=" ">
<polygon fill="none" stroke="black" points="1155.5,-520 1155.5,-539 1315.5,-539 1315.5,-520 1155.5,-520"/>
<text text-anchor="middle" x="1235.5" y="-527" font-family="Helvetica" font-size="10.00">CDPL::Math::IdentityMatrix&lt; T &gt;</text>
</a>
</g>
</g>
<!-- Node7&#45;&gt;Node8 -->
<g id="edge8" class="edge">
<title>Node7&#45;&gt;Node8</title>
<path fill="none" stroke="midnightblue" d="M1118.67,-529.5C1130.85,-529.5 1143.38,-529.5 1155.49,-529.5"/>
<polygon fill="midnightblue" stroke="midnightblue" points="1118.54,-526 1108.54,-529.5 1118.54,-533 1118.54,-526"/>
</g>
<!-- Node10 -->
<g id="node10" class="node">
<title>Node10</title>
<g id="a_node10"><a xlink:href="classCDPL_1_1Math_1_1ScalarMatrix.html" target="_top" xlink:title=" ">
<polygon fill="none" stroke="black" points="1158,-471 1158,-490 1313,-490 1313,-471 1158,-471"/>
<text text-anchor="middle" x="1235.5" y="-478" font-family="Helvetica" font-size="10.00">CDPL::Math::ScalarMatrix&lt; T &gt;</text>
</a>
</g>
</g>
<!-- Node9&#45;&gt;Node10 -->
<g id="edge10" class="edge">
<title>Node9&#45;&gt;Node10</title>
<path fill="none" stroke="midnightblue" d="M1118.81,-480.5C1131.73,-480.5 1145.05,-480.5 1157.84,-480.5"/>
<polygon fill="midnightblue" stroke="midnightblue" points="1118.54,-477 1108.54,-480.5 1118.54,-484 1118.54,-477"/>
</g>
<!-- Node12 -->
<g id="node12" class="node">
<title>Node12</title>
<g id="a_node12"><a xlink:href="classCDPL_1_1Math_1_1TranslationMatrix.html" target="_top" xlink:title=" ">
<polygon fill="none" stroke="black" points="1148,-422 1148,-441 1323,-441 1323,-422 1148,-422"/>
<text text-anchor="middle" x="1235.5" y="-429" font-family="Helvetica" font-size="10.00">CDPL::Math::TranslationMatrix&lt; T &gt;</text>
</a>
</g>
</g>
<!-- Node11&#45;&gt;Node12 -->
<g id="edge12" class="edge">
<title>Node11&#45;&gt;Node12</title>
<path fill="none" stroke="midnightblue" d="M1118.79,-431.5C1128.33,-431.5 1138.09,-431.5 1147.69,-431.5"/>
<polygon fill="midnightblue" stroke="midnightblue" points="1118.54,-428 1108.54,-431.5 1118.54,-435 1118.54,-428"/>
</g>
<!-- Node14 -->
<g id="node14" class="node">
<title>Node14</title>
<g id="a_node14"><a xlink:href="classCDPL_1_1Math_1_1ScalingMatrix.html" target="_top" xlink:title=" ">
<polygon fill="none" stroke="black" points="1155.5,-373 1155.5,-392 1315.5,-392 1315.5,-373 1155.5,-373"/>
<text text-anchor="middle" x="1235.5" y="-380" font-family="Helvetica" font-size="10.00">CDPL::Math::ScalingMatrix&lt; T &gt;</text>
</a>
</g>
</g>
<!-- Node13&#45;&gt;Node14 -->
<g id="edge14" class="edge">
<title>Node13&#45;&gt;Node14</title>
<path fill="none" stroke="midnightblue" d="M1118.67,-382.5C1130.85,-382.5 1143.38,-382.5 1155.49,-382.5"/>
<polygon fill="midnightblue" stroke="midnightblue" points="1118.54,-379 1108.54,-382.5 1118.54,-386 1118.54,-379"/>
</g>
<!-- Node16 -->
<g id="node16" class="node">
<title>Node16</title>
<g id="a_node16"><a xlink:href="classCDPL_1_1Math_1_1Matrix.html" target="_top" xlink:title=" ">
<polygon fill="none" stroke="black" points="1183.5,-300.5 1183.5,-330.5 1287.5,-330.5 1287.5,-300.5 1183.5,-300.5"/>
<text text-anchor="start" x="1191.5" y="-318.5" font-family="Helvetica" font-size="10.00">CDPL::Math::Matrix</text>
<text text-anchor="middle" x="1235.5" y="-307.5" font-family="Helvetica" font-size="10.00">&lt; T, A &gt;</text>
</a>
</g>
</g>
<!-- Node15&#45;&gt;Node16 -->
<g id="edge16" class="edge">
<title>Node15&#45;&gt;Node16</title>
<path fill="none" stroke="midnightblue" d="M1118.82,-322.51C1140.67,-321.19 1163.63,-319.8 1183.28,-318.6"/>
<polygon fill="midnightblue" stroke="midnightblue" points="1118.31,-319.04 1108.54,-323.13 1118.74,-326.02 1118.31,-319.04"/>
</g>
<!-- Node16&#45;&gt;Node6 -->
<g id="edge17" class="edge">
<title>Node16&#45;&gt;Node6</title>
<path fill="none" stroke="orange" stroke-dasharray="5,2" d="M1296.19,-296.92C1305.32,-293.48 1314.52,-289.64 1323,-285.5 1392.02,-251.78 1466.18,-198.56 1500.71,-172.66"/>
<polygon fill="orange" stroke="orange" points="1294.93,-293.66 1286.74,-300.37 1297.33,-300.23 1294.93,-293.66"/>
<text text-anchor="middle" x="1392.5" y="-277.5" font-family="Helvetica" font-size="10.00"> &lt; double &gt;</text>
</g>
<!-- Node18 -->
<g id="node18" class="node">
<title>Node18</title>
<g id="a_node18"><a xlink:href="classCDPL_1_1Math_1_1SparseMatrix.html" target="_top" xlink:title=" ">
<polygon fill="none" stroke="black" points="1168,-246.5 1168,-276.5 1303,-276.5 1303,-246.5 1168,-246.5"/>
<text text-anchor="start" x="1176" y="-264.5" font-family="Helvetica" font-size="10.00">CDPL::Math::SparseMatrix</text>
<text text-anchor="middle" x="1235.5" y="-253.5" font-family="Helvetica" font-size="10.00">&lt; T, A &gt;</text>
</a>
</g>
</g>
<!-- Node17&#45;&gt;Node18 -->
<g id="edge19" class="edge">
<title>Node17&#45;&gt;Node18</title>
<path fill="none" stroke="midnightblue" d="M1118.64,-261.5C1135,-261.5 1152,-261.5 1167.78,-261.5"/>
<polygon fill="midnightblue" stroke="midnightblue" points="1118.54,-258 1108.54,-261.5 1118.54,-265 1118.54,-258"/>
</g>
<!-- Node20 -->
<g id="node20" class="node">
<title>Node20</title>
<g id="a_node20"><a xlink:href="classCDPL_1_1Math_1_1BoundedMatrix.html" target="_top" xlink:title=" ">
<polygon fill="none" stroke="black" points="1164.5,-186.5 1164.5,-216.5 1306.5,-216.5 1306.5,-186.5 1164.5,-186.5"/>
<text text-anchor="start" x="1172.5" y="-204.5" font-family="Helvetica" font-size="10.00">CDPL::Math::BoundedMatrix</text>
<text text-anchor="middle" x="1235.5" y="-193.5" font-family="Helvetica" font-size="10.00">&lt; T, M, N &gt;</text>
</a>
</g>
</g>
<!-- Node19&#45;&gt;Node20 -->
<g id="edge21" class="edge">
<title>Node19&#45;&gt;Node20</title>
<path fill="none" stroke="midnightblue" d="M1121.39,-201.5C1135.68,-201.5 1150.38,-201.5 1164.25,-201.5"/>
<polygon fill="midnightblue" stroke="midnightblue" points="1121.07,-198 1111.07,-201.5 1121.07,-205 1121.07,-198"/>
</g>
<!-- Node22 -->
<g id="node22" class="node">
<title>Node22</title>
<g id="a_node22"><a xlink:href="classCDPL_1_1Math_1_1ZeroMatrix.html" target="_top" xlink:title=" ">
<polygon fill="none" stroke="black" points="1162,-143 1162,-162 1309,-162 1309,-143 1162,-143"/>
<text text-anchor="middle" x="1235.5" y="-150" font-family="Helvetica" font-size="10.00">CDPL::Math::ZeroMatrix&lt; T &gt;</text>
</a>
</g>
</g>
<!-- Node21&#45;&gt;Node22 -->
<g id="edge23" class="edge">
<title>Node21&#45;&gt;Node22</title>
<path fill="none" stroke="midnightblue" d="M1118.83,-152.5C1133.11,-152.5 1147.86,-152.5 1161.85,-152.5"/>
<polygon fill="midnightblue" stroke="midnightblue" points="1118.54,-149 1108.54,-152.5 1118.54,-156 1118.54,-149"/>
</g>
<!-- Node24 -->
<g id="node24" class="node">
<title>Node24</title>
<g id="a_node24"><a xlink:href="classCDPL_1_1Math_1_1CMatrix.html" target="_top" xlink:title=" ">
<polygon fill="none" stroke="black" points="1180,-563.5 1180,-593.5 1291,-593.5 1291,-563.5 1180,-563.5"/>
<text text-anchor="start" x="1188" y="-581.5" font-family="Helvetica" font-size="10.00">CDPL::Math::CMatrix</text>
<text text-anchor="middle" x="1235.5" y="-570.5" font-family="Helvetica" font-size="10.00">&lt; T, M, N &gt;</text>
</a>
</g>
</g>
<!-- Node23&#45;&gt;Node24 -->
<g id="edge25" class="edge">
<title>Node23&#45;&gt;Node24</title>
<path fill="none" stroke="midnightblue" d="M1118.59,-578.5C1139.26,-578.5 1160.95,-578.5 1179.9,-578.5"/>
<polygon fill="midnightblue" stroke="midnightblue" points="1118.54,-575 1108.54,-578.5 1118.54,-582 1118.54,-575"/>
</g>
<!-- Node24&#45;&gt;Node5 -->
<g id="edge26" class="edge">
<title>Node24&#45;&gt;Node5</title>
<path fill="none" stroke="orange" stroke-dasharray="5,2" d="M1301.47,-578.01C1342.5,-578.44 1396.54,-580.36 1444,-586.5 1449.8,-587.25 1455.81,-588.23 1461.8,-589.34"/>
<polygon fill="orange" stroke="orange" points="1301.36,-574.51 1291.33,-577.93 1301.31,-581.51 1301.36,-574.51"/>
<text text-anchor="start" x="1341" y="-600.5" font-family="Helvetica" font-size="10.00"> &lt; typename TypeTraits</text>
<text text-anchor="middle" x="1392.5" y="-589.5" font-family="Helvetica" font-size="10.00">&lt; T &gt;::RealType, 4, 4 &gt;</text>
</g>
<!-- Node26 -->
<g id="node26" class="node">
<title>Node26</title>
<g id="a_node26"><a xlink:href="classCDPL_1_1Math_1_1RotationMatrix.html" target="_top" xlink:title=" ">
<polygon fill="none" stroke="black" points="1153.5,-55 1153.5,-74 1317.5,-74 1317.5,-55 1153.5,-55"/>
<text text-anchor="middle" x="1235.5" y="-62" font-family="Helvetica" font-size="10.00">CDPL::Math::RotationMatrix&lt; T &gt;</text>
</a>
</g>
</g>
<!-- Node25&#45;&gt;Node26 -->
<g id="edge28" class="edge">
<title>Node25&#45;&gt;Node26</title>
<path fill="none" stroke="midnightblue" d="M1118.58,-64.5C1130.11,-64.5 1141.95,-64.5 1153.46,-64.5"/>
<polygon fill="midnightblue" stroke="midnightblue" points="1118.54,-61 1108.54,-64.5 1118.54,-68 1118.54,-61"/>
</g>
<!-- Node28 -->
<g id="node28" class="node">
<title>Node28</title>
<g id="a_node28"><a xlink:href="classCDPL_1_1Math_1_1InitListMatrix.html" target="_top" xlink:title=" ">
<polygon fill="none" stroke="black" points="1157,-6 1157,-25 1314,-25 1314,-6 1157,-6"/>
<text text-anchor="middle" x="1235.5" y="-13" font-family="Helvetica" font-size="10.00">CDPL::Math::InitListMatrix&lt; T &gt;</text>
</a>
</g>
</g>
<!-- Node27&#45;&gt;Node28 -->
<g id="edge30" class="edge">
<title>Node27&#45;&gt;Node28</title>
<path fill="none" stroke="midnightblue" d="M1118.59,-15.5C1131.25,-15.5 1144.28,-15.5 1156.83,-15.5"/>
<polygon fill="midnightblue" stroke="midnightblue" points="1118.54,-12 1108.54,-15.5 1118.54,-19 1118.54,-12"/>
</g>
</g>
</svg>
        <g id="navigator" transform="translate(0 0)" fill="#404254">
                <rect fill="#f2f5e9" fill-opacity="0.5" stroke="#606060" stroke-width=".5" x="0" y="0" width="60" height="60"/>
                <use id="zoomplus" xlink:href="#zoomPlus" x="17" y="9" onmousedown="handleZoom(evt,'in')"/>
                <use id="zoomminus" xlink:href="#zoomMin" x="42" y="9" onmousedown="handleZoom(evt,'out')"/>
                <use id="reset" xlink:href="#resetDef" x="30" y="36" onmousedown="handleReset()"/>
                <g id="arrowUp" xlink:href="#dirArrow" transform="translate(30 24)" onmousedown="handlePan(0,-1)">
                  <use xlink:href="#rim" fill="#404040">
                        <set attributeName="fill" to="#808080" begin="arrowUp.mouseover" end="arrowUp.mouseout"/>
                  </use>
                  <path fill="none" stroke="white" stroke-width="1.5" d="M0,-3.0v7 M-2.5,-0.5L0,-3.0L2.5,-0.5"/>
                </g>
                <g id="arrowRight" xlink:href="#dirArrow" transform="rotate(90) translate(36 -43)" onmousedown="handlePan(1,0)">
                  <use xlink:href="#rim" fill="#404040">
                        <set attributeName="fill" to="#808080" begin="arrowRight.mouseover" end="arrowRight.mouseout"/>
                  </use>
                  <path fill="none" stroke="white" stroke-width="1.5" d="M0,-3.0v7 M-2.5,-0.5L0,-3.0L2.5,-0.5"/>
                </g>
                <g id="arrowDown" xlink:href="#dirArrow" transform="rotate(180) translate(-30 -48)" onmousedown="handlePan(0,1)">
                  <use xlink:href="#rim" fill="#404040">
                        <set attributeName="fill" to="#808080" begin="arrowDown.mouseover" end="arrowDown.mouseout"/>
                  </use>
                  <path fill="none" stroke="white" stroke-width="1.5" d="M0,-3.0v7 M-2.5,-0.5L0,-3.0L2.5,-0.5"/>
                </g>
                <g id="arrowLeft" xlink:href="#dirArrow" transform="rotate(270) translate(-36 17)" onmousedown="handlePan(-1,0)">
                  <use xlink:href="#rim" fill="#404040">
                        <set attributeName="fill" to="#808080" begin="arrowLeft.mouseover" end="arrowLeft.mouseout"/>
                  </use>
                  <path fill="none" stroke="white" stroke-width="1.5" d="M0,-3.0v7 M-2.5,-0.5L0,-3.0L2.5,-0.5"/>
                </g>
        </g>
        <svg viewBox="0 0 15 15" width="100%" height="30px" preserveAspectRatio="xMaxYMin meet">
         <g id="arrow_out" transform="scale(0.3 0.3)">
          <a xlink:href="classCDPL_1_1Math_1_1MatrixContainer__inherit__graph_org.svg" target="_base">
           <rect id="button" ry="5" rx="5" y="6" x="6" height="38" width="38"
                fill="#f2f5e9" fill-opacity="0.5" stroke="#606060" stroke-width="1.0"/>
           <path id="arrow"
             d="M 11.500037,31.436501 C 11.940474,20.09759 22.043105,11.32322 32.158766,21.979434 L 37.068811,17.246167 C 37.068811,17.246167 37.088388,32 37.088388,32 L 22.160133,31.978069 C 22.160133,31.978069 26.997745,27.140456 26.997745,27.140456 C 18.528582,18.264221 13.291696,25.230495 11.500037,31.436501 z"
             style="fill:#404040;"/>
          </a>
         </g>
        </svg>
</svg>
