<?xml version="1.0" encoding="UTF-8" standalone="no"?>
<!DOCTYPE svg PUBLIC "-//W3C//DTD SVG 1.1//EN"
 "http://www.w3.org/Graphics/SVG/1.1/DTD/svg11.dtd">
<!-- Generated by graphviz version 2.44.0 (0)
 -->
<!-- Title: CDPL::Vis::PointListPrimitive2D Pages: 1 -->
<svg width="312pt" height="140pt"
 viewBox="0.00 0.00 312.00 140.00" xmlns="http://www.w3.org/2000/svg" xmlns:xlink="http://www.w3.org/1999/xlink">
<g id="graph0" class="graph" transform="scale(1 1) rotate(0) translate(4 136)">
<title>CDPL::Vis::PointListPrimitive2D</title>
<!-- Node1 -->
<g id="node1" class="node">
<title>Node1</title>
<g id="a_node1"><a xlink:title="A graphics primitive representing a list of points.">
<polygon fill="#bfbfbf" stroke="black" points="65,-0.5 65,-19.5 223,-19.5 223,-0.5 65,-0.5"/>
<text text-anchor="middle" x="144" y="-7.5" font-family="Helvetica" font-size="10.00">CDPL::Vis::PointListPrimitive2D</text>
</a>
</g>
</g>
<!-- Node2 -->
<g id="node2" class="node">
<title>Node2</title>
<g id="a_node2"><a xlink:href="classCDPL_1_1Vis_1_1PointArray2D.html" target="_top" xlink:title="Stores a set of points in 2D space.">
<polygon fill="none" stroke="black" points="0,-56.5 0,-75.5 128,-75.5 128,-56.5 0,-56.5"/>
<text text-anchor="middle" x="64" y="-63.5" font-family="Helvetica" font-size="10.00">CDPL::Vis::PointArray2D</text>
</a>
</g>
</g>
<!-- Node2&#45;&gt;Node1 -->
<g id="edge1" class="edge">
<title>Node2&#45;&gt;Node1</title>
<path fill="none" stroke="midnightblue" d="M85.3,-50.62C99.92,-40.76 118.83,-27.99 131.18,-19.65"/>
<polygon fill="midnightblue" stroke="midnightblue" points="83.18,-47.83 76.85,-56.32 87.1,-53.63 83.18,-47.83"/>
</g>
<!-- Node3 -->
<g id="node3" class="node">
<title>Node3</title>
<g id="a_node3"><a xlink:title=" ">
<polygon fill="none" stroke="#bfbfbf" points="10.5,-112.5 10.5,-131.5 117.5,-131.5 117.5,-112.5 10.5,-112.5"/>
<text text-anchor="middle" x="64" y="-119.5" font-family="Helvetica" font-size="10.00">Math::Vector2DArray</text>
</a>
</g>
</g>
<!-- Node3&#45;&gt;Node2 -->
<g id="edge2" class="edge">
<title>Node3&#45;&gt;Node2</title>
<path fill="none" stroke="midnightblue" d="M64,-101.8C64,-92.91 64,-82.78 64,-75.75"/>
<polygon fill="midnightblue" stroke="midnightblue" points="60.5,-102.08 64,-112.08 67.5,-102.08 60.5,-102.08"/>
</g>
<!-- Node4 -->
<g id="node4" class="node">
<title>Node4</title>
<g id="a_node4"><a xlink:href="classCDPL_1_1Vis_1_1GraphicsPrimitive2D.html" target="_top" xlink:title="The abstract base class of all 2D graphics primitives.">
<polygon fill="none" stroke="black" points="146,-56.5 146,-75.5 304,-75.5 304,-56.5 146,-56.5"/>
<text text-anchor="middle" x="225" y="-63.5" font-family="Helvetica" font-size="10.00">CDPL::Vis::GraphicsPrimitive2D</text>
</a>
</g>
</g>
<!-- Node4&#45;&gt;Node1 -->
<g id="edge3" class="edge">
<title>Node4&#45;&gt;Node1</title>
<path fill="none" stroke="midnightblue" d="M203.43,-50.62C188.64,-40.76 169.49,-27.99 156.98,-19.65"/>
<polygon fill="midnightblue" stroke="midnightblue" points="201.72,-53.69 211.99,-56.32 205.61,-47.86 201.72,-53.69"/>
</g>
</g>
</svg>
