<?xml version="1.0" encoding="UTF-8" standalone="no"?>
<!DOCTYPE svg PUBLIC "-//W3C//DTD SVG 1.1//EN"
 "http://www.w3.org/Graphics/SVG/1.1/DTD/svg11.dtd">
<!-- Generated by graphviz version 2.44.0 (0)
 -->
<!-- Title: CDPL::Base::DataOutputHandler&lt; T &gt; Pages: 1 -->
<!--zoomable 100 -->
<svg id="main" version="1.1" xmlns="http://www.w3.org/2000/svg" xmlns:xlink="http://www.w3.org/1999/xlink" xml:space="preserve" onload="init(evt)">
<style type="text/css"><![CDATA[
.edge:hover path { stroke: red; }
.edge:hover polygon { stroke: red; fill: red; }
]]></style>
<script type="text/javascript"><![CDATA[
var edges = document.getElementsByTagName('g');
if (edges && edges.length) {
  for (var i=0;i<edges.length;i++) {
    if (edges[i].id.substr(0,4)=='edge') {
      edges[i].setAttribute('class','edge');
    }
  }
}
]]></script>
        <defs>
                <circle id="rim" cx="0" cy="0" r="7"/>
                <circle id="rim2" cx="0" cy="0" r="3.5"/>
                <g id="zoomPlus">
                        <use xlink:href="#rim" fill="#404040">
                                <set attributeName="fill" to="#808080" begin="zoomplus.mouseover" end="zoomplus.mouseout"/>
                        </use>
                        <path d="M-4,0h8M0,-4v8" fill="none" stroke="white" stroke-width="1.5" pointer-events="none"/>
                </g>
                <g id="zoomMin">
                        <use xlink:href="#rim" fill="#404040">
                                <set attributeName="fill" to="#808080" begin="zoomminus.mouseover" end="zoomminus.mouseout"/>
                        </use>
                        <path d="M-4,0h8" fill="none" stroke="white" stroke-width="1.5" pointer-events="none"/>
                </g>
                <g id="dirArrow">
                        <path fill="none" stroke="white" stroke-width="1.5" d="M0,-3.0v7 M-2.5,-0.5L0,-3.0L2.5,-0.5"/>
                </g>
               <g id="resetDef">
                       <use xlink:href="#rim2" fill="#404040">
                               <set attributeName="fill" to="#808080" begin="reset.mouseover" end="reset.mouseout"/>
                       </use>
               </g>
        </defs>

<script type="text/javascript">
var viewWidth = 713;
var viewHeight = 100;
var sectionId = 'dynsection-0';
</script>
<script xlink:href="svgpan.js"/>
<svg id="graph" class="graph">
<g id="viewport">
<title>CDPL::Base::DataOutputHandler&lt; T &gt;</title>
<!-- Node1 -->
<g id="node1" class="node">
<title>Node1</title>
<g id="a_node1"><a xlink:title="A factory interface providing methods for the creation of Base::DataWriter instances handling a parti...">
<polygon fill="#bfbfbf" stroke="black" points="0,-32 0,-51 185,-51 185,-32 0,-32"/>
<text text-anchor="middle" x="92.5" y="-39" font-family="Helvetica" font-size="10.00">CDPL::Base::DataOutputHandler&lt; T &gt;</text>
</a>
</g>
</g>
<!-- Node2 -->
<g id="node2" class="node">
<title>Node2</title>
<g id="a_node2"><a xlink:href="classCDPL_1_1Base_1_1DataOutputHandler.html" target="_top" xlink:title=" ">
<polygon fill="none" stroke="black" points="343,-54.5 343,-84.5 515,-84.5 515,-54.5 343,-54.5"/>
<text text-anchor="start" x="351" y="-72.5" font-family="Helvetica" font-size="10.00">CDPL::Base::DataOutputHandler</text>
<text text-anchor="middle" x="429" y="-61.5" font-family="Helvetica" font-size="10.00">&lt; typename WriterImpl::DataType &gt;</text>
</a>
</g>
</g>
<!-- Node1&#45;&gt;Node2 -->
<g id="edge1" class="edge">
<title>Node1&#45;&gt;Node2</title>
<path fill="none" stroke="orange" stroke-dasharray="5,2" d="M195.59,-50.05C242.75,-53.99 298.1,-58.63 342.96,-62.38"/>
<polygon fill="orange" stroke="orange" points="195.6,-46.53 185.35,-49.19 195.02,-53.51 195.6,-46.53"/>
<text text-anchor="start" x="212.5" y="-73.5" font-family="Helvetica" font-size="10.00"> &lt; typename WriterImpl</text>
<text text-anchor="middle" x="264" y="-62.5" font-family="Helvetica" font-size="10.00">::DataType &gt;</text>
</g>
<!-- Node4 -->
<g id="node4" class="node">
<title>Node4</title>
<g id="a_node4"><a xlink:href="classCDPL_1_1Base_1_1DataOutputHandler.html" target="_top" xlink:title=" ">
<polygon fill="none" stroke="black" points="348.5,-2.5 348.5,-32.5 509.5,-32.5 509.5,-2.5 348.5,-2.5"/>
<text text-anchor="start" x="356.5" y="-20.5" font-family="Helvetica" font-size="10.00">CDPL::Base::DataOutputHandler</text>
<text text-anchor="middle" x="429" y="-9.5" font-family="Helvetica" font-size="10.00">&lt; Chem::MolecularGraph &gt;</text>
</a>
</g>
</g>
<!-- Node1&#45;&gt;Node4 -->
<g id="edge3" class="edge">
<title>Node1&#45;&gt;Node4</title>
<path fill="none" stroke="orange" stroke-dasharray="5,2" d="M186.03,-30.99C191.77,-30.45 197.46,-29.95 203,-29.5 251.15,-25.58 305.21,-22.65 348.27,-20.67"/>
<polygon fill="orange" stroke="orange" points="185.28,-27.55 175.67,-31.99 185.96,-34.51 185.28,-27.55"/>
<text text-anchor="middle" x="264" y="-32.5" font-family="Helvetica" font-size="10.00"> &lt; Chem::MolecularGraph &gt;</text>
</g>
<!-- Node3 -->
<g id="node3" class="node">
<title>Node3</title>
<g id="a_node3"><a xlink:href="classCDPL_1_1Util_1_1DefaultDataOutputHandler.html" target="_top" xlink:title="DefaultDataOutputHandler.">
<polygon fill="none" stroke="black" points="552,-50 552,-91 705,-91 705,-50 552,-50"/>
<text text-anchor="start" x="560" y="-79" font-family="Helvetica" font-size="10.00">CDPL::Util::DefaultDataOutput</text>
<text text-anchor="start" x="560" y="-68" font-family="Helvetica" font-size="10.00">Handler&lt; WriterImpl, FORMAT,</text>
<text text-anchor="middle" x="628.5" y="-57" font-family="Helvetica" font-size="10.00"> DataType &gt;</text>
</a>
</g>
</g>
<!-- Node2&#45;&gt;Node3 -->
<g id="edge2" class="edge">
<title>Node2&#45;&gt;Node3</title>
<path fill="none" stroke="midnightblue" d="M525.26,-69.98C534.2,-70.03 543.19,-70.07 551.92,-70.12"/>
<polygon fill="midnightblue" stroke="midnightblue" points="525.21,-66.48 515.19,-69.93 525.17,-73.48 525.21,-66.48"/>
</g>
<!-- Node5 -->
<g id="node5" class="node">
<title>Node5</title>
<g id="a_node5"><a xlink:href="classCDPL_1_1Pharm_1_1PSDMolecularGraphOutputHandler.html" target="_top" xlink:title="A handler for the output of molecular graph dara in the PSD&#45;format of the CDPL.">
<polygon fill="none" stroke="black" points="555.5,-0.5 555.5,-30.5 701.5,-30.5 701.5,-0.5 555.5,-0.5"/>
<text text-anchor="start" x="563.5" y="-18.5" font-family="Helvetica" font-size="10.00">CDPL::Pharm::PSDMolecular</text>
<text text-anchor="middle" x="628.5" y="-7.5" font-family="Helvetica" font-size="10.00">GraphOutputHandler</text>
</a>
</g>
</g>
<!-- Node4&#45;&gt;Node5 -->
<g id="edge4" class="edge">
<title>Node4&#45;&gt;Node5</title>
<path fill="none" stroke="midnightblue" d="M520.1,-16.59C531.93,-16.47 543.93,-16.35 555.41,-16.23"/>
<polygon fill="midnightblue" stroke="midnightblue" points="519.73,-13.09 509.76,-16.69 519.8,-20.09 519.73,-13.09"/>
</g>
</g>
</svg>
        <g id="navigator" transform="translate(0 0)" fill="#404254">
                <rect fill="#f2f5e9" fill-opacity="0.5" stroke="#606060" stroke-width=".5" x="0" y="0" width="60" height="60"/>
                <use id="zoomplus" xlink:href="#zoomPlus" x="17" y="9" onmousedown="handleZoom(evt,'in')"/>
                <use id="zoomminus" xlink:href="#zoomMin" x="42" y="9" onmousedown="handleZoom(evt,'out')"/>
                <use id="reset" xlink:href="#resetDef" x="30" y="36" onmousedown="handleReset()"/>
                <g id="arrowUp" xlink:href="#dirArrow" transform="translate(30 24)" onmousedown="handlePan(0,-1)">
                  <use xlink:href="#rim" fill="#404040">
                        <set attributeName="fill" to="#808080" begin="arrowUp.mouseover" end="arrowUp.mouseout"/>
                  </use>
                  <path fill="none" stroke="white" stroke-width="1.5" d="M0,-3.0v7 M-2.5,-0.5L0,-3.0L2.5,-0.5"/>
                </g>
                <g id="arrowRight" xlink:href="#dirArrow" transform="rotate(90) translate(36 -43)" onmousedown="handlePan(1,0)">
                  <use xlink:href="#rim" fill="#404040">
                        <set attributeName="fill" to="#808080" begin="arrowRight.mouseover" end="arrowRight.mouseout"/>
                  </use>
                  <path fill="none" stroke="white" stroke-width="1.5" d="M0,-3.0v7 M-2.5,-0.5L0,-3.0L2.5,-0.5"/>
                </g>
                <g id="arrowDown" xlink:href="#dirArrow" transform="rotate(180) translate(-30 -48)" onmousedown="handlePan(0,1)">
                  <use xlink:href="#rim" fill="#404040">
                        <set attributeName="fill" to="#808080" begin="arrowDown.mouseover" end="arrowDown.mouseout"/>
                  </use>
                  <path fill="none" stroke="white" stroke-width="1.5" d="M0,-3.0v7 M-2.5,-0.5L0,-3.0L2.5,-0.5"/>
                </g>
                <g id="arrowLeft" xlink:href="#dirArrow" transform="rotate(270) translate(-36 17)" onmousedown="handlePan(-1,0)">
                  <use xlink:href="#rim" fill="#404040">
                        <set attributeName="fill" to="#808080" begin="arrowLeft.mouseover" end="arrowLeft.mouseout"/>
                  </use>
                  <path fill="none" stroke="white" stroke-width="1.5" d="M0,-3.0v7 M-2.5,-0.5L0,-3.0L2.5,-0.5"/>
                </g>
        </g>
        <svg viewBox="0 0 15 15" width="100%" height="30px" preserveAspectRatio="xMaxYMin meet">
         <g id="arrow_out" transform="scale(0.3 0.3)">
          <a xlink:href="classCDPL_1_1Base_1_1DataOutputHandler__inherit__graph_org.svg" target="_base">
           <rect id="button" ry="5" rx="5" y="6" x="6" height="38" width="38"
                fill="#f2f5e9" fill-opacity="0.5" stroke="#606060" stroke-width="1.0"/>
           <path id="arrow"
             d="M 11.500037,31.436501 C 11.940474,20.09759 22.043105,11.32322 32.158766,21.979434 L 37.068811,17.246167 C 37.068811,17.246167 37.088388,32 37.088388,32 L 22.160133,31.978069 C 22.160133,31.978069 26.997745,27.140456 26.997745,27.140456 C 18.528582,18.264221 13.291696,25.230495 11.500037,31.436501 z"
             style="fill:#404040;"/>
          </a>
         </g>
        </svg>
</svg>
