<?xml version="1.0" encoding="UTF-8" standalone="no"?>
<!DOCTYPE svg PUBLIC "-//W3C//DTD SVG 1.1//EN"
 "http://www.w3.org/Graphics/SVG/1.1/DTD/svg11.dtd">
<!-- Generated by graphviz version 2.44.0 (0)
 -->
<!-- Title: CDPL::Math::Scalar2GridBinary&lt; E1, E2, F &gt; Pages: 1 -->
<svg width="267pt" height="253pt"
 viewBox="0.00 0.00 267.00 253.00" xmlns="http://www.w3.org/2000/svg" xmlns:xlink="http://www.w3.org/1999/xlink">
<g id="graph0" class="graph" transform="scale(1 1) rotate(0) translate(4 249)">
<title>CDPL::Math::Scalar2GridBinary&lt; E1, E2, F &gt;</title>
<!-- Node1 -->
<g id="node1" class="node">
<title>Node1</title>
<g id="a_node1"><a xlink:title=" ">
<polygon fill="#bfbfbf" stroke="black" points="1,-0.5 1,-30.5 157,-30.5 157,-0.5 1,-0.5"/>
<text text-anchor="start" x="9" y="-18.5" font-family="Helvetica" font-size="10.00">CDPL::Math::Scalar2GridBinary</text>
<text text-anchor="middle" x="79" y="-7.5" font-family="Helvetica" font-size="10.00">&lt; E1, E2, F &gt;</text>
</a>
</g>
</g>
<!-- Node2 -->
<g id="node2" class="node">
<title>Node2</title>
<g id="a_node2"><a xlink:href="classCDPL_1_1Math_1_1GridExpression.html" target="_top" xlink:title=" ">
<polygon fill="none" stroke="black" points="7.5,-68.5 7.5,-109.5 150.5,-109.5 150.5,-68.5 7.5,-68.5"/>
<text text-anchor="start" x="15.5" y="-97.5" font-family="Helvetica" font-size="10.00">CDPL::Math::GridExpression</text>
<text text-anchor="start" x="15.5" y="-86.5" font-family="Helvetica" font-size="10.00">&lt; Scalar2GridBinary&lt; E1,</text>
<text text-anchor="middle" x="79" y="-75.5" font-family="Helvetica" font-size="10.00"> E2, F &gt; &gt;</text>
</a>
</g>
</g>
<!-- Node2&#45;&gt;Node1 -->
<g id="edge1" class="edge">
<title>Node2&#45;&gt;Node1</title>
<path fill="none" stroke="midnightblue" d="M79,-58.16C79,-48.69 79,-38.65 79,-30.8"/>
<polygon fill="midnightblue" stroke="midnightblue" points="75.5,-58.46 79,-68.46 82.5,-58.46 75.5,-58.46"/>
</g>
<!-- Node3 -->
<g id="node3" class="node">
<title>Node3</title>
<g id="a_node3"><a xlink:href="classCDPL_1_1Math_1_1Expression.html" target="_top" xlink:title=" ">
<polygon fill="none" stroke="black" points="0,-225.5 0,-244.5 150,-244.5 150,-225.5 0,-225.5"/>
<text text-anchor="middle" x="75" y="-232.5" font-family="Helvetica" font-size="10.00">CDPL::Math::Expression&lt; E &gt;</text>
</a>
</g>
</g>
<!-- Node3&#45;&gt;Node2 -->
<g id="edge2" class="edge">
<title>Node3&#45;&gt;Node2</title>
<path fill="none" stroke="midnightblue" d="M75.52,-215.26C76.28,-187.92 77.69,-137.32 78.46,-109.53"/>
<polygon fill="midnightblue" stroke="midnightblue" points="72.02,-215.33 75.24,-225.42 79.01,-215.52 72.02,-215.33"/>
</g>
<!-- Node4 -->
<g id="node4" class="node">
<title>Node4</title>
<g id="a_node4"><a xlink:href="classCDPL_1_1Math_1_1GridExpression.html" target="_top" xlink:title=" ">
<polygon fill="none" stroke="black" points="91,-168.5 91,-187.5 259,-187.5 259,-168.5 91,-168.5"/>
<text text-anchor="middle" x="175" y="-175.5" font-family="Helvetica" font-size="10.00">CDPL::Math::GridExpression&lt; E &gt;</text>
</a>
</g>
</g>
<!-- Node3&#45;&gt;Node4 -->
<g id="edge4" class="edge">
<title>Node3&#45;&gt;Node4</title>
<path fill="none" stroke="midnightblue" d="M99.48,-220.54C118.21,-210.24 143.46,-196.35 159.48,-187.53"/>
<polygon fill="midnightblue" stroke="midnightblue" points="97.7,-217.52 90.62,-225.41 101.07,-223.65 97.7,-217.52"/>
</g>
<!-- Node4&#45;&gt;Node2 -->
<g id="edge3" class="edge">
<title>Node4&#45;&gt;Node2</title>
<path fill="none" stroke="orange" stroke-dasharray="5,2" d="M157.89,-161.5C141.93,-147.03 118.02,-125.37 100.72,-109.68"/>
<polygon fill="orange" stroke="orange" points="155.68,-164.22 165.44,-168.34 160.38,-159.03 155.68,-164.22"/>
<text text-anchor="start" x="143" y="-142" font-family="Helvetica" font-size="10.00"> &lt; Scalar2GridBinary</text>
<text text-anchor="middle" x="189" y="-131" font-family="Helvetica" font-size="10.00">&lt; E1, E2, F &gt; &gt;</text>
</g>
</g>
</svg>
