<?xml version="1.0" encoding="UTF-8" standalone="no"?>
<!DOCTYPE svg PUBLIC "-//W3C//DTD SVG 1.1//EN"
 "http://www.w3.org/Graphics/SVG/1.1/DTD/svg11.dtd">
<!-- Generated by graphviz version 2.44.0 (0)
 -->
<!-- Title: CDPL::Shape::GaussianShapeSet Pages: 1 -->
<svg width="980pt" height="75pt"
 viewBox="0.00 0.00 980.00 75.00" xmlns="http://www.w3.org/2000/svg" xmlns:xlink="http://www.w3.org/1999/xlink">
<g id="graph0" class="graph" transform="scale(1 1) rotate(0) translate(4 71)">
<title>CDPL::Shape::GaussianShapeSet</title>
<!-- Node1 -->
<g id="node1" class="node">
<title>Node1</title>
<g id="a_node1"><a xlink:title=" ">
<polygon fill="#bfbfbf" stroke="black" points="805,-36.5 805,-55.5 972,-55.5 972,-36.5 805,-36.5"/>
<text text-anchor="middle" x="888.5" y="-43.5" font-family="Helvetica" font-size="10.00">CDPL::Shape::GaussianShapeSet</text>
</a>
</g>
</g>
<!-- Node2 -->
<g id="node2" class="node">
<title>Node2</title>
<g id="a_node2"><a xlink:href="classCDPL_1_1Util_1_1IndirectArray.html" target="_top" xlink:title=" ">
<polygon fill="none" stroke="black" points="643,-31 643,-61 768,-61 768,-31 643,-31"/>
<text text-anchor="start" x="651" y="-49" font-family="Helvetica" font-size="10.00">CDPL::Util::IndirectArray</text>
<text text-anchor="middle" x="705.5" y="-38" font-family="Helvetica" font-size="10.00">&lt; GaussianShape &gt;</text>
</a>
</g>
</g>
<!-- Node2&#45;&gt;Node1 -->
<g id="edge1" class="edge">
<title>Node2&#45;&gt;Node1</title>
<path fill="none" stroke="midnightblue" d="M778.22,-46C787.01,-46 796.05,-46 804.98,-46"/>
<polygon fill="midnightblue" stroke="midnightblue" points="778.03,-42.5 768.03,-46 778.03,-49.5 778.03,-42.5"/>
</g>
<!-- Node3 -->
<g id="node3" class="node">
<title>Node3</title>
<g id="a_node3"><a xlink:href="classCDPL_1_1Util_1_1Array.html" target="_top" xlink:title=" ">
<polygon fill="none" stroke="black" points="238,-24.5 238,-65.5 348,-65.5 348,-24.5 238,-24.5"/>
<text text-anchor="start" x="246" y="-53.5" font-family="Helvetica" font-size="10.00">CDPL::Util::Array&lt;</text>
<text text-anchor="start" x="246" y="-42.5" font-family="Helvetica" font-size="10.00"> typename ValueType</text>
<text text-anchor="middle" x="293" y="-31.5" font-family="Helvetica" font-size="10.00">::SharedPointer &gt;</text>
</a>
</g>
</g>
<!-- Node3&#45;&gt;Node2 -->
<g id="edge2" class="edge">
<title>Node3&#45;&gt;Node2</title>
<path fill="none" stroke="midnightblue" d="M358.36,-49.66C367.31,-50.19 376.38,-50.66 385,-51 491.59,-55.23 518.43,-57.68 625,-53 630.81,-52.74 636.86,-52.38 642.91,-51.96"/>
<polygon fill="midnightblue" stroke="midnightblue" points="358.55,-46.17 348.35,-49.05 358.12,-53.16 358.55,-46.17"/>
</g>
<!-- Node5 -->
<g id="node5" class="node">
<title>Node5</title>
<g id="a_node5"><a xlink:href="classCDPL_1_1Util_1_1IndirectArray.html" target="_top" xlink:title="A dynamic array class for the storage of object pointers with an indirected query interface.">
<polygon fill="none" stroke="black" points="385,-0.5 385,-41.5 516,-41.5 516,-0.5 385,-0.5"/>
<text text-anchor="start" x="393" y="-29.5" font-family="Helvetica" font-size="10.00">CDPL::Util::IndirectArray</text>
<text text-anchor="start" x="393" y="-18.5" font-family="Helvetica" font-size="10.00">&lt; ValueType, PointerType,</text>
<text text-anchor="middle" x="450.5" y="-7.5" font-family="Helvetica" font-size="10.00"> NullPointerCheck &gt;</text>
</a>
</g>
</g>
<!-- Node3&#45;&gt;Node5 -->
<g id="edge5" class="edge">
<title>Node3&#45;&gt;Node5</title>
<path fill="none" stroke="midnightblue" d="M358.52,-35.04C367.27,-33.69 376.25,-32.31 385,-30.96"/>
<polygon fill="midnightblue" stroke="midnightblue" points="357.74,-31.62 348.39,-36.61 358.8,-38.54 357.74,-31.62"/>
</g>
<!-- Node4 -->
<g id="node4" class="node">
<title>Node4</title>
<g id="a_node4"><a xlink:href="classCDPL_1_1Util_1_1Array.html" target="_top" xlink:title="A dynamic array class providing amortized constant time access to arbitrary elements.">
<polygon fill="none" stroke="black" points="0,-30 0,-60 99,-60 99,-30 0,-30"/>
<text text-anchor="start" x="8" y="-48" font-family="Helvetica" font-size="10.00">CDPL::Util::Array&lt;</text>
<text text-anchor="middle" x="49.5" y="-37" font-family="Helvetica" font-size="10.00"> ValueType &gt;</text>
</a>
</g>
</g>
<!-- Node4&#45;&gt;Node3 -->
<g id="edge3" class="edge">
<title>Node4&#45;&gt;Node3</title>
<path fill="none" stroke="orange" stroke-dasharray="5,2" d="M109.27,-45C148.39,-45 199.41,-45 237.6,-45"/>
<polygon fill="orange" stroke="orange" points="109.08,-41.5 99.08,-45 109.08,-48.5 109.08,-41.5"/>
<text text-anchor="start" x="117" y="-59" font-family="Helvetica" font-size="10.00"> &lt; typename ValueType</text>
<text text-anchor="middle" x="168.5" y="-48" font-family="Helvetica" font-size="10.00">::SharedPointer &gt;</text>
</g>
<!-- Node5&#45;&gt;Node2 -->
<g id="edge4" class="edge">
<title>Node5&#45;&gt;Node2</title>
<path fill="none" stroke="orange" stroke-dasharray="5,2" d="M526.58,-28.42C563.66,-32.08 607.84,-36.45 642.89,-39.91"/>
<polygon fill="orange" stroke="orange" points="526.62,-24.91 516.33,-27.41 525.93,-31.87 526.62,-24.91"/>
<text text-anchor="middle" x="579.5" y="-41" font-family="Helvetica" font-size="10.00"> &lt; GaussianShape &gt;</text>
</g>
</g>
</svg>
