<?xml version="1.0" encoding="UTF-8" standalone="no"?>
<!DOCTYPE svg PUBLIC "-//W3C//DTD SVG 1.1//EN"
 "http://www.w3.org/Graphics/SVG/1.1/DTD/svg11.dtd">
<!-- Generated by graphviz version 2.44.0 (0)
 -->
<!-- Title: CDPL::Math::Grid&lt; T, A &gt; Pages: 1 -->
<svg width="289pt" height="366pt"
 viewBox="0.00 0.00 288.50 366.00" xmlns="http://www.w3.org/2000/svg" xmlns:xlink="http://www.w3.org/1999/xlink">
<g id="graph0" class="graph" transform="scale(1 1) rotate(0) translate(4 362)">
<title>CDPL::Math::Grid&lt; T, A &gt;</title>
<!-- Node1 -->
<g id="node1" class="node">
<title>Node1</title>
<g id="a_node1"><a xlink:title=" ">
<polygon fill="#bfbfbf" stroke="black" points="33.5,-0.5 33.5,-19.5 164.5,-19.5 164.5,-0.5 33.5,-0.5"/>
<text text-anchor="middle" x="99" y="-7.5" font-family="Helvetica" font-size="10.00">CDPL::Math::Grid&lt; T, A &gt;</text>
</a>
</g>
</g>
<!-- Node2 -->
<g id="node2" class="node">
<title>Node2</title>
<g id="a_node2"><a xlink:href="classCDPL_1_1Math_1_1GridContainer.html" target="_top" xlink:title=" ">
<polygon fill="none" stroke="black" points="30.5,-57.5 30.5,-98.5 167.5,-98.5 167.5,-57.5 30.5,-57.5"/>
<text text-anchor="start" x="38.5" y="-86.5" font-family="Helvetica" font-size="10.00">CDPL::Math::GridContainer</text>
<text text-anchor="start" x="38.5" y="-75.5" font-family="Helvetica" font-size="10.00">&lt; Grid&lt; T, std::vector</text>
<text text-anchor="middle" x="99" y="-64.5" font-family="Helvetica" font-size="10.00">&lt; T &gt; &gt; &gt;</text>
</a>
</g>
</g>
<!-- Node2&#45;&gt;Node1 -->
<g id="edge1" class="edge">
<title>Node2&#45;&gt;Node1</title>
<path fill="none" stroke="midnightblue" d="M99,-47.12C99,-37.17 99,-26.84 99,-19.79"/>
<polygon fill="midnightblue" stroke="midnightblue" points="95.5,-47.2 99,-57.2 102.5,-47.2 95.5,-47.2"/>
</g>
<!-- Node3 -->
<g id="node3" class="node">
<title>Node3</title>
<g id="a_node3"><a xlink:href="classCDPL_1_1Math_1_1GridExpression.html" target="_top" xlink:title=" ">
<polygon fill="none" stroke="black" points="0,-281.5 0,-300.5 168,-300.5 168,-281.5 0,-281.5"/>
<text text-anchor="middle" x="84" y="-288.5" font-family="Helvetica" font-size="10.00">CDPL::Math::GridExpression&lt; E &gt;</text>
</a>
</g>
</g>
<!-- Node3&#45;&gt;Node2 -->
<g id="edge2" class="edge">
<title>Node3&#45;&gt;Node2</title>
<path fill="none" stroke="midnightblue" d="M85.32,-271.37C88.14,-231.73 94.71,-139.33 97.6,-98.73"/>
<polygon fill="midnightblue" stroke="midnightblue" points="81.82,-271.24 84.61,-281.47 88.81,-271.74 81.82,-271.24"/>
</g>
<!-- Node6 -->
<g id="node6" class="node">
<title>Node6</title>
<g id="a_node6"><a xlink:href="classCDPL_1_1Math_1_1GridExpression.html" target="_top" xlink:title=" ">
<polygon fill="none" stroke="black" points="111.5,-214.5 111.5,-233.5 280.5,-233.5 280.5,-214.5 111.5,-214.5"/>
<text text-anchor="middle" x="196" y="-221.5" font-family="Helvetica" font-size="10.00">CDPL::Math::GridExpression&lt; C &gt;</text>
</a>
</g>
</g>
<!-- Node3&#45;&gt;Node6 -->
<g id="edge7" class="edge">
<title>Node3&#45;&gt;Node6</title>
<path fill="none" stroke="orange" stroke-dasharray="5,2" d="M107.92,-276.12C130.11,-263.24 162.44,-244.48 181.13,-233.63"/>
<polygon fill="orange" stroke="orange" points="106,-273.19 99.1,-281.23 109.51,-279.24 106,-273.19"/>
<text text-anchor="middle" x="160.5" y="-255" font-family="Helvetica" font-size="10.00"> &lt; C &gt;</text>
</g>
<!-- Node4 -->
<g id="node4" class="node">
<title>Node4</title>
<g id="a_node4"><a xlink:href="classCDPL_1_1Math_1_1Expression.html" target="_top" xlink:title=" ">
<polygon fill="none" stroke="black" points="65,-338.5 65,-357.5 215,-357.5 215,-338.5 65,-338.5"/>
<text text-anchor="middle" x="140" y="-345.5" font-family="Helvetica" font-size="10.00">CDPL::Math::Expression&lt; E &gt;</text>
</a>
</g>
</g>
<!-- Node4&#45;&gt;Node3 -->
<g id="edge3" class="edge">
<title>Node4&#45;&gt;Node3</title>
<path fill="none" stroke="midnightblue" d="M123.83,-331.12C113.76,-321.22 101.17,-308.86 92.87,-300.71"/>
<polygon fill="midnightblue" stroke="midnightblue" points="121.66,-333.9 131.25,-338.41 126.57,-328.9 121.66,-333.9"/>
</g>
<!-- Node4&#45;&gt;Node6 -->
<g id="edge6" class="edge">
<title>Node4&#45;&gt;Node6</title>
<path fill="none" stroke="midnightblue" d="M155.88,-330.86C163.27,-322.54 171.6,-311.88 177,-301 188.26,-278.35 193.19,-248.49 195.04,-233.86"/>
<polygon fill="midnightblue" stroke="midnightblue" points="153.19,-328.61 148.95,-338.31 158.32,-333.37 153.19,-328.61"/>
</g>
<!-- Node5 -->
<g id="node5" class="node">
<title>Node5</title>
<g id="a_node5"><a xlink:href="classCDPL_1_1Math_1_1GridContainer.html" target="_top" xlink:title=" ">
<polygon fill="none" stroke="black" points="113,-157.5 113,-176.5 275,-176.5 275,-157.5 113,-157.5"/>
<text text-anchor="middle" x="194" y="-164.5" font-family="Helvetica" font-size="10.00">CDPL::Math::GridContainer&lt; C &gt;</text>
</a>
</g>
</g>
<!-- Node5&#45;&gt;Node2 -->
<g id="edge4" class="edge">
<title>Node5&#45;&gt;Node2</title>
<path fill="none" stroke="orange" stroke-dasharray="5,2" d="M177.07,-150.5C161.27,-136.03 137.62,-114.37 120.49,-98.68"/>
<polygon fill="orange" stroke="orange" points="174.81,-153.17 184.54,-157.34 179.53,-148.01 174.81,-153.17"/>
<text text-anchor="start" x="163" y="-131" font-family="Helvetica" font-size="10.00"> &lt; Grid&lt; T, std::vector</text>
<text text-anchor="middle" x="211.5" y="-120" font-family="Helvetica" font-size="10.00">&lt; T &gt; &gt; &gt;</text>
</g>
<!-- Node6&#45;&gt;Node5 -->
<g id="edge5" class="edge">
<title>Node6&#45;&gt;Node5</title>
<path fill="none" stroke="midnightblue" d="M195.31,-204.12C194.98,-194.82 194.58,-184.06 194.32,-176.71"/>
<polygon fill="midnightblue" stroke="midnightblue" points="191.83,-204.54 195.69,-214.41 198.82,-204.29 191.83,-204.54"/>
</g>
</g>
</svg>
