<?xml version="1.0" encoding="UTF-8" standalone="no"?>
<!DOCTYPE svg PUBLIC "-//W3C//DTD SVG 1.1//EN"
 "http://www.w3.org/Graphics/SVG/1.1/DTD/svg11.dtd">
<!-- Generated by graphviz version 2.44.0 (0)
 -->
<!-- Title: CDPL::Math::MatrixColumn&lt; M &gt; Pages: 1 -->
<svg width="280pt" height="220pt"
 viewBox="0.00 0.00 280.00 220.00" xmlns="http://www.w3.org/2000/svg" xmlns:xlink="http://www.w3.org/1999/xlink">
<g id="graph0" class="graph" transform="scale(1 1) rotate(0) translate(4 216)">
<title>CDPL::Math::MatrixColumn&lt; M &gt;</title>
<!-- Node1 -->
<g id="node1" class="node">
<title>Node1</title>
<g id="a_node1"><a xlink:title=" ">
<polygon fill="#bfbfbf" stroke="black" points="0,-0.5 0,-19.5 164,-19.5 164,-0.5 0,-0.5"/>
<text text-anchor="middle" x="82" y="-7.5" font-family="Helvetica" font-size="10.00">CDPL::Math::MatrixColumn&lt; M &gt;</text>
</a>
</g>
</g>
<!-- Node2 -->
<g id="node2" class="node">
<title>Node2</title>
<g id="a_node2"><a xlink:href="classCDPL_1_1Math_1_1VectorExpression.html" target="_top" xlink:title=" ">
<polygon fill="none" stroke="black" points="5.5,-57.5 5.5,-87.5 158.5,-87.5 158.5,-57.5 5.5,-57.5"/>
<text text-anchor="start" x="13.5" y="-75.5" font-family="Helvetica" font-size="10.00">CDPL::Math::VectorExpression</text>
<text text-anchor="middle" x="82" y="-64.5" font-family="Helvetica" font-size="10.00">&lt; MatrixColumn&lt; M &gt; &gt;</text>
</a>
</g>
</g>
<!-- Node2&#45;&gt;Node1 -->
<g id="edge1" class="edge">
<title>Node2&#45;&gt;Node1</title>
<path fill="none" stroke="midnightblue" d="M82,-47.35C82,-37.51 82,-26.78 82,-19.54"/>
<polygon fill="midnightblue" stroke="midnightblue" points="78.5,-47.47 82,-57.47 85.5,-47.47 78.5,-47.47"/>
</g>
<!-- Node3 -->
<g id="node3" class="node">
<title>Node3</title>
<g id="a_node3"><a xlink:href="classCDPL_1_1Math_1_1Expression.html" target="_top" xlink:title=" ">
<polygon fill="none" stroke="black" points="3,-192.5 3,-211.5 153,-211.5 153,-192.5 3,-192.5"/>
<text text-anchor="middle" x="78" y="-199.5" font-family="Helvetica" font-size="10.00">CDPL::Math::Expression&lt; E &gt;</text>
</a>
</g>
</g>
<!-- Node3&#45;&gt;Node2 -->
<g id="edge2" class="edge">
<title>Node3&#45;&gt;Node2</title>
<path fill="none" stroke="midnightblue" d="M78.6,-181.9C79.41,-156.05 80.84,-110.54 81.56,-87.59"/>
<polygon fill="midnightblue" stroke="midnightblue" points="75.09,-182.13 78.27,-192.24 82.09,-182.35 75.09,-182.13"/>
</g>
<!-- Node4 -->
<g id="node4" class="node">
<title>Node4</title>
<g id="a_node4"><a xlink:href="classCDPL_1_1Math_1_1VectorExpression.html" target="_top" xlink:title=" ">
<polygon fill="none" stroke="black" points="94,-135.5 94,-154.5 272,-154.5 272,-135.5 94,-135.5"/>
<text text-anchor="middle" x="183" y="-142.5" font-family="Helvetica" font-size="10.00">CDPL::Math::VectorExpression&lt; E &gt;</text>
</a>
</g>
</g>
<!-- Node3&#45;&gt;Node4 -->
<g id="edge4" class="edge">
<title>Node3&#45;&gt;Node4</title>
<path fill="none" stroke="midnightblue" d="M103.44,-187.68C123.12,-177.36 149.8,-163.39 166.71,-154.53"/>
<polygon fill="midnightblue" stroke="midnightblue" points="101.64,-184.67 94.41,-192.41 104.89,-190.87 101.64,-184.67"/>
</g>
<!-- Node4&#45;&gt;Node2 -->
<g id="edge3" class="edge">
<title>Node4&#45;&gt;Node2</title>
<path fill="none" stroke="orange" stroke-dasharray="5,2" d="M162.18,-129.47C144.59,-117.19 119.56,-99.72 102.17,-87.58"/>
<polygon fill="orange" stroke="orange" points="160.41,-132.5 170.62,-135.36 164.42,-126.76 160.41,-132.5"/>
<text text-anchor="middle" x="195.5" y="-109" font-family="Helvetica" font-size="10.00"> &lt; MatrixColumn&lt; M &gt; &gt;</text>
</g>
</g>
</svg>
