<?xml version="1.0" encoding="UTF-8" standalone="no"?>
<!DOCTYPE svg PUBLIC "-//W3C//DTD SVG 1.1//EN"
 "http://www.w3.org/Graphics/SVG/1.1/DTD/svg11.dtd">
<!-- Generated by graphviz version 2.44.0 (0)
 -->
<!-- Title: CDPL::Vis::ColorTable Pages: 1 -->
<svg width="164pt" height="185pt"
 viewBox="0.00 0.00 164.00 185.00" xmlns="http://www.w3.org/2000/svg" xmlns:xlink="http://www.w3.org/1999/xlink">
<g id="graph0" class="graph" transform="scale(1 1) rotate(0) translate(4 181)">
<title>CDPL::Vis::ColorTable</title>
<!-- Node1 -->
<g id="node1" class="node">
<title>Node1</title>
<g id="a_node1"><a xlink:title="A container for the storage and lookup of Vis::Color objects that are associated with a numeric ident...">
<polygon fill="#bfbfbf" stroke="black" points="3,-0.5 3,-19.5 119,-19.5 119,-0.5 3,-0.5"/>
<text text-anchor="middle" x="61" y="-7.5" font-family="Helvetica" font-size="10.00">CDPL::Vis::ColorTable</text>
</a>
</g>
</g>
<!-- Node2 -->
<g id="node2" class="node">
<title>Node2</title>
<g id="a_node2"><a xlink:href="classCDPL_1_1Util_1_1Map.html" target="_top" xlink:title=" ">
<polygon fill="none" stroke="black" points="5.5,-57.5 5.5,-87.5 116.5,-87.5 116.5,-57.5 5.5,-57.5"/>
<text text-anchor="start" x="13.5" y="-75.5" font-family="Helvetica" font-size="10.00">CDPL::Util::Map&lt; std</text>
<text text-anchor="middle" x="61" y="-64.5" font-family="Helvetica" font-size="10.00">::size_t, Color &gt;</text>
</a>
</g>
</g>
<!-- Node2&#45;&gt;Node1 -->
<g id="edge1" class="edge">
<title>Node2&#45;&gt;Node1</title>
<path fill="none" stroke="midnightblue" d="M61,-47.35C61,-37.51 61,-26.78 61,-19.54"/>
<polygon fill="midnightblue" stroke="midnightblue" points="57.5,-47.47 61,-57.47 64.5,-47.47 57.5,-47.47"/>
</g>
<!-- Node3 -->
<g id="node3" class="node">
<title>Node3</title>
<g id="a_node3"><a xlink:href="classCDPL_1_1Util_1_1Map.html" target="_top" xlink:title="A unique sorted associative container that maps keys to values.">
<polygon fill="none" stroke="black" points="0,-135.5 0,-176.5 122,-176.5 122,-135.5 0,-135.5"/>
<text text-anchor="start" x="8" y="-164.5" font-family="Helvetica" font-size="10.00">CDPL::Util::Map&lt; Key,</text>
<text text-anchor="start" x="8" y="-153.5" font-family="Helvetica" font-size="10.00"> Value, AllowDefValues,</text>
<text text-anchor="middle" x="61" y="-142.5" font-family="Helvetica" font-size="10.00"> KeyCompFunc &gt;</text>
</a>
</g>
</g>
<!-- Node3&#45;&gt;Node2 -->
<g id="edge2" class="edge">
<title>Node3&#45;&gt;Node2</title>
<path fill="none" stroke="orange" stroke-dasharray="5,2" d="M61,-125.03C61,-112.26 61,-97.97 61,-87.68"/>
<polygon fill="orange" stroke="orange" points="57.5,-125.27 61,-135.27 64.5,-125.27 57.5,-125.27"/>
<text text-anchor="middle" x="108.5" y="-109" font-family="Helvetica" font-size="10.00"> &lt; std::size_t, Color &gt;</text>
</g>
</g>
</svg>
