<?xml version="1.0" encoding="UTF-8" standalone="no"?>
<!DOCTYPE svg PUBLIC "-//W3C//DTD SVG 1.1//EN"
 "http://www.w3.org/Graphics/SVG/1.1/DTD/svg11.dtd">
<!-- Generated by graphviz version 2.44.0 (0)
 -->
<!-- Title: CDPL::Util::FileDataWriter&lt; WriterImpl, DataType &gt; Pages: 1 -->
<svg width="250pt" height="321pt"
 viewBox="0.00 0.00 250.00 321.00" xmlns="http://www.w3.org/2000/svg" xmlns:xlink="http://www.w3.org/1999/xlink">
<g id="graph0" class="graph" transform="scale(1 1) rotate(0) translate(4 317)">
<title>CDPL::Util::FileDataWriter&lt; WriterImpl, DataType &gt;</title>
<!-- Node1 -->
<g id="node1" class="node">
<title>Node1</title>
<g id="a_node1"><a xlink:title="FileDataWriter.">
<polygon fill="#bfbfbf" stroke="black" points="15.5,-0.5 15.5,-30.5 146.5,-30.5 146.5,-0.5 15.5,-0.5"/>
<text text-anchor="start" x="23.5" y="-18.5" font-family="Helvetica" font-size="10.00">CDPL::Util::FileDataWriter</text>
<text text-anchor="middle" x="81" y="-7.5" font-family="Helvetica" font-size="10.00">&lt; WriterImpl, DataType &gt;</text>
</a>
</g>
</g>
<!-- Node2 -->
<g id="node2" class="node">
<title>Node2</title>
<g id="a_node2"><a xlink:href="classCDPL_1_1Base_1_1DataWriter.html" target="_top" xlink:title=" ">
<polygon fill="none" stroke="black" points="19.5,-68.5 19.5,-109.5 142.5,-109.5 142.5,-68.5 19.5,-68.5"/>
<text text-anchor="start" x="27.5" y="-97.5" font-family="Helvetica" font-size="10.00">CDPL::Base::DataWriter</text>
<text text-anchor="start" x="27.5" y="-86.5" font-family="Helvetica" font-size="10.00">&lt; typename WriterImpl</text>
<text text-anchor="middle" x="81" y="-75.5" font-family="Helvetica" font-size="10.00">::DataType &gt;</text>
</a>
</g>
</g>
<!-- Node2&#45;&gt;Node1 -->
<g id="edge1" class="edge">
<title>Node2&#45;&gt;Node1</title>
<path fill="none" stroke="midnightblue" d="M81,-58.16C81,-48.69 81,-38.65 81,-30.8"/>
<polygon fill="midnightblue" stroke="midnightblue" points="77.5,-58.46 81,-68.46 84.5,-58.46 77.5,-58.46"/>
</g>
<!-- Node3 -->
<g id="node3" class="node">
<title>Node3</title>
<g id="a_node3"><a xlink:href="classCDPL_1_1Base_1_1DataIOBase.html" target="_top" xlink:title="Provides infrastructure for the registration of I/O callback functions.">
<polygon fill="none" stroke="black" points="11.5,-225.5 11.5,-244.5 142.5,-244.5 142.5,-225.5 11.5,-225.5"/>
<text text-anchor="middle" x="77" y="-232.5" font-family="Helvetica" font-size="10.00">CDPL::Base::DataIOBase</text>
</a>
</g>
</g>
<!-- Node3&#45;&gt;Node2 -->
<g id="edge2" class="edge">
<title>Node3&#45;&gt;Node2</title>
<path fill="none" stroke="midnightblue" d="M77.52,-215.26C78.28,-187.92 79.69,-137.32 80.46,-109.53"/>
<polygon fill="midnightblue" stroke="midnightblue" points="74.02,-215.33 77.24,-225.42 81.01,-215.52 74.02,-215.33"/>
</g>
<!-- Node5 -->
<g id="node5" class="node">
<title>Node5</title>
<g id="a_node5"><a xlink:href="classCDPL_1_1Base_1_1DataWriter.html" target="_top" xlink:title="An interface for writing data objects of a given type to an arbitrary data sink.">
<polygon fill="none" stroke="black" points="93.5,-168.5 93.5,-187.5 240.5,-187.5 240.5,-168.5 93.5,-168.5"/>
<text text-anchor="middle" x="167" y="-175.5" font-family="Helvetica" font-size="10.00">CDPL::Base::DataWriter&lt; T &gt;</text>
</a>
</g>
</g>
<!-- Node3&#45;&gt;Node5 -->
<g id="edge5" class="edge">
<title>Node3&#45;&gt;Node5</title>
<path fill="none" stroke="midnightblue" d="M99.73,-220.11C116.51,-209.86 138.81,-196.23 153.04,-187.53"/>
<polygon fill="midnightblue" stroke="midnightblue" points="97.77,-217.21 91.06,-225.41 101.42,-223.18 97.77,-217.21"/>
</g>
<!-- Node4 -->
<g id="node4" class="node">
<title>Node4</title>
<g id="a_node4"><a xlink:href="classCDPL_1_1Base_1_1ControlParameterContainer.html" target="_top" xlink:title="A class providing methods for the storage and lookup of control&#45;parameter values.">
<polygon fill="none" stroke="black" points="0,-282.5 0,-312.5 154,-312.5 154,-282.5 0,-282.5"/>
<text text-anchor="start" x="8" y="-300.5" font-family="Helvetica" font-size="10.00">CDPL::Base::ControlParameter</text>
<text text-anchor="middle" x="77" y="-289.5" font-family="Helvetica" font-size="10.00">Container</text>
</a>
</g>
</g>
<!-- Node4&#45;&gt;Node3 -->
<g id="edge3" class="edge">
<title>Node4&#45;&gt;Node3</title>
<path fill="none" stroke="midnightblue" d="M77,-272.35C77,-262.51 77,-251.78 77,-244.54"/>
<polygon fill="midnightblue" stroke="midnightblue" points="73.5,-272.47 77,-282.47 80.5,-272.47 73.5,-272.47"/>
</g>
<!-- Node5&#45;&gt;Node2 -->
<g id="edge4" class="edge">
<title>Node5&#45;&gt;Node2</title>
<path fill="none" stroke="orange" stroke-dasharray="5,2" d="M151.28,-161.1C136.98,-146.63 115.82,-125.22 100.45,-109.68"/>
<polygon fill="orange" stroke="orange" points="148.92,-163.69 158.44,-168.34 153.9,-158.77 148.92,-163.69"/>
<text text-anchor="start" x="139" y="-142" font-family="Helvetica" font-size="10.00"> &lt; typename WriterImpl</text>
<text text-anchor="middle" x="190.5" y="-131" font-family="Helvetica" font-size="10.00">::DataType &gt;</text>
</g>
</g>
</svg>
