<?xml version="1.0" encoding="UTF-8" standalone="no"?>
<!DOCTYPE svg PUBLIC "-//W3C//DTD SVG 1.1//EN"
 "http://www.w3.org/Graphics/SVG/1.1/DTD/svg11.dtd">
<!-- Generated by graphviz version 2.44.0 (0)
 -->
<!-- Title: CDPL::Vis::PointArray2D Pages: 1 -->
<svg width="473pt" height="154pt"
 viewBox="0.00 0.00 473.00 153.50" xmlns="http://www.w3.org/2000/svg" xmlns:xlink="http://www.w3.org/1999/xlink">
<g id="graph0" class="graph" transform="scale(1 1) rotate(0) translate(4 149.5)">
<title>CDPL::Vis::PointArray2D</title>
<!-- Node1 -->
<g id="node1" class="node">
<title>Node1</title>
<g id="a_node1"><a xlink:title="Stores a set of points in 2D space.">
<polygon fill="#bfbfbf" stroke="black" points="143,-57.5 143,-76.5 271,-76.5 271,-57.5 143,-57.5"/>
<text text-anchor="middle" x="207" y="-64.5" font-family="Helvetica" font-size="10.00">CDPL::Vis::PointArray2D</text>
</a>
</g>
</g>
<!-- Node3 -->
<g id="node3" class="node">
<title>Node3</title>
<g id="a_node3"><a xlink:href="classCDPL_1_1Vis_1_1LineSegmentListPrimitive2D.html" target="_top" xlink:title="A graphics primitive representing a list of disjoint line segments.">
<polygon fill="none" stroke="black" points="315,-115 315,-145 457,-145 457,-115 315,-115"/>
<text text-anchor="start" x="323" y="-133" font-family="Helvetica" font-size="10.00">CDPL::Vis::LineSegmentList</text>
<text text-anchor="middle" x="386" y="-122" font-family="Helvetica" font-size="10.00">Primitive2D</text>
</a>
</g>
</g>
<!-- Node1&#45;&gt;Node3 -->
<g id="edge2" class="edge">
<title>Node1&#45;&gt;Node3</title>
<path fill="none" stroke="midnightblue" d="M241.33,-80.33C260.45,-87.84 284.96,-97.25 307,-105 316.52,-108.35 326.76,-111.77 336.59,-114.95"/>
<polygon fill="midnightblue" stroke="midnightblue" points="242.45,-77.01 231.87,-76.59 239.88,-83.52 242.45,-77.01"/>
</g>
<!-- Node4 -->
<g id="node4" class="node">
<title>Node4</title>
<g id="a_node4"><a xlink:href="classCDPL_1_1Vis_1_1PointListPrimitive2D.html" target="_top" xlink:title="A graphics primitive representing a list of points.">
<polygon fill="none" stroke="black" points="307,-76.5 307,-95.5 465,-95.5 465,-76.5 307,-76.5"/>
<text text-anchor="middle" x="386" y="-83.5" font-family="Helvetica" font-size="10.00">CDPL::Vis::PointListPrimitive2D</text>
</a>
</g>
</g>
<!-- Node1&#45;&gt;Node4 -->
<g id="edge3" class="edge">
<title>Node1&#45;&gt;Node4</title>
<path fill="none" stroke="midnightblue" d="M281.51,-74.89C289.9,-75.79 298.46,-76.71 306.9,-77.62"/>
<polygon fill="midnightblue" stroke="midnightblue" points="281.72,-71.39 271.4,-73.81 280.97,-78.35 281.72,-71.39"/>
</g>
<!-- Node5 -->
<g id="node5" class="node">
<title>Node5</title>
<g id="a_node5"><a xlink:href="classCDPL_1_1Vis_1_1PolygonPrimitive2D.html" target="_top" xlink:title="A graphics primitive representing a polygon.">
<polygon fill="none" stroke="black" points="309,-38.5 309,-57.5 463,-57.5 463,-38.5 309,-38.5"/>
<text text-anchor="middle" x="386" y="-45.5" font-family="Helvetica" font-size="10.00">CDPL::Vis::PolygonPrimitive2D</text>
</a>
</g>
</g>
<!-- Node1&#45;&gt;Node5 -->
<g id="edge4" class="edge">
<title>Node1&#45;&gt;Node5</title>
<path fill="none" stroke="midnightblue" d="M281.46,-59.11C290.47,-58.15 299.69,-57.16 308.74,-56.19"/>
<polygon fill="midnightblue" stroke="midnightblue" points="280.97,-55.65 271.4,-60.19 281.72,-62.61 280.97,-55.65"/>
</g>
<!-- Node6 -->
<g id="node6" class="node">
<title>Node6</title>
<g id="a_node6"><a xlink:href="classCDPL_1_1Vis_1_1PolylinePrimitive2D.html" target="_top" xlink:title="A graphics primitive representing a set of connected line segments.">
<polygon fill="none" stroke="black" points="309,-0.5 309,-19.5 463,-19.5 463,-0.5 309,-0.5"/>
<text text-anchor="middle" x="386" y="-7.5" font-family="Helvetica" font-size="10.00">CDPL::Vis::PolylinePrimitive2D</text>
</a>
</g>
</g>
<!-- Node1&#45;&gt;Node6 -->
<g id="edge5" class="edge">
<title>Node1&#45;&gt;Node6</title>
<path fill="none" stroke="midnightblue" d="M239.99,-53.53C259.2,-45.74 284.25,-36.1 307,-29 318.04,-25.55 330.12,-22.34 341.41,-19.58"/>
<polygon fill="midnightblue" stroke="midnightblue" points="238.44,-50.38 230.52,-57.41 241.1,-56.86 238.44,-50.38"/>
</g>
<!-- Node2 -->
<g id="node2" class="node">
<title>Node2</title>
<g id="a_node2"><a xlink:title=" ">
<polygon fill="none" stroke="#bfbfbf" points="0,-57.5 0,-76.5 107,-76.5 107,-57.5 0,-57.5"/>
<text text-anchor="middle" x="53.5" y="-64.5" font-family="Helvetica" font-size="10.00">Math::Vector2DArray</text>
</a>
</g>
</g>
<!-- Node2&#45;&gt;Node1 -->
<g id="edge1" class="edge">
<title>Node2&#45;&gt;Node1</title>
<path fill="none" stroke="midnightblue" d="M117.24,-67C125.69,-67 134.37,-67 142.84,-67"/>
<polygon fill="midnightblue" stroke="midnightblue" points="117.06,-63.5 107.06,-67 117.06,-70.5 117.06,-63.5"/>
</g>
</g>
</svg>
