<?xml version="1.0" encoding="UTF-8" standalone="no"?>
<!DOCTYPE svg PUBLIC "-//W3C//DTD SVG 1.1//EN"
 "http://www.w3.org/Graphics/SVG/1.1/DTD/svg11.dtd">
<!-- Generated by graphviz version 2.44.0 (0)
 -->
<!-- Title: CDPL::Math::RegularSpatialGrid&lt; T, C, GD, XF &gt; Pages: 1 -->
<!--zoomable 84 -->
<svg id="main" version="1.1" xmlns="http://www.w3.org/2000/svg" xmlns:xlink="http://www.w3.org/1999/xlink" xml:space="preserve" onload="init(evt)">
<style type="text/css"><![CDATA[
.edge:hover path { stroke: red; }
.edge:hover polygon { stroke: red; fill: red; }
]]></style>
<script type="text/javascript"><![CDATA[
var edges = document.getElementsByTagName('g');
if (edges && edges.length) {
  for (var i=0;i<edges.length;i++) {
    if (edges[i].id.substr(0,4)=='edge') {
      edges[i].setAttribute('class','edge');
    }
  }
}
]]></script>
        <defs>
                <circle id="rim" cx="0" cy="0" r="7"/>
                <circle id="rim2" cx="0" cy="0" r="3.5"/>
                <g id="zoomPlus">
                        <use xlink:href="#rim" fill="#404040">
                                <set attributeName="fill" to="#808080" begin="zoomplus.mouseover" end="zoomplus.mouseout"/>
                        </use>
                        <path d="M-4,0h8M0,-4v8" fill="none" stroke="white" stroke-width="1.5" pointer-events="none"/>
                </g>
                <g id="zoomMin">
                        <use xlink:href="#rim" fill="#404040">
                                <set attributeName="fill" to="#808080" begin="zoomminus.mouseover" end="zoomminus.mouseout"/>
                        </use>
                        <path d="M-4,0h8" fill="none" stroke="white" stroke-width="1.5" pointer-events="none"/>
                </g>
                <g id="dirArrow">
                        <path fill="none" stroke="white" stroke-width="1.5" d="M0,-3.0v7 M-2.5,-0.5L0,-3.0L2.5,-0.5"/>
                </g>
               <g id="resetDef">
                       <use xlink:href="#rim2" fill="#404040">
                               <set attributeName="fill" to="#808080" begin="reset.mouseover" end="reset.mouseout"/>
                       </use>
               </g>
        </defs>

<script type="text/javascript">
var viewWidth = 1292;
var viewHeight = 84;
var sectionId = 'dynsection-0';
</script>
<script xlink:href="svgpan.js"/>
<svg id="graph" class="graph">
<g id="viewport">
<title>CDPL::Math::RegularSpatialGrid&lt; T, C, GD, XF &gt;</title>
<!-- Node1 -->
<g id="node1" class="node">
<title>Node1</title>
<g id="a_node1"><a xlink:title=" ">
<polygon fill="#bfbfbf" stroke="black" points="768,-23.96 768,-53.96 908,-53.96 908,-23.96 768,-23.96"/>
<text text-anchor="start" x="776" y="-41.96" font-family="Helvetica" font-size="10.00">CDPL::Math::RegularSpatial</text>
<text text-anchor="middle" x="838" y="-30.96" font-family="Helvetica" font-size="10.00">Grid&lt; T, C, GD, XF &gt;</text>
</a>
</g>
</g>
<!-- Node5 -->
<g id="node5" class="node">
<title>Node5</title>
<g id="a_node5"><a xlink:href="classCDPL_1_1Math_1_1RegularSpatialGrid.html" target="_top" xlink:title=" ">
<polygon fill="none" stroke="black" points="983,-23.96 983,-53.96 1123,-53.96 1123,-23.96 983,-23.96"/>
<text text-anchor="start" x="991" y="-41.96" font-family="Helvetica" font-size="10.00">CDPL::Math::RegularSpatial</text>
<text text-anchor="middle" x="1053" y="-30.96" font-family="Helvetica" font-size="10.00">Grid&lt; T, T &gt;</text>
</a>
</g>
</g>
<!-- Node1&#45;&gt;Node5 -->
<g id="edge5" class="edge">
<title>Node1&#45;&gt;Node5</title>
<path fill="none" stroke="orange" stroke-dasharray="5,2" d="M918.41,-38.96C939.57,-38.96 962.26,-38.96 982.83,-38.96"/>
<polygon fill="orange" stroke="orange" points="918.16,-35.46 908.15,-38.96 918.15,-42.46 918.16,-35.46"/>
<text text-anchor="middle" x="945.5" y="-41.96" font-family="Helvetica" font-size="10.00"> &lt; T, T &gt;</text>
</g>
<!-- Node2 -->
<g id="node2" class="node">
<title>Node2</title>
<g id="a_node2"><a xlink:href="classCDPL_1_1Math_1_1GridExpression.html" target="_top" xlink:title=" ">
<polygon fill="none" stroke="black" points="541,-1.96 541,-75.96 731,-75.96 731,-1.96 541,-1.96"/>
<text text-anchor="start" x="549" y="-63.96" font-family="Helvetica" font-size="10.00">CDPL::Math::GridExpression</text>
<text text-anchor="start" x="549" y="-52.96" font-family="Helvetica" font-size="10.00">&lt; RegularSpatialGrid&lt; T,</text>
<text text-anchor="start" x="549" y="-41.96" font-family="Helvetica" font-size="10.00"> typename TypeTraits&lt; T &gt;</text>
<text text-anchor="start" x="549" y="-30.96" font-family="Helvetica" font-size="10.00">::RealType, Grid&lt; T &gt;, CMatrix</text>
<text text-anchor="start" x="549" y="-19.96" font-family="Helvetica" font-size="10.00">&lt; typename TypeTraits&lt; T &gt;::RealType,</text>
<text text-anchor="middle" x="636" y="-8.96" font-family="Helvetica" font-size="10.00"> 4, 4 &gt; &gt; &gt;</text>
</a>
</g>
</g>
<!-- Node2&#45;&gt;Node1 -->
<g id="edge1" class="edge">
<title>Node2&#45;&gt;Node1</title>
<path fill="none" stroke="midnightblue" d="M741.29,-38.96C750.28,-38.96 759.22,-38.96 767.83,-38.96"/>
<polygon fill="midnightblue" stroke="midnightblue" points="741.14,-35.46 731.14,-38.96 741.14,-42.46 741.14,-35.46"/>
</g>
<!-- Node3 -->
<g id="node3" class="node">
<title>Node3</title>
<g id="a_node3"><a xlink:href="classCDPL_1_1Math_1_1Expression.html" target="_top" xlink:title=" ">
<polygon fill="none" stroke="black" points="0,-45.46 0,-64.46 150,-64.46 150,-45.46 0,-45.46"/>
<text text-anchor="middle" x="75" y="-52.46" font-family="Helvetica" font-size="10.00">CDPL::Math::Expression&lt; E &gt;</text>
</a>
</g>
</g>
<!-- Node3&#45;&gt;Node2 -->
<g id="edge2" class="edge">
<title>Node3&#45;&gt;Node2</title>
<path fill="none" stroke="midnightblue" d="M160.3,-61.1C250.32,-66.44 397.06,-71.67 523,-59.96 528.81,-59.42 534.77,-58.73 540.77,-57.92"/>
<polygon fill="midnightblue" stroke="midnightblue" points="160.34,-57.6 150.14,-60.48 159.91,-64.58 160.34,-57.6"/>
</g>
<!-- Node4 -->
<g id="node4" class="node">
<title>Node4</title>
<g id="a_node4"><a xlink:href="classCDPL_1_1Math_1_1GridExpression.html" target="_top" xlink:title=" ">
<polygon fill="none" stroke="black" points="187,-10.46 187,-29.46 355,-29.46 355,-10.46 187,-10.46"/>
<text text-anchor="middle" x="271" y="-17.46" font-family="Helvetica" font-size="10.00">CDPL::Math::GridExpression&lt; E &gt;</text>
</a>
</g>
</g>
<!-- Node3&#45;&gt;Node4 -->
<g id="edge4" class="edge">
<title>Node3&#45;&gt;Node4</title>
<path fill="none" stroke="midnightblue" d="M138.65,-43.66C164.02,-39.08 192.99,-33.86 217.26,-29.48"/>
<polygon fill="midnightblue" stroke="midnightblue" points="137.97,-40.23 128.76,-45.45 139.22,-47.11 137.97,-40.23"/>
</g>
<!-- Node4&#45;&gt;Node2 -->
<g id="edge3" class="edge">
<title>Node4&#45;&gt;Node2</title>
<path fill="none" stroke="orange" stroke-dasharray="5,2" d="M335.36,-8.98C386.3,-1.88 459.58,4.45 523,-4.96 528.83,-5.83 534.77,-6.93 540.74,-8.21"/>
<polygon fill="orange" stroke="orange" points="334.56,-5.56 325.16,-10.45 335.56,-12.49 334.56,-5.56"/>
<text text-anchor="start" x="373" y="-51.96" font-family="Helvetica" font-size="10.00"> &lt; RegularSpatialGrid</text>
<text text-anchor="start" x="373" y="-40.96" font-family="Helvetica" font-size="10.00">&lt; T, typename TypeTraits</text>
<text text-anchor="start" x="373" y="-29.96" font-family="Helvetica" font-size="10.00">&lt; T &gt;::RealType, Grid&lt; T</text>
<text text-anchor="start" x="373" y="-18.96" font-family="Helvetica" font-size="10.00"> &gt;, CMatrix&lt; typename TypeTraits</text>
<text text-anchor="middle" x="448" y="-7.96" font-family="Helvetica" font-size="10.00">&lt; T &gt;::RealType, 4, 4 &gt; &gt; &gt;</text>
</g>
<!-- Node6 -->
<g id="node6" class="node">
<title>Node6</title>
<g id="a_node6"><a xlink:href="classCDPL_1_1Grid_1_1RegularGrid.html" target="_top" xlink:title="RegularGrid.">
<polygon fill="none" stroke="black" points="1160,-23.96 1160,-53.96 1284,-53.96 1284,-23.96 1160,-23.96"/>
<text text-anchor="start" x="1168" y="-41.96" font-family="Helvetica" font-size="10.00">CDPL::Grid::RegularGrid</text>
<text text-anchor="middle" x="1222" y="-30.96" font-family="Helvetica" font-size="10.00">&lt; T, CVT &gt;</text>
</a>
</g>
</g>
<!-- Node5&#45;&gt;Node6 -->
<g id="edge6" class="edge">
<title>Node5&#45;&gt;Node6</title>
<path fill="none" stroke="midnightblue" d="M1133.65,-38.96C1142.45,-38.96 1151.31,-38.96 1159.83,-38.96"/>
<polygon fill="midnightblue" stroke="midnightblue" points="1133.37,-35.46 1123.37,-38.96 1133.37,-42.46 1133.37,-35.46"/>
</g>
</g>
</svg>
        <g id="navigator" transform="translate(0 0)" fill="#404254">
                <rect fill="#f2f5e9" fill-opacity="0.5" stroke="#606060" stroke-width=".5" x="0" y="0" width="60" height="60"/>
                <use id="zoomplus" xlink:href="#zoomPlus" x="17" y="9" onmousedown="handleZoom(evt,'in')"/>
                <use id="zoomminus" xlink:href="#zoomMin" x="42" y="9" onmousedown="handleZoom(evt,'out')"/>
                <use id="reset" xlink:href="#resetDef" x="30" y="36" onmousedown="handleReset()"/>
                <g id="arrowUp" xlink:href="#dirArrow" transform="translate(30 24)" onmousedown="handlePan(0,-1)">
                  <use xlink:href="#rim" fill="#404040">
                        <set attributeName="fill" to="#808080" begin="arrowUp.mouseover" end="arrowUp.mouseout"/>
                  </use>
                  <path fill="none" stroke="white" stroke-width="1.5" d="M0,-3.0v7 M-2.5,-0.5L0,-3.0L2.5,-0.5"/>
                </g>
                <g id="arrowRight" xlink:href="#dirArrow" transform="rotate(90) translate(36 -43)" onmousedown="handlePan(1,0)">
                  <use xlink:href="#rim" fill="#404040">
                        <set attributeName="fill" to="#808080" begin="arrowRight.mouseover" end="arrowRight.mouseout"/>
                  </use>
                  <path fill="none" stroke="white" stroke-width="1.5" d="M0,-3.0v7 M-2.5,-0.5L0,-3.0L2.5,-0.5"/>
                </g>
                <g id="arrowDown" xlink:href="#dirArrow" transform="rotate(180) translate(-30 -48)" onmousedown="handlePan(0,1)">
                  <use xlink:href="#rim" fill="#404040">
                        <set attributeName="fill" to="#808080" begin="arrowDown.mouseover" end="arrowDown.mouseout"/>
                  </use>
                  <path fill="none" stroke="white" stroke-width="1.5" d="M0,-3.0v7 M-2.5,-0.5L0,-3.0L2.5,-0.5"/>
                </g>
                <g id="arrowLeft" xlink:href="#dirArrow" transform="rotate(270) translate(-36 17)" onmousedown="handlePan(-1,0)">
                  <use xlink:href="#rim" fill="#404040">
                        <set attributeName="fill" to="#808080" begin="arrowLeft.mouseover" end="arrowLeft.mouseout"/>
                  </use>
                  <path fill="none" stroke="white" stroke-width="1.5" d="M0,-3.0v7 M-2.5,-0.5L0,-3.0L2.5,-0.5"/>
                </g>
        </g>
        <svg viewBox="0 0 15 15" width="100%" height="30px" preserveAspectRatio="xMaxYMin meet">
         <g id="arrow_out" transform="scale(0.3 0.3)">
          <a xlink:href="classCDPL_1_1Math_1_1RegularSpatialGrid__inherit__graph_org.svg" target="_base">
           <rect id="button" ry="5" rx="5" y="6" x="6" height="38" width="38"
                fill="#f2f5e9" fill-opacity="0.5" stroke="#606060" stroke-width="1.0"/>
           <path id="arrow"
             d="M 11.500037,31.436501 C 11.940474,20.09759 22.043105,11.32322 32.158766,21.979434 L 37.068811,17.246167 C 37.068811,17.246167 37.088388,32 37.088388,32 L 22.160133,31.978069 C 22.160133,31.978069 26.997745,27.140456 26.997745,27.140456 C 18.528582,18.264221 13.291696,25.230495 11.500037,31.436501 z"
             style="fill:#404040;"/>
          </a>
         </g>
        </svg>
</svg>
