<?xml version="1.0" encoding="UTF-8" standalone="no"?>
<!DOCTYPE svg PUBLIC "-//W3C//DTD SVG 1.1//EN"
 "http://www.w3.org/Graphics/SVG/1.1/DTD/svg11.dtd">
<!-- Generated by graphviz version 2.44.0 (0)
 -->
<!-- Title: CDPL::Util::IndirectArray&lt; ValueType, PointerType, NullPointerCheck &gt; Pages: 1 -->
<!--zoomable 547 -->
<svg id="main" version="1.1" xmlns="http://www.w3.org/2000/svg" xmlns:xlink="http://www.w3.org/1999/xlink" xml:space="preserve" onload="init(evt)">
<style type="text/css"><![CDATA[
.edge:hover path { stroke: red; }
.edge:hover polygon { stroke: red; fill: red; }
]]></style>
<script type="text/javascript"><![CDATA[
var edges = document.getElementsByTagName('g');
if (edges && edges.length) {
  for (var i=0;i<edges.length;i++) {
    if (edges[i].id.substr(0,4)=='edge') {
      edges[i].setAttribute('class','edge');
    }
  }
}
]]></script>
        <defs>
                <circle id="rim" cx="0" cy="0" r="7"/>
                <circle id="rim2" cx="0" cy="0" r="3.5"/>
                <g id="zoomPlus">
                        <use xlink:href="#rim" fill="#404040">
                                <set attributeName="fill" to="#808080" begin="zoomplus.mouseover" end="zoomplus.mouseout"/>
                        </use>
                        <path d="M-4,0h8M0,-4v8" fill="none" stroke="white" stroke-width="1.5" pointer-events="none"/>
                </g>
                <g id="zoomMin">
                        <use xlink:href="#rim" fill="#404040">
                                <set attributeName="fill" to="#808080" begin="zoomminus.mouseover" end="zoomminus.mouseout"/>
                        </use>
                        <path d="M-4,0h8" fill="none" stroke="white" stroke-width="1.5" pointer-events="none"/>
                </g>
                <g id="dirArrow">
                        <path fill="none" stroke="white" stroke-width="1.5" d="M0,-3.0v7 M-2.5,-0.5L0,-3.0L2.5,-0.5"/>
                </g>
               <g id="resetDef">
                       <use xlink:href="#rim2" fill="#404040">
                               <set attributeName="fill" to="#808080" begin="reset.mouseover" end="reset.mouseout"/>
                       </use>
               </g>
        </defs>

<script type="text/javascript">
var viewWidth = 1564;
var viewHeight = 547;
var sectionId = 'dynsection-0';
</script>
<script xlink:href="svgpan.js"/>
<svg id="graph" class="graph">
<g id="viewport">
<title>CDPL::Util::IndirectArray&lt; ValueType, PointerType, NullPointerCheck &gt;</title>
<!-- Node1 -->
<g id="node1" class="node">
<title>Node1</title>
<g id="a_node1"><a xlink:title="A dynamic array class for the storage of object pointers with an indirected query interface.">
<polygon fill="#bfbfbf" stroke="black" points="385,-206.5 385,-247.5 516,-247.5 516,-206.5 385,-206.5"/>
<text text-anchor="start" x="393" y="-235.5" font-family="Helvetica" font-size="10.00">CDPL::Util::IndirectArray</text>
<text text-anchor="start" x="393" y="-224.5" font-family="Helvetica" font-size="10.00">&lt; ValueType, PointerType,</text>
<text text-anchor="middle" x="450.5" y="-213.5" font-family="Helvetica" font-size="10.00"> NullPointerCheck &gt;</text>
</a>
</g>
</g>
<!-- Node4 -->
<g id="node4" class="node">
<title>Node4</title>
<g id="a_node4"><a xlink:href="classCDPL_1_1Chem_1_1MatchExpressionList.html" target="_top" xlink:title=" ">
<polygon fill="none" stroke="black" points="1162,-461 1162,-491 1319,-491 1319,-461 1162,-461"/>
<text text-anchor="start" x="1170" y="-479" font-family="Helvetica" font-size="10.00">CDPL::Chem::MatchExpression</text>
<text text-anchor="middle" x="1240.5" y="-468" font-family="Helvetica" font-size="10.00">List&lt; ObjType, void &gt;</text>
</a>
</g>
</g>
<!-- Node1&#45;&gt;Node4 -->
<g id="edge3" class="edge">
<title>Node1&#45;&gt;Node4</title>
<path fill="none" stroke="midnightblue" d="M464.64,-256.95C478.43,-285.51 502.48,-328.18 534,-356 580.5,-397.04 601.17,-396.35 660,-416 832.44,-473.61 1048.42,-479.9 1161.79,-478.53"/>
<polygon fill="midnightblue" stroke="midnightblue" points="467.78,-255.41 460.36,-247.85 461.44,-258.39 467.78,-255.41"/>
</g>
<!-- Node7 -->
<g id="node7" class="node">
<title>Node7</title>
<g id="a_node7"><a xlink:href="classCDPL_1_1Util_1_1IndirectArray.html" target="_top" xlink:title=" ">
<polygon fill="none" stroke="black" points="675,-233 675,-263 800,-263 800,-233 675,-233"/>
<text text-anchor="start" x="683" y="-251" font-family="Helvetica" font-size="10.00">CDPL::Util::IndirectArray</text>
<text text-anchor="middle" x="737.5" y="-240" font-family="Helvetica" font-size="10.00">&lt; Fragment &gt;</text>
</a>
</g>
</g>
<!-- Node1&#45;&gt;Node7 -->
<g id="edge6" class="edge">
<title>Node1&#45;&gt;Node7</title>
<path fill="none" stroke="orange" stroke-dasharray="5,2" d="M526.42,-232.52C572.56,-235.92 631.01,-240.23 674.53,-243.43"/>
<polygon fill="orange" stroke="orange" points="526.4,-229.01 516.17,-231.77 525.89,-235.99 526.4,-229.01"/>
<text text-anchor="middle" x="588" y="-244" font-family="Helvetica" font-size="10.00"> &lt; Fragment &gt;</text>
</g>
<!-- Node18 -->
<g id="node18" class="node">
<title>Node18</title>
<g id="a_node18"><a xlink:href="classCDPL_1_1Util_1_1IndirectArray.html" target="_top" xlink:title=" ">
<polygon fill="none" stroke="black" points="675,-184 675,-214 800,-214 800,-184 675,-184"/>
<text text-anchor="start" x="683" y="-202" font-family="Helvetica" font-size="10.00">CDPL::Util::IndirectArray</text>
<text text-anchor="middle" x="737.5" y="-191" font-family="Helvetica" font-size="10.00">&lt; GaussianShape &gt;</text>
</a>
</g>
</g>
<!-- Node1&#45;&gt;Node18 -->
<g id="edge17" class="edge">
<title>Node1&#45;&gt;Node18</title>
<path fill="none" stroke="orange" stroke-dasharray="5,2" d="M526.13,-219.67C572.31,-215.13 630.91,-209.37 674.53,-205.09"/>
<polygon fill="orange" stroke="orange" points="525.78,-216.19 516.17,-220.65 526.47,-223.15 525.78,-216.19"/>
<text text-anchor="middle" x="588" y="-222" font-family="Helvetica" font-size="10.00"> &lt; GaussianShape &gt;</text>
</g>
<!-- Node20 -->
<g id="node20" class="node">
<title>Node20</title>
<g id="a_node20"><a xlink:href="classCDPL_1_1Util_1_1IndirectArray.html" target="_top" xlink:title=" ">
<polygon fill="none" stroke="black" points="675,-135 675,-165 800,-165 800,-135 675,-135"/>
<text text-anchor="start" x="683" y="-153" font-family="Helvetica" font-size="10.00">CDPL::Util::IndirectArray</text>
<text text-anchor="middle" x="737.5" y="-142" font-family="Helvetica" font-size="10.00">&lt; RegularGrid&lt; T, T &gt; &gt;</text>
</a>
</g>
</g>
<!-- Node1&#45;&gt;Node20 -->
<g id="edge19" class="edge">
<title>Node1&#45;&gt;Node20</title>
<path fill="none" stroke="orange" stroke-dasharray="5,2" d="M508.46,-202.79C516.94,-199.6 525.64,-196.56 534,-194 580.44,-179.78 634.21,-168.32 674.67,-160.66"/>
<polygon fill="orange" stroke="orange" points="507.08,-199.57 499,-206.43 509.59,-206.11 507.08,-199.57"/>
<text text-anchor="middle" x="588" y="-197" font-family="Helvetica" font-size="10.00"> &lt; RegularGrid&lt; T, T &gt; &gt;</text>
</g>
<!-- Node22 -->
<g id="node22" class="node">
<title>Node22</title>
<g id="a_node22"><a xlink:href="classCDPL_1_1Util_1_1IndirectArray.html" target="_top" xlink:title=" ">
<polygon fill="none" stroke="black" points="675,-77 675,-107 800,-107 800,-77 675,-77"/>
<text text-anchor="start" x="683" y="-95" font-family="Helvetica" font-size="10.00">CDPL::Util::IndirectArray</text>
<text text-anchor="middle" x="737.5" y="-84" font-family="Helvetica" font-size="10.00">&lt; ElectronSystem &gt;</text>
</a>
</g>
</g>
<!-- Node1&#45;&gt;Node22 -->
<g id="edge21" class="edge">
<title>Node1&#45;&gt;Node22</title>
<path fill="none" stroke="orange" stroke-dasharray="5,2" d="M476.63,-199.06C491.89,-183.58 512.52,-165.07 534,-153 578.01,-128.27 633.17,-112.51 674.79,-103.22"/>
<polygon fill="orange" stroke="orange" points="474,-196.75 469.59,-206.38 479.05,-201.6 474,-196.75"/>
<text text-anchor="middle" x="588" y="-156" font-family="Helvetica" font-size="10.00"> &lt; ElectronSystem &gt;</text>
</g>
<!-- Node25 -->
<g id="node25" class="node">
<title>Node25</title>
<g id="a_node25"><a xlink:href="classCDPL_1_1Util_1_1IndirectArray.html" target="_top" xlink:title=" ">
<polygon fill="none" stroke="black" points="660,-365.5 660,-406.5 815,-406.5 815,-365.5 660,-365.5"/>
<text text-anchor="start" x="668" y="-394.5" font-family="Helvetica" font-size="10.00">CDPL::Util::IndirectArray</text>
<text text-anchor="start" x="668" y="-383.5" font-family="Helvetica" font-size="10.00">&lt; MatchExpression&lt; ObjType1,</text>
<text text-anchor="middle" x="737.5" y="-372.5" font-family="Helvetica" font-size="10.00"> void &gt; &gt;</text>
</a>
</g>
</g>
<!-- Node1&#45;&gt;Node25 -->
<g id="edge24" class="edge">
<title>Node1&#45;&gt;Node25</title>
<path fill="none" stroke="orange" stroke-dasharray="5,2" d="M497.5,-252.66C553.75,-284.04 647.85,-336.54 699.6,-365.41"/>
<polygon fill="orange" stroke="orange" points="498.9,-249.44 488.47,-247.62 495.49,-255.55 498.9,-249.44"/>
<text text-anchor="start" x="541" y="-344" font-family="Helvetica" font-size="10.00"> &lt; MatchExpression&lt;</text>
<text text-anchor="middle" x="588" y="-333" font-family="Helvetica" font-size="10.00"> ObjType1, void &gt; &gt;</text>
</g>
<!-- Node2 -->
<g id="node2" class="node">
<title>Node2</title>
<g id="a_node2"><a xlink:href="classCDPL_1_1Util_1_1Array.html" target="_top" xlink:title=" ">
<polygon fill="none" stroke="black" points="238,-206.5 238,-247.5 348,-247.5 348,-206.5 238,-206.5"/>
<text text-anchor="start" x="246" y="-235.5" font-family="Helvetica" font-size="10.00">CDPL::Util::Array&lt;</text>
<text text-anchor="start" x="246" y="-224.5" font-family="Helvetica" font-size="10.00"> typename ValueType</text>
<text text-anchor="middle" x="293" y="-213.5" font-family="Helvetica" font-size="10.00">::SharedPointer &gt;</text>
</a>
</g>
</g>
<!-- Node2&#45;&gt;Node1 -->
<g id="edge1" class="edge">
<title>Node2&#45;&gt;Node1</title>
<path fill="none" stroke="midnightblue" d="M358.52,-227C367.27,-227 376.25,-227 385,-227"/>
<polygon fill="midnightblue" stroke="midnightblue" points="358.39,-223.5 348.39,-227 358.39,-230.5 358.39,-223.5"/>
</g>
<!-- Node3 -->
<g id="node3" class="node">
<title>Node3</title>
<g id="a_node3"><a xlink:href="classCDPL_1_1Util_1_1Array.html" target="_top" xlink:title="A dynamic array class providing amortized constant time access to arbitrary elements.">
<polygon fill="none" stroke="black" points="0,-212 0,-242 99,-242 99,-212 0,-212"/>
<text text-anchor="start" x="8" y="-230" font-family="Helvetica" font-size="10.00">CDPL::Util::Array&lt;</text>
<text text-anchor="middle" x="49.5" y="-219" font-family="Helvetica" font-size="10.00"> ValueType &gt;</text>
</a>
</g>
</g>
<!-- Node3&#45;&gt;Node2 -->
<g id="edge2" class="edge">
<title>Node3&#45;&gt;Node2</title>
<path fill="none" stroke="orange" stroke-dasharray="5,2" d="M109.27,-227C148.39,-227 199.41,-227 237.6,-227"/>
<polygon fill="orange" stroke="orange" points="109.08,-223.5 99.08,-227 109.08,-230.5 109.08,-223.5"/>
<text text-anchor="start" x="117" y="-241" font-family="Helvetica" font-size="10.00"> &lt; typename ValueType</text>
<text text-anchor="middle" x="168.5" y="-230" font-family="Helvetica" font-size="10.00">::SharedPointer &gt;</text>
</g>
<!-- Node5 -->
<g id="node5" class="node">
<title>Node5</title>
<g id="a_node5"><a xlink:href="classCDPL_1_1Chem_1_1ANDMatchExpressionList_3_01ObjType_00_01void_01_4.html" target="_top" xlink:title="ANDMatchExpressionList.">
<polygon fill="none" stroke="black" points="1377,-508 1377,-538 1556,-538 1556,-508 1377,-508"/>
<text text-anchor="start" x="1385" y="-526" font-family="Helvetica" font-size="10.00">CDPL::Chem::ANDMatchExpression</text>
<text text-anchor="middle" x="1466.5" y="-515" font-family="Helvetica" font-size="10.00">List&lt; ObjType, void &gt;</text>
</a>
</g>
</g>
<!-- Node4&#45;&gt;Node5 -->
<g id="edge4" class="edge">
<title>Node4&#45;&gt;Node5</title>
<path fill="none" stroke="midnightblue" d="M1322.83,-493.07C1346.1,-497.95 1371.28,-503.23 1393.92,-507.98"/>
<polygon fill="midnightblue" stroke="midnightblue" points="1323.5,-489.63 1312.99,-491 1322.06,-496.48 1323.5,-489.63"/>
</g>
<!-- Node6 -->
<g id="node6" class="node">
<title>Node6</title>
<g id="a_node6"><a xlink:href="classCDPL_1_1Chem_1_1ORMatchExpressionList_3_01ObjType_00_01void_01_4.html" target="_top" xlink:title="ORMatchExpressionList.">
<polygon fill="none" stroke="black" points="1380.5,-459 1380.5,-489 1552.5,-489 1552.5,-459 1380.5,-459"/>
<text text-anchor="start" x="1388.5" y="-477" font-family="Helvetica" font-size="10.00">CDPL::Chem::ORMatchExpression</text>
<text text-anchor="middle" x="1466.5" y="-466" font-family="Helvetica" font-size="10.00">List&lt; ObjType, void &gt;</text>
</a>
</g>
</g>
<!-- Node4&#45;&gt;Node6 -->
<g id="edge5" class="edge">
<title>Node4&#45;&gt;Node6</title>
<path fill="none" stroke="midnightblue" d="M1329.5,-475.21C1346.21,-475.07 1363.66,-474.91 1380.27,-474.76"/>
<polygon fill="midnightblue" stroke="midnightblue" points="1329.18,-471.72 1319.22,-475.31 1329.25,-478.72 1329.18,-471.72"/>
</g>
<!-- Node8 -->
<g id="node8" class="node">
<title>Node8</title>
<g id="a_node8"><a xlink:href="classCDPL_1_1Chem_1_1FragmentList.html" target="_top" xlink:title="A data type for the storage of Chem::Fragment objects.">
<polygon fill="none" stroke="black" points="866.5,-232.5 866.5,-251.5 1004.5,-251.5 1004.5,-232.5 866.5,-232.5"/>
<text text-anchor="middle" x="935.5" y="-239.5" font-family="Helvetica" font-size="10.00">CDPL::Chem::FragmentList</text>
</a>
</g>
</g>
<!-- Node7&#45;&gt;Node8 -->
<g id="edge7" class="edge">
<title>Node7&#45;&gt;Node8</title>
<path fill="none" stroke="midnightblue" d="M810.25,-245.8C828.54,-245.24 848.15,-244.64 866.26,-244.09"/>
<polygon fill="midnightblue" stroke="midnightblue" points="810.13,-242.31 800.25,-246.11 810.35,-249.3 810.13,-242.31"/>
</g>
<!-- Node9 -->
<g id="node9" class="node">
<title>Node9</title>
<g id="a_node9"><a xlink:href="classCDPL_1_1Biomol_1_1ResidueList.html" target="_top" xlink:title="Implements the extraction of residues in biological macromolecules.">
<polygon fill="none" stroke="black" points="1172.5,-365.5 1172.5,-384.5 1308.5,-384.5 1308.5,-365.5 1172.5,-365.5"/>
<text text-anchor="middle" x="1240.5" y="-372.5" font-family="Helvetica" font-size="10.00">CDPL::Biomol::ResidueList</text>
</a>
</g>
</g>
<!-- Node8&#45;&gt;Node9 -->
<g id="edge8" class="edge">
<title>Node8&#45;&gt;Node9</title>
<path fill="none" stroke="midnightblue" d="M956.21,-257.93C975.87,-273.33 1007.34,-296.66 1037,-313 1080.81,-337.14 1093.09,-341.63 1141,-356 1153.34,-359.7 1166.78,-362.85 1179.65,-365.46"/>
<polygon fill="midnightblue" stroke="midnightblue" points="958.31,-255.13 948.3,-251.66 953.97,-260.62 958.31,-255.13"/>
</g>
<!-- Node10 -->
<g id="node10" class="node">
<title>Node10</title>
<g id="a_node10"><a xlink:href="classCDPL_1_1Chem_1_1AromaticRingSet.html" target="_top" xlink:title="Implements the perception of aromatic rings in a molecular graph.">
<polygon fill="none" stroke="black" points="1163,-327.5 1163,-346.5 1318,-346.5 1318,-327.5 1163,-327.5"/>
<text text-anchor="middle" x="1240.5" y="-334.5" font-family="Helvetica" font-size="10.00">CDPL::Chem::AromaticRingSet</text>
</a>
</g>
</g>
<!-- Node8&#45;&gt;Node10 -->
<g id="edge9" class="edge">
<title>Node8&#45;&gt;Node10</title>
<path fill="none" stroke="midnightblue" d="M965.76,-255.87C985.62,-265.02 1012.6,-276.94 1037,-286 1082.34,-302.84 1094.08,-306.29 1141,-318 1155.03,-321.5 1170.31,-324.73 1184.56,-327.49"/>
<polygon fill="midnightblue" stroke="midnightblue" points="967.17,-252.66 956.62,-251.62 964.22,-259.01 967.17,-252.66"/>
</g>
<!-- Node11 -->
<g id="node11" class="node">
<title>Node11</title>
<g id="a_node11"><a xlink:href="classCDPL_1_1Chem_1_1AromaticSSSRSubset.html" target="_top" xlink:title="Implements the extraction of the aromatic rings in the SSSR of a molecular graph.">
<polygon fill="none" stroke="black" points="1151.5,-289.5 1151.5,-308.5 1329.5,-308.5 1329.5,-289.5 1151.5,-289.5"/>
<text text-anchor="middle" x="1240.5" y="-296.5" font-family="Helvetica" font-size="10.00">CDPL::Chem::AromaticSSSRSubset</text>
</a>
</g>
</g>
<!-- Node8&#45;&gt;Node11 -->
<g id="edge10" class="edge">
<title>Node8&#45;&gt;Node11</title>
<path fill="none" stroke="midnightblue" d="M985.84,-253.9C1002.09,-257.65 1020.28,-261.69 1037,-265 1083.68,-274.25 1136.75,-283.1 1176.84,-289.45"/>
<polygon fill="midnightblue" stroke="midnightblue" points="986.54,-250.47 976,-251.6 984.95,-257.28 986.54,-250.47"/>
</g>
<!-- Node12 -->
<g id="node12" class="node">
<title>Node12</title>
<g id="a_node12"><a xlink:href="classCDPL_1_1Chem_1_1CompleteRingSet.html" target="_top" xlink:title="Implements the exhaustive perception of rings in a molecular graph.">
<polygon fill="none" stroke="black" points="1161.5,-251.5 1161.5,-270.5 1319.5,-270.5 1319.5,-251.5 1161.5,-251.5"/>
<text text-anchor="middle" x="1240.5" y="-258.5" font-family="Helvetica" font-size="10.00">CDPL::Chem::CompleteRingSet</text>
</a>
</g>
</g>
<!-- Node8&#45;&gt;Node12 -->
<g id="edge11" class="edge">
<title>Node8&#45;&gt;Node12</title>
<path fill="none" stroke="midnightblue" d="M1014.9,-246.92C1060,-249.74 1116.46,-253.28 1161.49,-256.11"/>
<polygon fill="midnightblue" stroke="midnightblue" points="1015.08,-243.42 1004.88,-246.29 1014.64,-250.41 1015.08,-243.42"/>
</g>
<!-- Node13 -->
<g id="node13" class="node">
<title>Node13</title>
<g id="a_node13"><a xlink:href="classCDPL_1_1Chem_1_1ComponentSet.html" target="_top" xlink:title="Implements the perception of molecular graph components.">
<polygon fill="none" stroke="black" points="1167.5,-213.5 1167.5,-232.5 1313.5,-232.5 1313.5,-213.5 1167.5,-213.5"/>
<text text-anchor="middle" x="1240.5" y="-220.5" font-family="Helvetica" font-size="10.00">CDPL::Chem::ComponentSet</text>
</a>
</g>
</g>
<!-- Node8&#45;&gt;Node13 -->
<g id="edge12" class="edge">
<title>Node8&#45;&gt;Node13</title>
<path fill="none" stroke="midnightblue" d="M1015.03,-237.08C1062.11,-234.12 1121.53,-230.4 1167.41,-227.52"/>
<polygon fill="midnightblue" stroke="midnightblue" points="1014.64,-233.59 1004.88,-237.71 1015.08,-240.58 1014.64,-233.59"/>
</g>
<!-- Node14 -->
<g id="node14" class="node">
<title>Node14</title>
<g id="a_node14"><a xlink:href="classCDPL_1_1Chem_1_1ConnectedSubstructureSet.html" target="_top" xlink:title="ConnectedSubstructureSet.">
<polygon fill="none" stroke="black" points="1141,-175.5 1141,-194.5 1340,-194.5 1340,-175.5 1141,-175.5"/>
<text text-anchor="middle" x="1240.5" y="-182.5" font-family="Helvetica" font-size="10.00">CDPL::Chem::ConnectedSubstructureSet</text>
</a>
</g>
</g>
<!-- Node8&#45;&gt;Node14 -->
<g id="edge13" class="edge">
<title>Node8&#45;&gt;Node14</title>
<path fill="none" stroke="midnightblue" d="M997.05,-230.61C1053.28,-220.03 1136.06,-204.46 1188.87,-194.52"/>
<polygon fill="midnightblue" stroke="midnightblue" points="996.4,-227.17 987.22,-232.46 997.69,-234.05 996.4,-227.17"/>
</g>
<!-- Node15 -->
<g id="node15" class="node">
<title>Node15</title>
<g id="a_node15"><a xlink:href="classCDPL_1_1Chem_1_1ExtendedSSSR.html" target="_top" xlink:title="Implements the perception of the Extended Smallest Set of Smallest Rings (ESSSR) of a molecular graph...">
<polygon fill="none" stroke="black" points="1165.5,-137.5 1165.5,-156.5 1315.5,-156.5 1315.5,-137.5 1165.5,-137.5"/>
<text text-anchor="middle" x="1240.5" y="-144.5" font-family="Helvetica" font-size="10.00">CDPL::Chem::ExtendedSSSR</text>
</a>
</g>
</g>
<!-- Node8&#45;&gt;Node15 -->
<g id="edge14" class="edge">
<title>Node8&#45;&gt;Node15</title>
<path fill="none" stroke="midnightblue" d="M989.13,-229.62C999.28,-226.42 1009.66,-222.56 1019,-218 1027.87,-213.67 1028.3,-209.66 1037,-205 1080.51,-181.67 1093.49,-179.39 1141,-166 1153.91,-162.36 1167.96,-159.19 1181.3,-156.54"/>
<polygon fill="midnightblue" stroke="midnightblue" points="988.1,-226.28 979.51,-232.49 990.09,-232.99 988.1,-226.28"/>
</g>
<!-- Node16 -->
<g id="node16" class="node">
<title>Node16</title>
<g id="a_node16"><a xlink:href="classCDPL_1_1Chem_1_1SmallestSetOfSmallestRings.html" target="_top" xlink:title="Implements the perception of the Smallest Set of Smallest Rings (SSSR) of a molecular graphs.">
<polygon fill="none" stroke="black" points="1168,-88 1168,-118 1313,-118 1313,-88 1168,-88"/>
<text text-anchor="start" x="1176" y="-106" font-family="Helvetica" font-size="10.00">CDPL::Chem::SmallestSetOf</text>
<text text-anchor="middle" x="1240.5" y="-95" font-family="Helvetica" font-size="10.00">SmallestRings</text>
</a>
</g>
</g>
<!-- Node8&#45;&gt;Node16 -->
<g id="edge15" class="edge">
<title>Node8&#45;&gt;Node16</title>
<path fill="none" stroke="midnightblue" d="M1004.41,-228.24C1009.72,-225.43 1014.68,-222.06 1019,-218 1036.21,-201.83 1020.48,-184.88 1037,-168 1071.64,-132.61 1093.81,-143.01 1141,-128 1152.1,-124.47 1164.02,-121.1 1175.6,-118.04"/>
<polygon fill="midnightblue" stroke="midnightblue" points="1002.85,-225.11 995.21,-232.45 1005.76,-231.47 1002.85,-225.11"/>
</g>
<!-- Node17 -->
<g id="node17" class="node">
<title>Node17</title>
<g id="a_node17"><a xlink:href="classCDPL_1_1ForceField_1_1MMFF94AromaticSSSRSubset.html" target="_top" xlink:title="Implements the extraction of all rings in the SSSR of a molecular graph that are aromatic according t...">
<polygon fill="none" stroke="black" points="1170.5,-39 1170.5,-69 1310.5,-69 1310.5,-39 1170.5,-39"/>
<text text-anchor="start" x="1178.5" y="-57" font-family="Helvetica" font-size="10.00">CDPL::ForceField::MMFF94</text>
<text text-anchor="middle" x="1240.5" y="-46" font-family="Helvetica" font-size="10.00">AromaticSSSRSubset</text>
</a>
</g>
</g>
<!-- Node8&#45;&gt;Node17 -->
<g id="edge16" class="edge">
<title>Node8&#45;&gt;Node17</title>
<path fill="none" stroke="midnightblue" d="M1006.99,-227.74C1011.41,-225.03 1015.49,-221.81 1019,-218 1046.06,-188.65 1012.7,-161.67 1037,-130 1068.46,-89 1092.48,-95.78 1141,-78 1150.34,-74.58 1160.35,-71.5 1170.29,-68.77"/>
<polygon fill="midnightblue" stroke="midnightblue" points="1005.35,-224.65 998.1,-232.37 1008.59,-230.85 1005.35,-224.65"/>
</g>
<!-- Node19 -->
<g id="node19" class="node">
<title>Node19</title>
<g id="a_node19"><a xlink:href="classCDPL_1_1Shape_1_1GaussianShapeSet.html" target="_top" xlink:title=" ">
<polygon fill="none" stroke="black" points="852,-189.5 852,-208.5 1019,-208.5 1019,-189.5 852,-189.5"/>
<text text-anchor="middle" x="935.5" y="-196.5" font-family="Helvetica" font-size="10.00">CDPL::Shape::GaussianShapeSet</text>
</a>
</g>
</g>
<!-- Node18&#45;&gt;Node19 -->
<g id="edge18" class="edge">
<title>Node18&#45;&gt;Node19</title>
<path fill="none" stroke="midnightblue" d="M810.41,-199C823.9,-199 838.1,-199 851.89,-199"/>
<polygon fill="midnightblue" stroke="midnightblue" points="810.25,-195.5 800.25,-199 810.25,-202.5 810.25,-195.5"/>
</g>
<!-- Node21 -->
<g id="node21" class="node">
<title>Node21</title>
<g id="a_node21"><a xlink:href="classCDPL_1_1Grid_1_1RegularGridSet.html" target="_top" xlink:title="RegularGridSet.">
<polygon fill="none" stroke="black" points="866,-135 866,-165 1005,-165 1005,-135 866,-135"/>
<text text-anchor="start" x="874" y="-153" font-family="Helvetica" font-size="10.00">CDPL::Grid::RegularGridSet</text>
<text text-anchor="middle" x="935.5" y="-142" font-family="Helvetica" font-size="10.00">&lt; T, CVT &gt;</text>
</a>
</g>
</g>
<!-- Node20&#45;&gt;Node21 -->
<g id="edge20" class="edge">
<title>Node20&#45;&gt;Node21</title>
<path fill="none" stroke="midnightblue" d="M810.45,-150C828.57,-150 847.96,-150 865.91,-150"/>
<polygon fill="midnightblue" stroke="midnightblue" points="810.25,-146.5 800.25,-150 810.25,-153.5 810.25,-146.5"/>
</g>
<!-- Node23 -->
<g id="node23" class="node">
<title>Node23</title>
<g id="a_node23"><a xlink:href="classCDPL_1_1Chem_1_1ElectronSystemList.html" target="_top" xlink:title="A data type for the storage of Chem::ElectronSystem objects.">
<polygon fill="none" stroke="black" points="852.5,-24.5 852.5,-43.5 1018.5,-43.5 1018.5,-24.5 852.5,-24.5"/>
<text text-anchor="middle" x="935.5" y="-31.5" font-family="Helvetica" font-size="10.00">CDPL::Chem::ElectronSystemList</text>
</a>
</g>
</g>
<!-- Node22&#45;&gt;Node23 -->
<g id="edge22" class="edge">
<title>Node22&#45;&gt;Node23</title>
<path fill="none" stroke="midnightblue" d="M799.08,-74.07C833.09,-64.01 874.17,-51.85 902.11,-43.59"/>
<polygon fill="midnightblue" stroke="midnightblue" points="797.83,-70.79 789.23,-76.99 799.81,-77.51 797.83,-70.79"/>
</g>
<!-- Node24 -->
<g id="node24" class="node">
<title>Node24</title>
<g id="a_node24"><a xlink:href="classCDPL_1_1Chem_1_1PiElectronSystemList.html" target="_top" xlink:title="Implements the perception of all pi electron systems present in a molecule.">
<polygon fill="none" stroke="black" points="1153,-0.5 1153,-19.5 1328,-19.5 1328,-0.5 1153,-0.5"/>
<text text-anchor="middle" x="1240.5" y="-7.5" font-family="Helvetica" font-size="10.00">CDPL::Chem::PiElectronSystemList</text>
</a>
</g>
</g>
<!-- Node23&#45;&gt;Node24 -->
<g id="edge23" class="edge">
<title>Node23&#45;&gt;Node24</title>
<path fill="none" stroke="midnightblue" d="M1029.03,-26.67C1068.44,-23.55 1114.15,-19.93 1152.89,-16.86"/>
<polygon fill="midnightblue" stroke="midnightblue" points="1028.59,-23.19 1018.9,-27.47 1029.14,-30.17 1028.59,-23.19"/>
</g>
<!-- Node26 -->
<g id="node26" class="node">
<title>Node26</title>
<g id="a_node26"><a xlink:href="classCDPL_1_1Chem_1_1MatchExpressionList.html" target="_top" xlink:title=" ">
<polygon fill="none" stroke="black" points="1162,-404 1162,-434 1319,-434 1319,-404 1162,-404"/>
<text text-anchor="start" x="1170" y="-422" font-family="Helvetica" font-size="10.00">CDPL::Chem::MatchExpression</text>
<text text-anchor="middle" x="1240.5" y="-411" font-family="Helvetica" font-size="10.00">List&lt; ObjType1, void &gt;</text>
</a>
</g>
</g>
<!-- Node25&#45;&gt;Node26 -->
<g id="edge25" class="edge">
<title>Node25&#45;&gt;Node26</title>
<path fill="none" stroke="midnightblue" d="M825.27,-391.72C920.06,-397.96 1070.52,-407.87 1161.63,-413.87"/>
<polygon fill="midnightblue" stroke="midnightblue" points="825.34,-388.21 815.14,-391.05 824.88,-395.2 825.34,-388.21"/>
</g>
<!-- Node29 -->
<g id="node29" class="node">
<title>Node29</title>
<g id="a_node29"><a xlink:href="classCDPL_1_1Chem_1_1MatchExpressionList.html" target="_top" xlink:title="A container for the storage and evaluation of logical match expression lists.">
<polygon fill="none" stroke="black" points="857,-415 857,-445 1014,-445 1014,-415 857,-415"/>
<text text-anchor="start" x="865" y="-433" font-family="Helvetica" font-size="10.00">CDPL::Chem::MatchExpression</text>
<text text-anchor="middle" x="935.5" y="-422" font-family="Helvetica" font-size="10.00">List&lt; ObjType1, ObjType2 &gt;</text>
</a>
</g>
</g>
<!-- Node25&#45;&gt;Node29 -->
<g id="edge28" class="edge">
<title>Node25&#45;&gt;Node29</title>
<path fill="none" stroke="midnightblue" d="M824.93,-405.4C839.19,-408.6 853.79,-411.88 867.48,-414.96"/>
<polygon fill="midnightblue" stroke="midnightblue" points="825.64,-401.98 815.12,-403.2 824.11,-408.81 825.64,-401.98"/>
</g>
<!-- Node27 -->
<g id="node27" class="node">
<title>Node27</title>
<g id="a_node27"><a xlink:href="classCDPL_1_1Chem_1_1ANDMatchExpressionList.html" target="_top" xlink:title="ANDMatchExpressionList.">
<polygon fill="none" stroke="black" points="1377,-405 1377,-435 1556,-435 1556,-405 1377,-405"/>
<text text-anchor="start" x="1385" y="-423" font-family="Helvetica" font-size="10.00">CDPL::Chem::ANDMatchExpression</text>
<text text-anchor="middle" x="1466.5" y="-412" font-family="Helvetica" font-size="10.00">List&lt; ObjType1, ObjType2 &gt;</text>
</a>
</g>
</g>
<!-- Node26&#45;&gt;Node27 -->
<g id="edge26" class="edge">
<title>Node26&#45;&gt;Node27</title>
<path fill="none" stroke="midnightblue" d="M1329.35,-419.39C1344.94,-419.46 1361.18,-419.53 1376.79,-419.6"/>
<polygon fill="midnightblue" stroke="midnightblue" points="1329.23,-415.89 1319.22,-419.35 1329.2,-422.89 1329.23,-415.89"/>
</g>
<!-- Node28 -->
<g id="node28" class="node">
<title>Node28</title>
<g id="a_node28"><a xlink:href="classCDPL_1_1Chem_1_1ORMatchExpressionList.html" target="_top" xlink:title="ORMatchExpressionList.">
<polygon fill="none" stroke="black" points="1380.5,-356 1380.5,-386 1552.5,-386 1552.5,-356 1380.5,-356"/>
<text text-anchor="start" x="1388.5" y="-374" font-family="Helvetica" font-size="10.00">CDPL::Chem::ORMatchExpression</text>
<text text-anchor="middle" x="1466.5" y="-363" font-family="Helvetica" font-size="10.00">List&lt; ObjType1, ObjType2 &gt;</text>
</a>
</g>
</g>
<!-- Node26&#45;&gt;Node28 -->
<g id="edge27" class="edge">
<title>Node26&#45;&gt;Node28</title>
<path fill="none" stroke="midnightblue" d="M1321.6,-401.83C1345.75,-396.66 1372.05,-391.02 1395.49,-386"/>
<polygon fill="midnightblue" stroke="midnightblue" points="1320.81,-398.43 1311.76,-403.94 1322.27,-405.27 1320.81,-398.43"/>
</g>
<!-- Node29&#45;&gt;Node4 -->
<g id="edge30" class="edge">
<title>Node29&#45;&gt;Node4</title>
<path fill="none" stroke="orange" stroke-dasharray="5,2" d="M1024.21,-440.21C1055.45,-444.13 1090.85,-448.9 1123,-454 1136.11,-456.08 1150.01,-458.51 1163.47,-460.98"/>
<polygon fill="orange" stroke="orange" points="1024.58,-436.73 1014.23,-438.97 1023.72,-443.68 1024.58,-436.73"/>
<text text-anchor="middle" x="1080" y="-457" font-family="Helvetica" font-size="10.00"> &lt; ObjType, void &gt;</text>
</g>
<!-- Node29&#45;&gt;Node26 -->
<g id="edge29" class="edge">
<title>Node29&#45;&gt;Node26</title>
<path fill="none" stroke="orange" stroke-dasharray="5,2" d="M1024.21,-420.78C1028.53,-420.48 1032.81,-420.22 1037,-420 1078.08,-417.86 1123.91,-417.47 1161.56,-417.67"/>
<polygon fill="orange" stroke="orange" points="1023.79,-417.3 1014.08,-421.54 1024.32,-424.29 1023.79,-417.3"/>
<text text-anchor="middle" x="1080" y="-423" font-family="Helvetica" font-size="10.00"> &lt; ObjType1, void &gt;</text>
</g>
</g>
</svg>
        <g id="navigator" transform="translate(0 0)" fill="#404254">
                <rect fill="#f2f5e9" fill-opacity="0.5" stroke="#606060" stroke-width=".5" x="0" y="0" width="60" height="60"/>
                <use id="zoomplus" xlink:href="#zoomPlus" x="17" y="9" onmousedown="handleZoom(evt,'in')"/>
                <use id="zoomminus" xlink:href="#zoomMin" x="42" y="9" onmousedown="handleZoom(evt,'out')"/>
                <use id="reset" xlink:href="#resetDef" x="30" y="36" onmousedown="handleReset()"/>
                <g id="arrowUp" xlink:href="#dirArrow" transform="translate(30 24)" onmousedown="handlePan(0,-1)">
                  <use xlink:href="#rim" fill="#404040">
                        <set attributeName="fill" to="#808080" begin="arrowUp.mouseover" end="arrowUp.mouseout"/>
                  </use>
                  <path fill="none" stroke="white" stroke-width="1.5" d="M0,-3.0v7 M-2.5,-0.5L0,-3.0L2.5,-0.5"/>
                </g>
                <g id="arrowRight" xlink:href="#dirArrow" transform="rotate(90) translate(36 -43)" onmousedown="handlePan(1,0)">
                  <use xlink:href="#rim" fill="#404040">
                        <set attributeName="fill" to="#808080" begin="arrowRight.mouseover" end="arrowRight.mouseout"/>
                  </use>
                  <path fill="none" stroke="white" stroke-width="1.5" d="M0,-3.0v7 M-2.5,-0.5L0,-3.0L2.5,-0.5"/>
                </g>
                <g id="arrowDown" xlink:href="#dirArrow" transform="rotate(180) translate(-30 -48)" onmousedown="handlePan(0,1)">
                  <use xlink:href="#rim" fill="#404040">
                        <set attributeName="fill" to="#808080" begin="arrowDown.mouseover" end="arrowDown.mouseout"/>
                  </use>
                  <path fill="none" stroke="white" stroke-width="1.5" d="M0,-3.0v7 M-2.5,-0.5L0,-3.0L2.5,-0.5"/>
                </g>
                <g id="arrowLeft" xlink:href="#dirArrow" transform="rotate(270) translate(-36 17)" onmousedown="handlePan(-1,0)">
                  <use xlink:href="#rim" fill="#404040">
                        <set attributeName="fill" to="#808080" begin="arrowLeft.mouseover" end="arrowLeft.mouseout"/>
                  </use>
                  <path fill="none" stroke="white" stroke-width="1.5" d="M0,-3.0v7 M-2.5,-0.5L0,-3.0L2.5,-0.5"/>
                </g>
        </g>
        <svg viewBox="0 0 15 15" width="100%" height="30px" preserveAspectRatio="xMaxYMin meet">
         <g id="arrow_out" transform="scale(0.3 0.3)">
          <a xlink:href="classCDPL_1_1Util_1_1IndirectArray__inherit__graph_org.svg" target="_base">
           <rect id="button" ry="5" rx="5" y="6" x="6" height="38" width="38"
                fill="#f2f5e9" fill-opacity="0.5" stroke="#606060" stroke-width="1.0"/>
           <path id="arrow"
             d="M 11.500037,31.436501 C 11.940474,20.09759 22.043105,11.32322 32.158766,21.979434 L 37.068811,17.246167 C 37.068811,17.246167 37.088388,32 37.088388,32 L 22.160133,31.978069 C 22.160133,31.978069 26.997745,27.140456 26.997745,27.140456 C 18.528582,18.264221 13.291696,25.230495 11.500037,31.436501 z"
             style="fill:#404040;"/>
          </a>
         </g>
        </svg>
</svg>
