<?xml version="1.0" encoding="UTF-8" standalone="no"?>
<!DOCTYPE svg PUBLIC "-//W3C//DTD SVG 1.1//EN"
 "http://www.w3.org/Graphics/SVG/1.1/DTD/svg11.dtd">
<!-- Generated by graphviz version 2.44.0 (0)
 -->
<!-- Title: CDPL::Math::GridCoordinatesTransformTraits&lt; CMatrix&lt; T, 4, 4 &gt; &gt; Pages: 1 -->
<svg width="199pt" height="207pt"
 viewBox="0.00 0.00 198.50 207.00" xmlns="http://www.w3.org/2000/svg" xmlns:xlink="http://www.w3.org/1999/xlink">
<g id="graph0" class="graph" transform="scale(1 1) rotate(0) translate(4 203)">
<title>CDPL::Math::GridCoordinatesTransformTraits&lt; CMatrix&lt; T, 4, 4 &gt; &gt;</title>
<!-- Node1 -->
<g id="node1" class="node">
<title>Node1</title>
<g id="a_node1"><a xlink:title=" ">
<polygon fill="#bfbfbf" stroke="black" points="15,-0.5 15,-41.5 162,-41.5 162,-0.5 15,-0.5"/>
<text text-anchor="start" x="23" y="-29.5" font-family="Helvetica" font-size="10.00">CDPL::Math::GridCoordinates</text>
<text text-anchor="start" x="23" y="-18.5" font-family="Helvetica" font-size="10.00">TransformTraits&lt; CMatrix</text>
<text text-anchor="middle" x="88.5" y="-7.5" font-family="Helvetica" font-size="10.00">&lt; T, 4, 4 &gt; &gt;</text>
</a>
</g>
</g>
<!-- Node2 -->
<g id="node2" class="node">
<title>Node2</title>
<g id="a_node2"><a xlink:href="structCDPL_1_1Math_1_1GridCoordinatesMatrixTransformTraits.html" target="_top" xlink:title=" ">
<polygon fill="none" stroke="black" points="11,-79.5 11,-120.5 166,-120.5 166,-79.5 11,-79.5"/>
<text text-anchor="start" x="19" y="-108.5" font-family="Helvetica" font-size="10.00">CDPL::Math::GridCoordinates</text>
<text text-anchor="start" x="19" y="-97.5" font-family="Helvetica" font-size="10.00">MatrixTransformTraits&lt; CMatrix</text>
<text text-anchor="middle" x="88.5" y="-86.5" font-family="Helvetica" font-size="10.00">&lt; T, 4, 4 &gt; &gt;</text>
</a>
</g>
</g>
<!-- Node2&#45;&gt;Node1 -->
<g id="edge1" class="edge">
<title>Node2&#45;&gt;Node1</title>
<path fill="none" stroke="midnightblue" d="M88.5,-68.91C88.5,-59.79 88.5,-50.02 88.5,-41.76"/>
<polygon fill="midnightblue" stroke="midnightblue" points="85,-69.17 88.5,-79.17 92,-69.17 85,-69.17"/>
</g>
<!-- Node3 -->
<g id="node3" class="node">
<title>Node3</title>
<g id="a_node3"><a xlink:href="structCDPL_1_1Math_1_1GridCoordinatesMatrixTransformTraits.html" target="_top" xlink:title=" ">
<polygon fill="none" stroke="black" points="0,-168.5 0,-198.5 177,-198.5 177,-168.5 0,-168.5"/>
<text text-anchor="start" x="8" y="-186.5" font-family="Helvetica" font-size="10.00">CDPL::Math::GridCoordinates</text>
<text text-anchor="middle" x="88.5" y="-175.5" font-family="Helvetica" font-size="10.00">MatrixTransformTraits&lt; MatrixType &gt;</text>
</a>
</g>
</g>
<!-- Node3&#45;&gt;Node2 -->
<g id="edge2" class="edge">
<title>Node3&#45;&gt;Node2</title>
<path fill="none" stroke="orange" stroke-dasharray="5,2" d="M88.5,-158.07C88.5,-146.06 88.5,-131.79 88.5,-120.53"/>
<polygon fill="orange" stroke="orange" points="85,-158.3 88.5,-168.3 92,-158.3 85,-158.3"/>
<text text-anchor="middle" x="139.5" y="-142" font-family="Helvetica" font-size="10.00"> &lt; CMatrix&lt; T, 4, 4 &gt; &gt;</text>
</g>
</g>
</svg>
