<?xml version="1.0" encoding="UTF-8" standalone="no"?>
<!DOCTYPE svg PUBLIC "-//W3C//DTD SVG 1.1//EN"
 "http://www.w3.org/Graphics/SVG/1.1/DTD/svg11.dtd">
<!-- Generated by graphviz version 2.44.0 (0)
 -->
<!-- Title: CDPL::Math::VectorMatrixUnaryFunctor&lt; V &gt; Pages: 1 -->
<svg width="317pt" height="88pt"
 viewBox="0.00 0.00 317.00 88.00" xmlns="http://www.w3.org/2000/svg" xmlns:xlink="http://www.w3.org/1999/xlink">
<g id="graph0" class="graph" transform="scale(1 1) rotate(0) translate(4 84)">
<title>CDPL::Math::VectorMatrixUnaryFunctor&lt; V &gt;</title>
<!-- Node1 -->
<g id="node1" class="node">
<title>Node1</title>
<g id="a_node1"><a xlink:title=" ">
<polygon fill="#bfbfbf" stroke="black" points="0,-24.5 0,-54.5 131,-54.5 131,-24.5 0,-24.5"/>
<text text-anchor="start" x="8" y="-42.5" font-family="Helvetica" font-size="10.00">CDPL::Math::VectorMatrix</text>
<text text-anchor="middle" x="65.5" y="-31.5" font-family="Helvetica" font-size="10.00">UnaryFunctor&lt; V &gt;</text>
</a>
</g>
</g>
<!-- Node2 -->
<g id="node2" class="node">
<title>Node2</title>
<g id="a_node2"><a xlink:href="structCDPL_1_1Math_1_1CrossProductMatrixFromVector.html" target="_top" xlink:title=" ">
<polygon fill="none" stroke="black" points="169.5,-49.5 169.5,-79.5 306.5,-79.5 306.5,-49.5 169.5,-49.5"/>
<text text-anchor="start" x="177.5" y="-67.5" font-family="Helvetica" font-size="10.00">CDPL::Math::CrossProduct</text>
<text text-anchor="middle" x="238" y="-56.5" font-family="Helvetica" font-size="10.00">MatrixFromVector&lt; V &gt;</text>
</a>
</g>
</g>
<!-- Node1&#45;&gt;Node2 -->
<g id="edge1" class="edge">
<title>Node1&#45;&gt;Node2</title>
<path fill="none" stroke="midnightblue" d="M141.45,-50.49C150.75,-51.85 160.22,-53.24 169.4,-54.59"/>
<polygon fill="midnightblue" stroke="midnightblue" points="141.85,-47.01 131.45,-49.02 140.83,-53.94 141.85,-47.01"/>
</g>
<!-- Node3 -->
<g id="node3" class="node">
<title>Node3</title>
<g id="a_node3"><a xlink:href="structCDPL_1_1Math_1_1DiagonalMatrixFromVector.html" target="_top" xlink:title=" ">
<polygon fill="none" stroke="black" points="167,-0.5 167,-30.5 309,-30.5 309,-0.5 167,-0.5"/>
<text text-anchor="start" x="175" y="-18.5" font-family="Helvetica" font-size="10.00">CDPL::Math::DiagonalMatrix</text>
<text text-anchor="middle" x="238" y="-7.5" font-family="Helvetica" font-size="10.00">FromVector&lt; V &gt;</text>
</a>
</g>
</g>
<!-- Node1&#45;&gt;Node3 -->
<g id="edge2" class="edge">
<title>Node1&#45;&gt;Node3</title>
<path fill="none" stroke="midnightblue" d="M141.59,-28.93C149.99,-27.75 158.51,-26.55 166.84,-25.38"/>
<polygon fill="midnightblue" stroke="midnightblue" points="140.86,-25.5 131.45,-30.36 141.84,-32.43 140.86,-25.5"/>
</g>
</g>
</svg>
