<?xml version="1.0" encoding="UTF-8" standalone="no"?>
<!DOCTYPE svg PUBLIC "-//W3C//DTD SVG 1.1//EN"
 "http://www.w3.org/Graphics/SVG/1.1/DTD/svg11.dtd">
<!-- Generated by graphviz version 2.44.0 (0)
 -->
<!-- Title: CDPL::Math::GridUnary&lt; E, F &gt; Pages: 1 -->
<svg width="267pt" height="231pt"
 viewBox="0.00 0.00 267.00 231.00" xmlns="http://www.w3.org/2000/svg" xmlns:xlink="http://www.w3.org/1999/xlink">
<g id="graph0" class="graph" transform="scale(1 1) rotate(0) translate(4 227)">
<title>CDPL::Math::GridUnary&lt; E, F &gt;</title>
<!-- Node1 -->
<g id="node1" class="node">
<title>Node1</title>
<g id="a_node1"><a xlink:title=" ">
<polygon fill="#bfbfbf" stroke="black" points="18,-0.5 18,-30.5 140,-30.5 140,-0.5 18,-0.5"/>
<text text-anchor="start" x="26" y="-18.5" font-family="Helvetica" font-size="10.00">CDPL::Math::GridUnary</text>
<text text-anchor="middle" x="79" y="-7.5" font-family="Helvetica" font-size="10.00">&lt; E, F &gt;</text>
</a>
</g>
</g>
<!-- Node2 -->
<g id="node2" class="node">
<title>Node2</title>
<g id="a_node2"><a xlink:href="classCDPL_1_1Math_1_1GridExpression.html" target="_top" xlink:title=" ">
<polygon fill="none" stroke="black" points="7.5,-68.5 7.5,-98.5 150.5,-98.5 150.5,-68.5 7.5,-68.5"/>
<text text-anchor="start" x="15.5" y="-86.5" font-family="Helvetica" font-size="10.00">CDPL::Math::GridExpression</text>
<text text-anchor="middle" x="79" y="-75.5" font-family="Helvetica" font-size="10.00">&lt; GridUnary&lt; E, F &gt; &gt;</text>
</a>
</g>
</g>
<!-- Node2&#45;&gt;Node1 -->
<g id="edge1" class="edge">
<title>Node2&#45;&gt;Node1</title>
<path fill="none" stroke="midnightblue" d="M79,-58.03C79,-48.86 79,-38.74 79,-30.79"/>
<polygon fill="midnightblue" stroke="midnightblue" points="75.5,-58.18 79,-68.18 82.5,-58.18 75.5,-58.18"/>
</g>
<!-- Node3 -->
<g id="node3" class="node">
<title>Node3</title>
<g id="a_node3"><a xlink:href="classCDPL_1_1Math_1_1Expression.html" target="_top" xlink:title=" ">
<polygon fill="none" stroke="black" points="0,-203.5 0,-222.5 150,-222.5 150,-203.5 0,-203.5"/>
<text text-anchor="middle" x="75" y="-210.5" font-family="Helvetica" font-size="10.00">CDPL::Math::Expression&lt; E &gt;</text>
</a>
</g>
</g>
<!-- Node3&#45;&gt;Node2 -->
<g id="edge2" class="edge">
<title>Node3&#45;&gt;Node2</title>
<path fill="none" stroke="midnightblue" d="M75.6,-192.9C76.41,-167.05 77.84,-121.54 78.56,-98.59"/>
<polygon fill="midnightblue" stroke="midnightblue" points="72.09,-193.13 75.27,-203.24 79.09,-193.35 72.09,-193.13"/>
</g>
<!-- Node4 -->
<g id="node4" class="node">
<title>Node4</title>
<g id="a_node4"><a xlink:href="classCDPL_1_1Math_1_1GridExpression.html" target="_top" xlink:title=" ">
<polygon fill="none" stroke="black" points="91,-146.5 91,-165.5 259,-165.5 259,-146.5 91,-146.5"/>
<text text-anchor="middle" x="175" y="-153.5" font-family="Helvetica" font-size="10.00">CDPL::Math::GridExpression&lt; E &gt;</text>
</a>
</g>
</g>
<!-- Node3&#45;&gt;Node4 -->
<g id="edge4" class="edge">
<title>Node3&#45;&gt;Node4</title>
<path fill="none" stroke="midnightblue" d="M99.48,-198.54C118.21,-188.24 143.46,-174.35 159.48,-165.53"/>
<polygon fill="midnightblue" stroke="midnightblue" points="97.7,-195.52 90.62,-203.41 101.07,-201.65 97.7,-195.52"/>
</g>
<!-- Node4&#45;&gt;Node2 -->
<g id="edge3" class="edge">
<title>Node4&#45;&gt;Node2</title>
<path fill="none" stroke="orange" stroke-dasharray="5,2" d="M154.75,-140.13C138.06,-127.87 114.55,-110.61 98.17,-98.58"/>
<polygon fill="orange" stroke="orange" points="153.1,-143.26 163.23,-146.36 157.24,-137.62 153.1,-143.26"/>
<text text-anchor="middle" x="186.5" y="-120" font-family="Helvetica" font-size="10.00"> &lt; GridUnary&lt; E, F &gt; &gt;</text>
</g>
</g>
</svg>
