<?xml version="1.0" encoding="UTF-8" standalone="no"?>
<!DOCTYPE svg PUBLIC "-//W3C//DTD SVG 1.1//EN"
 "http://www.w3.org/Graphics/SVG/1.1/DTD/svg11.dtd">
<!-- Generated by graphviz version 2.44.0 (0)
 -->
<!-- Title: CDPL::Math::SparseMatrix&lt; T, A &gt; Pages: 1 -->
<svg width="1279pt" height="69pt"
 viewBox="0.00 0.00 1279.00 68.50" xmlns="http://www.w3.org/2000/svg" xmlns:xlink="http://www.w3.org/1999/xlink">
<g id="graph0" class="graph" transform="scale(1 1) rotate(0) translate(4 64.5)">
<title>CDPL::Math::SparseMatrix&lt; T, A &gt;</title>
<!-- Node1 -->
<g id="node1" class="node">
<title>Node1</title>
<g id="a_node1"><a xlink:title=" ">
<polygon fill="#bfbfbf" stroke="black" points="1136,-19 1136,-49 1271,-49 1271,-19 1136,-19"/>
<text text-anchor="start" x="1144" y="-37" font-family="Helvetica" font-size="10.00">CDPL::Math::SparseMatrix</text>
<text text-anchor="middle" x="1203.5" y="-26" font-family="Helvetica" font-size="10.00">&lt; T, A &gt;</text>
</a>
</g>
</g>
<!-- Node2 -->
<g id="node2" class="node">
<title>Node2</title>
<g id="a_node2"><a xlink:href="classCDPL_1_1Math_1_1MatrixContainer.html" target="_top" xlink:title=" ">
<polygon fill="none" stroke="black" points="953,-8 953,-60 1099,-60 1099,-8 953,-8"/>
<text text-anchor="start" x="961" y="-48" font-family="Helvetica" font-size="10.00">CDPL::Math::MatrixContainer</text>
<text text-anchor="start" x="961" y="-37" font-family="Helvetica" font-size="10.00">&lt; SparseMatrix&lt; T, std::</text>
<text text-anchor="start" x="961" y="-26" font-family="Helvetica" font-size="10.00">unordered_map&lt; std::uint64</text>
<text text-anchor="middle" x="1026" y="-15" font-family="Helvetica" font-size="10.00">_t, T &gt; &gt; &gt;</text>
</a>
</g>
</g>
<!-- Node2&#45;&gt;Node1 -->
<g id="edge1" class="edge">
<title>Node2&#45;&gt;Node1</title>
<path fill="none" stroke="midnightblue" d="M1109.22,-34C1118.19,-34 1127.24,-34 1135.99,-34"/>
<polygon fill="midnightblue" stroke="midnightblue" points="1109.14,-30.5 1099.14,-34 1109.14,-37.5 1109.14,-30.5"/>
</g>
<!-- Node3 -->
<g id="node3" class="node">
<title>Node3</title>
<g id="a_node3"><a xlink:href="classCDPL_1_1Math_1_1MatrixExpression.html" target="_top" xlink:title=" ">
<polygon fill="none" stroke="black" points="187,-27.5 187,-46.5 364,-46.5 364,-27.5 187,-27.5"/>
<text text-anchor="middle" x="275.5" y="-34.5" font-family="Helvetica" font-size="10.00">CDPL::Math::MatrixExpression&lt; E &gt;</text>
</a>
</g>
</g>
<!-- Node3&#45;&gt;Node2 -->
<g id="edge2" class="edge">
<title>Node3&#45;&gt;Node2</title>
<path fill="none" stroke="midnightblue" d="M374.21,-39.85C376.84,-39.9 379.44,-39.95 382,-40 582.42,-43.74 632.55,-43.11 833,-44 878.33,-44.2 889.74,-46.51 935,-44 940.81,-43.68 946.82,-43.24 952.85,-42.73"/>
<polygon fill="midnightblue" stroke="midnightblue" points="374.08,-36.34 364,-39.62 373.92,-43.34 374.08,-36.34"/>
</g>
<!-- Node6 -->
<g id="node6" class="node">
<title>Node6</title>
<g id="a_node6"><a xlink:href="classCDPL_1_1Math_1_1MatrixExpression.html" target="_top" xlink:title=" ">
<polygon fill="none" stroke="black" points="429,-0.5 429,-19.5 607,-19.5 607,-0.5 429,-0.5"/>
<text text-anchor="middle" x="518" y="-7.5" font-family="Helvetica" font-size="10.00">CDPL::Math::MatrixExpression&lt; C &gt;</text>
</a>
</g>
</g>
<!-- Node3&#45;&gt;Node6 -->
<g id="edge7" class="edge">
<title>Node3&#45;&gt;Node6</title>
<path fill="none" stroke="orange" stroke-dasharray="5,2" d="M371.37,-26.35C391.44,-24.1 412.49,-21.73 432.16,-19.52"/>
<polygon fill="orange" stroke="orange" points="370.84,-22.89 361.29,-27.48 371.62,-29.84 370.84,-22.89"/>
<text text-anchor="middle" x="396.5" y="-28" font-family="Helvetica" font-size="10.00"> &lt; C &gt;</text>
</g>
<!-- Node4 -->
<g id="node4" class="node">
<title>Node4</title>
<g id="a_node4"><a xlink:href="classCDPL_1_1Math_1_1Expression.html" target="_top" xlink:title=" ">
<polygon fill="none" stroke="black" points="0,-4.5 0,-23.5 150,-23.5 150,-4.5 0,-4.5"/>
<text text-anchor="middle" x="75" y="-11.5" font-family="Helvetica" font-size="10.00">CDPL::Math::Expression&lt; E &gt;</text>
</a>
</g>
</g>
<!-- Node4&#45;&gt;Node3 -->
<g id="edge3" class="edge">
<title>Node4&#45;&gt;Node3</title>
<path fill="none" stroke="midnightblue" d="M160.3,-23.77C170.93,-25 181.8,-26.26 192.4,-27.49"/>
<polygon fill="midnightblue" stroke="midnightblue" points="160.53,-20.27 150.2,-22.6 159.73,-27.22 160.53,-20.27"/>
</g>
<!-- Node4&#45;&gt;Node6 -->
<g id="edge6" class="edge">
<title>Node4&#45;&gt;Node6</title>
<path fill="none" stroke="midnightblue" d="M160.45,-13.23C237.38,-12.54 350.58,-11.51 428.7,-10.8"/>
<polygon fill="midnightblue" stroke="midnightblue" points="160.28,-9.74 150.31,-13.33 160.34,-16.74 160.28,-9.74"/>
</g>
<!-- Node5 -->
<g id="node5" class="node">
<title>Node5</title>
<g id="a_node5"><a xlink:href="classCDPL_1_1Math_1_1MatrixContainer.html" target="_top" xlink:title=" ">
<polygon fill="none" stroke="black" points="644,-0.5 644,-19.5 815,-19.5 815,-0.5 644,-0.5"/>
<text text-anchor="middle" x="729.5" y="-7.5" font-family="Helvetica" font-size="10.00">CDPL::Math::MatrixContainer&lt; C &gt;</text>
</a>
</g>
</g>
<!-- Node5&#45;&gt;Node2 -->
<g id="edge4" class="edge">
<title>Node5&#45;&gt;Node2</title>
<path fill="none" stroke="orange" stroke-dasharray="5,2" d="M825.48,-5.64C860.08,-5.32 899.42,-6.44 935,-11 940.76,-11.74 946.68,-12.72 952.6,-13.87"/>
<polygon fill="orange" stroke="orange" points="825.33,-2.14 815.38,-5.77 825.42,-9.14 825.33,-2.14"/>
<text text-anchor="start" x="833" y="-36" font-family="Helvetica" font-size="10.00"> &lt; SparseMatrix&lt; T,</text>
<text text-anchor="start" x="833" y="-25" font-family="Helvetica" font-size="10.00"> std::unordered_map</text>
<text text-anchor="middle" x="884" y="-14" font-family="Helvetica" font-size="10.00">&lt; std::uint64_t, T &gt; &gt; &gt;</text>
</g>
<!-- Node6&#45;&gt;Node5 -->
<g id="edge5" class="edge">
<title>Node6&#45;&gt;Node5</title>
<path fill="none" stroke="midnightblue" d="M617.49,-10C626.25,-10 635.07,-10 643.71,-10"/>
<polygon fill="midnightblue" stroke="midnightblue" points="617.24,-6.5 607.24,-10 617.24,-13.5 617.24,-6.5"/>
</g>
</g>
</svg>
