<?xml version="1.0" encoding="UTF-8" standalone="no"?>
<!DOCTYPE svg PUBLIC "-//W3C//DTD SVG 1.1//EN"
 "http://www.w3.org/Graphics/SVG/1.1/DTD/svg11.dtd">
<!-- Generated by graphviz version 2.44.0 (0)
 -->
<!-- Title: CDPL::Math::Scalar1MatrixBinary&lt; E1, E2, F &gt; Pages: 1 -->
<svg width="277pt" height="253pt"
 viewBox="0.00 0.00 276.50 253.00" xmlns="http://www.w3.org/2000/svg" xmlns:xlink="http://www.w3.org/1999/xlink">
<g id="graph0" class="graph" transform="scale(1 1) rotate(0) translate(4 249)">
<title>CDPL::Math::Scalar1MatrixBinary&lt; E1, E2, F &gt;</title>
<!-- Node1 -->
<g id="node1" class="node">
<title>Node1</title>
<g id="a_node1"><a xlink:title=" ">
<polygon fill="#bfbfbf" stroke="black" points="10.5,-0.5 10.5,-30.5 147.5,-30.5 147.5,-0.5 10.5,-0.5"/>
<text text-anchor="start" x="18.5" y="-18.5" font-family="Helvetica" font-size="10.00">CDPL::Math::Scalar1Matrix</text>
<text text-anchor="middle" x="79" y="-7.5" font-family="Helvetica" font-size="10.00">Binary&lt; E1, E2, F &gt;</text>
</a>
</g>
</g>
<!-- Node2 -->
<g id="node2" class="node">
<title>Node2</title>
<g id="a_node2"><a xlink:href="classCDPL_1_1Math_1_1MatrixExpression.html" target="_top" xlink:title=" ">
<polygon fill="none" stroke="black" points="3,-68.5 3,-109.5 155,-109.5 155,-68.5 3,-68.5"/>
<text text-anchor="start" x="11" y="-97.5" font-family="Helvetica" font-size="10.00">CDPL::Math::MatrixExpression</text>
<text text-anchor="start" x="11" y="-86.5" font-family="Helvetica" font-size="10.00">&lt; Scalar1MatrixBinary&lt; E1,</text>
<text text-anchor="middle" x="79" y="-75.5" font-family="Helvetica" font-size="10.00"> E2, F &gt; &gt;</text>
</a>
</g>
</g>
<!-- Node2&#45;&gt;Node1 -->
<g id="edge1" class="edge">
<title>Node2&#45;&gt;Node1</title>
<path fill="none" stroke="midnightblue" d="M79,-58.16C79,-48.69 79,-38.65 79,-30.8"/>
<polygon fill="midnightblue" stroke="midnightblue" points="75.5,-58.46 79,-68.46 82.5,-58.46 75.5,-58.46"/>
</g>
<!-- Node3 -->
<g id="node3" class="node">
<title>Node3</title>
<g id="a_node3"><a xlink:href="classCDPL_1_1Math_1_1Expression.html" target="_top" xlink:title=" ">
<polygon fill="none" stroke="black" points="0,-225.5 0,-244.5 150,-244.5 150,-225.5 0,-225.5"/>
<text text-anchor="middle" x="75" y="-232.5" font-family="Helvetica" font-size="10.00">CDPL::Math::Expression&lt; E &gt;</text>
</a>
</g>
</g>
<!-- Node3&#45;&gt;Node2 -->
<g id="edge2" class="edge">
<title>Node3&#45;&gt;Node2</title>
<path fill="none" stroke="midnightblue" d="M75.52,-215.26C76.28,-187.92 77.69,-137.32 78.46,-109.53"/>
<polygon fill="midnightblue" stroke="midnightblue" points="72.02,-215.33 75.24,-225.42 79.01,-215.52 72.02,-215.33"/>
</g>
<!-- Node4 -->
<g id="node4" class="node">
<title>Node4</title>
<g id="a_node4"><a xlink:href="classCDPL_1_1Math_1_1MatrixExpression.html" target="_top" xlink:title=" ">
<polygon fill="none" stroke="black" points="91.5,-168.5 91.5,-187.5 268.5,-187.5 268.5,-168.5 91.5,-168.5"/>
<text text-anchor="middle" x="180" y="-175.5" font-family="Helvetica" font-size="10.00">CDPL::Math::MatrixExpression&lt; E &gt;</text>
</a>
</g>
</g>
<!-- Node3&#45;&gt;Node4 -->
<g id="edge4" class="edge">
<title>Node3&#45;&gt;Node4</title>
<path fill="none" stroke="midnightblue" d="M100.44,-220.68C120.12,-210.36 146.8,-196.39 163.71,-187.53"/>
<polygon fill="midnightblue" stroke="midnightblue" points="98.64,-217.67 91.41,-225.41 101.89,-223.87 98.64,-217.67"/>
</g>
<!-- Node4&#45;&gt;Node2 -->
<g id="edge3" class="edge">
<title>Node4&#45;&gt;Node2</title>
<path fill="none" stroke="orange" stroke-dasharray="5,2" d="M162,-161.5C145.2,-147.03 120.06,-125.37 101.85,-109.68"/>
<polygon fill="orange" stroke="orange" points="160.09,-164.47 169.95,-168.34 164.65,-159.16 160.09,-164.47"/>
<text text-anchor="start" x="147" y="-142" font-family="Helvetica" font-size="10.00"> &lt; Scalar1MatrixBinary</text>
<text text-anchor="middle" x="197.5" y="-131" font-family="Helvetica" font-size="10.00">&lt; E1, E2, F &gt; &gt;</text>
</g>
</g>
</svg>
