<?xml version="1.0" encoding="UTF-8" standalone="no"?>
<!DOCTYPE svg PUBLIC "-//W3C//DTD SVG 1.1//EN"
 "http://www.w3.org/Graphics/SVG/1.1/DTD/svg11.dtd">
<!-- Generated by graphviz version 2.44.0 (0)
 -->
<!-- Title: CDPL::Math::InitListVector&lt; T &gt; Pages: 1 -->
<svg width="304pt" height="344pt"
 viewBox="0.00 0.00 303.50 344.00" xmlns="http://www.w3.org/2000/svg" xmlns:xlink="http://www.w3.org/1999/xlink">
<g id="graph0" class="graph" transform="scale(1 1) rotate(0) translate(4 340)">
<title>CDPL::Math::InitListVector&lt; T &gt;</title>
<!-- Node1 -->
<g id="node1" class="node">
<title>Node1</title>
<g id="a_node1"><a xlink:title=" ">
<polygon fill="#bfbfbf" stroke="black" points="25,-0.5 25,-19.5 183,-19.5 183,-0.5 25,-0.5"/>
<text text-anchor="middle" x="104" y="-7.5" font-family="Helvetica" font-size="10.00">CDPL::Math::InitListVector&lt; T &gt;</text>
</a>
</g>
</g>
<!-- Node2 -->
<g id="node2" class="node">
<title>Node2</title>
<g id="a_node2"><a xlink:href="classCDPL_1_1Math_1_1VectorContainer.html" target="_top" xlink:title=" ">
<polygon fill="none" stroke="black" points="31,-57.5 31,-87.5 177,-87.5 177,-57.5 31,-57.5"/>
<text text-anchor="start" x="39" y="-75.5" font-family="Helvetica" font-size="10.00">CDPL::Math::VectorContainer</text>
<text text-anchor="middle" x="104" y="-64.5" font-family="Helvetica" font-size="10.00">&lt; InitListVector&lt; T &gt; &gt;</text>
</a>
</g>
</g>
<!-- Node2&#45;&gt;Node1 -->
<g id="edge1" class="edge">
<title>Node2&#45;&gt;Node1</title>
<path fill="none" stroke="midnightblue" d="M104,-47.35C104,-37.51 104,-26.78 104,-19.54"/>
<polygon fill="midnightblue" stroke="midnightblue" points="100.5,-47.47 104,-57.47 107.5,-47.47 100.5,-47.47"/>
</g>
<!-- Node3 -->
<g id="node3" class="node">
<title>Node3</title>
<g id="a_node3"><a xlink:href="classCDPL_1_1Math_1_1VectorExpression.html" target="_top" xlink:title=" ">
<polygon fill="none" stroke="black" points="0,-259.5 0,-278.5 178,-278.5 178,-259.5 0,-259.5"/>
<text text-anchor="middle" x="89" y="-266.5" font-family="Helvetica" font-size="10.00">CDPL::Math::VectorExpression&lt; E &gt;</text>
</a>
</g>
</g>
<!-- Node3&#45;&gt;Node2 -->
<g id="edge2" class="edge">
<title>Node3&#45;&gt;Node2</title>
<path fill="none" stroke="midnightblue" d="M90.46,-249.01C93.46,-210.11 100.25,-122.14 102.9,-87.7"/>
<polygon fill="midnightblue" stroke="midnightblue" points="86.94,-249.15 89.66,-259.39 93.92,-249.69 86.94,-249.15"/>
</g>
<!-- Node6 -->
<g id="node6" class="node">
<title>Node6</title>
<g id="a_node6"><a xlink:href="classCDPL_1_1Math_1_1VectorExpression.html" target="_top" xlink:title=" ">
<polygon fill="none" stroke="black" points="116.5,-192.5 116.5,-211.5 295.5,-211.5 295.5,-192.5 116.5,-192.5"/>
<text text-anchor="middle" x="206" y="-199.5" font-family="Helvetica" font-size="10.00">CDPL::Math::VectorExpression&lt; C &gt;</text>
</a>
</g>
</g>
<!-- Node3&#45;&gt;Node6 -->
<g id="edge7" class="edge">
<title>Node3&#45;&gt;Node6</title>
<path fill="none" stroke="orange" stroke-dasharray="5,2" d="M113.68,-254.29C136.87,-241.4 170.86,-222.52 190.47,-211.63"/>
<polygon fill="orange" stroke="orange" points="111.82,-251.32 104.78,-259.23 115.22,-257.44 111.82,-251.32"/>
<text text-anchor="middle" x="168.5" y="-233" font-family="Helvetica" font-size="10.00"> &lt; C &gt;</text>
</g>
<!-- Node4 -->
<g id="node4" class="node">
<title>Node4</title>
<g id="a_node4"><a xlink:href="classCDPL_1_1Math_1_1Expression.html" target="_top" xlink:title=" ">
<polygon fill="none" stroke="black" points="72,-316.5 72,-335.5 222,-335.5 222,-316.5 72,-316.5"/>
<text text-anchor="middle" x="147" y="-323.5" font-family="Helvetica" font-size="10.00">CDPL::Math::Expression&lt; E &gt;</text>
</a>
</g>
</g>
<!-- Node4&#45;&gt;Node3 -->
<g id="edge3" class="edge">
<title>Node4&#45;&gt;Node3</title>
<path fill="none" stroke="midnightblue" d="M130.57,-309.42C120.08,-299.47 106.87,-286.94 98.19,-278.71"/>
<polygon fill="midnightblue" stroke="midnightblue" points="128.27,-312.06 137.94,-316.41 133.09,-306.99 128.27,-312.06"/>
</g>
<!-- Node4&#45;&gt;Node6 -->
<g id="edge6" class="edge">
<title>Node4&#45;&gt;Node6</title>
<path fill="none" stroke="midnightblue" d="M163.96,-309.33C172.02,-301.03 181.14,-290.24 187,-279 198.69,-256.57 203.42,-226.61 205.14,-211.91"/>
<polygon fill="midnightblue" stroke="midnightblue" points="161.38,-306.95 156.7,-316.46 166.29,-311.95 161.38,-306.95"/>
</g>
<!-- Node5 -->
<g id="node5" class="node">
<title>Node5</title>
<g id="a_node5"><a xlink:href="classCDPL_1_1Math_1_1VectorContainer.html" target="_top" xlink:title=" ">
<polygon fill="none" stroke="black" points="118,-135.5 118,-154.5 290,-154.5 290,-135.5 118,-135.5"/>
<text text-anchor="middle" x="204" y="-142.5" font-family="Helvetica" font-size="10.00">CDPL::Math::VectorContainer&lt; C &gt;</text>
</a>
</g>
</g>
<!-- Node5&#45;&gt;Node2 -->
<g id="edge4" class="edge">
<title>Node5&#45;&gt;Node2</title>
<path fill="none" stroke="orange" stroke-dasharray="5,2" d="M183.38,-129.47C165.97,-117.19 141.19,-99.72 123.97,-87.58"/>
<polygon fill="orange" stroke="orange" points="181.55,-132.45 191.74,-135.36 185.58,-126.73 181.55,-132.45"/>
<text text-anchor="middle" x="213.5" y="-109" font-family="Helvetica" font-size="10.00"> &lt; InitListVector&lt; T &gt; &gt;</text>
</g>
<!-- Node6&#45;&gt;Node5 -->
<g id="edge5" class="edge">
<title>Node6&#45;&gt;Node5</title>
<path fill="none" stroke="midnightblue" d="M205.31,-182.12C204.98,-172.82 204.58,-162.06 204.32,-154.71"/>
<polygon fill="midnightblue" stroke="midnightblue" points="201.83,-182.54 205.69,-192.41 208.82,-182.29 201.83,-182.54"/>
</g>
</g>
</svg>
