<?xml version="1.0" encoding="UTF-8" standalone="no"?>
<!DOCTYPE svg PUBLIC "-//W3C//DTD SVG 1.1//EN"
 "http://www.w3.org/Graphics/SVG/1.1/DTD/svg11.dtd">
<!-- Generated by graphviz version 2.44.0 (0)
 -->
<!-- Title: CDPL::Math::MatrixTranspose&lt; M &gt; Pages: 1 -->
<svg width="285pt" height="231pt"
 viewBox="0.00 0.00 285.00 231.00" xmlns="http://www.w3.org/2000/svg" xmlns:xlink="http://www.w3.org/1999/xlink">
<g id="graph0" class="graph" transform="scale(1 1) rotate(0) translate(4 227)">
<title>CDPL::Math::MatrixTranspose&lt; M &gt;</title>
<!-- Node1 -->
<g id="node1" class="node">
<title>Node1</title>
<g id="a_node1"><a xlink:title=" ">
<polygon fill="#bfbfbf" stroke="black" points="0,-0.5 0,-19.5 175,-19.5 175,-0.5 0,-0.5"/>
<text text-anchor="middle" x="87.5" y="-7.5" font-family="Helvetica" font-size="10.00">CDPL::Math::MatrixTranspose&lt; M &gt;</text>
</a>
</g>
</g>
<!-- Node2 -->
<g id="node2" class="node">
<title>Node2</title>
<g id="a_node2"><a xlink:href="classCDPL_1_1Math_1_1MatrixExpression.html" target="_top" xlink:title=" ">
<polygon fill="none" stroke="black" points="11.5,-57.5 11.5,-87.5 163.5,-87.5 163.5,-57.5 11.5,-57.5"/>
<text text-anchor="start" x="19.5" y="-75.5" font-family="Helvetica" font-size="10.00">CDPL::Math::MatrixExpression</text>
<text text-anchor="middle" x="87.5" y="-64.5" font-family="Helvetica" font-size="10.00">&lt; MatrixTranspose&lt; M &gt; &gt;</text>
</a>
</g>
</g>
<!-- Node2&#45;&gt;Node1 -->
<g id="edge1" class="edge">
<title>Node2&#45;&gt;Node1</title>
<path fill="none" stroke="midnightblue" d="M87.5,-47.35C87.5,-37.51 87.5,-26.78 87.5,-19.54"/>
<polygon fill="midnightblue" stroke="midnightblue" points="84,-47.47 87.5,-57.47 91,-47.47 84,-47.47"/>
</g>
<!-- Node3 -->
<g id="node3" class="node">
<title>Node3</title>
<g id="a_node3"><a xlink:href="classCDPL_1_1Math_1_1Expression.html" target="_top" xlink:title=" ">
<polygon fill="none" stroke="black" points="8.5,-203.5 8.5,-222.5 158.5,-222.5 158.5,-203.5 8.5,-203.5"/>
<text text-anchor="middle" x="83.5" y="-210.5" font-family="Helvetica" font-size="10.00">CDPL::Math::Expression&lt; E &gt;</text>
</a>
</g>
</g>
<!-- Node3&#45;&gt;Node2 -->
<g id="edge2" class="edge">
<title>Node3&#45;&gt;Node2</title>
<path fill="none" stroke="midnightblue" d="M84.04,-193.25C84.85,-165.19 86.36,-112.88 87.09,-87.73"/>
<polygon fill="midnightblue" stroke="midnightblue" points="80.54,-193.24 83.75,-203.34 87.54,-193.44 80.54,-193.24"/>
</g>
<!-- Node4 -->
<g id="node4" class="node">
<title>Node4</title>
<g id="a_node4"><a xlink:href="classCDPL_1_1Math_1_1MatrixExpression.html" target="_top" xlink:title=" ">
<polygon fill="none" stroke="black" points="100,-146.5 100,-165.5 277,-165.5 277,-146.5 100,-146.5"/>
<text text-anchor="middle" x="188.5" y="-153.5" font-family="Helvetica" font-size="10.00">CDPL::Math::MatrixExpression&lt; E &gt;</text>
</a>
</g>
</g>
<!-- Node3&#45;&gt;Node4 -->
<g id="edge4" class="edge">
<title>Node3&#45;&gt;Node4</title>
<path fill="none" stroke="midnightblue" d="M108.94,-198.68C128.62,-188.36 155.3,-174.39 172.21,-165.53"/>
<polygon fill="midnightblue" stroke="midnightblue" points="107.14,-195.67 99.91,-203.41 110.39,-201.87 107.14,-195.67"/>
</g>
<!-- Node4&#45;&gt;Node2 -->
<g id="edge3" class="edge">
<title>Node4&#45;&gt;Node2</title>
<path fill="none" stroke="orange" stroke-dasharray="5,2" d="M169.68,-139.81C151.13,-124.85 123.03,-102.17 104.97,-87.6"/>
<polygon fill="orange" stroke="orange" points="167.71,-142.72 177.69,-146.28 172.11,-137.27 167.71,-142.72"/>
<text text-anchor="start" x="152.5" y="-120" font-family="Helvetica" font-size="10.00"> &lt; MatrixTranspose&lt;</text>
<text text-anchor="middle" x="198" y="-109" font-family="Helvetica" font-size="10.00"> M &gt; &gt;</text>
</g>
</g>
</svg>
