<?xml version="1.0" encoding="UTF-8" standalone="no"?>
<!DOCTYPE svg PUBLIC "-//W3C//DTD SVG 1.1//EN"
 "http://www.w3.org/Graphics/SVG/1.1/DTD/svg11.dtd">
<!-- Generated by graphviz version 2.44.0 (0)
 -->
<!-- Title: CDPL::MolProp::MassComposition Pages: 1 -->
<svg width="195pt" height="196pt"
 viewBox="0.00 0.00 195.00 196.00" xmlns="http://www.w3.org/2000/svg" xmlns:xlink="http://www.w3.org/1999/xlink">
<g id="graph0" class="graph" transform="scale(1 1) rotate(0) translate(4 192)">
<title>CDPL::MolProp::MassComposition</title>
<!-- Node1 -->
<g id="node1" class="node">
<title>Node1</title>
<g id="a_node1"><a xlink:title="A data type for the storage of mass percent compositions of chemical compounds.">
<polygon fill="#bfbfbf" stroke="black" points="0,-0.5 0,-19.5 170,-19.5 170,-0.5 0,-0.5"/>
<text text-anchor="middle" x="85" y="-7.5" font-family="Helvetica" font-size="10.00">CDPL::MolProp::MassComposition</text>
</a>
</g>
</g>
<!-- Node2 -->
<g id="node2" class="node">
<title>Node2</title>
<g id="a_node2"><a xlink:href="classCDPL_1_1Util_1_1Map.html" target="_top" xlink:title=" ">
<polygon fill="none" stroke="black" points="16.5,-57.5 16.5,-87.5 153.5,-87.5 153.5,-57.5 16.5,-57.5"/>
<text text-anchor="start" x="24.5" y="-75.5" font-family="Helvetica" font-size="10.00">CDPL::Util::Map&lt; unsigned</text>
<text text-anchor="middle" x="85" y="-64.5" font-family="Helvetica" font-size="10.00"> int, double, true &gt;</text>
</a>
</g>
</g>
<!-- Node2&#45;&gt;Node1 -->
<g id="edge1" class="edge">
<title>Node2&#45;&gt;Node1</title>
<path fill="none" stroke="midnightblue" d="M85,-47.35C85,-37.51 85,-26.78 85,-19.54"/>
<polygon fill="midnightblue" stroke="midnightblue" points="81.5,-47.47 85,-57.47 88.5,-47.47 81.5,-47.47"/>
</g>
<!-- Node3 -->
<g id="node3" class="node">
<title>Node3</title>
<g id="a_node3"><a xlink:href="classCDPL_1_1Util_1_1Map.html" target="_top" xlink:title="A unique sorted associative container that maps keys to values.">
<polygon fill="none" stroke="black" points="24,-146.5 24,-187.5 146,-187.5 146,-146.5 24,-146.5"/>
<text text-anchor="start" x="32" y="-175.5" font-family="Helvetica" font-size="10.00">CDPL::Util::Map&lt; Key,</text>
<text text-anchor="start" x="32" y="-164.5" font-family="Helvetica" font-size="10.00"> Value, AllowDefValues,</text>
<text text-anchor="middle" x="85" y="-153.5" font-family="Helvetica" font-size="10.00"> KeyCompFunc &gt;</text>
</a>
</g>
</g>
<!-- Node3&#45;&gt;Node2 -->
<g id="edge2" class="edge">
<title>Node3&#45;&gt;Node2</title>
<path fill="none" stroke="orange" stroke-dasharray="5,2" d="M85,-136.24C85,-119.96 85,-100.54 85,-87.66"/>
<polygon fill="orange" stroke="orange" points="81.5,-136.38 85,-146.38 88.5,-136.38 81.5,-136.38"/>
<text text-anchor="start" x="85" y="-120" font-family="Helvetica" font-size="10.00"> &lt; unsigned int, double,</text>
<text text-anchor="middle" x="136" y="-109" font-family="Helvetica" font-size="10.00"> true &gt;</text>
</g>
</g>
</svg>
