<?xml version="1.0" encoding="UTF-8" standalone="no"?>
<!DOCTYPE svg PUBLIC "-//W3C//DTD SVG 1.1//EN"
 "http://www.w3.org/Graphics/SVG/1.1/DTD/svg11.dtd">
<!-- Generated by graphviz version 2.44.0 (0)
 -->
<!-- Title: CDPL::Util::CompressedDataWriter&lt; WriterImpl, CompStream, DataType &gt; Pages: 1 -->
<svg width="250pt" height="332pt"
 viewBox="0.00 0.00 250.00 332.00" xmlns="http://www.w3.org/2000/svg" xmlns:xlink="http://www.w3.org/1999/xlink">
<g id="graph0" class="graph" transform="scale(1 1) rotate(0) translate(4 328)">
<title>CDPL::Util::CompressedDataWriter&lt; WriterImpl, CompStream, DataType &gt;</title>
<!-- Node1 -->
<g id="node1" class="node">
<title>Node1</title>
<g id="a_node1"><a xlink:title="CompressedDataWriter.">
<polygon fill="#bfbfbf" stroke="black" points="0,-0.5 0,-41.5 162,-41.5 162,-0.5 0,-0.5"/>
<text text-anchor="start" x="8" y="-29.5" font-family="Helvetica" font-size="10.00">CDPL::Util::CompressedData</text>
<text text-anchor="start" x="8" y="-18.5" font-family="Helvetica" font-size="10.00">Writer&lt; WriterImpl, CompStream,</text>
<text text-anchor="middle" x="81" y="-7.5" font-family="Helvetica" font-size="10.00"> DataType &gt;</text>
</a>
</g>
</g>
<!-- Node2 -->
<g id="node2" class="node">
<title>Node2</title>
<g id="a_node2"><a xlink:href="classCDPL_1_1Base_1_1DataWriter.html" target="_top" xlink:title=" ">
<polygon fill="none" stroke="black" points="19.5,-79.5 19.5,-120.5 142.5,-120.5 142.5,-79.5 19.5,-79.5"/>
<text text-anchor="start" x="27.5" y="-108.5" font-family="Helvetica" font-size="10.00">CDPL::Base::DataWriter</text>
<text text-anchor="start" x="27.5" y="-97.5" font-family="Helvetica" font-size="10.00">&lt; typename WriterImpl</text>
<text text-anchor="middle" x="81" y="-86.5" font-family="Helvetica" font-size="10.00">::DataType &gt;</text>
</a>
</g>
</g>
<!-- Node2&#45;&gt;Node1 -->
<g id="edge1" class="edge">
<title>Node2&#45;&gt;Node1</title>
<path fill="none" stroke="midnightblue" d="M81,-68.91C81,-59.79 81,-50.02 81,-41.76"/>
<polygon fill="midnightblue" stroke="midnightblue" points="77.5,-69.17 81,-79.17 84.5,-69.17 77.5,-69.17"/>
</g>
<!-- Node3 -->
<g id="node3" class="node">
<title>Node3</title>
<g id="a_node3"><a xlink:href="classCDPL_1_1Base_1_1DataIOBase.html" target="_top" xlink:title="Provides infrastructure for the registration of I/O callback functions.">
<polygon fill="none" stroke="black" points="11.5,-236.5 11.5,-255.5 142.5,-255.5 142.5,-236.5 11.5,-236.5"/>
<text text-anchor="middle" x="77" y="-243.5" font-family="Helvetica" font-size="10.00">CDPL::Base::DataIOBase</text>
</a>
</g>
</g>
<!-- Node3&#45;&gt;Node2 -->
<g id="edge2" class="edge">
<title>Node3&#45;&gt;Node2</title>
<path fill="none" stroke="midnightblue" d="M77.52,-226.26C78.28,-198.92 79.69,-148.32 80.46,-120.53"/>
<polygon fill="midnightblue" stroke="midnightblue" points="74.02,-226.33 77.24,-236.42 81.01,-226.52 74.02,-226.33"/>
</g>
<!-- Node5 -->
<g id="node5" class="node">
<title>Node5</title>
<g id="a_node5"><a xlink:href="classCDPL_1_1Base_1_1DataWriter.html" target="_top" xlink:title="An interface for writing data objects of a given type to an arbitrary data sink.">
<polygon fill="none" stroke="black" points="93.5,-179.5 93.5,-198.5 240.5,-198.5 240.5,-179.5 93.5,-179.5"/>
<text text-anchor="middle" x="167" y="-186.5" font-family="Helvetica" font-size="10.00">CDPL::Base::DataWriter&lt; T &gt;</text>
</a>
</g>
</g>
<!-- Node3&#45;&gt;Node5 -->
<g id="edge5" class="edge">
<title>Node3&#45;&gt;Node5</title>
<path fill="none" stroke="midnightblue" d="M99.73,-231.11C116.51,-220.86 138.81,-207.23 153.04,-198.53"/>
<polygon fill="midnightblue" stroke="midnightblue" points="97.77,-228.21 91.06,-236.41 101.42,-234.18 97.77,-228.21"/>
</g>
<!-- Node4 -->
<g id="node4" class="node">
<title>Node4</title>
<g id="a_node4"><a xlink:href="classCDPL_1_1Base_1_1ControlParameterContainer.html" target="_top" xlink:title="A class providing methods for the storage and lookup of control&#45;parameter values.">
<polygon fill="none" stroke="black" points="0,-293.5 0,-323.5 154,-323.5 154,-293.5 0,-293.5"/>
<text text-anchor="start" x="8" y="-311.5" font-family="Helvetica" font-size="10.00">CDPL::Base::ControlParameter</text>
<text text-anchor="middle" x="77" y="-300.5" font-family="Helvetica" font-size="10.00">Container</text>
</a>
</g>
</g>
<!-- Node4&#45;&gt;Node3 -->
<g id="edge3" class="edge">
<title>Node4&#45;&gt;Node3</title>
<path fill="none" stroke="midnightblue" d="M77,-283.35C77,-273.51 77,-262.78 77,-255.54"/>
<polygon fill="midnightblue" stroke="midnightblue" points="73.5,-283.47 77,-293.47 80.5,-283.47 73.5,-283.47"/>
</g>
<!-- Node5&#45;&gt;Node2 -->
<g id="edge4" class="edge">
<title>Node5&#45;&gt;Node2</title>
<path fill="none" stroke="orange" stroke-dasharray="5,2" d="M151.28,-172.1C136.98,-157.63 115.82,-136.22 100.45,-120.68"/>
<polygon fill="orange" stroke="orange" points="148.92,-174.69 158.44,-179.34 153.9,-169.77 148.92,-174.69"/>
<text text-anchor="start" x="139" y="-153" font-family="Helvetica" font-size="10.00"> &lt; typename WriterImpl</text>
<text text-anchor="middle" x="190.5" y="-142" font-family="Helvetica" font-size="10.00">::DataType &gt;</text>
</g>
</g>
</svg>
