<?xml version="1.0" encoding="UTF-8" standalone="no"?>
<!DOCTYPE svg PUBLIC "-//W3C//DTD SVG 1.1//EN"
 "http://www.w3.org/Graphics/SVG/1.1/DTD/svg11.dtd">
<!-- Generated by graphviz version 2.44.0 (0)
 -->
<!-- Title: CDPL::Math::Scalar1QuaternionBinary2&lt; E1, E2, F &gt; Pages: 1 -->
<svg width="304pt" height="253pt"
 viewBox="0.00 0.00 304.00 253.00" xmlns="http://www.w3.org/2000/svg" xmlns:xlink="http://www.w3.org/1999/xlink">
<g id="graph0" class="graph" transform="scale(1 1) rotate(0) translate(4 249)">
<title>CDPL::Math::Scalar1QuaternionBinary2&lt; E1, E2, F &gt;</title>
<!-- Node1 -->
<g id="node1" class="node">
<title>Node1</title>
<g id="a_node1"><a xlink:title=" ">
<polygon fill="#bfbfbf" stroke="black" points="8,-0.5 8,-30.5 165,-30.5 165,-0.5 8,-0.5"/>
<text text-anchor="start" x="16" y="-18.5" font-family="Helvetica" font-size="10.00">CDPL::Math::Scalar1Quaternion</text>
<text text-anchor="middle" x="86.5" y="-7.5" font-family="Helvetica" font-size="10.00">Binary2&lt; E1, E2, F &gt;</text>
</a>
</g>
</g>
<!-- Node2 -->
<g id="node2" class="node">
<title>Node2</title>
<g id="a_node2"><a xlink:href="classCDPL_1_1Math_1_1QuaternionExpression.html" target="_top" xlink:title=" ">
<polygon fill="none" stroke="black" points="0,-68.5 0,-109.5 173,-109.5 173,-68.5 0,-68.5"/>
<text text-anchor="start" x="8" y="-97.5" font-family="Helvetica" font-size="10.00">CDPL::Math::QuaternionExpression</text>
<text text-anchor="start" x="8" y="-86.5" font-family="Helvetica" font-size="10.00">&lt; Scalar1QuaternionBinary2</text>
<text text-anchor="middle" x="86.5" y="-75.5" font-family="Helvetica" font-size="10.00">&lt; E1, E2, F &gt; &gt;</text>
</a>
</g>
</g>
<!-- Node2&#45;&gt;Node1 -->
<g id="edge1" class="edge">
<title>Node2&#45;&gt;Node1</title>
<path fill="none" stroke="midnightblue" d="M86.5,-58.16C86.5,-48.69 86.5,-38.65 86.5,-30.8"/>
<polygon fill="midnightblue" stroke="midnightblue" points="83,-58.46 86.5,-68.46 90,-58.46 83,-58.46"/>
</g>
<!-- Node3 -->
<g id="node3" class="node">
<title>Node3</title>
<g id="a_node3"><a xlink:href="classCDPL_1_1Math_1_1Expression.html" target="_top" xlink:title=" ">
<polygon fill="none" stroke="black" points="7.5,-225.5 7.5,-244.5 157.5,-244.5 157.5,-225.5 7.5,-225.5"/>
<text text-anchor="middle" x="82.5" y="-232.5" font-family="Helvetica" font-size="10.00">CDPL::Math::Expression&lt; E &gt;</text>
</a>
</g>
</g>
<!-- Node3&#45;&gt;Node2 -->
<g id="edge2" class="edge">
<title>Node3&#45;&gt;Node2</title>
<path fill="none" stroke="midnightblue" d="M83.02,-215.26C83.78,-187.92 85.19,-137.32 85.96,-109.53"/>
<polygon fill="midnightblue" stroke="midnightblue" points="79.52,-215.33 82.74,-225.42 86.51,-215.52 79.52,-215.33"/>
</g>
<!-- Node4 -->
<g id="node4" class="node">
<title>Node4</title>
<g id="a_node4"><a xlink:href="classCDPL_1_1Math_1_1QuaternionExpression.html" target="_top" xlink:title=" ">
<polygon fill="none" stroke="black" points="99,-168.5 99,-187.5 296,-187.5 296,-168.5 99,-168.5"/>
<text text-anchor="middle" x="197.5" y="-175.5" font-family="Helvetica" font-size="10.00">CDPL::Math::QuaternionExpression&lt; E &gt;</text>
</a>
</g>
</g>
<!-- Node3&#45;&gt;Node4 -->
<g id="edge4" class="edge">
<title>Node3&#45;&gt;Node4</title>
<path fill="none" stroke="midnightblue" d="M109.77,-220.96C131.39,-210.62 160.97,-196.47 179.66,-187.53"/>
<polygon fill="midnightblue" stroke="midnightblue" points="107.98,-217.93 100.47,-225.41 111,-224.25 107.98,-217.93"/>
</g>
<!-- Node4&#45;&gt;Node2 -->
<g id="edge3" class="edge">
<title>Node4&#45;&gt;Node2</title>
<path fill="none" stroke="orange" stroke-dasharray="5,2" d="M178.48,-162.09C160.02,-147.62 131.9,-125.58 111.61,-109.68"/>
<polygon fill="orange" stroke="orange" points="176.42,-164.93 186.45,-168.34 180.74,-159.42 176.42,-164.93"/>
<text text-anchor="start" x="161.5" y="-142" font-family="Helvetica" font-size="10.00"> &lt; Scalar1QuaternionBinary2</text>
<text text-anchor="middle" x="225" y="-131" font-family="Helvetica" font-size="10.00">&lt; E1, E2, F &gt; &gt;</text>
</g>
</g>
</svg>
