<?xml version="1.0" encoding="UTF-8" standalone="no"?>
<!DOCTYPE svg PUBLIC "-//W3C//DTD SVG 1.1//EN"
 "http://www.w3.org/Graphics/SVG/1.1/DTD/svg11.dtd">
<!-- Generated by graphviz version 2.44.0 (0)
 -->
<!-- Title: CDPL::Util::DGCoordinatesGenerator&lt; Dim, T &gt; Pages: 1 -->
<svg width="884pt" height="61pt"
 viewBox="0.00 0.00 884.00 61.00" xmlns="http://www.w3.org/2000/svg" xmlns:xlink="http://www.w3.org/1999/xlink">
<g id="graph0" class="graph" transform="scale(1 1) rotate(0) translate(4 57)">
<title>CDPL::Util::DGCoordinatesGenerator&lt; Dim, T &gt;</title>
<!-- Node1 -->
<g id="node1" class="node">
<title>Node1</title>
<g id="a_node1"><a xlink:title="Generic implementation for generation of coordinates that fulfill user&#45;provided point distance constr...">
<polygon fill="#bfbfbf" stroke="black" points="505,-11.5 505,-41.5 642,-41.5 642,-11.5 505,-11.5"/>
<text text-anchor="start" x="513" y="-29.5" font-family="Helvetica" font-size="10.00">CDPL::Util::DGCoordinates</text>
<text text-anchor="middle" x="573.5" y="-18.5" font-family="Helvetica" font-size="10.00">Generator&lt; Dim, T &gt;</text>
</a>
</g>
</g>
<!-- Node4 -->
<g id="node4" class="node">
<title>Node4</title>
<g id="a_node4"><a xlink:href="classCDPL_1_1Util_1_1DGCoordinatesGenerator.html" target="_top" xlink:title=" ">
<polygon fill="none" stroke="black" points="739,-11.5 739,-41.5 876,-41.5 876,-11.5 739,-11.5"/>
<text text-anchor="start" x="747" y="-29.5" font-family="Helvetica" font-size="10.00">CDPL::Util::DGCoordinates</text>
<text text-anchor="middle" x="807.5" y="-18.5" font-family="Helvetica" font-size="10.00">Generator&lt; 2, double &gt;</text>
</a>
</g>
</g>
<!-- Node1&#45;&gt;Node4 -->
<g id="edge3" class="edge">
<title>Node1&#45;&gt;Node4</title>
<path fill="none" stroke="orange" stroke-dasharray="5,2" d="M652.37,-26.5C680.34,-26.5 711.64,-26.5 738.69,-26.5"/>
<polygon fill="orange" stroke="orange" points="652.23,-23 642.23,-26.5 652.23,-30 652.23,-23"/>
<text text-anchor="middle" x="690.5" y="-29.5" font-family="Helvetica" font-size="10.00"> &lt; 2, double &gt;</text>
</g>
<!-- Node2 -->
<g id="node2" class="node">
<title>Node2</title>
<g id="a_node2"><a xlink:href="classCDPL_1_1Util_1_1DGCoordinatesGeneratorBase.html" target="_top" xlink:title=" ">
<polygon fill="none" stroke="black" points="331,-0.5 331,-52.5 468,-52.5 468,-0.5 331,-0.5"/>
<text text-anchor="start" x="339" y="-40.5" font-family="Helvetica" font-size="10.00">CDPL::Util::DGCoordinates</text>
<text text-anchor="start" x="339" y="-29.5" font-family="Helvetica" font-size="10.00">GeneratorBase&lt; Dim, T,</text>
<text text-anchor="start" x="339" y="-18.5" font-family="Helvetica" font-size="10.00"> DGCoordinatesGenerator</text>
<text text-anchor="middle" x="399.5" y="-7.5" font-family="Helvetica" font-size="10.00">&lt; Dim, T &gt; &gt;</text>
</a>
</g>
</g>
<!-- Node2&#45;&gt;Node1 -->
<g id="edge1" class="edge">
<title>Node2&#45;&gt;Node1</title>
<path fill="none" stroke="midnightblue" d="M478.63,-26.5C487.35,-26.5 496.17,-26.5 504.73,-26.5"/>
<polygon fill="midnightblue" stroke="midnightblue" points="478.48,-23 468.48,-26.5 478.48,-30 478.48,-23"/>
</g>
<!-- Node3 -->
<g id="node3" class="node">
<title>Node3</title>
<g id="a_node3"><a xlink:href="classCDPL_1_1Util_1_1DGCoordinatesGeneratorBase.html" target="_top" xlink:title="Base for classes dedicated to the generation of coordinates that fulfill user&#45;provided point distance...">
<polygon fill="none" stroke="black" points="0,-6 0,-47 137,-47 137,-6 0,-6"/>
<text text-anchor="start" x="8" y="-35" font-family="Helvetica" font-size="10.00">CDPL::Util::DGCoordinates</text>
<text text-anchor="start" x="8" y="-24" font-family="Helvetica" font-size="10.00">GeneratorBase&lt; Dim, T,</text>
<text text-anchor="middle" x="68.5" y="-13" font-family="Helvetica" font-size="10.00"> Derived &gt;</text>
</a>
</g>
</g>
<!-- Node3&#45;&gt;Node2 -->
<g id="edge2" class="edge">
<title>Node3&#45;&gt;Node2</title>
<path fill="none" stroke="orange" stroke-dasharray="5,2" d="M147.46,-26.5C203.22,-26.5 277.54,-26.5 330.82,-26.5"/>
<polygon fill="orange" stroke="orange" points="147.27,-23 137.27,-26.5 147.27,-30 147.27,-23"/>
<text text-anchor="start" x="155" y="-40.5" font-family="Helvetica" font-size="10.00"> &lt; Dim, T, DGCoordinatesGenerator</text>
<text text-anchor="middle" x="234" y="-29.5" font-family="Helvetica" font-size="10.00">&lt; Dim, T &gt; &gt;</text>
</g>
</g>
</svg>
