<?xml version="1.0" encoding="UTF-8" standalone="no"?>
<!DOCTYPE svg PUBLIC "-//W3C//DTD SVG 1.1//EN"
 "http://www.w3.org/Graphics/SVG/1.1/DTD/svg11.dtd">
<!-- Generated by graphviz version 2.44.0 (0)
 -->
<!-- Title: Graphical Class Hierarchy Pages: 1 -->
<svg width="378pt" height="700pt"
 viewBox="0.00 0.00 378.00 699.50" xmlns="http://www.w3.org/2000/svg" xmlns:xlink="http://www.w3.org/1999/xlink">
<g id="graph0" class="graph" transform="scale(1 1) rotate(0) translate(4 695.5)">
<title>Graphical Class Hierarchy</title>
<!-- Node0 -->
<g id="node1" class="node">
<title>Node0</title>
<g id="a_node1"><a xlink:href="structCDPL_1_1Math_1_1MatrixTemporaryTraits.html" target="_top" xlink:title=" ">
<polygon fill="none" stroke="black" points="0,-333 0,-363 150,-363 150,-333 0,-333"/>
<text text-anchor="start" x="8" y="-351" font-family="Helvetica" font-size="10.00">CDPL::Math::MatrixTemporary</text>
<text text-anchor="middle" x="75" y="-340" font-family="Helvetica" font-size="10.00">Traits&lt; M &gt;</text>
</a>
</g>
</g>
<!-- Node1 -->
<g id="node2" class="node">
<title>Node1</title>
<g id="a_node2"><a xlink:href="structCDPL_1_1Math_1_1MatrixTemporaryTraits_3_01MatrixColumn_3_01M_01_4_01_4.html" target="_top" xlink:title=" ">
<polygon fill="none" stroke="black" points="203,-661 203,-691 353,-691 353,-661 203,-661"/>
<text text-anchor="start" x="211" y="-679" font-family="Helvetica" font-size="10.00">CDPL::Math::MatrixTemporary</text>
<text text-anchor="middle" x="278" y="-668" font-family="Helvetica" font-size="10.00">Traits&lt; MatrixColumn&lt; M &gt; &gt;</text>
</a>
</g>
</g>
<!-- Node0&#45;&gt;Node1 -->
<g id="edge1" class="edge">
<title>Node0&#45;&gt;Node1</title>
<path fill="none" stroke="midnightblue" d="M77.52,-373.49C82.41,-431.82 102.73,-575.85 186,-652 190.94,-656.52 196.64,-660.21 202.72,-663.22"/>
<polygon fill="midnightblue" stroke="midnightblue" points="80.99,-373.03 76.75,-363.32 74.01,-373.55 80.99,-373.03"/>
</g>
<!-- Node2 -->
<g id="node3" class="node">
<title>Node2</title>
<g id="a_node3"><a xlink:href="structCDPL_1_1Math_1_1MatrixTemporaryTraits_3_01MatrixRange_3_01M_01_4_01_4.html" target="_top" xlink:title=" ">
<polygon fill="none" stroke="black" points="203,-612 203,-642 353,-642 353,-612 203,-612"/>
<text text-anchor="start" x="211" y="-630" font-family="Helvetica" font-size="10.00">CDPL::Math::MatrixTemporary</text>
<text text-anchor="middle" x="278" y="-619" font-family="Helvetica" font-size="10.00">Traits&lt; MatrixRange&lt; M &gt; &gt;</text>
</a>
</g>
</g>
<!-- Node0&#45;&gt;Node2 -->
<g id="edge2" class="edge">
<title>Node0&#45;&gt;Node2</title>
<path fill="none" stroke="midnightblue" d="M79.48,-373.21C87.92,-424.49 114.34,-541.32 186,-603 191.08,-607.37 196.86,-610.96 203,-613.9"/>
<polygon fill="midnightblue" stroke="midnightblue" points="82.89,-372.37 77.9,-363.03 75.97,-373.45 82.89,-372.37"/>
</g>
<!-- Node3 -->
<g id="node4" class="node">
<title>Node3</title>
<g id="a_node4"><a xlink:href="structCDPL_1_1Math_1_1MatrixTemporaryTraits_3_01MatrixReference_3_01M_01_4_01_4.html" target="_top" xlink:title=" ">
<polygon fill="none" stroke="black" points="200,-563 200,-593 356,-593 356,-563 200,-563"/>
<text text-anchor="start" x="208" y="-581" font-family="Helvetica" font-size="10.00">CDPL::Math::MatrixTemporary</text>
<text text-anchor="middle" x="278" y="-570" font-family="Helvetica" font-size="10.00">Traits&lt; MatrixReference&lt; M &gt; &gt;</text>
</a>
</g>
</g>
<!-- Node0&#45;&gt;Node3 -->
<g id="edge3" class="edge">
<title>Node0&#45;&gt;Node3</title>
<path fill="none" stroke="midnightblue" d="M82.23,-372.91C94.46,-416.47 125.77,-506.37 186,-554 190.36,-557.45 195.16,-560.4 200.22,-562.93"/>
<polygon fill="midnightblue" stroke="midnightblue" points="85.58,-371.87 79.6,-363.13 78.82,-373.7 85.58,-371.87"/>
</g>
<!-- Node4 -->
<g id="node5" class="node">
<title>Node4</title>
<g id="a_node5"><a xlink:href="structCDPL_1_1Math_1_1MatrixTemporaryTraits_3_01MatrixRow_3_01M_01_4_01_4.html" target="_top" xlink:title=" ">
<polygon fill="none" stroke="black" points="203,-514 203,-544 353,-544 353,-514 203,-514"/>
<text text-anchor="start" x="211" y="-532" font-family="Helvetica" font-size="10.00">CDPL::Math::MatrixTemporary</text>
<text text-anchor="middle" x="278" y="-521" font-family="Helvetica" font-size="10.00">Traits&lt; MatrixRow&lt; M &gt; &gt;</text>
</a>
</g>
</g>
<!-- Node0&#45;&gt;Node4 -->
<g id="edge4" class="edge">
<title>Node0&#45;&gt;Node4</title>
<path fill="none" stroke="midnightblue" d="M86.52,-372.64C102.71,-407.54 137.05,-470.88 186,-505 191.23,-508.64 196.97,-511.73 202.96,-514.36"/>
<polygon fill="midnightblue" stroke="midnightblue" points="89.57,-370.88 82.26,-363.2 83.18,-373.75 89.57,-370.88"/>
</g>
<!-- Node5 -->
<g id="node6" class="node">
<title>Node5</title>
<g id="a_node6"><a xlink:href="structCDPL_1_1Math_1_1MatrixTemporaryTraits_3_01MatrixSlice_3_01M_01_4_01_4.html" target="_top" xlink:title=" ">
<polygon fill="none" stroke="black" points="203,-465 203,-495 353,-495 353,-465 203,-465"/>
<text text-anchor="start" x="211" y="-483" font-family="Helvetica" font-size="10.00">CDPL::Math::MatrixTemporary</text>
<text text-anchor="middle" x="278" y="-472" font-family="Helvetica" font-size="10.00">Traits&lt; MatrixSlice&lt; M &gt; &gt;</text>
</a>
</g>
</g>
<!-- Node0&#45;&gt;Node5 -->
<g id="edge5" class="edge">
<title>Node0&#45;&gt;Node5</title>
<path fill="none" stroke="midnightblue" d="M93.41,-371.15C113.18,-395.81 147.71,-434.23 186,-456 191.97,-459.39 198.42,-462.32 205.05,-464.84"/>
<polygon fill="midnightblue" stroke="midnightblue" points="95.98,-368.75 87.05,-363.05 90.47,-373.07 95.98,-368.75"/>
</g>
<!-- Node6 -->
<g id="node7" class="node">
<title>Node6</title>
<g id="a_node7"><a xlink:href="structCDPL_1_1Math_1_1MatrixTemporaryTraits_3_01MatrixTranspose_3_01M_01_4_01_4.html" target="_top" xlink:title=" ">
<polygon fill="none" stroke="black" points="199.5,-416 199.5,-446 356.5,-446 356.5,-416 199.5,-416"/>
<text text-anchor="start" x="207.5" y="-434" font-family="Helvetica" font-size="10.00">CDPL::Math::MatrixTemporary</text>
<text text-anchor="middle" x="278" y="-423" font-family="Helvetica" font-size="10.00">Traits&lt; MatrixTranspose&lt; M &gt; &gt;</text>
</a>
</g>
</g>
<!-- Node0&#45;&gt;Node6 -->
<g id="edge6" class="edge">
<title>Node0&#45;&gt;Node6</title>
<path fill="none" stroke="midnightblue" d="M109.71,-368.23C131.03,-380.4 159.47,-395.51 186,-406 195.29,-409.68 205.32,-413.02 215.21,-415.98"/>
<polygon fill="midnightblue" stroke="midnightblue" points="111.45,-365.19 101.04,-363.22 107.94,-371.25 111.45,-365.19"/>
</g>
<!-- Node7 -->
<g id="node8" class="node">
<title>Node7</title>
<g id="a_node8"><a xlink:href="structCDPL_1_1Math_1_1MatrixTemporaryTraits_3_01TriangularAdapter_3_01M_00_01Tri_01_4_01_4.html" target="_top" xlink:title=" ">
<polygon fill="none" stroke="black" points="203,-355.5 203,-396.5 353,-396.5 353,-355.5 203,-355.5"/>
<text text-anchor="start" x="211" y="-384.5" font-family="Helvetica" font-size="10.00">CDPL::Math::MatrixTemporary</text>
<text text-anchor="start" x="211" y="-373.5" font-family="Helvetica" font-size="10.00">Traits&lt; TriangularAdapter</text>
<text text-anchor="middle" x="278" y="-362.5" font-family="Helvetica" font-size="10.00">&lt; M, Tri &gt; &gt;</text>
</a>
</g>
</g>
<!-- Node0&#45;&gt;Node7 -->
<g id="edge7" class="edge">
<title>Node0&#45;&gt;Node7</title>
<path fill="none" stroke="midnightblue" d="M160.41,-359.76C174.45,-361.71 188.93,-363.73 202.7,-365.65"/>
<polygon fill="midnightblue" stroke="midnightblue" points="160.66,-356.26 150.27,-358.35 159.7,-363.19 160.66,-356.26"/>
</g>
<!-- Node8 -->
<g id="node9" class="node">
<title>Node8</title>
<g id="a_node9"><a xlink:href="structCDPL_1_1Math_1_1MatrixTemporaryTraits_3_01const_01MatrixColumn_3_01M_01_4_01_4.html" target="_top" xlink:title=" ">
<polygon fill="none" stroke="black" points="191.5,-306 191.5,-336 364.5,-336 364.5,-306 191.5,-306"/>
<text text-anchor="start" x="199.5" y="-324" font-family="Helvetica" font-size="10.00">CDPL::Math::MatrixTemporary</text>
<text text-anchor="middle" x="278" y="-313" font-family="Helvetica" font-size="10.00">Traits&lt; const MatrixColumn&lt; M &gt; &gt;</text>
</a>
</g>
</g>
<!-- Node0&#45;&gt;Node8 -->
<g id="edge8" class="edge">
<title>Node0&#45;&gt;Node8</title>
<path fill="none" stroke="midnightblue" d="M160.45,-336.66C170.72,-335.28 181.21,-333.87 191.49,-332.49"/>
<polygon fill="midnightblue" stroke="midnightblue" points="159.72,-333.22 150.27,-338.02 160.65,-340.16 159.72,-333.22"/>
</g>
<!-- Node9 -->
<g id="node10" class="node">
<title>Node9</title>
<g id="a_node10"><a xlink:href="structCDPL_1_1Math_1_1MatrixTemporaryTraits_3_01const_01MatrixRange_3_01M_01_4_01_4.html" target="_top" xlink:title=" ">
<polygon fill="none" stroke="black" points="194.5,-257 194.5,-287 361.5,-287 361.5,-257 194.5,-257"/>
<text text-anchor="start" x="202.5" y="-275" font-family="Helvetica" font-size="10.00">CDPL::Math::MatrixTemporary</text>
<text text-anchor="middle" x="278" y="-264" font-family="Helvetica" font-size="10.00">Traits&lt; const MatrixRange&lt; M &gt; &gt;</text>
</a>
</g>
</g>
<!-- Node0&#45;&gt;Node9 -->
<g id="edge9" class="edge">
<title>Node0&#45;&gt;Node9</title>
<path fill="none" stroke="midnightblue" d="M114.46,-328.25C135.28,-318.05 161.66,-305.92 186,-297 195.85,-293.39 206.46,-290.03 216.83,-287.01"/>
<polygon fill="midnightblue" stroke="midnightblue" points="112.72,-325.21 105.32,-332.78 115.83,-331.48 112.72,-325.21"/>
</g>
<!-- Node10 -->
<g id="node11" class="node">
<title>Node10</title>
<g id="a_node11"><a xlink:href="structCDPL_1_1Math_1_1MatrixTemporaryTraits_3_01const_01MatrixReference_3_01M_01_4_01_4.html" target="_top" xlink:title=" ">
<polygon fill="none" stroke="black" points="186.5,-208 186.5,-238 369.5,-238 369.5,-208 186.5,-208"/>
<text text-anchor="start" x="194.5" y="-226" font-family="Helvetica" font-size="10.00">CDPL::Math::MatrixTemporary</text>
<text text-anchor="middle" x="278" y="-215" font-family="Helvetica" font-size="10.00">Traits&lt; const MatrixReference&lt; M &gt; &gt;</text>
</a>
</g>
</g>
<!-- Node0&#45;&gt;Node10 -->
<g id="edge10" class="edge">
<title>Node0&#45;&gt;Node10</title>
<path fill="none" stroke="midnightblue" d="M95.16,-325.19C115.47,-302.42 149.59,-268.03 186,-248 193.03,-244.13 200.71,-240.83 208.52,-238.01"/>
<polygon fill="midnightblue" stroke="midnightblue" points="92.52,-322.88 88.57,-332.71 97.79,-327.5 92.52,-322.88"/>
</g>
<!-- Node11 -->
<g id="node12" class="node">
<title>Node11</title>
<g id="a_node12"><a xlink:href="structCDPL_1_1Math_1_1MatrixTemporaryTraits_3_01const_01MatrixRow_3_01M_01_4_01_4.html" target="_top" xlink:title=" ">
<polygon fill="none" stroke="black" points="198.5,-159 198.5,-189 357.5,-189 357.5,-159 198.5,-159"/>
<text text-anchor="start" x="206.5" y="-177" font-family="Helvetica" font-size="10.00">CDPL::Math::MatrixTemporary</text>
<text text-anchor="middle" x="278" y="-166" font-family="Helvetica" font-size="10.00">Traits&lt; const MatrixRow&lt; M &gt; &gt;</text>
</a>
</g>
</g>
<!-- Node0&#45;&gt;Node11 -->
<g id="edge11" class="edge">
<title>Node0&#45;&gt;Node11</title>
<path fill="none" stroke="midnightblue" d="M87.42,-323.66C104.27,-290.42 138.95,-231.29 186,-199 191.67,-195.11 197.93,-191.82 204.44,-189.04"/>
<polygon fill="midnightblue" stroke="midnightblue" points="84.25,-322.18 82.95,-332.7 90.52,-325.28 84.25,-322.18"/>
</g>
<!-- Node12 -->
<g id="node13" class="node">
<title>Node12</title>
<g id="a_node13"><a xlink:href="structCDPL_1_1Math_1_1MatrixTemporaryTraits_3_01const_01MatrixSlice_3_01M_01_4_01_4.html" target="_top" xlink:title=" ">
<polygon fill="none" stroke="black" points="197.5,-110 197.5,-140 358.5,-140 358.5,-110 197.5,-110"/>
<text text-anchor="start" x="205.5" y="-128" font-family="Helvetica" font-size="10.00">CDPL::Math::MatrixTemporary</text>
<text text-anchor="middle" x="278" y="-117" font-family="Helvetica" font-size="10.00">Traits&lt; const MatrixSlice&lt; M &gt; &gt;</text>
</a>
</g>
</g>
<!-- Node0&#45;&gt;Node12 -->
<g id="edge12" class="edge">
<title>Node0&#45;&gt;Node12</title>
<path fill="none" stroke="midnightblue" d="M82.84,-323.22C95.77,-281.1 127.85,-195.69 186,-150 190.9,-146.15 196.34,-142.9 202.07,-140.14"/>
<polygon fill="midnightblue" stroke="midnightblue" points="79.45,-322.36 79.96,-332.94 86.16,-324.35 79.45,-322.36"/>
</g>
<!-- Node13 -->
<g id="node14" class="node">
<title>Node13</title>
<g id="a_node14"><a xlink:href="structCDPL_1_1Math_1_1MatrixTemporaryTraits_3_01const_01MatrixTranspose_3_01M_01_4_01_4.html" target="_top" xlink:title=" ">
<polygon fill="none" stroke="black" points="186,-61 186,-91 370,-91 370,-61 186,-61"/>
<text text-anchor="start" x="194" y="-79" font-family="Helvetica" font-size="10.00">CDPL::Math::MatrixTemporary</text>
<text text-anchor="middle" x="278" y="-68" font-family="Helvetica" font-size="10.00">Traits&lt; const MatrixTranspose&lt; M &gt; &gt;</text>
</a>
</g>
</g>
<!-- Node0&#45;&gt;Node13 -->
<g id="edge13" class="edge">
<title>Node0&#45;&gt;Node13</title>
<path fill="none" stroke="midnightblue" d="M79.91,-322.91C89.04,-272.95 116.52,-160.72 186,-101 190.47,-97.16 195.49,-93.9 200.8,-91.14"/>
<polygon fill="midnightblue" stroke="midnightblue" points="76.45,-322.41 78.19,-332.86 83.34,-323.6 76.45,-322.41"/>
</g>
<!-- Node14 -->
<g id="node15" class="node">
<title>Node14</title>
<g id="a_node15"><a xlink:href="structCDPL_1_1Math_1_1MatrixTemporaryTraits_3_01const_01TriangularAdapter_3_01M_00_01Tri_01_4_01_4.html" target="_top" xlink:title=" ">
<polygon fill="none" stroke="black" points="202,-0.5 202,-41.5 354,-41.5 354,-0.5 202,-0.5"/>
<text text-anchor="start" x="210" y="-29.5" font-family="Helvetica" font-size="10.00">CDPL::Math::MatrixTemporary</text>
<text text-anchor="start" x="210" y="-18.5" font-family="Helvetica" font-size="10.00">Traits&lt; const TriangularAdapter</text>
<text text-anchor="middle" x="278" y="-7.5" font-family="Helvetica" font-size="10.00">&lt; M, Tri &gt; &gt;</text>
</a>
</g>
</g>
<!-- Node0&#45;&gt;Node14 -->
<g id="edge14" class="edge">
<title>Node0&#45;&gt;Node14</title>
<path fill="none" stroke="midnightblue" d="M78.19,-322.81C84.44,-266.33 107.35,-128.52 186,-52 190.67,-47.46 196.02,-43.59 201.75,-40.28"/>
<polygon fill="midnightblue" stroke="midnightblue" points="74.69,-322.68 77.15,-332.98 81.65,-323.39 74.69,-322.68"/>
</g>
</g>
</svg>
