<?xml version="1.0" encoding="UTF-8" standalone="no"?>
<!DOCTYPE svg PUBLIC "-//W3C//DTD SVG 1.1//EN"
 "http://www.w3.org/Graphics/SVG/1.1/DTD/svg11.dtd">
<!-- Generated by graphviz version 2.44.0 (0)
 -->
<!-- Title: CDPL::Math::MatrixReference&lt; M &gt; Pages: 1 -->
<svg width="285pt" height="231pt"
 viewBox="0.00 0.00 284.50 231.00" xmlns="http://www.w3.org/2000/svg" xmlns:xlink="http://www.w3.org/1999/xlink">
<g id="graph0" class="graph" transform="scale(1 1) rotate(0) translate(4 227)">
<title>CDPL::Math::MatrixReference&lt; M &gt;</title>
<!-- Node1 -->
<g id="node1" class="node">
<title>Node1</title>
<g id="a_node1"><a xlink:title=" ">
<polygon fill="#bfbfbf" stroke="black" points="0,-0.5 0,-19.5 174,-19.5 174,-0.5 0,-0.5"/>
<text text-anchor="middle" x="87" y="-7.5" font-family="Helvetica" font-size="10.00">CDPL::Math::MatrixReference&lt; M &gt;</text>
</a>
</g>
</g>
<!-- Node2 -->
<g id="node2" class="node">
<title>Node2</title>
<g id="a_node2"><a xlink:href="classCDPL_1_1Math_1_1MatrixExpression.html" target="_top" xlink:title=" ">
<polygon fill="none" stroke="black" points="11,-57.5 11,-87.5 163,-87.5 163,-57.5 11,-57.5"/>
<text text-anchor="start" x="19" y="-75.5" font-family="Helvetica" font-size="10.00">CDPL::Math::MatrixExpression</text>
<text text-anchor="middle" x="87" y="-64.5" font-family="Helvetica" font-size="10.00">&lt; MatrixReference&lt; M &gt; &gt;</text>
</a>
</g>
</g>
<!-- Node2&#45;&gt;Node1 -->
<g id="edge1" class="edge">
<title>Node2&#45;&gt;Node1</title>
<path fill="none" stroke="midnightblue" d="M87,-47.35C87,-37.51 87,-26.78 87,-19.54"/>
<polygon fill="midnightblue" stroke="midnightblue" points="83.5,-47.47 87,-57.47 90.5,-47.47 83.5,-47.47"/>
</g>
<!-- Node3 -->
<g id="node3" class="node">
<title>Node3</title>
<g id="a_node3"><a xlink:href="classCDPL_1_1Math_1_1Expression.html" target="_top" xlink:title=" ">
<polygon fill="none" stroke="black" points="8,-203.5 8,-222.5 158,-222.5 158,-203.5 8,-203.5"/>
<text text-anchor="middle" x="83" y="-210.5" font-family="Helvetica" font-size="10.00">CDPL::Math::Expression&lt; E &gt;</text>
</a>
</g>
</g>
<!-- Node3&#45;&gt;Node2 -->
<g id="edge2" class="edge">
<title>Node3&#45;&gt;Node2</title>
<path fill="none" stroke="midnightblue" d="M83.54,-193.25C84.35,-165.19 85.86,-112.88 86.59,-87.73"/>
<polygon fill="midnightblue" stroke="midnightblue" points="80.04,-193.24 83.25,-203.34 87.04,-193.44 80.04,-193.24"/>
</g>
<!-- Node4 -->
<g id="node4" class="node">
<title>Node4</title>
<g id="a_node4"><a xlink:href="classCDPL_1_1Math_1_1MatrixExpression.html" target="_top" xlink:title=" ">
<polygon fill="none" stroke="black" points="99.5,-146.5 99.5,-165.5 276.5,-165.5 276.5,-146.5 99.5,-146.5"/>
<text text-anchor="middle" x="188" y="-153.5" font-family="Helvetica" font-size="10.00">CDPL::Math::MatrixExpression&lt; E &gt;</text>
</a>
</g>
</g>
<!-- Node3&#45;&gt;Node4 -->
<g id="edge4" class="edge">
<title>Node3&#45;&gt;Node4</title>
<path fill="none" stroke="midnightblue" d="M108.44,-198.68C128.12,-188.36 154.8,-174.39 171.71,-165.53"/>
<polygon fill="midnightblue" stroke="midnightblue" points="106.64,-195.67 99.41,-203.41 109.89,-201.87 106.64,-195.67"/>
</g>
<!-- Node4&#45;&gt;Node2 -->
<g id="edge3" class="edge">
<title>Node4&#45;&gt;Node2</title>
<path fill="none" stroke="orange" stroke-dasharray="5,2" d="M169.18,-139.81C150.63,-124.85 122.53,-102.17 104.47,-87.6"/>
<polygon fill="orange" stroke="orange" points="167.21,-142.72 177.19,-146.28 171.61,-137.27 167.21,-142.72"/>
<text text-anchor="start" x="152" y="-120" font-family="Helvetica" font-size="10.00"> &lt; MatrixReference&lt;</text>
<text text-anchor="middle" x="197" y="-109" font-family="Helvetica" font-size="10.00"> M &gt; &gt;</text>
</g>
</g>
</svg>
