<?xml version="1.0" encoding="UTF-8" standalone="no"?>
<!DOCTYPE svg PUBLIC "-//W3C//DTD SVG 1.1//EN"
 "http://www.w3.org/Graphics/SVG/1.1/DTD/svg11.dtd">
<!-- Generated by graphviz version 2.40.1 (0)
 -->
<!-- Title: CDPL::Math::RotationMatrix&lt; T &gt; Pages: 1 -->
<svg width="1629pt" height="120pt"
 viewBox="0.00 0.00 1629.00 119.50" xmlns="http://www.w3.org/2000/svg" xmlns:xlink="http://www.w3.org/1999/xlink">
<g id="graph0" class="graph" transform="scale(1 1) rotate(0) translate(4 115.5)">
<title>CDPL::Math::RotationMatrix&lt; T &gt;</title>
<!-- Node1 -->
<g id="node1" class="node">
<title>Node1</title>
<g id="a_node1"><a xlink:title=" ">
<polygon fill="#bfbfbf" stroke="#000000" points="1443,-47.5 1443,-66.5 1621,-66.5 1621,-47.5 1443,-47.5"/>
<text text-anchor="middle" x="1532" y="-54.5" font-family="Helvetica,sans-Serif" font-size="10.00" fill="#000000">CDPL::Math::RotationMatrix&lt; T &gt;</text>
</a>
</g>
</g>
<!-- Node2 -->
<g id="node2" class="node">
<title>Node2</title>
<g id="a_node2"><a xlink:href="classCDPL_1_1Math_1_1MatrixContainer.html" target="_top" xlink:title=" ">
<polygon fill="none" stroke="#000000" points="1250,-42 1250,-72 1406,-72 1406,-42 1250,-42"/>
<text text-anchor="start" x="1258" y="-60" font-family="Helvetica,sans-Serif" font-size="10.00" fill="#000000">CDPL::Math::MatrixContainer</text>
<text text-anchor="middle" x="1328" y="-49" font-family="Helvetica,sans-Serif" font-size="10.00" fill="#000000">&lt; RotationMatrix&lt; T &gt; &gt;</text>
</a>
</g>
</g>
<!-- Node2&#45;&gt;Node1 -->
<g id="edge1" class="edge">
<title>Node2&#45;&gt;Node1</title>
<path fill="none" stroke="#191970" d="M1416.4304,-57C1425.1358,-57 1433.9754,-57 1442.6896,-57"/>
<polygon fill="#191970" stroke="#191970" points="1416.2883,-53.5001 1406.2883,-57 1416.2883,-60.5001 1416.2883,-53.5001"/>
</g>
<!-- Node3 -->
<g id="node3" class="node">
<title>Node3</title>
<g id="a_node3"><a xlink:href="classCDPL_1_1Math_1_1MatrixExpression.html" target="_top" xlink:title=" ">
<polygon fill="none" stroke="#000000" points="689.5,-62 689.5,-92 851.5,-92 851.5,-62 689.5,-62"/>
<text text-anchor="start" x="697.5" y="-80" font-family="Helvetica,sans-Serif" font-size="10.00" fill="#000000">CDPL::Math::MatrixExpression</text>
<text text-anchor="middle" x="770.5" y="-69" font-family="Helvetica,sans-Serif" font-size="10.00" fill="#000000">&lt; RotationMatrix&lt; T &gt; &gt;</text>
</a>
</g>
</g>
<!-- Node3&#45;&gt;Node2 -->
<g id="edge2" class="edge">
<title>Node3&#45;&gt;Node2</title>
<path fill="none" stroke="#191970" d="M862.0353,-74.552C955.1657,-71.9375 1103.6578,-67.4275 1232,-62 1237.836,-61.7532 1243.8707,-61.4804 1249.9406,-61.1934"/>
<polygon fill="#191970" stroke="#191970" points="861.6974,-71.06 851.799,-74.838 861.8929,-78.0573 861.6974,-71.06"/>
</g>
<!-- Node4 -->
<g id="node4" class="node">
<title>Node4</title>
<g id="a_node4"><a xlink:href="classCDPL_1_1Math_1_1Expression.html" target="_top" xlink:title=" ">
<polygon fill="none" stroke="#000000" points="348,-81 348,-111 487,-111 487,-81 348,-81"/>
<text text-anchor="start" x="356" y="-99" font-family="Helvetica,sans-Serif" font-size="10.00" fill="#000000">CDPL::Math::Expression</text>
<text text-anchor="middle" x="417.5" y="-88" font-family="Helvetica,sans-Serif" font-size="10.00" fill="#000000">&lt; RotationMatrix&lt; T &gt; &gt;</text>
</a>
</g>
</g>
<!-- Node4&#45;&gt;Node3 -->
<g id="edge3" class="edge">
<title>Node4&#45;&gt;Node3</title>
<path fill="none" stroke="#191970" d="M497.2358,-92.2355C543.8249,-89.9783 603.7522,-86.9759 657,-84 667.4471,-83.4161 678.4333,-82.774 689.2876,-82.1227"/>
<polygon fill="#191970" stroke="#191970" points="497.0231,-88.7416 487.2036,-92.72 497.3609,-95.7334 497.0231,-88.7416"/>
</g>
<!-- Node5 -->
<g id="node5" class="node">
<title>Node5</title>
<g id="a_node5"><a xlink:href="classCDPL_1_1Math_1_1Expression.html" target="_top" xlink:title=" ">
<polygon fill="none" stroke="#000000" points="0,-41.5 0,-60.5 160,-60.5 160,-41.5 0,-41.5"/>
<text text-anchor="middle" x="80" y="-48.5" font-family="Helvetica,sans-Serif" font-size="10.00" fill="#000000">CDPL::Math::Expression&lt; E &gt;</text>
</a>
</g>
</g>
<!-- Node5&#45;&gt;Node4 -->
<g id="edge4" class="edge">
<title>Node5&#45;&gt;Node4</title>
<path fill="none" stroke="#ffa500" stroke-dasharray="5,2" d="M155.9912,-61.9565C163.4264,-62.9983 170.8582,-64.0277 178,-65 235.1223,-72.7767 299.9753,-81.1426 347.7755,-87.2213"/>
<polygon fill="#ffa500" stroke="#ffa500" points="156.2675,-58.461 145.8771,-60.5325 155.2915,-65.3926 156.2675,-58.461"/>
<text text-anchor="middle" x="241" y="-84" font-family="Helvetica,sans-Serif" font-size="10.00" fill="#000000"> &lt; RotationMatrix&lt; T &gt; &gt;</text>
</g>
<!-- Node6 -->
<g id="node6" class="node">
<title>Node6</title>
<g id="a_node6"><a xlink:href="classCDPL_1_1Math_1_1MatrixExpression.html" target="_top" xlink:title=" ">
<polygon fill="none" stroke="#000000" points="322,-41.5 322,-60.5 513,-60.5 513,-41.5 322,-41.5"/>
<text text-anchor="middle" x="417.5" y="-48.5" font-family="Helvetica,sans-Serif" font-size="10.00" fill="#000000">CDPL::Math::MatrixExpression&lt; E &gt;</text>
</a>
</g>
</g>
<!-- Node5&#45;&gt;Node6 -->
<g id="edge6" class="edge">
<title>Node5&#45;&gt;Node6</title>
<path fill="none" stroke="#191970" d="M170.5288,-51C217.2838,-51 274.3262,-51 321.8063,-51"/>
<polygon fill="#191970" stroke="#191970" points="170.4109,-47.5001 160.4109,-51 170.4108,-54.5001 170.4109,-47.5001"/>
</g>
<!-- Node9 -->
<g id="node9" class="node">
<title>Node9</title>
<g id="a_node9"><a xlink:href="classCDPL_1_1Math_1_1Expression.html" target="_top" xlink:title=" ">
<polygon fill="none" stroke="#000000" points="337,-.5 337,-19.5 498,-19.5 498,-.5 337,-.5"/>
<text text-anchor="middle" x="417.5" y="-7.5" font-family="Helvetica,sans-Serif" font-size="10.00" fill="#000000">CDPL::Math::Expression&lt; C &gt;</text>
</a>
</g>
</g>
<!-- Node5&#45;&gt;Node9 -->
<g id="edge10" class="edge">
<title>Node5&#45;&gt;Node9</title>
<path fill="none" stroke="#ffa500" stroke-dasharray="5,2" d="M149.2516,-40.0143C158.8977,-38.5969 168.6899,-37.2173 178,-36 230.7721,-29.1002 290.2567,-22.6357 336.7418,-17.8786"/>
<polygon fill="#ffa500" stroke="#ffa500" points="148.6537,-36.5647 139.2786,-41.5 149.6852,-43.4883 148.6537,-36.5647"/>
<text text-anchor="middle" x="241" y="-39" font-family="Helvetica,sans-Serif" font-size="10.00" fill="#000000"> &lt; C &gt;</text>
</g>
<!-- Node6&#45;&gt;Node3 -->
<g id="edge5" class="edge">
<title>Node6&#45;&gt;Node3</title>
<path fill="none" stroke="#ffa500" stroke-dasharray="5,2" d="M523.1821,-58.784C576.4031,-62.7039 639.9227,-67.3824 689.262,-71.0165"/>
<polygon fill="#ffa500" stroke="#ffa500" points="523.257,-55.2801 513.0269,-58.036 522.7427,-62.2612 523.257,-55.2801"/>
<text text-anchor="middle" x="594" y="-71" font-family="Helvetica,sans-Serif" font-size="10.00" fill="#000000"> &lt; RotationMatrix&lt; T &gt; &gt;</text>
</g>
<!-- Node8 -->
<g id="node8" class="node">
<title>Node8</title>
<g id="a_node8"><a xlink:href="classCDPL_1_1Math_1_1MatrixExpression.html" target="_top" xlink:title=" ">
<polygon fill="none" stroke="#000000" points="675,-23.5 675,-42.5 866,-42.5 866,-23.5 675,-23.5"/>
<text text-anchor="middle" x="770.5" y="-30.5" font-family="Helvetica,sans-Serif" font-size="10.00" fill="#000000">CDPL::Math::MatrixExpression&lt; C &gt;</text>
</a>
</g>
</g>
<!-- Node6&#45;&gt;Node8 -->
<g id="edge11" class="edge">
<title>Node6&#45;&gt;Node8</title>
<path fill="none" stroke="#ffa500" stroke-dasharray="5,2" d="M510.4023,-40.5652C517.367,-39.9706 524.2912,-39.438 531,-39 578.3152,-35.9111 630.9839,-34.3834 674.8554,-33.6391"/>
<polygon fill="#ffa500" stroke="#ffa500" points="509.8388,-37.1015 500.1896,-41.4768 510.4612,-44.0738 509.8388,-37.1015"/>
<text text-anchor="middle" x="594" y="-42" font-family="Helvetica,sans-Serif" font-size="10.00" fill="#000000"> &lt; C &gt;</text>
</g>
<!-- Node7 -->
<g id="node7" class="node">
<title>Node7</title>
<g id="a_node7"><a xlink:href="classCDPL_1_1Math_1_1MatrixContainer.html" target="_top" xlink:title=" ">
<polygon fill="none" stroke="#000000" points="903,-27.5 903,-46.5 1088,-46.5 1088,-27.5 903,-27.5"/>
<text text-anchor="middle" x="995.5" y="-34.5" font-family="Helvetica,sans-Serif" font-size="10.00" fill="#000000">CDPL::Math::MatrixContainer&lt; C &gt;</text>
</a>
</g>
</g>
<!-- Node7&#45;&gt;Node2 -->
<g id="edge7" class="edge">
<title>Node7&#45;&gt;Node2</title>
<path fill="none" stroke="#ffa500" stroke-dasharray="5,2" d="M1098.293,-43.0112C1139.8182,-45.4588 1188.1935,-48.3345 1232,-51 1237.8339,-51.355 1243.8671,-51.7251 1249.9359,-52.0994"/>
<polygon fill="#ffa500" stroke="#ffa500" points="1098.3561,-39.5089 1088.1676,-42.4148 1097.9445,-46.4968 1098.3561,-39.5089"/>
<text text-anchor="middle" x="1169" y="-54" font-family="Helvetica,sans-Serif" font-size="10.00" fill="#000000"> &lt; RotationMatrix&lt; T &gt; &gt;</text>
</g>
<!-- Node8&#45;&gt;Node7 -->
<g id="edge8" class="edge">
<title>Node8&#45;&gt;Node7</title>
<path fill="none" stroke="#191970" d="M876.4891,-34.8843C885.2459,-35.0399 894.0554,-35.1965 902.7045,-35.3503"/>
<polygon fill="#191970" stroke="#191970" points="876.3072,-31.3806 866.2465,-34.7022 876.1827,-38.3795 876.3072,-31.3806"/>
</g>
<!-- Node9&#45;&gt;Node8 -->
<g id="edge9" class="edge">
<title>Node9&#45;&gt;Node8</title>
<path fill="none" stroke="#191970" d="M508.0897,-15.9024C559.208,-19.2331 623.0419,-23.3922 674.9508,-26.7744"/>
<polygon fill="#191970" stroke="#191970" points="508.2493,-12.4055 498.0429,-15.2478 507.7941,-19.3907 508.2493,-12.4055"/>
</g>
</g>
</svg>
