<?xml version="1.0" encoding="UTF-8" standalone="no"?>
<!DOCTYPE svg PUBLIC "-//W3C//DTD SVG 1.1//EN"
 "http://www.w3.org/Graphics/SVG/1.1/DTD/svg11.dtd">
<!-- Generated by graphviz version 2.44.0 (0)
 -->
<!-- Title: CDPL::Vis::DefaultFeatureColorTable Pages: 1 -->
<svg width="170pt" height="253pt"
 viewBox="0.00 0.00 170.00 253.00" xmlns="http://www.w3.org/2000/svg" xmlns:xlink="http://www.w3.org/1999/xlink">
<g id="graph0" class="graph" transform="scale(1 1) rotate(0) translate(4 249)">
<title>CDPL::Vis::DefaultFeatureColorTable</title>
<!-- Node1 -->
<g id="node1" class="node">
<title>Node1</title>
<g id="a_node1"><a xlink:title="Provides default colors for the type dependent coloring of chemical features in 3D visualizations of ...">
<polygon fill="#bfbfbf" stroke="black" points="0,-0.5 0,-30.5 134,-30.5 134,-0.5 0,-0.5"/>
<text text-anchor="start" x="8" y="-18.5" font-family="Helvetica" font-size="10.00">CDPL::Vis::DefaultFeature</text>
<text text-anchor="middle" x="67" y="-7.5" font-family="Helvetica" font-size="10.00">ColorTable</text>
</a>
</g>
</g>
<!-- Node2 -->
<g id="node2" class="node">
<title>Node2</title>
<g id="a_node2"><a xlink:href="classCDPL_1_1Vis_1_1ColorTable.html" target="_top" xlink:title="A container for the storage and lookup of Vis::Color objects that are associated with a numeric ident...">
<polygon fill="none" stroke="black" points="9,-68.5 9,-87.5 125,-87.5 125,-68.5 9,-68.5"/>
<text text-anchor="middle" x="67" y="-75.5" font-family="Helvetica" font-size="10.00">CDPL::Vis::ColorTable</text>
</a>
</g>
</g>
<!-- Node2&#45;&gt;Node1 -->
<g id="edge1" class="edge">
<title>Node2&#45;&gt;Node1</title>
<path fill="none" stroke="midnightblue" d="M67,-58.22C67,-49.36 67,-38.96 67,-30.76"/>
<polygon fill="midnightblue" stroke="midnightblue" points="63.5,-58.33 67,-68.33 70.5,-58.33 63.5,-58.33"/>
</g>
<!-- Node3 -->
<g id="node3" class="node">
<title>Node3</title>
<g id="a_node3"><a xlink:href="classCDPL_1_1Util_1_1Map.html" target="_top" xlink:title=" ">
<polygon fill="none" stroke="black" points="11.5,-125.5 11.5,-155.5 122.5,-155.5 122.5,-125.5 11.5,-125.5"/>
<text text-anchor="start" x="19.5" y="-143.5" font-family="Helvetica" font-size="10.00">CDPL::Util::Map&lt; std</text>
<text text-anchor="middle" x="67" y="-132.5" font-family="Helvetica" font-size="10.00">::size_t, Color &gt;</text>
</a>
</g>
</g>
<!-- Node3&#45;&gt;Node2 -->
<g id="edge2" class="edge">
<title>Node3&#45;&gt;Node2</title>
<path fill="none" stroke="midnightblue" d="M67,-115.35C67,-105.51 67,-94.78 67,-87.54"/>
<polygon fill="midnightblue" stroke="midnightblue" points="63.5,-115.47 67,-125.47 70.5,-115.47 63.5,-115.47"/>
</g>
<!-- Node4 -->
<g id="node4" class="node">
<title>Node4</title>
<g id="a_node4"><a xlink:href="classCDPL_1_1Util_1_1Map.html" target="_top" xlink:title="A unique sorted associative container that maps keys to values.">
<polygon fill="none" stroke="black" points="6,-203.5 6,-244.5 128,-244.5 128,-203.5 6,-203.5"/>
<text text-anchor="start" x="14" y="-232.5" font-family="Helvetica" font-size="10.00">CDPL::Util::Map&lt; Key,</text>
<text text-anchor="start" x="14" y="-221.5" font-family="Helvetica" font-size="10.00"> Value, AllowDefValues,</text>
<text text-anchor="middle" x="67" y="-210.5" font-family="Helvetica" font-size="10.00"> KeyCompFunc &gt;</text>
</a>
</g>
</g>
<!-- Node4&#45;&gt;Node3 -->
<g id="edge3" class="edge">
<title>Node4&#45;&gt;Node3</title>
<path fill="none" stroke="orange" stroke-dasharray="5,2" d="M67,-193.03C67,-180.26 67,-165.97 67,-155.68"/>
<polygon fill="orange" stroke="orange" points="63.5,-193.27 67,-203.27 70.5,-193.27 63.5,-193.27"/>
<text text-anchor="middle" x="114.5" y="-177" font-family="Helvetica" font-size="10.00"> &lt; std::size_t, Color &gt;</text>
</g>
</g>
</svg>
