<?xml version="1.0" encoding="UTF-8" standalone="no"?>
<!DOCTYPE svg PUBLIC "-//W3C//DTD SVG 1.1//EN"
 "http://www.w3.org/Graphics/SVG/1.1/DTD/svg11.dtd">
<!-- Generated by graphviz version 2.40.1 (0)
 -->
<!-- Title: CDPL::Math::Quaternion&lt; T &gt; Pages: 1 -->
<!--zoomable 120 -->
<svg id="main" version="1.1" xmlns="http://www.w3.org/2000/svg" xmlns:xlink="http://www.w3.org/1999/xlink" xml:space="preserve" onload="init(evt)">
<style type="text/css"><![CDATA[
.edge:hover path { stroke: red; }
.edge:hover polygon { stroke: red; fill: red; }
]]></style>
<script type="text/javascript"><![CDATA[
var edges = document.getElementsByTagName('g');
if (edges && edges.length) {
  for (var i=0;i<edges.length;i++) {
    if (edges[i].id.substr(0,4)=='edge') {
      edges[i].setAttribute('class','edge');
    }
  }
}
]]></script>
        <defs>
                <circle id="rim" cx="0" cy="0" r="7"/>
                <circle id="rim2" cx="0" cy="0" r="3.5"/>
                <g id="zoomPlus">
                        <use xlink:href="#rim" fill="#404040">
                                <set attributeName="fill" to="#808080" begin="zoomplus.mouseover" end="zoomplus.mouseout"/>
                        </use>
                        <path d="M-4,0h8M0,-4v8" fill="none" stroke="white" stroke-width="1.5" pointer-events="none"/>
                </g>
                <g id="zoomMin">
                        <use xlink:href="#rim" fill="#404040">
                                <set attributeName="fill" to="#808080" begin="zoomminus.mouseover" end="zoomminus.mouseout"/>
                        </use>
                        <path d="M-4,0h8" fill="none" stroke="white" stroke-width="1.5" pointer-events="none"/>
                </g>
                <g id="dirArrow">
                        <path fill="none" stroke="white" stroke-width="1.5" d="M0,-3.0v7 M-2.5,-0.5L0,-3.0L2.5,-0.5"/>
                </g>
               <g id="resetDef">
                       <use xlink:href="#rim2" fill="#404040">
                               <set attributeName="fill" to="#808080" begin="reset.mouseover" end="reset.mouseout"/>
                       </use>
               </g>
        </defs>

<script type="text/javascript">
var viewWidth = 1655;
var viewHeight = 120;
var sectionId = 'dynsection-0';
</script>
<script xlink:href="svgpan.js"/>
<svg id="graph" class="graph">
<g id="viewport">
<title>CDPL::Math::Quaternion&lt; T &gt;</title>
<!-- Node1 -->
<g id="node1" class="node">
<title>Node1</title>
<g id="a_node1"><a xlink:title=" ">
<polygon fill="#bfbfbf" stroke="#000000" points="1486,-47.5 1486,-66.5 1647,-66.5 1647,-47.5 1486,-47.5"/>
<text text-anchor="middle" x="1566.5" y="-54.5" font-family="Helvetica,sans-Serif" font-size="10.00" fill="#000000">CDPL::Math::Quaternion&lt; T &gt;</text>
</a>
</g>
</g>
<!-- Node2 -->
<g id="node2" class="node">
<title>Node2</title>
<g id="a_node2"><a xlink:href="classCDPL_1_1Math_1_1QuaternionContainer.html" target="_top" xlink:title=" ">
<polygon fill="none" stroke="#000000" points="1270,-42 1270,-72 1449,-72 1449,-42 1270,-42"/>
<text text-anchor="start" x="1278" y="-60" font-family="Helvetica,sans-Serif" font-size="10.00" fill="#000000">CDPL::Math::QuaternionContainer</text>
<text text-anchor="middle" x="1359.5" y="-49" font-family="Helvetica,sans-Serif" font-size="10.00" fill="#000000">&lt; Quaternion&lt; T &gt; &gt;</text>
</a>
</g>
</g>
<!-- Node2&#45;&gt;Node1 -->
<g id="edge1" class="edge">
<title>Node2&#45;&gt;Node1</title>
<path fill="none" stroke="#191970" d="M1459.173,-57C1468.1315,-57 1477.1282,-57 1485.8942,-57"/>
<polygon fill="#191970" stroke="#191970" points="1459.0893,-53.5001 1449.0893,-57 1459.0893,-60.5001 1459.0893,-53.5001"/>
</g>
<!-- Node3 -->
<g id="node3" class="node">
<title>Node3</title>
<g id="a_node3"><a xlink:href="classCDPL_1_1Math_1_1QuaternionExpression.html" target="_top" xlink:title=" ">
<polygon fill="none" stroke="#000000" points="679,-62 679,-92 864,-92 864,-62 679,-62"/>
<text text-anchor="start" x="687" y="-80" font-family="Helvetica,sans-Serif" font-size="10.00" fill="#000000">CDPL::Math::QuaternionExpression</text>
<text text-anchor="middle" x="771.5" y="-69" font-family="Helvetica,sans-Serif" font-size="10.00" fill="#000000">&lt; Quaternion&lt; T &gt; &gt;</text>
</a>
</g>
</g>
<!-- Node3&#45;&gt;Node2 -->
<g id="edge2" class="edge">
<title>Node3&#45;&gt;Node2</title>
<path fill="none" stroke="#191970" d="M874.206,-74.2477C971.5053,-71.5327 1121.7147,-67.0632 1252,-62 1257.7875,-61.7751 1263.7496,-61.5313 1269.7593,-61.2766"/>
<polygon fill="#191970" stroke="#191970" points="873.9768,-70.7526 864.0779,-74.5293 874.1714,-77.7499 873.9768,-70.7526"/>
</g>
<!-- Node4 -->
<g id="node4" class="node">
<title>Node4</title>
<g id="a_node4"><a xlink:href="classCDPL_1_1Math_1_1Expression.html" target="_top" xlink:title=" ">
<polygon fill="none" stroke="#000000" points="346.5,-81 346.5,-111 477.5,-111 477.5,-81 346.5,-81"/>
<text text-anchor="start" x="354.5" y="-99" font-family="Helvetica,sans-Serif" font-size="10.00" fill="#000000">CDPL::Math::Expression</text>
<text text-anchor="middle" x="412" y="-88" font-family="Helvetica,sans-Serif" font-size="10.00" fill="#000000">&lt; Quaternion&lt; T &gt; &gt;</text>
</a>
</g>
</g>
<!-- Node4&#45;&gt;Node3 -->
<g id="edge3" class="edge">
<title>Node4&#45;&gt;Node3</title>
<path fill="none" stroke="#191970" d="M487.7162,-92.2032C533.5333,-89.8843 593.1302,-86.8301 646,-84 656.6775,-83.4284 667.8654,-82.8192 678.9771,-82.2077"/>
<polygon fill="#191970" stroke="#191970" points="487.3766,-88.7158 477.5661,-92.7164 487.7301,-95.7069 487.3766,-88.7158"/>
</g>
<!-- Node5 -->
<g id="node5" class="node">
<title>Node5</title>
<g id="a_node5"><a xlink:href="classCDPL_1_1Math_1_1Expression.html" target="_top" xlink:title=" ">
<polygon fill="none" stroke="#000000" points="0,-41.5 0,-60.5 160,-60.5 160,-41.5 0,-41.5"/>
<text text-anchor="middle" x="80" y="-48.5" font-family="Helvetica,sans-Serif" font-size="10.00" fill="#000000">CDPL::Math::Expression&lt; E &gt;</text>
</a>
</g>
</g>
<!-- Node5&#45;&gt;Node4 -->
<g id="edge4" class="edge">
<title>Node5&#45;&gt;Node4</title>
<path fill="none" stroke="#ffa500" stroke-dasharray="5,2" d="M155.9943,-61.9341C163.4289,-62.9804 170.8597,-64.017 178,-65 234.8359,-72.8243 299.4904,-81.362 346.4139,-87.4928"/>
<polygon fill="#ffa500" stroke="#ffa500" points="156.2721,-58.4387 145.8808,-60.5054 155.2929,-65.3699 156.2721,-58.4387"/>
<text text-anchor="middle" x="232.5" y="-82" font-family="Helvetica,sans-Serif" font-size="10.00" fill="#000000"> &lt; Quaternion&lt; T &gt; &gt;</text>
</g>
<!-- Node6 -->
<g id="node6" class="node">
<title>Node6</title>
<g id="a_node6"><a xlink:href="classCDPL_1_1Math_1_1QuaternionExpression.html" target="_top" xlink:title=" ">
<polygon fill="none" stroke="#000000" points="305,-41.5 305,-60.5 519,-60.5 519,-41.5 305,-41.5"/>
<text text-anchor="middle" x="412" y="-48.5" font-family="Helvetica,sans-Serif" font-size="10.00" fill="#000000">CDPL::Math::QuaternionExpression&lt; E &gt;</text>
</a>
</g>
</g>
<!-- Node5&#45;&gt;Node6 -->
<g id="edge6" class="edge">
<title>Node5&#45;&gt;Node6</title>
<path fill="none" stroke="#191970" d="M170.4579,-51C211.9405,-51 261.4232,-51 304.7678,-51"/>
<polygon fill="#191970" stroke="#191970" points="170.368,-47.5001 160.3679,-51 170.3679,-54.5001 170.368,-47.5001"/>
</g>
<!-- Node9 -->
<g id="node9" class="node">
<title>Node9</title>
<g id="a_node9"><a xlink:href="classCDPL_1_1Math_1_1Expression.html" target="_top" xlink:title=" ">
<polygon fill="none" stroke="#000000" points="331.5,-.5 331.5,-19.5 492.5,-19.5 492.5,-.5 331.5,-.5"/>
<text text-anchor="middle" x="412" y="-7.5" font-family="Helvetica,sans-Serif" font-size="10.00" fill="#000000">CDPL::Math::Expression&lt; C &gt;</text>
</a>
</g>
</g>
<!-- Node5&#45;&gt;Node9 -->
<g id="edge10" class="edge">
<title>Node5&#45;&gt;Node9</title>
<path fill="none" stroke="#ffa500" stroke-dasharray="5,2" d="M149.4514,-40.0071C159.0334,-38.5965 168.7548,-37.2206 178,-36 228.9581,-29.2721 286.3153,-22.8803 331.4894,-18.1178"/>
<polygon fill="#ffa500" stroke="#ffa500" points="148.9166,-36.5481 139.5422,-41.4848 149.9491,-43.4715 148.9166,-36.5481"/>
<text text-anchor="middle" x="232.5" y="-39" font-family="Helvetica,sans-Serif" font-size="10.00" fill="#000000"> &lt; C &gt;</text>
</g>
<!-- Node6&#45;&gt;Node3 -->
<g id="edge5" class="edge">
<title>Node6&#45;&gt;Node3</title>
<path fill="none" stroke="#ffa500" stroke-dasharray="5,2" d="M529.6104,-59.5059C578.0943,-63.0124 633.4562,-67.0163 678.9705,-70.308"/>
<polygon fill="#ffa500" stroke="#ffa500" points="529.6013,-55.9962 519.3749,-58.7656 529.0963,-62.978 529.6013,-55.9962"/>
<text text-anchor="middle" x="591.5" y="-70" font-family="Helvetica,sans-Serif" font-size="10.00" fill="#000000"> &lt; Quaternion&lt; T &gt; &gt;</text>
</g>
<!-- Node8 -->
<g id="node8" class="node">
<title>Node8</title>
<g id="a_node8"><a xlink:href="classCDPL_1_1Math_1_1QuaternionExpression.html" target="_top" xlink:title=" ">
<polygon fill="none" stroke="#000000" points="664,-23.5 664,-42.5 879,-42.5 879,-23.5 664,-23.5"/>
<text text-anchor="middle" x="771.5" y="-30.5" font-family="Helvetica,sans-Serif" font-size="10.00" fill="#000000">CDPL::Math::QuaternionExpression&lt; C &gt;</text>
</a>
</g>
</g>
<!-- Node6&#45;&gt;Node8 -->
<g id="edge11" class="edge">
<title>Node6&#45;&gt;Node8</title>
<path fill="none" stroke="#ffa500" stroke-dasharray="5,2" d="M513.495,-40.6539C521.4431,-40.0278 529.3496,-39.4645 537,-39 578.3616,-36.4886 623.8892,-35.0257 663.737,-34.1746"/>
<polygon fill="#ffa500" stroke="#ffa500" points="513.1027,-37.1742 503.4214,-41.4778 513.6734,-44.1509 513.1027,-37.1742"/>
<text text-anchor="middle" x="591.5" y="-42" font-family="Helvetica,sans-Serif" font-size="10.00" fill="#000000"> &lt; C &gt;</text>
</g>
<!-- Node7 -->
<g id="node7" class="node">
<title>Node7</title>
<g id="a_node7"><a xlink:href="classCDPL_1_1Math_1_1QuaternionContainer.html" target="_top" xlink:title=" ">
<polygon fill="none" stroke="#000000" points="916,-27.5 916,-46.5 1125,-46.5 1125,-27.5 916,-27.5"/>
<text text-anchor="middle" x="1020.5" y="-34.5" font-family="Helvetica,sans-Serif" font-size="10.00" fill="#000000">CDPL::Math::QuaternionContainer&lt; C &gt;</text>
</a>
</g>
</g>
<!-- Node7&#45;&gt;Node2 -->
<g id="edge7" class="edge">
<title>Node7&#45;&gt;Node2</title>
<path fill="none" stroke="#ffa500" stroke-dasharray="5,2" d="M1135.5854,-43.7897C1179.451,-46.3776 1228.7557,-49.2865 1269.9103,-51.7145"/>
<polygon fill="#ffa500" stroke="#ffa500" points="1135.6289,-40.2863 1125.4401,-43.1912 1135.2166,-47.2741 1135.6289,-40.2863"/>
<text text-anchor="middle" x="1197.5" y="-54" font-family="Helvetica,sans-Serif" font-size="10.00" fill="#000000"> &lt; Quaternion&lt; T &gt; &gt;</text>
</g>
<!-- Node8&#45;&gt;Node7 -->
<g id="edge8" class="edge">
<title>Node8&#45;&gt;Node7</title>
<path fill="none" stroke="#191970" d="M889.51,-34.8957C898.2614,-35.0363 907.0556,-35.1776 915.7191,-35.3168"/>
<polygon fill="#191970" stroke="#191970" points="889.3218,-31.3924 879.2668,-34.7312 889.2093,-38.3915 889.3218,-31.3924"/>
</g>
<!-- Node9&#45;&gt;Node8 -->
<g id="edge9" class="edge">
<title>Node9&#45;&gt;Node8</title>
<path fill="none" stroke="#191970" d="M502.935,-15.8178C551.8681,-18.9484 612.53,-22.8295 663.8132,-26.1104"/>
<polygon fill="#191970" stroke="#191970" points="502.8819,-12.3074 492.6788,-15.1616 502.4349,-19.2931 502.8819,-12.3074"/>
</g>
</g>
</svg>
        <g id="navigator" transform="translate(0 0)" fill="#404254">
                <rect fill="#f2f5e9" fill-opacity="0.5" stroke="#606060" stroke-width=".5" x="0" y="0" width="60" height="60"/>
                <use id="zoomplus" xlink:href="#zoomPlus" x="17" y="9" onmousedown="handleZoom(evt,'in')"/>
                <use id="zoomminus" xlink:href="#zoomMin" x="42" y="9" onmousedown="handleZoom(evt,'out')"/>
                <use id="reset" xlink:href="#resetDef" x="30" y="36" onmousedown="handleReset()"/>
                <g id="arrowUp" xlink:href="#dirArrow" transform="translate(30 24)" onmousedown="handlePan(0,-1)">
                  <use xlink:href="#rim" fill="#404040">
                        <set attributeName="fill" to="#808080" begin="arrowUp.mouseover" end="arrowUp.mouseout"/>
                  </use>
                  <path fill="none" stroke="white" stroke-width="1.5" d="M0,-3.0v7 M-2.5,-0.5L0,-3.0L2.5,-0.5"/>
                </g>
                <g id="arrowRight" xlink:href="#dirArrow" transform="rotate(90) translate(36 -43)" onmousedown="handlePan(1,0)">
                  <use xlink:href="#rim" fill="#404040">
                        <set attributeName="fill" to="#808080" begin="arrowRight.mouseover" end="arrowRight.mouseout"/>
                  </use>
                  <path fill="none" stroke="white" stroke-width="1.5" d="M0,-3.0v7 M-2.5,-0.5L0,-3.0L2.5,-0.5"/>
                </g>
                <g id="arrowDown" xlink:href="#dirArrow" transform="rotate(180) translate(-30 -48)" onmousedown="handlePan(0,1)">
                  <use xlink:href="#rim" fill="#404040">
                        <set attributeName="fill" to="#808080" begin="arrowDown.mouseover" end="arrowDown.mouseout"/>
                  </use>
                  <path fill="none" stroke="white" stroke-width="1.5" d="M0,-3.0v7 M-2.5,-0.5L0,-3.0L2.5,-0.5"/>
                </g>
                <g id="arrowLeft" xlink:href="#dirArrow" transform="rotate(270) translate(-36 17)" onmousedown="handlePan(-1,0)">
                  <use xlink:href="#rim" fill="#404040">
                        <set attributeName="fill" to="#808080" begin="arrowLeft.mouseover" end="arrowLeft.mouseout"/>
                  </use>
                  <path fill="none" stroke="white" stroke-width="1.5" d="M0,-3.0v7 M-2.5,-0.5L0,-3.0L2.5,-0.5"/>
                </g>
        </g>
        <svg viewBox="0 0 15 15" width="100%" height="30px" preserveAspectRatio="xMaxYMin meet">
         <g id="arrow_out" transform="scale(0.3 0.3)">
          <a xlink:href="classCDPL_1_1Math_1_1Quaternion__inherit__graph_org.svg" target="_base">
           <rect id="button" ry="5" rx="5" y="6" x="6" height="38" width="38"
                fill="#f2f5e9" fill-opacity="0.5" stroke="#606060" stroke-width="1.0"/>
           <path id="arrow"
             d="M 11.500037,31.436501 C 11.940474,20.09759 22.043105,11.32322 32.158766,21.979434 L 37.068811,17.246167 C 37.068811,17.246167 37.088388,32 37.088388,32 L 22.160133,31.978069 C 22.160133,31.978069 26.997745,27.140456 26.997745,27.140456 C 18.528582,18.264221 13.291696,25.230495 11.500037,31.436501 z"
             style="fill:#404040;"/>
          </a>
         </g>
        </svg>
</svg>
