<?xml version="1.0" encoding="UTF-8" standalone="no"?>
<!DOCTYPE svg PUBLIC "-//W3C//DTD SVG 1.1//EN"
 "http://www.w3.org/Graphics/SVG/1.1/DTD/svg11.dtd">
<!-- Generated by graphviz version 2.40.1 (0)
 -->
<!-- Title: CDPL::Util::DGCoordinatesGeneratorBase&lt; Dim, T, Derived &gt; Pages: 1 -->
<svg width="1171pt" height="160pt"
 viewBox="0.00 0.00 1171.00 159.50" xmlns="http://www.w3.org/2000/svg" xmlns:xlink="http://www.w3.org/1999/xlink">
<g id="graph0" class="graph" transform="scale(1 1) rotate(0) translate(4 155.5)">
<title>CDPL::Util::DGCoordinatesGeneratorBase&lt; Dim, T, Derived &gt;</title>
<!-- Node1 -->
<g id="node1" class="node">
<title>Node1</title>
<g id="a_node1"><a xlink:title="Base for classes dedicated to the generation of coordinates that fulfill user&#45;provided point distance...">
<polygon fill="#bfbfbf" stroke="#000000" points="0,-49.5 0,-90.5 145,-90.5 145,-49.5 0,-49.5"/>
<text text-anchor="start" x="8" y="-78.5" font-family="Helvetica,sans-Serif" font-size="10.00" fill="#000000">CDPL::Util::DGCoordinates</text>
<text text-anchor="start" x="8" y="-67.5" font-family="Helvetica,sans-Serif" font-size="10.00" fill="#000000">GeneratorBase&lt; Dim, T,</text>
<text text-anchor="middle" x="72.5" y="-56.5" font-family="Helvetica,sans-Serif" font-size="10.00" fill="#000000"> Derived &gt;</text>
</a>
</g>
</g>
<!-- Node2 -->
<g id="node2" class="node">
<title>Node2</title>
<g id="a_node2"><a xlink:href="classCDPL_1_1Util_1_1DGCoordinatesGeneratorBase.html" target="_top" xlink:title=" ">
<polygon fill="none" stroke="#000000" points="382.5,-99 382.5,-151 527.5,-151 527.5,-99 382.5,-99"/>
<text text-anchor="start" x="390.5" y="-139" font-family="Helvetica,sans-Serif" font-size="10.00" fill="#000000">CDPL::Util::DGCoordinates</text>
<text text-anchor="start" x="390.5" y="-128" font-family="Helvetica,sans-Serif" font-size="10.00" fill="#000000">GeneratorBase&lt; Dim, T,</text>
<text text-anchor="start" x="390.5" y="-117" font-family="Helvetica,sans-Serif" font-size="10.00" fill="#000000"> DGCoordinatesGenerator</text>
<text text-anchor="middle" x="455" y="-106" font-family="Helvetica,sans-Serif" font-size="10.00" fill="#000000">&lt; Dim, T &gt; &gt;</text>
</a>
</g>
</g>
<!-- Node1&#45;&gt;Node2 -->
<g id="edge1" class="edge">
<title>Node1&#45;&gt;Node2</title>
<path fill="none" stroke="#ffa500" stroke-dasharray="5,2" d="M148.7501,-92.9588C153.5508,-94.0771 158.329,-95.1047 163,-96 237.049,-110.1931 323.0735,-117.668 382.4776,-121.449"/>
<polygon fill="#ffa500" stroke="#ffa500" points="149.4366,-89.5236 138.8916,-90.5494 147.7747,-96.3235 149.4366,-89.5236"/>
<text text-anchor="start" x="163" y="-132" font-family="Helvetica,sans-Serif" font-size="10.00" fill="#000000"> &lt; Dim, T, DGCoordinatesGenerator</text>
<text text-anchor="middle" x="250.5" y="-121" font-family="Helvetica,sans-Serif" font-size="10.00" fill="#000000">&lt; Dim, T &gt; &gt;</text>
</g>
<!-- Node5 -->
<g id="node5" class="node">
<title>Node5</title>
<g id="a_node5"><a xlink:href="classCDPL_1_1Util_1_1DGCoordinatesGeneratorBase.html" target="_top" xlink:title=" ">
<polygon fill="none" stroke="#000000" points="572,-45 572,-97 748,-97 748,-45 572,-45"/>
<text text-anchor="start" x="580" y="-85" font-family="Helvetica,sans-Serif" font-size="10.00" fill="#000000">CDPL::Util::DGCoordinates</text>
<text text-anchor="start" x="580" y="-74" font-family="Helvetica,sans-Serif" font-size="10.00" fill="#000000">GeneratorBase&lt; Dim, double,</text>
<text text-anchor="start" x="580" y="-63" font-family="Helvetica,sans-Serif" font-size="10.00" fill="#000000"> DGCoordinatesGenerator&lt; Dim,</text>
<text text-anchor="middle" x="660" y="-52" font-family="Helvetica,sans-Serif" font-size="10.00" fill="#000000"> double &gt; &gt;</text>
</a>
</g>
</g>
<!-- Node1&#45;&gt;Node5 -->
<g id="edge4" class="edge">
<title>Node1&#45;&gt;Node5</title>
<path fill="none" stroke="#ffa500" stroke-dasharray="5,2" d="M155.4258,-69.9339C207.7863,-69.9085 276.8538,-69.9051 338,-70 417.1027,-70.1228 507.1358,-70.4154 571.8489,-70.6525"/>
<polygon fill="#ffa500" stroke="#ffa500" points="155.1819,-66.4339 145.1838,-69.9392 155.1856,-73.4339 155.1819,-66.4339"/>
<text text-anchor="start" x="173.5" y="-84" font-family="Helvetica,sans-Serif" font-size="10.00" fill="#000000"> &lt; Dim, double, DGCoordinates</text>
<text text-anchor="middle" x="250.5" y="-73" font-family="Helvetica,sans-Serif" font-size="10.00" fill="#000000">Generator&lt; Dim, double &gt; &gt;</text>
</g>
<!-- Node6 -->
<g id="node6" class="node">
<title>Node6</title>
<g id="a_node6"><a xlink:href="classCDPL_1_1Util_1_1DGCoordinatesGeneratorBase.html" target="_top" xlink:title=" ">
<polygon fill="none" stroke="#000000" points="356,-.5 356,-41.5 554,-41.5 554,-.5 356,-.5"/>
<text text-anchor="start" x="364" y="-29.5" font-family="Helvetica,sans-Serif" font-size="10.00" fill="#000000">CDPL::Util::DGCoordinates</text>
<text text-anchor="start" x="364" y="-18.5" font-family="Helvetica,sans-Serif" font-size="10.00" fill="#000000">GeneratorBase&lt; 3, T, DGCoordinates</text>
<text text-anchor="middle" x="455" y="-7.5" font-family="Helvetica,sans-Serif" font-size="10.00" fill="#000000">Generator&lt; 3, T &gt; &gt;</text>
</a>
</g>
</g>
<!-- Node1&#45;&gt;Node6 -->
<g id="edge6" class="edge">
<title>Node1&#45;&gt;Node6</title>
<path fill="none" stroke="#ffa500" stroke-dasharray="5,2" d="M114.8438,-44.7018C129.5726,-37.1986 146.5374,-29.9386 163,-26 225.8707,-10.9586 298.547,-9.6596 355.6666,-12.1453"/>
<polygon fill="#ffa500" stroke="#ffa500" points="113.196,-41.6138 105.9865,-49.3775 116.4639,-47.8043 113.196,-41.6138"/>
<text text-anchor="start" x="170" y="-40" font-family="Helvetica,sans-Serif" font-size="10.00" fill="#000000"> &lt; 3, T, DGCoordinatesGenerator</text>
<text text-anchor="middle" x="250.5" y="-29" font-family="Helvetica,sans-Serif" font-size="10.00" fill="#000000">&lt; 3, T &gt; &gt;</text>
</g>
<!-- Node3 -->
<g id="node3" class="node">
<title>Node3</title>
<g id="a_node3"><a xlink:href="classCDPL_1_1Util_1_1DGCoordinatesGenerator.html" target="_top" xlink:title="Generic implementation for generation of coordinates that fulfill user&#45;provided point distance constr...">
<polygon fill="none" stroke="#000000" points="766,-108 766,-138 911,-138 911,-108 766,-108"/>
<text text-anchor="start" x="774" y="-126" font-family="Helvetica,sans-Serif" font-size="10.00" fill="#000000">CDPL::Util::DGCoordinates</text>
<text text-anchor="middle" x="838.5" y="-115" font-family="Helvetica,sans-Serif" font-size="10.00" fill="#000000">Generator&lt; Dim, T &gt;</text>
</a>
</g>
</g>
<!-- Node2&#45;&gt;Node3 -->
<g id="edge2" class="edge">
<title>Node2&#45;&gt;Node3</title>
<path fill="none" stroke="#191970" d="M537.8194,-124.5681C605.7305,-124.2139 700.9193,-123.7175 765.8871,-123.3787"/>
<polygon fill="#191970" stroke="#191970" points="537.5658,-121.0693 527.5843,-124.6215 537.6024,-128.0692 537.5658,-121.0693"/>
</g>
<!-- Node4 -->
<g id="node4" class="node">
<title>Node4</title>
<g id="a_node4"><a xlink:href="classCDPL_1_1Util_1_1DGCoordinatesGenerator.html" target="_top" xlink:title=" ">
<polygon fill="none" stroke="#000000" points="1018,-77 1018,-107 1163,-107 1163,-77 1018,-77"/>
<text text-anchor="start" x="1026" y="-95" font-family="Helvetica,sans-Serif" font-size="10.00" fill="#000000">CDPL::Util::DGCoordinates</text>
<text text-anchor="middle" x="1090.5" y="-84" font-family="Helvetica,sans-Serif" font-size="10.00" fill="#000000">Generator&lt; 2, double &gt;</text>
</a>
</g>
</g>
<!-- Node3&#45;&gt;Node4 -->
<g id="edge3" class="edge">
<title>Node3&#45;&gt;Node4</title>
<path fill="none" stroke="#ffa500" stroke-dasharray="5,2" d="M921.0133,-112.8496C952.1709,-109.0167 987.3723,-104.6863 1017.5887,-100.9692"/>
<polygon fill="#ffa500" stroke="#ffa500" points="920.5486,-109.3802 911.0508,-114.0751 921.4033,-116.3279 920.5486,-109.3802"/>
<text text-anchor="middle" x="964.5" y="-114" font-family="Helvetica,sans-Serif" font-size="10.00" fill="#000000"> &lt; 2, double &gt;</text>
</g>
<!-- Node5&#45;&gt;Node4 -->
<g id="edge5" class="edge">
<title>Node5&#45;&gt;Node4</title>
<path fill="none" stroke="#191970" d="M758.609,-75.8102C837.6012,-79.6635 946.6188,-84.9814 1017.8187,-88.4546"/>
<polygon fill="#191970" stroke="#191970" points="758.3156,-72.2918 748.1569,-75.3003 757.9745,-79.2835 758.3156,-72.2918"/>
</g>
<!-- Node7 -->
<g id="node7" class="node">
<title>Node7</title>
<g id="a_node7"><a xlink:href="classCDPL_1_1Util_1_1DGCoordinatesGenerator_3_013_00_01T_01_4.html" target="_top" xlink:title="Specialized implementation for the generation of 3D coordinates that fulfill user&#45;provided point dist...">
<polygon fill="none" stroke="#000000" points="766,-6 766,-36 911,-36 911,-6 766,-6"/>
<text text-anchor="start" x="774" y="-24" font-family="Helvetica,sans-Serif" font-size="10.00" fill="#000000">CDPL::Util::DGCoordinates</text>
<text text-anchor="middle" x="838.5" y="-13" font-family="Helvetica,sans-Serif" font-size="10.00" fill="#000000">Generator&lt; 3, T &gt;</text>
</a>
</g>
</g>
<!-- Node6&#45;&gt;Node7 -->
<g id="edge7" class="edge">
<title>Node6&#45;&gt;Node7</title>
<path fill="none" stroke="#191970" d="M564.4784,-21C629.0069,-21 708.8746,-21 765.7023,-21"/>
<polygon fill="#191970" stroke="#191970" points="564.2596,-17.5001 554.2595,-21 564.2595,-24.5001 564.2596,-17.5001"/>
</g>
</g>
</svg>
