<?xml version="1.0" encoding="UTF-8" standalone="no"?>
<!DOCTYPE svg PUBLIC "-//W3C//DTD SVG 1.1//EN"
 "http://www.w3.org/Graphics/SVG/1.1/DTD/svg11.dtd">
<!-- Generated by graphviz version 2.40.1 (0)
 -->
<!-- Title: CDPL::Base::CalculationFailed Pages: 1 -->
<svg width="169pt" height="196pt"
 viewBox="0.00 0.00 169.00 196.00" xmlns="http://www.w3.org/2000/svg" xmlns:xlink="http://www.w3.org/1999/xlink">
<g id="graph0" class="graph" transform="scale(1 1) rotate(0) translate(4 192)">
<title>CDPL::Base::CalculationFailed</title>
<!-- Node1 -->
<g id="node1" class="node">
<title>Node1</title>
<g id="a_node1"><a xlink:title="Thrown to indicate that some requested calculation has failed.">
<polygon fill="#bfbfbf" stroke="#000000" points="0,-.5 0,-19.5 161,-19.5 161,-.5 0,-.5"/>
<text text-anchor="middle" x="80.5" y="-7.5" font-family="Helvetica,sans-Serif" font-size="10.00" fill="#000000">CDPL::Base::CalculationFailed</text>
</a>
</g>
</g>
<!-- Node2 -->
<g id="node2" class="node">
<title>Node2</title>
<g id="a_node2"><a xlink:href="classCDPL_1_1Base_1_1OperationFailed.html" target="_top" xlink:title="Thrown to indicate that some requested operation has failed (e.g. due to unfulfilled preconditions or...">
<polygon fill="none" stroke="#000000" points="3,-56.5 3,-75.5 158,-75.5 158,-56.5 3,-56.5"/>
<text text-anchor="middle" x="80.5" y="-63.5" font-family="Helvetica,sans-Serif" font-size="10.00" fill="#000000">CDPL::Base::OperationFailed</text>
</a>
</g>
</g>
<!-- Node2&#45;&gt;Node1 -->
<g id="edge1" class="edge">
<title>Node2&#45;&gt;Node1</title>
<path fill="none" stroke="#191970" d="M80.5,-46.1575C80.5,-37.155 80.5,-26.9199 80.5,-19.6427"/>
<polygon fill="#191970" stroke="#191970" points="77.0001,-46.2455 80.5,-56.2455 84.0001,-46.2456 77.0001,-46.2455"/>
</g>
<!-- Node3 -->
<g id="node3" class="node">
<title>Node3</title>
<g id="a_node3"><a xlink:href="classCDPL_1_1Base_1_1Exception.html" target="_top" xlink:title="The root of the CDPL exception hierarchy.">
<polygon fill="none" stroke="#000000" points="17.5,-112.5 17.5,-131.5 143.5,-131.5 143.5,-112.5 17.5,-112.5"/>
<text text-anchor="middle" x="80.5" y="-119.5" font-family="Helvetica,sans-Serif" font-size="10.00" fill="#000000">CDPL::Base::Exception</text>
</a>
</g>
</g>
<!-- Node3&#45;&gt;Node2 -->
<g id="edge2" class="edge">
<title>Node3&#45;&gt;Node2</title>
<path fill="none" stroke="#191970" d="M80.5,-102.1575C80.5,-93.155 80.5,-82.9199 80.5,-75.6427"/>
<polygon fill="#191970" stroke="#191970" points="77.0001,-102.2455 80.5,-112.2455 84.0001,-102.2456 77.0001,-102.2455"/>
</g>
<!-- Node4 -->
<g id="node4" class="node">
<title>Node4</title>
<g id="a_node4"><a xlink:title="STL class.">
<polygon fill="none" stroke="#bfbfbf" points="37.5,-168.5 37.5,-187.5 123.5,-187.5 123.5,-168.5 37.5,-168.5"/>
<text text-anchor="middle" x="80.5" y="-175.5" font-family="Helvetica,sans-Serif" font-size="10.00" fill="#000000">std::exception</text>
</a>
</g>
</g>
<!-- Node4&#45;&gt;Node3 -->
<g id="edge3" class="edge">
<title>Node4&#45;&gt;Node3</title>
<path fill="none" stroke="#191970" d="M80.5,-158.1575C80.5,-149.155 80.5,-138.9199 80.5,-131.6427"/>
<polygon fill="#191970" stroke="#191970" points="77.0001,-158.2455 80.5,-168.2455 84.0001,-158.2456 77.0001,-158.2455"/>
</g>
</g>
</svg>
