<?xml version="1.0" encoding="UTF-8" standalone="no"?>
<!DOCTYPE svg PUBLIC "-//W3C//DTD SVG 1.1//EN"
 "http://www.w3.org/Graphics/SVG/1.1/DTD/svg11.dtd">
<!-- Generated by graphviz version 2.44.0 (0)
 -->
<!-- Title: CDPL::Vis::DefaultAtomColorTable Pages: 1 -->
<svg width="177pt" height="253pt"
 viewBox="0.00 0.00 176.50 253.00" xmlns="http://www.w3.org/2000/svg" xmlns:xlink="http://www.w3.org/1999/xlink">
<g id="graph0" class="graph" transform="scale(1 1) rotate(0) translate(4 249)">
<title>CDPL::Vis::DefaultAtomColorTable</title>
<!-- Node1 -->
<g id="node1" class="node">
<title>Node1</title>
<g id="a_node1"><a xlink:title="Provides default colors for the element dependent coloring of atom labels in 2D depictions of chemica...">
<polygon fill="#bfbfbf" stroke="black" points="0,-0.5 0,-30.5 147,-30.5 147,-0.5 0,-0.5"/>
<text text-anchor="start" x="8" y="-18.5" font-family="Helvetica" font-size="10.00">CDPL::Vis::DefaultAtomColor</text>
<text text-anchor="middle" x="73.5" y="-7.5" font-family="Helvetica" font-size="10.00">Table</text>
</a>
</g>
</g>
<!-- Node2 -->
<g id="node2" class="node">
<title>Node2</title>
<g id="a_node2"><a xlink:href="classCDPL_1_1Vis_1_1ColorTable.html" target="_top" xlink:title="A container for the storage and lookup of Vis::Color objects that are associated with a numeric ident...">
<polygon fill="none" stroke="black" points="15.5,-68.5 15.5,-87.5 131.5,-87.5 131.5,-68.5 15.5,-68.5"/>
<text text-anchor="middle" x="73.5" y="-75.5" font-family="Helvetica" font-size="10.00">CDPL::Vis::ColorTable</text>
</a>
</g>
</g>
<!-- Node2&#45;&gt;Node1 -->
<g id="edge1" class="edge">
<title>Node2&#45;&gt;Node1</title>
<path fill="none" stroke="midnightblue" d="M73.5,-58.22C73.5,-49.36 73.5,-38.96 73.5,-30.76"/>
<polygon fill="midnightblue" stroke="midnightblue" points="70,-58.33 73.5,-68.33 77,-58.33 70,-58.33"/>
</g>
<!-- Node3 -->
<g id="node3" class="node">
<title>Node3</title>
<g id="a_node3"><a xlink:href="classCDPL_1_1Util_1_1Map.html" target="_top" xlink:title=" ">
<polygon fill="none" stroke="black" points="18,-125.5 18,-155.5 129,-155.5 129,-125.5 18,-125.5"/>
<text text-anchor="start" x="26" y="-143.5" font-family="Helvetica" font-size="10.00">CDPL::Util::Map&lt; std</text>
<text text-anchor="middle" x="73.5" y="-132.5" font-family="Helvetica" font-size="10.00">::size_t, Color &gt;</text>
</a>
</g>
</g>
<!-- Node3&#45;&gt;Node2 -->
<g id="edge2" class="edge">
<title>Node3&#45;&gt;Node2</title>
<path fill="none" stroke="midnightblue" d="M73.5,-115.35C73.5,-105.51 73.5,-94.78 73.5,-87.54"/>
<polygon fill="midnightblue" stroke="midnightblue" points="70,-115.47 73.5,-125.47 77,-115.47 70,-115.47"/>
</g>
<!-- Node4 -->
<g id="node4" class="node">
<title>Node4</title>
<g id="a_node4"><a xlink:href="classCDPL_1_1Util_1_1Map.html" target="_top" xlink:title="A unique sorted associative container that maps keys to values.">
<polygon fill="none" stroke="black" points="12.5,-203.5 12.5,-244.5 134.5,-244.5 134.5,-203.5 12.5,-203.5"/>
<text text-anchor="start" x="20.5" y="-232.5" font-family="Helvetica" font-size="10.00">CDPL::Util::Map&lt; Key,</text>
<text text-anchor="start" x="20.5" y="-221.5" font-family="Helvetica" font-size="10.00"> Value, AllowDefValues,</text>
<text text-anchor="middle" x="73.5" y="-210.5" font-family="Helvetica" font-size="10.00"> KeyCompFunc &gt;</text>
</a>
</g>
</g>
<!-- Node4&#45;&gt;Node3 -->
<g id="edge3" class="edge">
<title>Node4&#45;&gt;Node3</title>
<path fill="none" stroke="orange" stroke-dasharray="5,2" d="M73.5,-193.03C73.5,-180.26 73.5,-165.97 73.5,-155.68"/>
<polygon fill="orange" stroke="orange" points="70,-193.27 73.5,-203.27 77,-193.27 70,-193.27"/>
<text text-anchor="middle" x="121" y="-177" font-family="Helvetica" font-size="10.00"> &lt; std::size_t, Color &gt;</text>
</g>
</g>
</svg>
