<?xml version="1.0" encoding="UTF-8" standalone="no"?>
<!DOCTYPE svg PUBLIC "-//W3C//DTD SVG 1.1//EN"
 "http://www.w3.org/Graphics/SVG/1.1/DTD/svg11.dtd">
<!-- Generated by graphviz version 2.40.1 (0)
 -->
<!-- Title: CDPL::Vis::ImageWriter Pages: 1 -->
<svg width="340pt" height="342pt"
 viewBox="0.00 0.00 340.00 341.50" xmlns="http://www.w3.org/2000/svg" xmlns:xlink="http://www.w3.org/1999/xlink">
<g id="graph0" class="graph" transform="scale(1 1) rotate(0) translate(4 337.5)">
<title>CDPL::Vis::ImageWriter</title>
<!-- Node1 -->
<g id="node1" class="node">
<title>Node1</title>
<g id="a_node1"><a xlink:title=" ">
<polygon fill="#bfbfbf" stroke="#000000" points="0,-154.5 0,-173.5 129,-173.5 129,-154.5 0,-154.5"/>
<text text-anchor="middle" x="64.5" y="-161.5" font-family="Helvetica,sans-Serif" font-size="10.00" fill="#000000">CDPL::Vis::ImageWriter</text>
</a>
</g>
</g>
<!-- Node2 -->
<g id="node2" class="node">
<title>Node2</title>
<g id="a_node2"><a xlink:href="classCDPL_1_1Vis_1_1PDFMolecularGraphWriter.html" target="_top" xlink:title="Creates 2D structure diagrams of molecular graphs in the Portable Document Format (PDF) [WPDF].">
<polygon fill="none" stroke="#000000" points="166.5,-303 166.5,-333 330.5,-333 330.5,-303 166.5,-303"/>
<text text-anchor="start" x="174.5" y="-321" font-family="Helvetica,sans-Serif" font-size="10.00" fill="#000000">CDPL::Vis::PDFMolecularGraph</text>
<text text-anchor="middle" x="248.5" y="-310" font-family="Helvetica,sans-Serif" font-size="10.00" fill="#000000">Writer</text>
</a>
</g>
</g>
<!-- Node1&#45;&gt;Node2 -->
<g id="edge1" class="edge">
<title>Node1&#45;&gt;Node2</title>
<path fill="none" stroke="#8b1a1a" d="M74.2267,-182.9376C89.6613,-211.1157 122.4259,-263.878 165,-293 170.6204,-296.8446 176.845,-300.11 183.2877,-302.8811"/>
<polygon fill="#8b1a1a" stroke="#8b1a1a" points="77.1279,-180.9393 69.3383,-173.7579 70.9494,-184.2295 77.1279,-180.9393"/>
</g>
<!-- Node3 -->
<g id="node3" class="node">
<title>Node3</title>
<g id="a_node3"><a xlink:href="classCDPL_1_1Vis_1_1PDFReactionWriter.html" target="_top" xlink:title="Creates 2D depictions of chemical reactions in the Portable Document Format (PDF) [WPDF].">
<polygon fill="none" stroke="#000000" points="169,-264.5 169,-283.5 328,-283.5 328,-264.5 169,-264.5"/>
<text text-anchor="middle" x="248.5" y="-271.5" font-family="Helvetica,sans-Serif" font-size="10.00" fill="#000000">CDPL::Vis::PDFReactionWriter</text>
</a>
</g>
</g>
<!-- Node1&#45;&gt;Node3 -->
<g id="edge2" class="edge">
<title>Node1&#45;&gt;Node3</title>
<path fill="none" stroke="#8b1a1a" d="M78.727,-181.4698C96.6373,-202.2577 129.3976,-236.4748 165,-255 172.5175,-258.9116 180.8269,-262.0232 189.2029,-264.4973"/>
<polygon fill="#8b1a1a" stroke="#8b1a1a" points="81.3191,-179.1143 72.2012,-173.7185 75.9642,-183.6226 81.3191,-179.1143"/>
</g>
<!-- Node4 -->
<g id="node4" class="node">
<title>Node4</title>
<g id="a_node4"><a xlink:href="classCDPL_1_1Vis_1_1PNGMolecularGraphWriter.html" target="_top" xlink:title="Creates 2D structure diagrams of molecular graphs in the Portable Network Graphics (PNG) [WPNG] forma...">
<polygon fill="none" stroke="#000000" points="165,-215 165,-245 332,-245 332,-215 165,-215"/>
<text text-anchor="start" x="173" y="-233" font-family="Helvetica,sans-Serif" font-size="10.00" fill="#000000">CDPL::Vis::PNGMolecularGraph</text>
<text text-anchor="middle" x="248.5" y="-222" font-family="Helvetica,sans-Serif" font-size="10.00" fill="#000000">Writer</text>
</a>
</g>
</g>
<!-- Node1&#45;&gt;Node4 -->
<g id="edge3" class="edge">
<title>Node1&#45;&gt;Node4</title>
<path fill="none" stroke="#8b1a1a" d="M95.6178,-177.6016C115.3204,-185.9868 141.4364,-196.6878 165,-205 174.7039,-208.4231 185.1441,-211.7916 195.2447,-214.893"/>
<polygon fill="#8b1a1a" stroke="#8b1a1a" points="96.794,-174.2978 86.224,-173.5726 94.0347,-180.731 96.794,-174.2978"/>
</g>
<!-- Node5 -->
<g id="node5" class="node">
<title>Node5</title>
<g id="a_node5"><a xlink:href="classCDPL_1_1Vis_1_1PNGReactionWriter.html" target="_top" xlink:title="Creates 2D depictions of chemical reactions in the Portable Network Graphics (PNG) [WPNG] format.">
<polygon fill="none" stroke="#000000" points="168,-176.5 168,-195.5 329,-195.5 329,-176.5 168,-176.5"/>
<text text-anchor="middle" x="248.5" y="-183.5" font-family="Helvetica,sans-Serif" font-size="10.00" fill="#000000">CDPL::Vis::PNGReactionWriter</text>
</a>
</g>
</g>
<!-- Node1&#45;&gt;Node5 -->
<g id="edge4" class="edge">
<title>Node1&#45;&gt;Node5</title>
<path fill="none" stroke="#8b1a1a" d="M139.1807,-172.9292C148.9544,-174.0978 158.9986,-175.2987 168.8505,-176.4767"/>
<polygon fill="#8b1a1a" stroke="#8b1a1a" points="139.4576,-169.4375 129.1128,-171.7254 138.6265,-176.388 139.4576,-169.4375"/>
</g>
<!-- Node6 -->
<g id="node6" class="node">
<title>Node6</title>
<g id="a_node6"><a xlink:href="classCDPL_1_1Vis_1_1PSMolecularGraphWriter.html" target="_top" xlink:title="Creates 2D structure diagrams of molecular graphs in the PostScript (PS) [WPS] format.">
<polygon fill="none" stroke="#000000" points="169.5,-127 169.5,-157 327.5,-157 327.5,-127 169.5,-127"/>
<text text-anchor="start" x="177.5" y="-145" font-family="Helvetica,sans-Serif" font-size="10.00" fill="#000000">CDPL::Vis::PSMolecularGraph</text>
<text text-anchor="middle" x="248.5" y="-134" font-family="Helvetica,sans-Serif" font-size="10.00" fill="#000000">Writer</text>
</a>
</g>
</g>
<!-- Node1&#45;&gt;Node6 -->
<g id="edge5" class="edge">
<title>Node1&#45;&gt;Node6</title>
<path fill="none" stroke="#8b1a1a" d="M139.345,-155.0511C149.2794,-153.8633 159.4905,-152.6424 169.4925,-151.4466"/>
<polygon fill="#8b1a1a" stroke="#8b1a1a" points="138.6265,-151.612 129.1128,-156.2746 139.4576,-158.5625 138.6265,-151.612"/>
</g>
<!-- Node7 -->
<g id="node7" class="node">
<title>Node7</title>
<g id="a_node7"><a xlink:href="classCDPL_1_1Vis_1_1PSReactionWriter.html" target="_top" xlink:title="Creates 2D depictions of chemical reactions in the PostScript (PS) [WPS] format.">
<polygon fill="none" stroke="#000000" points="172.5,-88.5 172.5,-107.5 324.5,-107.5 324.5,-88.5 172.5,-88.5"/>
<text text-anchor="middle" x="248.5" y="-95.5" font-family="Helvetica,sans-Serif" font-size="10.00" fill="#000000">CDPL::Vis::PSReactionWriter</text>
</a>
</g>
</g>
<!-- Node1&#45;&gt;Node7 -->
<g id="edge6" class="edge">
<title>Node1&#45;&gt;Node7</title>
<path fill="none" stroke="#8b1a1a" d="M91.6633,-149.8199C111.5576,-139.8698 139.4342,-126.819 165,-118 176.6961,-113.9654 189.5854,-110.4446 201.6646,-107.5286"/>
<polygon fill="#8b1a1a" stroke="#8b1a1a" points="89.9199,-146.7796 82.5833,-154.4233 93.0852,-153.0231 89.9199,-146.7796"/>
</g>
<!-- Node8 -->
<g id="node8" class="node">
<title>Node8</title>
<g id="a_node8"><a xlink:href="classCDPL_1_1Vis_1_1SVGMolecularGraphWriter.html" target="_top" xlink:title="Creates 2D structure diagrams of molecular graphs in the Scalable Vector Graphics (SVG) [WSVG] format...">
<polygon fill="none" stroke="#000000" points="165.5,-39 165.5,-69 331.5,-69 331.5,-39 165.5,-39"/>
<text text-anchor="start" x="173.5" y="-57" font-family="Helvetica,sans-Serif" font-size="10.00" fill="#000000">CDPL::Vis::SVGMolecularGraph</text>
<text text-anchor="middle" x="248.5" y="-46" font-family="Helvetica,sans-Serif" font-size="10.00" fill="#000000">Writer</text>
</a>
</g>
</g>
<!-- Node1&#45;&gt;Node8 -->
<g id="edge7" class="edge">
<title>Node1&#45;&gt;Node8</title>
<path fill="none" stroke="#8b1a1a" d="M80.2864,-146.9567C98.8521,-127.857 131.42,-97.1912 165,-79 172.0519,-75.1798 179.7628,-71.8699 187.5576,-69.0226"/>
<polygon fill="#8b1a1a" stroke="#8b1a1a" points="77.5916,-144.7111 73.2247,-154.3642 82.6582,-149.5412 77.5916,-144.7111"/>
</g>
<!-- Node9 -->
<g id="node9" class="node">
<title>Node9</title>
<g id="a_node9"><a xlink:href="classCDPL_1_1Vis_1_1SVGReactionWriter.html" target="_top" xlink:title="Creates 2D depictions of chemical reactions in the Scalable Vector Graphics (SVG) [WSVG] format.">
<polygon fill="none" stroke="#000000" points="168,-.5 168,-19.5 329,-19.5 329,-.5 168,-.5"/>
<text text-anchor="middle" x="248.5" y="-7.5" font-family="Helvetica,sans-Serif" font-size="10.00" fill="#000000">CDPL::Vis::SVGReactionWriter</text>
</a>
</g>
</g>
<!-- Node1&#45;&gt;Node9 -->
<g id="edge8" class="edge">
<title>Node1&#45;&gt;Node9</title>
<path fill="none" stroke="#8b1a1a" d="M73.1995,-145.2655C87.8296,-115.9165 120.212,-59.4201 165,-30 171.6033,-25.6625 179.0514,-22.2637 186.7114,-19.6009"/>
<polygon fill="#8b1a1a" stroke="#8b1a1a" points="69.9728,-143.8987 68.7738,-154.4255 76.2757,-146.944 69.9728,-143.8987"/>
</g>
</g>
</svg>
