<?xml version="1.0" encoding="UTF-8" standalone="no"?>
<!DOCTYPE svg PUBLIC "-//W3C//DTD SVG 1.1//EN"
 "http://www.w3.org/Graphics/SVG/1.1/DTD/svg11.dtd">
<!-- Generated by graphviz version 2.40.1 (0)
 -->
<!-- Title: CDPL::ConfGen::CanonicalFragment Pages: 1 -->
<svg width="531pt" height="207pt"
 viewBox="0.00 0.00 530.50 207.00" xmlns="http://www.w3.org/2000/svg" xmlns:xlink="http://www.w3.org/1999/xlink">
<g id="graph0" class="graph" transform="scale(1 1) rotate(0) translate(4 203)">
<title>CDPL::ConfGen::CanonicalFragment</title>
<!-- Node1 -->
<g id="node1" class="node">
<title>Node1</title>
<g id="a_node1"><a xlink:title="CanonicalFragment.">
<polygon fill="#bfbfbf" stroke="#000000" points="188,-.5 188,-30.5 332,-30.5 332,-.5 188,-.5"/>
<text text-anchor="start" x="196" y="-18.5" font-family="Helvetica,sans-Serif" font-size="10.00" fill="#000000">CDPL::ConfGen::Canonical</text>
<text text-anchor="middle" x="260" y="-7.5" font-family="Helvetica,sans-Serif" font-size="10.00" fill="#000000">Fragment</text>
</a>
</g>
</g>
<!-- Node2 -->
<g id="node2" class="node">
<title>Node2</title>
<g id="a_node2"><a xlink:href="classCDPL_1_1Chem_1_1MolecularGraph.html" target="_top" xlink:title="MolecularGraph.">
<polygon fill="none" stroke="#000000" points="180.5,-67.5 180.5,-86.5 339.5,-86.5 339.5,-67.5 180.5,-67.5"/>
<text text-anchor="middle" x="260" y="-74.5" font-family="Helvetica,sans-Serif" font-size="10.00" fill="#000000">CDPL::Chem::MolecularGraph</text>
</a>
</g>
</g>
<!-- Node2&#45;&gt;Node1 -->
<g id="edge1" class="edge">
<title>Node2&#45;&gt;Node1</title>
<path fill="none" stroke="#191970" d="M260,-57.3693C260,-48.681 260,-38.6241 260,-30.5446"/>
<polygon fill="#191970" stroke="#191970" points="256.5001,-57.3906 260,-67.3906 263.5001,-57.3907 256.5001,-57.3906"/>
</g>
<!-- Node3 -->
<g id="node3" class="node">
<title>Node3</title>
<g id="a_node3"><a xlink:href="classCDPL_1_1Chem_1_1AtomContainer.html" target="_top" xlink:title="A common interface for data&#45;structures that support a random access to stored Chem::Atom instances.">
<polygon fill="none" stroke="#000000" points="8,-123.5 8,-142.5 164,-142.5 164,-123.5 8,-123.5"/>
<text text-anchor="middle" x="86" y="-130.5" font-family="Helvetica,sans-Serif" font-size="10.00" fill="#000000">CDPL::Chem::AtomContainer</text>
</a>
</g>
</g>
<!-- Node3&#45;&gt;Node2 -->
<g id="edge2" class="edge">
<title>Node3&#45;&gt;Node2</title>
<path fill="none" stroke="#191970" d="M125.801,-120.1905C157.679,-109.9309 201.6816,-95.7691 230.4787,-86.5011"/>
<polygon fill="#191970" stroke="#191970" points="124.3585,-116.9779 115.9117,-123.3733 126.5031,-123.6413 124.3585,-116.9779"/>
</g>
<!-- Node4 -->
<g id="node4" class="node">
<title>Node4</title>
<g id="a_node4"><a xlink:href="classCDPL_1_1Chem_1_1Entity3DContainer.html" target="_top" xlink:title="A common interface for data&#45;structures that support a random access to stored Chem::Entity3D instance...">
<polygon fill="none" stroke="#000000" points="0,-179.5 0,-198.5 172,-198.5 172,-179.5 0,-179.5"/>
<text text-anchor="middle" x="86" y="-186.5" font-family="Helvetica,sans-Serif" font-size="10.00" fill="#000000">CDPL::Chem::Entity3DContainer</text>
</a>
</g>
</g>
<!-- Node4&#45;&gt;Node3 -->
<g id="edge3" class="edge">
<title>Node4&#45;&gt;Node3</title>
<path fill="none" stroke="#191970" d="M86,-169.1575C86,-160.155 86,-149.9199 86,-142.6427"/>
<polygon fill="#191970" stroke="#191970" points="82.5001,-169.2455 86,-179.2455 89.5001,-169.2456 82.5001,-169.2455"/>
</g>
<!-- Node5 -->
<g id="node5" class="node">
<title>Node5</title>
<g id="a_node5"><a xlink:href="classCDPL_1_1Chem_1_1BondContainer.html" target="_top" xlink:title="A common interface for data&#45;structures that support a random access to stored Chem::Bond instances.">
<polygon fill="none" stroke="#000000" points="182.5,-123.5 182.5,-142.5 337.5,-142.5 337.5,-123.5 182.5,-123.5"/>
<text text-anchor="middle" x="260" y="-130.5" font-family="Helvetica,sans-Serif" font-size="10.00" fill="#000000">CDPL::Chem::BondContainer</text>
</a>
</g>
</g>
<!-- Node5&#45;&gt;Node2 -->
<g id="edge4" class="edge">
<title>Node5&#45;&gt;Node2</title>
<path fill="none" stroke="#191970" d="M260,-113.1575C260,-104.155 260,-93.9199 260,-86.6427"/>
<polygon fill="#191970" stroke="#191970" points="256.5001,-113.2455 260,-123.2455 263.5001,-113.2456 256.5001,-113.2455"/>
</g>
<!-- Node6 -->
<g id="node6" class="node">
<title>Node6</title>
<g id="a_node6"><a xlink:href="classCDPL_1_1Base_1_1PropertyContainer.html" target="_top" xlink:title="A class providing methods for the storage and lookup of object properties.">
<polygon fill="none" stroke="#000000" points="355.5,-123.5 355.5,-142.5 522.5,-142.5 522.5,-123.5 355.5,-123.5"/>
<text text-anchor="middle" x="439" y="-130.5" font-family="Helvetica,sans-Serif" font-size="10.00" fill="#000000">CDPL::Base::PropertyContainer</text>
</a>
</g>
</g>
<!-- Node6&#45;&gt;Node2 -->
<g id="edge5" class="edge">
<title>Node6&#45;&gt;Node2</title>
<path fill="none" stroke="#191970" d="M398.4805,-120.3235C365.6534,-110.0536 320.1224,-95.8093 290.3697,-86.5011"/>
<polygon fill="#191970" stroke="#191970" points="397.6399,-123.7278 408.2288,-123.3733 399.73,-117.0471 397.6399,-123.7278"/>
</g>
</g>
</svg>
