<?xml version="1.0" encoding="UTF-8" standalone="no"?>
<!DOCTYPE svg PUBLIC "-//W3C//DTD SVG 1.1//EN"
 "http://www.w3.org/Graphics/SVG/1.1/DTD/svg11.dtd">
<!-- Generated by graphviz version 2.40.1 (0)
 -->
<!-- Title: CDPL::Math::QuaternionVectorAdapter&lt; Q &gt; Pages: 1 -->
<svg width="1099pt" height="88pt"
 viewBox="0.00 0.00 1099.00 88.00" xmlns="http://www.w3.org/2000/svg" xmlns:xlink="http://www.w3.org/1999/xlink">
<g id="graph0" class="graph" transform="scale(1 1) rotate(0) translate(4 84)">
<title>CDPL::Math::QuaternionVectorAdapter&lt; Q &gt;</title>
<!-- Node1 -->
<g id="node1" class="node">
<title>Node1</title>
<g id="a_node1"><a xlink:title=" ">
<polygon fill="#bfbfbf" stroke="#000000" points="928,-21 928,-51 1091,-51 1091,-21 928,-21"/>
<text text-anchor="start" x="936" y="-39" font-family="Helvetica,sans-Serif" font-size="10.00" fill="#000000">CDPL::Math::QuaternionVector</text>
<text text-anchor="middle" x="1009.5" y="-28" font-family="Helvetica,sans-Serif" font-size="10.00" fill="#000000">Adapter&lt; Q &gt;</text>
</a>
</g>
</g>
<!-- Node2 -->
<g id="node2" class="node">
<title>Node2</title>
<g id="a_node2"><a xlink:href="classCDPL_1_1Math_1_1VectorExpression.html" target="_top" xlink:title=" ">
<polygon fill="none" stroke="#000000" points="699,-21 699,-51 891,-51 891,-21 699,-21"/>
<text text-anchor="start" x="707" y="-39" font-family="Helvetica,sans-Serif" font-size="10.00" fill="#000000">CDPL::Math::VectorExpression</text>
<text text-anchor="middle" x="795" y="-28" font-family="Helvetica,sans-Serif" font-size="10.00" fill="#000000">&lt; QuaternionVectorAdapter&lt; Q &gt; &gt;</text>
</a>
</g>
</g>
<!-- Node2&#45;&gt;Node1 -->
<g id="edge1" class="edge">
<title>Node2&#45;&gt;Node1</title>
<path fill="none" stroke="#191970" d="M901.3496,-36C910.2922,-36 919.2432,-36 927.9539,-36"/>
<polygon fill="#191970" stroke="#191970" points="901.2699,-32.5001 891.2698,-36 901.2698,-39.5001 901.2699,-32.5001"/>
</g>
<!-- Node3 -->
<g id="node3" class="node">
<title>Node3</title>
<g id="a_node3"><a xlink:href="classCDPL_1_1Math_1_1Expression.html" target="_top" xlink:title=" ">
<polygon fill="none" stroke="#000000" points="354,-38.5 354,-79.5 505,-79.5 505,-38.5 354,-38.5"/>
<text text-anchor="start" x="362" y="-67.5" font-family="Helvetica,sans-Serif" font-size="10.00" fill="#000000">CDPL::Math::Expression</text>
<text text-anchor="start" x="362" y="-56.5" font-family="Helvetica,sans-Serif" font-size="10.00" fill="#000000">&lt; QuaternionVectorAdapter</text>
<text text-anchor="middle" x="429.5" y="-45.5" font-family="Helvetica,sans-Serif" font-size="10.00" fill="#000000">&lt; Q &gt; &gt;</text>
</a>
</g>
</g>
<!-- Node3&#45;&gt;Node2 -->
<g id="edge2" class="edge">
<title>Node3&#45;&gt;Node2</title>
<path fill="none" stroke="#191970" d="M515.3074,-53.6004C570.335,-50.1376 641.8665,-45.6363 698.8142,-42.0527"/>
<polygon fill="#191970" stroke="#191970" points="514.9923,-50.1132 505.2318,-54.2344 515.4319,-57.0994 514.9923,-50.1132"/>
</g>
<!-- Node4 -->
<g id="node4" class="node">
<title>Node4</title>
<g id="a_node4"><a xlink:href="classCDPL_1_1Math_1_1Expression.html" target="_top" xlink:title=" ">
<polygon fill="none" stroke="#000000" points="0,-24.5 0,-43.5 160,-43.5 160,-24.5 0,-24.5"/>
<text text-anchor="middle" x="80" y="-31.5" font-family="Helvetica,sans-Serif" font-size="10.00" fill="#000000">CDPL::Math::Expression&lt; E &gt;</text>
</a>
</g>
</g>
<!-- Node4&#45;&gt;Node3 -->
<g id="edge3" class="edge">
<title>Node4&#45;&gt;Node3</title>
<path fill="none" stroke="#ffa500" stroke-dasharray="5,2" d="M170.2646,-40.4567C227.227,-44.5313 299.9612,-49.734 353.8806,-53.5909"/>
<polygon fill="#ffa500" stroke="#ffa500" points="170.4066,-36.958 160.1824,-39.7355 169.9071,-43.9402 170.4066,-36.958"/>
<text text-anchor="start" x="178" y="-64" font-family="Helvetica,sans-Serif" font-size="10.00" fill="#000000"> &lt; QuaternionVectorAdapter</text>
<text text-anchor="middle" x="247" y="-53" font-family="Helvetica,sans-Serif" font-size="10.00" fill="#000000">&lt; Q &gt; &gt;</text>
</g>
<!-- Node5 -->
<g id="node5" class="node">
<title>Node5</title>
<g id="a_node5"><a xlink:href="classCDPL_1_1Math_1_1VectorExpression.html" target="_top" xlink:title=" ">
<polygon fill="none" stroke="#000000" points="334,-.5 334,-19.5 525,-19.5 525,-.5 334,-.5"/>
<text text-anchor="middle" x="429.5" y="-7.5" font-family="Helvetica,sans-Serif" font-size="10.00" fill="#000000">CDPL::Math::VectorExpression&lt; E &gt;</text>
</a>
</g>
</g>
<!-- Node4&#45;&gt;Node5 -->
<g id="edge5" class="edge">
<title>Node4&#45;&gt;Node5</title>
<path fill="none" stroke="#191970" d="M170.3669,-27.7946C220.5214,-24.3505 282.8789,-20.0684 333.8541,-16.568"/>
<polygon fill="#191970" stroke="#191970" points="169.9191,-24.317 160.1824,-28.4939 170.3987,-31.3005 169.9191,-24.317"/>
</g>
<!-- Node5&#45;&gt;Node2 -->
<g id="edge4" class="edge">
<title>Node5&#45;&gt;Node2</title>
<path fill="none" stroke="#ffa500" stroke-dasharray="5,2" d="M535.2999,-9.7225C580.3022,-10.4383 633.3044,-12.3837 681,-17 691.485,-18.0148 702.4639,-19.4125 713.2934,-20.9933"/>
<polygon fill="#ffa500" stroke="#ffa500" points="535.2807,-6.222 525.2324,-9.5806 535.182,-13.2213 535.2807,-6.222"/>
<text text-anchor="start" x="543" y="-31" font-family="Helvetica,sans-Serif" font-size="10.00" fill="#000000"> &lt; QuaternionVectorAdapter</text>
<text text-anchor="middle" x="612" y="-20" font-family="Helvetica,sans-Serif" font-size="10.00" fill="#000000">&lt; Q &gt; &gt;</text>
</g>
</g>
</svg>
