<?xml version="1.0" encoding="UTF-8" standalone="no"?>
<!DOCTYPE svg PUBLIC "-//W3C//DTD SVG 1.1//EN"
 "http://www.w3.org/Graphics/SVG/1.1/DTD/svg11.dtd">
<!-- Generated by graphviz version 2.44.0 (0)
 -->
<!-- Title: CDPL::Vis::Shape3D Pages: 1 -->
<svg width="499pt" height="140pt"
 viewBox="0.00 0.00 498.50 140.00" xmlns="http://www.w3.org/2000/svg" xmlns:xlink="http://www.w3.org/1999/xlink">
<g id="graph0" class="graph" transform="scale(1 1) rotate(0) translate(4 136)">
<title>CDPL::Vis::Shape3D</title>
<!-- Node1 -->
<g id="node1" class="node">
<title>Node1</title>
<g id="a_node1"><a xlink:title="The abstract base of all classes describing the geometric shape of 3D objects.">
<polygon fill="#bfbfbf" stroke="black" points="204.5,-112.5 204.5,-131.5 314.5,-131.5 314.5,-112.5 204.5,-112.5"/>
<text text-anchor="middle" x="259.5" y="-119.5" font-family="Helvetica" font-size="10.00">CDPL::Vis::Shape3D</text>
</a>
</g>
</g>
<!-- Node2 -->
<g id="node2" class="node">
<title>Node2</title>
<g id="a_node2"><a xlink:href="classCDPL_1_1Vis_1_1TriangleMesh3D.html" target="_top" xlink:title="Data structure for describing the geometric shape of 3D objects by means of a triangle mesh.">
<polygon fill="none" stroke="black" points="189.5,-56.5 189.5,-75.5 329.5,-75.5 329.5,-56.5 189.5,-56.5"/>
<text text-anchor="middle" x="259.5" y="-63.5" font-family="Helvetica" font-size="10.00">CDPL::Vis::TriangleMesh3D</text>
</a>
</g>
</g>
<!-- Node1&#45;&gt;Node2 -->
<g id="edge1" class="edge">
<title>Node1&#45;&gt;Node2</title>
<path fill="none" stroke="midnightblue" d="M259.5,-101.8C259.5,-92.91 259.5,-82.78 259.5,-75.75"/>
<polygon fill="midnightblue" stroke="midnightblue" points="256,-102.08 259.5,-112.08 263,-102.08 256,-102.08"/>
</g>
<!-- Node3 -->
<g id="node3" class="node">
<title>Node3</title>
<g id="a_node3"><a xlink:href="classCDPL_1_1Vis_1_1IcosahedronMesh3D.html" target="_top" xlink:title="A pre&#45;defined triangle mesh providing the vertices and faces of a regular icosahedron.">
<polygon fill="none" stroke="black" points="0,-0.5 0,-19.5 159,-19.5 159,-0.5 0,-0.5"/>
<text text-anchor="middle" x="79.5" y="-7.5" font-family="Helvetica" font-size="10.00">CDPL::Vis::IcosahedronMesh3D</text>
</a>
</g>
</g>
<!-- Node2&#45;&gt;Node3 -->
<g id="edge2" class="edge">
<title>Node2&#45;&gt;Node3</title>
<path fill="none" stroke="midnightblue" d="M221.39,-53.57C187.44,-43.38 138.51,-28.7 107.89,-19.52"/>
<polygon fill="midnightblue" stroke="midnightblue" points="220.39,-56.92 230.98,-56.44 222.41,-50.22 220.39,-56.92"/>
</g>
<!-- Node4 -->
<g id="node4" class="node">
<title>Node4</title>
<g id="a_node4"><a xlink:href="classCDPL_1_1Vis_1_1RightFrustumMesh3D.html" target="_top" xlink:title="A pre&#45;defined triangle mesh providing the vertices and faces of a right frustum specified by the cont...">
<polygon fill="none" stroke="black" points="177,-0.5 177,-19.5 342,-19.5 342,-0.5 177,-0.5"/>
<text text-anchor="middle" x="259.5" y="-7.5" font-family="Helvetica" font-size="10.00">CDPL::Vis::RightFrustumMesh3D</text>
</a>
</g>
</g>
<!-- Node2&#45;&gt;Node4 -->
<g id="edge3" class="edge">
<title>Node2&#45;&gt;Node4</title>
<path fill="none" stroke="midnightblue" d="M259.5,-45.8C259.5,-36.91 259.5,-26.78 259.5,-19.75"/>
<polygon fill="midnightblue" stroke="midnightblue" points="256,-46.08 259.5,-56.08 263,-46.08 256,-46.08"/>
</g>
<!-- Node5 -->
<g id="node5" class="node">
<title>Node5</title>
<g id="a_node5"><a xlink:href="classCDPL_1_1Vis_1_1TorusMesh3D.html" target="_top" xlink:title="A pre&#45;defined triangle mesh providing the vertices and faces of a torus specified by the contructor a...">
<polygon fill="none" stroke="black" points="360.5,-0.5 360.5,-19.5 490.5,-19.5 490.5,-0.5 360.5,-0.5"/>
<text text-anchor="middle" x="425.5" y="-7.5" font-family="Helvetica" font-size="10.00">CDPL::Vis::TorusMesh3D</text>
</a>
</g>
</g>
<!-- Node2&#45;&gt;Node5 -->
<g id="edge4" class="edge">
<title>Node2&#45;&gt;Node5</title>
<path fill="none" stroke="midnightblue" d="M295.45,-53.3C326.73,-43.13 371.32,-28.62 399.32,-19.52"/>
<polygon fill="midnightblue" stroke="midnightblue" points="294.23,-50.02 285.8,-56.44 296.4,-56.68 294.23,-50.02"/>
</g>
</g>
</svg>
