<?xml version="1.0" encoding="UTF-8" standalone="no"?>
<!DOCTYPE svg PUBLIC "-//W3C//DTD SVG 1.1//EN"
 "http://www.w3.org/Graphics/SVG/1.1/DTD/svg11.dtd">
<!-- Generated by graphviz version 2.44.0 (0)
 -->
<!-- Title: Descr Pages: 1 -->
<svg width="174pt" height="383pt"
 viewBox="0.00 0.00 174.00 383.00" xmlns="http://www.w3.org/2000/svg" xmlns:xlink="http://www.w3.org/1999/xlink">
<g id="graph0" class="graph" transform="scale(1 1) rotate(0) translate(4 379)">
<title>Descr</title>
<g id="clust1" class="cluster">
<title>clusterdir_13e5b888d4d8e2bc4637fdf598186b4c</title>
<g id="a_clust1"><a xlink:href="dir_13e5b888d4d8e2bc4637fdf598186b4c.html" target="_top" xlink:title="CDPL">
<polygon fill="#ddddee" stroke="black" points="8,-8 8,-367 158,-367 158,-8 8,-8"/>
<text text-anchor="middle" x="83" y="-355" font-family="Helvetica" font-size="10.00">CDPL</text>
</a>
</g>
</g>
<!-- dir_239469eeca6d3c1a97f8d4fbb99adcb8 -->
<g id="node1" class="node">
<title>dir_239469eeca6d3c1a97f8d4fbb99adcb8</title>
<g id="a_node1"><a xlink:href="dir_239469eeca6d3c1a97f8d4fbb99adcb8.html" target="_top" xlink:title="Util">
<polygon fill="none" stroke="black" points="90,-52 36,-52 36,-16 90,-16 90,-52"/>
<text text-anchor="middle" x="63" y="-31.5" font-family="Helvetica" font-size="10.00">Util</text>
</a>
</g>
</g>
<!-- dir_44c4819b58b16e7a1f761f8b885b5ba0 -->
<g id="node2" class="node">
<title>dir_44c4819b58b16e7a1f761f8b885b5ba0</title>
<g id="a_node2"><a xlink:href="dir_44c4819b58b16e7a1f761f8b885b5ba0.html" target="_top" xlink:title="Pharm">
<polygon fill="none" stroke="black" points="90,-268 36,-268 36,-232 90,-232 90,-268"/>
<text text-anchor="middle" x="63" y="-247.5" font-family="Helvetica" font-size="10.00">Pharm</text>
</a>
</g>
</g>
<!-- dir_44c4819b58b16e7a1f761f8b885b5ba0&#45;&gt;dir_239469eeca6d3c1a97f8d4fbb99adcb8 -->
<g id="edge1" class="edge">
<title>dir_44c4819b58b16e7a1f761f8b885b5ba0&#45;&gt;dir_239469eeca6d3c1a97f8d4fbb99adcb8</title>
<path fill="none" stroke="black" d="M58.47,-231.54C51.4,-201.92 39.33,-139.96 47,-88 48.28,-79.35 50.67,-70.15 53.22,-61.89"/>
<polygon fill="black" stroke="black" points="56.55,-62.96 56.35,-52.37 49.9,-60.78 56.55,-62.96"/>
<g id="a_edge1&#45;headlabel"><a xlink:href="dir_000013_000014.html" target="_top" xlink:title="27">
<text text-anchor="middle" x="58.12" y="-64.77" font-family="Helvetica" font-size="10.00">27</text>
</a>
</g>
</g>
<!-- dir_76ec631f4004f297aa98c89994166e73 -->
<g id="node3" class="node">
<title>dir_76ec631f4004f297aa98c89994166e73</title>
<g id="a_node3"><a xlink:href="dir_76ec631f4004f297aa98c89994166e73.html" target="_top" xlink:title="Math">
<polygon fill="none" stroke="black" points="110,-124 56,-124 56,-88 110,-88 110,-124"/>
<text text-anchor="middle" x="83" y="-103.5" font-family="Helvetica" font-size="10.00">Math</text>
</a>
</g>
</g>
<!-- dir_44c4819b58b16e7a1f761f8b885b5ba0&#45;&gt;dir_76ec631f4004f297aa98c89994166e73 -->
<g id="edge2" class="edge">
<title>dir_44c4819b58b16e7a1f761f8b885b5ba0&#45;&gt;dir_76ec631f4004f297aa98c89994166e73</title>
<path fill="none" stroke="black" d="M64.2,-231.87C65.59,-213.9 68.17,-184.87 72,-160 73.31,-151.51 75.08,-142.33 76.83,-134.03"/>
<polygon fill="black" stroke="black" points="80.28,-134.62 78.98,-124.1 73.44,-133.13 80.28,-134.62"/>
<g id="a_edge2&#45;headlabel"><a xlink:href="dir_000013_000001.html" target="_top" xlink:title="15">
<text text-anchor="middle" x="82.29" y="-136.23" font-family="Helvetica" font-size="10.00">15</text>
</a>
</g>
</g>
<!-- dir_a73e1d15e6da56bea42fb33a94074c1c -->
<g id="node4" class="node">
<title>dir_a73e1d15e6da56bea42fb33a94074c1c</title>
<g id="a_node4"><a xlink:href="dir_a73e1d15e6da56bea42fb33a94074c1c.html" target="_top" xlink:title="Chem">
<polygon fill="none" stroke="black" points="150,-196 96,-196 96,-160 150,-160 150,-196"/>
<text text-anchor="middle" x="123" y="-175.5" font-family="Helvetica" font-size="10.00">Chem</text>
</a>
</g>
</g>
<!-- dir_44c4819b58b16e7a1f761f8b885b5ba0&#45;&gt;dir_a73e1d15e6da56bea42fb33a94074c1c -->
<g id="edge3" class="edge">
<title>dir_44c4819b58b16e7a1f761f8b885b5ba0&#45;&gt;dir_a73e1d15e6da56bea42fb33a94074c1c</title>
<path fill="none" stroke="black" d="M77.83,-231.7C85.02,-223.3 93.8,-213.07 101.69,-203.86"/>
<polygon fill="black" stroke="black" points="104.49,-205.97 108.34,-196.1 99.17,-201.42 104.49,-205.97"/>
<g id="a_edge3&#45;headlabel"><a xlink:href="dir_000013_000004.html" target="_top" xlink:title="15">
<text text-anchor="middle" x="104.31" y="-208.05" font-family="Helvetica" font-size="10.00">15</text>
</a>
</g>
</g>
<!-- dir_76ec631f4004f297aa98c89994166e73&#45;&gt;dir_239469eeca6d3c1a97f8d4fbb99adcb8 -->
<g id="edge4" class="edge">
<title>dir_76ec631f4004f297aa98c89994166e73&#45;&gt;dir_239469eeca6d3c1a97f8d4fbb99adcb8</title>
<path fill="none" stroke="black" d="M78.06,-87.7C75.83,-79.9 73.15,-70.51 70.67,-61.83"/>
<polygon fill="black" stroke="black" points="74,-60.76 67.89,-52.1 67.27,-62.68 74,-60.76"/>
<g id="a_edge4&#45;headlabel"><a xlink:href="dir_000001_000014.html" target="_top" xlink:title="2">
<text text-anchor="middle" x="77.72" y="-60.93" font-family="Helvetica" font-size="10.00">2</text>
</a>
</g>
</g>
<!-- dir_a73e1d15e6da56bea42fb33a94074c1c&#45;&gt;dir_239469eeca6d3c1a97f8d4fbb99adcb8 -->
<g id="edge9" class="edge">
<title>dir_a73e1d15e6da56bea42fb33a94074c1c&#45;&gt;dir_239469eeca6d3c1a97f8d4fbb99adcb8</title>
<path fill="none" stroke="black" d="M125.91,-159.72C128.22,-141.11 129.55,-111.07 119,-88 113.92,-76.89 105.34,-66.97 96.41,-58.79"/>
<polygon fill="black" stroke="black" points="98.42,-55.91 88.55,-52.08 93.88,-61.23 98.42,-55.91"/>
<g id="a_edge9&#45;headlabel"><a xlink:href="dir_000004_000014.html" target="_top" xlink:title="202">
<text text-anchor="middle" x="103" y="-53.59" font-family="Helvetica" font-size="10.00">202</text>
</a>
</g>
</g>
<!-- dir_a73e1d15e6da56bea42fb33a94074c1c&#45;&gt;dir_76ec631f4004f297aa98c89994166e73 -->
<g id="edge10" class="edge">
<title>dir_a73e1d15e6da56bea42fb33a94074c1c&#45;&gt;dir_76ec631f4004f297aa98c89994166e73</title>
<path fill="none" stroke="black" d="M113.11,-159.7C108.51,-151.64 102.94,-141.89 97.85,-132.98"/>
<polygon fill="black" stroke="black" points="100.77,-131.05 92.77,-124.1 94.7,-134.52 100.77,-131.05"/>
<g id="a_edge10&#45;headlabel"><a xlink:href="dir_000004_000001.html" target="_top" xlink:title="32">
<text text-anchor="middle" x="105.02" y="-130.26" font-family="Helvetica" font-size="10.00">32</text>
</a>
</g>
</g>
<!-- dir_52613e1dd88146f0fdbace754ba7438c -->
<g id="node5" class="node">
<title>dir_52613e1dd88146f0fdbace754ba7438c</title>
<g id="a_node5"><a xlink:href="dir_52613e1dd88146f0fdbace754ba7438c.html" target="_top" xlink:title="Descr">
<polygon fill="#eeeeff" stroke="black" points="113,-340 59,-340 59,-304 113,-304 113,-340"/>
<text text-anchor="middle" x="86" y="-319.5" font-family="Helvetica" font-size="10.00">Descr</text>
</a>
</g>
</g>
<!-- dir_52613e1dd88146f0fdbace754ba7438c&#45;&gt;dir_239469eeca6d3c1a97f8d4fbb99adcb8 -->
<g id="edge5" class="edge">
<title>dir_52613e1dd88146f0fdbace754ba7438c&#45;&gt;dir_239469eeca6d3c1a97f8d4fbb99adcb8</title>
<path fill="none" stroke="black" d="M58.82,-304.34C46.67,-295.26 33.62,-282.84 27,-268 -4.15,-198.14 29.36,-106.12 49.73,-61.52"/>
<polygon fill="black" stroke="black" points="53,-62.78 54.09,-52.24 46.67,-59.8 53,-62.78"/>
<g id="a_edge5&#45;headlabel"><a xlink:href="dir_000008_000014.html" target="_top" xlink:title="6">
<text text-anchor="middle" x="54.04" y="-64.74" font-family="Helvetica" font-size="10.00">6</text>
</a>
</g>
</g>
<!-- dir_52613e1dd88146f0fdbace754ba7438c&#45;&gt;dir_44c4819b58b16e7a1f761f8b885b5ba0 -->
<g id="edge6" class="edge">
<title>dir_52613e1dd88146f0fdbace754ba7438c&#45;&gt;dir_44c4819b58b16e7a1f761f8b885b5ba0</title>
<path fill="none" stroke="black" d="M80.31,-303.7C77.75,-295.9 74.67,-286.51 71.82,-277.83"/>
<polygon fill="black" stroke="black" points="75.07,-276.51 68.62,-268.1 68.42,-278.7 75.07,-276.51"/>
<g id="a_edge6&#45;headlabel"><a xlink:href="dir_000008_000013.html" target="_top" xlink:title="2">
<text text-anchor="middle" x="78.89" y="-276.54" font-family="Helvetica" font-size="10.00">2</text>
</a>
</g>
</g>
<!-- dir_52613e1dd88146f0fdbace754ba7438c&#45;&gt;dir_76ec631f4004f297aa98c89994166e73 -->
<g id="edge7" class="edge">
<title>dir_52613e1dd88146f0fdbace754ba7438c&#45;&gt;dir_76ec631f4004f297aa98c89994166e73</title>
<path fill="none" stroke="black" d="M91.41,-303.53C94.3,-293.29 97.55,-280.04 99,-268 100.92,-252.12 101.56,-247.79 99,-232 96.3,-215.35 90.07,-212.58 87,-196 83.22,-175.6 82.3,-152.14 82.29,-134.43"/>
<polygon fill="black" stroke="black" points="85.79,-134.25 82.37,-124.22 78.79,-134.19 85.79,-134.25"/>
<g id="a_edge7&#45;headlabel"><a xlink:href="dir_000008_000001.html" target="_top" xlink:title="19">
<text text-anchor="middle" x="88.59" y="-135.37" font-family="Helvetica" font-size="10.00">19</text>
</a>
</g>
</g>
<!-- dir_52613e1dd88146f0fdbace754ba7438c&#45;&gt;dir_a73e1d15e6da56bea42fb33a94074c1c -->
<g id="edge8" class="edge">
<title>dir_52613e1dd88146f0fdbace754ba7438c&#45;&gt;dir_a73e1d15e6da56bea42fb33a94074c1c</title>
<path fill="none" stroke="black" d="M97.39,-303.59C103.37,-293.59 110.21,-280.55 114,-268 120.09,-247.84 122.25,-224.06 122.94,-206.16"/>
<polygon fill="black" stroke="black" points="126.44,-206.19 123.2,-196.11 119.44,-206.02 126.44,-206.19"/>
<g id="a_edge8&#45;headlabel"><a xlink:href="dir_000008_000004.html" target="_top" xlink:title="10">
<text text-anchor="middle" x="129.19" y="-207.36" font-family="Helvetica" font-size="10.00">10</text>
</a>
</g>
</g>
</g>
</svg>
