<?xml version="1.0" encoding="UTF-8" standalone="no"?>
<!DOCTYPE svg PUBLIC "-//W3C//DTD SVG 1.1//EN"
 "http://www.w3.org/Graphics/SVG/1.1/DTD/svg11.dtd">
<!-- Generated by graphviz version 2.40.1 (0)
 -->
<!-- Title: Graphical Class Hierarchy Pages: 1 -->
<svg width="625pt" height="50pt"
 viewBox="0.00 0.00 625.00 50.00" xmlns="http://www.w3.org/2000/svg" xmlns:xlink="http://www.w3.org/1999/xlink">
<g id="graph0" class="graph" transform="scale(1 1) rotate(0) translate(4 46)">
<title>Graphical Class Hierarchy</title>
<!-- Node0 -->
<g id="node1" class="node">
<title>Node0</title>
<g id="a_node1"><a xlink:href="classCDPL_1_1Math_1_1Expression.html" target="_top" xlink:title=" ">
<polygon fill="none" stroke="#000000" points="0,-.5 0,-41.5 164,-41.5 164,-.5 0,-.5"/>
<text text-anchor="start" x="8" y="-29.5" font-family="Helvetica,sans-Serif" font-size="10.00" fill="#000000">CDPL::Math::Expression</text>
<text text-anchor="start" x="8" y="-18.5" font-family="Helvetica,sans-Serif" font-size="10.00" fill="#000000">&lt; HomogenousCoordsAdapter</text>
<text text-anchor="middle" x="82" y="-7.5" font-family="Helvetica,sans-Serif" font-size="10.00" fill="#000000">&lt; V &gt; &gt;</text>
</a>
</g>
</g>
<!-- Node1 -->
<g id="node2" class="node">
<title>Node1</title>
<g id="a_node2"><a xlink:href="classCDPL_1_1Math_1_1VectorExpression.html" target="_top" xlink:title=" ">
<polygon fill="none" stroke="#000000" points="200,-6 200,-36 405,-36 405,-6 200,-6"/>
<text text-anchor="start" x="208" y="-24" font-family="Helvetica,sans-Serif" font-size="10.00" fill="#000000">CDPL::Math::VectorExpression</text>
<text text-anchor="middle" x="302.5" y="-13" font-family="Helvetica,sans-Serif" font-size="10.00" fill="#000000">&lt; HomogenousCoordsAdapter&lt; V &gt; &gt;</text>
</a>
</g>
</g>
<!-- Node0&#45;&gt;Node1 -->
<g id="edge1" class="edge">
<title>Node0&#45;&gt;Node1</title>
<path fill="none" stroke="#191970" d="M174.2919,-21C182.7121,-21 191.2759,-21 199.7797,-21"/>
<polygon fill="#191970" stroke="#191970" points="174.1061,-17.5001 164.1061,-21 174.106,-24.5001 174.1061,-17.5001"/>
</g>
<!-- Node2 -->
<g id="node3" class="node">
<title>Node2</title>
<g id="a_node3"><a xlink:href="classCDPL_1_1Math_1_1HomogenousCoordsAdapter.html" target="_top" xlink:title=" ">
<polygon fill="none" stroke="#000000" points="441,-6 441,-36 617,-36 617,-6 441,-6"/>
<text text-anchor="start" x="449" y="-24" font-family="Helvetica,sans-Serif" font-size="10.00" fill="#000000">CDPL::Math::HomogenousCoords</text>
<text text-anchor="middle" x="529" y="-13" font-family="Helvetica,sans-Serif" font-size="10.00" fill="#000000">Adapter&lt; V &gt;</text>
</a>
</g>
</g>
<!-- Node1&#45;&gt;Node2 -->
<g id="edge2" class="edge">
<title>Node1&#45;&gt;Node2</title>
<path fill="none" stroke="#191970" d="M415.2458,-21C423.8606,-21 432.4792,-21 440.9023,-21"/>
<polygon fill="#191970" stroke="#191970" points="415.1467,-17.5001 405.1466,-21 415.1466,-24.5001 415.1467,-17.5001"/>
</g>
</g>
</svg>
