<?xml version="1.0" encoding="UTF-8" standalone="no"?>
<!DOCTYPE svg PUBLIC "-//W3C//DTD SVG 1.1//EN"
 "http://www.w3.org/Graphics/SVG/1.1/DTD/svg11.dtd">
<!-- Generated by graphviz version 2.40.1 (0)
 -->
<!-- Title: CDPL.Grid.DRegularGridOutputHandler Pages: 1 -->
<svg width="471pt" height="137pt"
 viewBox="0.00 0.00 471.00 137.00" xmlns="http://www.w3.org/2000/svg" xmlns:xlink="http://www.w3.org/1999/xlink">
<g id="graph0" class="graph" transform="scale(1 1) rotate(0) translate(4 133)">
<title>CDPL.Grid.DRegularGridOutputHandler</title>
<!-- Node1 -->
<g id="node1" class="node">
<title>Node1</title>
<g id="a_node1"><a xlink:title="A factory interface providing methods for the creation of Grid.DRegularGridWriterBase instances for d...">
<polygon fill="#bfbfbf" stroke="#000000" points="94,-49.5 94,-79.5 260,-79.5 260,-49.5 94,-49.5"/>
<text text-anchor="start" x="102" y="-67.5" font-family="Helvetica,sans-Serif" font-size="10.00" fill="#000000">CDPL.Grid.DRegularGridOutput</text>
<text text-anchor="middle" x="177" y="-56.5" font-family="Helvetica,sans-Serif" font-size="10.00" fill="#000000">Handler</text>
</a>
</g>
</g>
<!-- Node3 -->
<g id="node3" class="node">
<title>Node3</title>
<g id="a_node3"><a xlink:href="classCDPL_1_1Grid_1_1CDFBZ2DRegularGridOutputHandler.html" target="_top" xlink:title="A handler for the output of bzip2&#45;compressed spatial regular grid data in the native I/O format of th...">
<polygon fill="none" stroke="#000000" points="303.5,-98.5 303.5,-128.5 455.5,-128.5 455.5,-98.5 303.5,-98.5"/>
<text text-anchor="start" x="311.5" y="-116.5" font-family="Helvetica,sans-Serif" font-size="10.00" fill="#000000">CDPL.Grid.CDFBZ2DRegular</text>
<text text-anchor="middle" x="379.5" y="-105.5" font-family="Helvetica,sans-Serif" font-size="10.00" fill="#000000">GridOutputHandler</text>
</a>
</g>
</g>
<!-- Node1&#45;&gt;Node3 -->
<g id="edge2" class="edge">
<title>Node1&#45;&gt;Node3</title>
<path fill="none" stroke="#191970" d="M248.924,-81.9038C271.3251,-87.3243 295.8221,-93.252 317.4846,-98.4938"/>
<polygon fill="#191970" stroke="#191970" points="249.6755,-78.4847 239.1329,-79.5346 248.0292,-85.2884 249.6755,-78.4847"/>
</g>
<!-- Node4 -->
<g id="node4" class="node">
<title>Node4</title>
<g id="a_node4"><a xlink:href="classCDPL_1_1Grid_1_1CDFDRegularGridOutputHandler.html" target="_top" xlink:title="A handler for the output of spatial regular grid data in the native I/O format of the CDPL.">
<polygon fill="none" stroke="#000000" points="303.5,-49.5 303.5,-79.5 455.5,-79.5 455.5,-49.5 303.5,-49.5"/>
<text text-anchor="start" x="311.5" y="-67.5" font-family="Helvetica,sans-Serif" font-size="10.00" fill="#000000">CDPL.Grid.CDFDRegularGrid</text>
<text text-anchor="middle" x="379.5" y="-56.5" font-family="Helvetica,sans-Serif" font-size="10.00" fill="#000000">OutputHandler</text>
</a>
</g>
</g>
<!-- Node1&#45;&gt;Node4 -->
<g id="edge3" class="edge">
<title>Node1&#45;&gt;Node4</title>
<path fill="none" stroke="#191970" d="M270.3552,-64.5C281.4237,-64.5 292.6189,-64.5 303.4072,-64.5"/>
<polygon fill="#191970" stroke="#191970" points="270.2412,-61.0001 260.2411,-64.5 270.2411,-68.0001 270.2412,-61.0001"/>
</g>
<!-- Node5 -->
<g id="node5" class="node">
<title>Node5</title>
<g id="a_node5"><a xlink:href="classCDPL_1_1Grid_1_1CDFGZDRegularGridOutputHandler.html" target="_top" xlink:title="A handler for the output of gzip&#45;compressed spatial regular grid data in the native I/O format of the...">
<polygon fill="none" stroke="#000000" points="296,-.5 296,-30.5 463,-30.5 463,-.5 296,-.5"/>
<text text-anchor="start" x="304" y="-18.5" font-family="Helvetica,sans-Serif" font-size="10.00" fill="#000000">CDPL.Grid.CDFGZDRegularGrid</text>
<text text-anchor="middle" x="379.5" y="-7.5" font-family="Helvetica,sans-Serif" font-size="10.00" fill="#000000">OutputHandler</text>
</a>
</g>
</g>
<!-- Node1&#45;&gt;Node5 -->
<g id="edge4" class="edge">
<title>Node1&#45;&gt;Node5</title>
<path fill="none" stroke="#191970" d="M248.924,-47.0962C271.3251,-41.6757 295.8221,-35.748 317.4846,-30.5062"/>
<polygon fill="#191970" stroke="#191970" points="248.0292,-43.7116 239.1329,-49.4654 249.6755,-50.5153 248.0292,-43.7116"/>
</g>
<!-- Node2 -->
<g id="node2" class="node">
<title>Node2</title>
<g id="a_node2"><a xlink:title=" ">
<polygon fill="none" stroke="#bfbfbf" points="0,-55 0,-74 58,-74 58,-55 0,-55"/>
<text text-anchor="middle" x="29" y="-62" font-family="Helvetica,sans-Serif" font-size="10.00" fill="#000000">instance</text>
</a>
</g>
</g>
<!-- Node2&#45;&gt;Node1 -->
<g id="edge1" class="edge">
<title>Node2&#45;&gt;Node1</title>
<path fill="none" stroke="#191970" d="M68.2757,-64.5C76.2474,-64.5 84.9143,-64.5 93.7602,-64.5"/>
<polygon fill="#191970" stroke="#191970" points="68.2401,-61.0001 58.24,-64.5 68.24,-68.0001 68.2401,-61.0001"/>
</g>
</g>
</svg>
