<?xml version="1.0" encoding="UTF-8" standalone="no"?>
<!DOCTYPE svg PUBLIC "-//W3C//DTD SVG 1.1//EN"
 "http://www.w3.org/Graphics/SVG/1.1/DTD/svg11.dtd">
<!-- Generated by graphviz version 2.40.1 (0)
 -->
<!-- Title: CDPL.Shape.ExactGaussianShapeOverlapFunction Pages: 1 -->
<svg width="161pt" height="162pt"
 viewBox="0.00 0.00 161.00 162.00" xmlns="http://www.w3.org/2000/svg" xmlns:xlink="http://www.w3.org/1999/xlink">
<g id="graph0" class="graph" transform="scale(1 1) rotate(0) translate(4 158)">
<title>CDPL.Shape.ExactGaussianShapeOverlapFunction</title>
<!-- Node1 -->
<g id="node1" class="node">
<title>Node1</title>
<g id="a_node1"><a xlink:title=" ">
<polygon fill="#bfbfbf" stroke="#000000" points="1.5,-.5 1.5,-30.5 151.5,-30.5 151.5,-.5 1.5,-.5"/>
<text text-anchor="start" x="9.5" y="-18.5" font-family="Helvetica,sans-Serif" font-size="10.00" fill="#000000">CDPL.Shape.ExactGaussian</text>
<text text-anchor="middle" x="76.5" y="-7.5" font-family="Helvetica,sans-Serif" font-size="10.00" fill="#000000">ShapeOverlapFunction</text>
</a>
</g>
</g>
<!-- Node2 -->
<g id="node2" class="node">
<title>Node2</title>
<g id="a_node2"><a xlink:href="classCDPL_1_1Shape_1_1GaussianShapeOverlapFunction.html" target="_top" xlink:title=" ">
<polygon fill="none" stroke="#000000" points="0,-67.5 0,-97.5 153,-97.5 153,-67.5 0,-67.5"/>
<text text-anchor="start" x="8" y="-85.5" font-family="Helvetica,sans-Serif" font-size="10.00" fill="#000000">CDPL.Shape.GaussianShape</text>
<text text-anchor="middle" x="76.5" y="-74.5" font-family="Helvetica,sans-Serif" font-size="10.00" fill="#000000">OverlapFunction</text>
</a>
</g>
</g>
<!-- Node2&#45;&gt;Node1 -->
<g id="edge1" class="edge">
<title>Node2&#45;&gt;Node1</title>
<path fill="none" stroke="#191970" d="M76.5,-57.0249C76.5,-48.128 76.5,-38.4287 76.5,-30.6432"/>
<polygon fill="#191970" stroke="#191970" points="73.0001,-57.2966 76.5,-67.2967 80.0001,-57.2967 73.0001,-57.2966"/>
</g>
<!-- Node3 -->
<g id="node3" class="node">
<title>Node3</title>
<g id="a_node3"><a xlink:title=" ">
<polygon fill="none" stroke="#bfbfbf" points="47.5,-134.5 47.5,-153.5 105.5,-153.5 105.5,-134.5 47.5,-134.5"/>
<text text-anchor="middle" x="76.5" y="-141.5" font-family="Helvetica,sans-Serif" font-size="10.00" fill="#000000">instance</text>
</a>
</g>
</g>
<!-- Node3&#45;&gt;Node2 -->
<g id="edge2" class="edge">
<title>Node3&#45;&gt;Node2</title>
<path fill="none" stroke="#191970" d="M76.5,-124.3693C76.5,-115.681 76.5,-105.6241 76.5,-97.5446"/>
<polygon fill="#191970" stroke="#191970" points="73.0001,-124.3906 76.5,-134.3906 80.0001,-124.3907 73.0001,-124.3906"/>
</g>
</g>
</svg>
