<?xml version="1.0" encoding="UTF-8" standalone="no"?>
<!DOCTYPE svg PUBLIC "-//W3C//DTD SVG 1.1//EN"
 "http://www.w3.org/Graphics/SVG/1.1/DTD/svg11.dtd">
<!-- Generated by graphviz version 2.40.1 (0)
 -->
<!-- Title: CDPL.ConfGen.CanonicalFragment Pages: 1 -->
<svg width="435pt" height="252pt"
 viewBox="0.00 0.00 434.50 252.00" xmlns="http://www.w3.org/2000/svg" xmlns:xlink="http://www.w3.org/1999/xlink">
<g id="graph0" class="graph" transform="scale(1 1) rotate(0) translate(4 248)">
<title>CDPL.ConfGen.CanonicalFragment</title>
<!-- Node1 -->
<g id="node1" class="node">
<title>Node1</title>
<g id="a_node1"><a xlink:title="CanonicalFragment.">
<polygon fill="#bfbfbf" stroke="#000000" points="151,-.5 151,-19.5 335,-19.5 335,-.5 151,-.5"/>
<text text-anchor="middle" x="243" y="-7.5" font-family="Helvetica,sans-Serif" font-size="10.00" fill="#000000">CDPL.ConfGen.CanonicalFragment</text>
</a>
</g>
</g>
<!-- Node2 -->
<g id="node2" class="node">
<title>Node2</title>
<g id="a_node2"><a xlink:href="classCDPL_1_1Chem_1_1MolecularGraph.html" target="_top" xlink:title="MolecularGraph.">
<polygon fill="none" stroke="#000000" points="166.5,-56.5 166.5,-75.5 319.5,-75.5 319.5,-56.5 166.5,-56.5"/>
<text text-anchor="middle" x="243" y="-63.5" font-family="Helvetica,sans-Serif" font-size="10.00" fill="#000000">CDPL.Chem.MolecularGraph</text>
</a>
</g>
</g>
<!-- Node2&#45;&gt;Node1 -->
<g id="edge1" class="edge">
<title>Node2&#45;&gt;Node1</title>
<path fill="none" stroke="#191970" d="M243,-46.1575C243,-37.155 243,-26.9199 243,-19.6427"/>
<polygon fill="#191970" stroke="#191970" points="239.5001,-46.2455 243,-56.2455 246.5001,-46.2456 239.5001,-46.2455"/>
</g>
<!-- Node3 -->
<g id="node3" class="node">
<title>Node3</title>
<g id="a_node3"><a xlink:href="classCDPL_1_1Chem_1_1AtomContainer.html" target="_top" xlink:title="A common interface for data&#45;structures that support a random access to stored Chem....">
<polygon fill="none" stroke="#000000" points="0,-112.5 0,-131.5 150,-131.5 150,-112.5 0,-112.5"/>
<text text-anchor="middle" x="75" y="-119.5" font-family="Helvetica,sans-Serif" font-size="10.00" fill="#000000">CDPL.Chem.AtomContainer</text>
</a>
</g>
</g>
<!-- Node3&#45;&gt;Node2 -->
<g id="edge2" class="edge">
<title>Node3&#45;&gt;Node2</title>
<path fill="none" stroke="#191970" d="M113.4286,-109.1905C144.2073,-98.9309 186.6926,-84.7691 214.4966,-75.5011"/>
<polygon fill="#191970" stroke="#191970" points="112.2602,-105.8905 103.8802,-112.3733 114.4739,-112.5313 112.2602,-105.8905"/>
</g>
<!-- Node4 -->
<g id="node4" class="node">
<title>Node4</title>
<g id="a_node4"><a xlink:href="classCDPL_1_1Chem_1_1Entity3DContainer.html" target="_top" xlink:title="A common interface for data&#45;structures that support a random access to stored Chem....">
<polygon fill="none" stroke="#000000" points="18,-168.5 18,-187.5 184,-187.5 184,-168.5 18,-168.5"/>
<text text-anchor="middle" x="101" y="-175.5" font-family="Helvetica,sans-Serif" font-size="10.00" fill="#000000">CDPL.Chem.Entity3DContainer</text>
</a>
</g>
</g>
<!-- Node4&#45;&gt;Node3 -->
<g id="edge3" class="edge">
<title>Node4&#45;&gt;Node3</title>
<path fill="none" stroke="#191970" d="M92.1989,-159.0437C87.9225,-149.8331 82.967,-139.1598 79.477,-131.6427"/>
<polygon fill="#191970" stroke="#191970" points="89.0854,-160.6494 96.4711,-168.2455 95.4345,-157.7015 89.0854,-160.6494"/>
</g>
<!-- Node5 -->
<g id="node5" class="node">
<title>Node5</title>
<g id="a_node5"><a xlink:title=" ">
<polygon fill="none" stroke="#bfbfbf" points="208,-224.5 208,-243.5 266,-243.5 266,-224.5 208,-224.5"/>
<text text-anchor="middle" x="237" y="-231.5" font-family="Helvetica,sans-Serif" font-size="10.00" fill="#000000">instance</text>
</a>
</g>
</g>
<!-- Node5&#45;&gt;Node4 -->
<g id="edge4" class="edge">
<title>Node5&#45;&gt;Node4</title>
<path fill="none" stroke="#191970" d="M204.2601,-220.5189C179.4917,-210.3201 146.095,-196.5685 124.0742,-187.5011"/>
<polygon fill="#191970" stroke="#191970" points="203.0413,-223.8021 213.6208,-224.3733 205.7066,-217.3293 203.0413,-223.8021"/>
</g>
<!-- Node6 -->
<g id="node6" class="node">
<title>Node6</title>
<g id="a_node6"><a xlink:href="classCDPL_1_1Chem_1_1BondContainer.html" target="_top" xlink:title="A common interface for data&#45;structures that support a random access to stored Chem....">
<polygon fill="none" stroke="#000000" points="168.5,-112.5 168.5,-131.5 317.5,-131.5 317.5,-112.5 168.5,-112.5"/>
<text text-anchor="middle" x="243" y="-119.5" font-family="Helvetica,sans-Serif" font-size="10.00" fill="#000000">CDPL.Chem.BondContainer</text>
</a>
</g>
</g>
<!-- Node5&#45;&gt;Node6 -->
<g id="edge6" class="edge">
<title>Node5&#45;&gt;Node6</title>
<path fill="none" stroke="#191970" d="M238.057,-214.2702C239.3572,-189.9985 241.5122,-149.7725 242.4897,-131.5249"/>
<polygon fill="#191970" stroke="#191970" points="234.5516,-214.278 237.5116,-224.4509 241.5416,-214.6525 234.5516,-214.278"/>
</g>
<!-- Node7 -->
<g id="node7" class="node">
<title>Node7</title>
<g id="a_node7"><a xlink:href="classCDPL_1_1Base_1_1PropertyContainer.html" target="_top" xlink:title="A class providing methods for the storage and lookup of object properties.">
<polygon fill="none" stroke="#000000" points="265.5,-168.5 265.5,-187.5 426.5,-187.5 426.5,-168.5 265.5,-168.5"/>
<text text-anchor="middle" x="346" y="-175.5" font-family="Helvetica,sans-Serif" font-size="10.00" fill="#000000">CDPL.Base.PropertyContainer</text>
</a>
</g>
</g>
<!-- Node5&#45;&gt;Node7 -->
<g id="edge8" class="edge">
<title>Node5&#45;&gt;Node7</title>
<path fill="none" stroke="#191970" d="M265.0342,-219.5971C284.5746,-209.558 310.1092,-196.4393 327.2312,-187.6427"/>
<polygon fill="#191970" stroke="#191970" points="263.2817,-216.5625 255.9864,-224.2455 266.4806,-222.7889 263.2817,-216.5625"/>
</g>
<!-- Node6&#45;&gt;Node2 -->
<g id="edge5" class="edge">
<title>Node6&#45;&gt;Node2</title>
<path fill="none" stroke="#191970" d="M243,-102.1575C243,-93.155 243,-82.9199 243,-75.6427"/>
<polygon fill="#191970" stroke="#191970" points="239.5001,-102.2455 243,-112.2455 246.5001,-102.2456 239.5001,-102.2455"/>
</g>
<!-- Node7&#45;&gt;Node2 -->
<g id="edge7" class="edge">
<title>Node7&#45;&gt;Node2</title>
<path fill="none" stroke="#191970" d="M343.9913,-158.2698C341.6708,-144.094 336.6859,-125.2284 326,-112 312.0241,-94.6988 289.7068,-82.8527 271.7323,-75.5197"/>
<polygon fill="#191970" stroke="#191970" points="340.5551,-158.9826 345.3392,-168.4358 347.4944,-158.0624 340.5551,-158.9826"/>
</g>
</g>
</svg>
