<?xml version="1.0" encoding="UTF-8" standalone="no"?>
<!DOCTYPE svg PUBLIC "-//W3C//DTD SVG 1.1//EN"
 "http://www.w3.org/Graphics/SVG/1.1/DTD/svg11.dtd">
<!-- Generated by graphviz version 2.44.0 (0)
 -->
<!-- Title: CDPL::Base::DataWriter&lt; T &gt; Pages: 1 -->
<svg width="1023pt" height="1708pt"
 viewBox="0.00 0.00 1023.00 1708.00" xmlns="http://www.w3.org/2000/svg" xmlns:xlink="http://www.w3.org/1999/xlink">
<g id="graph0" class="graph" transform="scale(1 1) rotate(0) translate(4 1704)">
<title>CDPL::Base::DataWriter&lt; T &gt;</title>
<!-- Node1 -->
<g id="node1" class="node">
<title>Node1</title>
<g id="a_node1"><a xlink:title="An interface for writing data objects of a given type to an arbitrary data sink.">
<polygon fill="#bfbfbf" stroke="black" points="359,-1096 359,-1115 506,-1115 506,-1096 359,-1096"/>
<text text-anchor="middle" x="432.5" y="-1103" font-family="Helvetica" font-size="10.00">CDPL::Base::DataWriter&lt; T &gt;</text>
</a>
</g>
</g>
<!-- Node4 -->
<g id="node4" class="node">
<title>Node4</title>
<g id="a_node4"><a xlink:href="classCDPL_1_1Base_1_1DataWriter.html" target="_top" xlink:title=" ">
<polygon fill="none" stroke="black" points="670,-1620.5 670,-1650.5 793,-1650.5 793,-1620.5 670,-1620.5"/>
<text text-anchor="start" x="678" y="-1638.5" font-family="Helvetica" font-size="10.00">CDPL::Base::DataWriter</text>
<text text-anchor="middle" x="731.5" y="-1627.5" font-family="Helvetica" font-size="10.00">&lt; FeatureContainer &gt;</text>
</a>
</g>
</g>
<!-- Node1&#45;&gt;Node4 -->
<g id="edge3" class="edge">
<title>Node1&#45;&gt;Node4</title>
<path fill="none" stroke="orange" stroke-dasharray="5,2" d="M433.58,-1125.55C434.74,-1185.35 444.98,-1365.68 524,-1484.5 567.78,-1550.33 650.51,-1597.62 696.86,-1620.32"/>
<polygon fill="orange" stroke="orange" points="437.08,-1125.21 433.45,-1115.25 430.08,-1125.29 437.08,-1125.21"/>
<text text-anchor="middle" x="585" y="-1594.5" font-family="Helvetica" font-size="10.00"> &lt; FeatureContainer &gt;</text>
</g>
<!-- Node7 -->
<g id="node7" class="node">
<title>Node7</title>
<g id="a_node7"><a xlink:href="classCDPL_1_1Base_1_1DataWriter.html" target="_top" xlink:title=" ">
<polygon fill="none" stroke="black" points="670,-1517.5 670,-1547.5 793,-1547.5 793,-1517.5 670,-1517.5"/>
<text text-anchor="start" x="678" y="-1535.5" font-family="Helvetica" font-size="10.00">CDPL::Base::DataWriter</text>
<text text-anchor="middle" x="731.5" y="-1524.5" font-family="Helvetica" font-size="10.00">&lt; DRegularGrid &gt;</text>
</a>
</g>
</g>
<!-- Node1&#45;&gt;Node7 -->
<g id="edge6" class="edge">
<title>Node1&#45;&gt;Node7</title>
<path fill="none" stroke="orange" stroke-dasharray="5,2" d="M437.45,-1125.06C446.85,-1168.23 473.62,-1273.71 524,-1347.5 575.84,-1423.43 665.27,-1489.04 707.35,-1517.46"/>
<polygon fill="orange" stroke="orange" points="440.82,-1124.11 435.34,-1115.04 433.97,-1125.55 440.82,-1124.11"/>
<text text-anchor="middle" x="585" y="-1472.5" font-family="Helvetica" font-size="10.00"> &lt; DRegularGrid &gt;</text>
</g>
<!-- Node9 -->
<g id="node9" class="node">
<title>Node9</title>
<g id="a_node9"><a xlink:href="classCDPL_1_1Base_1_1DataWriter.html" target="_top" xlink:title=" ">
<polygon fill="none" stroke="black" points="670,-1413.5 670,-1443.5 793,-1443.5 793,-1413.5 670,-1413.5"/>
<text text-anchor="start" x="678" y="-1431.5" font-family="Helvetica" font-size="10.00">CDPL::Base::DataWriter</text>
<text text-anchor="middle" x="731.5" y="-1420.5" font-family="Helvetica" font-size="10.00">&lt; Reaction &gt;</text>
</a>
</g>
</g>
<!-- Node1&#45;&gt;Node9 -->
<g id="edge8" class="edge">
<title>Node1&#45;&gt;Node9</title>
<path fill="none" stroke="orange" stroke-dasharray="5,2" d="M449.2,-1122.58C501.17,-1179.09 667.06,-1359.51 716.48,-1413.25"/>
<polygon fill="orange" stroke="orange" points="451.73,-1120.16 442.39,-1115.17 446.58,-1124.9 451.73,-1120.16"/>
<text text-anchor="middle" x="585" y="-1335.5" font-family="Helvetica" font-size="10.00"> &lt; Reaction &gt;</text>
</g>
<!-- Node16 -->
<g id="node16" class="node">
<title>Node16</title>
<g id="a_node16"><a xlink:href="classCDPL_1_1Base_1_1DataWriter.html" target="_top" xlink:title=" ">
<polygon fill="none" stroke="black" points="670,-1200.5 670,-1230.5 793,-1230.5 793,-1200.5 670,-1200.5"/>
<text text-anchor="start" x="678" y="-1218.5" font-family="Helvetica" font-size="10.00">CDPL::Base::DataWriter</text>
<text text-anchor="middle" x="731.5" y="-1207.5" font-family="Helvetica" font-size="10.00">&lt; Chem::Reaction &gt;</text>
</a>
</g>
</g>
<!-- Node1&#45;&gt;Node16 -->
<g id="edge15" class="edge">
<title>Node1&#45;&gt;Node16</title>
<path fill="none" stroke="orange" stroke-dasharray="5,2" d="M467.51,-1118.85C484.46,-1125.45 505.28,-1133.48 524,-1140.5 580.61,-1161.72 646.28,-1185.42 688.09,-1200.39"/>
<polygon fill="orange" stroke="orange" points="468.62,-1115.52 458.03,-1115.14 466.07,-1122.04 468.62,-1115.52"/>
<text text-anchor="middle" x="585" y="-1186.5" font-family="Helvetica" font-size="10.00"> &lt; Chem::Reaction &gt;</text>
</g>
<!-- Node21 -->
<g id="node21" class="node">
<title>Node21</title>
<g id="a_node21"><a xlink:href="classCDPL_1_1Base_1_1DataWriter.html" target="_top" xlink:title=" ">
<polygon fill="none" stroke="black" points="670,-1118.5 670,-1148.5 793,-1148.5 793,-1118.5 670,-1118.5"/>
<text text-anchor="start" x="678" y="-1136.5" font-family="Helvetica" font-size="10.00">CDPL::Base::DataWriter</text>
<text text-anchor="middle" x="731.5" y="-1125.5" font-family="Helvetica" font-size="10.00">&lt; DataType &gt;</text>
</a>
</g>
</g>
<!-- Node1&#45;&gt;Node21 -->
<g id="edge20" class="edge">
<title>Node1&#45;&gt;Node21</title>
<path fill="none" stroke="orange" stroke-dasharray="5,2" d="M516.34,-1113.31C564.97,-1117.89 625.37,-1123.59 669.61,-1127.76"/>
<polygon fill="orange" stroke="orange" points="516.44,-1109.8 506.15,-1112.35 515.78,-1116.77 516.44,-1109.8"/>
<text text-anchor="middle" x="585" y="-1128.5" font-family="Helvetica" font-size="10.00"> &lt; DataType &gt;</text>
</g>
<!-- Node23 -->
<g id="node23" class="node">
<title>Node23</title>
<g id="a_node23"><a xlink:href="classCDPL_1_1Base_1_1DataWriter.html" target="_top" xlink:title=" ">
<polygon fill="none" stroke="black" points="670,-1069.5 670,-1099.5 793,-1099.5 793,-1069.5 670,-1069.5"/>
<text text-anchor="start" x="678" y="-1087.5" font-family="Helvetica" font-size="10.00">CDPL::Base::DataWriter</text>
<text text-anchor="middle" x="731.5" y="-1076.5" font-family="Helvetica" font-size="10.00">&lt; DRegularGridSet &gt;</text>
</a>
</g>
</g>
<!-- Node1&#45;&gt;Node23 -->
<g id="edge22" class="edge">
<title>Node1&#45;&gt;Node23</title>
<path fill="none" stroke="orange" stroke-dasharray="5,2" d="M516.25,-1097.13C518.86,-1096.91 521.45,-1096.7 524,-1096.5 573.05,-1092.64 628.74,-1089.47 669.92,-1087.36"/>
<polygon fill="orange" stroke="orange" points="515.75,-1093.66 506.09,-1098.02 516.35,-1100.64 515.75,-1093.66"/>
<text text-anchor="middle" x="585" y="-1099.5" font-family="Helvetica" font-size="10.00"> &lt; DRegularGridSet &gt;</text>
</g>
<!-- Node25 -->
<g id="node25" class="node">
<title>Node25</title>
<g id="a_node25"><a xlink:href="classCDPL_1_1Base_1_1DataWriter.html" target="_top" xlink:title=" ">
<polygon fill="none" stroke="black" points="670,-1009 670,-1050 793,-1050 793,-1009 670,-1009"/>
<text text-anchor="start" x="678" y="-1038" font-family="Helvetica" font-size="10.00">CDPL::Base::DataWriter</text>
<text text-anchor="start" x="678" y="-1027" font-family="Helvetica" font-size="10.00">&lt; typename WriterImpl</text>
<text text-anchor="middle" x="731.5" y="-1016" font-family="Helvetica" font-size="10.00">::DataType &gt;</text>
</a>
</g>
</g>
<!-- Node1&#45;&gt;Node25 -->
<g id="edge24" class="edge">
<title>Node1&#45;&gt;Node25</title>
<path fill="none" stroke="orange" stroke-dasharray="5,2" d="M459.73,-1091.01C477.41,-1081.83 501.51,-1070.43 524,-1063.5 571.92,-1048.74 628.18,-1040.01 669.87,-1035.1"/>
<polygon fill="orange" stroke="orange" points="457.82,-1088.06 450.63,-1095.83 461.1,-1094.24 457.82,-1088.06"/>
<text text-anchor="start" x="533.5" y="-1077.5" font-family="Helvetica" font-size="10.00"> &lt; typename WriterImpl</text>
<text text-anchor="middle" x="585" y="-1066.5" font-family="Helvetica" font-size="10.00">::DataType &gt;</text>
</g>
<!-- Node28 -->
<g id="node28" class="node">
<title>Node28</title>
<g id="a_node28"><a xlink:href="classCDPL_1_1Base_1_1DataWriter.html" target="_top" xlink:title=" ">
<polygon fill="none" stroke="black" points="670,-714.5 670,-744.5 793,-744.5 793,-714.5 670,-714.5"/>
<text text-anchor="start" x="678" y="-732.5" font-family="Helvetica" font-size="10.00">CDPL::Base::DataWriter</text>
<text text-anchor="middle" x="731.5" y="-721.5" font-family="Helvetica" font-size="10.00">&lt; MolecularGraph &gt;</text>
</a>
</g>
</g>
<!-- Node1&#45;&gt;Node28 -->
<g id="edge27" class="edge">
<title>Node1&#45;&gt;Node28</title>
<path fill="none" stroke="orange" stroke-dasharray="5,2" d="M447.42,-1087.87C497.91,-1023.96 670.84,-805.03 718.34,-744.89"/>
<polygon fill="orange" stroke="orange" points="444.59,-1085.81 441.14,-1095.83 450.09,-1090.15 444.59,-1085.81"/>
<text text-anchor="middle" x="585" y="-987.5" font-family="Helvetica" font-size="10.00"> &lt; MolecularGraph &gt;</text>
</g>
<!-- Node39 -->
<g id="node39" class="node">
<title>Node39</title>
<g id="a_node39"><a xlink:href="classCDPL_1_1Base_1_1DataWriter.html" target="_top" xlink:title=" ">
<polygon fill="none" stroke="black" points="670,-425.5 670,-455.5 793,-455.5 793,-425.5 670,-425.5"/>
<text text-anchor="start" x="678" y="-443.5" font-family="Helvetica" font-size="10.00">CDPL::Base::DataWriter</text>
<text text-anchor="middle" x="731.5" y="-432.5" font-family="Helvetica" font-size="10.00">&lt; Object3D &gt;</text>
</a>
</g>
</g>
<!-- Node1&#45;&gt;Node39 -->
<g id="edge38" class="edge">
<title>Node1&#45;&gt;Node39</title>
<path fill="none" stroke="orange" stroke-dasharray="5,2" d="M438.61,-1085.71C450.85,-1039.43 483.83,-920.86 524,-826.5 556.89,-749.23 686.89,-517.7 721.82,-455.84"/>
<polygon fill="orange" stroke="orange" points="435.16,-1085.07 436.02,-1095.63 441.93,-1086.85 435.16,-1085.07"/>
<text text-anchor="middle" x="585" y="-829.5" font-family="Helvetica" font-size="10.00"> &lt; Object3D &gt;</text>
</g>
<!-- Node42 -->
<g id="node42" class="node">
<title>Node42</title>
<g id="a_node42"><a xlink:href="classCDPL_1_1Base_1_1DataWriter.html" target="_top" xlink:title=" ">
<polygon fill="none" stroke="black" points="664,-196.5 664,-226.5 799,-226.5 799,-196.5 664,-196.5"/>
<text text-anchor="start" x="672" y="-214.5" font-family="Helvetica" font-size="10.00">CDPL::Base::DataWriter</text>
<text text-anchor="middle" x="731.5" y="-203.5" font-family="Helvetica" font-size="10.00">&lt; Chem::MolecularGraph &gt;</text>
</a>
</g>
</g>
<!-- Node1&#45;&gt;Node42 -->
<g id="edge41" class="edge">
<title>Node1&#45;&gt;Node42</title>
<path fill="none" stroke="orange" stroke-dasharray="5,2" d="M434.57,-1085.96C438.87,-1016.11 458.01,-773 524,-585.5 576.57,-436.13 685.08,-275.78 719.66,-226.65"/>
<polygon fill="orange" stroke="orange" points="431.07,-1085.79 433.98,-1095.97 438.06,-1086.19 431.07,-1085.79"/>
<text text-anchor="middle" x="585" y="-588.5" font-family="Helvetica" font-size="10.00"> &lt; Chem::MolecularGraph &gt;</text>
</g>
<!-- Node2 -->
<g id="node2" class="node">
<title>Node2</title>
<g id="a_node2"><a xlink:href="classCDPL_1_1Base_1_1DataIOBase.html" target="_top" xlink:title="Provides infrastructure for the registration of I/O callback functions.">
<polygon fill="none" stroke="black" points="191,-1096 191,-1115 322,-1115 322,-1096 191,-1096"/>
<text text-anchor="middle" x="256.5" y="-1103" font-family="Helvetica" font-size="10.00">CDPL::Base::DataIOBase</text>
</a>
</g>
</g>
<!-- Node2&#45;&gt;Node1 -->
<g id="edge1" class="edge">
<title>Node2&#45;&gt;Node1</title>
<path fill="none" stroke="midnightblue" d="M332.44,-1105.5C341.16,-1105.5 350.06,-1105.5 358.75,-1105.5"/>
<polygon fill="midnightblue" stroke="midnightblue" points="332.29,-1102 322.29,-1105.5 332.29,-1109 332.29,-1102"/>
</g>
<!-- Node3 -->
<g id="node3" class="node">
<title>Node3</title>
<g id="a_node3"><a xlink:href="classCDPL_1_1Base_1_1ControlParameterContainer.html" target="_top" xlink:title="A class providing methods for the storage and lookup of control&#45;parameter values.">
<polygon fill="none" stroke="black" points="0,-1090.5 0,-1120.5 154,-1120.5 154,-1090.5 0,-1090.5"/>
<text text-anchor="start" x="8" y="-1108.5" font-family="Helvetica" font-size="10.00">CDPL::Base::ControlParameter</text>
<text text-anchor="middle" x="77" y="-1097.5" font-family="Helvetica" font-size="10.00">Container</text>
</a>
</g>
</g>
<!-- Node3&#45;&gt;Node2 -->
<g id="edge2" class="edge">
<title>Node3&#45;&gt;Node2</title>
<path fill="none" stroke="midnightblue" d="M164.14,-1105.5C173.1,-1105.5 182.1,-1105.5 190.78,-1105.5"/>
<polygon fill="midnightblue" stroke="midnightblue" points="164.05,-1102 154.05,-1105.5 164.05,-1109 164.05,-1102"/>
</g>
<!-- Node5 -->
<g id="node5" class="node">
<title>Node5</title>
<g id="a_node5"><a xlink:href="classCDPL_1_1Pharm_1_1CDFFeatureContainerWriter.html" target="_top" xlink:title="A writer for feature container data in the native I/O format of the CDPL.">
<polygon fill="none" stroke="black" points="836,-1669.5 836,-1699.5 1015,-1699.5 1015,-1669.5 836,-1669.5"/>
<text text-anchor="start" x="844" y="-1687.5" font-family="Helvetica" font-size="10.00">CDPL::Pharm::CDFFeatureContainer</text>
<text text-anchor="middle" x="925.5" y="-1676.5" font-family="Helvetica" font-size="10.00">Writer</text>
</a>
</g>
</g>
<!-- Node4&#45;&gt;Node5 -->
<g id="edge4" class="edge">
<title>Node4&#45;&gt;Node5</title>
<path fill="none" stroke="midnightblue" d="M801.27,-1653.05C822.35,-1658.43 845.35,-1664.3 865.7,-1669.49"/>
<polygon fill="midnightblue" stroke="midnightblue" points="801.97,-1649.62 791.41,-1650.53 800.24,-1656.4 801.97,-1649.62"/>
</g>
<!-- Node6 -->
<g id="node6" class="node">
<title>Node6</title>
<g id="a_node6"><a xlink:href="classCDPL_1_1Pharm_1_1PMLFeatureContainerWriter.html" target="_top" xlink:title="A writer for feature container data in the native I/O format of LigandScout.">
<polygon fill="none" stroke="black" points="836,-1620.5 836,-1650.5 1015,-1650.5 1015,-1620.5 836,-1620.5"/>
<text text-anchor="start" x="844" y="-1638.5" font-family="Helvetica" font-size="10.00">CDPL::Pharm::PMLFeatureContainer</text>
<text text-anchor="middle" x="925.5" y="-1627.5" font-family="Helvetica" font-size="10.00">Writer</text>
</a>
</g>
</g>
<!-- Node4&#45;&gt;Node6 -->
<g id="edge5" class="edge">
<title>Node4&#45;&gt;Node6</title>
<path fill="none" stroke="midnightblue" d="M803.57,-1635.5C814.05,-1635.5 824.95,-1635.5 835.74,-1635.5"/>
<polygon fill="midnightblue" stroke="midnightblue" points="803.25,-1632 793.25,-1635.5 803.25,-1639 803.25,-1632"/>
</g>
<!-- Node8 -->
<g id="node8" class="node">
<title>Node8</title>
<g id="a_node8"><a xlink:href="classCDPL_1_1Grid_1_1CDFDRegularGridWriter.html" target="_top" xlink:title="A writer for spatial regular grid data in the native I/O format of the CDPL.">
<polygon fill="none" stroke="black" points="849.5,-1571.5 849.5,-1601.5 1001.5,-1601.5 1001.5,-1571.5 849.5,-1571.5"/>
<text text-anchor="start" x="857.5" y="-1589.5" font-family="Helvetica" font-size="10.00">CDPL::Grid::CDFDRegularGrid</text>
<text text-anchor="middle" x="925.5" y="-1578.5" font-family="Helvetica" font-size="10.00">Writer</text>
</a>
</g>
</g>
<!-- Node7&#45;&gt;Node8 -->
<g id="edge7" class="edge">
<title>Node7&#45;&gt;Node8</title>
<path fill="none" stroke="midnightblue" d="M794.94,-1550.27C802.37,-1552.37 809.86,-1554.49 817,-1556.5 834.35,-1561.38 853.28,-1566.68 870.35,-1571.44"/>
<polygon fill="midnightblue" stroke="midnightblue" points="795.8,-1546.88 785.23,-1547.52 793.89,-1553.61 795.8,-1546.88"/>
</g>
<!-- Node10 -->
<g id="node10" class="node">
<title>Node10</title>
<g id="a_node10"><a xlink:href="classCDPL_1_1Chem_1_1CDFReactionWriter.html" target="_top" xlink:title="A writer for molecular graph data in the native I/O format of the CDPL.">
<polygon fill="none" stroke="black" points="843,-1533 843,-1552 1008,-1552 1008,-1533 843,-1533"/>
<text text-anchor="middle" x="925.5" y="-1540" font-family="Helvetica" font-size="10.00">CDPL::Chem::CDFReactionWriter</text>
</a>
</g>
</g>
<!-- Node9&#45;&gt;Node10 -->
<g id="edge9" class="edge">
<title>Node9&#45;&gt;Node10</title>
<path fill="none" stroke="midnightblue" d="M751.08,-1451.53C770.08,-1473.47 801.61,-1505.72 836,-1523.5 843.54,-1527.4 851.83,-1530.49 860.23,-1532.96"/>
<polygon fill="midnightblue" stroke="midnightblue" points="753.56,-1449.05 744.43,-1443.67 748.22,-1453.57 753.56,-1449.05"/>
</g>
<!-- Node11 -->
<g id="node11" class="node">
<title>Node11</title>
<g id="a_node11"><a xlink:href="classCDPL_1_1Chem_1_1JMEReactionWriter.html" target="_top" xlink:title="A writer for reaction data in the native I/O format of the JME Molecular Editor [JME] java applet.">
<polygon fill="none" stroke="black" points="843,-1495 843,-1514 1008,-1514 1008,-1495 843,-1495"/>
<text text-anchor="middle" x="925.5" y="-1502" font-family="Helvetica" font-size="10.00">CDPL::Chem::JMEReactionWriter</text>
</a>
</g>
</g>
<!-- Node9&#45;&gt;Node11 -->
<g id="edge10" class="edge">
<title>Node9&#45;&gt;Node11</title>
<path fill="none" stroke="midnightblue" d="M764.06,-1449.05C783.98,-1461.21 810.67,-1476.04 836,-1485.5 846.16,-1489.29 857.27,-1492.42 868.08,-1494.97"/>
<polygon fill="midnightblue" stroke="midnightblue" points="765.75,-1445.98 755.4,-1443.68 762.05,-1451.92 765.75,-1445.98"/>
</g>
<!-- Node12 -->
<g id="node12" class="node">
<title>Node12</title>
<g id="a_node12"><a xlink:href="classCDPL_1_1Chem_1_1RDFReactionWriter.html" target="_top" xlink:title="A writer for reaction data in the MDL RD&#45;File [CTFILE] format.">
<polygon fill="none" stroke="black" points="843,-1457 843,-1476 1008,-1476 1008,-1457 843,-1457"/>
<text text-anchor="middle" x="925.5" y="-1464" font-family="Helvetica" font-size="10.00">CDPL::Chem::RDFReactionWriter</text>
</a>
</g>
</g>
<!-- Node9&#45;&gt;Node12 -->
<g id="edge11" class="edge">
<title>Node9&#45;&gt;Node12</title>
<path fill="none" stroke="midnightblue" d="M803.16,-1442.48C827.49,-1447.3 854.17,-1452.58 876.3,-1456.96"/>
<polygon fill="midnightblue" stroke="midnightblue" points="803.74,-1439.03 793.25,-1440.52 802.38,-1445.9 803.74,-1439.03"/>
</g>
<!-- Node13 -->
<g id="node13" class="node">
<title>Node13</title>
<g id="a_node13"><a xlink:href="classCDPL_1_1Chem_1_1RXNReactionWriter.html" target="_top" xlink:title="A writer for reaction data in the MDL Rxn&#45;File [CTFILE] format.">
<polygon fill="none" stroke="black" points="842,-1419 842,-1438 1009,-1438 1009,-1419 842,-1419"/>
<text text-anchor="middle" x="925.5" y="-1426" font-family="Helvetica" font-size="10.00">CDPL::Chem::RXNReactionWriter</text>
</a>
</g>
</g>
<!-- Node9&#45;&gt;Node13 -->
<g id="edge12" class="edge">
<title>Node9&#45;&gt;Node13</title>
<path fill="none" stroke="midnightblue" d="M803.52,-1428.5C815.95,-1428.5 828.97,-1428.5 841.68,-1428.5"/>
<polygon fill="midnightblue" stroke="midnightblue" points="803.25,-1425 793.25,-1428.5 803.25,-1432 803.25,-1425"/>
</g>
<!-- Node14 -->
<g id="node14" class="node">
<title>Node14</title>
<g id="a_node14"><a xlink:href="classCDPL_1_1Chem_1_1SMARTSReactionWriter.html" target="_top" xlink:title="A writer for reaction data in the Daylight SMARTS [SMARTS] format.">
<polygon fill="none" stroke="black" points="845,-1369.5 845,-1399.5 1006,-1399.5 1006,-1369.5 845,-1369.5"/>
<text text-anchor="start" x="853" y="-1387.5" font-family="Helvetica" font-size="10.00">CDPL::Chem::SMARTSReaction</text>
<text text-anchor="middle" x="925.5" y="-1376.5" font-family="Helvetica" font-size="10.00">Writer</text>
</a>
</g>
</g>
<!-- Node9&#45;&gt;Node14 -->
<g id="edge13" class="edge">
<title>Node9&#45;&gt;Node14</title>
<path fill="none" stroke="midnightblue" d="M803.21,-1412.3C821.4,-1408.13 840.9,-1403.66 858.83,-1399.55"/>
<polygon fill="midnightblue" stroke="midnightblue" points="802.22,-1408.93 793.25,-1414.58 803.78,-1415.76 802.22,-1408.93"/>
</g>
<!-- Node15 -->
<g id="node15" class="node">
<title>Node15</title>
<g id="a_node15"><a xlink:href="classCDPL_1_1Chem_1_1SMILESReactionWriter.html" target="_top" xlink:title="A writer for reaction data in the Daylight SMILES [SMILES] format.">
<polygon fill="none" stroke="black" points="848,-1320.5 848,-1350.5 1003,-1350.5 1003,-1320.5 848,-1320.5"/>
<text text-anchor="start" x="856" y="-1338.5" font-family="Helvetica" font-size="10.00">CDPL::Chem::SMILESReaction</text>
<text text-anchor="middle" x="925.5" y="-1327.5" font-family="Helvetica" font-size="10.00">Writer</text>
</a>
</g>
</g>
<!-- Node9&#45;&gt;Node15 -->
<g id="edge14" class="edge">
<title>Node9&#45;&gt;Node15</title>
<path fill="none" stroke="midnightblue" d="M759.75,-1407.24C779.88,-1392.41 808.45,-1373.08 836,-1360.5 844.13,-1356.79 852.94,-1353.5 861.74,-1350.64"/>
<polygon fill="midnightblue" stroke="midnightblue" points="757.58,-1404.5 751.67,-1413.3 761.77,-1410.1 757.58,-1404.5"/>
</g>
<!-- Node17 -->
<g id="node17" class="node">
<title>Node17</title>
<g id="a_node17"><a xlink:href="classCDPL_1_1Vis_1_1PDFReactionWriter.html" target="_top" xlink:title="Creates 2D depictions of chemical reactions in the Portable Document Format (PDF) [WPDF].">
<polygon fill="none" stroke="black" points="849.5,-1282 849.5,-1301 1001.5,-1301 1001.5,-1282 849.5,-1282"/>
<text text-anchor="middle" x="925.5" y="-1289" font-family="Helvetica" font-size="10.00">CDPL::Vis::PDFReactionWriter</text>
</a>
</g>
</g>
<!-- Node16&#45;&gt;Node17 -->
<g id="edge16" class="edge">
<title>Node16&#45;&gt;Node17</title>
<path fill="none" stroke="midnightblue" d="M764.06,-1236.05C783.98,-1248.21 810.67,-1263.04 836,-1272.5 846.16,-1276.29 857.27,-1279.42 868.08,-1281.97"/>
<polygon fill="midnightblue" stroke="midnightblue" points="765.75,-1232.98 755.4,-1230.68 762.05,-1238.92 765.75,-1232.98"/>
</g>
<!-- Node18 -->
<g id="node18" class="node">
<title>Node18</title>
<g id="a_node18"><a xlink:href="classCDPL_1_1Vis_1_1PNGReactionWriter.html" target="_top" xlink:title="Creates 2D depictions of chemical reactions in the Portable Network Graphics (PNG) [WPNG] format.">
<polygon fill="none" stroke="black" points="848,-1244 848,-1263 1003,-1263 1003,-1244 848,-1244"/>
<text text-anchor="middle" x="925.5" y="-1251" font-family="Helvetica" font-size="10.00">CDPL::Vis::PNGReactionWriter</text>
</a>
</g>
</g>
<!-- Node16&#45;&gt;Node18 -->
<g id="edge17" class="edge">
<title>Node16&#45;&gt;Node18</title>
<path fill="none" stroke="midnightblue" d="M803.16,-1229.48C827.49,-1234.3 854.17,-1239.58 876.3,-1243.96"/>
<polygon fill="midnightblue" stroke="midnightblue" points="803.74,-1226.03 793.25,-1227.52 802.38,-1232.9 803.74,-1226.03"/>
</g>
<!-- Node19 -->
<g id="node19" class="node">
<title>Node19</title>
<g id="a_node19"><a xlink:href="classCDPL_1_1Vis_1_1PSReactionWriter.html" target="_top" xlink:title="Creates 2D depictions of chemical reactions in the PostScript (PS) [WPS] format.">
<polygon fill="none" stroke="black" points="852.5,-1206 852.5,-1225 998.5,-1225 998.5,-1206 852.5,-1206"/>
<text text-anchor="middle" x="925.5" y="-1213" font-family="Helvetica" font-size="10.00">CDPL::Vis::PSReactionWriter</text>
</a>
</g>
</g>
<!-- Node16&#45;&gt;Node19 -->
<g id="edge18" class="edge">
<title>Node16&#45;&gt;Node19</title>
<path fill="none" stroke="midnightblue" d="M803.56,-1215.5C819.49,-1215.5 836.41,-1215.5 852.39,-1215.5"/>
<polygon fill="midnightblue" stroke="midnightblue" points="803.25,-1212 793.25,-1215.5 803.25,-1219 803.25,-1212"/>
</g>
<!-- Node20 -->
<g id="node20" class="node">
<title>Node20</title>
<g id="a_node20"><a xlink:href="classCDPL_1_1Vis_1_1SVGReactionWriter.html" target="_top" xlink:title="Creates 2D depictions of chemical reactions in the Scalable Vector Graphics (SVG) [WSVG] format.">
<polygon fill="none" stroke="black" points="849.5,-1168 849.5,-1187 1001.5,-1187 1001.5,-1168 849.5,-1168"/>
<text text-anchor="middle" x="925.5" y="-1175" font-family="Helvetica" font-size="10.00">CDPL::Vis::SVGReactionWriter</text>
</a>
</g>
</g>
<!-- Node16&#45;&gt;Node20 -->
<g id="edge19" class="edge">
<title>Node16&#45;&gt;Node20</title>
<path fill="none" stroke="midnightblue" d="M803.16,-1201.52C827.49,-1196.7 854.17,-1191.42 876.3,-1187.04"/>
<polygon fill="midnightblue" stroke="midnightblue" points="802.38,-1198.1 793.25,-1203.48 803.74,-1204.97 802.38,-1198.1"/>
</g>
<!-- Node22 -->
<g id="node22" class="node">
<title>Node22</title>
<g id="a_node22"><a xlink:href="classCDPL_1_1Util_1_1MultiFormatDataWriter.html" target="_top" xlink:title="MultiFormatDataWriter.">
<polygon fill="none" stroke="black" points="854.5,-1118.5 854.5,-1148.5 996.5,-1148.5 996.5,-1118.5 854.5,-1118.5"/>
<text text-anchor="start" x="862.5" y="-1136.5" font-family="Helvetica" font-size="10.00">CDPL::Util::MultiFormatData</text>
<text text-anchor="middle" x="925.5" y="-1125.5" font-family="Helvetica" font-size="10.00">Writer&lt; DataType &gt;</text>
</a>
</g>
</g>
<!-- Node21&#45;&gt;Node22 -->
<g id="edge21" class="edge">
<title>Node21&#45;&gt;Node22</title>
<path fill="none" stroke="midnightblue" d="M803.46,-1133.5C820.1,-1133.5 837.83,-1133.5 854.44,-1133.5"/>
<polygon fill="midnightblue" stroke="midnightblue" points="803.25,-1130 793.25,-1133.5 803.25,-1137 803.25,-1130"/>
</g>
<!-- Node24 -->
<g id="node24" class="node">
<title>Node24</title>
<g id="a_node24"><a xlink:href="classCDPL_1_1Grid_1_1CDFDRegularGridSetWriter.html" target="_top" xlink:title="A writer for spatial regular grid set data in the native I/O format of the CDPL.">
<polygon fill="none" stroke="black" points="849.5,-1069.5 849.5,-1099.5 1001.5,-1099.5 1001.5,-1069.5 849.5,-1069.5"/>
<text text-anchor="start" x="857.5" y="-1087.5" font-family="Helvetica" font-size="10.00">CDPL::Grid::CDFDRegularGrid</text>
<text text-anchor="middle" x="925.5" y="-1076.5" font-family="Helvetica" font-size="10.00">SetWriter</text>
</a>
</g>
</g>
<!-- Node23&#45;&gt;Node24 -->
<g id="edge23" class="edge">
<title>Node23&#45;&gt;Node24</title>
<path fill="none" stroke="midnightblue" d="M803.44,-1084.5C818.39,-1084.5 834.21,-1084.5 849.31,-1084.5"/>
<polygon fill="midnightblue" stroke="midnightblue" points="803.25,-1081 793.25,-1084.5 803.25,-1088 803.25,-1081"/>
</g>
<!-- Node26 -->
<g id="node26" class="node">
<title>Node26</title>
<g id="a_node26"><a xlink:href="classCDPL_1_1Util_1_1CompressedDataWriter.html" target="_top" xlink:title="CompressedDataWriter.">
<polygon fill="none" stroke="black" points="844.5,-1009 844.5,-1050 1006.5,-1050 1006.5,-1009 844.5,-1009"/>
<text text-anchor="start" x="852.5" y="-1038" font-family="Helvetica" font-size="10.00">CDPL::Util::CompressedData</text>
<text text-anchor="start" x="852.5" y="-1027" font-family="Helvetica" font-size="10.00">Writer&lt; WriterImpl, CompStream,</text>
<text text-anchor="middle" x="925.5" y="-1016" font-family="Helvetica" font-size="10.00"> DataType &gt;</text>
</a>
</g>
</g>
<!-- Node25&#45;&gt;Node26 -->
<g id="edge25" class="edge">
<title>Node25&#45;&gt;Node26</title>
<path fill="none" stroke="midnightblue" d="M803.33,-1029.5C816.72,-1029.5 830.82,-1029.5 844.47,-1029.5"/>
<polygon fill="midnightblue" stroke="midnightblue" points="803.25,-1026 793.25,-1029.5 803.25,-1033 803.25,-1026"/>
</g>
<!-- Node27 -->
<g id="node27" class="node">
<title>Node27</title>
<g id="a_node27"><a xlink:href="classCDPL_1_1Util_1_1FileDataWriter.html" target="_top" xlink:title="FileDataWriter.">
<polygon fill="none" stroke="black" points="860,-959.5 860,-989.5 991,-989.5 991,-959.5 860,-959.5"/>
<text text-anchor="start" x="868" y="-977.5" font-family="Helvetica" font-size="10.00">CDPL::Util::FileDataWriter</text>
<text text-anchor="middle" x="925.5" y="-966.5" font-family="Helvetica" font-size="10.00">&lt; WriterImpl, DataType &gt;</text>
</a>
</g>
</g>
<!-- Node25&#45;&gt;Node27 -->
<g id="edge26" class="edge">
<title>Node25&#45;&gt;Node27</title>
<path fill="none" stroke="midnightblue" d="M802.88,-1009.03C813.96,-1005.83 825.29,-1002.57 836,-999.5 847.36,-996.25 859.55,-992.79 871.13,-989.51"/>
<polygon fill="midnightblue" stroke="midnightblue" points="801.86,-1005.68 793.23,-1011.82 803.81,-1012.41 801.86,-1005.68"/>
</g>
<!-- Node29 -->
<g id="node29" class="node">
<title>Node29</title>
<g id="a_node29"><a xlink:href="classCDPL_1_1Chem_1_1CDFMolecularGraphWriter.html" target="_top" xlink:title="A writer for molecular graph data in the native I/O format of the CDPL.">
<polygon fill="none" stroke="black" points="854,-910.5 854,-940.5 997,-940.5 997,-910.5 854,-910.5"/>
<text text-anchor="start" x="862" y="-928.5" font-family="Helvetica" font-size="10.00">CDPL::Chem::CDFMolecular</text>
<text text-anchor="middle" x="925.5" y="-917.5" font-family="Helvetica" font-size="10.00">GraphWriter</text>
</a>
</g>
</g>
<!-- Node28&#45;&gt;Node29 -->
<g id="edge28" class="edge">
<title>Node28&#45;&gt;Node29</title>
<path fill="none" stroke="midnightblue" d="M740.77,-754.29C754.52,-791.67 785.66,-862.16 836,-900.5 841.46,-904.66 847.59,-908.13 853.99,-911.02"/>
<polygon fill="midnightblue" stroke="midnightblue" points="744,-752.93 737.35,-744.68 737.4,-755.28 744,-752.93"/>
</g>
<!-- Node30 -->
<g id="node30" class="node">
<title>Node30</title>
<g id="a_node30"><a xlink:href="classCDPL_1_1Chem_1_1CMLMolecularGraphWriter.html" target="_top" xlink:title="A writer for molecular graph data in the Chemical Markup Language [CML] format.">
<polygon fill="none" stroke="black" points="853.5,-861.5 853.5,-891.5 997.5,-891.5 997.5,-861.5 853.5,-861.5"/>
<text text-anchor="start" x="861.5" y="-879.5" font-family="Helvetica" font-size="10.00">CDPL::Chem::CMLMolecular</text>
<text text-anchor="middle" x="925.5" y="-868.5" font-family="Helvetica" font-size="10.00">GraphWriter</text>
</a>
</g>
</g>
<!-- Node28&#45;&gt;Node30 -->
<g id="edge29" class="edge">
<title>Node28&#45;&gt;Node30</title>
<path fill="none" stroke="midnightblue" d="M746.58,-753.45C764.09,-781.13 796.53,-826.13 836,-851.5 842.04,-855.38 848.7,-858.68 855.56,-861.46"/>
<polygon fill="midnightblue" stroke="midnightblue" points="749.46,-751.44 741.23,-744.77 743.51,-755.12 749.46,-751.44"/>
</g>
<!-- Node31 -->
<g id="node31" class="node">
<title>Node31</title>
<g id="a_node31"><a xlink:href="classCDPL_1_1Chem_1_1INCHIMolecularGraphWriter.html" target="_top" xlink:title="A writer for molecular graph data in the IUPAC International Chemical Identifier (InChI) [INCHI] form...">
<polygon fill="none" stroke="black" points="850.5,-812.5 850.5,-842.5 1000.5,-842.5 1000.5,-812.5 850.5,-812.5"/>
<text text-anchor="start" x="858.5" y="-830.5" font-family="Helvetica" font-size="10.00">CDPL::Chem::INCHIMolecular</text>
<text text-anchor="middle" x="925.5" y="-819.5" font-family="Helvetica" font-size="10.00">GraphWriter</text>
</a>
</g>
</g>
<!-- Node28&#45;&gt;Node31 -->
<g id="edge30" class="edge">
<title>Node28&#45;&gt;Node31</title>
<path fill="none" stroke="midnightblue" d="M758.03,-751.24C778.09,-767.37 807.34,-788.84 836,-802.5 843.93,-806.28 852.53,-809.59 861.16,-812.45"/>
<polygon fill="midnightblue" stroke="midnightblue" points="759.98,-748.32 750.02,-744.7 755.55,-753.74 759.98,-748.32"/>
</g>
<!-- Node32 -->
<g id="node32" class="node">
<title>Node32</title>
<g id="a_node32"><a xlink:href="classCDPL_1_1Chem_1_1JMEMolecularGraphWriter.html" target="_top" xlink:title="A writer for molecular graph data in the native I/O format of the JME Molecular Editor [JME] java app...">
<polygon fill="none" stroke="black" points="854,-763.5 854,-793.5 997,-793.5 997,-763.5 854,-763.5"/>
<text text-anchor="start" x="862" y="-781.5" font-family="Helvetica" font-size="10.00">CDPL::Chem::JMEMolecular</text>
<text text-anchor="middle" x="925.5" y="-770.5" font-family="Helvetica" font-size="10.00">GraphWriter</text>
</a>
</g>
</g>
<!-- Node28&#45;&gt;Node32 -->
<g id="edge31" class="edge">
<title>Node28&#45;&gt;Node32</title>
<path fill="none" stroke="midnightblue" d="M801.27,-747.05C822.35,-752.43 845.35,-758.3 865.7,-763.49"/>
<polygon fill="midnightblue" stroke="midnightblue" points="801.97,-743.62 791.41,-744.53 800.24,-750.4 801.97,-743.62"/>
</g>
<!-- Node33 -->
<g id="node33" class="node">
<title>Node33</title>
<g id="a_node33"><a xlink:href="classCDPL_1_1Chem_1_1MOL2MolecularGraphWriter.html" target="_top" xlink:title=" ">
<polygon fill="none" stroke="black" points="851,-714.5 851,-744.5 1000,-744.5 1000,-714.5 851,-714.5"/>
<text text-anchor="start" x="859" y="-732.5" font-family="Helvetica" font-size="10.00">CDPL::Chem::MOL2Molecular</text>
<text text-anchor="middle" x="925.5" y="-721.5" font-family="Helvetica" font-size="10.00">GraphWriter</text>
</a>
</g>
</g>
<!-- Node28&#45;&gt;Node33 -->
<g id="edge32" class="edge">
<title>Node28&#45;&gt;Node33</title>
<path fill="none" stroke="midnightblue" d="M803.25,-729.5C818.71,-729.5 835.11,-729.5 850.68,-729.5"/>
<polygon fill="midnightblue" stroke="midnightblue" points="803.25,-726 793.25,-729.5 803.25,-733 803.25,-726"/>
</g>
<!-- Node34 -->
<g id="node34" class="node">
<title>Node34</title>
<g id="a_node34"><a xlink:href="classCDPL_1_1Chem_1_1MOLMolecularGraphWriter.html" target="_top" xlink:title="A writer for molecular graph data in the MDL Mol&#45;File [CTFILE] format.">
<polygon fill="none" stroke="black" points="853.5,-665.5 853.5,-695.5 997.5,-695.5 997.5,-665.5 853.5,-665.5"/>
<text text-anchor="start" x="861.5" y="-683.5" font-family="Helvetica" font-size="10.00">CDPL::Chem::MOLMolecular</text>
<text text-anchor="middle" x="925.5" y="-672.5" font-family="Helvetica" font-size="10.00">GraphWriter</text>
</a>
</g>
</g>
<!-- Node28&#45;&gt;Node34 -->
<g id="edge33" class="edge">
<title>Node28&#45;&gt;Node34</title>
<path fill="none" stroke="midnightblue" d="M801.27,-711.95C822.35,-706.57 845.35,-700.7 865.7,-695.51"/>
<polygon fill="midnightblue" stroke="midnightblue" points="800.24,-708.6 791.41,-714.47 801.97,-715.38 800.24,-708.6"/>
</g>
<!-- Node35 -->
<g id="node35" class="node">
<title>Node35</title>
<g id="a_node35"><a xlink:href="classCDPL_1_1Chem_1_1SDFMolecularGraphWriter.html" target="_top" xlink:title="A writer for molecular graph data in the MDL Mol&#45;File [CTFILE] format.">
<polygon fill="none" stroke="black" points="854,-616.5 854,-646.5 997,-646.5 997,-616.5 854,-616.5"/>
<text text-anchor="start" x="862" y="-634.5" font-family="Helvetica" font-size="10.00">CDPL::Chem::SDFMolecular</text>
<text text-anchor="middle" x="925.5" y="-623.5" font-family="Helvetica" font-size="10.00">GraphWriter</text>
</a>
</g>
</g>
<!-- Node28&#45;&gt;Node35 -->
<g id="edge34" class="edge">
<title>Node28&#45;&gt;Node35</title>
<path fill="none" stroke="midnightblue" d="M757.31,-707.87C777.33,-691.41 806.88,-669.31 836,-655.5 843.05,-652.16 850.64,-649.22 858.31,-646.64"/>
<polygon fill="midnightblue" stroke="midnightblue" points="755.02,-705.22 749.6,-714.32 759.51,-710.59 755.02,-705.22"/>
</g>
<!-- Node36 -->
<g id="node36" class="node">
<title>Node36</title>
<g id="a_node36"><a xlink:href="classCDPL_1_1Chem_1_1SMARTSMolecularGraphWriter.html" target="_top" xlink:title="A writer for molecular graph data in the Daylight SMARTS [SMARTS] format.">
<polygon fill="none" stroke="black" points="843.5,-567.5 843.5,-597.5 1007.5,-597.5 1007.5,-567.5 843.5,-567.5"/>
<text text-anchor="start" x="851.5" y="-585.5" font-family="Helvetica" font-size="10.00">CDPL::Chem::SMARTSMolecular</text>
<text text-anchor="middle" x="925.5" y="-574.5" font-family="Helvetica" font-size="10.00">GraphWriter</text>
</a>
</g>
</g>
<!-- Node28&#45;&gt;Node36 -->
<g id="edge35" class="edge">
<title>Node28&#45;&gt;Node36</title>
<path fill="none" stroke="midnightblue" d="M746.21,-705.73C763.56,-677.78 796.05,-632 836,-606.5 841.37,-603.07 847.22,-600.13 853.27,-597.61"/>
<polygon fill="midnightblue" stroke="midnightblue" points="743.11,-704.1 740.92,-714.47 749.1,-707.73 743.11,-704.1"/>
</g>
<!-- Node37 -->
<g id="node37" class="node">
<title>Node37</title>
<g id="a_node37"><a xlink:href="classCDPL_1_1Chem_1_1SMILESMolecularGraphWriter.html" target="_top" xlink:title="A writer for molecular graph data in the Daylight SMILES [SMILES] format.">
<polygon fill="none" stroke="black" points="846,-518.5 846,-548.5 1005,-548.5 1005,-518.5 846,-518.5"/>
<text text-anchor="start" x="854" y="-536.5" font-family="Helvetica" font-size="10.00">CDPL::Chem::SMILESMolecular</text>
<text text-anchor="middle" x="925.5" y="-525.5" font-family="Helvetica" font-size="10.00">GraphWriter</text>
</a>
</g>
</g>
<!-- Node28&#45;&gt;Node37 -->
<g id="edge36" class="edge">
<title>Node28&#45;&gt;Node37</title>
<path fill="none" stroke="midnightblue" d="M740.58,-704.78C754.15,-667.17 785.16,-595.9 836,-557.5 840.57,-554.05 845.61,-551.09 850.89,-548.56"/>
<polygon fill="midnightblue" stroke="midnightblue" points="737.2,-703.85 737.21,-714.44 743.8,-706.15 737.2,-703.85"/>
</g>
<!-- Node38 -->
<g id="node38" class="node">
<title>Node38</title>
<g id="a_node38"><a xlink:href="classCDPL_1_1Chem_1_1XYZMolecularGraphWriter.html" target="_top" xlink:title=" ">
<polygon fill="none" stroke="black" points="854,-469.5 854,-499.5 997,-499.5 997,-469.5 854,-469.5"/>
<text text-anchor="start" x="862" y="-487.5" font-family="Helvetica" font-size="10.00">CDPL::Chem::XYZMolecular</text>
<text text-anchor="middle" x="925.5" y="-476.5" font-family="Helvetica" font-size="10.00">GraphWriter</text>
</a>
</g>
</g>
<!-- Node28&#45;&gt;Node38 -->
<g id="edge37" class="edge">
<title>Node28&#45;&gt;Node38</title>
<path fill="none" stroke="midnightblue" d="M737.12,-704.19C746.88,-658.13 773.99,-560.6 836,-508.5 841.36,-503.99 847.5,-500.33 853.98,-497.35"/>
<polygon fill="midnightblue" stroke="midnightblue" points="733.64,-703.73 735.1,-714.22 740.5,-705.11 733.64,-703.73"/>
</g>
<!-- Node40 -->
<g id="node40" class="node">
<title>Node40</title>
<g id="a_node40"><a xlink:href="classCDPL_1_1Vis_1_1STLObject3DWriter.html" target="_top" xlink:title="Outputs 3D visualization data represented by Vis::Object3D instances in the STL [STLFMT] format.">
<polygon fill="none" stroke="black" points="849,-431 849,-450 1002,-450 1002,-431 849,-431"/>
<text text-anchor="middle" x="925.5" y="-438" font-family="Helvetica" font-size="10.00">CDPL::Vis::STLObject3DWriter</text>
</a>
</g>
</g>
<!-- Node39&#45;&gt;Node40 -->
<g id="edge39" class="edge">
<title>Node39&#45;&gt;Node40</title>
<path fill="none" stroke="midnightblue" d="M803.38,-440.5C818.23,-440.5 833.95,-440.5 848.96,-440.5"/>
<polygon fill="midnightblue" stroke="midnightblue" points="803.25,-437 793.25,-440.5 803.25,-444 803.25,-437"/>
</g>
<!-- Node41 -->
<g id="node41" class="node">
<title>Node41</title>
<g id="a_node41"><a xlink:href="classCDPL_1_1Vis_1_1VRMLObject3DWriter.html" target="_top" xlink:title="Outputs 3D visualization data represented by Vis::Object3D instances in the VRML [VRML97] format.">
<polygon fill="none" stroke="black" points="844,-393 844,-412 1007,-412 1007,-393 844,-393"/>
<text text-anchor="middle" x="925.5" y="-400" font-family="Helvetica" font-size="10.00">CDPL::Vis::VRMLObject3DWriter</text>
</a>
</g>
</g>
<!-- Node39&#45;&gt;Node41 -->
<g id="edge40" class="edge">
<title>Node39&#45;&gt;Node41</title>
<path fill="none" stroke="midnightblue" d="M803.16,-426.52C827.49,-421.7 854.17,-416.42 876.3,-412.04"/>
<polygon fill="midnightblue" stroke="midnightblue" points="802.38,-423.1 793.25,-428.48 803.74,-429.97 802.38,-423.1"/>
</g>
<!-- Node43 -->
<g id="node43" class="node">
<title>Node43</title>
<g id="a_node43"><a xlink:href="classCDPL_1_1Biomol_1_1MMCIFMolecularGraphWriter.html" target="_top" xlink:title=" ">
<polygon fill="none" stroke="black" points="845.5,-343.5 845.5,-373.5 1005.5,-373.5 1005.5,-343.5 845.5,-343.5"/>
<text text-anchor="start" x="853.5" y="-361.5" font-family="Helvetica" font-size="10.00">CDPL::Biomol::MMCIFMolecular</text>
<text text-anchor="middle" x="925.5" y="-350.5" font-family="Helvetica" font-size="10.00">GraphWriter</text>
</a>
</g>
</g>
<!-- Node42&#45;&gt;Node43 -->
<g id="edge42" class="edge">
<title>Node42&#45;&gt;Node43</title>
<path fill="none" stroke="midnightblue" d="M746.58,-235.45C764.09,-263.13 796.53,-308.13 836,-333.5 842.04,-337.38 848.7,-340.68 855.56,-343.46"/>
<polygon fill="midnightblue" stroke="midnightblue" points="749.46,-233.44 741.23,-226.77 743.51,-237.12 749.46,-233.44"/>
</g>
<!-- Node44 -->
<g id="node44" class="node">
<title>Node44</title>
<g id="a_node44"><a xlink:href="classCDPL_1_1Biomol_1_1MMTFMolecularGraphWriter.html" target="_top" xlink:title="A writer for molecular graph data in the Macromolecular Transmission Format (MMTF) [MMTF].">
<polygon fill="none" stroke="black" points="848,-294.5 848,-324.5 1003,-324.5 1003,-294.5 848,-294.5"/>
<text text-anchor="start" x="856" y="-312.5" font-family="Helvetica" font-size="10.00">CDPL::Biomol::MMTFMolecular</text>
<text text-anchor="middle" x="925.5" y="-301.5" font-family="Helvetica" font-size="10.00">GraphWriter</text>
</a>
</g>
</g>
<!-- Node42&#45;&gt;Node44 -->
<g id="edge43" class="edge">
<title>Node42&#45;&gt;Node44</title>
<path fill="none" stroke="midnightblue" d="M758.03,-233.24C778.09,-249.37 807.34,-270.84 836,-284.5 843.93,-288.28 852.53,-291.59 861.16,-294.45"/>
<polygon fill="midnightblue" stroke="midnightblue" points="759.98,-230.32 750.02,-226.7 755.55,-235.74 759.98,-230.32"/>
</g>
<!-- Node45 -->
<g id="node45" class="node">
<title>Node45</title>
<g id="a_node45"><a xlink:href="classCDPL_1_1Biomol_1_1PDBMolecularGraphWriter.html" target="_top" xlink:title="A writer for molecular graph data in the Brookhaven Protein Data Bank (PDB) [PDB] format.">
<polygon fill="none" stroke="black" points="852,-245.5 852,-275.5 999,-275.5 999,-245.5 852,-245.5"/>
<text text-anchor="start" x="860" y="-263.5" font-family="Helvetica" font-size="10.00">CDPL::Biomol::PDBMolecular</text>
<text text-anchor="middle" x="925.5" y="-252.5" font-family="Helvetica" font-size="10.00">GraphWriter</text>
</a>
</g>
</g>
<!-- Node42&#45;&gt;Node45 -->
<g id="edge44" class="edge">
<title>Node42&#45;&gt;Node45</title>
<path fill="none" stroke="midnightblue" d="M801.27,-229.05C822.35,-234.43 845.35,-240.3 865.7,-245.49"/>
<polygon fill="midnightblue" stroke="midnightblue" points="801.97,-225.62 791.41,-226.53 800.24,-232.4 801.97,-225.62"/>
</g>
<!-- Node46 -->
<g id="node46" class="node">
<title>Node46</title>
<g id="a_node46"><a xlink:href="classCDPL_1_1Pharm_1_1PSDMolecularGraphWriter.html" target="_top" xlink:title="A writer for molecular graph data in the PSD&#45;format of the CDPL.">
<polygon fill="none" stroke="black" points="852.5,-196.5 852.5,-226.5 998.5,-226.5 998.5,-196.5 852.5,-196.5"/>
<text text-anchor="start" x="860.5" y="-214.5" font-family="Helvetica" font-size="10.00">CDPL::Pharm::PSDMolecular</text>
<text text-anchor="middle" x="925.5" y="-203.5" font-family="Helvetica" font-size="10.00">GraphWriter</text>
</a>
</g>
</g>
<!-- Node42&#45;&gt;Node46 -->
<g id="edge45" class="edge">
<title>Node42&#45;&gt;Node46</title>
<path fill="none" stroke="midnightblue" d="M809.34,-211.5C823.56,-211.5 838.37,-211.5 852.44,-211.5"/>
<polygon fill="midnightblue" stroke="midnightblue" points="809.11,-208 799.11,-211.5 809.11,-215 809.11,-208"/>
</g>
<!-- Node47 -->
<g id="node47" class="node">
<title>Node47</title>
<g id="a_node47"><a xlink:href="classCDPL_1_1Vis_1_1PDFMolecularGraphWriter.html" target="_top" xlink:title="Creates 2D structure diagrams of molecular graphs in the Portable Document Format (PDF) [WPDF].">
<polygon fill="none" stroke="black" points="847,-147.5 847,-177.5 1004,-177.5 1004,-147.5 847,-147.5"/>
<text text-anchor="start" x="855" y="-165.5" font-family="Helvetica" font-size="10.00">CDPL::Vis::PDFMolecularGraph</text>
<text text-anchor="middle" x="925.5" y="-154.5" font-family="Helvetica" font-size="10.00">Writer</text>
</a>
</g>
</g>
<!-- Node42&#45;&gt;Node47 -->
<g id="edge46" class="edge">
<title>Node42&#45;&gt;Node47</title>
<path fill="none" stroke="midnightblue" d="M801.27,-193.95C822.35,-188.57 845.35,-182.7 865.7,-177.51"/>
<polygon fill="midnightblue" stroke="midnightblue" points="800.24,-190.6 791.41,-196.47 801.97,-197.38 800.24,-190.6"/>
</g>
<!-- Node48 -->
<g id="node48" class="node">
<title>Node48</title>
<g id="a_node48"><a xlink:href="classCDPL_1_1Vis_1_1PNGMolecularGraphWriter.html" target="_top" xlink:title="Creates 2D structure diagrams of molecular graphs in the Portable Network Graphics (PNG) [WPNG] forma...">
<polygon fill="none" stroke="black" points="846,-98.5 846,-128.5 1005,-128.5 1005,-98.5 846,-98.5"/>
<text text-anchor="start" x="854" y="-116.5" font-family="Helvetica" font-size="10.00">CDPL::Vis::PNGMolecularGraph</text>
<text text-anchor="middle" x="925.5" y="-105.5" font-family="Helvetica" font-size="10.00">Writer</text>
</a>
</g>
</g>
<!-- Node42&#45;&gt;Node48 -->
<g id="edge47" class="edge">
<title>Node42&#45;&gt;Node48</title>
<path fill="none" stroke="midnightblue" d="M757.31,-189.87C777.33,-173.41 806.88,-151.31 836,-137.5 843.05,-134.16 850.64,-131.22 858.31,-128.64"/>
<polygon fill="midnightblue" stroke="midnightblue" points="755.02,-187.22 749.6,-196.32 759.51,-192.59 755.02,-187.22"/>
</g>
<!-- Node49 -->
<g id="node49" class="node">
<title>Node49</title>
<g id="a_node49"><a xlink:href="classCDPL_1_1Vis_1_1PSMolecularGraphWriter.html" target="_top" xlink:title="Creates 2D structure diagrams of molecular graphs in the PostScript (PS) [WPS] format.">
<polygon fill="none" stroke="black" points="850,-49.5 850,-79.5 1001,-79.5 1001,-49.5 850,-49.5"/>
<text text-anchor="start" x="858" y="-67.5" font-family="Helvetica" font-size="10.00">CDPL::Vis::PSMolecularGraph</text>
<text text-anchor="middle" x="925.5" y="-56.5" font-family="Helvetica" font-size="10.00">Writer</text>
</a>
</g>
</g>
<!-- Node42&#45;&gt;Node49 -->
<g id="edge48" class="edge">
<title>Node42&#45;&gt;Node49</title>
<path fill="none" stroke="midnightblue" d="M746.21,-187.73C763.56,-159.78 796.05,-114 836,-88.5 841.37,-85.07 847.22,-82.13 853.27,-79.61"/>
<polygon fill="midnightblue" stroke="midnightblue" points="743.11,-186.1 740.92,-196.47 749.1,-189.73 743.11,-186.1"/>
</g>
<!-- Node50 -->
<g id="node50" class="node">
<title>Node50</title>
<g id="a_node50"><a xlink:href="classCDPL_1_1Vis_1_1SVGMolecularGraphWriter.html" target="_top" xlink:title="Creates 2D structure diagrams of molecular graphs in the Scalable Vector Graphics (SVG) [WSVG] format...">
<polygon fill="none" stroke="black" points="847,-0.5 847,-30.5 1004,-30.5 1004,-0.5 847,-0.5"/>
<text text-anchor="start" x="855" y="-18.5" font-family="Helvetica" font-size="10.00">CDPL::Vis::SVGMolecularGraph</text>
<text text-anchor="middle" x="925.5" y="-7.5" font-family="Helvetica" font-size="10.00">Writer</text>
</a>
</g>
</g>
<!-- Node42&#45;&gt;Node50 -->
<g id="edge49" class="edge">
<title>Node42&#45;&gt;Node50</title>
<path fill="none" stroke="midnightblue" d="M740.58,-186.78C754.15,-149.17 785.16,-77.9 836,-39.5 840.57,-36.05 845.61,-33.09 850.89,-30.56"/>
<polygon fill="midnightblue" stroke="midnightblue" points="737.2,-185.85 737.21,-196.44 743.8,-188.15 737.2,-185.85"/>
</g>
</g>
</svg>
