<?xml version="1.0" encoding="UTF-8" standalone="no"?>
<!DOCTYPE svg PUBLIC "-//W3C//DTD SVG 1.1//EN"
 "http://www.w3.org/Graphics/SVG/1.1/DTD/svg11.dtd">
<!-- Generated by graphviz version 2.44.0 (0)
 -->
<!-- Title: CDPL::Shape::GaussianShapeOverlapFunction Pages: 1 -->
<svg width="345pt" height="88pt"
 viewBox="0.00 0.00 345.00 88.00" xmlns="http://www.w3.org/2000/svg" xmlns:xlink="http://www.w3.org/1999/xlink">
<g id="graph0" class="graph" transform="scale(1 1) rotate(0) translate(4 84)">
<title>CDPL::Shape::GaussianShapeOverlapFunction</title>
<!-- Node1 -->
<g id="node1" class="node">
<title>Node1</title>
<g id="a_node1"><a xlink:title=" ">
<polygon fill="#bfbfbf" stroke="black" points="0,-24.5 0,-54.5 152,-54.5 152,-24.5 0,-24.5"/>
<text text-anchor="start" x="8" y="-42.5" font-family="Helvetica" font-size="10.00">CDPL::Shape::GaussianShape</text>
<text text-anchor="middle" x="76" y="-31.5" font-family="Helvetica" font-size="10.00">OverlapFunction</text>
</a>
</g>
</g>
<!-- Node2 -->
<g id="node2" class="node">
<title>Node2</title>
<g id="a_node2"><a xlink:href="classCDPL_1_1Shape_1_1ExactGaussianShapeOverlapFunction.html" target="_top" xlink:title=" ">
<polygon fill="none" stroke="black" points="188,-49.5 188,-79.5 337,-79.5 337,-49.5 188,-49.5"/>
<text text-anchor="start" x="196" y="-67.5" font-family="Helvetica" font-size="10.00">CDPL::Shape::ExactGaussian</text>
<text text-anchor="middle" x="262.5" y="-56.5" font-family="Helvetica" font-size="10.00">ShapeOverlapFunction</text>
</a>
</g>
</g>
<!-- Node1&#45;&gt;Node2 -->
<g id="edge1" class="edge">
<title>Node1&#45;&gt;Node2</title>
<path fill="none" stroke="midnightblue" d="M162.05,-51.02C170.62,-52.19 179.28,-53.36 187.72,-54.5"/>
<polygon fill="midnightblue" stroke="midnightblue" points="162.42,-47.54 152.04,-49.67 161.48,-54.48 162.42,-47.54"/>
</g>
<!-- Node3 -->
<g id="node3" class="node">
<title>Node3</title>
<g id="a_node3"><a xlink:href="classCDPL_1_1Shape_1_1FastGaussianShapeOverlapFunction.html" target="_top" xlink:title=" ">
<polygon fill="none" stroke="black" points="191,-0.5 191,-30.5 334,-30.5 334,-0.5 191,-0.5"/>
<text text-anchor="start" x="199" y="-18.5" font-family="Helvetica" font-size="10.00">CDPL::Shape::FastGaussian</text>
<text text-anchor="middle" x="262.5" y="-7.5" font-family="Helvetica" font-size="10.00">ShapeOverlapFunction</text>
</a>
</g>
</g>
<!-- Node1&#45;&gt;Node3 -->
<g id="edge2" class="edge">
<title>Node1&#45;&gt;Node3</title>
<path fill="none" stroke="midnightblue" d="M162.07,-28.43C171.75,-27.17 181.53,-25.9 190.99,-24.67"/>
<polygon fill="midnightblue" stroke="midnightblue" points="161.51,-24.98 152.04,-29.74 162.41,-31.92 161.51,-24.98"/>
</g>
</g>
</svg>
