<?xml version="1.0" encoding="UTF-8" standalone="no"?>
<!DOCTYPE svg PUBLIC "-//W3C//DTD SVG 1.1//EN"
 "http://www.w3.org/Graphics/SVG/1.1/DTD/svg11.dtd">
<!-- Generated by graphviz version 2.44.0 (0)
 -->
<!-- Title: CDPL::Vis::PointArray2D Pages: 1 -->
<!--zoomable 154 -->
<svg id="main" version="1.1" xmlns="http://www.w3.org/2000/svg" xmlns:xlink="http://www.w3.org/1999/xlink" xml:space="preserve" onload="init(evt)">
<style type="text/css"><![CDATA[
.edge:hover path { stroke: red; }
.edge:hover polygon { stroke: red; fill: red; }
]]></style>
<script type="text/javascript"><![CDATA[
var edges = document.getElementsByTagName('g');
if (edges && edges.length) {
  for (var i=0;i<edges.length;i++) {
    if (edges[i].id.substr(0,4)=='edge') {
      edges[i].setAttribute('class','edge');
    }
  }
}
]]></script>
        <defs>
                <circle id="rim" cx="0" cy="0" r="7"/>
                <circle id="rim2" cx="0" cy="0" r="3.5"/>
                <g id="zoomPlus">
                        <use xlink:href="#rim" fill="#404040">
                                <set attributeName="fill" to="#808080" begin="zoomplus.mouseover" end="zoomplus.mouseout"/>
                        </use>
                        <path d="M-4,0h8M0,-4v8" fill="none" stroke="white" stroke-width="1.5" pointer-events="none"/>
                </g>
                <g id="zoomMin">
                        <use xlink:href="#rim" fill="#404040">
                                <set attributeName="fill" to="#808080" begin="zoomminus.mouseover" end="zoomminus.mouseout"/>
                        </use>
                        <path d="M-4,0h8" fill="none" stroke="white" stroke-width="1.5" pointer-events="none"/>
                </g>
                <g id="dirArrow">
                        <path fill="none" stroke="white" stroke-width="1.5" d="M0,-3.0v7 M-2.5,-0.5L0,-3.0L2.5,-0.5"/>
                </g>
               <g id="resetDef">
                       <use xlink:href="#rim2" fill="#404040">
                               <set attributeName="fill" to="#808080" begin="reset.mouseover" end="reset.mouseout"/>
                       </use>
               </g>
        </defs>

<script type="text/javascript">
var viewWidth = 793;
var viewHeight = 154;
var sectionId = 'dynsection-0';
</script>
<script xlink:href="svgpan.js"/>
<svg id="graph" class="graph">
<g id="viewport">
<title>CDPL::Vis::PointArray2D</title>
<!-- Node1 -->
<g id="node1" class="node">
<title>Node1</title>
<g id="a_node1"><a xlink:title="Stores a set of points in 2D space.">
<polygon fill="#bfbfbf" stroke="black" points="462,-57.5 462,-76.5 590,-76.5 590,-57.5 462,-57.5"/>
<text text-anchor="middle" x="526" y="-64.5" font-family="Helvetica" font-size="10.00">CDPL::Vis::PointArray2D</text>
</a>
</g>
</g>
<!-- Node5 -->
<g id="node5" class="node">
<title>Node5</title>
<g id="a_node5"><a xlink:href="classCDPL_1_1Vis_1_1LineSegmentListPrimitive2D.html" target="_top" xlink:title="A graphics primitive representing a list of disjoint line segments.">
<polygon fill="none" stroke="black" points="635,-115 635,-145 777,-145 777,-115 635,-115"/>
<text text-anchor="start" x="643" y="-133" font-family="Helvetica" font-size="10.00">CDPL::Vis::LineSegmentList</text>
<text text-anchor="middle" x="706" y="-122" font-family="Helvetica" font-size="10.00">Primitive2D</text>
</a>
</g>
</g>
<!-- Node1&#45;&gt;Node5 -->
<g id="edge4" class="edge">
<title>Node1&#45;&gt;Node5</title>
<path fill="none" stroke="midnightblue" d="M560.68,-80.31C580,-87.81 604.76,-97.22 627,-105 636.53,-108.34 646.77,-111.74 656.6,-114.93"/>
<polygon fill="midnightblue" stroke="midnightblue" points="561.7,-76.95 551.12,-76.58 559.16,-83.47 561.7,-76.95"/>
</g>
<!-- Node6 -->
<g id="node6" class="node">
<title>Node6</title>
<g id="a_node6"><a xlink:href="classCDPL_1_1Vis_1_1PointListPrimitive2D.html" target="_top" xlink:title="A graphics primitive representing a list of points.">
<polygon fill="none" stroke="black" points="627,-76.5 627,-95.5 785,-95.5 785,-76.5 627,-76.5"/>
<text text-anchor="middle" x="706" y="-83.5" font-family="Helvetica" font-size="10.00">CDPL::Vis::PointListPrimitive2D</text>
</a>
</g>
</g>
<!-- Node1&#45;&gt;Node6 -->
<g id="edge5" class="edge">
<title>Node1&#45;&gt;Node6</title>
<path fill="none" stroke="midnightblue" d="M600.19,-74.81C608.96,-75.75 617.95,-76.71 626.79,-77.65"/>
<polygon fill="midnightblue" stroke="midnightblue" points="600.32,-71.31 590.01,-73.73 599.58,-78.27 600.32,-71.31"/>
</g>
<!-- Node7 -->
<g id="node7" class="node">
<title>Node7</title>
<g id="a_node7"><a xlink:href="classCDPL_1_1Vis_1_1PolygonPrimitive2D.html" target="_top" xlink:title="A graphics primitive representing a polygon.">
<polygon fill="none" stroke="black" points="629,-38.5 629,-57.5 783,-57.5 783,-38.5 629,-38.5"/>
<text text-anchor="middle" x="706" y="-45.5" font-family="Helvetica" font-size="10.00">CDPL::Vis::PolygonPrimitive2D</text>
</a>
</g>
</g>
<!-- Node1&#45;&gt;Node7 -->
<g id="edge6" class="edge">
<title>Node1&#45;&gt;Node7</title>
<path fill="none" stroke="midnightblue" d="M600.19,-59.19C609.68,-58.17 619.42,-57.13 628.96,-56.12"/>
<polygon fill="midnightblue" stroke="midnightblue" points="599.58,-55.73 590.01,-60.27 600.32,-62.69 599.58,-55.73"/>
</g>
<!-- Node8 -->
<g id="node8" class="node">
<title>Node8</title>
<g id="a_node8"><a xlink:href="classCDPL_1_1Vis_1_1PolylinePrimitive2D.html" target="_top" xlink:title="A graphics primitive representing a set of connected line segments.">
<polygon fill="none" stroke="black" points="629,-0.5 629,-19.5 783,-19.5 783,-0.5 629,-0.5"/>
<text text-anchor="middle" x="706" y="-7.5" font-family="Helvetica" font-size="10.00">CDPL::Vis::PolylinePrimitive2D</text>
</a>
</g>
</g>
<!-- Node1&#45;&gt;Node8 -->
<g id="edge7" class="edge">
<title>Node1&#45;&gt;Node8</title>
<path fill="none" stroke="midnightblue" d="M559.06,-53.65C578.5,-45.85 603.94,-36.16 627,-29 638.18,-25.53 650.42,-22.29 661.82,-19.5"/>
<polygon fill="midnightblue" stroke="midnightblue" points="557.71,-50.42 549.75,-57.43 560.34,-56.91 557.71,-50.42"/>
</g>
<!-- Node2 -->
<g id="node2" class="node">
<title>Node2</title>
<g id="a_node2"><a xlink:href="classCDPL_1_1Math_1_1VectorArray.html" target="_top" xlink:title="An array for storing generic vector objects.">
<polygon fill="none" stroke="black" points="318,-57.5 318,-76.5 425,-76.5 425,-57.5 318,-57.5"/>
<text text-anchor="middle" x="371.5" y="-64.5" font-family="Helvetica" font-size="10.00">Math::Vector2DArray</text>
</a>
</g>
</g>
<!-- Node2&#45;&gt;Node1 -->
<g id="edge1" class="edge">
<title>Node2&#45;&gt;Node1</title>
<path fill="none" stroke="midnightblue" d="M435.52,-67C444.25,-67 453.22,-67 461.95,-67"/>
<polygon fill="midnightblue" stroke="midnightblue" points="435.41,-63.5 425.41,-67 435.41,-70.5 435.41,-63.5"/>
</g>
<!-- Node3 -->
<g id="node3" class="node">
<title>Node3</title>
<g id="a_node3"><a xlink:href="classCDPL_1_1Util_1_1Array.html" target="_top" xlink:title=" ">
<polygon fill="none" stroke="black" points="163,-57.5 163,-76.5 281,-76.5 281,-57.5 163,-57.5"/>
<text text-anchor="middle" x="222" y="-64.5" font-family="Helvetica" font-size="10.00">CDPL::Util::Array&lt; V &gt;</text>
</a>
</g>
</g>
<!-- Node3&#45;&gt;Node2 -->
<g id="edge2" class="edge">
<title>Node3&#45;&gt;Node2</title>
<path fill="none" stroke="midnightblue" d="M291.31,-67C300.24,-67 309.28,-67 317.89,-67"/>
<polygon fill="midnightblue" stroke="midnightblue" points="291.3,-63.5 281.3,-67 291.3,-70.5 291.3,-63.5"/>
</g>
<!-- Node4 -->
<g id="node4" class="node">
<title>Node4</title>
<g id="a_node4"><a xlink:href="classCDPL_1_1Util_1_1Array.html" target="_top" xlink:title="A dynamic array class providing amortized constant time access to arbitrary elements.">
<polygon fill="none" stroke="black" points="0,-52 0,-82 99,-82 99,-52 0,-52"/>
<text text-anchor="start" x="8" y="-70" font-family="Helvetica" font-size="10.00">CDPL::Util::Array&lt;</text>
<text text-anchor="middle" x="49.5" y="-59" font-family="Helvetica" font-size="10.00"> ValueType &gt;</text>
</a>
</g>
</g>
<!-- Node4&#45;&gt;Node3 -->
<g id="edge3" class="edge">
<title>Node4&#45;&gt;Node3</title>
<path fill="none" stroke="orange" stroke-dasharray="5,2" d="M109.81,-67C126.97,-67 145.68,-67 162.77,-67"/>
<polygon fill="orange" stroke="orange" points="109.36,-63.5 99.36,-67 109.36,-70.5 109.36,-63.5"/>
<text text-anchor="middle" x="131" y="-70" font-family="Helvetica" font-size="10.00"> &lt; V &gt;</text>
</g>
</g>
</svg>
        <g id="navigator" transform="translate(0 0)" fill="#404254">
                <rect fill="#f2f5e9" fill-opacity="0.5" stroke="#606060" stroke-width=".5" x="0" y="0" width="60" height="60"/>
                <use id="zoomplus" xlink:href="#zoomPlus" x="17" y="9" onmousedown="handleZoom(evt,'in')"/>
                <use id="zoomminus" xlink:href="#zoomMin" x="42" y="9" onmousedown="handleZoom(evt,'out')"/>
                <use id="reset" xlink:href="#resetDef" x="30" y="36" onmousedown="handleReset()"/>
                <g id="arrowUp" xlink:href="#dirArrow" transform="translate(30 24)" onmousedown="handlePan(0,-1)">
                  <use xlink:href="#rim" fill="#404040">
                        <set attributeName="fill" to="#808080" begin="arrowUp.mouseover" end="arrowUp.mouseout"/>
                  </use>
                  <path fill="none" stroke="white" stroke-width="1.5" d="M0,-3.0v7 M-2.5,-0.5L0,-3.0L2.5,-0.5"/>
                </g>
                <g id="arrowRight" xlink:href="#dirArrow" transform="rotate(90) translate(36 -43)" onmousedown="handlePan(1,0)">
                  <use xlink:href="#rim" fill="#404040">
                        <set attributeName="fill" to="#808080" begin="arrowRight.mouseover" end="arrowRight.mouseout"/>
                  </use>
                  <path fill="none" stroke="white" stroke-width="1.5" d="M0,-3.0v7 M-2.5,-0.5L0,-3.0L2.5,-0.5"/>
                </g>
                <g id="arrowDown" xlink:href="#dirArrow" transform="rotate(180) translate(-30 -48)" onmousedown="handlePan(0,1)">
                  <use xlink:href="#rim" fill="#404040">
                        <set attributeName="fill" to="#808080" begin="arrowDown.mouseover" end="arrowDown.mouseout"/>
                  </use>
                  <path fill="none" stroke="white" stroke-width="1.5" d="M0,-3.0v7 M-2.5,-0.5L0,-3.0L2.5,-0.5"/>
                </g>
                <g id="arrowLeft" xlink:href="#dirArrow" transform="rotate(270) translate(-36 17)" onmousedown="handlePan(-1,0)">
                  <use xlink:href="#rim" fill="#404040">
                        <set attributeName="fill" to="#808080" begin="arrowLeft.mouseover" end="arrowLeft.mouseout"/>
                  </use>
                  <path fill="none" stroke="white" stroke-width="1.5" d="M0,-3.0v7 M-2.5,-0.5L0,-3.0L2.5,-0.5"/>
                </g>
        </g>
        <svg viewBox="0 0 15 15" width="100%" height="30px" preserveAspectRatio="xMaxYMin meet">
         <g id="arrow_out" transform="scale(0.3 0.3)">
          <a xlink:href="classCDPL_1_1Vis_1_1PointArray2D__inherit__graph_org.svg" target="_base">
           <rect id="button" ry="5" rx="5" y="6" x="6" height="38" width="38"
                fill="#f2f5e9" fill-opacity="0.5" stroke="#606060" stroke-width="1.0"/>
           <path id="arrow"
             d="M 11.500037,31.436501 C 11.940474,20.09759 22.043105,11.32322 32.158766,21.979434 L 37.068811,17.246167 C 37.068811,17.246167 37.088388,32 37.088388,32 L 22.160133,31.978069 C 22.160133,31.978069 26.997745,27.140456 26.997745,27.140456 C 18.528582,18.264221 13.291696,25.230495 11.500037,31.436501 z"
             style="fill:#404040;"/>
          </a>
         </g>
        </svg>
</svg>
