<?xml version="1.0" encoding="UTF-8" standalone="no"?>
<!DOCTYPE svg PUBLIC "-//W3C//DTD SVG 1.1//EN"
 "http://www.w3.org/Graphics/SVG/1.1/DTD/svg11.dtd">
<!-- Generated by graphviz version 2.44.0 (0)
 -->
<!-- Title: CDPL::Base::OperationFailed Pages: 1 -->
<svg width="288pt" height="196pt"
 viewBox="0.00 0.00 287.50 196.00" xmlns="http://www.w3.org/2000/svg" xmlns:xlink="http://www.w3.org/1999/xlink">
<g id="graph0" class="graph" transform="scale(1 1) rotate(0) translate(4 192)">
<title>CDPL::Base::OperationFailed</title>
<!-- Node1 -->
<g id="node1" class="node">
<title>Node1</title>
<g id="a_node1"><a xlink:title="Thrown to indicate that some requested operation has failed (e.g. due to unfulfilled preconditions or...">
<polygon fill="#bfbfbf" stroke="black" points="77,-56.5 77,-75.5 223,-75.5 223,-56.5 77,-56.5"/>
<text text-anchor="middle" x="150" y="-63.5" font-family="Helvetica" font-size="10.00">CDPL::Base::OperationFailed</text>
</a>
</g>
</g>
<!-- Node4 -->
<g id="node4" class="node">
<title>Node4</title>
<g id="a_node4"><a xlink:href="classCDPL_1_1Base_1_1CalculationFailed.html" target="_top" xlink:title="Thrown to indicate that some requested calculation has failed.">
<polygon fill="none" stroke="black" points="0,-0.5 0,-19.5 152,-19.5 152,-0.5 0,-0.5"/>
<text text-anchor="middle" x="76" y="-7.5" font-family="Helvetica" font-size="10.00">CDPL::Base::CalculationFailed</text>
</a>
</g>
</g>
<!-- Node1&#45;&gt;Node4 -->
<g id="edge3" class="edge">
<title>Node1&#45;&gt;Node4</title>
<path fill="none" stroke="midnightblue" d="M129.97,-50.38C116.59,-40.62 99.44,-28.11 88.11,-19.83"/>
<polygon fill="midnightblue" stroke="midnightblue" points="127.97,-53.26 138.11,-56.32 132.1,-47.6 127.97,-53.26"/>
</g>
<!-- Node5 -->
<g id="node5" class="node">
<title>Node5</title>
<g id="a_node5"><a xlink:href="classCDPL_1_1Base_1_1IOError.html" target="_top" xlink:title="Thrown to indicate that an I/O operation has failed because of physical (e.g. broken pipe) or logical...">
<polygon fill="none" stroke="black" points="170.5,-0.5 170.5,-19.5 279.5,-19.5 279.5,-0.5 170.5,-0.5"/>
<text text-anchor="middle" x="225" y="-7.5" font-family="Helvetica" font-size="10.00">CDPL::Base::IOError</text>
</a>
</g>
</g>
<!-- Node1&#45;&gt;Node5 -->
<g id="edge4" class="edge">
<title>Node1&#45;&gt;Node5</title>
<path fill="none" stroke="midnightblue" d="M170.31,-50.38C183.86,-40.62 201.24,-28.11 212.73,-19.83"/>
<polygon fill="midnightblue" stroke="midnightblue" points="168.12,-47.64 162.05,-56.32 172.21,-53.32 168.12,-47.64"/>
</g>
<!-- Node2 -->
<g id="node2" class="node">
<title>Node2</title>
<g id="a_node2"><a xlink:href="classCDPL_1_1Base_1_1Exception.html" target="_top" xlink:title="The root of the CDPL exception hierarchy.">
<polygon fill="none" stroke="black" points="90,-112.5 90,-131.5 210,-131.5 210,-112.5 90,-112.5"/>
<text text-anchor="middle" x="150" y="-119.5" font-family="Helvetica" font-size="10.00">CDPL::Base::Exception</text>
</a>
</g>
</g>
<!-- Node2&#45;&gt;Node1 -->
<g id="edge1" class="edge">
<title>Node2&#45;&gt;Node1</title>
<path fill="none" stroke="midnightblue" d="M150,-101.8C150,-92.91 150,-82.78 150,-75.75"/>
<polygon fill="midnightblue" stroke="midnightblue" points="146.5,-102.08 150,-112.08 153.5,-102.08 146.5,-102.08"/>
</g>
<!-- Node3 -->
<g id="node3" class="node">
<title>Node3</title>
<g id="a_node3"><a xlink:title="STL class.">
<polygon fill="none" stroke="#bfbfbf" points="111.5,-168.5 111.5,-187.5 188.5,-187.5 188.5,-168.5 111.5,-168.5"/>
<text text-anchor="middle" x="150" y="-175.5" font-family="Helvetica" font-size="10.00">std::exception</text>
</a>
</g>
</g>
<!-- Node3&#45;&gt;Node2 -->
<g id="edge2" class="edge">
<title>Node3&#45;&gt;Node2</title>
<path fill="none" stroke="midnightblue" d="M150,-157.8C150,-148.91 150,-138.78 150,-131.75"/>
<polygon fill="midnightblue" stroke="midnightblue" points="146.5,-158.08 150,-168.08 153.5,-158.08 146.5,-158.08"/>
</g>
</g>
</svg>
