<?xml version="1.0" encoding="UTF-8" standalone="no"?>
<!DOCTYPE svg PUBLIC "-//W3C//DTD SVG 1.1//EN"
 "http://www.w3.org/Graphics/SVG/1.1/DTD/svg11.dtd">
<!-- Generated by graphviz version 2.44.0 (0)
 -->
<!-- Title: CDPL::Grid::CDFDRegularGridReader Pages: 1 -->
<svg width="277pt" height="367pt"
 viewBox="0.00 0.00 276.50 367.00" xmlns="http://www.w3.org/2000/svg" xmlns:xlink="http://www.w3.org/1999/xlink">
<g id="graph0" class="graph" transform="scale(1 1) rotate(0) translate(4 363)">
<title>CDPL::Grid::CDFDRegularGridReader</title>
<!-- Node1 -->
<g id="node1" class="node">
<title>Node1</title>
<g id="a_node1"><a xlink:title="A reader for spatial regular grid data in the native I/O format of the CDPL.">
<polygon fill="#bfbfbf" stroke="black" points="28.5,-0.5 28.5,-30.5 180.5,-30.5 180.5,-0.5 28.5,-0.5"/>
<text text-anchor="start" x="36.5" y="-18.5" font-family="Helvetica" font-size="10.00">CDPL::Grid::CDFDRegularGrid</text>
<text text-anchor="middle" x="104.5" y="-7.5" font-family="Helvetica" font-size="10.00">Reader</text>
</a>
</g>
</g>
<!-- Node2 -->
<g id="node2" class="node">
<title>Node2</title>
<g id="a_node2"><a xlink:href="classCDPL_1_1Util_1_1StreamDataReader.html" target="_top" xlink:title="A helper class that implements Base::DataReader for std::istream based data readers.">
<polygon fill="none" stroke="black" points="0,-68.5 0,-98.5 209,-98.5 209,-68.5 0,-68.5"/>
<text text-anchor="start" x="8" y="-86.5" font-family="Helvetica" font-size="10.00">CDPL::Util::StreamDataReader</text>
<text text-anchor="middle" x="104.5" y="-75.5" font-family="Helvetica" font-size="10.00">&lt; DRegularGrid, CDFDRegularGridReader &gt;</text>
</a>
</g>
</g>
<!-- Node2&#45;&gt;Node1 -->
<g id="edge1" class="edge">
<title>Node2&#45;&gt;Node1</title>
<path fill="none" stroke="midnightblue" d="M104.5,-58.03C104.5,-48.86 104.5,-38.74 104.5,-30.79"/>
<polygon fill="midnightblue" stroke="midnightblue" points="101,-58.18 104.5,-68.18 108,-58.18 101,-58.18"/>
</g>
<!-- Node3 -->
<g id="node3" class="node">
<title>Node3</title>
<g id="a_node3"><a xlink:href="classCDPL_1_1Base_1_1DataReader.html" target="_top" xlink:title=" ">
<polygon fill="none" stroke="black" points="40.5,-136.5 40.5,-166.5 168.5,-166.5 168.5,-136.5 40.5,-136.5"/>
<text text-anchor="start" x="48.5" y="-154.5" font-family="Helvetica" font-size="10.00">CDPL::Base::DataReader</text>
<text text-anchor="middle" x="104.5" y="-143.5" font-family="Helvetica" font-size="10.00">&lt; DataType &gt;</text>
</a>
</g>
</g>
<!-- Node3&#45;&gt;Node2 -->
<g id="edge2" class="edge">
<title>Node3&#45;&gt;Node2</title>
<path fill="none" stroke="midnightblue" d="M104.5,-126.03C104.5,-116.86 104.5,-106.74 104.5,-98.79"/>
<polygon fill="midnightblue" stroke="midnightblue" points="101,-126.18 104.5,-136.18 108,-126.18 101,-126.18"/>
</g>
<!-- Node4 -->
<g id="node4" class="node">
<title>Node4</title>
<g id="a_node4"><a xlink:href="classCDPL_1_1Base_1_1DataIOBase.html" target="_top" xlink:title="Provides infrastructure for the registration of I/O callback functions.">
<polygon fill="none" stroke="black" points="35,-271.5 35,-290.5 166,-290.5 166,-271.5 35,-271.5"/>
<text text-anchor="middle" x="100.5" y="-278.5" font-family="Helvetica" font-size="10.00">CDPL::Base::DataIOBase</text>
</a>
</g>
</g>
<!-- Node4&#45;&gt;Node3 -->
<g id="edge3" class="edge">
<title>Node4&#45;&gt;Node3</title>
<path fill="none" stroke="midnightblue" d="M101.1,-260.9C101.91,-235.05 103.34,-189.54 104.06,-166.59"/>
<polygon fill="midnightblue" stroke="midnightblue" points="97.59,-261.13 100.77,-271.24 104.59,-261.35 97.59,-261.13"/>
</g>
<!-- Node6 -->
<g id="node6" class="node">
<title>Node6</title>
<g id="a_node6"><a xlink:href="classCDPL_1_1Base_1_1DataReader.html" target="_top" xlink:title="An interface for reading data objects of a given type from an arbitrary data source.">
<polygon fill="none" stroke="black" points="116.5,-214.5 116.5,-233.5 268.5,-233.5 268.5,-214.5 116.5,-214.5"/>
<text text-anchor="middle" x="192.5" y="-221.5" font-family="Helvetica" font-size="10.00">CDPL::Base::DataReader&lt; T &gt;</text>
</a>
</g>
</g>
<!-- Node4&#45;&gt;Node6 -->
<g id="edge6" class="edge">
<title>Node4&#45;&gt;Node6</title>
<path fill="none" stroke="midnightblue" d="M123.73,-266.11C140.88,-255.86 163.68,-242.23 178.23,-233.53"/>
<polygon fill="midnightblue" stroke="midnightblue" points="121.66,-263.27 114.88,-271.41 125.25,-269.28 121.66,-263.27"/>
</g>
<!-- Node5 -->
<g id="node5" class="node">
<title>Node5</title>
<g id="a_node5"><a xlink:href="classCDPL_1_1Base_1_1ControlParameterContainer.html" target="_top" xlink:title="A class providing methods for the storage and lookup of control&#45;parameter values.">
<polygon fill="none" stroke="black" points="23.5,-328.5 23.5,-358.5 177.5,-358.5 177.5,-328.5 23.5,-328.5"/>
<text text-anchor="start" x="31.5" y="-346.5" font-family="Helvetica" font-size="10.00">CDPL::Base::ControlParameter</text>
<text text-anchor="middle" x="100.5" y="-335.5" font-family="Helvetica" font-size="10.00">Container</text>
</a>
</g>
</g>
<!-- Node5&#45;&gt;Node4 -->
<g id="edge4" class="edge">
<title>Node5&#45;&gt;Node4</title>
<path fill="none" stroke="midnightblue" d="M100.5,-318.35C100.5,-308.51 100.5,-297.78 100.5,-290.54"/>
<polygon fill="midnightblue" stroke="midnightblue" points="97,-318.47 100.5,-328.47 104,-318.47 97,-318.47"/>
</g>
<!-- Node6&#45;&gt;Node3 -->
<g id="edge5" class="edge">
<title>Node6&#45;&gt;Node3</title>
<path fill="none" stroke="orange" stroke-dasharray="5,2" d="M173.51,-207.78C158.24,-195.55 136.95,-178.5 122.07,-166.58"/>
<polygon fill="orange" stroke="orange" points="171.72,-210.83 181.71,-214.36 176.09,-205.37 171.72,-210.83"/>
<text text-anchor="middle" x="187" y="-188" font-family="Helvetica" font-size="10.00"> &lt; DataType &gt;</text>
</g>
</g>
</svg>
