<?xml version="1.0" encoding="UTF-8" standalone="no"?>
<!DOCTYPE svg PUBLIC "-//W3C//DTD SVG 1.1//EN"
 "http://www.w3.org/Graphics/SVG/1.1/DTD/svg11.dtd">
<!-- Generated by graphviz version 2.44.0 (0)
 -->
<!-- Title: CDPL::Grid::CUBEDRegularGridReader Pages: 1 -->
<svg width="300pt" height="467pt"
 viewBox="0.00 0.00 299.50 467.00" xmlns="http://www.w3.org/2000/svg" xmlns:xlink="http://www.w3.org/1999/xlink">
<g id="graph0" class="graph" transform="scale(1 1) rotate(0) translate(4 463)">
<title>CDPL::Grid::CUBEDRegularGridReader</title>
<polygon fill="white" stroke="transparent" points="-4,4 -4,-463 295.5,-463 295.5,4 -4,4"/>
<!-- Node1 -->
<g id="node1" class="node">
<title>Node1</title>
<g id="a_node1"><a xlink:title="Reader for regular spatial grid data in the Gaussian CUBE [CUBE] format.">
<polygon fill="#bfbfbf" stroke="black" points="17.5,-0.5 17.5,-30.5 159.5,-30.5 159.5,-0.5 17.5,-0.5"/>
<text text-anchor="start" x="25.5" y="-18.5" font-family="Helvetica" font-size="10.00">CDPL::Grid::CUBEDRegular</text>
<text text-anchor="middle" x="88.5" y="-7.5" font-family="Helvetica" font-size="10.00">GridReader</text>
</a>
</g>
</g>
<!-- Node2 -->
<g id="node2" class="node">
<title>Node2</title>
<g id="a_node2"><a xlink:href="classCDPL_1_1Util_1_1StreamDataReader.html" target="_top" xlink:title=" ">
<polygon fill="white" stroke="black" points="0,-68.5 0,-109.5 177,-109.5 177,-68.5 0,-68.5"/>
<text text-anchor="start" x="8" y="-97.5" font-family="Helvetica" font-size="10.00">CDPL::Util::StreamDataReader</text>
<text text-anchor="start" x="8" y="-86.5" font-family="Helvetica" font-size="10.00">&lt; DRegularGrid, CUBEDRegularGrid</text>
<text text-anchor="middle" x="88.5" y="-75.5" font-family="Helvetica" font-size="10.00">Reader &gt;</text>
</a>
</g>
</g>
<!-- Node2&#45;&gt;Node1 -->
<g id="edge1" class="edge">
<title>Node2&#45;&gt;Node1</title>
<path fill="none" stroke="midnightblue" d="M88.5,-58.16C88.5,-48.69 88.5,-38.65 88.5,-30.8"/>
<polygon fill="midnightblue" stroke="midnightblue" points="85,-58.46 88.5,-68.46 92,-58.46 85,-58.46"/>
</g>
<!-- Node3 -->
<g id="node3" class="node">
<title>Node3</title>
<g id="a_node3"><a xlink:href="classCDPL_1_1Base_1_1DataReader.html" target="_top" xlink:title="Interface for reading data objects of a given type from an arbitrary data source.">
<polygon fill="white" stroke="black" points="3.5,-314.5 3.5,-333.5 155.5,-333.5 155.5,-314.5 3.5,-314.5"/>
<text text-anchor="middle" x="79.5" y="-321.5" font-family="Helvetica" font-size="10.00">CDPL::Base::DataReader&lt; T &gt;</text>
</a>
</g>
</g>
<!-- Node3&#45;&gt;Node2 -->
<g id="edge2" class="edge">
<title>Node3&#45;&gt;Node2</title>
<path fill="none" stroke="midnightblue" d="M80.23,-304.17C81.91,-260.7 86.04,-153.66 87.75,-109.52"/>
<polygon fill="midnightblue" stroke="midnightblue" points="76.72,-304.3 79.83,-314.43 83.71,-304.57 76.72,-304.3"/>
</g>
<!-- Node7 -->
<g id="node7" class="node">
<title>Node7</title>
<g id="a_node7"><a xlink:href="classCDPL_1_1Base_1_1DataReader.html" target="_top" xlink:title=" ">
<polygon fill="white" stroke="black" points="112.5,-236.5 112.5,-266.5 240.5,-266.5 240.5,-236.5 112.5,-236.5"/>
<text text-anchor="start" x="120.5" y="-254.5" font-family="Helvetica" font-size="10.00">CDPL::Base::DataReader</text>
<text text-anchor="middle" x="176.5" y="-243.5" font-family="Helvetica" font-size="10.00">&lt; DataType &gt;</text>
</a>
</g>
</g>
<!-- Node3&#45;&gt;Node7 -->
<g id="edge8" class="edge">
<title>Node3&#45;&gt;Node7</title>
<path fill="none" stroke="orange" stroke-dasharray="5,2" d="M89.15,-305.57C93.71,-298.51 99.66,-290.69 106.5,-285 115.46,-277.55 126.42,-271.4 136.98,-266.54"/>
<polygon fill="orange" stroke="orange" points="85.96,-304.09 83.84,-314.47 91.97,-307.68 85.96,-304.09"/>
<text text-anchor="middle" x="138" y="-288" font-family="Helvetica" font-size="10.00"> &lt; DataType &gt;</text>
</g>
<!-- Node4 -->
<g id="node4" class="node">
<title>Node4</title>
<g id="a_node4"><a xlink:href="classCDPL_1_1Base_1_1DataIOBase.html" target="_top" xlink:title="Provides infrastructure for the registration of I/O callback functions.">
<polygon fill="white" stroke="black" points="66,-371.5 66,-390.5 197,-390.5 197,-371.5 66,-371.5"/>
<text text-anchor="middle" x="131.5" y="-378.5" font-family="Helvetica" font-size="10.00">CDPL::Base::DataIOBase</text>
</a>
</g>
</g>
<!-- Node4&#45;&gt;Node3 -->
<g id="edge3" class="edge">
<title>Node4&#45;&gt;Node3</title>
<path fill="none" stroke="midnightblue" d="M116.49,-364.12C107.13,-354.22 95.44,-341.86 87.74,-333.71"/>
<polygon fill="midnightblue" stroke="midnightblue" points="113.96,-366.54 123.38,-371.41 119.05,-361.74 113.96,-366.54"/>
</g>
<!-- Node4&#45;&gt;Node7 -->
<g id="edge7" class="edge">
<title>Node4&#45;&gt;Node7</title>
<path fill="none" stroke="midnightblue" d="M146.26,-363.53C152.89,-355.23 160.18,-344.69 164.5,-334 173.56,-311.59 175.89,-283.25 176.42,-266.58"/>
<polygon fill="midnightblue" stroke="midnightblue" points="143.51,-361.36 139.75,-371.27 148.86,-365.87 143.51,-361.36"/>
</g>
<!-- Node5 -->
<g id="node5" class="node">
<title>Node5</title>
<g id="a_node5"><a xlink:href="classCDPL_1_1Base_1_1ControlParameterContainer.html" target="_top" xlink:title="Base class providing methods for the storage and lookup of control&#45;parameter values.">
<polygon fill="white" stroke="black" points="54.5,-428.5 54.5,-458.5 208.5,-458.5 208.5,-428.5 54.5,-428.5"/>
<text text-anchor="start" x="62.5" y="-446.5" font-family="Helvetica" font-size="10.00">CDPL::Base::ControlParameter</text>
<text text-anchor="middle" x="131.5" y="-435.5" font-family="Helvetica" font-size="10.00">Container</text>
</a>
</g>
</g>
<!-- Node5&#45;&gt;Node4 -->
<g id="edge4" class="edge">
<title>Node5&#45;&gt;Node4</title>
<path fill="none" stroke="midnightblue" d="M131.5,-418.35C131.5,-408.51 131.5,-397.78 131.5,-390.54"/>
<polygon fill="midnightblue" stroke="midnightblue" points="128,-418.47 131.5,-428.47 135,-418.47 128,-418.47"/>
</g>
<!-- Node6 -->
<g id="node6" class="node">
<title>Node6</title>
<g id="a_node6"><a xlink:href="classCDPL_1_1Util_1_1StreamDataReader.html" target="_top" xlink:title="Helper class that implements Base::DataReader for std::istream based data readers.">
<polygon fill="white" stroke="black" points="100.5,-168.5 100.5,-198.5 252.5,-198.5 252.5,-168.5 100.5,-168.5"/>
<text text-anchor="start" x="108.5" y="-186.5" font-family="Helvetica" font-size="10.00">CDPL::Util::StreamDataReader</text>
<text text-anchor="middle" x="176.5" y="-175.5" font-family="Helvetica" font-size="10.00">&lt; DataType, ReaderImpl &gt;</text>
</a>
</g>
</g>
<!-- Node6&#45;&gt;Node2 -->
<g id="edge5" class="edge">
<title>Node6&#45;&gt;Node2</title>
<path fill="none" stroke="orange" stroke-dasharray="5,2" d="M155.94,-160.88C141.2,-145.4 121.52,-124.71 107.22,-109.68"/>
<polygon fill="orange" stroke="orange" points="153.71,-163.62 163.13,-168.45 158.78,-158.79 153.71,-163.62"/>
<text text-anchor="start" x="145.5" y="-142" font-family="Helvetica" font-size="10.00"> &lt; DRegularGrid, CUBEDRegular</text>
<text text-anchor="middle" x="218.5" y="-131" font-family="Helvetica" font-size="10.00">GridReader &gt;</text>
</g>
<!-- Node7&#45;&gt;Node6 -->
<g id="edge6" class="edge">
<title>Node7&#45;&gt;Node6</title>
<path fill="none" stroke="midnightblue" d="M176.5,-226.03C176.5,-216.86 176.5,-206.74 176.5,-198.79"/>
<polygon fill="midnightblue" stroke="midnightblue" points="173,-226.18 176.5,-236.18 180,-226.18 173,-226.18"/>
</g>
</g>
</svg>
