<?xml version="1.0" encoding="UTF-8" standalone="no"?>
<!DOCTYPE svg PUBLIC "-//W3C//DTD SVG 1.1//EN"
 "http://www.w3.org/Graphics/SVG/1.1/DTD/svg11.dtd">
<!-- Generated by graphviz version 2.44.0 (0)
 -->
<!-- Title: CDPL::Math::IdentityMatrix&lt; T &gt; Pages: 1 -->
<svg width="1487pt" height="120pt"
 viewBox="0.00 0.00 1487.00 119.50" xmlns="http://www.w3.org/2000/svg" xmlns:xlink="http://www.w3.org/1999/xlink">
<g id="graph0" class="graph" transform="scale(1 1) rotate(0) translate(4 115.5)">
<title>CDPL::Math::IdentityMatrix&lt; T &gt;</title>
<!-- Node1 -->
<g id="node1" class="node">
<title>Node1</title>
<g id="a_node1"><a xlink:title=" ">
<polygon fill="#bfbfbf" stroke="black" points="1319,-47.5 1319,-66.5 1479,-66.5 1479,-47.5 1319,-47.5"/>
<text text-anchor="middle" x="1399" y="-54.5" font-family="Helvetica" font-size="10.00">CDPL::Math::IdentityMatrix&lt; T &gt;</text>
</a>
</g>
</g>
<!-- Node2 -->
<g id="node2" class="node">
<title>Node2</title>
<g id="a_node2"><a xlink:href="classCDPL_1_1Math_1_1MatrixContainer.html" target="_top" xlink:title=" ">
<polygon fill="none" stroke="black" points="1136,-42 1136,-72 1282,-72 1282,-42 1136,-42"/>
<text text-anchor="start" x="1144" y="-60" font-family="Helvetica" font-size="10.00">CDPL::Math::MatrixContainer</text>
<text text-anchor="middle" x="1209" y="-49" font-family="Helvetica" font-size="10.00">&lt; IdentityMatrix&lt; T &gt; &gt;</text>
</a>
</g>
</g>
<!-- Node2&#45;&gt;Node1 -->
<g id="edge1" class="edge">
<title>Node2&#45;&gt;Node1</title>
<path fill="none" stroke="midnightblue" d="M1292.38,-57C1301.17,-57 1310.1,-57 1318.85,-57"/>
<polygon fill="midnightblue" stroke="midnightblue" points="1292.15,-53.5 1282.15,-57 1292.15,-60.5 1292.15,-53.5"/>
</g>
<!-- Node3 -->
<g id="node3" class="node">
<title>Node3</title>
<g id="a_node3"><a xlink:href="classCDPL_1_1Math_1_1MatrixExpression.html" target="_top" xlink:title=" ">
<polygon fill="none" stroke="black" points="622,-62 622,-92 774,-92 774,-62 622,-62"/>
<text text-anchor="start" x="630" y="-80" font-family="Helvetica" font-size="10.00">CDPL::Math::MatrixExpression</text>
<text text-anchor="middle" x="698" y="-69" font-family="Helvetica" font-size="10.00">&lt; IdentityMatrix&lt; T &gt; &gt;</text>
</a>
</g>
</g>
<!-- Node3&#45;&gt;Node2 -->
<g id="edge2" class="edge">
<title>Node3&#45;&gt;Node2</title>
<path fill="none" stroke="midnightblue" d="M784.41,-74.44C869.1,-71.78 1002.53,-67.27 1118,-62 1123.78,-61.74 1129.78,-61.44 1135.8,-61.14"/>
<polygon fill="midnightblue" stroke="midnightblue" points="784.22,-70.94 774.33,-74.75 784.44,-77.94 784.22,-70.94"/>
</g>
<!-- Node4 -->
<g id="node4" class="node">
<title>Node4</title>
<g id="a_node4"><a xlink:href="classCDPL_1_1Math_1_1Expression.html" target="_top" xlink:title=" ">
<polygon fill="none" stroke="black" points="317,-81 317,-111 442,-111 442,-81 317,-81"/>
<text text-anchor="start" x="325" y="-99" font-family="Helvetica" font-size="10.00">CDPL::Math::Expression</text>
<text text-anchor="middle" x="379.5" y="-88" font-family="Helvetica" font-size="10.00">&lt; IdentityMatrix&lt; T &gt; &gt;</text>
</a>
</g>
</g>
<!-- Node4&#45;&gt;Node3 -->
<g id="edge3" class="edge">
<title>Node4&#45;&gt;Node3</title>
<path fill="none" stroke="midnightblue" d="M452.32,-92.07C493.01,-89.8 544.86,-86.84 591,-84 600.94,-83.39 611.4,-82.72 621.73,-82.05"/>
<polygon fill="midnightblue" stroke="midnightblue" points="452.01,-88.58 442.22,-92.63 452.4,-95.57 452.01,-88.58"/>
</g>
<!-- Node5 -->
<g id="node5" class="node">
<title>Node5</title>
<g id="a_node5"><a xlink:href="classCDPL_1_1Math_1_1Expression.html" target="_top" xlink:title=" ">
<polygon fill="none" stroke="black" points="0,-41.5 0,-60.5 150,-60.5 150,-41.5 0,-41.5"/>
<text text-anchor="middle" x="75" y="-48.5" font-family="Helvetica" font-size="10.00">CDPL::Math::Expression&lt; E &gt;</text>
</a>
</g>
</g>
<!-- Node5&#45;&gt;Node4 -->
<g id="edge4" class="edge">
<title>Node5&#45;&gt;Node4</title>
<path fill="none" stroke="orange" stroke-dasharray="5,2" d="M148.63,-62.08C155.18,-63.07 161.71,-64.06 168,-65 218.05,-72.49 274.82,-80.84 316.78,-86.99"/>
<polygon fill="orange" stroke="orange" points="148.76,-58.57 138.35,-60.53 147.71,-65.49 148.76,-58.57"/>
<text text-anchor="middle" x="220.5" y="-83" font-family="Helvetica" font-size="10.00"> &lt; IdentityMatrix&lt; T &gt; &gt;</text>
</g>
<!-- Node6 -->
<g id="node6" class="node">
<title>Node6</title>
<g id="a_node6"><a xlink:href="classCDPL_1_1Math_1_1MatrixExpression.html" target="_top" xlink:title=" ">
<polygon fill="none" stroke="black" points="291,-41.5 291,-60.5 468,-60.5 468,-41.5 291,-41.5"/>
<text text-anchor="middle" x="379.5" y="-48.5" font-family="Helvetica" font-size="10.00">CDPL::Math::MatrixExpression&lt; E &gt;</text>
</a>
</g>
</g>
<!-- Node5&#45;&gt;Node6 -->
<g id="edge6" class="edge">
<title>Node5&#45;&gt;Node6</title>
<path fill="none" stroke="midnightblue" d="M160.54,-51C201.21,-51 249.92,-51 290.97,-51"/>
<polygon fill="midnightblue" stroke="midnightblue" points="160.39,-47.5 150.39,-51 160.39,-54.5 160.39,-47.5"/>
</g>
<!-- Node9 -->
<g id="node9" class="node">
<title>Node9</title>
<g id="a_node9"><a xlink:href="classCDPL_1_1Math_1_1Expression.html" target="_top" xlink:title=" ">
<polygon fill="none" stroke="black" points="304,-0.5 304,-19.5 455,-19.5 455,-0.5 304,-0.5"/>
<text text-anchor="middle" x="379.5" y="-7.5" font-family="Helvetica" font-size="10.00">CDPL::Math::Expression&lt; C &gt;</text>
</a>
</g>
</g>
<!-- Node5&#45;&gt;Node9 -->
<g id="edge10" class="edge">
<title>Node5&#45;&gt;Node9</title>
<path fill="none" stroke="orange" stroke-dasharray="5,2" d="M142.41,-39.86C151.01,-38.51 159.71,-37.19 168,-36 213.02,-29.55 263.59,-23.27 303.88,-18.5"/>
<polygon fill="orange" stroke="orange" points="141.71,-36.43 132.39,-41.45 142.81,-43.34 141.71,-36.43"/>
<text text-anchor="middle" x="220.5" y="-39" font-family="Helvetica" font-size="10.00"> &lt; C &gt;</text>
</g>
<!-- Node6&#45;&gt;Node3 -->
<g id="edge5" class="edge">
<title>Node6&#45;&gt;Node3</title>
<path fill="none" stroke="orange" stroke-dasharray="5,2" d="M478.29,-59.03C524.59,-62.84 579,-67.31 621.98,-70.84"/>
<polygon fill="orange" stroke="orange" points="478.5,-55.54 468.24,-58.21 477.92,-62.51 478.5,-55.54"/>
<text text-anchor="middle" x="538.5" y="-70" font-family="Helvetica" font-size="10.00"> &lt; IdentityMatrix&lt; T &gt; &gt;</text>
</g>
<!-- Node8 -->
<g id="node8" class="node">
<title>Node8</title>
<g id="a_node8"><a xlink:href="classCDPL_1_1Math_1_1MatrixExpression.html" target="_top" xlink:title=" ">
<polygon fill="none" stroke="black" points="609,-23.5 609,-42.5 787,-42.5 787,-23.5 609,-23.5"/>
<text text-anchor="middle" x="698" y="-30.5" font-family="Helvetica" font-size="10.00">CDPL::Math::MatrixExpression&lt; C &gt;</text>
</a>
</g>
</g>
<!-- Node6&#45;&gt;Node8 -->
<g id="edge11" class="edge">
<title>Node6&#45;&gt;Node8</title>
<path fill="none" stroke="orange" stroke-dasharray="5,2" d="M467.75,-40.49C473.92,-39.93 480.05,-39.42 486,-39 526.3,-36.14 571.02,-34.63 608.89,-33.84"/>
<polygon fill="orange" stroke="orange" points="466.97,-37.05 457.35,-41.49 467.64,-44.02 466.97,-37.05"/>
<text text-anchor="middle" x="538.5" y="-42" font-family="Helvetica" font-size="10.00"> &lt; C &gt;</text>
</g>
<!-- Node7 -->
<g id="node7" class="node">
<title>Node7</title>
<g id="a_node7"><a xlink:href="classCDPL_1_1Math_1_1MatrixContainer.html" target="_top" xlink:title=" ">
<polygon fill="none" stroke="black" points="824,-27.5 824,-46.5 995,-46.5 995,-27.5 824,-27.5"/>
<text text-anchor="middle" x="909.5" y="-34.5" font-family="Helvetica" font-size="10.00">CDPL::Math::MatrixContainer&lt; C &gt;</text>
</a>
</g>
</g>
<!-- Node7&#45;&gt;Node2 -->
<g id="edge7" class="edge">
<title>Node7&#45;&gt;Node2</title>
<path fill="none" stroke="orange" stroke-dasharray="5,2" d="M1005.37,-43.38C1047.56,-46.21 1096.45,-49.5 1135.64,-52.14"/>
<polygon fill="orange" stroke="orange" points="1005.57,-39.88 995.35,-42.7 1005.1,-46.87 1005.57,-39.88"/>
<text text-anchor="middle" x="1065.5" y="-54" font-family="Helvetica" font-size="10.00"> &lt; IdentityMatrix&lt; T &gt; &gt;</text>
</g>
<!-- Node8&#45;&gt;Node7 -->
<g id="edge8" class="edge">
<title>Node8&#45;&gt;Node7</title>
<path fill="none" stroke="midnightblue" d="M797.49,-34.88C806.25,-35.05 815.07,-35.22 823.71,-35.38"/>
<polygon fill="midnightblue" stroke="midnightblue" points="797.3,-31.38 787.24,-34.68 797.17,-38.38 797.3,-31.38"/>
</g>
<!-- Node9&#45;&gt;Node8 -->
<g id="edge9" class="edge">
<title>Node9&#45;&gt;Node8</title>
<path fill="none" stroke="midnightblue" d="M465.29,-16.16C509.68,-19.39 563.97,-23.33 608.85,-26.59"/>
<polygon fill="midnightblue" stroke="midnightblue" points="465.33,-12.66 455.11,-15.42 464.83,-19.64 465.33,-12.66"/>
</g>
</g>
</svg>
