<?xml version="1.0" encoding="UTF-8" standalone="no"?>
<!DOCTYPE svg PUBLIC "-//W3C//DTD SVG 1.1//EN"
 "http://www.w3.org/Graphics/SVG/1.1/DTD/svg11.dtd">
<!-- Generated by graphviz version 2.40.1 (0)
 -->
<!-- Title: CDPL::Vis::ClipPathPrimitive2D Pages: 1 -->
<svg width="300pt" height="84pt"
 viewBox="0.00 0.00 300.00 84.00" xmlns="http://www.w3.org/2000/svg" xmlns:xlink="http://www.w3.org/1999/xlink">
<g id="graph0" class="graph" transform="scale(1 1) rotate(0) translate(4 80)">
<title>CDPL::Vis::ClipPathPrimitive2D</title>
<!-- Node1 -->
<g id="node1" class="node">
<title>Node1</title>
<g id="a_node1"><a xlink:title="A graphics primitive representing a clipping region in 2D space.">
<polygon fill="#bfbfbf" stroke="#000000" points="45.5,-.5 45.5,-19.5 212.5,-19.5 212.5,-.5 45.5,-.5"/>
<text text-anchor="middle" x="129" y="-7.5" font-family="Helvetica,sans-Serif" font-size="10.00" fill="#000000">CDPL::Vis::ClipPathPrimitive2D</text>
</a>
</g>
</g>
<!-- Node2 -->
<g id="node2" class="node">
<title>Node2</title>
<g id="a_node2"><a xlink:href="classCDPL_1_1Vis_1_1Path2D.html" target="_top" xlink:title="Provides a container for painting operations, enabling arbitrary graphical shapes to be constructed a...">
<polygon fill="none" stroke="#000000" points="0,-56.5 0,-75.5 104,-75.5 104,-56.5 0,-56.5"/>
<text text-anchor="middle" x="52" y="-63.5" font-family="Helvetica,sans-Serif" font-size="10.00" fill="#000000">CDPL::Vis::Path2D</text>
</a>
</g>
</g>
<!-- Node2&#45;&gt;Node1 -->
<g id="edge1" class="edge">
<title>Node2&#45;&gt;Node1</title>
<path fill="none" stroke="#191970" d="M73.7116,-50.2097C87.2353,-40.3743 104.1958,-28.0394 115.7413,-19.6427"/>
<polygon fill="#191970" stroke="#191970" points="71.4411,-47.5332 65.4124,-56.2455 75.5584,-53.1944 71.4411,-47.5332"/>
</g>
<!-- Node3 -->
<g id="node3" class="node">
<title>Node3</title>
<g id="a_node3"><a xlink:href="classCDPL_1_1Vis_1_1GraphicsPrimitive2D.html" target="_top" xlink:title="The abstract base class of all 2D graphics primitives.">
<polygon fill="none" stroke="#000000" points="122,-56.5 122,-75.5 292,-75.5 292,-56.5 122,-56.5"/>
<text text-anchor="middle" x="207" y="-63.5" font-family="Helvetica,sans-Serif" font-size="10.00" fill="#000000">CDPL::Vis::GraphicsPrimitive2D</text>
</a>
</g>
</g>
<!-- Node3&#45;&gt;Node1 -->
<g id="edge2" class="edge">
<title>Node3&#45;&gt;Node1</title>
<path fill="none" stroke="#191970" d="M185.0064,-50.2097C171.3071,-40.3743 154.1264,-28.0394 142.4309,-19.6427"/>
<polygon fill="#191970" stroke="#191970" points="183.2489,-53.2566 193.4134,-56.2455 187.3314,-47.5703 183.2489,-53.2566"/>
</g>
</g>
</svg>
