<?xml version="1.0" encoding="UTF-8" standalone="no"?>
<!DOCTYPE svg PUBLIC "-//W3C//DTD SVG 1.1//EN"
 "http://www.w3.org/Graphics/SVG/1.1/DTD/svg11.dtd">
<!-- Generated by graphviz version 2.44.0 (0)
 -->
<!-- Title: CDPL::Base::PropertyContainer Pages: 1 -->
<!--zoomable 432 -->
<svg id="main" version="1.1" xmlns="http://www.w3.org/2000/svg" xmlns:xlink="http://www.w3.org/1999/xlink" xml:space="preserve" onload="init(evt)">
<style type="text/css"><![CDATA[
.edge:hover path { stroke: red; }
.edge:hover polygon { stroke: red; fill: red; }
]]></style>
<script type="text/javascript"><![CDATA[
var edges = document.getElementsByTagName('g');
if (edges && edges.length) {
  for (var i=0;i<edges.length;i++) {
    if (edges[i].id.substr(0,4)=='edge') {
      edges[i].setAttribute('class','edge');
    }
  }
}
]]></script>
        <defs>
                <circle id="rim" cx="0" cy="0" r="7"/>
                <circle id="rim2" cx="0" cy="0" r="3.5"/>
                <g id="zoomPlus">
                        <use xlink:href="#rim" fill="#404040">
                                <set attributeName="fill" to="#808080" begin="zoomplus.mouseover" end="zoomplus.mouseout"/>
                        </use>
                        <path d="M-4,0h8M0,-4v8" fill="none" stroke="white" stroke-width="1.5" pointer-events="none"/>
                </g>
                <g id="zoomMin">
                        <use xlink:href="#rim" fill="#404040">
                                <set attributeName="fill" to="#808080" begin="zoomminus.mouseover" end="zoomminus.mouseout"/>
                        </use>
                        <path d="M-4,0h8" fill="none" stroke="white" stroke-width="1.5" pointer-events="none"/>
                </g>
                <g id="dirArrow">
                        <path fill="none" stroke="white" stroke-width="1.5" d="M0,-3.0v7 M-2.5,-0.5L0,-3.0L2.5,-0.5"/>
                </g>
               <g id="resetDef">
                       <use xlink:href="#rim2" fill="#404040">
                               <set attributeName="fill" to="#808080" begin="reset.mouseover" end="reset.mouseout"/>
                       </use>
               </g>
        </defs>

<script type="text/javascript">
var viewWidth = 986;
var viewHeight = 432;
var sectionId = 'dynsection-0';
</script>
<script xlink:href="svgpan.js"/>
<svg id="graph" class="graph">
<g id="viewport">
<title>CDPL::Base::PropertyContainer</title>
<!-- Node1 -->
<g id="node1" class="node">
<title>Node1</title>
<g id="a_node1"><a xlink:title="A class providing methods for the storage and lookup of object properties.">
<polygon fill="#bfbfbf" stroke="black" points="0,-164.5 0,-183.5 157,-183.5 157,-164.5 0,-164.5"/>
<text text-anchor="middle" x="78.5" y="-171.5" font-family="Helvetica" font-size="10.00">CDPL::Base::PropertyContainer</text>
</a>
</g>
</g>
<!-- Node2 -->
<g id="node2" class="node">
<title>Node2</title>
<g id="a_node2"><a xlink:href="classCDPL_1_1Chem_1_1Bond.html" target="_top" xlink:title="Bond.">
<polygon fill="none" stroke="black" points="221,-385.5 221,-404.5 325,-404.5 325,-385.5 221,-385.5"/>
<text text-anchor="middle" x="273" y="-392.5" font-family="Helvetica" font-size="10.00">CDPL::Chem::Bond</text>
</a>
</g>
</g>
<!-- Node1&#45;&gt;Node2 -->
<g id="edge1" class="edge">
<title>Node1&#45;&gt;Node2</title>
<path fill="none" stroke="midnightblue" d="M87.13,-193.03C102.47,-229.22 140.24,-308.64 194,-357 208.11,-369.69 227.23,-379.1 243,-385.37"/>
<polygon fill="midnightblue" stroke="midnightblue" points="90.31,-191.55 83.25,-183.65 83.84,-194.23 90.31,-191.55"/>
</g>
<!-- Node4 -->
<g id="node4" class="node">
<title>Node4</title>
<g id="a_node4"><a xlink:href="classCDPL_1_1Chem_1_1Entity3D.html" target="_top" xlink:title="Entity3D.">
<polygon fill="none" stroke="black" points="213.5,-328.5 213.5,-347.5 332.5,-347.5 332.5,-328.5 213.5,-328.5"/>
<text text-anchor="middle" x="273" y="-335.5" font-family="Helvetica" font-size="10.00">CDPL::Chem::Entity3D</text>
</a>
</g>
</g>
<!-- Node1&#45;&gt;Node4 -->
<g id="edge3" class="edge">
<title>Node1&#45;&gt;Node4</title>
<path fill="none" stroke="midnightblue" d="M98.32,-190.03C137.95,-223.8 228.99,-301.35 260.79,-328.45"/>
<polygon fill="midnightblue" stroke="midnightblue" points="100.56,-187.35 90.68,-183.53 96.02,-192.68 100.56,-187.35"/>
</g>
<!-- Node9 -->
<g id="node9" class="node">
<title>Node9</title>
<g id="a_node9"><a xlink:href="classCDPL_1_1Chem_1_1MolecularGraph.html" target="_top" xlink:title="MolecularGraph.">
<polygon fill="none" stroke="black" points="198.5,-232.5 198.5,-251.5 347.5,-251.5 347.5,-232.5 198.5,-232.5"/>
<text text-anchor="middle" x="273" y="-239.5" font-family="Helvetica" font-size="10.00">CDPL::Chem::MolecularGraph</text>
</a>
</g>
</g>
<!-- Node1&#45;&gt;Node9 -->
<g id="edge8" class="edge">
<title>Node1&#45;&gt;Node9</title>
<path fill="none" stroke="midnightblue" d="M116.24,-186.98C153.83,-200.26 211.35,-220.58 244.97,-232.45"/>
<polygon fill="midnightblue" stroke="midnightblue" points="117.27,-183.63 106.67,-183.6 114.94,-190.23 117.27,-183.63"/>
</g>
<!-- Node20 -->
<g id="node20" class="node">
<title>Node20</title>
<g id="a_node20"><a xlink:href="classCDPL_1_1Chem_1_1Reaction.html" target="_top" xlink:title="Reaction.">
<polygon fill="none" stroke="black" points="213.5,-164.5 213.5,-183.5 332.5,-183.5 332.5,-164.5 213.5,-164.5"/>
<text text-anchor="middle" x="273" y="-171.5" font-family="Helvetica" font-size="10.00">CDPL::Chem::Reaction</text>
</a>
</g>
</g>
<!-- Node1&#45;&gt;Node20 -->
<g id="edge19" class="edge">
<title>Node1&#45;&gt;Node20</title>
<path fill="none" stroke="midnightblue" d="M167.39,-174C182.92,-174 198.74,-174 213.22,-174"/>
<polygon fill="midnightblue" stroke="midnightblue" points="167.24,-170.5 157.24,-174 167.24,-177.5 167.24,-170.5"/>
</g>
<!-- Node22 -->
<g id="node22" class="node">
<title>Node22</title>
<g id="a_node22"><a xlink:href="classCDPL_1_1Grid_1_1AttributedGrid.html" target="_top" xlink:title="AttributedGrid.">
<polygon fill="none" stroke="black" points="206.5,-126.5 206.5,-145.5 339.5,-145.5 339.5,-126.5 206.5,-126.5"/>
<text text-anchor="middle" x="273" y="-133.5" font-family="Helvetica" font-size="10.00">CDPL::Grid::AttributedGrid</text>
</a>
</g>
</g>
<!-- Node1&#45;&gt;Node22 -->
<g id="edge21" class="edge">
<title>Node1&#45;&gt;Node22</title>
<path fill="none" stroke="midnightblue" d="M137.95,-162.46C165.41,-157.04 197.74,-150.66 223.77,-145.52"/>
<polygon fill="midnightblue" stroke="midnightblue" points="137.21,-159.04 128.08,-164.41 138.56,-165.91 137.21,-159.04"/>
</g>
<!-- Node26 -->
<g id="node26" class="node">
<title>Node26</title>
<g id="a_node26"><a xlink:href="classCDPL_1_1Pharm_1_1FeatureContainer.html" target="_top" xlink:title="FeatureContainer.">
<polygon fill="none" stroke="black" points="194,-63.5 194,-82.5 352,-82.5 352,-63.5 194,-63.5"/>
<text text-anchor="middle" x="273" y="-70.5" font-family="Helvetica" font-size="10.00">CDPL::Pharm::FeatureContainer</text>
</a>
</g>
</g>
<!-- Node1&#45;&gt;Node26 -->
<g id="edge26" class="edge">
<title>Node1&#45;&gt;Node26</title>
<path fill="none" stroke="midnightblue" d="M106.5,-159.83C146.33,-138.94 219.76,-100.41 253.8,-82.55"/>
<polygon fill="midnightblue" stroke="midnightblue" points="104.84,-156.75 97.61,-164.5 108.09,-162.95 104.84,-156.75"/>
</g>
<!-- Node30 -->
<g id="node30" class="node">
<title>Node30</title>
<g id="a_node30"><a xlink:href="classCDPL_1_1Shape_1_1GaussianShape.html" target="_top" xlink:title="A data type for the descripton of arbitrary shapes composed of spheres approximated by gaussian funct...">
<polygon fill="none" stroke="black" points="197,-25.5 197,-44.5 349,-44.5 349,-25.5 197,-25.5"/>
<text text-anchor="middle" x="273" y="-32.5" font-family="Helvetica" font-size="10.00">CDPL::Shape::GaussianShape</text>
</a>
</g>
</g>
<!-- Node1&#45;&gt;Node30 -->
<g id="edge30" class="edge">
<title>Node1&#45;&gt;Node30</title>
<path fill="none" stroke="midnightblue" d="M91.42,-156.11C110.07,-129.59 148.72,-80.16 194,-54 200.76,-50.1 208.29,-46.99 215.94,-44.52"/>
<polygon fill="midnightblue" stroke="midnightblue" points="88.46,-154.24 85.68,-164.46 94.23,-158.2 88.46,-154.24"/>
</g>
<!-- Node3 -->
<g id="node3" class="node">
<title>Node3</title>
<g id="a_node3"><a xlink:href="classCDPL_1_1Chem_1_1BasicBond.html" target="_top" xlink:title="BasicBond.">
<polygon fill="none" stroke="black" points="401,-404.5 401,-423.5 529,-423.5 529,-404.5 401,-404.5"/>
<text text-anchor="middle" x="465" y="-411.5" font-family="Helvetica" font-size="10.00">CDPL::Chem::BasicBond</text>
</a>
</g>
</g>
<!-- Node2&#45;&gt;Node3 -->
<g id="edge2" class="edge">
<title>Node2&#45;&gt;Node3</title>
<path fill="none" stroke="midnightblue" d="M335.24,-401.12C356.23,-403.22 379.73,-405.57 400.86,-407.69"/>
<polygon fill="midnightblue" stroke="midnightblue" points="335.47,-397.63 325.17,-400.12 334.77,-404.59 335.47,-397.63"/>
</g>
<!-- Node5 -->
<g id="node5" class="node">
<title>Node5</title>
<g id="a_node5"><a xlink:href="classCDPL_1_1Chem_1_1Atom.html" target="_top" xlink:title="Atom.">
<polygon fill="none" stroke="black" points="413,-366.5 413,-385.5 517,-385.5 517,-366.5 413,-366.5"/>
<text text-anchor="middle" x="465" y="-373.5" font-family="Helvetica" font-size="10.00">CDPL::Chem::Atom</text>
</a>
</g>
</g>
<!-- Node4&#45;&gt;Node5 -->
<g id="edge4" class="edge">
<title>Node4&#45;&gt;Node5</title>
<path fill="none" stroke="midnightblue" d="M332.05,-349.61C359.07,-355.01 390.82,-361.36 416.4,-366.48"/>
<polygon fill="midnightblue" stroke="midnightblue" points="332.44,-346.12 321.95,-347.59 331.06,-352.98 332.44,-346.12"/>
</g>
<!-- Node7 -->
<g id="node7" class="node">
<title>Node7</title>
<g id="a_node7"><a xlink:href="classCDPL_1_1Pharm_1_1Feature.html" target="_top" xlink:title="Feature.">
<polygon fill="none" stroke="black" points="407,-328.5 407,-347.5 523,-347.5 523,-328.5 407,-328.5"/>
<text text-anchor="middle" x="465" y="-335.5" font-family="Helvetica" font-size="10.00">CDPL::Pharm::Feature</text>
</a>
</g>
</g>
<!-- Node4&#45;&gt;Node7 -->
<g id="edge6" class="edge">
<title>Node4&#45;&gt;Node7</title>
<path fill="none" stroke="midnightblue" d="M342.73,-338C363.8,-338 386.74,-338 406.94,-338"/>
<polygon fill="midnightblue" stroke="midnightblue" points="342.56,-334.5 332.56,-338 342.56,-341.5 342.56,-334.5"/>
</g>
<!-- Node6 -->
<g id="node6" class="node">
<title>Node6</title>
<g id="a_node6"><a xlink:href="classCDPL_1_1Chem_1_1BasicAtom.html" target="_top" xlink:title="BasicAtom.">
<polygon fill="none" stroke="black" points="639.5,-388.5 639.5,-407.5 768.5,-407.5 768.5,-388.5 639.5,-388.5"/>
<text text-anchor="middle" x="704" y="-395.5" font-family="Helvetica" font-size="10.00">CDPL::Chem::BasicAtom</text>
</a>
</g>
</g>
<!-- Node5&#45;&gt;Node6 -->
<g id="edge5" class="edge">
<title>Node5&#45;&gt;Node6</title>
<path fill="none" stroke="midnightblue" d="M527.5,-381.71C561.85,-384.9 604.58,-388.86 639.27,-392.08"/>
<polygon fill="midnightblue" stroke="midnightblue" points="527.41,-378.19 517.13,-380.75 526.77,-385.16 527.41,-378.19"/>
</g>
<!-- Node8 -->
<g id="node8" class="node">
<title>Node8</title>
<g id="a_node8"><a xlink:href="classCDPL_1_1Pharm_1_1BasicFeature.html" target="_top" xlink:title="BasicFeature.">
<polygon fill="none" stroke="black" points="633.5,-350.5 633.5,-369.5 774.5,-369.5 774.5,-350.5 633.5,-350.5"/>
<text text-anchor="middle" x="704" y="-357.5" font-family="Helvetica" font-size="10.00">CDPL::Pharm::BasicFeature</text>
</a>
</g>
</g>
<!-- Node7&#45;&gt;Node8 -->
<g id="edge7" class="edge">
<title>Node7&#45;&gt;Node8</title>
<path fill="none" stroke="midnightblue" d="M533.43,-344.26C564.68,-347.16 601.79,-350.6 633.32,-353.53"/>
<polygon fill="midnightblue" stroke="midnightblue" points="533.35,-340.74 523.07,-343.3 532.7,-347.71 533.35,-340.74"/>
</g>
<!-- Node10 -->
<g id="node10" class="node">
<title>Node10</title>
<g id="a_node10"><a xlink:href="classCDPL_1_1Chem_1_1Fragment.html" target="_top" xlink:title="Fragment.">
<polygon fill="none" stroke="black" points="404,-290.5 404,-309.5 526,-309.5 526,-290.5 404,-290.5"/>
<text text-anchor="middle" x="465" y="-297.5" font-family="Helvetica" font-size="10.00">CDPL::Chem::Fragment</text>
</a>
</g>
</g>
<!-- Node9&#45;&gt;Node10 -->
<g id="edge9" class="edge">
<title>Node9&#45;&gt;Node10</title>
<path fill="none" stroke="midnightblue" d="M309.81,-254.96C332.39,-262.92 362.23,-273.08 389,-281 400.21,-284.31 412.46,-287.57 423.75,-290.42"/>
<polygon fill="midnightblue" stroke="midnightblue" points="310.9,-251.63 300.3,-251.58 308.56,-258.23 310.9,-251.63"/>
</g>
<!-- Node17 -->
<g id="node17" class="node">
<title>Node17</title>
<g id="a_node17"><a xlink:href="classCDPL_1_1Chem_1_1Molecule.html" target="_top" xlink:title="Molecule.">
<polygon fill="none" stroke="black" points="405,-252.5 405,-271.5 525,-271.5 525,-252.5 405,-252.5"/>
<text text-anchor="middle" x="465" y="-259.5" font-family="Helvetica" font-size="10.00">CDPL::Chem::Molecule</text>
</a>
</g>
</g>
<!-- Node9&#45;&gt;Node17 -->
<g id="edge16" class="edge">
<title>Node9&#45;&gt;Node17</title>
<path fill="none" stroke="midnightblue" d="M358,-250.84C373.76,-252.5 389.92,-254.2 404.72,-255.76"/>
<polygon fill="midnightblue" stroke="midnightblue" points="358.04,-247.33 347.73,-249.76 357.31,-254.29 358.04,-247.33"/>
</g>
<!-- Node19 -->
<g id="node19" class="node">
<title>Node19</title>
<g id="a_node19"><a xlink:href="classCDPL_1_1ConfGen_1_1CanonicalFragment.html" target="_top" xlink:title="CanonicalFragment.">
<polygon fill="none" stroke="black" points="396.5,-203 396.5,-233 533.5,-233 533.5,-203 396.5,-203"/>
<text text-anchor="start" x="404.5" y="-221" font-family="Helvetica" font-size="10.00">CDPL::ConfGen::Canonical</text>
<text text-anchor="middle" x="465" y="-210" font-family="Helvetica" font-size="10.00">Fragment</text>
</a>
</g>
</g>
<!-- Node9&#45;&gt;Node19 -->
<g id="edge18" class="edge">
<title>Node9&#45;&gt;Node19</title>
<path fill="none" stroke="midnightblue" d="M357.92,-231.4C370.73,-229.78 383.81,-228.13 396.21,-226.56"/>
<polygon fill="midnightblue" stroke="midnightblue" points="357.21,-227.96 347.73,-232.69 358.09,-234.91 357.21,-227.96"/>
</g>
<!-- Node11 -->
<g id="node11" class="node">
<title>Node11</title>
<g id="a_node11"><a xlink:href="classCDPL_1_1Biomol_1_1HierarchyViewNode.html" target="_top" xlink:title="HierarchyViewNode.">
<polygon fill="none" stroke="black" points="618,-312.5 618,-331.5 790,-331.5 790,-312.5 618,-312.5"/>
<text text-anchor="middle" x="704" y="-319.5" font-family="Helvetica" font-size="10.00">CDPL::Biomol::HierarchyViewNode</text>
</a>
</g>
</g>
<!-- Node10&#45;&gt;Node11 -->
<g id="edge10" class="edge">
<title>Node10&#45;&gt;Node11</title>
<path fill="none" stroke="midnightblue" d="M536.12,-306.51C561.77,-308.89 591.08,-311.61 617.9,-314.1"/>
<polygon fill="midnightblue" stroke="midnightblue" points="536.39,-303.02 526.11,-305.58 535.75,-309.99 536.39,-303.02"/>
</g>
<!-- Node15 -->
<g id="node15" class="node">
<title>Node15</title>
<g id="a_node15"><a xlink:href="classCDPL_1_1Chem_1_1AromaticSubstructure.html" target="_top" xlink:title="Implements the perception of aromatic atoms and bonds in a molecular graph.">
<polygon fill="none" stroke="black" points="616,-274.5 616,-293.5 792,-293.5 792,-274.5 616,-274.5"/>
<text text-anchor="middle" x="704" y="-281.5" font-family="Helvetica" font-size="10.00">CDPL::Chem::AromaticSubstructure</text>
</a>
</g>
</g>
<!-- Node10&#45;&gt;Node15 -->
<g id="edge14" class="edge">
<title>Node10&#45;&gt;Node15</title>
<path fill="none" stroke="midnightblue" d="M536.2,-295.26C561.12,-293.58 589.48,-291.66 615.65,-289.9"/>
<polygon fill="midnightblue" stroke="midnightblue" points="535.85,-291.78 526.11,-295.94 536.32,-298.76 535.85,-291.78"/>
</g>
<!-- Node16 -->
<g id="node16" class="node">
<title>Node16</title>
<g id="a_node16"><a xlink:href="classCDPL_1_1Chem_1_1CyclicSubstructure.html" target="_top" xlink:title="Implements the perception of ring atoms and bonds in a molecular graph.">
<polygon fill="none" stroke="black" points="622,-236.5 622,-255.5 786,-255.5 786,-236.5 622,-236.5"/>
<text text-anchor="middle" x="704" y="-243.5" font-family="Helvetica" font-size="10.00">CDPL::Chem::CyclicSubstructure</text>
</a>
</g>
</g>
<!-- Node10&#45;&gt;Node16 -->
<g id="edge15" class="edge">
<title>Node10&#45;&gt;Node16</title>
<path fill="none" stroke="midnightblue" d="M516.02,-288.14C545.16,-281.28 582.63,-272.54 616,-265 629.87,-261.87 645.01,-258.53 658.71,-255.54"/>
<polygon fill="midnightblue" stroke="midnightblue" points="515,-284.78 506.07,-290.49 516.61,-291.6 515,-284.78"/>
</g>
<!-- Node12 -->
<g id="node12" class="node">
<title>Node12</title>
<g id="a_node12"><a xlink:href="classCDPL_1_1Biomol_1_1HierarchyViewChain.html" target="_top" xlink:title="HierarchyViewChain.">
<polygon fill="none" stroke="black" points="829,-356 829,-386 978,-386 978,-356 829,-356"/>
<text text-anchor="start" x="837" y="-374" font-family="Helvetica" font-size="10.00">CDPL::Biomol::HierarchyView</text>
<text text-anchor="middle" x="903.5" y="-363" font-family="Helvetica" font-size="10.00">Chain</text>
</a>
</g>
</g>
<!-- Node11&#45;&gt;Node12 -->
<g id="edge11" class="edge">
<title>Node11&#45;&gt;Node12</title>
<path fill="none" stroke="midnightblue" d="M760.58,-333.7C771.04,-336.03 781.87,-338.52 792,-341 810.73,-345.58 831.13,-351 849.25,-355.96"/>
<polygon fill="midnightblue" stroke="midnightblue" points="761.22,-330.26 750.7,-331.53 759.72,-337.1 761.22,-330.26"/>
</g>
<!-- Node13 -->
<g id="node13" class="node">
<title>Node13</title>
<g id="a_node13"><a xlink:href="classCDPL_1_1Biomol_1_1HierarchyViewFragment.html" target="_top" xlink:title="HierarchyViewFragment.">
<polygon fill="none" stroke="black" points="829,-307 829,-337 978,-337 978,-307 829,-307"/>
<text text-anchor="start" x="837" y="-325" font-family="Helvetica" font-size="10.00">CDPL::Biomol::HierarchyView</text>
<text text-anchor="middle" x="903.5" y="-314" font-family="Helvetica" font-size="10.00">Fragment</text>
</a>
</g>
</g>
<!-- Node11&#45;&gt;Node13 -->
<g id="edge12" class="edge">
<title>Node11&#45;&gt;Node13</title>
<path fill="none" stroke="midnightblue" d="M800.47,-322C809.98,-322 819.53,-322 828.76,-322"/>
<polygon fill="midnightblue" stroke="midnightblue" points="800.19,-318.5 790.19,-322 800.19,-325.5 800.19,-318.5"/>
</g>
<!-- Node14 -->
<g id="node14" class="node">
<title>Node14</title>
<g id="a_node14"><a xlink:href="classCDPL_1_1Biomol_1_1HierarchyViewModel.html" target="_top" xlink:title="HierarchyViewModel.">
<polygon fill="none" stroke="black" points="829,-258 829,-288 978,-288 978,-258 829,-258"/>
<text text-anchor="start" x="837" y="-276" font-family="Helvetica" font-size="10.00">CDPL::Biomol::HierarchyView</text>
<text text-anchor="middle" x="903.5" y="-265" font-family="Helvetica" font-size="10.00">Model</text>
</a>
</g>
</g>
<!-- Node11&#45;&gt;Node14 -->
<g id="edge13" class="edge">
<title>Node11&#45;&gt;Node14</title>
<path fill="none" stroke="midnightblue" d="M760.58,-310.3C771.04,-307.97 781.87,-305.48 792,-303 810.73,-298.42 831.13,-293 849.25,-288.04"/>
<polygon fill="midnightblue" stroke="midnightblue" points="759.72,-306.9 750.7,-312.47 761.22,-313.74 759.72,-306.9"/>
</g>
<!-- Node18 -->
<g id="node18" class="node">
<title>Node18</title>
<g id="a_node18"><a xlink:href="classCDPL_1_1Chem_1_1BasicMolecule.html" target="_top" xlink:title="BasicMolecule.">
<polygon fill="none" stroke="black" points="631.5,-198.5 631.5,-217.5 776.5,-217.5 776.5,-198.5 631.5,-198.5"/>
<text text-anchor="middle" x="704" y="-205.5" font-family="Helvetica" font-size="10.00">CDPL::Chem::BasicMolecule</text>
</a>
</g>
</g>
<!-- Node17&#45;&gt;Node18 -->
<g id="edge17" class="edge">
<title>Node17&#45;&gt;Node18</title>
<path fill="none" stroke="midnightblue" d="M516.02,-250.14C545.16,-243.28 582.63,-234.54 616,-227 629.87,-223.87 645.01,-220.53 658.71,-217.54"/>
<polygon fill="midnightblue" stroke="midnightblue" points="515,-246.78 506.07,-252.49 516.61,-253.6 515,-246.78"/>
</g>
<!-- Node21 -->
<g id="node21" class="node">
<title>Node21</title>
<g id="a_node21"><a xlink:href="classCDPL_1_1Chem_1_1BasicReaction.html" target="_top" xlink:title="BasicReaction.">
<polygon fill="none" stroke="black" points="393,-164.5 393,-183.5 537,-183.5 537,-164.5 393,-164.5"/>
<text text-anchor="middle" x="465" y="-171.5" font-family="Helvetica" font-size="10.00">CDPL::Chem::BasicReaction</text>
</a>
</g>
</g>
<!-- Node20&#45;&gt;Node21 -->
<g id="edge20" class="edge">
<title>Node20&#45;&gt;Node21</title>
<path fill="none" stroke="midnightblue" d="M342.58,-174C358.95,-174 376.45,-174 392.93,-174"/>
<polygon fill="midnightblue" stroke="midnightblue" points="342.56,-170.5 332.56,-174 342.56,-177.5 342.56,-170.5"/>
</g>
<!-- Node23 -->
<g id="node23" class="node">
<title>Node23</title>
<g id="a_node23"><a xlink:href="classCDPL_1_1Grid_1_1SpatialGrid.html" target="_top" xlink:title=" ">
<polygon fill="none" stroke="black" points="643.5,-99 643.5,-129 764.5,-129 764.5,-99 643.5,-99"/>
<text text-anchor="start" x="651.5" y="-117" font-family="Helvetica" font-size="10.00">CDPL::Grid::SpatialGrid</text>
<text text-anchor="middle" x="704" y="-106" font-family="Helvetica" font-size="10.00">&lt; T, T &gt;</text>
</a>
</g>
</g>
<!-- Node22&#45;&gt;Node23 -->
<g id="edge22" class="edge">
<title>Node22&#45;&gt;Node23</title>
<path fill="none" stroke="midnightblue" d="M349.83,-132.11C433.56,-127.82 566.61,-120.99 643.27,-117.06"/>
<polygon fill="midnightblue" stroke="midnightblue" points="349.43,-128.63 339.62,-132.63 349.79,-135.62 349.43,-128.63"/>
</g>
<!-- Node25 -->
<g id="node25" class="node">
<title>Node25</title>
<g id="a_node25"><a xlink:href="classCDPL_1_1Grid_1_1SpatialGrid.html" target="_top" xlink:title="SpatialGrid.">
<polygon fill="none" stroke="black" points="404.5,-77 404.5,-107 525.5,-107 525.5,-77 404.5,-77"/>
<text text-anchor="start" x="412.5" y="-95" font-family="Helvetica" font-size="10.00">CDPL::Grid::SpatialGrid</text>
<text text-anchor="middle" x="465" y="-84" font-family="Helvetica" font-size="10.00">&lt; T, CVT &gt;</text>
</a>
</g>
</g>
<!-- Node22&#45;&gt;Node25 -->
<g id="edge24" class="edge">
<title>Node22&#45;&gt;Node25</title>
<path fill="none" stroke="midnightblue" d="M325.03,-124.18C349.51,-118.51 378.97,-111.69 404.46,-105.79"/>
<polygon fill="midnightblue" stroke="midnightblue" points="324.18,-120.79 315.23,-126.45 325.76,-127.61 324.18,-120.79"/>
</g>
<!-- Node24 -->
<g id="node24" class="node">
<title>Node24</title>
<g id="a_node24"><a xlink:href="classCDPL_1_1Grid_1_1RegularGrid.html" target="_top" xlink:title="RegularGrid.">
<polygon fill="none" stroke="black" points="841.5,-99 841.5,-129 965.5,-129 965.5,-99 841.5,-99"/>
<text text-anchor="start" x="849.5" y="-117" font-family="Helvetica" font-size="10.00">CDPL::Grid::RegularGrid</text>
<text text-anchor="middle" x="903.5" y="-106" font-family="Helvetica" font-size="10.00">&lt; T, CVT &gt;</text>
</a>
</g>
</g>
<!-- Node23&#45;&gt;Node24 -->
<g id="edge23" class="edge">
<title>Node23&#45;&gt;Node24</title>
<path fill="none" stroke="midnightblue" d="M774.69,-114C796.44,-114 820.27,-114 841.39,-114"/>
<polygon fill="midnightblue" stroke="midnightblue" points="774.52,-110.5 764.52,-114 774.52,-117.5 774.52,-110.5"/>
</g>
<!-- Node25&#45;&gt;Node23 -->
<g id="edge25" class="edge">
<title>Node25&#45;&gt;Node23</title>
<path fill="none" stroke="orange" stroke-dasharray="5,2" d="M536.15,-98.51C570.19,-101.67 610.66,-105.43 643.21,-108.45"/>
<polygon fill="orange" stroke="orange" points="536.09,-94.99 525.81,-97.55 535.44,-101.96 536.09,-94.99"/>
<text text-anchor="middle" x="578.5" y="-106" font-family="Helvetica" font-size="10.00"> &lt; T, T &gt;</text>
</g>
<!-- Node27 -->
<g id="node27" class="node">
<title>Node27</title>
<g id="a_node27"><a xlink:href="classCDPL_1_1Pharm_1_1FeatureSet.html" target="_top" xlink:title="FeatureSet.">
<polygon fill="none" stroke="black" points="399.5,-38.5 399.5,-57.5 530.5,-57.5 530.5,-38.5 399.5,-38.5"/>
<text text-anchor="middle" x="465" y="-45.5" font-family="Helvetica" font-size="10.00">CDPL::Pharm::FeatureSet</text>
</a>
</g>
</g>
<!-- Node26&#45;&gt;Node27 -->
<g id="edge27" class="edge">
<title>Node26&#45;&gt;Node27</title>
<path fill="none" stroke="midnightblue" d="M356.68,-62.12C370.95,-60.24 385.59,-58.32 399.3,-56.51"/>
<polygon fill="midnightblue" stroke="midnightblue" points="355.83,-58.7 346.37,-63.48 356.74,-65.64 355.83,-58.7"/>
</g>
<!-- Node28 -->
<g id="node28" class="node">
<title>Node28</title>
<g id="a_node28"><a xlink:href="classCDPL_1_1Pharm_1_1Pharmacophore.html" target="_top" xlink:title="Pharmacophore.">
<polygon fill="none" stroke="black" points="389,-0.5 389,-19.5 541,-19.5 541,-0.5 389,-0.5"/>
<text text-anchor="middle" x="465" y="-7.5" font-family="Helvetica" font-size="10.00">CDPL::Pharm::Pharmacophore</text>
</a>
</g>
</g>
<!-- Node26&#45;&gt;Node28 -->
<g id="edge28" class="edge">
<title>Node26&#45;&gt;Node28</title>
<path fill="none" stroke="midnightblue" d="M334.79,-60.45C340.7,-58.56 346.53,-56.42 352,-54 370.15,-45.97 370.89,-37.11 389,-29 397.46,-25.21 406.81,-22.08 415.95,-19.54"/>
<polygon fill="midnightblue" stroke="midnightblue" points="333.4,-57.21 324.8,-63.4 335.39,-63.93 333.4,-57.21"/>
</g>
<!-- Node29 -->
<g id="node29" class="node">
<title>Node29</title>
<g id="a_node29"><a xlink:href="classCDPL_1_1Pharm_1_1BasicPharmacophore.html" target="_top" xlink:title="BasicPharmacophore.">
<polygon fill="none" stroke="black" points="616,-0.5 616,-19.5 792,-19.5 792,-0.5 616,-0.5"/>
<text text-anchor="middle" x="704" y="-7.5" font-family="Helvetica" font-size="10.00">CDPL::Pharm::BasicPharmacophore</text>
</a>
</g>
</g>
<!-- Node28&#45;&gt;Node29 -->
<g id="edge29" class="edge">
<title>Node28&#45;&gt;Node29</title>
<path fill="none" stroke="midnightblue" d="M551.47,-10C572.42,-10 594.87,-10 615.9,-10"/>
<polygon fill="midnightblue" stroke="midnightblue" points="551.31,-6.5 541.31,-10 551.31,-13.5 551.31,-6.5"/>
</g>
</g>
</svg>
        <g id="navigator" transform="translate(0 0)" fill="#404254">
                <rect fill="#f2f5e9" fill-opacity="0.5" stroke="#606060" stroke-width=".5" x="0" y="0" width="60" height="60"/>
                <use id="zoomplus" xlink:href="#zoomPlus" x="17" y="9" onmousedown="handleZoom(evt,'in')"/>
                <use id="zoomminus" xlink:href="#zoomMin" x="42" y="9" onmousedown="handleZoom(evt,'out')"/>
                <use id="reset" xlink:href="#resetDef" x="30" y="36" onmousedown="handleReset()"/>
                <g id="arrowUp" xlink:href="#dirArrow" transform="translate(30 24)" onmousedown="handlePan(0,-1)">
                  <use xlink:href="#rim" fill="#404040">
                        <set attributeName="fill" to="#808080" begin="arrowUp.mouseover" end="arrowUp.mouseout"/>
                  </use>
                  <path fill="none" stroke="white" stroke-width="1.5" d="M0,-3.0v7 M-2.5,-0.5L0,-3.0L2.5,-0.5"/>
                </g>
                <g id="arrowRight" xlink:href="#dirArrow" transform="rotate(90) translate(36 -43)" onmousedown="handlePan(1,0)">
                  <use xlink:href="#rim" fill="#404040">
                        <set attributeName="fill" to="#808080" begin="arrowRight.mouseover" end="arrowRight.mouseout"/>
                  </use>
                  <path fill="none" stroke="white" stroke-width="1.5" d="M0,-3.0v7 M-2.5,-0.5L0,-3.0L2.5,-0.5"/>
                </g>
                <g id="arrowDown" xlink:href="#dirArrow" transform="rotate(180) translate(-30 -48)" onmousedown="handlePan(0,1)">
                  <use xlink:href="#rim" fill="#404040">
                        <set attributeName="fill" to="#808080" begin="arrowDown.mouseover" end="arrowDown.mouseout"/>
                  </use>
                  <path fill="none" stroke="white" stroke-width="1.5" d="M0,-3.0v7 M-2.5,-0.5L0,-3.0L2.5,-0.5"/>
                </g>
                <g id="arrowLeft" xlink:href="#dirArrow" transform="rotate(270) translate(-36 17)" onmousedown="handlePan(-1,0)">
                  <use xlink:href="#rim" fill="#404040">
                        <set attributeName="fill" to="#808080" begin="arrowLeft.mouseover" end="arrowLeft.mouseout"/>
                  </use>
                  <path fill="none" stroke="white" stroke-width="1.5" d="M0,-3.0v7 M-2.5,-0.5L0,-3.0L2.5,-0.5"/>
                </g>
        </g>
        <svg viewBox="0 0 15 15" width="100%" height="30px" preserveAspectRatio="xMaxYMin meet">
         <g id="arrow_out" transform="scale(0.3 0.3)">
          <a xlink:href="classCDPL_1_1Base_1_1PropertyContainer__inherit__graph_org.svg" target="_base">
           <rect id="button" ry="5" rx="5" y="6" x="6" height="38" width="38"
                fill="#f2f5e9" fill-opacity="0.5" stroke="#606060" stroke-width="1.0"/>
           <path id="arrow"
             d="M 11.500037,31.436501 C 11.940474,20.09759 22.043105,11.32322 32.158766,21.979434 L 37.068811,17.246167 C 37.068811,17.246167 37.088388,32 37.088388,32 L 22.160133,31.978069 C 22.160133,31.978069 26.997745,27.140456 26.997745,27.140456 C 18.528582,18.264221 13.291696,25.230495 11.500037,31.436501 z"
             style="fill:#404040;"/>
          </a>
         </g>
        </svg>
</svg>
