<?xml version="1.0" encoding="UTF-8" standalone="no"?>
<!DOCTYPE svg PUBLIC "-//W3C//DTD SVG 1.1//EN"
 "http://www.w3.org/Graphics/SVG/1.1/DTD/svg11.dtd">
<!-- Generated by graphviz version 2.44.0 (0)
 -->
<!-- Title: CDPL::Math::QuaternionContainer&lt; C &gt; Pages: 1 -->
<!--zoomable 88 -->
<svg id="main" version="1.1" xmlns="http://www.w3.org/2000/svg" xmlns:xlink="http://www.w3.org/1999/xlink" xml:space="preserve" onload="init(evt)">
<style type="text/css"><![CDATA[
.edge:hover path { stroke: red; }
.edge:hover polygon { stroke: red; fill: red; }
]]></style>
<script type="text/javascript"><![CDATA[
var edges = document.getElementsByTagName('g');
if (edges && edges.length) {
  for (var i=0;i<edges.length;i++) {
    if (edges[i].id.substr(0,4)=='edge') {
      edges[i].setAttribute('class','edge');
    }
  }
}
]]></script>
        <defs>
                <circle id="rim" cx="0" cy="0" r="7"/>
                <circle id="rim2" cx="0" cy="0" r="3.5"/>
                <g id="zoomPlus">
                        <use xlink:href="#rim" fill="#404040">
                                <set attributeName="fill" to="#808080" begin="zoomplus.mouseover" end="zoomplus.mouseout"/>
                        </use>
                        <path d="M-4,0h8M0,-4v8" fill="none" stroke="white" stroke-width="1.5" pointer-events="none"/>
                </g>
                <g id="zoomMin">
                        <use xlink:href="#rim" fill="#404040">
                                <set attributeName="fill" to="#808080" begin="zoomminus.mouseover" end="zoomminus.mouseout"/>
                        </use>
                        <path d="M-4,0h8" fill="none" stroke="white" stroke-width="1.5" pointer-events="none"/>
                </g>
                <g id="dirArrow">
                        <path fill="none" stroke="white" stroke-width="1.5" d="M0,-3.0v7 M-2.5,-0.5L0,-3.0L2.5,-0.5"/>
                </g>
               <g id="resetDef">
                       <use xlink:href="#rim2" fill="#404040">
                               <set attributeName="fill" to="#808080" begin="reset.mouseover" end="reset.mouseout"/>
                       </use>
               </g>
        </defs>

<script type="text/javascript">
var viewWidth = 1429;
var viewHeight = 88;
var sectionId = 'dynsection-0';
</script>
<script xlink:href="svgpan.js"/>
<svg id="graph" class="graph">
<g id="viewport">
<title>CDPL::Math::QuaternionContainer&lt; C &gt;</title>
<!-- Node1 -->
<g id="node1" class="node">
<title>Node1</title>
<g id="a_node1"><a xlink:title=" ">
<polygon fill="#bfbfbf" stroke="black" points="712,-30 712,-49 903,-49 903,-30 712,-30"/>
<text text-anchor="middle" x="807.5" y="-37" font-family="Helvetica" font-size="10.00">CDPL::Math::QuaternionContainer&lt; C &gt;</text>
</a>
</g>
</g>
<!-- Node6 -->
<g id="node6" class="node">
<title>Node6</title>
<g id="a_node6"><a xlink:href="classCDPL_1_1Math_1_1QuaternionContainer.html" target="_top" xlink:title=" ">
<polygon fill="none" stroke="black" points="1051,-49.5 1051,-79.5 1217,-79.5 1217,-49.5 1051,-49.5"/>
<text text-anchor="start" x="1059" y="-67.5" font-family="Helvetica" font-size="10.00">CDPL::Math::QuaternionContainer</text>
<text text-anchor="middle" x="1134" y="-56.5" font-family="Helvetica" font-size="10.00">&lt; Quaternion&lt; T &gt; &gt;</text>
</a>
</g>
</g>
<!-- Node1&#45;&gt;Node6 -->
<g id="edge6" class="edge">
<title>Node1&#45;&gt;Node6</title>
<path fill="none" stroke="orange" stroke-dasharray="5,2" d="M913.22,-47.57C957.8,-51 1009.04,-54.95 1050.82,-58.17"/>
<polygon fill="orange" stroke="orange" points="913.47,-44.08 903.23,-46.8 912.93,-51.06 913.47,-44.08"/>
<text text-anchor="middle" x="977" y="-58.5" font-family="Helvetica" font-size="10.00"> &lt; Quaternion&lt; T &gt; &gt;</text>
</g>
<!-- Node8 -->
<g id="node8" class="node">
<title>Node8</title>
<g id="a_node8"><a xlink:href="classCDPL_1_1Math_1_1QuaternionContainer.html" target="_top" xlink:title=" ">
<polygon fill="none" stroke="black" points="1051,-0.5 1051,-30.5 1217,-30.5 1217,-0.5 1051,-0.5"/>
<text text-anchor="start" x="1059" y="-18.5" font-family="Helvetica" font-size="10.00">CDPL::Math::QuaternionContainer</text>
<text text-anchor="middle" x="1134" y="-7.5" font-family="Helvetica" font-size="10.00">&lt; RealQuaternion&lt; T &gt; &gt;</text>
</a>
</g>
</g>
<!-- Node1&#45;&gt;Node8 -->
<g id="edge8" class="edge">
<title>Node1&#45;&gt;Node8</title>
<path fill="none" stroke="orange" stroke-dasharray="5,2" d="M903.51,-29.03C909.43,-28.48 915.29,-27.97 921,-27.5 963.8,-24.01 1011.56,-21.21 1050.88,-19.2"/>
<polygon fill="orange" stroke="orange" points="903.16,-25.55 893.53,-29.98 903.82,-32.51 903.16,-25.55"/>
<text text-anchor="middle" x="977" y="-30.5" font-family="Helvetica" font-size="10.00"> &lt; RealQuaternion&lt; T &gt; &gt;</text>
</g>
<!-- Node2 -->
<g id="node2" class="node">
<title>Node2</title>
<g id="a_node2"><a xlink:href="classCDPL_1_1Math_1_1QuaternionExpression.html" target="_top" xlink:title=" ">
<polygon fill="none" stroke="black" points="477,-30 477,-49 675,-49 675,-30 477,-30"/>
<text text-anchor="middle" x="576" y="-37" font-family="Helvetica" font-size="10.00">CDPL::Math::QuaternionExpression&lt; C &gt;</text>
</a>
</g>
</g>
<!-- Node2&#45;&gt;Node1 -->
<g id="edge1" class="edge">
<title>Node2&#45;&gt;Node1</title>
<path fill="none" stroke="midnightblue" d="M685.54,-39.5C694.26,-39.5 703.04,-39.5 711.65,-39.5"/>
<polygon fill="midnightblue" stroke="midnightblue" points="685.33,-36 675.33,-39.5 685.33,-43 685.33,-36"/>
</g>
<!-- Node3 -->
<g id="node3" class="node">
<title>Node3</title>
<g id="a_node3"><a xlink:href="classCDPL_1_1Math_1_1Expression.html" target="_top" xlink:title=" ">
<polygon fill="none" stroke="black" points="238,-48 238,-67 389,-67 389,-48 238,-48"/>
<text text-anchor="middle" x="313.5" y="-55" font-family="Helvetica" font-size="10.00">CDPL::Math::Expression&lt; C &gt;</text>
</a>
</g>
</g>
<!-- Node3&#45;&gt;Node2 -->
<g id="edge2" class="edge">
<title>Node3&#45;&gt;Node2</title>
<path fill="none" stroke="midnightblue" d="M399.2,-51.65C423.88,-49.94 451.07,-48.06 476.53,-46.3"/>
<polygon fill="midnightblue" stroke="midnightblue" points="398.88,-48.16 389.15,-52.34 399.37,-55.14 398.88,-48.16"/>
</g>
<!-- Node4 -->
<g id="node4" class="node">
<title>Node4</title>
<g id="a_node4"><a xlink:href="classCDPL_1_1Math_1_1Expression.html" target="_top" xlink:title=" ">
<polygon fill="none" stroke="black" points="0,-28 0,-47 150,-47 150,-28 0,-28"/>
<text text-anchor="middle" x="75" y="-35" font-family="Helvetica" font-size="10.00">CDPL::Math::Expression&lt; E &gt;</text>
</a>
</g>
</g>
<!-- Node4&#45;&gt;Node3 -->
<g id="edge3" class="edge">
<title>Node4&#45;&gt;Node3</title>
<path fill="none" stroke="orange" stroke-dasharray="5,2" d="M160.47,-44.64C185.72,-46.78 213.2,-49.1 237.77,-51.18"/>
<polygon fill="orange" stroke="orange" points="160.44,-41.13 150.18,-43.77 159.85,-48.1 160.44,-41.13"/>
<text text-anchor="middle" x="182.5" y="-50.5" font-family="Helvetica" font-size="10.00"> &lt; C &gt;</text>
</g>
<!-- Node5 -->
<g id="node5" class="node">
<title>Node5</title>
<g id="a_node5"><a xlink:href="classCDPL_1_1Math_1_1QuaternionExpression.html" target="_top" xlink:title=" ">
<polygon fill="none" stroke="black" points="215,-10 215,-29 412,-29 412,-10 215,-10"/>
<text text-anchor="middle" x="313.5" y="-17" font-family="Helvetica" font-size="10.00">CDPL::Math::QuaternionExpression&lt; E &gt;</text>
</a>
</g>
</g>
<!-- Node4&#45;&gt;Node5 -->
<g id="edge5" class="edge">
<title>Node4&#45;&gt;Node5</title>
<path fill="none" stroke="midnightblue" d="M160.4,-31.08C178,-29.74 196.68,-28.31 214.72,-26.94"/>
<polygon fill="midnightblue" stroke="midnightblue" points="159.89,-27.61 150.18,-31.85 160.42,-34.58 159.89,-27.61"/>
</g>
<!-- Node5&#45;&gt;Node2 -->
<g id="edge4" class="edge">
<title>Node5&#45;&gt;Node2</title>
<path fill="none" stroke="orange" stroke-dasharray="5,2" d="M422.45,-27.79C440.43,-29.17 458.99,-30.59 476.71,-31.95"/>
<polygon fill="orange" stroke="orange" points="422.48,-24.28 412.24,-27 421.94,-31.26 422.48,-24.28"/>
<text text-anchor="middle" x="444.5" y="-32.5" font-family="Helvetica" font-size="10.00"> &lt; C &gt;</text>
</g>
<!-- Node7 -->
<g id="node7" class="node">
<title>Node7</title>
<g id="a_node7"><a xlink:href="classCDPL_1_1Math_1_1Quaternion.html" target="_top" xlink:title=" ">
<polygon fill="none" stroke="black" points="1263.5,-55 1263.5,-74 1411.5,-74 1411.5,-55 1263.5,-55"/>
<text text-anchor="middle" x="1337.5" y="-62" font-family="Helvetica" font-size="10.00">CDPL::Math::Quaternion&lt; T &gt;</text>
</a>
</g>
</g>
<!-- Node6&#45;&gt;Node7 -->
<g id="edge7" class="edge">
<title>Node6&#45;&gt;Node7</title>
<path fill="none" stroke="midnightblue" d="M1227.32,-64.5C1239.36,-64.5 1251.57,-64.5 1263.25,-64.5"/>
<polygon fill="midnightblue" stroke="midnightblue" points="1227.25,-61 1217.25,-64.5 1227.25,-68 1227.25,-61"/>
</g>
<!-- Node9 -->
<g id="node9" class="node">
<title>Node9</title>
<g id="a_node9"><a xlink:href="classCDPL_1_1Math_1_1RealQuaternion.html" target="_top" xlink:title=" ">
<polygon fill="none" stroke="black" points="1254,-6 1254,-25 1421,-25 1421,-6 1254,-6"/>
<text text-anchor="middle" x="1337.5" y="-13" font-family="Helvetica" font-size="10.00">CDPL::Math::RealQuaternion&lt; T &gt;</text>
</a>
</g>
</g>
<!-- Node8&#45;&gt;Node9 -->
<g id="edge9" class="edge">
<title>Node8&#45;&gt;Node9</title>
<path fill="none" stroke="midnightblue" d="M1227.51,-15.5C1236.3,-15.5 1245.17,-15.5 1253.86,-15.5"/>
<polygon fill="midnightblue" stroke="midnightblue" points="1227.25,-12 1217.25,-15.5 1227.25,-19 1227.25,-12"/>
</g>
</g>
</svg>
        <g id="navigator" transform="translate(0 0)" fill="#404254">
                <rect fill="#f2f5e9" fill-opacity="0.5" stroke="#606060" stroke-width=".5" x="0" y="0" width="60" height="60"/>
                <use id="zoomplus" xlink:href="#zoomPlus" x="17" y="9" onmousedown="handleZoom(evt,'in')"/>
                <use id="zoomminus" xlink:href="#zoomMin" x="42" y="9" onmousedown="handleZoom(evt,'out')"/>
                <use id="reset" xlink:href="#resetDef" x="30" y="36" onmousedown="handleReset()"/>
                <g id="arrowUp" xlink:href="#dirArrow" transform="translate(30 24)" onmousedown="handlePan(0,-1)">
                  <use xlink:href="#rim" fill="#404040">
                        <set attributeName="fill" to="#808080" begin="arrowUp.mouseover" end="arrowUp.mouseout"/>
                  </use>
                  <path fill="none" stroke="white" stroke-width="1.5" d="M0,-3.0v7 M-2.5,-0.5L0,-3.0L2.5,-0.5"/>
                </g>
                <g id="arrowRight" xlink:href="#dirArrow" transform="rotate(90) translate(36 -43)" onmousedown="handlePan(1,0)">
                  <use xlink:href="#rim" fill="#404040">
                        <set attributeName="fill" to="#808080" begin="arrowRight.mouseover" end="arrowRight.mouseout"/>
                  </use>
                  <path fill="none" stroke="white" stroke-width="1.5" d="M0,-3.0v7 M-2.5,-0.5L0,-3.0L2.5,-0.5"/>
                </g>
                <g id="arrowDown" xlink:href="#dirArrow" transform="rotate(180) translate(-30 -48)" onmousedown="handlePan(0,1)">
                  <use xlink:href="#rim" fill="#404040">
                        <set attributeName="fill" to="#808080" begin="arrowDown.mouseover" end="arrowDown.mouseout"/>
                  </use>
                  <path fill="none" stroke="white" stroke-width="1.5" d="M0,-3.0v7 M-2.5,-0.5L0,-3.0L2.5,-0.5"/>
                </g>
                <g id="arrowLeft" xlink:href="#dirArrow" transform="rotate(270) translate(-36 17)" onmousedown="handlePan(-1,0)">
                  <use xlink:href="#rim" fill="#404040">
                        <set attributeName="fill" to="#808080" begin="arrowLeft.mouseover" end="arrowLeft.mouseout"/>
                  </use>
                  <path fill="none" stroke="white" stroke-width="1.5" d="M0,-3.0v7 M-2.5,-0.5L0,-3.0L2.5,-0.5"/>
                </g>
        </g>
        <svg viewBox="0 0 15 15" width="100%" height="30px" preserveAspectRatio="xMaxYMin meet">
         <g id="arrow_out" transform="scale(0.3 0.3)">
          <a xlink:href="classCDPL_1_1Math_1_1QuaternionContainer__inherit__graph_org.svg" target="_base">
           <rect id="button" ry="5" rx="5" y="6" x="6" height="38" width="38"
                fill="#f2f5e9" fill-opacity="0.5" stroke="#606060" stroke-width="1.0"/>
           <path id="arrow"
             d="M 11.500037,31.436501 C 11.940474,20.09759 22.043105,11.32322 32.158766,21.979434 L 37.068811,17.246167 C 37.068811,17.246167 37.088388,32 37.088388,32 L 22.160133,31.978069 C 22.160133,31.978069 26.997745,27.140456 26.997745,27.140456 C 18.528582,18.264221 13.291696,25.230495 11.500037,31.436501 z"
             style="fill:#404040;"/>
          </a>
         </g>
        </svg>
</svg>
