<?xml version="1.0" encoding="UTF-8" standalone="no"?>
<!DOCTYPE svg PUBLIC "-//W3C//DTD SVG 1.1//EN"
 "http://www.w3.org/Graphics/SVG/1.1/DTD/svg11.dtd">
<!-- Generated by graphviz version 2.44.0 (0)
 -->
<!-- Title: CDPL::Math::BoundedMatrix&lt; T, M, N &gt; Pages: 1 -->
<!--zoomable 132 -->
<svg id="main" version="1.1" xmlns="http://www.w3.org/2000/svg" xmlns:xlink="http://www.w3.org/1999/xlink" xml:space="preserve" onload="init(evt)">
<style type="text/css"><![CDATA[
.edge:hover path { stroke: red; }
.edge:hover polygon { stroke: red; fill: red; }
]]></style>
<script type="text/javascript"><![CDATA[
var edges = document.getElementsByTagName('g');
if (edges && edges.length) {
  for (var i=0;i<edges.length;i++) {
    if (edges[i].id.substr(0,4)=='edge') {
      edges[i].setAttribute('class','edge');
    }
  }
}
]]></script>
        <defs>
                <circle id="rim" cx="0" cy="0" r="7"/>
                <circle id="rim2" cx="0" cy="0" r="3.5"/>
                <g id="zoomPlus">
                        <use xlink:href="#rim" fill="#404040">
                                <set attributeName="fill" to="#808080" begin="zoomplus.mouseover" end="zoomplus.mouseout"/>
                        </use>
                        <path d="M-4,0h8M0,-4v8" fill="none" stroke="white" stroke-width="1.5" pointer-events="none"/>
                </g>
                <g id="zoomMin">
                        <use xlink:href="#rim" fill="#404040">
                                <set attributeName="fill" to="#808080" begin="zoomminus.mouseover" end="zoomminus.mouseout"/>
                        </use>
                        <path d="M-4,0h8" fill="none" stroke="white" stroke-width="1.5" pointer-events="none"/>
                </g>
                <g id="dirArrow">
                        <path fill="none" stroke="white" stroke-width="1.5" d="M0,-3.0v7 M-2.5,-0.5L0,-3.0L2.5,-0.5"/>
                </g>
               <g id="resetDef">
                       <use xlink:href="#rim2" fill="#404040">
                               <set attributeName="fill" to="#808080" begin="reset.mouseover" end="reset.mouseout"/>
                       </use>
               </g>
        </defs>

<script type="text/javascript">
var viewWidth = 1444;
var viewHeight = 132;
var sectionId = 'dynsection-0';
</script>
<script xlink:href="svgpan.js"/>
<svg id="graph" class="graph">
<g id="viewport">
<title>CDPL::Math::BoundedMatrix&lt; T, M, N &gt;</title>
<!-- Node1 -->
<g id="node1" class="node">
<title>Node1</title>
<g id="a_node1"><a xlink:title=" ">
<polygon fill="#bfbfbf" stroke="black" points="1294,-39 1294,-69 1436,-69 1436,-39 1294,-39"/>
<text text-anchor="start" x="1302" y="-57" font-family="Helvetica" font-size="10.00">CDPL::Math::BoundedMatrix</text>
<text text-anchor="middle" x="1365" y="-46" font-family="Helvetica" font-size="10.00">&lt; T, M, N &gt;</text>
</a>
</g>
</g>
<!-- Node2 -->
<g id="node2" class="node">
<title>Node2</title>
<g id="a_node2"><a xlink:href="classCDPL_1_1Math_1_1MatrixContainer.html" target="_top" xlink:title=" ">
<polygon fill="none" stroke="black" points="1106,-39 1106,-69 1257,-69 1257,-39 1106,-39"/>
<text text-anchor="start" x="1114" y="-57" font-family="Helvetica" font-size="10.00">CDPL::Math::MatrixContainer</text>
<text text-anchor="middle" x="1181.5" y="-46" font-family="Helvetica" font-size="10.00">&lt; BoundedMatrix&lt; T, M, N &gt; &gt;</text>
</a>
</g>
</g>
<!-- Node2&#45;&gt;Node1 -->
<g id="edge1" class="edge">
<title>Node2&#45;&gt;Node1</title>
<path fill="none" stroke="midnightblue" d="M1267.12,-54C1276.04,-54 1285.04,-54 1293.77,-54"/>
<polygon fill="midnightblue" stroke="midnightblue" points="1267.11,-50.5 1257.11,-54 1267.11,-57.5 1267.11,-50.5"/>
</g>
<!-- Node3 -->
<g id="node3" class="node">
<title>Node3</title>
<g id="a_node3"><a xlink:href="classCDPL_1_1Math_1_1MatrixExpression.html" target="_top" xlink:title=" ">
<polygon fill="none" stroke="black" points="602,-59 602,-89 754,-89 754,-59 602,-59"/>
<text text-anchor="start" x="610" y="-77" font-family="Helvetica" font-size="10.00">CDPL::Math::MatrixExpression</text>
<text text-anchor="middle" x="678" y="-66" font-family="Helvetica" font-size="10.00">&lt; BoundedMatrix&lt; T, M, N &gt; &gt;</text>
</a>
</g>
</g>
<!-- Node3&#45;&gt;Node2 -->
<g id="edge2" class="edge">
<title>Node3&#45;&gt;Node2</title>
<path fill="none" stroke="midnightblue" d="M764.13,-71.31C846.87,-68.59 976.08,-64.08 1088,-59 1093.78,-58.74 1099.77,-58.45 1105.79,-58.15"/>
<polygon fill="midnightblue" stroke="midnightblue" points="763.9,-67.81 754.02,-71.64 764.13,-74.81 763.9,-67.81"/>
</g>
<!-- Node4 -->
<g id="node4" class="node">
<title>Node4</title>
<g id="a_node4"><a xlink:href="classCDPL_1_1Math_1_1Expression.html" target="_top" xlink:title=" ">
<polygon fill="none" stroke="black" points="307,-82.5 307,-123.5 432,-123.5 432,-82.5 307,-82.5"/>
<text text-anchor="start" x="315" y="-111.5" font-family="Helvetica" font-size="10.00">CDPL::Math::Expression</text>
<text text-anchor="start" x="315" y="-100.5" font-family="Helvetica" font-size="10.00">&lt; BoundedMatrix&lt; T, M,</text>
<text text-anchor="middle" x="369.5" y="-89.5" font-family="Helvetica" font-size="10.00"> N &gt; &gt;</text>
</a>
</g>
</g>
<!-- Node4&#45;&gt;Node3 -->
<g id="edge3" class="edge">
<title>Node4&#45;&gt;Node3</title>
<path fill="none" stroke="midnightblue" d="M442.11,-101.04C480.43,-99.5 528.38,-96.77 571,-92 581.02,-90.88 591.52,-89.43 601.87,-87.84"/>
<polygon fill="midnightblue" stroke="midnightblue" points="441.93,-97.55 432.08,-101.43 442.2,-104.54 441.93,-97.55"/>
</g>
<!-- Node5 -->
<g id="node5" class="node">
<title>Node5</title>
<g id="a_node5"><a xlink:href="classCDPL_1_1Math_1_1Expression.html" target="_top" xlink:title=" ">
<polygon fill="none" stroke="black" points="0,-42.5 0,-61.5 150,-61.5 150,-42.5 0,-42.5"/>
<text text-anchor="middle" x="75" y="-49.5" font-family="Helvetica" font-size="10.00">CDPL::Math::Expression&lt; E &gt;</text>
</a>
</g>
</g>
<!-- Node5&#45;&gt;Node4 -->
<g id="edge4" class="edge">
<title>Node5&#45;&gt;Node4</title>
<path fill="none" stroke="orange" stroke-dasharray="5,2" d="M140.63,-63.27C190.13,-71.9 257.98,-83.73 306.75,-92.23"/>
<polygon fill="orange" stroke="orange" points="141.13,-59.8 130.67,-61.53 139.92,-66.7 141.13,-59.8"/>
<text text-anchor="start" x="168" y="-97" font-family="Helvetica" font-size="10.00"> &lt; BoundedMatrix&lt; T,</text>
<text text-anchor="middle" x="215.5" y="-86" font-family="Helvetica" font-size="10.00"> M, N &gt; &gt;</text>
</g>
<!-- Node6 -->
<g id="node6" class="node">
<title>Node6</title>
<g id="a_node6"><a xlink:href="classCDPL_1_1Math_1_1MatrixExpression.html" target="_top" xlink:title=" ">
<polygon fill="none" stroke="black" points="281,-42.5 281,-61.5 458,-61.5 458,-42.5 281,-42.5"/>
<text text-anchor="middle" x="369.5" y="-49.5" font-family="Helvetica" font-size="10.00">CDPL::Math::MatrixExpression&lt; E &gt;</text>
</a>
</g>
</g>
<!-- Node5&#45;&gt;Node6 -->
<g id="edge6" class="edge">
<title>Node5&#45;&gt;Node6</title>
<path fill="none" stroke="midnightblue" d="M160.64,-52C198.37,-52 242.8,-52 280.87,-52"/>
<polygon fill="midnightblue" stroke="midnightblue" points="160.19,-48.5 150.19,-52 160.19,-55.5 160.19,-48.5"/>
</g>
<!-- Node9 -->
<g id="node9" class="node">
<title>Node9</title>
<g id="a_node9"><a xlink:href="classCDPL_1_1Math_1_1Expression.html" target="_top" xlink:title=" ">
<polygon fill="none" stroke="black" points="294,-0.5 294,-19.5 445,-19.5 445,-0.5 294,-0.5"/>
<text text-anchor="middle" x="369.5" y="-7.5" font-family="Helvetica" font-size="10.00">CDPL::Math::Expression&lt; C &gt;</text>
</a>
</g>
</g>
<!-- Node5&#45;&gt;Node9 -->
<g id="edge10" class="edge">
<title>Node5&#45;&gt;Node9</title>
<path fill="none" stroke="orange" stroke-dasharray="5,2" d="M142.78,-40.89C151.26,-39.54 159.83,-38.22 168,-37 209.69,-30.8 256.35,-24.48 294.16,-19.51"/>
<polygon fill="orange" stroke="orange" points="142.21,-37.43 132.89,-42.47 143.32,-44.35 142.21,-37.43"/>
<text text-anchor="middle" x="215.5" y="-40" font-family="Helvetica" font-size="10.00"> &lt; C &gt;</text>
</g>
<!-- Node6&#45;&gt;Node3 -->
<g id="edge5" class="edge">
<title>Node6&#45;&gt;Node3</title>
<path fill="none" stroke="orange" stroke-dasharray="5,2" d="M468.31,-59.02C511.56,-62.13 561.63,-65.72 601.88,-68.61"/>
<polygon fill="orange" stroke="orange" points="468.56,-55.53 458.33,-58.3 468.05,-62.51 468.56,-55.53"/>
<text text-anchor="start" x="476" y="-80" font-family="Helvetica" font-size="10.00"> &lt; BoundedMatrix&lt; T,</text>
<text text-anchor="middle" x="523.5" y="-69" font-family="Helvetica" font-size="10.00"> M, N &gt; &gt;</text>
</g>
<!-- Node8 -->
<g id="node8" class="node">
<title>Node8</title>
<g id="a_node8"><a xlink:href="classCDPL_1_1Math_1_1MatrixExpression.html" target="_top" xlink:title=" ">
<polygon fill="none" stroke="black" points="589,-20.5 589,-39.5 767,-39.5 767,-20.5 589,-20.5"/>
<text text-anchor="middle" x="678" y="-27.5" font-family="Helvetica" font-size="10.00">CDPL::Math::MatrixExpression&lt; C &gt;</text>
</a>
</g>
</g>
<!-- Node6&#45;&gt;Node8 -->
<g id="edge11" class="edge">
<title>Node6&#45;&gt;Node8</title>
<path fill="none" stroke="orange" stroke-dasharray="5,2" d="M468.21,-44.57C470.84,-44.38 473.44,-44.19 476,-44 512.98,-41.31 553.8,-38.45 588.93,-36.02"/>
<polygon fill="orange" stroke="orange" points="467.72,-41.1 458,-45.32 468.23,-48.08 467.72,-41.1"/>
<text text-anchor="middle" x="523.5" y="-47" font-family="Helvetica" font-size="10.00"> &lt; C &gt;</text>
</g>
<!-- Node7 -->
<g id="node7" class="node">
<title>Node7</title>
<g id="a_node7"><a xlink:href="classCDPL_1_1Math_1_1MatrixContainer.html" target="_top" xlink:title=" ">
<polygon fill="none" stroke="black" points="804,-24.5 804,-43.5 975,-43.5 975,-24.5 804,-24.5"/>
<text text-anchor="middle" x="889.5" y="-31.5" font-family="Helvetica" font-size="10.00">CDPL::Math::MatrixContainer&lt; C &gt;</text>
</a>
</g>
</g>
<!-- Node7&#45;&gt;Node2 -->
<g id="edge7" class="edge">
<title>Node7&#45;&gt;Node2</title>
<path fill="none" stroke="orange" stroke-dasharray="5,2" d="M985.66,-32.25C1018.19,-32.5 1054.74,-33.71 1088,-37 1093.85,-37.58 1099.88,-38.33 1105.93,-39.19"/>
<polygon fill="orange" stroke="orange" points="985.27,-28.74 975.25,-32.2 985.23,-35.74 985.27,-28.74"/>
<text text-anchor="start" x="993" y="-51" font-family="Helvetica" font-size="10.00"> &lt; BoundedMatrix&lt; T,</text>
<text text-anchor="middle" x="1040.5" y="-40" font-family="Helvetica" font-size="10.00"> M, N &gt; &gt;</text>
</g>
<!-- Node8&#45;&gt;Node7 -->
<g id="edge8" class="edge">
<title>Node8&#45;&gt;Node7</title>
<path fill="none" stroke="midnightblue" d="M777.49,-31.88C786.25,-32.05 795.07,-32.22 803.71,-32.38"/>
<polygon fill="midnightblue" stroke="midnightblue" points="777.3,-28.38 767.24,-31.68 777.17,-35.38 777.3,-28.38"/>
</g>
<!-- Node9&#45;&gt;Node8 -->
<g id="edge9" class="edge">
<title>Node9&#45;&gt;Node8</title>
<path fill="none" stroke="midnightblue" d="M455.71,-10.64C491.38,-11.41 533.25,-12.95 571,-16 584.6,-17.1 599.13,-18.72 612.93,-20.47"/>
<polygon fill="midnightblue" stroke="midnightblue" points="455.41,-7.14 445.34,-10.44 455.27,-14.14 455.41,-7.14"/>
</g>
</g>
</svg>
        <g id="navigator" transform="translate(0 0)" fill="#404254">
                <rect fill="#f2f5e9" fill-opacity="0.5" stroke="#606060" stroke-width=".5" x="0" y="0" width="60" height="60"/>
                <use id="zoomplus" xlink:href="#zoomPlus" x="17" y="9" onmousedown="handleZoom(evt,'in')"/>
                <use id="zoomminus" xlink:href="#zoomMin" x="42" y="9" onmousedown="handleZoom(evt,'out')"/>
                <use id="reset" xlink:href="#resetDef" x="30" y="36" onmousedown="handleReset()"/>
                <g id="arrowUp" xlink:href="#dirArrow" transform="translate(30 24)" onmousedown="handlePan(0,-1)">
                  <use xlink:href="#rim" fill="#404040">
                        <set attributeName="fill" to="#808080" begin="arrowUp.mouseover" end="arrowUp.mouseout"/>
                  </use>
                  <path fill="none" stroke="white" stroke-width="1.5" d="M0,-3.0v7 M-2.5,-0.5L0,-3.0L2.5,-0.5"/>
                </g>
                <g id="arrowRight" xlink:href="#dirArrow" transform="rotate(90) translate(36 -43)" onmousedown="handlePan(1,0)">
                  <use xlink:href="#rim" fill="#404040">
                        <set attributeName="fill" to="#808080" begin="arrowRight.mouseover" end="arrowRight.mouseout"/>
                  </use>
                  <path fill="none" stroke="white" stroke-width="1.5" d="M0,-3.0v7 M-2.5,-0.5L0,-3.0L2.5,-0.5"/>
                </g>
                <g id="arrowDown" xlink:href="#dirArrow" transform="rotate(180) translate(-30 -48)" onmousedown="handlePan(0,1)">
                  <use xlink:href="#rim" fill="#404040">
                        <set attributeName="fill" to="#808080" begin="arrowDown.mouseover" end="arrowDown.mouseout"/>
                  </use>
                  <path fill="none" stroke="white" stroke-width="1.5" d="M0,-3.0v7 M-2.5,-0.5L0,-3.0L2.5,-0.5"/>
                </g>
                <g id="arrowLeft" xlink:href="#dirArrow" transform="rotate(270) translate(-36 17)" onmousedown="handlePan(-1,0)">
                  <use xlink:href="#rim" fill="#404040">
                        <set attributeName="fill" to="#808080" begin="arrowLeft.mouseover" end="arrowLeft.mouseout"/>
                  </use>
                  <path fill="none" stroke="white" stroke-width="1.5" d="M0,-3.0v7 M-2.5,-0.5L0,-3.0L2.5,-0.5"/>
                </g>
        </g>
        <svg viewBox="0 0 15 15" width="100%" height="30px" preserveAspectRatio="xMaxYMin meet">
         <g id="arrow_out" transform="scale(0.3 0.3)">
          <a xlink:href="classCDPL_1_1Math_1_1BoundedMatrix__inherit__graph_org.svg" target="_base">
           <rect id="button" ry="5" rx="5" y="6" x="6" height="38" width="38"
                fill="#f2f5e9" fill-opacity="0.5" stroke="#606060" stroke-width="1.0"/>
           <path id="arrow"
             d="M 11.500037,31.436501 C 11.940474,20.09759 22.043105,11.32322 32.158766,21.979434 L 37.068811,17.246167 C 37.068811,17.246167 37.088388,32 37.088388,32 L 22.160133,31.978069 C 22.160133,31.978069 26.997745,27.140456 26.997745,27.140456 C 18.528582,18.264221 13.291696,25.230495 11.500037,31.436501 z"
             style="fill:#404040;"/>
          </a>
         </g>
        </svg>
</svg>
