<?xml version="1.0" encoding="UTF-8" standalone="no"?>
<!DOCTYPE svg PUBLIC "-//W3C//DTD SVG 1.1//EN"
 "http://www.w3.org/Graphics/SVG/1.1/DTD/svg11.dtd">
<!-- Generated by graphviz version 2.44.0 (0)
 -->
<!-- Title: CDPL::Math::QuaternionReference&lt; Q &gt; Pages: 1 -->
<svg width="1039pt" height="88pt"
 viewBox="0.00 0.00 1039.00 88.00" xmlns="http://www.w3.org/2000/svg" xmlns:xlink="http://www.w3.org/1999/xlink">
<g id="graph0" class="graph" transform="scale(1 1) rotate(0) translate(4 84)">
<title>CDPL::Math::QuaternionReference&lt; Q &gt;</title>
<!-- Node1 -->
<g id="node1" class="node">
<title>Node1</title>
<g id="a_node1"><a xlink:title=" ">
<polygon fill="#bfbfbf" stroke="black" points="837,-26.5 837,-45.5 1031,-45.5 1031,-26.5 837,-26.5"/>
<text text-anchor="middle" x="934" y="-33.5" font-family="Helvetica" font-size="10.00">CDPL::Math::QuaternionReference&lt; Q &gt;</text>
</a>
</g>
</g>
<!-- Node2 -->
<g id="node2" class="node">
<title>Node2</title>
<g id="a_node2"><a xlink:href="classCDPL_1_1Math_1_1QuaternionExpression.html" target="_top" xlink:title=" ">
<polygon fill="none" stroke="black" points="627,-21 627,-51 800,-51 800,-21 627,-21"/>
<text text-anchor="start" x="635" y="-39" font-family="Helvetica" font-size="10.00">CDPL::Math::QuaternionExpression</text>
<text text-anchor="middle" x="713.5" y="-28" font-family="Helvetica" font-size="10.00">&lt; QuaternionReference&lt; Q &gt; &gt;</text>
</a>
</g>
</g>
<!-- Node2&#45;&gt;Node1 -->
<g id="edge1" class="edge">
<title>Node2&#45;&gt;Node1</title>
<path fill="none" stroke="midnightblue" d="M810.4,-36C819.12,-36 827.95,-36 836.67,-36"/>
<polygon fill="midnightblue" stroke="midnightblue" points="810.23,-32.5 800.23,-36 810.23,-39.5 810.23,-32.5"/>
</g>
<!-- Node3 -->
<g id="node3" class="node">
<title>Node3</title>
<g id="a_node3"><a xlink:href="classCDPL_1_1Math_1_1Expression.html" target="_top" xlink:title=" ">
<polygon fill="none" stroke="black" points="326,-38.5 326,-79.5 451,-79.5 451,-38.5 326,-38.5"/>
<text text-anchor="start" x="334" y="-67.5" font-family="Helvetica" font-size="10.00">CDPL::Math::Expression</text>
<text text-anchor="start" x="334" y="-56.5" font-family="Helvetica" font-size="10.00">&lt; QuaternionReference</text>
<text text-anchor="middle" x="388.5" y="-45.5" font-family="Helvetica" font-size="10.00">&lt; Q &gt; &gt;</text>
</a>
</g>
</g>
<!-- Node3&#45;&gt;Node2 -->
<g id="edge2" class="edge">
<title>Node3&#45;&gt;Node2</title>
<path fill="none" stroke="midnightblue" d="M461.2,-53.89C510.12,-50.41 575.16,-45.78 626.82,-42.1"/>
<polygon fill="midnightblue" stroke="midnightblue" points="460.74,-50.42 451.01,-54.62 461.24,-57.4 460.74,-50.42"/>
</g>
<!-- Node4 -->
<g id="node4" class="node">
<title>Node4</title>
<g id="a_node4"><a xlink:href="classCDPL_1_1Math_1_1Expression.html" target="_top" xlink:title=" ">
<polygon fill="none" stroke="black" points="0,-24.5 0,-43.5 150,-43.5 150,-24.5 0,-24.5"/>
<text text-anchor="middle" x="75" y="-31.5" font-family="Helvetica" font-size="10.00">CDPL::Math::Expression&lt; E &gt;</text>
</a>
</g>
</g>
<!-- Node4&#45;&gt;Node3 -->
<g id="edge3" class="edge">
<title>Node4&#45;&gt;Node3</title>
<path fill="none" stroke="orange" stroke-dasharray="5,2" d="M160.47,-40.78C212.71,-44.97 278.58,-50.26 325.9,-54.06"/>
<polygon fill="orange" stroke="orange" points="160.46,-37.27 150.22,-39.96 159.9,-44.25 160.46,-37.27"/>
<text text-anchor="start" x="168" y="-63" font-family="Helvetica" font-size="10.00"> &lt; QuaternionReference</text>
<text text-anchor="middle" x="220" y="-52" font-family="Helvetica" font-size="10.00">&lt; Q &gt; &gt;</text>
</g>
<!-- Node5 -->
<g id="node5" class="node">
<title>Node5</title>
<g id="a_node5"><a xlink:href="classCDPL_1_1Math_1_1QuaternionExpression.html" target="_top" xlink:title=" ">
<polygon fill="none" stroke="black" points="290,-0.5 290,-19.5 487,-19.5 487,-0.5 290,-0.5"/>
<text text-anchor="middle" x="388.5" y="-7.5" font-family="Helvetica" font-size="10.00">CDPL::Math::QuaternionExpression&lt; E &gt;</text>
</a>
</g>
</g>
<!-- Node4&#45;&gt;Node5 -->
<g id="edge5" class="edge">
<title>Node4&#45;&gt;Node5</title>
<path fill="none" stroke="midnightblue" d="M160.21,-27.51C200.25,-24.43 248.35,-20.72 289.97,-17.51"/>
<polygon fill="midnightblue" stroke="midnightblue" points="159.92,-24.02 150.22,-28.28 160.46,-31 159.92,-24.02"/>
</g>
<!-- Node5&#45;&gt;Node2 -->
<g id="edge4" class="edge">
<title>Node5&#45;&gt;Node2</title>
<path fill="none" stroke="orange" stroke-dasharray="5,2" d="M497.64,-10.24C533.19,-11.17 572.86,-13.13 609,-17 618.45,-18.01 628.32,-19.4 638.07,-20.96"/>
<polygon fill="orange" stroke="orange" points="497.32,-6.73 487.24,-9.99 497.15,-13.73 497.32,-6.73"/>
<text text-anchor="start" x="505" y="-31" font-family="Helvetica" font-size="10.00"> &lt; QuaternionReference</text>
<text text-anchor="middle" x="557" y="-20" font-family="Helvetica" font-size="10.00">&lt; Q &gt; &gt;</text>
</g>
</g>
</svg>
