<?xml version="1.0" encoding="UTF-8" standalone="no"?>
<!DOCTYPE svg PUBLIC "-//W3C//DTD SVG 1.1//EN"
 "http://www.w3.org/Graphics/SVG/1.1/DTD/svg11.dtd">
<!-- Generated by graphviz version 2.44.0 (0)
 -->
<!-- Title: CDPL::Grid::CDFDRegularGridReader Pages: 1 -->
<!--zoomable 456 -->
<svg id="main" version="1.1" xmlns="http://www.w3.org/2000/svg" xmlns:xlink="http://www.w3.org/1999/xlink" xml:space="preserve" onload="init(evt)">
<style type="text/css"><![CDATA[
.edge:hover path { stroke: red; }
.edge:hover polygon { stroke: red; fill: red; }
]]></style>
<script type="text/javascript"><![CDATA[
var edges = document.getElementsByTagName('g');
if (edges && edges.length) {
  for (var i=0;i<edges.length;i++) {
    if (edges[i].id.substr(0,4)=='edge') {
      edges[i].setAttribute('class','edge');
    }
  }
}
]]></script>
        <defs>
                <circle id="rim" cx="0" cy="0" r="7"/>
                <circle id="rim2" cx="0" cy="0" r="3.5"/>
                <g id="zoomPlus">
                        <use xlink:href="#rim" fill="#404040">
                                <set attributeName="fill" to="#808080" begin="zoomplus.mouseover" end="zoomplus.mouseout"/>
                        </use>
                        <path d="M-4,0h8M0,-4v8" fill="none" stroke="white" stroke-width="1.5" pointer-events="none"/>
                </g>
                <g id="zoomMin">
                        <use xlink:href="#rim" fill="#404040">
                                <set attributeName="fill" to="#808080" begin="zoomminus.mouseover" end="zoomminus.mouseout"/>
                        </use>
                        <path d="M-4,0h8" fill="none" stroke="white" stroke-width="1.5" pointer-events="none"/>
                </g>
                <g id="dirArrow">
                        <path fill="none" stroke="white" stroke-width="1.5" d="M0,-3.0v7 M-2.5,-0.5L0,-3.0L2.5,-0.5"/>
                </g>
               <g id="resetDef">
                       <use xlink:href="#rim2" fill="#404040">
                               <set attributeName="fill" to="#808080" begin="reset.mouseover" end="reset.mouseout"/>
                       </use>
               </g>
        </defs>

<script type="text/javascript">
var viewWidth = 305;
var viewHeight = 456;
var sectionId = 'dynsection-0';
</script>
<script xlink:href="svgpan.js"/>
<svg id="graph" class="graph">
<g id="viewport">
<title>CDPL::Grid::CDFDRegularGridReader</title>
<!-- Node1 -->
<g id="node1" class="node">
<title>Node1</title>
<g id="a_node1"><a xlink:title="A reader for spatial regular grid data in the native I/O format of the CDPL.">
<polygon fill="#bfbfbf" stroke="black" points="28.5,-0.5 28.5,-30.5 180.5,-30.5 180.5,-0.5 28.5,-0.5"/>
<text text-anchor="start" x="36.5" y="-18.5" font-family="Helvetica" font-size="10.00">CDPL::Grid::CDFDRegularGrid</text>
<text text-anchor="middle" x="104.5" y="-7.5" font-family="Helvetica" font-size="10.00">Reader</text>
</a>
</g>
</g>
<!-- Node2 -->
<g id="node2" class="node">
<title>Node2</title>
<g id="a_node2"><a xlink:href="classCDPL_1_1Util_1_1StreamDataReader.html" target="_top" xlink:title=" ">
<polygon fill="none" stroke="black" points="0,-68.5 0,-98.5 209,-98.5 209,-68.5 0,-68.5"/>
<text text-anchor="start" x="8" y="-86.5" font-family="Helvetica" font-size="10.00">CDPL::Util::StreamDataReader</text>
<text text-anchor="middle" x="104.5" y="-75.5" font-family="Helvetica" font-size="10.00">&lt; DRegularGrid, CDFDRegularGridReader &gt;</text>
</a>
</g>
</g>
<!-- Node2&#45;&gt;Node1 -->
<g id="edge1" class="edge">
<title>Node2&#45;&gt;Node1</title>
<path fill="none" stroke="midnightblue" d="M104.5,-58.03C104.5,-48.86 104.5,-38.74 104.5,-30.79"/>
<polygon fill="midnightblue" stroke="midnightblue" points="101,-58.18 104.5,-68.18 108,-58.18 101,-58.18"/>
</g>
<!-- Node3 -->
<g id="node3" class="node">
<title>Node3</title>
<g id="a_node3"><a xlink:href="classCDPL_1_1Base_1_1DataReader.html" target="_top" xlink:title="An interface for reading data objects of a given type from an arbitrary data source.">
<polygon fill="none" stroke="black" points="19.5,-303.5 19.5,-322.5 171.5,-322.5 171.5,-303.5 19.5,-303.5"/>
<text text-anchor="middle" x="95.5" y="-310.5" font-family="Helvetica" font-size="10.00">CDPL::Base::DataReader&lt; T &gt;</text>
</a>
</g>
</g>
<!-- Node3&#45;&gt;Node2 -->
<g id="edge2" class="edge">
<title>Node3&#45;&gt;Node2</title>
<path fill="none" stroke="midnightblue" d="M96.25,-293.11C98.01,-248.6 102.39,-137.93 103.94,-98.62"/>
<polygon fill="midnightblue" stroke="midnightblue" points="92.74,-293.23 95.84,-303.36 99.73,-293.51 92.74,-293.23"/>
</g>
<!-- Node7 -->
<g id="node7" class="node">
<title>Node7</title>
<g id="a_node7"><a xlink:href="classCDPL_1_1Base_1_1DataReader.html" target="_top" xlink:title=" ">
<polygon fill="none" stroke="black" points="128.5,-225.5 128.5,-255.5 256.5,-255.5 256.5,-225.5 128.5,-225.5"/>
<text text-anchor="start" x="136.5" y="-243.5" font-family="Helvetica" font-size="10.00">CDPL::Base::DataReader</text>
<text text-anchor="middle" x="192.5" y="-232.5" font-family="Helvetica" font-size="10.00">&lt; DataType &gt;</text>
</a>
</g>
</g>
<!-- Node3&#45;&gt;Node7 -->
<g id="edge8" class="edge">
<title>Node3&#45;&gt;Node7</title>
<path fill="none" stroke="orange" stroke-dasharray="5,2" d="M105.15,-294.57C109.71,-287.51 115.66,-279.69 122.5,-274 131.46,-266.55 142.42,-260.4 152.98,-255.54"/>
<polygon fill="orange" stroke="orange" points="101.96,-293.09 99.84,-303.47 107.97,-296.68 101.96,-293.09"/>
<text text-anchor="middle" x="154" y="-277" font-family="Helvetica" font-size="10.00"> &lt; DataType &gt;</text>
</g>
<!-- Node4 -->
<g id="node4" class="node">
<title>Node4</title>
<g id="a_node4"><a xlink:href="classCDPL_1_1Base_1_1DataIOBase.html" target="_top" xlink:title="Provides infrastructure for the registration of I/O callback functions.">
<polygon fill="none" stroke="black" points="82,-360.5 82,-379.5 213,-379.5 213,-360.5 82,-360.5"/>
<text text-anchor="middle" x="147.5" y="-367.5" font-family="Helvetica" font-size="10.00">CDPL::Base::DataIOBase</text>
</a>
</g>
</g>
<!-- Node4&#45;&gt;Node3 -->
<g id="edge3" class="edge">
<title>Node4&#45;&gt;Node3</title>
<path fill="none" stroke="midnightblue" d="M132.49,-353.12C123.13,-343.22 111.44,-330.86 103.74,-322.71"/>
<polygon fill="midnightblue" stroke="midnightblue" points="129.96,-355.54 139.38,-360.41 135.05,-350.74 129.96,-355.54"/>
</g>
<!-- Node4&#45;&gt;Node7 -->
<g id="edge7" class="edge">
<title>Node4&#45;&gt;Node7</title>
<path fill="none" stroke="midnightblue" d="M162.26,-352.53C168.89,-344.23 176.18,-333.69 180.5,-323 189.56,-300.59 191.89,-272.25 192.42,-255.58"/>
<polygon fill="midnightblue" stroke="midnightblue" points="159.51,-350.36 155.75,-360.27 164.86,-354.87 159.51,-350.36"/>
</g>
<!-- Node5 -->
<g id="node5" class="node">
<title>Node5</title>
<g id="a_node5"><a xlink:href="classCDPL_1_1Base_1_1ControlParameterContainer.html" target="_top" xlink:title="A class providing methods for the storage and lookup of control&#45;parameter values.">
<polygon fill="none" stroke="black" points="70.5,-417.5 70.5,-447.5 224.5,-447.5 224.5,-417.5 70.5,-417.5"/>
<text text-anchor="start" x="78.5" y="-435.5" font-family="Helvetica" font-size="10.00">CDPL::Base::ControlParameter</text>
<text text-anchor="middle" x="147.5" y="-424.5" font-family="Helvetica" font-size="10.00">Container</text>
</a>
</g>
</g>
<!-- Node5&#45;&gt;Node4 -->
<g id="edge4" class="edge">
<title>Node5&#45;&gt;Node4</title>
<path fill="none" stroke="midnightblue" d="M147.5,-407.35C147.5,-397.51 147.5,-386.78 147.5,-379.54"/>
<polygon fill="midnightblue" stroke="midnightblue" points="144,-407.47 147.5,-417.47 151,-407.47 144,-407.47"/>
</g>
<!-- Node6 -->
<g id="node6" class="node">
<title>Node6</title>
<g id="a_node6"><a xlink:href="classCDPL_1_1Util_1_1StreamDataReader.html" target="_top" xlink:title="A helper class that implements Base::DataReader for std::istream based data readers.">
<polygon fill="none" stroke="black" points="116.5,-157.5 116.5,-187.5 268.5,-187.5 268.5,-157.5 116.5,-157.5"/>
<text text-anchor="start" x="124.5" y="-175.5" font-family="Helvetica" font-size="10.00">CDPL::Util::StreamDataReader</text>
<text text-anchor="middle" x="192.5" y="-164.5" font-family="Helvetica" font-size="10.00">&lt; DataType, ReaderImpl &gt;</text>
</a>
</g>
</g>
<!-- Node6&#45;&gt;Node2 -->
<g id="edge5" class="edge">
<title>Node6&#45;&gt;Node2</title>
<path fill="none" stroke="orange" stroke-dasharray="5,2" d="M170.51,-149.76C154.31,-133.74 132.76,-112.44 118.76,-98.6"/>
<polygon fill="orange" stroke="orange" points="168.4,-152.59 177.97,-157.13 173.32,-147.61 168.4,-152.59"/>
<text text-anchor="start" x="158.5" y="-131" font-family="Helvetica" font-size="10.00"> &lt; DRegularGrid, CDFDRegular</text>
<text text-anchor="middle" x="227.5" y="-120" font-family="Helvetica" font-size="10.00">GridReader &gt;</text>
</g>
<!-- Node7&#45;&gt;Node6 -->
<g id="edge6" class="edge">
<title>Node7&#45;&gt;Node6</title>
<path fill="none" stroke="midnightblue" d="M192.5,-215.03C192.5,-205.86 192.5,-195.74 192.5,-187.79"/>
<polygon fill="midnightblue" stroke="midnightblue" points="189,-215.18 192.5,-225.18 196,-215.18 189,-215.18"/>
</g>
</g>
</svg>
        <g id="navigator" transform="translate(0 0)" fill="#404254">
                <rect fill="#f2f5e9" fill-opacity="0.5" stroke="#606060" stroke-width=".5" x="0" y="0" width="60" height="60"/>
                <use id="zoomplus" xlink:href="#zoomPlus" x="17" y="9" onmousedown="handleZoom(evt,'in')"/>
                <use id="zoomminus" xlink:href="#zoomMin" x="42" y="9" onmousedown="handleZoom(evt,'out')"/>
                <use id="reset" xlink:href="#resetDef" x="30" y="36" onmousedown="handleReset()"/>
                <g id="arrowUp" xlink:href="#dirArrow" transform="translate(30 24)" onmousedown="handlePan(0,-1)">
                  <use xlink:href="#rim" fill="#404040">
                        <set attributeName="fill" to="#808080" begin="arrowUp.mouseover" end="arrowUp.mouseout"/>
                  </use>
                  <path fill="none" stroke="white" stroke-width="1.5" d="M0,-3.0v7 M-2.5,-0.5L0,-3.0L2.5,-0.5"/>
                </g>
                <g id="arrowRight" xlink:href="#dirArrow" transform="rotate(90) translate(36 -43)" onmousedown="handlePan(1,0)">
                  <use xlink:href="#rim" fill="#404040">
                        <set attributeName="fill" to="#808080" begin="arrowRight.mouseover" end="arrowRight.mouseout"/>
                  </use>
                  <path fill="none" stroke="white" stroke-width="1.5" d="M0,-3.0v7 M-2.5,-0.5L0,-3.0L2.5,-0.5"/>
                </g>
                <g id="arrowDown" xlink:href="#dirArrow" transform="rotate(180) translate(-30 -48)" onmousedown="handlePan(0,1)">
                  <use xlink:href="#rim" fill="#404040">
                        <set attributeName="fill" to="#808080" begin="arrowDown.mouseover" end="arrowDown.mouseout"/>
                  </use>
                  <path fill="none" stroke="white" stroke-width="1.5" d="M0,-3.0v7 M-2.5,-0.5L0,-3.0L2.5,-0.5"/>
                </g>
                <g id="arrowLeft" xlink:href="#dirArrow" transform="rotate(270) translate(-36 17)" onmousedown="handlePan(-1,0)">
                  <use xlink:href="#rim" fill="#404040">
                        <set attributeName="fill" to="#808080" begin="arrowLeft.mouseover" end="arrowLeft.mouseout"/>
                  </use>
                  <path fill="none" stroke="white" stroke-width="1.5" d="M0,-3.0v7 M-2.5,-0.5L0,-3.0L2.5,-0.5"/>
                </g>
        </g>
        <svg viewBox="0 0 15 15" width="100%" height="30px" preserveAspectRatio="xMaxYMin meet">
         <g id="arrow_out" transform="scale(0.3 0.3)">
          <a xlink:href="classCDPL_1_1Grid_1_1CDFDRegularGridReader__inherit__graph_org.svg" target="_base">
           <rect id="button" ry="5" rx="5" y="6" x="6" height="38" width="38"
                fill="#f2f5e9" fill-opacity="0.5" stroke="#606060" stroke-width="1.0"/>
           <path id="arrow"
             d="M 11.500037,31.436501 C 11.940474,20.09759 22.043105,11.32322 32.158766,21.979434 L 37.068811,17.246167 C 37.068811,17.246167 37.088388,32 37.088388,32 L 22.160133,31.978069 C 22.160133,31.978069 26.997745,27.140456 26.997745,27.140456 C 18.528582,18.264221 13.291696,25.230495 11.500037,31.436501 z"
             style="fill:#404040;"/>
          </a>
         </g>
        </svg>
</svg>
