<?xml version="1.0" encoding="UTF-8" standalone="no"?>
<!DOCTYPE svg PUBLIC "-//W3C//DTD SVG 1.1//EN"
 "http://www.w3.org/Graphics/SVG/1.1/DTD/svg11.dtd">
<!-- Generated by graphviz version 2.44.0 (0)
 -->
<!-- Title: CDPL::Math::ZeroGrid&lt; T &gt; Pages: 1 -->
<svg width="1363pt" height="120pt"
 viewBox="0.00 0.00 1363.00 119.50" xmlns="http://www.w3.org/2000/svg" xmlns:xlink="http://www.w3.org/1999/xlink">
<g id="graph0" class="graph" transform="scale(1 1) rotate(0) translate(4 115.5)">
<title>CDPL::Math::ZeroGrid&lt; T &gt;</title>
<!-- Node1 -->
<g id="node1" class="node">
<title>Node1</title>
<g id="a_node1"><a xlink:title=" ">
<polygon fill="#bfbfbf" stroke="black" points="1217,-47.5 1217,-66.5 1355,-66.5 1355,-47.5 1217,-47.5"/>
<text text-anchor="middle" x="1286" y="-54.5" font-family="Helvetica" font-size="10.00">CDPL::Math::ZeroGrid&lt; T &gt;</text>
</a>
</g>
</g>
<!-- Node2 -->
<g id="node2" class="node">
<title>Node2</title>
<g id="a_node2"><a xlink:href="classCDPL_1_1Math_1_1GridContainer.html" target="_top" xlink:title=" ">
<polygon fill="none" stroke="black" points="1043,-42 1043,-72 1180,-72 1180,-42 1043,-42"/>
<text text-anchor="start" x="1051" y="-60" font-family="Helvetica" font-size="10.00">CDPL::Math::GridContainer</text>
<text text-anchor="middle" x="1111.5" y="-49" font-family="Helvetica" font-size="10.00">&lt; ZeroGrid&lt; T &gt; &gt;</text>
</a>
</g>
</g>
<!-- Node2&#45;&gt;Node1 -->
<g id="edge1" class="edge">
<title>Node2&#45;&gt;Node1</title>
<path fill="none" stroke="midnightblue" d="M1190.19,-57C1199.11,-57 1208.16,-57 1216.95,-57"/>
<polygon fill="midnightblue" stroke="midnightblue" points="1190.18,-53.5 1180.18,-57 1190.18,-60.5 1190.18,-53.5"/>
</g>
<!-- Node3 -->
<g id="node3" class="node">
<title>Node3</title>
<g id="a_node3"><a xlink:href="classCDPL_1_1Math_1_1GridExpression.html" target="_top" xlink:title=" ">
<polygon fill="none" stroke="black" points="569,-62 569,-92 712,-92 712,-62 569,-62"/>
<text text-anchor="start" x="577" y="-80" font-family="Helvetica" font-size="10.00">CDPL::Math::GridExpression</text>
<text text-anchor="middle" x="640.5" y="-69" font-family="Helvetica" font-size="10.00">&lt; ZeroGrid&lt; T &gt; &gt;</text>
</a>
</g>
</g>
<!-- Node3&#45;&gt;Node2 -->
<g id="edge2" class="edge">
<title>Node3&#45;&gt;Node2</title>
<path fill="none" stroke="midnightblue" d="M722.39,-74.29C800.02,-71.58 920.55,-67.1 1025,-62 1030.79,-61.72 1036.8,-61.4 1042.83,-61.08"/>
<polygon fill="midnightblue" stroke="midnightblue" points="722.07,-70.8 712.2,-74.64 722.32,-77.79 722.07,-70.8"/>
</g>
<!-- Node4 -->
<g id="node4" class="node">
<title>Node4</title>
<g id="a_node4"><a xlink:href="classCDPL_1_1Math_1_1Expression.html" target="_top" xlink:title=" ">
<polygon fill="none" stroke="black" points="290.5,-81 290.5,-111 415.5,-111 415.5,-81 290.5,-81"/>
<text text-anchor="start" x="298.5" y="-99" font-family="Helvetica" font-size="10.00">CDPL::Math::Expression</text>
<text text-anchor="middle" x="353" y="-88" font-family="Helvetica" font-size="10.00">&lt; ZeroGrid&lt; T &gt; &gt;</text>
</a>
</g>
</g>
<!-- Node4&#45;&gt;Node3 -->
<g id="edge3" class="edge">
<title>Node4&#45;&gt;Node3</title>
<path fill="none" stroke="midnightblue" d="M426.06,-91.36C460.02,-89.16 501.09,-86.48 538,-84 547.96,-83.33 558.46,-82.62 568.79,-81.91"/>
<polygon fill="midnightblue" stroke="midnightblue" points="425.51,-87.89 415.76,-92.03 425.96,-94.88 425.51,-87.89"/>
</g>
<!-- Node5 -->
<g id="node5" class="node">
<title>Node5</title>
<g id="a_node5"><a xlink:href="classCDPL_1_1Math_1_1Expression.html" target="_top" xlink:title=" ">
<polygon fill="none" stroke="black" points="0,-41.5 0,-60.5 150,-60.5 150,-41.5 0,-41.5"/>
<text text-anchor="middle" x="75" y="-48.5" font-family="Helvetica" font-size="10.00">CDPL::Math::Expression&lt; E &gt;</text>
</a>
</g>
</g>
<!-- Node5&#45;&gt;Node4 -->
<g id="edge4" class="edge">
<title>Node5&#45;&gt;Node4</title>
<path fill="none" stroke="orange" stroke-dasharray="5,2" d="M144.43,-62.16C189.09,-69.44 246.93,-78.87 290.2,-85.92"/>
<polygon fill="orange" stroke="orange" points="144.97,-58.7 134.53,-60.54 143.84,-65.61 144.97,-58.7"/>
<text text-anchor="middle" x="209.5" y="-81" font-family="Helvetica" font-size="10.00"> &lt; ZeroGrid&lt; T &gt; &gt;</text>
</g>
<!-- Node6 -->
<g id="node6" class="node">
<title>Node6</title>
<g id="a_node6"><a xlink:href="classCDPL_1_1Math_1_1GridExpression.html" target="_top" xlink:title=" ">
<polygon fill="none" stroke="black" points="269,-41.5 269,-60.5 437,-60.5 437,-41.5 269,-41.5"/>
<text text-anchor="middle" x="353" y="-48.5" font-family="Helvetica" font-size="10.00">CDPL::Math::GridExpression&lt; E &gt;</text>
</a>
</g>
</g>
<!-- Node5&#45;&gt;Node6 -->
<g id="edge6" class="edge">
<title>Node5&#45;&gt;Node6</title>
<path fill="none" stroke="midnightblue" d="M160.36,-51C194.78,-51 234.48,-51 268.78,-51"/>
<polygon fill="midnightblue" stroke="midnightblue" points="160.33,-47.5 150.33,-51 160.33,-54.5 160.33,-47.5"/>
</g>
<!-- Node9 -->
<g id="node9" class="node">
<title>Node9</title>
<g id="a_node9"><a xlink:href="classCDPL_1_1Math_1_1Expression.html" target="_top" xlink:title=" ">
<polygon fill="none" stroke="black" points="277.5,-0.5 277.5,-19.5 428.5,-19.5 428.5,-0.5 277.5,-0.5"/>
<text text-anchor="middle" x="353" y="-7.5" font-family="Helvetica" font-size="10.00">CDPL::Math::Expression&lt; C &gt;</text>
</a>
</g>
</g>
<!-- Node5&#45;&gt;Node9 -->
<g id="edge10" class="edge">
<title>Node5&#45;&gt;Node9</title>
<path fill="none" stroke="orange" stroke-dasharray="5,2" d="M143.42,-39.84C151.69,-38.52 160.04,-37.21 168,-36 205.64,-30.27 247.67,-24.3 282.05,-19.53"/>
<polygon fill="orange" stroke="orange" points="142.71,-36.41 133.39,-41.45 143.82,-43.32 142.71,-36.41"/>
<text text-anchor="middle" x="209.5" y="-39" font-family="Helvetica" font-size="10.00"> &lt; C &gt;</text>
</g>
<!-- Node6&#45;&gt;Node3 -->
<g id="edge5" class="edge">
<title>Node6&#45;&gt;Node3</title>
<path fill="none" stroke="orange" stroke-dasharray="5,2" d="M447.5,-59.51C486.91,-63.1 532.02,-67.21 568.61,-70.54"/>
<polygon fill="orange" stroke="orange" points="447.62,-56.01 437.35,-58.59 446.99,-62.98 447.62,-56.01"/>
<text text-anchor="middle" x="496.5" y="-70" font-family="Helvetica" font-size="10.00"> &lt; ZeroGrid&lt; T &gt; &gt;</text>
</g>
<!-- Node8 -->
<g id="node8" class="node">
<title>Node8</title>
<g id="a_node8"><a xlink:href="classCDPL_1_1Math_1_1GridExpression.html" target="_top" xlink:title=" ">
<polygon fill="none" stroke="black" points="556,-23.5 556,-42.5 725,-42.5 725,-23.5 556,-23.5"/>
<text text-anchor="middle" x="640.5" y="-30.5" font-family="Helvetica" font-size="10.00">CDPL::Math::GridExpression&lt; C &gt;</text>
</a>
</g>
</g>
<!-- Node6&#45;&gt;Node8 -->
<g id="edge11" class="edge">
<title>Node6&#45;&gt;Node8</title>
<path fill="none" stroke="orange" stroke-dasharray="5,2" d="M438.13,-40.45C443.83,-39.91 449.5,-39.42 455,-39 487.92,-36.51 524.21,-35.06 555.84,-34.2"/>
<polygon fill="orange" stroke="orange" points="437.44,-37 427.84,-41.49 438.14,-43.97 437.44,-37"/>
<text text-anchor="middle" x="496.5" y="-42" font-family="Helvetica" font-size="10.00"> &lt; C &gt;</text>
</g>
<!-- Node7 -->
<g id="node7" class="node">
<title>Node7</title>
<g id="a_node7"><a xlink:href="classCDPL_1_1Math_1_1GridContainer.html" target="_top" xlink:title=" ">
<polygon fill="none" stroke="black" points="762,-27.5 762,-46.5 924,-46.5 924,-27.5 762,-27.5"/>
<text text-anchor="middle" x="843" y="-34.5" font-family="Helvetica" font-size="10.00">CDPL::Math::GridContainer&lt; C &gt;</text>
</a>
</g>
</g>
<!-- Node7&#45;&gt;Node2 -->
<g id="edge7" class="edge">
<title>Node7&#45;&gt;Node2</title>
<path fill="none" stroke="orange" stroke-dasharray="5,2" d="M934.68,-43.81C970.13,-46.47 1010.08,-49.46 1042.93,-51.93"/>
<polygon fill="orange" stroke="orange" points="934.55,-40.29 924.32,-43.03 934.03,-47.27 934.55,-40.29"/>
<text text-anchor="middle" x="983.5" y="-54" font-family="Helvetica" font-size="10.00"> &lt; ZeroGrid&lt; T &gt; &gt;</text>
</g>
<!-- Node8&#45;&gt;Node7 -->
<g id="edge8" class="edge">
<title>Node8&#45;&gt;Node7</title>
<path fill="none" stroke="midnightblue" d="M735.1,-34.87C744.01,-35.05 753,-35.22 761.77,-35.4"/>
<polygon fill="midnightblue" stroke="midnightblue" points="735.15,-31.37 725.08,-34.67 735.01,-38.37 735.15,-31.37"/>
</g>
<!-- Node9&#45;&gt;Node8 -->
<g id="edge9" class="edge">
<title>Node9&#45;&gt;Node8</title>
<path fill="none" stroke="midnightblue" d="M438.9,-16.84C475.9,-19.82 519.14,-23.3 555.99,-26.27"/>
<polygon fill="midnightblue" stroke="midnightblue" points="438.89,-13.33 428.64,-16.01 438.33,-20.3 438.89,-13.33"/>
</g>
</g>
</svg>
