<?xml version="1.0" encoding="UTF-8" standalone="no"?>
<!DOCTYPE svg PUBLIC "-//W3C//DTD SVG 1.1//EN"
 "http://www.w3.org/Graphics/SVG/1.1/DTD/svg11.dtd">
<!-- Generated by graphviz version 2.44.0 (0)
 -->
<!-- Title: CDPL::Math::KabschAlgorithm&lt; T &gt; Pages: 1 -->
<svg width="328pt" height="106pt"
 viewBox="0.00 0.00 328.00 106.00" xmlns="http://www.w3.org/2000/svg" xmlns:xlink="http://www.w3.org/1999/xlink">
<g id="graph0" class="graph" transform="scale(1 1) rotate(0) translate(4 102)">
<title>CDPL::Math::KabschAlgorithm&lt; T &gt;</title>
<!-- Node1 -->
<g id="node1" class="node">
<title>Node1</title>
<g id="a_node1"><a xlink:title="Implementation of the Kabsch algorithm [KABA].">
<polygon fill="#bfbfbf" stroke="black" points="72,-78.5 72,-97.5 247,-97.5 247,-78.5 72,-78.5"/>
<text text-anchor="middle" x="159.5" y="-85.5" font-family="Helvetica" font-size="10.00">CDPL::Math::KabschAlgorithm&lt; T &gt;</text>
</a>
</g>
</g>
<!-- Node2 -->
<g id="node2" class="node">
<title>Node2</title>
<g id="a_node2"><a xlink:href="classCDPL_1_1Math_1_1KabschAlgorithm.html" target="_top" xlink:title=" ">
<polygon fill="none" stroke="black" points="0,-0.5 0,-30.5 151,-30.5 151,-0.5 0,-0.5"/>
<text text-anchor="start" x="8" y="-18.5" font-family="Helvetica" font-size="10.00">CDPL::Math::KabschAlgorithm</text>
<text text-anchor="middle" x="75.5" y="-7.5" font-family="Helvetica" font-size="10.00">&lt; double &gt;</text>
</a>
</g>
</g>
<!-- Node1&#45;&gt;Node2 -->
<g id="edge1" class="edge">
<title>Node1&#45;&gt;Node2</title>
<path fill="none" stroke="orange" stroke-dasharray="5,2" d="M141.37,-71.78C126.79,-59.55 106.48,-42.5 92.27,-30.58"/>
<polygon fill="orange" stroke="orange" points="139.29,-74.61 149.2,-78.36 143.79,-69.25 139.29,-74.61"/>
<text text-anchor="middle" x="150.5" y="-52" font-family="Helvetica" font-size="10.00"> &lt; double &gt;</text>
</g>
<!-- Node3 -->
<g id="node3" class="node">
<title>Node3</title>
<g id="a_node3"><a xlink:href="classCDPL_1_1Math_1_1KabschAlgorithm.html" target="_top" xlink:title=" ">
<polygon fill="none" stroke="black" points="169,-0.5 169,-30.5 320,-30.5 320,-0.5 169,-0.5"/>
<text text-anchor="start" x="177" y="-18.5" font-family="Helvetica" font-size="10.00">CDPL::Math::KabschAlgorithm</text>
<text text-anchor="middle" x="244.5" y="-7.5" font-family="Helvetica" font-size="10.00">&lt; ValueType &gt;</text>
</a>
</g>
</g>
<!-- Node1&#45;&gt;Node3 -->
<g id="edge2" class="edge">
<title>Node1&#45;&gt;Node3</title>
<path fill="none" stroke="orange" stroke-dasharray="5,2" d="M177.85,-71.78C192.59,-59.55 213.16,-42.5 227.53,-30.58"/>
<polygon fill="orange" stroke="orange" points="175.39,-69.28 169.92,-78.36 179.85,-74.67 175.39,-69.28"/>
<text text-anchor="middle" x="238" y="-52" font-family="Helvetica" font-size="10.00"> &lt; ValueType &gt;</text>
</g>
</g>
</svg>
