<?xml version="1.0" encoding="UTF-8" standalone="no"?>
<!DOCTYPE svg PUBLIC "-//W3C//DTD SVG 1.1//EN"
 "http://www.w3.org/Graphics/SVG/1.1/DTD/svg11.dtd">
<!-- Generated by graphviz version 2.40.1 (0)
 -->
<!-- Title: CDPL::Math::ZeroGrid&lt; T &gt; Pages: 1 -->
<!--zoomable 120 -->
<svg id="main" version="1.1" xmlns="http://www.w3.org/2000/svg" xmlns:xlink="http://www.w3.org/1999/xlink" xml:space="preserve" onload="init(evt)">
<style type="text/css"><![CDATA[
.edge:hover path { stroke: red; }
.edge:hover polygon { stroke: red; fill: red; }
]]></style>
<script type="text/javascript"><![CDATA[
var edges = document.getElementsByTagName('g');
if (edges && edges.length) {
  for (var i=0;i<edges.length;i++) {
    if (edges[i].id.substr(0,4)=='edge') {
      edges[i].setAttribute('class','edge');
    }
  }
}
]]></script>
        <defs>
                <circle id="rim" cx="0" cy="0" r="7"/>
                <circle id="rim2" cx="0" cy="0" r="3.5"/>
                <g id="zoomPlus">
                        <use xlink:href="#rim" fill="#404040">
                                <set attributeName="fill" to="#808080" begin="zoomplus.mouseover" end="zoomplus.mouseout"/>
                        </use>
                        <path d="M-4,0h8M0,-4v8" fill="none" stroke="white" stroke-width="1.5" pointer-events="none"/>
                </g>
                <g id="zoomMin">
                        <use xlink:href="#rim" fill="#404040">
                                <set attributeName="fill" to="#808080" begin="zoomminus.mouseover" end="zoomminus.mouseout"/>
                        </use>
                        <path d="M-4,0h8" fill="none" stroke="white" stroke-width="1.5" pointer-events="none"/>
                </g>
                <g id="dirArrow">
                        <path fill="none" stroke="white" stroke-width="1.5" d="M0,-3.0v7 M-2.5,-0.5L0,-3.0L2.5,-0.5"/>
                </g>
               <g id="resetDef">
                       <use xlink:href="#rim2" fill="#404040">
                               <set attributeName="fill" to="#808080" begin="reset.mouseover" end="reset.mouseout"/>
                       </use>
               </g>
        </defs>

<script type="text/javascript">
var viewWidth = 1472;
var viewHeight = 120;
var sectionId = 'dynsection-0';
</script>
<script xlink:href="svgpan.js"/>
<svg id="graph" class="graph">
<g id="viewport">
<title>CDPL::Math::ZeroGrid&lt; T &gt;</title>
<!-- Node1 -->
<g id="node1" class="node">
<title>Node1</title>
<g id="a_node1"><a xlink:title=" ">
<polygon fill="#bfbfbf" stroke="#000000" points="1315,-47.5 1315,-66.5 1464,-66.5 1464,-47.5 1315,-47.5"/>
<text text-anchor="middle" x="1389.5" y="-54.5" font-family="Helvetica,sans-Serif" font-size="10.00" fill="#000000">CDPL::Math::ZeroGrid&lt; T &gt;</text>
</a>
</g>
</g>
<!-- Node2 -->
<g id="node2" class="node">
<title>Node2</title>
<g id="a_node2"><a xlink:href="classCDPL_1_1Math_1_1GridContainer.html" target="_top" xlink:title=" ">
<polygon fill="none" stroke="#000000" points="1132,-42 1132,-72 1278,-72 1278,-42 1132,-42"/>
<text text-anchor="start" x="1140" y="-60" font-family="Helvetica,sans-Serif" font-size="10.00" fill="#000000">CDPL::Math::GridContainer</text>
<text text-anchor="middle" x="1205" y="-49" font-family="Helvetica,sans-Serif" font-size="10.00" fill="#000000">&lt; ZeroGrid&lt; T &gt; &gt;</text>
</a>
</g>
</g>
<!-- Node2&#45;&gt;Node1 -->
<g id="edge1" class="edge">
<title>Node2&#45;&gt;Node1</title>
<path fill="none" stroke="#191970" d="M1288.4594,-57C1297.2712,-57 1306.1909,-57 1314.8931,-57"/>
<polygon fill="#191970" stroke="#191970" points="1288.1843,-53.5001 1278.1843,-57 1288.1842,-60.5001 1288.1843,-53.5001"/>
</g>
<!-- Node3 -->
<g id="node3" class="node">
<title>Node3</title>
<g id="a_node3"><a xlink:href="classCDPL_1_1Math_1_1GridExpression.html" target="_top" xlink:title=" ">
<polygon fill="none" stroke="#000000" points="620.5,-62 620.5,-92 772.5,-92 772.5,-62 620.5,-62"/>
<text text-anchor="start" x="628.5" y="-80" font-family="Helvetica,sans-Serif" font-size="10.00" fill="#000000">CDPL::Math::GridExpression</text>
<text text-anchor="middle" x="696.5" y="-69" font-family="Helvetica,sans-Serif" font-size="10.00" fill="#000000">&lt; ZeroGrid&lt; T &gt; &gt;</text>
</a>
</g>
</g>
<!-- Node3&#45;&gt;Node2 -->
<g id="edge2" class="edge">
<title>Node3&#45;&gt;Node2</title>
<path fill="none" stroke="#191970" d="M782.7573,-74.3788C867.194,-71.7001 999.4679,-67.2035 1114,-62 1119.8483,-61.7343 1125.9069,-61.441 1131.9931,-61.1335"/>
<polygon fill="#191970" stroke="#191970" points="782.5862,-70.8823 772.7017,-74.6964 782.8072,-77.8789 782.5862,-70.8823"/>
</g>
<!-- Node4 -->
<g id="node4" class="node">
<title>Node4</title>
<g id="a_node4"><a xlink:href="classCDPL_1_1Math_1_1Expression.html" target="_top" xlink:title=" ">
<polygon fill="none" stroke="#000000" points="317.5,-81 317.5,-111 448.5,-111 448.5,-81 317.5,-81"/>
<text text-anchor="start" x="325.5" y="-99" font-family="Helvetica,sans-Serif" font-size="10.00" fill="#000000">CDPL::Math::Expression</text>
<text text-anchor="middle" x="383" y="-88" font-family="Helvetica,sans-Serif" font-size="10.00" fill="#000000">&lt; ZeroGrid&lt; T &gt; &gt;</text>
</a>
</g>
</g>
<!-- Node4&#45;&gt;Node3 -->
<g id="edge3" class="edge">
<title>Node4&#45;&gt;Node3</title>
<path fill="none" stroke="#191970" d="M458.6979,-91.6768C497.3846,-89.44 545.209,-86.6328 588,-84 598.4564,-83.3567 609.4786,-82.6633 620.3297,-81.9718"/>
<polygon fill="#191970" stroke="#191970" points="458.3372,-88.1917 448.5555,-92.2623 458.7407,-95.1801 458.3372,-88.1917"/>
</g>
<!-- Node5 -->
<g id="node5" class="node">
<title>Node5</title>
<g id="a_node5"><a xlink:href="classCDPL_1_1Math_1_1Expression.html" target="_top" xlink:title=" ">
<polygon fill="none" stroke="#000000" points="0,-41.5 0,-60.5 160,-60.5 160,-41.5 0,-41.5"/>
<text text-anchor="middle" x="80" y="-48.5" font-family="Helvetica,sans-Serif" font-size="10.00" fill="#000000">CDPL::Math::Expression&lt; E &gt;</text>
</a>
</g>
</g>
<!-- Node5&#45;&gt;Node4 -->
<g id="edge4" class="edge">
<title>Node5&#45;&gt;Node4</title>
<path fill="none" stroke="#ffa500" stroke-dasharray="5,2" d="M154.3381,-62.0403C204.2065,-69.4465 269.2911,-79.1125 317.2652,-86.2374"/>
<polygon fill="#ffa500" stroke="#ffa500" points="154.6642,-58.5504 144.2585,-60.5433 153.6358,-65.4745 154.6642,-58.5504"/>
<text text-anchor="middle" x="226.5" y="-81" font-family="Helvetica,sans-Serif" font-size="10.00" fill="#000000"> &lt; ZeroGrid&lt; T &gt; &gt;</text>
</g>
<!-- Node6 -->
<g id="node6" class="node">
<title>Node6</title>
<g id="a_node6"><a xlink:href="classCDPL_1_1Math_1_1GridExpression.html" target="_top" xlink:title=" ">
<polygon fill="none" stroke="#000000" points="293,-41.5 293,-60.5 473,-60.5 473,-41.5 293,-41.5"/>
<text text-anchor="middle" x="383" y="-48.5" font-family="Helvetica,sans-Serif" font-size="10.00" fill="#000000">CDPL::Math::GridExpression&lt; E &gt;</text>
</a>
</g>
</g>
<!-- Node5&#45;&gt;Node6 -->
<g id="edge6" class="edge">
<title>Node5&#45;&gt;Node6</title>
<path fill="none" stroke="#191970" d="M170.232,-51C208.9857,-51 254.1716,-51 292.9096,-51"/>
<polygon fill="#191970" stroke="#191970" points="170.0061,-47.5001 160.006,-51 170.006,-54.5001 170.0061,-47.5001"/>
</g>
<!-- Node9 -->
<g id="node9" class="node">
<title>Node9</title>
<g id="a_node9"><a xlink:href="classCDPL_1_1Math_1_1Expression.html" target="_top" xlink:title=" ">
<polygon fill="none" stroke="#000000" points="302.5,-.5 302.5,-19.5 463.5,-19.5 463.5,-.5 302.5,-.5"/>
<text text-anchor="middle" x="383" y="-7.5" font-family="Helvetica,sans-Serif" font-size="10.00" fill="#000000">CDPL::Math::Expression&lt; C &gt;</text>
</a>
</g>
</g>
<!-- Node5&#45;&gt;Node9 -->
<g id="edge10" class="edge">
<title>Node5&#45;&gt;Node9</title>
<path fill="none" stroke="#ffa500" stroke-dasharray="5,2" d="M150.5516,-39.9791C159.7793,-38.6029 169.1121,-37.2436 178,-36 219.5692,-30.1836 265.9615,-24.2529 304.0854,-19.5273"/>
<polygon fill="#ffa500" stroke="#ffa500" points="149.9742,-36.5265 140.6058,-41.4745 151.015,-43.4487 149.9742,-36.5265"/>
<text text-anchor="middle" x="226.5" y="-39" font-family="Helvetica,sans-Serif" font-size="10.00" fill="#000000"> &lt; C &gt;</text>
</g>
<!-- Node6&#45;&gt;Node3 -->
<g id="edge5" class="edge">
<title>Node6&#45;&gt;Node3</title>
<path fill="none" stroke="#ffa500" stroke-dasharray="5,2" d="M483.4972,-59.3347C527.8949,-63.0168 579.2343,-67.2746 620.3849,-70.6874"/>
<polygon fill="#ffa500" stroke="#ffa500" points="483.5117,-55.824 473.2566,-58.4854 482.9331,-62.8 483.5117,-55.824"/>
<text text-anchor="middle" x="539.5" y="-70" font-family="Helvetica,sans-Serif" font-size="10.00" fill="#000000"> &lt; ZeroGrid&lt; T &gt; &gt;</text>
</g>
<!-- Node8 -->
<g id="node8" class="node">
<title>Node8</title>
<g id="a_node8"><a xlink:href="classCDPL_1_1Math_1_1GridExpression.html" target="_top" xlink:title=" ">
<polygon fill="none" stroke="#000000" points="606,-23.5 606,-42.5 787,-42.5 787,-23.5 606,-23.5"/>
<text text-anchor="middle" x="696.5" y="-30.5" font-family="Helvetica,sans-Serif" font-size="10.00" fill="#000000">CDPL::Math::GridExpression&lt; C &gt;</text>
</a>
</g>
</g>
<!-- Node6&#45;&gt;Node8 -->
<g id="edge11" class="edge">
<title>Node6&#45;&gt;Node8</title>
<path fill="none" stroke="#ffa500" stroke-dasharray="5,2" d="M472.0513,-40.5271C478.4585,-39.9512 484.8249,-39.4325 491,-39 528.5633,-36.3692 570.0672,-34.8877 605.8842,-34.0551"/>
<polygon fill="#ffa500" stroke="#ffa500" points="471.5994,-37.054 461.9709,-41.4747 472.2546,-44.0233 471.5994,-37.054"/>
<text text-anchor="middle" x="539.5" y="-42" font-family="Helvetica,sans-Serif" font-size="10.00" fill="#000000"> &lt; C &gt;</text>
</g>
<!-- Node7 -->
<g id="node7" class="node">
<title>Node7</title>
<g id="a_node7"><a xlink:href="classCDPL_1_1Math_1_1GridContainer.html" target="_top" xlink:title=" ">
<polygon fill="none" stroke="#000000" points="824,-27.5 824,-46.5 999,-46.5 999,-27.5 824,-27.5"/>
<text text-anchor="middle" x="911.5" y="-34.5" font-family="Helvetica,sans-Serif" font-size="10.00" fill="#000000">CDPL::Math::GridContainer&lt; C &gt;</text>
</a>
</g>
</g>
<!-- Node7&#45;&gt;Node2 -->
<g id="edge7" class="edge">
<title>Node7&#45;&gt;Node2</title>
<path fill="none" stroke="#ffa500" stroke-dasharray="5,2" d="M1009.1945,-43.6572C1049.1533,-46.3801 1094.5953,-49.4767 1131.6371,-52.0008"/>
<polygon fill="#ffa500" stroke="#ffa500" points="1009.377,-40.1616 999.1621,-42.9736 1008.901,-47.1454 1009.377,-40.1616"/>
<text text-anchor="middle" x="1065.5" y="-54" font-family="Helvetica,sans-Serif" font-size="10.00" fill="#000000"> &lt; ZeroGrid&lt; T &gt; &gt;</text>
</g>
<!-- Node8&#45;&gt;Node7 -->
<g id="edge8" class="edge">
<title>Node8&#45;&gt;Node7</title>
<path fill="none" stroke="#191970" d="M797.0885,-34.8714C806.01,-35.0374 814.9951,-35.2046 823.7969,-35.3683"/>
<polygon fill="#191970" stroke="#191970" points="797.1196,-31.3715 787.0562,-34.6848 796.9894,-38.3703 797.1196,-31.3715"/>
</g>
<!-- Node9&#45;&gt;Node8 -->
<g id="edge9" class="edge">
<title>Node9&#45;&gt;Node8</title>
<path fill="none" stroke="#191970" d="M473.8337,-16.664C515.319,-19.7076 564.3362,-23.3038 605.8047,-26.3461"/>
<polygon fill="#191970" stroke="#191970" points="473.9634,-13.1642 463.734,-15.9231 473.4511,-20.1455 473.9634,-13.1642"/>
</g>
</g>
</svg>
        <g id="navigator" transform="translate(0 0)" fill="#404254">
                <rect fill="#f2f5e9" fill-opacity="0.5" stroke="#606060" stroke-width=".5" x="0" y="0" width="60" height="60"/>
                <use id="zoomplus" xlink:href="#zoomPlus" x="17" y="9" onmousedown="handleZoom(evt,'in')"/>
                <use id="zoomminus" xlink:href="#zoomMin" x="42" y="9" onmousedown="handleZoom(evt,'out')"/>
                <use id="reset" xlink:href="#resetDef" x="30" y="36" onmousedown="handleReset()"/>
                <g id="arrowUp" xlink:href="#dirArrow" transform="translate(30 24)" onmousedown="handlePan(0,-1)">
                  <use xlink:href="#rim" fill="#404040">
                        <set attributeName="fill" to="#808080" begin="arrowUp.mouseover" end="arrowUp.mouseout"/>
                  </use>
                  <path fill="none" stroke="white" stroke-width="1.5" d="M0,-3.0v7 M-2.5,-0.5L0,-3.0L2.5,-0.5"/>
                </g>
                <g id="arrowRight" xlink:href="#dirArrow" transform="rotate(90) translate(36 -43)" onmousedown="handlePan(1,0)">
                  <use xlink:href="#rim" fill="#404040">
                        <set attributeName="fill" to="#808080" begin="arrowRight.mouseover" end="arrowRight.mouseout"/>
                  </use>
                  <path fill="none" stroke="white" stroke-width="1.5" d="M0,-3.0v7 M-2.5,-0.5L0,-3.0L2.5,-0.5"/>
                </g>
                <g id="arrowDown" xlink:href="#dirArrow" transform="rotate(180) translate(-30 -48)" onmousedown="handlePan(0,1)">
                  <use xlink:href="#rim" fill="#404040">
                        <set attributeName="fill" to="#808080" begin="arrowDown.mouseover" end="arrowDown.mouseout"/>
                  </use>
                  <path fill="none" stroke="white" stroke-width="1.5" d="M0,-3.0v7 M-2.5,-0.5L0,-3.0L2.5,-0.5"/>
                </g>
                <g id="arrowLeft" xlink:href="#dirArrow" transform="rotate(270) translate(-36 17)" onmousedown="handlePan(-1,0)">
                  <use xlink:href="#rim" fill="#404040">
                        <set attributeName="fill" to="#808080" begin="arrowLeft.mouseover" end="arrowLeft.mouseout"/>
                  </use>
                  <path fill="none" stroke="white" stroke-width="1.5" d="M0,-3.0v7 M-2.5,-0.5L0,-3.0L2.5,-0.5"/>
                </g>
        </g>
        <svg viewBox="0 0 15 15" width="100%" height="30px" preserveAspectRatio="xMaxYMin meet">
         <g id="arrow_out" transform="scale(0.3 0.3)">
          <a xlink:href="classCDPL_1_1Math_1_1ZeroGrid__inherit__graph_org.svg" target="_base">
           <rect id="button" ry="5" rx="5" y="6" x="6" height="38" width="38"
                fill="#f2f5e9" fill-opacity="0.5" stroke="#606060" stroke-width="1.0"/>
           <path id="arrow"
             d="M 11.500037,31.436501 C 11.940474,20.09759 22.043105,11.32322 32.158766,21.979434 L 37.068811,17.246167 C 37.068811,17.246167 37.088388,32 37.088388,32 L 22.160133,31.978069 C 22.160133,31.978069 26.997745,27.140456 26.997745,27.140456 C 18.528582,18.264221 13.291696,25.230495 11.500037,31.436501 z"
             style="fill:#404040;"/>
          </a>
         </g>
        </svg>
</svg>
