<?xml version="1.0" encoding="UTF-8" standalone="no"?>
<!DOCTYPE svg PUBLIC "-//W3C//DTD SVG 1.1//EN"
 "http://www.w3.org/Graphics/SVG/1.1/DTD/svg11.dtd">
<!-- Generated by graphviz version 2.44.0 (0)
 -->
<!-- Title: CDPL::Math::ScalarGrid&lt; T &gt; Pages: 1 -->
<svg width="289pt" height="344pt"
 viewBox="0.00 0.00 288.50 344.00" xmlns="http://www.w3.org/2000/svg" xmlns:xlink="http://www.w3.org/1999/xlink">
<g id="graph0" class="graph" transform="scale(1 1) rotate(0) translate(4 340)">
<title>CDPL::Math::ScalarGrid&lt; T &gt;</title>
<!-- Node1 -->
<g id="node1" class="node">
<title>Node1</title>
<g id="a_node1"><a xlink:title=" ">
<polygon fill="#bfbfbf" stroke="black" points="26,-0.5 26,-19.5 172,-19.5 172,-0.5 26,-0.5"/>
<text text-anchor="middle" x="99" y="-7.5" font-family="Helvetica" font-size="10.00">CDPL::Math::ScalarGrid&lt; T &gt;</text>
</a>
</g>
</g>
<!-- Node2 -->
<g id="node2" class="node">
<title>Node2</title>
<g id="a_node2"><a xlink:href="classCDPL_1_1Math_1_1GridContainer.html" target="_top" xlink:title=" ">
<polygon fill="none" stroke="black" points="30.5,-57.5 30.5,-87.5 167.5,-87.5 167.5,-57.5 30.5,-57.5"/>
<text text-anchor="start" x="38.5" y="-75.5" font-family="Helvetica" font-size="10.00">CDPL::Math::GridContainer</text>
<text text-anchor="middle" x="99" y="-64.5" font-family="Helvetica" font-size="10.00">&lt; ScalarGrid&lt; T &gt; &gt;</text>
</a>
</g>
</g>
<!-- Node2&#45;&gt;Node1 -->
<g id="edge1" class="edge">
<title>Node2&#45;&gt;Node1</title>
<path fill="none" stroke="midnightblue" d="M99,-47.35C99,-37.51 99,-26.78 99,-19.54"/>
<polygon fill="midnightblue" stroke="midnightblue" points="95.5,-47.47 99,-57.47 102.5,-47.47 95.5,-47.47"/>
</g>
<!-- Node3 -->
<g id="node3" class="node">
<title>Node3</title>
<g id="a_node3"><a xlink:href="classCDPL_1_1Math_1_1GridExpression.html" target="_top" xlink:title=" ">
<polygon fill="none" stroke="black" points="0,-259.5 0,-278.5 168,-278.5 168,-259.5 0,-259.5"/>
<text text-anchor="middle" x="84" y="-266.5" font-family="Helvetica" font-size="10.00">CDPL::Math::GridExpression&lt; E &gt;</text>
</a>
</g>
</g>
<!-- Node3&#45;&gt;Node2 -->
<g id="edge2" class="edge">
<title>Node3&#45;&gt;Node2</title>
<path fill="none" stroke="midnightblue" d="M85.46,-249.01C88.46,-210.11 95.25,-122.14 97.9,-87.7"/>
<polygon fill="midnightblue" stroke="midnightblue" points="81.94,-249.15 84.66,-259.39 88.92,-249.69 81.94,-249.15"/>
</g>
<!-- Node6 -->
<g id="node6" class="node">
<title>Node6</title>
<g id="a_node6"><a xlink:href="classCDPL_1_1Math_1_1GridExpression.html" target="_top" xlink:title=" ">
<polygon fill="none" stroke="black" points="111.5,-192.5 111.5,-211.5 280.5,-211.5 280.5,-192.5 111.5,-192.5"/>
<text text-anchor="middle" x="196" y="-199.5" font-family="Helvetica" font-size="10.00">CDPL::Math::GridExpression&lt; C &gt;</text>
</a>
</g>
</g>
<!-- Node3&#45;&gt;Node6 -->
<g id="edge7" class="edge">
<title>Node3&#45;&gt;Node6</title>
<path fill="none" stroke="orange" stroke-dasharray="5,2" d="M107.92,-254.12C130.11,-241.24 162.44,-222.48 181.13,-211.63"/>
<polygon fill="orange" stroke="orange" points="106,-251.19 99.1,-259.23 109.51,-257.24 106,-251.19"/>
<text text-anchor="middle" x="160.5" y="-233" font-family="Helvetica" font-size="10.00"> &lt; C &gt;</text>
</g>
<!-- Node4 -->
<g id="node4" class="node">
<title>Node4</title>
<g id="a_node4"><a xlink:href="classCDPL_1_1Math_1_1Expression.html" target="_top" xlink:title=" ">
<polygon fill="none" stroke="black" points="65,-316.5 65,-335.5 215,-335.5 215,-316.5 65,-316.5"/>
<text text-anchor="middle" x="140" y="-323.5" font-family="Helvetica" font-size="10.00">CDPL::Math::Expression&lt; E &gt;</text>
</a>
</g>
</g>
<!-- Node4&#45;&gt;Node3 -->
<g id="edge3" class="edge">
<title>Node4&#45;&gt;Node3</title>
<path fill="none" stroke="midnightblue" d="M123.83,-309.12C113.76,-299.22 101.17,-286.86 92.87,-278.71"/>
<polygon fill="midnightblue" stroke="midnightblue" points="121.66,-311.9 131.25,-316.41 126.57,-306.9 121.66,-311.9"/>
</g>
<!-- Node4&#45;&gt;Node6 -->
<g id="edge6" class="edge">
<title>Node4&#45;&gt;Node6</title>
<path fill="none" stroke="midnightblue" d="M155.88,-308.86C163.27,-300.54 171.6,-289.88 177,-279 188.26,-256.35 193.19,-226.49 195.04,-211.86"/>
<polygon fill="midnightblue" stroke="midnightblue" points="153.19,-306.61 148.95,-316.31 158.32,-311.37 153.19,-306.61"/>
</g>
<!-- Node5 -->
<g id="node5" class="node">
<title>Node5</title>
<g id="a_node5"><a xlink:href="classCDPL_1_1Math_1_1GridContainer.html" target="_top" xlink:title=" ">
<polygon fill="none" stroke="black" points="113,-135.5 113,-154.5 275,-154.5 275,-135.5 113,-135.5"/>
<text text-anchor="middle" x="194" y="-142.5" font-family="Helvetica" font-size="10.00">CDPL::Math::GridContainer&lt; C &gt;</text>
</a>
</g>
</g>
<!-- Node5&#45;&gt;Node2 -->
<g id="edge4" class="edge">
<title>Node5&#45;&gt;Node2</title>
<path fill="none" stroke="orange" stroke-dasharray="5,2" d="M173.96,-129.13C157.44,-116.87 134.18,-99.61 117.97,-87.58"/>
<polygon fill="orange" stroke="orange" points="172.24,-132.21 182.35,-135.36 176.41,-126.59 172.24,-132.21"/>
<text text-anchor="middle" x="200.5" y="-109" font-family="Helvetica" font-size="10.00"> &lt; ScalarGrid&lt; T &gt; &gt;</text>
</g>
<!-- Node6&#45;&gt;Node5 -->
<g id="edge5" class="edge">
<title>Node6&#45;&gt;Node5</title>
<path fill="none" stroke="midnightblue" d="M195.31,-182.12C194.98,-172.82 194.58,-162.06 194.32,-154.71"/>
<polygon fill="midnightblue" stroke="midnightblue" points="191.83,-182.54 195.69,-192.41 198.82,-182.29 191.83,-182.54"/>
</g>
</g>
</svg>
