<?xml version="1.0" encoding="UTF-8" standalone="no"?>
<!DOCTYPE svg PUBLIC "-//W3C//DTD SVG 1.1//EN"
 "http://www.w3.org/Graphics/SVG/1.1/DTD/svg11.dtd">
<!-- Generated by graphviz version 2.44.0 (0)
 -->
<!-- Title: CDPL::Descr::FeatureRDFCodeCalculator Pages: 1 -->
<svg width="200pt" height="174pt"
 viewBox="0.00 0.00 200.00 174.00" xmlns="http://www.w3.org/2000/svg" xmlns:xlink="http://www.w3.org/1999/xlink">
<g id="graph0" class="graph" transform="scale(1 1) rotate(0) translate(4 170)">
<title>CDPL::Descr::FeatureRDFCodeCalculator</title>
<!-- Node1 -->
<g id="node1" class="node">
<title>Node1</title>
<g id="a_node1"><a xlink:title="FeatureRDFCodeCalculator.">
<polygon fill="#bfbfbf" stroke="black" points="17,-0.5 17,-30.5 175,-30.5 175,-0.5 17,-0.5"/>
<text text-anchor="start" x="25" y="-18.5" font-family="Helvetica" font-size="10.00">CDPL::Descr::FeatureRDFCode</text>
<text text-anchor="middle" x="96" y="-7.5" font-family="Helvetica" font-size="10.00">Calculator</text>
</a>
</g>
</g>
<!-- Node2 -->
<g id="node2" class="node">
<title>Node2</title>
<g id="a_node2"><a xlink:href="classCDPL_1_1Descr_1_1RDFCodeCalculator.html" target="_top" xlink:title=" ">
<polygon fill="none" stroke="black" points="12,-68.5 12,-98.5 180,-98.5 180,-68.5 12,-68.5"/>
<text text-anchor="start" x="20" y="-86.5" font-family="Helvetica" font-size="10.00">CDPL::Descr::RDFCodeCalculator</text>
<text text-anchor="middle" x="96" y="-75.5" font-family="Helvetica" font-size="10.00">&lt; Pharm::Feature &gt;</text>
</a>
</g>
</g>
<!-- Node2&#45;&gt;Node1 -->
<g id="edge1" class="edge">
<title>Node2&#45;&gt;Node1</title>
<path fill="none" stroke="midnightblue" d="M96,-58.03C96,-48.86 96,-38.74 96,-30.79"/>
<polygon fill="midnightblue" stroke="midnightblue" points="92.5,-58.18 96,-68.18 99.5,-58.18 92.5,-58.18"/>
</g>
<!-- Node3 -->
<g id="node3" class="node">
<title>Node3</title>
<g id="a_node3"><a xlink:href="classCDPL_1_1Descr_1_1RDFCodeCalculator.html" target="_top" xlink:title="RDFCodeCalculator.">
<polygon fill="none" stroke="black" points="0,-146.5 0,-165.5 192,-165.5 192,-146.5 0,-146.5"/>
<text text-anchor="middle" x="96" y="-153.5" font-family="Helvetica" font-size="10.00">CDPL::Descr::RDFCodeCalculator&lt; T &gt;</text>
</a>
</g>
</g>
<!-- Node3&#45;&gt;Node2 -->
<g id="edge2" class="edge">
<title>Node3&#45;&gt;Node2</title>
<path fill="none" stroke="orange" stroke-dasharray="5,2" d="M96,-136.24C96,-124.41 96,-109.38 96,-98.58"/>
<polygon fill="orange" stroke="orange" points="92.5,-136.36 96,-146.36 99.5,-136.36 92.5,-136.36"/>
<text text-anchor="middle" x="140.5" y="-120" font-family="Helvetica" font-size="10.00"> &lt; Pharm::Feature &gt;</text>
</g>
</g>
</svg>
