<?xml version="1.0" encoding="UTF-8" standalone="no"?>
<!DOCTYPE svg PUBLIC "-//W3C//DTD SVG 1.1//EN"
 "http://www.w3.org/Graphics/SVG/1.1/DTD/svg11.dtd">
<!-- Generated by graphviz version 2.44.0 (0)
 -->
<!-- Title: CDPL::Math::Matrix1VectorBinary&lt; E1, E2, F &gt; Pages: 1 -->
<svg width="937pt" height="88pt"
 viewBox="0.00 0.00 937.00 88.00" xmlns="http://www.w3.org/2000/svg" xmlns:xlink="http://www.w3.org/1999/xlink">
<g id="graph0" class="graph" transform="scale(1 1) rotate(0) translate(4 84)">
<title>CDPL::Math::Matrix1VectorBinary&lt; E1, E2, F &gt;</title>
<!-- Node1 -->
<g id="node1" class="node">
<title>Node1</title>
<g id="a_node1"><a xlink:title=" ">
<polygon fill="#bfbfbf" stroke="black" points="792,-21 792,-51 929,-51 929,-21 792,-21"/>
<text text-anchor="start" x="800" y="-39" font-family="Helvetica" font-size="10.00">CDPL::Math::Matrix1Vector</text>
<text text-anchor="middle" x="860.5" y="-28" font-family="Helvetica" font-size="10.00">Binary&lt; E1, E2, F &gt;</text>
</a>
</g>
</g>
<!-- Node2 -->
<g id="node2" class="node">
<title>Node2</title>
<g id="a_node2"><a xlink:href="classCDPL_1_1Math_1_1VectorExpression.html" target="_top" xlink:title=" ">
<polygon fill="none" stroke="black" points="602,-15.5 602,-56.5 755,-56.5 755,-15.5 602,-15.5"/>
<text text-anchor="start" x="610" y="-44.5" font-family="Helvetica" font-size="10.00">CDPL::Math::VectorExpression</text>
<text text-anchor="start" x="610" y="-33.5" font-family="Helvetica" font-size="10.00">&lt; Matrix1VectorBinary&lt; E1,</text>
<text text-anchor="middle" x="678.5" y="-22.5" font-family="Helvetica" font-size="10.00"> E2, F &gt; &gt;</text>
</a>
</g>
</g>
<!-- Node2&#45;&gt;Node1 -->
<g id="edge1" class="edge">
<title>Node2&#45;&gt;Node1</title>
<path fill="none" stroke="midnightblue" d="M765.14,-36C774.11,-36 783.14,-36 791.87,-36"/>
<polygon fill="midnightblue" stroke="midnightblue" points="765.05,-32.5 755.05,-36 765.05,-39.5 765.05,-32.5"/>
</g>
<!-- Node3 -->
<g id="node3" class="node">
<title>Node3</title>
<g id="a_node3"><a xlink:href="classCDPL_1_1Math_1_1Expression.html" target="_top" xlink:title=" ">
<polygon fill="none" stroke="black" points="313.5,-38.5 313.5,-79.5 438.5,-79.5 438.5,-38.5 313.5,-38.5"/>
<text text-anchor="start" x="321.5" y="-67.5" font-family="Helvetica" font-size="10.00">CDPL::Math::Expression</text>
<text text-anchor="start" x="321.5" y="-56.5" font-family="Helvetica" font-size="10.00">&lt; Matrix1VectorBinary</text>
<text text-anchor="middle" x="376" y="-45.5" font-family="Helvetica" font-size="10.00">&lt; E1, E2, F &gt; &gt;</text>
</a>
</g>
</g>
<!-- Node3&#45;&gt;Node2 -->
<g id="edge2" class="edge">
<title>Node3&#45;&gt;Node2</title>
<path fill="none" stroke="midnightblue" d="M448.77,-53.51C494.99,-49.97 554.98,-45.38 601.92,-41.78"/>
<polygon fill="midnightblue" stroke="midnightblue" points="448.24,-50.04 438.54,-54.29 448.77,-57.02 448.24,-50.04"/>
</g>
<!-- Node4 -->
<g id="node4" class="node">
<title>Node4</title>
<g id="a_node4"><a xlink:href="classCDPL_1_1Math_1_1Expression.html" target="_top" xlink:title=" ">
<polygon fill="none" stroke="black" points="0,-24.5 0,-43.5 150,-43.5 150,-24.5 0,-24.5"/>
<text text-anchor="middle" x="75" y="-31.5" font-family="Helvetica" font-size="10.00">CDPL::Math::Expression&lt; E &gt;</text>
</a>
</g>
</g>
<!-- Node4&#45;&gt;Node3 -->
<g id="edge3" class="edge">
<title>Node4&#45;&gt;Node3</title>
<path fill="none" stroke="orange" stroke-dasharray="5,2" d="M160.48,-41.06C209.06,-45.13 269.02,-50.14 313.19,-53.83"/>
<polygon fill="orange" stroke="orange" points="160.55,-37.56 150.29,-40.21 159.97,-44.53 160.55,-37.56"/>
<text text-anchor="start" x="168" y="-63" font-family="Helvetica" font-size="10.00"> &lt; Matrix1VectorBinary</text>
<text text-anchor="middle" x="218.5" y="-52" font-family="Helvetica" font-size="10.00">&lt; E1, E2, F &gt; &gt;</text>
</g>
<!-- Node5 -->
<g id="node5" class="node">
<title>Node5</title>
<g id="a_node5"><a xlink:href="classCDPL_1_1Math_1_1VectorExpression.html" target="_top" xlink:title=" ">
<polygon fill="none" stroke="black" points="287,-0.5 287,-19.5 465,-19.5 465,-0.5 287,-0.5"/>
<text text-anchor="middle" x="376" y="-7.5" font-family="Helvetica" font-size="10.00">CDPL::Math::VectorExpression&lt; E &gt;</text>
</a>
</g>
</g>
<!-- Node4&#45;&gt;Node5 -->
<g id="edge5" class="edge">
<title>Node4&#45;&gt;Node5</title>
<path fill="none" stroke="midnightblue" d="M160.41,-27.22C199.86,-24.06 246.81,-20.29 286.73,-17.09"/>
<polygon fill="midnightblue" stroke="midnightblue" points="159.98,-23.75 150.29,-28.04 160.54,-30.73 159.98,-23.75"/>
</g>
<!-- Node5&#45;&gt;Node2 -->
<g id="edge4" class="edge">
<title>Node5&#45;&gt;Node2</title>
<path fill="none" stroke="orange" stroke-dasharray="5,2" d="M475.2,-9.98C509.69,-10.85 548.65,-12.84 584,-17 589.84,-17.69 595.86,-18.55 601.89,-19.52"/>
<polygon fill="orange" stroke="orange" points="475.2,-6.47 465.13,-9.75 475.04,-13.47 475.2,-6.47"/>
<text text-anchor="start" x="483" y="-31" font-family="Helvetica" font-size="10.00"> &lt; Matrix1VectorBinary</text>
<text text-anchor="middle" x="533.5" y="-20" font-family="Helvetica" font-size="10.00">&lt; E1, E2, F &gt; &gt;</text>
</g>
</g>
</svg>
