<?xml version="1.0" encoding="UTF-8" standalone="no"?>
<!DOCTYPE svg PUBLIC "-//W3C//DTD SVG 1.1//EN"
 "http://www.w3.org/Graphics/SVG/1.1/DTD/svg11.dtd">
<!-- Generated by graphviz version 2.44.0 (0)
 -->
<!-- Title: CDPL::Base::DataOutputHandler&lt; T &gt; Pages: 1 -->
<svg width="713pt" height="100pt"
 viewBox="0.00 0.00 713.00 99.50" xmlns="http://www.w3.org/2000/svg" xmlns:xlink="http://www.w3.org/1999/xlink">
<g id="graph0" class="graph" transform="scale(1 1) rotate(0) translate(4 95.5)">
<title>CDPL::Base::DataOutputHandler&lt; T &gt;</title>
<!-- Node1 -->
<g id="node1" class="node">
<title>Node1</title>
<g id="a_node1"><a xlink:title="A factory interface providing methods for the creation of Base::DataWriter instances handling a parti...">
<polygon fill="#bfbfbf" stroke="black" points="0,-32 0,-51 185,-51 185,-32 0,-32"/>
<text text-anchor="middle" x="92.5" y="-39" font-family="Helvetica" font-size="10.00">CDPL::Base::DataOutputHandler&lt; T &gt;</text>
</a>
</g>
</g>
<!-- Node2 -->
<g id="node2" class="node">
<title>Node2</title>
<g id="a_node2"><a xlink:href="classCDPL_1_1Base_1_1DataOutputHandler.html" target="_top" xlink:title=" ">
<polygon fill="none" stroke="black" points="343,-54.5 343,-84.5 515,-84.5 515,-54.5 343,-54.5"/>
<text text-anchor="start" x="351" y="-72.5" font-family="Helvetica" font-size="10.00">CDPL::Base::DataOutputHandler</text>
<text text-anchor="middle" x="429" y="-61.5" font-family="Helvetica" font-size="10.00">&lt; typename WriterImpl::DataType &gt;</text>
</a>
</g>
</g>
<!-- Node1&#45;&gt;Node2 -->
<g id="edge1" class="edge">
<title>Node1&#45;&gt;Node2</title>
<path fill="none" stroke="orange" stroke-dasharray="5,2" d="M195.59,-50.05C242.75,-53.99 298.1,-58.63 342.96,-62.38"/>
<polygon fill="orange" stroke="orange" points="195.6,-46.53 185.35,-49.19 195.02,-53.51 195.6,-46.53"/>
<text text-anchor="start" x="212.5" y="-73.5" font-family="Helvetica" font-size="10.00"> &lt; typename WriterImpl</text>
<text text-anchor="middle" x="264" y="-62.5" font-family="Helvetica" font-size="10.00">::DataType &gt;</text>
</g>
<!-- Node4 -->
<g id="node4" class="node">
<title>Node4</title>
<g id="a_node4"><a xlink:href="classCDPL_1_1Base_1_1DataOutputHandler.html" target="_top" xlink:title=" ">
<polygon fill="none" stroke="black" points="348.5,-2.5 348.5,-32.5 509.5,-32.5 509.5,-2.5 348.5,-2.5"/>
<text text-anchor="start" x="356.5" y="-20.5" font-family="Helvetica" font-size="10.00">CDPL::Base::DataOutputHandler</text>
<text text-anchor="middle" x="429" y="-9.5" font-family="Helvetica" font-size="10.00">&lt; Chem::MolecularGraph &gt;</text>
</a>
</g>
</g>
<!-- Node1&#45;&gt;Node4 -->
<g id="edge3" class="edge">
<title>Node1&#45;&gt;Node4</title>
<path fill="none" stroke="orange" stroke-dasharray="5,2" d="M186.03,-30.99C191.77,-30.45 197.46,-29.95 203,-29.5 251.15,-25.58 305.21,-22.65 348.27,-20.67"/>
<polygon fill="orange" stroke="orange" points="185.28,-27.55 175.67,-31.99 185.96,-34.51 185.28,-27.55"/>
<text text-anchor="middle" x="264" y="-32.5" font-family="Helvetica" font-size="10.00"> &lt; Chem::MolecularGraph &gt;</text>
</g>
<!-- Node3 -->
<g id="node3" class="node">
<title>Node3</title>
<g id="a_node3"><a xlink:href="classCDPL_1_1Util_1_1DefaultDataOutputHandler.html" target="_top" xlink:title="DefaultDataOutputHandler.">
<polygon fill="none" stroke="black" points="552,-50 552,-91 705,-91 705,-50 552,-50"/>
<text text-anchor="start" x="560" y="-79" font-family="Helvetica" font-size="10.00">CDPL::Util::DefaultDataOutput</text>
<text text-anchor="start" x="560" y="-68" font-family="Helvetica" font-size="10.00">Handler&lt; WriterImpl, FORMAT,</text>
<text text-anchor="middle" x="628.5" y="-57" font-family="Helvetica" font-size="10.00"> DataType &gt;</text>
</a>
</g>
</g>
<!-- Node2&#45;&gt;Node3 -->
<g id="edge2" class="edge">
<title>Node2&#45;&gt;Node3</title>
<path fill="none" stroke="midnightblue" d="M525.26,-69.98C534.2,-70.03 543.19,-70.07 551.92,-70.12"/>
<polygon fill="midnightblue" stroke="midnightblue" points="525.21,-66.48 515.19,-69.93 525.17,-73.48 525.21,-66.48"/>
</g>
<!-- Node5 -->
<g id="node5" class="node">
<title>Node5</title>
<g id="a_node5"><a xlink:href="classCDPL_1_1Pharm_1_1PSDMolecularGraphOutputHandler.html" target="_top" xlink:title="A handler for the output of molecular graph dara in the PSD&#45;format of the CDPL.">
<polygon fill="none" stroke="black" points="555.5,-0.5 555.5,-30.5 701.5,-30.5 701.5,-0.5 555.5,-0.5"/>
<text text-anchor="start" x="563.5" y="-18.5" font-family="Helvetica" font-size="10.00">CDPL::Pharm::PSDMolecular</text>
<text text-anchor="middle" x="628.5" y="-7.5" font-family="Helvetica" font-size="10.00">GraphOutputHandler</text>
</a>
</g>
</g>
<!-- Node4&#45;&gt;Node5 -->
<g id="edge4" class="edge">
<title>Node4&#45;&gt;Node5</title>
<path fill="none" stroke="midnightblue" d="M520.1,-16.59C531.93,-16.47 543.93,-16.35 555.41,-16.23"/>
<polygon fill="midnightblue" stroke="midnightblue" points="519.73,-13.09 509.76,-16.69 519.8,-20.09 519.73,-13.09"/>
</g>
</g>
</svg>
