<?xml version="1.0" encoding="UTF-8" standalone="no"?>
<!DOCTYPE svg PUBLIC "-//W3C//DTD SVG 1.1//EN"
 "http://www.w3.org/Graphics/SVG/1.1/DTD/svg11.dtd">
<!-- Generated by graphviz version 2.40.1 (0)
 -->
<!-- Title: CDPL::Math::QuaternionUnary2&lt; E, F &gt; Pages: 1 -->
<svg width="1051pt" height="88pt"
 viewBox="0.00 0.00 1051.00 88.00" xmlns="http://www.w3.org/2000/svg" xmlns:xlink="http://www.w3.org/1999/xlink">
<g id="graph0" class="graph" transform="scale(1 1) rotate(0) translate(4 84)">
<title>CDPL::Math::QuaternionUnary2&lt; E, F &gt;</title>
<!-- Node1 -->
<g id="node1" class="node">
<title>Node1</title>
<g id="a_node1"><a xlink:title=" ">
<polygon fill="#bfbfbf" stroke="#000000" points="876,-21 876,-51 1043,-51 1043,-21 876,-21"/>
<text text-anchor="start" x="884" y="-39" font-family="Helvetica,sans-Serif" font-size="10.00" fill="#000000">CDPL::Math::QuaternionUnary2</text>
<text text-anchor="middle" x="959.5" y="-28" font-family="Helvetica,sans-Serif" font-size="10.00" fill="#000000">&lt; E, F &gt;</text>
</a>
</g>
</g>
<!-- Node2 -->
<g id="node2" class="node">
<title>Node2</title>
<g id="a_node2"><a xlink:href="classCDPL_1_1Math_1_1QuaternionExpression.html" target="_top" xlink:title=" ">
<polygon fill="none" stroke="#000000" points="654,-21 654,-51 839,-51 839,-21 654,-21"/>
<text text-anchor="start" x="662" y="-39" font-family="Helvetica,sans-Serif" font-size="10.00" fill="#000000">CDPL::Math::QuaternionExpression</text>
<text text-anchor="middle" x="746.5" y="-28" font-family="Helvetica,sans-Serif" font-size="10.00" fill="#000000">&lt; QuaternionUnary2&lt; E, F &gt; &gt;</text>
</a>
</g>
</g>
<!-- Node2&#45;&gt;Node1 -->
<g id="edge1" class="edge">
<title>Node2&#45;&gt;Node1</title>
<path fill="none" stroke="#191970" d="M849.5638,-36C858.3269,-36 867.121,-36 875.7085,-36"/>
<polygon fill="#191970" stroke="#191970" points="849.3053,-32.5001 839.3053,-36 849.3052,-39.5001 849.3053,-32.5001"/>
</g>
<!-- Node3 -->
<g id="node3" class="node">
<title>Node3</title>
<g id="a_node3"><a xlink:href="classCDPL_1_1Math_1_1Expression.html" target="_top" xlink:title=" ">
<polygon fill="none" stroke="#000000" points="338.5,-38.5 338.5,-79.5 475.5,-79.5 475.5,-38.5 338.5,-38.5"/>
<text text-anchor="start" x="346.5" y="-67.5" font-family="Helvetica,sans-Serif" font-size="10.00" fill="#000000">CDPL::Math::Expression</text>
<text text-anchor="start" x="346.5" y="-56.5" font-family="Helvetica,sans-Serif" font-size="10.00" fill="#000000">&lt; QuaternionUnary2&lt; E,</text>
<text text-anchor="middle" x="407" y="-45.5" font-family="Helvetica,sans-Serif" font-size="10.00" fill="#000000"> F &gt; &gt;</text>
</a>
</g>
</g>
<!-- Node3&#45;&gt;Node2 -->
<g id="edge2" class="edge">
<title>Node3&#45;&gt;Node2</title>
<path fill="none" stroke="#191970" d="M485.844,-53.6586C535.9884,-50.2615 601.1447,-45.8473 653.7687,-42.2822"/>
<polygon fill="#191970" stroke="#191970" points="485.4434,-50.1776 475.7029,-54.3456 485.9166,-57.1616 485.4434,-50.1776"/>
</g>
<!-- Node4 -->
<g id="node4" class="node">
<title>Node4</title>
<g id="a_node4"><a xlink:href="classCDPL_1_1Math_1_1Expression.html" target="_top" xlink:title=" ">
<polygon fill="none" stroke="#000000" points="0,-24.5 0,-43.5 160,-43.5 160,-24.5 0,-24.5"/>
<text text-anchor="middle" x="80" y="-31.5" font-family="Helvetica,sans-Serif" font-size="10.00" fill="#000000">CDPL::Math::Expression&lt; E &gt;</text>
</a>
</g>
</g>
<!-- Node4&#45;&gt;Node3 -->
<g id="edge3" class="edge">
<title>Node4&#45;&gt;Node3</title>
<path fill="none" stroke="#ffa500" stroke-dasharray="5,2" d="M170.4986,-40.9188C223.5395,-44.974 289.4787,-50.0152 338.2465,-53.7436"/>
<polygon fill="#ffa500" stroke="#ffa500" points="170.6497,-37.4203 160.412,-40.1477 170.1161,-44.3999 170.6497,-37.4203"/>
<text text-anchor="start" x="178" y="-62" font-family="Helvetica,sans-Serif" font-size="10.00" fill="#000000"> &lt; QuaternionUnary2</text>
<text text-anchor="middle" x="230" y="-51" font-family="Helvetica,sans-Serif" font-size="10.00" fill="#000000">&lt; E, F &gt; &gt;</text>
</g>
<!-- Node5 -->
<g id="node5" class="node">
<title>Node5</title>
<g id="a_node5"><a xlink:href="classCDPL_1_1Math_1_1QuaternionExpression.html" target="_top" xlink:title=" ">
<polygon fill="none" stroke="#000000" points="300,-.5 300,-19.5 514,-19.5 514,-.5 300,-.5"/>
<text text-anchor="middle" x="407" y="-7.5" font-family="Helvetica,sans-Serif" font-size="10.00" fill="#000000">CDPL::Math::QuaternionExpression&lt; E &gt;</text>
</a>
</g>
</g>
<!-- Node4&#45;&gt;Node5 -->
<g id="edge5" class="edge">
<title>Node4&#45;&gt;Node5</title>
<path fill="none" stroke="#191970" d="M170.4487,-27.3616C210.5839,-24.4159 258.1121,-20.9276 299.9991,-17.8533"/>
<polygon fill="#191970" stroke="#191970" points="170.129,-23.8755 160.412,-28.0982 170.6414,-30.8567 170.129,-23.8755"/>
</g>
<!-- Node5&#45;&gt;Node2 -->
<g id="edge4" class="edge">
<title>Node5&#45;&gt;Node2</title>
<path fill="none" stroke="#ffa500" stroke-dasharray="5,2" d="M524.1175,-11.2389C560.0745,-12.3857 599.7222,-14.4261 636,-18 644.1242,-18.8004 652.5569,-19.8226 660.9782,-20.9724"/>
<polygon fill="#ffa500" stroke="#ffa500" points="524.1798,-7.7393 514.0795,-10.9386 523.9704,-14.7362 524.1798,-7.7393"/>
<text text-anchor="start" x="532" y="-32" font-family="Helvetica,sans-Serif" font-size="10.00" fill="#000000"> &lt; QuaternionUnary2</text>
<text text-anchor="middle" x="584" y="-21" font-family="Helvetica,sans-Serif" font-size="10.00" fill="#000000">&lt; E, F &gt; &gt;</text>
</g>
</g>
</svg>
