<?xml version="1.0" encoding="UTF-8" standalone="no"?>
<!DOCTYPE svg PUBLIC "-//W3C//DTD SVG 1.1//EN"
 "http://www.w3.org/Graphics/SVG/1.1/DTD/svg11.dtd">
<!-- Generated by graphviz version 2.44.0 (0)
 -->
<!-- Title: CDPL::Math::CMatrix&lt; T, M, N &gt; Pages: 1 -->
<!--zoomable 120 -->
<svg id="main" version="1.1" xmlns="http://www.w3.org/2000/svg" xmlns:xlink="http://www.w3.org/1999/xlink" xml:space="preserve" onload="init(evt)">
<style type="text/css"><![CDATA[
.edge:hover path { stroke: red; }
.edge:hover polygon { stroke: red; fill: red; }
]]></style>
<script type="text/javascript"><![CDATA[
var edges = document.getElementsByTagName('g');
if (edges && edges.length) {
  for (var i=0;i<edges.length;i++) {
    if (edges[i].id.substr(0,4)=='edge') {
      edges[i].setAttribute('class','edge');
    }
  }
}
]]></script>
        <defs>
                <circle id="rim" cx="0" cy="0" r="7"/>
                <circle id="rim2" cx="0" cy="0" r="3.5"/>
                <g id="zoomPlus">
                        <use xlink:href="#rim" fill="#404040">
                                <set attributeName="fill" to="#808080" begin="zoomplus.mouseover" end="zoomplus.mouseout"/>
                        </use>
                        <path d="M-4,0h8M0,-4v8" fill="none" stroke="white" stroke-width="1.5" pointer-events="none"/>
                </g>
                <g id="zoomMin">
                        <use xlink:href="#rim" fill="#404040">
                                <set attributeName="fill" to="#808080" begin="zoomminus.mouseover" end="zoomminus.mouseout"/>
                        </use>
                        <path d="M-4,0h8" fill="none" stroke="white" stroke-width="1.5" pointer-events="none"/>
                </g>
                <g id="dirArrow">
                        <path fill="none" stroke="white" stroke-width="1.5" d="M0,-3.0v7 M-2.5,-0.5L0,-3.0L2.5,-0.5"/>
                </g>
               <g id="resetDef">
                       <use xlink:href="#rim2" fill="#404040">
                               <set attributeName="fill" to="#808080" begin="reset.mouseover" end="reset.mouseout"/>
                       </use>
               </g>
        </defs>

<script type="text/javascript">
var viewWidth = 1702;
var viewHeight = 120;
var sectionId = 'dynsection-0';
</script>
<script xlink:href="svgpan.js"/>
<svg id="graph" class="graph">
<g id="viewport">
<title>CDPL::Math::CMatrix&lt; T, M, N &gt;</title>
<!-- Node1 -->
<g id="node1" class="node">
<title>Node1</title>
<g id="a_node1"><a xlink:title=" ">
<polygon fill="#bfbfbf" stroke="black" points="1325,-42 1325,-72 1436,-72 1436,-42 1325,-42"/>
<text text-anchor="start" x="1333" y="-60" font-family="Helvetica" font-size="10.00">CDPL::Math::CMatrix</text>
<text text-anchor="middle" x="1380.5" y="-49" font-family="Helvetica" font-size="10.00">&lt; T, M, N &gt;</text>
</a>
</g>
</g>
<!-- Node10 -->
<g id="node10" class="node">
<title>Node10</title>
<g id="a_node10"><a xlink:href="classCDPL_1_1Math_1_1CMatrix.html" target="_top" xlink:title=" ">
<polygon fill="none" stroke="black" points="1575,-36.5 1575,-77.5 1694,-77.5 1694,-36.5 1575,-36.5"/>
<text text-anchor="start" x="1583" y="-65.5" font-family="Helvetica" font-size="10.00">CDPL::Math::CMatrix</text>
<text text-anchor="start" x="1583" y="-54.5" font-family="Helvetica" font-size="10.00">&lt; typename TypeTraits</text>
<text text-anchor="middle" x="1634.5" y="-43.5" font-family="Helvetica" font-size="10.00">&lt; T &gt;::RealType, 4, 4 &gt;</text>
</a>
</g>
</g>
<!-- Node1&#45;&gt;Node10 -->
<g id="edge12" class="edge">
<title>Node1&#45;&gt;Node10</title>
<path fill="none" stroke="orange" stroke-dasharray="5,2" d="M1446.3,-57C1486.02,-57 1536.46,-57 1574.98,-57"/>
<polygon fill="orange" stroke="orange" points="1446.18,-53.5 1436.18,-57 1446.18,-60.5 1446.18,-53.5"/>
<text text-anchor="start" x="1454" y="-71" font-family="Helvetica" font-size="10.00"> &lt; typename TypeTraits</text>
<text text-anchor="middle" x="1505.5" y="-60" font-family="Helvetica" font-size="10.00">&lt; T &gt;::RealType, 4, 4 &gt;</text>
</g>
<!-- Node2 -->
<g id="node2" class="node">
<title>Node2</title>
<g id="a_node2"><a xlink:href="classCDPL_1_1Math_1_1MatrixContainer.html" target="_top" xlink:title=" ">
<polygon fill="none" stroke="black" points="1142,-42 1142,-72 1288,-72 1288,-42 1142,-42"/>
<text text-anchor="start" x="1150" y="-60" font-family="Helvetica" font-size="10.00">CDPL::Math::MatrixContainer</text>
<text text-anchor="middle" x="1215" y="-49" font-family="Helvetica" font-size="10.00">&lt; CMatrix&lt; T, M, N &gt; &gt;</text>
</a>
</g>
</g>
<!-- Node2&#45;&gt;Node1 -->
<g id="edge1" class="edge">
<title>Node2&#45;&gt;Node1</title>
<path fill="none" stroke="midnightblue" d="M1298.34,-57C1307.34,-57 1316.34,-57 1324.89,-57"/>
<polygon fill="midnightblue" stroke="midnightblue" points="1298.19,-53.5 1288.19,-57 1298.19,-60.5 1298.19,-53.5"/>
</g>
<!-- Node3 -->
<g id="node3" class="node">
<title>Node3</title>
<g id="a_node3"><a xlink:href="classCDPL_1_1Math_1_1MatrixExpression.html" target="_top" xlink:title=" ">
<polygon fill="none" stroke="black" points="626,-62 626,-92 778,-92 778,-62 626,-62"/>
<text text-anchor="start" x="634" y="-80" font-family="Helvetica" font-size="10.00">CDPL::Math::MatrixExpression</text>
<text text-anchor="middle" x="702" y="-69" font-family="Helvetica" font-size="10.00">&lt; CMatrix&lt; T, M, N &gt; &gt;</text>
</a>
</g>
</g>
<!-- Node3&#45;&gt;Node2 -->
<g id="edge2" class="edge">
<title>Node3&#45;&gt;Node2</title>
<path fill="none" stroke="midnightblue" d="M788.43,-74.45C873.5,-71.8 1007.81,-67.3 1124,-62 1129.78,-61.74 1135.78,-61.44 1141.8,-61.14"/>
<polygon fill="midnightblue" stroke="midnightblue" points="788.19,-70.96 778.31,-74.77 788.41,-77.96 788.19,-70.96"/>
</g>
<!-- Node4 -->
<g id="node4" class="node">
<title>Node4</title>
<g id="a_node4"><a xlink:href="classCDPL_1_1Math_1_1Expression.html" target="_top" xlink:title=" ">
<polygon fill="none" stroke="black" points="319,-81 319,-111 444,-111 444,-81 319,-81"/>
<text text-anchor="start" x="327" y="-99" font-family="Helvetica" font-size="10.00">CDPL::Math::Expression</text>
<text text-anchor="middle" x="381.5" y="-88" font-family="Helvetica" font-size="10.00">&lt; CMatrix&lt; T, M, N &gt; &gt;</text>
</a>
</g>
</g>
<!-- Node4&#45;&gt;Node3 -->
<g id="edge3" class="edge">
<title>Node4&#45;&gt;Node3</title>
<path fill="none" stroke="midnightblue" d="M454.55,-92.1C495.7,-89.83 548.25,-86.86 595,-84 604.94,-83.39 615.4,-82.73 625.73,-82.06"/>
<polygon fill="midnightblue" stroke="midnightblue" points="454.14,-88.62 444.34,-92.66 454.52,-95.61 454.14,-88.62"/>
</g>
<!-- Node5 -->
<g id="node5" class="node">
<title>Node5</title>
<g id="a_node5"><a xlink:href="classCDPL_1_1Math_1_1Expression.html" target="_top" xlink:title=" ">
<polygon fill="none" stroke="black" points="0,-41.5 0,-60.5 150,-60.5 150,-41.5 0,-41.5"/>
<text text-anchor="middle" x="75" y="-48.5" font-family="Helvetica" font-size="10.00">CDPL::Math::Expression&lt; E &gt;</text>
</a>
</g>
</g>
<!-- Node5&#45;&gt;Node4 -->
<g id="edge4" class="edge">
<title>Node5&#45;&gt;Node4</title>
<path fill="none" stroke="orange" stroke-dasharray="5,2" d="M148.62,-62.09C155.18,-63.08 161.71,-64.06 168,-65 218.7,-72.56 276.24,-80.94 318.65,-87.08"/>
<polygon fill="orange" stroke="orange" points="148.76,-58.57 138.35,-60.54 147.71,-65.5 148.76,-58.57"/>
<text text-anchor="middle" x="221.5" y="-83" font-family="Helvetica" font-size="10.00"> &lt; CMatrix&lt; T, M, N &gt; &gt;</text>
</g>
<!-- Node6 -->
<g id="node6" class="node">
<title>Node6</title>
<g id="a_node6"><a xlink:href="classCDPL_1_1Math_1_1MatrixExpression.html" target="_top" xlink:title=" ">
<polygon fill="none" stroke="black" points="293,-41.5 293,-60.5 470,-60.5 470,-41.5 293,-41.5"/>
<text text-anchor="middle" x="381.5" y="-48.5" font-family="Helvetica" font-size="10.00">CDPL::Math::MatrixExpression&lt; E &gt;</text>
</a>
</g>
</g>
<!-- Node5&#45;&gt;Node6 -->
<g id="edge6" class="edge">
<title>Node5&#45;&gt;Node6</title>
<path fill="none" stroke="midnightblue" d="M160.13,-51C201.39,-51 251.06,-51 292.79,-51"/>
<polygon fill="midnightblue" stroke="midnightblue" points="160.1,-47.5 150.1,-51 160.1,-54.5 160.1,-47.5"/>
</g>
<!-- Node9 -->
<g id="node9" class="node">
<title>Node9</title>
<g id="a_node9"><a xlink:href="classCDPL_1_1Math_1_1Expression.html" target="_top" xlink:title=" ">
<polygon fill="none" stroke="black" points="306,-0.5 306,-19.5 457,-19.5 457,-0.5 306,-0.5"/>
<text text-anchor="middle" x="381.5" y="-7.5" font-family="Helvetica" font-size="10.00">CDPL::Math::Expression&lt; C &gt;</text>
</a>
</g>
</g>
<!-- Node5&#45;&gt;Node9 -->
<g id="edge10" class="edge">
<title>Node5&#45;&gt;Node9</title>
<path fill="none" stroke="orange" stroke-dasharray="5,2" d="M142.41,-39.85C151.01,-38.5 159.71,-37.18 168,-36 213.63,-29.49 264.91,-23.19 305.66,-18.42"/>
<polygon fill="orange" stroke="orange" points="141.71,-36.42 132.38,-41.44 142.81,-43.33 141.71,-36.42"/>
<text text-anchor="middle" x="221.5" y="-39" font-family="Helvetica" font-size="10.00"> &lt; C &gt;</text>
</g>
<!-- Node6&#45;&gt;Node3 -->
<g id="edge5" class="edge">
<title>Node6&#45;&gt;Node3</title>
<path fill="none" stroke="orange" stroke-dasharray="5,2" d="M480.53,-59C527.32,-62.82 582.42,-67.32 625.83,-70.86"/>
<polygon fill="orange" stroke="orange" points="480.63,-55.5 470.37,-58.17 480.06,-62.48 480.63,-55.5"/>
<text text-anchor="middle" x="541.5" y="-70" font-family="Helvetica" font-size="10.00"> &lt; CMatrix&lt; T, M, N &gt; &gt;</text>
</g>
<!-- Node8 -->
<g id="node8" class="node">
<title>Node8</title>
<g id="a_node8"><a xlink:href="classCDPL_1_1Math_1_1MatrixExpression.html" target="_top" xlink:title=" ">
<polygon fill="none" stroke="black" points="613,-23.5 613,-42.5 791,-42.5 791,-23.5 613,-23.5"/>
<text text-anchor="middle" x="702" y="-30.5" font-family="Helvetica" font-size="10.00">CDPL::Math::MatrixExpression&lt; C &gt;</text>
</a>
</g>
</g>
<!-- Node6&#45;&gt;Node8 -->
<g id="edge11" class="edge">
<title>Node6&#45;&gt;Node8</title>
<path fill="none" stroke="orange" stroke-dasharray="5,2" d="M469.75,-40.49C475.92,-39.93 482.05,-39.42 488,-39 528.96,-36.1 574.45,-34.59 612.83,-33.8"/>
<polygon fill="orange" stroke="orange" points="468.97,-37.05 459.35,-41.49 469.64,-44.02 468.97,-37.05"/>
<text text-anchor="middle" x="541.5" y="-42" font-family="Helvetica" font-size="10.00"> &lt; C &gt;</text>
</g>
<!-- Node7 -->
<g id="node7" class="node">
<title>Node7</title>
<g id="a_node7"><a xlink:href="classCDPL_1_1Math_1_1MatrixContainer.html" target="_top" xlink:title=" ">
<polygon fill="none" stroke="black" points="828,-27.5 828,-46.5 999,-46.5 999,-27.5 828,-27.5"/>
<text text-anchor="middle" x="913.5" y="-34.5" font-family="Helvetica" font-size="10.00">CDPL::Math::MatrixContainer&lt; C &gt;</text>
</a>
</g>
</g>
<!-- Node7&#45;&gt;Node2 -->
<g id="edge7" class="edge">
<title>Node7&#45;&gt;Node2</title>
<path fill="none" stroke="orange" stroke-dasharray="5,2" d="M1009.29,-43.33C1052.15,-46.19 1101.99,-49.52 1141.76,-52.18"/>
<polygon fill="orange" stroke="orange" points="1009.33,-39.83 999.12,-42.65 1008.87,-46.81 1009.33,-39.83"/>
<text text-anchor="middle" x="1070.5" y="-54" font-family="Helvetica" font-size="10.00"> &lt; CMatrix&lt; T, M, N &gt; &gt;</text>
</g>
<!-- Node8&#45;&gt;Node7 -->
<g id="edge8" class="edge">
<title>Node8&#45;&gt;Node7</title>
<path fill="none" stroke="midnightblue" d="M801.49,-34.88C810.25,-35.05 819.07,-35.22 827.71,-35.38"/>
<polygon fill="midnightblue" stroke="midnightblue" points="801.3,-31.38 791.24,-34.68 801.17,-38.38 801.3,-31.38"/>
</g>
<!-- Node9&#45;&gt;Node8 -->
<g id="edge9" class="edge">
<title>Node9&#45;&gt;Node8</title>
<path fill="none" stroke="midnightblue" d="M467.2,-16.12C512.2,-19.37 567.45,-23.36 612.94,-26.64"/>
<polygon fill="midnightblue" stroke="midnightblue" points="467.4,-12.62 457.17,-15.39 466.9,-19.6 467.4,-12.62"/>
</g>
</g>
</svg>
        <g id="navigator" transform="translate(0 0)" fill="#404254">
                <rect fill="#f2f5e9" fill-opacity="0.5" stroke="#606060" stroke-width=".5" x="0" y="0" width="60" height="60"/>
                <use id="zoomplus" xlink:href="#zoomPlus" x="17" y="9" onmousedown="handleZoom(evt,'in')"/>
                <use id="zoomminus" xlink:href="#zoomMin" x="42" y="9" onmousedown="handleZoom(evt,'out')"/>
                <use id="reset" xlink:href="#resetDef" x="30" y="36" onmousedown="handleReset()"/>
                <g id="arrowUp" xlink:href="#dirArrow" transform="translate(30 24)" onmousedown="handlePan(0,-1)">
                  <use xlink:href="#rim" fill="#404040">
                        <set attributeName="fill" to="#808080" begin="arrowUp.mouseover" end="arrowUp.mouseout"/>
                  </use>
                  <path fill="none" stroke="white" stroke-width="1.5" d="M0,-3.0v7 M-2.5,-0.5L0,-3.0L2.5,-0.5"/>
                </g>
                <g id="arrowRight" xlink:href="#dirArrow" transform="rotate(90) translate(36 -43)" onmousedown="handlePan(1,0)">
                  <use xlink:href="#rim" fill="#404040">
                        <set attributeName="fill" to="#808080" begin="arrowRight.mouseover" end="arrowRight.mouseout"/>
                  </use>
                  <path fill="none" stroke="white" stroke-width="1.5" d="M0,-3.0v7 M-2.5,-0.5L0,-3.0L2.5,-0.5"/>
                </g>
                <g id="arrowDown" xlink:href="#dirArrow" transform="rotate(180) translate(-30 -48)" onmousedown="handlePan(0,1)">
                  <use xlink:href="#rim" fill="#404040">
                        <set attributeName="fill" to="#808080" begin="arrowDown.mouseover" end="arrowDown.mouseout"/>
                  </use>
                  <path fill="none" stroke="white" stroke-width="1.5" d="M0,-3.0v7 M-2.5,-0.5L0,-3.0L2.5,-0.5"/>
                </g>
                <g id="arrowLeft" xlink:href="#dirArrow" transform="rotate(270) translate(-36 17)" onmousedown="handlePan(-1,0)">
                  <use xlink:href="#rim" fill="#404040">
                        <set attributeName="fill" to="#808080" begin="arrowLeft.mouseover" end="arrowLeft.mouseout"/>
                  </use>
                  <path fill="none" stroke="white" stroke-width="1.5" d="M0,-3.0v7 M-2.5,-0.5L0,-3.0L2.5,-0.5"/>
                </g>
        </g>
        <svg viewBox="0 0 15 15" width="100%" height="30px" preserveAspectRatio="xMaxYMin meet">
         <g id="arrow_out" transform="scale(0.3 0.3)">
          <a xlink:href="classCDPL_1_1Math_1_1CMatrix__inherit__graph_org.svg" target="_base">
           <rect id="button" ry="5" rx="5" y="6" x="6" height="38" width="38"
                fill="#f2f5e9" fill-opacity="0.5" stroke="#606060" stroke-width="1.0"/>
           <path id="arrow"
             d="M 11.500037,31.436501 C 11.940474,20.09759 22.043105,11.32322 32.158766,21.979434 L 37.068811,17.246167 C 37.068811,17.246167 37.088388,32 37.088388,32 L 22.160133,31.978069 C 22.160133,31.978069 26.997745,27.140456 26.997745,27.140456 C 18.528582,18.264221 13.291696,25.230495 11.500037,31.436501 z"
             style="fill:#404040;"/>
          </a>
         </g>
        </svg>
</svg>
