<?xml version="1.0" encoding="UTF-8" standalone="no"?>
<!DOCTYPE svg PUBLIC "-//W3C//DTD SVG 1.1//EN"
 "http://www.w3.org/Graphics/SVG/1.1/DTD/svg11.dtd">
<!-- Generated by graphviz version 2.44.0 (0)
 -->
<!-- Title: CDPL::Math::TranslationMatrix&lt; T &gt; Pages: 1 -->
<svg width="303pt" height="355pt"
 viewBox="0.00 0.00 302.50 355.00" xmlns="http://www.w3.org/2000/svg" xmlns:xlink="http://www.w3.org/1999/xlink">
<g id="graph0" class="graph" transform="scale(1 1) rotate(0) translate(4 351)">
<title>CDPL::Math::TranslationMatrix&lt; T &gt;</title>
<!-- Node1 -->
<g id="node1" class="node">
<title>Node1</title>
<g id="a_node1"><a xlink:title=" ">
<polygon fill="#bfbfbf" stroke="black" points="17,-0.5 17,-19.5 192,-19.5 192,-0.5 17,-0.5"/>
<text text-anchor="middle" x="104.5" y="-7.5" font-family="Helvetica" font-size="10.00">CDPL::Math::TranslationMatrix&lt; T &gt;</text>
</a>
</g>
</g>
<!-- Node2 -->
<g id="node2" class="node">
<title>Node2</title>
<g id="a_node2"><a xlink:href="classCDPL_1_1Math_1_1MatrixContainer.html" target="_top" xlink:title=" ">
<polygon fill="none" stroke="black" points="31.5,-57.5 31.5,-87.5 177.5,-87.5 177.5,-57.5 31.5,-57.5"/>
<text text-anchor="start" x="39.5" y="-75.5" font-family="Helvetica" font-size="10.00">CDPL::Math::MatrixContainer</text>
<text text-anchor="middle" x="104.5" y="-64.5" font-family="Helvetica" font-size="10.00">&lt; TranslationMatrix&lt; T &gt; &gt;</text>
</a>
</g>
</g>
<!-- Node2&#45;&gt;Node1 -->
<g id="edge1" class="edge">
<title>Node2&#45;&gt;Node1</title>
<path fill="none" stroke="midnightblue" d="M104.5,-47.35C104.5,-37.51 104.5,-26.78 104.5,-19.54"/>
<polygon fill="midnightblue" stroke="midnightblue" points="101,-47.47 104.5,-57.47 108,-47.47 101,-47.47"/>
</g>
<!-- Node3 -->
<g id="node3" class="node">
<title>Node3</title>
<g id="a_node3"><a xlink:href="classCDPL_1_1Math_1_1MatrixExpression.html" target="_top" xlink:title=" ">
<polygon fill="none" stroke="black" points="0,-270.5 0,-289.5 177,-289.5 177,-270.5 0,-270.5"/>
<text text-anchor="middle" x="88.5" y="-277.5" font-family="Helvetica" font-size="10.00">CDPL::Math::MatrixExpression&lt; E &gt;</text>
</a>
</g>
</g>
<!-- Node3&#45;&gt;Node2 -->
<g id="edge2" class="edge">
<title>Node3&#45;&gt;Node2</title>
<path fill="none" stroke="midnightblue" d="M89.95,-260.32C93.12,-219.69 100.57,-124.02 103.39,-87.77"/>
<polygon fill="midnightblue" stroke="midnightblue" points="86.45,-260.19 89.17,-270.43 93.43,-260.73 86.45,-260.19"/>
</g>
<!-- Node6 -->
<g id="node6" class="node">
<title>Node6</title>
<g id="a_node6"><a xlink:href="classCDPL_1_1Math_1_1MatrixExpression.html" target="_top" xlink:title=" ">
<polygon fill="none" stroke="black" points="116.5,-203.5 116.5,-222.5 294.5,-222.5 294.5,-203.5 116.5,-203.5"/>
<text text-anchor="middle" x="205.5" y="-210.5" font-family="Helvetica" font-size="10.00">CDPL::Math::MatrixExpression&lt; C &gt;</text>
</a>
</g>
</g>
<!-- Node3&#45;&gt;Node6 -->
<g id="edge7" class="edge">
<title>Node3&#45;&gt;Node6</title>
<path fill="none" stroke="orange" stroke-dasharray="5,2" d="M113.18,-265.29C136.37,-252.4 170.36,-233.52 189.97,-222.63"/>
<polygon fill="orange" stroke="orange" points="111.32,-262.32 104.28,-270.23 114.72,-268.44 111.32,-262.32"/>
<text text-anchor="middle" x="168" y="-244" font-family="Helvetica" font-size="10.00"> &lt; C &gt;</text>
</g>
<!-- Node4 -->
<g id="node4" class="node">
<title>Node4</title>
<g id="a_node4"><a xlink:href="classCDPL_1_1Math_1_1Expression.html" target="_top" xlink:title=" ">
<polygon fill="none" stroke="black" points="71.5,-327.5 71.5,-346.5 221.5,-346.5 221.5,-327.5 71.5,-327.5"/>
<text text-anchor="middle" x="146.5" y="-334.5" font-family="Helvetica" font-size="10.00">CDPL::Math::Expression&lt; E &gt;</text>
</a>
</g>
</g>
<!-- Node4&#45;&gt;Node3 -->
<g id="edge3" class="edge">
<title>Node4&#45;&gt;Node3</title>
<path fill="none" stroke="midnightblue" d="M130.07,-320.42C119.58,-310.47 106.37,-297.94 97.69,-289.71"/>
<polygon fill="midnightblue" stroke="midnightblue" points="127.77,-323.06 137.44,-327.41 132.59,-317.99 127.77,-323.06"/>
</g>
<!-- Node4&#45;&gt;Node6 -->
<g id="edge6" class="edge">
<title>Node4&#45;&gt;Node6</title>
<path fill="none" stroke="midnightblue" d="M163.46,-320.33C171.52,-312.03 180.64,-301.24 186.5,-290 198.19,-267.57 202.92,-237.61 204.64,-222.91"/>
<polygon fill="midnightblue" stroke="midnightblue" points="160.88,-317.95 156.2,-327.46 165.79,-322.95 160.88,-317.95"/>
</g>
<!-- Node5 -->
<g id="node5" class="node">
<title>Node5</title>
<g id="a_node5"><a xlink:href="classCDPL_1_1Math_1_1MatrixContainer.html" target="_top" xlink:title=" ">
<polygon fill="none" stroke="black" points="118,-146.5 118,-165.5 289,-165.5 289,-146.5 118,-146.5"/>
<text text-anchor="middle" x="203.5" y="-153.5" font-family="Helvetica" font-size="10.00">CDPL::Math::MatrixContainer&lt; C &gt;</text>
</a>
</g>
</g>
<!-- Node5&#45;&gt;Node2 -->
<g id="edge4" class="edge">
<title>Node5&#45;&gt;Node2</title>
<path fill="none" stroke="orange" stroke-dasharray="5,2" d="M184.8,-139.61C166.62,-124.64 139.25,-102.11 121.62,-87.6"/>
<polygon fill="orange" stroke="orange" points="182.96,-142.62 192.91,-146.28 187.41,-137.22 182.96,-142.62"/>
<text text-anchor="start" x="168.5" y="-120" font-family="Helvetica" font-size="10.00"> &lt; TranslationMatrix</text>
<text text-anchor="middle" x="212" y="-109" font-family="Helvetica" font-size="10.00">&lt; T &gt; &gt;</text>
</g>
<!-- Node6&#45;&gt;Node5 -->
<g id="edge5" class="edge">
<title>Node6&#45;&gt;Node5</title>
<path fill="none" stroke="midnightblue" d="M204.81,-193.12C204.48,-183.82 204.08,-173.06 203.82,-165.71"/>
<polygon fill="midnightblue" stroke="midnightblue" points="201.33,-193.54 205.19,-203.41 208.32,-193.29 201.33,-193.54"/>
</g>
</g>
</svg>
