<?xml version="1.0" encoding="UTF-8" standalone="no"?>
<!DOCTYPE svg PUBLIC "-//W3C//DTD SVG 1.1//EN"
 "http://www.w3.org/Graphics/SVG/1.1/DTD/svg11.dtd">
<!-- Generated by graphviz version 2.44.0 (0)
 -->
<!-- Title: CDPL::Util::CompressedDataReader&lt; ReaderImpl, DecompStream, DataType &gt; Pages: 1 -->
<svg width="267pt" height="332pt"
 viewBox="0.00 0.00 266.50 332.00" xmlns="http://www.w3.org/2000/svg" xmlns:xlink="http://www.w3.org/1999/xlink">
<g id="graph0" class="graph" transform="scale(1 1) rotate(0) translate(4 328)">
<title>CDPL::Util::CompressedDataReader&lt; ReaderImpl, DecompStream, DataType &gt;</title>
<!-- Node1 -->
<g id="node1" class="node">
<title>Node1</title>
<g id="a_node1"><a xlink:title="CompressedDataReader.">
<polygon fill="#bfbfbf" stroke="black" points="0,-0.5 0,-41.5 183,-41.5 183,-0.5 0,-0.5"/>
<text text-anchor="start" x="8" y="-29.5" font-family="Helvetica" font-size="10.00">CDPL::Util::CompressedData</text>
<text text-anchor="start" x="8" y="-18.5" font-family="Helvetica" font-size="10.00">Reader&lt; ReaderImpl, DecompStream,</text>
<text text-anchor="middle" x="91.5" y="-7.5" font-family="Helvetica" font-size="10.00"> DataType &gt;</text>
</a>
</g>
</g>
<!-- Node2 -->
<g id="node2" class="node">
<title>Node2</title>
<g id="a_node2"><a xlink:href="classCDPL_1_1Base_1_1DataReader.html" target="_top" xlink:title=" ">
<polygon fill="none" stroke="black" points="27.5,-79.5 27.5,-120.5 155.5,-120.5 155.5,-79.5 27.5,-79.5"/>
<text text-anchor="start" x="35.5" y="-108.5" font-family="Helvetica" font-size="10.00">CDPL::Base::DataReader</text>
<text text-anchor="start" x="35.5" y="-97.5" font-family="Helvetica" font-size="10.00">&lt; typename ReaderImpl</text>
<text text-anchor="middle" x="91.5" y="-86.5" font-family="Helvetica" font-size="10.00">::DataType &gt;</text>
</a>
</g>
</g>
<!-- Node2&#45;&gt;Node1 -->
<g id="edge1" class="edge">
<title>Node2&#45;&gt;Node1</title>
<path fill="none" stroke="midnightblue" d="M91.5,-68.91C91.5,-59.79 91.5,-50.02 91.5,-41.76"/>
<polygon fill="midnightblue" stroke="midnightblue" points="88,-69.17 91.5,-79.17 95,-69.17 88,-69.17"/>
</g>
<!-- Node3 -->
<g id="node3" class="node">
<title>Node3</title>
<g id="a_node3"><a xlink:href="classCDPL_1_1Base_1_1DataIOBase.html" target="_top" xlink:title="Provides infrastructure for the registration of I/O callback functions.">
<polygon fill="none" stroke="black" points="22,-236.5 22,-255.5 153,-255.5 153,-236.5 22,-236.5"/>
<text text-anchor="middle" x="87.5" y="-243.5" font-family="Helvetica" font-size="10.00">CDPL::Base::DataIOBase</text>
</a>
</g>
</g>
<!-- Node3&#45;&gt;Node2 -->
<g id="edge2" class="edge">
<title>Node3&#45;&gt;Node2</title>
<path fill="none" stroke="midnightblue" d="M88.02,-226.26C88.78,-198.92 90.19,-148.32 90.96,-120.53"/>
<polygon fill="midnightblue" stroke="midnightblue" points="84.52,-226.33 87.74,-236.42 91.51,-226.52 84.52,-226.33"/>
</g>
<!-- Node5 -->
<g id="node5" class="node">
<title>Node5</title>
<g id="a_node5"><a xlink:href="classCDPL_1_1Base_1_1DataReader.html" target="_top" xlink:title="An interface for reading data objects of a given type from an arbitrary data source.">
<polygon fill="none" stroke="black" points="103.5,-179.5 103.5,-198.5 255.5,-198.5 255.5,-179.5 103.5,-179.5"/>
<text text-anchor="middle" x="179.5" y="-186.5" font-family="Helvetica" font-size="10.00">CDPL::Base::DataReader&lt; T &gt;</text>
</a>
</g>
</g>
<!-- Node3&#45;&gt;Node5 -->
<g id="edge5" class="edge">
<title>Node3&#45;&gt;Node5</title>
<path fill="none" stroke="midnightblue" d="M110.73,-231.11C127.88,-220.86 150.68,-207.23 165.23,-198.53"/>
<polygon fill="midnightblue" stroke="midnightblue" points="108.66,-228.27 101.88,-236.41 112.25,-234.28 108.66,-228.27"/>
</g>
<!-- Node4 -->
<g id="node4" class="node">
<title>Node4</title>
<g id="a_node4"><a xlink:href="classCDPL_1_1Base_1_1ControlParameterContainer.html" target="_top" xlink:title="A class providing methods for the storage and lookup of control&#45;parameter values.">
<polygon fill="none" stroke="black" points="10.5,-293.5 10.5,-323.5 164.5,-323.5 164.5,-293.5 10.5,-293.5"/>
<text text-anchor="start" x="18.5" y="-311.5" font-family="Helvetica" font-size="10.00">CDPL::Base::ControlParameter</text>
<text text-anchor="middle" x="87.5" y="-300.5" font-family="Helvetica" font-size="10.00">Container</text>
</a>
</g>
</g>
<!-- Node4&#45;&gt;Node3 -->
<g id="edge3" class="edge">
<title>Node4&#45;&gt;Node3</title>
<path fill="none" stroke="midnightblue" d="M87.5,-283.35C87.5,-273.51 87.5,-262.78 87.5,-255.54"/>
<polygon fill="midnightblue" stroke="midnightblue" points="84,-283.47 87.5,-293.47 91,-283.47 84,-283.47"/>
</g>
<!-- Node5&#45;&gt;Node2 -->
<g id="edge4" class="edge">
<title>Node5&#45;&gt;Node2</title>
<path fill="none" stroke="orange" stroke-dasharray="5,2" d="M163.41,-172.1C148.78,-157.63 127.13,-136.22 111.41,-120.68"/>
<polygon fill="orange" stroke="orange" points="161.17,-174.8 170.74,-179.34 166.09,-169.82 161.17,-174.8"/>
<text text-anchor="start" x="150.5" y="-153" font-family="Helvetica" font-size="10.00"> &lt; typename ReaderImpl</text>
<text text-anchor="middle" x="204.5" y="-142" font-family="Helvetica" font-size="10.00">::DataType &gt;</text>
</g>
</g>
</svg>
