<?xml version="1.0" encoding="UTF-8" standalone="no"?>
<!DOCTYPE svg PUBLIC "-//W3C//DTD SVG 1.1//EN"
 "http://www.w3.org/Graphics/SVG/1.1/DTD/svg11.dtd">
<!-- Generated by graphviz version 2.44.0 (0)
 -->
<!-- Title: CDPL::Math::GridExpression&lt; E &gt; Pages: 1 -->
<svg width="1718pt" height="512pt"
 viewBox="0.00 0.00 1718.00 511.75" xmlns="http://www.w3.org/2000/svg" xmlns:xlink="http://www.w3.org/1999/xlink">
<g id="graph0" class="graph" transform="scale(1 1) rotate(0) translate(4 507.75)">
<title>CDPL::Math::GridExpression&lt; E &gt;</title>
<!-- Node1 -->
<g id="node1" class="node">
<title>Node1</title>
<g id="a_node1"><a xlink:title=" ">
<polygon fill="#bfbfbf" stroke="black" points="187,-218.25 187,-237.25 355,-237.25 355,-218.25 187,-218.25"/>
<text text-anchor="middle" x="271" y="-225.25" font-family="Helvetica" font-size="10.00">CDPL::Math::GridExpression&lt; E &gt;</text>
</a>
</g>
</g>
<!-- Node3 -->
<g id="node3" class="node">
<title>Node3</title>
<g id="a_node3"><a xlink:href="classCDPL_1_1Math_1_1GridExpression.html" target="_top" xlink:title=" ">
<polygon fill="none" stroke="black" points="564.5,-466.75 564.5,-496.75 707.5,-496.75 707.5,-466.75 564.5,-466.75"/>
<text text-anchor="start" x="572.5" y="-484.75" font-family="Helvetica" font-size="10.00">CDPL::Math::GridExpression</text>
<text text-anchor="middle" x="636" y="-473.75" font-family="Helvetica" font-size="10.00">&lt; GridUnary&lt; E, F &gt; &gt;</text>
</a>
</g>
</g>
<!-- Node1&#45;&gt;Node3 -->
<g id="edge2" class="edge">
<title>Node1&#45;&gt;Node3</title>
<path fill="none" stroke="orange" stroke-dasharray="5,2" d="M274.35,-247.45C280.85,-292.3 303.45,-402.08 373,-452.75 427.93,-492.76 507.29,-496.11 564.26,-491.87"/>
<polygon fill="orange" stroke="orange" points="277.82,-246.97 273.03,-237.52 270.88,-247.89 277.82,-246.97"/>
<text text-anchor="middle" x="448" y="-495.75" font-family="Helvetica" font-size="10.00"> &lt; GridUnary&lt; E, F &gt; &gt;</text>
</g>
<!-- Node5 -->
<g id="node5" class="node">
<title>Node5</title>
<g id="a_node5"><a xlink:href="classCDPL_1_1Math_1_1GridExpression.html" target="_top" xlink:title=" ">
<polygon fill="none" stroke="black" points="541,-373.75 541,-447.75 731,-447.75 731,-373.75 541,-373.75"/>
<text text-anchor="start" x="549" y="-435.75" font-family="Helvetica" font-size="10.00">CDPL::Math::GridExpression</text>
<text text-anchor="start" x="549" y="-424.75" font-family="Helvetica" font-size="10.00">&lt; RegularSpatialGrid&lt; T,</text>
<text text-anchor="start" x="549" y="-413.75" font-family="Helvetica" font-size="10.00"> typename TypeTraits&lt; T &gt;</text>
<text text-anchor="start" x="549" y="-402.75" font-family="Helvetica" font-size="10.00">::RealType, Grid&lt; T &gt;, CMatrix</text>
<text text-anchor="start" x="549" y="-391.75" font-family="Helvetica" font-size="10.00">&lt; typename TypeTraits&lt; T &gt;::RealType,</text>
<text text-anchor="middle" x="636" y="-380.75" font-family="Helvetica" font-size="10.00"> 4, 4 &gt; &gt; &gt;</text>
</a>
</g>
</g>
<!-- Node1&#45;&gt;Node5 -->
<g id="edge4" class="edge">
<title>Node1&#45;&gt;Node5</title>
<path fill="none" stroke="orange" stroke-dasharray="5,2" d="M280.55,-246.91C294.98,-276.88 327.15,-334.33 373,-362.75 387.44,-371.7 471.69,-386.2 540.81,-396.92"/>
<polygon fill="orange" stroke="orange" points="283.58,-245.14 276.19,-237.55 277.24,-248.09 283.58,-245.14"/>
<text text-anchor="start" x="373" y="-440.75" font-family="Helvetica" font-size="10.00"> &lt; RegularSpatialGrid</text>
<text text-anchor="start" x="373" y="-429.75" font-family="Helvetica" font-size="10.00">&lt; T, typename TypeTraits</text>
<text text-anchor="start" x="373" y="-418.75" font-family="Helvetica" font-size="10.00">&lt; T &gt;::RealType, Grid&lt; T</text>
<text text-anchor="start" x="373" y="-407.75" font-family="Helvetica" font-size="10.00"> &gt;, CMatrix&lt; typename TypeTraits</text>
<text text-anchor="middle" x="448" y="-396.75" font-family="Helvetica" font-size="10.00">&lt; T &gt;::RealType, 4, 4 &gt; &gt; &gt;</text>
</g>
<!-- Node7 -->
<g id="node7" class="node">
<title>Node7</title>
<g id="a_node7"><a xlink:href="classCDPL_1_1Math_1_1GridExpression.html" target="_top" xlink:title=" ">
<polygon fill="none" stroke="black" points="564.5,-313.25 564.5,-354.25 707.5,-354.25 707.5,-313.25 564.5,-313.25"/>
<text text-anchor="start" x="572.5" y="-342.25" font-family="Helvetica" font-size="10.00">CDPL::Math::GridExpression</text>
<text text-anchor="start" x="572.5" y="-331.25" font-family="Helvetica" font-size="10.00">&lt; Scalar1GridBinary&lt; E1,</text>
<text text-anchor="middle" x="636" y="-320.25" font-family="Helvetica" font-size="10.00"> E2, F &gt; &gt;</text>
</a>
</g>
</g>
<!-- Node1&#45;&gt;Node7 -->
<g id="edge6" class="edge">
<title>Node1&#45;&gt;Node7</title>
<path fill="none" stroke="orange" stroke-dasharray="5,2" d="M287.14,-245.08C305.34,-264.6 337.86,-295.44 373,-309.75 434.24,-334.68 509.99,-339.09 564.26,-338.22"/>
<polygon fill="orange" stroke="orange" points="289.56,-242.55 280.25,-237.5 284.38,-247.25 289.56,-242.55"/>
<text text-anchor="start" x="402" y="-350.75" font-family="Helvetica" font-size="10.00"> &lt; Scalar1GridBinary</text>
<text text-anchor="middle" x="448" y="-339.75" font-family="Helvetica" font-size="10.00">&lt; E1, E2, F &gt; &gt;</text>
</g>
<!-- Node9 -->
<g id="node9" class="node">
<title>Node9</title>
<g id="a_node9"><a xlink:href="classCDPL_1_1Math_1_1GridExpression.html" target="_top" xlink:title=" ">
<polygon fill="none" stroke="black" points="551.5,-237.25 551.5,-256.25 720.5,-256.25 720.5,-237.25 551.5,-237.25"/>
<text text-anchor="middle" x="636" y="-244.25" font-family="Helvetica" font-size="10.00">CDPL::Math::GridExpression&lt; C &gt;</text>
</a>
</g>
</g>
<!-- Node1&#45;&gt;Node9 -->
<g id="edge8" class="edge">
<title>Node1&#45;&gt;Node9</title>
<path fill="none" stroke="orange" stroke-dasharray="5,2" d="M365.46,-232.64C422.93,-235.65 495.94,-239.47 551.48,-242.38"/>
<polygon fill="orange" stroke="orange" points="365.45,-229.14 355.28,-232.11 365.08,-236.13 365.45,-229.14"/>
<text text-anchor="middle" x="448" y="-243.75" font-family="Helvetica" font-size="10.00"> &lt; C &gt;</text>
</g>
<!-- Node18 -->
<g id="node18" class="node">
<title>Node18</title>
<g id="a_node18"><a xlink:href="classCDPL_1_1Math_1_1GridExpression.html" target="_top" xlink:title=" ">
<polygon fill="none" stroke="black" points="749,-281.25 749,-322.25 892,-322.25 892,-281.25 749,-281.25"/>
<text text-anchor="start" x="757" y="-310.25" font-family="Helvetica" font-size="10.00">CDPL::Math::GridExpression</text>
<text text-anchor="start" x="757" y="-299.25" font-family="Helvetica" font-size="10.00">&lt; Grid&lt; T, std::vector&lt;</text>
<text text-anchor="middle" x="820.5" y="-288.25" font-family="Helvetica" font-size="10.00"> T &gt; &gt; &gt;</text>
</a>
</g>
</g>
<!-- Node1&#45;&gt;Node18 -->
<g id="edge18" class="edge">
<title>Node1&#45;&gt;Node18</title>
<path fill="none" stroke="orange" stroke-dasharray="5,2" d="M310.91,-240.18C329.53,-245.7 352.24,-251.83 373,-255.75 504.52,-280.57 660.54,-292.79 748.99,-298.15"/>
<polygon fill="orange" stroke="orange" points="311.89,-236.82 301.3,-237.28 309.86,-243.52 311.89,-236.82"/>
<text text-anchor="start" x="399.5" y="-291.75" font-family="Helvetica" font-size="10.00"> &lt; Grid&lt; T, std::vector</text>
<text text-anchor="middle" x="448" y="-280.75" font-family="Helvetica" font-size="10.00">&lt; T &gt; &gt; &gt;</text>
</g>
<!-- Node19 -->
<g id="node19" class="node">
<title>Node19</title>
<g id="a_node19"><a xlink:href="classCDPL_1_1Math_1_1GridExpression.html" target="_top" xlink:title=" ">
<polygon fill="none" stroke="black" points="564.5,-111.75 564.5,-141.75 707.5,-141.75 707.5,-111.75 564.5,-111.75"/>
<text text-anchor="start" x="572.5" y="-129.75" font-family="Helvetica" font-size="10.00">CDPL::Math::GridExpression</text>
<text text-anchor="middle" x="636" y="-118.75" font-family="Helvetica" font-size="10.00">&lt; GridReference&lt; G &gt; &gt;</text>
</a>
</g>
</g>
<!-- Node1&#45;&gt;Node19 -->
<g id="edge20" class="edge">
<title>Node1&#45;&gt;Node19</title>
<path fill="none" stroke="orange" stroke-dasharray="5,2" d="M285.31,-210.04C302.74,-188.44 335.5,-152.94 373,-137.75 434.18,-112.96 510.11,-112.73 564.45,-117.18"/>
<polygon fill="orange" stroke="orange" points="282.42,-208.05 279.01,-218.08 287.93,-212.37 282.42,-208.05"/>
<text text-anchor="middle" x="448" y="-140.75" font-family="Helvetica" font-size="10.00"> &lt; GridReference&lt; G &gt; &gt;</text>
</g>
<!-- Node21 -->
<g id="node21" class="node">
<title>Node21</title>
<g id="a_node21"><a xlink:href="classCDPL_1_1Math_1_1GridExpression.html" target="_top" xlink:title=" ">
<polygon fill="none" stroke="black" points="564.5,-51.25 564.5,-92.25 707.5,-92.25 707.5,-51.25 564.5,-51.25"/>
<text text-anchor="start" x="572.5" y="-80.25" font-family="Helvetica" font-size="10.00">CDPL::Math::GridExpression</text>
<text text-anchor="start" x="572.5" y="-69.25" font-family="Helvetica" font-size="10.00">&lt; Scalar2GridBinary&lt; E1,</text>
<text text-anchor="middle" x="636" y="-58.25" font-family="Helvetica" font-size="10.00"> E2, F &gt; &gt;</text>
</a>
</g>
</g>
<!-- Node1&#45;&gt;Node21 -->
<g id="edge22" class="edge">
<title>Node1&#45;&gt;Node21</title>
<path fill="none" stroke="orange" stroke-dasharray="5,2" d="M279.49,-208.86C292.94,-177.75 324.41,-116.53 373,-89.75 431.5,-57.5 508.84,-56.27 564.31,-61.11"/>
<polygon fill="orange" stroke="orange" points="276.23,-207.58 275.62,-218.16 282.69,-210.27 276.23,-207.58"/>
<text text-anchor="start" x="402" y="-103.75" font-family="Helvetica" font-size="10.00"> &lt; Scalar2GridBinary</text>
<text text-anchor="middle" x="448" y="-92.75" font-family="Helvetica" font-size="10.00">&lt; E1, E2, F &gt; &gt;</text>
</g>
<!-- Node23 -->
<g id="node23" class="node">
<title>Node23</title>
<g id="a_node23"><a xlink:href="classCDPL_1_1Math_1_1GridExpression.html" target="_top" xlink:title=" ">
<polygon fill="none" stroke="black" points="749,-185.75 749,-215.75 892,-215.75 892,-185.75 749,-185.75"/>
<text text-anchor="start" x="757" y="-203.75" font-family="Helvetica" font-size="10.00">CDPL::Math::GridExpression</text>
<text text-anchor="middle" x="820.5" y="-192.75" font-family="Helvetica" font-size="10.00">&lt; ZeroGrid&lt; T &gt; &gt;</text>
</a>
</g>
</g>
<!-- Node1&#45;&gt;Node23 -->
<g id="edge24" class="edge">
<title>Node1&#45;&gt;Node23</title>
<path fill="none" stroke="orange" stroke-dasharray="5,2" d="M365.3,-219.27C367.89,-219.09 370.46,-218.91 373,-218.75 505.58,-210.17 660.59,-205.02 748.69,-202.54"/>
<polygon fill="orange" stroke="orange" points="364.92,-215.79 355.2,-220.01 365.43,-222.77 364.92,-215.79"/>
<text text-anchor="middle" x="448" y="-221.75" font-family="Helvetica" font-size="10.00"> &lt; ZeroGrid&lt; T &gt; &gt;</text>
</g>
<!-- Node24 -->
<g id="node24" class="node">
<title>Node24</title>
<g id="a_node24"><a xlink:href="classCDPL_1_1Math_1_1GridExpression.html" target="_top" xlink:title=" ">
<polygon fill="none" stroke="black" points="563,-1.75 563,-31.75 709,-31.75 709,-1.75 563,-1.75"/>
<text text-anchor="start" x="571" y="-19.75" font-family="Helvetica" font-size="10.00">CDPL::Math::GridExpression</text>
<text text-anchor="middle" x="636" y="-8.75" font-family="Helvetica" font-size="10.00">&lt; GridBinary1&lt; E1, E2, F &gt; &gt;</text>
</a>
</g>
</g>
<!-- Node1&#45;&gt;Node24 -->
<g id="edge26" class="edge">
<title>Node1&#45;&gt;Node24</title>
<path fill="none" stroke="orange" stroke-dasharray="5,2" d="M275.7,-207.8C284.43,-167.01 310.49,-74.51 373,-33.75 428.94,2.72 506.65,3.02 562.9,-3.4"/>
<polygon fill="orange" stroke="orange" points="272.22,-207.35 273.68,-217.85 279.08,-208.73 272.22,-207.35"/>
<text text-anchor="start" x="404" y="-47.75" font-family="Helvetica" font-size="10.00"> &lt; GridBinary1&lt; E1,</text>
<text text-anchor="middle" x="448" y="-36.75" font-family="Helvetica" font-size="10.00"> E2, F &gt; &gt;</text>
</g>
<!-- Node26 -->
<g id="node26" class="node">
<title>Node26</title>
<g id="a_node26"><a xlink:href="classCDPL_1_1Math_1_1GridExpression.html" target="_top" xlink:title=" ">
<polygon fill="none" stroke="black" points="749,-144.75 749,-174.75 892,-174.75 892,-144.75 749,-144.75"/>
<text text-anchor="start" x="757" y="-162.75" font-family="Helvetica" font-size="10.00">CDPL::Math::GridExpression</text>
<text text-anchor="middle" x="820.5" y="-151.75" font-family="Helvetica" font-size="10.00">&lt; ScalarGrid&lt; T &gt; &gt;</text>
</a>
</g>
</g>
<!-- Node1&#45;&gt;Node26 -->
<g id="edge28" class="edge">
<title>Node1&#45;&gt;Node26</title>
<path fill="none" stroke="orange" stroke-dasharray="5,2" d="M306.47,-214.69C325.76,-207.93 350.41,-200.18 373,-195.75 504.07,-170.05 660.24,-162.63 748.84,-160.53"/>
<polygon fill="orange" stroke="orange" points="305.14,-211.45 296.91,-218.11 307.5,-218.04 305.14,-211.45"/>
<text text-anchor="middle" x="448" y="-198.75" font-family="Helvetica" font-size="10.00"> &lt; ScalarGrid&lt; T &gt; &gt;</text>
</g>
<!-- Node2 -->
<g id="node2" class="node">
<title>Node2</title>
<g id="a_node2"><a xlink:href="classCDPL_1_1Math_1_1Expression.html" target="_top" xlink:title=" ">
<polygon fill="none" stroke="black" points="0,-218.25 0,-237.25 150,-237.25 150,-218.25 0,-218.25"/>
<text text-anchor="middle" x="75" y="-225.25" font-family="Helvetica" font-size="10.00">CDPL::Math::Expression&lt; E &gt;</text>
</a>
</g>
</g>
<!-- Node2&#45;&gt;Node1 -->
<g id="edge1" class="edge">
<title>Node2&#45;&gt;Node1</title>
<path fill="none" stroke="midnightblue" d="M160.38,-227.75C169.15,-227.75 178.05,-227.75 186.8,-227.75"/>
<polygon fill="midnightblue" stroke="midnightblue" points="160.17,-224.25 150.17,-227.75 160.17,-231.25 160.17,-224.25"/>
</g>
<!-- Node4 -->
<g id="node4" class="node">
<title>Node4</title>
<g id="a_node4"><a xlink:href="classCDPL_1_1Math_1_1GridUnary.html" target="_top" xlink:title=" ">
<polygon fill="none" stroke="black" points="931,-466.75 931,-496.75 1053,-496.75 1053,-466.75 931,-466.75"/>
<text text-anchor="start" x="939" y="-484.75" font-family="Helvetica" font-size="10.00">CDPL::Math::GridUnary</text>
<text text-anchor="middle" x="992" y="-473.75" font-family="Helvetica" font-size="10.00">&lt; E, F &gt;</text>
</a>
</g>
</g>
<!-- Node3&#45;&gt;Node4 -->
<g id="edge3" class="edge">
<title>Node3&#45;&gt;Node4</title>
<path fill="none" stroke="midnightblue" d="M717.97,-481.75C782.83,-481.75 872.34,-481.75 930.93,-481.75"/>
<polygon fill="midnightblue" stroke="midnightblue" points="717.79,-478.25 707.79,-481.75 717.79,-485.25 717.79,-478.25"/>
</g>
<!-- Node6 -->
<g id="node6" class="node">
<title>Node6</title>
<g id="a_node6"><a xlink:href="classCDPL_1_1Math_1_1RegularSpatialGrid.html" target="_top" xlink:title=" ">
<polygon fill="none" stroke="black" points="922,-395.75 922,-425.75 1062,-425.75 1062,-395.75 922,-395.75"/>
<text text-anchor="start" x="930" y="-413.75" font-family="Helvetica" font-size="10.00">CDPL::Math::RegularSpatial</text>
<text text-anchor="middle" x="992" y="-402.75" font-family="Helvetica" font-size="10.00">Grid&lt; T, C, GD, XF &gt;</text>
</a>
</g>
</g>
<!-- Node5&#45;&gt;Node6 -->
<g id="edge5" class="edge">
<title>Node5&#45;&gt;Node6</title>
<path fill="none" stroke="midnightblue" d="M741.73,-410.75C799.87,-410.75 870.57,-410.75 921.8,-410.75"/>
<polygon fill="midnightblue" stroke="midnightblue" points="741.4,-407.25 731.4,-410.75 741.4,-414.25 741.4,-407.25"/>
</g>
<!-- Node8 -->
<g id="node8" class="node">
<title>Node8</title>
<g id="a_node8"><a xlink:href="classCDPL_1_1Math_1_1Scalar1GridBinary.html" target="_top" xlink:title=" ">
<polygon fill="none" stroke="black" points="914,-346.75 914,-376.75 1070,-376.75 1070,-346.75 914,-346.75"/>
<text text-anchor="start" x="922" y="-364.75" font-family="Helvetica" font-size="10.00">CDPL::Math::Scalar1GridBinary</text>
<text text-anchor="middle" x="992" y="-353.75" font-family="Helvetica" font-size="10.00">&lt; E1, E2, F &gt;</text>
</a>
</g>
</g>
<!-- Node7&#45;&gt;Node8 -->
<g id="edge7" class="edge">
<title>Node7&#45;&gt;Node8</title>
<path fill="none" stroke="midnightblue" d="M717.79,-340.14C776.65,-344.79 855.9,-351.06 913.89,-355.65"/>
<polygon fill="midnightblue" stroke="midnightblue" points="718.03,-336.65 707.79,-339.35 717.48,-343.63 718.03,-336.65"/>
</g>
<!-- Node10 -->
<g id="node10" class="node">
<title>Node10</title>
<g id="a_node10"><a xlink:href="classCDPL_1_1Math_1_1GridContainer.html" target="_top" xlink:title=" ">
<polygon fill="none" stroke="black" points="911,-237.25 911,-256.25 1073,-256.25 1073,-237.25 911,-237.25"/>
<text text-anchor="middle" x="992" y="-244.25" font-family="Helvetica" font-size="10.00">CDPL::Math::GridContainer&lt; C &gt;</text>
</a>
</g>
</g>
<!-- Node9&#45;&gt;Node10 -->
<g id="edge9" class="edge">
<title>Node9&#45;&gt;Node10</title>
<path fill="none" stroke="midnightblue" d="M731.17,-246.75C787.16,-246.75 857.41,-246.75 910.75,-246.75"/>
<polygon fill="midnightblue" stroke="midnightblue" points="730.89,-243.25 720.89,-246.75 730.89,-250.25 730.89,-243.25"/>
</g>
<!-- Node11 -->
<g id="node11" class="node">
<title>Node11</title>
<g id="a_node11"><a xlink:href="classCDPL_1_1Math_1_1GridContainer.html" target="_top" xlink:title=" ">
<polygon fill="none" stroke="black" points="1207,-278.25 1207,-319.25 1344,-319.25 1344,-278.25 1207,-278.25"/>
<text text-anchor="start" x="1215" y="-307.25" font-family="Helvetica" font-size="10.00">CDPL::Math::GridContainer</text>
<text text-anchor="start" x="1215" y="-296.25" font-family="Helvetica" font-size="10.00">&lt; Grid&lt; T, std::vector</text>
<text text-anchor="middle" x="1275.5" y="-285.25" font-family="Helvetica" font-size="10.00">&lt; T &gt; &gt; &gt;</text>
</a>
</g>
</g>
<!-- Node10&#45;&gt;Node11 -->
<g id="edge10" class="edge">
<title>Node10&#45;&gt;Node11</title>
<path fill="none" stroke="orange" stroke-dasharray="5,2" d="M1057.93,-258.02C1096.13,-264.72 1145.35,-273.51 1189,-281.75 1194.8,-282.84 1200.82,-284 1206.85,-285.17"/>
<polygon fill="orange" stroke="orange" points="1058.42,-254.55 1047.97,-256.27 1057.21,-261.44 1058.42,-254.55"/>
<text text-anchor="start" x="1092" y="-295.75" font-family="Helvetica" font-size="10.00"> &lt; Grid&lt; T, std::vector</text>
<text text-anchor="middle" x="1140.5" y="-284.75" font-family="Helvetica" font-size="10.00">&lt; T &gt; &gt; &gt;</text>
</g>
<!-- Node14 -->
<g id="node14" class="node">
<title>Node14</title>
<g id="a_node14"><a xlink:href="classCDPL_1_1Math_1_1GridContainer.html" target="_top" xlink:title=" ">
<polygon fill="none" stroke="black" points="1207,-217.75 1207,-247.75 1344,-247.75 1344,-217.75 1207,-217.75"/>
<text text-anchor="start" x="1215" y="-235.75" font-family="Helvetica" font-size="10.00">CDPL::Math::GridContainer</text>
<text text-anchor="middle" x="1275.5" y="-224.75" font-family="Helvetica" font-size="10.00">&lt; ZeroGrid&lt; T &gt; &gt;</text>
</a>
</g>
</g>
<!-- Node10&#45;&gt;Node14 -->
<g id="edge14" class="edge">
<title>Node10&#45;&gt;Node14</title>
<path fill="none" stroke="orange" stroke-dasharray="5,2" d="M1083.35,-242.26C1123.48,-240.26 1169.91,-237.95 1206.96,-236.11"/>
<polygon fill="orange" stroke="orange" points="1083.1,-238.76 1073.29,-242.76 1083.45,-245.75 1083.1,-238.76"/>
<text text-anchor="middle" x="1140.5" y="-245.75" font-family="Helvetica" font-size="10.00"> &lt; ZeroGrid&lt; T &gt; &gt;</text>
</g>
<!-- Node16 -->
<g id="node16" class="node">
<title>Node16</title>
<g id="a_node16"><a xlink:href="classCDPL_1_1Math_1_1GridContainer.html" target="_top" xlink:title=" ">
<polygon fill="none" stroke="black" points="1207,-168.75 1207,-198.75 1344,-198.75 1344,-168.75 1207,-168.75"/>
<text text-anchor="start" x="1215" y="-186.75" font-family="Helvetica" font-size="10.00">CDPL::Math::GridContainer</text>
<text text-anchor="middle" x="1275.5" y="-175.75" font-family="Helvetica" font-size="10.00">&lt; ScalarGrid&lt; T &gt; &gt;</text>
</a>
</g>
</g>
<!-- Node10&#45;&gt;Node16 -->
<g id="edge16" class="edge">
<title>Node10&#45;&gt;Node16</title>
<path fill="none" stroke="orange" stroke-dasharray="5,2" d="M1041.25,-234.77C1057.36,-230.85 1075.44,-226.53 1092,-222.75 1129.91,-214.11 1172.38,-205 1206.8,-197.76"/>
<polygon fill="orange" stroke="orange" points="1040.38,-231.38 1031.49,-237.16 1042.04,-238.18 1040.38,-231.38"/>
<text text-anchor="middle" x="1140.5" y="-225.75" font-family="Helvetica" font-size="10.00"> &lt; ScalarGrid&lt; T &gt; &gt;</text>
</g>
<!-- Node12 -->
<g id="node12" class="node">
<title>Node12</title>
<g id="a_node12"><a xlink:href="classCDPL_1_1Math_1_1Grid.html" target="_top" xlink:title=" ">
<polygon fill="none" stroke="black" points="1388.5,-261.25 1388.5,-280.25 1519.5,-280.25 1519.5,-261.25 1388.5,-261.25"/>
<text text-anchor="middle" x="1454" y="-268.25" font-family="Helvetica" font-size="10.00">CDPL::Math::Grid&lt; T, A &gt;</text>
</a>
</g>
</g>
<!-- Node11&#45;&gt;Node12 -->
<g id="edge11" class="edge">
<title>Node11&#45;&gt;Node12</title>
<path fill="none" stroke="midnightblue" d="M1354.49,-286.38C1367.39,-284.33 1380.58,-282.24 1392.94,-280.28"/>
<polygon fill="midnightblue" stroke="midnightblue" points="1353.56,-282.98 1344.23,-288 1354.66,-289.89 1353.56,-282.98"/>
</g>
<!-- Node13 -->
<g id="node13" class="node">
<title>Node13</title>
<g id="a_node13"><a xlink:href="classCDPL_1_1Math_1_1Grid.html" target="_top" xlink:title=" ">
<polygon fill="none" stroke="black" points="1591,-280.25 1591,-299.25 1710,-299.25 1710,-280.25 1591,-280.25"/>
<text text-anchor="middle" x="1650.5" y="-287.25" font-family="Helvetica" font-size="10.00">CDPL::Math::Grid&lt; T &gt;</text>
</a>
</g>
</g>
<!-- Node11&#45;&gt;Node13 -->
<g id="edge13" class="edge">
<title>Node11&#45;&gt;Node13</title>
<path fill="none" stroke="midnightblue" d="M1354.36,-298.8C1414.18,-298.57 1498.84,-297.67 1573,-294.75 1578.72,-294.52 1584.67,-294.23 1590.63,-293.91"/>
<polygon fill="midnightblue" stroke="midnightblue" points="1354.23,-295.3 1344.24,-298.83 1354.25,-302.3 1354.23,-295.3"/>
</g>
<!-- Node12&#45;&gt;Node13 -->
<g id="edge12" class="edge">
<title>Node12&#45;&gt;Node13</title>
<path fill="none" stroke="orange" stroke-dasharray="5,2" d="M1529.89,-278.06C1550.12,-280.04 1571.72,-282.15 1590.91,-284.03"/>
<polygon fill="orange" stroke="orange" points="1530.06,-274.56 1519.77,-277.08 1529.38,-281.53 1530.06,-274.56"/>
<text text-anchor="middle" x="1559" y="-284.75" font-family="Helvetica" font-size="10.00"> &lt; T &gt;</text>
</g>
<!-- Node15 -->
<g id="node15" class="node">
<title>Node15</title>
<g id="a_node15"><a xlink:href="classCDPL_1_1Math_1_1ZeroGrid.html" target="_top" xlink:title=" ">
<polygon fill="none" stroke="black" points="1385,-223.25 1385,-242.25 1523,-242.25 1523,-223.25 1385,-223.25"/>
<text text-anchor="middle" x="1454" y="-230.25" font-family="Helvetica" font-size="10.00">CDPL::Math::ZeroGrid&lt; T &gt;</text>
</a>
</g>
</g>
<!-- Node14&#45;&gt;Node15 -->
<g id="edge15" class="edge">
<title>Node14&#45;&gt;Node15</title>
<path fill="none" stroke="midnightblue" d="M1354.33,-232.75C1364.5,-232.75 1374.86,-232.75 1384.86,-232.75"/>
<polygon fill="midnightblue" stroke="midnightblue" points="1354.23,-229.25 1344.23,-232.75 1354.23,-236.25 1354.23,-229.25"/>
</g>
<!-- Node17 -->
<g id="node17" class="node">
<title>Node17</title>
<g id="a_node17"><a xlink:href="classCDPL_1_1Math_1_1ScalarGrid.html" target="_top" xlink:title=" ">
<polygon fill="none" stroke="black" points="1381,-174.25 1381,-193.25 1527,-193.25 1527,-174.25 1381,-174.25"/>
<text text-anchor="middle" x="1454" y="-181.25" font-family="Helvetica" font-size="10.00">CDPL::Math::ScalarGrid&lt; T &gt;</text>
</a>
</g>
</g>
<!-- Node16&#45;&gt;Node17 -->
<g id="edge17" class="edge">
<title>Node16&#45;&gt;Node17</title>
<path fill="none" stroke="midnightblue" d="M1354.43,-183.75C1363.18,-183.75 1372.08,-183.75 1380.76,-183.75"/>
<polygon fill="midnightblue" stroke="midnightblue" points="1354.23,-180.25 1344.23,-183.75 1354.23,-187.25 1354.23,-180.25"/>
</g>
<!-- Node18&#45;&gt;Node11 -->
<g id="edge19" class="edge">
<title>Node18&#45;&gt;Node11</title>
<path fill="none" stroke="midnightblue" d="M902.56,-303.8C977.03,-305.3 1090.48,-306.63 1189,-303.75 1194.8,-303.58 1200.81,-303.35 1206.84,-303.07"/>
<polygon fill="midnightblue" stroke="midnightblue" points="902.38,-300.3 892.31,-303.59 902.24,-307.29 902.38,-300.3"/>
</g>
<!-- Node20 -->
<g id="node20" class="node">
<title>Node20</title>
<g id="a_node20"><a xlink:href="classCDPL_1_1Math_1_1GridReference.html" target="_top" xlink:title=" ">
<polygon fill="none" stroke="black" points="910,-107.25 910,-126.25 1074,-126.25 1074,-107.25 910,-107.25"/>
<text text-anchor="middle" x="992" y="-114.25" font-family="Helvetica" font-size="10.00">CDPL::Math::GridReference&lt; G &gt;</text>
</a>
</g>
</g>
<!-- Node19&#45;&gt;Node20 -->
<g id="edge21" class="edge">
<title>Node19&#45;&gt;Node20</title>
<path fill="none" stroke="midnightblue" d="M717.92,-124.46C775.4,-122.84 852.27,-120.67 909.81,-119.04"/>
<polygon fill="midnightblue" stroke="midnightblue" points="717.68,-120.97 707.79,-124.75 717.88,-127.97 717.68,-120.97"/>
</g>
<!-- Node22 -->
<g id="node22" class="node">
<title>Node22</title>
<g id="a_node22"><a xlink:href="classCDPL_1_1Math_1_1Scalar2GridBinary.html" target="_top" xlink:title=" ">
<polygon fill="none" stroke="black" points="914,-56.75 914,-86.75 1070,-86.75 1070,-56.75 914,-56.75"/>
<text text-anchor="start" x="922" y="-74.75" font-family="Helvetica" font-size="10.00">CDPL::Math::Scalar2GridBinary</text>
<text text-anchor="middle" x="992" y="-63.75" font-family="Helvetica" font-size="10.00">&lt; E1, E2, F &gt;</text>
</a>
</g>
</g>
<!-- Node21&#45;&gt;Node22 -->
<g id="edge23" class="edge">
<title>Node21&#45;&gt;Node22</title>
<path fill="none" stroke="midnightblue" d="M717.79,-71.75C776.65,-71.75 855.9,-71.75 913.89,-71.75"/>
<polygon fill="midnightblue" stroke="midnightblue" points="717.79,-68.25 707.79,-71.75 717.79,-75.25 717.79,-68.25"/>
</g>
<!-- Node23&#45;&gt;Node14 -->
<g id="edge25" class="edge">
<title>Node23&#45;&gt;Node14</title>
<path fill="none" stroke="midnightblue" d="M902.39,-189.52C977.68,-181.58 1092.48,-175.96 1189,-198.75 1197.71,-200.8 1198.79,-204.19 1207,-207.75 1214.91,-211.18 1223.46,-214.58 1231.73,-217.71"/>
<polygon fill="midnightblue" stroke="midnightblue" points="901.59,-186.08 892.03,-190.65 902.35,-193.04 901.59,-186.08"/>
</g>
<!-- Node25 -->
<g id="node25" class="node">
<title>Node25</title>
<g id="a_node25"><a xlink:href="classCDPL_1_1Math_1_1GridBinary1.html" target="_top" xlink:title=" ">
<polygon fill="none" stroke="black" points="928,-1.75 928,-31.75 1056,-31.75 1056,-1.75 928,-1.75"/>
<text text-anchor="start" x="936" y="-19.75" font-family="Helvetica" font-size="10.00">CDPL::Math::GridBinary1</text>
<text text-anchor="middle" x="992" y="-8.75" font-family="Helvetica" font-size="10.00">&lt; E1, E2, F &gt;</text>
</a>
</g>
</g>
<!-- Node24&#45;&gt;Node25 -->
<g id="edge27" class="edge">
<title>Node24&#45;&gt;Node25</title>
<path fill="none" stroke="midnightblue" d="M719.07,-16.75C782.73,-16.75 869.66,-16.75 927.93,-16.75"/>
<polygon fill="midnightblue" stroke="midnightblue" points="719.06,-13.25 709.06,-16.75 719.06,-20.25 719.06,-13.25"/>
</g>
<!-- Node26&#45;&gt;Node16 -->
<g id="edge29" class="edge">
<title>Node26&#45;&gt;Node16</title>
<path fill="none" stroke="midnightblue" d="M902.41,-158.27C977.01,-157.73 1090.74,-158.98 1189,-168.75 1194.85,-169.33 1200.9,-170.08 1206.96,-170.94"/>
<polygon fill="midnightblue" stroke="midnightblue" points="902.11,-154.78 892.14,-158.36 902.17,-161.78 902.11,-154.78"/>
</g>
</g>
</svg>
