<?xml version="1.0" encoding="UTF-8" standalone="no"?>
<!DOCTYPE svg PUBLIC "-//W3C//DTD SVG 1.1//EN"
 "http://www.w3.org/Graphics/SVG/1.1/DTD/svg11.dtd">
<!-- Generated by graphviz version 2.44.0 (0)
 -->
<!-- Title: CDPL::Math::QuaternionVectorBinary&lt; E1, E2, F &gt; Pages: 1 -->
<svg width="982pt" height="88pt"
 viewBox="0.00 0.00 982.00 88.00" xmlns="http://www.w3.org/2000/svg" xmlns:xlink="http://www.w3.org/1999/xlink">
<g id="graph0" class="graph" transform="scale(1 1) rotate(0) translate(4 84)">
<title>CDPL::Math::QuaternionVectorBinary&lt; E1, E2, F &gt;</title>
<!-- Node1 -->
<g id="node1" class="node">
<title>Node1</title>
<g id="a_node1"><a xlink:title=" ">
<polygon fill="#bfbfbf" stroke="black" points="822,-21 822,-51 974,-51 974,-21 822,-21"/>
<text text-anchor="start" x="830" y="-39" font-family="Helvetica" font-size="10.00">CDPL::Math::QuaternionVector</text>
<text text-anchor="middle" x="898" y="-28" font-family="Helvetica" font-size="10.00">Binary&lt; E1, E2, F &gt;</text>
</a>
</g>
</g>
<!-- Node2 -->
<g id="node2" class="node">
<title>Node2</title>
<g id="a_node2"><a xlink:href="classCDPL_1_1Math_1_1VectorExpression.html" target="_top" xlink:title=" ">
<polygon fill="none" stroke="black" points="632,-15.5 632,-56.5 785,-56.5 785,-15.5 632,-15.5"/>
<text text-anchor="start" x="640" y="-44.5" font-family="Helvetica" font-size="10.00">CDPL::Math::VectorExpression</text>
<text text-anchor="start" x="640" y="-33.5" font-family="Helvetica" font-size="10.00">&lt; QuaternionVectorBinary</text>
<text text-anchor="middle" x="708.5" y="-22.5" font-family="Helvetica" font-size="10.00">&lt; E1, E2, F &gt; &gt;</text>
</a>
</g>
</g>
<!-- Node2&#45;&gt;Node1 -->
<g id="edge1" class="edge">
<title>Node2&#45;&gt;Node1</title>
<path fill="none" stroke="midnightblue" d="M795.51,-36C804.32,-36 813.23,-36 821.91,-36"/>
<polygon fill="midnightblue" stroke="midnightblue" points="795.22,-32.5 785.22,-36 795.22,-39.5 795.22,-32.5"/>
</g>
<!-- Node3 -->
<g id="node3" class="node">
<title>Node3</title>
<g id="a_node3"><a xlink:href="classCDPL_1_1Math_1_1Expression.html" target="_top" xlink:title=" ">
<polygon fill="none" stroke="black" points="326.5,-38.5 326.5,-79.5 455.5,-79.5 455.5,-38.5 326.5,-38.5"/>
<text text-anchor="start" x="334.5" y="-67.5" font-family="Helvetica" font-size="10.00">CDPL::Math::Expression</text>
<text text-anchor="start" x="334.5" y="-56.5" font-family="Helvetica" font-size="10.00">&lt; QuaternionVectorBinary</text>
<text text-anchor="middle" x="391" y="-45.5" font-family="Helvetica" font-size="10.00">&lt; E1, E2, F &gt; &gt;</text>
</a>
</g>
</g>
<!-- Node3&#45;&gt;Node2 -->
<g id="edge2" class="edge">
<title>Node3&#45;&gt;Node2</title>
<path fill="none" stroke="midnightblue" d="M465.93,-53.61C515.84,-49.97 581.52,-45.18 631.8,-41.52"/>
<polygon fill="midnightblue" stroke="midnightblue" points="465.57,-50.13 455.85,-54.35 466.07,-57.11 465.57,-50.13"/>
</g>
<!-- Node4 -->
<g id="node4" class="node">
<title>Node4</title>
<g id="a_node4"><a xlink:href="classCDPL_1_1Math_1_1Expression.html" target="_top" xlink:title=" ">
<polygon fill="none" stroke="black" points="0,-24.5 0,-43.5 150,-43.5 150,-24.5 0,-24.5"/>
<text text-anchor="middle" x="75" y="-31.5" font-family="Helvetica" font-size="10.00">CDPL::Math::Expression&lt; E &gt;</text>
</a>
</g>
</g>
<!-- Node4&#45;&gt;Node3 -->
<g id="edge3" class="edge">
<title>Node4&#45;&gt;Node3</title>
<path fill="none" stroke="orange" stroke-dasharray="5,2" d="M160.26,-40.71C212.47,-44.87 278.46,-50.12 326.3,-53.93"/>
<polygon fill="orange" stroke="orange" points="160.26,-37.2 150.02,-39.89 159.71,-44.18 160.26,-37.2"/>
<text text-anchor="start" x="168" y="-64" font-family="Helvetica" font-size="10.00"> &lt; QuaternionVectorBinary</text>
<text text-anchor="middle" x="226" y="-53" font-family="Helvetica" font-size="10.00">&lt; E1, E2, F &gt; &gt;</text>
</g>
<!-- Node5 -->
<g id="node5" class="node">
<title>Node5</title>
<g id="a_node5"><a xlink:href="classCDPL_1_1Math_1_1VectorExpression.html" target="_top" xlink:title=" ">
<polygon fill="none" stroke="black" points="302,-0.5 302,-19.5 480,-19.5 480,-0.5 302,-0.5"/>
<text text-anchor="middle" x="391" y="-7.5" font-family="Helvetica" font-size="10.00">CDPL::Math::VectorExpression&lt; E &gt;</text>
</a>
</g>
</g>
<!-- Node4&#45;&gt;Node5 -->
<g id="edge5" class="edge">
<title>Node4&#45;&gt;Node5</title>
<path fill="none" stroke="midnightblue" d="M160.08,-27.57C203.93,-24.22 257.55,-20.12 301.97,-16.73"/>
<polygon fill="midnightblue" stroke="midnightblue" points="159.72,-24.09 150.02,-28.34 160.25,-31.07 159.72,-24.09"/>
</g>
<!-- Node5&#45;&gt;Node2 -->
<g id="edge4" class="edge">
<title>Node5&#45;&gt;Node2</title>
<path fill="none" stroke="orange" stroke-dasharray="5,2" d="M490.25,-9.53C528.92,-10.28 573.65,-12.3 614,-17 619.84,-17.68 625.86,-18.54 631.9,-19.51"/>
<polygon fill="orange" stroke="orange" points="490.09,-6.03 480.03,-9.36 489.97,-13.03 490.09,-6.03"/>
<text text-anchor="start" x="498" y="-31" font-family="Helvetica" font-size="10.00"> &lt; QuaternionVectorBinary</text>
<text text-anchor="middle" x="556" y="-20" font-family="Helvetica" font-size="10.00">&lt; E1, E2, F &gt; &gt;</text>
</g>
</g>
</svg>
