<?xml version="1.0" encoding="UTF-8" standalone="no"?>
<!DOCTYPE svg PUBLIC "-//W3C//DTD SVG 1.1//EN"
 "http://www.w3.org/Graphics/SVG/1.1/DTD/svg11.dtd">
<!-- Generated by graphviz version 2.44.0 (0)
 -->
<!-- Title: CDPL::Math::ZeroVector&lt; T &gt; Pages: 1 -->
<svg width="1442pt" height="120pt"
 viewBox="0.00 0.00 1442.00 119.50" xmlns="http://www.w3.org/2000/svg" xmlns:xlink="http://www.w3.org/1999/xlink">
<g id="graph0" class="graph" transform="scale(1 1) rotate(0) translate(4 115.5)">
<title>CDPL::Math::ZeroVector&lt; T &gt;</title>
<!-- Node1 -->
<g id="node1" class="node">
<title>Node1</title>
<g id="a_node1"><a xlink:title=" ">
<polygon fill="#bfbfbf" stroke="black" points="1286,-47.5 1286,-66.5 1434,-66.5 1434,-47.5 1286,-47.5"/>
<text text-anchor="middle" x="1360" y="-54.5" font-family="Helvetica" font-size="10.00">CDPL::Math::ZeroVector&lt; T &gt;</text>
</a>
</g>
</g>
<!-- Node2 -->
<g id="node2" class="node">
<title>Node2</title>
<g id="a_node2"><a xlink:href="classCDPL_1_1Math_1_1VectorContainer.html" target="_top" xlink:title=" ">
<polygon fill="none" stroke="black" points="1103,-42 1103,-72 1249,-72 1249,-42 1103,-42"/>
<text text-anchor="start" x="1111" y="-60" font-family="Helvetica" font-size="10.00">CDPL::Math::VectorContainer</text>
<text text-anchor="middle" x="1176" y="-49" font-family="Helvetica" font-size="10.00">&lt; ZeroVector&lt; T &gt; &gt;</text>
</a>
</g>
</g>
<!-- Node2&#45;&gt;Node1 -->
<g id="edge1" class="edge">
<title>Node2&#45;&gt;Node1</title>
<path fill="none" stroke="midnightblue" d="M1259.41,-57C1268.18,-57 1277.05,-57 1285.7,-57"/>
<polygon fill="midnightblue" stroke="midnightblue" points="1259.19,-53.5 1249.19,-57 1259.19,-60.5 1259.19,-53.5"/>
</g>
<!-- Node3 -->
<g id="node3" class="node">
<title>Node3</title>
<g id="a_node3"><a xlink:href="classCDPL_1_1Math_1_1VectorExpression.html" target="_top" xlink:title=" ">
<polygon fill="none" stroke="black" points="599,-62 599,-92 752,-92 752,-62 599,-62"/>
<text text-anchor="start" x="607" y="-80" font-family="Helvetica" font-size="10.00">CDPL::Math::VectorExpression</text>
<text text-anchor="middle" x="675.5" y="-69" font-family="Helvetica" font-size="10.00">&lt; ZeroVector&lt; T &gt; &gt;</text>
</a>
</g>
</g>
<!-- Node3&#45;&gt;Node2 -->
<g id="edge2" class="edge">
<title>Node3&#45;&gt;Node2</title>
<path fill="none" stroke="midnightblue" d="M762.28,-74.32C844.96,-71.62 973.56,-67.14 1085,-62 1090.78,-61.73 1096.78,-61.44 1102.8,-61.13"/>
<polygon fill="midnightblue" stroke="midnightblue" points="762.06,-70.82 752.18,-74.65 762.29,-77.82 762.06,-70.82"/>
</g>
<!-- Node4 -->
<g id="node4" class="node">
<title>Node4</title>
<g id="a_node4"><a xlink:href="classCDPL_1_1Math_1_1Expression.html" target="_top" xlink:title=" ">
<polygon fill="none" stroke="black" points="305.5,-81 305.5,-111 430.5,-111 430.5,-81 305.5,-81"/>
<text text-anchor="start" x="313.5" y="-99" font-family="Helvetica" font-size="10.00">CDPL::Math::Expression</text>
<text text-anchor="middle" x="368" y="-88" font-family="Helvetica" font-size="10.00">&lt; ZeroVector&lt; T &gt; &gt;</text>
</a>
</g>
</g>
<!-- Node4&#45;&gt;Node3 -->
<g id="edge3" class="edge">
<title>Node4&#45;&gt;Node3</title>
<path fill="none" stroke="midnightblue" d="M441.25,-91.74C479.02,-89.49 526.01,-86.65 568,-84 577.99,-83.37 588.5,-82.7 598.87,-82.02"/>
<polygon fill="midnightblue" stroke="midnightblue" points="440.63,-88.27 430.86,-92.36 441.05,-95.26 440.63,-88.27"/>
</g>
<!-- Node5 -->
<g id="node5" class="node">
<title>Node5</title>
<g id="a_node5"><a xlink:href="classCDPL_1_1Math_1_1Expression.html" target="_top" xlink:title=" ">
<polygon fill="none" stroke="black" points="0,-41.5 0,-60.5 150,-60.5 150,-41.5 0,-41.5"/>
<text text-anchor="middle" x="75" y="-48.5" font-family="Helvetica" font-size="10.00">CDPL::Math::Expression&lt; E &gt;</text>
</a>
</g>
</g>
<!-- Node5&#45;&gt;Node4 -->
<g id="edge4" class="edge">
<title>Node5&#45;&gt;Node4</title>
<path fill="none" stroke="orange" stroke-dasharray="5,2" d="M147.8,-62.1C196.16,-69.58 259.29,-79.34 305.38,-86.47"/>
<polygon fill="orange" stroke="orange" points="148.13,-58.61 137.71,-60.54 147.06,-65.53 148.13,-58.61"/>
<text text-anchor="middle" x="214.5" y="-81" font-family="Helvetica" font-size="10.00"> &lt; ZeroVector&lt; T &gt; &gt;</text>
</g>
<!-- Node6 -->
<g id="node6" class="node">
<title>Node6</title>
<g id="a_node6"><a xlink:href="classCDPL_1_1Math_1_1VectorExpression.html" target="_top" xlink:title=" ">
<polygon fill="none" stroke="black" points="279,-41.5 279,-60.5 457,-60.5 457,-41.5 279,-41.5"/>
<text text-anchor="middle" x="368" y="-48.5" font-family="Helvetica" font-size="10.00">CDPL::Math::VectorExpression&lt; E &gt;</text>
</a>
</g>
</g>
<!-- Node5&#45;&gt;Node6 -->
<g id="edge6" class="edge">
<title>Node5&#45;&gt;Node6</title>
<path fill="none" stroke="midnightblue" d="M160.49,-51C197.69,-51 241.38,-51 278.97,-51"/>
<polygon fill="midnightblue" stroke="midnightblue" points="160.18,-47.5 150.18,-51 160.18,-54.5 160.18,-47.5"/>
</g>
<!-- Node9 -->
<g id="node9" class="node">
<title>Node9</title>
<g id="a_node9"><a xlink:href="classCDPL_1_1Math_1_1Expression.html" target="_top" xlink:title=" ">
<polygon fill="none" stroke="black" points="292.5,-0.5 292.5,-19.5 443.5,-19.5 443.5,-0.5 292.5,-0.5"/>
<text text-anchor="middle" x="368" y="-7.5" font-family="Helvetica" font-size="10.00">CDPL::Math::Expression&lt; C &gt;</text>
</a>
</g>
</g>
<!-- Node5&#45;&gt;Node9 -->
<g id="edge10" class="edge">
<title>Node5&#45;&gt;Node9</title>
<path fill="none" stroke="orange" stroke-dasharray="5,2" d="M142.78,-39.86C151.26,-38.52 159.83,-37.2 168,-36 209.02,-29.98 254.91,-23.94 292.27,-19.19"/>
<polygon fill="orange" stroke="orange" points="142.21,-36.4 132.89,-41.44 143.31,-43.32 142.21,-36.4"/>
<text text-anchor="middle" x="214.5" y="-39" font-family="Helvetica" font-size="10.00"> &lt; C &gt;</text>
</g>
<!-- Node6&#45;&gt;Node3 -->
<g id="edge5" class="edge">
<title>Node6&#45;&gt;Node3</title>
<path fill="none" stroke="orange" stroke-dasharray="5,2" d="M467.47,-59.38C510.05,-63 559.09,-67.18 598.76,-70.55"/>
<polygon fill="orange" stroke="orange" points="467.62,-55.88 457.36,-58.52 467.03,-62.86 467.62,-55.88"/>
<text text-anchor="middle" x="521.5" y="-70" font-family="Helvetica" font-size="10.00"> &lt; ZeroVector&lt; T &gt; &gt;</text>
</g>
<!-- Node8 -->
<g id="node8" class="node">
<title>Node8</title>
<g id="a_node8"><a xlink:href="classCDPL_1_1Math_1_1VectorExpression.html" target="_top" xlink:title=" ">
<polygon fill="none" stroke="black" points="586,-23.5 586,-42.5 765,-42.5 765,-23.5 586,-23.5"/>
<text text-anchor="middle" x="675.5" y="-30.5" font-family="Helvetica" font-size="10.00">CDPL::Math::VectorExpression&lt; C &gt;</text>
</a>
</g>
</g>
<!-- Node6&#45;&gt;Node8 -->
<g id="edge11" class="edge">
<title>Node6&#45;&gt;Node8</title>
<path fill="none" stroke="orange" stroke-dasharray="5,2" d="M456.85,-40.49C462.99,-39.93 469.08,-39.42 475,-39 511.12,-36.42 550.99,-34.94 585.54,-34.1"/>
<polygon fill="orange" stroke="orange" points="456.13,-37.04 446.51,-41.48 456.79,-44.01 456.13,-37.04"/>
<text text-anchor="middle" x="521.5" y="-42" font-family="Helvetica" font-size="10.00"> &lt; C &gt;</text>
</g>
<!-- Node7 -->
<g id="node7" class="node">
<title>Node7</title>
<g id="a_node7"><a xlink:href="classCDPL_1_1Math_1_1VectorContainer.html" target="_top" xlink:title=" ">
<polygon fill="none" stroke="black" points="802,-27.5 802,-46.5 974,-46.5 974,-27.5 802,-27.5"/>
<text text-anchor="middle" x="888" y="-34.5" font-family="Helvetica" font-size="10.00">CDPL::Math::VectorContainer&lt; C &gt;</text>
</a>
</g>
</g>
<!-- Node7&#45;&gt;Node2 -->
<g id="edge7" class="edge">
<title>Node7&#45;&gt;Node2</title>
<path fill="none" stroke="orange" stroke-dasharray="5,2" d="M984.27,-43.66C1022.95,-46.37 1066.9,-49.44 1102.85,-51.95"/>
<polygon fill="orange" stroke="orange" points="984.25,-40.15 974.04,-42.95 983.77,-47.14 984.25,-40.15"/>
<text text-anchor="middle" x="1038.5" y="-54" font-family="Helvetica" font-size="10.00"> &lt; ZeroVector&lt; T &gt; &gt;</text>
</g>
<!-- Node8&#45;&gt;Node7 -->
<g id="edge8" class="edge">
<title>Node8&#45;&gt;Node7</title>
<path fill="none" stroke="midnightblue" d="M775.17,-34.87C784.07,-35.04 793.03,-35.21 801.8,-35.38"/>
<polygon fill="midnightblue" stroke="midnightblue" points="775.23,-31.38 765.16,-34.68 775.09,-38.37 775.23,-31.38"/>
</g>
<!-- Node9&#45;&gt;Node8 -->
<g id="edge9" class="edge">
<title>Node9&#45;&gt;Node8</title>
<path fill="none" stroke="midnightblue" d="M453.73,-16.38C494.86,-19.48 544.25,-23.19 585.88,-26.33"/>
<polygon fill="midnightblue" stroke="midnightblue" points="453.97,-12.89 443.73,-15.63 453.44,-19.87 453.97,-12.89"/>
</g>
</g>
</svg>
