<?xml version="1.0" encoding="UTF-8" standalone="no"?>
<!DOCTYPE svg PUBLIC "-//W3C//DTD SVG 1.1//EN"
 "http://www.w3.org/Graphics/SVG/1.1/DTD/svg11.dtd">
<!-- Generated by graphviz version 2.40.1 (0)
 -->
<!-- Title: CDPL::Math::ScalarGrid&lt; T &gt; Pages: 1 -->
<!--zoomable 120 -->
<svg id="main" version="1.1" xmlns="http://www.w3.org/2000/svg" xmlns:xlink="http://www.w3.org/1999/xlink" xml:space="preserve" onload="init(evt)">
<style type="text/css"><![CDATA[
.edge:hover path { stroke: red; }
.edge:hover polygon { stroke: red; fill: red; }
]]></style>
<script type="text/javascript"><![CDATA[
var edges = document.getElementsByTagName('g');
if (edges && edges.length) {
  for (var i=0;i<edges.length;i++) {
    if (edges[i].id.substr(0,4)=='edge') {
      edges[i].setAttribute('class','edge');
    }
  }
}
]]></script>
        <defs>
                <circle id="rim" cx="0" cy="0" r="7"/>
                <circle id="rim2" cx="0" cy="0" r="3.5"/>
                <g id="zoomPlus">
                        <use xlink:href="#rim" fill="#404040">
                                <set attributeName="fill" to="#808080" begin="zoomplus.mouseover" end="zoomplus.mouseout"/>
                        </use>
                        <path d="M-4,0h8M0,-4v8" fill="none" stroke="white" stroke-width="1.5" pointer-events="none"/>
                </g>
                <g id="zoomMin">
                        <use xlink:href="#rim" fill="#404040">
                                <set attributeName="fill" to="#808080" begin="zoomminus.mouseover" end="zoomminus.mouseout"/>
                        </use>
                        <path d="M-4,0h8" fill="none" stroke="white" stroke-width="1.5" pointer-events="none"/>
                </g>
                <g id="dirArrow">
                        <path fill="none" stroke="white" stroke-width="1.5" d="M0,-3.0v7 M-2.5,-0.5L0,-3.0L2.5,-0.5"/>
                </g>
               <g id="resetDef">
                       <use xlink:href="#rim2" fill="#404040">
                               <set attributeName="fill" to="#808080" begin="reset.mouseover" end="reset.mouseout"/>
                       </use>
               </g>
        </defs>

<script type="text/javascript">
var viewWidth = 1504;
var viewHeight = 120;
var sectionId = 'dynsection-0';
</script>
<script xlink:href="svgpan.js"/>
<svg id="graph" class="graph">
<g id="viewport">
<title>CDPL::Math::ScalarGrid&lt; T &gt;</title>
<!-- Node1 -->
<g id="node1" class="node">
<title>Node1</title>
<g id="a_node1"><a xlink:title=" ">
<polygon fill="#bfbfbf" stroke="#000000" points="1339,-47.5 1339,-66.5 1496,-66.5 1496,-47.5 1339,-47.5"/>
<text text-anchor="middle" x="1417.5" y="-54.5" font-family="Helvetica,sans-Serif" font-size="10.00" fill="#000000">CDPL::Math::ScalarGrid&lt; T &gt;</text>
</a>
</g>
</g>
<!-- Node2 -->
<g id="node2" class="node">
<title>Node2</title>
<g id="a_node2"><a xlink:href="classCDPL_1_1Math_1_1GridContainer.html" target="_top" xlink:title=" ">
<polygon fill="none" stroke="#000000" points="1156,-42 1156,-72 1302,-72 1302,-42 1156,-42"/>
<text text-anchor="start" x="1164" y="-60" font-family="Helvetica,sans-Serif" font-size="10.00" fill="#000000">CDPL::Math::GridContainer</text>
<text text-anchor="middle" x="1229" y="-49" font-family="Helvetica,sans-Serif" font-size="10.00" fill="#000000">&lt; ScalarGrid&lt; T &gt; &gt;</text>
</a>
</g>
</g>
<!-- Node2&#45;&gt;Node1 -->
<g id="edge1" class="edge">
<title>Node2&#45;&gt;Node1</title>
<path fill="none" stroke="#191970" d="M1312.3734,-57C1321.149,-57 1330.052,-57 1338.7727,-57"/>
<polygon fill="#191970" stroke="#191970" points="1312.1489,-53.5001 1302.1488,-57 1312.1488,-60.5001 1312.1489,-53.5001"/>
</g>
<!-- Node3 -->
<g id="node3" class="node">
<title>Node3</title>
<g id="a_node3"><a xlink:href="classCDPL_1_1Math_1_1GridExpression.html" target="_top" xlink:title=" ">
<polygon fill="none" stroke="#000000" points="636.5,-62 636.5,-92 788.5,-92 788.5,-62 636.5,-62"/>
<text text-anchor="start" x="644.5" y="-80" font-family="Helvetica,sans-Serif" font-size="10.00" fill="#000000">CDPL::Math::GridExpression</text>
<text text-anchor="middle" x="712.5" y="-69" font-family="Helvetica,sans-Serif" font-size="10.00" fill="#000000">&lt; ScalarGrid&lt; T &gt; &gt;</text>
</a>
</g>
</g>
<!-- Node3&#45;&gt;Node2 -->
<g id="edge2" class="edge">
<title>Node3&#45;&gt;Node2</title>
<path fill="none" stroke="#191970" d="M798.8466,-74.4535C884.8259,-71.8006 1020.5647,-67.2957 1138,-62 1143.8484,-61.7363 1149.9071,-61.4443 1155.9932,-61.1378"/>
<polygon fill="#191970" stroke="#191970" points="798.5004,-70.9624 788.6126,-74.7678 798.7153,-77.9591 798.5004,-70.9624"/>
</g>
<!-- Node4 -->
<g id="node4" class="node">
<title>Node4</title>
<g id="a_node4"><a xlink:href="classCDPL_1_1Math_1_1Expression.html" target="_top" xlink:title=" ">
<polygon fill="none" stroke="#000000" points="325.5,-81 325.5,-111 456.5,-111 456.5,-81 325.5,-81"/>
<text text-anchor="start" x="333.5" y="-99" font-family="Helvetica,sans-Serif" font-size="10.00" fill="#000000">CDPL::Math::Expression</text>
<text text-anchor="middle" x="391" y="-88" font-family="Helvetica,sans-Serif" font-size="10.00" fill="#000000">&lt; ScalarGrid&lt; T &gt; &gt;</text>
</a>
</g>
</g>
<!-- Node4&#45;&gt;Node3 -->
<g id="edge3" class="edge">
<title>Node4&#45;&gt;Node3</title>
<path fill="none" stroke="#191970" d="M466.8457,-91.8775C507.5208,-89.6286 558.5004,-86.7494 604,-84 614.4571,-83.3681 625.4796,-82.6812 636.331,-81.9928"/>
<polygon fill="#191970" stroke="#191970" points="466.5282,-88.3896 456.7362,-92.4352 466.9138,-95.3789 466.5282,-88.3896"/>
</g>
<!-- Node5 -->
<g id="node5" class="node">
<title>Node5</title>
<g id="a_node5"><a xlink:href="classCDPL_1_1Math_1_1Expression.html" target="_top" xlink:title=" ">
<polygon fill="none" stroke="#000000" points="0,-41.5 0,-60.5 160,-60.5 160,-41.5 0,-41.5"/>
<text text-anchor="middle" x="80" y="-48.5" font-family="Helvetica,sans-Serif" font-size="10.00" fill="#000000">CDPL::Math::Expression&lt; E &gt;</text>
</a>
</g>
</g>
<!-- Node5&#45;&gt;Node4 -->
<g id="edge4" class="edge">
<title>Node5&#45;&gt;Node4</title>
<path fill="none" stroke="#ffa500" stroke-dasharray="5,2" d="M156.1029,-62.0117C207.9666,-69.5161 275.9344,-79.3506 325.4071,-86.5091"/>
<polygon fill="#ffa500" stroke="#ffa500" points="156.3533,-58.5115 145.9551,-60.5433 155.3508,-65.4394 156.3533,-58.5115"/>
<text text-anchor="middle" x="230.5" y="-83" font-family="Helvetica,sans-Serif" font-size="10.00" fill="#000000"> &lt; ScalarGrid&lt; T &gt; &gt;</text>
</g>
<!-- Node6 -->
<g id="node6" class="node">
<title>Node6</title>
<g id="a_node6"><a xlink:href="classCDPL_1_1Math_1_1GridExpression.html" target="_top" xlink:title=" ">
<polygon fill="none" stroke="#000000" points="301,-41.5 301,-60.5 481,-60.5 481,-41.5 301,-41.5"/>
<text text-anchor="middle" x="391" y="-48.5" font-family="Helvetica,sans-Serif" font-size="10.00" fill="#000000">CDPL::Math::GridExpression&lt; E &gt;</text>
</a>
</g>
</g>
<!-- Node5&#45;&gt;Node6 -->
<g id="edge6" class="edge">
<title>Node5&#45;&gt;Node6</title>
<path fill="none" stroke="#191970" d="M170.3486,-51C211.3592,-51 259.7502,-51 300.749,-51"/>
<polygon fill="#191970" stroke="#191970" points="170.0903,-47.5001 160.0902,-51 170.0902,-54.5001 170.0903,-47.5001"/>
</g>
<!-- Node9 -->
<g id="node9" class="node">
<title>Node9</title>
<g id="a_node9"><a xlink:href="classCDPL_1_1Math_1_1Expression.html" target="_top" xlink:title=" ">
<polygon fill="none" stroke="#000000" points="310.5,-.5 310.5,-19.5 471.5,-19.5 471.5,-.5 310.5,-.5"/>
<text text-anchor="middle" x="391" y="-7.5" font-family="Helvetica,sans-Serif" font-size="10.00" fill="#000000">CDPL::Math::Expression&lt; C &gt;</text>
</a>
</g>
</g>
<!-- Node5&#45;&gt;Node9 -->
<g id="edge10" class="edge">
<title>Node5&#45;&gt;Node9</title>
<path fill="none" stroke="#ffa500" stroke-dasharray="5,2" d="M150.3512,-39.9684C159.6432,-38.5887 169.0466,-37.2314 178,-36 221.6416,-29.9979 270.4126,-23.9933 310.2626,-19.269"/>
<polygon fill="#ffa500" stroke="#ffa500" points="149.709,-36.5255 140.3385,-41.4695 150.7469,-43.4481 149.709,-36.5255"/>
<text text-anchor="middle" x="230.5" y="-39" font-family="Helvetica,sans-Serif" font-size="10.00" fill="#000000"> &lt; C &gt;</text>
</g>
<!-- Node6&#45;&gt;Node3 -->
<g id="edge5" class="edge">
<title>Node6&#45;&gt;Node3</title>
<path fill="none" stroke="#ffa500" stroke-dasharray="5,2" d="M491.5721,-59.1334C538.3494,-62.9163 593.072,-67.3417 636.352,-70.8418"/>
<polygon fill="#ffa500" stroke="#ffa500" points="491.6609,-55.6292 481.4112,-58.3116 491.0965,-62.6064 491.6609,-55.6292"/>
<text text-anchor="middle" x="551.5" y="-70" font-family="Helvetica,sans-Serif" font-size="10.00" fill="#000000"> &lt; ScalarGrid&lt; T &gt; &gt;</text>
</g>
<!-- Node8 -->
<g id="node8" class="node">
<title>Node8</title>
<g id="a_node8"><a xlink:href="classCDPL_1_1Math_1_1GridExpression.html" target="_top" xlink:title=" ">
<polygon fill="none" stroke="#000000" points="622,-23.5 622,-42.5 803,-42.5 803,-23.5 622,-23.5"/>
<text text-anchor="middle" x="712.5" y="-30.5" font-family="Helvetica,sans-Serif" font-size="10.00" fill="#000000">CDPL::Math::GridExpression&lt; C &gt;</text>
</a>
</g>
</g>
<!-- Node6&#45;&gt;Node8 -->
<g id="edge11" class="edge">
<title>Node6&#45;&gt;Node8</title>
<path fill="none" stroke="#ffa500" stroke-dasharray="5,2" d="M479.8585,-40.5366C486.3308,-39.9557 492.7629,-39.4334 499,-39 539.2282,-36.2046 583.8061,-34.7015 621.7787,-33.8971"/>
<polygon fill="#ffa500" stroke="#ffa500" points="479.3059,-37.073 469.6772,-41.4934 479.9608,-44.0423 479.3059,-37.073"/>
<text text-anchor="middle" x="551.5" y="-42" font-family="Helvetica,sans-Serif" font-size="10.00" fill="#000000"> &lt; C &gt;</text>
</g>
<!-- Node7 -->
<g id="node7" class="node">
<title>Node7</title>
<g id="a_node7"><a xlink:href="classCDPL_1_1Math_1_1GridContainer.html" target="_top" xlink:title=" ">
<polygon fill="none" stroke="#000000" points="840,-27.5 840,-46.5 1015,-46.5 1015,-27.5 840,-27.5"/>
<text text-anchor="middle" x="927.5" y="-34.5" font-family="Helvetica,sans-Serif" font-size="10.00" fill="#000000">CDPL::Math::GridContainer&lt; C &gt;</text>
</a>
</g>
</g>
<!-- Node7&#45;&gt;Node2 -->
<g id="edge7" class="edge">
<title>Node7&#45;&gt;Node2</title>
<path fill="none" stroke="#ffa500" stroke-dasharray="5,2" d="M1025.2012,-43.481C1067.7058,-46.3005 1116.6593,-49.5479 1155.9334,-52.1531"/>
<polygon fill="#ffa500" stroke="#ffa500" points="1025.3211,-39.9814 1015.1113,-42.8117 1024.8577,-46.966 1025.3211,-39.9814"/>
<text text-anchor="middle" x="1085.5" y="-54" font-family="Helvetica,sans-Serif" font-size="10.00" fill="#000000"> &lt; ScalarGrid&lt; T &gt; &gt;</text>
</g>
<!-- Node8&#45;&gt;Node7 -->
<g id="edge8" class="edge">
<title>Node8&#45;&gt;Node7</title>
<path fill="none" stroke="#191970" d="M813.0885,-34.8714C822.01,-35.0374 830.9951,-35.2046 839.7969,-35.3683"/>
<polygon fill="#191970" stroke="#191970" points="813.1196,-31.3715 803.0562,-34.6848 812.9894,-38.3703 813.1196,-31.3715"/>
</g>
<!-- Node9&#45;&gt;Node8 -->
<g id="edge9" class="edge">
<title>Node9&#45;&gt;Node8</title>
<path fill="none" stroke="#191970" d="M481.786,-16.4948C525.5968,-19.629 578.0217,-23.3795 621.8188,-26.5127"/>
<polygon fill="#191970" stroke="#191970" points="481.9373,-12.9968 471.713,-15.7742 481.4378,-19.9789 481.9373,-12.9968"/>
</g>
</g>
</svg>
        <g id="navigator" transform="translate(0 0)" fill="#404254">
                <rect fill="#f2f5e9" fill-opacity="0.5" stroke="#606060" stroke-width=".5" x="0" y="0" width="60" height="60"/>
                <use id="zoomplus" xlink:href="#zoomPlus" x="17" y="9" onmousedown="handleZoom(evt,'in')"/>
                <use id="zoomminus" xlink:href="#zoomMin" x="42" y="9" onmousedown="handleZoom(evt,'out')"/>
                <use id="reset" xlink:href="#resetDef" x="30" y="36" onmousedown="handleReset()"/>
                <g id="arrowUp" xlink:href="#dirArrow" transform="translate(30 24)" onmousedown="handlePan(0,-1)">
                  <use xlink:href="#rim" fill="#404040">
                        <set attributeName="fill" to="#808080" begin="arrowUp.mouseover" end="arrowUp.mouseout"/>
                  </use>
                  <path fill="none" stroke="white" stroke-width="1.5" d="M0,-3.0v7 M-2.5,-0.5L0,-3.0L2.5,-0.5"/>
                </g>
                <g id="arrowRight" xlink:href="#dirArrow" transform="rotate(90) translate(36 -43)" onmousedown="handlePan(1,0)">
                  <use xlink:href="#rim" fill="#404040">
                        <set attributeName="fill" to="#808080" begin="arrowRight.mouseover" end="arrowRight.mouseout"/>
                  </use>
                  <path fill="none" stroke="white" stroke-width="1.5" d="M0,-3.0v7 M-2.5,-0.5L0,-3.0L2.5,-0.5"/>
                </g>
                <g id="arrowDown" xlink:href="#dirArrow" transform="rotate(180) translate(-30 -48)" onmousedown="handlePan(0,1)">
                  <use xlink:href="#rim" fill="#404040">
                        <set attributeName="fill" to="#808080" begin="arrowDown.mouseover" end="arrowDown.mouseout"/>
                  </use>
                  <path fill="none" stroke="white" stroke-width="1.5" d="M0,-3.0v7 M-2.5,-0.5L0,-3.0L2.5,-0.5"/>
                </g>
                <g id="arrowLeft" xlink:href="#dirArrow" transform="rotate(270) translate(-36 17)" onmousedown="handlePan(-1,0)">
                  <use xlink:href="#rim" fill="#404040">
                        <set attributeName="fill" to="#808080" begin="arrowLeft.mouseover" end="arrowLeft.mouseout"/>
                  </use>
                  <path fill="none" stroke="white" stroke-width="1.5" d="M0,-3.0v7 M-2.5,-0.5L0,-3.0L2.5,-0.5"/>
                </g>
        </g>
        <svg viewBox="0 0 15 15" width="100%" height="30px" preserveAspectRatio="xMaxYMin meet">
         <g id="arrow_out" transform="scale(0.3 0.3)">
          <a xlink:href="classCDPL_1_1Math_1_1ScalarGrid__inherit__graph_org.svg" target="_base">
           <rect id="button" ry="5" rx="5" y="6" x="6" height="38" width="38"
                fill="#f2f5e9" fill-opacity="0.5" stroke="#606060" stroke-width="1.0"/>
           <path id="arrow"
             d="M 11.500037,31.436501 C 11.940474,20.09759 22.043105,11.32322 32.158766,21.979434 L 37.068811,17.246167 C 37.068811,17.246167 37.088388,32 37.088388,32 L 22.160133,31.978069 C 22.160133,31.978069 26.997745,27.140456 26.997745,27.140456 C 18.528582,18.264221 13.291696,25.230495 11.500037,31.436501 z"
             style="fill:#404040;"/>
          </a>
         </g>
        </svg>
</svg>
