<?xml version="1.0" encoding="UTF-8" standalone="no"?>
<!DOCTYPE svg PUBLIC "-//W3C//DTD SVG 1.1//EN"
 "http://www.w3.org/Graphics/SVG/1.1/DTD/svg11.dtd">
<!-- Generated by graphviz version 2.40.1 (0)
 -->
<!-- Title: CDPL::Util::ObjectStack&lt; T &gt; Pages: 1 -->
<svg width="545pt" height="1090pt"
 viewBox="0.00 0.00 545.00 1089.59" xmlns="http://www.w3.org/2000/svg" xmlns:xlink="http://www.w3.org/1999/xlink">
<g id="graph0" class="graph" transform="scale(1 1) rotate(0) translate(4 1085.5947)">
<title>CDPL::Util::ObjectStack&lt; T &gt;</title>
<!-- Node1 -->
<g id="node1" class="node">
<title>Node1</title>
<g id="a_node1"><a xlink:title="ObjectStack.">
<polygon fill="#bfbfbf" stroke="#000000" points="0,-526.0947 0,-545.0947 158,-545.0947 158,-526.0947 0,-526.0947"/>
<text text-anchor="middle" x="79" y="-533.0947" font-family="Helvetica,sans-Serif" font-size="10.00" fill="#000000">CDPL::Util::ObjectStack&lt; T &gt;</text>
</a>
</g>
</g>
<!-- Node2 -->
<g id="node2" class="node">
<title>Node2</title>
<g id="a_node2"><a xlink:href="classCDPL_1_1Util_1_1ObjectStack.html" target="_top" xlink:title=" ">
<polygon fill="none" stroke="#000000" points="383,-1035.5947 383,-1065.5947 513,-1065.5947 513,-1035.5947 383,-1035.5947"/>
<text text-anchor="start" x="391" y="-1053.5947" font-family="Helvetica,sans-Serif" font-size="10.00" fill="#000000">CDPL::Util::ObjectStack</text>
<text text-anchor="middle" x="448" y="-1042.5947" font-family="Helvetica,sans-Serif" font-size="10.00" fill="#000000">&lt; AGEdge &gt;</text>
</a>
</g>
</g>
<!-- Node1&#45;&gt;Node2 -->
<g id="edge1" class="edge">
<title>Node1&#45;&gt;Node2</title>
<path fill="none" stroke="#ffa500" stroke-dasharray="5,2" d="M79.827,-555.3548C83.7701,-639.1717 103.5844,-963.9691 176,-1028.5947 231.6722,-1078.278 321.7971,-1075.1549 382.9091,-1065.3961"/>
<polygon fill="#ffa500" stroke="#ffa500" points="83.3153,-555.0131 79.3722,-545.1794 76.3223,-555.3258 83.3153,-555.0131"/>
<text text-anchor="middle" x="258.5" y="-1073.5947" font-family="Helvetica,sans-Serif" font-size="10.00" fill="#000000"> &lt; AGEdge &gt;</text>
</g>
<!-- Node3 -->
<g id="node3" class="node">
<title>Node3</title>
<g id="a_node3"><a xlink:href="classCDPL_1_1Util_1_1ObjectStack.html" target="_top" xlink:title=" ">
<polygon fill="none" stroke="#000000" points="382.5,-986.5947 382.5,-1016.5947 513.5,-1016.5947 513.5,-986.5947 382.5,-986.5947"/>
<text text-anchor="start" x="390.5" y="-1004.5947" font-family="Helvetica,sans-Serif" font-size="10.00" fill="#000000">CDPL::Util::ObjectStack</text>
<text text-anchor="middle" x="448" y="-993.5947" font-family="Helvetica,sans-Serif" font-size="10.00" fill="#000000">&lt; AtomBondMapping &gt;</text>
</a>
</g>
</g>
<!-- Node1&#45;&gt;Node3 -->
<g id="edge2" class="edge">
<title>Node1&#45;&gt;Node3</title>
<path fill="none" stroke="#ffa500" stroke-dasharray="5,2" d="M80.4444,-555.3981C86.5173,-632.8286 112.658,-913.63 176,-970.5947 231.4825,-1020.4912 321.2152,-1020.8461 382.3204,-1013.6584"/>
<polygon fill="#ffa500" stroke="#ffa500" points="83.9126,-554.8454 79.6654,-545.1391 76.9327,-555.3754 83.9126,-554.8454"/>
<text text-anchor="middle" x="258.5" y="-1019.5947" font-family="Helvetica,sans-Serif" font-size="10.00" fill="#000000"> &lt; AtomBondMapping &gt;</text>
</g>
<!-- Node4 -->
<g id="node4" class="node">
<title>Node4</title>
<g id="a_node4"><a xlink:href="classCDPL_1_1Util_1_1ObjectStack.html" target="_top" xlink:title=" ">
<polygon fill="none" stroke="#000000" points="380,-937.5947 380,-967.5947 516,-967.5947 516,-937.5947 380,-937.5947"/>
<text text-anchor="start" x="388" y="-955.5947" font-family="Helvetica,sans-Serif" font-size="10.00" fill="#000000">CDPL::Util::ObjectStack</text>
<text text-anchor="middle" x="448" y="-944.5947" font-family="Helvetica,sans-Serif" font-size="10.00" fill="#000000">&lt; PolygonPrimitive2D &gt;</text>
</a>
</g>
</g>
<!-- Node1&#45;&gt;Node4 -->
<g id="edge3" class="edge">
<title>Node1&#45;&gt;Node4</title>
<path fill="none" stroke="#ffa500" stroke-dasharray="5,2" d="M80.8713,-555.4995C88.1762,-628.6042 117.3108,-880.6223 176,-930.5947 205.669,-955.8571 309.5193,-957.7373 379.9658,-955.8541"/>
<polygon fill="#ffa500" stroke="#ffa500" points="84.3369,-554.9753 79.8851,-545.3612 77.3698,-555.6531 84.3369,-554.9753"/>
<text text-anchor="middle" x="258.5" y="-958.5947" font-family="Helvetica,sans-Serif" font-size="10.00" fill="#000000"> &lt; PolygonPrimitive2D &gt;</text>
</g>
<!-- Node5 -->
<g id="node5" class="node">
<title>Node5</title>
<g id="a_node5"><a xlink:href="classCDPL_1_1Util_1_1ObjectStack.html" target="_top" xlink:title=" ">
<polygon fill="none" stroke="#000000" points="383,-888.5947 383,-918.5947 513,-918.5947 513,-888.5947 383,-888.5947"/>
<text text-anchor="start" x="391" y="-906.5947" font-family="Helvetica,sans-Serif" font-size="10.00" fill="#000000">CDPL::Util::ObjectStack</text>
<text text-anchor="middle" x="448" y="-895.5947" font-family="Helvetica,sans-Serif" font-size="10.00" fill="#000000">&lt; LGEdge &gt;</text>
</a>
</g>
</g>
<!-- Node1&#45;&gt;Node5 -->
<g id="edge4" class="edge">
<title>Node1&#45;&gt;Node5</title>
<path fill="none" stroke="#ffa500" stroke-dasharray="5,2" d="M81.8101,-555.427C91.5478,-621.1913 126.0071,-830.3142 176,-872.5947 232.9749,-920.7801 322.3695,-921.5226 382.99,-914.8907"/>
<polygon fill="#ffa500" stroke="#ffa500" points="85.2257,-554.5923 80.3255,-545.1988 78.2983,-555.5979 85.2257,-554.5923"/>
<text text-anchor="middle" x="258.5" y="-920.5947" font-family="Helvetica,sans-Serif" font-size="10.00" fill="#000000"> &lt; LGEdge &gt;</text>
</g>
<!-- Node6 -->
<g id="node6" class="node">
<title>Node6</title>
<g id="a_node6"><a xlink:href="classCDPL_1_1Util_1_1ObjectStack.html" target="_top" xlink:title=" ">
<polygon fill="none" stroke="#000000" points="383,-839.5947 383,-869.5947 513,-869.5947 513,-839.5947 383,-839.5947"/>
<text text-anchor="start" x="391" y="-857.5947" font-family="Helvetica,sans-Serif" font-size="10.00" fill="#000000">CDPL::Util::ObjectStack</text>
<text text-anchor="middle" x="448" y="-846.5947" font-family="Helvetica,sans-Serif" font-size="10.00" fill="#000000">&lt; AGNode &gt;</text>
</a>
</g>
</g>
<!-- Node1&#45;&gt;Node6 -->
<g id="edge5" class="edge">
<title>Node1&#45;&gt;Node6</title>
<path fill="none" stroke="#ffa500" stroke-dasharray="5,2" d="M82.5601,-555.4718C93.8505,-616.135 130.7905,-796.9306 176,-832.5947 206.9657,-857.0223 312.7099,-858.9811 382.8635,-857.3651"/>
<polygon fill="#ffa500" stroke="#ffa500" points="85.9438,-554.5177 80.7015,-545.3108 79.058,-555.7774 85.9438,-554.5177"/>
<text text-anchor="middle" x="258.5" y="-860.5947" font-family="Helvetica,sans-Serif" font-size="10.00" fill="#000000"> &lt; AGNode &gt;</text>
</g>
<!-- Node7 -->
<g id="node7" class="node">
<title>Node7</title>
<g id="a_node7"><a xlink:href="classCDPL_1_1Util_1_1ObjectStack.html" target="_top" xlink:title=" ">
<polygon fill="none" stroke="#000000" points="370.5,-790.5947 370.5,-820.5947 525.5,-820.5947 525.5,-790.5947 370.5,-790.5947"/>
<text text-anchor="start" x="378.5" y="-808.5947" font-family="Helvetica,sans-Serif" font-size="10.00" fill="#000000">CDPL::Util::ObjectStack</text>
<text text-anchor="middle" x="448" y="-797.5947" font-family="Helvetica,sans-Serif" font-size="10.00" fill="#000000">&lt; GaussianShapeFunction &gt;</text>
</a>
</g>
</g>
<!-- Node1&#45;&gt;Node7 -->
<g id="edge6" class="edge">
<title>Node1&#45;&gt;Node7</title>
<path fill="none" stroke="#ffa500" stroke-dasharray="5,2" d="M80.1122,-555.2136C83.9785,-603.0072 101.0916,-725.6348 176,-781.5947 231.1636,-822.8043 311.2926,-824.9768 370.2986,-819.1439"/>
<polygon fill="#ffa500" stroke="#ffa500" points="83.6036,-554.9663 79.4148,-545.2347 76.6206,-555.4544 83.6036,-554.9663"/>
<text text-anchor="middle" x="258.5" y="-823.5947" font-family="Helvetica,sans-Serif" font-size="10.00" fill="#000000"> &lt; GaussianShapeFunction &gt;</text>
</g>
<!-- Node8 -->
<g id="node8" class="node">
<title>Node8</title>
<g id="a_node8"><a xlink:href="classCDPL_1_1Util_1_1ObjectStack.html" target="_top" xlink:title=" ">
<polygon fill="none" stroke="#000000" points="383,-741.5947 383,-771.5947 513,-771.5947 513,-741.5947 383,-741.5947"/>
<text text-anchor="start" x="391" y="-759.5947" font-family="Helvetica,sans-Serif" font-size="10.00" fill="#000000">CDPL::Util::ObjectStack</text>
<text text-anchor="middle" x="448" y="-748.5947" font-family="Helvetica,sans-Serif" font-size="10.00" fill="#000000">&lt; PathPrimitive2D &gt;</text>
</a>
</g>
</g>
<!-- Node1&#45;&gt;Node8 -->
<g id="edge7" class="edge">
<title>Node1&#45;&gt;Node8</title>
<path fill="none" stroke="#ffa500" stroke-dasharray="5,2" d="M82.6883,-555.0182C91.2792,-594.388 116.5884,-683.3474 176,-724.5947 236.6371,-766.6928 323.7631,-769.4994 382.949,-765.188"/>
<polygon fill="#ffa500" stroke="#ffa500" points="86.093,-554.1983 80.6549,-545.1056 79.2358,-555.605 86.093,-554.1983"/>
<text text-anchor="middle" x="258.5" y="-769.5947" font-family="Helvetica,sans-Serif" font-size="10.00" fill="#000000"> &lt; PathPrimitive2D &gt;</text>
</g>
<!-- Node9 -->
<g id="node9" class="node">
<title>Node9</title>
<g id="a_node9"><a xlink:href="classCDPL_1_1Util_1_1ObjectStack.html" target="_top" xlink:title=" ">
<polygon fill="none" stroke="#000000" points="383,-692.5947 383,-722.5947 513,-722.5947 513,-692.5947 383,-692.5947"/>
<text text-anchor="start" x="391" y="-710.5947" font-family="Helvetica,sans-Serif" font-size="10.00" fill="#000000">CDPL::Util::ObjectStack</text>
<text text-anchor="middle" x="448" y="-699.5947" font-family="Helvetica,sans-Serif" font-size="10.00" fill="#000000">&lt; LinePrimitive2D &gt;</text>
</a>
</g>
</g>
<!-- Node1&#45;&gt;Node9 -->
<g id="edge8" class="edge">
<title>Node1&#45;&gt;Node9</title>
<path fill="none" stroke="#ffa500" stroke-dasharray="5,2" d="M87.0531,-554.3531C100.6997,-583.6566 131.3132,-639.7157 176,-666.5947 239.0216,-704.502 324.651,-711.639 382.8821,-711.3085"/>
<polygon fill="#ffa500" stroke="#ffa500" points="90.2295,-552.8827 82.9384,-545.1957 83.8444,-555.7517 90.2295,-552.8827"/>
<text text-anchor="middle" x="258.5" y="-712.5947" font-family="Helvetica,sans-Serif" font-size="10.00" fill="#000000"> &lt; LinePrimitive2D &gt;</text>
</g>
<!-- Node10 -->
<g id="node10" class="node">
<title>Node10</title>
<g id="a_node10"><a xlink:href="classCDPL_1_1Util_1_1ObjectStack.html" target="_top" xlink:title=" ">
<polygon fill="none" stroke="#000000" points="359,-643.5947 359,-673.5947 537,-673.5947 537,-643.5947 359,-643.5947"/>
<text text-anchor="start" x="367" y="-661.5947" font-family="Helvetica,sans-Serif" font-size="10.00" fill="#000000">CDPL::Util::ObjectStack</text>
<text text-anchor="middle" x="448" y="-650.5947" font-family="Helvetica,sans-Serif" font-size="10.00" fill="#000000">&lt; LineSegmentListPrimitive2D &gt;</text>
</a>
</g>
</g>
<!-- Node1&#45;&gt;Node10 -->
<g id="edge9" class="edge">
<title>Node1&#45;&gt;Node10</title>
<path fill="none" stroke="#ffa500" stroke-dasharray="5,2" d="M95.1876,-552.5026C113.1812,-570.2046 143.953,-597.3658 176,-611.5947 233.7051,-637.2157 304.0572,-648.9137 358.7549,-654.2335"/>
<polygon fill="#ffa500" stroke="#ffa500" points="97.3878,-549.7507 87.8608,-545.1154 92.4178,-554.6801 97.3878,-549.7507"/>
<text text-anchor="middle" x="258.5" y="-654.5947" font-family="Helvetica,sans-Serif" font-size="10.00" fill="#000000"> &lt; LineSegmentListPrimitive2D &gt;</text>
</g>
<!-- Node11 -->
<g id="node11" class="node">
<title>Node11</title>
<g id="a_node11"><a xlink:href="classCDPL_1_1Util_1_1ObjectStack.html" target="_top" xlink:title=" ">
<polygon fill="none" stroke="#000000" points="383,-594.5947 383,-624.5947 513,-624.5947 513,-594.5947 383,-594.5947"/>
<text text-anchor="start" x="391" y="-612.5947" font-family="Helvetica,sans-Serif" font-size="10.00" fill="#000000">CDPL::Util::ObjectStack</text>
<text text-anchor="middle" x="448" y="-601.5947" font-family="Helvetica,sans-Serif" font-size="10.00" fill="#000000">&lt; Util::STPairArray &gt;</text>
</a>
</g>
</g>
<!-- Node1&#45;&gt;Node11 -->
<g id="edge10" class="edge">
<title>Node1&#45;&gt;Node11</title>
<path fill="none" stroke="#ffa500" stroke-dasharray="5,2" d="M113.8434,-548.6419C132.1378,-555.0946 155.0513,-562.5585 176,-567.5947 245.8034,-584.3758 327.365,-595.9264 382.8376,-602.6057"/>
<polygon fill="#ffa500" stroke="#ffa500" points="114.7914,-545.2637 104.1968,-545.1829 112.4286,-551.8529 114.7914,-545.2637"/>
<text text-anchor="middle" x="258.5" y="-599.5947" font-family="Helvetica,sans-Serif" font-size="10.00" fill="#000000"> &lt; Util::STPairArray &gt;</text>
</g>
<!-- Node12 -->
<g id="node12" class="node">
<title>Node12</title>
<g id="a_node12"><a xlink:href="classCDPL_1_1Util_1_1ObjectStack.html" target="_top" xlink:title=" ">
<polygon fill="none" stroke="#000000" points="380,-545.5947 380,-575.5947 516,-575.5947 516,-545.5947 380,-545.5947"/>
<text text-anchor="start" x="388" y="-563.5947" font-family="Helvetica,sans-Serif" font-size="10.00" fill="#000000">CDPL::Util::ObjectStack</text>
<text text-anchor="middle" x="448" y="-552.5947" font-family="Helvetica,sans-Serif" font-size="10.00" fill="#000000">&lt; PolylinePrimitive2D &gt;</text>
</a>
</g>
</g>
<!-- Node1&#45;&gt;Node12 -->
<g id="edge11" class="edge">
<title>Node1&#45;&gt;Node12</title>
<path fill="none" stroke="#ffa500" stroke-dasharray="5,2" d="M168.4107,-541.6523C233.4905,-546.0615 320.2923,-551.9424 379.8165,-555.9752"/>
<polygon fill="#ffa500" stroke="#ffa500" points="168.3735,-538.1419 158.1598,-540.9578 167.9003,-545.1259 168.3735,-538.1419"/>
<text text-anchor="middle" x="258.5" y="-555.5947" font-family="Helvetica,sans-Serif" font-size="10.00" fill="#000000"> &lt; PolylinePrimitive2D &gt;</text>
</g>
<!-- Node13 -->
<g id="node13" class="node">
<title>Node13</title>
<g id="a_node13"><a xlink:href="classCDPL_1_1Util_1_1ObjectStack.html" target="_top" xlink:title=" ">
<polygon fill="none" stroke="#000000" points="383,-496.5947 383,-526.5947 513,-526.5947 513,-496.5947 383,-496.5947"/>
<text text-anchor="start" x="391" y="-514.5947" font-family="Helvetica,sans-Serif" font-size="10.00" fill="#000000">CDPL::Util::ObjectStack</text>
<text text-anchor="middle" x="448" y="-503.5947" font-family="Helvetica,sans-Serif" font-size="10.00" fill="#000000">&lt; RingInfo &gt;</text>
</a>
</g>
</g>
<!-- Node1&#45;&gt;Node13 -->
<g id="edge12" class="edge">
<title>Node1&#45;&gt;Node13</title>
<path fill="none" stroke="#ffa500" stroke-dasharray="5,2" d="M168.2693,-528.1523C170.8746,-527.9607 173.4559,-527.7744 176,-527.5947 246.6614,-522.6032 327.7273,-517.9765 382.8463,-514.9958"/>
<polygon fill="#ffa500" stroke="#ffa500" points="167.8393,-524.6746 158.1296,-528.914 168.3637,-531.655 167.8393,-524.6746"/>
<text text-anchor="middle" x="258.5" y="-530.5947" font-family="Helvetica,sans-Serif" font-size="10.00" fill="#000000"> &lt; RingInfo &gt;</text>
</g>
<!-- Node14 -->
<g id="node14" class="node">
<title>Node14</title>
<g id="a_node14"><a xlink:href="classCDPL_1_1Util_1_1ObjectStack.html" target="_top" xlink:title=" ">
<polygon fill="none" stroke="#000000" points="376.5,-447.5947 376.5,-477.5947 519.5,-477.5947 519.5,-447.5947 376.5,-447.5947"/>
<text text-anchor="start" x="384.5" y="-465.5947" font-family="Helvetica,sans-Serif" font-size="10.00" fill="#000000">CDPL::Util::ObjectStack</text>
<text text-anchor="middle" x="448" y="-454.5947" font-family="Helvetica,sans-Serif" font-size="10.00" fill="#000000">&lt; TextLabelPrimitive2D &gt;</text>
</a>
</g>
</g>
<!-- Node1&#45;&gt;Node14 -->
<g id="edge13" class="edge">
<title>Node1&#45;&gt;Node14</title>
<path fill="none" stroke="#ffa500" stroke-dasharray="5,2" d="M111.6068,-522.3778C130.2056,-515.294 154.1066,-506.9471 176,-501.5947 242.9619,-485.2241 320.9913,-474.9087 376.2594,-469.0285"/>
<polygon fill="#ffa500" stroke="#ffa500" points="110.1937,-519.1718 102.1352,-526.0501 112.7242,-525.6984 110.1937,-519.1718"/>
<text text-anchor="middle" x="258.5" y="-504.5947" font-family="Helvetica,sans-Serif" font-size="10.00" fill="#000000"> &lt; TextLabelPrimitive2D &gt;</text>
</g>
<!-- Node15 -->
<g id="node15" class="node">
<title>Node15</title>
<g id="a_node15"><a xlink:href="classCDPL_1_1Util_1_1ObjectStack.html" target="_top" xlink:title=" ">
<polygon fill="none" stroke="#000000" points="383,-398.5947 383,-428.5947 513,-428.5947 513,-398.5947 383,-398.5947"/>
<text text-anchor="start" x="391" y="-416.5947" font-family="Helvetica,sans-Serif" font-size="10.00" fill="#000000">CDPL::Util::ObjectStack</text>
<text text-anchor="middle" x="448" y="-405.5947" font-family="Helvetica,sans-Serif" font-size="10.00" fill="#000000">&lt; StructureView2D &gt;</text>
</a>
</g>
</g>
<!-- Node1&#45;&gt;Node15 -->
<g id="edge14" class="edge">
<title>Node1&#45;&gt;Node15</title>
<path fill="none" stroke="#ffa500" stroke-dasharray="5,2" d="M94.7845,-518.4528C112.6338,-500.2262 143.4722,-472.0744 176,-457.5947 242.5359,-427.9763 326.1368,-418.0248 382.9709,-414.8234"/>
<polygon fill="#ffa500" stroke="#ffa500" points="91.9113,-516.3939 87.5381,-526.0441 96.9747,-521.2273 91.9113,-516.3939"/>
<text text-anchor="middle" x="258.5" y="-460.5947" font-family="Helvetica,sans-Serif" font-size="10.00" fill="#000000"> &lt; StructureView2D &gt;</text>
</g>
<!-- Node16 -->
<g id="node16" class="node">
<title>Node16</title>
<g id="a_node16"><a xlink:href="classCDPL_1_1Util_1_1ObjectStack.html" target="_top" xlink:title=" ">
<polygon fill="none" stroke="#000000" points="383,-349.5947 383,-379.5947 513,-379.5947 513,-349.5947 383,-349.5947"/>
<text text-anchor="start" x="391" y="-367.5947" font-family="Helvetica,sans-Serif" font-size="10.00" fill="#000000">CDPL::Util::ObjectStack</text>
<text text-anchor="middle" x="448" y="-356.5947" font-family="Helvetica,sans-Serif" font-size="10.00" fill="#000000">&lt; Edge &gt;</text>
</a>
</g>
</g>
<!-- Node1&#45;&gt;Node16 -->
<g id="edge15" class="edge">
<title>Node1&#45;&gt;Node16</title>
<path fill="none" stroke="#ffa500" stroke-dasharray="5,2" d="M86.9376,-516.4968C100.425,-486.6728 130.8229,-429.6588 176,-402.5947 238.9903,-364.8592 324.6261,-358.7729 382.8672,-359.9135"/>
<polygon fill="#ffa500" stroke="#ffa500" points="83.6619,-515.2527 82.8757,-525.8183 90.0791,-518.0491 83.6619,-515.2527"/>
<text text-anchor="middle" x="258.5" y="-405.5947" font-family="Helvetica,sans-Serif" font-size="10.00" fill="#000000"> &lt; Edge &gt;</text>
</g>
<!-- Node17 -->
<g id="node17" class="node">
<title>Node17</title>
<g id="a_node17"><a xlink:href="classCDPL_1_1Util_1_1ObjectStack.html" target="_top" xlink:title=" ">
<polygon fill="none" stroke="#000000" points="383,-300.5947 383,-330.5947 513,-330.5947 513,-300.5947 383,-300.5947"/>
<text text-anchor="start" x="391" y="-318.5947" font-family="Helvetica,sans-Serif" font-size="10.00" fill="#000000">CDPL::Util::ObjectStack</text>
<text text-anchor="middle" x="448" y="-307.5947" font-family="Helvetica,sans-Serif" font-size="10.00" fill="#000000">&lt; AtomNode &gt;</text>
</a>
</g>
</g>
<!-- Node1&#45;&gt;Node17 -->
<g id="edge16" class="edge">
<title>Node1&#45;&gt;Node17</title>
<path fill="none" stroke="#ffa500" stroke-dasharray="5,2" d="M82.63,-516.0359C91.1132,-476.3976 116.2337,-386.862 176,-345.5947 236.6944,-303.6865 323.8082,-301.5751 382.9756,-306.4041"/>
<polygon fill="#ffa500" stroke="#ffa500" points="79.1631,-515.5233 80.625,-526.0167 86.026,-516.9019 79.1631,-515.5233"/>
<text text-anchor="middle" x="258.5" y="-348.5947" font-family="Helvetica,sans-Serif" font-size="10.00" fill="#000000"> &lt; AtomNode &gt;</text>
</g>
<!-- Node18 -->
<g id="node18" class="node">
<title>Node18</title>
<g id="a_node18"><a xlink:href="classCDPL_1_1Util_1_1ObjectStack.html" target="_top" xlink:title=" ">
<polygon fill="none" stroke="#000000" points="378.5,-251.5947 378.5,-281.5947 517.5,-281.5947 517.5,-251.5947 378.5,-251.5947"/>
<text text-anchor="start" x="386.5" y="-269.5947" font-family="Helvetica,sans-Serif" font-size="10.00" fill="#000000">CDPL::Util::ObjectStack</text>
<text text-anchor="middle" x="448" y="-258.5947" font-family="Helvetica,sans-Serif" font-size="10.00" fill="#000000">&lt; PointListPrimitive2D &gt;</text>
</a>
</g>
</g>
<!-- Node1&#45;&gt;Node18 -->
<g id="edge17" class="edge">
<title>Node1&#45;&gt;Node18</title>
<path fill="none" stroke="#ffa500" stroke-dasharray="5,2" d="M80.0584,-515.8643C83.8029,-467.8046 100.6621,-344.5288 176,-288.5947 233.8188,-245.6675 318.8684,-245.9605 378.4288,-253.2832"/>
<polygon fill="#ffa500" stroke="#ffa500" points="76.5625,-515.688 79.3873,-525.8993 83.5469,-516.1551 76.5625,-515.688"/>
<text text-anchor="middle" x="258.5" y="-291.5947" font-family="Helvetica,sans-Serif" font-size="10.00" fill="#000000"> &lt; PointListPrimitive2D &gt;</text>
</g>
<!-- Node19 -->
<g id="node19" class="node">
<title>Node19</title>
<g id="a_node19"><a xlink:href="classCDPL_1_1Util_1_1ObjectStack.html" target="_top" xlink:title=" ">
<polygon fill="none" stroke="#000000" points="383,-202.5947 383,-232.5947 513,-232.5947 513,-202.5947 383,-202.5947"/>
<text text-anchor="start" x="391" y="-220.5947" font-family="Helvetica,sans-Serif" font-size="10.00" fill="#000000">CDPL::Util::ObjectStack</text>
<text text-anchor="middle" x="448" y="-209.5947" font-family="Helvetica,sans-Serif" font-size="10.00" fill="#000000">&lt; IndexArray &gt;</text>
</a>
</g>
</g>
<!-- Node1&#45;&gt;Node19 -->
<g id="edge18" class="edge">
<title>Node1&#45;&gt;Node19</title>
<path fill="none" stroke="#ffa500" stroke-dasharray="5,2" d="M82.3323,-516.1333C93.1993,-455.1297 129.5966,-269.5629 176,-233.5947 234.7919,-188.024 323.9861,-192.4006 384.0499,-202.5579"/>
<polygon fill="#ffa500" stroke="#ffa500" points="78.8802,-515.5565 80.6037,-526.0102 85.7753,-516.7634 78.8802,-515.5565"/>
<text text-anchor="middle" x="258.5" y="-236.5947" font-family="Helvetica,sans-Serif" font-size="10.00" fill="#000000"> &lt; IndexArray &gt;</text>
</g>
<!-- Node20 -->
<g id="node20" class="node">
<title>Node20</title>
<g id="a_node20"><a xlink:href="classCDPL_1_1Util_1_1ObjectStack.html" target="_top" xlink:title=" ">
<polygon fill="none" stroke="#000000" points="379.5,-153.5947 379.5,-183.5947 516.5,-183.5947 516.5,-153.5947 379.5,-153.5947"/>
<text text-anchor="start" x="387.5" y="-171.5947" font-family="Helvetica,sans-Serif" font-size="10.00" fill="#000000">CDPL::Util::ObjectStack</text>
<text text-anchor="middle" x="448" y="-160.5947" font-family="Helvetica,sans-Serif" font-size="10.00" fill="#000000">&lt; ClipPathPrimitive2D &gt;</text>
</a>
</g>
</g>
<!-- Node1&#45;&gt;Node20 -->
<g id="edge19" class="edge">
<title>Node1&#45;&gt;Node20</title>
<path fill="none" stroke="#ffa500" stroke-dasharray="5,2" d="M81.4154,-515.4604C90.0962,-446.7916 122.0885,-223.6653 176,-180.5947 236.8418,-131.9873 332.0258,-140.973 392.1514,-153.5545"/>
<polygon fill="#ffa500" stroke="#ffa500" points="77.8953,-515.409 80.1432,-525.7626 84.8425,-516.267 77.8953,-515.409"/>
<text text-anchor="middle" x="258.5" y="-183.5947" font-family="Helvetica,sans-Serif" font-size="10.00" fill="#000000"> &lt; ClipPathPrimitive2D &gt;</text>
</g>
<!-- Node21 -->
<g id="node21" class="node">
<title>Node21</title>
<g id="a_node21"><a xlink:href="classCDPL_1_1Util_1_1ObjectStack.html" target="_top" xlink:title=" ">
<polygon fill="none" stroke="#000000" points="383,-104.5947 383,-134.5947 513,-134.5947 513,-104.5947 383,-104.5947"/>
<text text-anchor="start" x="391" y="-122.5947" font-family="Helvetica,sans-Serif" font-size="10.00" fill="#000000">CDPL::Util::ObjectStack</text>
<text text-anchor="middle" x="448" y="-111.5947" font-family="Helvetica,sans-Serif" font-size="10.00" fill="#000000">&lt; Util::BitSet &gt;</text>
</a>
</g>
</g>
<!-- Node1&#45;&gt;Node21 -->
<g id="edge20" class="edge">
<title>Node1&#45;&gt;Node21</title>
<path fill="none" stroke="#ffa500" stroke-dasharray="5,2" d="M80.6513,-515.4895C87.2577,-440.5031 114.4585,-178.8672 176,-128.5947 237.9306,-78.0044 336.8628,-90.374 396.8009,-104.5667"/>
<polygon fill="#ffa500" stroke="#ffa500" points="77.1293,-515.5993 79.7657,-525.8609 84.1039,-516.1949 77.1293,-515.5993"/>
<text text-anchor="middle" x="258.5" y="-131.5947" font-family="Helvetica,sans-Serif" font-size="10.00" fill="#000000"> &lt; Util::BitSet &gt;</text>
</g>
<!-- Node22 -->
<g id="node22" class="node">
<title>Node22</title>
<g id="a_node22"><a xlink:href="classCDPL_1_1Util_1_1ObjectStack.html" target="_top" xlink:title=" ">
<polygon fill="none" stroke="#000000" points="383,-55.5947 383,-85.5947 513,-85.5947 513,-55.5947 383,-55.5947"/>
<text text-anchor="start" x="391" y="-73.5947" font-family="Helvetica,sans-Serif" font-size="10.00" fill="#000000">CDPL::Util::ObjectStack</text>
<text text-anchor="middle" x="448" y="-62.5947" font-family="Helvetica,sans-Serif" font-size="10.00" fill="#000000">&lt; RingSysNode &gt;</text>
</a>
</g>
</g>
<!-- Node1&#45;&gt;Node22 -->
<g id="edge21" class="edge">
<title>Node1&#45;&gt;Node22</title>
<path fill="none" stroke="#ffa500" stroke-dasharray="5,2" d="M80.0507,-515.5605C84.7417,-434.7145 106.6807,-134.0742 176,-76.5947 206.315,-51.4576 312.5415,-56.5218 382.925,-63.1081"/>
<polygon fill="#ffa500" stroke="#ffa500" points="76.5398,-515.66 79.4801,-525.8387 83.5291,-516.0481 76.5398,-515.66"/>
<text text-anchor="middle" x="258.5" y="-79.5947" font-family="Helvetica,sans-Serif" font-size="10.00" fill="#000000"> &lt; RingSysNode &gt;</text>
</g>
<!-- Node23 -->
<g id="node23" class="node">
<title>Node23</title>
<g id="a_node23"><a xlink:href="classCDPL_1_1Util_1_1ObjectStack.html" target="_top" xlink:title=" ">
<polygon fill="none" stroke="#000000" points="383,-6.5947 383,-36.5947 513,-36.5947 513,-6.5947 383,-6.5947"/>
<text text-anchor="start" x="391" y="-24.5947" font-family="Helvetica,sans-Serif" font-size="10.00" fill="#000000">CDPL::Util::ObjectStack</text>
<text text-anchor="middle" x="448" y="-13.5947" font-family="Helvetica,sans-Serif" font-size="10.00" fill="#000000">&lt; State &gt;</text>
</a>
</g>
</g>
<!-- Node1&#45;&gt;Node23 -->
<g id="edge22" class="edge">
<title>Node1&#45;&gt;Node23</title>
<path fill="none" stroke="#ffa500" stroke-dasharray="5,2" d="M79.821,-515.8278C83.7392,-431.9831 103.4664,-107.0879 176,-42.5947 231.8353,7.0512 322.1407,3.4865 383.2329,-6.5623"/>
<polygon fill="#ffa500" stroke="#ffa500" points="76.3161,-515.8612 79.3692,-526.0066 83.3093,-516.1717 76.3161,-515.8612"/>
<text text-anchor="middle" x="258.5" y="-45.5947" font-family="Helvetica,sans-Serif" font-size="10.00" fill="#000000"> &lt; State &gt;</text>
</g>
</g>
</svg>
