<?xml version="1.0" encoding="UTF-8" standalone="no"?>
<!DOCTYPE svg PUBLIC "-//W3C//DTD SVG 1.1//EN"
 "http://www.w3.org/Graphics/SVG/1.1/DTD/svg11.dtd">
<!-- Generated by graphviz version 2.44.0 (0)
 -->
<!-- Title: CDPL::Util::ObjectPool&lt; T &gt; Pages: 1 -->
<!--zoomable 480 -->
<svg id="main" version="1.1" xmlns="http://www.w3.org/2000/svg" xmlns:xlink="http://www.w3.org/1999/xlink" xml:space="preserve" onload="init(evt)">
<style type="text/css"><![CDATA[
.edge:hover path { stroke: red; }
.edge:hover polygon { stroke: red; fill: red; }
]]></style>
<script type="text/javascript"><![CDATA[
var edges = document.getElementsByTagName('g');
if (edges && edges.length) {
  for (var i=0;i<edges.length;i++) {
    if (edges[i].id.substr(0,4)=='edge') {
      edges[i].setAttribute('class','edge');
    }
  }
}
]]></script>
        <defs>
                <circle id="rim" cx="0" cy="0" r="7"/>
                <circle id="rim2" cx="0" cy="0" r="3.5"/>
                <g id="zoomPlus">
                        <use xlink:href="#rim" fill="#404040">
                                <set attributeName="fill" to="#808080" begin="zoomplus.mouseover" end="zoomplus.mouseout"/>
                        </use>
                        <path d="M-4,0h8M0,-4v8" fill="none" stroke="white" stroke-width="1.5" pointer-events="none"/>
                </g>
                <g id="zoomMin">
                        <use xlink:href="#rim" fill="#404040">
                                <set attributeName="fill" to="#808080" begin="zoomminus.mouseover" end="zoomminus.mouseout"/>
                        </use>
                        <path d="M-4,0h8" fill="none" stroke="white" stroke-width="1.5" pointer-events="none"/>
                </g>
                <g id="dirArrow">
                        <path fill="none" stroke="white" stroke-width="1.5" d="M0,-3.0v7 M-2.5,-0.5L0,-3.0L2.5,-0.5"/>
                </g>
               <g id="resetDef">
                       <use xlink:href="#rim2" fill="#404040">
                               <set attributeName="fill" to="#808080" begin="reset.mouseover" end="reset.mouseout"/>
                       </use>
               </g>
        </defs>

<script type="text/javascript">
var viewWidth = 423;
var viewHeight = 480;
var sectionId = 'dynsection-0';
</script>
<script xlink:href="svgpan.js"/>
<svg id="graph" class="graph">
<g id="viewport">
<title>CDPL::Util::ObjectPool&lt; T &gt;</title>
<!-- Node1 -->
<g id="node1" class="node">
<title>Node1</title>
<g id="a_node1"><a xlink:title="A data structure that caches instances of type T up to a user specified amount.">
<polygon fill="#bfbfbf" stroke="black" points="0,-226 0,-245 142,-245 142,-226 0,-226"/>
<text text-anchor="middle" x="71" y="-233" font-family="Helvetica" font-size="10.00">CDPL::Util::ObjectPool&lt; T &gt;</text>
</a>
</g>
</g>
<!-- Node2 -->
<g id="node2" class="node">
<title>Node2</title>
<g id="a_node2"><a xlink:href="classCDPL_1_1Util_1_1ObjectPool.html" target="_top" xlink:title=" ">
<polygon fill="none" stroke="black" points="291.5,-441.5 291.5,-471.5 413.5,-471.5 413.5,-441.5 291.5,-441.5"/>
<text text-anchor="start" x="299.5" y="-459.5" font-family="Helvetica" font-size="10.00">CDPL::Util::ObjectPool</text>
<text text-anchor="middle" x="352.5" y="-448.5" font-family="Helvetica" font-size="10.00">&lt; SubstructDescriptor &gt;</text>
</a>
</g>
</g>
<!-- Node1&#45;&gt;Node2 -->
<g id="edge1" class="edge">
<title>Node1&#45;&gt;Node2</title>
<path fill="none" stroke="orange" stroke-dasharray="5,2" d="M75.81,-255.18C84.09,-292.44 107.39,-373.26 160,-414.5 197.23,-443.69 250.49,-453.56 291.39,-456.49"/>
<polygon fill="orange" stroke="orange" points="79.17,-254.18 73.7,-245.1 72.32,-255.61 79.17,-254.18"/>
<text text-anchor="middle" x="216" y="-457.5" font-family="Helvetica" font-size="10.00"> &lt; SubstructDescriptor &gt;</text>
</g>
<!-- Node3 -->
<g id="node3" class="node">
<title>Node3</title>
<g id="a_node3"><a xlink:href="classCDPL_1_1Util_1_1ObjectPool.html" target="_top" xlink:title=" ">
<polygon fill="none" stroke="black" points="293.5,-392.5 293.5,-422.5 411.5,-422.5 411.5,-392.5 293.5,-392.5"/>
<text text-anchor="start" x="301.5" y="-410.5" font-family="Helvetica" font-size="10.00">CDPL::Util::ObjectPool</text>
<text text-anchor="middle" x="352.5" y="-399.5" font-family="Helvetica" font-size="10.00">&lt; BasicMolecule &gt;</text>
</a>
</g>
</g>
<!-- Node1&#45;&gt;Node3 -->
<g id="edge2" class="edge">
<title>Node1&#45;&gt;Node3</title>
<path fill="none" stroke="orange" stroke-dasharray="5,2" d="M80.04,-254.48C92.8,-282.2 120.35,-333.43 160,-360.5 199.44,-387.43 252.76,-398.96 293.12,-403.89"/>
<polygon fill="orange" stroke="orange" points="83.14,-252.82 75.88,-245.1 76.74,-255.66 83.14,-252.82"/>
<text text-anchor="middle" x="216" y="-402.5" font-family="Helvetica" font-size="10.00"> &lt; BasicMolecule &gt;</text>
</g>
<!-- Node4 -->
<g id="node4" class="node">
<title>Node4</title>
<g id="a_node4"><a xlink:href="classCDPL_1_1Util_1_1ObjectPool.html" target="_top" xlink:title=" ">
<polygon fill="none" stroke="black" points="293.5,-343.5 293.5,-373.5 411.5,-373.5 411.5,-343.5 293.5,-343.5"/>
<text text-anchor="start" x="301.5" y="-361.5" font-family="Helvetica" font-size="10.00">CDPL::Util::ObjectPool</text>
<text text-anchor="middle" x="352.5" y="-350.5" font-family="Helvetica" font-size="10.00">&lt; Cell &gt;</text>
</a>
</g>
</g>
<!-- Node1&#45;&gt;Node4 -->
<g id="edge3" class="edge">
<title>Node1&#45;&gt;Node4</title>
<path fill="none" stroke="orange" stroke-dasharray="5,2" d="M87.97,-252.53C104.48,-269.16 131.77,-294.02 160,-308.5 202.04,-330.06 254.16,-342.89 293.41,-350.14"/>
<polygon fill="orange" stroke="orange" points="90.25,-249.85 80.77,-245.11 85.22,-254.72 90.25,-249.85"/>
<text text-anchor="middle" x="216" y="-348.5" font-family="Helvetica" font-size="10.00"> &lt; Cell &gt;</text>
</g>
<!-- Node5 -->
<g id="node5" class="node">
<title>Node5</title>
<g id="a_node5"><a xlink:href="classCDPL_1_1Util_1_1ObjectPool.html" target="_top" xlink:title=" ">
<polygon fill="none" stroke="black" points="293.5,-294.5 293.5,-324.5 411.5,-324.5 411.5,-294.5 293.5,-294.5"/>
<text text-anchor="start" x="301.5" y="-312.5" font-family="Helvetica" font-size="10.00">CDPL::Util::ObjectPool</text>
<text text-anchor="middle" x="352.5" y="-301.5" font-family="Helvetica" font-size="10.00">&lt; PathMessage &gt;</text>
</a>
</g>
</g>
<!-- Node1&#45;&gt;Node5 -->
<g id="edge4" class="edge">
<title>Node1&#45;&gt;Node5</title>
<path fill="none" stroke="orange" stroke-dasharray="5,2" d="M105.25,-248.78C121.58,-254.99 141.64,-262.17 160,-267.5 204.13,-280.3 254.97,-291.28 293.17,-298.8"/>
<polygon fill="orange" stroke="orange" points="106.21,-245.39 95.62,-245.06 103.69,-251.92 106.21,-245.39"/>
<text text-anchor="middle" x="216" y="-296.5" font-family="Helvetica" font-size="10.00"> &lt; PathMessage &gt;</text>
</g>
<!-- Node6 -->
<g id="node6" class="node">
<title>Node6</title>
<g id="a_node6"><a xlink:href="classCDPL_1_1Util_1_1ObjectPool.html" target="_top" xlink:title=" ">
<polygon fill="none" stroke="black" points="293.5,-245.5 293.5,-275.5 411.5,-275.5 411.5,-245.5 293.5,-245.5"/>
<text text-anchor="start" x="301.5" y="-263.5" font-family="Helvetica" font-size="10.00">CDPL::Util::ObjectPool</text>
<text text-anchor="middle" x="352.5" y="-252.5" font-family="Helvetica" font-size="10.00">&lt; StructureData &gt;</text>
</a>
</g>
</g>
<!-- Node1&#45;&gt;Node6 -->
<g id="edge5" class="edge">
<title>Node1&#45;&gt;Node6</title>
<path fill="none" stroke="orange" stroke-dasharray="5,2" d="M152.19,-242.67C197.15,-246.69 252.24,-251.62 293.1,-255.28"/>
<polygon fill="orange" stroke="orange" points="152.44,-239.18 142.17,-241.78 151.82,-246.15 152.44,-239.18"/>
<text text-anchor="middle" x="216" y="-255.5" font-family="Helvetica" font-size="10.00"> &lt; StructureData &gt;</text>
</g>
<!-- Node7 -->
<g id="node7" class="node">
<title>Node7</title>
<g id="a_node7"><a xlink:href="classCDPL_1_1Util_1_1ObjectPool.html" target="_top" xlink:title=" ">
<polygon fill="none" stroke="black" points="293.5,-196.5 293.5,-226.5 411.5,-226.5 411.5,-196.5 293.5,-196.5"/>
<text text-anchor="start" x="301.5" y="-214.5" font-family="Helvetica" font-size="10.00">CDPL::Util::ObjectPool</text>
<text text-anchor="middle" x="352.5" y="-203.5" font-family="Helvetica" font-size="10.00">&lt; BasicAtom &gt;</text>
</a>
</g>
</g>
<!-- Node1&#45;&gt;Node7 -->
<g id="edge6" class="edge">
<title>Node1&#45;&gt;Node7</title>
<path fill="none" stroke="orange" stroke-dasharray="5,2" d="M152.27,-228.18C154.88,-227.95 157.46,-227.72 160,-227.5 204.7,-223.6 255.29,-219.38 293.25,-216.26"/>
<polygon fill="orange" stroke="orange" points="151.78,-224.71 142.12,-229.08 152.4,-231.68 151.78,-224.71"/>
<text text-anchor="middle" x="216" y="-230.5" font-family="Helvetica" font-size="10.00"> &lt; BasicAtom &gt;</text>
</g>
<!-- Node8 -->
<g id="node8" class="node">
<title>Node8</title>
<g id="a_node8"><a xlink:href="classCDPL_1_1Util_1_1ObjectPool.html" target="_top" xlink:title=" ">
<polygon fill="none" stroke="black" points="293.5,-147.5 293.5,-177.5 411.5,-177.5 411.5,-147.5 293.5,-147.5"/>
<text text-anchor="start" x="301.5" y="-165.5" font-family="Helvetica" font-size="10.00">CDPL::Util::ObjectPool</text>
<text text-anchor="middle" x="352.5" y="-154.5" font-family="Helvetica" font-size="10.00">&lt; BasicFeature &gt;</text>
</a>
</g>
</g>
<!-- Node1&#45;&gt;Node8 -->
<g id="edge7" class="edge">
<title>Node1&#45;&gt;Node8</title>
<path fill="none" stroke="orange" stroke-dasharray="5,2" d="M104.17,-222.09C120.66,-215.56 141.18,-207.96 160,-202.5 204.04,-189.73 254.88,-179.3 293.11,-172.3"/>
<polygon fill="orange" stroke="orange" points="102.44,-219.01 94.47,-225.99 105.05,-225.5 102.44,-219.01"/>
<text text-anchor="middle" x="216" y="-205.5" font-family="Helvetica" font-size="10.00"> &lt; BasicFeature &gt;</text>
</g>
<!-- Node9 -->
<g id="node9" class="node">
<title>Node9</title>
<g id="a_node9"><a xlink:href="classCDPL_1_1Util_1_1ObjectPool.html" target="_top" xlink:title=" ">
<polygon fill="none" stroke="black" points="293.5,-98.5 293.5,-128.5 411.5,-128.5 411.5,-98.5 293.5,-98.5"/>
<text text-anchor="start" x="301.5" y="-116.5" font-family="Helvetica" font-size="10.00">CDPL::Util::ObjectPool</text>
<text text-anchor="middle" x="352.5" y="-105.5" font-family="Helvetica" font-size="10.00">&lt; BasicBond &gt;</text>
</a>
</g>
</g>
<!-- Node1&#45;&gt;Node9 -->
<g id="edge8" class="edge">
<title>Node1&#45;&gt;Node9</title>
<path fill="none" stroke="orange" stroke-dasharray="5,2" d="M87.63,-218.44C104.05,-201.53 131.43,-176.1 160,-161.5 201.97,-140.06 254.1,-127.8 293.37,-121.05"/>
<polygon fill="orange" stroke="orange" points="84.83,-216.31 80.49,-225.97 89.91,-221.12 84.83,-216.31"/>
<text text-anchor="middle" x="216" y="-164.5" font-family="Helvetica" font-size="10.00"> &lt; BasicBond &gt;</text>
</g>
<!-- Node10 -->
<g id="node10" class="node">
<title>Node10</title>
<g id="a_node10"><a xlink:href="classCDPL_1_1Util_1_1ObjectPool.html" target="_top" xlink:title=" ">
<polygon fill="none" stroke="black" points="293.5,-49.5 293.5,-79.5 411.5,-79.5 411.5,-49.5 293.5,-49.5"/>
<text text-anchor="start" x="301.5" y="-67.5" font-family="Helvetica" font-size="10.00">CDPL::Util::ObjectPool</text>
<text text-anchor="middle" x="352.5" y="-56.5" font-family="Helvetica" font-size="10.00">&lt; Edge &gt;</text>
</a>
</g>
</g>
<!-- Node1&#45;&gt;Node10 -->
<g id="edge9" class="edge">
<title>Node1&#45;&gt;Node10</title>
<path fill="none" stroke="orange" stroke-dasharray="5,2" d="M79.96,-216.32C92.62,-188.31 120.06,-136.59 160,-109.5 199.43,-82.76 252.75,-71.8 293.12,-67.36"/>
<polygon fill="orange" stroke="orange" points="76.62,-215.23 75.84,-225.8 83.04,-218.02 76.62,-215.23"/>
<text text-anchor="middle" x="216" y="-112.5" font-family="Helvetica" font-size="10.00"> &lt; Edge &gt;</text>
</g>
<!-- Node11 -->
<g id="node11" class="node">
<title>Node11</title>
<g id="a_node11"><a xlink:href="classCDPL_1_1Util_1_1ObjectPool.html" target="_top" xlink:title=" ">
<polygon fill="none" stroke="black" points="290,-0.5 290,-30.5 415,-30.5 415,-0.5 290,-0.5"/>
<text text-anchor="start" x="298" y="-18.5" font-family="Helvetica" font-size="10.00">CDPL::Util::ObjectPool</text>
<text text-anchor="middle" x="352.5" y="-7.5" font-family="Helvetica" font-size="10.00">&lt; Math::Vector3DArray &gt;</text>
</a>
</g>
</g>
<!-- Node1&#45;&gt;Node11 -->
<g id="edge10" class="edge">
<title>Node1&#45;&gt;Node11</title>
<path fill="none" stroke="orange" stroke-dasharray="5,2" d="M75.73,-215.67C83.89,-178.12 107,-96.72 160,-55.5 196.73,-26.93 248.99,-17.49 289.64,-14.88"/>
<polygon fill="orange" stroke="orange" points="72.23,-215.32 73.66,-225.82 79.09,-216.72 72.23,-215.32"/>
<text text-anchor="middle" x="216" y="-58.5" font-family="Helvetica" font-size="10.00"> &lt; Math::Vector3DArray &gt;</text>
</g>
</g>
</svg>
        <g id="navigator" transform="translate(0 0)" fill="#404254">
                <rect fill="#f2f5e9" fill-opacity="0.5" stroke="#606060" stroke-width=".5" x="0" y="0" width="60" height="60"/>
                <use id="zoomplus" xlink:href="#zoomPlus" x="17" y="9" onmousedown="handleZoom(evt,'in')"/>
                <use id="zoomminus" xlink:href="#zoomMin" x="42" y="9" onmousedown="handleZoom(evt,'out')"/>
                <use id="reset" xlink:href="#resetDef" x="30" y="36" onmousedown="handleReset()"/>
                <g id="arrowUp" xlink:href="#dirArrow" transform="translate(30 24)" onmousedown="handlePan(0,-1)">
                  <use xlink:href="#rim" fill="#404040">
                        <set attributeName="fill" to="#808080" begin="arrowUp.mouseover" end="arrowUp.mouseout"/>
                  </use>
                  <path fill="none" stroke="white" stroke-width="1.5" d="M0,-3.0v7 M-2.5,-0.5L0,-3.0L2.5,-0.5"/>
                </g>
                <g id="arrowRight" xlink:href="#dirArrow" transform="rotate(90) translate(36 -43)" onmousedown="handlePan(1,0)">
                  <use xlink:href="#rim" fill="#404040">
                        <set attributeName="fill" to="#808080" begin="arrowRight.mouseover" end="arrowRight.mouseout"/>
                  </use>
                  <path fill="none" stroke="white" stroke-width="1.5" d="M0,-3.0v7 M-2.5,-0.5L0,-3.0L2.5,-0.5"/>
                </g>
                <g id="arrowDown" xlink:href="#dirArrow" transform="rotate(180) translate(-30 -48)" onmousedown="handlePan(0,1)">
                  <use xlink:href="#rim" fill="#404040">
                        <set attributeName="fill" to="#808080" begin="arrowDown.mouseover" end="arrowDown.mouseout"/>
                  </use>
                  <path fill="none" stroke="white" stroke-width="1.5" d="M0,-3.0v7 M-2.5,-0.5L0,-3.0L2.5,-0.5"/>
                </g>
                <g id="arrowLeft" xlink:href="#dirArrow" transform="rotate(270) translate(-36 17)" onmousedown="handlePan(-1,0)">
                  <use xlink:href="#rim" fill="#404040">
                        <set attributeName="fill" to="#808080" begin="arrowLeft.mouseover" end="arrowLeft.mouseout"/>
                  </use>
                  <path fill="none" stroke="white" stroke-width="1.5" d="M0,-3.0v7 M-2.5,-0.5L0,-3.0L2.5,-0.5"/>
                </g>
        </g>
        <svg viewBox="0 0 15 15" width="100%" height="30px" preserveAspectRatio="xMaxYMin meet">
         <g id="arrow_out" transform="scale(0.3 0.3)">
          <a xlink:href="classCDPL_1_1Util_1_1ObjectPool__inherit__graph_org.svg" target="_base">
           <rect id="button" ry="5" rx="5" y="6" x="6" height="38" width="38"
                fill="#f2f5e9" fill-opacity="0.5" stroke="#606060" stroke-width="1.0"/>
           <path id="arrow"
             d="M 11.500037,31.436501 C 11.940474,20.09759 22.043105,11.32322 32.158766,21.979434 L 37.068811,17.246167 C 37.068811,17.246167 37.088388,32 37.088388,32 L 22.160133,31.978069 C 22.160133,31.978069 26.997745,27.140456 26.997745,27.140456 C 18.528582,18.264221 13.291696,25.230495 11.500037,31.436501 z"
             style="fill:#404040;"/>
          </a>
         </g>
        </svg>
</svg>
