<?xml version="1.0" encoding="UTF-8" standalone="no"?>
<!DOCTYPE svg PUBLIC "-//W3C//DTD SVG 1.1//EN"
 "http://www.w3.org/Graphics/SVG/1.1/DTD/svg11.dtd">
<!-- Generated by graphviz version 2.44.0 (0)
 -->
<!-- Title: CDPL::Util::IndirectArray&lt; ValueType, PointerType, NullPointerCheck &gt; Pages: 1 -->
<!--zoomable 596 -->
<svg id="main" version="1.1" xmlns="http://www.w3.org/2000/svg" xmlns:xlink="http://www.w3.org/1999/xlink" xml:space="preserve" onload="init(evt)">
<style type="text/css"><![CDATA[
.edge:hover path { stroke: red; }
.edge:hover polygon { stroke: red; fill: red; }
]]></style>
<script type="text/javascript"><![CDATA[
var edges = document.getElementsByTagName('g');
if (edges && edges.length) {
  for (var i=0;i<edges.length;i++) {
    if (edges[i].id.substr(0,4)=='edge') {
      edges[i].setAttribute('class','edge');
    }
  }
}
]]></script>
        <defs>
                <circle id="rim" cx="0" cy="0" r="7"/>
                <circle id="rim2" cx="0" cy="0" r="3.5"/>
                <g id="zoomPlus">
                        <use xlink:href="#rim" fill="#404040">
                                <set attributeName="fill" to="#808080" begin="zoomplus.mouseover" end="zoomplus.mouseout"/>
                        </use>
                        <path d="M-4,0h8M0,-4v8" fill="none" stroke="white" stroke-width="1.5" pointer-events="none"/>
                </g>
                <g id="zoomMin">
                        <use xlink:href="#rim" fill="#404040">
                                <set attributeName="fill" to="#808080" begin="zoomminus.mouseover" end="zoomminus.mouseout"/>
                        </use>
                        <path d="M-4,0h8" fill="none" stroke="white" stroke-width="1.5" pointer-events="none"/>
                </g>
                <g id="dirArrow">
                        <path fill="none" stroke="white" stroke-width="1.5" d="M0,-3.0v7 M-2.5,-0.5L0,-3.0L2.5,-0.5"/>
                </g>
               <g id="resetDef">
                       <use xlink:href="#rim2" fill="#404040">
                               <set attributeName="fill" to="#808080" begin="reset.mouseover" end="reset.mouseout"/>
                       </use>
               </g>
        </defs>

<script type="text/javascript">
var viewWidth = 1564;
var viewHeight = 596;
var sectionId = 'dynsection-0';
</script>
<script xlink:href="svgpan.js"/>
<svg id="graph" class="graph">
<g id="viewport">
<title>CDPL::Util::IndirectArray&lt; ValueType, PointerType, NullPointerCheck &gt;</title>
<!-- Node1 -->
<g id="node1" class="node">
<title>Node1</title>
<g id="a_node1"><a xlink:title="A dynamic array class for the storage of object pointers with an indirected query interface.">
<polygon fill="#bfbfbf" stroke="black" points="385,-236.5 385,-277.5 516,-277.5 516,-236.5 385,-236.5"/>
<text text-anchor="start" x="393" y="-265.5" font-family="Helvetica" font-size="10.00">CDPL::Util::IndirectArray</text>
<text text-anchor="start" x="393" y="-254.5" font-family="Helvetica" font-size="10.00">&lt; ValueType, PointerType,</text>
<text text-anchor="middle" x="450.5" y="-243.5" font-family="Helvetica" font-size="10.00"> NullPointerCheck &gt;</text>
</a>
</g>
</g>
<!-- Node4 -->
<g id="node4" class="node">
<title>Node4</title>
<g id="a_node4"><a xlink:href="classCDPL_1_1Chem_1_1MatchExpressionList.html" target="_top" xlink:title=" ">
<polygon fill="none" stroke="black" points="1162,-510 1162,-540 1319,-540 1319,-510 1162,-510"/>
<text text-anchor="start" x="1170" y="-528" font-family="Helvetica" font-size="10.00">CDPL::Chem::MatchExpression</text>
<text text-anchor="middle" x="1240.5" y="-517" font-family="Helvetica" font-size="10.00">List&lt; ObjType, void &gt;</text>
</a>
</g>
</g>
<!-- Node1&#45;&gt;Node4 -->
<g id="edge3" class="edge">
<title>Node1&#45;&gt;Node4</title>
<path fill="none" stroke="midnightblue" d="M463.19,-286.96C476.5,-317.92 500.77,-366.1 534,-398 579.75,-441.93 600.3,-443.58 660,-465 831.36,-526.5 1048.24,-531.18 1161.91,-528.54"/>
<polygon fill="midnightblue" stroke="midnightblue" points="466.35,-285.43 459.26,-277.55 459.89,-288.13 466.35,-285.43"/>
</g>
<!-- Node7 -->
<g id="node7" class="node">
<title>Node7</title>
<g id="a_node7"><a xlink:href="classCDPL_1_1Util_1_1IndirectArray.html" target="_top" xlink:title=" ">
<polygon fill="none" stroke="black" points="675,-263 675,-293 800,-293 800,-263 675,-263"/>
<text text-anchor="start" x="683" y="-281" font-family="Helvetica" font-size="10.00">CDPL::Util::IndirectArray</text>
<text text-anchor="middle" x="737.5" y="-270" font-family="Helvetica" font-size="10.00">&lt; Fragment &gt;</text>
</a>
</g>
</g>
<!-- Node1&#45;&gt;Node7 -->
<g id="edge6" class="edge">
<title>Node1&#45;&gt;Node7</title>
<path fill="none" stroke="orange" stroke-dasharray="5,2" d="M526.42,-262.52C572.56,-265.92 631.01,-270.23 674.53,-273.43"/>
<polygon fill="orange" stroke="orange" points="526.4,-259.01 516.17,-261.77 525.89,-265.99 526.4,-259.01"/>
<text text-anchor="middle" x="588" y="-274" font-family="Helvetica" font-size="10.00"> &lt; Fragment &gt;</text>
</g>
<!-- Node19 -->
<g id="node19" class="node">
<title>Node19</title>
<g id="a_node19"><a xlink:href="classCDPL_1_1Util_1_1IndirectArray.html" target="_top" xlink:title=" ">
<polygon fill="none" stroke="black" points="675,-214 675,-244 800,-244 800,-214 675,-214"/>
<text text-anchor="start" x="683" y="-232" font-family="Helvetica" font-size="10.00">CDPL::Util::IndirectArray</text>
<text text-anchor="middle" x="737.5" y="-221" font-family="Helvetica" font-size="10.00">&lt; GaussianShape &gt;</text>
</a>
</g>
</g>
<!-- Node1&#45;&gt;Node19 -->
<g id="edge18" class="edge">
<title>Node1&#45;&gt;Node19</title>
<path fill="none" stroke="orange" stroke-dasharray="5,2" d="M526.13,-249.67C572.31,-245.13 630.91,-239.37 674.53,-235.09"/>
<polygon fill="orange" stroke="orange" points="525.78,-246.19 516.17,-250.65 526.47,-253.15 525.78,-246.19"/>
<text text-anchor="middle" x="588" y="-252" font-family="Helvetica" font-size="10.00"> &lt; GaussianShape &gt;</text>
</g>
<!-- Node21 -->
<g id="node21" class="node">
<title>Node21</title>
<g id="a_node21"><a xlink:href="classCDPL_1_1Util_1_1IndirectArray.html" target="_top" xlink:title=" ">
<polygon fill="none" stroke="black" points="675,-165 675,-195 800,-195 800,-165 675,-165"/>
<text text-anchor="start" x="683" y="-183" font-family="Helvetica" font-size="10.00">CDPL::Util::IndirectArray</text>
<text text-anchor="middle" x="737.5" y="-172" font-family="Helvetica" font-size="10.00">&lt; RegularGrid&lt; T, T &gt; &gt;</text>
</a>
</g>
</g>
<!-- Node1&#45;&gt;Node21 -->
<g id="edge20" class="edge">
<title>Node1&#45;&gt;Node21</title>
<path fill="none" stroke="orange" stroke-dasharray="5,2" d="M508.46,-232.79C516.94,-229.6 525.64,-226.56 534,-224 580.44,-209.78 634.21,-198.32 674.67,-190.66"/>
<polygon fill="orange" stroke="orange" points="507.08,-229.57 499,-236.43 509.59,-236.11 507.08,-229.57"/>
<text text-anchor="middle" x="588" y="-227" font-family="Helvetica" font-size="10.00"> &lt; RegularGrid&lt; T, T &gt; &gt;</text>
</g>
<!-- Node23 -->
<g id="node23" class="node">
<title>Node23</title>
<g id="a_node23"><a xlink:href="classCDPL_1_1Util_1_1IndirectArray.html" target="_top" xlink:title=" ">
<polygon fill="none" stroke="black" points="675,-103 675,-133 800,-133 800,-103 675,-103"/>
<text text-anchor="start" x="683" y="-121" font-family="Helvetica" font-size="10.00">CDPL::Util::IndirectArray</text>
<text text-anchor="middle" x="737.5" y="-110" font-family="Helvetica" font-size="10.00">&lt; ElectronSystem &gt;</text>
</a>
</g>
</g>
<!-- Node1&#45;&gt;Node23 -->
<g id="edge22" class="edge">
<title>Node1&#45;&gt;Node23</title>
<path fill="none" stroke="orange" stroke-dasharray="5,2" d="M477.02,-228.9C492.27,-213.52 512.77,-195.18 534,-183 578.04,-157.74 633.19,-140.86 674.81,-130.65"/>
<polygon fill="orange" stroke="orange" points="474.42,-226.55 469.97,-236.17 479.45,-231.42 474.42,-226.55"/>
<text text-anchor="middle" x="588" y="-186" font-family="Helvetica" font-size="10.00"> &lt; ElectronSystem &gt;</text>
</g>
<!-- Node26 -->
<g id="node26" class="node">
<title>Node26</title>
<g id="a_node26"><a xlink:href="classCDPL_1_1Util_1_1IndirectArray.html" target="_top" xlink:title=" ">
<polygon fill="none" stroke="black" points="660,-414.5 660,-455.5 815,-455.5 815,-414.5 660,-414.5"/>
<text text-anchor="start" x="668" y="-443.5" font-family="Helvetica" font-size="10.00">CDPL::Util::IndirectArray</text>
<text text-anchor="start" x="668" y="-432.5" font-family="Helvetica" font-size="10.00">&lt; MatchExpression&lt; ObjType1,</text>
<text text-anchor="middle" x="737.5" y="-421.5" font-family="Helvetica" font-size="10.00"> void &gt; &gt;</text>
</a>
</g>
</g>
<!-- Node1&#45;&gt;Node26 -->
<g id="edge25" class="edge">
<title>Node1&#45;&gt;Node26</title>
<path fill="none" stroke="orange" stroke-dasharray="5,2" d="M493.23,-283.06C550.22,-318.66 651.28,-381.77 703.39,-414.32"/>
<polygon fill="orange" stroke="orange" points="494.81,-279.92 484.47,-277.59 491.1,-285.86 494.81,-279.92"/>
<text text-anchor="start" x="541" y="-386" font-family="Helvetica" font-size="10.00"> &lt; MatchExpression&lt;</text>
<text text-anchor="middle" x="588" y="-375" font-family="Helvetica" font-size="10.00"> ObjType1, void &gt; &gt;</text>
</g>
<!-- Node2 -->
<g id="node2" class="node">
<title>Node2</title>
<g id="a_node2"><a xlink:href="classCDPL_1_1Util_1_1Array.html" target="_top" xlink:title=" ">
<polygon fill="none" stroke="black" points="238,-236.5 238,-277.5 348,-277.5 348,-236.5 238,-236.5"/>
<text text-anchor="start" x="246" y="-265.5" font-family="Helvetica" font-size="10.00">CDPL::Util::Array&lt;</text>
<text text-anchor="start" x="246" y="-254.5" font-family="Helvetica" font-size="10.00"> typename ValueType</text>
<text text-anchor="middle" x="293" y="-243.5" font-family="Helvetica" font-size="10.00">::SharedPointer &gt;</text>
</a>
</g>
</g>
<!-- Node2&#45;&gt;Node1 -->
<g id="edge1" class="edge">
<title>Node2&#45;&gt;Node1</title>
<path fill="none" stroke="midnightblue" d="M358.52,-257C367.27,-257 376.25,-257 385,-257"/>
<polygon fill="midnightblue" stroke="midnightblue" points="358.39,-253.5 348.39,-257 358.39,-260.5 358.39,-253.5"/>
</g>
<!-- Node3 -->
<g id="node3" class="node">
<title>Node3</title>
<g id="a_node3"><a xlink:href="classCDPL_1_1Util_1_1Array.html" target="_top" xlink:title="A dynamic array class providing amortized constant time access to arbitrary elements.">
<polygon fill="none" stroke="black" points="0,-242 0,-272 99,-272 99,-242 0,-242"/>
<text text-anchor="start" x="8" y="-260" font-family="Helvetica" font-size="10.00">CDPL::Util::Array&lt;</text>
<text text-anchor="middle" x="49.5" y="-249" font-family="Helvetica" font-size="10.00"> ValueType &gt;</text>
</a>
</g>
</g>
<!-- Node3&#45;&gt;Node2 -->
<g id="edge2" class="edge">
<title>Node3&#45;&gt;Node2</title>
<path fill="none" stroke="orange" stroke-dasharray="5,2" d="M109.27,-257C148.39,-257 199.41,-257 237.6,-257"/>
<polygon fill="orange" stroke="orange" points="109.08,-253.5 99.08,-257 109.08,-260.5 109.08,-253.5"/>
<text text-anchor="start" x="117" y="-271" font-family="Helvetica" font-size="10.00"> &lt; typename ValueType</text>
<text text-anchor="middle" x="168.5" y="-260" font-family="Helvetica" font-size="10.00">::SharedPointer &gt;</text>
</g>
<!-- Node5 -->
<g id="node5" class="node">
<title>Node5</title>
<g id="a_node5"><a xlink:href="classCDPL_1_1Chem_1_1ANDMatchExpressionList_3_01ObjType_00_01void_01_4.html" target="_top" xlink:title="ANDMatchExpressionList.">
<polygon fill="none" stroke="black" points="1377,-557 1377,-587 1556,-587 1556,-557 1377,-557"/>
<text text-anchor="start" x="1385" y="-575" font-family="Helvetica" font-size="10.00">CDPL::Chem::ANDMatchExpression</text>
<text text-anchor="middle" x="1466.5" y="-564" font-family="Helvetica" font-size="10.00">List&lt; ObjType, void &gt;</text>
</a>
</g>
</g>
<!-- Node4&#45;&gt;Node5 -->
<g id="edge4" class="edge">
<title>Node4&#45;&gt;Node5</title>
<path fill="none" stroke="midnightblue" d="M1322.83,-542.07C1346.1,-546.95 1371.28,-552.23 1393.92,-556.98"/>
<polygon fill="midnightblue" stroke="midnightblue" points="1323.5,-538.63 1312.99,-540 1322.06,-545.48 1323.5,-538.63"/>
</g>
<!-- Node6 -->
<g id="node6" class="node">
<title>Node6</title>
<g id="a_node6"><a xlink:href="classCDPL_1_1Chem_1_1ORMatchExpressionList_3_01ObjType_00_01void_01_4.html" target="_top" xlink:title="ORMatchExpressionList.">
<polygon fill="none" stroke="black" points="1380.5,-508 1380.5,-538 1552.5,-538 1552.5,-508 1380.5,-508"/>
<text text-anchor="start" x="1388.5" y="-526" font-family="Helvetica" font-size="10.00">CDPL::Chem::ORMatchExpression</text>
<text text-anchor="middle" x="1466.5" y="-515" font-family="Helvetica" font-size="10.00">List&lt; ObjType, void &gt;</text>
</a>
</g>
</g>
<!-- Node4&#45;&gt;Node6 -->
<g id="edge5" class="edge">
<title>Node4&#45;&gt;Node6</title>
<path fill="none" stroke="midnightblue" d="M1329.5,-524.21C1346.21,-524.07 1363.66,-523.91 1380.27,-523.76"/>
<polygon fill="midnightblue" stroke="midnightblue" points="1329.18,-520.72 1319.22,-524.31 1329.25,-527.72 1329.18,-520.72"/>
</g>
<!-- Node8 -->
<g id="node8" class="node">
<title>Node8</title>
<g id="a_node8"><a xlink:href="classCDPL_1_1Chem_1_1FragmentList.html" target="_top" xlink:title="A data type for the storage of Chem::Fragment objects.">
<polygon fill="none" stroke="black" points="866.5,-262.5 866.5,-281.5 1004.5,-281.5 1004.5,-262.5 866.5,-262.5"/>
<text text-anchor="middle" x="935.5" y="-269.5" font-family="Helvetica" font-size="10.00">CDPL::Chem::FragmentList</text>
</a>
</g>
</g>
<!-- Node7&#45;&gt;Node8 -->
<g id="edge7" class="edge">
<title>Node7&#45;&gt;Node8</title>
<path fill="none" stroke="midnightblue" d="M810.25,-275.8C828.54,-275.24 848.15,-274.64 866.26,-274.09"/>
<polygon fill="midnightblue" stroke="midnightblue" points="810.13,-272.31 800.25,-276.11 810.35,-279.3 810.13,-272.31"/>
</g>
<!-- Node9 -->
<g id="node9" class="node">
<title>Node9</title>
<g id="a_node9"><a xlink:href="classCDPL_1_1Biomol_1_1ResidueList.html" target="_top" xlink:title="Implements the extraction of residues in biological macromolecules.">
<polygon fill="none" stroke="black" points="1172.5,-414.5 1172.5,-433.5 1308.5,-433.5 1308.5,-414.5 1172.5,-414.5"/>
<text text-anchor="middle" x="1240.5" y="-421.5" font-family="Helvetica" font-size="10.00">CDPL::Biomol::ResidueList</text>
</a>
</g>
</g>
<!-- Node8&#45;&gt;Node9 -->
<g id="edge8" class="edge">
<title>Node8&#45;&gt;Node9</title>
<path fill="none" stroke="midnightblue" d="M953.02,-288.75C972.02,-307.37 1004.78,-337.52 1037,-358 1079.81,-385.21 1092.66,-389.65 1141,-405 1152.87,-408.77 1165.79,-411.91 1178.25,-414.49"/>
<polygon fill="midnightblue" stroke="midnightblue" points="955.31,-286.1 945.75,-281.53 950.38,-291.07 955.31,-286.1"/>
</g>
<!-- Node10 -->
<g id="node10" class="node">
<title>Node10</title>
<g id="a_node10"><a xlink:href="classCDPL_1_1Chem_1_1AromaticRingSet.html" target="_top" xlink:title="Implements the perception of aromatic rings in a molecular graph.">
<polygon fill="none" stroke="black" points="1163,-376.5 1163,-395.5 1318,-395.5 1318,-376.5 1163,-376.5"/>
<text text-anchor="middle" x="1240.5" y="-383.5" font-family="Helvetica" font-size="10.00">CDPL::Chem::AromaticRingSet</text>
</a>
</g>
</g>
<!-- Node8&#45;&gt;Node10 -->
<g id="edge9" class="edge">
<title>Node8&#45;&gt;Node10</title>
<path fill="none" stroke="midnightblue" d="M960.9,-286.95C980.93,-298.89 1010.24,-315.61 1037,-328 1081.8,-348.74 1093.49,-353.61 1141,-367 1153.91,-370.64 1167.96,-373.81 1181.3,-376.46"/>
<polygon fill="midnightblue" stroke="midnightblue" points="962.5,-283.83 952.13,-281.68 958.89,-289.83 962.5,-283.83"/>
</g>
<!-- Node11 -->
<g id="node11" class="node">
<title>Node11</title>
<g id="a_node11"><a xlink:href="classCDPL_1_1Chem_1_1AromaticSSSRSubset.html" target="_top" xlink:title="Implements the extraction of the aromatic rings in the SSSR of a molecular graph.">
<polygon fill="none" stroke="black" points="1151.5,-338.5 1151.5,-357.5 1329.5,-357.5 1329.5,-338.5 1151.5,-338.5"/>
<text text-anchor="middle" x="1240.5" y="-345.5" font-family="Helvetica" font-size="10.00">CDPL::Chem::AromaticSSSRSubset</text>
</a>
</g>
</g>
<!-- Node8&#45;&gt;Node11 -->
<g id="edge10" class="edge">
<title>Node8&#45;&gt;Node11</title>
<path fill="none" stroke="midnightblue" d="M973.31,-284.97C992.22,-291.41 1015.71,-299.06 1037,-305 1082.69,-317.75 1094.59,-319.17 1141,-329 1156.33,-332.25 1173.06,-335.56 1188.31,-338.49"/>
<polygon fill="midnightblue" stroke="midnightblue" points="974.19,-281.57 963.6,-281.64 971.92,-288.19 974.19,-281.57"/>
</g>
<!-- Node12 -->
<g id="node12" class="node">
<title>Node12</title>
<g id="a_node12"><a xlink:href="classCDPL_1_1Chem_1_1CompleteRingSet.html" target="_top" xlink:title="Implements the exhaustive perception of rings in a molecular graph.">
<polygon fill="none" stroke="black" points="1161.5,-300.5 1161.5,-319.5 1319.5,-319.5 1319.5,-300.5 1161.5,-300.5"/>
<text text-anchor="middle" x="1240.5" y="-307.5" font-family="Helvetica" font-size="10.00">CDPL::Chem::CompleteRingSet</text>
</a>
</g>
</g>
<!-- Node8&#45;&gt;Node12 -->
<g id="edge11" class="edge">
<title>Node8&#45;&gt;Node12</title>
<path fill="none" stroke="midnightblue" d="M1013.52,-282.89C1021.45,-283.96 1029.38,-285.02 1037,-286 1077.91,-291.27 1123.52,-296.72 1161.08,-301.08"/>
<polygon fill="midnightblue" stroke="midnightblue" points="1013.89,-279.41 1003.51,-281.53 1012.94,-286.35 1013.89,-279.41"/>
</g>
<!-- Node13 -->
<g id="node13" class="node">
<title>Node13</title>
<g id="a_node13"><a xlink:href="classCDPL_1_1Chem_1_1ComponentSet.html" target="_top" xlink:title="Implements the perception of molecular graph components.">
<polygon fill="none" stroke="black" points="1167.5,-262.5 1167.5,-281.5 1313.5,-281.5 1313.5,-262.5 1167.5,-262.5"/>
<text text-anchor="middle" x="1240.5" y="-269.5" font-family="Helvetica" font-size="10.00">CDPL::Chem::ComponentSet</text>
</a>
</g>
</g>
<!-- Node8&#45;&gt;Node13 -->
<g id="edge12" class="edge">
<title>Node8&#45;&gt;Node13</title>
<path fill="none" stroke="midnightblue" d="M1015.03,-272C1062.11,-272 1121.53,-272 1167.41,-272"/>
<polygon fill="midnightblue" stroke="midnightblue" points="1014.88,-268.5 1004.88,-272 1014.88,-275.5 1014.88,-268.5"/>
</g>
<!-- Node14 -->
<g id="node14" class="node">
<title>Node14</title>
<g id="a_node14"><a xlink:href="classCDPL_1_1Chem_1_1ConnectedSubstructureSet.html" target="_top" xlink:title="ConnectedSubstructureSet.">
<polygon fill="none" stroke="black" points="1141,-224.5 1141,-243.5 1340,-243.5 1340,-224.5 1141,-224.5"/>
<text text-anchor="middle" x="1240.5" y="-231.5" font-family="Helvetica" font-size="10.00">CDPL::Chem::ConnectedSubstructureSet</text>
</a>
</g>
</g>
<!-- Node8&#45;&gt;Node14 -->
<g id="edge13" class="edge">
<title>Node8&#45;&gt;Node14</title>
<path fill="none" stroke="midnightblue" d="M1015.06,-262.15C1060.85,-256.4 1118.33,-249.2 1163.66,-243.51"/>
<polygon fill="midnightblue" stroke="midnightblue" points="1014.36,-258.71 1004.88,-263.42 1015.23,-265.65 1014.36,-258.71"/>
</g>
<!-- Node15 -->
<g id="node15" class="node">
<title>Node15</title>
<g id="a_node15"><a xlink:href="classCDPL_1_1Chem_1_1ExtendedSSSR.html" target="_top" xlink:title="Implements the perception of the Extended Smallest Set of Smallest Rings (ESSSR) of a molecular graph...">
<polygon fill="none" stroke="black" points="1165.5,-186.5 1165.5,-205.5 1315.5,-205.5 1315.5,-186.5 1165.5,-186.5"/>
<text text-anchor="middle" x="1240.5" y="-193.5" font-family="Helvetica" font-size="10.00">CDPL::Chem::ExtendedSSSR</text>
</a>
</g>
</g>
<!-- Node8&#45;&gt;Node15 -->
<g id="edge14" class="edge">
<title>Node8&#45;&gt;Node15</title>
<path fill="none" stroke="midnightblue" d="M979.35,-259.61C1029.74,-245.13 1110.39,-222.2 1141,-215 1155.49,-211.59 1171.29,-208.34 1185.91,-205.52"/>
<polygon fill="midnightblue" stroke="midnightblue" points="978.34,-256.26 969.7,-262.39 980.28,-262.99 978.34,-256.26"/>
</g>
<!-- Node16 -->
<g id="node16" class="node">
<title>Node16</title>
<g id="a_node16"><a xlink:href="classCDPL_1_1Chem_1_1SmallestSetOfSmallestRings.html" target="_top" xlink:title="Implements the perception of the Smallest Set of Smallest Rings (SSSR) of a molecular graphs.">
<polygon fill="none" stroke="black" points="1168,-137 1168,-167 1313,-167 1313,-137 1168,-137"/>
<text text-anchor="start" x="1176" y="-155" font-family="Helvetica" font-size="10.00">CDPL::Chem::SmallestSetOf</text>
<text text-anchor="middle" x="1240.5" y="-144" font-family="Helvetica" font-size="10.00">SmallestRings</text>
</a>
</g>
</g>
<!-- Node8&#45;&gt;Node16 -->
<g id="edge15" class="edge">
<title>Node8&#45;&gt;Node16</title>
<path fill="none" stroke="midnightblue" d="M1000.91,-258.65C1007.37,-255.77 1013.55,-252.26 1019,-248 1031.55,-238.18 1024.88,-227.34 1037,-217 1074.69,-184.87 1093.81,-192.01 1141,-177 1152.1,-173.47 1164.02,-170.1 1175.6,-167.04"/>
<polygon fill="midnightblue" stroke="midnightblue" points="999.3,-255.52 991.27,-262.44 1001.86,-262.03 999.3,-255.52"/>
</g>
<!-- Node17 -->
<g id="node17" class="node">
<title>Node17</title>
<g id="a_node17"><a xlink:href="classCDPL_1_1ForceField_1_1MMFF94AromaticSSSRSubset.html" target="_top" xlink:title="Implements the extraction of all rings in the SSSR of a molecular graph that are aromatic according t...">
<polygon fill="none" stroke="black" points="1170.5,-88 1170.5,-118 1310.5,-118 1310.5,-88 1170.5,-88"/>
<text text-anchor="start" x="1178.5" y="-106" font-family="Helvetica" font-size="10.00">CDPL::ForceField::MMFF94</text>
<text text-anchor="middle" x="1240.5" y="-95" font-family="Helvetica" font-size="10.00">AromaticSSSRSubset</text>
</a>
</g>
</g>
<!-- Node8&#45;&gt;Node17 -->
<g id="edge16" class="edge">
<title>Node8&#45;&gt;Node17</title>
<path fill="none" stroke="midnightblue" d="M1006.29,-257.81C1010.95,-255.08 1015.26,-251.84 1019,-248 1041.1,-225.28 1017.04,-203.62 1037,-179 1069.54,-138.85 1092.48,-144.78 1141,-127 1150.34,-123.58 1160.35,-120.5 1170.29,-117.77"/>
<polygon fill="midnightblue" stroke="midnightblue" points="1004.37,-254.86 996.97,-262.45 1007.49,-261.12 1004.37,-254.86"/>
</g>
<!-- Node18 -->
<g id="node18" class="node">
<title>Node18</title>
<g id="a_node18"><a xlink:href="classCDPL_1_1MolProp_1_1FunctionalGroupList.html" target="_top" xlink:title="Implementation of Ertl&#39;s algorithm [FGPE] for the identification of functional groups in organic mole...">
<polygon fill="none" stroke="black" points="1172.5,-39 1172.5,-69 1308.5,-69 1308.5,-39 1172.5,-39"/>
<text text-anchor="start" x="1180.5" y="-57" font-family="Helvetica" font-size="10.00">CDPL::MolProp::Functional</text>
<text text-anchor="middle" x="1240.5" y="-46" font-family="Helvetica" font-size="10.00">GroupList</text>
</a>
</g>
</g>
<!-- Node8&#45;&gt;Node18 -->
<g id="edge17" class="edge">
<title>Node8&#45;&gt;Node18</title>
<path fill="none" stroke="midnightblue" d="M1007.76,-257.58C1011.92,-254.9 1015.73,-251.73 1019,-248 1053.96,-208.1 1005.78,-172.89 1037,-130 1068.16,-87.19 1126.43,-68.49 1172.49,-60.32"/>
<polygon fill="midnightblue" stroke="midnightblue" points="1005.92,-254.6 998.8,-262.45 1009.26,-260.75 1005.92,-254.6"/>
</g>
<!-- Node20 -->
<g id="node20" class="node">
<title>Node20</title>
<g id="a_node20"><a xlink:href="classCDPL_1_1Shape_1_1GaussianShapeSet.html" target="_top" xlink:title=" ">
<polygon fill="none" stroke="black" points="852,-219.5 852,-238.5 1019,-238.5 1019,-219.5 852,-219.5"/>
<text text-anchor="middle" x="935.5" y="-226.5" font-family="Helvetica" font-size="10.00">CDPL::Shape::GaussianShapeSet</text>
</a>
</g>
</g>
<!-- Node19&#45;&gt;Node20 -->
<g id="edge19" class="edge">
<title>Node19&#45;&gt;Node20</title>
<path fill="none" stroke="midnightblue" d="M810.41,-229C823.9,-229 838.1,-229 851.89,-229"/>
<polygon fill="midnightblue" stroke="midnightblue" points="810.25,-225.5 800.25,-229 810.25,-232.5 810.25,-225.5"/>
</g>
<!-- Node22 -->
<g id="node22" class="node">
<title>Node22</title>
<g id="a_node22"><a xlink:href="classCDPL_1_1Grid_1_1RegularGridSet.html" target="_top" xlink:title="RegularGridSet.">
<polygon fill="none" stroke="black" points="866,-165 866,-195 1005,-195 1005,-165 866,-165"/>
<text text-anchor="start" x="874" y="-183" font-family="Helvetica" font-size="10.00">CDPL::Grid::RegularGridSet</text>
<text text-anchor="middle" x="935.5" y="-172" font-family="Helvetica" font-size="10.00">&lt; T, CVT &gt;</text>
</a>
</g>
</g>
<!-- Node21&#45;&gt;Node22 -->
<g id="edge21" class="edge">
<title>Node21&#45;&gt;Node22</title>
<path fill="none" stroke="midnightblue" d="M810.45,-180C828.57,-180 847.96,-180 865.91,-180"/>
<polygon fill="midnightblue" stroke="midnightblue" points="810.25,-176.5 800.25,-180 810.25,-183.5 810.25,-176.5"/>
</g>
<!-- Node24 -->
<g id="node24" class="node">
<title>Node24</title>
<g id="a_node24"><a xlink:href="classCDPL_1_1Chem_1_1ElectronSystemList.html" target="_top" xlink:title="A data type for the storage of Chem::ElectronSystem objects.">
<polygon fill="none" stroke="black" points="852.5,-31.5 852.5,-50.5 1018.5,-50.5 1018.5,-31.5 852.5,-31.5"/>
<text text-anchor="middle" x="935.5" y="-38.5" font-family="Helvetica" font-size="10.00">CDPL::Chem::ElectronSystemList</text>
</a>
</g>
</g>
<!-- Node23&#45;&gt;Node24 -->
<g id="edge23" class="edge">
<title>Node23&#45;&gt;Node24</title>
<path fill="none" stroke="midnightblue" d="M786.39,-99.19C825.6,-83.78 879.46,-62.62 910.26,-50.52"/>
<polygon fill="midnightblue" stroke="midnightblue" points="784.78,-96.06 776.76,-102.97 787.34,-102.57 784.78,-96.06"/>
</g>
<!-- Node25 -->
<g id="node25" class="node">
<title>Node25</title>
<g id="a_node25"><a xlink:href="classCDPL_1_1Chem_1_1PiElectronSystemList.html" target="_top" xlink:title="Implements the perception of all pi electron systems present in a molecule.">
<polygon fill="none" stroke="black" points="1153,-0.5 1153,-19.5 1328,-19.5 1328,-0.5 1153,-0.5"/>
<text text-anchor="middle" x="1240.5" y="-7.5" font-family="Helvetica" font-size="10.00">CDPL::Chem::PiElectronSystemList</text>
</a>
</g>
</g>
<!-- Node24&#45;&gt;Node25 -->
<g id="edge24" class="edge">
<title>Node24&#45;&gt;Node25</title>
<path fill="none" stroke="midnightblue" d="M1029.03,-31.53C1068.44,-27.5 1114.15,-22.82 1152.89,-18.86"/>
<polygon fill="midnightblue" stroke="midnightblue" points="1028.49,-28.07 1018.9,-32.57 1029.2,-35.03 1028.49,-28.07"/>
</g>
<!-- Node27 -->
<g id="node27" class="node">
<title>Node27</title>
<g id="a_node27"><a xlink:href="classCDPL_1_1Chem_1_1MatchExpressionList.html" target="_top" xlink:title=" ">
<polygon fill="none" stroke="black" points="1162,-453 1162,-483 1319,-483 1319,-453 1162,-453"/>
<text text-anchor="start" x="1170" y="-471" font-family="Helvetica" font-size="10.00">CDPL::Chem::MatchExpression</text>
<text text-anchor="middle" x="1240.5" y="-460" font-family="Helvetica" font-size="10.00">List&lt; ObjType1, void &gt;</text>
</a>
</g>
</g>
<!-- Node26&#45;&gt;Node27 -->
<g id="edge26" class="edge">
<title>Node26&#45;&gt;Node27</title>
<path fill="none" stroke="midnightblue" d="M825.27,-440.72C920.06,-446.96 1070.52,-456.87 1161.63,-462.87"/>
<polygon fill="midnightblue" stroke="midnightblue" points="825.34,-437.21 815.14,-440.05 824.88,-444.2 825.34,-437.21"/>
</g>
<!-- Node30 -->
<g id="node30" class="node">
<title>Node30</title>
<g id="a_node30"><a xlink:href="classCDPL_1_1Chem_1_1MatchExpressionList.html" target="_top" xlink:title="A container for the storage and evaluation of logical match expression lists.">
<polygon fill="none" stroke="black" points="857,-464 857,-494 1014,-494 1014,-464 857,-464"/>
<text text-anchor="start" x="865" y="-482" font-family="Helvetica" font-size="10.00">CDPL::Chem::MatchExpression</text>
<text text-anchor="middle" x="935.5" y="-471" font-family="Helvetica" font-size="10.00">List&lt; ObjType1, ObjType2 &gt;</text>
</a>
</g>
</g>
<!-- Node26&#45;&gt;Node30 -->
<g id="edge29" class="edge">
<title>Node26&#45;&gt;Node30</title>
<path fill="none" stroke="midnightblue" d="M824.93,-454.4C839.19,-457.6 853.79,-460.88 867.48,-463.96"/>
<polygon fill="midnightblue" stroke="midnightblue" points="825.64,-450.98 815.12,-452.2 824.11,-457.81 825.64,-450.98"/>
</g>
<!-- Node28 -->
<g id="node28" class="node">
<title>Node28</title>
<g id="a_node28"><a xlink:href="classCDPL_1_1Chem_1_1ANDMatchExpressionList.html" target="_top" xlink:title="ANDMatchExpressionList.">
<polygon fill="none" stroke="black" points="1377,-454 1377,-484 1556,-484 1556,-454 1377,-454"/>
<text text-anchor="start" x="1385" y="-472" font-family="Helvetica" font-size="10.00">CDPL::Chem::ANDMatchExpression</text>
<text text-anchor="middle" x="1466.5" y="-461" font-family="Helvetica" font-size="10.00">List&lt; ObjType1, ObjType2 &gt;</text>
</a>
</g>
</g>
<!-- Node27&#45;&gt;Node28 -->
<g id="edge27" class="edge">
<title>Node27&#45;&gt;Node28</title>
<path fill="none" stroke="midnightblue" d="M1329.35,-468.39C1344.94,-468.46 1361.18,-468.53 1376.79,-468.6"/>
<polygon fill="midnightblue" stroke="midnightblue" points="1329.23,-464.89 1319.22,-468.35 1329.2,-471.89 1329.23,-464.89"/>
</g>
<!-- Node29 -->
<g id="node29" class="node">
<title>Node29</title>
<g id="a_node29"><a xlink:href="classCDPL_1_1Chem_1_1ORMatchExpressionList.html" target="_top" xlink:title="ORMatchExpressionList.">
<polygon fill="none" stroke="black" points="1380.5,-405 1380.5,-435 1552.5,-435 1552.5,-405 1380.5,-405"/>
<text text-anchor="start" x="1388.5" y="-423" font-family="Helvetica" font-size="10.00">CDPL::Chem::ORMatchExpression</text>
<text text-anchor="middle" x="1466.5" y="-412" font-family="Helvetica" font-size="10.00">List&lt; ObjType1, ObjType2 &gt;</text>
</a>
</g>
</g>
<!-- Node27&#45;&gt;Node29 -->
<g id="edge28" class="edge">
<title>Node27&#45;&gt;Node29</title>
<path fill="none" stroke="midnightblue" d="M1321.6,-450.83C1345.75,-445.66 1372.05,-440.02 1395.49,-435"/>
<polygon fill="midnightblue" stroke="midnightblue" points="1320.81,-447.43 1311.76,-452.94 1322.27,-454.27 1320.81,-447.43"/>
</g>
<!-- Node30&#45;&gt;Node4 -->
<g id="edge31" class="edge">
<title>Node30&#45;&gt;Node4</title>
<path fill="none" stroke="orange" stroke-dasharray="5,2" d="M1024.21,-489.21C1055.45,-493.13 1090.85,-497.9 1123,-503 1136.11,-505.08 1150.01,-507.51 1163.47,-509.98"/>
<polygon fill="orange" stroke="orange" points="1024.58,-485.73 1014.23,-487.97 1023.72,-492.68 1024.58,-485.73"/>
<text text-anchor="middle" x="1080" y="-506" font-family="Helvetica" font-size="10.00"> &lt; ObjType, void &gt;</text>
</g>
<!-- Node30&#45;&gt;Node27 -->
<g id="edge30" class="edge">
<title>Node30&#45;&gt;Node27</title>
<path fill="none" stroke="orange" stroke-dasharray="5,2" d="M1024.21,-469.78C1028.53,-469.48 1032.81,-469.22 1037,-469 1078.08,-466.86 1123.91,-466.47 1161.56,-466.67"/>
<polygon fill="orange" stroke="orange" points="1023.79,-466.3 1014.08,-470.54 1024.32,-473.29 1023.79,-466.3"/>
<text text-anchor="middle" x="1080" y="-472" font-family="Helvetica" font-size="10.00"> &lt; ObjType1, void &gt;</text>
</g>
</g>
</svg>
        <g id="navigator" transform="translate(0 0)" fill="#404254">
                <rect fill="#f2f5e9" fill-opacity="0.5" stroke="#606060" stroke-width=".5" x="0" y="0" width="60" height="60"/>
                <use id="zoomplus" xlink:href="#zoomPlus" x="17" y="9" onmousedown="handleZoom(evt,'in')"/>
                <use id="zoomminus" xlink:href="#zoomMin" x="42" y="9" onmousedown="handleZoom(evt,'out')"/>
                <use id="reset" xlink:href="#resetDef" x="30" y="36" onmousedown="handleReset()"/>
                <g id="arrowUp" xlink:href="#dirArrow" transform="translate(30 24)" onmousedown="handlePan(0,-1)">
                  <use xlink:href="#rim" fill="#404040">
                        <set attributeName="fill" to="#808080" begin="arrowUp.mouseover" end="arrowUp.mouseout"/>
                  </use>
                  <path fill="none" stroke="white" stroke-width="1.5" d="M0,-3.0v7 M-2.5,-0.5L0,-3.0L2.5,-0.5"/>
                </g>
                <g id="arrowRight" xlink:href="#dirArrow" transform="rotate(90) translate(36 -43)" onmousedown="handlePan(1,0)">
                  <use xlink:href="#rim" fill="#404040">
                        <set attributeName="fill" to="#808080" begin="arrowRight.mouseover" end="arrowRight.mouseout"/>
                  </use>
                  <path fill="none" stroke="white" stroke-width="1.5" d="M0,-3.0v7 M-2.5,-0.5L0,-3.0L2.5,-0.5"/>
                </g>
                <g id="arrowDown" xlink:href="#dirArrow" transform="rotate(180) translate(-30 -48)" onmousedown="handlePan(0,1)">
                  <use xlink:href="#rim" fill="#404040">
                        <set attributeName="fill" to="#808080" begin="arrowDown.mouseover" end="arrowDown.mouseout"/>
                  </use>
                  <path fill="none" stroke="white" stroke-width="1.5" d="M0,-3.0v7 M-2.5,-0.5L0,-3.0L2.5,-0.5"/>
                </g>
                <g id="arrowLeft" xlink:href="#dirArrow" transform="rotate(270) translate(-36 17)" onmousedown="handlePan(-1,0)">
                  <use xlink:href="#rim" fill="#404040">
                        <set attributeName="fill" to="#808080" begin="arrowLeft.mouseover" end="arrowLeft.mouseout"/>
                  </use>
                  <path fill="none" stroke="white" stroke-width="1.5" d="M0,-3.0v7 M-2.5,-0.5L0,-3.0L2.5,-0.5"/>
                </g>
        </g>
        <svg viewBox="0 0 15 15" width="100%" height="30px" preserveAspectRatio="xMaxYMin meet">
         <g id="arrow_out" transform="scale(0.3 0.3)">
          <a xlink:href="classCDPL_1_1Util_1_1IndirectArray__inherit__graph_org.svg" target="_base">
           <rect id="button" ry="5" rx="5" y="6" x="6" height="38" width="38"
                fill="#f2f5e9" fill-opacity="0.5" stroke="#606060" stroke-width="1.0"/>
           <path id="arrow"
             d="M 11.500037,31.436501 C 11.940474,20.09759 22.043105,11.32322 32.158766,21.979434 L 37.068811,17.246167 C 37.068811,17.246167 37.088388,32 37.088388,32 L 22.160133,31.978069 C 22.160133,31.978069 26.997745,27.140456 26.997745,27.140456 C 18.528582,18.264221 13.291696,25.230495 11.500037,31.436501 z"
             style="fill:#404040;"/>
          </a>
         </g>
        </svg>
</svg>
