<?xml version="1.0" encoding="UTF-8" standalone="no"?>
<!DOCTYPE svg PUBLIC "-//W3C//DTD SVG 1.1//EN"
 "http://www.w3.org/Graphics/SVG/1.1/DTD/svg11.dtd">
<!-- Generated by graphviz version 2.44.0 (0)
 -->
<!-- Title: CDPL::Math::Grid&lt; T, A &gt; Pages: 1 -->
<svg width="1581pt" height="132pt"
 viewBox="0.00 0.00 1581.00 132.00" xmlns="http://www.w3.org/2000/svg" xmlns:xlink="http://www.w3.org/1999/xlink">
<g id="graph0" class="graph" transform="scale(1 1) rotate(0) translate(4 128)">
<title>CDPL::Math::Grid&lt; T, A &gt;</title>
<!-- Node1 -->
<g id="node1" class="node">
<title>Node1</title>
<g id="a_node1"><a xlink:title=" ">
<polygon fill="#bfbfbf" stroke="black" points="1259,-45.5 1259,-64.5 1390,-64.5 1390,-45.5 1259,-45.5"/>
<text text-anchor="middle" x="1324.5" y="-52.5" font-family="Helvetica" font-size="10.00">CDPL::Math::Grid&lt; T, A &gt;</text>
</a>
</g>
</g>
<!-- Node10 -->
<g id="node10" class="node">
<title>Node10</title>
<g id="a_node10"><a xlink:href="classCDPL_1_1Math_1_1Grid.html" target="_top" xlink:title=" ">
<polygon fill="none" stroke="black" points="1454,-45.5 1454,-64.5 1573,-64.5 1573,-45.5 1454,-45.5"/>
<text text-anchor="middle" x="1513.5" y="-52.5" font-family="Helvetica" font-size="10.00">CDPL::Math::Grid&lt; T &gt;</text>
</a>
</g>
</g>
<!-- Node1&#45;&gt;Node10 -->
<g id="edge12" class="edge">
<title>Node1&#45;&gt;Node10</title>
<path fill="none" stroke="orange" stroke-dasharray="5,2" d="M1400.45,-55C1418.22,-55 1436.91,-55 1453.84,-55"/>
<polygon fill="orange" stroke="orange" points="1400.12,-51.5 1390.12,-55 1400.12,-58.5 1400.12,-51.5"/>
<text text-anchor="middle" x="1422" y="-58" font-family="Helvetica" font-size="10.00"> &lt; T &gt;</text>
</g>
<!-- Node2 -->
<g id="node2" class="node">
<title>Node2</title>
<g id="a_node2"><a xlink:href="classCDPL_1_1Math_1_1GridContainer.html" target="_top" xlink:title=" ">
<polygon fill="none" stroke="black" points="1085,-34.5 1085,-75.5 1222,-75.5 1222,-34.5 1085,-34.5"/>
<text text-anchor="start" x="1093" y="-63.5" font-family="Helvetica" font-size="10.00">CDPL::Math::GridContainer</text>
<text text-anchor="start" x="1093" y="-52.5" font-family="Helvetica" font-size="10.00">&lt; Grid&lt; T, std::vector</text>
<text text-anchor="middle" x="1153.5" y="-41.5" font-family="Helvetica" font-size="10.00">&lt; T &gt; &gt; &gt;</text>
</a>
</g>
</g>
<!-- Node2&#45;&gt;Node1 -->
<g id="edge1" class="edge">
<title>Node2&#45;&gt;Node1</title>
<path fill="none" stroke="midnightblue" d="M1232.5,-55C1241.28,-55 1250.16,-55 1258.74,-55"/>
<polygon fill="midnightblue" stroke="midnightblue" points="1232.27,-51.5 1222.26,-55 1232.26,-58.5 1232.27,-51.5"/>
</g>
<!-- Node3 -->
<g id="node3" class="node">
<title>Node3</title>
<g id="a_node3"><a xlink:href="classCDPL_1_1Math_1_1GridExpression.html" target="_top" xlink:title=" ">
<polygon fill="none" stroke="black" points="597,-55.5 597,-96.5 740,-96.5 740,-55.5 597,-55.5"/>
<text text-anchor="start" x="605" y="-84.5" font-family="Helvetica" font-size="10.00">CDPL::Math::GridExpression</text>
<text text-anchor="start" x="605" y="-73.5" font-family="Helvetica" font-size="10.00">&lt; Grid&lt; T, std::vector&lt;</text>
<text text-anchor="middle" x="668.5" y="-62.5" font-family="Helvetica" font-size="10.00"> T &gt; &gt; &gt;</text>
</a>
</g>
</g>
<!-- Node3&#45;&gt;Node2 -->
<g id="edge2" class="edge">
<title>Node3&#45;&gt;Node2</title>
<path fill="none" stroke="midnightblue" d="M750.29,-73.18C830.62,-70.27 957.35,-65.41 1067,-60 1072.79,-59.71 1078.8,-59.4 1084.83,-59.07"/>
<polygon fill="midnightblue" stroke="midnightblue" points="750.11,-69.68 740.24,-73.54 750.36,-76.68 750.11,-69.68"/>
</g>
<!-- Node4 -->
<g id="node4" class="node">
<title>Node4</title>
<g id="a_node4"><a xlink:href="classCDPL_1_1Math_1_1Expression.html" target="_top" xlink:title=" ">
<polygon fill="none" stroke="black" points="304.5,-82.5 304.5,-123.5 429.5,-123.5 429.5,-82.5 304.5,-82.5"/>
<text text-anchor="start" x="312.5" y="-111.5" font-family="Helvetica" font-size="10.00">CDPL::Math::Expression</text>
<text text-anchor="start" x="312.5" y="-100.5" font-family="Helvetica" font-size="10.00">&lt; Grid&lt; T, std::vector</text>
<text text-anchor="middle" x="367" y="-89.5" font-family="Helvetica" font-size="10.00">&lt; T &gt; &gt; &gt;</text>
</a>
</g>
</g>
<!-- Node4&#45;&gt;Node3 -->
<g id="edge3" class="edge">
<title>Node4&#45;&gt;Node3</title>
<path fill="none" stroke="midnightblue" d="M440.02,-100.75C477.64,-99.13 524.38,-96.43 566,-92 576.02,-90.93 586.57,-89.56 596.91,-88.06"/>
<polygon fill="midnightblue" stroke="midnightblue" points="439.52,-97.26 429.67,-101.17 439.8,-104.26 439.52,-97.26"/>
</g>
<!-- Node5 -->
<g id="node5" class="node">
<title>Node5</title>
<g id="a_node5"><a xlink:href="classCDPL_1_1Math_1_1Expression.html" target="_top" xlink:title=" ">
<polygon fill="none" stroke="black" points="0,-42.5 0,-61.5 150,-61.5 150,-42.5 0,-42.5"/>
<text text-anchor="middle" x="75" y="-49.5" font-family="Helvetica" font-size="10.00">CDPL::Math::Expression&lt; E &gt;</text>
</a>
</g>
</g>
<!-- Node5&#45;&gt;Node4 -->
<g id="edge4" class="edge">
<title>Node5&#45;&gt;Node4</title>
<path fill="none" stroke="orange" stroke-dasharray="5,2" d="M140.35,-63.32C189.23,-71.91 256.04,-83.66 304.27,-92.14"/>
<polygon fill="orange" stroke="orange" points="140.66,-59.82 130.21,-61.53 139.45,-66.71 140.66,-59.82"/>
<text text-anchor="start" x="168" y="-99" font-family="Helvetica" font-size="10.00"> &lt; Grid&lt; T, std::vector</text>
<text text-anchor="middle" x="216.5" y="-88" font-family="Helvetica" font-size="10.00">&lt; T &gt; &gt; &gt;</text>
</g>
<!-- Node6 -->
<g id="node6" class="node">
<title>Node6</title>
<g id="a_node6"><a xlink:href="classCDPL_1_1Math_1_1GridExpression.html" target="_top" xlink:title=" ">
<polygon fill="none" stroke="black" points="283,-42.5 283,-61.5 451,-61.5 451,-42.5 283,-42.5"/>
<text text-anchor="middle" x="367" y="-49.5" font-family="Helvetica" font-size="10.00">CDPL::Math::GridExpression&lt; E &gt;</text>
</a>
</g>
</g>
<!-- Node5&#45;&gt;Node6 -->
<g id="edge6" class="edge">
<title>Node5&#45;&gt;Node6</title>
<path fill="none" stroke="midnightblue" d="M160.47,-52C199.03,-52 244.55,-52 282.94,-52"/>
<polygon fill="midnightblue" stroke="midnightblue" points="160.31,-48.5 150.31,-52 160.31,-55.5 160.31,-48.5"/>
</g>
<!-- Node9 -->
<g id="node9" class="node">
<title>Node9</title>
<g id="a_node9"><a xlink:href="classCDPL_1_1Math_1_1Expression.html" target="_top" xlink:title=" ">
<polygon fill="none" stroke="black" points="291.5,-0.5 291.5,-19.5 442.5,-19.5 442.5,-0.5 291.5,-0.5"/>
<text text-anchor="middle" x="367" y="-7.5" font-family="Helvetica" font-size="10.00">CDPL::Math::Expression&lt; C &gt;</text>
</a>
</g>
</g>
<!-- Node5&#45;&gt;Node9 -->
<g id="edge10" class="edge">
<title>Node5&#45;&gt;Node9</title>
<path fill="none" stroke="orange" stroke-dasharray="5,2" d="M142.78,-40.9C151.27,-39.55 159.83,-38.22 168,-37 209.17,-30.84 255.25,-24.52 292.59,-19.55"/>
<polygon fill="orange" stroke="orange" points="142.21,-37.45 132.89,-42.49 143.32,-44.36 142.21,-37.45"/>
<text text-anchor="middle" x="216.5" y="-40" font-family="Helvetica" font-size="10.00"> &lt; C &gt;</text>
</g>
<!-- Node6&#45;&gt;Node3 -->
<g id="edge5" class="edge">
<title>Node6&#45;&gt;Node3</title>
<path fill="none" stroke="orange" stroke-dasharray="5,2" d="M461.09,-59.46C504.78,-62.96 556.01,-67.07 596.5,-70.31"/>
<polygon fill="orange" stroke="orange" points="461.28,-55.96 451.03,-58.65 460.72,-62.94 461.28,-55.96"/>
<text text-anchor="start" x="469" y="-81" font-family="Helvetica" font-size="10.00"> &lt; Grid&lt; T, std::vector</text>
<text text-anchor="middle" x="517.5" y="-70" font-family="Helvetica" font-size="10.00">&lt; T &gt; &gt; &gt;</text>
</g>
<!-- Node8 -->
<g id="node8" class="node">
<title>Node8</title>
<g id="a_node8"><a xlink:href="classCDPL_1_1Math_1_1GridExpression.html" target="_top" xlink:title=" ">
<polygon fill="none" stroke="black" points="584,-17.5 584,-36.5 753,-36.5 753,-17.5 584,-17.5"/>
<text text-anchor="middle" x="668.5" y="-24.5" font-family="Helvetica" font-size="10.00">CDPL::Math::GridExpression&lt; C &gt;</text>
</a>
</g>
</g>
<!-- Node6&#45;&gt;Node8 -->
<g id="edge11" class="edge">
<title>Node6&#45;&gt;Node8</title>
<path fill="none" stroke="orange" stroke-dasharray="5,2" d="M461.12,-44.23C500.34,-40.95 545.64,-37.17 583.79,-33.99"/>
<polygon fill="orange" stroke="orange" points="460.7,-40.75 451.03,-45.07 461.29,-47.73 460.7,-40.75"/>
<text text-anchor="middle" x="517.5" y="-46" font-family="Helvetica" font-size="10.00"> &lt; C &gt;</text>
</g>
<!-- Node7 -->
<g id="node7" class="node">
<title>Node7</title>
<g id="a_node7"><a xlink:href="classCDPL_1_1Math_1_1GridContainer.html" target="_top" xlink:title=" ">
<polygon fill="none" stroke="black" points="790,-25.5 790,-44.5 952,-44.5 952,-25.5 790,-25.5"/>
<text text-anchor="middle" x="871" y="-32.5" font-family="Helvetica" font-size="10.00">CDPL::Math::GridContainer&lt; C &gt;</text>
</a>
</g>
</g>
<!-- Node7&#45;&gt;Node2 -->
<g id="edge7" class="edge">
<title>Node7&#45;&gt;Node2</title>
<path fill="none" stroke="orange" stroke-dasharray="5,2" d="M962.45,-32.99C995.43,-33.16 1032.98,-34.39 1067,-38 1072.72,-38.61 1078.62,-39.41 1084.53,-40.33"/>
<polygon fill="orange" stroke="orange" points="962.37,-29.49 952.37,-32.98 962.36,-36.49 962.37,-29.49"/>
<text text-anchor="start" x="970" y="-52" font-family="Helvetica" font-size="10.00"> &lt; Grid&lt; T, std::vector</text>
<text text-anchor="middle" x="1018.5" y="-41" font-family="Helvetica" font-size="10.00">&lt; T &gt; &gt; &gt;</text>
</g>
<!-- Node8&#45;&gt;Node7 -->
<g id="edge8" class="edge">
<title>Node8&#45;&gt;Node7</title>
<path fill="none" stroke="midnightblue" d="M763.1,-30.73C772.01,-31.09 781,-31.45 789.77,-31.8"/>
<polygon fill="midnightblue" stroke="midnightblue" points="763.21,-27.24 753.08,-30.33 762.93,-34.23 763.21,-27.24"/>
</g>
<!-- Node9&#45;&gt;Node8 -->
<g id="edge9" class="edge">
<title>Node9&#45;&gt;Node8</title>
<path fill="none" stroke="midnightblue" d="M453,-11.13C488.03,-11.97 529,-13.44 566,-16 572.1,-16.42 578.4,-16.93 584.73,-17.49"/>
<polygon fill="midnightblue" stroke="midnightblue" points="452.89,-7.63 442.82,-10.9 452.73,-14.62 452.89,-7.63"/>
</g>
</g>
</svg>
