<?xml version="1.0" encoding="UTF-8" standalone="no"?>
<!DOCTYPE svg PUBLIC "-//W3C//DTD SVG 1.1//EN"
 "http://www.w3.org/Graphics/SVG/1.1/DTD/svg11.dtd">
<!-- Generated by graphviz version 2.44.0 (0)
 -->
<!-- Title: CDPL::Math::RealQuaternion&lt; T &gt; Pages: 1 -->
<svg width="1595pt" height="120pt"
 viewBox="0.00 0.00 1595.00 119.50" xmlns="http://www.w3.org/2000/svg" xmlns:xlink="http://www.w3.org/1999/xlink">
<g id="graph0" class="graph" transform="scale(1 1) rotate(0) translate(4 115.5)">
<title>CDPL::Math::RealQuaternion&lt; T &gt;</title>
<!-- Node1 -->
<g id="node1" class="node">
<title>Node1</title>
<g id="a_node1"><a xlink:title=" ">
<polygon fill="#bfbfbf" stroke="black" points="1420,-47.5 1420,-66.5 1587,-66.5 1587,-47.5 1420,-47.5"/>
<text text-anchor="middle" x="1503.5" y="-54.5" font-family="Helvetica" font-size="10.00">CDPL::Math::RealQuaternion&lt; T &gt;</text>
</a>
</g>
</g>
<!-- Node2 -->
<g id="node2" class="node">
<title>Node2</title>
<g id="a_node2"><a xlink:href="classCDPL_1_1Math_1_1QuaternionContainer.html" target="_top" xlink:title=" ">
<polygon fill="none" stroke="black" points="1217,-42 1217,-72 1383,-72 1383,-42 1217,-42"/>
<text text-anchor="start" x="1225" y="-60" font-family="Helvetica" font-size="10.00">CDPL::Math::QuaternionContainer</text>
<text text-anchor="middle" x="1300" y="-49" font-family="Helvetica" font-size="10.00">&lt; RealQuaternion&lt; T &gt; &gt;</text>
</a>
</g>
</g>
<!-- Node2&#45;&gt;Node1 -->
<g id="edge1" class="edge">
<title>Node2&#45;&gt;Node1</title>
<path fill="none" stroke="midnightblue" d="M1393.51,-57C1402.3,-57 1411.17,-57 1419.86,-57"/>
<polygon fill="midnightblue" stroke="midnightblue" points="1393.25,-53.5 1383.25,-57 1393.25,-60.5 1393.25,-53.5"/>
</g>
<!-- Node3 -->
<g id="node3" class="node">
<title>Node3</title>
<g id="a_node3"><a xlink:href="classCDPL_1_1Math_1_1QuaternionExpression.html" target="_top" xlink:title=" ">
<polygon fill="none" stroke="black" points="655.5,-62 655.5,-92 828.5,-92 828.5,-62 655.5,-62"/>
<text text-anchor="start" x="663.5" y="-80" font-family="Helvetica" font-size="10.00">CDPL::Math::QuaternionExpression</text>
<text text-anchor="middle" x="742" y="-69" font-family="Helvetica" font-size="10.00">&lt; RealQuaternion&lt; T &gt; &gt;</text>
</a>
</g>
</g>
<!-- Node3&#45;&gt;Node2 -->
<g id="edge2" class="edge">
<title>Node3&#45;&gt;Node2</title>
<path fill="none" stroke="midnightblue" d="M838.9,-74.32C931.19,-71.63 1074.66,-67.15 1199,-62 1204.82,-61.76 1210.83,-61.5 1216.87,-61.22"/>
<polygon fill="midnightblue" stroke="midnightblue" points="838.64,-70.83 828.74,-74.62 838.84,-77.82 838.64,-70.83"/>
</g>
<!-- Node4 -->
<g id="node4" class="node">
<title>Node4</title>
<g id="a_node4"><a xlink:href="classCDPL_1_1Math_1_1Expression.html" target="_top" xlink:title=" ">
<polygon fill="none" stroke="black" points="334,-81 334,-111 459,-111 459,-81 334,-81"/>
<text text-anchor="start" x="342" y="-99" font-family="Helvetica" font-size="10.00">CDPL::Math::Expression</text>
<text text-anchor="middle" x="396.5" y="-88" font-family="Helvetica" font-size="10.00">&lt; RealQuaternion&lt; T &gt; &gt;</text>
</a>
</g>
</g>
<!-- Node4&#45;&gt;Node3 -->
<g id="edge3" class="edge">
<title>Node4&#45;&gt;Node3</title>
<path fill="none" stroke="midnightblue" d="M469.5,-92.34C514.25,-90.03 572.98,-86.94 625,-84 634.87,-83.44 645.21,-82.84 655.48,-82.23"/>
<polygon fill="midnightblue" stroke="midnightblue" points="469.11,-88.86 459.3,-92.87 469.47,-95.85 469.11,-88.86"/>
</g>
<!-- Node5 -->
<g id="node5" class="node">
<title>Node5</title>
<g id="a_node5"><a xlink:href="classCDPL_1_1Math_1_1Expression.html" target="_top" xlink:title=" ">
<polygon fill="none" stroke="black" points="0,-41.5 0,-60.5 150,-60.5 150,-41.5 0,-41.5"/>
<text text-anchor="middle" x="75" y="-48.5" font-family="Helvetica" font-size="10.00">CDPL::Math::Expression&lt; E &gt;</text>
</a>
</g>
</g>
<!-- Node5&#45;&gt;Node4 -->
<g id="edge4" class="edge">
<title>Node5&#45;&gt;Node4</title>
<path fill="none" stroke="orange" stroke-dasharray="5,2" d="M147.81,-62.04C154.63,-63.05 161.45,-64.05 168,-65 224.02,-73.08 287.89,-81.73 333.67,-87.84"/>
<polygon fill="orange" stroke="orange" points="148.25,-58.56 137.84,-60.55 147.21,-65.49 148.25,-58.56"/>
<text text-anchor="middle" x="224" y="-83" font-family="Helvetica" font-size="10.00"> &lt; RealQuaternion&lt; T &gt; &gt;</text>
</g>
<!-- Node6 -->
<g id="node6" class="node">
<title>Node6</title>
<g id="a_node6"><a xlink:href="classCDPL_1_1Math_1_1QuaternionExpression.html" target="_top" xlink:title=" ">
<polygon fill="none" stroke="black" points="298,-41.5 298,-60.5 495,-60.5 495,-41.5 298,-41.5"/>
<text text-anchor="middle" x="396.5" y="-48.5" font-family="Helvetica" font-size="10.00">CDPL::Math::QuaternionExpression&lt; E &gt;</text>
</a>
</g>
</g>
<!-- Node5&#45;&gt;Node6 -->
<g id="edge6" class="edge">
<title>Node5&#45;&gt;Node6</title>
<path fill="none" stroke="midnightblue" d="M160.35,-51C202.59,-51 253.94,-51 297.88,-51"/>
<polygon fill="midnightblue" stroke="midnightblue" points="160.1,-47.5 150.1,-51 160.1,-54.5 160.1,-47.5"/>
</g>
<!-- Node9 -->
<g id="node9" class="node">
<title>Node9</title>
<g id="a_node9"><a xlink:href="classCDPL_1_1Math_1_1Expression.html" target="_top" xlink:title=" ">
<polygon fill="none" stroke="black" points="321,-0.5 321,-19.5 472,-19.5 472,-0.5 321,-0.5"/>
<text text-anchor="middle" x="396.5" y="-7.5" font-family="Helvetica" font-size="10.00">CDPL::Math::Expression&lt; C &gt;</text>
</a>
</g>
</g>
<!-- Node5&#45;&gt;Node9 -->
<g id="edge10" class="edge">
<title>Node5&#45;&gt;Node9</title>
<path fill="none" stroke="orange" stroke-dasharray="5,2" d="M142.04,-39.84C150.76,-38.48 159.59,-37.17 168,-36 218.9,-28.95 276.39,-22.39 320.85,-17.62"/>
<polygon fill="orange" stroke="orange" points="141.21,-36.43 131.88,-41.45 142.31,-43.34 141.21,-36.43"/>
<text text-anchor="middle" x="224" y="-39" font-family="Helvetica" font-size="10.00"> &lt; C &gt;</text>
</g>
<!-- Node6&#45;&gt;Node3 -->
<g id="edge5" class="edge">
<title>Node6&#45;&gt;Node3</title>
<path fill="none" stroke="orange" stroke-dasharray="5,2" d="M505.2,-59.15C553.55,-62.81 609.8,-67.07 655.23,-70.51"/>
<polygon fill="orange" stroke="orange" points="505.25,-55.65 495.01,-58.38 504.72,-62.63 505.25,-55.65"/>
<text text-anchor="middle" x="569" y="-70" font-family="Helvetica" font-size="10.00"> &lt; RealQuaternion&lt; T &gt; &gt;</text>
</g>
<!-- Node8 -->
<g id="node8" class="node">
<title>Node8</title>
<g id="a_node8"><a xlink:href="classCDPL_1_1Math_1_1QuaternionExpression.html" target="_top" xlink:title=" ">
<polygon fill="none" stroke="black" points="643,-23.5 643,-42.5 841,-42.5 841,-23.5 643,-23.5"/>
<text text-anchor="middle" x="742" y="-30.5" font-family="Helvetica" font-size="10.00">CDPL::Math::QuaternionExpression&lt; C &gt;</text>
</a>
</g>
</g>
<!-- Node6&#45;&gt;Node8 -->
<g id="edge11" class="edge">
<title>Node6&#45;&gt;Node8</title>
<path fill="none" stroke="orange" stroke-dasharray="5,2" d="M492.04,-40.58C499.13,-39.98 506.17,-39.44 513,-39 555.48,-36.24 602.48,-34.74 642.73,-33.93"/>
<polygon fill="orange" stroke="orange" points="491.3,-37.13 481.65,-41.49 491.92,-44.1 491.3,-37.13"/>
<text text-anchor="middle" x="569" y="-42" font-family="Helvetica" font-size="10.00"> &lt; C &gt;</text>
</g>
<!-- Node7 -->
<g id="node7" class="node">
<title>Node7</title>
<g id="a_node7"><a xlink:href="classCDPL_1_1Math_1_1QuaternionContainer.html" target="_top" xlink:title=" ">
<polygon fill="none" stroke="black" points="878,-27.5 878,-46.5 1069,-46.5 1069,-27.5 878,-27.5"/>
<text text-anchor="middle" x="973.5" y="-34.5" font-family="Helvetica" font-size="10.00">CDPL::Math::QuaternionContainer&lt; C &gt;</text>
</a>
</g>
</g>
<!-- Node7&#45;&gt;Node2 -->
<g id="edge7" class="edge">
<title>Node7&#45;&gt;Node2</title>
<path fill="none" stroke="orange" stroke-dasharray="5,2" d="M1079.22,-43.45C1123.8,-46.2 1175.04,-49.36 1216.82,-51.93"/>
<polygon fill="orange" stroke="orange" points="1079.43,-39.96 1069.23,-42.84 1079,-46.95 1079.43,-39.96"/>
<text text-anchor="middle" x="1143" y="-54" font-family="Helvetica" font-size="10.00"> &lt; RealQuaternion&lt; T &gt; &gt;</text>
</g>
<!-- Node8&#45;&gt;Node7 -->
<g id="edge8" class="edge">
<title>Node8&#45;&gt;Node7</title>
<path fill="none" stroke="midnightblue" d="M851.54,-34.89C860.26,-35.04 869.04,-35.2 877.65,-35.35"/>
<polygon fill="midnightblue" stroke="midnightblue" points="851.39,-31.39 841.33,-34.71 851.26,-38.39 851.39,-31.39"/>
</g>
<!-- Node9&#45;&gt;Node8 -->
<g id="edge9" class="edge">
<title>Node9&#45;&gt;Node8</title>
<path fill="none" stroke="midnightblue" d="M482.21,-15.67C530.82,-18.93 592.08,-23.03 642.8,-26.42"/>
<polygon fill="midnightblue" stroke="midnightblue" points="482.25,-12.17 472.03,-14.99 481.78,-19.15 482.25,-12.17"/>
</g>
</g>
</svg>
