<?xml version="1.0" encoding="UTF-8" standalone="no"?>
<!DOCTYPE svg PUBLIC "-//W3C//DTD SVG 1.1//EN"
 "http://www.w3.org/Graphics/SVG/1.1/DTD/svg11.dtd">
<!-- Generated by graphviz version 2.44.0 (0)
 -->
<!-- Title: CDPL::Math::UnitVector&lt; T &gt; Pages: 1 -->
<svg width="1434pt" height="120pt"
 viewBox="0.00 0.00 1434.00 119.50" xmlns="http://www.w3.org/2000/svg" xmlns:xlink="http://www.w3.org/1999/xlink">
<g id="graph0" class="graph" transform="scale(1 1) rotate(0) translate(4 115.5)">
<title>CDPL::Math::UnitVector&lt; T &gt;</title>
<!-- Node1 -->
<g id="node1" class="node">
<title>Node1</title>
<g id="a_node1"><a xlink:title=" ">
<polygon fill="#bfbfbf" stroke="black" points="1280,-47.5 1280,-66.5 1426,-66.5 1426,-47.5 1280,-47.5"/>
<text text-anchor="middle" x="1353" y="-54.5" font-family="Helvetica" font-size="10.00">CDPL::Math::UnitVector&lt; T &gt;</text>
</a>
</g>
</g>
<!-- Node2 -->
<g id="node2" class="node">
<title>Node2</title>
<g id="a_node2"><a xlink:href="classCDPL_1_1Math_1_1VectorContainer.html" target="_top" xlink:title=" ">
<polygon fill="none" stroke="black" points="1097,-42 1097,-72 1243,-72 1243,-42 1097,-42"/>
<text text-anchor="start" x="1105" y="-60" font-family="Helvetica" font-size="10.00">CDPL::Math::VectorContainer</text>
<text text-anchor="middle" x="1170" y="-49" font-family="Helvetica" font-size="10.00">&lt; UnitVector&lt; T &gt; &gt;</text>
</a>
</g>
</g>
<!-- Node2&#45;&gt;Node1 -->
<g id="edge1" class="edge">
<title>Node2&#45;&gt;Node1</title>
<path fill="none" stroke="midnightblue" d="M1253.09,-57C1262.03,-57 1271.09,-57 1279.9,-57"/>
<polygon fill="midnightblue" stroke="midnightblue" points="1253.06,-53.5 1243.06,-57 1253.06,-60.5 1253.06,-53.5"/>
</g>
<!-- Node3 -->
<g id="node3" class="node">
<title>Node3</title>
<g id="a_node3"><a xlink:href="classCDPL_1_1Math_1_1VectorExpression.html" target="_top" xlink:title=" ">
<polygon fill="none" stroke="black" points="595,-62 595,-92 748,-92 748,-62 595,-62"/>
<text text-anchor="start" x="603" y="-80" font-family="Helvetica" font-size="10.00">CDPL::Math::VectorExpression</text>
<text text-anchor="middle" x="671.5" y="-69" font-family="Helvetica" font-size="10.00">&lt; UnitVector&lt; T &gt; &gt;</text>
</a>
</g>
</g>
<!-- Node3&#45;&gt;Node2 -->
<g id="edge2" class="edge">
<title>Node3&#45;&gt;Node2</title>
<path fill="none" stroke="midnightblue" d="M758.24,-74.3C840.52,-71.6 968.28,-67.12 1079,-62 1084.78,-61.73 1090.78,-61.44 1096.8,-61.13"/>
<polygon fill="midnightblue" stroke="midnightblue" points="758.07,-70.8 748.19,-74.63 758.3,-77.8 758.07,-70.8"/>
</g>
<!-- Node4 -->
<g id="node4" class="node">
<title>Node4</title>
<g id="a_node4"><a xlink:href="classCDPL_1_1Math_1_1Expression.html" target="_top" xlink:title=" ">
<polygon fill="none" stroke="black" points="303.5,-81 303.5,-111 428.5,-111 428.5,-81 303.5,-81"/>
<text text-anchor="start" x="311.5" y="-99" font-family="Helvetica" font-size="10.00">CDPL::Math::Expression</text>
<text text-anchor="middle" x="366" y="-88" font-family="Helvetica" font-size="10.00">&lt; UnitVector&lt; T &gt; &gt;</text>
</a>
</g>
</g>
<!-- Node4&#45;&gt;Node3 -->
<g id="edge3" class="edge">
<title>Node4&#45;&gt;Node3</title>
<path fill="none" stroke="midnightblue" d="M438.95,-91.7C476.26,-89.45 522.58,-86.62 564,-84 573.99,-83.37 584.5,-82.69 594.87,-82.02"/>
<polygon fill="midnightblue" stroke="midnightblue" points="438.44,-88.22 428.67,-92.32 438.87,-95.21 438.44,-88.22"/>
</g>
<!-- Node5 -->
<g id="node5" class="node">
<title>Node5</title>
<g id="a_node5"><a xlink:href="classCDPL_1_1Math_1_1Expression.html" target="_top" xlink:title=" ">
<polygon fill="none" stroke="black" points="0,-41.5 0,-60.5 150,-60.5 150,-41.5 0,-41.5"/>
<text text-anchor="middle" x="75" y="-48.5" font-family="Helvetica" font-size="10.00">CDPL::Math::Expression&lt; E &gt;</text>
</a>
</g>
</g>
<!-- Node5&#45;&gt;Node4 -->
<g id="edge4" class="edge">
<title>Node5&#45;&gt;Node4</title>
<path fill="none" stroke="orange" stroke-dasharray="5,2" d="M147.27,-62.1C195.13,-69.55 257.57,-79.27 303.3,-86.39"/>
<polygon fill="orange" stroke="orange" points="147.71,-58.62 137.29,-60.54 146.63,-65.54 147.71,-58.62"/>
<text text-anchor="middle" x="213.5" y="-81" font-family="Helvetica" font-size="10.00"> &lt; UnitVector&lt; T &gt; &gt;</text>
</g>
<!-- Node6 -->
<g id="node6" class="node">
<title>Node6</title>
<g id="a_node6"><a xlink:href="classCDPL_1_1Math_1_1VectorExpression.html" target="_top" xlink:title=" ">
<polygon fill="none" stroke="black" points="277,-41.5 277,-60.5 455,-60.5 455,-41.5 277,-41.5"/>
<text text-anchor="middle" x="366" y="-48.5" font-family="Helvetica" font-size="10.00">CDPL::Math::VectorExpression&lt; E &gt;</text>
</a>
</g>
</g>
<!-- Node5&#45;&gt;Node6 -->
<g id="edge6" class="edge">
<title>Node5&#45;&gt;Node6</title>
<path fill="none" stroke="midnightblue" d="M160.2,-51C196.8,-51 239.69,-51 276.74,-51"/>
<polygon fill="midnightblue" stroke="midnightblue" points="160.05,-47.5 150.05,-51 160.05,-54.5 160.05,-47.5"/>
</g>
<!-- Node9 -->
<g id="node9" class="node">
<title>Node9</title>
<g id="a_node9"><a xlink:href="classCDPL_1_1Math_1_1Expression.html" target="_top" xlink:title=" ">
<polygon fill="none" stroke="black" points="290.5,-0.5 290.5,-19.5 441.5,-19.5 441.5,-0.5 290.5,-0.5"/>
<text text-anchor="middle" x="366" y="-7.5" font-family="Helvetica" font-size="10.00">CDPL::Math::Expression&lt; C &gt;</text>
</a>
</g>
</g>
<!-- Node5&#45;&gt;Node9 -->
<g id="edge10" class="edge">
<title>Node5&#45;&gt;Node9</title>
<path fill="none" stroke="orange" stroke-dasharray="5,2" d="M142.78,-39.87C151.26,-38.53 159.83,-37.2 168,-36 208.27,-30.06 253.27,-24.07 290.09,-19.34"/>
<polygon fill="orange" stroke="orange" points="142.21,-36.41 132.89,-41.45 143.31,-43.33 142.21,-36.41"/>
<text text-anchor="middle" x="213.5" y="-39" font-family="Helvetica" font-size="10.00"> &lt; C &gt;</text>
</g>
<!-- Node6&#45;&gt;Node3 -->
<g id="edge5" class="edge">
<title>Node6&#45;&gt;Node3</title>
<path fill="none" stroke="orange" stroke-dasharray="5,2" d="M465.19,-59.41C507.29,-63.02 555.71,-67.17 594.95,-70.53"/>
<polygon fill="orange" stroke="orange" points="465.45,-55.92 455.19,-58.56 464.86,-62.9 465.45,-55.92"/>
<text text-anchor="middle" x="518.5" y="-70" font-family="Helvetica" font-size="10.00"> &lt; UnitVector&lt; T &gt; &gt;</text>
</g>
<!-- Node8 -->
<g id="node8" class="node">
<title>Node8</title>
<g id="a_node8"><a xlink:href="classCDPL_1_1Math_1_1VectorExpression.html" target="_top" xlink:title=" ">
<polygon fill="none" stroke="black" points="582,-23.5 582,-42.5 761,-42.5 761,-23.5 582,-23.5"/>
<text text-anchor="middle" x="671.5" y="-30.5" font-family="Helvetica" font-size="10.00">CDPL::Math::VectorExpression&lt; C &gt;</text>
</a>
</g>
</g>
<!-- Node6&#45;&gt;Node8 -->
<g id="edge11" class="edge">
<title>Node6&#45;&gt;Node8</title>
<path fill="none" stroke="orange" stroke-dasharray="5,2" d="M454.85,-40.49C460.99,-39.93 467.08,-39.42 473,-39 508.58,-36.45 547.85,-34.98 581.94,-34.14"/>
<polygon fill="orange" stroke="orange" points="454.13,-37.04 444.51,-41.48 454.79,-44.01 454.13,-37.04"/>
<text text-anchor="middle" x="518.5" y="-42" font-family="Helvetica" font-size="10.00"> &lt; C &gt;</text>
</g>
<!-- Node7 -->
<g id="node7" class="node">
<title>Node7</title>
<g id="a_node7"><a xlink:href="classCDPL_1_1Math_1_1VectorContainer.html" target="_top" xlink:title=" ">
<polygon fill="none" stroke="black" points="798,-27.5 798,-46.5 970,-46.5 970,-27.5 798,-27.5"/>
<text text-anchor="middle" x="884" y="-34.5" font-family="Helvetica" font-size="10.00">CDPL::Math::VectorContainer&lt; C &gt;</text>
</a>
</g>
</g>
<!-- Node7&#45;&gt;Node2 -->
<g id="edge7" class="edge">
<title>Node7&#45;&gt;Node2</title>
<path fill="none" stroke="orange" stroke-dasharray="5,2" d="M980.28,-43.71C1018.33,-46.39 1061.41,-49.42 1096.8,-51.92"/>
<polygon fill="orange" stroke="orange" points="980.43,-40.21 970.21,-43 979.94,-47.19 980.43,-40.21"/>
<text text-anchor="middle" x="1033.5" y="-54" font-family="Helvetica" font-size="10.00"> &lt; UnitVector&lt; T &gt; &gt;</text>
</g>
<!-- Node8&#45;&gt;Node7 -->
<g id="edge8" class="edge">
<title>Node8&#45;&gt;Node7</title>
<path fill="none" stroke="midnightblue" d="M771.17,-34.87C780.07,-35.04 789.03,-35.21 797.8,-35.38"/>
<polygon fill="midnightblue" stroke="midnightblue" points="771.23,-31.38 761.16,-34.68 771.09,-38.37 771.23,-31.38"/>
</g>
<!-- Node9&#45;&gt;Node8 -->
<g id="edge9" class="edge">
<title>Node9&#45;&gt;Node8</title>
<path fill="none" stroke="midnightblue" d="M451.76,-16.42C492.3,-19.5 540.82,-23.17 581.85,-26.28"/>
<polygon fill="midnightblue" stroke="midnightblue" points="451.87,-12.92 441.63,-15.66 451.34,-19.9 451.87,-12.92"/>
</g>
</g>
</svg>
