<?xml version="1.0" encoding="UTF-8" standalone="no"?>
<!DOCTYPE svg PUBLIC "-//W3C//DTD SVG 1.1//EN"
 "http://www.w3.org/Graphics/SVG/1.1/DTD/svg11.dtd">
<!-- Generated by graphviz version 2.44.0 (0)
 -->
<!-- Title: CDPL::Vis::LinePrimitive2D Pages: 1 -->
<svg width="284pt" height="84pt"
 viewBox="0.00 0.00 284.00 84.00" xmlns="http://www.w3.org/2000/svg" xmlns:xlink="http://www.w3.org/1999/xlink">
<g id="graph0" class="graph" transform="scale(1 1) rotate(0) translate(4 80)">
<title>CDPL::Vis::LinePrimitive2D</title>
<!-- Node1 -->
<g id="node1" class="node">
<title>Node1</title>
<g id="a_node1"><a xlink:title="A graphics primitive representing a single line.">
<polygon fill="#bfbfbf" stroke="black" points="54.5,-0.5 54.5,-19.5 191.5,-19.5 191.5,-0.5 54.5,-0.5"/>
<text text-anchor="middle" x="123" y="-7.5" font-family="Helvetica" font-size="10.00">CDPL::Vis::LinePrimitive2D</text>
</a>
</g>
</g>
<!-- Node2 -->
<g id="node2" class="node">
<title>Node2</title>
<g id="a_node2"><a xlink:href="classCDPL_1_1Vis_1_1Line2D.html" target="_top" xlink:title="Specifies a line segment in 2D space.">
<polygon fill="none" stroke="black" points="0,-56.5 0,-75.5 100,-75.5 100,-56.5 0,-56.5"/>
<text text-anchor="middle" x="50" y="-63.5" font-family="Helvetica" font-size="10.00">CDPL::Vis::Line2D</text>
</a>
</g>
</g>
<!-- Node2&#45;&gt;Node1 -->
<g id="edge1" class="edge">
<title>Node2&#45;&gt;Node1</title>
<path fill="none" stroke="midnightblue" d="M70.14,-50.1C83.28,-40.38 99.98,-28.03 111.06,-19.83"/>
<polygon fill="midnightblue" stroke="midnightblue" points="67.69,-47.56 61.73,-56.32 71.85,-53.19 67.69,-47.56"/>
</g>
<!-- Node3 -->
<g id="node3" class="node">
<title>Node3</title>
<g id="a_node3"><a xlink:href="classCDPL_1_1Vis_1_1GraphicsPrimitive2D.html" target="_top" xlink:title="The abstract base class of all 2D graphics primitives.">
<polygon fill="none" stroke="black" points="118,-56.5 118,-75.5 276,-75.5 276,-56.5 118,-56.5"/>
<text text-anchor="middle" x="197" y="-63.5" font-family="Helvetica" font-size="10.00">CDPL::Vis::GraphicsPrimitive2D</text>
</a>
</g>
</g>
<!-- Node3&#45;&gt;Node1 -->
<g id="edge2" class="edge">
<title>Node3&#45;&gt;Node1</title>
<path fill="none" stroke="midnightblue" d="M176.97,-50.38C163.59,-40.62 146.44,-28.11 135.11,-19.83"/>
<polygon fill="midnightblue" stroke="midnightblue" points="174.97,-53.26 185.11,-56.32 179.1,-47.6 174.97,-53.26"/>
</g>
</g>
</svg>
