<?xml version="1.0" encoding="UTF-8" standalone="no"?>
<!DOCTYPE svg PUBLIC "-//W3C//DTD SVG 1.1//EN"
 "http://www.w3.org/Graphics/SVG/1.1/DTD/svg11.dtd">
<!-- Generated by graphviz version 2.44.0 (0)
 -->
<!-- Title: CDPL::Math::MatrixUnary&lt; E, F &gt; Pages: 1 -->
<svg width="328pt" height="252pt"
 viewBox="0.00 0.00 328.00 252.00" xmlns="http://www.w3.org/2000/svg" xmlns:xlink="http://www.w3.org/1999/xlink">
<g id="graph0" class="graph" transform="scale(1 1) rotate(0) translate(4 248)">
<title>CDPL::Math::MatrixUnary&lt; E, F &gt;</title>
<!-- Node1 -->
<g id="node1" class="node">
<title>Node1</title>
<g id="a_node1"><a xlink:title=" ">
<polygon fill="#bfbfbf" stroke="black" points="81,-0.5 81,-30.5 212,-30.5 212,-0.5 81,-0.5"/>
<text text-anchor="start" x="89" y="-18.5" font-family="Helvetica" font-size="10.00">CDPL::Math::MatrixUnary</text>
<text text-anchor="middle" x="146.5" y="-7.5" font-family="Helvetica" font-size="10.00">&lt; E, F &gt;</text>
</a>
</g>
</g>
<!-- Node2 -->
<g id="node2" class="node">
<title>Node2</title>
<g id="a_node2"><a xlink:href="classCDPL_1_1Math_1_1MatrixExpression.html" target="_top" xlink:title=" ">
<polygon fill="none" stroke="black" points="70.5,-68.5 70.5,-98.5 222.5,-98.5 222.5,-68.5 70.5,-68.5"/>
<text text-anchor="start" x="78.5" y="-86.5" font-family="Helvetica" font-size="10.00">CDPL::Math::MatrixExpression</text>
<text text-anchor="middle" x="146.5" y="-75.5" font-family="Helvetica" font-size="10.00">&lt; MatrixUnary&lt; E, F &gt; &gt;</text>
</a>
</g>
</g>
<!-- Node2&#45;&gt;Node1 -->
<g id="edge1" class="edge">
<title>Node2&#45;&gt;Node1</title>
<path fill="none" stroke="midnightblue" d="M146.5,-58.03C146.5,-48.86 146.5,-38.74 146.5,-30.79"/>
<polygon fill="midnightblue" stroke="midnightblue" points="143,-58.18 146.5,-68.18 150,-58.18 143,-58.18"/>
</g>
<!-- Node3 -->
<g id="node3" class="node">
<title>Node3</title>
<g id="a_node3"><a xlink:href="classCDPL_1_1Math_1_1Expression.html" target="_top" xlink:title=" ">
<polygon fill="none" stroke="black" points="0,-146.5 0,-176.5 125,-176.5 125,-146.5 0,-146.5"/>
<text text-anchor="start" x="8" y="-164.5" font-family="Helvetica" font-size="10.00">CDPL::Math::Expression</text>
<text text-anchor="middle" x="62.5" y="-153.5" font-family="Helvetica" font-size="10.00">&lt; MatrixUnary&lt; E, F &gt; &gt;</text>
</a>
</g>
</g>
<!-- Node3&#45;&gt;Node2 -->
<g id="edge2" class="edge">
<title>Node3&#45;&gt;Node2</title>
<path fill="none" stroke="midnightblue" d="M85.83,-139.39C100.15,-126.43 118.12,-110.18 130.77,-98.73"/>
<polygon fill="midnightblue" stroke="midnightblue" points="83.37,-136.9 78.3,-146.2 88.06,-142.09 83.37,-136.9"/>
</g>
<!-- Node4 -->
<g id="node4" class="node">
<title>Node4</title>
<g id="a_node4"><a xlink:href="classCDPL_1_1Math_1_1Expression.html" target="_top" xlink:title=" ">
<polygon fill="none" stroke="black" points="71.5,-224.5 71.5,-243.5 221.5,-243.5 221.5,-224.5 71.5,-224.5"/>
<text text-anchor="middle" x="146.5" y="-231.5" font-family="Helvetica" font-size="10.00">CDPL::Math::Expression&lt; E &gt;</text>
</a>
</g>
</g>
<!-- Node4&#45;&gt;Node3 -->
<g id="edge3" class="edge">
<title>Node4&#45;&gt;Node3</title>
<path fill="none" stroke="orange" stroke-dasharray="5,2" d="M115.75,-219.99C108.37,-216.09 100.8,-211.39 94.5,-206 84.81,-197.71 76.39,-185.95 70.62,-176.75"/>
<polygon fill="orange" stroke="orange" points="114.38,-223.21 124.9,-224.49 117.47,-216.93 114.38,-223.21"/>
<text text-anchor="middle" x="150.5" y="-198" font-family="Helvetica" font-size="10.00"> &lt; MatrixUnary&lt; E, F &gt; &gt;</text>
</g>
<!-- Node5 -->
<g id="node5" class="node">
<title>Node5</title>
<g id="a_node5"><a xlink:href="classCDPL_1_1Math_1_1MatrixExpression.html" target="_top" xlink:title=" ">
<polygon fill="none" stroke="black" points="143,-152 143,-171 320,-171 320,-152 143,-152"/>
<text text-anchor="middle" x="231.5" y="-159" font-family="Helvetica" font-size="10.00">CDPL::Math::MatrixExpression&lt; E &gt;</text>
</a>
</g>
</g>
<!-- Node4&#45;&gt;Node5 -->
<g id="edge5" class="edge">
<title>Node4&#45;&gt;Node5</title>
<path fill="none" stroke="midnightblue" d="M184.17,-220.4C192.12,-216.6 200.05,-211.84 206.5,-206 217.22,-196.29 224.55,-180.88 228.38,-171.25"/>
<polygon fill="midnightblue" stroke="midnightblue" points="182.69,-217.23 174.92,-224.43 185.48,-223.65 182.69,-217.23"/>
</g>
<!-- Node5&#45;&gt;Node2 -->
<g id="edge4" class="edge">
<title>Node5&#45;&gt;Node2</title>
<path fill="none" stroke="orange" stroke-dasharray="5,2" d="M214.06,-144.9C198.81,-131.27 176.88,-111.66 162.18,-98.52"/>
<polygon fill="orange" stroke="orange" points="211.96,-147.73 221.75,-151.78 216.63,-142.51 211.96,-147.73"/>
<text text-anchor="middle" x="249.5" y="-120" font-family="Helvetica" font-size="10.00"> &lt; MatrixUnary&lt; E, F &gt; &gt;</text>
</g>
</g>
</svg>
