<?xml version="1.0" encoding="UTF-8" standalone="no"?>
<!DOCTYPE svg PUBLIC "-//W3C//DTD SVG 1.1//EN"
 "http://www.w3.org/Graphics/SVG/1.1/DTD/svg11.dtd">
<!-- Generated by graphviz version 2.44.0 (0)
 -->
<!-- Title: CDPL::Vis::Renderer2D Pages: 1 -->
<svg width="300pt" height="84pt"
 viewBox="0.00 0.00 300.00 84.00" xmlns="http://www.w3.org/2000/svg" xmlns:xlink="http://www.w3.org/1999/xlink">
<g id="graph0" class="graph" transform="scale(1 1) rotate(0) translate(4 80)">
<title>CDPL::Vis::Renderer2D</title>
<!-- Node1 -->
<g id="node1" class="node">
<title>Node1</title>
<g id="a_node1"><a xlink:title="An interface that provides methods for low level 2D drawing operations.">
<polygon fill="#bfbfbf" stroke="black" points="88,-56.5 88,-75.5 209,-75.5 209,-56.5 88,-56.5"/>
<text text-anchor="middle" x="148.5" y="-63.5" font-family="Helvetica" font-size="10.00">CDPL::Vis::Renderer2D</text>
</a>
</g>
</g>
<!-- Node2 -->
<g id="node2" class="node">
<title>Node2</title>
<g id="a_node2"><a xlink:href="classCDPL_1_1Vis_1_1CairoRenderer2D.html" target="_top" xlink:title="Implements the Renderer2D interface on top of the Cairo 2D Graphics Library.">
<polygon fill="none" stroke="black" points="0,-0.5 0,-19.5 143,-19.5 143,-0.5 0,-0.5"/>
<text text-anchor="middle" x="71.5" y="-7.5" font-family="Helvetica" font-size="10.00">CDPL::Vis::CairoRenderer2D</text>
</a>
</g>
</g>
<!-- Node1&#45;&gt;Node2 -->
<g id="edge1" class="edge">
<title>Node1&#45;&gt;Node2</title>
<path fill="none" stroke="midnightblue" d="M127.6,-50.34C113.59,-40.52 95.62,-27.91 83.84,-19.65"/>
<polygon fill="midnightblue" stroke="midnightblue" points="125.93,-53.45 136.13,-56.32 129.95,-47.72 125.93,-53.45"/>
</g>
<!-- Node3 -->
<g id="node3" class="node">
<title>Node3</title>
<g id="a_node3"><a xlink:href="classCDPL_1_1Vis_1_1QtRenderer2D.html" target="_top" xlink:title="Implements the Renderer2D interface on top of the Qt Toolkit.">
<polygon fill="none" stroke="black" points="161,-0.5 161,-19.5 292,-19.5 292,-0.5 161,-0.5"/>
<text text-anchor="middle" x="226.5" y="-7.5" font-family="Helvetica" font-size="10.00">CDPL::Vis::QtRenderer2D</text>
</a>
</g>
</g>
<!-- Node1&#45;&gt;Node3 -->
<g id="edge2" class="edge">
<title>Node1&#45;&gt;Node3</title>
<path fill="none" stroke="midnightblue" d="M169.27,-50.62C183.52,-40.76 201.96,-27.99 214,-19.65"/>
<polygon fill="midnightblue" stroke="midnightblue" points="167.26,-47.75 161.03,-56.32 171.25,-53.51 167.26,-47.75"/>
</g>
</g>
</svg>
