<?xml version="1.0" encoding="UTF-8" standalone="no"?>
<!DOCTYPE svg PUBLIC "-//W3C//DTD SVG 1.1//EN"
 "http://www.w3.org/Graphics/SVG/1.1/DTD/svg11.dtd">
<!-- Generated by graphviz version 2.44.0 (0)
 -->
<!-- Title: CDPL::Math::QuaternionVectorAdapter&lt; Q &gt; Pages: 1 -->
<svg width="1008pt" height="88pt"
 viewBox="0.00 0.00 1008.00 88.00" xmlns="http://www.w3.org/2000/svg" xmlns:xlink="http://www.w3.org/1999/xlink">
<g id="graph0" class="graph" transform="scale(1 1) rotate(0) translate(4 84)">
<title>CDPL::Math::QuaternionVectorAdapter&lt; Q &gt;</title>
<!-- Node1 -->
<g id="node1" class="node">
<title>Node1</title>
<g id="a_node1"><a xlink:title=" ">
<polygon fill="#bfbfbf" stroke="black" points="848,-21 848,-51 1000,-51 1000,-21 848,-21"/>
<text text-anchor="start" x="856" y="-39" font-family="Helvetica" font-size="10.00">CDPL::Math::QuaternionVector</text>
<text text-anchor="middle" x="924" y="-28" font-family="Helvetica" font-size="10.00">Adapter&lt; Q &gt;</text>
</a>
</g>
</g>
<!-- Node2 -->
<g id="node2" class="node">
<title>Node2</title>
<g id="a_node2"><a xlink:href="classCDPL_1_1Math_1_1VectorExpression.html" target="_top" xlink:title=" ">
<polygon fill="none" stroke="black" points="642,-21 642,-51 811,-51 811,-21 642,-21"/>
<text text-anchor="start" x="650" y="-39" font-family="Helvetica" font-size="10.00">CDPL::Math::VectorExpression</text>
<text text-anchor="middle" x="726.5" y="-28" font-family="Helvetica" font-size="10.00">&lt; QuaternionVectorAdapter&lt; Q &gt; &gt;</text>
</a>
</g>
</g>
<!-- Node2&#45;&gt;Node1 -->
<g id="edge1" class="edge">
<title>Node2&#45;&gt;Node1</title>
<path fill="none" stroke="midnightblue" d="M821.54,-36C830.33,-36 839.16,-36 847.75,-36"/>
<polygon fill="midnightblue" stroke="midnightblue" points="821.26,-32.5 811.26,-36 821.26,-39.5 821.26,-32.5"/>
</g>
<!-- Node3 -->
<g id="node3" class="node">
<title>Node3</title>
<g id="a_node3"><a xlink:href="classCDPL_1_1Math_1_1Expression.html" target="_top" xlink:title=" ">
<polygon fill="none" stroke="black" points="329,-38.5 329,-79.5 463,-79.5 463,-38.5 329,-38.5"/>
<text text-anchor="start" x="337" y="-67.5" font-family="Helvetica" font-size="10.00">CDPL::Math::Expression</text>
<text text-anchor="start" x="337" y="-56.5" font-family="Helvetica" font-size="10.00">&lt; QuaternionVectorAdapter</text>
<text text-anchor="middle" x="396" y="-45.5" font-family="Helvetica" font-size="10.00">&lt; Q &gt; &gt;</text>
</a>
</g>
</g>
<!-- Node3&#45;&gt;Node2 -->
<g id="edge2" class="edge">
<title>Node3&#45;&gt;Node2</title>
<path fill="none" stroke="midnightblue" d="M473.29,-53.66C523.8,-50.12 590.06,-45.48 641.99,-41.85"/>
<polygon fill="midnightblue" stroke="midnightblue" points="472.81,-50.18 463.08,-54.37 473.3,-57.17 472.81,-50.18"/>
</g>
<!-- Node4 -->
<g id="node4" class="node">
<title>Node4</title>
<g id="a_node4"><a xlink:href="classCDPL_1_1Math_1_1Expression.html" target="_top" xlink:title=" ">
<polygon fill="none" stroke="black" points="0,-24.5 0,-43.5 150,-43.5 150,-24.5 0,-24.5"/>
<text text-anchor="middle" x="75" y="-31.5" font-family="Helvetica" font-size="10.00">CDPL::Math::Expression&lt; E &gt;</text>
</a>
</g>
</g>
<!-- Node4&#45;&gt;Node3 -->
<g id="edge3" class="edge">
<title>Node4&#45;&gt;Node3</title>
<path fill="none" stroke="orange" stroke-dasharray="5,2" d="M160.4,-40.61C213.12,-44.75 280.04,-49.99 328.9,-53.82"/>
<polygon fill="orange" stroke="orange" points="160.63,-37.12 150.39,-39.83 160.08,-44.1 160.63,-37.12"/>
<text text-anchor="start" x="168" y="-64" font-family="Helvetica" font-size="10.00"> &lt; QuaternionVectorAdapter</text>
<text text-anchor="middle" x="228.5" y="-53" font-family="Helvetica" font-size="10.00">&lt; Q &gt; &gt;</text>
</g>
<!-- Node5 -->
<g id="node5" class="node">
<title>Node5</title>
<g id="a_node5"><a xlink:href="classCDPL_1_1Math_1_1VectorExpression.html" target="_top" xlink:title=" ">
<polygon fill="none" stroke="black" points="307,-0.5 307,-19.5 485,-19.5 485,-0.5 307,-0.5"/>
<text text-anchor="middle" x="396" y="-7.5" font-family="Helvetica" font-size="10.00">CDPL::Math::VectorExpression&lt; E &gt;</text>
</a>
</g>
</g>
<!-- Node4&#45;&gt;Node5 -->
<g id="edge5" class="edge">
<title>Node4&#45;&gt;Node5</title>
<path fill="none" stroke="midnightblue" d="M160.45,-27.65C205.61,-24.25 261.17,-20.07 306.88,-16.63"/>
<polygon fill="midnightblue" stroke="midnightblue" points="160.1,-24.16 150.39,-28.4 160.62,-31.14 160.1,-24.16"/>
</g>
<!-- Node5&#45;&gt;Node2 -->
<g id="edge4" class="edge">
<title>Node5&#45;&gt;Node2</title>
<path fill="none" stroke="orange" stroke-dasharray="5,2" d="M495.11,-9.73C535.17,-10.47 581.9,-12.44 624,-17 633.36,-18.01 643.15,-19.41 652.79,-20.99"/>
<polygon fill="orange" stroke="orange" points="495.13,-6.23 485.07,-9.56 495.02,-13.23 495.13,-6.23"/>
<text text-anchor="start" x="503" y="-31" font-family="Helvetica" font-size="10.00"> &lt; QuaternionVectorAdapter</text>
<text text-anchor="middle" x="563.5" y="-20" font-family="Helvetica" font-size="10.00">&lt; Q &gt; &gt;</text>
</g>
</g>
</svg>
