<?xml version="1.0" encoding="UTF-8" standalone="no"?>
<!DOCTYPE svg PUBLIC "-//W3C//DTD SVG 1.1//EN"
 "http://www.w3.org/Graphics/SVG/1.1/DTD/svg11.dtd">
<!-- Generated by graphviz version 2.44.0 (0)
 -->
<!-- Title: CDPL::Util::CompressedIOStream&lt; CompAlgo, CharT, TraitsT &gt; Pages: 1 -->
<svg width="1077pt" height="137pt"
 viewBox="0.00 0.00 1077.00 137.00" xmlns="http://www.w3.org/2000/svg" xmlns:xlink="http://www.w3.org/1999/xlink">
<g id="graph0" class="graph" transform="scale(1 1) rotate(0) translate(4 133)">
<title>CDPL::Util::CompressedIOStream&lt; CompAlgo, CharT, TraitsT &gt;</title>
<!-- Node1 -->
<g id="node1" class="node">
<title>Node1</title>
<g id="a_node1"><a xlink:title=" ">
<polygon fill="#bfbfbf" stroke="black" points="902,-27.5 902,-57.5 1069,-57.5 1069,-27.5 902,-27.5"/>
<text text-anchor="start" x="910" y="-45.5" font-family="Helvetica" font-size="10.00">CDPL::Util::CompressedIOStream</text>
<text text-anchor="middle" x="985.5" y="-34.5" font-family="Helvetica" font-size="10.00">&lt; CompAlgo, CharT, TraitsT &gt;</text>
</a>
</g>
</g>
<!-- Node2 -->
<g id="node2" class="node">
<title>Node2</title>
<g id="a_node2"><a xlink:href="classCDPL_1_1Util_1_1CompressionStreamBase.html" target="_top" xlink:title=" ">
<polygon fill="none" stroke="black" points="706,-16.5 706,-68.5 865,-68.5 865,-16.5 706,-16.5"/>
<text text-anchor="start" x="714" y="-56.5" font-family="Helvetica" font-size="10.00">CDPL::Util::CompressionStream</text>
<text text-anchor="start" x="714" y="-45.5" font-family="Helvetica" font-size="10.00">Base&lt; CompAlgo, std::basic</text>
<text text-anchor="start" x="714" y="-34.5" font-family="Helvetica" font-size="10.00">_iostream&lt; char, std::char</text>
<text text-anchor="middle" x="785.5" y="-23.5" font-family="Helvetica" font-size="10.00">_traits&lt; char &gt; &gt; &gt;</text>
</a>
</g>
</g>
<!-- Node2&#45;&gt;Node1 -->
<g id="edge1" class="edge">
<title>Node2&#45;&gt;Node1</title>
<path fill="none" stroke="midnightblue" d="M875.33,-42.5C884.15,-42.5 893.08,-42.5 901.83,-42.5"/>
<polygon fill="midnightblue" stroke="midnightblue" points="875.04,-39 865.04,-42.5 875.04,-46 875.04,-39"/>
</g>
<!-- Node3 -->
<g id="node3" class="node">
<title>Node3</title>
<g id="a_node3"><a xlink:title="STL class.">
<polygon fill="none" stroke="#bfbfbf" points="424.5,-50 424.5,-91 540.5,-91 540.5,-50 424.5,-50"/>
<text text-anchor="start" x="432.5" y="-79" font-family="Helvetica" font-size="10.00">std::basic_iostream</text>
<text text-anchor="start" x="432.5" y="-68" font-family="Helvetica" font-size="10.00">&lt; char, std::char_traits</text>
<text text-anchor="middle" x="482.5" y="-57" font-family="Helvetica" font-size="10.00">&lt; char &gt; &gt;</text>
</a>
</g>
</g>
<!-- Node3&#45;&gt;Node2 -->
<g id="edge2" class="edge">
<title>Node3&#45;&gt;Node2</title>
<path fill="none" stroke="midnightblue" d="M551,-66C590.89,-63.14 642.37,-59.12 688,-54.5 693.79,-53.91 699.78,-53.27 705.8,-52.59"/>
<polygon fill="midnightblue" stroke="midnightblue" points="550.59,-62.52 540.86,-66.72 551.08,-69.5 550.59,-62.52"/>
</g>
<!-- Node4 -->
<g id="node4" class="node">
<title>Node4</title>
<g id="a_node4"><a xlink:title="STL class.">
<polygon fill="none" stroke="#bfbfbf" points="266.5,-98.5 266.5,-128.5 363.5,-128.5 363.5,-98.5 266.5,-98.5"/>
<text text-anchor="start" x="274.5" y="-116.5" font-family="Helvetica" font-size="10.00">std::basic_istream</text>
<text text-anchor="middle" x="315" y="-105.5" font-family="Helvetica" font-size="10.00">&lt; Char &gt;</text>
</a>
</g>
</g>
<!-- Node4&#45;&gt;Node3 -->
<g id="edge3" class="edge">
<title>Node4&#45;&gt;Node3</title>
<path fill="none" stroke="midnightblue" d="M373.85,-98.47C390.23,-94.21 408.04,-89.59 424.37,-85.34"/>
<polygon fill="midnightblue" stroke="midnightblue" points="372.67,-95.16 363.87,-101.06 374.43,-101.94 372.67,-95.16"/>
</g>
<!-- Node5 -->
<g id="node5" class="node">
<title>Node5</title>
<g id="a_node5"><a xlink:title="STL class.">
<polygon fill="none" stroke="#bfbfbf" points="112,-79 112,-98 228,-98 228,-79 112,-79"/>
<text text-anchor="middle" x="170" y="-86" font-family="Helvetica" font-size="10.00">std::basic_ios&lt; Char &gt;</text>
</a>
</g>
</g>
<!-- Node5&#45;&gt;Node4 -->
<g id="edge4" class="edge">
<title>Node5&#45;&gt;Node4</title>
<path fill="none" stroke="midnightblue" d="M235.34,-99.75C245.73,-101.56 256.32,-103.42 266.23,-105.15"/>
<polygon fill="midnightblue" stroke="midnightblue" points="235.92,-96.3 225.47,-98.02 234.72,-103.19 235.92,-96.3"/>
</g>
<!-- Node7 -->
<g id="node7" class="node">
<title>Node7</title>
<g id="a_node7"><a xlink:title="STL class.">
<polygon fill="none" stroke="#bfbfbf" points="265,-49.5 265,-79.5 365,-79.5 365,-49.5 265,-49.5"/>
<text text-anchor="start" x="273" y="-67.5" font-family="Helvetica" font-size="10.00">std::basic_ostream</text>
<text text-anchor="middle" x="315" y="-56.5" font-family="Helvetica" font-size="10.00">&lt; Char &gt;</text>
</a>
</g>
</g>
<!-- Node5&#45;&gt;Node7 -->
<g id="edge7" class="edge">
<title>Node5&#45;&gt;Node7</title>
<path fill="none" stroke="midnightblue" d="M238,-77.26C246.98,-75.75 256.05,-74.23 264.65,-72.78"/>
<polygon fill="midnightblue" stroke="midnightblue" points="237.21,-73.84 227.93,-78.95 238.37,-80.74 237.21,-73.84"/>
</g>
<!-- Node6 -->
<g id="node6" class="node">
<title>Node6</title>
<g id="a_node6"><a xlink:title="STL class.">
<polygon fill="none" stroke="#bfbfbf" points="0,-79 0,-98 75,-98 75,-79 0,-79"/>
<text text-anchor="middle" x="37.5" y="-86" font-family="Helvetica" font-size="10.00">std::ios_base</text>
</a>
</g>
</g>
<!-- Node6&#45;&gt;Node5 -->
<g id="edge5" class="edge">
<title>Node6&#45;&gt;Node5</title>
<path fill="none" stroke="midnightblue" d="M85.32,-88.5C93.84,-88.5 102.81,-88.5 111.59,-88.5"/>
<polygon fill="midnightblue" stroke="midnightblue" points="85.2,-85 75.2,-88.5 85.2,-92 85.2,-85"/>
</g>
<!-- Node7&#45;&gt;Node3 -->
<g id="edge6" class="edge">
<title>Node7&#45;&gt;Node3</title>
<path fill="none" stroke="midnightblue" d="M375.46,-66.66C391.37,-67.23 408.54,-67.86 424.33,-68.43"/>
<polygon fill="midnightblue" stroke="midnightblue" points="375.33,-63.15 365.21,-66.28 375.07,-70.14 375.33,-63.15"/>
</g>
<!-- Node8 -->
<g id="node8" class="node">
<title>Node8</title>
<g id="a_node8"><a xlink:href="classCDPL_1_1Util_1_1CompressionStreamBase.html" target="_top" xlink:title=" ">
<polygon fill="none" stroke="black" points="402,-0.5 402,-30.5 563,-30.5 563,-0.5 402,-0.5"/>
<text text-anchor="start" x="410" y="-18.5" font-family="Helvetica" font-size="10.00">CDPL::Util::CompressionStream</text>
<text text-anchor="middle" x="482.5" y="-7.5" font-family="Helvetica" font-size="10.00">Base&lt; CompAlgo, StreamType &gt;</text>
</a>
</g>
</g>
<!-- Node8&#45;&gt;Node2 -->
<g id="edge8" class="edge">
<title>Node8&#45;&gt;Node2</title>
<path fill="none" stroke="orange" stroke-dasharray="5,2" d="M573.79,-14.56C609.48,-15.12 650.78,-16.94 688,-21.5 693.87,-22.22 699.91,-23.13 705.97,-24.16"/>
<polygon fill="orange" stroke="orange" points="573.44,-11.06 563.39,-14.43 573.35,-18.06 573.44,-11.06"/>
<text text-anchor="start" x="581" y="-46.5" font-family="Helvetica" font-size="10.00"> &lt; CompAlgo, std::basic</text>
<text text-anchor="start" x="581" y="-35.5" font-family="Helvetica" font-size="10.00">_iostream&lt; char, std::</text>
<text text-anchor="middle" x="634.5" y="-24.5" font-family="Helvetica" font-size="10.00">char_traits&lt; char &gt; &gt; &gt;</text>
</g>
<!-- Node9 -->
<g id="node9" class="node">
<title>Node9</title>
<g id="a_node9"><a xlink:title=" ">
<polygon fill="none" stroke="#bfbfbf" points="280.5,-6 280.5,-25 349.5,-25 349.5,-6 280.5,-6"/>
<text text-anchor="middle" x="315" y="-13" font-family="Helvetica" font-size="10.00">StreamType</text>
</a>
</g>
</g>
<!-- Node9&#45;&gt;Node8 -->
<g id="edge9" class="edge">
<title>Node9&#45;&gt;Node8</title>
<path fill="none" stroke="midnightblue" d="M360.27,-15.5C373.12,-15.5 387.56,-15.5 401.87,-15.5"/>
<polygon fill="midnightblue" stroke="midnightblue" points="359.89,-12 349.89,-15.5 359.89,-19 359.89,-12"/>
</g>
</g>
</svg>
