<?xml version="1.0" encoding="UTF-8" standalone="no"?>
<!DOCTYPE svg PUBLIC "-//W3C//DTD SVG 1.1//EN"
 "http://www.w3.org/Graphics/SVG/1.1/DTD/svg11.dtd">
<!-- Generated by graphviz version 2.44.0 (0)
 -->
<!-- Title: CDPL::Math::MatrixRange&lt; M &gt; Pages: 1 -->
<svg width="328pt" height="241pt"
 viewBox="0.00 0.00 328.00 241.00" xmlns="http://www.w3.org/2000/svg" xmlns:xlink="http://www.w3.org/1999/xlink">
<g id="graph0" class="graph" transform="scale(1 1) rotate(0) translate(4 237)">
<title>CDPL::Math::MatrixRange&lt; M &gt;</title>
<!-- Node1 -->
<g id="node1" class="node">
<title>Node1</title>
<g id="a_node1"><a xlink:title=" ">
<polygon fill="#bfbfbf" stroke="black" points="67.5,-0.5 67.5,-19.5 225.5,-19.5 225.5,-0.5 67.5,-0.5"/>
<text text-anchor="middle" x="146.5" y="-7.5" font-family="Helvetica" font-size="10.00">CDPL::Math::MatrixRange&lt; M &gt;</text>
</a>
</g>
</g>
<!-- Node2 -->
<g id="node2" class="node">
<title>Node2</title>
<g id="a_node2"><a xlink:href="classCDPL_1_1Math_1_1MatrixExpression.html" target="_top" xlink:title=" ">
<polygon fill="none" stroke="black" points="70.5,-57.5 70.5,-87.5 222.5,-87.5 222.5,-57.5 70.5,-57.5"/>
<text text-anchor="start" x="78.5" y="-75.5" font-family="Helvetica" font-size="10.00">CDPL::Math::MatrixExpression</text>
<text text-anchor="middle" x="146.5" y="-64.5" font-family="Helvetica" font-size="10.00">&lt; MatrixRange&lt; M &gt; &gt;</text>
</a>
</g>
</g>
<!-- Node2&#45;&gt;Node1 -->
<g id="edge1" class="edge">
<title>Node2&#45;&gt;Node1</title>
<path fill="none" stroke="midnightblue" d="M146.5,-47.35C146.5,-37.51 146.5,-26.78 146.5,-19.54"/>
<polygon fill="midnightblue" stroke="midnightblue" points="143,-47.47 146.5,-57.47 150,-47.47 143,-47.47"/>
</g>
<!-- Node3 -->
<g id="node3" class="node">
<title>Node3</title>
<g id="a_node3"><a xlink:href="classCDPL_1_1Math_1_1Expression.html" target="_top" xlink:title=" ">
<polygon fill="none" stroke="black" points="0,-135.5 0,-165.5 125,-165.5 125,-135.5 0,-135.5"/>
<text text-anchor="start" x="8" y="-153.5" font-family="Helvetica" font-size="10.00">CDPL::Math::Expression</text>
<text text-anchor="middle" x="62.5" y="-142.5" font-family="Helvetica" font-size="10.00">&lt; MatrixRange&lt; M &gt; &gt;</text>
</a>
</g>
</g>
<!-- Node3&#45;&gt;Node2 -->
<g id="edge2" class="edge">
<title>Node3&#45;&gt;Node2</title>
<path fill="none" stroke="midnightblue" d="M85.83,-128.39C100.15,-115.43 118.12,-99.18 130.77,-87.73"/>
<polygon fill="midnightblue" stroke="midnightblue" points="83.37,-125.9 78.3,-135.2 88.06,-131.09 83.37,-125.9"/>
</g>
<!-- Node4 -->
<g id="node4" class="node">
<title>Node4</title>
<g id="a_node4"><a xlink:href="classCDPL_1_1Math_1_1Expression.html" target="_top" xlink:title=" ">
<polygon fill="none" stroke="black" points="71.5,-213.5 71.5,-232.5 221.5,-232.5 221.5,-213.5 71.5,-213.5"/>
<text text-anchor="middle" x="146.5" y="-220.5" font-family="Helvetica" font-size="10.00">CDPL::Math::Expression&lt; E &gt;</text>
</a>
</g>
</g>
<!-- Node4&#45;&gt;Node3 -->
<g id="edge3" class="edge">
<title>Node4&#45;&gt;Node3</title>
<path fill="none" stroke="orange" stroke-dasharray="5,2" d="M120.37,-208.12C113.94,-204.23 107.26,-199.75 101.5,-195 91.02,-186.35 80.82,-174.83 73.49,-165.83"/>
<polygon fill="orange" stroke="orange" points="119.05,-211.4 129.46,-213.37 122.55,-205.34 119.05,-211.4"/>
<text text-anchor="middle" x="153" y="-187" font-family="Helvetica" font-size="10.00"> &lt; MatrixRange&lt; M &gt; &gt;</text>
</g>
<!-- Node5 -->
<g id="node5" class="node">
<title>Node5</title>
<g id="a_node5"><a xlink:href="classCDPL_1_1Math_1_1MatrixExpression.html" target="_top" xlink:title=" ">
<polygon fill="none" stroke="black" points="143,-141 143,-160 320,-160 320,-141 143,-141"/>
<text text-anchor="middle" x="231.5" y="-148" font-family="Helvetica" font-size="10.00">CDPL::Math::MatrixExpression&lt; E &gt;</text>
</a>
</g>
</g>
<!-- Node4&#45;&gt;Node5 -->
<g id="edge5" class="edge">
<title>Node4&#45;&gt;Node5</title>
<path fill="none" stroke="midnightblue" d="M182.12,-209.38C190.03,-205.54 197.99,-200.77 204.5,-195 215.54,-185.21 223.61,-169.83 227.93,-160.22"/>
<polygon fill="midnightblue" stroke="midnightblue" points="180.66,-206.2 172.95,-213.46 183.51,-212.59 180.66,-206.2"/>
</g>
<!-- Node5&#45;&gt;Node2 -->
<g id="edge4" class="edge">
<title>Node5&#45;&gt;Node2</title>
<path fill="none" stroke="orange" stroke-dasharray="5,2" d="M214.06,-133.9C198.81,-120.27 176.88,-100.66 162.18,-87.52"/>
<polygon fill="orange" stroke="orange" points="211.96,-136.73 221.75,-140.78 216.63,-131.51 211.96,-136.73"/>
<text text-anchor="middle" x="245" y="-109" font-family="Helvetica" font-size="10.00"> &lt; MatrixRange&lt; M &gt; &gt;</text>
</g>
</g>
</svg>
