<?xml version="1.0" encoding="UTF-8" standalone="no"?>
<!DOCTYPE svg PUBLIC "-//W3C//DTD SVG 1.1//EN"
 "http://www.w3.org/Graphics/SVG/1.1/DTD/svg11.dtd">
<!-- Generated by graphviz version 2.44.0 (0)
 -->
<!-- Title: CDPL::Math::VectorUnary&lt; E, F &gt; Pages: 1 -->
<svg width="330pt" height="252pt"
 viewBox="0.00 0.00 330.00 252.00" xmlns="http://www.w3.org/2000/svg" xmlns:xlink="http://www.w3.org/1999/xlink">
<g id="graph0" class="graph" transform="scale(1 1) rotate(0) translate(4 248)">
<title>CDPL::Math::VectorUnary&lt; E, F &gt;</title>
<!-- Node1 -->
<g id="node1" class="node">
<title>Node1</title>
<g id="a_node1"><a xlink:title=" ">
<polygon fill="#bfbfbf" stroke="black" points="81.5,-0.5 81.5,-30.5 212.5,-30.5 212.5,-0.5 81.5,-0.5"/>
<text text-anchor="start" x="89.5" y="-18.5" font-family="Helvetica" font-size="10.00">CDPL::Math::VectorUnary</text>
<text text-anchor="middle" x="147" y="-7.5" font-family="Helvetica" font-size="10.00">&lt; E, F &gt;</text>
</a>
</g>
</g>
<!-- Node2 -->
<g id="node2" class="node">
<title>Node2</title>
<g id="a_node2"><a xlink:href="classCDPL_1_1Math_1_1VectorExpression.html" target="_top" xlink:title=" ">
<polygon fill="none" stroke="black" points="70.5,-68.5 70.5,-98.5 223.5,-98.5 223.5,-68.5 70.5,-68.5"/>
<text text-anchor="start" x="78.5" y="-86.5" font-family="Helvetica" font-size="10.00">CDPL::Math::VectorExpression</text>
<text text-anchor="middle" x="147" y="-75.5" font-family="Helvetica" font-size="10.00">&lt; VectorUnary&lt; E, F &gt; &gt;</text>
</a>
</g>
</g>
<!-- Node2&#45;&gt;Node1 -->
<g id="edge1" class="edge">
<title>Node2&#45;&gt;Node1</title>
<path fill="none" stroke="midnightblue" d="M147,-58.03C147,-48.86 147,-38.74 147,-30.79"/>
<polygon fill="midnightblue" stroke="midnightblue" points="143.5,-58.18 147,-68.18 150.5,-58.18 143.5,-58.18"/>
</g>
<!-- Node3 -->
<g id="node3" class="node">
<title>Node3</title>
<g id="a_node3"><a xlink:href="classCDPL_1_1Math_1_1Expression.html" target="_top" xlink:title=" ">
<polygon fill="none" stroke="black" points="0,-146.5 0,-176.5 126,-176.5 126,-146.5 0,-146.5"/>
<text text-anchor="start" x="8" y="-164.5" font-family="Helvetica" font-size="10.00">CDPL::Math::Expression</text>
<text text-anchor="middle" x="63" y="-153.5" font-family="Helvetica" font-size="10.00">&lt; VectorUnary&lt; E, F &gt; &gt;</text>
</a>
</g>
</g>
<!-- Node3&#45;&gt;Node2 -->
<g id="edge2" class="edge">
<title>Node3&#45;&gt;Node2</title>
<path fill="none" stroke="midnightblue" d="M86.33,-139.39C100.65,-126.43 118.62,-110.18 131.27,-98.73"/>
<polygon fill="midnightblue" stroke="midnightblue" points="83.87,-136.9 78.8,-146.2 88.56,-142.09 83.87,-136.9"/>
</g>
<!-- Node4 -->
<g id="node4" class="node">
<title>Node4</title>
<g id="a_node4"><a xlink:href="classCDPL_1_1Math_1_1Expression.html" target="_top" xlink:title=" ">
<polygon fill="none" stroke="black" points="73,-224.5 73,-243.5 223,-243.5 223,-224.5 73,-224.5"/>
<text text-anchor="middle" x="148" y="-231.5" font-family="Helvetica" font-size="10.00">CDPL::Math::Expression&lt; E &gt;</text>
</a>
</g>
</g>
<!-- Node4&#45;&gt;Node3 -->
<g id="edge3" class="edge">
<title>Node4&#45;&gt;Node3</title>
<path fill="none" stroke="orange" stroke-dasharray="5,2" d="M116.46,-219.97C109,-216.09 101.37,-211.4 95,-206 85.28,-197.75 76.86,-185.99 71.09,-176.77"/>
<polygon fill="orange" stroke="orange" points="115.19,-223.24 125.72,-224.44 118.24,-216.94 115.19,-223.24"/>
<text text-anchor="middle" x="151.5" y="-198" font-family="Helvetica" font-size="10.00"> &lt; VectorUnary&lt; E, F &gt; &gt;</text>
</g>
<!-- Node5 -->
<g id="node5" class="node">
<title>Node5</title>
<g id="a_node5"><a xlink:href="classCDPL_1_1Math_1_1VectorExpression.html" target="_top" xlink:title=" ">
<polygon fill="none" stroke="black" points="144,-152 144,-171 322,-171 322,-152 144,-152"/>
<text text-anchor="middle" x="233" y="-159" font-family="Helvetica" font-size="10.00">CDPL::Math::VectorExpression&lt; E &gt;</text>
</a>
</g>
</g>
<!-- Node4&#45;&gt;Node5 -->
<g id="edge5" class="edge">
<title>Node4&#45;&gt;Node5</title>
<path fill="none" stroke="midnightblue" d="M185.67,-220.4C193.62,-216.6 201.55,-211.84 208,-206 218.72,-196.29 226.05,-180.88 229.88,-171.25"/>
<polygon fill="midnightblue" stroke="midnightblue" points="184.19,-217.23 176.42,-224.43 186.98,-223.65 184.19,-217.23"/>
</g>
<!-- Node5&#45;&gt;Node2 -->
<g id="edge4" class="edge">
<title>Node5&#45;&gt;Node2</title>
<path fill="none" stroke="orange" stroke-dasharray="5,2" d="M215.35,-144.9C199.93,-131.27 177.74,-111.66 162.86,-98.52"/>
<polygon fill="orange" stroke="orange" points="213.32,-147.78 223.13,-151.78 217.96,-142.54 213.32,-147.78"/>
<text text-anchor="middle" x="251.5" y="-120" font-family="Helvetica" font-size="10.00"> &lt; VectorUnary&lt; E, F &gt; &gt;</text>
</g>
</g>
</svg>
