<?xml version="1.0" encoding="UTF-8" standalone="no"?>
<!DOCTYPE svg PUBLIC "-//W3C//DTD SVG 1.1//EN"
 "http://www.w3.org/Graphics/SVG/1.1/DTD/svg11.dtd">
<!-- Generated by graphviz version 2.44.0 (0)
 -->
<!-- Title: CDPL::Vis::LineSegmentListPrimitive2D Pages: 1 -->
<svg width="312pt" height="151pt"
 viewBox="0.00 0.00 312.00 151.00" xmlns="http://www.w3.org/2000/svg" xmlns:xlink="http://www.w3.org/1999/xlink">
<g id="graph0" class="graph" transform="scale(1 1) rotate(0) translate(4 147)">
<title>CDPL::Vis::LineSegmentListPrimitive2D</title>
<!-- Node1 -->
<g id="node1" class="node">
<title>Node1</title>
<g id="a_node1"><a xlink:title="A graphics primitive representing a list of disjoint line segments.">
<polygon fill="#bfbfbf" stroke="black" points="73,-0.5 73,-30.5 215,-30.5 215,-0.5 73,-0.5"/>
<text text-anchor="start" x="81" y="-18.5" font-family="Helvetica" font-size="10.00">CDPL::Vis::LineSegmentList</text>
<text text-anchor="middle" x="144" y="-7.5" font-family="Helvetica" font-size="10.00">Primitive2D</text>
</a>
</g>
</g>
<!-- Node2 -->
<g id="node2" class="node">
<title>Node2</title>
<g id="a_node2"><a xlink:href="classCDPL_1_1Vis_1_1PointArray2D.html" target="_top" xlink:title="Stores a set of points in 2D space.">
<polygon fill="none" stroke="black" points="0,-67.5 0,-86.5 128,-86.5 128,-67.5 0,-67.5"/>
<text text-anchor="middle" x="64" y="-74.5" font-family="Helvetica" font-size="10.00">CDPL::Vis::PointArray2D</text>
</a>
</g>
</g>
<!-- Node2&#45;&gt;Node1 -->
<g id="edge1" class="edge">
<title>Node2&#45;&gt;Node1</title>
<path fill="none" stroke="midnightblue" d="M83.54,-61.47C96.21,-52.05 112.62,-39.84 125.15,-30.52"/>
<polygon fill="midnightblue" stroke="midnightblue" points="81.4,-58.7 75.46,-67.48 85.57,-64.32 81.4,-58.7"/>
</g>
<!-- Node3 -->
<g id="node3" class="node">
<title>Node3</title>
<g id="a_node3"><a xlink:title=" ">
<polygon fill="none" stroke="#bfbfbf" points="10.5,-123.5 10.5,-142.5 117.5,-142.5 117.5,-123.5 10.5,-123.5"/>
<text text-anchor="middle" x="64" y="-130.5" font-family="Helvetica" font-size="10.00">Math::Vector2DArray</text>
</a>
</g>
</g>
<!-- Node3&#45;&gt;Node2 -->
<g id="edge2" class="edge">
<title>Node3&#45;&gt;Node2</title>
<path fill="none" stroke="midnightblue" d="M64,-112.8C64,-103.91 64,-93.78 64,-86.75"/>
<polygon fill="midnightblue" stroke="midnightblue" points="60.5,-113.08 64,-123.08 67.5,-113.08 60.5,-113.08"/>
</g>
<!-- Node4 -->
<g id="node4" class="node">
<title>Node4</title>
<g id="a_node4"><a xlink:href="classCDPL_1_1Vis_1_1GraphicsPrimitive2D.html" target="_top" xlink:title="The abstract base class of all 2D graphics primitives.">
<polygon fill="none" stroke="black" points="146,-67.5 146,-86.5 304,-86.5 304,-67.5 146,-67.5"/>
<text text-anchor="middle" x="225" y="-74.5" font-family="Helvetica" font-size="10.00">CDPL::Vis::GraphicsPrimitive2D</text>
</a>
</g>
</g>
<!-- Node4&#45;&gt;Node1 -->
<g id="edge3" class="edge">
<title>Node4&#45;&gt;Node1</title>
<path fill="none" stroke="midnightblue" d="M205.22,-61.47C192.39,-52.05 175.77,-39.84 163.09,-30.52"/>
<polygon fill="midnightblue" stroke="midnightblue" points="203.26,-64.38 213.39,-67.48 207.41,-58.73 203.26,-64.38"/>
</g>
</g>
</svg>
