<?xml version="1.0" encoding="UTF-8" standalone="no"?>
<!DOCTYPE svg PUBLIC "-//W3C//DTD SVG 1.1//EN"
 "http://www.w3.org/Graphics/SVG/1.1/DTD/svg11.dtd">
<!-- Generated by graphviz version 2.40.1 (0)
 -->
<!-- Title: CDPL::Vis::GraphicsPrimitive2D Pages: 1 -->
<svg width="387pt" height="344pt"
 viewBox="0.00 0.00 387.00 344.00" xmlns="http://www.w3.org/2000/svg" xmlns:xlink="http://www.w3.org/1999/xlink">
<g id="graph0" class="graph" transform="scale(1 1) rotate(0) translate(4 340)">
<title>CDPL::Vis::GraphicsPrimitive2D</title>
<!-- Node1 -->
<g id="node1" class="node">
<title>Node1</title>
<g id="a_node1"><a xlink:title="The abstract base class of all 2D graphics primitives.">
<polygon fill="#bfbfbf" stroke="#000000" points="0,-152.5 0,-171.5 170,-171.5 170,-152.5 0,-152.5"/>
<text text-anchor="middle" x="85" y="-159.5" font-family="Helvetica,sans-Serif" font-size="10.00" fill="#000000">CDPL::Vis::GraphicsPrimitive2D</text>
</a>
</g>
</g>
<!-- Node2 -->
<g id="node2" class="node">
<title>Node2</title>
<g id="a_node2"><a xlink:href="classCDPL_1_1Vis_1_1ClipPathPrimitive2D.html" target="_top" xlink:title="A graphics primitive representing a clipping region in 2D space.">
<polygon fill="none" stroke="#000000" points="209,-316.5 209,-335.5 376,-335.5 376,-316.5 209,-316.5"/>
<text text-anchor="middle" x="292.5" y="-323.5" font-family="Helvetica,sans-Serif" font-size="10.00" fill="#000000">CDPL::Vis::ClipPathPrimitive2D</text>
</a>
</g>
</g>
<!-- Node1&#45;&gt;Node2 -->
<g id="edge1" class="edge">
<title>Node1&#45;&gt;Node2</title>
<path fill="none" stroke="#191970" d="M95.014,-180.6406C112.8901,-212.0119 153.4031,-275.0558 206,-307 212.4393,-310.9109 219.5827,-314.0207 226.9246,-316.4929"/>
<polygon fill="#191970" stroke="#191970" points="97.9343,-178.6901 90.0188,-171.6476 91.8149,-182.0891 97.9343,-178.6901"/>
</g>
<!-- Node3 -->
<g id="node3" class="node">
<title>Node3</title>
<g id="a_node3"><a xlink:href="classCDPL_1_1Vis_1_1EllipsePrimitive2D.html" target="_top" xlink:title="A graphics primitive representing a ellipse.">
<polygon fill="none" stroke="#000000" points="213,-278.5 213,-297.5 372,-297.5 372,-278.5 213,-278.5"/>
<text text-anchor="middle" x="292.5" y="-285.5" font-family="Helvetica,sans-Serif" font-size="10.00" fill="#000000">CDPL::Vis::EllipsePrimitive2D</text>
</a>
</g>
</g>
<!-- Node1&#45;&gt;Node3 -->
<g id="edge2" class="edge">
<title>Node1&#45;&gt;Node3</title>
<path fill="none" stroke="#191970" d="M99.4564,-179.4444C120.379,-203.4847 161.4974,-246.386 206,-269 213.676,-272.9006 222.1329,-276.0038 230.6618,-278.4719"/>
<polygon fill="#191970" stroke="#191970" points="102.0795,-177.1263 92.9256,-171.7918 96.7548,-181.6704 102.0795,-177.1263"/>
</g>
<!-- Node4 -->
<g id="node4" class="node">
<title>Node4</title>
<g id="a_node4"><a xlink:href="classCDPL_1_1Vis_1_1LinePrimitive2D.html" target="_top" xlink:title="A graphics primitive representing a single line.">
<polygon fill="none" stroke="#000000" points="219,-240.5 219,-259.5 366,-259.5 366,-240.5 219,-240.5"/>
<text text-anchor="middle" x="292.5" y="-247.5" font-family="Helvetica,sans-Serif" font-size="10.00" fill="#000000">CDPL::Vis::LinePrimitive2D</text>
</a>
</g>
</g>
<!-- Node1&#45;&gt;Node4 -->
<g id="edge3" class="edge">
<title>Node1&#45;&gt;Node4</title>
<path fill="none" stroke="#191970" d="M106.982,-177.2613C130.4848,-192.9103 169.3378,-216.8965 206,-231 215.9016,-234.809 226.7496,-237.9451 237.3145,-240.4942"/>
<polygon fill="#191970" stroke="#191970" points="108.7203,-174.2118 98.475,-171.5128 104.801,-180.0118 108.7203,-174.2118"/>
</g>
<!-- Node5 -->
<g id="node5" class="node">
<title>Node5</title>
<g id="a_node5"><a xlink:href="classCDPL_1_1Vis_1_1LineSegmentListPrimitive2D.html" target="_top" xlink:title="A graphics primitive representing a list of disjoint line segments.">
<polygon fill="none" stroke="#000000" points="217.5,-191 217.5,-221 367.5,-221 367.5,-191 217.5,-191"/>
<text text-anchor="start" x="225.5" y="-209" font-family="Helvetica,sans-Serif" font-size="10.00" fill="#000000">CDPL::Vis::LineSegmentList</text>
<text text-anchor="middle" x="292.5" y="-198" font-family="Helvetica,sans-Serif" font-size="10.00" fill="#000000">Primitive2D</text>
</a>
</g>
</g>
<!-- Node1&#45;&gt;Node5 -->
<g id="edge4" class="edge">
<title>Node1&#45;&gt;Node5</title>
<path fill="none" stroke="#191970" d="M140.0431,-173.6718C165.0032,-178.9645 194.8285,-185.2889 221.4531,-190.9346"/>
<polygon fill="#191970" stroke="#191970" points="140.533,-170.1979 130.0244,-171.5473 139.0808,-177.0457 140.533,-170.1979"/>
</g>
<!-- Node6 -->
<g id="node6" class="node">
<title>Node6</title>
<g id="a_node6"><a xlink:href="classCDPL_1_1Vis_1_1PathPrimitive2D.html" target="_top" xlink:title="A graphics primitive representing an arbitrary path in 2D space.">
<polygon fill="none" stroke="#000000" points="218.5,-152.5 218.5,-171.5 366.5,-171.5 366.5,-152.5 218.5,-152.5"/>
<text text-anchor="middle" x="292.5" y="-159.5" font-family="Helvetica,sans-Serif" font-size="10.00" fill="#000000">CDPL::Vis::PathPrimitive2D</text>
</a>
</g>
</g>
<!-- Node1&#45;&gt;Node6 -->
<g id="edge5" class="edge">
<title>Node1&#45;&gt;Node6</title>
<path fill="none" stroke="#191970" d="M180.4774,-162C193.2356,-162 206.1617,-162 218.4774,-162"/>
<polygon fill="#191970" stroke="#191970" points="180.2965,-158.5001 170.2965,-162 180.2964,-165.5001 180.2965,-158.5001"/>
</g>
<!-- Node7 -->
<g id="node7" class="node">
<title>Node7</title>
<g id="a_node7"><a xlink:href="classCDPL_1_1Vis_1_1PointListPrimitive2D.html" target="_top" xlink:title="A graphics primitive representing a list of points.">
<polygon fill="none" stroke="#000000" points="208,-114.5 208,-133.5 377,-133.5 377,-114.5 208,-114.5"/>
<text text-anchor="middle" x="292.5" y="-121.5" font-family="Helvetica,sans-Serif" font-size="10.00" fill="#000000">CDPL::Vis::PointListPrimitive2D</text>
</a>
</g>
</g>
<!-- Node1&#45;&gt;Node7 -->
<g id="edge6" class="edge">
<title>Node1&#45;&gt;Node7</title>
<path fill="none" stroke="#191970" d="M146.9603,-150.653C176.7318,-145.2009 212.0154,-138.7393 240.3854,-133.5439"/>
<polygon fill="#191970" stroke="#191970" points="146.2991,-147.2158 137.0932,-152.46 147.5601,-154.1013 146.2991,-147.2158"/>
</g>
<!-- Node8 -->
<g id="node8" class="node">
<title>Node8</title>
<g id="a_node8"><a xlink:href="classCDPL_1_1Vis_1_1PolygonPrimitive2D.html" target="_top" xlink:title="A graphics primitive representing a polygon.">
<polygon fill="none" stroke="#000000" points="209.5,-76.5 209.5,-95.5 375.5,-95.5 375.5,-76.5 209.5,-76.5"/>
<text text-anchor="middle" x="292.5" y="-83.5" font-family="Helvetica,sans-Serif" font-size="10.00" fill="#000000">CDPL::Vis::PolygonPrimitive2D</text>
</a>
</g>
</g>
<!-- Node1&#45;&gt;Node8 -->
<g id="edge7" class="edge">
<title>Node1&#45;&gt;Node8</title>
<path fill="none" stroke="#191970" d="M110.9679,-147.6765C135.0015,-134.9304 172.0404,-116.5649 206,-105 216.7704,-101.3322 228.5418,-98.1972 239.8356,-95.5935"/>
<polygon fill="#191970" stroke="#191970" points="109.2765,-144.6119 102.122,-152.4262 112.5881,-150.7791 109.2765,-144.6119"/>
</g>
<!-- Node9 -->
<g id="node9" class="node">
<title>Node9</title>
<g id="a_node9"><a xlink:href="classCDPL_1_1Vis_1_1PolylinePrimitive2D.html" target="_top" xlink:title="A graphics primitive representing a set of connected line segments.">
<polygon fill="none" stroke="#000000" points="209.5,-38.5 209.5,-57.5 375.5,-57.5 375.5,-38.5 209.5,-38.5"/>
<text text-anchor="middle" x="292.5" y="-45.5" font-family="Helvetica,sans-Serif" font-size="10.00" fill="#000000">CDPL::Vis::PolylinePrimitive2D</text>
</a>
</g>
</g>
<!-- Node1&#45;&gt;Node9 -->
<g id="edge8" class="edge">
<title>Node1&#45;&gt;Node9</title>
<path fill="none" stroke="#191970" d="M101.1437,-145.3158C122.9135,-123.8307 163.8368,-86.8966 206,-67 214.2039,-63.1286 223.2208,-60.0325 232.2403,-57.5599"/>
<polygon fill="#191970" stroke="#191970" points="98.5953,-142.9147 94.023,-152.4722 103.5574,-147.8521 98.5953,-142.9147"/>
</g>
<!-- Node10 -->
<g id="node10" class="node">
<title>Node10</title>
<g id="a_node10"><a xlink:href="classCDPL_1_1Vis_1_1TextLabelPrimitive2D.html" target="_top" xlink:title="A graphics primitive representing a text label.">
<polygon fill="none" stroke="#000000" points="206,-.5 206,-19.5 379,-19.5 379,-.5 206,-.5"/>
<text text-anchor="middle" x="292.5" y="-7.5" font-family="Helvetica,sans-Serif" font-size="10.00" fill="#000000">CDPL::Vis::TextLabelPrimitive2D</text>
</a>
</g>
</g>
<!-- Node1&#45;&gt;Node10 -->
<g id="edge9" class="edge">
<title>Node1&#45;&gt;Node10</title>
<path fill="none" stroke="#191970" d="M96.1998,-143.6932C115.0468,-114.5439 155.9894,-57.9279 206,-29 212.6546,-25.1507 220.0095,-22.0803 227.5372,-19.6313"/>
<polygon fill="#191970" stroke="#191970" points="93.0529,-142.1216 90.6741,-152.446 98.972,-145.8585 93.0529,-142.1216"/>
</g>
</g>
</svg>
