<?xml version="1.0" encoding="UTF-8" standalone="no"?>
<!DOCTYPE svg PUBLIC "-//W3C//DTD SVG 1.1//EN"
 "http://www.w3.org/Graphics/SVG/1.1/DTD/svg11.dtd">
<!-- Generated by graphviz version 2.44.0 (0)
 -->
<!-- Title: CDPL::Math::VectorMatrixUnary&lt; E, F &gt; Pages: 1 -->
<svg width="916pt" height="88pt"
 viewBox="0.00 0.00 916.00 88.00" xmlns="http://www.w3.org/2000/svg" xmlns:xlink="http://www.w3.org/1999/xlink">
<g id="graph0" class="graph" transform="scale(1 1) rotate(0) translate(4 84)">
<title>CDPL::Math::VectorMatrixUnary&lt; E, F &gt;</title>
<!-- Node1 -->
<g id="node1" class="node">
<title>Node1</title>
<g id="a_node1"><a xlink:title=" ">
<polygon fill="#bfbfbf" stroke="black" points="777,-21 777,-51 908,-51 908,-21 777,-21"/>
<text text-anchor="start" x="785" y="-39" font-family="Helvetica" font-size="10.00">CDPL::Math::VectorMatrix</text>
<text text-anchor="middle" x="842.5" y="-28" font-family="Helvetica" font-size="10.00">Unary&lt; E, F &gt;</text>
</a>
</g>
</g>
<!-- Node2 -->
<g id="node2" class="node">
<title>Node2</title>
<g id="a_node2"><a xlink:href="classCDPL_1_1Math_1_1MatrixExpression.html" target="_top" xlink:title=" ">
<polygon fill="none" stroke="black" points="587,-21 587,-51 740,-51 740,-21 587,-21"/>
<text text-anchor="start" x="595" y="-39" font-family="Helvetica" font-size="10.00">CDPL::Math::MatrixExpression</text>
<text text-anchor="middle" x="663.5" y="-28" font-family="Helvetica" font-size="10.00">&lt; VectorMatrixUnary&lt; E, F &gt; &gt;</text>
</a>
</g>
</g>
<!-- Node2&#45;&gt;Node1 -->
<g id="edge1" class="edge">
<title>Node2&#45;&gt;Node1</title>
<path fill="none" stroke="midnightblue" d="M750.15,-36C759.11,-36 768.1,-36 776.77,-36"/>
<polygon fill="midnightblue" stroke="midnightblue" points="750.08,-32.5 740.08,-36 750.08,-39.5 750.08,-32.5"/>
</g>
<!-- Node3 -->
<g id="node3" class="node">
<title>Node3</title>
<g id="a_node3"><a xlink:href="classCDPL_1_1Math_1_1Expression.html" target="_top" xlink:title=" ">
<polygon fill="none" stroke="black" points="305.5,-38.5 305.5,-79.5 431.5,-79.5 431.5,-38.5 305.5,-38.5"/>
<text text-anchor="start" x="313.5" y="-67.5" font-family="Helvetica" font-size="10.00">CDPL::Math::Expression</text>
<text text-anchor="start" x="313.5" y="-56.5" font-family="Helvetica" font-size="10.00">&lt; VectorMatrixUnary&lt; E,</text>
<text text-anchor="middle" x="368.5" y="-45.5" font-family="Helvetica" font-size="10.00"> F &gt; &gt;</text>
</a>
</g>
</g>
<!-- Node3&#45;&gt;Node2 -->
<g id="edge2" class="edge">
<title>Node3&#45;&gt;Node2</title>
<path fill="none" stroke="midnightblue" d="M441.72,-53.33C485.84,-49.87 542.2,-45.44 586.93,-41.93"/>
<polygon fill="midnightblue" stroke="midnightblue" points="441.33,-49.85 431.64,-54.12 441.88,-56.83 441.33,-49.85"/>
</g>
<!-- Node4 -->
<g id="node4" class="node">
<title>Node4</title>
<g id="a_node4"><a xlink:href="classCDPL_1_1Math_1_1Expression.html" target="_top" xlink:title=" ">
<polygon fill="none" stroke="black" points="0,-24.5 0,-43.5 150,-43.5 150,-24.5 0,-24.5"/>
<text text-anchor="middle" x="75" y="-31.5" font-family="Helvetica" font-size="10.00">CDPL::Math::Expression&lt; E &gt;</text>
</a>
</g>
</g>
<!-- Node4&#45;&gt;Node3 -->
<g id="edge3" class="edge">
<title>Node4&#45;&gt;Node3</title>
<path fill="none" stroke="orange" stroke-dasharray="5,2" d="M160.32,-41.23C206.56,-45.2 262.9,-50.03 305.15,-53.65"/>
<polygon fill="orange" stroke="orange" points="160.57,-37.74 150.31,-40.37 159.98,-44.72 160.57,-37.74"/>
<text text-anchor="start" x="168" y="-63" font-family="Helvetica" font-size="10.00"> &lt; VectorMatrixUnary</text>
<text text-anchor="middle" x="215" y="-52" font-family="Helvetica" font-size="10.00">&lt; E, F &gt; &gt;</text>
</g>
<!-- Node5 -->
<g id="node5" class="node">
<title>Node5</title>
<g id="a_node5"><a xlink:href="classCDPL_1_1Math_1_1MatrixExpression.html" target="_top" xlink:title=" ">
<polygon fill="none" stroke="black" points="280,-0.5 280,-19.5 457,-19.5 457,-0.5 280,-0.5"/>
<text text-anchor="middle" x="368.5" y="-7.5" font-family="Helvetica" font-size="10.00">CDPL::Math::MatrixExpression&lt; E &gt;</text>
</a>
</g>
</g>
<!-- Node4&#45;&gt;Node5 -->
<g id="edge5" class="edge">
<title>Node4&#45;&gt;Node5</title>
<path fill="none" stroke="midnightblue" d="M160.68,-27.03C198.11,-23.95 242.09,-20.33 279.85,-17.22"/>
<polygon fill="midnightblue" stroke="midnightblue" points="159.99,-23.57 150.31,-27.88 160.57,-30.55 159.99,-23.57"/>
</g>
<!-- Node5&#45;&gt;Node2 -->
<g id="edge4" class="edge">
<title>Node5&#45;&gt;Node2</title>
<path fill="none" stroke="orange" stroke-dasharray="5,2" d="M467.52,-10.21C499.91,-11.14 536.08,-13.1 569,-17 577.55,-18.01 586.49,-19.4 595.3,-20.96"/>
<polygon fill="orange" stroke="orange" points="467.23,-6.71 457.14,-9.95 467.05,-13.7 467.23,-6.71"/>
<text text-anchor="start" x="475" y="-31" font-family="Helvetica" font-size="10.00"> &lt; VectorMatrixUnary</text>
<text text-anchor="middle" x="522" y="-20" font-family="Helvetica" font-size="10.00">&lt; E, F &gt; &gt;</text>
</g>
</g>
</svg>
