<?xml version="1.0" encoding="UTF-8" standalone="no"?>
<!DOCTYPE svg PUBLIC "-//W3C//DTD SVG 1.1//EN"
 "http://www.w3.org/Graphics/SVG/1.1/DTD/svg11.dtd">
<!-- Generated by graphviz version 2.44.0 (0)
 -->
<!-- Title: CDPL::Math::QuaternionContainer&lt; C &gt; Pages: 1 -->
<svg width="1401pt" height="88pt"
 viewBox="0.00 0.00 1401.00 88.00" xmlns="http://www.w3.org/2000/svg" xmlns:xlink="http://www.w3.org/1999/xlink">
<g id="graph0" class="graph" transform="scale(1 1) rotate(0) translate(4 84)">
<title>CDPL::Math::QuaternionContainer&lt; C &gt;</title>
<!-- Node1 -->
<g id="node1" class="node">
<title>Node1</title>
<g id="a_node1"><a xlink:title=" ">
<polygon fill="#bfbfbf" stroke="black" points="684,-30 684,-49 875,-49 875,-30 684,-30"/>
<text text-anchor="middle" x="779.5" y="-37" font-family="Helvetica" font-size="10.00">CDPL::Math::QuaternionContainer&lt; C &gt;</text>
</a>
</g>
</g>
<!-- Node5 -->
<g id="node5" class="node">
<title>Node5</title>
<g id="a_node5"><a xlink:href="classCDPL_1_1Math_1_1QuaternionContainer.html" target="_top" xlink:title=" ">
<polygon fill="none" stroke="black" points="1023,-49.5 1023,-79.5 1189,-79.5 1189,-49.5 1023,-49.5"/>
<text text-anchor="start" x="1031" y="-67.5" font-family="Helvetica" font-size="10.00">CDPL::Math::QuaternionContainer</text>
<text text-anchor="middle" x="1106" y="-56.5" font-family="Helvetica" font-size="10.00">&lt; Quaternion&lt; T &gt; &gt;</text>
</a>
</g>
</g>
<!-- Node1&#45;&gt;Node5 -->
<g id="edge5" class="edge">
<title>Node1&#45;&gt;Node5</title>
<path fill="none" stroke="orange" stroke-dasharray="5,2" d="M885.22,-47.57C929.8,-51 981.04,-54.95 1022.82,-58.17"/>
<polygon fill="orange" stroke="orange" points="885.47,-44.08 875.23,-46.8 884.93,-51.06 885.47,-44.08"/>
<text text-anchor="middle" x="949" y="-58.5" font-family="Helvetica" font-size="10.00"> &lt; Quaternion&lt; T &gt; &gt;</text>
</g>
<!-- Node7 -->
<g id="node7" class="node">
<title>Node7</title>
<g id="a_node7"><a xlink:href="classCDPL_1_1Math_1_1QuaternionContainer.html" target="_top" xlink:title=" ">
<polygon fill="none" stroke="black" points="1023,-0.5 1023,-30.5 1189,-30.5 1189,-0.5 1023,-0.5"/>
<text text-anchor="start" x="1031" y="-18.5" font-family="Helvetica" font-size="10.00">CDPL::Math::QuaternionContainer</text>
<text text-anchor="middle" x="1106" y="-7.5" font-family="Helvetica" font-size="10.00">&lt; RealQuaternion&lt; T &gt; &gt;</text>
</a>
</g>
</g>
<!-- Node1&#45;&gt;Node7 -->
<g id="edge7" class="edge">
<title>Node1&#45;&gt;Node7</title>
<path fill="none" stroke="orange" stroke-dasharray="5,2" d="M875.51,-29.03C881.43,-28.48 887.29,-27.97 893,-27.5 935.8,-24.01 983.56,-21.21 1022.88,-19.2"/>
<polygon fill="orange" stroke="orange" points="875.16,-25.55 865.53,-29.98 875.82,-32.51 875.16,-25.55"/>
<text text-anchor="middle" x="949" y="-30.5" font-family="Helvetica" font-size="10.00"> &lt; RealQuaternion&lt; T &gt; &gt;</text>
</g>
<!-- Node2 -->
<g id="node2" class="node">
<title>Node2</title>
<g id="a_node2"><a xlink:href="classCDPL_1_1Math_1_1QuaternionExpression.html" target="_top" xlink:title=" ">
<polygon fill="none" stroke="black" points="449,-30 449,-49 647,-49 647,-30 449,-30"/>
<text text-anchor="middle" x="548" y="-37" font-family="Helvetica" font-size="10.00">CDPL::Math::QuaternionExpression&lt; C &gt;</text>
</a>
</g>
</g>
<!-- Node2&#45;&gt;Node1 -->
<g id="edge1" class="edge">
<title>Node2&#45;&gt;Node1</title>
<path fill="none" stroke="midnightblue" d="M657.54,-39.5C666.26,-39.5 675.04,-39.5 683.65,-39.5"/>
<polygon fill="midnightblue" stroke="midnightblue" points="657.33,-36 647.33,-39.5 657.33,-43 657.33,-36"/>
</g>
<!-- Node3 -->
<g id="node3" class="node">
<title>Node3</title>
<g id="a_node3"><a xlink:href="classCDPL_1_1Math_1_1Expression.html" target="_top" xlink:title=" ">
<polygon fill="none" stroke="black" points="0,-27 0,-46 150,-46 150,-27 0,-27"/>
<text text-anchor="middle" x="75" y="-34" font-family="Helvetica" font-size="10.00">CDPL::Math::Expression&lt; E &gt;</text>
</a>
</g>
</g>
<!-- Node3&#45;&gt;Node2 -->
<g id="edge2" class="edge">
<title>Node3&#45;&gt;Node2</title>
<path fill="none" stroke="midnightblue" d="M160.34,-41.26C162.92,-41.35 165.48,-41.43 168,-41.5 263.37,-44.09 372.3,-43.1 448.82,-41.76"/>
<polygon fill="midnightblue" stroke="midnightblue" points="160.43,-37.77 150.3,-40.88 160.16,-44.76 160.43,-37.77"/>
</g>
<!-- Node4 -->
<g id="node4" class="node">
<title>Node4</title>
<g id="a_node4"><a xlink:href="classCDPL_1_1Math_1_1QuaternionExpression.html" target="_top" xlink:title=" ">
<polygon fill="none" stroke="black" points="187,-8 187,-27 384,-27 384,-8 187,-8"/>
<text text-anchor="middle" x="285.5" y="-15" font-family="Helvetica" font-size="10.00">CDPL::Math::QuaternionExpression&lt; E &gt;</text>
</a>
</g>
</g>
<!-- Node3&#45;&gt;Node4 -->
<g id="edge4" class="edge">
<title>Node3&#45;&gt;Node4</title>
<path fill="none" stroke="midnightblue" d="M160.29,-28.82C169.07,-28.02 178.04,-27.2 186.94,-26.39"/>
<polygon fill="midnightblue" stroke="midnightblue" points="159.74,-25.35 150.1,-29.75 160.37,-32.33 159.74,-25.35"/>
</g>
<!-- Node4&#45;&gt;Node2 -->
<g id="edge3" class="edge">
<title>Node4&#45;&gt;Node2</title>
<path fill="none" stroke="orange" stroke-dasharray="5,2" d="M394.45,-26.62C412.43,-28.14 430.99,-29.7 448.71,-31.2"/>
<polygon fill="orange" stroke="orange" points="394.5,-23.11 384.24,-25.75 393.91,-30.08 394.5,-23.11"/>
<text text-anchor="middle" x="416.5" y="-31.5" font-family="Helvetica" font-size="10.00"> &lt; C &gt;</text>
</g>
<!-- Node6 -->
<g id="node6" class="node">
<title>Node6</title>
<g id="a_node6"><a xlink:href="classCDPL_1_1Math_1_1Quaternion.html" target="_top" xlink:title=" ">
<polygon fill="none" stroke="black" points="1235.5,-55 1235.5,-74 1383.5,-74 1383.5,-55 1235.5,-55"/>
<text text-anchor="middle" x="1309.5" y="-62" font-family="Helvetica" font-size="10.00">CDPL::Math::Quaternion&lt; T &gt;</text>
</a>
</g>
</g>
<!-- Node5&#45;&gt;Node6 -->
<g id="edge6" class="edge">
<title>Node5&#45;&gt;Node6</title>
<path fill="none" stroke="midnightblue" d="M1199.32,-64.5C1211.36,-64.5 1223.57,-64.5 1235.25,-64.5"/>
<polygon fill="midnightblue" stroke="midnightblue" points="1199.25,-61 1189.25,-64.5 1199.25,-68 1199.25,-61"/>
</g>
<!-- Node8 -->
<g id="node8" class="node">
<title>Node8</title>
<g id="a_node8"><a xlink:href="classCDPL_1_1Math_1_1RealQuaternion.html" target="_top" xlink:title=" ">
<polygon fill="none" stroke="black" points="1226,-6 1226,-25 1393,-25 1393,-6 1226,-6"/>
<text text-anchor="middle" x="1309.5" y="-13" font-family="Helvetica" font-size="10.00">CDPL::Math::RealQuaternion&lt; T &gt;</text>
</a>
</g>
</g>
<!-- Node7&#45;&gt;Node8 -->
<g id="edge8" class="edge">
<title>Node7&#45;&gt;Node8</title>
<path fill="none" stroke="midnightblue" d="M1199.51,-15.5C1208.3,-15.5 1217.17,-15.5 1225.86,-15.5"/>
<polygon fill="midnightblue" stroke="midnightblue" points="1199.25,-12 1189.25,-15.5 1199.25,-19 1199.25,-12"/>
</g>
</g>
</svg>
