<?xml version="1.0" encoding="UTF-8" standalone="no"?>
<!DOCTYPE svg PUBLIC "-//W3C//DTD SVG 1.1//EN"
 "http://www.w3.org/Graphics/SVG/1.1/DTD/svg11.dtd">
<!-- Generated by graphviz version 2.44.0 (0)
 -->
<!-- Title: CDPL::Vis::FeatureContainerObject3DFactory Pages: 1 -->
<svg width="276pt" height="242pt"
 viewBox="0.00 0.00 276.00 242.00" xmlns="http://www.w3.org/2000/svg" xmlns:xlink="http://www.w3.org/1999/xlink">
<g id="graph0" class="graph" transform="scale(1 1) rotate(0) translate(4 238)">
<title>CDPL::Vis::FeatureContainerObject3DFactory</title>
<!-- Node1 -->
<g id="node1" class="node">
<title>Node1</title>
<g id="a_node1"><a xlink:title="Class implementing the creation of Vis::Object3D instances for the Pharm::FeatureContainer data objec...">
<polygon fill="#bfbfbf" stroke="black" points="9,-0.5 9,-30.5 153,-30.5 153,-0.5 9,-0.5"/>
<text text-anchor="start" x="17" y="-18.5" font-family="Helvetica" font-size="10.00">CDPL::Vis::FeatureContainer</text>
<text text-anchor="middle" x="81" y="-7.5" font-family="Helvetica" font-size="10.00">Object3DFactory</text>
</a>
</g>
</g>
<!-- Node2 -->
<g id="node2" class="node">
<title>Node2</title>
<g id="a_node2"><a xlink:href="classCDPL_1_1Vis_1_1Object3DFactory.html" target="_top" xlink:title=" ">
<polygon fill="none" stroke="black" points="9,-68.5 9,-98.5 153,-98.5 153,-68.5 9,-68.5"/>
<text text-anchor="start" x="17" y="-86.5" font-family="Helvetica" font-size="10.00">CDPL::Vis::Object3DFactory</text>
<text text-anchor="middle" x="81" y="-75.5" font-family="Helvetica" font-size="10.00">&lt; Pharm::FeatureContainer &gt;</text>
</a>
</g>
</g>
<!-- Node2&#45;&gt;Node1 -->
<g id="edge1" class="edge">
<title>Node2&#45;&gt;Node1</title>
<path fill="none" stroke="midnightblue" d="M81,-58.03C81,-48.86 81,-38.74 81,-30.79"/>
<polygon fill="midnightblue" stroke="midnightblue" points="77.5,-58.18 81,-68.18 84.5,-58.18 77.5,-58.18"/>
</g>
<!-- Node3 -->
<g id="node3" class="node">
<title>Node3</title>
<g id="a_node3"><a xlink:href="classCDPL_1_1Base_1_1ControlParameterContainer.html" target="_top" xlink:title="A class providing methods for the storage and lookup of control&#45;parameter values.">
<polygon fill="none" stroke="black" points="0,-203.5 0,-233.5 154,-233.5 154,-203.5 0,-203.5"/>
<text text-anchor="start" x="8" y="-221.5" font-family="Helvetica" font-size="10.00">CDPL::Base::ControlParameter</text>
<text text-anchor="middle" x="77" y="-210.5" font-family="Helvetica" font-size="10.00">Container</text>
</a>
</g>
</g>
<!-- Node3&#45;&gt;Node2 -->
<g id="edge2" class="edge">
<title>Node3&#45;&gt;Node2</title>
<path fill="none" stroke="midnightblue" d="M77.73,-193.21C78.56,-165.51 79.9,-121.16 80.58,-98.63"/>
<polygon fill="midnightblue" stroke="midnightblue" points="74.23,-193.17 77.43,-203.27 81.23,-193.38 74.23,-193.17"/>
</g>
<!-- Node4 -->
<g id="node4" class="node">
<title>Node4</title>
<g id="a_node4"><a xlink:href="classCDPL_1_1Vis_1_1Object3DFactory.html" target="_top" xlink:title="The abstract base of classes implementing the creation of Vis::Object3D instances for the 3D visualiz...">
<polygon fill="none" stroke="black" points="93,-146.5 93,-165.5 261,-165.5 261,-146.5 93,-146.5"/>
<text text-anchor="middle" x="177" y="-153.5" font-family="Helvetica" font-size="10.00">CDPL::Vis::Object3DFactory&lt; T &gt;</text>
</a>
</g>
</g>
<!-- Node3&#45;&gt;Node4 -->
<g id="edge4" class="edge">
<title>Node3&#45;&gt;Node4</title>
<path fill="none" stroke="midnightblue" d="M108.77,-198.28C126.97,-187.27 148.89,-174.01 162.88,-165.54"/>
<polygon fill="midnightblue" stroke="midnightblue" points="106.94,-195.3 100.19,-203.47 110.56,-201.29 106.94,-195.3"/>
</g>
<!-- Node4&#45;&gt;Node2 -->
<g id="edge3" class="edge">
<title>Node4&#45;&gt;Node2</title>
<path fill="none" stroke="orange" stroke-dasharray="5,2" d="M156.75,-140.13C140.06,-127.87 116.55,-110.61 100.17,-98.58"/>
<polygon fill="orange" stroke="orange" points="155.1,-143.26 165.23,-146.36 159.24,-137.62 155.1,-143.26"/>
<text text-anchor="middle" x="202.5" y="-120" font-family="Helvetica" font-size="10.00"> &lt; Pharm::FeatureContainer &gt;</text>
</g>
</g>
</svg>
