<?xml version="1.0" encoding="UTF-8" standalone="no"?>
<!DOCTYPE svg PUBLIC "-//W3C//DTD SVG 1.1//EN"
 "http://www.w3.org/Graphics/SVG/1.1/DTD/svg11.dtd">
<!-- Generated by graphviz version 2.44.0 (0)
 -->
<!-- Title: CDPL::Base::DataWriter&lt; T &gt; Pages: 1 -->
<!--zoomable 1582 -->
<svg id="main" version="1.1" xmlns="http://www.w3.org/2000/svg" xmlns:xlink="http://www.w3.org/1999/xlink" xml:space="preserve" onload="init(evt)">
<style type="text/css"><![CDATA[
.edge:hover path { stroke: red; }
.edge:hover polygon { stroke: red; fill: red; }
]]></style>
<script type="text/javascript"><![CDATA[
var edges = document.getElementsByTagName('g');
if (edges && edges.length) {
  for (var i=0;i<edges.length;i++) {
    if (edges[i].id.substr(0,4)=='edge') {
      edges[i].setAttribute('class','edge');
    }
  }
}
]]></script>
        <defs>
                <circle id="rim" cx="0" cy="0" r="7"/>
                <circle id="rim2" cx="0" cy="0" r="3.5"/>
                <g id="zoomPlus">
                        <use xlink:href="#rim" fill="#404040">
                                <set attributeName="fill" to="#808080" begin="zoomplus.mouseover" end="zoomplus.mouseout"/>
                        </use>
                        <path d="M-4,0h8M0,-4v8" fill="none" stroke="white" stroke-width="1.5" pointer-events="none"/>
                </g>
                <g id="zoomMin">
                        <use xlink:href="#rim" fill="#404040">
                                <set attributeName="fill" to="#808080" begin="zoomminus.mouseover" end="zoomminus.mouseout"/>
                        </use>
                        <path d="M-4,0h8" fill="none" stroke="white" stroke-width="1.5" pointer-events="none"/>
                </g>
                <g id="dirArrow">
                        <path fill="none" stroke="white" stroke-width="1.5" d="M0,-3.0v7 M-2.5,-0.5L0,-3.0L2.5,-0.5"/>
                </g>
               <g id="resetDef">
                       <use xlink:href="#rim2" fill="#404040">
                               <set attributeName="fill" to="#808080" begin="reset.mouseover" end="reset.mouseout"/>
                       </use>
               </g>
        </defs>

<script type="text/javascript">
var viewWidth = 1023;
var viewHeight = 1582;
var sectionId = 'dynsection-0';
</script>
<script xlink:href="svgpan.js"/>
<svg id="graph" class="graph">
<g id="viewport">
<title>CDPL::Base::DataWriter&lt; T &gt;</title>
<!-- Node1 -->
<g id="node1" class="node">
<title>Node1</title>
<g id="a_node1"><a xlink:title="An interface for writing data objects of a given type to an arbitrary data sink.">
<polygon fill="#bfbfbf" stroke="black" points="359,-1102 359,-1121 506,-1121 506,-1102 359,-1102"/>
<text text-anchor="middle" x="432.5" y="-1109" font-family="Helvetica" font-size="10.00">CDPL::Base::DataWriter&lt; T &gt;</text>
</a>
</g>
</g>
<!-- Node4 -->
<g id="node4" class="node">
<title>Node4</title>
<g id="a_node4"><a xlink:href="classCDPL_1_1Base_1_1DataWriter.html" target="_top" xlink:title=" ">
<polygon fill="none" stroke="black" points="670,-1518.5 670,-1548.5 793,-1548.5 793,-1518.5 670,-1518.5"/>
<text text-anchor="start" x="678" y="-1536.5" font-family="Helvetica" font-size="10.00">CDPL::Base::DataWriter</text>
<text text-anchor="middle" x="731.5" y="-1525.5" font-family="Helvetica" font-size="10.00">&lt; DRegularGrid &gt;</text>
</a>
</g>
</g>
<!-- Node1&#45;&gt;Node4 -->
<g id="edge3" class="edge">
<title>Node1&#45;&gt;Node4</title>
<path fill="none" stroke="orange" stroke-dasharray="5,2" d="M435.17,-1131.29C440.27,-1181.02 459.44,-1313.33 524,-1398.5 568.5,-1457.21 646.42,-1497.97 692.77,-1518.4"/>
<polygon fill="orange" stroke="orange" points="438.65,-1130.86 434.22,-1121.23 431.68,-1131.51 438.65,-1130.86"/>
<text text-anchor="middle" x="585" y="-1495.5" font-family="Helvetica" font-size="10.00"> &lt; DRegularGrid &gt;</text>
</g>
<!-- Node6 -->
<g id="node6" class="node">
<title>Node6</title>
<g id="a_node6"><a xlink:href="classCDPL_1_1Base_1_1DataWriter.html" target="_top" xlink:title=" ">
<polygon fill="none" stroke="black" points="670,-1445.5 670,-1475.5 793,-1475.5 793,-1445.5 670,-1445.5"/>
<text text-anchor="start" x="678" y="-1463.5" font-family="Helvetica" font-size="10.00">CDPL::Base::DataWriter</text>
<text text-anchor="middle" x="731.5" y="-1452.5" font-family="Helvetica" font-size="10.00">&lt; FeatureContainer &gt;</text>
</a>
</g>
</g>
<!-- Node1&#45;&gt;Node6 -->
<g id="edge5" class="edge">
<title>Node1&#45;&gt;Node6</title>
<path fill="none" stroke="orange" stroke-dasharray="5,2" d="M442.86,-1130.2C457.92,-1159.43 489.38,-1217.12 524,-1260.5 585.02,-1336.95 673.65,-1413.57 711.84,-1445.29"/>
<polygon fill="orange" stroke="orange" points="445.89,-1128.44 438.24,-1121.11 439.65,-1131.61 445.89,-1128.44"/>
<text text-anchor="middle" x="585" y="-1386.5" font-family="Helvetica" font-size="10.00"> &lt; FeatureContainer &gt;</text>
</g>
<!-- Node9 -->
<g id="node9" class="node">
<title>Node9</title>
<g id="a_node9"><a xlink:href="classCDPL_1_1Base_1_1DataWriter.html" target="_top" xlink:title=" ">
<polygon fill="none" stroke="black" points="670,-1287.5 670,-1317.5 793,-1317.5 793,-1287.5 670,-1287.5"/>
<text text-anchor="start" x="678" y="-1305.5" font-family="Helvetica" font-size="10.00">CDPL::Base::DataWriter</text>
<text text-anchor="middle" x="731.5" y="-1294.5" font-family="Helvetica" font-size="10.00">&lt; Reaction &gt;</text>
</a>
</g>
</g>
<!-- Node1&#45;&gt;Node9 -->
<g id="edge8" class="edge">
<title>Node1&#45;&gt;Node9</title>
<path fill="none" stroke="orange" stroke-dasharray="5,2" d="M457.14,-1126.7C512.83,-1162.52 651.78,-1251.87 707.17,-1287.5"/>
<polygon fill="orange" stroke="orange" points="458.94,-1123.7 448.64,-1121.23 455.15,-1129.59 458.94,-1123.7"/>
<text text-anchor="middle" x="585" y="-1248.5" font-family="Helvetica" font-size="10.00"> &lt; Reaction &gt;</text>
</g>
<!-- Node16 -->
<g id="node16" class="node">
<title>Node16</title>
<g id="a_node16"><a xlink:href="classCDPL_1_1Base_1_1DataWriter.html" target="_top" xlink:title=" ">
<polygon fill="none" stroke="black" points="670,-1145.5 670,-1175.5 793,-1175.5 793,-1145.5 670,-1145.5"/>
<text text-anchor="start" x="678" y="-1163.5" font-family="Helvetica" font-size="10.00">CDPL::Base::DataWriter</text>
<text text-anchor="middle" x="731.5" y="-1152.5" font-family="Helvetica" font-size="10.00">&lt; DRegularGridSet &gt;</text>
</a>
</g>
</g>
<!-- Node1&#45;&gt;Node16 -->
<g id="edge15" class="edge">
<title>Node1&#45;&gt;Node16</title>
<path fill="none" stroke="orange" stroke-dasharray="5,2" d="M501.06,-1122.71C508.8,-1123.99 516.57,-1125.27 524,-1126.5 573.11,-1134.61 628.8,-1143.78 669.96,-1150.55"/>
<polygon fill="orange" stroke="orange" points="501.39,-1119.21 490.95,-1121.03 500.24,-1126.12 501.39,-1119.21"/>
<text text-anchor="middle" x="585" y="-1148.5" font-family="Helvetica" font-size="10.00"> &lt; DRegularGridSet &gt;</text>
</g>
<!-- Node18 -->
<g id="node18" class="node">
<title>Node18</title>
<g id="a_node18"><a xlink:href="classCDPL_1_1Base_1_1DataWriter.html" target="_top" xlink:title=" ">
<polygon fill="none" stroke="black" points="670,-1096.5 670,-1126.5 793,-1126.5 793,-1096.5 670,-1096.5"/>
<text text-anchor="start" x="678" y="-1114.5" font-family="Helvetica" font-size="10.00">CDPL::Base::DataWriter</text>
<text text-anchor="middle" x="731.5" y="-1103.5" font-family="Helvetica" font-size="10.00">&lt; DataType &gt;</text>
</a>
</g>
</g>
<!-- Node1&#45;&gt;Node18 -->
<g id="edge17" class="edge">
<title>Node1&#45;&gt;Node18</title>
<path fill="none" stroke="orange" stroke-dasharray="5,2" d="M516.34,-1111.5C564.97,-1111.5 625.37,-1111.5 669.61,-1111.5"/>
<polygon fill="orange" stroke="orange" points="516.15,-1108 506.15,-1111.5 516.15,-1115 516.15,-1108"/>
<text text-anchor="middle" x="585" y="-1114.5" font-family="Helvetica" font-size="10.00"> &lt; DataType &gt;</text>
</g>
<!-- Node20 -->
<g id="node20" class="node">
<title>Node20</title>
<g id="a_node20"><a xlink:href="classCDPL_1_1Base_1_1DataWriter.html" target="_top" xlink:title=" ">
<polygon fill="none" stroke="black" points="670,-1014.5 670,-1044.5 793,-1044.5 793,-1014.5 670,-1014.5"/>
<text text-anchor="start" x="678" y="-1032.5" font-family="Helvetica" font-size="10.00">CDPL::Base::DataWriter</text>
<text text-anchor="middle" x="731.5" y="-1021.5" font-family="Helvetica" font-size="10.00">&lt; Chem::Reaction &gt;</text>
</a>
</g>
</g>
<!-- Node1&#45;&gt;Node20 -->
<g id="edge19" class="edge">
<title>Node1&#45;&gt;Node20</title>
<path fill="none" stroke="orange" stroke-dasharray="5,2" d="M477.91,-1099.24C530.76,-1084.65 619,-1060.28 675.95,-1044.56"/>
<polygon fill="orange" stroke="orange" points="476.86,-1095.9 468.15,-1101.93 478.72,-1102.65 476.86,-1095.9"/>
<text text-anchor="middle" x="585" y="-1088.5" font-family="Helvetica" font-size="10.00"> &lt; Chem::Reaction &gt;</text>
</g>
<!-- Node25 -->
<g id="node25" class="node">
<title>Node25</title>
<g id="a_node25"><a xlink:href="classCDPL_1_1Base_1_1DataWriter.html" target="_top" xlink:title=" ">
<polygon fill="none" stroke="black" points="670,-722.5 670,-752.5 793,-752.5 793,-722.5 670,-722.5"/>
<text text-anchor="start" x="678" y="-740.5" font-family="Helvetica" font-size="10.00">CDPL::Base::DataWriter</text>
<text text-anchor="middle" x="731.5" y="-729.5" font-family="Helvetica" font-size="10.00">&lt; MolecularGraph &gt;</text>
</a>
</g>
</g>
<!-- Node1&#45;&gt;Node25 -->
<g id="edge24" class="edge">
<title>Node1&#45;&gt;Node25</title>
<path fill="none" stroke="orange" stroke-dasharray="5,2" d="M447.42,-1093.96C497.91,-1030.39 670.84,-812.63 718.34,-752.81"/>
<polygon fill="orange" stroke="orange" points="444.62,-1091.87 441.14,-1101.88 450.1,-1096.22 444.62,-1091.87"/>
<text text-anchor="middle" x="585" y="-994.5" font-family="Helvetica" font-size="10.00"> &lt; MolecularGraph &gt;</text>
</g>
<!-- Node35 -->
<g id="node35" class="node">
<title>Node35</title>
<g id="a_node35"><a xlink:href="classCDPL_1_1Base_1_1DataWriter.html" target="_top" xlink:title=" ">
<polygon fill="none" stroke="black" points="670,-442 670,-483 793,-483 793,-442 670,-442"/>
<text text-anchor="start" x="678" y="-471" font-family="Helvetica" font-size="10.00">CDPL::Base::DataWriter</text>
<text text-anchor="start" x="678" y="-460" font-family="Helvetica" font-size="10.00">&lt; typename WriterImpl</text>
<text text-anchor="middle" x="731.5" y="-449" font-family="Helvetica" font-size="10.00">::DataType &gt;</text>
</a>
</g>
</g>
<!-- Node1&#45;&gt;Node35 -->
<g id="edge34" class="edge">
<title>Node1&#45;&gt;Node35</title>
<path fill="none" stroke="orange" stroke-dasharray="5,2" d="M438,-1092.19C449.33,-1044.97 481.2,-920.39 524,-822.5 554.81,-752.02 677.86,-548.71 717.86,-483.14"/>
<polygon fill="orange" stroke="orange" points="434.57,-1091.46 435.68,-1102 441.39,-1093.07 434.57,-1091.46"/>
<text text-anchor="start" x="533.5" y="-836.5" font-family="Helvetica" font-size="10.00"> &lt; typename WriterImpl</text>
<text text-anchor="middle" x="585" y="-825.5" font-family="Helvetica" font-size="10.00">::DataType &gt;</text>
</g>
<!-- Node38 -->
<g id="node38" class="node">
<title>Node38</title>
<g id="a_node38"><a xlink:href="classCDPL_1_1Base_1_1DataWriter.html" target="_top" xlink:title=" ">
<polygon fill="none" stroke="black" points="664,-196.5 664,-226.5 799,-226.5 799,-196.5 664,-196.5"/>
<text text-anchor="start" x="672" y="-214.5" font-family="Helvetica" font-size="10.00">CDPL::Base::DataWriter</text>
<text text-anchor="middle" x="731.5" y="-203.5" font-family="Helvetica" font-size="10.00">&lt; Chem::MolecularGraph &gt;</text>
</a>
</g>
</g>
<!-- Node1&#45;&gt;Node38 -->
<g id="edge37" class="edge">
<title>Node1&#45;&gt;Node38</title>
<path fill="none" stroke="orange" stroke-dasharray="5,2" d="M434.71,-1091.72C439.45,-1022.04 459.75,-782.19 524,-596.5 577.08,-443.11 685.72,-277.13 719.94,-226.8"/>
<polygon fill="orange" stroke="orange" points="431.22,-1091.53 434.06,-1101.73 438.2,-1091.98 431.22,-1091.53"/>
<text text-anchor="middle" x="585" y="-599.5" font-family="Helvetica" font-size="10.00"> &lt; Chem::MolecularGraph &gt;</text>
</g>
<!-- Node2 -->
<g id="node2" class="node">
<title>Node2</title>
<g id="a_node2"><a xlink:href="classCDPL_1_1Base_1_1DataIOBase.html" target="_top" xlink:title="Provides infrastructure for the registration of I/O callback functions.">
<polygon fill="none" stroke="black" points="191,-1102 191,-1121 322,-1121 322,-1102 191,-1102"/>
<text text-anchor="middle" x="256.5" y="-1109" font-family="Helvetica" font-size="10.00">CDPL::Base::DataIOBase</text>
</a>
</g>
</g>
<!-- Node2&#45;&gt;Node1 -->
<g id="edge1" class="edge">
<title>Node2&#45;&gt;Node1</title>
<path fill="none" stroke="midnightblue" d="M332.44,-1111.5C341.16,-1111.5 350.06,-1111.5 358.75,-1111.5"/>
<polygon fill="midnightblue" stroke="midnightblue" points="332.29,-1108 322.29,-1111.5 332.29,-1115 332.29,-1108"/>
</g>
<!-- Node3 -->
<g id="node3" class="node">
<title>Node3</title>
<g id="a_node3"><a xlink:href="classCDPL_1_1Base_1_1ControlParameterContainer.html" target="_top" xlink:title="A class providing methods for the storage and lookup of control&#45;parameter values.">
<polygon fill="none" stroke="black" points="0,-1096.5 0,-1126.5 154,-1126.5 154,-1096.5 0,-1096.5"/>
<text text-anchor="start" x="8" y="-1114.5" font-family="Helvetica" font-size="10.00">CDPL::Base::ControlParameter</text>
<text text-anchor="middle" x="77" y="-1103.5" font-family="Helvetica" font-size="10.00">Container</text>
</a>
</g>
</g>
<!-- Node3&#45;&gt;Node2 -->
<g id="edge2" class="edge">
<title>Node3&#45;&gt;Node2</title>
<path fill="none" stroke="midnightblue" d="M164.14,-1111.5C173.1,-1111.5 182.1,-1111.5 190.78,-1111.5"/>
<polygon fill="midnightblue" stroke="midnightblue" points="164.05,-1108 154.05,-1111.5 164.05,-1115 164.05,-1108"/>
</g>
<!-- Node5 -->
<g id="node5" class="node">
<title>Node5</title>
<g id="a_node5"><a xlink:href="classCDPL_1_1Grid_1_1CDFDRegularGridWriter.html" target="_top" xlink:title="A writer for spatial regular grid data in the native I/O format of the CDPL.">
<polygon fill="none" stroke="black" points="849.5,-1543.5 849.5,-1573.5 1001.5,-1573.5 1001.5,-1543.5 849.5,-1543.5"/>
<text text-anchor="start" x="857.5" y="-1561.5" font-family="Helvetica" font-size="10.00">CDPL::Grid::CDFDRegularGrid</text>
<text text-anchor="middle" x="925.5" y="-1550.5" font-family="Helvetica" font-size="10.00">Writer</text>
</a>
</g>
</g>
<!-- Node4&#45;&gt;Node5 -->
<g id="edge4" class="edge">
<title>Node4&#45;&gt;Node5</title>
<path fill="none" stroke="midnightblue" d="M803.44,-1542.74C818.39,-1544.68 834.21,-1546.74 849.31,-1548.71"/>
<polygon fill="midnightblue" stroke="midnightblue" points="803.62,-1539.23 793.25,-1541.41 802.71,-1546.17 803.62,-1539.23"/>
</g>
<!-- Node7 -->
<g id="node7" class="node">
<title>Node7</title>
<g id="a_node7"><a xlink:href="classCDPL_1_1Pharm_1_1CDFFeatureContainerWriter.html" target="_top" xlink:title="A writer for feature container data in the native I/O format of the CDPL.">
<polygon fill="none" stroke="black" points="836,-1494.5 836,-1524.5 1015,-1524.5 1015,-1494.5 836,-1494.5"/>
<text text-anchor="start" x="844" y="-1512.5" font-family="Helvetica" font-size="10.00">CDPL::Pharm::CDFFeatureContainer</text>
<text text-anchor="middle" x="925.5" y="-1501.5" font-family="Helvetica" font-size="10.00">Writer</text>
</a>
</g>
</g>
<!-- Node6&#45;&gt;Node7 -->
<g id="edge6" class="edge">
<title>Node6&#45;&gt;Node7</title>
<path fill="none" stroke="midnightblue" d="M801.27,-1478.05C822.35,-1483.43 845.35,-1489.3 865.7,-1494.49"/>
<polygon fill="midnightblue" stroke="midnightblue" points="801.97,-1474.62 791.41,-1475.53 800.24,-1481.4 801.97,-1474.62"/>
</g>
<!-- Node8 -->
<g id="node8" class="node">
<title>Node8</title>
<g id="a_node8"><a xlink:href="classCDPL_1_1Pharm_1_1PMLFeatureContainerWriter.html" target="_top" xlink:title="A writer for feature container data in the native I/O format of LigandScout.">
<polygon fill="none" stroke="black" points="836,-1445.5 836,-1475.5 1015,-1475.5 1015,-1445.5 836,-1445.5"/>
<text text-anchor="start" x="844" y="-1463.5" font-family="Helvetica" font-size="10.00">CDPL::Pharm::PMLFeatureContainer</text>
<text text-anchor="middle" x="925.5" y="-1452.5" font-family="Helvetica" font-size="10.00">Writer</text>
</a>
</g>
</g>
<!-- Node6&#45;&gt;Node8 -->
<g id="edge7" class="edge">
<title>Node6&#45;&gt;Node8</title>
<path fill="none" stroke="midnightblue" d="M803.57,-1460.5C814.05,-1460.5 824.95,-1460.5 835.74,-1460.5"/>
<polygon fill="midnightblue" stroke="midnightblue" points="803.25,-1457 793.25,-1460.5 803.25,-1464 803.25,-1457"/>
</g>
<!-- Node10 -->
<g id="node10" class="node">
<title>Node10</title>
<g id="a_node10"><a xlink:href="classCDPL_1_1Chem_1_1CDFReactionWriter.html" target="_top" xlink:title="A writer for molecular graph data in the native I/O format of the CDPL.">
<polygon fill="none" stroke="black" points="843,-1407 843,-1426 1008,-1426 1008,-1407 843,-1407"/>
<text text-anchor="middle" x="925.5" y="-1414" font-family="Helvetica" font-size="10.00">CDPL::Chem::CDFReactionWriter</text>
</a>
</g>
</g>
<!-- Node9&#45;&gt;Node10 -->
<g id="edge9" class="edge">
<title>Node9&#45;&gt;Node10</title>
<path fill="none" stroke="midnightblue" d="M751.08,-1325.53C770.08,-1347.47 801.61,-1379.72 836,-1397.5 843.54,-1401.4 851.83,-1404.49 860.23,-1406.96"/>
<polygon fill="midnightblue" stroke="midnightblue" points="753.56,-1323.05 744.43,-1317.67 748.22,-1327.57 753.56,-1323.05"/>
</g>
<!-- Node11 -->
<g id="node11" class="node">
<title>Node11</title>
<g id="a_node11"><a xlink:href="classCDPL_1_1Chem_1_1JMEReactionWriter.html" target="_top" xlink:title="A writer for reaction data in the native I/O format of the JME Molecular Editor [JME] java applet.">
<polygon fill="none" stroke="black" points="843,-1369 843,-1388 1008,-1388 1008,-1369 843,-1369"/>
<text text-anchor="middle" x="925.5" y="-1376" font-family="Helvetica" font-size="10.00">CDPL::Chem::JMEReactionWriter</text>
</a>
</g>
</g>
<!-- Node9&#45;&gt;Node11 -->
<g id="edge10" class="edge">
<title>Node9&#45;&gt;Node11</title>
<path fill="none" stroke="midnightblue" d="M764.06,-1323.05C783.98,-1335.21 810.67,-1350.04 836,-1359.5 846.16,-1363.29 857.27,-1366.42 868.08,-1368.97"/>
<polygon fill="midnightblue" stroke="midnightblue" points="765.75,-1319.98 755.4,-1317.68 762.05,-1325.92 765.75,-1319.98"/>
</g>
<!-- Node12 -->
<g id="node12" class="node">
<title>Node12</title>
<g id="a_node12"><a xlink:href="classCDPL_1_1Chem_1_1RDFReactionWriter.html" target="_top" xlink:title="A writer for reaction data in the MDL RD&#45;File [CTFILE] format.">
<polygon fill="none" stroke="black" points="843,-1331 843,-1350 1008,-1350 1008,-1331 843,-1331"/>
<text text-anchor="middle" x="925.5" y="-1338" font-family="Helvetica" font-size="10.00">CDPL::Chem::RDFReactionWriter</text>
</a>
</g>
</g>
<!-- Node9&#45;&gt;Node12 -->
<g id="edge11" class="edge">
<title>Node9&#45;&gt;Node12</title>
<path fill="none" stroke="midnightblue" d="M803.16,-1316.48C827.49,-1321.3 854.17,-1326.58 876.3,-1330.96"/>
<polygon fill="midnightblue" stroke="midnightblue" points="803.74,-1313.03 793.25,-1314.52 802.38,-1319.9 803.74,-1313.03"/>
</g>
<!-- Node13 -->
<g id="node13" class="node">
<title>Node13</title>
<g id="a_node13"><a xlink:href="classCDPL_1_1Chem_1_1RXNReactionWriter.html" target="_top" xlink:title="A writer for reaction data in the MDL Rxn&#45;File [CTFILE] format.">
<polygon fill="none" stroke="black" points="842,-1293 842,-1312 1009,-1312 1009,-1293 842,-1293"/>
<text text-anchor="middle" x="925.5" y="-1300" font-family="Helvetica" font-size="10.00">CDPL::Chem::RXNReactionWriter</text>
</a>
</g>
</g>
<!-- Node9&#45;&gt;Node13 -->
<g id="edge12" class="edge">
<title>Node9&#45;&gt;Node13</title>
<path fill="none" stroke="midnightblue" d="M803.52,-1302.5C815.95,-1302.5 828.97,-1302.5 841.68,-1302.5"/>
<polygon fill="midnightblue" stroke="midnightblue" points="803.25,-1299 793.25,-1302.5 803.25,-1306 803.25,-1299"/>
</g>
<!-- Node14 -->
<g id="node14" class="node">
<title>Node14</title>
<g id="a_node14"><a xlink:href="classCDPL_1_1Chem_1_1SMARTSReactionWriter.html" target="_top" xlink:title="A writer for reaction data in the Daylight SMARTS [SMARTS] format.">
<polygon fill="none" stroke="black" points="845,-1243.5 845,-1273.5 1006,-1273.5 1006,-1243.5 845,-1243.5"/>
<text text-anchor="start" x="853" y="-1261.5" font-family="Helvetica" font-size="10.00">CDPL::Chem::SMARTSReaction</text>
<text text-anchor="middle" x="925.5" y="-1250.5" font-family="Helvetica" font-size="10.00">Writer</text>
</a>
</g>
</g>
<!-- Node9&#45;&gt;Node14 -->
<g id="edge13" class="edge">
<title>Node9&#45;&gt;Node14</title>
<path fill="none" stroke="midnightblue" d="M803.21,-1286.3C821.4,-1282.13 840.9,-1277.66 858.83,-1273.55"/>
<polygon fill="midnightblue" stroke="midnightblue" points="802.22,-1282.93 793.25,-1288.58 803.78,-1289.76 802.22,-1282.93"/>
</g>
<!-- Node15 -->
<g id="node15" class="node">
<title>Node15</title>
<g id="a_node15"><a xlink:href="classCDPL_1_1Chem_1_1SMILESReactionWriter.html" target="_top" xlink:title="A writer for reaction data in the Daylight SMILES [SMILES] format.">
<polygon fill="none" stroke="black" points="848,-1194.5 848,-1224.5 1003,-1224.5 1003,-1194.5 848,-1194.5"/>
<text text-anchor="start" x="856" y="-1212.5" font-family="Helvetica" font-size="10.00">CDPL::Chem::SMILESReaction</text>
<text text-anchor="middle" x="925.5" y="-1201.5" font-family="Helvetica" font-size="10.00">Writer</text>
</a>
</g>
</g>
<!-- Node9&#45;&gt;Node15 -->
<g id="edge14" class="edge">
<title>Node9&#45;&gt;Node15</title>
<path fill="none" stroke="midnightblue" d="M759.75,-1281.24C779.88,-1266.41 808.45,-1247.08 836,-1234.5 844.13,-1230.79 852.94,-1227.5 861.74,-1224.64"/>
<polygon fill="midnightblue" stroke="midnightblue" points="757.58,-1278.5 751.67,-1287.3 761.77,-1284.1 757.58,-1278.5"/>
</g>
<!-- Node17 -->
<g id="node17" class="node">
<title>Node17</title>
<g id="a_node17"><a xlink:href="classCDPL_1_1Grid_1_1CDFDRegularGridSetWriter.html" target="_top" xlink:title="A writer for spatial regular grid set data in the native I/O format of the CDPL.">
<polygon fill="none" stroke="black" points="849.5,-1145.5 849.5,-1175.5 1001.5,-1175.5 1001.5,-1145.5 849.5,-1145.5"/>
<text text-anchor="start" x="857.5" y="-1163.5" font-family="Helvetica" font-size="10.00">CDPL::Grid::CDFDRegularGrid</text>
<text text-anchor="middle" x="925.5" y="-1152.5" font-family="Helvetica" font-size="10.00">SetWriter</text>
</a>
</g>
</g>
<!-- Node16&#45;&gt;Node17 -->
<g id="edge16" class="edge">
<title>Node16&#45;&gt;Node17</title>
<path fill="none" stroke="midnightblue" d="M803.44,-1160.5C818.39,-1160.5 834.21,-1160.5 849.31,-1160.5"/>
<polygon fill="midnightblue" stroke="midnightblue" points="803.25,-1157 793.25,-1160.5 803.25,-1164 803.25,-1157"/>
</g>
<!-- Node19 -->
<g id="node19" class="node">
<title>Node19</title>
<g id="a_node19"><a xlink:href="classCDPL_1_1Util_1_1MultiFormatDataWriter.html" target="_top" xlink:title="MultiFormatDataWriter.">
<polygon fill="none" stroke="black" points="854.5,-1096.5 854.5,-1126.5 996.5,-1126.5 996.5,-1096.5 854.5,-1096.5"/>
<text text-anchor="start" x="862.5" y="-1114.5" font-family="Helvetica" font-size="10.00">CDPL::Util::MultiFormatData</text>
<text text-anchor="middle" x="925.5" y="-1103.5" font-family="Helvetica" font-size="10.00">Writer&lt; DataType &gt;</text>
</a>
</g>
</g>
<!-- Node18&#45;&gt;Node19 -->
<g id="edge18" class="edge">
<title>Node18&#45;&gt;Node19</title>
<path fill="none" stroke="midnightblue" d="M803.46,-1111.5C820.1,-1111.5 837.83,-1111.5 854.44,-1111.5"/>
<polygon fill="midnightblue" stroke="midnightblue" points="803.25,-1108 793.25,-1111.5 803.25,-1115 803.25,-1108"/>
</g>
<!-- Node21 -->
<g id="node21" class="node">
<title>Node21</title>
<g id="a_node21"><a xlink:href="classCDPL_1_1Vis_1_1PDFReactionWriter.html" target="_top" xlink:title="Creates 2D depictions of chemical reactions in the Portable Document Format (PDF) [WPDF].">
<polygon fill="none" stroke="black" points="849.5,-1058 849.5,-1077 1001.5,-1077 1001.5,-1058 849.5,-1058"/>
<text text-anchor="middle" x="925.5" y="-1065" font-family="Helvetica" font-size="10.00">CDPL::Vis::PDFReactionWriter</text>
</a>
</g>
</g>
<!-- Node20&#45;&gt;Node21 -->
<g id="edge20" class="edge">
<title>Node20&#45;&gt;Node21</title>
<path fill="none" stroke="midnightblue" d="M803.16,-1043.48C827.49,-1048.3 854.17,-1053.58 876.3,-1057.96"/>
<polygon fill="midnightblue" stroke="midnightblue" points="803.74,-1040.03 793.25,-1041.52 802.38,-1046.9 803.74,-1040.03"/>
</g>
<!-- Node22 -->
<g id="node22" class="node">
<title>Node22</title>
<g id="a_node22"><a xlink:href="classCDPL_1_1Vis_1_1PNGReactionWriter.html" target="_top" xlink:title="Creates 2D depictions of chemical reactions in the Portable Network Graphics (PNG) [WPNG] format.">
<polygon fill="none" stroke="black" points="848,-1020 848,-1039 1003,-1039 1003,-1020 848,-1020"/>
<text text-anchor="middle" x="925.5" y="-1027" font-family="Helvetica" font-size="10.00">CDPL::Vis::PNGReactionWriter</text>
</a>
</g>
</g>
<!-- Node20&#45;&gt;Node22 -->
<g id="edge21" class="edge">
<title>Node20&#45;&gt;Node22</title>
<path fill="none" stroke="midnightblue" d="M803.6,-1029.5C818.05,-1029.5 833.3,-1029.5 847.93,-1029.5"/>
<polygon fill="midnightblue" stroke="midnightblue" points="803.25,-1026 793.25,-1029.5 803.25,-1033 803.25,-1026"/>
</g>
<!-- Node23 -->
<g id="node23" class="node">
<title>Node23</title>
<g id="a_node23"><a xlink:href="classCDPL_1_1Vis_1_1PSReactionWriter.html" target="_top" xlink:title="Creates 2D depictions of chemical reactions in the PostScript (PS) [WPS] format.">
<polygon fill="none" stroke="black" points="852.5,-982 852.5,-1001 998.5,-1001 998.5,-982 852.5,-982"/>
<text text-anchor="middle" x="925.5" y="-989" font-family="Helvetica" font-size="10.00">CDPL::Vis::PSReactionWriter</text>
</a>
</g>
</g>
<!-- Node20&#45;&gt;Node23 -->
<g id="edge22" class="edge">
<title>Node20&#45;&gt;Node23</title>
<path fill="none" stroke="midnightblue" d="M803.16,-1015.52C827.49,-1010.7 854.17,-1005.42 876.3,-1001.04"/>
<polygon fill="midnightblue" stroke="midnightblue" points="802.38,-1012.1 793.25,-1017.48 803.74,-1018.97 802.38,-1012.1"/>
</g>
<!-- Node24 -->
<g id="node24" class="node">
<title>Node24</title>
<g id="a_node24"><a xlink:href="classCDPL_1_1Vis_1_1SVGReactionWriter.html" target="_top" xlink:title="Creates 2D depictions of chemical reactions in the Scalable Vector Graphics (SVG) [WSVG] format.">
<polygon fill="none" stroke="black" points="849.5,-944 849.5,-963 1001.5,-963 1001.5,-944 849.5,-944"/>
<text text-anchor="middle" x="925.5" y="-951" font-family="Helvetica" font-size="10.00">CDPL::Vis::SVGReactionWriter</text>
</a>
</g>
</g>
<!-- Node20&#45;&gt;Node24 -->
<g id="edge23" class="edge">
<title>Node20&#45;&gt;Node24</title>
<path fill="none" stroke="midnightblue" d="M764.06,-1008.95C783.98,-996.79 810.67,-981.96 836,-972.5 846.16,-968.71 857.27,-965.58 868.08,-963.03"/>
<polygon fill="midnightblue" stroke="midnightblue" points="762.05,-1006.08 755.4,-1014.32 765.75,-1012.02 762.05,-1006.08"/>
</g>
<!-- Node26 -->
<g id="node26" class="node">
<title>Node26</title>
<g id="a_node26"><a xlink:href="classCDPL_1_1Chem_1_1CDFMolecularGraphWriter.html" target="_top" xlink:title="A writer for molecular graph data in the native I/O format of the CDPL.">
<polygon fill="none" stroke="black" points="854,-894.5 854,-924.5 997,-924.5 997,-894.5 854,-894.5"/>
<text text-anchor="start" x="862" y="-912.5" font-family="Helvetica" font-size="10.00">CDPL::Chem::CDFMolecular</text>
<text text-anchor="middle" x="925.5" y="-901.5" font-family="Helvetica" font-size="10.00">GraphWriter</text>
</a>
</g>
</g>
<!-- Node25&#45;&gt;Node26 -->
<g id="edge25" class="edge">
<title>Node25&#45;&gt;Node26</title>
<path fill="none" stroke="midnightblue" d="M743.18,-761.89C758.8,-794.7 790.99,-852.62 836,-884.5 841.47,-888.38 847.53,-891.65 853.84,-894.42"/>
<polygon fill="midnightblue" stroke="midnightblue" points="746.24,-760.18 738.87,-752.57 739.89,-763.11 746.24,-760.18"/>
</g>
<!-- Node27 -->
<g id="node27" class="node">
<title>Node27</title>
<g id="a_node27"><a xlink:href="classCDPL_1_1Chem_1_1INCHIMolecularGraphWriter.html" target="_top" xlink:title="A writer for molecular graph data in the IUPAC International Chemical Identifier (InChI) [INCHI] form...">
<polygon fill="none" stroke="black" points="850.5,-845.5 850.5,-875.5 1000.5,-875.5 1000.5,-845.5 850.5,-845.5"/>
<text text-anchor="start" x="858.5" y="-863.5" font-family="Helvetica" font-size="10.00">CDPL::Chem::INCHIMolecular</text>
<text text-anchor="middle" x="925.5" y="-852.5" font-family="Helvetica" font-size="10.00">GraphWriter</text>
</a>
</g>
</g>
<!-- Node25&#45;&gt;Node27 -->
<g id="edge26" class="edge">
<title>Node25&#45;&gt;Node27</title>
<path fill="none" stroke="midnightblue" d="M750.93,-760.5C769.98,-782.79 801.7,-816.01 836,-835.5 842.8,-839.36 850.24,-842.67 857.83,-845.48"/>
<polygon fill="midnightblue" stroke="midnightblue" points="753.61,-758.24 744.51,-752.83 748.24,-762.74 753.61,-758.24"/>
</g>
<!-- Node28 -->
<g id="node28" class="node">
<title>Node28</title>
<g id="a_node28"><a xlink:href="classCDPL_1_1Chem_1_1JMEMolecularGraphWriter.html" target="_top" xlink:title="A writer for molecular graph data in the native I/O format of the JME Molecular Editor [JME] java app...">
<polygon fill="none" stroke="black" points="854,-796.5 854,-826.5 997,-826.5 997,-796.5 854,-796.5"/>
<text text-anchor="start" x="862" y="-814.5" font-family="Helvetica" font-size="10.00">CDPL::Chem::JMEMolecular</text>
<text text-anchor="middle" x="925.5" y="-803.5" font-family="Helvetica" font-size="10.00">GraphWriter</text>
</a>
</g>
</g>
<!-- Node25&#45;&gt;Node28 -->
<g id="edge27" class="edge">
<title>Node25&#45;&gt;Node28</title>
<path fill="none" stroke="midnightblue" d="M770.03,-757.13C789.4,-766.78 813.6,-778.1 836,-786.5 845.57,-790.09 855.88,-793.44 865.97,-796.46"/>
<polygon fill="midnightblue" stroke="midnightblue" points="771.45,-753.92 760.94,-752.55 768.3,-760.17 771.45,-753.92"/>
</g>
<!-- Node29 -->
<g id="node29" class="node">
<title>Node29</title>
<g id="a_node29"><a xlink:href="classCDPL_1_1Chem_1_1MOL2MolecularGraphWriter.html" target="_top" xlink:title=" ">
<polygon fill="none" stroke="black" points="851,-747.5 851,-777.5 1000,-777.5 1000,-747.5 851,-747.5"/>
<text text-anchor="start" x="859" y="-765.5" font-family="Helvetica" font-size="10.00">CDPL::Chem::MOL2Molecular</text>
<text text-anchor="middle" x="925.5" y="-754.5" font-family="Helvetica" font-size="10.00">GraphWriter</text>
</a>
</g>
</g>
<!-- Node25&#45;&gt;Node29 -->
<g id="edge28" class="edge">
<title>Node25&#45;&gt;Node29</title>
<path fill="none" stroke="midnightblue" d="M803.25,-746.71C818.71,-748.73 835.11,-750.86 850.68,-752.89"/>
<polygon fill="midnightblue" stroke="midnightblue" points="803.62,-743.23 793.25,-745.41 802.71,-750.17 803.62,-743.23"/>
</g>
<!-- Node30 -->
<g id="node30" class="node">
<title>Node30</title>
<g id="a_node30"><a xlink:href="classCDPL_1_1Chem_1_1MOLMolecularGraphWriter.html" target="_top" xlink:title="A writer for molecular graph data in the MDL Mol&#45;File [CTFILE] format.">
<polygon fill="none" stroke="black" points="853.5,-698.5 853.5,-728.5 997.5,-728.5 997.5,-698.5 853.5,-698.5"/>
<text text-anchor="start" x="861.5" y="-716.5" font-family="Helvetica" font-size="10.00">CDPL::Chem::MOLMolecular</text>
<text text-anchor="middle" x="925.5" y="-705.5" font-family="Helvetica" font-size="10.00">GraphWriter</text>
</a>
</g>
</g>
<!-- Node25&#45;&gt;Node30 -->
<g id="edge29" class="edge">
<title>Node25&#45;&gt;Node30</title>
<path fill="none" stroke="midnightblue" d="M803.28,-728.65C819.64,-726.61 837.05,-724.43 853.42,-722.39"/>
<polygon fill="midnightblue" stroke="midnightblue" points="802.74,-725.19 793.25,-729.91 803.61,-732.14 802.74,-725.19"/>
</g>
<!-- Node31 -->
<g id="node31" class="node">
<title>Node31</title>
<g id="a_node31"><a xlink:href="classCDPL_1_1Chem_1_1SDFMolecularGraphWriter.html" target="_top" xlink:title="A writer for molecular graph data in the MDL Mol&#45;File [CTFILE] format.">
<polygon fill="none" stroke="black" points="854,-649.5 854,-679.5 997,-679.5 997,-649.5 854,-649.5"/>
<text text-anchor="start" x="862" y="-667.5" font-family="Helvetica" font-size="10.00">CDPL::Chem::SDFMolecular</text>
<text text-anchor="middle" x="925.5" y="-656.5" font-family="Helvetica" font-size="10.00">GraphWriter</text>
</a>
</g>
</g>
<!-- Node25&#45;&gt;Node31 -->
<g id="edge30" class="edge">
<title>Node25&#45;&gt;Node31</title>
<path fill="none" stroke="midnightblue" d="M769.99,-717.77C789.35,-708.1 813.56,-696.78 836,-688.5 844.66,-685.3 853.94,-682.32 863.12,-679.63"/>
<polygon fill="midnightblue" stroke="midnightblue" points="768.25,-714.73 760.91,-722.37 771.41,-720.98 768.25,-714.73"/>
</g>
<!-- Node32 -->
<g id="node32" class="node">
<title>Node32</title>
<g id="a_node32"><a xlink:href="classCDPL_1_1Chem_1_1SMARTSMolecularGraphWriter.html" target="_top" xlink:title="A writer for molecular graph data in the Daylight SMARTS [SMARTS] format.">
<polygon fill="none" stroke="black" points="843.5,-600.5 843.5,-630.5 1007.5,-630.5 1007.5,-600.5 843.5,-600.5"/>
<text text-anchor="start" x="851.5" y="-618.5" font-family="Helvetica" font-size="10.00">CDPL::Chem::SMARTSMolecular</text>
<text text-anchor="middle" x="925.5" y="-607.5" font-family="Helvetica" font-size="10.00">GraphWriter</text>
</a>
</g>
</g>
<!-- Node25&#45;&gt;Node32 -->
<g id="edge31" class="edge">
<title>Node25&#45;&gt;Node32</title>
<path fill="none" stroke="midnightblue" d="M750.82,-714.5C769.83,-692.15 801.56,-658.83 836,-639.5 842.11,-636.07 848.73,-633.11 855.51,-630.56"/>
<polygon fill="midnightblue" stroke="midnightblue" points="747.89,-712.56 744.18,-722.48 753.27,-717.04 747.89,-712.56"/>
</g>
<!-- Node33 -->
<g id="node33" class="node">
<title>Node33</title>
<g id="a_node33"><a xlink:href="classCDPL_1_1Chem_1_1SMILESMolecularGraphWriter.html" target="_top" xlink:title="A writer for molecular graph data in the Daylight SMILES [SMILES] format.">
<polygon fill="none" stroke="black" points="846,-551.5 846,-581.5 1005,-581.5 1005,-551.5 846,-551.5"/>
<text text-anchor="start" x="854" y="-569.5" font-family="Helvetica" font-size="10.00">CDPL::Chem::SMILESMolecular</text>
<text text-anchor="middle" x="925.5" y="-558.5" font-family="Helvetica" font-size="10.00">GraphWriter</text>
</a>
</g>
</g>
<!-- Node25&#45;&gt;Node33 -->
<g id="edge32" class="edge">
<title>Node25&#45;&gt;Node33</title>
<path fill="none" stroke="midnightblue" d="M743.13,-713.04C758.7,-680.15 790.82,-622.15 836,-590.5 840.95,-587.03 846.39,-584.06 852.05,-581.52"/>
<polygon fill="midnightblue" stroke="midnightblue" points="739.83,-711.84 738.84,-722.39 746.19,-714.76 739.83,-711.84"/>
</g>
<!-- Node34 -->
<g id="node34" class="node">
<title>Node34</title>
<g id="a_node34"><a xlink:href="classCDPL_1_1Chem_1_1XYZMolecularGraphWriter.html" target="_top" xlink:title=" ">
<polygon fill="none" stroke="black" points="854,-502.5 854,-532.5 997,-532.5 997,-502.5 854,-502.5"/>
<text text-anchor="start" x="862" y="-520.5" font-family="Helvetica" font-size="10.00">CDPL::Chem::XYZMolecular</text>
<text text-anchor="middle" x="925.5" y="-509.5" font-family="Helvetica" font-size="10.00">GraphWriter</text>
</a>
</g>
</g>
<!-- Node25&#45;&gt;Node34 -->
<g id="edge33" class="edge">
<title>Node25&#45;&gt;Node34</title>
<path fill="none" stroke="midnightblue" d="M738.65,-712.66C750.3,-670.86 779.64,-586.61 836,-541.5 841.34,-537.22 847.39,-533.71 853.75,-530.81"/>
<polygon fill="midnightblue" stroke="midnightblue" points="735.26,-711.76 736.06,-722.32 742.03,-713.57 735.26,-711.76"/>
</g>
<!-- Node36 -->
<g id="node36" class="node">
<title>Node36</title>
<g id="a_node36"><a xlink:href="classCDPL_1_1Util_1_1CompressedDataWriter.html" target="_top" xlink:title="CompressedDataWriter.">
<polygon fill="none" stroke="black" points="844.5,-442 844.5,-483 1006.5,-483 1006.5,-442 844.5,-442"/>
<text text-anchor="start" x="852.5" y="-471" font-family="Helvetica" font-size="10.00">CDPL::Util::CompressedData</text>
<text text-anchor="start" x="852.5" y="-460" font-family="Helvetica" font-size="10.00">Writer&lt; WriterImpl, CompStream,</text>
<text text-anchor="middle" x="925.5" y="-449" font-family="Helvetica" font-size="10.00"> DataType &gt;</text>
</a>
</g>
</g>
<!-- Node35&#45;&gt;Node36 -->
<g id="edge35" class="edge">
<title>Node35&#45;&gt;Node36</title>
<path fill="none" stroke="midnightblue" d="M803.33,-462.5C816.72,-462.5 830.82,-462.5 844.47,-462.5"/>
<polygon fill="midnightblue" stroke="midnightblue" points="803.25,-459 793.25,-462.5 803.25,-466 803.25,-459"/>
</g>
<!-- Node37 -->
<g id="node37" class="node">
<title>Node37</title>
<g id="a_node37"><a xlink:href="classCDPL_1_1Util_1_1FileDataWriter.html" target="_top" xlink:title="FileDataWriter.">
<polygon fill="none" stroke="black" points="860,-392.5 860,-422.5 991,-422.5 991,-392.5 860,-392.5"/>
<text text-anchor="start" x="868" y="-410.5" font-family="Helvetica" font-size="10.00">CDPL::Util::FileDataWriter</text>
<text text-anchor="middle" x="925.5" y="-399.5" font-family="Helvetica" font-size="10.00">&lt; WriterImpl, DataType &gt;</text>
</a>
</g>
</g>
<!-- Node35&#45;&gt;Node37 -->
<g id="edge36" class="edge">
<title>Node35&#45;&gt;Node37</title>
<path fill="none" stroke="midnightblue" d="M802.88,-442.03C813.96,-438.83 825.29,-435.57 836,-432.5 847.36,-429.25 859.55,-425.79 871.13,-422.51"/>
<polygon fill="midnightblue" stroke="midnightblue" points="801.86,-438.68 793.23,-444.82 803.81,-445.41 801.86,-438.68"/>
</g>
<!-- Node39 -->
<g id="node39" class="node">
<title>Node39</title>
<g id="a_node39"><a xlink:href="classCDPL_1_1Biomol_1_1MMCIFMolecularGraphWriter.html" target="_top" xlink:title=" ">
<polygon fill="none" stroke="black" points="845.5,-343.5 845.5,-373.5 1005.5,-373.5 1005.5,-343.5 845.5,-343.5"/>
<text text-anchor="start" x="853.5" y="-361.5" font-family="Helvetica" font-size="10.00">CDPL::Biomol::MMCIFMolecular</text>
<text text-anchor="middle" x="925.5" y="-350.5" font-family="Helvetica" font-size="10.00">GraphWriter</text>
</a>
</g>
</g>
<!-- Node38&#45;&gt;Node39 -->
<g id="edge38" class="edge">
<title>Node38&#45;&gt;Node39</title>
<path fill="none" stroke="midnightblue" d="M746.58,-235.45C764.09,-263.13 796.53,-308.13 836,-333.5 842.04,-337.38 848.7,-340.68 855.56,-343.46"/>
<polygon fill="midnightblue" stroke="midnightblue" points="749.46,-233.44 741.23,-226.77 743.51,-237.12 749.46,-233.44"/>
</g>
<!-- Node40 -->
<g id="node40" class="node">
<title>Node40</title>
<g id="a_node40"><a xlink:href="classCDPL_1_1Biomol_1_1MMTFMolecularGraphWriter.html" target="_top" xlink:title="A writer for molecular graph data in the Macromolecular Transmission Format (MMTF) [MMTF].">
<polygon fill="none" stroke="black" points="848,-294.5 848,-324.5 1003,-324.5 1003,-294.5 848,-294.5"/>
<text text-anchor="start" x="856" y="-312.5" font-family="Helvetica" font-size="10.00">CDPL::Biomol::MMTFMolecular</text>
<text text-anchor="middle" x="925.5" y="-301.5" font-family="Helvetica" font-size="10.00">GraphWriter</text>
</a>
</g>
</g>
<!-- Node38&#45;&gt;Node40 -->
<g id="edge39" class="edge">
<title>Node38&#45;&gt;Node40</title>
<path fill="none" stroke="midnightblue" d="M758.03,-233.24C778.09,-249.37 807.34,-270.84 836,-284.5 843.93,-288.28 852.53,-291.59 861.16,-294.45"/>
<polygon fill="midnightblue" stroke="midnightblue" points="759.98,-230.32 750.02,-226.7 755.55,-235.74 759.98,-230.32"/>
</g>
<!-- Node41 -->
<g id="node41" class="node">
<title>Node41</title>
<g id="a_node41"><a xlink:href="classCDPL_1_1Biomol_1_1PDBMolecularGraphWriter.html" target="_top" xlink:title="A writer for molecular graph data in the Brookhaven Protein Data Bank (PDB) [PDB] format.">
<polygon fill="none" stroke="black" points="852,-245.5 852,-275.5 999,-275.5 999,-245.5 852,-245.5"/>
<text text-anchor="start" x="860" y="-263.5" font-family="Helvetica" font-size="10.00">CDPL::Biomol::PDBMolecular</text>
<text text-anchor="middle" x="925.5" y="-252.5" font-family="Helvetica" font-size="10.00">GraphWriter</text>
</a>
</g>
</g>
<!-- Node38&#45;&gt;Node41 -->
<g id="edge40" class="edge">
<title>Node38&#45;&gt;Node41</title>
<path fill="none" stroke="midnightblue" d="M801.27,-229.05C822.35,-234.43 845.35,-240.3 865.7,-245.49"/>
<polygon fill="midnightblue" stroke="midnightblue" points="801.97,-225.62 791.41,-226.53 800.24,-232.4 801.97,-225.62"/>
</g>
<!-- Node42 -->
<g id="node42" class="node">
<title>Node42</title>
<g id="a_node42"><a xlink:href="classCDPL_1_1Pharm_1_1PSDMolecularGraphWriter.html" target="_top" xlink:title="A writer for molecular graph data in the PSD&#45;format of the CDPL.">
<polygon fill="none" stroke="black" points="852.5,-196.5 852.5,-226.5 998.5,-226.5 998.5,-196.5 852.5,-196.5"/>
<text text-anchor="start" x="860.5" y="-214.5" font-family="Helvetica" font-size="10.00">CDPL::Pharm::PSDMolecular</text>
<text text-anchor="middle" x="925.5" y="-203.5" font-family="Helvetica" font-size="10.00">GraphWriter</text>
</a>
</g>
</g>
<!-- Node38&#45;&gt;Node42 -->
<g id="edge41" class="edge">
<title>Node38&#45;&gt;Node42</title>
<path fill="none" stroke="midnightblue" d="M809.34,-211.5C823.56,-211.5 838.37,-211.5 852.44,-211.5"/>
<polygon fill="midnightblue" stroke="midnightblue" points="809.11,-208 799.11,-211.5 809.11,-215 809.11,-208"/>
</g>
<!-- Node43 -->
<g id="node43" class="node">
<title>Node43</title>
<g id="a_node43"><a xlink:href="classCDPL_1_1Vis_1_1PDFMolecularGraphWriter.html" target="_top" xlink:title="Creates 2D structure diagrams of molecular graphs in the Portable Document Format (PDF) [WPDF].">
<polygon fill="none" stroke="black" points="847,-147.5 847,-177.5 1004,-177.5 1004,-147.5 847,-147.5"/>
<text text-anchor="start" x="855" y="-165.5" font-family="Helvetica" font-size="10.00">CDPL::Vis::PDFMolecularGraph</text>
<text text-anchor="middle" x="925.5" y="-154.5" font-family="Helvetica" font-size="10.00">Writer</text>
</a>
</g>
</g>
<!-- Node38&#45;&gt;Node43 -->
<g id="edge42" class="edge">
<title>Node38&#45;&gt;Node43</title>
<path fill="none" stroke="midnightblue" d="M801.27,-193.95C822.35,-188.57 845.35,-182.7 865.7,-177.51"/>
<polygon fill="midnightblue" stroke="midnightblue" points="800.24,-190.6 791.41,-196.47 801.97,-197.38 800.24,-190.6"/>
</g>
<!-- Node44 -->
<g id="node44" class="node">
<title>Node44</title>
<g id="a_node44"><a xlink:href="classCDPL_1_1Vis_1_1PNGMolecularGraphWriter.html" target="_top" xlink:title="Creates 2D structure diagrams of molecular graphs in the Portable Network Graphics (PNG) [WPNG] forma...">
<polygon fill="none" stroke="black" points="846,-98.5 846,-128.5 1005,-128.5 1005,-98.5 846,-98.5"/>
<text text-anchor="start" x="854" y="-116.5" font-family="Helvetica" font-size="10.00">CDPL::Vis::PNGMolecularGraph</text>
<text text-anchor="middle" x="925.5" y="-105.5" font-family="Helvetica" font-size="10.00">Writer</text>
</a>
</g>
</g>
<!-- Node38&#45;&gt;Node44 -->
<g id="edge43" class="edge">
<title>Node38&#45;&gt;Node44</title>
<path fill="none" stroke="midnightblue" d="M757.31,-189.87C777.33,-173.41 806.88,-151.31 836,-137.5 843.05,-134.16 850.64,-131.22 858.31,-128.64"/>
<polygon fill="midnightblue" stroke="midnightblue" points="755.02,-187.22 749.6,-196.32 759.51,-192.59 755.02,-187.22"/>
</g>
<!-- Node45 -->
<g id="node45" class="node">
<title>Node45</title>
<g id="a_node45"><a xlink:href="classCDPL_1_1Vis_1_1PSMolecularGraphWriter.html" target="_top" xlink:title="Creates 2D structure diagrams of molecular graphs in the PostScript (PS) [WPS] format.">
<polygon fill="none" stroke="black" points="850,-49.5 850,-79.5 1001,-79.5 1001,-49.5 850,-49.5"/>
<text text-anchor="start" x="858" y="-67.5" font-family="Helvetica" font-size="10.00">CDPL::Vis::PSMolecularGraph</text>
<text text-anchor="middle" x="925.5" y="-56.5" font-family="Helvetica" font-size="10.00">Writer</text>
</a>
</g>
</g>
<!-- Node38&#45;&gt;Node45 -->
<g id="edge44" class="edge">
<title>Node38&#45;&gt;Node45</title>
<path fill="none" stroke="midnightblue" d="M746.21,-187.73C763.56,-159.78 796.05,-114 836,-88.5 841.37,-85.07 847.22,-82.13 853.27,-79.61"/>
<polygon fill="midnightblue" stroke="midnightblue" points="743.11,-186.1 740.92,-196.47 749.1,-189.73 743.11,-186.1"/>
</g>
<!-- Node46 -->
<g id="node46" class="node">
<title>Node46</title>
<g id="a_node46"><a xlink:href="classCDPL_1_1Vis_1_1SVGMolecularGraphWriter.html" target="_top" xlink:title="Creates 2D structure diagrams of molecular graphs in the Scalable Vector Graphics (SVG) [WSVG] format...">
<polygon fill="none" stroke="black" points="847,-0.5 847,-30.5 1004,-30.5 1004,-0.5 847,-0.5"/>
<text text-anchor="start" x="855" y="-18.5" font-family="Helvetica" font-size="10.00">CDPL::Vis::SVGMolecularGraph</text>
<text text-anchor="middle" x="925.5" y="-7.5" font-family="Helvetica" font-size="10.00">Writer</text>
</a>
</g>
</g>
<!-- Node38&#45;&gt;Node46 -->
<g id="edge45" class="edge">
<title>Node38&#45;&gt;Node46</title>
<path fill="none" stroke="midnightblue" d="M740.58,-186.78C754.15,-149.17 785.16,-77.9 836,-39.5 840.57,-36.05 845.61,-33.09 850.89,-30.56"/>
<polygon fill="midnightblue" stroke="midnightblue" points="737.2,-185.85 737.21,-196.44 743.8,-188.15 737.2,-185.85"/>
</g>
</g>
</svg>
        <g id="navigator" transform="translate(0 0)" fill="#404254">
                <rect fill="#f2f5e9" fill-opacity="0.5" stroke="#606060" stroke-width=".5" x="0" y="0" width="60" height="60"/>
                <use id="zoomplus" xlink:href="#zoomPlus" x="17" y="9" onmousedown="handleZoom(evt,'in')"/>
                <use id="zoomminus" xlink:href="#zoomMin" x="42" y="9" onmousedown="handleZoom(evt,'out')"/>
                <use id="reset" xlink:href="#resetDef" x="30" y="36" onmousedown="handleReset()"/>
                <g id="arrowUp" xlink:href="#dirArrow" transform="translate(30 24)" onmousedown="handlePan(0,-1)">
                  <use xlink:href="#rim" fill="#404040">
                        <set attributeName="fill" to="#808080" begin="arrowUp.mouseover" end="arrowUp.mouseout"/>
                  </use>
                  <path fill="none" stroke="white" stroke-width="1.5" d="M0,-3.0v7 M-2.5,-0.5L0,-3.0L2.5,-0.5"/>
                </g>
                <g id="arrowRight" xlink:href="#dirArrow" transform="rotate(90) translate(36 -43)" onmousedown="handlePan(1,0)">
                  <use xlink:href="#rim" fill="#404040">
                        <set attributeName="fill" to="#808080" begin="arrowRight.mouseover" end="arrowRight.mouseout"/>
                  </use>
                  <path fill="none" stroke="white" stroke-width="1.5" d="M0,-3.0v7 M-2.5,-0.5L0,-3.0L2.5,-0.5"/>
                </g>
                <g id="arrowDown" xlink:href="#dirArrow" transform="rotate(180) translate(-30 -48)" onmousedown="handlePan(0,1)">
                  <use xlink:href="#rim" fill="#404040">
                        <set attributeName="fill" to="#808080" begin="arrowDown.mouseover" end="arrowDown.mouseout"/>
                  </use>
                  <path fill="none" stroke="white" stroke-width="1.5" d="M0,-3.0v7 M-2.5,-0.5L0,-3.0L2.5,-0.5"/>
                </g>
                <g id="arrowLeft" xlink:href="#dirArrow" transform="rotate(270) translate(-36 17)" onmousedown="handlePan(-1,0)">
                  <use xlink:href="#rim" fill="#404040">
                        <set attributeName="fill" to="#808080" begin="arrowLeft.mouseover" end="arrowLeft.mouseout"/>
                  </use>
                  <path fill="none" stroke="white" stroke-width="1.5" d="M0,-3.0v7 M-2.5,-0.5L0,-3.0L2.5,-0.5"/>
                </g>
        </g>
        <svg viewBox="0 0 15 15" width="100%" height="30px" preserveAspectRatio="xMaxYMin meet">
         <g id="arrow_out" transform="scale(0.3 0.3)">
          <a xlink:href="classCDPL_1_1Base_1_1DataWriter__inherit__graph_org.svg" target="_base">
           <rect id="button" ry="5" rx="5" y="6" x="6" height="38" width="38"
                fill="#f2f5e9" fill-opacity="0.5" stroke="#606060" stroke-width="1.0"/>
           <path id="arrow"
             d="M 11.500037,31.436501 C 11.940474,20.09759 22.043105,11.32322 32.158766,21.979434 L 37.068811,17.246167 C 37.068811,17.246167 37.088388,32 37.088388,32 L 22.160133,31.978069 C 22.160133,31.978069 26.997745,27.140456 26.997745,27.140456 C 18.528582,18.264221 13.291696,25.230495 11.500037,31.436501 z"
             style="fill:#404040;"/>
          </a>
         </g>
        </svg>
</svg>
