<?xml version="1.0" encoding="UTF-8" standalone="no"?>
<!DOCTYPE svg PUBLIC "-//W3C//DTD SVG 1.1//EN"
 "http://www.w3.org/Graphics/SVG/1.1/DTD/svg11.dtd">
<!-- Generated by graphviz version 2.44.0 (0)
 -->
<!-- Title: CDPL::Math::RegularSpatialGrid&lt; T, C, GD, XF &gt; Pages: 1 -->
<svg width="1065pt" height="129pt"
 viewBox="0.00 0.00 1065.00 129.00" xmlns="http://www.w3.org/2000/svg" xmlns:xlink="http://www.w3.org/1999/xlink">
<g id="graph0" class="graph" transform="scale(1 1) rotate(0) translate(4 125)">
<title>CDPL::Math::RegularSpatialGrid&lt; T, C, GD, XF &gt;</title>
<!-- Node1 -->
<g id="node1" class="node">
<title>Node1</title>
<g id="a_node1"><a xlink:title=" ">
<polygon fill="#bfbfbf" stroke="black" points="917,-28 917,-58 1057,-58 1057,-28 917,-28"/>
<text text-anchor="start" x="925" y="-46" font-family="Helvetica" font-size="10.00">CDPL::Math::RegularSpatial</text>
<text text-anchor="middle" x="987" y="-35" font-family="Helvetica" font-size="10.00">Grid&lt; T, C, GD, XF &gt;</text>
</a>
</g>
</g>
<!-- Node2 -->
<g id="node2" class="node">
<title>Node2</title>
<g id="a_node2"><a xlink:href="classCDPL_1_1Math_1_1GridExpression.html" target="_top" xlink:title=" ">
<polygon fill="none" stroke="black" points="690,-6 690,-80 880,-80 880,-6 690,-6"/>
<text text-anchor="start" x="698" y="-68" font-family="Helvetica" font-size="10.00">CDPL::Math::GridExpression</text>
<text text-anchor="start" x="698" y="-57" font-family="Helvetica" font-size="10.00">&lt; RegularSpatialGrid&lt; T,</text>
<text text-anchor="start" x="698" y="-46" font-family="Helvetica" font-size="10.00"> typename TypeTraits&lt; T &gt;</text>
<text text-anchor="start" x="698" y="-35" font-family="Helvetica" font-size="10.00">::RealType, Grid&lt; T &gt;, CMatrix</text>
<text text-anchor="start" x="698" y="-24" font-family="Helvetica" font-size="10.00">&lt; typename TypeTraits&lt; T &gt;::RealType,</text>
<text text-anchor="middle" x="785" y="-13" font-family="Helvetica" font-size="10.00"> 4, 4 &gt; &gt; &gt;</text>
</a>
</g>
</g>
<!-- Node2&#45;&gt;Node1 -->
<g id="edge1" class="edge">
<title>Node2&#45;&gt;Node1</title>
<path fill="none" stroke="midnightblue" d="M890.29,-43C899.28,-43 908.22,-43 916.83,-43"/>
<polygon fill="midnightblue" stroke="midnightblue" points="890.14,-39.5 880.14,-43 890.14,-46.5 890.14,-39.5"/>
</g>
<!-- Node3 -->
<g id="node3" class="node">
<title>Node3</title>
<g id="a_node3"><a xlink:href="classCDPL_1_1Math_1_1Expression.html" target="_top" xlink:title=" ">
<polygon fill="none" stroke="black" points="337,-40 337,-114 503,-114 503,-40 337,-40"/>
<text text-anchor="start" x="345" y="-102" font-family="Helvetica" font-size="10.00">CDPL::Math::Expression</text>
<text text-anchor="start" x="345" y="-91" font-family="Helvetica" font-size="10.00">&lt; RegularSpatialGrid&lt;</text>
<text text-anchor="start" x="345" y="-80" font-family="Helvetica" font-size="10.00"> T, typename TypeTraits</text>
<text text-anchor="start" x="345" y="-69" font-family="Helvetica" font-size="10.00">&lt; T &gt;::RealType, Grid&lt; T</text>
<text text-anchor="start" x="345" y="-58" font-family="Helvetica" font-size="10.00"> &gt;, CMatrix&lt; typename TypeTraits</text>
<text text-anchor="middle" x="420" y="-47" font-family="Helvetica" font-size="10.00">&lt; T &gt;::RealType, 4, 4 &gt; &gt; &gt;</text>
</a>
</g>
</g>
<!-- Node3&#45;&gt;Node2 -->
<g id="edge2" class="edge">
<title>Node3&#45;&gt;Node2</title>
<path fill="none" stroke="midnightblue" d="M513.46,-75.16C560.97,-73.47 619.73,-70.23 672,-64 677.8,-63.31 683.74,-62.5 689.73,-61.61"/>
<polygon fill="midnightblue" stroke="midnightblue" points="513.07,-71.67 503.19,-75.51 513.3,-78.67 513.07,-71.67"/>
</g>
<!-- Node4 -->
<g id="node4" class="node">
<title>Node4</title>
<g id="a_node4"><a xlink:href="classCDPL_1_1Math_1_1Expression.html" target="_top" xlink:title=" ">
<polygon fill="none" stroke="black" points="0,-32.5 0,-51.5 150,-51.5 150,-32.5 0,-32.5"/>
<text text-anchor="middle" x="75" y="-39.5" font-family="Helvetica" font-size="10.00">CDPL::Math::Expression&lt; E &gt;</text>
</a>
</g>
</g>
<!-- Node4&#45;&gt;Node3 -->
<g id="edge3" class="edge">
<title>Node4&#45;&gt;Node3</title>
<path fill="none" stroke="orange" stroke-dasharray="5,2" d="M160.2,-50.59C213.96,-56.08 283.33,-63.16 336.72,-68.6"/>
<polygon fill="orange" stroke="orange" points="160.31,-47.08 150,-49.55 159.6,-54.05 160.31,-47.08"/>
<text text-anchor="start" x="168" y="-113" font-family="Helvetica" font-size="10.00"> &lt; RegularSpatialGrid</text>
<text text-anchor="start" x="168" y="-102" font-family="Helvetica" font-size="10.00">&lt; T, typename TypeTraits</text>
<text text-anchor="start" x="168" y="-91" font-family="Helvetica" font-size="10.00">&lt; T &gt;::RealType, Grid&lt; T</text>
<text text-anchor="start" x="168" y="-80" font-family="Helvetica" font-size="10.00"> &gt;, CMatrix&lt; typename TypeTraits</text>
<text text-anchor="middle" x="243" y="-69" font-family="Helvetica" font-size="10.00">&lt; T &gt;::RealType, 4, 4 &gt; &gt; &gt;</text>
</g>
<!-- Node5 -->
<g id="node5" class="node">
<title>Node5</title>
<g id="a_node5"><a xlink:href="classCDPL_1_1Math_1_1GridExpression.html" target="_top" xlink:title=" ">
<polygon fill="none" stroke="black" points="336,-0.5 336,-19.5 504,-19.5 504,-0.5 336,-0.5"/>
<text text-anchor="middle" x="420" y="-7.5" font-family="Helvetica" font-size="10.00">CDPL::Math::GridExpression&lt; E &gt;</text>
</a>
</g>
</g>
<!-- Node4&#45;&gt;Node5 -->
<g id="edge5" class="edge">
<title>Node4&#45;&gt;Node5</title>
<path fill="none" stroke="midnightblue" d="M160.14,-34.15C213.6,-29.16 282.52,-22.73 335.8,-17.76"/>
<polygon fill="midnightblue" stroke="midnightblue" points="159.64,-30.68 150,-35.1 160.29,-37.65 159.64,-30.68"/>
</g>
<!-- Node5&#45;&gt;Node2 -->
<g id="edge4" class="edge">
<title>Node5&#45;&gt;Node2</title>
<path fill="none" stroke="orange" stroke-dasharray="5,2" d="M514.52,-2.95C561.94,-1.06 620.3,-1.33 672,-9 677.83,-9.87 683.77,-10.97 689.74,-12.25"/>
<polygon fill="orange" stroke="orange" points="514.1,0.54 504.26,-3.4 514.4,-6.46 514.1,0.54"/>
<text text-anchor="start" x="522" y="-56" font-family="Helvetica" font-size="10.00"> &lt; RegularSpatialGrid</text>
<text text-anchor="start" x="522" y="-45" font-family="Helvetica" font-size="10.00">&lt; T, typename TypeTraits</text>
<text text-anchor="start" x="522" y="-34" font-family="Helvetica" font-size="10.00">&lt; T &gt;::RealType, Grid&lt; T</text>
<text text-anchor="start" x="522" y="-23" font-family="Helvetica" font-size="10.00"> &gt;, CMatrix&lt; typename TypeTraits</text>
<text text-anchor="middle" x="597" y="-12" font-family="Helvetica" font-size="10.00">&lt; T &gt;::RealType, 4, 4 &gt; &gt; &gt;</text>
</g>
</g>
</svg>
