<?xml version="1.0" encoding="UTF-8" standalone="no"?>
<!DOCTYPE svg PUBLIC "-//W3C//DTD SVG 1.1//EN"
 "http://www.w3.org/Graphics/SVG/1.1/DTD/svg11.dtd">
<!-- Generated by graphviz version 2.44.0 (0)
 -->
<!-- Title: CDPL::Math::GridUnary&lt; E, F &gt; Pages: 1 -->
<svg width="320pt" height="252pt"
 viewBox="0.00 0.00 319.50 252.00" xmlns="http://www.w3.org/2000/svg" xmlns:xlink="http://www.w3.org/1999/xlink">
<g id="graph0" class="graph" transform="scale(1 1) rotate(0) translate(4 248)">
<title>CDPL::Math::GridUnary&lt; E, F &gt;</title>
<!-- Node1 -->
<g id="node1" class="node">
<title>Node1</title>
<g id="a_node1"><a xlink:title=" ">
<polygon fill="#bfbfbf" stroke="black" points="83.5,-0.5 83.5,-30.5 205.5,-30.5 205.5,-0.5 83.5,-0.5"/>
<text text-anchor="start" x="91.5" y="-18.5" font-family="Helvetica" font-size="10.00">CDPL::Math::GridUnary</text>
<text text-anchor="middle" x="144.5" y="-7.5" font-family="Helvetica" font-size="10.00">&lt; E, F &gt;</text>
</a>
</g>
</g>
<!-- Node2 -->
<g id="node2" class="node">
<title>Node2</title>
<g id="a_node2"><a xlink:href="classCDPL_1_1Math_1_1GridExpression.html" target="_top" xlink:title=" ">
<polygon fill="none" stroke="black" points="73,-68.5 73,-98.5 216,-98.5 216,-68.5 73,-68.5"/>
<text text-anchor="start" x="81" y="-86.5" font-family="Helvetica" font-size="10.00">CDPL::Math::GridExpression</text>
<text text-anchor="middle" x="144.5" y="-75.5" font-family="Helvetica" font-size="10.00">&lt; GridUnary&lt; E, F &gt; &gt;</text>
</a>
</g>
</g>
<!-- Node2&#45;&gt;Node1 -->
<g id="edge1" class="edge">
<title>Node2&#45;&gt;Node1</title>
<path fill="none" stroke="midnightblue" d="M144.5,-58.03C144.5,-48.86 144.5,-38.74 144.5,-30.79"/>
<polygon fill="midnightblue" stroke="midnightblue" points="141,-58.18 144.5,-68.18 148,-58.18 141,-58.18"/>
</g>
<!-- Node3 -->
<g id="node3" class="node">
<title>Node3</title>
<g id="a_node3"><a xlink:href="classCDPL_1_1Math_1_1Expression.html" target="_top" xlink:title=" ">
<polygon fill="none" stroke="black" points="0,-146.5 0,-176.5 125,-176.5 125,-146.5 0,-146.5"/>
<text text-anchor="start" x="8" y="-164.5" font-family="Helvetica" font-size="10.00">CDPL::Math::Expression</text>
<text text-anchor="middle" x="62.5" y="-153.5" font-family="Helvetica" font-size="10.00">&lt; GridUnary&lt; E, F &gt; &gt;</text>
</a>
</g>
</g>
<!-- Node3&#45;&gt;Node2 -->
<g id="edge2" class="edge">
<title>Node3&#45;&gt;Node2</title>
<path fill="none" stroke="midnightblue" d="M85.27,-139.39C99.26,-126.43 116.8,-110.18 129.15,-98.73"/>
<polygon fill="midnightblue" stroke="midnightblue" points="82.88,-136.84 77.92,-146.2 87.64,-141.97 82.88,-136.84"/>
</g>
<!-- Node4 -->
<g id="node4" class="node">
<title>Node4</title>
<g id="a_node4"><a xlink:href="classCDPL_1_1Math_1_1Expression.html" target="_top" xlink:title=" ">
<polygon fill="none" stroke="black" points="69.5,-224.5 69.5,-243.5 219.5,-243.5 219.5,-224.5 69.5,-224.5"/>
<text text-anchor="middle" x="144.5" y="-231.5" font-family="Helvetica" font-size="10.00">CDPL::Math::Expression&lt; E &gt;</text>
</a>
</g>
</g>
<!-- Node4&#45;&gt;Node3 -->
<g id="edge3" class="edge">
<title>Node4&#45;&gt;Node3</title>
<path fill="none" stroke="orange" stroke-dasharray="5,2" d="M117.77,-219.43C111.16,-215.52 104.32,-210.95 98.5,-206 88.35,-197.36 78.82,-185.62 72.12,-176.52"/>
<polygon fill="orange" stroke="orange" points="116.08,-222.49 126.51,-224.33 119.5,-216.39 116.08,-222.49"/>
<text text-anchor="middle" x="150" y="-198" font-family="Helvetica" font-size="10.00"> &lt; GridUnary&lt; E, F &gt; &gt;</text>
</g>
<!-- Node5 -->
<g id="node5" class="node">
<title>Node5</title>
<g id="a_node5"><a xlink:href="classCDPL_1_1Math_1_1GridExpression.html" target="_top" xlink:title=" ">
<polygon fill="none" stroke="black" points="143.5,-152 143.5,-171 311.5,-171 311.5,-152 143.5,-152"/>
<text text-anchor="middle" x="227.5" y="-159" font-family="Helvetica" font-size="10.00">CDPL::Math::GridExpression&lt; E &gt;</text>
</a>
</g>
</g>
<!-- Node4&#45;&gt;Node5 -->
<g id="edge5" class="edge">
<title>Node4&#45;&gt;Node5</title>
<path fill="none" stroke="midnightblue" d="M179.83,-220.24C187.52,-216.43 195.22,-211.7 201.5,-206 212.31,-196.18 220.03,-180.81 224.13,-171.21"/>
<polygon fill="midnightblue" stroke="midnightblue" points="178.22,-217.13 170.56,-224.45 181.11,-223.51 178.22,-217.13"/>
</g>
<!-- Node5&#45;&gt;Node2 -->
<g id="edge4" class="edge">
<title>Node5&#45;&gt;Node2</title>
<path fill="none" stroke="orange" stroke-dasharray="5,2" d="M210.47,-144.9C195.58,-131.27 174.16,-111.66 159.81,-98.52"/>
<polygon fill="orange" stroke="orange" points="208.24,-147.61 217.98,-151.78 212.97,-142.45 208.24,-147.61"/>
<text text-anchor="middle" x="242" y="-120" font-family="Helvetica" font-size="10.00"> &lt; GridUnary&lt; E, F &gt; &gt;</text>
</g>
</g>
</svg>
