<?xml version="1.0" encoding="UTF-8" standalone="no"?>
<!DOCTYPE svg PUBLIC "-//W3C//DTD SVG 1.1//EN"
 "http://www.w3.org/Graphics/SVG/1.1/DTD/svg11.dtd">
<!-- Generated by graphviz version 2.44.0 (0)
 -->
<!-- Title: CDPL::Vis::LineSegmentListPrimitive2D Pages: 1 -->
<svg width="312pt" height="288pt"
 viewBox="0.00 0.00 312.00 288.00" xmlns="http://www.w3.org/2000/svg" xmlns:xlink="http://www.w3.org/1999/xlink">
<g id="graph0" class="graph" transform="scale(1 1) rotate(0) translate(4 284)">
<title>CDPL::Vis::LineSegmentListPrimitive2D</title>
<!-- Node1 -->
<g id="node1" class="node">
<title>Node1</title>
<g id="a_node1"><a xlink:title="A graphics primitive representing a list of disjoint line segments.">
<polygon fill="#bfbfbf" stroke="black" points="113,-0.5 113,-30.5 255,-30.5 255,-0.5 113,-0.5"/>
<text text-anchor="start" x="121" y="-18.5" font-family="Helvetica" font-size="10.00">CDPL::Vis::LineSegmentList</text>
<text text-anchor="middle" x="184" y="-7.5" font-family="Helvetica" font-size="10.00">Primitive2D</text>
</a>
</g>
</g>
<!-- Node2 -->
<g id="node2" class="node">
<title>Node2</title>
<g id="a_node2"><a xlink:href="classCDPL_1_1Vis_1_1PointArray2D.html" target="_top" xlink:title="Stores a set of points in 2D space.">
<polygon fill="none" stroke="black" points="0,-68.5 0,-87.5 128,-87.5 128,-68.5 0,-68.5"/>
<text text-anchor="middle" x="64" y="-75.5" font-family="Helvetica" font-size="10.00">CDPL::Vis::PointArray2D</text>
</a>
</g>
</g>
<!-- Node2&#45;&gt;Node1 -->
<g id="edge1" class="edge">
<title>Node2&#45;&gt;Node1</title>
<path fill="none" stroke="midnightblue" d="M89.87,-63.96C109.37,-54.13 136.07,-40.66 156.06,-30.59"/>
<polygon fill="midnightblue" stroke="midnightblue" points="88.29,-60.83 80.94,-68.46 91.44,-67.08 88.29,-60.83"/>
</g>
<!-- Node3 -->
<g id="node3" class="node">
<title>Node3</title>
<g id="a_node3"><a xlink:href="classCDPL_1_1Math_1_1VectorArray.html" target="_top" xlink:title="An array for storing generic vector objects.">
<polygon fill="none" stroke="black" points="10.5,-125.5 10.5,-144.5 117.5,-144.5 117.5,-125.5 10.5,-125.5"/>
<text text-anchor="middle" x="64" y="-132.5" font-family="Helvetica" font-size="10.00">Math::Vector2DArray</text>
</a>
</g>
</g>
<!-- Node3&#45;&gt;Node2 -->
<g id="edge2" class="edge">
<title>Node3&#45;&gt;Node2</title>
<path fill="none" stroke="midnightblue" d="M64,-115.12C64,-105.82 64,-95.06 64,-87.71"/>
<polygon fill="midnightblue" stroke="midnightblue" points="60.5,-115.41 64,-125.41 67.5,-115.41 60.5,-115.41"/>
</g>
<!-- Node4 -->
<g id="node4" class="node">
<title>Node4</title>
<g id="a_node4"><a xlink:href="classCDPL_1_1Util_1_1Array.html" target="_top" xlink:title=" ">
<polygon fill="none" stroke="black" points="5,-182.5 5,-201.5 123,-201.5 123,-182.5 5,-182.5"/>
<text text-anchor="middle" x="64" y="-189.5" font-family="Helvetica" font-size="10.00">CDPL::Util::Array&lt; V &gt;</text>
</a>
</g>
</g>
<!-- Node4&#45;&gt;Node3 -->
<g id="edge3" class="edge">
<title>Node4&#45;&gt;Node3</title>
<path fill="none" stroke="midnightblue" d="M64,-172.12C64,-162.82 64,-152.06 64,-144.71"/>
<polygon fill="midnightblue" stroke="midnightblue" points="60.5,-172.41 64,-182.41 67.5,-172.41 60.5,-172.41"/>
</g>
<!-- Node5 -->
<g id="node5" class="node">
<title>Node5</title>
<g id="a_node5"><a xlink:href="classCDPL_1_1Util_1_1Array.html" target="_top" xlink:title="A dynamic array class providing amortized constant time access to arbitrary elements.">
<polygon fill="none" stroke="black" points="14.5,-249.5 14.5,-279.5 113.5,-279.5 113.5,-249.5 14.5,-249.5"/>
<text text-anchor="start" x="22.5" y="-267.5" font-family="Helvetica" font-size="10.00">CDPL::Util::Array&lt;</text>
<text text-anchor="middle" x="64" y="-256.5" font-family="Helvetica" font-size="10.00"> ValueType &gt;</text>
</a>
</g>
</g>
<!-- Node5&#45;&gt;Node4 -->
<g id="edge4" class="edge">
<title>Node5&#45;&gt;Node4</title>
<path fill="none" stroke="orange" stroke-dasharray="5,2" d="M64,-239.09C64,-226.21 64,-211.2 64,-201.89"/>
<polygon fill="orange" stroke="orange" points="60.5,-239.23 64,-249.23 67.5,-239.23 60.5,-239.23"/>
<text text-anchor="middle" x="78" y="-223" font-family="Helvetica" font-size="10.00"> &lt; V &gt;</text>
</g>
<!-- Node6 -->
<g id="node6" class="node">
<title>Node6</title>
<g id="a_node6"><a xlink:href="classCDPL_1_1Vis_1_1GraphicsPrimitive2D.html" target="_top" xlink:title="The abstract base class of all 2D graphics primitives.">
<polygon fill="none" stroke="black" points="146,-68.5 146,-87.5 304,-87.5 304,-68.5 146,-68.5"/>
<text text-anchor="middle" x="225" y="-75.5" font-family="Helvetica" font-size="10.00">CDPL::Vis::GraphicsPrimitive2D</text>
</a>
</g>
</g>
<!-- Node6&#45;&gt;Node1 -->
<g id="edge5" class="edge">
<title>Node6&#45;&gt;Node1</title>
<path fill="none" stroke="midnightblue" d="M213.46,-59.97C207.21,-50.75 199.59,-39.5 193.66,-30.76"/>
<polygon fill="midnightblue" stroke="midnightblue" points="210.62,-62.02 219.13,-68.33 216.41,-58.09 210.62,-62.02"/>
</g>
</g>
</svg>
