<?xml version="1.0" encoding="UTF-8" standalone="no"?>
<!DOCTYPE svg PUBLIC "-//W3C//DTD SVG 1.1//EN"
 "http://www.w3.org/Graphics/SVG/1.1/DTD/svg11.dtd">
<!-- Generated by graphviz version 2.44.0 (0)
 -->
<!-- Title: CDPL::Math::MatrixContainer&lt; C &gt; Pages: 1 -->
<svg width="1789pt" height="541pt"
 viewBox="0.00 0.00 1789.00 541.00" xmlns="http://www.w3.org/2000/svg" xmlns:xlink="http://www.w3.org/1999/xlink">
<g id="graph0" class="graph" transform="scale(1 1) rotate(0) translate(4 537)">
<title>CDPL::Math::MatrixContainer&lt; C &gt;</title>
<!-- Node1 -->
<g id="node1" class="node">
<title>Node1</title>
<g id="a_node1"><a xlink:title=" ">
<polygon fill="#bfbfbf" stroke="black" points="672,-253 672,-272 843,-272 843,-253 672,-253"/>
<text text-anchor="middle" x="757.5" y="-260" font-family="Helvetica" font-size="10.00">CDPL::Math::MatrixContainer&lt; C &gt;</text>
</a>
</g>
</g>
<!-- Node6 -->
<g id="node6" class="node">
<title>Node6</title>
<g id="a_node6"><a xlink:href="classCDPL_1_1Math_1_1MatrixContainer.html" target="_top" xlink:title=" ">
<polygon fill="none" stroke="black" points="1003.5,-502.5 1003.5,-532.5 1149.5,-532.5 1149.5,-502.5 1003.5,-502.5"/>
<text text-anchor="start" x="1011.5" y="-520.5" font-family="Helvetica" font-size="10.00">CDPL::Math::MatrixContainer</text>
<text text-anchor="middle" x="1076.5" y="-509.5" font-family="Helvetica" font-size="10.00">&lt; IdentityMatrix&lt; T &gt; &gt;</text>
</a>
</g>
</g>
<!-- Node1&#45;&gt;Node6 -->
<g id="edge6" class="edge">
<title>Node1&#45;&gt;Node6</title>
<path fill="none" stroke="orange" stroke-dasharray="5,2" d="M761.8,-282.03C770.09,-324.7 796,-426.42 861,-476.5 901.32,-507.57 958.34,-517.32 1003.46,-519.58"/>
<polygon fill="orange" stroke="orange" points="765.22,-281.3 759.98,-272.09 758.34,-282.55 765.22,-281.3"/>
<text text-anchor="middle" x="922" y="-520.5" font-family="Helvetica" font-size="10.00"> &lt; IdentityMatrix&lt; T &gt; &gt;</text>
</g>
<!-- Node8 -->
<g id="node8" class="node">
<title>Node8</title>
<g id="a_node8"><a xlink:href="classCDPL_1_1Math_1_1MatrixContainer.html" target="_top" xlink:title=" ">
<polygon fill="none" stroke="black" points="1003.5,-453.5 1003.5,-483.5 1149.5,-483.5 1149.5,-453.5 1003.5,-453.5"/>
<text text-anchor="start" x="1011.5" y="-471.5" font-family="Helvetica" font-size="10.00">CDPL::Math::MatrixContainer</text>
<text text-anchor="middle" x="1076.5" y="-460.5" font-family="Helvetica" font-size="10.00">&lt; ScalarMatrix&lt; T &gt; &gt;</text>
</a>
</g>
</g>
<!-- Node1&#45;&gt;Node8 -->
<g id="edge8" class="edge">
<title>Node1&#45;&gt;Node8</title>
<path fill="none" stroke="orange" stroke-dasharray="5,2" d="M763.87,-282.04C775.12,-318.96 804.89,-398.66 861,-436.5 883.79,-451.87 950.35,-460.11 1003.35,-464.36"/>
<polygon fill="orange" stroke="orange" points="767.12,-280.67 760.96,-272.04 760.4,-282.62 767.12,-280.67"/>
<text text-anchor="middle" x="922" y="-464.5" font-family="Helvetica" font-size="10.00"> &lt; ScalarMatrix&lt; T &gt; &gt;</text>
</g>
<!-- Node10 -->
<g id="node10" class="node">
<title>Node10</title>
<g id="a_node10"><a xlink:href="classCDPL_1_1Math_1_1MatrixContainer.html" target="_top" xlink:title=" ">
<polygon fill="none" stroke="black" points="1003.5,-404.5 1003.5,-434.5 1149.5,-434.5 1149.5,-404.5 1003.5,-404.5"/>
<text text-anchor="start" x="1011.5" y="-422.5" font-family="Helvetica" font-size="10.00">CDPL::Math::MatrixContainer</text>
<text text-anchor="middle" x="1076.5" y="-411.5" font-family="Helvetica" font-size="10.00">&lt; ScalingMatrix&lt; T &gt; &gt;</text>
</a>
</g>
</g>
<!-- Node1&#45;&gt;Node10 -->
<g id="edge10" class="edge">
<title>Node1&#45;&gt;Node10</title>
<path fill="none" stroke="orange" stroke-dasharray="5,2" d="M767.32,-281.1C782.18,-310.12 815.12,-365.56 861,-391.5 903.99,-415.81 959.41,-422.53 1003.15,-423.32"/>
<polygon fill="orange" stroke="orange" points="770.41,-279.43 762.83,-272.02 764.13,-282.54 770.41,-279.43"/>
<text text-anchor="middle" x="922" y="-424.5" font-family="Helvetica" font-size="10.00"> &lt; ScalingMatrix&lt; T &gt; &gt;</text>
</g>
<!-- Node12 -->
<g id="node12" class="node">
<title>Node12</title>
<g id="a_node12"><a xlink:href="classCDPL_1_1Math_1_1MatrixContainer.html" target="_top" xlink:title=" ">
<polygon fill="none" stroke="black" points="1003.5,-355.5 1003.5,-385.5 1149.5,-385.5 1149.5,-355.5 1003.5,-355.5"/>
<text text-anchor="start" x="1011.5" y="-373.5" font-family="Helvetica" font-size="10.00">CDPL::Math::MatrixContainer</text>
<text text-anchor="middle" x="1076.5" y="-362.5" font-family="Helvetica" font-size="10.00">&lt; TranslationMatrix&lt; T &gt; &gt;</text>
</a>
</g>
</g>
<!-- Node1&#45;&gt;Node12 -->
<g id="edge12" class="edge">
<title>Node1&#45;&gt;Node12</title>
<path fill="none" stroke="orange" stroke-dasharray="5,2" d="M775.22,-279.05C794.27,-296.85 827.16,-324.47 861,-338.5 906.04,-357.18 960.4,-365.14 1003.13,-368.46"/>
<polygon fill="orange" stroke="orange" points="777.59,-276.48 767.94,-272.1 772.75,-281.54 777.59,-276.48"/>
<text text-anchor="start" x="878.5" y="-379.5" font-family="Helvetica" font-size="10.00"> &lt; TranslationMatrix</text>
<text text-anchor="middle" x="922" y="-368.5" font-family="Helvetica" font-size="10.00">&lt; T &gt; &gt;</text>
</g>
<!-- Node14 -->
<g id="node14" class="node">
<title>Node14</title>
<g id="a_node14"><a xlink:href="classCDPL_1_1Math_1_1MatrixContainer.html" target="_top" xlink:title=" ">
<polygon fill="none" stroke="black" points="1003.5,-284.5 1003.5,-336.5 1149.5,-336.5 1149.5,-284.5 1003.5,-284.5"/>
<text text-anchor="start" x="1011.5" y="-324.5" font-family="Helvetica" font-size="10.00">CDPL::Math::MatrixContainer</text>
<text text-anchor="start" x="1011.5" y="-313.5" font-family="Helvetica" font-size="10.00">&lt; SparseMatrix&lt; T, std::</text>
<text text-anchor="start" x="1011.5" y="-302.5" font-family="Helvetica" font-size="10.00">unordered_map&lt; std::uint64</text>
<text text-anchor="middle" x="1076.5" y="-291.5" font-family="Helvetica" font-size="10.00">_t, T &gt; &gt; &gt;</text>
</a>
</g>
</g>
<!-- Node1&#45;&gt;Node14 -->
<g id="edge14" class="edge">
<title>Node1&#45;&gt;Node14</title>
<path fill="none" stroke="orange" stroke-dasharray="5,2" d="M806.54,-274.37C823.65,-278.31 843.11,-282.46 861,-285.5 908.13,-293.51 961.52,-299.74 1003.24,-303.98"/>
<polygon fill="orange" stroke="orange" points="807.3,-270.95 796.76,-272.09 805.7,-277.77 807.3,-270.95"/>
<text text-anchor="start" x="871" y="-326.5" font-family="Helvetica" font-size="10.00"> &lt; SparseMatrix&lt; T,</text>
<text text-anchor="start" x="871" y="-315.5" font-family="Helvetica" font-size="10.00"> std::unordered_map</text>
<text text-anchor="middle" x="922" y="-304.5" font-family="Helvetica" font-size="10.00">&lt; std::uint64_t, T &gt; &gt; &gt;</text>
</g>
<!-- Node16 -->
<g id="node16" class="node">
<title>Node16</title>
<g id="a_node16"><a xlink:href="classCDPL_1_1Math_1_1MatrixContainer.html" target="_top" xlink:title=" ">
<polygon fill="none" stroke="black" points="1001,-235.5 1001,-265.5 1152,-265.5 1152,-235.5 1001,-235.5"/>
<text text-anchor="start" x="1009" y="-253.5" font-family="Helvetica" font-size="10.00">CDPL::Math::MatrixContainer</text>
<text text-anchor="middle" x="1076.5" y="-242.5" font-family="Helvetica" font-size="10.00">&lt; BoundedMatrix&lt; T, M, N &gt; &gt;</text>
</a>
</g>
</g>
<!-- Node1&#45;&gt;Node16 -->
<g id="edge16" class="edge">
<title>Node1&#45;&gt;Node16</title>
<path fill="none" stroke="orange" stroke-dasharray="5,2" d="M853.28,-258.91C900.52,-257.12 956.81,-254.99 1000.92,-253.32"/>
<polygon fill="orange" stroke="orange" points="852.89,-255.42 843.03,-259.3 853.16,-262.42 852.89,-255.42"/>
<text text-anchor="start" x="874.5" y="-273.5" font-family="Helvetica" font-size="10.00"> &lt; BoundedMatrix&lt; T,</text>
<text text-anchor="middle" x="922" y="-262.5" font-family="Helvetica" font-size="10.00"> M, N &gt; &gt;</text>
</g>
<!-- Node18 -->
<g id="node18" class="node">
<title>Node18</title>
<g id="a_node18"><a xlink:href="classCDPL_1_1Math_1_1MatrixContainer.html" target="_top" xlink:title=" ">
<polygon fill="none" stroke="black" points="1170,-184 1170,-225 1330,-225 1330,-184 1170,-184"/>
<text text-anchor="start" x="1178" y="-213" font-family="Helvetica" font-size="10.00">CDPL::Math::MatrixContainer</text>
<text text-anchor="start" x="1178" y="-202" font-family="Helvetica" font-size="10.00">&lt; CMatrix&lt; typename TypeTraits</text>
<text text-anchor="middle" x="1250" y="-191" font-family="Helvetica" font-size="10.00">&lt; T &gt;::RealType, M, N &gt; &gt;</text>
</a>
</g>
</g>
<!-- Node1&#45;&gt;Node18 -->
<g id="edge18" class="edge">
<title>Node1&#45;&gt;Node18</title>
<path fill="none" stroke="orange" stroke-dasharray="5,2" d="M783.73,-248.18C803.93,-237.52 833.35,-223.79 861,-217.5 965.83,-193.66 1090.65,-194.48 1169.85,-198.49"/>
<polygon fill="orange" stroke="orange" points="782,-245.13 774.87,-252.96 785.33,-251.29 782,-245.13"/>
<text text-anchor="start" x="861" y="-242.5" font-family="Helvetica" font-size="10.00"> &lt; CMatrix&lt; typename</text>
<text text-anchor="start" x="861" y="-231.5" font-family="Helvetica" font-size="10.00"> TypeTraits&lt; T &gt;::RealType,</text>
<text text-anchor="middle" x="922" y="-220.5" font-family="Helvetica" font-size="10.00"> M, N &gt; &gt;</text>
</g>
<!-- Node20 -->
<g id="node20" class="node">
<title>Node20</title>
<g id="a_node20"><a xlink:href="classCDPL_1_1Math_1_1MatrixContainer.html" target="_top" xlink:title=" ">
<polygon fill="none" stroke="black" points="1003.5,-147.5 1003.5,-177.5 1149.5,-177.5 1149.5,-147.5 1003.5,-147.5"/>
<text text-anchor="start" x="1011.5" y="-165.5" font-family="Helvetica" font-size="10.00">CDPL::Math::MatrixContainer</text>
<text text-anchor="middle" x="1076.5" y="-154.5" font-family="Helvetica" font-size="10.00">&lt; ZeroMatrix&lt; T &gt; &gt;</text>
</a>
</g>
</g>
<!-- Node1&#45;&gt;Node20 -->
<g id="edge20" class="edge">
<title>Node1&#45;&gt;Node20</title>
<path fill="none" stroke="orange" stroke-dasharray="5,2" d="M772.14,-245.03C789.95,-223.73 823.35,-188.68 861,-173.5 905.96,-155.38 960.57,-152.83 1003.44,-154.7"/>
<polygon fill="orange" stroke="orange" points="769.28,-243 765.69,-252.97 774.71,-247.42 769.28,-243"/>
<text text-anchor="middle" x="922" y="-176.5" font-family="Helvetica" font-size="10.00"> &lt; ZeroMatrix&lt; T &gt; &gt;</text>
</g>
<!-- Node22 -->
<g id="node22" class="node">
<title>Node22</title>
<g id="a_node22"><a xlink:href="classCDPL_1_1Math_1_1MatrixContainer.html" target="_top" xlink:title=" ">
<polygon fill="none" stroke="black" points="1003.5,-98.5 1003.5,-128.5 1149.5,-128.5 1149.5,-98.5 1003.5,-98.5"/>
<text text-anchor="start" x="1011.5" y="-116.5" font-family="Helvetica" font-size="10.00">CDPL::Math::MatrixContainer</text>
<text text-anchor="middle" x="1076.5" y="-105.5" font-family="Helvetica" font-size="10.00">&lt; CMatrix&lt; T, M, N &gt; &gt;</text>
</a>
</g>
</g>
<!-- Node1&#45;&gt;Node22 -->
<g id="edge22" class="edge">
<title>Node1&#45;&gt;Node22</title>
<path fill="none" stroke="orange" stroke-dasharray="5,2" d="M768.18,-243.53C783.62,-215.47 816.64,-163.64 861,-139.5 904.33,-115.92 959.74,-109.71 1003.39,-109.24"/>
<polygon fill="orange" stroke="orange" points="764.91,-242.22 763.3,-252.69 771.09,-245.51 764.91,-242.22"/>
<text text-anchor="middle" x="922" y="-142.5" font-family="Helvetica" font-size="10.00"> &lt; CMatrix&lt; T, M, N &gt; &gt;</text>
</g>
<!-- Node24 -->
<g id="node24" class="node">
<title>Node24</title>
<g id="a_node24"><a xlink:href="classCDPL_1_1Math_1_1MatrixContainer.html" target="_top" xlink:title=" ">
<polygon fill="none" stroke="black" points="1003.5,-49.5 1003.5,-79.5 1149.5,-79.5 1149.5,-49.5 1003.5,-49.5"/>
<text text-anchor="start" x="1011.5" y="-67.5" font-family="Helvetica" font-size="10.00">CDPL::Math::MatrixContainer</text>
<text text-anchor="middle" x="1076.5" y="-56.5" font-family="Helvetica" font-size="10.00">&lt; RotationMatrix&lt; T &gt; &gt;</text>
</a>
</g>
</g>
<!-- Node1&#45;&gt;Node24 -->
<g id="edge25" class="edge">
<title>Node1&#45;&gt;Node24</title>
<path fill="none" stroke="orange" stroke-dasharray="5,2" d="M764.26,-243.21C776.02,-207.49 806.4,-131.42 861,-95.5 902.81,-67.99 959.07,-60.7 1003.48,-60.04"/>
<polygon fill="orange" stroke="orange" points="760.87,-242.32 761.2,-252.91 767.55,-244.42 760.87,-242.32"/>
<text text-anchor="middle" x="922" y="-98.5" font-family="Helvetica" font-size="10.00"> &lt; RotationMatrix&lt; T &gt; &gt;</text>
</g>
<!-- Node26 -->
<g id="node26" class="node">
<title>Node26</title>
<g id="a_node26"><a xlink:href="classCDPL_1_1Math_1_1MatrixContainer.html" target="_top" xlink:title=" ">
<polygon fill="none" stroke="black" points="1003.5,-0.5 1003.5,-30.5 1149.5,-30.5 1149.5,-0.5 1003.5,-0.5"/>
<text text-anchor="start" x="1011.5" y="-18.5" font-family="Helvetica" font-size="10.00">CDPL::Math::MatrixContainer</text>
<text text-anchor="middle" x="1076.5" y="-7.5" font-family="Helvetica" font-size="10.00">&lt; InitListMatrix&lt; T &gt; &gt;</text>
</a>
</g>
</g>
<!-- Node1&#45;&gt;Node26 -->
<g id="edge27" class="edge">
<title>Node1&#45;&gt;Node26</title>
<path fill="none" stroke="orange" stroke-dasharray="5,2" d="M761.52,-242.84C769.31,-199.51 794.32,-95.69 861,-46.5 901.57,-16.57 958.44,-9.48 1003.43,-9.52"/>
<polygon fill="orange" stroke="orange" points="758.07,-242.27 759.87,-252.71 764.97,-243.43 758.07,-242.27"/>
<text text-anchor="middle" x="922" y="-49.5" font-family="Helvetica" font-size="10.00"> &lt; InitListMatrix&lt; T &gt; &gt;</text>
</g>
<!-- Node2 -->
<g id="node2" class="node">
<title>Node2</title>
<g id="a_node2"><a xlink:href="classCDPL_1_1Math_1_1MatrixExpression.html" target="_top" xlink:title=" ">
<polygon fill="none" stroke="black" points="457,-253 457,-272 635,-272 635,-253 457,-253"/>
<text text-anchor="middle" x="546" y="-260" font-family="Helvetica" font-size="10.00">CDPL::Math::MatrixExpression&lt; C &gt;</text>
</a>
</g>
</g>
<!-- Node2&#45;&gt;Node1 -->
<g id="edge1" class="edge">
<title>Node2&#45;&gt;Node1</title>
<path fill="none" stroke="midnightblue" d="M645.49,-262.5C654.25,-262.5 663.07,-262.5 671.71,-262.5"/>
<polygon fill="midnightblue" stroke="midnightblue" points="645.24,-259 635.24,-262.5 645.24,-266 645.24,-259"/>
</g>
<!-- Node3 -->
<g id="node3" class="node">
<title>Node3</title>
<g id="a_node3"><a xlink:href="classCDPL_1_1Math_1_1Expression.html" target="_top" xlink:title=" ">
<polygon fill="none" stroke="black" points="228,-271 228,-290 379,-290 379,-271 228,-271"/>
<text text-anchor="middle" x="303.5" y="-278" font-family="Helvetica" font-size="10.00">CDPL::Math::Expression&lt; C &gt;</text>
</a>
</g>
</g>
<!-- Node3&#45;&gt;Node2 -->
<g id="edge2" class="edge">
<title>Node3&#45;&gt;Node2</title>
<path fill="none" stroke="midnightblue" d="M389.5,-274.14C411.3,-272.51 434.81,-270.75 456.78,-269.1"/>
<polygon fill="midnightblue" stroke="midnightblue" points="388.99,-270.67 379.28,-274.9 389.51,-277.65 388.99,-270.67"/>
</g>
<!-- Node4 -->
<g id="node4" class="node">
<title>Node4</title>
<g id="a_node4"><a xlink:href="classCDPL_1_1Math_1_1Expression.html" target="_top" xlink:title=" ">
<polygon fill="none" stroke="black" points="0,-251 0,-270 150,-270 150,-251 0,-251"/>
<text text-anchor="middle" x="75" y="-258" font-family="Helvetica" font-size="10.00">CDPL::Math::Expression&lt; E &gt;</text>
</a>
</g>
</g>
<!-- Node4&#45;&gt;Node3 -->
<g id="edge3" class="edge">
<title>Node4&#45;&gt;Node3</title>
<path fill="none" stroke="orange" stroke-dasharray="5,2" d="M160.22,-267.94C182.39,-269.89 206.15,-271.99 227.78,-273.9"/>
<polygon fill="orange" stroke="orange" points="160.43,-264.44 150.16,-267.05 159.82,-271.41 160.43,-264.44"/>
<text text-anchor="middle" x="182.5" y="-274.5" font-family="Helvetica" font-size="10.00"> &lt; C &gt;</text>
</g>
<!-- Node5 -->
<g id="node5" class="node">
<title>Node5</title>
<g id="a_node5"><a xlink:href="classCDPL_1_1Math_1_1MatrixExpression.html" target="_top" xlink:title=" ">
<polygon fill="none" stroke="black" points="215,-233 215,-252 392,-252 392,-233 215,-233"/>
<text text-anchor="middle" x="303.5" y="-240" font-family="Helvetica" font-size="10.00">CDPL::Math::MatrixExpression&lt; E &gt;</text>
</a>
</g>
</g>
<!-- Node4&#45;&gt;Node5 -->
<g id="edge5" class="edge">
<title>Node4&#45;&gt;Node5</title>
<path fill="none" stroke="midnightblue" d="M160.47,-253.79C178.19,-252.38 196.93,-250.89 214.77,-249.47"/>
<polygon fill="midnightblue" stroke="midnightblue" points="159.86,-250.32 150.16,-254.61 160.41,-257.3 159.86,-250.32"/>
</g>
<!-- Node5&#45;&gt;Node2 -->
<g id="edge4" class="edge">
<title>Node5&#45;&gt;Node2</title>
<path fill="none" stroke="orange" stroke-dasharray="5,2" d="M401.99,-250.61C420.1,-252.11 438.93,-253.68 456.75,-255.16"/>
<polygon fill="orange" stroke="orange" points="402.26,-247.12 392.01,-249.78 401.68,-254.09 402.26,-247.12"/>
<text text-anchor="middle" x="424.5" y="-256.5" font-family="Helvetica" font-size="10.00"> &lt; C &gt;</text>
</g>
<!-- Node7 -->
<g id="node7" class="node">
<title>Node7</title>
<g id="a_node7"><a xlink:href="classCDPL_1_1Math_1_1IdentityMatrix.html" target="_top" xlink:title=" ">
<polygon fill="none" stroke="black" points="1355.5,-508 1355.5,-527 1515.5,-527 1515.5,-508 1355.5,-508"/>
<text text-anchor="middle" x="1435.5" y="-515" font-family="Helvetica" font-size="10.00">CDPL::Math::IdentityMatrix&lt; T &gt;</text>
</a>
</g>
</g>
<!-- Node6&#45;&gt;Node7 -->
<g id="edge7" class="edge">
<title>Node6&#45;&gt;Node7</title>
<path fill="none" stroke="midnightblue" d="M1160.1,-517.5C1218.83,-517.5 1297.26,-517.5 1355.23,-517.5"/>
<polygon fill="midnightblue" stroke="midnightblue" points="1159.74,-514 1149.74,-517.5 1159.74,-521 1159.74,-514"/>
</g>
<!-- Node9 -->
<g id="node9" class="node">
<title>Node9</title>
<g id="a_node9"><a xlink:href="classCDPL_1_1Math_1_1ScalarMatrix.html" target="_top" xlink:title=" ">
<polygon fill="none" stroke="black" points="1358,-459 1358,-478 1513,-478 1513,-459 1358,-459"/>
<text text-anchor="middle" x="1435.5" y="-466" font-family="Helvetica" font-size="10.00">CDPL::Math::ScalarMatrix&lt; T &gt;</text>
</a>
</g>
</g>
<!-- Node8&#45;&gt;Node9 -->
<g id="edge9" class="edge">
<title>Node8&#45;&gt;Node9</title>
<path fill="none" stroke="midnightblue" d="M1159.88,-468.5C1219.48,-468.5 1299.46,-468.5 1357.73,-468.5"/>
<polygon fill="midnightblue" stroke="midnightblue" points="1159.74,-465 1149.74,-468.5 1159.74,-472 1159.74,-465"/>
</g>
<!-- Node11 -->
<g id="node11" class="node">
<title>Node11</title>
<g id="a_node11"><a xlink:href="classCDPL_1_1Math_1_1ScalingMatrix.html" target="_top" xlink:title=" ">
<polygon fill="none" stroke="black" points="1355.5,-410 1355.5,-429 1515.5,-429 1515.5,-410 1355.5,-410"/>
<text text-anchor="middle" x="1435.5" y="-417" font-family="Helvetica" font-size="10.00">CDPL::Math::ScalingMatrix&lt; T &gt;</text>
</a>
</g>
</g>
<!-- Node10&#45;&gt;Node11 -->
<g id="edge11" class="edge">
<title>Node10&#45;&gt;Node11</title>
<path fill="none" stroke="midnightblue" d="M1160.1,-419.5C1218.83,-419.5 1297.26,-419.5 1355.23,-419.5"/>
<polygon fill="midnightblue" stroke="midnightblue" points="1159.74,-416 1149.74,-419.5 1159.74,-423 1159.74,-416"/>
</g>
<!-- Node13 -->
<g id="node13" class="node">
<title>Node13</title>
<g id="a_node13"><a xlink:href="classCDPL_1_1Math_1_1TranslationMatrix.html" target="_top" xlink:title=" ">
<polygon fill="none" stroke="black" points="1348,-361 1348,-380 1523,-380 1523,-361 1348,-361"/>
<text text-anchor="middle" x="1435.5" y="-368" font-family="Helvetica" font-size="10.00">CDPL::Math::TranslationMatrix&lt; T &gt;</text>
</a>
</g>
</g>
<!-- Node12&#45;&gt;Node13 -->
<g id="edge13" class="edge">
<title>Node12&#45;&gt;Node13</title>
<path fill="none" stroke="midnightblue" d="M1160.04,-370.5C1216.33,-370.5 1290.73,-370.5 1347.87,-370.5"/>
<polygon fill="midnightblue" stroke="midnightblue" points="1159.74,-367 1149.74,-370.5 1159.74,-374 1159.74,-367"/>
</g>
<!-- Node15 -->
<g id="node15" class="node">
<title>Node15</title>
<g id="a_node15"><a xlink:href="classCDPL_1_1Math_1_1SparseMatrix.html" target="_top" xlink:title=" ">
<polygon fill="none" stroke="black" points="1368,-295.5 1368,-325.5 1503,-325.5 1503,-295.5 1368,-295.5"/>
<text text-anchor="start" x="1376" y="-313.5" font-family="Helvetica" font-size="10.00">CDPL::Math::SparseMatrix</text>
<text text-anchor="middle" x="1435.5" y="-302.5" font-family="Helvetica" font-size="10.00">&lt; T, A &gt;</text>
</a>
</g>
</g>
<!-- Node14&#45;&gt;Node15 -->
<g id="edge15" class="edge">
<title>Node14&#45;&gt;Node15</title>
<path fill="none" stroke="midnightblue" d="M1160.06,-310.5C1223.16,-310.5 1309.01,-310.5 1367.79,-310.5"/>
<polygon fill="midnightblue" stroke="midnightblue" points="1159.74,-307 1149.74,-310.5 1159.74,-314 1159.74,-307"/>
</g>
<!-- Node17 -->
<g id="node17" class="node">
<title>Node17</title>
<g id="a_node17"><a xlink:href="classCDPL_1_1Math_1_1BoundedMatrix.html" target="_top" xlink:title=" ">
<polygon fill="none" stroke="black" points="1364.5,-235.5 1364.5,-265.5 1506.5,-265.5 1506.5,-235.5 1364.5,-235.5"/>
<text text-anchor="start" x="1372.5" y="-253.5" font-family="Helvetica" font-size="10.00">CDPL::Math::BoundedMatrix</text>
<text text-anchor="middle" x="1435.5" y="-242.5" font-family="Helvetica" font-size="10.00">&lt; T, M, N &gt;</text>
</a>
</g>
</g>
<!-- Node16&#45;&gt;Node17 -->
<g id="edge17" class="edge">
<title>Node16&#45;&gt;Node17</title>
<path fill="none" stroke="midnightblue" d="M1162.43,-250.5C1224.05,-250.5 1306.4,-250.5 1364.31,-250.5"/>
<polygon fill="midnightblue" stroke="midnightblue" points="1162.34,-247 1152.34,-250.5 1162.34,-254 1162.34,-247"/>
</g>
<!-- Node19 -->
<g id="node19" class="node">
<title>Node19</title>
<g id="a_node19"><a xlink:href="classCDPL_1_1Math_1_1CMatrix.html" target="_top" xlink:title=" ">
<polygon fill="none" stroke="black" points="1662,-139 1662,-180 1781,-180 1781,-139 1662,-139"/>
<text text-anchor="start" x="1670" y="-168" font-family="Helvetica" font-size="10.00">CDPL::Math::CMatrix</text>
<text text-anchor="start" x="1670" y="-157" font-family="Helvetica" font-size="10.00">&lt; typename TypeTraits</text>
<text text-anchor="middle" x="1721.5" y="-146" font-family="Helvetica" font-size="10.00">&lt; T &gt;::RealType, 4, 4 &gt;</text>
</a>
</g>
</g>
<!-- Node18&#45;&gt;Node19 -->
<g id="edge19" class="edge">
<title>Node18&#45;&gt;Node19</title>
<path fill="none" stroke="midnightblue" d="M1340.3,-200.06C1420.14,-195.48 1540.2,-187.06 1644,-173.5 1649.76,-172.75 1655.74,-171.85 1661.71,-170.89"/>
<polygon fill="midnightblue" stroke="midnightblue" points="1340.07,-196.57 1330.29,-200.63 1340.47,-203.56 1340.07,-196.57"/>
</g>
<!-- Node21 -->
<g id="node21" class="node">
<title>Node21</title>
<g id="a_node21"><a xlink:href="classCDPL_1_1Math_1_1ZeroMatrix.html" target="_top" xlink:title=" ">
<polygon fill="none" stroke="black" points="1362,-153 1362,-172 1509,-172 1509,-153 1362,-153"/>
<text text-anchor="middle" x="1435.5" y="-160" font-family="Helvetica" font-size="10.00">CDPL::Math::ZeroMatrix&lt; T &gt;</text>
</a>
</g>
</g>
<!-- Node20&#45;&gt;Node21 -->
<g id="edge21" class="edge">
<title>Node20&#45;&gt;Node21</title>
<path fill="none" stroke="midnightblue" d="M1160.1,-162.5C1221.07,-162.5 1303.26,-162.5 1361.75,-162.5"/>
<polygon fill="midnightblue" stroke="midnightblue" points="1159.74,-159 1149.74,-162.5 1159.74,-166 1159.74,-159"/>
</g>
<!-- Node23 -->
<g id="node23" class="node">
<title>Node23</title>
<g id="a_node23"><a xlink:href="classCDPL_1_1Math_1_1CMatrix.html" target="_top" xlink:title=" ">
<polygon fill="none" stroke="black" points="1380,-101.5 1380,-131.5 1491,-131.5 1491,-101.5 1380,-101.5"/>
<text text-anchor="start" x="1388" y="-119.5" font-family="Helvetica" font-size="10.00">CDPL::Math::CMatrix</text>
<text text-anchor="middle" x="1435.5" y="-108.5" font-family="Helvetica" font-size="10.00">&lt; T, M, N &gt;</text>
</a>
</g>
</g>
<!-- Node22&#45;&gt;Node23 -->
<g id="edge23" class="edge">
<title>Node22&#45;&gt;Node23</title>
<path fill="none" stroke="midnightblue" d="M1159.94,-114.19C1227.51,-114.76 1321.25,-115.55 1379.85,-116.04"/>
<polygon fill="midnightblue" stroke="midnightblue" points="1159.77,-110.69 1149.74,-114.11 1159.71,-117.69 1159.77,-110.69"/>
</g>
<!-- Node23&#45;&gt;Node19 -->
<g id="edge24" class="edge">
<title>Node23&#45;&gt;Node19</title>
<path fill="none" stroke="orange" stroke-dasharray="5,2" d="M1501.31,-126.31C1549.68,-133.64 1615.22,-143.56 1662,-150.64"/>
<polygon fill="orange" stroke="orange" points="1501.67,-122.83 1491.26,-124.79 1500.62,-129.75 1501.67,-122.83"/>
<text text-anchor="start" x="1541" y="-161.5" font-family="Helvetica" font-size="10.00"> &lt; typename TypeTraits</text>
<text text-anchor="middle" x="1592.5" y="-150.5" font-family="Helvetica" font-size="10.00">&lt; T &gt;::RealType, 4, 4 &gt;</text>
</g>
<!-- Node25 -->
<g id="node25" class="node">
<title>Node25</title>
<g id="a_node25"><a xlink:href="classCDPL_1_1Math_1_1RotationMatrix.html" target="_top" xlink:title=" ">
<polygon fill="none" stroke="black" points="1353.5,-55 1353.5,-74 1517.5,-74 1517.5,-55 1353.5,-55"/>
<text text-anchor="middle" x="1435.5" y="-62" font-family="Helvetica" font-size="10.00">CDPL::Math::RotationMatrix&lt; T &gt;</text>
</a>
</g>
</g>
<!-- Node24&#45;&gt;Node25 -->
<g id="edge26" class="edge">
<title>Node24&#45;&gt;Node25</title>
<path fill="none" stroke="midnightblue" d="M1159.99,-64.5C1218.1,-64.5 1295.52,-64.5 1353.33,-64.5"/>
<polygon fill="midnightblue" stroke="midnightblue" points="1159.74,-61 1149.74,-64.5 1159.74,-68 1159.74,-61"/>
</g>
<!-- Node27 -->
<g id="node27" class="node">
<title>Node27</title>
<g id="a_node27"><a xlink:href="classCDPL_1_1Math_1_1InitListMatrix.html" target="_top" xlink:title=" ">
<polygon fill="none" stroke="black" points="1357,-6 1357,-25 1514,-25 1514,-6 1357,-6"/>
<text text-anchor="middle" x="1435.5" y="-13" font-family="Helvetica" font-size="10.00">CDPL::Math::InitListMatrix&lt; T &gt;</text>
</a>
</g>
</g>
<!-- Node26&#45;&gt;Node27 -->
<g id="edge28" class="edge">
<title>Node26&#45;&gt;Node27</title>
<path fill="none" stroke="midnightblue" d="M1159.82,-15.5C1219.12,-15.5 1298.59,-15.5 1356.8,-15.5"/>
<polygon fill="midnightblue" stroke="midnightblue" points="1159.74,-12 1149.74,-15.5 1159.74,-19 1159.74,-12"/>
</g>
</g>
</svg>
