<?xml version="1.0" encoding="UTF-8" standalone="no"?>
<!DOCTYPE svg PUBLIC "-//W3C//DTD SVG 1.1//EN"
 "http://www.w3.org/Graphics/SVG/1.1/DTD/svg11.dtd">
<!-- Generated by graphviz version 2.40.1 (0)
 -->
<!-- Title: CDPL::Math::Scalar13QuaternionTernary&lt; E1, E2, E3, F &gt; Pages: 1 -->
<svg width="1144pt" height="88pt"
 viewBox="0.00 0.00 1144.00 88.00" xmlns="http://www.w3.org/2000/svg" xmlns:xlink="http://www.w3.org/1999/xlink">
<g id="graph0" class="graph" transform="scale(1 1) rotate(0) translate(4 84)">
<title>CDPL::Math::Scalar13QuaternionTernary&lt; E1, E2, E3, F &gt;</title>
<!-- Node1 -->
<g id="node1" class="node">
<title>Node1</title>
<g id="a_node1"><a xlink:title=" ">
<polygon fill="#bfbfbf" stroke="#000000" points="962,-21 962,-51 1136,-51 1136,-21 962,-21"/>
<text text-anchor="start" x="970" y="-39" font-family="Helvetica,sans-Serif" font-size="10.00" fill="#000000">CDPL::Math::Scalar13Quaternion</text>
<text text-anchor="middle" x="1049" y="-28" font-family="Helvetica,sans-Serif" font-size="10.00" fill="#000000">Ternary&lt; E1, E2, E3, F &gt;</text>
</a>
</g>
</g>
<!-- Node2 -->
<g id="node2" class="node">
<title>Node2</title>
<g id="a_node2"><a xlink:href="classCDPL_1_1Math_1_1QuaternionExpression.html" target="_top" xlink:title=" ">
<polygon fill="none" stroke="#000000" points="740,-15.5 740,-56.5 925,-56.5 925,-15.5 740,-15.5"/>
<text text-anchor="start" x="748" y="-44.5" font-family="Helvetica,sans-Serif" font-size="10.00" fill="#000000">CDPL::Math::QuaternionExpression</text>
<text text-anchor="start" x="748" y="-33.5" font-family="Helvetica,sans-Serif" font-size="10.00" fill="#000000">&lt; Scalar13QuaternionTernary</text>
<text text-anchor="middle" x="832.5" y="-22.5" font-family="Helvetica,sans-Serif" font-size="10.00" fill="#000000">&lt; E1, E2, E3, F &gt; &gt;</text>
</a>
</g>
</g>
<!-- Node2&#45;&gt;Node1 -->
<g id="edge1" class="edge">
<title>Node2&#45;&gt;Node1</title>
<path fill="none" stroke="#191970" d="M935.284,-36C944.1946,-36 953.1548,-36 961.9221,-36"/>
<polygon fill="#191970" stroke="#191970" points="935.2577,-32.5001 925.2576,-36 935.2576,-39.5001 935.2577,-32.5001"/>
</g>
<!-- Node3 -->
<g id="node3" class="node">
<title>Node3</title>
<g id="a_node3"><a xlink:href="classCDPL_1_1Math_1_1Expression.html" target="_top" xlink:title=" ">
<polygon fill="none" stroke="#000000" points="370,-38.5 370,-79.5 530,-79.5 530,-38.5 370,-38.5"/>
<text text-anchor="start" x="378" y="-67.5" font-family="Helvetica,sans-Serif" font-size="10.00" fill="#000000">CDPL::Math::Expression</text>
<text text-anchor="start" x="378" y="-56.5" font-family="Helvetica,sans-Serif" font-size="10.00" fill="#000000">&lt; Scalar13QuaternionTernary</text>
<text text-anchor="middle" x="450" y="-45.5" font-family="Helvetica,sans-Serif" font-size="10.00" fill="#000000">&lt; E1, E2, E3, F &gt; &gt;</text>
</a>
</g>
</g>
<!-- Node3&#45;&gt;Node2 -->
<g id="edge2" class="edge">
<title>Node3&#45;&gt;Node2</title>
<path fill="none" stroke="#191970" d="M540.4313,-53.5623C600.5913,-49.9448 679.3891,-45.2067 739.9751,-41.5636"/>
<polygon fill="#191970" stroke="#191970" points="539.9564,-50.0844 530.1845,-54.1784 540.3766,-57.0718 539.9564,-50.0844"/>
</g>
<!-- Node4 -->
<g id="node4" class="node">
<title>Node4</title>
<g id="a_node4"><a xlink:href="classCDPL_1_1Math_1_1Expression.html" target="_top" xlink:title=" ">
<polygon fill="none" stroke="#000000" points="0,-24.5 0,-43.5 160,-43.5 160,-24.5 0,-24.5"/>
<text text-anchor="middle" x="80" y="-31.5" font-family="Helvetica,sans-Serif" font-size="10.00" fill="#000000">CDPL::Math::Expression&lt; E &gt;</text>
</a>
</g>
</g>
<!-- Node4&#45;&gt;Node3 -->
<g id="edge3" class="edge">
<title>Node4&#45;&gt;Node3</title>
<path fill="none" stroke="#ffa500" stroke-dasharray="5,2" d="M170.2915,-40.1008C231.2986,-44.2229 311.121,-49.6163 369.8722,-53.586"/>
<polygon fill="#ffa500" stroke="#ffa500" points="170.4977,-36.6068 160.2845,-39.4246 170.0258,-43.5909 170.4977,-36.6068"/>
<text text-anchor="start" x="178" y="-64" font-family="Helvetica,sans-Serif" font-size="10.00" fill="#000000"> &lt; Scalar13QuaternionTernary</text>
<text text-anchor="middle" x="251.5" y="-53" font-family="Helvetica,sans-Serif" font-size="10.00" fill="#000000">&lt; E1, E2, E3, F &gt; &gt;</text>
</g>
<!-- Node5 -->
<g id="node5" class="node">
<title>Node5</title>
<g id="a_node5"><a xlink:href="classCDPL_1_1Math_1_1QuaternionExpression.html" target="_top" xlink:title=" ">
<polygon fill="none" stroke="#000000" points="343,-.5 343,-19.5 557,-19.5 557,-.5 343,-.5"/>
<text text-anchor="middle" x="450" y="-7.5" font-family="Helvetica,sans-Serif" font-size="10.00" fill="#000000">CDPL::Math::QuaternionExpression&lt; E &gt;</text>
</a>
</g>
</g>
<!-- Node4&#45;&gt;Node5 -->
<g id="edge5" class="edge">
<title>Node4&#45;&gt;Node5</title>
<path fill="none" stroke="#191970" d="M170.5035,-28.1295C222.5444,-24.7539 288.2234,-20.4936 342.8351,-16.9512"/>
<polygon fill="#191970" stroke="#191970" points="170.0369,-24.6523 160.2845,-28.7924 170.4901,-31.6376 170.0369,-24.6523"/>
</g>
<!-- Node5&#45;&gt;Node2 -->
<g id="edge4" class="edge">
<title>Node5&#45;&gt;Node2</title>
<path fill="none" stroke="#ffa500" stroke-dasharray="5,2" d="M567.2647,-8.5678C615.3254,-9.025 671.4348,-10.8982 722,-16 727.8192,-16.5871 733.792,-17.3113 739.8025,-18.1324"/>
<polygon fill="#ffa500" stroke="#ffa500" points="567.1624,-5.067 557.1361,-8.491 567.1093,-12.0668 567.1624,-5.067"/>
<text text-anchor="start" x="575" y="-30" font-family="Helvetica,sans-Serif" font-size="10.00" fill="#000000"> &lt; Scalar13QuaternionTernary</text>
<text text-anchor="middle" x="648.5" y="-19" font-family="Helvetica,sans-Serif" font-size="10.00" fill="#000000">&lt; E1, E2, E3, F &gt; &gt;</text>
</g>
</g>
</svg>
