<?xml version="1.0" encoding="UTF-8" standalone="no"?>
<!DOCTYPE svg PUBLIC "-//W3C//DTD SVG 1.1//EN"
 "http://www.w3.org/Graphics/SVG/1.1/DTD/svg11.dtd">
<!-- Generated by graphviz version 2.44.0 (0)
 -->
<!-- Title: CDPL::Vis::Shape3DVisitor Pages: 1 -->
<svg width="342pt" height="84pt"
 viewBox="0.00 0.00 342.00 84.00" xmlns="http://www.w3.org/2000/svg" xmlns:xlink="http://www.w3.org/1999/xlink">
<g id="graph0" class="graph" transform="scale(1 1) rotate(0) translate(4 80)">
<title>CDPL::Vis::Shape3DVisitor</title>
<!-- Node1 -->
<g id="node1" class="node">
<title>Node1</title>
<g id="a_node1"><a xlink:title="The base of all Vis::Shape3D visitor implementations [VPTN].">
<polygon fill="#bfbfbf" stroke="black" points="96,-56.5 96,-75.5 233,-75.5 233,-56.5 96,-56.5"/>
<text text-anchor="middle" x="164.5" y="-63.5" font-family="Helvetica" font-size="10.00">CDPL::Vis::Shape3DVisitor</text>
</a>
</g>
</g>
<!-- Node2 -->
<g id="node2" class="node">
<title>Node2</title>
<g id="a_node2"><a xlink:href="classCDPL_1_1Vis_1_1STLObject3DWriter.html" target="_top" xlink:title="Outputs 3D visualization data represented by Vis::Object3D instances in the STL [STLFMT] format.">
<polygon fill="none" stroke="black" points="0,-0.5 0,-19.5 153,-19.5 153,-0.5 0,-0.5"/>
<text text-anchor="middle" x="76.5" y="-7.5" font-family="Helvetica" font-size="10.00">CDPL::Vis::STLObject3DWriter</text>
</a>
</g>
</g>
<!-- Node1&#45;&gt;Node2 -->
<g id="edge1" class="edge">
<title>Node1&#45;&gt;Node2</title>
<path fill="none" stroke="#8b1a1a" d="M141.52,-50.9C125.39,-41 104.32,-28.07 90.6,-19.65"/>
<polygon fill="#8b1a1a" stroke="#8b1a1a" points="140.01,-54.08 150.36,-56.32 143.67,-48.11 140.01,-54.08"/>
</g>
<!-- Node3 -->
<g id="node3" class="node">
<title>Node3</title>
<g id="a_node3"><a xlink:href="classCDPL_1_1Vis_1_1VRMLObject3DWriter.html" target="_top" xlink:title="Outputs 3D visualization data represented by Vis::Object3D instances in the VRML [VRML97] format.">
<polygon fill="none" stroke="black" points="171,-0.5 171,-19.5 334,-19.5 334,-0.5 171,-0.5"/>
<text text-anchor="middle" x="252.5" y="-7.5" font-family="Helvetica" font-size="10.00">CDPL::Vis::VRMLObject3DWriter</text>
</a>
</g>
</g>
<!-- Node1&#45;&gt;Node3 -->
<g id="edge2" class="edge">
<title>Node1&#45;&gt;Node3</title>
<path fill="none" stroke="#8b1a1a" d="M187.48,-50.9C203.61,-41 224.68,-28.07 238.4,-19.65"/>
<polygon fill="#8b1a1a" stroke="#8b1a1a" points="185.33,-48.11 178.64,-56.32 188.99,-54.08 185.33,-48.11"/>
</g>
</g>
</svg>
