<?xml version="1.0" encoding="UTF-8" standalone="no"?>
<!DOCTYPE svg PUBLIC "-//W3C//DTD SVG 1.1//EN"
 "http://www.w3.org/Graphics/SVG/1.1/DTD/svg11.dtd">
<!-- Generated by graphviz version 2.44.0 (0)
 -->
<!-- Title: CDPL::Base::IOError Pages: 1 -->
<svg width="154pt" height="196pt"
 viewBox="0.00 0.00 154.00 196.00" xmlns="http://www.w3.org/2000/svg" xmlns:xlink="http://www.w3.org/1999/xlink">
<g id="graph0" class="graph" transform="scale(1 1) rotate(0) translate(4 192)">
<title>CDPL::Base::IOError</title>
<!-- Node1 -->
<g id="node1" class="node">
<title>Node1</title>
<g id="a_node1"><a xlink:title="Thrown to indicate that an I/O operation has failed because of physical (e.g. broken pipe) or logical...">
<polygon fill="#bfbfbf" stroke="black" points="18.5,-0.5 18.5,-19.5 127.5,-19.5 127.5,-0.5 18.5,-0.5"/>
<text text-anchor="middle" x="73" y="-7.5" font-family="Helvetica" font-size="10.00">CDPL::Base::IOError</text>
</a>
</g>
</g>
<!-- Node2 -->
<g id="node2" class="node">
<title>Node2</title>
<g id="a_node2"><a xlink:href="classCDPL_1_1Base_1_1OperationFailed.html" target="_top" xlink:title="Thrown to indicate that some requested operation has failed (e.g. due to unfulfilled preconditions or...">
<polygon fill="none" stroke="black" points="0,-56.5 0,-75.5 146,-75.5 146,-56.5 0,-56.5"/>
<text text-anchor="middle" x="73" y="-63.5" font-family="Helvetica" font-size="10.00">CDPL::Base::OperationFailed</text>
</a>
</g>
</g>
<!-- Node2&#45;&gt;Node1 -->
<g id="edge1" class="edge">
<title>Node2&#45;&gt;Node1</title>
<path fill="none" stroke="midnightblue" d="M73,-45.8C73,-36.91 73,-26.78 73,-19.75"/>
<polygon fill="midnightblue" stroke="midnightblue" points="69.5,-46.08 73,-56.08 76.5,-46.08 69.5,-46.08"/>
</g>
<!-- Node3 -->
<g id="node3" class="node">
<title>Node3</title>
<g id="a_node3"><a xlink:href="classCDPL_1_1Base_1_1Exception.html" target="_top" xlink:title="The root of the CDPL exception hierarchy.">
<polygon fill="none" stroke="black" points="13,-112.5 13,-131.5 133,-131.5 133,-112.5 13,-112.5"/>
<text text-anchor="middle" x="73" y="-119.5" font-family="Helvetica" font-size="10.00">CDPL::Base::Exception</text>
</a>
</g>
</g>
<!-- Node3&#45;&gt;Node2 -->
<g id="edge2" class="edge">
<title>Node3&#45;&gt;Node2</title>
<path fill="none" stroke="midnightblue" d="M73,-101.8C73,-92.91 73,-82.78 73,-75.75"/>
<polygon fill="midnightblue" stroke="midnightblue" points="69.5,-102.08 73,-112.08 76.5,-102.08 69.5,-102.08"/>
</g>
<!-- Node4 -->
<g id="node4" class="node">
<title>Node4</title>
<g id="a_node4"><a xlink:title="STL class.">
<polygon fill="none" stroke="#bfbfbf" points="34.5,-168.5 34.5,-187.5 111.5,-187.5 111.5,-168.5 34.5,-168.5"/>
<text text-anchor="middle" x="73" y="-175.5" font-family="Helvetica" font-size="10.00">std::exception</text>
</a>
</g>
</g>
<!-- Node4&#45;&gt;Node3 -->
<g id="edge3" class="edge">
<title>Node4&#45;&gt;Node3</title>
<path fill="none" stroke="midnightblue" d="M73,-157.8C73,-148.91 73,-138.78 73,-131.75"/>
<polygon fill="midnightblue" stroke="midnightblue" points="69.5,-158.08 73,-168.08 76.5,-158.08 69.5,-158.08"/>
</g>
</g>
</svg>
