<?xml version="1.0" encoding="UTF-8" standalone="no"?>
<!DOCTYPE svg PUBLIC "-//W3C//DTD SVG 1.1//EN"
 "http://www.w3.org/Graphics/SVG/1.1/DTD/svg11.dtd">
<!-- Generated by graphviz version 2.44.0 (0)
 -->
<!-- Title: CDPL::Vis::Shape3D Pages: 1 -->
<svg width="350pt" height="140pt"
 viewBox="0.00 0.00 350.00 140.00" xmlns="http://www.w3.org/2000/svg" xmlns:xlink="http://www.w3.org/1999/xlink">
<g id="graph0" class="graph" transform="scale(1 1) rotate(0) translate(4 136)">
<title>CDPL::Vis::Shape3D</title>
<!-- Node1 -->
<g id="node1" class="node">
<title>Node1</title>
<g id="a_node1"><a xlink:title="The abstract base of all classes describing the geometric shape of 3D objects.">
<polygon fill="#bfbfbf" stroke="black" points="114.5,-112.5 114.5,-131.5 224.5,-131.5 224.5,-112.5 114.5,-112.5"/>
<text text-anchor="middle" x="169.5" y="-119.5" font-family="Helvetica" font-size="10.00">CDPL::Vis::Shape3D</text>
</a>
</g>
</g>
<!-- Node2 -->
<g id="node2" class="node">
<title>Node2</title>
<g id="a_node2"><a xlink:href="classCDPL_1_1Vis_1_1TriangleMesh3D.html" target="_top" xlink:title="Data structure for describing the geometric shape of 3D objects by means of a triangle mesh.">
<polygon fill="none" stroke="black" points="99.5,-56.5 99.5,-75.5 239.5,-75.5 239.5,-56.5 99.5,-56.5"/>
<text text-anchor="middle" x="169.5" y="-63.5" font-family="Helvetica" font-size="10.00">CDPL::Vis::TriangleMesh3D</text>
</a>
</g>
</g>
<!-- Node1&#45;&gt;Node2 -->
<g id="edge1" class="edge">
<title>Node1&#45;&gt;Node2</title>
<path fill="none" stroke="midnightblue" d="M169.5,-101.8C169.5,-92.91 169.5,-82.78 169.5,-75.75"/>
<polygon fill="midnightblue" stroke="midnightblue" points="166,-102.08 169.5,-112.08 173,-102.08 166,-102.08"/>
</g>
<!-- Node3 -->
<g id="node3" class="node">
<title>Node3</title>
<g id="a_node3"><a xlink:href="classCDPL_1_1Vis_1_1IcosahedronMesh3D.html" target="_top" xlink:title="A pre&#45;defined triangle mesh providing the vertices and faces of a regular icosahedron.">
<polygon fill="none" stroke="black" points="0,-0.5 0,-19.5 159,-19.5 159,-0.5 0,-0.5"/>
<text text-anchor="middle" x="79.5" y="-7.5" font-family="Helvetica" font-size="10.00">CDPL::Vis::IcosahedronMesh3D</text>
</a>
</g>
</g>
<!-- Node2&#45;&gt;Node3 -->
<g id="edge2" class="edge">
<title>Node2&#45;&gt;Node3</title>
<path fill="none" stroke="midnightblue" d="M146.46,-51.18C129.9,-41.24 108.08,-28.15 93.92,-19.65"/>
<polygon fill="midnightblue" stroke="midnightblue" points="144.66,-54.18 155.04,-56.32 148.27,-48.18 144.66,-54.18"/>
</g>
<!-- Node4 -->
<g id="node4" class="node">
<title>Node4</title>
<g id="a_node4"><a xlink:href="classCDPL_1_1Vis_1_1RightFrustumMesh3D.html" target="_top" xlink:title="A pre&#45;defined triangle mesh providing the vertices and faces of a right frustum specified by the cont...">
<polygon fill="none" stroke="black" points="177,-0.5 177,-19.5 342,-19.5 342,-0.5 177,-0.5"/>
<text text-anchor="middle" x="259.5" y="-7.5" font-family="Helvetica" font-size="10.00">CDPL::Vis::RightFrustumMesh3D</text>
</a>
</g>
</g>
<!-- Node2&#45;&gt;Node4 -->
<g id="edge3" class="edge">
<title>Node2&#45;&gt;Node4</title>
<path fill="none" stroke="midnightblue" d="M192.54,-51.18C209.1,-41.24 230.92,-28.15 245.08,-19.65"/>
<polygon fill="midnightblue" stroke="midnightblue" points="190.73,-48.18 183.96,-56.32 194.34,-54.18 190.73,-48.18"/>
</g>
</g>
</svg>
