<?xml version="1.0" encoding="UTF-8" standalone="no"?>
<!DOCTYPE svg PUBLIC "-//W3C//DTD SVG 1.1//EN"
 "http://www.w3.org/Graphics/SVG/1.1/DTD/svg11.dtd">
<!-- Generated by graphviz version 2.40.1 (0)
 -->
<!-- Title: CDPL::Util::ObjectPool&lt; T &gt; Pages: 1 -->
<svg width="463pt" height="431pt"
 viewBox="0.00 0.00 463.00 431.00" xmlns="http://www.w3.org/2000/svg" xmlns:xlink="http://www.w3.org/1999/xlink">
<g id="graph0" class="graph" transform="scale(1 1) rotate(0) translate(4 427)">
<title>CDPL::Util::ObjectPool&lt; T &gt;</title>
<!-- Node1 -->
<g id="node1" class="node">
<title>Node1</title>
<g id="a_node1"><a xlink:title="A data structure that caches instances of type T up to a user specified amount.">
<polygon fill="#bfbfbf" stroke="#000000" points="0,-202 0,-221 152,-221 152,-202 0,-202"/>
<text text-anchor="middle" x="76" y="-209" font-family="Helvetica,sans-Serif" font-size="10.00" fill="#000000">CDPL::Util::ObjectPool&lt; T &gt;</text>
</a>
</g>
</g>
<!-- Node2 -->
<g id="node2" class="node">
<title>Node2</title>
<g id="a_node2"><a xlink:href="classCDPL_1_1Util_1_1ObjectPool.html" target="_top" xlink:title=" ">
<polygon fill="none" stroke="#000000" points="317.5,-392.5 317.5,-422.5 452.5,-422.5 452.5,-392.5 317.5,-392.5"/>
<text text-anchor="start" x="325.5" y="-410.5" font-family="Helvetica,sans-Serif" font-size="10.00" fill="#000000">CDPL::Util::ObjectPool</text>
<text text-anchor="middle" x="385" y="-399.5" font-family="Helvetica,sans-Serif" font-size="10.00" fill="#000000">&lt; SubstructDescriptor &gt;</text>
</a>
</g>
</g>
<!-- Node1&#45;&gt;Node2 -->
<g id="edge1" class="edge">
<title>Node1&#45;&gt;Node2</title>
<path fill="none" stroke="#ffa500" stroke-dasharray="5,2" d="M82.2373,-231.1775C93.828,-264.345 121.9731,-331.0307 170,-364.5 212.9415,-394.4253 271.779,-404.6092 317.0487,-407.6253"/>
<polygon fill="#ffa500" stroke="#ffa500" points="85.4283,-229.6836 78.9364,-221.3107 78.7899,-231.9046 85.4283,-229.6836"/>
<text text-anchor="middle" x="233.5" y="-408.5" font-family="Helvetica,sans-Serif" font-size="10.00" fill="#000000"> &lt; SubstructDescriptor &gt;</text>
</g>
<!-- Node3 -->
<g id="node3" class="node">
<title>Node3</title>
<g id="a_node3"><a xlink:href="classCDPL_1_1Util_1_1ObjectPool.html" target="_top" xlink:title=" ">
<polygon fill="none" stroke="#000000" points="323,-343.5 323,-373.5 447,-373.5 447,-343.5 323,-343.5"/>
<text text-anchor="start" x="331" y="-361.5" font-family="Helvetica,sans-Serif" font-size="10.00" fill="#000000">CDPL::Util::ObjectPool</text>
<text text-anchor="middle" x="385" y="-350.5" font-family="Helvetica,sans-Serif" font-size="10.00" fill="#000000">&lt; BasicMolecule &gt;</text>
</a>
</g>
</g>
<!-- Node1&#45;&gt;Node3 -->
<g id="edge2" class="edge">
<title>Node1&#45;&gt;Node3</title>
<path fill="none" stroke="#ffa500" stroke-dasharray="5,2" d="M88.0033,-229.3322C104.0068,-251.6529 134.4783,-289.3895 170,-309.5 217.1407,-336.1885 277.8546,-348.3439 322.7348,-353.8784"/>
<polygon fill="#ffa500" stroke="#ffa500" points="90.8306,-227.2676 82.2371,-221.0706 85.0904,-231.274 90.8306,-227.2676"/>
<text text-anchor="middle" x="233.5" y="-352.5" font-family="Helvetica,sans-Serif" font-size="10.00" fill="#000000"> &lt; BasicMolecule &gt;</text>
</g>
<!-- Node4 -->
<g id="node4" class="node">
<title>Node4</title>
<g id="a_node4"><a xlink:href="classCDPL_1_1Util_1_1ObjectPool.html" target="_top" xlink:title=" ">
<polygon fill="none" stroke="#000000" points="323,-294.5 323,-324.5 447,-324.5 447,-294.5 323,-294.5"/>
<text text-anchor="start" x="331" y="-312.5" font-family="Helvetica,sans-Serif" font-size="10.00" fill="#000000">CDPL::Util::ObjectPool</text>
<text text-anchor="middle" x="385" y="-301.5" font-family="Helvetica,sans-Serif" font-size="10.00" fill="#000000">&lt; PathMessage &gt;</text>
</a>
</g>
</g>
<!-- Node1&#45;&gt;Node4 -->
<g id="edge3" class="edge">
<title>Node1&#45;&gt;Node4</title>
<path fill="none" stroke="#ffa500" stroke-dasharray="5,2" d="M100.0593,-226.2427C118.5975,-237.0508 145.1751,-251.3734 170,-260.5 219.9457,-278.862 279.0388,-291.73 322.6209,-299.6567"/>
<polygon fill="#ffa500" stroke="#ffa500" points="101.7856,-223.1973 91.3989,-221.1075 98.2154,-229.2184 101.7856,-223.1973"/>
<text text-anchor="middle" x="233.5" y="-297.5" font-family="Helvetica,sans-Serif" font-size="10.00" fill="#000000"> &lt; PathMessage &gt;</text>
</g>
<!-- Node5 -->
<g id="node5" class="node">
<title>Node5</title>
<g id="a_node5"><a xlink:href="classCDPL_1_1Util_1_1ObjectPool.html" target="_top" xlink:title=" ">
<polygon fill="none" stroke="#000000" points="323,-245.5 323,-275.5 447,-275.5 447,-245.5 323,-245.5"/>
<text text-anchor="start" x="331" y="-263.5" font-family="Helvetica,sans-Serif" font-size="10.00" fill="#000000">CDPL::Util::ObjectPool</text>
<text text-anchor="middle" x="385" y="-252.5" font-family="Helvetica,sans-Serif" font-size="10.00" fill="#000000">&lt; StructureData &gt;</text>
</a>
</g>
</g>
<!-- Node1&#45;&gt;Node5 -->
<g id="edge4" class="edge">
<title>Node1&#45;&gt;Node5</title>
<path fill="none" stroke="#ffa500" stroke-dasharray="5,2" d="M145.6346,-222.6231C153.8472,-223.9316 162.1097,-225.2466 170,-226.5 221.5047,-234.6819 279.9574,-243.9227 322.9006,-250.7032"/>
<polygon fill="#ffa500" stroke="#ffa500" points="146.0963,-219.1526 135.67,-221.0347 144.9944,-226.0653 146.0963,-219.1526"/>
<text text-anchor="middle" x="233.5" y="-248.5" font-family="Helvetica,sans-Serif" font-size="10.00" fill="#000000"> &lt; StructureData &gt;</text>
</g>
<!-- Node6 -->
<g id="node6" class="node">
<title>Node6</title>
<g id="a_node6"><a xlink:href="classCDPL_1_1Util_1_1ObjectPool.html" target="_top" xlink:title=" ">
<polygon fill="none" stroke="#000000" points="323,-196.5 323,-226.5 447,-226.5 447,-196.5 323,-196.5"/>
<text text-anchor="start" x="331" y="-214.5" font-family="Helvetica,sans-Serif" font-size="10.00" fill="#000000">CDPL::Util::ObjectPool</text>
<text text-anchor="middle" x="385" y="-203.5" font-family="Helvetica,sans-Serif" font-size="10.00" fill="#000000">&lt; BasicAtom &gt;</text>
</a>
</g>
</g>
<!-- Node1&#45;&gt;Node6 -->
<g id="edge5" class="edge">
<title>Node1&#45;&gt;Node6</title>
<path fill="none" stroke="#ffa500" stroke-dasharray="5,2" d="M162.4168,-211.5C213.4607,-211.5 276.898,-211.5 322.9743,-211.5"/>
<polygon fill="#ffa500" stroke="#ffa500" points="162.3821,-208.0001 152.382,-211.5 162.382,-215.0001 162.3821,-208.0001"/>
<text text-anchor="middle" x="233.5" y="-214.5" font-family="Helvetica,sans-Serif" font-size="10.00" fill="#000000"> &lt; BasicAtom &gt;</text>
</g>
<!-- Node7 -->
<g id="node7" class="node">
<title>Node7</title>
<g id="a_node7"><a xlink:href="classCDPL_1_1Util_1_1ObjectPool.html" target="_top" xlink:title=" ">
<polygon fill="none" stroke="#000000" points="323,-147.5 323,-177.5 447,-177.5 447,-147.5 323,-147.5"/>
<text text-anchor="start" x="331" y="-165.5" font-family="Helvetica,sans-Serif" font-size="10.00" fill="#000000">CDPL::Util::ObjectPool</text>
<text text-anchor="middle" x="385" y="-154.5" font-family="Helvetica,sans-Serif" font-size="10.00" fill="#000000">&lt; BasicFeature &gt;</text>
</a>
</g>
</g>
<!-- Node1&#45;&gt;Node7 -->
<g id="edge6" class="edge">
<title>Node1&#45;&gt;Node7</title>
<path fill="none" stroke="#ffa500" stroke-dasharray="5,2" d="M145.6346,-200.3769C153.8472,-199.0684 162.1097,-197.7534 170,-196.5 221.5047,-188.3181 279.9574,-179.0773 322.9006,-172.2968"/>
<polygon fill="#ffa500" stroke="#ffa500" points="144.9944,-196.9347 135.67,-201.9653 146.0963,-203.8474 144.9944,-196.9347"/>
<text text-anchor="middle" x="233.5" y="-199.5" font-family="Helvetica,sans-Serif" font-size="10.00" fill="#000000"> &lt; BasicFeature &gt;</text>
</g>
<!-- Node8 -->
<g id="node8" class="node">
<title>Node8</title>
<g id="a_node8"><a xlink:href="classCDPL_1_1Util_1_1ObjectPool.html" target="_top" xlink:title=" ">
<polygon fill="none" stroke="#000000" points="323,-98.5 323,-128.5 447,-128.5 447,-98.5 323,-98.5"/>
<text text-anchor="start" x="331" y="-116.5" font-family="Helvetica,sans-Serif" font-size="10.00" fill="#000000">CDPL::Util::ObjectPool</text>
<text text-anchor="middle" x="385" y="-105.5" font-family="Helvetica,sans-Serif" font-size="10.00" fill="#000000">&lt; Edge &gt;</text>
</a>
</g>
</g>
<!-- Node1&#45;&gt;Node8 -->
<g id="edge7" class="edge">
<title>Node1&#45;&gt;Node8</title>
<path fill="none" stroke="#ffa500" stroke-dasharray="5,2" d="M99.677,-196.5973C118.2012,-185.5166 144.9356,-170.7702 170,-161.5 219.86,-143.059 278.9604,-130.4926 322.5672,-122.8581"/>
<polygon fill="#ffa500" stroke="#ffa500" points="97.7608,-193.6662 91.0387,-201.8555 101.4005,-199.6456 97.7608,-193.6662"/>
<text text-anchor="middle" x="233.5" y="-164.5" font-family="Helvetica,sans-Serif" font-size="10.00" fill="#000000"> &lt; Edge &gt;</text>
</g>
<!-- Node9 -->
<g id="node9" class="node">
<title>Node9</title>
<g id="a_node9"><a xlink:href="classCDPL_1_1Util_1_1ObjectPool.html" target="_top" xlink:title=" ">
<polygon fill="none" stroke="#000000" points="323,-49.5 323,-79.5 447,-79.5 447,-49.5 323,-49.5"/>
<text text-anchor="start" x="331" y="-67.5" font-family="Helvetica,sans-Serif" font-size="10.00" fill="#000000">CDPL::Util::ObjectPool</text>
<text text-anchor="middle" x="385" y="-56.5" font-family="Helvetica,sans-Serif" font-size="10.00" fill="#000000">&lt; BasicBond &gt;</text>
</a>
</g>
</g>
<!-- Node1&#45;&gt;Node9 -->
<g id="edge8" class="edge">
<title>Node1&#45;&gt;Node9</title>
<path fill="none" stroke="#ffa500" stroke-dasharray="5,2" d="M87.9459,-193.4586C103.8885,-170.8814 134.2955,-132.7291 170,-112.5 217.085,-85.823 277.8048,-73.9719 322.7014,-68.7073"/>
<polygon fill="#ffa500" stroke="#ffa500" points="84.982,-191.5918 82.204,-201.816 90.7515,-195.5558 84.982,-191.5918"/>
<text text-anchor="middle" x="233.5" y="-115.5" font-family="Helvetica,sans-Serif" font-size="10.00" fill="#000000"> &lt; BasicBond &gt;</text>
</g>
<!-- Node10 -->
<g id="node10" class="node">
<title>Node10</title>
<g id="a_node10"><a xlink:href="classCDPL_1_1Util_1_1ObjectPool.html" target="_top" xlink:title=" ">
<polygon fill="none" stroke="#000000" points="315,-.5 315,-30.5 455,-30.5 455,-.5 315,-.5"/>
<text text-anchor="start" x="323" y="-18.5" font-family="Helvetica,sans-Serif" font-size="10.00" fill="#000000">CDPL::Util::ObjectPool</text>
<text text-anchor="middle" x="385" y="-7.5" font-family="Helvetica,sans-Serif" font-size="10.00" fill="#000000">&lt; Math::Vector3DArray &gt;</text>
</a>
</g>
</g>
<!-- Node1&#45;&gt;Node10 -->
<g id="edge9" class="edge">
<title>Node1&#45;&gt;Node10</title>
<path fill="none" stroke="#ffa500" stroke-dasharray="5,2" d="M82.0339,-192.107C93.449,-158.8421 121.5086,-91.2363 170,-57.5 212.1465,-28.1779 269.6313,-18.1016 314.5567,-15.1271"/>
<polygon fill="#ffa500" stroke="#ffa500" points="78.7066,-191.0212 78.9078,-201.6141 85.3564,-193.2078 78.7066,-191.0212"/>
<text text-anchor="middle" x="233.5" y="-60.5" font-family="Helvetica,sans-Serif" font-size="10.00" fill="#000000"> &lt; Math::Vector3DArray &gt;</text>
</g>
</g>
</svg>
