<?xml version="1.0" encoding="UTF-8" standalone="no"?>
<!DOCTYPE svg PUBLIC "-//W3C//DTD SVG 1.1//EN"
 "http://www.w3.org/Graphics/SVG/1.1/DTD/svg11.dtd">
<!-- Generated by graphviz version 2.44.0 (0)
 -->
<!-- Title: CDPL::Math::Scalar13QuaternionTernary&lt; E1, E2, E3, F &gt; Pages: 1 -->
<svg width="1059pt" height="88pt"
 viewBox="0.00 0.00 1059.00 88.00" xmlns="http://www.w3.org/2000/svg" xmlns:xlink="http://www.w3.org/1999/xlink">
<g id="graph0" class="graph" transform="scale(1 1) rotate(0) translate(4 84)">
<title>CDPL::Math::Scalar13QuaternionTernary&lt; E1, E2, E3, F &gt;</title>
<!-- Node1 -->
<g id="node1" class="node">
<title>Node1</title>
<g id="a_node1"><a xlink:title=" ">
<polygon fill="#bfbfbf" stroke="black" points="889,-21 889,-51 1051,-51 1051,-21 889,-21"/>
<text text-anchor="start" x="897" y="-39" font-family="Helvetica" font-size="10.00">CDPL::Math::Scalar13Quaternion</text>
<text text-anchor="middle" x="970" y="-28" font-family="Helvetica" font-size="10.00">Ternary&lt; E1, E2, E3, F &gt;</text>
</a>
</g>
</g>
<!-- Node2 -->
<g id="node2" class="node">
<title>Node2</title>
<g id="a_node2"><a xlink:href="classCDPL_1_1Math_1_1QuaternionExpression.html" target="_top" xlink:title=" ">
<polygon fill="none" stroke="black" points="679,-15.5 679,-56.5 852,-56.5 852,-15.5 679,-15.5"/>
<text text-anchor="start" x="687" y="-44.5" font-family="Helvetica" font-size="10.00">CDPL::Math::QuaternionExpression</text>
<text text-anchor="start" x="687" y="-33.5" font-family="Helvetica" font-size="10.00">&lt; Scalar13QuaternionTernary</text>
<text text-anchor="middle" x="765.5" y="-22.5" font-family="Helvetica" font-size="10.00">&lt; E1, E2, E3, F &gt; &gt;</text>
</a>
</g>
</g>
<!-- Node2&#45;&gt;Node1 -->
<g id="edge1" class="edge">
<title>Node2&#45;&gt;Node1</title>
<path fill="none" stroke="midnightblue" d="M862.15,-36C871.09,-36 880.1,-36 888.88,-36"/>
<polygon fill="midnightblue" stroke="midnightblue" points="862.08,-32.5 852.08,-36 862.08,-39.5 862.08,-32.5"/>
</g>
<!-- Node3 -->
<g id="node3" class="node">
<title>Node3</title>
<g id="a_node3"><a xlink:href="classCDPL_1_1Math_1_1Expression.html" target="_top" xlink:title=" ">
<polygon fill="none" stroke="black" points="343,-38.5 343,-79.5 486,-79.5 486,-38.5 343,-38.5"/>
<text text-anchor="start" x="351" y="-67.5" font-family="Helvetica" font-size="10.00">CDPL::Math::Expression</text>
<text text-anchor="start" x="351" y="-56.5" font-family="Helvetica" font-size="10.00">&lt; Scalar13QuaternionTernary</text>
<text text-anchor="middle" x="414.5" y="-45.5" font-family="Helvetica" font-size="10.00">&lt; E1, E2, E3, F &gt; &gt;</text>
</a>
</g>
</g>
<!-- Node3&#45;&gt;Node2 -->
<g id="edge2" class="edge">
<title>Node3&#45;&gt;Node2</title>
<path fill="none" stroke="midnightblue" d="M496.13,-53.69C550.85,-50.08 623.11,-45.32 678.86,-41.64"/>
<polygon fill="midnightblue" stroke="midnightblue" points="495.87,-50.2 486.13,-54.35 496.33,-57.18 495.87,-50.2"/>
</g>
<!-- Node4 -->
<g id="node4" class="node">
<title>Node4</title>
<g id="a_node4"><a xlink:href="classCDPL_1_1Math_1_1Expression.html" target="_top" xlink:title=" ">
<polygon fill="none" stroke="black" points="0,-24.5 0,-43.5 150,-43.5 150,-24.5 0,-24.5"/>
<text text-anchor="middle" x="75" y="-31.5" font-family="Helvetica" font-size="10.00">CDPL::Math::Expression&lt; E &gt;</text>
</a>
</g>
</g>
<!-- Node4&#45;&gt;Node3 -->
<g id="edge3" class="edge">
<title>Node4&#45;&gt;Node3</title>
<path fill="none" stroke="orange" stroke-dasharray="5,2" d="M160.36,-40.25C216.57,-44.41 289.62,-49.82 342.78,-53.76"/>
<polygon fill="orange" stroke="orange" points="160.3,-36.73 150.07,-39.49 159.78,-43.72 160.3,-36.73"/>
<text text-anchor="start" x="168" y="-64" font-family="Helvetica" font-size="10.00"> &lt; Scalar13QuaternionTernary</text>
<text text-anchor="middle" x="233" y="-53" font-family="Helvetica" font-size="10.00">&lt; E1, E2, E3, F &gt; &gt;</text>
</g>
<!-- Node5 -->
<g id="node5" class="node">
<title>Node5</title>
<g id="a_node5"><a xlink:href="classCDPL_1_1Math_1_1QuaternionExpression.html" target="_top" xlink:title=" ">
<polygon fill="none" stroke="black" points="316,-0.5 316,-19.5 513,-19.5 513,-0.5 316,-0.5"/>
<text text-anchor="middle" x="414.5" y="-7.5" font-family="Helvetica" font-size="10.00">CDPL::Math::QuaternionExpression&lt; E &gt;</text>
</a>
</g>
</g>
<!-- Node4&#45;&gt;Node5 -->
<g id="edge5" class="edge">
<title>Node4&#45;&gt;Node5</title>
<path fill="none" stroke="midnightblue" d="M160.26,-28.01C207.5,-24.65 266.65,-20.44 315.89,-16.94"/>
<polygon fill="midnightblue" stroke="midnightblue" points="159.79,-24.53 150.07,-28.73 160.29,-31.51 159.79,-24.53"/>
</g>
<!-- Node5&#45;&gt;Node2 -->
<g id="edge4" class="edge">
<title>Node5&#45;&gt;Node2</title>
<path fill="none" stroke="orange" stroke-dasharray="5,2" d="M523.29,-9.51C566.23,-10.25 616.05,-12.26 661,-17 666.81,-17.61 672.79,-18.37 678.8,-19.22"/>
<polygon fill="orange" stroke="orange" points="523.15,-6.01 513.1,-9.36 523.04,-13.01 523.15,-6.01"/>
<text text-anchor="start" x="531" y="-31" font-family="Helvetica" font-size="10.00"> &lt; Scalar13QuaternionTernary</text>
<text text-anchor="middle" x="596" y="-20" font-family="Helvetica" font-size="10.00">&lt; E1, E2, E3, F &gt; &gt;</text>
</g>
</g>
</svg>
