<?xml version="1.0" encoding="UTF-8" standalone="no"?>
<!DOCTYPE svg PUBLIC "-//W3C//DTD SVG 1.1//EN"
 "http://www.w3.org/Graphics/SVG/1.1/DTD/svg11.dtd">
<!-- Generated by graphviz version 2.44.0 (0)
 -->
<!-- Title: CDPL::Math::Scalar1GridBinary&lt; E1, E2, F &gt; Pages: 1 -->
<svg width="918pt" height="88pt"
 viewBox="0.00 0.00 918.00 88.00" xmlns="http://www.w3.org/2000/svg" xmlns:xlink="http://www.w3.org/1999/xlink">
<g id="graph0" class="graph" transform="scale(1 1) rotate(0) translate(4 84)">
<title>CDPL::Math::Scalar1GridBinary&lt; E1, E2, F &gt;</title>
<!-- Node1 -->
<g id="node1" class="node">
<title>Node1</title>
<g id="a_node1"><a xlink:title=" ">
<polygon fill="#bfbfbf" stroke="black" points="754,-21 754,-51 910,-51 910,-21 754,-21"/>
<text text-anchor="start" x="762" y="-39" font-family="Helvetica" font-size="10.00">CDPL::Math::Scalar1GridBinary</text>
<text text-anchor="middle" x="832" y="-28" font-family="Helvetica" font-size="10.00">&lt; E1, E2, F &gt;</text>
</a>
</g>
</g>
<!-- Node2 -->
<g id="node2" class="node">
<title>Node2</title>
<g id="a_node2"><a xlink:href="classCDPL_1_1Math_1_1GridExpression.html" target="_top" xlink:title=" ">
<polygon fill="none" stroke="black" points="574,-15.5 574,-56.5 717,-56.5 717,-15.5 574,-15.5"/>
<text text-anchor="start" x="582" y="-44.5" font-family="Helvetica" font-size="10.00">CDPL::Math::GridExpression</text>
<text text-anchor="start" x="582" y="-33.5" font-family="Helvetica" font-size="10.00">&lt; Scalar1GridBinary&lt; E1,</text>
<text text-anchor="middle" x="645.5" y="-22.5" font-family="Helvetica" font-size="10.00"> E2, F &gt; &gt;</text>
</a>
</g>
</g>
<!-- Node2&#45;&gt;Node1 -->
<g id="edge1" class="edge">
<title>Node2&#45;&gt;Node1</title>
<path fill="none" stroke="midnightblue" d="M727.27,-36C736.06,-36 744.99,-36 753.74,-36"/>
<polygon fill="midnightblue" stroke="midnightblue" points="727.04,-32.5 717.04,-36 727.04,-39.5 727.04,-32.5"/>
</g>
<!-- Node3 -->
<g id="node3" class="node">
<title>Node3</title>
<g id="a_node3"><a xlink:href="classCDPL_1_1Math_1_1Expression.html" target="_top" xlink:title=" ">
<polygon fill="none" stroke="black" points="297.5,-38.5 297.5,-79.5 426.5,-79.5 426.5,-38.5 297.5,-38.5"/>
<text text-anchor="start" x="305.5" y="-67.5" font-family="Helvetica" font-size="10.00">CDPL::Math::Expression</text>
<text text-anchor="start" x="305.5" y="-56.5" font-family="Helvetica" font-size="10.00">&lt; Scalar1GridBinary&lt; E1,</text>
<text text-anchor="middle" x="362" y="-45.5" font-family="Helvetica" font-size="10.00"> E2, F &gt; &gt;</text>
</a>
</g>
</g>
<!-- Node3&#45;&gt;Node2 -->
<g id="edge2" class="edge">
<title>Node3&#45;&gt;Node2</title>
<path fill="none" stroke="midnightblue" d="M436.5,-52.99C478.88,-49.53 531.89,-45.2 573.79,-41.78"/>
<polygon fill="midnightblue" stroke="midnightblue" points="436.21,-49.51 426.53,-53.81 436.78,-56.48 436.21,-49.51"/>
</g>
<!-- Node4 -->
<g id="node4" class="node">
<title>Node4</title>
<g id="a_node4"><a xlink:href="classCDPL_1_1Math_1_1Expression.html" target="_top" xlink:title=" ">
<polygon fill="none" stroke="black" points="0,-24.5 0,-43.5 150,-43.5 150,-24.5 0,-24.5"/>
<text text-anchor="middle" x="75" y="-31.5" font-family="Helvetica" font-size="10.00">CDPL::Math::Expression&lt; E &gt;</text>
</a>
</g>
</g>
<!-- Node4&#45;&gt;Node3 -->
<g id="edge3" class="edge">
<title>Node4&#45;&gt;Node3</title>
<path fill="none" stroke="orange" stroke-dasharray="5,2" d="M160.22,-41.39C204.13,-45.24 256.94,-49.87 297.39,-53.42"/>
<polygon fill="orange" stroke="orange" points="160.4,-37.89 150.14,-40.5 159.79,-44.86 160.4,-37.89"/>
<text text-anchor="start" x="168" y="-63" font-family="Helvetica" font-size="10.00"> &lt; Scalar1GridBinary</text>
<text text-anchor="middle" x="214" y="-52" font-family="Helvetica" font-size="10.00">&lt; E1, E2, F &gt; &gt;</text>
</g>
<!-- Node5 -->
<g id="node5" class="node">
<title>Node5</title>
<g id="a_node5"><a xlink:href="classCDPL_1_1Math_1_1GridExpression.html" target="_top" xlink:title=" ">
<polygon fill="none" stroke="black" points="278,-0.5 278,-19.5 446,-19.5 446,-0.5 278,-0.5"/>
<text text-anchor="middle" x="362" y="-7.5" font-family="Helvetica" font-size="10.00">CDPL::Math::GridExpression&lt; E &gt;</text>
</a>
</g>
</g>
<!-- Node4&#45;&gt;Node5 -->
<g id="edge5" class="edge">
<title>Node4&#45;&gt;Node5</title>
<path fill="none" stroke="midnightblue" d="M160.42,-26.89C197.53,-23.77 240.98,-20.11 277.94,-16.99"/>
<polygon fill="midnightblue" stroke="midnightblue" points="159.81,-23.43 150.14,-27.76 160.39,-30.41 159.81,-23.43"/>
</g>
<!-- Node5&#45;&gt;Node2 -->
<g id="edge4" class="edge">
<title>Node5&#45;&gt;Node2</title>
<path fill="none" stroke="orange" stroke-dasharray="5,2" d="M456.52,-10.1C488.2,-11 523.73,-12.98 556,-17 561.77,-17.72 567.72,-18.63 573.68,-19.65"/>
<polygon fill="orange" stroke="orange" points="456.46,-6.59 446.38,-9.84 456.29,-13.59 456.46,-6.59"/>
<text text-anchor="start" x="464" y="-31" font-family="Helvetica" font-size="10.00"> &lt; Scalar1GridBinary</text>
<text text-anchor="middle" x="510" y="-20" font-family="Helvetica" font-size="10.00">&lt; E1, E2, F &gt; &gt;</text>
</g>
</g>
</svg>
