<?xml version="1.0" encoding="UTF-8" standalone="no"?>
<!DOCTYPE svg PUBLIC "-//W3C//DTD SVG 1.1//EN"
 "http://www.w3.org/Graphics/SVG/1.1/DTD/svg11.dtd">
<!-- Generated by graphviz version 2.44.0 (0)
 -->
<!-- Title: CDPL::Math::GridReference&lt; G &gt; Pages: 1 -->
<svg width="320pt" height="241pt"
 viewBox="0.00 0.00 319.50 241.00" xmlns="http://www.w3.org/2000/svg" xmlns:xlink="http://www.w3.org/1999/xlink">
<g id="graph0" class="graph" transform="scale(1 1) rotate(0) translate(4 237)">
<title>CDPL::Math::GridReference&lt; G &gt;</title>
<!-- Node1 -->
<g id="node1" class="node">
<title>Node1</title>
<g id="a_node1"><a xlink:title=" ">
<polygon fill="#bfbfbf" stroke="black" points="62.5,-0.5 62.5,-19.5 226.5,-19.5 226.5,-0.5 62.5,-0.5"/>
<text text-anchor="middle" x="144.5" y="-7.5" font-family="Helvetica" font-size="10.00">CDPL::Math::GridReference&lt; G &gt;</text>
</a>
</g>
</g>
<!-- Node2 -->
<g id="node2" class="node">
<title>Node2</title>
<g id="a_node2"><a xlink:href="classCDPL_1_1Math_1_1GridExpression.html" target="_top" xlink:title=" ">
<polygon fill="none" stroke="black" points="73,-57.5 73,-87.5 216,-87.5 216,-57.5 73,-57.5"/>
<text text-anchor="start" x="81" y="-75.5" font-family="Helvetica" font-size="10.00">CDPL::Math::GridExpression</text>
<text text-anchor="middle" x="144.5" y="-64.5" font-family="Helvetica" font-size="10.00">&lt; GridReference&lt; G &gt; &gt;</text>
</a>
</g>
</g>
<!-- Node2&#45;&gt;Node1 -->
<g id="edge1" class="edge">
<title>Node2&#45;&gt;Node1</title>
<path fill="none" stroke="midnightblue" d="M144.5,-47.35C144.5,-37.51 144.5,-26.78 144.5,-19.54"/>
<polygon fill="midnightblue" stroke="midnightblue" points="141,-47.47 144.5,-57.47 148,-47.47 141,-47.47"/>
</g>
<!-- Node3 -->
<g id="node3" class="node">
<title>Node3</title>
<g id="a_node3"><a xlink:href="classCDPL_1_1Math_1_1Expression.html" target="_top" xlink:title=" ">
<polygon fill="none" stroke="black" points="0,-135.5 0,-165.5 125,-165.5 125,-135.5 0,-135.5"/>
<text text-anchor="start" x="8" y="-153.5" font-family="Helvetica" font-size="10.00">CDPL::Math::Expression</text>
<text text-anchor="middle" x="62.5" y="-142.5" font-family="Helvetica" font-size="10.00">&lt; GridReference&lt; G &gt; &gt;</text>
</a>
</g>
</g>
<!-- Node3&#45;&gt;Node2 -->
<g id="edge2" class="edge">
<title>Node3&#45;&gt;Node2</title>
<path fill="none" stroke="midnightblue" d="M85.27,-128.39C99.26,-115.43 116.8,-99.18 129.15,-87.73"/>
<polygon fill="midnightblue" stroke="midnightblue" points="82.88,-125.84 77.92,-135.2 87.64,-130.97 82.88,-125.84"/>
</g>
<!-- Node4 -->
<g id="node4" class="node">
<title>Node4</title>
<g id="a_node4"><a xlink:href="classCDPL_1_1Math_1_1Expression.html" target="_top" xlink:title=" ">
<polygon fill="none" stroke="black" points="69.5,-213.5 69.5,-232.5 219.5,-232.5 219.5,-213.5 69.5,-213.5"/>
<text text-anchor="middle" x="144.5" y="-220.5" font-family="Helvetica" font-size="10.00">CDPL::Math::Expression&lt; E &gt;</text>
</a>
</g>
</g>
<!-- Node4&#45;&gt;Node3 -->
<g id="edge3" class="edge">
<title>Node4&#45;&gt;Node3</title>
<path fill="none" stroke="orange" stroke-dasharray="5,2" d="M114.29,-208.97C107.05,-205.08 99.65,-200.38 93.5,-195 84.01,-186.69 75.86,-174.93 70.29,-165.74"/>
<polygon fill="orange" stroke="orange" points="112.76,-212.12 123.27,-213.48 115.9,-205.86 112.76,-212.12"/>
<text text-anchor="middle" x="148" y="-187" font-family="Helvetica" font-size="10.00"> &lt; GridReference&lt; G &gt; &gt;</text>
</g>
<!-- Node5 -->
<g id="node5" class="node">
<title>Node5</title>
<g id="a_node5"><a xlink:href="classCDPL_1_1Math_1_1GridExpression.html" target="_top" xlink:title=" ">
<polygon fill="none" stroke="black" points="143.5,-141 143.5,-160 311.5,-160 311.5,-141 143.5,-141"/>
<text text-anchor="middle" x="227.5" y="-148" font-family="Helvetica" font-size="10.00">CDPL::Math::GridExpression&lt; E &gt;</text>
</a>
</g>
</g>
<!-- Node4&#45;&gt;Node5 -->
<g id="edge5" class="edge">
<title>Node4&#45;&gt;Node5</title>
<path fill="none" stroke="midnightblue" d="M180.74,-209.31C188.48,-205.5 196.22,-200.77 202.5,-195 213.15,-185.22 220.5,-169.84 224.35,-160.22"/>
<polygon fill="midnightblue" stroke="midnightblue" points="179.08,-206.22 171.38,-213.49 181.94,-212.6 179.08,-206.22"/>
</g>
<!-- Node5&#45;&gt;Node2 -->
<g id="edge4" class="edge">
<title>Node5&#45;&gt;Node2</title>
<path fill="none" stroke="orange" stroke-dasharray="5,2" d="M210.47,-133.9C195.58,-120.27 174.16,-100.66 159.81,-87.52"/>
<polygon fill="orange" stroke="orange" points="208.24,-136.61 217.98,-140.78 212.97,-131.45 208.24,-136.61"/>
<text text-anchor="middle" x="245" y="-109" font-family="Helvetica" font-size="10.00"> &lt; GridReference&lt; G &gt; &gt;</text>
</g>
</g>
</svg>
