<?xml version="1.0" encoding="UTF-8" standalone="no"?>
<!DOCTYPE svg PUBLIC "-//W3C//DTD SVG 1.1//EN"
 "http://www.w3.org/Graphics/SVG/1.1/DTD/svg11.dtd">
<!-- Generated by graphviz version 2.44.0 (0)
 -->
<!-- Title: CDPL::Util::IndirectArray&lt; ValueType, PointerType, NullPointerCheck &gt; Pages: 1 -->
<svg width="1698pt" height="508pt"
 viewBox="0.00 0.00 1698.00 507.50" xmlns="http://www.w3.org/2000/svg" xmlns:xlink="http://www.w3.org/1999/xlink">
<g id="graph0" class="graph" transform="scale(1 1) rotate(0) translate(4 503.5)">
<title>CDPL::Util::IndirectArray&lt; ValueType, PointerType, NullPointerCheck &gt;</title>
<!-- Node1 -->
<g id="node1" class="node">
<title>Node1</title>
<g id="a_node1"><a xlink:title="A dynamic array class for the storage of object pointers with an indirected query interface.">
<polygon fill="#bfbfbf" stroke="black" points="385,-124 385,-165 516,-165 516,-124 385,-124"/>
<text text-anchor="start" x="393" y="-153" font-family="Helvetica" font-size="10.00">CDPL::Util::IndirectArray</text>
<text text-anchor="start" x="393" y="-142" font-family="Helvetica" font-size="10.00">&lt; ValueType, PointerType,</text>
<text text-anchor="middle" x="450.5" y="-131" font-family="Helvetica" font-size="10.00"> NullPointerCheck &gt;</text>
</a>
</g>
</g>
<!-- Node4 -->
<g id="node4" class="node">
<title>Node4</title>
<g id="a_node4"><a xlink:href="classCDPL_1_1Util_1_1IndirectArray.html" target="_top" xlink:title=" ">
<polygon fill="none" stroke="black" points="661,-253.5 661,-283.5 786,-283.5 786,-253.5 661,-253.5"/>
<text text-anchor="start" x="669" y="-271.5" font-family="Helvetica" font-size="10.00">CDPL::Util::IndirectArray</text>
<text text-anchor="middle" x="723.5" y="-260.5" font-family="Helvetica" font-size="10.00">&lt; Fragment &gt;</text>
</a>
</g>
</g>
<!-- Node1&#45;&gt;Node4 -->
<g id="edge3" class="edge">
<title>Node1&#45;&gt;Node4</title>
<path fill="none" stroke="orange" stroke-dasharray="5,2" d="M490.26,-170.5C503.79,-179.03 519.28,-188.18 534,-195.5 581.13,-218.94 637.75,-239.98 676.55,-253.38"/>
<polygon fill="orange" stroke="orange" points="491.99,-167.45 481.68,-165.02 488.22,-173.35 491.99,-167.45"/>
<text text-anchor="middle" x="581" y="-237.5" font-family="Helvetica" font-size="10.00"> &lt; Fragment &gt;</text>
</g>
<!-- Node15 -->
<g id="node15" class="node">
<title>Node15</title>
<g id="a_node15"><a xlink:href="classCDPL_1_1Util_1_1IndirectArray.html" target="_top" xlink:title=" ">
<polygon fill="none" stroke="black" points="661,-174.5 661,-204.5 786,-204.5 786,-174.5 661,-174.5"/>
<text text-anchor="start" x="669" y="-192.5" font-family="Helvetica" font-size="10.00">CDPL::Util::IndirectArray</text>
<text text-anchor="middle" x="723.5" y="-181.5" font-family="Helvetica" font-size="10.00">&lt; GaussianShape &gt;</text>
</a>
</g>
</g>
<!-- Node1&#45;&gt;Node15 -->
<g id="edge14" class="edge">
<title>Node1&#45;&gt;Node15</title>
<path fill="none" stroke="orange" stroke-dasharray="5,2" d="M525.97,-165.82C528.67,-166.42 531.36,-166.98 534,-167.5 575.87,-175.73 623.61,-181.26 660.58,-184.72"/>
<polygon fill="orange" stroke="orange" points="526.65,-162.39 516.12,-163.54 525.07,-169.21 526.65,-162.39"/>
<text text-anchor="middle" x="581" y="-183.5" font-family="Helvetica" font-size="10.00"> &lt; GaussianShape &gt;</text>
</g>
<!-- Node17 -->
<g id="node17" class="node">
<title>Node17</title>
<g id="a_node17"><a xlink:href="classCDPL_1_1Util_1_1IndirectArray.html" target="_top" xlink:title=" ">
<polygon fill="none" stroke="black" points="819,-124 819,-165 968,-165 968,-124 819,-124"/>
<text text-anchor="start" x="827" y="-153" font-family="Helvetica" font-size="10.00">CDPL::Util::IndirectArray</text>
<text text-anchor="start" x="827" y="-142" font-family="Helvetica" font-size="10.00">&lt; MatchExpression&lt; ObjType,</text>
<text text-anchor="middle" x="893.5" y="-131" font-family="Helvetica" font-size="10.00"> void &gt; &gt;</text>
</a>
</g>
</g>
<!-- Node1&#45;&gt;Node17 -->
<g id="edge16" class="edge">
<title>Node1&#45;&gt;Node17</title>
<path fill="none" stroke="orange" stroke-dasharray="5,2" d="M526.37,-141.66C528.94,-141.6 531.49,-141.55 534,-141.5 632.48,-139.71 746.2,-141.28 818.69,-142.74"/>
<polygon fill="orange" stroke="orange" points="526.25,-138.16 516.34,-141.92 526.43,-145.16 526.25,-138.16"/>
<text text-anchor="start" x="534" y="-155.5" font-family="Helvetica" font-size="10.00"> &lt; MatchExpression&lt;</text>
<text text-anchor="middle" x="581" y="-144.5" font-family="Helvetica" font-size="10.00"> ObjType, void &gt; &gt;</text>
</g>
<!-- Node21 -->
<g id="node21" class="node">
<title>Node21</title>
<g id="a_node21"><a xlink:href="classCDPL_1_1Util_1_1IndirectArray.html" target="_top" xlink:title=" ">
<polygon fill="none" stroke="black" points="661,-17.5 661,-47.5 786,-47.5 786,-17.5 661,-17.5"/>
<text text-anchor="start" x="669" y="-35.5" font-family="Helvetica" font-size="10.00">CDPL::Util::IndirectArray</text>
<text text-anchor="middle" x="723.5" y="-24.5" font-family="Helvetica" font-size="10.00">&lt; ElectronSystem &gt;</text>
</a>
</g>
</g>
<!-- Node1&#45;&gt;Node21 -->
<g id="edge20" class="edge">
<title>Node1&#45;&gt;Node21</title>
<path fill="none" stroke="orange" stroke-dasharray="5,2" d="M478.02,-116.7C493.15,-102.38 513.2,-85.81 534,-75.5 573.69,-55.81 622.57,-45 660.61,-39.14"/>
<polygon fill="orange" stroke="orange" points="475.31,-114.46 470.58,-123.94 480.19,-119.48 475.31,-114.46"/>
<text text-anchor="middle" x="581" y="-78.5" font-family="Helvetica" font-size="10.00"> &lt; ElectronSystem &gt;</text>
</g>
<!-- Node24 -->
<g id="node24" class="node">
<title>Node24</title>
<g id="a_node24"><a xlink:href="classCDPL_1_1Util_1_1IndirectArray.html" target="_top" xlink:title=" ">
<polygon fill="none" stroke="black" points="646,-75 646,-116 801,-116 801,-75 646,-75"/>
<text text-anchor="start" x="654" y="-104" font-family="Helvetica" font-size="10.00">CDPL::Util::IndirectArray</text>
<text text-anchor="start" x="654" y="-93" font-family="Helvetica" font-size="10.00">&lt; MatchExpression&lt; ObjType1,</text>
<text text-anchor="middle" x="723.5" y="-82" font-family="Helvetica" font-size="10.00"> void &gt; &gt;</text>
</a>
</g>
</g>
<!-- Node1&#45;&gt;Node24 -->
<g id="edge23" class="edge">
<title>Node1&#45;&gt;Node24</title>
<path fill="none" stroke="orange" stroke-dasharray="5,2" d="M490.63,-118.87C503.87,-111.52 519.08,-104.44 534,-100.5 569.92,-91.01 611.05,-88.95 645.7,-89.6"/>
<polygon fill="orange" stroke="orange" points="488.72,-115.93 481.81,-123.96 492.22,-121.99 488.72,-115.93"/>
<text text-anchor="start" x="534" y="-114.5" font-family="Helvetica" font-size="10.00"> &lt; MatchExpression&lt;</text>
<text text-anchor="middle" x="581" y="-103.5" font-family="Helvetica" font-size="10.00"> ObjType1, void &gt; &gt;</text>
</g>
<!-- Node2 -->
<g id="node2" class="node">
<title>Node2</title>
<g id="a_node2"><a xlink:href="classCDPL_1_1Util_1_1Array.html" target="_top" xlink:title=" ">
<polygon fill="none" stroke="black" points="238,-124 238,-165 348,-165 348,-124 238,-124"/>
<text text-anchor="start" x="246" y="-153" font-family="Helvetica" font-size="10.00">CDPL::Util::Array&lt;</text>
<text text-anchor="start" x="246" y="-142" font-family="Helvetica" font-size="10.00"> typename ValueType</text>
<text text-anchor="middle" x="293" y="-131" font-family="Helvetica" font-size="10.00">::SharedPointer &gt;</text>
</a>
</g>
</g>
<!-- Node2&#45;&gt;Node1 -->
<g id="edge1" class="edge">
<title>Node2&#45;&gt;Node1</title>
<path fill="none" stroke="midnightblue" d="M358.52,-144.5C367.27,-144.5 376.25,-144.5 385,-144.5"/>
<polygon fill="midnightblue" stroke="midnightblue" points="358.39,-141 348.39,-144.5 358.39,-148 358.39,-141"/>
</g>
<!-- Node3 -->
<g id="node3" class="node">
<title>Node3</title>
<g id="a_node3"><a xlink:href="classCDPL_1_1Util_1_1Array.html" target="_top" xlink:title="A dynamic array class providing amortized constant time access to arbitrary elements.">
<polygon fill="none" stroke="black" points="0,-129.5 0,-159.5 99,-159.5 99,-129.5 0,-129.5"/>
<text text-anchor="start" x="8" y="-147.5" font-family="Helvetica" font-size="10.00">CDPL::Util::Array&lt;</text>
<text text-anchor="middle" x="49.5" y="-136.5" font-family="Helvetica" font-size="10.00"> ValueType &gt;</text>
</a>
</g>
</g>
<!-- Node3&#45;&gt;Node2 -->
<g id="edge2" class="edge">
<title>Node3&#45;&gt;Node2</title>
<path fill="none" stroke="orange" stroke-dasharray="5,2" d="M109.27,-144.5C148.39,-144.5 199.41,-144.5 237.6,-144.5"/>
<polygon fill="orange" stroke="orange" points="109.08,-141 99.08,-144.5 109.08,-148 109.08,-141"/>
<text text-anchor="start" x="117" y="-158.5" font-family="Helvetica" font-size="10.00"> &lt; typename ValueType</text>
<text text-anchor="middle" x="168.5" y="-147.5" font-family="Helvetica" font-size="10.00">::SharedPointer &gt;</text>
</g>
<!-- Node5 -->
<g id="node5" class="node">
<title>Node5</title>
<g id="a_node5"><a xlink:href="classCDPL_1_1Chem_1_1FragmentList.html" target="_top" xlink:title="A data type for the storage of Chem::Fragment objects.">
<polygon fill="none" stroke="black" points="1000.5,-309 1000.5,-328 1138.5,-328 1138.5,-309 1000.5,-309"/>
<text text-anchor="middle" x="1069.5" y="-316" font-family="Helvetica" font-size="10.00">CDPL::Chem::FragmentList</text>
</a>
</g>
</g>
<!-- Node4&#45;&gt;Node5 -->
<g id="edge4" class="edge">
<title>Node4&#45;&gt;Node5</title>
<path fill="none" stroke="midnightblue" d="M795.92,-278.88C856.82,-287.73 943.66,-300.35 1002.85,-308.96"/>
<polygon fill="midnightblue" stroke="midnightblue" points="796.4,-275.41 786,-277.44 795.39,-282.34 796.4,-275.41"/>
</g>
<!-- Node6 -->
<g id="node6" class="node">
<title>Node6</title>
<g id="a_node6"><a xlink:href="classCDPL_1_1Biomol_1_1ResidueList.html" target="_top" xlink:title="Implements the extraction of residues in biological macromolecules.">
<polygon fill="none" stroke="black" points="1306.5,-480 1306.5,-499 1442.5,-499 1442.5,-480 1306.5,-480"/>
<text text-anchor="middle" x="1374.5" y="-487" font-family="Helvetica" font-size="10.00">CDPL::Biomol::ResidueList</text>
</a>
</g>
</g>
<!-- Node5&#45;&gt;Node6 -->
<g id="edge5" class="edge">
<title>Node5&#45;&gt;Node6</title>
<path fill="none" stroke="midnightblue" d="M1084.23,-336.04C1102.26,-358.19 1135.79,-396.42 1171,-421.5 1212.62,-451.15 1226.43,-454.65 1275,-470.5 1286.59,-474.28 1299.21,-477.42 1311.42,-479.97"/>
<polygon fill="midnightblue" stroke="midnightblue" points="1086.89,-333.76 1077.9,-328.14 1081.42,-338.13 1086.89,-333.76"/>
</g>
<!-- Node7 -->
<g id="node7" class="node">
<title>Node7</title>
<g id="a_node7"><a xlink:href="classCDPL_1_1Chem_1_1AromaticRingSet.html" target="_top" xlink:title="Implements the perception of aromatic rings in a molecular graph.">
<polygon fill="none" stroke="black" points="1297,-442 1297,-461 1452,-461 1452,-442 1297,-442"/>
<text text-anchor="middle" x="1374.5" y="-449" font-family="Helvetica" font-size="10.00">CDPL::Chem::AromaticRingSet</text>
</a>
</g>
</g>
<!-- Node5&#45;&gt;Node7 -->
<g id="edge6" class="edge">
<title>Node5&#45;&gt;Node7</title>
<path fill="none" stroke="midnightblue" d="M1090.6,-334.38C1110.33,-349.5 1141.65,-372.3 1171,-388.5 1214.94,-412.75 1226.99,-417.89 1275,-432.5 1287.25,-436.23 1300.58,-439.38 1313.37,-441.98"/>
<polygon fill="midnightblue" stroke="midnightblue" points="1092.7,-331.57 1082.65,-328.22 1088.41,-337.11 1092.7,-331.57"/>
</g>
<!-- Node8 -->
<g id="node8" class="node">
<title>Node8</title>
<g id="a_node8"><a xlink:href="classCDPL_1_1Chem_1_1AromaticSSSRSubset.html" target="_top" xlink:title="Implements the extraction of the aromatic rings in the SSSR of a molecular graph.">
<polygon fill="none" stroke="black" points="1285.5,-404 1285.5,-423 1463.5,-423 1463.5,-404 1285.5,-404"/>
<text text-anchor="middle" x="1374.5" y="-411" font-family="Helvetica" font-size="10.00">CDPL::Chem::AromaticSSSRSubset</text>
</a>
</g>
</g>
<!-- Node5&#45;&gt;Node8 -->
<g id="edge7" class="edge">
<title>Node5&#45;&gt;Node8</title>
<path fill="none" stroke="midnightblue" d="M1100.57,-332.27C1120.38,-341.12 1147,-352.58 1171,-361.5 1216.46,-378.39 1228,-382.55 1275,-394.5 1288.84,-398.02 1303.92,-401.23 1318.03,-403.98"/>
<polygon fill="midnightblue" stroke="midnightblue" points="1101.99,-329.07 1091.43,-328.16 1099.12,-335.46 1101.99,-329.07"/>
</g>
<!-- Node9 -->
<g id="node9" class="node">
<title>Node9</title>
<g id="a_node9"><a xlink:href="classCDPL_1_1Chem_1_1CompleteRingSet.html" target="_top" xlink:title="Implements the exhaustive perception of rings in a molecular graph.">
<polygon fill="none" stroke="black" points="1295.5,-366 1295.5,-385 1453.5,-385 1453.5,-366 1295.5,-366"/>
<text text-anchor="middle" x="1374.5" y="-373" font-family="Helvetica" font-size="10.00">CDPL::Chem::CompleteRingSet</text>
</a>
</g>
</g>
<!-- Node5&#45;&gt;Node9 -->
<g id="edge8" class="edge">
<title>Node5&#45;&gt;Node9</title>
<path fill="none" stroke="midnightblue" d="M1122.02,-330.24C1137.72,-333.69 1155.04,-337.38 1171,-340.5 1218.97,-349.89 1273.59,-359.25 1314.01,-365.93"/>
<polygon fill="midnightblue" stroke="midnightblue" points="1122.5,-326.76 1111.98,-328.01 1120.98,-333.59 1122.5,-326.76"/>
</g>
<!-- Node10 -->
<g id="node10" class="node">
<title>Node10</title>
<g id="a_node10"><a xlink:href="classCDPL_1_1Chem_1_1ComponentSet.html" target="_top" xlink:title="Implements the perception of molecular graph components.">
<polygon fill="none" stroke="black" points="1301.5,-328 1301.5,-347 1447.5,-347 1447.5,-328 1301.5,-328"/>
<text text-anchor="middle" x="1374.5" y="-335" font-family="Helvetica" font-size="10.00">CDPL::Chem::ComponentSet</text>
</a>
</g>
</g>
<!-- Node5&#45;&gt;Node10 -->
<g id="edge9" class="edge">
<title>Node5&#45;&gt;Node10</title>
<path fill="none" stroke="midnightblue" d="M1149.03,-323.42C1196.11,-326.38 1255.53,-330.1 1301.41,-332.98"/>
<polygon fill="midnightblue" stroke="midnightblue" points="1149.08,-319.92 1138.88,-322.79 1148.64,-326.91 1149.08,-319.92"/>
</g>
<!-- Node11 -->
<g id="node11" class="node">
<title>Node11</title>
<g id="a_node11"><a xlink:href="classCDPL_1_1Chem_1_1ConnectedSubstructureSet.html" target="_top" xlink:title="ConnectedSubstructureSet.">
<polygon fill="none" stroke="black" points="1275,-290 1275,-309 1474,-309 1474,-290 1275,-290"/>
<text text-anchor="middle" x="1374.5" y="-297" font-family="Helvetica" font-size="10.00">CDPL::Chem::ConnectedSubstructureSet</text>
</a>
</g>
</g>
<!-- Node5&#45;&gt;Node11 -->
<g id="edge10" class="edge">
<title>Node5&#45;&gt;Node11</title>
<path fill="none" stroke="midnightblue" d="M1148.97,-313.58C1187.41,-311.17 1234.09,-308.24 1274.91,-305.68"/>
<polygon fill="midnightblue" stroke="midnightblue" points="1148.64,-310.09 1138.88,-314.21 1149.08,-317.08 1148.64,-310.09"/>
</g>
<!-- Node12 -->
<g id="node12" class="node">
<title>Node12</title>
<g id="a_node12"><a xlink:href="classCDPL_1_1Chem_1_1ExtendedSSSR.html" target="_top" xlink:title="Implements the perception of the Extended Smallest Set of Smallest Rings (ESSSR) of a molecular graph...">
<polygon fill="none" stroke="black" points="1299.5,-252 1299.5,-271 1449.5,-271 1449.5,-252 1299.5,-252"/>
<text text-anchor="middle" x="1374.5" y="-259" font-family="Helvetica" font-size="10.00">CDPL::Chem::ExtendedSSSR</text>
</a>
</g>
</g>
<!-- Node5&#45;&gt;Node12 -->
<g id="edge11" class="edge">
<title>Node5&#45;&gt;Node12</title>
<path fill="none" stroke="midnightblue" d="M1131.05,-307.11C1187.28,-296.53 1270.06,-280.96 1322.87,-271.02"/>
<polygon fill="midnightblue" stroke="midnightblue" points="1130.4,-303.67 1121.22,-308.96 1131.69,-310.55 1130.4,-303.67"/>
</g>
<!-- Node13 -->
<g id="node13" class="node">
<title>Node13</title>
<g id="a_node13"><a xlink:href="classCDPL_1_1Chem_1_1SmallestSetOfSmallestRings.html" target="_top" xlink:title="Implements the perception of the Smallest Set of Smallest Rings (SSSR) of a molecular graphs.">
<polygon fill="none" stroke="black" points="1302,-202.5 1302,-232.5 1447,-232.5 1447,-202.5 1302,-202.5"/>
<text text-anchor="start" x="1310" y="-220.5" font-family="Helvetica" font-size="10.00">CDPL::Chem::SmallestSetOf</text>
<text text-anchor="middle" x="1374.5" y="-209.5" font-family="Helvetica" font-size="10.00">SmallestRings</text>
</a>
</g>
</g>
<!-- Node5&#45;&gt;Node13 -->
<g id="edge12" class="edge">
<title>Node5&#45;&gt;Node13</title>
<path fill="none" stroke="midnightblue" d="M1103.01,-305.12C1143.03,-288.95 1213.28,-261.55 1275,-242.5 1286.29,-239.01 1298.42,-235.64 1310.18,-232.56"/>
<polygon fill="midnightblue" stroke="midnightblue" points="1101.46,-301.97 1093.51,-308.97 1104.1,-308.46 1101.46,-301.97"/>
</g>
<!-- Node14 -->
<g id="node14" class="node">
<title>Node14</title>
<g id="a_node14"><a xlink:href="classCDPL_1_1ForceField_1_1MMFF94AromaticSSSRSubset.html" target="_top" xlink:title="Implements the extraction of all rings in the SSSR of a molecular graph that are aromatic according t...">
<polygon fill="none" stroke="black" points="1304.5,-153.5 1304.5,-183.5 1444.5,-183.5 1444.5,-153.5 1304.5,-153.5"/>
<text text-anchor="start" x="1312.5" y="-171.5" font-family="Helvetica" font-size="10.00">CDPL::ForceField::MMFF94</text>
<text text-anchor="middle" x="1374.5" y="-160.5" font-family="Helvetica" font-size="10.00">AromaticSSSRSubset</text>
</a>
</g>
</g>
<!-- Node5&#45;&gt;Node14 -->
<g id="edge13" class="edge">
<title>Node5&#45;&gt;Node14</title>
<path fill="none" stroke="midnightblue" d="M1090.4,-302.53C1110.21,-287.01 1141.78,-263.25 1171,-245.5 1215.17,-218.67 1226.56,-211.52 1275,-193.5 1284.92,-189.81 1295.6,-186.48 1306.14,-183.53"/>
<polygon fill="midnightblue" stroke="midnightblue" points="1088.1,-299.89 1082.43,-308.84 1092.44,-305.38 1088.1,-299.89"/>
</g>
<!-- Node16 -->
<g id="node16" class="node">
<title>Node16</title>
<g id="a_node16"><a xlink:href="classCDPL_1_1Shape_1_1GaussianShapeSet.html" target="_top" xlink:title=" ">
<polygon fill="none" stroke="black" points="986,-180 986,-199 1153,-199 1153,-180 986,-180"/>
<text text-anchor="middle" x="1069.5" y="-187" font-family="Helvetica" font-size="10.00">CDPL::Shape::GaussianShapeSet</text>
</a>
</g>
</g>
<!-- Node15&#45;&gt;Node16 -->
<g id="edge15" class="edge">
<title>Node15&#45;&gt;Node16</title>
<path fill="none" stroke="midnightblue" d="M796.07,-189.5C851.36,-189.5 927.98,-189.5 985.88,-189.5"/>
<polygon fill="midnightblue" stroke="midnightblue" points="796,-186 786,-189.5 796,-193 796,-186"/>
</g>
<!-- Node18 -->
<g id="node18" class="node">
<title>Node18</title>
<g id="a_node18"><a xlink:href="classCDPL_1_1Chem_1_1MatchExpressionList.html" target="_top" xlink:title=" ">
<polygon fill="none" stroke="black" points="1296,-103.5 1296,-133.5 1453,-133.5 1453,-103.5 1296,-103.5"/>
<text text-anchor="start" x="1304" y="-121.5" font-family="Helvetica" font-size="10.00">CDPL::Chem::MatchExpression</text>
<text text-anchor="middle" x="1374.5" y="-110.5" font-family="Helvetica" font-size="10.00">List&lt; ObjType, void &gt;</text>
</a>
</g>
</g>
<!-- Node17&#45;&gt;Node18 -->
<g id="edge17" class="edge">
<title>Node17&#45;&gt;Node18</title>
<path fill="none" stroke="midnightblue" d="M978.16,-139.96C1067.76,-135.1 1208.78,-127.44 1295.96,-122.71"/>
<polygon fill="midnightblue" stroke="midnightblue" points="977.83,-136.47 968.03,-140.51 978.21,-143.46 977.83,-136.47"/>
</g>
<!-- Node19 -->
<g id="node19" class="node">
<title>Node19</title>
<g id="a_node19"><a xlink:href="classCDPL_1_1Chem_1_1ANDMatchExpressionList_3_01ObjType_00_01void_01_4.html" target="_top" xlink:title="ANDMatchExpressionList.">
<polygon fill="none" stroke="black" points="1511,-150.5 1511,-180.5 1690,-180.5 1690,-150.5 1511,-150.5"/>
<text text-anchor="start" x="1519" y="-168.5" font-family="Helvetica" font-size="10.00">CDPL::Chem::ANDMatchExpression</text>
<text text-anchor="middle" x="1600.5" y="-157.5" font-family="Helvetica" font-size="10.00">List&lt; ObjType, void &gt;</text>
</a>
</g>
</g>
<!-- Node18&#45;&gt;Node19 -->
<g id="edge18" class="edge">
<title>Node18&#45;&gt;Node19</title>
<path fill="none" stroke="midnightblue" d="M1456.83,-135.57C1480.1,-140.45 1505.28,-145.73 1527.92,-150.48"/>
<polygon fill="midnightblue" stroke="midnightblue" points="1457.5,-132.13 1446.99,-133.5 1456.06,-138.98 1457.5,-132.13"/>
</g>
<!-- Node20 -->
<g id="node20" class="node">
<title>Node20</title>
<g id="a_node20"><a xlink:href="classCDPL_1_1Chem_1_1ORMatchExpressionList_3_01ObjType_00_01void_01_4.html" target="_top" xlink:title="ORMatchExpressionList.">
<polygon fill="none" stroke="black" points="1514.5,-101.5 1514.5,-131.5 1686.5,-131.5 1686.5,-101.5 1514.5,-101.5"/>
<text text-anchor="start" x="1522.5" y="-119.5" font-family="Helvetica" font-size="10.00">CDPL::Chem::ORMatchExpression</text>
<text text-anchor="middle" x="1600.5" y="-108.5" font-family="Helvetica" font-size="10.00">List&lt; ObjType, void &gt;</text>
</a>
</g>
</g>
<!-- Node18&#45;&gt;Node20 -->
<g id="edge19" class="edge">
<title>Node18&#45;&gt;Node20</title>
<path fill="none" stroke="midnightblue" d="M1463.5,-117.71C1480.21,-117.57 1497.66,-117.41 1514.27,-117.26"/>
<polygon fill="midnightblue" stroke="midnightblue" points="1463.18,-114.22 1453.22,-117.81 1463.25,-121.22 1463.18,-114.22"/>
</g>
<!-- Node22 -->
<g id="node22" class="node">
<title>Node22</title>
<g id="a_node22"><a xlink:href="classCDPL_1_1Chem_1_1ElectronSystemList.html" target="_top" xlink:title="A data type for the storage of Chem::ElectronSystem objects.">
<polygon fill="none" stroke="black" points="986.5,-4 986.5,-23 1152.5,-23 1152.5,-4 986.5,-4"/>
<text text-anchor="middle" x="1069.5" y="-11" font-family="Helvetica" font-size="10.00">CDPL::Chem::ElectronSystemList</text>
</a>
</g>
</g>
<!-- Node21&#45;&gt;Node22 -->
<g id="edge21" class="edge">
<title>Node21&#45;&gt;Node22</title>
<path fill="none" stroke="midnightblue" d="M796.09,-28.55C851.48,-25.49 928.26,-21.25 986.2,-18.05"/>
<polygon fill="midnightblue" stroke="midnightblue" points="795.79,-25.06 786,-29.1 796.18,-32.05 795.79,-25.06"/>
</g>
<!-- Node23 -->
<g id="node23" class="node">
<title>Node23</title>
<g id="a_node23"><a xlink:href="classCDPL_1_1Chem_1_1PiElectronSystemList.html" target="_top" xlink:title="Implements the perception of all pi electron systems present in a molecule.">
<polygon fill="none" stroke="black" points="1287,-4 1287,-23 1462,-23 1462,-4 1287,-4"/>
<text text-anchor="middle" x="1374.5" y="-11" font-family="Helvetica" font-size="10.00">CDPL::Chem::PiElectronSystemList</text>
</a>
</g>
</g>
<!-- Node22&#45;&gt;Node23 -->
<g id="edge22" class="edge">
<title>Node22&#45;&gt;Node23</title>
<path fill="none" stroke="midnightblue" d="M1163.03,-13.5C1202.44,-13.5 1248.15,-13.5 1286.89,-13.5"/>
<polygon fill="midnightblue" stroke="midnightblue" points="1162.9,-10 1152.9,-13.5 1162.9,-17 1162.9,-10"/>
</g>
<!-- Node25 -->
<g id="node25" class="node">
<title>Node25</title>
<g id="a_node25"><a xlink:href="classCDPL_1_1Chem_1_1MatchExpressionList.html" target="_top" xlink:title="A container for the storage and evaluation of logical match expression lists.">
<polygon fill="none" stroke="black" points="991,-80.5 991,-110.5 1148,-110.5 1148,-80.5 991,-80.5"/>
<text text-anchor="start" x="999" y="-98.5" font-family="Helvetica" font-size="10.00">CDPL::Chem::MatchExpression</text>
<text text-anchor="middle" x="1069.5" y="-87.5" font-family="Helvetica" font-size="10.00">List&lt; ObjType1, ObjType2 &gt;</text>
</a>
</g>
</g>
<!-- Node24&#45;&gt;Node25 -->
<g id="edge24" class="edge">
<title>Node24&#45;&gt;Node25</title>
<path fill="none" stroke="midnightblue" d="M811.39,-95.5C866.59,-95.5 937.43,-95.5 990.77,-95.5"/>
<polygon fill="midnightblue" stroke="midnightblue" points="811.27,-92 801.27,-95.5 811.27,-99 811.27,-92"/>
</g>
<!-- Node26 -->
<g id="node26" class="node">
<title>Node26</title>
<g id="a_node26"><a xlink:href="classCDPL_1_1Chem_1_1MatchExpressionList.html" target="_top" xlink:title=" ">
<polygon fill="none" stroke="black" points="1296,-48.5 1296,-78.5 1453,-78.5 1453,-48.5 1296,-48.5"/>
<text text-anchor="start" x="1304" y="-66.5" font-family="Helvetica" font-size="10.00">CDPL::Chem::MatchExpression</text>
<text text-anchor="middle" x="1374.5" y="-55.5" font-family="Helvetica" font-size="10.00">List&lt; ObjType1, void &gt;</text>
</a>
</g>
</g>
<!-- Node24&#45;&gt;Node26 -->
<g id="edge29" class="edge">
<title>Node24&#45;&gt;Node26</title>
<path fill="none" stroke="midnightblue" d="M811.02,-85.54C861.9,-80.1 927.52,-73.82 986,-70.5 1093.32,-64.41 1217.59,-63.19 1295.87,-63.14"/>
<polygon fill="midnightblue" stroke="midnightblue" points="810.61,-82.06 801.05,-86.61 811.36,-89.02 810.61,-82.06"/>
</g>
<!-- Node25&#45;&gt;Node18 -->
<g id="edge28" class="edge">
<title>Node25&#45;&gt;Node18</title>
<path fill="none" stroke="orange" stroke-dasharray="5,2" d="M1158.14,-102.15C1201.64,-105.45 1253.74,-109.41 1295.8,-112.6"/>
<polygon fill="orange" stroke="orange" points="1158.37,-98.66 1148.14,-101.39 1157.84,-105.64 1158.37,-98.66"/>
<text text-anchor="middle" x="1214" y="-112.5" font-family="Helvetica" font-size="10.00"> &lt; ObjType, void &gt;</text>
</g>
<!-- Node25&#45;&gt;Node26 -->
<g id="edge25" class="edge">
<title>Node25&#45;&gt;Node26</title>
<path fill="none" stroke="orange" stroke-dasharray="5,2" d="M1158.14,-86.24C1201.64,-81.65 1253.74,-76.15 1295.8,-71.71"/>
<polygon fill="orange" stroke="orange" points="1157.71,-82.77 1148.14,-87.3 1158.45,-89.73 1157.71,-82.77"/>
<text text-anchor="middle" x="1214" y="-87.5" font-family="Helvetica" font-size="10.00"> &lt; ObjType1, void &gt;</text>
</g>
<!-- Node27 -->
<g id="node27" class="node">
<title>Node27</title>
<g id="a_node27"><a xlink:href="classCDPL_1_1Chem_1_1ANDMatchExpressionList.html" target="_top" xlink:title="ANDMatchExpressionList.">
<polygon fill="none" stroke="black" points="1511,-49.5 1511,-79.5 1690,-79.5 1690,-49.5 1511,-49.5"/>
<text text-anchor="start" x="1519" y="-67.5" font-family="Helvetica" font-size="10.00">CDPL::Chem::ANDMatchExpression</text>
<text text-anchor="middle" x="1600.5" y="-56.5" font-family="Helvetica" font-size="10.00">List&lt; ObjType1, ObjType2 &gt;</text>
</a>
</g>
</g>
<!-- Node26&#45;&gt;Node27 -->
<g id="edge26" class="edge">
<title>Node26&#45;&gt;Node27</title>
<path fill="none" stroke="midnightblue" d="M1463.35,-63.89C1478.94,-63.96 1495.18,-64.03 1510.79,-64.1"/>
<polygon fill="midnightblue" stroke="midnightblue" points="1463.23,-60.39 1453.22,-63.85 1463.2,-67.39 1463.23,-60.39"/>
</g>
<!-- Node28 -->
<g id="node28" class="node">
<title>Node28</title>
<g id="a_node28"><a xlink:href="classCDPL_1_1Chem_1_1ORMatchExpressionList.html" target="_top" xlink:title="ORMatchExpressionList.">
<polygon fill="none" stroke="black" points="1514.5,-0.5 1514.5,-30.5 1686.5,-30.5 1686.5,-0.5 1514.5,-0.5"/>
<text text-anchor="start" x="1522.5" y="-18.5" font-family="Helvetica" font-size="10.00">CDPL::Chem::ORMatchExpression</text>
<text text-anchor="middle" x="1600.5" y="-7.5" font-family="Helvetica" font-size="10.00">List&lt; ObjType1, ObjType2 &gt;</text>
</a>
</g>
</g>
<!-- Node26&#45;&gt;Node28 -->
<g id="edge27" class="edge">
<title>Node26&#45;&gt;Node28</title>
<path fill="none" stroke="midnightblue" d="M1455.6,-46.33C1479.75,-41.16 1506.05,-35.52 1529.49,-30.5"/>
<polygon fill="midnightblue" stroke="midnightblue" points="1454.81,-42.93 1445.76,-48.44 1456.27,-49.77 1454.81,-42.93"/>
</g>
</g>
</svg>
