<?xml version="1.0" encoding="UTF-8" standalone="no"?>
<!DOCTYPE svg PUBLIC "-//W3C//DTD SVG 1.1//EN"
 "http://www.w3.org/Graphics/SVG/1.1/DTD/svg11.dtd">
<!-- Generated by graphviz version 2.44.0 (0)
 -->
<!-- Title: CDPL::Vis::Object3DFactory&lt; T &gt; Pages: 1 -->
<svg width="223pt" height="242pt"
 viewBox="0.00 0.00 223.00 242.00" xmlns="http://www.w3.org/2000/svg" xmlns:xlink="http://www.w3.org/1999/xlink">
<g id="graph0" class="graph" transform="scale(1 1) rotate(0) translate(4 238)">
<title>CDPL::Vis::Object3DFactory&lt; T &gt;</title>
<!-- Node1 -->
<g id="node1" class="node">
<title>Node1</title>
<g id="a_node1"><a xlink:title="The abstract base of classes implementing the creation of Vis::Object3D instances for the 3D visualiz...">
<polygon fill="#bfbfbf" stroke="black" points="0,-146.5 0,-165.5 168,-165.5 168,-146.5 0,-146.5"/>
<text text-anchor="middle" x="84" y="-153.5" font-family="Helvetica" font-size="10.00">CDPL::Vis::Object3DFactory&lt; T &gt;</text>
</a>
</g>
</g>
<!-- Node3 -->
<g id="node3" class="node">
<title>Node3</title>
<g id="a_node3"><a xlink:href="classCDPL_1_1Vis_1_1Object3DFactory.html" target="_top" xlink:title=" ">
<polygon fill="none" stroke="black" points="12,-68.5 12,-98.5 156,-98.5 156,-68.5 12,-68.5"/>
<text text-anchor="start" x="20" y="-86.5" font-family="Helvetica" font-size="10.00">CDPL::Vis::Object3DFactory</text>
<text text-anchor="middle" x="84" y="-75.5" font-family="Helvetica" font-size="10.00">&lt; Pharm::FeatureContainer &gt;</text>
</a>
</g>
</g>
<!-- Node1&#45;&gt;Node3 -->
<g id="edge2" class="edge">
<title>Node1&#45;&gt;Node3</title>
<path fill="none" stroke="orange" stroke-dasharray="5,2" d="M84,-136.24C84,-124.41 84,-109.38 84,-98.58"/>
<polygon fill="orange" stroke="orange" points="80.5,-136.36 84,-146.36 87.5,-136.36 80.5,-136.36"/>
<text text-anchor="middle" x="149.5" y="-120" font-family="Helvetica" font-size="10.00"> &lt; Pharm::FeatureContainer &gt;</text>
</g>
<!-- Node2 -->
<g id="node2" class="node">
<title>Node2</title>
<g id="a_node2"><a xlink:href="classCDPL_1_1Base_1_1ControlParameterContainer.html" target="_top" xlink:title="A class providing methods for the storage and lookup of control&#45;parameter values.">
<polygon fill="none" stroke="black" points="7,-203.5 7,-233.5 161,-233.5 161,-203.5 7,-203.5"/>
<text text-anchor="start" x="15" y="-221.5" font-family="Helvetica" font-size="10.00">CDPL::Base::ControlParameter</text>
<text text-anchor="middle" x="84" y="-210.5" font-family="Helvetica" font-size="10.00">Container</text>
</a>
</g>
</g>
<!-- Node2&#45;&gt;Node1 -->
<g id="edge1" class="edge">
<title>Node2&#45;&gt;Node1</title>
<path fill="none" stroke="midnightblue" d="M84,-193.35C84,-183.51 84,-172.78 84,-165.54"/>
<polygon fill="midnightblue" stroke="midnightblue" points="80.5,-193.47 84,-203.47 87.5,-193.47 80.5,-193.47"/>
</g>
<!-- Node4 -->
<g id="node4" class="node">
<title>Node4</title>
<g id="a_node4"><a xlink:href="classCDPL_1_1Vis_1_1FeatureContainerObject3DFactory.html" target="_top" xlink:title="Class implementing the creation of Vis::Object3D instances for the Pharm::FeatureContainer data objec...">
<polygon fill="none" stroke="black" points="12,-0.5 12,-30.5 156,-30.5 156,-0.5 12,-0.5"/>
<text text-anchor="start" x="20" y="-18.5" font-family="Helvetica" font-size="10.00">CDPL::Vis::FeatureContainer</text>
<text text-anchor="middle" x="84" y="-7.5" font-family="Helvetica" font-size="10.00">Object3DFactory</text>
</a>
</g>
</g>
<!-- Node3&#45;&gt;Node4 -->
<g id="edge3" class="edge">
<title>Node3&#45;&gt;Node4</title>
<path fill="none" stroke="midnightblue" d="M84,-58.03C84,-48.86 84,-38.74 84,-30.79"/>
<polygon fill="midnightblue" stroke="midnightblue" points="80.5,-58.18 84,-68.18 87.5,-58.18 80.5,-58.18"/>
</g>
</g>
</svg>
