<?xml version="1.0" encoding="UTF-8" standalone="no"?>
<!DOCTYPE svg PUBLIC "-//W3C//DTD SVG 1.1//EN"
 "http://www.w3.org/Graphics/SVG/1.1/DTD/svg11.dtd">
<!-- Generated by graphviz version 2.44.0 (0)
 -->
<!-- Title: CDPL::Math::QuaternionVectorAdapter&lt; Q &gt; Pages: 1 -->
<svg width="283pt" height="242pt"
 viewBox="0.00 0.00 282.50 242.00" xmlns="http://www.w3.org/2000/svg" xmlns:xlink="http://www.w3.org/1999/xlink">
<g id="graph0" class="graph" transform="scale(1 1) rotate(0) translate(4 238)">
<title>CDPL::Math::QuaternionVectorAdapter&lt; Q &gt;</title>
<!-- Node1 -->
<g id="node1" class="node">
<title>Node1</title>
<g id="a_node1"><a xlink:title=" ">
<polygon fill="#bfbfbf" stroke="black" points="8.5,-0.5 8.5,-30.5 160.5,-30.5 160.5,-0.5 8.5,-0.5"/>
<text text-anchor="start" x="16.5" y="-18.5" font-family="Helvetica" font-size="10.00">CDPL::Math::QuaternionVector</text>
<text text-anchor="middle" x="84.5" y="-7.5" font-family="Helvetica" font-size="10.00">Adapter&lt; Q &gt;</text>
</a>
</g>
</g>
<!-- Node2 -->
<g id="node2" class="node">
<title>Node2</title>
<g id="a_node2"><a xlink:href="classCDPL_1_1Math_1_1VectorExpression.html" target="_top" xlink:title=" ">
<polygon fill="none" stroke="black" points="0,-68.5 0,-98.5 169,-98.5 169,-68.5 0,-68.5"/>
<text text-anchor="start" x="8" y="-86.5" font-family="Helvetica" font-size="10.00">CDPL::Math::VectorExpression</text>
<text text-anchor="middle" x="84.5" y="-75.5" font-family="Helvetica" font-size="10.00">&lt; QuaternionVectorAdapter&lt; Q &gt; &gt;</text>
</a>
</g>
</g>
<!-- Node2&#45;&gt;Node1 -->
<g id="edge1" class="edge">
<title>Node2&#45;&gt;Node1</title>
<path fill="none" stroke="midnightblue" d="M84.5,-58.03C84.5,-48.86 84.5,-38.74 84.5,-30.79"/>
<polygon fill="midnightblue" stroke="midnightblue" points="81,-58.18 84.5,-68.18 88,-58.18 81,-58.18"/>
</g>
<!-- Node3 -->
<g id="node3" class="node">
<title>Node3</title>
<g id="a_node3"><a xlink:href="classCDPL_1_1Math_1_1Expression.html" target="_top" xlink:title=" ">
<polygon fill="none" stroke="black" points="5.5,-214.5 5.5,-233.5 155.5,-233.5 155.5,-214.5 5.5,-214.5"/>
<text text-anchor="middle" x="80.5" y="-221.5" font-family="Helvetica" font-size="10.00">CDPL::Math::Expression&lt; E &gt;</text>
</a>
</g>
</g>
<!-- Node3&#45;&gt;Node2 -->
<g id="edge2" class="edge">
<title>Node3&#45;&gt;Node2</title>
<path fill="none" stroke="midnightblue" d="M81.04,-204.25C81.85,-176.19 83.36,-123.88 84.09,-98.73"/>
<polygon fill="midnightblue" stroke="midnightblue" points="77.54,-204.24 80.75,-214.34 84.54,-204.44 77.54,-204.24"/>
</g>
<!-- Node4 -->
<g id="node4" class="node">
<title>Node4</title>
<g id="a_node4"><a xlink:href="classCDPL_1_1Math_1_1VectorExpression.html" target="_top" xlink:title=" ">
<polygon fill="none" stroke="black" points="96.5,-157.5 96.5,-176.5 274.5,-176.5 274.5,-157.5 96.5,-157.5"/>
<text text-anchor="middle" x="185.5" y="-164.5" font-family="Helvetica" font-size="10.00">CDPL::Math::VectorExpression&lt; E &gt;</text>
</a>
</g>
</g>
<!-- Node3&#45;&gt;Node4 -->
<g id="edge4" class="edge">
<title>Node3&#45;&gt;Node4</title>
<path fill="none" stroke="midnightblue" d="M105.94,-209.68C125.62,-199.36 152.3,-185.39 169.21,-176.53"/>
<polygon fill="midnightblue" stroke="midnightblue" points="104.14,-206.67 96.91,-214.41 107.39,-212.87 104.14,-206.67"/>
</g>
<!-- Node4&#45;&gt;Node2 -->
<g id="edge3" class="edge">
<title>Node4&#45;&gt;Node2</title>
<path fill="none" stroke="orange" stroke-dasharray="5,2" d="M166.68,-150.81C148.13,-135.85 120.03,-113.17 101.97,-98.6"/>
<polygon fill="orange" stroke="orange" points="164.71,-153.72 174.69,-157.28 169.11,-148.27 164.71,-153.72"/>
<text text-anchor="start" x="149.5" y="-131" font-family="Helvetica" font-size="10.00"> &lt; QuaternionVectorAdapter</text>
<text text-anchor="middle" x="210" y="-120" font-family="Helvetica" font-size="10.00">&lt; Q &gt; &gt;</text>
</g>
</g>
</svg>
