<?xml version="1.0" encoding="UTF-8" standalone="no"?>
<!DOCTYPE svg PUBLIC "-//W3C//DTD SVG 1.1//EN"
 "http://www.w3.org/Graphics/SVG/1.1/DTD/svg11.dtd">
<!-- Generated by graphviz version 2.44.0 (0)
 -->
<!-- Title: CDPL::Math::SparseMatrix&lt; T, A &gt; Pages: 1 -->
<svg width="1453pt" height="146pt"
 viewBox="0.00 0.00 1453.00 145.50" xmlns="http://www.w3.org/2000/svg" xmlns:xlink="http://www.w3.org/1999/xlink">
<g id="graph0" class="graph" transform="scale(1 1) rotate(0) translate(4 141.5)">
<title>CDPL::Math::SparseMatrix&lt; T, A &gt;</title>
<!-- Node1 -->
<g id="node1" class="node">
<title>Node1</title>
<g id="a_node1"><a xlink:title=" ">
<polygon fill="#bfbfbf" stroke="black" points="1310,-33 1310,-63 1445,-63 1445,-33 1310,-33"/>
<text text-anchor="start" x="1318" y="-51" font-family="Helvetica" font-size="10.00">CDPL::Math::SparseMatrix</text>
<text text-anchor="middle" x="1377.5" y="-40" font-family="Helvetica" font-size="10.00">&lt; T, A &gt;</text>
</a>
</g>
</g>
<!-- Node2 -->
<g id="node2" class="node">
<title>Node2</title>
<g id="a_node2"><a xlink:href="classCDPL_1_1Math_1_1MatrixContainer.html" target="_top" xlink:title=" ">
<polygon fill="none" stroke="black" points="1127,-22 1127,-74 1273,-74 1273,-22 1127,-22"/>
<text text-anchor="start" x="1135" y="-62" font-family="Helvetica" font-size="10.00">CDPL::Math::MatrixContainer</text>
<text text-anchor="start" x="1135" y="-51" font-family="Helvetica" font-size="10.00">&lt; SparseMatrix&lt; T, std::</text>
<text text-anchor="start" x="1135" y="-40" font-family="Helvetica" font-size="10.00">unordered_map&lt; std::uint64</text>
<text text-anchor="middle" x="1200" y="-29" font-family="Helvetica" font-size="10.00">_t, T &gt; &gt; &gt;</text>
</a>
</g>
</g>
<!-- Node2&#45;&gt;Node1 -->
<g id="edge1" class="edge">
<title>Node2&#45;&gt;Node1</title>
<path fill="none" stroke="midnightblue" d="M1283.22,-48C1292.19,-48 1301.24,-48 1309.99,-48"/>
<polygon fill="midnightblue" stroke="midnightblue" points="1283.14,-44.5 1273.14,-48 1283.14,-51.5 1283.14,-44.5"/>
</g>
<!-- Node3 -->
<g id="node3" class="node">
<title>Node3</title>
<g id="a_node3"><a xlink:href="classCDPL_1_1Math_1_1MatrixExpression.html" target="_top" xlink:title=" ">
<polygon fill="none" stroke="black" points="608.5,-52.5 608.5,-93.5 775.5,-93.5 775.5,-52.5 608.5,-52.5"/>
<text text-anchor="start" x="616.5" y="-81.5" font-family="Helvetica" font-size="10.00">CDPL::Math::MatrixExpression</text>
<text text-anchor="start" x="616.5" y="-70.5" font-family="Helvetica" font-size="10.00">&lt; SparseMatrix&lt; T, std::unordered</text>
<text text-anchor="middle" x="692" y="-59.5" font-family="Helvetica" font-size="10.00">_map&lt; std::uint64_t, T &gt; &gt; &gt;</text>
</a>
</g>
</g>
<!-- Node3&#45;&gt;Node2 -->
<g id="edge2" class="edge">
<title>Node3&#45;&gt;Node2</title>
<path fill="none" stroke="midnightblue" d="M785.65,-71.64C870.03,-69.93 998.01,-66.16 1109,-58 1114.8,-57.57 1120.81,-57.06 1126.83,-56.5"/>
<polygon fill="midnightblue" stroke="midnightblue" points="785.51,-68.14 775.58,-71.84 785.65,-75.14 785.51,-68.14"/>
</g>
<!-- Node4 -->
<g id="node4" class="node">
<title>Node4</title>
<g id="a_node4"><a xlink:href="classCDPL_1_1Math_1_1Expression.html" target="_top" xlink:title=" ">
<polygon fill="none" stroke="black" points="304.5,-85 304.5,-137 448.5,-137 448.5,-85 304.5,-85"/>
<text text-anchor="start" x="312.5" y="-125" font-family="Helvetica" font-size="10.00">CDPL::Math::Expression</text>
<text text-anchor="start" x="312.5" y="-114" font-family="Helvetica" font-size="10.00">&lt; SparseMatrix&lt; T, std</text>
<text text-anchor="start" x="312.5" y="-103" font-family="Helvetica" font-size="10.00">::unordered_map&lt; std::uint64</text>
<text text-anchor="middle" x="376.5" y="-92" font-family="Helvetica" font-size="10.00">_t, T &gt; &gt; &gt;</text>
</a>
</g>
</g>
<!-- Node4&#45;&gt;Node3 -->
<g id="edge3" class="edge">
<title>Node4&#45;&gt;Node3</title>
<path fill="none" stroke="midnightblue" d="M459.01,-110.37C497.42,-109.14 543.75,-106.28 585,-100 595.79,-98.36 607.09,-96.09 618.11,-93.56"/>
<polygon fill="midnightblue" stroke="midnightblue" points="458.81,-106.88 448.92,-110.67 459.02,-113.87 458.81,-106.88"/>
</g>
<!-- Node5 -->
<g id="node5" class="node">
<title>Node5</title>
<g id="a_node5"><a xlink:href="classCDPL_1_1Math_1_1Expression.html" target="_top" xlink:title=" ">
<polygon fill="none" stroke="black" points="0,-43.5 0,-62.5 150,-62.5 150,-43.5 0,-43.5"/>
<text text-anchor="middle" x="75" y="-50.5" font-family="Helvetica" font-size="10.00">CDPL::Math::Expression&lt; E &gt;</text>
</a>
</g>
</g>
<!-- Node5&#45;&gt;Node4 -->
<g id="edge4" class="edge">
<title>Node5&#45;&gt;Node4</title>
<path fill="none" stroke="orange" stroke-dasharray="5,2" d="M135.16,-64.46C183.72,-73.86 252.64,-87.21 304.23,-97.2"/>
<polygon fill="orange" stroke="orange" points="135.6,-60.98 125.12,-62.51 134.27,-67.85 135.6,-60.98"/>
<text text-anchor="start" x="168" y="-113" font-family="Helvetica" font-size="10.00"> &lt; SparseMatrix&lt; T,</text>
<text text-anchor="start" x="168" y="-102" font-family="Helvetica" font-size="10.00"> std::unordered_map</text>
<text text-anchor="middle" x="219" y="-91" font-family="Helvetica" font-size="10.00">&lt; std::uint64_t, T &gt; &gt; &gt;</text>
</g>
<!-- Node6 -->
<g id="node6" class="node">
<title>Node6</title>
<g id="a_node6"><a xlink:href="classCDPL_1_1Math_1_1MatrixExpression.html" target="_top" xlink:title=" ">
<polygon fill="none" stroke="black" points="288,-43.5 288,-62.5 465,-62.5 465,-43.5 288,-43.5"/>
<text text-anchor="middle" x="376.5" y="-50.5" font-family="Helvetica" font-size="10.00">CDPL::Math::MatrixExpression&lt; E &gt;</text>
</a>
</g>
</g>
<!-- Node5&#45;&gt;Node6 -->
<g id="edge6" class="edge">
<title>Node5&#45;&gt;Node6</title>
<path fill="none" stroke="midnightblue" d="M160.26,-53C200.12,-53 247.69,-53 287.96,-53"/>
<polygon fill="midnightblue" stroke="midnightblue" points="160.03,-49.5 150.03,-53 160.03,-56.5 160.03,-49.5"/>
</g>
<!-- Node9 -->
<g id="node9" class="node">
<title>Node9</title>
<g id="a_node9"><a xlink:href="classCDPL_1_1Math_1_1Expression.html" target="_top" xlink:title=" ">
<polygon fill="none" stroke="black" points="301,-0.5 301,-19.5 452,-19.5 452,-0.5 301,-0.5"/>
<text text-anchor="middle" x="376.5" y="-7.5" font-family="Helvetica" font-size="10.00">CDPL::Math::Expression&lt; C &gt;</text>
</a>
</g>
</g>
<!-- Node5&#45;&gt;Node9 -->
<g id="edge10" class="edge">
<title>Node5&#45;&gt;Node9</title>
<path fill="none" stroke="orange" stroke-dasharray="5,2" d="M142.78,-41.89C151.26,-40.54 159.83,-39.22 168,-38 212.04,-31.44 261.45,-24.75 301,-19.55"/>
<polygon fill="orange" stroke="orange" points="142.21,-38.44 132.89,-43.47 143.32,-45.35 142.21,-38.44"/>
<text text-anchor="middle" x="219" y="-41" font-family="Helvetica" font-size="10.00"> &lt; C &gt;</text>
</g>
<!-- Node6&#45;&gt;Node3 -->
<g id="edge5" class="edge">
<title>Node6&#45;&gt;Node3</title>
<path fill="none" stroke="orange" stroke-dasharray="5,2" d="M475.37,-59.24C518.07,-61.97 567.59,-65.13 608.4,-67.73"/>
<polygon fill="orange" stroke="orange" points="475.45,-55.74 465.24,-58.6 475,-62.73 475.45,-55.74"/>
<text text-anchor="start" x="483" y="-90" font-family="Helvetica" font-size="10.00"> &lt; SparseMatrix&lt; T,</text>
<text text-anchor="start" x="483" y="-79" font-family="Helvetica" font-size="10.00"> std::unordered_map</text>
<text text-anchor="middle" x="534" y="-68" font-family="Helvetica" font-size="10.00">&lt; std::uint64_t, T &gt; &gt; &gt;</text>
</g>
<!-- Node8 -->
<g id="node8" class="node">
<title>Node8</title>
<g id="a_node8"><a xlink:href="classCDPL_1_1Math_1_1MatrixExpression.html" target="_top" xlink:title=" ">
<polygon fill="none" stroke="black" points="603,-14.5 603,-33.5 781,-33.5 781,-14.5 603,-14.5"/>
<text text-anchor="middle" x="692" y="-21.5" font-family="Helvetica" font-size="10.00">CDPL::Math::MatrixExpression&lt; C &gt;</text>
</a>
</g>
</g>
<!-- Node6&#45;&gt;Node8 -->
<g id="edge11" class="edge">
<title>Node6&#45;&gt;Node8</title>
<path fill="none" stroke="orange" stroke-dasharray="5,2" d="M475.46,-43.94C516.18,-40.17 563.09,-35.83 602.73,-32.17"/>
<polygon fill="orange" stroke="orange" points="474.88,-40.48 465.24,-44.88 475.52,-47.45 474.88,-40.48"/>
<text text-anchor="middle" x="534" y="-46" font-family="Helvetica" font-size="10.00"> &lt; C &gt;</text>
</g>
<!-- Node7 -->
<g id="node7" class="node">
<title>Node7</title>
<g id="a_node7"><a xlink:href="classCDPL_1_1Math_1_1MatrixContainer.html" target="_top" xlink:title=" ">
<polygon fill="none" stroke="black" points="818,-14.5 818,-33.5 989,-33.5 989,-14.5 818,-14.5"/>
<text text-anchor="middle" x="903.5" y="-21.5" font-family="Helvetica" font-size="10.00">CDPL::Math::MatrixContainer&lt; C &gt;</text>
</a>
</g>
</g>
<!-- Node7&#45;&gt;Node2 -->
<g id="edge7" class="edge">
<title>Node7&#45;&gt;Node2</title>
<path fill="none" stroke="orange" stroke-dasharray="5,2" d="M999.48,-19.64C1034.08,-19.32 1073.42,-20.44 1109,-25 1114.76,-25.74 1120.68,-26.72 1126.6,-27.87"/>
<polygon fill="orange" stroke="orange" points="999.33,-16.14 989.38,-19.77 999.42,-23.14 999.33,-16.14"/>
<text text-anchor="start" x="1007" y="-50" font-family="Helvetica" font-size="10.00"> &lt; SparseMatrix&lt; T,</text>
<text text-anchor="start" x="1007" y="-39" font-family="Helvetica" font-size="10.00"> std::unordered_map</text>
<text text-anchor="middle" x="1058" y="-28" font-family="Helvetica" font-size="10.00">&lt; std::uint64_t, T &gt; &gt; &gt;</text>
</g>
<!-- Node8&#45;&gt;Node7 -->
<g id="edge8" class="edge">
<title>Node8&#45;&gt;Node7</title>
<path fill="none" stroke="midnightblue" d="M791.49,-24C800.25,-24 809.07,-24 817.71,-24"/>
<polygon fill="midnightblue" stroke="midnightblue" points="791.24,-20.5 781.24,-24 791.24,-27.5 791.24,-20.5"/>
</g>
<!-- Node9&#45;&gt;Node8 -->
<g id="edge9" class="edge">
<title>Node9&#45;&gt;Node8</title>
<path fill="none" stroke="midnightblue" d="M462.85,-9.53C500.35,-9.76 544.89,-10.63 585,-13 591.74,-13.4 598.72,-13.91 605.72,-14.48"/>
<polygon fill="midnightblue" stroke="midnightblue" points="462.49,-6.03 452.47,-9.48 462.46,-13.03 462.49,-6.03"/>
</g>
</g>
</svg>
