<?xml version="1.0" encoding="UTF-8" standalone="no"?>
<!DOCTYPE svg PUBLIC "-//W3C//DTD SVG 1.1//EN"
 "http://www.w3.org/Graphics/SVG/1.1/DTD/svg11.dtd">
<!-- Generated by graphviz version 2.44.0 (0)
 -->
<!-- Title: CDPL::Math::Vector&lt; T, A &gt; Pages: 1 -->
<svg width="343pt" height="127pt"
 viewBox="0.00 0.00 343.00 127.00" xmlns="http://www.w3.org/2000/svg" xmlns:xlink="http://www.w3.org/1999/xlink">
<g id="graph0" class="graph" transform="scale(1 1) rotate(0) translate(4 123)">
<title>CDPL::Math::Vector&lt; T, A &gt;</title>
<!-- Node1 -->
<g id="node1" class="node">
<title>Node1</title>
<g id="a_node1"><a xlink:title=" ">
<polygon fill="#bfbfbf" stroke="black" points="0,-44.5 0,-74.5 104,-74.5 104,-44.5 0,-44.5"/>
<text text-anchor="start" x="8" y="-62.5" font-family="Helvetica" font-size="10.00">CDPL::Math::Vector</text>
<text text-anchor="middle" x="52" y="-51.5" font-family="Helvetica" font-size="10.00">&lt; T, A &gt;</text>
</a>
</g>
</g>
<!-- Node2 -->
<g id="node2" class="node">
<title>Node2</title>
<g id="a_node2"><a xlink:href="classCDPL_1_1Math_1_1Vector.html" target="_top" xlink:title=" ">
<polygon fill="none" stroke="black" points="219,-88.5 219,-118.5 323,-118.5 323,-88.5 219,-88.5"/>
<text text-anchor="start" x="227" y="-106.5" font-family="Helvetica" font-size="10.00">CDPL::Math::Vector</text>
<text text-anchor="middle" x="271" y="-95.5" font-family="Helvetica" font-size="10.00">&lt; double &gt;</text>
</a>
</g>
</g>
<!-- Node1&#45;&gt;Node2 -->
<g id="edge1" class="edge">
<title>Node1&#45;&gt;Node2</title>
<path fill="none" stroke="orange" stroke-dasharray="5,2" d="M114.03,-72.84C116.72,-73.4 119.39,-73.96 122,-74.5 154.18,-81.15 190.38,-88.25 218.92,-93.76"/>
<polygon fill="orange" stroke="orange" points="114.73,-69.41 104.22,-70.76 113.28,-76.26 114.73,-69.41"/>
<text text-anchor="middle" x="155.5" y="-90.5" font-family="Helvetica" font-size="10.00"> &lt; double &gt;</text>
</g>
<!-- Node3 -->
<g id="node3" class="node">
<title>Node3</title>
<g id="a_node3"><a xlink:href="classCDPL_1_1Math_1_1Vector.html" target="_top" xlink:title=" ">
<polygon fill="none" stroke="black" points="207,-50 207,-69 335,-69 335,-50 207,-50"/>
<text text-anchor="middle" x="271" y="-57" font-family="Helvetica" font-size="10.00">CDPL::Math::Vector&lt; T &gt;</text>
</a>
</g>
</g>
<!-- Node1&#45;&gt;Node3 -->
<g id="edge2" class="edge">
<title>Node1&#45;&gt;Node3</title>
<path fill="none" stroke="orange" stroke-dasharray="5,2" d="M114.51,-59.5C143.37,-59.5 177.71,-59.5 206.78,-59.5"/>
<polygon fill="orange" stroke="orange" points="114.15,-56 104.15,-59.5 114.15,-63 114.15,-56"/>
<text text-anchor="middle" x="155.5" y="-62.5" font-family="Helvetica" font-size="10.00"> &lt; T &gt;</text>
</g>
<!-- Node4 -->
<g id="node4" class="node">
<title>Node4</title>
<g id="a_node4"><a xlink:href="classCDPL_1_1Math_1_1Vector.html" target="_top" xlink:title=" ">
<polygon fill="none" stroke="black" points="219,-0.5 219,-30.5 323,-30.5 323,-0.5 219,-0.5"/>
<text text-anchor="start" x="227" y="-18.5" font-family="Helvetica" font-size="10.00">CDPL::Math::Vector</text>
<text text-anchor="middle" x="271" y="-7.5" font-family="Helvetica" font-size="10.00">&lt; ValueType &gt;</text>
</a>
</g>
</g>
<!-- Node1&#45;&gt;Node4 -->
<g id="edge3" class="edge">
<title>Node1&#45;&gt;Node4</title>
<path fill="none" stroke="orange" stroke-dasharray="5,2" d="M114.03,-46.16C116.72,-45.6 119.39,-45.04 122,-44.5 154.18,-37.85 190.38,-30.75 218.92,-25.24"/>
<polygon fill="orange" stroke="orange" points="113.28,-42.74 104.22,-48.24 114.73,-49.59 113.28,-42.74"/>
<text text-anchor="middle" x="155.5" y="-47.5" font-family="Helvetica" font-size="10.00"> &lt; ValueType &gt;</text>
</g>
</g>
</svg>
