<?xml version="1.0" encoding="UTF-8" standalone="no"?>
<!DOCTYPE svg PUBLIC "-//W3C//DTD SVG 1.1//EN"
 "http://www.w3.org/Graphics/SVG/1.1/DTD/svg11.dtd">
<!-- Generated by graphviz version 2.40.1 (0)
 -->
<!-- Title: CDPL::Math::QuaternionBinary2&lt; E1, E2, F &gt; Pages: 1 -->
<!--zoomable 88 -->
<svg id="main" version="1.1" xmlns="http://www.w3.org/2000/svg" xmlns:xlink="http://www.w3.org/1999/xlink" xml:space="preserve" onload="init(evt)">
<style type="text/css"><![CDATA[
.edge:hover path { stroke: red; }
.edge:hover polygon { stroke: red; fill: red; }
]]></style>
<script type="text/javascript"><![CDATA[
var edges = document.getElementsByTagName('g');
if (edges && edges.length) {
  for (var i=0;i<edges.length;i++) {
    if (edges[i].id.substr(0,4)=='edge') {
      edges[i].setAttribute('class','edge');
    }
  }
}
]]></script>
        <defs>
                <circle id="rim" cx="0" cy="0" r="7"/>
                <circle id="rim2" cx="0" cy="0" r="3.5"/>
                <g id="zoomPlus">
                        <use xlink:href="#rim" fill="#404040">
                                <set attributeName="fill" to="#808080" begin="zoomplus.mouseover" end="zoomplus.mouseout"/>
                        </use>
                        <path d="M-4,0h8M0,-4v8" fill="none" stroke="white" stroke-width="1.5" pointer-events="none"/>
                </g>
                <g id="zoomMin">
                        <use xlink:href="#rim" fill="#404040">
                                <set attributeName="fill" to="#808080" begin="zoomminus.mouseover" end="zoomminus.mouseout"/>
                        </use>
                        <path d="M-4,0h8" fill="none" stroke="white" stroke-width="1.5" pointer-events="none"/>
                </g>
                <g id="dirArrow">
                        <path fill="none" stroke="white" stroke-width="1.5" d="M0,-3.0v7 M-2.5,-0.5L0,-3.0L2.5,-0.5"/>
                </g>
               <g id="resetDef">
                       <use xlink:href="#rim2" fill="#404040">
                               <set attributeName="fill" to="#808080" begin="reset.mouseover" end="reset.mouseout"/>
                       </use>
               </g>
        </defs>

<script type="text/javascript">
var viewWidth = 1067;
var viewHeight = 88;
var sectionId = 'dynsection-0';
</script>
<script xlink:href="svgpan.js"/>
<svg id="graph" class="graph">
<g id="viewport">
<title>CDPL::Math::QuaternionBinary2&lt; E1, E2, F &gt;</title>
<!-- Node1 -->
<g id="node1" class="node">
<title>Node1</title>
<g id="a_node1"><a xlink:title=" ">
<polygon fill="#bfbfbf" stroke="#000000" points="889,-21 889,-51 1059,-51 1059,-21 889,-21"/>
<text text-anchor="start" x="897" y="-39" font-family="Helvetica,sans-Serif" font-size="10.00" fill="#000000">CDPL::Math::QuaternionBinary2</text>
<text text-anchor="middle" x="974" y="-28" font-family="Helvetica,sans-Serif" font-size="10.00" fill="#000000">&lt; E1, E2, F &gt;</text>
</a>
</g>
</g>
<!-- Node2 -->
<g id="node2" class="node">
<title>Node2</title>
<g id="a_node2"><a xlink:href="classCDPL_1_1Math_1_1QuaternionExpression.html" target="_top" xlink:title=" ">
<polygon fill="none" stroke="#000000" points="658,-21 658,-51 852,-51 852,-21 658,-21"/>
<text text-anchor="start" x="666" y="-39" font-family="Helvetica,sans-Serif" font-size="10.00" fill="#000000">CDPL::Math::QuaternionExpression</text>
<text text-anchor="middle" x="755" y="-28" font-family="Helvetica,sans-Serif" font-size="10.00" fill="#000000">&lt; QuaternionBinary2&lt; E1, E2, F &gt; &gt;</text>
</a>
</g>
</g>
<!-- Node2&#45;&gt;Node1 -->
<g id="edge1" class="edge">
<title>Node2&#45;&gt;Node1</title>
<path fill="none" stroke="#191970" d="M862.0898,-36C871.0344,-36 880.0004,-36 888.749,-36"/>
<polygon fill="#191970" stroke="#191970" points="862.013,-32.5001 852.013,-36 862.0129,-39.5001 862.013,-32.5001"/>
</g>
<!-- Node3 -->
<g id="node3" class="node">
<title>Node3</title>
<g id="a_node3"><a xlink:href="classCDPL_1_1Math_1_1Expression.html" target="_top" xlink:title=" ">
<polygon fill="none" stroke="#000000" points="336,-38.5 336,-79.5 482,-79.5 482,-38.5 336,-38.5"/>
<text text-anchor="start" x="344" y="-67.5" font-family="Helvetica,sans-Serif" font-size="10.00" fill="#000000">CDPL::Math::Expression</text>
<text text-anchor="start" x="344" y="-56.5" font-family="Helvetica,sans-Serif" font-size="10.00" fill="#000000">&lt; QuaternionBinary2&lt; E1,</text>
<text text-anchor="middle" x="409" y="-45.5" font-family="Helvetica,sans-Serif" font-size="10.00" fill="#000000"> E2, F &gt; &gt;</text>
</a>
</g>
</g>
<!-- Node3&#45;&gt;Node2 -->
<g id="edge2" class="edge">
<title>Node3&#45;&gt;Node2</title>
<path fill="none" stroke="#191970" d="M492.4654,-53.4517C542.2541,-50.1421 605.701,-45.9245 657.7494,-42.4646"/>
<polygon fill="#191970" stroke="#191970" points="492.1235,-49.9666 482.3777,-54.1223 492.5879,-56.9512 492.1235,-49.9666"/>
</g>
<!-- Node4 -->
<g id="node4" class="node">
<title>Node4</title>
<g id="a_node4"><a xlink:href="classCDPL_1_1Math_1_1Expression.html" target="_top" xlink:title=" ">
<polygon fill="none" stroke="#000000" points="0,-24.5 0,-43.5 160,-43.5 160,-24.5 0,-24.5"/>
<text text-anchor="middle" x="80" y="-31.5" font-family="Helvetica,sans-Serif" font-size="10.00" fill="#000000">CDPL::Math::Expression&lt; E &gt;</text>
</a>
</g>
</g>
<!-- Node4&#45;&gt;Node3 -->
<g id="edge3" class="edge">
<title>Node4&#45;&gt;Node3</title>
<path fill="none" stroke="#ffa500" stroke-dasharray="5,2" d="M170.303,-40.8619C222.3882,-44.8198 287.028,-49.7316 335.8997,-53.4453"/>
<polygon fill="#ffa500" stroke="#ffa500" points="170.2982,-37.3516 160.0618,-40.0837 169.7678,-44.3314 170.2982,-37.3516"/>
<text text-anchor="start" x="178" y="-63" font-family="Helvetica,sans-Serif" font-size="10.00" fill="#000000"> &lt; QuaternionBinary2</text>
<text text-anchor="middle" x="231" y="-52" font-family="Helvetica,sans-Serif" font-size="10.00" fill="#000000">&lt; E1, E2, F &gt; &gt;</text>
</g>
<!-- Node5 -->
<g id="node5" class="node">
<title>Node5</title>
<g id="a_node5"><a xlink:href="classCDPL_1_1Math_1_1QuaternionExpression.html" target="_top" xlink:title=" ">
<polygon fill="none" stroke="#000000" points="302,-.5 302,-19.5 516,-19.5 516,-.5 302,-.5"/>
<text text-anchor="middle" x="409" y="-7.5" font-family="Helvetica,sans-Serif" font-size="10.00" fill="#000000">CDPL::Math::QuaternionExpression&lt; E &gt;</text>
</a>
</g>
</g>
<!-- Node4&#45;&gt;Node5 -->
<g id="edge5" class="edge">
<title>Node4&#45;&gt;Node5</title>
<path fill="none" stroke="#191970" d="M170.2291,-27.4179C210.903,-24.4508 259.2444,-20.9244 301.7568,-17.8232"/>
<polygon fill="#191970" stroke="#191970" points="169.7806,-23.9413 160.0618,-28.1596 170.2899,-30.9227 169.7806,-23.9413"/>
</g>
<!-- Node5&#45;&gt;Node2 -->
<g id="edge4" class="edge">
<title>Node5&#45;&gt;Node2</title>
<path fill="none" stroke="#ffa500" stroke-dasharray="5,2" d="M526.3131,-11.3222C562.7984,-12.4687 603.1203,-14.4881 640,-18 648.4493,-18.8046 657.2216,-19.8297 665.9834,-20.9812"/>
<polygon fill="#ffa500" stroke="#ffa500" points="526.2292,-7.8183 516.1302,-11.0214 526.0225,-14.8152 526.2292,-7.8183"/>
<text text-anchor="start" x="534" y="-32" font-family="Helvetica,sans-Serif" font-size="10.00" fill="#000000"> &lt; QuaternionBinary2</text>
<text text-anchor="middle" x="587" y="-21" font-family="Helvetica,sans-Serif" font-size="10.00" fill="#000000">&lt; E1, E2, F &gt; &gt;</text>
</g>
</g>
</svg>
        <g id="navigator" transform="translate(0 0)" fill="#404254">
                <rect fill="#f2f5e9" fill-opacity="0.5" stroke="#606060" stroke-width=".5" x="0" y="0" width="60" height="60"/>
                <use id="zoomplus" xlink:href="#zoomPlus" x="17" y="9" onmousedown="handleZoom(evt,'in')"/>
                <use id="zoomminus" xlink:href="#zoomMin" x="42" y="9" onmousedown="handleZoom(evt,'out')"/>
                <use id="reset" xlink:href="#resetDef" x="30" y="36" onmousedown="handleReset()"/>
                <g id="arrowUp" xlink:href="#dirArrow" transform="translate(30 24)" onmousedown="handlePan(0,-1)">
                  <use xlink:href="#rim" fill="#404040">
                        <set attributeName="fill" to="#808080" begin="arrowUp.mouseover" end="arrowUp.mouseout"/>
                  </use>
                  <path fill="none" stroke="white" stroke-width="1.5" d="M0,-3.0v7 M-2.5,-0.5L0,-3.0L2.5,-0.5"/>
                </g>
                <g id="arrowRight" xlink:href="#dirArrow" transform="rotate(90) translate(36 -43)" onmousedown="handlePan(1,0)">
                  <use xlink:href="#rim" fill="#404040">
                        <set attributeName="fill" to="#808080" begin="arrowRight.mouseover" end="arrowRight.mouseout"/>
                  </use>
                  <path fill="none" stroke="white" stroke-width="1.5" d="M0,-3.0v7 M-2.5,-0.5L0,-3.0L2.5,-0.5"/>
                </g>
                <g id="arrowDown" xlink:href="#dirArrow" transform="rotate(180) translate(-30 -48)" onmousedown="handlePan(0,1)">
                  <use xlink:href="#rim" fill="#404040">
                        <set attributeName="fill" to="#808080" begin="arrowDown.mouseover" end="arrowDown.mouseout"/>
                  </use>
                  <path fill="none" stroke="white" stroke-width="1.5" d="M0,-3.0v7 M-2.5,-0.5L0,-3.0L2.5,-0.5"/>
                </g>
                <g id="arrowLeft" xlink:href="#dirArrow" transform="rotate(270) translate(-36 17)" onmousedown="handlePan(-1,0)">
                  <use xlink:href="#rim" fill="#404040">
                        <set attributeName="fill" to="#808080" begin="arrowLeft.mouseover" end="arrowLeft.mouseout"/>
                  </use>
                  <path fill="none" stroke="white" stroke-width="1.5" d="M0,-3.0v7 M-2.5,-0.5L0,-3.0L2.5,-0.5"/>
                </g>
        </g>
        <svg viewBox="0 0 15 15" width="100%" height="30px" preserveAspectRatio="xMaxYMin meet">
         <g id="arrow_out" transform="scale(0.3 0.3)">
          <a xlink:href="classCDPL_1_1Math_1_1QuaternionBinary2__inherit__graph_org.svg" target="_base">
           <rect id="button" ry="5" rx="5" y="6" x="6" height="38" width="38"
                fill="#f2f5e9" fill-opacity="0.5" stroke="#606060" stroke-width="1.0"/>
           <path id="arrow"
             d="M 11.500037,31.436501 C 11.940474,20.09759 22.043105,11.32322 32.158766,21.979434 L 37.068811,17.246167 C 37.068811,17.246167 37.088388,32 37.088388,32 L 22.160133,31.978069 C 22.160133,31.978069 26.997745,27.140456 26.997745,27.140456 C 18.528582,18.264221 13.291696,25.230495 11.500037,31.436501 z"
             style="fill:#404040;"/>
          </a>
         </g>
        </svg>
</svg>
