<?xml version="1.0" encoding="UTF-8" standalone="no"?>
<!DOCTYPE svg PUBLIC "-//W3C//DTD SVG 1.1//EN"
 "http://www.w3.org/Graphics/SVG/1.1/DTD/svg11.dtd">
<!-- Generated by graphviz version 2.40.1 (0)
 -->
<!-- Title: CDPL::Util::DGCoordinatesGenerator&lt; Dim, T &gt; Pages: 1 -->
<svg width="943pt" height="61pt"
 viewBox="0.00 0.00 943.00 61.00" xmlns="http://www.w3.org/2000/svg" xmlns:xlink="http://www.w3.org/1999/xlink">
<g id="graph0" class="graph" transform="scale(1 1) rotate(0) translate(4 57)">
<title>CDPL::Util::DGCoordinatesGenerator&lt; Dim, T &gt;</title>
<!-- Node1 -->
<g id="node1" class="node">
<title>Node1</title>
<g id="a_node1"><a xlink:title="Generic implementation for generation of coordinates that fulfill user&#45;provided point distance constr...">
<polygon fill="#bfbfbf" stroke="#000000" points="538,-11.5 538,-41.5 683,-41.5 683,-11.5 538,-11.5"/>
<text text-anchor="start" x="546" y="-29.5" font-family="Helvetica,sans-Serif" font-size="10.00" fill="#000000">CDPL::Util::DGCoordinates</text>
<text text-anchor="middle" x="610.5" y="-18.5" font-family="Helvetica,sans-Serif" font-size="10.00" fill="#000000">Generator&lt; Dim, T &gt;</text>
</a>
</g>
</g>
<!-- Node4 -->
<g id="node4" class="node">
<title>Node4</title>
<g id="a_node4"><a xlink:href="classCDPL_1_1Util_1_1DGCoordinatesGenerator.html" target="_top" xlink:title=" ">
<polygon fill="none" stroke="#000000" points="790,-11.5 790,-41.5 935,-41.5 935,-11.5 790,-11.5"/>
<text text-anchor="start" x="798" y="-29.5" font-family="Helvetica,sans-Serif" font-size="10.00" fill="#000000">CDPL::Util::DGCoordinates</text>
<text text-anchor="middle" x="862.5" y="-18.5" font-family="Helvetica,sans-Serif" font-size="10.00" fill="#000000">Generator&lt; 2, double &gt;</text>
</a>
</g>
</g>
<!-- Node1&#45;&gt;Node4 -->
<g id="edge3" class="edge">
<title>Node1&#45;&gt;Node4</title>
<path fill="none" stroke="#ffa500" stroke-dasharray="5,2" d="M693.4182,-26.5C724.4756,-26.5 759.5031,-26.5 789.5887,-26.5"/>
<polygon fill="#ffa500" stroke="#ffa500" points="693.0508,-23.0001 683.0508,-26.5 693.0507,-30.0001 693.0508,-23.0001"/>
<text text-anchor="middle" x="736.5" y="-29.5" font-family="Helvetica,sans-Serif" font-size="10.00" fill="#000000"> &lt; 2, double &gt;</text>
</g>
<!-- Node2 -->
<g id="node2" class="node">
<title>Node2</title>
<g id="a_node2"><a xlink:href="classCDPL_1_1Util_1_1DGCoordinatesGeneratorBase.html" target="_top" xlink:title=" ">
<polygon fill="none" stroke="#000000" points="356,-.5 356,-52.5 501,-52.5 501,-.5 356,-.5"/>
<text text-anchor="start" x="364" y="-40.5" font-family="Helvetica,sans-Serif" font-size="10.00" fill="#000000">CDPL::Util::DGCoordinates</text>
<text text-anchor="start" x="364" y="-29.5" font-family="Helvetica,sans-Serif" font-size="10.00" fill="#000000">GeneratorBase&lt; Dim, T,</text>
<text text-anchor="start" x="364" y="-18.5" font-family="Helvetica,sans-Serif" font-size="10.00" fill="#000000"> DGCoordinatesGenerator</text>
<text text-anchor="middle" x="428.5" y="-7.5" font-family="Helvetica,sans-Serif" font-size="10.00" fill="#000000">&lt; Dim, T &gt; &gt;</text>
</a>
</g>
</g>
<!-- Node2&#45;&gt;Node1 -->
<g id="edge1" class="edge">
<title>Node2&#45;&gt;Node1</title>
<path fill="none" stroke="#191970" d="M511.4943,-26.5C520.3065,-26.5 529.2196,-26.5 537.8997,-26.5"/>
<polygon fill="#191970" stroke="#191970" points="511.2159,-23.0001 501.2159,-26.5 511.2158,-30.0001 511.2159,-23.0001"/>
</g>
<!-- Node3 -->
<g id="node3" class="node">
<title>Node3</title>
<g id="a_node3"><a xlink:href="classCDPL_1_1Util_1_1DGCoordinatesGeneratorBase.html" target="_top" xlink:title="Base for classes dedicated to the generation of coordinates that fulfill user&#45;provided point distance...">
<polygon fill="none" stroke="#000000" points="0,-6 0,-47 145,-47 145,-6 0,-6"/>
<text text-anchor="start" x="8" y="-35" font-family="Helvetica,sans-Serif" font-size="10.00" fill="#000000">CDPL::Util::DGCoordinates</text>
<text text-anchor="start" x="8" y="-24" font-family="Helvetica,sans-Serif" font-size="10.00" fill="#000000">GeneratorBase&lt; Dim, T,</text>
<text text-anchor="middle" x="72.5" y="-13" font-family="Helvetica,sans-Serif" font-size="10.00" fill="#000000"> Derived &gt;</text>
</a>
</g>
</g>
<!-- Node3&#45;&gt;Node2 -->
<g id="edge2" class="edge">
<title>Node3&#45;&gt;Node2</title>
<path fill="none" stroke="#ffa500" stroke-dasharray="5,2" d="M155.7049,-26.5C216.3222,-26.5 297.6485,-26.5 355.6965,-26.5"/>
<polygon fill="#ffa500" stroke="#ffa500" points="155.401,-23.0001 145.401,-26.5 155.4009,-30.0001 155.401,-23.0001"/>
<text text-anchor="start" x="163" y="-40.5" font-family="Helvetica,sans-Serif" font-size="10.00" fill="#000000"> &lt; Dim, T, DGCoordinatesGenerator</text>
<text text-anchor="middle" x="250.5" y="-29.5" font-family="Helvetica,sans-Serif" font-size="10.00" fill="#000000">&lt; Dim, T &gt; &gt;</text>
</g>
</g>
</svg>
