<?xml version="1.0" encoding="UTF-8" standalone="no"?>
<!DOCTYPE svg PUBLIC "-//W3C//DTD SVG 1.1//EN"
 "http://www.w3.org/Graphics/SVG/1.1/DTD/svg11.dtd">
<!-- Generated by graphviz version 2.44.0 (0)
 -->
<!-- Title: CDPL::Util::DecompressionIStream&lt; CompAlgo, CharT, TraitsT &gt; Pages: 1 -->
<svg width="917pt" height="100pt"
 viewBox="0.00 0.00 917.00 99.50" xmlns="http://www.w3.org/2000/svg" xmlns:xlink="http://www.w3.org/1999/xlink">
<g id="graph0" class="graph" transform="scale(1 1) rotate(0) translate(4 95.5)">
<title>CDPL::Util::DecompressionIStream&lt; CompAlgo, CharT, TraitsT &gt;</title>
<!-- Node1 -->
<g id="node1" class="node">
<title>Node1</title>
<g id="a_node1"><a xlink:title=" ">
<polygon fill="#bfbfbf" stroke="black" points="768,-22 768,-63 909,-63 909,-22 768,-22"/>
<text text-anchor="start" x="776" y="-51" font-family="Helvetica" font-size="10.00">CDPL::Util::Decompression</text>
<text text-anchor="start" x="776" y="-40" font-family="Helvetica" font-size="10.00">IStream&lt; CompAlgo, CharT,</text>
<text text-anchor="middle" x="838.5" y="-29" font-family="Helvetica" font-size="10.00"> TraitsT &gt;</text>
</a>
</g>
</g>
<!-- Node2 -->
<g id="node2" class="node">
<title>Node2</title>
<g id="a_node2"><a xlink:href="classCDPL_1_1Util_1_1CompressionStreamBase.html" target="_top" xlink:title=" ">
<polygon fill="none" stroke="black" points="572,-16.5 572,-68.5 731,-68.5 731,-16.5 572,-16.5"/>
<text text-anchor="start" x="580" y="-56.5" font-family="Helvetica" font-size="10.00">CDPL::Util::CompressionStream</text>
<text text-anchor="start" x="580" y="-45.5" font-family="Helvetica" font-size="10.00">Base&lt; CompAlgo, std::basic</text>
<text text-anchor="start" x="580" y="-34.5" font-family="Helvetica" font-size="10.00">_istream&lt; char, std::char_traits</text>
<text text-anchor="middle" x="651.5" y="-23.5" font-family="Helvetica" font-size="10.00">&lt; char &gt; &gt; &gt;</text>
</a>
</g>
</g>
<!-- Node2&#45;&gt;Node1 -->
<g id="edge1" class="edge">
<title>Node2&#45;&gt;Node1</title>
<path fill="none" stroke="midnightblue" d="M741.28,-42.5C750.23,-42.5 759.22,-42.5 767.92,-42.5"/>
<polygon fill="midnightblue" stroke="midnightblue" points="741.22,-39 731.22,-42.5 741.22,-46 741.22,-39"/>
</g>
<!-- Node3 -->
<g id="node3" class="node">
<title>Node3</title>
<g id="a_node3"><a xlink:title="STL class.">
<polygon fill="none" stroke="#bfbfbf" points="287.5,-50 287.5,-91 403.5,-91 403.5,-50 287.5,-50"/>
<text text-anchor="start" x="295.5" y="-79" font-family="Helvetica" font-size="10.00">std::basic_istream</text>
<text text-anchor="start" x="295.5" y="-68" font-family="Helvetica" font-size="10.00">&lt; char, std::char_traits</text>
<text text-anchor="middle" x="345.5" y="-57" font-family="Helvetica" font-size="10.00">&lt; char &gt; &gt;</text>
</a>
</g>
</g>
<!-- Node3&#45;&gt;Node2 -->
<g id="edge2" class="edge">
<title>Node3&#45;&gt;Node2</title>
<path fill="none" stroke="midnightblue" d="M413.87,-66.11C454.5,-63.26 507.27,-59.2 554,-54.5 559.8,-53.92 565.78,-53.27 571.8,-52.59"/>
<polygon fill="midnightblue" stroke="midnightblue" points="413.55,-62.62 403.81,-66.8 414.03,-69.6 413.55,-62.62"/>
</g>
<!-- Node4 -->
<g id="node4" class="node">
<title>Node4</title>
<g id="a_node4"><a xlink:title="STL class.">
<polygon fill="none" stroke="#bfbfbf" points="112,-61 112,-80 228,-80 228,-61 112,-61"/>
<text text-anchor="middle" x="170" y="-68" font-family="Helvetica" font-size="10.00">std::basic_ios&lt; Char &gt;</text>
</a>
</g>
</g>
<!-- Node4&#45;&gt;Node3 -->
<g id="edge3" class="edge">
<title>Node4&#45;&gt;Node3</title>
<path fill="none" stroke="midnightblue" d="M238.69,-70.5C254.75,-70.5 271.73,-70.5 287.27,-70.5"/>
<polygon fill="midnightblue" stroke="midnightblue" points="238.29,-67 228.29,-70.5 238.29,-74 238.29,-67"/>
</g>
<!-- Node5 -->
<g id="node5" class="node">
<title>Node5</title>
<g id="a_node5"><a xlink:title="STL class.">
<polygon fill="none" stroke="#bfbfbf" points="0,-61 0,-80 75,-80 75,-61 0,-61"/>
<text text-anchor="middle" x="37.5" y="-68" font-family="Helvetica" font-size="10.00">std::ios_base</text>
</a>
</g>
</g>
<!-- Node5&#45;&gt;Node4 -->
<g id="edge4" class="edge">
<title>Node5&#45;&gt;Node4</title>
<path fill="none" stroke="midnightblue" d="M85.32,-70.5C93.84,-70.5 102.81,-70.5 111.59,-70.5"/>
<polygon fill="midnightblue" stroke="midnightblue" points="85.2,-67 75.2,-70.5 85.2,-74 85.2,-67"/>
</g>
<!-- Node6 -->
<g id="node6" class="node">
<title>Node6</title>
<g id="a_node6"><a xlink:href="classCDPL_1_1Util_1_1CompressionStreamBase.html" target="_top" xlink:title=" ">
<polygon fill="none" stroke="black" points="265,-0.5 265,-30.5 426,-30.5 426,-0.5 265,-0.5"/>
<text text-anchor="start" x="273" y="-18.5" font-family="Helvetica" font-size="10.00">CDPL::Util::CompressionStream</text>
<text text-anchor="middle" x="345.5" y="-7.5" font-family="Helvetica" font-size="10.00">Base&lt; CompAlgo, StreamType &gt;</text>
</a>
</g>
</g>
<!-- Node6&#45;&gt;Node2 -->
<g id="edge5" class="edge">
<title>Node6&#45;&gt;Node2</title>
<path fill="none" stroke="orange" stroke-dasharray="5,2" d="M436.24,-14.47C472.87,-14.99 515.58,-16.81 554,-21.5 559.87,-22.22 565.91,-23.12 571.97,-24.15"/>
<polygon fill="orange" stroke="orange" points="436.12,-10.97 426.08,-14.36 436.04,-17.97 436.12,-10.97"/>
<text text-anchor="start" x="444" y="-46.5" font-family="Helvetica" font-size="10.00"> &lt; CompAlgo, std::basic</text>
<text text-anchor="start" x="444" y="-35.5" font-family="Helvetica" font-size="10.00">_istream&lt; char, std::char</text>
<text text-anchor="middle" x="499" y="-24.5" font-family="Helvetica" font-size="10.00">_traits&lt; char &gt; &gt; &gt;</text>
</g>
<!-- Node7 -->
<g id="node7" class="node">
<title>Node7</title>
<g id="a_node7"><a xlink:title=" ">
<polygon fill="none" stroke="#bfbfbf" points="135.5,-6 135.5,-25 204.5,-25 204.5,-6 135.5,-6"/>
<text text-anchor="middle" x="170" y="-13" font-family="Helvetica" font-size="10.00">StreamType</text>
</a>
</g>
</g>
<!-- Node7&#45;&gt;Node6 -->
<g id="edge6" class="edge">
<title>Node7&#45;&gt;Node6</title>
<path fill="none" stroke="midnightblue" d="M214.95,-15.5C230.11,-15.5 247.6,-15.5 264.72,-15.5"/>
<polygon fill="midnightblue" stroke="midnightblue" points="214.86,-12 204.86,-15.5 214.86,-19 214.86,-12"/>
</g>
</g>
</svg>
