<?xml version="1.0" encoding="UTF-8" standalone="no"?>
<!DOCTYPE svg PUBLIC "-//W3C//DTD SVG 1.1//EN"
 "http://www.w3.org/Graphics/SVG/1.1/DTD/svg11.dtd">
<!-- Generated by graphviz version 2.44.0 (0)
 -->
<!-- Title: CDPL::Math::MatrixTranspose&lt; M &gt; Pages: 1 -->
<svg width="336pt" height="263pt"
 viewBox="0.00 0.00 336.00 263.00" xmlns="http://www.w3.org/2000/svg" xmlns:xlink="http://www.w3.org/1999/xlink">
<g id="graph0" class="graph" transform="scale(1 1) rotate(0) translate(4 259)">
<title>CDPL::Math::MatrixTranspose&lt; M &gt;</title>
<!-- Node1 -->
<g id="node1" class="node">
<title>Node1</title>
<g id="a_node1"><a xlink:title=" ">
<polygon fill="#bfbfbf" stroke="black" points="65,-0.5 65,-19.5 240,-19.5 240,-0.5 65,-0.5"/>
<text text-anchor="middle" x="152.5" y="-7.5" font-family="Helvetica" font-size="10.00">CDPL::Math::MatrixTranspose&lt; M &gt;</text>
</a>
</g>
</g>
<!-- Node2 -->
<g id="node2" class="node">
<title>Node2</title>
<g id="a_node2"><a xlink:href="classCDPL_1_1Math_1_1MatrixExpression.html" target="_top" xlink:title=" ">
<polygon fill="none" stroke="black" points="76.5,-57.5 76.5,-87.5 228.5,-87.5 228.5,-57.5 76.5,-57.5"/>
<text text-anchor="start" x="84.5" y="-75.5" font-family="Helvetica" font-size="10.00">CDPL::Math::MatrixExpression</text>
<text text-anchor="middle" x="152.5" y="-64.5" font-family="Helvetica" font-size="10.00">&lt; MatrixTranspose&lt; M &gt; &gt;</text>
</a>
</g>
</g>
<!-- Node2&#45;&gt;Node1 -->
<g id="edge1" class="edge">
<title>Node2&#45;&gt;Node1</title>
<path fill="none" stroke="midnightblue" d="M152.5,-47.35C152.5,-37.51 152.5,-26.78 152.5,-19.54"/>
<polygon fill="midnightblue" stroke="midnightblue" points="149,-47.47 152.5,-57.47 156,-47.47 149,-47.47"/>
</g>
<!-- Node3 -->
<g id="node3" class="node">
<title>Node3</title>
<g id="a_node3"><a xlink:href="classCDPL_1_1Math_1_1Expression.html" target="_top" xlink:title=" ">
<polygon fill="none" stroke="black" points="0,-146.5 0,-176.5 133,-176.5 133,-146.5 0,-146.5"/>
<text text-anchor="start" x="8" y="-164.5" font-family="Helvetica" font-size="10.00">CDPL::Math::Expression</text>
<text text-anchor="middle" x="66.5" y="-153.5" font-family="Helvetica" font-size="10.00">&lt; MatrixTranspose&lt; M &gt; &gt;</text>
</a>
</g>
</g>
<!-- Node3&#45;&gt;Node2 -->
<g id="edge2" class="edge">
<title>Node3&#45;&gt;Node2</title>
<path fill="none" stroke="midnightblue" d="M87.99,-138.76C103.82,-122.74 124.88,-101.44 138.56,-87.6"/>
<polygon fill="midnightblue" stroke="midnightblue" points="85.24,-136.56 80.7,-146.13 90.22,-141.48 85.24,-136.56"/>
</g>
<!-- Node4 -->
<g id="node4" class="node">
<title>Node4</title>
<g id="a_node4"><a xlink:href="classCDPL_1_1Math_1_1Expression.html" target="_top" xlink:title=" ">
<polygon fill="none" stroke="black" points="77.5,-235.5 77.5,-254.5 227.5,-254.5 227.5,-235.5 77.5,-235.5"/>
<text text-anchor="middle" x="152.5" y="-242.5" font-family="Helvetica" font-size="10.00">CDPL::Math::Expression&lt; E &gt;</text>
</a>
</g>
</g>
<!-- Node4&#45;&gt;Node3 -->
<g id="edge3" class="edge">
<title>Node4&#45;&gt;Node3</title>
<path fill="none" stroke="orange" stroke-dasharray="5,2" d="M132.43,-229.4C127.42,-225.52 122.16,-221.23 117.5,-217 103.31,-204.1 88.48,-187.9 78.5,-176.53"/>
<polygon fill="orange" stroke="orange" points="130.36,-232.23 140.45,-235.46 134.58,-226.64 130.36,-232.23"/>
<text text-anchor="start" x="117.5" y="-209" font-family="Helvetica" font-size="10.00"> &lt; MatrixTranspose&lt;</text>
<text text-anchor="middle" x="163" y="-198" font-family="Helvetica" font-size="10.00"> M &gt; &gt;</text>
</g>
<!-- Node5 -->
<g id="node5" class="node">
<title>Node5</title>
<g id="a_node5"><a xlink:href="classCDPL_1_1Math_1_1MatrixExpression.html" target="_top" xlink:title=" ">
<polygon fill="none" stroke="black" points="151,-152 151,-171 328,-171 328,-152 151,-152"/>
<text text-anchor="middle" x="239.5" y="-159" font-family="Helvetica" font-size="10.00">CDPL::Math::MatrixExpression&lt; E &gt;</text>
</a>
</g>
</g>
<!-- Node4&#45;&gt;Node5 -->
<g id="edge5" class="edge">
<title>Node4&#45;&gt;Node5</title>
<path fill="none" stroke="midnightblue" d="M187.55,-231.13C195.01,-227.33 202.46,-222.65 208.5,-217 222.5,-203.92 231.9,-183.07 236.41,-171.31"/>
<polygon fill="midnightblue" stroke="midnightblue" points="185.79,-228.08 178.19,-235.46 188.73,-234.44 185.79,-228.08"/>
</g>
<!-- Node5&#45;&gt;Node2 -->
<g id="edge4" class="edge">
<title>Node5&#45;&gt;Node2</title>
<path fill="none" stroke="orange" stroke-dasharray="5,2" d="M223.62,-144.62C207.31,-128.31 182.16,-103.16 166.55,-87.55"/>
<polygon fill="orange" stroke="orange" points="221.29,-147.24 230.84,-151.84 226.24,-142.29 221.29,-147.24"/>
<text text-anchor="start" x="205.5" y="-120" font-family="Helvetica" font-size="10.00"> &lt; MatrixTranspose&lt;</text>
<text text-anchor="middle" x="251" y="-109" font-family="Helvetica" font-size="10.00"> M &gt; &gt;</text>
</g>
</g>
</svg>
