<?xml version="1.0" encoding="UTF-8" standalone="no"?>
<!DOCTYPE svg PUBLIC "-//W3C//DTD SVG 1.1//EN"
 "http://www.w3.org/Graphics/SVG/1.1/DTD/svg11.dtd">
<!-- Generated by graphviz version 2.44.0 (0)
 -->
<!-- Title: CDPL::Math::QuaternionBinary1&lt; E1, E2, F &gt; Pages: 1 -->
<svg width="986pt" height="88pt"
 viewBox="0.00 0.00 986.00 88.00" xmlns="http://www.w3.org/2000/svg" xmlns:xlink="http://www.w3.org/1999/xlink">
<g id="graph0" class="graph" transform="scale(1 1) rotate(0) translate(4 84)">
<title>CDPL::Math::QuaternionBinary1&lt; E1, E2, F &gt;</title>
<!-- Node1 -->
<g id="node1" class="node">
<title>Node1</title>
<g id="a_node1"><a xlink:title=" ">
<polygon fill="#bfbfbf" stroke="black" points="820,-21 820,-51 978,-51 978,-21 820,-21"/>
<text text-anchor="start" x="828" y="-39" font-family="Helvetica" font-size="10.00">CDPL::Math::QuaternionBinary1</text>
<text text-anchor="middle" x="899" y="-28" font-family="Helvetica" font-size="10.00">&lt; E1, E2, F &gt;</text>
</a>
</g>
</g>
<!-- Node2 -->
<g id="node2" class="node">
<title>Node2</title>
<g id="a_node2"><a xlink:href="classCDPL_1_1Math_1_1QuaternionExpression.html" target="_top" xlink:title=" ">
<polygon fill="none" stroke="black" points="607,-21 607,-51 783,-51 783,-21 607,-21"/>
<text text-anchor="start" x="615" y="-39" font-family="Helvetica" font-size="10.00">CDPL::Math::QuaternionExpression</text>
<text text-anchor="middle" x="695" y="-28" font-family="Helvetica" font-size="10.00">&lt; QuaternionBinary1&lt; E1, E2, F &gt; &gt;</text>
</a>
</g>
</g>
<!-- Node2&#45;&gt;Node1 -->
<g id="edge1" class="edge">
<title>Node2&#45;&gt;Node1</title>
<path fill="none" stroke="midnightblue" d="M793.16,-36C802.08,-36 811.03,-36 819.75,-36"/>
<polygon fill="midnightblue" stroke="midnightblue" points="793.13,-32.5 783.13,-36 793.13,-39.5 793.13,-32.5"/>
</g>
<!-- Node3 -->
<g id="node3" class="node">
<title>Node3</title>
<g id="a_node3"><a xlink:href="classCDPL_1_1Math_1_1Expression.html" target="_top" xlink:title=" ">
<polygon fill="none" stroke="black" points="313,-38.5 313,-79.5 444,-79.5 444,-38.5 313,-38.5"/>
<text text-anchor="start" x="321" y="-67.5" font-family="Helvetica" font-size="10.00">CDPL::Math::Expression</text>
<text text-anchor="start" x="321" y="-56.5" font-family="Helvetica" font-size="10.00">&lt; QuaternionBinary1&lt; E1,</text>
<text text-anchor="middle" x="378.5" y="-45.5" font-family="Helvetica" font-size="10.00"> E2, F &gt; &gt;</text>
</a>
</g>
</g>
<!-- Node3&#45;&gt;Node2 -->
<g id="edge2" class="edge">
<title>Node3&#45;&gt;Node2</title>
<path fill="none" stroke="midnightblue" d="M454.45,-53.52C500.26,-50.17 559.06,-45.87 606.93,-42.37"/>
<polygon fill="midnightblue" stroke="midnightblue" points="454,-50.04 444.28,-54.26 454.51,-57.02 454,-50.04"/>
</g>
<!-- Node4 -->
<g id="node4" class="node">
<title>Node4</title>
<g id="a_node4"><a xlink:href="classCDPL_1_1Math_1_1Expression.html" target="_top" xlink:title=" ">
<polygon fill="none" stroke="black" points="0,-24.5 0,-43.5 150,-43.5 150,-24.5 0,-24.5"/>
<text text-anchor="middle" x="75" y="-31.5" font-family="Helvetica" font-size="10.00">CDPL::Math::Expression&lt; E &gt;</text>
</a>
</g>
</g>
<!-- Node4&#45;&gt;Node3 -->
<g id="edge3" class="edge">
<title>Node4&#45;&gt;Node3</title>
<path fill="none" stroke="orange" stroke-dasharray="5,2" d="M160.27,-40.99C208.58,-44.99 268.28,-49.94 312.86,-53.64"/>
<polygon fill="orange" stroke="orange" points="160.4,-37.49 150.14,-40.15 159.82,-44.46 160.4,-37.49"/>
<text text-anchor="start" x="168" y="-62" font-family="Helvetica" font-size="10.00"> &lt; QuaternionBinary1</text>
<text text-anchor="middle" x="215" y="-51" font-family="Helvetica" font-size="10.00">&lt; E1, E2, F &gt; &gt;</text>
</g>
<!-- Node5 -->
<g id="node5" class="node">
<title>Node5</title>
<g id="a_node5"><a xlink:href="classCDPL_1_1Math_1_1QuaternionExpression.html" target="_top" xlink:title=" ">
<polygon fill="none" stroke="black" points="280,-0.5 280,-19.5 477,-19.5 477,-0.5 280,-0.5"/>
<text text-anchor="middle" x="378.5" y="-7.5" font-family="Helvetica" font-size="10.00">CDPL::Math::QuaternionExpression&lt; E &gt;</text>
</a>
</g>
</g>
<!-- Node4&#45;&gt;Node5 -->
<g id="edge5" class="edge">
<title>Node4&#45;&gt;Node5</title>
<path fill="none" stroke="midnightblue" d="M160.43,-27.28C197.58,-24.32 241.44,-20.83 279.97,-17.76"/>
<polygon fill="midnightblue" stroke="midnightblue" points="159.83,-23.82 150.14,-28.1 160.39,-30.79 159.83,-23.82"/>
</g>
<!-- Node5&#45;&gt;Node2 -->
<g id="edge4" class="edge">
<title>Node5&#45;&gt;Node2</title>
<path fill="none" stroke="orange" stroke-dasharray="5,2" d="M487.26,-11.4C520,-12.55 556.03,-14.56 589,-18 596.73,-18.81 604.74,-19.83 612.75,-20.98"/>
<polygon fill="orange" stroke="orange" points="487.33,-7.9 477.22,-11.07 487.1,-14.9 487.33,-7.9"/>
<text text-anchor="start" x="495" y="-32" font-family="Helvetica" font-size="10.00"> &lt; QuaternionBinary1</text>
<text text-anchor="middle" x="542" y="-21" font-family="Helvetica" font-size="10.00">&lt; E1, E2, F &gt; &gt;</text>
</g>
</g>
</svg>
