<?xml version="1.0" encoding="UTF-8" standalone="no"?>
<!DOCTYPE svg PUBLIC "-//W3C//DTD SVG 1.1//EN"
 "http://www.w3.org/Graphics/SVG/1.1/DTD/svg11.dtd">
<!-- Generated by graphviz version 2.44.0 (0)
 -->
<!-- Title: CDPL::Math::HomogenousCoordsAdapter&lt; V &gt; Pages: 1 -->
<svg width="1065pt" height="88pt"
 viewBox="0.00 0.00 1065.00 88.00" xmlns="http://www.w3.org/2000/svg" xmlns:xlink="http://www.w3.org/1999/xlink">
<g id="graph0" class="graph" transform="scale(1 1) rotate(0) translate(4 84)">
<title>CDPL::Math::HomogenousCoordsAdapter&lt; V &gt;</title>
<!-- Node1 -->
<g id="node1" class="node">
<title>Node1</title>
<g id="a_node1"><a xlink:title=" ">
<polygon fill="#bfbfbf" stroke="black" points="891,-21 891,-51 1057,-51 1057,-21 891,-21"/>
<text text-anchor="start" x="899" y="-39" font-family="Helvetica" font-size="10.00">CDPL::Math::HomogenousCoords</text>
<text text-anchor="middle" x="974" y="-28" font-family="Helvetica" font-size="10.00">Adapter&lt; V &gt;</text>
</a>
</g>
</g>
<!-- Node2 -->
<g id="node2" class="node">
<title>Node2</title>
<g id="a_node2"><a xlink:href="classCDPL_1_1Math_1_1VectorExpression.html" target="_top" xlink:title=" ">
<polygon fill="none" stroke="black" points="672,-21 672,-51 854,-51 854,-21 672,-21"/>
<text text-anchor="start" x="680" y="-39" font-family="Helvetica" font-size="10.00">CDPL::Math::VectorExpression</text>
<text text-anchor="middle" x="763" y="-28" font-family="Helvetica" font-size="10.00">&lt; HomogenousCoordsAdapter&lt; V &gt; &gt;</text>
</a>
</g>
</g>
<!-- Node2&#45;&gt;Node1 -->
<g id="edge1" class="edge">
<title>Node2&#45;&gt;Node1</title>
<path fill="none" stroke="midnightblue" d="M864.17,-36C873.06,-36 882,-36 890.73,-36"/>
<polygon fill="midnightblue" stroke="midnightblue" points="864.15,-32.5 854.15,-36 864.15,-39.5 864.15,-32.5"/>
</g>
<!-- Node3 -->
<g id="node3" class="node">
<title>Node3</title>
<g id="a_node3"><a xlink:href="classCDPL_1_1Math_1_1Expression.html" target="_top" xlink:title=" ">
<polygon fill="none" stroke="black" points="336.5,-38.5 336.5,-79.5 485.5,-79.5 485.5,-38.5 336.5,-38.5"/>
<text text-anchor="start" x="344.5" y="-67.5" font-family="Helvetica" font-size="10.00">CDPL::Math::Expression</text>
<text text-anchor="start" x="344.5" y="-56.5" font-family="Helvetica" font-size="10.00">&lt; HomogenousCoordsAdapter</text>
<text text-anchor="middle" x="411" y="-45.5" font-family="Helvetica" font-size="10.00">&lt; V &gt; &gt;</text>
</a>
</g>
</g>
<!-- Node3&#45;&gt;Node2 -->
<g id="edge2" class="edge">
<title>Node3&#45;&gt;Node2</title>
<path fill="none" stroke="midnightblue" d="M495.86,-53.49C548.95,-50 617.57,-45.49 671.83,-41.93"/>
<polygon fill="midnightblue" stroke="midnightblue" points="495.55,-50 485.8,-54.15 496.01,-56.99 495.55,-50"/>
</g>
<!-- Node4 -->
<g id="node4" class="node">
<title>Node4</title>
<g id="a_node4"><a xlink:href="classCDPL_1_1Math_1_1Expression.html" target="_top" xlink:title=" ">
<polygon fill="none" stroke="black" points="0,-24.5 0,-43.5 150,-43.5 150,-24.5 0,-24.5"/>
<text text-anchor="middle" x="75" y="-31.5" font-family="Helvetica" font-size="10.00">CDPL::Math::Expression&lt; E &gt;</text>
</a>
</g>
</g>
<!-- Node4&#45;&gt;Node3 -->
<g id="edge3" class="edge">
<title>Node4&#45;&gt;Node3</title>
<path fill="none" stroke="orange" stroke-dasharray="5,2" d="M160.41,-40.32C214.64,-44.38 284.39,-49.6 336.37,-53.49"/>
<polygon fill="orange" stroke="orange" points="160.36,-36.8 150.13,-39.55 159.84,-43.79 160.36,-36.8"/>
<text text-anchor="start" x="168" y="-64" font-family="Helvetica" font-size="10.00"> &lt; HomogenousCoordsAdapter</text>
<text text-anchor="middle" x="236" y="-53" font-family="Helvetica" font-size="10.00">&lt; V &gt; &gt;</text>
</g>
<!-- Node5 -->
<g id="node5" class="node">
<title>Node5</title>
<g id="a_node5"><a xlink:href="classCDPL_1_1Math_1_1VectorExpression.html" target="_top" xlink:title=" ">
<polygon fill="none" stroke="black" points="322,-0.5 322,-19.5 500,-19.5 500,-0.5 322,-0.5"/>
<text text-anchor="middle" x="411" y="-7.5" font-family="Helvetica" font-size="10.00">CDPL::Math::VectorExpression&lt; E &gt;</text>
</a>
</g>
</g>
<!-- Node4&#45;&gt;Node5 -->
<g id="edge5" class="edge">
<title>Node4&#45;&gt;Node5</title>
<path fill="none" stroke="midnightblue" d="M160.14,-27.95C209.51,-24.41 271.82,-19.93 321.86,-16.33"/>
<polygon fill="midnightblue" stroke="midnightblue" points="159.85,-24.47 150.13,-28.67 160.35,-31.45 159.85,-24.47"/>
</g>
<!-- Node5&#45;&gt;Node2 -->
<g id="edge4" class="edge">
<title>Node5&#45;&gt;Node2</title>
<path fill="none" stroke="orange" stroke-dasharray="5,2" d="M510.27,-9.61C554.32,-10.27 606.87,-12.2 654,-17 663.94,-18.01 674.35,-19.41 684.61,-20.99"/>
<polygon fill="orange" stroke="orange" points="510.18,-6.11 500.14,-9.48 510.09,-13.11 510.18,-6.11"/>
<text text-anchor="start" x="518" y="-31" font-family="Helvetica" font-size="10.00"> &lt; HomogenousCoordsAdapter</text>
<text text-anchor="middle" x="586" y="-20" font-family="Helvetica" font-size="10.00">&lt; V &gt; &gt;</text>
</g>
</g>
</svg>
