<?xml version="1.0" encoding="UTF-8" standalone="no"?>
<!DOCTYPE svg PUBLIC "-//W3C//DTD SVG 1.1//EN"
 "http://www.w3.org/Graphics/SVG/1.1/DTD/svg11.dtd">
<!-- Generated by graphviz version 2.40.1 (0)
 -->
<!-- Title: CDPL::Math::QuaternionExpression&lt; E &gt; Pages: 1 -->
<svg width="1813pt" height="833pt"
 viewBox="0.00 0.00 1813.00 833.00" xmlns="http://www.w3.org/2000/svg" xmlns:xlink="http://www.w3.org/1999/xlink">
<g id="graph0" class="graph" transform="scale(1 1) rotate(0) translate(4 829.0025)">
<title>CDPL::Math::QuaternionExpression&lt; E &gt;</title>
<!-- Node1 -->
<g id="node1" class="node">
<title>Node1</title>
<g id="a_node1"><a xlink:title=" ">
<polygon fill="#bfbfbf" stroke="#000000" points="197,-408.5025 197,-427.5025 411,-427.5025 411,-408.5025 197,-408.5025"/>
<text text-anchor="middle" x="304" y="-415.5025" font-family="Helvetica,sans-Serif" font-size="10.00" fill="#000000">CDPL::Math::QuaternionExpression&lt; E &gt;</text>
</a>
</g>
</g>
<!-- Node3 -->
<g id="node3" class="node">
<title>Node3</title>
<g id="a_node3"><a xlink:href="classCDPL_1_1Math_1_1QuaternionExpression.html" target="_top" xlink:title=" ">
<polygon fill="none" stroke="#000000" points="827,-764.0025 827,-794.0025 1012,-794.0025 1012,-764.0025 827,-764.0025"/>
<text text-anchor="start" x="835" y="-782.0025" font-family="Helvetica,sans-Serif" font-size="10.00" fill="#000000">CDPL::Math::QuaternionExpression</text>
<text text-anchor="middle" x="919.5" y="-771.0025" font-family="Helvetica,sans-Serif" font-size="10.00" fill="#000000">&lt; Quaternion&lt; T &gt; &gt;</text>
</a>
</g>
</g>
<!-- Node1&#45;&gt;Node3 -->
<g id="edge2" class="edge">
<title>Node1&#45;&gt;Node3</title>
<path fill="none" stroke="#ffa500" stroke-dasharray="5,2" d="M308.2921,-437.7481C323.1421,-504.0983 374.4252,-717.1127 429,-757.0025 560.4435,-853.0771 768.7884,-818.0368 866.1145,-794.0491"/>
<polygon fill="#ffa500" stroke="#ffa500" points="311.662,-436.7767 306.087,-427.7672 304.8268,-438.2868 311.662,-436.7767"/>
<text text-anchor="middle" x="502.5" y="-817.0025" font-family="Helvetica,sans-Serif" font-size="10.00" fill="#000000"> &lt; Quaternion&lt; T &gt; &gt;</text>
</g>
<!-- Node6 -->
<g id="node6" class="node">
<title>Node6</title>
<g id="a_node6"><a xlink:href="classCDPL_1_1Math_1_1QuaternionExpression.html" target="_top" xlink:title=" ">
<polygon fill="none" stroke="#000000" points="609,-720.0025 609,-750.0025 794,-750.0025 794,-720.0025 609,-720.0025"/>
<text text-anchor="start" x="617" y="-738.0025" font-family="Helvetica,sans-Serif" font-size="10.00" fill="#000000">CDPL::Math::QuaternionExpression</text>
<text text-anchor="middle" x="701.5" y="-727.0025" font-family="Helvetica,sans-Serif" font-size="10.00" fill="#000000">&lt; QuaternionUnary1&lt; E, F &gt; &gt;</text>
</a>
</g>
</g>
<!-- Node1&#45;&gt;Node6 -->
<g id="edge5" class="edge">
<title>Node1&#45;&gt;Node6</title>
<path fill="none" stroke="#ffa500" stroke-dasharray="5,2" d="M306.0025,-437.9636C312.5246,-491.4042 338.2929,-638.1917 429,-705.0025 456.927,-725.5723 541.3834,-732.4441 608.9484,-734.5479"/>
<polygon fill="#ffa500" stroke="#ffa500" points="309.4527,-437.3235 304.8596,-427.7761 302.4963,-438.104 309.4527,-437.3235"/>
<text text-anchor="start" x="450.5" y="-746.0025" font-family="Helvetica,sans-Serif" font-size="10.00" fill="#000000"> &lt; QuaternionUnary1</text>
<text text-anchor="middle" x="502.5" y="-735.0025" font-family="Helvetica,sans-Serif" font-size="10.00" fill="#000000">&lt; E, F &gt; &gt;</text>
</g>
<!-- Node8 -->
<g id="node8" class="node">
<title>Node8</title>
<g id="a_node8"><a xlink:href="classCDPL_1_1Math_1_1QuaternionExpression.html" target="_top" xlink:title=" ">
<polygon fill="none" stroke="#000000" points="606,-671.0025 606,-701.0025 797,-701.0025 797,-671.0025 606,-671.0025"/>
<text text-anchor="start" x="614" y="-689.0025" font-family="Helvetica,sans-Serif" font-size="10.00" fill="#000000">CDPL::Math::QuaternionExpression</text>
<text text-anchor="middle" x="701.5" y="-678.0025" font-family="Helvetica,sans-Serif" font-size="10.00" fill="#000000">&lt; VectorQuaternionAdapter&lt; V &gt; &gt;</text>
</a>
</g>
</g>
<!-- Node1&#45;&gt;Node8 -->
<g id="edge7" class="edge">
<title>Node1&#45;&gt;Node8</title>
<path fill="none" stroke="#ffa500" stroke-dasharray="5,2" d="M308.1338,-437.3937C318.9744,-483.0522 352.8113,-597.4333 429,-650.0025 457.1327,-669.4136 539.1058,-678.3733 605.8555,-682.5001"/>
<polygon fill="#ffa500" stroke="#ffa500" points="311.5325,-436.5547 305.9104,-427.5745 304.7053,-438.1006 311.5325,-436.5547"/>
<text text-anchor="start" x="433.5" y="-693.0025" font-family="Helvetica,sans-Serif" font-size="10.00" fill="#000000"> &lt; VectorQuaternionAdapter</text>
<text text-anchor="middle" x="502.5" y="-682.0025" font-family="Helvetica,sans-Serif" font-size="10.00" fill="#000000">&lt; V &gt; &gt;</text>
</g>
<!-- Node10 -->
<g id="node10" class="node">
<title>Node10</title>
<g id="a_node10"><a xlink:href="classCDPL_1_1Math_1_1QuaternionExpression.html" target="_top" xlink:title=" ">
<polygon fill="none" stroke="#000000" points="609,-610.5025 609,-651.5025 794,-651.5025 794,-610.5025 609,-610.5025"/>
<text text-anchor="start" x="617" y="-639.5025" font-family="Helvetica,sans-Serif" font-size="10.00" fill="#000000">CDPL::Math::QuaternionExpression</text>
<text text-anchor="start" x="617" y="-628.5025" font-family="Helvetica,sans-Serif" font-size="10.00" fill="#000000">&lt; Scalar1QuaternionBinary1</text>
<text text-anchor="middle" x="701.5" y="-617.5025" font-family="Helvetica,sans-Serif" font-size="10.00" fill="#000000">&lt; E1, E2, F &gt; &gt;</text>
</a>
</g>
</g>
<!-- Node1&#45;&gt;Node10 -->
<g id="edge9" class="edge">
<title>Node1&#45;&gt;Node10</title>
<path fill="none" stroke="#ffa500" stroke-dasharray="5,2" d="M311.1997,-437.3248C326.4328,-475.2157 365.8051,-558.8925 429,-597.0025 458.5993,-614.8525 542.0905,-623.3895 608.9283,-627.4369"/>
<polygon fill="#ffa500" stroke="#ffa500" points="314.4314,-435.9781 307.5436,-427.9277 307.9077,-438.5163 314.4314,-435.9781"/>
<text text-anchor="start" x="431.5" y="-638.0025" font-family="Helvetica,sans-Serif" font-size="10.00" fill="#000000"> &lt; Scalar1QuaternionBinary1</text>
<text text-anchor="middle" x="502.5" y="-627.0025" font-family="Helvetica,sans-Serif" font-size="10.00" fill="#000000">&lt; E1, E2, F &gt; &gt;</text>
</g>
<!-- Node12 -->
<g id="node12" class="node">
<title>Node12</title>
<g id="a_node12"><a xlink:href="classCDPL_1_1Math_1_1QuaternionExpression.html" target="_top" xlink:title=" ">
<polygon fill="none" stroke="#000000" points="594,-572.5025 594,-591.5025 809,-591.5025 809,-572.5025 594,-572.5025"/>
<text text-anchor="middle" x="701.5" y="-579.5025" font-family="Helvetica,sans-Serif" font-size="10.00" fill="#000000">CDPL::Math::QuaternionExpression&lt; C &gt;</text>
</a>
</g>
</g>
<!-- Node1&#45;&gt;Node12 -->
<g id="edge11" class="edge">
<title>Node1&#45;&gt;Node12</title>
<path fill="none" stroke="#ffa500" stroke-dasharray="5,2" d="M315.917,-436.5244C335.5977,-465.3743 377.8485,-520.3849 429,-546.0025 479.5618,-571.3248 541.7024,-580.9178 593.8686,-583.9177"/>
<polygon fill="#ffa500" stroke="#ffa500" points="318.5812,-434.2102 310.1276,-427.8237 312.7534,-438.088 318.5812,-434.2102"/>
<text text-anchor="middle" x="502.5" y="-585.0025" font-family="Helvetica,sans-Serif" font-size="10.00" fill="#000000"> &lt; C &gt;</text>
</g>
<!-- Node16 -->
<g id="node16" class="node">
<title>Node16</title>
<g id="a_node16"><a xlink:href="classCDPL_1_1Math_1_1QuaternionExpression.html" target="_top" xlink:title=" ">
<polygon fill="none" stroke="#000000" points="609,-512.5025 609,-553.5025 794,-553.5025 794,-512.5025 609,-512.5025"/>
<text text-anchor="start" x="617" y="-541.5025" font-family="Helvetica,sans-Serif" font-size="10.00" fill="#000000">CDPL::Math::QuaternionExpression</text>
<text text-anchor="start" x="617" y="-530.5025" font-family="Helvetica,sans-Serif" font-size="10.00" fill="#000000">&lt; Scalar2QuaternionBinary1</text>
<text text-anchor="middle" x="701.5" y="-519.5025" font-family="Helvetica,sans-Serif" font-size="10.00" fill="#000000">&lt; E1, E2, F &gt; &gt;</text>
</a>
</g>
</g>
<!-- Node1&#45;&gt;Node16 -->
<g id="edge16" class="edge">
<title>Node1&#45;&gt;Node16</title>
<path fill="none" stroke="#ffa500" stroke-dasharray="5,2" d="M326.3311,-433.3875C350.5297,-449.3087 390.8156,-473.6753 429,-487.0025 486.9821,-507.2396 555.1071,-518.7396 608.7366,-525.1803"/>
<polygon fill="#ffa500" stroke="#ffa500" points="328.141,-430.3874 317.8823,-427.7397 324.2508,-436.2069 328.141,-430.3874"/>
<text text-anchor="start" x="431.5" y="-534.0025" font-family="Helvetica,sans-Serif" font-size="10.00" fill="#000000"> &lt; Scalar2QuaternionBinary1</text>
<text text-anchor="middle" x="502.5" y="-523.0025" font-family="Helvetica,sans-Serif" font-size="10.00" fill="#000000">&lt; E1, E2, F &gt; &gt;</text>
</g>
<!-- Node18 -->
<g id="node18" class="node">
<title>Node18</title>
<g id="a_node18"><a xlink:href="classCDPL_1_1Math_1_1QuaternionExpression.html" target="_top" xlink:title=" ">
<polygon fill="none" stroke="#000000" points="609,-452.5025 609,-493.5025 794,-493.5025 794,-452.5025 609,-452.5025"/>
<text text-anchor="start" x="617" y="-481.5025" font-family="Helvetica,sans-Serif" font-size="10.00" fill="#000000">CDPL::Math::QuaternionExpression</text>
<text text-anchor="start" x="617" y="-470.5025" font-family="Helvetica,sans-Serif" font-size="10.00" fill="#000000">&lt; Scalar1QuaternionBinary2</text>
<text text-anchor="middle" x="701.5" y="-459.5025" font-family="Helvetica,sans-Serif" font-size="10.00" fill="#000000">&lt; E1, E2, F &gt; &gt;</text>
</a>
</g>
</g>
<!-- Node1&#45;&gt;Node18 -->
<g id="edge18" class="edge">
<title>Node1&#45;&gt;Node18</title>
<path fill="none" stroke="#ffa500" stroke-dasharray="5,2" d="M354.6951,-429.7369C377.3374,-434.6698 404.4081,-440.1461 429,-444.0025 488.5747,-453.3448 555.9575,-460.5451 608.8122,-465.4343"/>
<polygon fill="#ffa500" stroke="#ffa500" points="355.1475,-426.2526 344.6283,-427.5164 353.6397,-433.0883 355.1475,-426.2526"/>
<text text-anchor="start" x="431.5" y="-475.0025" font-family="Helvetica,sans-Serif" font-size="10.00" fill="#000000"> &lt; Scalar1QuaternionBinary2</text>
<text text-anchor="middle" x="502.5" y="-464.0025" font-family="Helvetica,sans-Serif" font-size="10.00" fill="#000000">&lt; E1, E2, F &gt; &gt;</text>
</g>
<!-- Node20 -->
<g id="node20" class="node">
<title>Node20</title>
<g id="a_node20"><a xlink:href="classCDPL_1_1Math_1_1QuaternionExpression.html" target="_top" xlink:title=" ">
<polygon fill="none" stroke="#000000" points="609,-403.0025 609,-433.0025 794,-433.0025 794,-403.0025 609,-403.0025"/>
<text text-anchor="start" x="617" y="-421.0025" font-family="Helvetica,sans-Serif" font-size="10.00" fill="#000000">CDPL::Math::QuaternionExpression</text>
<text text-anchor="middle" x="701.5" y="-410.0025" font-family="Helvetica,sans-Serif" font-size="10.00" fill="#000000">&lt; QuaternionReference&lt; Q &gt; &gt;</text>
</a>
</g>
</g>
<!-- Node1&#45;&gt;Node20 -->
<g id="edge20" class="edge">
<title>Node1&#45;&gt;Node20</title>
<path fill="none" stroke="#ffa500" stroke-dasharray="5,2" d="M421.3053,-418.0025C481.1407,-418.0025 552.8844,-418.0025 608.7953,-418.0025"/>
<polygon fill="#ffa500" stroke="#ffa500" points="421.0456,-414.5026 411.0456,-418.0025 421.0456,-421.5026 421.0456,-414.5026"/>
<text text-anchor="start" x="443.5" y="-432.0025" font-family="Helvetica,sans-Serif" font-size="10.00" fill="#000000"> &lt; QuaternionReference</text>
<text text-anchor="middle" x="502.5" y="-421.0025" font-family="Helvetica,sans-Serif" font-size="10.00" fill="#000000">&lt; Q &gt; &gt;</text>
</g>
<!-- Node22 -->
<g id="node22" class="node">
<title>Node22</title>
<g id="a_node22"><a xlink:href="classCDPL_1_1Math_1_1QuaternionExpression.html" target="_top" xlink:title=" ">
<polygon fill="none" stroke="#000000" points="609,-354.0025 609,-384.0025 794,-384.0025 794,-354.0025 609,-354.0025"/>
<text text-anchor="start" x="617" y="-372.0025" font-family="Helvetica,sans-Serif" font-size="10.00" fill="#000000">CDPL::Math::QuaternionExpression</text>
<text text-anchor="middle" x="701.5" y="-361.0025" font-family="Helvetica,sans-Serif" font-size="10.00" fill="#000000">&lt; QuaternionUnary2&lt; E, F &gt; &gt;</text>
</a>
</g>
</g>
<!-- Node1&#45;&gt;Node22 -->
<g id="edge22" class="edge">
<title>Node1&#45;&gt;Node22</title>
<path fill="none" stroke="#ffa500" stroke-dasharray="5,2" d="M353.5643,-406.2551C376.4172,-401.21 403.9699,-395.6483 429,-392.0025 488.549,-383.3288 555.9315,-377.6058 608.7925,-374.038"/>
<polygon fill="#ffa500" stroke="#ffa500" points="352.7442,-402.852 343.7509,-408.453 354.2742,-409.6827 352.7442,-402.852"/>
<text text-anchor="start" x="450.5" y="-406.0025" font-family="Helvetica,sans-Serif" font-size="10.00" fill="#000000"> &lt; QuaternionUnary2</text>
<text text-anchor="middle" x="502.5" y="-395.0025" font-family="Helvetica,sans-Serif" font-size="10.00" fill="#000000">&lt; E, F &gt; &gt;</text>
</g>
<!-- Node24 -->
<g id="node24" class="node">
<title>Node24</title>
<g id="a_node24"><a xlink:href="classCDPL_1_1Math_1_1QuaternionExpression.html" target="_top" xlink:title=" ">
<polygon fill="none" stroke="#000000" points="609,-293.5025 609,-334.5025 794,-334.5025 794,-293.5025 609,-293.5025"/>
<text text-anchor="start" x="617" y="-322.5025" font-family="Helvetica,sans-Serif" font-size="10.00" fill="#000000">CDPL::Math::QuaternionExpression</text>
<text text-anchor="start" x="617" y="-311.5025" font-family="Helvetica,sans-Serif" font-size="10.00" fill="#000000">&lt; Scalar2QuaternionBinary2</text>
<text text-anchor="middle" x="701.5" y="-300.5025" font-family="Helvetica,sans-Serif" font-size="10.00" fill="#000000">&lt; E1, E2, F &gt; &gt;</text>
</a>
</g>
</g>
<!-- Node1&#45;&gt;Node24 -->
<g id="edge24" class="edge">
<title>Node1&#45;&gt;Node24</title>
<path fill="none" stroke="#ffa500" stroke-dasharray="5,2" d="M326.3191,-402.8454C350.5077,-387.2031 390.7853,-363.3911 429,-351.0025 487.1328,-332.1568 555.2578,-322.9068 608.8496,-318.3682"/>
<polygon fill="#ffa500" stroke="#ffa500" points="324.3058,-399.9804 317.8742,-408.3997 328.1524,-405.8288 324.3058,-399.9804"/>
<text text-anchor="start" x="431.5" y="-365.0025" font-family="Helvetica,sans-Serif" font-size="10.00" fill="#000000"> &lt; Scalar2QuaternionBinary2</text>
<text text-anchor="middle" x="502.5" y="-354.0025" font-family="Helvetica,sans-Serif" font-size="10.00" fill="#000000">&lt; E1, E2, F &gt; &gt;</text>
</g>
<!-- Node26 -->
<g id="node26" class="node">
<title>Node26</title>
<g id="a_node26"><a xlink:href="classCDPL_1_1Math_1_1QuaternionExpression.html" target="_top" xlink:title=" ">
<polygon fill="none" stroke="#000000" points="604.5,-244.0025 604.5,-274.0025 798.5,-274.0025 798.5,-244.0025 604.5,-244.0025"/>
<text text-anchor="start" x="612.5" y="-262.0025" font-family="Helvetica,sans-Serif" font-size="10.00" fill="#000000">CDPL::Math::QuaternionExpression</text>
<text text-anchor="middle" x="701.5" y="-251.0025" font-family="Helvetica,sans-Serif" font-size="10.00" fill="#000000">&lt; QuaternionBinary1&lt; E1, E2, F &gt; &gt;</text>
</a>
</g>
</g>
<!-- Node1&#45;&gt;Node26 -->
<g id="edge26" class="edge">
<title>Node1&#45;&gt;Node26</title>
<path fill="none" stroke="#ffa500" stroke-dasharray="5,2" d="M316.4379,-399.9645C336.5531,-372.3871 379.0538,-320.3825 429,-296.0025 483.167,-269.5621 550.1825,-260.2018 604.1997,-257.5057"/>
<polygon fill="#ffa500" stroke="#ffa500" points="313.4477,-398.1298 310.496,-408.3052 319.1489,-402.1914 313.4477,-398.1298"/>
<text text-anchor="start" x="449.5" y="-310.0025" font-family="Helvetica,sans-Serif" font-size="10.00" fill="#000000"> &lt; QuaternionBinary1</text>
<text text-anchor="middle" x="502.5" y="-299.0025" font-family="Helvetica,sans-Serif" font-size="10.00" fill="#000000">&lt; E1, E2, F &gt; &gt;</text>
</g>
<!-- Node28 -->
<g id="node28" class="node">
<title>Node28</title>
<g id="a_node28"><a xlink:href="classCDPL_1_1Math_1_1QuaternionExpression.html" target="_top" xlink:title=" ">
<polygon fill="none" stroke="#000000" points="604.5,-195.0025 604.5,-225.0025 798.5,-225.0025 798.5,-195.0025 604.5,-195.0025"/>
<text text-anchor="start" x="612.5" y="-213.0025" font-family="Helvetica,sans-Serif" font-size="10.00" fill="#000000">CDPL::Math::QuaternionExpression</text>
<text text-anchor="middle" x="701.5" y="-202.0025" font-family="Helvetica,sans-Serif" font-size="10.00" fill="#000000">&lt; QuaternionBinary2&lt; E1, E2, F &gt; &gt;</text>
</a>
</g>
</g>
<!-- Node1&#45;&gt;Node28 -->
<g id="edge28" class="edge">
<title>Node1&#45;&gt;Node28</title>
<path fill="none" stroke="#ffa500" stroke-dasharray="5,2" d="M310.7113,-398.5011C325.2853,-359.4774 363.8587,-272.2536 429,-234.0025 481.3182,-203.2811 549.2795,-197.2445 604.2429,-198.9065"/>
<polygon fill="#ffa500" stroke="#ffa500" points="307.3322,-397.5544 307.235,-408.1488 313.9177,-399.9274 307.3322,-397.5544"/>
<text text-anchor="start" x="449.5" y="-248.0025" font-family="Helvetica,sans-Serif" font-size="10.00" fill="#000000"> &lt; QuaternionBinary2</text>
<text text-anchor="middle" x="502.5" y="-237.0025" font-family="Helvetica,sans-Serif" font-size="10.00" fill="#000000">&lt; E1, E2, F &gt; &gt;</text>
</g>
<!-- Node30 -->
<g id="node30" class="node">
<title>Node30</title>
<g id="a_node30"><a xlink:href="classCDPL_1_1Math_1_1QuaternionExpression.html" target="_top" xlink:title=" ">
<polygon fill="none" stroke="#000000" points="609,-134.5025 609,-175.5025 794,-175.5025 794,-134.5025 609,-134.5025"/>
<text text-anchor="start" x="617" y="-163.5025" font-family="Helvetica,sans-Serif" font-size="10.00" fill="#000000">CDPL::Math::QuaternionExpression</text>
<text text-anchor="start" x="617" y="-152.5025" font-family="Helvetica,sans-Serif" font-size="10.00" fill="#000000">&lt; Scalar13QuaternionTernary</text>
<text text-anchor="middle" x="701.5" y="-141.5025" font-family="Helvetica,sans-Serif" font-size="10.00" fill="#000000">&lt; E1, E2, E3, F &gt; &gt;</text>
</a>
</g>
</g>
<!-- Node1&#45;&gt;Node30 -->
<g id="edge30" class="edge">
<title>Node1&#45;&gt;Node30</title>
<path fill="none" stroke="#ffa500" stroke-dasharray="5,2" d="M307.3528,-398.1836C316.6761,-349.9515 347.7825,-226.503 429,-173.0025 481.3626,-138.5096 552.3481,-134.851 608.7408,-139.3741"/>
<polygon fill="#ffa500" stroke="#ffa500" points="303.8664,-397.793 305.5159,-408.2587 310.7529,-399.0486 303.8664,-397.793"/>
<text text-anchor="start" x="429" y="-187.0025" font-family="Helvetica,sans-Serif" font-size="10.00" fill="#000000"> &lt; Scalar13QuaternionTernary</text>
<text text-anchor="middle" x="502.5" y="-176.0025" font-family="Helvetica,sans-Serif" font-size="10.00" fill="#000000">&lt; E1, E2, E3, F &gt; &gt;</text>
</g>
<!-- Node32 -->
<g id="node32" class="node">
<title>Node32</title>
<g id="a_node32"><a xlink:href="classCDPL_1_1Math_1_1QuaternionExpression.html" target="_top" xlink:title=" ">
<polygon fill="none" stroke="#000000" points="609,-74.5025 609,-115.5025 794,-115.5025 794,-74.5025 609,-74.5025"/>
<text text-anchor="start" x="617" y="-103.5025" font-family="Helvetica,sans-Serif" font-size="10.00" fill="#000000">CDPL::Math::QuaternionExpression</text>
<text text-anchor="start" x="617" y="-92.5025" font-family="Helvetica,sans-Serif" font-size="10.00" fill="#000000">&lt; Scalar3QuaternionTernary</text>
<text text-anchor="middle" x="701.5" y="-81.5025" font-family="Helvetica,sans-Serif" font-size="10.00" fill="#000000">&lt; E1, E2, E3, F &gt; &gt;</text>
</a>
</g>
</g>
<!-- Node1&#45;&gt;Node32 -->
<g id="edge32" class="edge">
<title>Node1&#45;&gt;Node32</title>
<path fill="none" stroke="#ffa500" stroke-dasharray="5,2" d="M305.2034,-398.3721C309.7939,-342.5009 331.3076,-182.1369 429,-112.0025 480.2125,-75.2365 551.7632,-72.0841 608.6966,-77.5424"/>
<polygon fill="#ffa500" stroke="#ffa500" points="301.7111,-398.1405 304.4763,-408.3681 308.6927,-398.6484 301.7111,-398.1405"/>
<text text-anchor="start" x="432" y="-126.0025" font-family="Helvetica,sans-Serif" font-size="10.00" fill="#000000"> &lt; Scalar3QuaternionTernary</text>
<text text-anchor="middle" x="502.5" y="-115.0025" font-family="Helvetica,sans-Serif" font-size="10.00" fill="#000000">&lt; E1, E2, E3, F &gt; &gt;</text>
</g>
<!-- Node34 -->
<g id="node34" class="node">
<title>Node34</title>
<g id="a_node34"><a xlink:href="classCDPL_1_1Math_1_1QuaternionExpression.html" target="_top" xlink:title=" ">
<polygon fill="none" stroke="#000000" points="827,-33.0025 827,-63.0025 1012,-63.0025 1012,-33.0025 827,-33.0025"/>
<text text-anchor="start" x="835" y="-51.0025" font-family="Helvetica,sans-Serif" font-size="10.00" fill="#000000">CDPL::Math::QuaternionExpression</text>
<text text-anchor="middle" x="919.5" y="-40.0025" font-family="Helvetica,sans-Serif" font-size="10.00" fill="#000000">&lt; RealQuaternion&lt; T &gt; &gt;</text>
</a>
</g>
</g>
<!-- Node1&#45;&gt;Node34 -->
<g id="edge34" class="edge">
<title>Node1&#45;&gt;Node34</title>
<path fill="none" stroke="#ffa500" stroke-dasharray="5,2" d="M307.8261,-398.5222C321.6814,-330.1491 371.4583,-102.9788 429,-61.0025 562.8556,36.6442 776.4515,-6.5821 871.3525,-32.9865"/>
<polygon fill="#ffa500" stroke="#ffa500" points="304.3786,-397.9135 305.8509,-408.4055 311.2429,-399.2853 304.3786,-397.9135"/>
<text text-anchor="middle" x="502.5" y="-64.0025" font-family="Helvetica,sans-Serif" font-size="10.00" fill="#000000"> &lt; RealQuaternion&lt; T &gt; &gt;</text>
</g>
<!-- Node2 -->
<g id="node2" class="node">
<title>Node2</title>
<g id="a_node2"><a xlink:href="classCDPL_1_1Math_1_1Expression.html" target="_top" xlink:title=" ">
<polygon fill="none" stroke="#000000" points="0,-408.5025 0,-427.5025 160,-427.5025 160,-408.5025 0,-408.5025"/>
<text text-anchor="middle" x="80" y="-415.5025" font-family="Helvetica,sans-Serif" font-size="10.00" fill="#000000">CDPL::Math::Expression&lt; E &gt;</text>
</a>
</g>
</g>
<!-- Node2&#45;&gt;Node1 -->
<g id="edge1" class="edge">
<title>Node2&#45;&gt;Node1</title>
<path fill="none" stroke="#191970" d="M170.4098,-418.0025C179.1589,-418.0025 188.0907,-418.0025 196.9807,-418.0025"/>
<polygon fill="#191970" stroke="#191970" points="170.2365,-414.5026 160.2364,-418.0025 170.2364,-421.5026 170.2365,-414.5026"/>
</g>
<!-- Node4 -->
<g id="node4" class="node">
<title>Node4</title>
<g id="a_node4"><a xlink:href="classCDPL_1_1Math_1_1QuaternionContainer.html" target="_top" xlink:title=" ">
<polygon fill="none" stroke="#000000" points="1407,-697.0025 1407,-727.0025 1586,-727.0025 1586,-697.0025 1407,-697.0025"/>
<text text-anchor="start" x="1415" y="-715.0025" font-family="Helvetica,sans-Serif" font-size="10.00" fill="#000000">CDPL::Math::QuaternionContainer</text>
<text text-anchor="middle" x="1496.5" y="-704.0025" font-family="Helvetica,sans-Serif" font-size="10.00" fill="#000000">&lt; Quaternion&lt; T &gt; &gt;</text>
</a>
</g>
</g>
<!-- Node3&#45;&gt;Node4 -->
<g id="edge3" class="edge">
<title>Node3&#45;&gt;Node4</title>
<path fill="none" stroke="#191970" d="M1022.6601,-776.2288C1085.8694,-773.7058 1168.3237,-768.9402 1241,-760.0025 1305.3945,-752.0832 1378.0323,-737.9229 1429.3516,-727.0275"/>
<polygon fill="#191970" stroke="#191970" points="1022.1448,-772.746 1012.2874,-776.6297 1022.4152,-779.7408 1022.1448,-772.746"/>
</g>
<!-- Node5 -->
<g id="node5" class="node">
<title>Node5</title>
<g id="a_node5"><a xlink:href="classCDPL_1_1Math_1_1Quaternion.html" target="_top" xlink:title=" ">
<polygon fill="none" stroke="#000000" points="1633.5,-702.5025 1633.5,-721.5025 1794.5,-721.5025 1794.5,-702.5025 1633.5,-702.5025"/>
<text text-anchor="middle" x="1714" y="-709.5025" font-family="Helvetica,sans-Serif" font-size="10.00" fill="#000000">CDPL::Math::Quaternion&lt; T &gt;</text>
</a>
</g>
</g>
<!-- Node4&#45;&gt;Node5 -->
<g id="edge4" class="edge">
<title>Node4&#45;&gt;Node5</title>
<path fill="none" stroke="#191970" d="M1596.4978,-712.0025C1608.7904,-712.0025 1621.2331,-712.0025 1633.1922,-712.0025"/>
<polygon fill="#191970" stroke="#191970" points="1596.2213,-708.5026 1586.2213,-712.0025 1596.2213,-715.5026 1596.2213,-708.5026"/>
</g>
<!-- Node7 -->
<g id="node7" class="node">
<title>Node7</title>
<g id="a_node7"><a xlink:href="classCDPL_1_1Math_1_1QuaternionUnary1.html" target="_top" xlink:title=" ">
<polygon fill="none" stroke="#000000" points="1052,-720.0025 1052,-750.0025 1219,-750.0025 1219,-720.0025 1052,-720.0025"/>
<text text-anchor="start" x="1060" y="-738.0025" font-family="Helvetica,sans-Serif" font-size="10.00" fill="#000000">CDPL::Math::QuaternionUnary1</text>
<text text-anchor="middle" x="1135.5" y="-727.0025" font-family="Helvetica,sans-Serif" font-size="10.00" fill="#000000">&lt; E, F &gt;</text>
</a>
</g>
</g>
<!-- Node6&#45;&gt;Node7 -->
<g id="edge6" class="edge">
<title>Node6&#45;&gt;Node7</title>
<path fill="none" stroke="#191970" d="M804.0906,-735.0025C879.677,-735.0025 981.2004,-735.0025 1051.8817,-735.0025"/>
<polygon fill="#191970" stroke="#191970" points="804.0716,-731.5026 794.0716,-735.0025 804.0715,-738.5026 804.0716,-731.5026"/>
</g>
<!-- Node9 -->
<g id="node9" class="node">
<title>Node9</title>
<g id="a_node9"><a xlink:href="classCDPL_1_1Math_1_1VectorQuaternionAdapter.html" target="_top" xlink:title=" ">
<polygon fill="none" stroke="#000000" points="1054,-671.0025 1054,-701.0025 1217,-701.0025 1217,-671.0025 1054,-671.0025"/>
<text text-anchor="start" x="1062" y="-689.0025" font-family="Helvetica,sans-Serif" font-size="10.00" fill="#000000">CDPL::Math::VectorQuaternion</text>
<text text-anchor="middle" x="1135.5" y="-678.0025" font-family="Helvetica,sans-Serif" font-size="10.00" fill="#000000">Adapter&lt; V &gt;</text>
</a>
</g>
</g>
<!-- Node8&#45;&gt;Node9 -->
<g id="edge8" class="edge">
<title>Node8&#45;&gt;Node9</title>
<path fill="none" stroke="#191970" d="M807.0817,-686.0025C883.0026,-686.0025 983.893,-686.0025 1053.7225,-686.0025"/>
<polygon fill="#191970" stroke="#191970" points="807.0117,-682.5026 797.0117,-686.0025 807.0116,-689.5026 807.0117,-682.5026"/>
</g>
<!-- Node11 -->
<g id="node11" class="node">
<title>Node11</title>
<g id="a_node11"><a xlink:href="classCDPL_1_1Math_1_1Scalar1QuaternionBinary1.html" target="_top" xlink:title=" ">
<polygon fill="none" stroke="#000000" points="1051.5,-616.0025 1051.5,-646.0025 1219.5,-646.0025 1219.5,-616.0025 1051.5,-616.0025"/>
<text text-anchor="start" x="1059.5" y="-634.0025" font-family="Helvetica,sans-Serif" font-size="10.00" fill="#000000">CDPL::Math::Scalar1Quaternion</text>
<text text-anchor="middle" x="1135.5" y="-623.0025" font-family="Helvetica,sans-Serif" font-size="10.00" fill="#000000">Binary1&lt; E1, E2, F &gt;</text>
</a>
</g>
</g>
<!-- Node10&#45;&gt;Node11 -->
<g id="edge10" class="edge">
<title>Node10&#45;&gt;Node11</title>
<path fill="none" stroke="#191970" d="M804.519,-631.0025C879.8026,-631.0025 980.6435,-631.0025 1051.1589,-631.0025"/>
<polygon fill="#191970" stroke="#191970" points="804.0716,-627.5026 794.0716,-631.0025 804.0715,-634.5026 804.0716,-627.5026"/>
</g>
<!-- Node13 -->
<g id="node13" class="node">
<title>Node13</title>
<g id="a_node13"><a xlink:href="classCDPL_1_1Math_1_1QuaternionContainer.html" target="_top" xlink:title=" ">
<polygon fill="none" stroke="#000000" points="1031,-572.5025 1031,-591.5025 1240,-591.5025 1240,-572.5025 1031,-572.5025"/>
<text text-anchor="middle" x="1135.5" y="-579.5025" font-family="Helvetica,sans-Serif" font-size="10.00" fill="#000000">CDPL::Math::QuaternionContainer&lt; C &gt;</text>
</a>
</g>
</g>
<!-- Node12&#45;&gt;Node13 -->
<g id="edge12" class="edge">
<title>Node12&#45;&gt;Node13</title>
<path fill="none" stroke="#191970" d="M819.1026,-582.0025C885.1492,-582.0025 966.8663,-582.0025 1030.708,-582.0025"/>
<polygon fill="#191970" stroke="#191970" points="819.0597,-578.5026 809.0596,-582.0025 819.0596,-585.5026 819.0597,-578.5026"/>
</g>
<!-- Node13&#45;&gt;Node4 -->
<g id="edge13" class="edge">
<title>Node13&#45;&gt;Node4</title>
<path fill="none" stroke="#ffa500" stroke-dasharray="5,2" d="M1192.8219,-593.8573C1208.5752,-597.5822 1225.5663,-602.0366 1241,-607.0025 1323.4025,-633.5161 1416.6226,-674.8406 1464.4407,-696.9094"/>
<polygon fill="#ffa500" stroke="#ffa500" points="1193.2081,-590.3546 1182.6772,-591.5169 1191.6344,-597.1754 1193.2081,-590.3546"/>
<text text-anchor="middle" x="1324" y="-665.0025" font-family="Helvetica,sans-Serif" font-size="10.00" fill="#000000"> &lt; Quaternion&lt; T &gt; &gt;</text>
</g>
<!-- Node14 -->
<g id="node14" class="node">
<title>Node14</title>
<g id="a_node14"><a xlink:href="classCDPL_1_1Math_1_1QuaternionContainer.html" target="_top" xlink:title=" ">
<polygon fill="none" stroke="#000000" points="1407,-407.0025 1407,-437.0025 1586,-437.0025 1586,-407.0025 1407,-407.0025"/>
<text text-anchor="start" x="1415" y="-425.0025" font-family="Helvetica,sans-Serif" font-size="10.00" fill="#000000">CDPL::Math::QuaternionContainer</text>
<text text-anchor="middle" x="1496.5" y="-414.0025" font-family="Helvetica,sans-Serif" font-size="10.00" fill="#000000">&lt; RealQuaternion&lt; T &gt; &gt;</text>
</a>
</g>
</g>
<!-- Node13&#45;&gt;Node14 -->
<g id="edge14" class="edge">
<title>Node13&#45;&gt;Node14</title>
<path fill="none" stroke="#ffa500" stroke-dasharray="5,2" d="M1199.881,-570.2174C1213.6505,-566.9073 1227.968,-562.8545 1241,-558.0025 1331.1816,-524.4267 1429.4143,-464.9814 1473.1896,-437.1579"/>
<polygon fill="#ffa500" stroke="#ffa500" points="1198.9375,-566.843 1189.9776,-572.4972 1200.508,-573.6645 1198.9375,-566.843"/>
<text text-anchor="middle" x="1324" y="-552.0025" font-family="Helvetica,sans-Serif" font-size="10.00" fill="#000000"> &lt; RealQuaternion&lt; T &gt; &gt;</text>
</g>
<!-- Node15 -->
<g id="node15" class="node">
<title>Node15</title>
<g id="a_node15"><a xlink:href="classCDPL_1_1Math_1_1RealQuaternion.html" target="_top" xlink:title=" ">
<polygon fill="none" stroke="#000000" points="1623,-412.5025 1623,-431.5025 1805,-431.5025 1805,-412.5025 1623,-412.5025"/>
<text text-anchor="middle" x="1714" y="-419.5025" font-family="Helvetica,sans-Serif" font-size="10.00" fill="#000000">CDPL::Math::RealQuaternion&lt; T &gt;</text>
</a>
</g>
</g>
<!-- Node14&#45;&gt;Node15 -->
<g id="edge15" class="edge">
<title>Node14&#45;&gt;Node15</title>
<path fill="none" stroke="#191970" d="M1596.4535,-422.0025C1605.2114,-422.0025 1614.046,-422.0025 1622.7279,-422.0025"/>
<polygon fill="#191970" stroke="#191970" points="1596.2213,-418.5026 1586.2213,-422.0025 1596.2213,-425.5026 1596.2213,-418.5026"/>
</g>
<!-- Node17 -->
<g id="node17" class="node">
<title>Node17</title>
<g id="a_node17"><a xlink:href="classCDPL_1_1Math_1_1Scalar2QuaternionBinary1.html" target="_top" xlink:title=" ">
<polygon fill="none" stroke="#000000" points="1051.5,-518.0025 1051.5,-548.0025 1219.5,-548.0025 1219.5,-518.0025 1051.5,-518.0025"/>
<text text-anchor="start" x="1059.5" y="-536.0025" font-family="Helvetica,sans-Serif" font-size="10.00" fill="#000000">CDPL::Math::Scalar2Quaternion</text>
<text text-anchor="middle" x="1135.5" y="-525.0025" font-family="Helvetica,sans-Serif" font-size="10.00" fill="#000000">Binary1&lt; E1, E2, F &gt;</text>
</a>
</g>
</g>
<!-- Node16&#45;&gt;Node17 -->
<g id="edge17" class="edge">
<title>Node16&#45;&gt;Node17</title>
<path fill="none" stroke="#191970" d="M804.519,-533.0025C879.8026,-533.0025 980.6435,-533.0025 1051.1589,-533.0025"/>
<polygon fill="#191970" stroke="#191970" points="804.0716,-529.5026 794.0716,-533.0025 804.0715,-536.5026 804.0716,-529.5026"/>
</g>
<!-- Node19 -->
<g id="node19" class="node">
<title>Node19</title>
<g id="a_node19"><a xlink:href="classCDPL_1_1Math_1_1Scalar1QuaternionBinary2.html" target="_top" xlink:title=" ">
<polygon fill="none" stroke="#000000" points="1051.5,-458.0025 1051.5,-488.0025 1219.5,-488.0025 1219.5,-458.0025 1051.5,-458.0025"/>
<text text-anchor="start" x="1059.5" y="-476.0025" font-family="Helvetica,sans-Serif" font-size="10.00" fill="#000000">CDPL::Math::Scalar1Quaternion</text>
<text text-anchor="middle" x="1135.5" y="-465.0025" font-family="Helvetica,sans-Serif" font-size="10.00" fill="#000000">Binary2&lt; E1, E2, F &gt;</text>
</a>
</g>
</g>
<!-- Node18&#45;&gt;Node19 -->
<g id="edge19" class="edge">
<title>Node18&#45;&gt;Node19</title>
<path fill="none" stroke="#191970" d="M804.519,-473.0025C879.8026,-473.0025 980.6435,-473.0025 1051.1589,-473.0025"/>
<polygon fill="#191970" stroke="#191970" points="804.0716,-469.5026 794.0716,-473.0025 804.0715,-476.5026 804.0716,-469.5026"/>
</g>
<!-- Node21 -->
<g id="node21" class="node">
<title>Node21</title>
<g id="a_node21"><a xlink:href="classCDPL_1_1Math_1_1QuaternionReference.html" target="_top" xlink:title=" ">
<polygon fill="none" stroke="#000000" points="1030,-408.5025 1030,-427.5025 1241,-427.5025 1241,-408.5025 1030,-408.5025"/>
<text text-anchor="middle" x="1135.5" y="-415.5025" font-family="Helvetica,sans-Serif" font-size="10.00" fill="#000000">CDPL::Math::QuaternionReference&lt; Q &gt;</text>
</a>
</g>
</g>
<!-- Node20&#45;&gt;Node21 -->
<g id="edge21" class="edge">
<title>Node20&#45;&gt;Node21</title>
<path fill="none" stroke="#191970" d="M804.3673,-418.0025C872.329,-418.0025 961.168,-418.0025 1029.716,-418.0025"/>
<polygon fill="#191970" stroke="#191970" points="804.0716,-414.5026 794.0716,-418.0025 804.0715,-421.5026 804.0716,-414.5026"/>
</g>
<!-- Node23 -->
<g id="node23" class="node">
<title>Node23</title>
<g id="a_node23"><a xlink:href="classCDPL_1_1Math_1_1QuaternionUnary2.html" target="_top" xlink:title=" ">
<polygon fill="none" stroke="#000000" points="1052,-354.0025 1052,-384.0025 1219,-384.0025 1219,-354.0025 1052,-354.0025"/>
<text text-anchor="start" x="1060" y="-372.0025" font-family="Helvetica,sans-Serif" font-size="10.00" fill="#000000">CDPL::Math::QuaternionUnary2</text>
<text text-anchor="middle" x="1135.5" y="-361.0025" font-family="Helvetica,sans-Serif" font-size="10.00" fill="#000000">&lt; E, F &gt;</text>
</a>
</g>
</g>
<!-- Node22&#45;&gt;Node23 -->
<g id="edge23" class="edge">
<title>Node22&#45;&gt;Node23</title>
<path fill="none" stroke="#191970" d="M804.0906,-369.0025C879.677,-369.0025 981.2004,-369.0025 1051.8817,-369.0025"/>
<polygon fill="#191970" stroke="#191970" points="804.0716,-365.5026 794.0716,-369.0025 804.0715,-372.5026 804.0716,-365.5026"/>
</g>
<!-- Node25 -->
<g id="node25" class="node">
<title>Node25</title>
<g id="a_node25"><a xlink:href="classCDPL_1_1Math_1_1Scalar2QuaternionBinary2.html" target="_top" xlink:title=" ">
<polygon fill="none" stroke="#000000" points="1051.5,-299.0025 1051.5,-329.0025 1219.5,-329.0025 1219.5,-299.0025 1051.5,-299.0025"/>
<text text-anchor="start" x="1059.5" y="-317.0025" font-family="Helvetica,sans-Serif" font-size="10.00" fill="#000000">CDPL::Math::Scalar2Quaternion</text>
<text text-anchor="middle" x="1135.5" y="-306.0025" font-family="Helvetica,sans-Serif" font-size="10.00" fill="#000000">Binary2&lt; E1, E2, F &gt;</text>
</a>
</g>
</g>
<!-- Node24&#45;&gt;Node25 -->
<g id="edge25" class="edge">
<title>Node24&#45;&gt;Node25</title>
<path fill="none" stroke="#191970" d="M804.519,-314.0025C879.8026,-314.0025 980.6435,-314.0025 1051.1589,-314.0025"/>
<polygon fill="#191970" stroke="#191970" points="804.0716,-310.5026 794.0716,-314.0025 804.0715,-317.5026 804.0716,-310.5026"/>
</g>
<!-- Node27 -->
<g id="node27" class="node">
<title>Node27</title>
<g id="a_node27"><a xlink:href="classCDPL_1_1Math_1_1QuaternionBinary1.html" target="_top" xlink:title=" ">
<polygon fill="none" stroke="#000000" points="1050.5,-244.0025 1050.5,-274.0025 1220.5,-274.0025 1220.5,-244.0025 1050.5,-244.0025"/>
<text text-anchor="start" x="1058.5" y="-262.0025" font-family="Helvetica,sans-Serif" font-size="10.00" fill="#000000">CDPL::Math::QuaternionBinary1</text>
<text text-anchor="middle" x="1135.5" y="-251.0025" font-family="Helvetica,sans-Serif" font-size="10.00" fill="#000000">&lt; E1, E2, F &gt;</text>
</a>
</g>
</g>
<!-- Node26&#45;&gt;Node27 -->
<g id="edge27" class="edge">
<title>Node26&#45;&gt;Node27</title>
<path fill="none" stroke="#191970" d="M808.98,-259.0025C883.4815,-259.0025 981.3255,-259.0025 1050.4171,-259.0025"/>
<polygon fill="#191970" stroke="#191970" points="808.6279,-255.5026 798.6279,-259.0025 808.6278,-262.5026 808.6279,-255.5026"/>
</g>
<!-- Node29 -->
<g id="node29" class="node">
<title>Node29</title>
<g id="a_node29"><a xlink:href="classCDPL_1_1Math_1_1QuaternionBinary2.html" target="_top" xlink:title=" ">
<polygon fill="none" stroke="#000000" points="1050.5,-195.0025 1050.5,-225.0025 1220.5,-225.0025 1220.5,-195.0025 1050.5,-195.0025"/>
<text text-anchor="start" x="1058.5" y="-213.0025" font-family="Helvetica,sans-Serif" font-size="10.00" fill="#000000">CDPL::Math::QuaternionBinary2</text>
<text text-anchor="middle" x="1135.5" y="-202.0025" font-family="Helvetica,sans-Serif" font-size="10.00" fill="#000000">&lt; E1, E2, F &gt;</text>
</a>
</g>
</g>
<!-- Node28&#45;&gt;Node29 -->
<g id="edge29" class="edge">
<title>Node28&#45;&gt;Node29</title>
<path fill="none" stroke="#191970" d="M808.98,-210.0025C883.4815,-210.0025 981.3255,-210.0025 1050.4171,-210.0025"/>
<polygon fill="#191970" stroke="#191970" points="808.6279,-206.5026 798.6279,-210.0025 808.6278,-213.5026 808.6279,-206.5026"/>
</g>
<!-- Node31 -->
<g id="node31" class="node">
<title>Node31</title>
<g id="a_node31"><a xlink:href="classCDPL_1_1Math_1_1Scalar13QuaternionTernary.html" target="_top" xlink:title=" ">
<polygon fill="none" stroke="#000000" points="1048.5,-140.0025 1048.5,-170.0025 1222.5,-170.0025 1222.5,-140.0025 1048.5,-140.0025"/>
<text text-anchor="start" x="1056.5" y="-158.0025" font-family="Helvetica,sans-Serif" font-size="10.00" fill="#000000">CDPL::Math::Scalar13Quaternion</text>
<text text-anchor="middle" x="1135.5" y="-147.0025" font-family="Helvetica,sans-Serif" font-size="10.00" fill="#000000">Ternary&lt; E1, E2, E3, F &gt;</text>
</a>
</g>
</g>
<!-- Node30&#45;&gt;Node31 -->
<g id="edge31" class="edge">
<title>Node30&#45;&gt;Node31</title>
<path fill="none" stroke="#191970" d="M804.3801,-155.0025C878.6486,-155.0025 977.844,-155.0025 1048.2466,-155.0025"/>
<polygon fill="#191970" stroke="#191970" points="804.0716,-151.5026 794.0716,-155.0025 804.0715,-158.5026 804.0716,-151.5026"/>
</g>
<!-- Node33 -->
<g id="node33" class="node">
<title>Node33</title>
<g id="a_node33"><a xlink:href="classCDPL_1_1Math_1_1Scalar3QuaternionTernary.html" target="_top" xlink:title=" ">
<polygon fill="none" stroke="#000000" points="1051.5,-80.0025 1051.5,-110.0025 1219.5,-110.0025 1219.5,-80.0025 1051.5,-80.0025"/>
<text text-anchor="start" x="1059.5" y="-98.0025" font-family="Helvetica,sans-Serif" font-size="10.00" fill="#000000">CDPL::Math::Scalar3Quaternion</text>
<text text-anchor="middle" x="1135.5" y="-87.0025" font-family="Helvetica,sans-Serif" font-size="10.00" fill="#000000">Ternary&lt; E1, E2, E3, F &gt;</text>
</a>
</g>
</g>
<!-- Node32&#45;&gt;Node33 -->
<g id="edge33" class="edge">
<title>Node32&#45;&gt;Node33</title>
<path fill="none" stroke="#191970" d="M804.519,-95.0025C879.8026,-95.0025 980.6435,-95.0025 1051.1589,-95.0025"/>
<polygon fill="#191970" stroke="#191970" points="804.0716,-91.5026 794.0716,-95.0025 804.0715,-98.5026 804.0716,-91.5026"/>
</g>
<!-- Node34&#45;&gt;Node14 -->
<g id="edge35" class="edge">
<title>Node34&#45;&gt;Node14</title>
<path fill="none" stroke="#191970" d="M1022.3428,-33.6122C1088.7434,-29.2844 1174.774,-33.3378 1241,-70.0025 1385.3496,-149.9188 1469.4188,-349.8436 1490.9511,-406.7005"/>
<polygon fill="#191970" stroke="#191970" points="1021.9982,-30.1279 1012.2774,-34.3417 1022.5043,-37.1096 1021.9982,-30.1279"/>
</g>
</g>
</svg>
