<?xml version="1.0" encoding="UTF-8" standalone="no"?>
<!DOCTYPE svg PUBLIC "-//W3C//DTD SVG 1.1//EN"
 "http://www.w3.org/Graphics/SVG/1.1/DTD/svg11.dtd">
<!-- Generated by graphviz version 2.40.1 (0)
 -->
<!-- Title: CDPL::Vis::GraphicsPrimitive2D Pages: 1 -->
<svg width="388pt" height="382pt"
 viewBox="0.00 0.00 388.00 382.00" xmlns="http://www.w3.org/2000/svg" xmlns:xlink="http://www.w3.org/1999/xlink">
<g id="graph0" class="graph" transform="scale(1 1) rotate(0) translate(4 378)">
<title>CDPL::Vis::GraphicsPrimitive2D</title>
<!-- Node1 -->
<g id="node1" class="node">
<title>Node1</title>
<g id="a_node1"><a xlink:title="The abstract base class of all 2D graphics primitives.">
<polygon fill="#bfbfbf" stroke="#000000" points="0,-171.5 0,-190.5 170,-190.5 170,-171.5 0,-171.5"/>
<text text-anchor="middle" x="85" y="-178.5" font-family="Helvetica,sans-Serif" font-size="10.00" fill="#000000">CDPL::Vis::GraphicsPrimitive2D</text>
</a>
</g>
</g>
<!-- Node2 -->
<g id="node2" class="node">
<title>Node2</title>
<g id="a_node2"><a xlink:href="classCDPL_1_1Vis_1_1ClipPathPrimitive2D.html" target="_top" xlink:title="A graphics primitive representing a clipping region in 2D space.">
<polygon fill="none" stroke="#000000" points="209.5,-354.5 209.5,-373.5 376.5,-373.5 376.5,-354.5 209.5,-354.5"/>
<text text-anchor="middle" x="293" y="-361.5" font-family="Helvetica,sans-Serif" font-size="10.00" fill="#000000">CDPL::Vis::ClipPathPrimitive2D</text>
</a>
</g>
</g>
<!-- Node1&#45;&gt;Node2 -->
<g id="edge1" class="edge">
<title>Node1&#45;&gt;Node2</title>
<path fill="none" stroke="#191970" d="M93.4164,-200.1209C109.7558,-234.8747 149.224,-308.2001 206,-345 211.9678,-348.8681 218.5999,-351.9595 225.4649,-354.4285"/>
<polygon fill="#191970" stroke="#191970" points="96.4322,-198.2992 89.0945,-190.6567 90.0647,-201.207 96.4322,-198.2992"/>
</g>
<!-- Node3 -->
<g id="node3" class="node">
<title>Node3</title>
<g id="a_node3"><a xlink:href="classCDPL_1_1Vis_1_1EllipsePrimitive2D.html" target="_top" xlink:title="A graphics primitive representing a ellipse.">
<polygon fill="none" stroke="#000000" points="213.5,-316.5 213.5,-335.5 372.5,-335.5 372.5,-316.5 213.5,-316.5"/>
<text text-anchor="middle" x="293" y="-323.5" font-family="Helvetica,sans-Serif" font-size="10.00" fill="#000000">CDPL::Vis::EllipsePrimitive2D</text>
</a>
</g>
</g>
<!-- Node1&#45;&gt;Node3 -->
<g id="edge2" class="edge">
<title>Node1&#45;&gt;Node3</title>
<path fill="none" stroke="#191970" d="M97.0022,-199.1519C116.423,-226.9904 157.4964,-279.8483 206,-307 212.8801,-310.8514 220.4717,-313.9223 228.2184,-316.3709"/>
<polygon fill="#191970" stroke="#191970" points="99.7932,-197.0323 91.2667,-190.7435 94.0104,-200.9769 99.7932,-197.0323"/>
</g>
<!-- Node4 -->
<g id="node4" class="node">
<title>Node4</title>
<g id="a_node4"><a xlink:href="classCDPL_1_1Vis_1_1LinePrimitive2D.html" target="_top" xlink:title="A graphics primitive representing a single line.">
<polygon fill="none" stroke="#000000" points="219.5,-278.5 219.5,-297.5 366.5,-297.5 366.5,-278.5 219.5,-278.5"/>
<text text-anchor="middle" x="293" y="-285.5" font-family="Helvetica,sans-Serif" font-size="10.00" fill="#000000">CDPL::Vis::LinePrimitive2D</text>
</a>
</g>
</g>
<!-- Node1&#45;&gt;Node4 -->
<g id="edge3" class="edge">
<title>Node1&#45;&gt;Node4</title>
<path fill="none" stroke="#191970" d="M102.7048,-197.5985C125.038,-217.6044 165.4452,-250.7966 206,-269 214.6037,-272.8619 224.0469,-275.9621 233.441,-278.4444"/>
<polygon fill="#191970" stroke="#191970" points="104.8155,-194.7866 95.0677,-190.6355 100.0993,-199.9593 104.8155,-194.7866"/>
</g>
<!-- Node5 -->
<g id="node5" class="node">
<title>Node5</title>
<g id="a_node5"><a xlink:href="classCDPL_1_1Vis_1_1LineSegmentListPrimitive2D.html" target="_top" xlink:title="A graphics primitive representing a list of disjoint line segments.">
<polygon fill="none" stroke="#000000" points="218,-229 218,-259 368,-259 368,-229 218,-229"/>
<text text-anchor="start" x="226" y="-247" font-family="Helvetica,sans-Serif" font-size="10.00" fill="#000000">CDPL::Vis::LineSegmentList</text>
<text text-anchor="middle" x="293" y="-236" font-family="Helvetica,sans-Serif" font-size="10.00" fill="#000000">Primitive2D</text>
</a>
</g>
</g>
<!-- Node1&#45;&gt;Node5 -->
<g id="edge4" class="edge">
<title>Node1&#45;&gt;Node5</title>
<path fill="none" stroke="#191970" d="M124.4339,-193.6521C148.0503,-201.1624 178.6935,-210.7902 206,-219 216.8359,-222.2579 228.4585,-225.6607 239.5681,-228.8693"/>
<polygon fill="#191970" stroke="#191970" points="125.3636,-190.2751 114.7729,-190.5734 123.2381,-196.9446 125.3636,-190.2751"/>
</g>
<!-- Node6 -->
<g id="node6" class="node">
<title>Node6</title>
<g id="a_node6"><a xlink:href="classCDPL_1_1Vis_1_1PathPrimitive2D.html" target="_top" xlink:title="A graphics primitive representing an arbitrary path in 2D space.">
<polygon fill="none" stroke="#000000" points="219,-190.5 219,-209.5 367,-209.5 367,-190.5 219,-190.5"/>
<text text-anchor="middle" x="293" y="-197.5" font-family="Helvetica,sans-Serif" font-size="10.00" fill="#000000">CDPL::Vis::PathPrimitive2D</text>
</a>
</g>
</g>
<!-- Node1&#45;&gt;Node6 -->
<g id="edge5" class="edge">
<title>Node1&#45;&gt;Node6</title>
<path fill="none" stroke="#191970" d="M180.4934,-189.723C193.3923,-190.9012 206.467,-192.0955 218.9164,-193.2328"/>
<polygon fill="#191970" stroke="#191970" points="180.4787,-186.2071 170.2017,-188.7828 179.8418,-193.1781 180.4787,-186.2071"/>
</g>
<!-- Node7 -->
<g id="node7" class="node">
<title>Node7</title>
<g id="a_node7"><a xlink:href="classCDPL_1_1Vis_1_1PointListPrimitive2D.html" target="_top" xlink:title="A graphics primitive representing a list of points.">
<polygon fill="none" stroke="#000000" points="208.5,-152.5 208.5,-171.5 377.5,-171.5 377.5,-152.5 208.5,-152.5"/>
<text text-anchor="middle" x="293" y="-159.5" font-family="Helvetica,sans-Serif" font-size="10.00" fill="#000000">CDPL::Vis::PointListPrimitive2D</text>
</a>
</g>
</g>
<!-- Node1&#45;&gt;Node7 -->
<g id="edge6" class="edge">
<title>Node1&#45;&gt;Node7</title>
<path fill="none" stroke="#191970" d="M180.2806,-172.2965C189.6163,-171.4437 199.0465,-170.5823 208.2672,-169.74"/>
<polygon fill="#191970" stroke="#191970" points="179.8418,-168.8219 170.2017,-173.2172 180.4787,-175.7929 179.8418,-168.8219"/>
</g>
<!-- Node8 -->
<g id="node8" class="node">
<title>Node8</title>
<g id="a_node8"><a xlink:href="classCDPL_1_1Vis_1_1PolygonPrimitive2D.html" target="_top" xlink:title="A graphics primitive representing a polygon.">
<polygon fill="none" stroke="#000000" points="210,-114.5 210,-133.5 376,-133.5 376,-114.5 210,-114.5"/>
<text text-anchor="middle" x="293" y="-121.5" font-family="Helvetica,sans-Serif" font-size="10.00" fill="#000000">CDPL::Vis::PolygonPrimitive2D</text>
</a>
</g>
</g>
<!-- Node1&#45;&gt;Node8 -->
<g id="edge7" class="edge">
<title>Node1&#45;&gt;Node8</title>
<path fill="none" stroke="#191970" d="M122.8261,-168.1649C146.5582,-160.3508 177.8832,-150.4693 206,-143 218.7006,-139.626 232.5585,-136.398 245.405,-133.5908"/>
<polygon fill="#191970" stroke="#191970" points="121.541,-164.9035 113.1516,-171.3741 123.745,-171.5475 121.541,-164.9035"/>
</g>
<!-- Node9 -->
<g id="node9" class="node">
<title>Node9</title>
<g id="a_node9"><a xlink:href="classCDPL_1_1Vis_1_1PolylinePrimitive2D.html" target="_top" xlink:title="A graphics primitive representing a set of connected line segments.">
<polygon fill="none" stroke="#000000" points="210,-76.5 210,-95.5 376,-95.5 376,-76.5 210,-76.5"/>
<text text-anchor="middle" x="293" y="-83.5" font-family="Helvetica,sans-Serif" font-size="10.00" fill="#000000">CDPL::Vis::PolylinePrimitive2D</text>
</a>
</g>
</g>
<!-- Node1&#45;&gt;Node9 -->
<g id="edge8" class="edge">
<title>Node1&#45;&gt;Node9</title>
<path fill="none" stroke="#191970" d="M104.923,-165.4196C127.9848,-148.1399 167.7187,-120.6427 206,-105 215.3024,-101.1988 225.4897,-98.103 235.5128,-95.5994"/>
<polygon fill="#191970" stroke="#191970" points="102.7766,-162.6547 96.9384,-171.4959 107.0158,-168.2252 102.7766,-162.6547"/>
</g>
<!-- Node10 -->
<g id="node10" class="node">
<title>Node10</title>
<g id="a_node10"><a xlink:href="classCDPL_1_1Vis_1_1TextBlockPrimitive2D.html" target="_top" xlink:title="A graphics primitive representing a block of styled text.">
<polygon fill="none" stroke="#000000" points="206,-38.5 206,-57.5 380,-57.5 380,-38.5 206,-38.5"/>
<text text-anchor="middle" x="293" y="-45.5" font-family="Helvetica,sans-Serif" font-size="10.00" fill="#000000">CDPL::Vis::TextBlockPrimitive2D</text>
</a>
</g>
</g>
<!-- Node1&#45;&gt;Node10 -->
<g id="edge9" class="edge">
<title>Node1&#45;&gt;Node10</title>
<path fill="none" stroke="#191970" d="M98.5788,-163.1466C118.9864,-137.6463 160.0986,-91.2078 206,-67 213.3845,-63.1055 221.5246,-60.0086 229.7731,-57.5461"/>
<polygon fill="#191970" stroke="#191970" points="95.6634,-161.1925 92.2499,-171.2224 101.1731,-165.5104 95.6634,-161.1925"/>
</g>
<!-- Node11 -->
<g id="node11" class="node">
<title>Node11</title>
<g id="a_node11"><a xlink:href="classCDPL_1_1Vis_1_1TextLabelPrimitive2D.html" target="_top" xlink:title="A graphics primitive representing a text label.">
<polygon fill="none" stroke="#000000" points="206.5,-.5 206.5,-19.5 379.5,-19.5 379.5,-.5 206.5,-.5"/>
<text text-anchor="middle" x="293" y="-7.5" font-family="Helvetica,sans-Serif" font-size="10.00" fill="#000000">CDPL::Vis::TextLabelPrimitive2D</text>
</a>
</g>
</g>
<!-- Node1&#45;&gt;Node11 -->
<g id="edge10" class="edge">
<title>Node1&#45;&gt;Node11</title>
<path fill="none" stroke="#191970" d="M94.2933,-162.3475C111.5462,-129.7688 151.7625,-62.7585 206,-29 212.1689,-25.1603 219.0052,-22.0901 226.0558,-19.6363"/>
<polygon fill="#191970" stroke="#191970" points="91.1606,-160.7861 89.6861,-171.2778 97.3815,-163.9955 91.1606,-160.7861"/>
</g>
</g>
</svg>
