<?xml version="1.0" encoding="UTF-8" standalone="no"?>
<!DOCTYPE svg PUBLIC "-//W3C//DTD SVG 1.1//EN"
 "http://www.w3.org/Graphics/SVG/1.1/DTD/svg11.dtd">
<!-- Generated by graphviz version 2.44.0 (0)
 -->
<!-- Title: CDPL::Math::GridContainer&lt; C &gt; Pages: 1 -->
<!--zoomable 167 -->
<svg id="main" version="1.1" xmlns="http://www.w3.org/2000/svg" xmlns:xlink="http://www.w3.org/1999/xlink" xml:space="preserve" onload="init(evt)">
<style type="text/css"><![CDATA[
.edge:hover path { stroke: red; }
.edge:hover polygon { stroke: red; fill: red; }
]]></style>
<script type="text/javascript"><![CDATA[
var edges = document.getElementsByTagName('g');
if (edges && edges.length) {
  for (var i=0;i<edges.length;i++) {
    if (edges[i].id.substr(0,4)=='edge') {
      edges[i].setAttribute('class','edge');
    }
  }
}
]]></script>
        <defs>
                <circle id="rim" cx="0" cy="0" r="7"/>
                <circle id="rim2" cx="0" cy="0" r="3.5"/>
                <g id="zoomPlus">
                        <use xlink:href="#rim" fill="#404040">
                                <set attributeName="fill" to="#808080" begin="zoomplus.mouseover" end="zoomplus.mouseout"/>
                        </use>
                        <path d="M-4,0h8M0,-4v8" fill="none" stroke="white" stroke-width="1.5" pointer-events="none"/>
                </g>
                <g id="zoomMin">
                        <use xlink:href="#rim" fill="#404040">
                                <set attributeName="fill" to="#808080" begin="zoomminus.mouseover" end="zoomminus.mouseout"/>
                        </use>
                        <path d="M-4,0h8" fill="none" stroke="white" stroke-width="1.5" pointer-events="none"/>
                </g>
                <g id="dirArrow">
                        <path fill="none" stroke="white" stroke-width="1.5" d="M0,-3.0v7 M-2.5,-0.5L0,-3.0L2.5,-0.5"/>
                </g>
               <g id="resetDef">
                       <use xlink:href="#rim2" fill="#404040">
                               <set attributeName="fill" to="#808080" begin="reset.mouseover" end="reset.mouseout"/>
                       </use>
               </g>
        </defs>

<script type="text/javascript">
var viewWidth = 1460;
var viewHeight = 167;
var sectionId = 'dynsection-0';
</script>
<script xlink:href="svgpan.js"/>
<svg id="graph" class="graph">
<g id="viewport">
<title>CDPL::Math::GridContainer&lt; C &gt;</title>
<!-- Node1 -->
<g id="node1" class="node">
<title>Node1</title>
<g id="a_node1"><a xlink:title=" ">
<polygon fill="#bfbfbf" stroke="black" points="654,-55 654,-74 816,-74 816,-55 654,-55"/>
<text text-anchor="middle" x="735" y="-62" font-family="Helvetica" font-size="10.00">CDPL::Math::GridContainer&lt; C &gt;</text>
</a>
</g>
</g>
<!-- Node6 -->
<g id="node6" class="node">
<title>Node6</title>
<g id="a_node6"><a xlink:href="classCDPL_1_1Math_1_1GridContainer.html" target="_top" xlink:title=" ">
<polygon fill="none" stroke="black" points="949,-99 949,-140 1086,-140 1086,-99 949,-99"/>
<text text-anchor="start" x="957" y="-128" font-family="Helvetica" font-size="10.00">CDPL::Math::GridContainer</text>
<text text-anchor="start" x="957" y="-117" font-family="Helvetica" font-size="10.00">&lt; Grid&lt; T, std::vector</text>
<text text-anchor="middle" x="1017.5" y="-106" font-family="Helvetica" font-size="10.00">&lt; T &gt; &gt; &gt;</text>
</a>
</g>
</g>
<!-- Node1&#45;&gt;Node6 -->
<g id="edge6" class="edge">
<title>Node1&#45;&gt;Node6</title>
<path fill="none" stroke="orange" stroke-dasharray="5,2" d="M794.44,-75.96C839.44,-84.78 901.72,-96.99 948.87,-106.24"/>
<polygon fill="orange" stroke="orange" points="795.03,-72.51 784.54,-74.02 793.68,-79.38 795.03,-72.51"/>
<text text-anchor="start" x="834" y="-115.5" font-family="Helvetica" font-size="10.00"> &lt; Grid&lt; T, std::vector</text>
<text text-anchor="middle" x="882.5" y="-104.5" font-family="Helvetica" font-size="10.00">&lt; T &gt; &gt; &gt;</text>
</g>
<!-- Node9 -->
<g id="node9" class="node">
<title>Node9</title>
<g id="a_node9"><a xlink:href="classCDPL_1_1Math_1_1GridContainer.html" target="_top" xlink:title=" ">
<polygon fill="none" stroke="black" points="949,-49.5 949,-79.5 1086,-79.5 1086,-49.5 949,-49.5"/>
<text text-anchor="start" x="957" y="-67.5" font-family="Helvetica" font-size="10.00">CDPL::Math::GridContainer</text>
<text text-anchor="middle" x="1017.5" y="-56.5" font-family="Helvetica" font-size="10.00">&lt; ZeroGrid&lt; T &gt; &gt;</text>
</a>
</g>
</g>
<!-- Node1&#45;&gt;Node9 -->
<g id="edge10" class="edge">
<title>Node1&#45;&gt;Node9</title>
<path fill="none" stroke="orange" stroke-dasharray="5,2" d="M826.24,-64.5C866.01,-64.5 911.96,-64.5 948.74,-64.5"/>
<polygon fill="orange" stroke="orange" points="826,-61 816,-64.5 826,-68 826,-61"/>
<text text-anchor="middle" x="882.5" y="-67.5" font-family="Helvetica" font-size="10.00"> &lt; ZeroGrid&lt; T &gt; &gt;</text>
</g>
<!-- Node11 -->
<g id="node11" class="node">
<title>Node11</title>
<g id="a_node11"><a xlink:href="classCDPL_1_1Math_1_1GridContainer.html" target="_top" xlink:title=" ">
<polygon fill="none" stroke="black" points="949,-0.5 949,-30.5 1086,-30.5 1086,-0.5 949,-0.5"/>
<text text-anchor="start" x="957" y="-18.5" font-family="Helvetica" font-size="10.00">CDPL::Math::GridContainer</text>
<text text-anchor="middle" x="1017.5" y="-7.5" font-family="Helvetica" font-size="10.00">&lt; ScalarGrid&lt; T &gt; &gt;</text>
</a>
</g>
</g>
<!-- Node1&#45;&gt;Node11 -->
<g id="edge12" class="edge">
<title>Node1&#45;&gt;Node11</title>
<path fill="none" stroke="orange" stroke-dasharray="5,2" d="M800.52,-53.23C844.92,-45.47 903.78,-35.19 948.85,-27.32"/>
<polygon fill="orange" stroke="orange" points="799.66,-49.83 790.42,-54.99 800.87,-56.72 799.66,-49.83"/>
<text text-anchor="middle" x="882.5" y="-50.5" font-family="Helvetica" font-size="10.00"> &lt; ScalarGrid&lt; T &gt; &gt;</text>
</g>
<!-- Node2 -->
<g id="node2" class="node">
<title>Node2</title>
<g id="a_node2"><a xlink:href="classCDPL_1_1Math_1_1GridExpression.html" target="_top" xlink:title=" ">
<polygon fill="none" stroke="black" points="448,-55 448,-74 617,-74 617,-55 448,-55"/>
<text text-anchor="middle" x="532.5" y="-62" font-family="Helvetica" font-size="10.00">CDPL::Math::GridExpression&lt; C &gt;</text>
</a>
</g>
</g>
<!-- Node2&#45;&gt;Node1 -->
<g id="edge1" class="edge">
<title>Node2&#45;&gt;Node1</title>
<path fill="none" stroke="midnightblue" d="M627.1,-64.5C636.01,-64.5 645,-64.5 653.77,-64.5"/>
<polygon fill="midnightblue" stroke="midnightblue" points="627.08,-61 617.08,-64.5 627.08,-68 627.08,-61"/>
</g>
<!-- Node3 -->
<g id="node3" class="node">
<title>Node3</title>
<g id="a_node3"><a xlink:href="classCDPL_1_1Math_1_1Expression.html" target="_top" xlink:title=" ">
<polygon fill="none" stroke="black" points="223.5,-73 223.5,-92 374.5,-92 374.5,-73 223.5,-73"/>
<text text-anchor="middle" x="299" y="-80" font-family="Helvetica" font-size="10.00">CDPL::Math::Expression&lt; C &gt;</text>
</a>
</g>
</g>
<!-- Node3&#45;&gt;Node2 -->
<g id="edge2" class="edge">
<title>Node3&#45;&gt;Node2</title>
<path fill="none" stroke="midnightblue" d="M384.53,-75.93C405.19,-74.32 427.27,-72.6 447.88,-71"/>
<polygon fill="midnightblue" stroke="midnightblue" points="384.22,-72.44 374.52,-76.71 384.76,-79.42 384.22,-72.44"/>
</g>
<!-- Node4 -->
<g id="node4" class="node">
<title>Node4</title>
<g id="a_node4"><a xlink:href="classCDPL_1_1Math_1_1Expression.html" target="_top" xlink:title=" ">
<polygon fill="none" stroke="black" points="0,-53 0,-72 150,-72 150,-53 0,-53"/>
<text text-anchor="middle" x="75" y="-60" font-family="Helvetica" font-size="10.00">CDPL::Math::Expression&lt; E &gt;</text>
</a>
</g>
</g>
<!-- Node4&#45;&gt;Node3 -->
<g id="edge3" class="edge">
<title>Node4&#45;&gt;Node3</title>
<path fill="none" stroke="orange" stroke-dasharray="5,2" d="M160.31,-70.1C181.08,-71.97 203.19,-73.96 223.46,-75.78"/>
<polygon fill="orange" stroke="orange" points="160.51,-66.6 150.23,-69.19 159.88,-73.57 160.51,-66.6"/>
<text text-anchor="middle" x="182.5" y="-76.5" font-family="Helvetica" font-size="10.00"> &lt; C &gt;</text>
</g>
<!-- Node5 -->
<g id="node5" class="node">
<title>Node5</title>
<g id="a_node5"><a xlink:href="classCDPL_1_1Math_1_1GridExpression.html" target="_top" xlink:title=" ">
<polygon fill="none" stroke="black" points="215,-35 215,-54 383,-54 383,-35 215,-35"/>
<text text-anchor="middle" x="299" y="-42" font-family="Helvetica" font-size="10.00">CDPL::Math::GridExpression&lt; E &gt;</text>
</a>
</g>
</g>
<!-- Node4&#45;&gt;Node5 -->
<g id="edge5" class="edge">
<title>Node4&#45;&gt;Node5</title>
<path fill="none" stroke="midnightblue" d="M160.55,-55.64C178.28,-54.21 196.96,-52.69 214.65,-51.26"/>
<polygon fill="midnightblue" stroke="midnightblue" points="159.92,-52.18 150.23,-56.48 160.48,-59.16 159.92,-52.18"/>
</g>
<!-- Node5&#45;&gt;Node2 -->
<g id="edge4" class="edge">
<title>Node5&#45;&gt;Node2</title>
<path fill="none" stroke="orange" stroke-dasharray="5,2" d="M393.45,-52.57C411.43,-54.13 430.17,-55.75 447.82,-57.27"/>
<polygon fill="orange" stroke="orange" points="393.51,-49.07 383.25,-51.69 392.91,-56.04 393.51,-49.07"/>
<text text-anchor="middle" x="415.5" y="-59.5" font-family="Helvetica" font-size="10.00"> &lt; C &gt;</text>
</g>
<!-- Node7 -->
<g id="node7" class="node">
<title>Node7</title>
<g id="a_node7"><a xlink:href="classCDPL_1_1Math_1_1Grid.html" target="_top" xlink:title=" ">
<polygon fill="none" stroke="black" points="1130.5,-139 1130.5,-158 1261.5,-158 1261.5,-139 1130.5,-139"/>
<text text-anchor="middle" x="1196" y="-146" font-family="Helvetica" font-size="10.00">CDPL::Math::Grid&lt; T, A &gt;</text>
</a>
</g>
</g>
<!-- Node6&#45;&gt;Node7 -->
<g id="edge7" class="edge">
<title>Node6&#45;&gt;Node7</title>
<path fill="none" stroke="midnightblue" d="M1096.13,-132.26C1109.83,-134.51 1123.88,-136.82 1136.93,-138.96"/>
<polygon fill="midnightblue" stroke="midnightblue" points="1096.67,-128.8 1086.23,-130.63 1095.53,-135.7 1096.67,-128.8"/>
</g>
<!-- Node8 -->
<g id="node8" class="node">
<title>Node8</title>
<g id="a_node8"><a xlink:href="classCDPL_1_1Math_1_1Grid.html" target="_top" xlink:title=" ">
<polygon fill="none" stroke="black" points="1333,-117 1333,-136 1452,-136 1452,-117 1333,-117"/>
<text text-anchor="middle" x="1392.5" y="-124" font-family="Helvetica" font-size="10.00">CDPL::Math::Grid&lt; T &gt;</text>
</a>
</g>
</g>
<!-- Node6&#45;&gt;Node8 -->
<g id="edge9" class="edge">
<title>Node6&#45;&gt;Node8</title>
<path fill="none" stroke="midnightblue" d="M1096.2,-120.96C1166.63,-122.28 1268.9,-124.2 1332.74,-125.4"/>
<polygon fill="midnightblue" stroke="midnightblue" points="1096.11,-117.46 1086.05,-120.77 1095.98,-124.45 1096.11,-117.46"/>
</g>
<!-- Node7&#45;&gt;Node8 -->
<g id="edge8" class="edge">
<title>Node7&#45;&gt;Node8</title>
<path fill="none" stroke="orange" stroke-dasharray="5,2" d="M1271.89,-140.03C1292.12,-137.74 1313.72,-135.3 1332.91,-133.13"/>
<polygon fill="orange" stroke="orange" points="1271.31,-136.57 1261.77,-141.17 1272.1,-143.53 1271.31,-136.57"/>
<text text-anchor="middle" x="1301" y="-140.5" font-family="Helvetica" font-size="10.00"> &lt; T &gt;</text>
</g>
<!-- Node10 -->
<g id="node10" class="node">
<title>Node10</title>
<g id="a_node10"><a xlink:href="classCDPL_1_1Math_1_1ZeroGrid.html" target="_top" xlink:title=" ">
<polygon fill="none" stroke="black" points="1127,-55 1127,-74 1265,-74 1265,-55 1127,-55"/>
<text text-anchor="middle" x="1196" y="-62" font-family="Helvetica" font-size="10.00">CDPL::Math::ZeroGrid&lt; T &gt;</text>
</a>
</g>
</g>
<!-- Node9&#45;&gt;Node10 -->
<g id="edge11" class="edge">
<title>Node9&#45;&gt;Node10</title>
<path fill="none" stroke="midnightblue" d="M1096.33,-64.5C1106.5,-64.5 1116.86,-64.5 1126.86,-64.5"/>
<polygon fill="midnightblue" stroke="midnightblue" points="1096.23,-61 1086.23,-64.5 1096.23,-68 1096.23,-61"/>
</g>
<!-- Node12 -->
<g id="node12" class="node">
<title>Node12</title>
<g id="a_node12"><a xlink:href="classCDPL_1_1Math_1_1ScalarGrid.html" target="_top" xlink:title=" ">
<polygon fill="none" stroke="black" points="1123,-6 1123,-25 1269,-25 1269,-6 1123,-6"/>
<text text-anchor="middle" x="1196" y="-13" font-family="Helvetica" font-size="10.00">CDPL::Math::ScalarGrid&lt; T &gt;</text>
</a>
</g>
</g>
<!-- Node11&#45;&gt;Node12 -->
<g id="edge13" class="edge">
<title>Node11&#45;&gt;Node12</title>
<path fill="none" stroke="midnightblue" d="M1096.43,-15.5C1105.18,-15.5 1114.08,-15.5 1122.76,-15.5"/>
<polygon fill="midnightblue" stroke="midnightblue" points="1096.23,-12 1086.23,-15.5 1096.23,-19 1096.23,-12"/>
</g>
</g>
</svg>
        <g id="navigator" transform="translate(0 0)" fill="#404254">
                <rect fill="#f2f5e9" fill-opacity="0.5" stroke="#606060" stroke-width=".5" x="0" y="0" width="60" height="60"/>
                <use id="zoomplus" xlink:href="#zoomPlus" x="17" y="9" onmousedown="handleZoom(evt,'in')"/>
                <use id="zoomminus" xlink:href="#zoomMin" x="42" y="9" onmousedown="handleZoom(evt,'out')"/>
                <use id="reset" xlink:href="#resetDef" x="30" y="36" onmousedown="handleReset()"/>
                <g id="arrowUp" xlink:href="#dirArrow" transform="translate(30 24)" onmousedown="handlePan(0,-1)">
                  <use xlink:href="#rim" fill="#404040">
                        <set attributeName="fill" to="#808080" begin="arrowUp.mouseover" end="arrowUp.mouseout"/>
                  </use>
                  <path fill="none" stroke="white" stroke-width="1.5" d="M0,-3.0v7 M-2.5,-0.5L0,-3.0L2.5,-0.5"/>
                </g>
                <g id="arrowRight" xlink:href="#dirArrow" transform="rotate(90) translate(36 -43)" onmousedown="handlePan(1,0)">
                  <use xlink:href="#rim" fill="#404040">
                        <set attributeName="fill" to="#808080" begin="arrowRight.mouseover" end="arrowRight.mouseout"/>
                  </use>
                  <path fill="none" stroke="white" stroke-width="1.5" d="M0,-3.0v7 M-2.5,-0.5L0,-3.0L2.5,-0.5"/>
                </g>
                <g id="arrowDown" xlink:href="#dirArrow" transform="rotate(180) translate(-30 -48)" onmousedown="handlePan(0,1)">
                  <use xlink:href="#rim" fill="#404040">
                        <set attributeName="fill" to="#808080" begin="arrowDown.mouseover" end="arrowDown.mouseout"/>
                  </use>
                  <path fill="none" stroke="white" stroke-width="1.5" d="M0,-3.0v7 M-2.5,-0.5L0,-3.0L2.5,-0.5"/>
                </g>
                <g id="arrowLeft" xlink:href="#dirArrow" transform="rotate(270) translate(-36 17)" onmousedown="handlePan(-1,0)">
                  <use xlink:href="#rim" fill="#404040">
                        <set attributeName="fill" to="#808080" begin="arrowLeft.mouseover" end="arrowLeft.mouseout"/>
                  </use>
                  <path fill="none" stroke="white" stroke-width="1.5" d="M0,-3.0v7 M-2.5,-0.5L0,-3.0L2.5,-0.5"/>
                </g>
        </g>
        <svg viewBox="0 0 15 15" width="100%" height="30px" preserveAspectRatio="xMaxYMin meet">
         <g id="arrow_out" transform="scale(0.3 0.3)">
          <a xlink:href="classCDPL_1_1Math_1_1GridContainer__inherit__graph_org.svg" target="_base">
           <rect id="button" ry="5" rx="5" y="6" x="6" height="38" width="38"
                fill="#f2f5e9" fill-opacity="0.5" stroke="#606060" stroke-width="1.0"/>
           <path id="arrow"
             d="M 11.500037,31.436501 C 11.940474,20.09759 22.043105,11.32322 32.158766,21.979434 L 37.068811,17.246167 C 37.068811,17.246167 37.088388,32 37.088388,32 L 22.160133,31.978069 C 22.160133,31.978069 26.997745,27.140456 26.997745,27.140456 C 18.528582,18.264221 13.291696,25.230495 11.500037,31.436501 z"
             style="fill:#404040;"/>
          </a>
         </g>
        </svg>
</svg>
