<?xml version="1.0" encoding="UTF-8" standalone="no"?>
<!DOCTYPE svg PUBLIC "-//W3C//DTD SVG 1.1//EN"
 "http://www.w3.org/Graphics/SVG/1.1/DTD/svg11.dtd">
<!-- Generated by graphviz version 2.44.0 (0)
 -->
<!-- Title: CDPL::Math::TranslationMatrix&lt; T &gt; Pages: 1 -->
<svg width="1448pt" height="124pt"
 viewBox="0.00 0.00 1448.00 123.50" xmlns="http://www.w3.org/2000/svg" xmlns:xlink="http://www.w3.org/1999/xlink">
<g id="graph0" class="graph" transform="scale(1 1) rotate(0) translate(4 119.5)">
<title>CDPL::Math::TranslationMatrix&lt; T &gt;</title>
<!-- Node1 -->
<g id="node1" class="node">
<title>Node1</title>
<g id="a_node1"><a xlink:title=" ">
<polygon fill="#bfbfbf" stroke="black" points="1265,-41.5 1265,-60.5 1440,-60.5 1440,-41.5 1265,-41.5"/>
<text text-anchor="middle" x="1352.5" y="-48.5" font-family="Helvetica" font-size="10.00">CDPL::Math::TranslationMatrix&lt; T &gt;</text>
</a>
</g>
</g>
<!-- Node2 -->
<g id="node2" class="node">
<title>Node2</title>
<g id="a_node2"><a xlink:href="classCDPL_1_1Math_1_1MatrixContainer.html" target="_top" xlink:title=" ">
<polygon fill="none" stroke="black" points="1082,-36 1082,-66 1228,-66 1228,-36 1082,-36"/>
<text text-anchor="start" x="1090" y="-54" font-family="Helvetica" font-size="10.00">CDPL::Math::MatrixContainer</text>
<text text-anchor="middle" x="1155" y="-43" font-family="Helvetica" font-size="10.00">&lt; TranslationMatrix&lt; T &gt; &gt;</text>
</a>
</g>
</g>
<!-- Node2&#45;&gt;Node1 -->
<g id="edge1" class="edge">
<title>Node2&#45;&gt;Node1</title>
<path fill="none" stroke="midnightblue" d="M1238.45,-51C1247.23,-51 1256.17,-51 1264.99,-51"/>
<polygon fill="midnightblue" stroke="midnightblue" points="1238.24,-47.5 1228.24,-51 1238.24,-54.5 1238.24,-47.5"/>
</g>
<!-- Node3 -->
<g id="node3" class="node">
<title>Node3</title>
<g id="a_node3"><a xlink:href="classCDPL_1_1Math_1_1MatrixExpression.html" target="_top" xlink:title=" ">
<polygon fill="none" stroke="black" points="586,-56 586,-86 738,-86 738,-56 586,-56"/>
<text text-anchor="start" x="594" y="-74" font-family="Helvetica" font-size="10.00">CDPL::Math::MatrixExpression</text>
<text text-anchor="middle" x="662" y="-63" font-family="Helvetica" font-size="10.00">&lt; TranslationMatrix&lt; T &gt; &gt;</text>
</a>
</g>
</g>
<!-- Node3&#45;&gt;Node2 -->
<g id="edge2" class="edge">
<title>Node3&#45;&gt;Node2</title>
<path fill="none" stroke="midnightblue" d="M748.2,-68.26C829.39,-65.54 955.05,-61.06 1064,-56 1069.78,-55.73 1075.78,-55.44 1081.8,-55.13"/>
<polygon fill="midnightblue" stroke="midnightblue" points="747.91,-64.77 738.03,-68.6 748.14,-71.76 747.91,-64.77"/>
</g>
<!-- Node4 -->
<g id="node4" class="node">
<title>Node4</title>
<g id="a_node4"><a xlink:href="classCDPL_1_1Math_1_1Expression.html" target="_top" xlink:title=" ">
<polygon fill="none" stroke="black" points="295,-85 295,-115 428,-115 428,-85 295,-85"/>
<text text-anchor="start" x="303" y="-103" font-family="Helvetica" font-size="10.00">CDPL::Math::Expression</text>
<text text-anchor="middle" x="361.5" y="-92" font-family="Helvetica" font-size="10.00">&lt; TranslationMatrix&lt; T &gt; &gt;</text>
</a>
</g>
</g>
<!-- Node4&#45;&gt;Node3 -->
<g id="edge3" class="edge">
<title>Node4&#45;&gt;Node3</title>
<path fill="none" stroke="midnightblue" d="M438.43,-97.61C473.92,-95.99 516.7,-93.33 555,-89 565.02,-87.87 575.52,-86.41 585.87,-84.82"/>
<polygon fill="midnightblue" stroke="midnightblue" points="437.98,-94.12 428.14,-98.06 438.28,-101.12 437.98,-94.12"/>
</g>
<!-- Node5 -->
<g id="node5" class="node">
<title>Node5</title>
<g id="a_node5"><a xlink:href="classCDPL_1_1Math_1_1Expression.html" target="_top" xlink:title=" ">
<polygon fill="none" stroke="black" points="0,-43.5 0,-62.5 150,-62.5 150,-43.5 0,-43.5"/>
<text text-anchor="middle" x="75" y="-50.5" font-family="Helvetica" font-size="10.00">CDPL::Math::Expression&lt; E &gt;</text>
</a>
</g>
</g>
<!-- Node5&#45;&gt;Node4 -->
<g id="edge4" class="edge">
<title>Node5&#45;&gt;Node4</title>
<path fill="none" stroke="orange" stroke-dasharray="5,2" d="M143.69,-64.18C189.42,-71.74 249.49,-81.66 294.8,-89.15"/>
<polygon fill="orange" stroke="orange" points="144.01,-60.69 133.57,-62.51 142.87,-67.59 144.01,-60.69"/>
<text text-anchor="start" x="168" y="-96" font-family="Helvetica" font-size="10.00"> &lt; TranslationMatrix</text>
<text text-anchor="middle" x="211.5" y="-85" font-family="Helvetica" font-size="10.00">&lt; T &gt; &gt;</text>
</g>
<!-- Node6 -->
<g id="node6" class="node">
<title>Node6</title>
<g id="a_node6"><a xlink:href="classCDPL_1_1Math_1_1MatrixExpression.html" target="_top" xlink:title=" ">
<polygon fill="none" stroke="black" points="273,-43.5 273,-62.5 450,-62.5 450,-43.5 273,-43.5"/>
<text text-anchor="middle" x="361.5" y="-50.5" font-family="Helvetica" font-size="10.00">CDPL::Math::MatrixExpression&lt; E &gt;</text>
</a>
</g>
</g>
<!-- Node5&#45;&gt;Node6 -->
<g id="edge6" class="edge">
<title>Node5&#45;&gt;Node6</title>
<path fill="none" stroke="midnightblue" d="M160.34,-53C195.83,-53 237.13,-53 272.96,-53"/>
<polygon fill="midnightblue" stroke="midnightblue" points="160.01,-49.5 150.01,-53 160.01,-56.5 160.01,-49.5"/>
</g>
<!-- Node9 -->
<g id="node9" class="node">
<title>Node9</title>
<g id="a_node9"><a xlink:href="classCDPL_1_1Math_1_1Expression.html" target="_top" xlink:title=" ">
<polygon fill="none" stroke="black" points="286,-0.5 286,-19.5 437,-19.5 437,-0.5 286,-0.5"/>
<text text-anchor="middle" x="361.5" y="-7.5" font-family="Helvetica" font-size="10.00">CDPL::Math::Expression&lt; C &gt;</text>
</a>
</g>
</g>
<!-- Node5&#45;&gt;Node9 -->
<g id="edge10" class="edge">
<title>Node5&#45;&gt;Node9</title>
<path fill="none" stroke="orange" stroke-dasharray="5,2" d="M143.42,-41.87C151.7,-40.54 160.04,-39.23 168,-38 209.55,-31.59 256.22,-24.79 293.2,-19.5"/>
<polygon fill="orange" stroke="orange" points="142.71,-38.44 133.4,-43.49 143.82,-45.35 142.71,-38.44"/>
<text text-anchor="middle" x="211.5" y="-41" font-family="Helvetica" font-size="10.00"> &lt; C &gt;</text>
</g>
<!-- Node6&#45;&gt;Node3 -->
<g id="edge5" class="edge">
<title>Node6&#45;&gt;Node3</title>
<path fill="none" stroke="orange" stroke-dasharray="5,2" d="M460.27,-58.9C501.01,-61.35 547.58,-64.16 585.6,-66.45"/>
<polygon fill="orange" stroke="orange" points="460.24,-55.39 450.04,-58.28 459.81,-62.37 460.24,-55.39"/>
<text text-anchor="start" x="468" y="-78" font-family="Helvetica" font-size="10.00"> &lt; TranslationMatrix</text>
<text text-anchor="middle" x="511.5" y="-67" font-family="Helvetica" font-size="10.00">&lt; T &gt; &gt;</text>
</g>
<!-- Node8 -->
<g id="node8" class="node">
<title>Node8</title>
<g id="a_node8"><a xlink:href="classCDPL_1_1Math_1_1MatrixExpression.html" target="_top" xlink:title=" ">
<polygon fill="none" stroke="black" points="573,-17.5 573,-36.5 751,-36.5 751,-17.5 573,-17.5"/>
<text text-anchor="middle" x="662" y="-24.5" font-family="Helvetica" font-size="10.00">CDPL::Math::MatrixExpression&lt; C &gt;</text>
</a>
</g>
</g>
<!-- Node6&#45;&gt;Node8 -->
<g id="edge11" class="edge">
<title>Node6&#45;&gt;Node8</title>
<path fill="none" stroke="orange" stroke-dasharray="5,2" d="M460.16,-44.49C496.51,-41.33 537.51,-37.76 572.94,-34.67"/>
<polygon fill="orange" stroke="orange" points="459.7,-41.02 450.04,-45.37 460.31,-47.99 459.7,-41.02"/>
<text text-anchor="middle" x="511.5" y="-47" font-family="Helvetica" font-size="10.00"> &lt; C &gt;</text>
</g>
<!-- Node7 -->
<g id="node7" class="node">
<title>Node7</title>
<g id="a_node7"><a xlink:href="classCDPL_1_1Math_1_1MatrixContainer.html" target="_top" xlink:title=" ">
<polygon fill="none" stroke="black" points="788,-21.5 788,-40.5 959,-40.5 959,-21.5 788,-21.5"/>
<text text-anchor="middle" x="873.5" y="-28.5" font-family="Helvetica" font-size="10.00">CDPL::Math::MatrixContainer&lt; C &gt;</text>
</a>
</g>
</g>
<!-- Node7&#45;&gt;Node2 -->
<g id="edge7" class="edge">
<title>Node7&#45;&gt;Node2</title>
<path fill="none" stroke="orange" stroke-dasharray="5,2" d="M969.26,-29.33C999.59,-29.64 1033.27,-30.88 1064,-34 1069.85,-34.59 1075.89,-35.37 1081.95,-36.27"/>
<polygon fill="orange" stroke="orange" points="969.13,-25.83 959.11,-29.26 969.08,-32.83 969.13,-25.83"/>
<text text-anchor="start" x="977" y="-48" font-family="Helvetica" font-size="10.00"> &lt; TranslationMatrix</text>
<text text-anchor="middle" x="1020.5" y="-37" font-family="Helvetica" font-size="10.00">&lt; T &gt; &gt;</text>
</g>
<!-- Node8&#45;&gt;Node7 -->
<g id="edge8" class="edge">
<title>Node8&#45;&gt;Node7</title>
<path fill="none" stroke="midnightblue" d="M761.49,-28.88C770.25,-29.05 779.07,-29.22 787.71,-29.38"/>
<polygon fill="midnightblue" stroke="midnightblue" points="761.3,-25.38 751.24,-28.68 761.17,-32.38 761.3,-25.38"/>
</g>
<!-- Node9&#45;&gt;Node8 -->
<g id="edge9" class="edge">
<title>Node9&#45;&gt;Node8</title>
<path fill="none" stroke="midnightblue" d="M447.33,-9.21C480.9,-9.45 519.81,-10.41 555,-13 568.98,-14.03 583.93,-15.67 598.07,-17.47"/>
<polygon fill="midnightblue" stroke="midnightblue" points="447.11,-5.71 437.09,-9.16 447.07,-12.71 447.11,-5.71"/>
</g>
</g>
</svg>
