<?xml version="1.0" encoding="UTF-8" standalone="no"?>
<!DOCTYPE svg PUBLIC "-//W3C//DTD SVG 1.1//EN"
 "http://www.w3.org/Graphics/SVG/1.1/DTD/svg11.dtd">
<!-- Generated by graphviz version 2.44.0 (0)
 -->
<!-- Title: CDPL::Math::ScalarGrid&lt; T &gt; Pages: 1 -->
<svg width="1395pt" height="120pt"
 viewBox="0.00 0.00 1395.00 119.50" xmlns="http://www.w3.org/2000/svg" xmlns:xlink="http://www.w3.org/1999/xlink">
<g id="graph0" class="graph" transform="scale(1 1) rotate(0) translate(4 115.5)">
<title>CDPL::Math::ScalarGrid&lt; T &gt;</title>
<!-- Node1 -->
<g id="node1" class="node">
<title>Node1</title>
<g id="a_node1"><a xlink:title=" ">
<polygon fill="#bfbfbf" stroke="black" points="1241,-47.5 1241,-66.5 1387,-66.5 1387,-47.5 1241,-47.5"/>
<text text-anchor="middle" x="1314" y="-54.5" font-family="Helvetica" font-size="10.00">CDPL::Math::ScalarGrid&lt; T &gt;</text>
</a>
</g>
</g>
<!-- Node2 -->
<g id="node2" class="node">
<title>Node2</title>
<g id="a_node2"><a xlink:href="classCDPL_1_1Math_1_1GridContainer.html" target="_top" xlink:title=" ">
<polygon fill="none" stroke="black" points="1067,-42 1067,-72 1204,-72 1204,-42 1067,-42"/>
<text text-anchor="start" x="1075" y="-60" font-family="Helvetica" font-size="10.00">CDPL::Math::GridContainer</text>
<text text-anchor="middle" x="1135.5" y="-49" font-family="Helvetica" font-size="10.00">&lt; ScalarGrid&lt; T &gt; &gt;</text>
</a>
</g>
</g>
<!-- Node2&#45;&gt;Node1 -->
<g id="edge1" class="edge">
<title>Node2&#45;&gt;Node1</title>
<path fill="none" stroke="midnightblue" d="M1214.43,-57C1223.18,-57 1232.08,-57 1240.76,-57"/>
<polygon fill="midnightblue" stroke="midnightblue" points="1214.23,-53.5 1204.23,-57 1214.23,-60.5 1214.23,-53.5"/>
</g>
<!-- Node3 -->
<g id="node3" class="node">
<title>Node3</title>
<g id="a_node3"><a xlink:href="classCDPL_1_1Math_1_1GridExpression.html" target="_top" xlink:title=" ">
<polygon fill="none" stroke="black" points="585,-62 585,-92 728,-92 728,-62 585,-62"/>
<text text-anchor="start" x="593" y="-80" font-family="Helvetica" font-size="10.00">CDPL::Math::GridExpression</text>
<text text-anchor="middle" x="656.5" y="-69" font-family="Helvetica" font-size="10.00">&lt; ScalarGrid&lt; T &gt; &gt;</text>
</a>
</g>
</g>
<!-- Node3&#45;&gt;Node2 -->
<g id="edge2" class="edge">
<title>Node3&#45;&gt;Node2</title>
<path fill="none" stroke="midnightblue" d="M738.63,-74.37C817.83,-71.69 941.72,-67.19 1049,-62 1054.79,-61.72 1060.8,-61.41 1066.83,-61.08"/>
<polygon fill="midnightblue" stroke="midnightblue" points="738.12,-70.88 728.24,-74.72 738.36,-77.88 738.12,-70.88"/>
</g>
<!-- Node4 -->
<g id="node4" class="node">
<title>Node4</title>
<g id="a_node4"><a xlink:href="classCDPL_1_1Math_1_1Expression.html" target="_top" xlink:title=" ">
<polygon fill="none" stroke="black" points="298.5,-81 298.5,-111 423.5,-111 423.5,-81 298.5,-81"/>
<text text-anchor="start" x="306.5" y="-99" font-family="Helvetica" font-size="10.00">CDPL::Math::Expression</text>
<text text-anchor="middle" x="361" y="-88" font-family="Helvetica" font-size="10.00">&lt; ScalarGrid&lt; T &gt; &gt;</text>
</a>
</g>
</g>
<!-- Node4&#45;&gt;Node3 -->
<g id="edge3" class="edge">
<title>Node4&#45;&gt;Node3</title>
<path fill="none" stroke="midnightblue" d="M434.24,-91.6C470.23,-89.37 514.42,-86.6 554,-84 563.96,-83.35 574.47,-82.64 584.79,-81.94"/>
<polygon fill="midnightblue" stroke="midnightblue" points="433.6,-88.13 423.83,-92.24 434.03,-95.11 433.6,-88.13"/>
</g>
<!-- Node5 -->
<g id="node5" class="node">
<title>Node5</title>
<g id="a_node5"><a xlink:href="classCDPL_1_1Math_1_1Expression.html" target="_top" xlink:title=" ">
<polygon fill="none" stroke="black" points="0,-41.5 0,-60.5 150,-60.5 150,-41.5 0,-41.5"/>
<text text-anchor="middle" x="75" y="-48.5" font-family="Helvetica" font-size="10.00">CDPL::Math::Expression&lt; E &gt;</text>
</a>
</g>
</g>
<!-- Node5&#45;&gt;Node4 -->
<g id="edge4" class="edge">
<title>Node5&#45;&gt;Node4</title>
<path fill="none" stroke="orange" stroke-dasharray="5,2" d="M146.26,-62.13C192.93,-69.53 253.61,-79.14 298.39,-86.24"/>
<polygon fill="orange" stroke="orange" points="146.65,-58.65 136.23,-60.54 145.56,-65.57 146.65,-58.65"/>
<text text-anchor="middle" x="213.5" y="-81" font-family="Helvetica" font-size="10.00"> &lt; ScalarGrid&lt; T &gt; &gt;</text>
</g>
<!-- Node6 -->
<g id="node6" class="node">
<title>Node6</title>
<g id="a_node6"><a xlink:href="classCDPL_1_1Math_1_1GridExpression.html" target="_top" xlink:title=" ">
<polygon fill="none" stroke="black" points="277,-41.5 277,-60.5 445,-60.5 445,-41.5 277,-41.5"/>
<text text-anchor="middle" x="361" y="-48.5" font-family="Helvetica" font-size="10.00">CDPL::Math::GridExpression&lt; E &gt;</text>
</a>
</g>
</g>
<!-- Node5&#45;&gt;Node6 -->
<g id="edge6" class="edge">
<title>Node5&#45;&gt;Node6</title>
<path fill="none" stroke="midnightblue" d="M160.45,-51C197.26,-51 240.28,-51 276.93,-51"/>
<polygon fill="midnightblue" stroke="midnightblue" points="160.25,-47.5 150.25,-51 160.25,-54.5 160.25,-47.5"/>
</g>
<!-- Node9 -->
<g id="node9" class="node">
<title>Node9</title>
<g id="a_node9"><a xlink:href="classCDPL_1_1Math_1_1Expression.html" target="_top" xlink:title=" ">
<polygon fill="none" stroke="black" points="285.5,-0.5 285.5,-19.5 436.5,-19.5 436.5,-0.5 285.5,-0.5"/>
<text text-anchor="middle" x="361" y="-7.5" font-family="Helvetica" font-size="10.00">CDPL::Math::Expression&lt; C &gt;</text>
</a>
</g>
</g>
<!-- Node5&#45;&gt;Node9 -->
<g id="edge10" class="edge">
<title>Node5&#45;&gt;Node9</title>
<path fill="none" stroke="orange" stroke-dasharray="5,2" d="M142.78,-39.89C151.26,-38.55 159.83,-37.22 168,-36 206.93,-30.19 250.37,-24.26 286.08,-19.54"/>
<polygon fill="orange" stroke="orange" points="142.21,-36.44 132.89,-41.48 143.32,-43.35 142.21,-36.44"/>
<text text-anchor="middle" x="213.5" y="-39" font-family="Helvetica" font-size="10.00"> &lt; C &gt;</text>
</g>
<!-- Node6&#45;&gt;Node3 -->
<g id="edge5" class="edge">
<title>Node6&#45;&gt;Node3</title>
<path fill="none" stroke="orange" stroke-dasharray="5,2" d="M455.54,-59.29C497.47,-63 546.09,-67.31 584.9,-70.75"/>
<polygon fill="orange" stroke="orange" points="455.59,-55.78 445.32,-58.38 454.97,-62.75 455.59,-55.78"/>
<text text-anchor="middle" x="508.5" y="-70" font-family="Helvetica" font-size="10.00"> &lt; ScalarGrid&lt; T &gt; &gt;</text>
</g>
<!-- Node8 -->
<g id="node8" class="node">
<title>Node8</title>
<g id="a_node8"><a xlink:href="classCDPL_1_1Math_1_1GridExpression.html" target="_top" xlink:title=" ">
<polygon fill="none" stroke="black" points="572,-23.5 572,-42.5 741,-42.5 741,-23.5 572,-23.5"/>
<text text-anchor="middle" x="656.5" y="-30.5" font-family="Helvetica" font-size="10.00">CDPL::Math::GridExpression&lt; C &gt;</text>
</a>
</g>
</g>
<!-- Node6&#45;&gt;Node8 -->
<g id="edge11" class="edge">
<title>Node6&#45;&gt;Node8</title>
<path fill="none" stroke="orange" stroke-dasharray="5,2" d="M446.13,-40.45C451.83,-39.9 457.5,-39.41 463,-39 498.51,-36.34 537.79,-34.86 571.56,-34.03"/>
<polygon fill="orange" stroke="orange" points="445.45,-37 435.84,-41.47 446.14,-43.96 445.45,-37"/>
<text text-anchor="middle" x="508.5" y="-42" font-family="Helvetica" font-size="10.00"> &lt; C &gt;</text>
</g>
<!-- Node7 -->
<g id="node7" class="node">
<title>Node7</title>
<g id="a_node7"><a xlink:href="classCDPL_1_1Math_1_1GridContainer.html" target="_top" xlink:title=" ">
<polygon fill="none" stroke="black" points="778,-27.5 778,-46.5 940,-46.5 940,-27.5 778,-27.5"/>
<text text-anchor="middle" x="859" y="-34.5" font-family="Helvetica" font-size="10.00">CDPL::Math::GridContainer&lt; C &gt;</text>
</a>
</g>
</g>
<!-- Node7&#45;&gt;Node2 -->
<g id="edge7" class="edge">
<title>Node7&#45;&gt;Node2</title>
<path fill="none" stroke="orange" stroke-dasharray="5,2" d="M950.18,-43.57C988.16,-46.34 1031.62,-49.5 1066.8,-52.07"/>
<polygon fill="orange" stroke="orange" points="950.36,-40.07 940.13,-42.84 949.85,-47.06 950.36,-40.07"/>
<text text-anchor="middle" x="1003.5" y="-54" font-family="Helvetica" font-size="10.00"> &lt; ScalarGrid&lt; T &gt; &gt;</text>
</g>
<!-- Node8&#45;&gt;Node7 -->
<g id="edge8" class="edge">
<title>Node8&#45;&gt;Node7</title>
<path fill="none" stroke="midnightblue" d="M751.1,-34.87C760.01,-35.05 769,-35.22 777.77,-35.4"/>
<polygon fill="midnightblue" stroke="midnightblue" points="751.15,-31.37 741.08,-34.67 751.01,-38.37 751.15,-31.37"/>
</g>
<!-- Node9&#45;&gt;Node8 -->
<g id="edge9" class="edge">
<title>Node9&#45;&gt;Node8</title>
<path fill="none" stroke="midnightblue" d="M446.9,-16.65C486.16,-19.73 532.64,-23.37 571.75,-26.44"/>
<polygon fill="midnightblue" stroke="midnightblue" points="447.06,-13.16 436.82,-15.86 446.52,-20.13 447.06,-13.16"/>
</g>
</g>
</svg>
