<?xml version="1.0" encoding="UTF-8" standalone="no"?>
<!DOCTYPE svg PUBLIC "-//W3C//DTD SVG 1.1//EN"
 "http://www.w3.org/Graphics/SVG/1.1/DTD/svg11.dtd">
<!-- Generated by graphviz version 2.44.0 (0)
 -->
<!-- Title: CDPL::Util::CompressedIOStream&lt; CompAlgo, CharT, TraitsT &gt; Pages: 1 -->
<svg width="1077pt" height="134pt"
 viewBox="0.00 0.00 1077.00 134.00" xmlns="http://www.w3.org/2000/svg" xmlns:xlink="http://www.w3.org/1999/xlink">
<g id="graph0" class="graph" transform="scale(1 1) rotate(0) translate(4 130)">
<title>CDPL::Util::CompressedIOStream&lt; CompAlgo, CharT, TraitsT &gt;</title>
<!-- Node1 -->
<g id="node1" class="node">
<title>Node1</title>
<g id="a_node1"><a xlink:title=" ">
<polygon fill="#bfbfbf" stroke="black" points="902,-24.5 902,-54.5 1069,-54.5 1069,-24.5 902,-24.5"/>
<text text-anchor="start" x="910" y="-42.5" font-family="Helvetica" font-size="10.00">CDPL::Util::CompressedIOStream</text>
<text text-anchor="middle" x="985.5" y="-31.5" font-family="Helvetica" font-size="10.00">&lt; CompAlgo, CharT, TraitsT &gt;</text>
</a>
</g>
</g>
<!-- Node2 -->
<g id="node2" class="node">
<title>Node2</title>
<g id="a_node2"><a xlink:href="classCDPL_1_1Util_1_1CompressionStreamBase.html" target="_top" xlink:title=" ">
<polygon fill="none" stroke="black" points="706,-13.5 706,-65.5 865,-65.5 865,-13.5 706,-13.5"/>
<text text-anchor="start" x="714" y="-53.5" font-family="Helvetica" font-size="10.00">CDPL::Util::CompressionStream</text>
<text text-anchor="start" x="714" y="-42.5" font-family="Helvetica" font-size="10.00">Base&lt; CompAlgo, std::basic</text>
<text text-anchor="start" x="714" y="-31.5" font-family="Helvetica" font-size="10.00">_iostream&lt; char, std::char</text>
<text text-anchor="middle" x="785.5" y="-20.5" font-family="Helvetica" font-size="10.00">_traits&lt; char &gt; &gt; &gt;</text>
</a>
</g>
</g>
<!-- Node2&#45;&gt;Node1 -->
<g id="edge1" class="edge">
<title>Node2&#45;&gt;Node1</title>
<path fill="none" stroke="midnightblue" d="M875.33,-39.5C884.15,-39.5 893.08,-39.5 901.83,-39.5"/>
<polygon fill="midnightblue" stroke="midnightblue" points="875.04,-36 865.04,-39.5 875.04,-43 875.04,-36"/>
</g>
<!-- Node3 -->
<g id="node3" class="node">
<title>Node3</title>
<g id="a_node3"><a xlink:title=" ">
<polygon fill="none" stroke="#bfbfbf" points="431.5,-49.5 431.5,-79.5 533.5,-79.5 533.5,-49.5 431.5,-49.5"/>
<text text-anchor="start" x="439.5" y="-67.5" font-family="Helvetica" font-size="10.00">std::basic_iostream</text>
<text text-anchor="middle" x="482.5" y="-56.5" font-family="Helvetica" font-size="10.00">&lt; Char &gt;</text>
</a>
</g>
</g>
<!-- Node3&#45;&gt;Node2 -->
<g id="edge2" class="edge">
<title>Node3&#45;&gt;Node2</title>
<path fill="none" stroke="midnightblue" d="M543.58,-60.57C584.35,-57.79 639.46,-53.79 688,-49.5 693.79,-48.99 699.77,-48.43 705.79,-47.85"/>
<polygon fill="midnightblue" stroke="midnightblue" points="543.28,-57.08 533.54,-61.25 543.75,-64.07 543.28,-57.08"/>
</g>
<!-- Node4 -->
<g id="node4" class="node">
<title>Node4</title>
<g id="a_node4"><a xlink:title=" ">
<polygon fill="none" stroke="#bfbfbf" points="266.5,-95.5 266.5,-125.5 363.5,-125.5 363.5,-95.5 266.5,-95.5"/>
<text text-anchor="start" x="274.5" y="-113.5" font-family="Helvetica" font-size="10.00">std::basic_istream</text>
<text text-anchor="middle" x="315" y="-102.5" font-family="Helvetica" font-size="10.00">&lt; Char &gt;</text>
</a>
</g>
</g>
<!-- Node4&#45;&gt;Node3 -->
<g id="edge3" class="edge">
<title>Node4&#45;&gt;Node3</title>
<path fill="none" stroke="midnightblue" d="M373.53,-94.51C392.39,-89.27 413.18,-83.49 431.43,-78.42"/>
<polygon fill="midnightblue" stroke="midnightblue" points="372.57,-91.14 363.87,-97.19 374.44,-97.89 372.57,-91.14"/>
</g>
<!-- Node5 -->
<g id="node5" class="node">
<title>Node5</title>
<g id="a_node5"><a xlink:title=" ">
<polygon fill="none" stroke="#bfbfbf" points="112,-76 112,-95 228,-95 228,-76 112,-76"/>
<text text-anchor="middle" x="170" y="-83" font-family="Helvetica" font-size="10.00">std::basic_ios&lt; Char &gt;</text>
</a>
</g>
</g>
<!-- Node5&#45;&gt;Node4 -->
<g id="edge4" class="edge">
<title>Node5&#45;&gt;Node4</title>
<path fill="none" stroke="midnightblue" d="M235.34,-96.75C245.73,-98.56 256.32,-100.42 266.23,-102.15"/>
<polygon fill="midnightblue" stroke="midnightblue" points="235.92,-93.3 225.47,-95.02 234.72,-100.19 235.92,-93.3"/>
</g>
<!-- Node7 -->
<g id="node7" class="node">
<title>Node7</title>
<g id="a_node7"><a xlink:title=" ">
<polygon fill="none" stroke="#bfbfbf" points="265,-46.5 265,-76.5 365,-76.5 365,-46.5 265,-46.5"/>
<text text-anchor="start" x="273" y="-64.5" font-family="Helvetica" font-size="10.00">std::basic_ostream</text>
<text text-anchor="middle" x="315" y="-53.5" font-family="Helvetica" font-size="10.00">&lt; Char &gt;</text>
</a>
</g>
</g>
<!-- Node5&#45;&gt;Node7 -->
<g id="edge7" class="edge">
<title>Node5&#45;&gt;Node7</title>
<path fill="none" stroke="midnightblue" d="M238,-74.26C246.98,-72.75 256.05,-71.23 264.65,-69.78"/>
<polygon fill="midnightblue" stroke="midnightblue" points="237.21,-70.84 227.93,-75.95 238.37,-77.74 237.21,-70.84"/>
</g>
<!-- Node6 -->
<g id="node6" class="node">
<title>Node6</title>
<g id="a_node6"><a xlink:title=" ">
<polygon fill="none" stroke="#bfbfbf" points="0,-76 0,-95 75,-95 75,-76 0,-76"/>
<text text-anchor="middle" x="37.5" y="-83" font-family="Helvetica" font-size="10.00">std::ios_base</text>
</a>
</g>
</g>
<!-- Node6&#45;&gt;Node5 -->
<g id="edge5" class="edge">
<title>Node6&#45;&gt;Node5</title>
<path fill="none" stroke="midnightblue" d="M85.32,-85.5C93.84,-85.5 102.81,-85.5 111.59,-85.5"/>
<polygon fill="midnightblue" stroke="midnightblue" points="85.2,-82 75.2,-85.5 85.2,-89 85.2,-82"/>
</g>
<!-- Node7&#45;&gt;Node3 -->
<g id="edge6" class="edge">
<title>Node7&#45;&gt;Node3</title>
<path fill="none" stroke="midnightblue" d="M375.21,-62.57C393.58,-62.91 413.64,-63.27 431.34,-63.59"/>
<polygon fill="midnightblue" stroke="midnightblue" points="375.27,-59.07 365.21,-62.39 375.14,-66.07 375.27,-59.07"/>
</g>
<!-- Node8 -->
<g id="node8" class="node">
<title>Node8</title>
<g id="a_node8"><a xlink:href="classCDPL_1_1Util_1_1CompressionStreamBase.html" target="_top" xlink:title=" ">
<polygon fill="none" stroke="black" points="402,-0.5 402,-30.5 563,-30.5 563,-0.5 402,-0.5"/>
<text text-anchor="start" x="410" y="-18.5" font-family="Helvetica" font-size="10.00">CDPL::Util::CompressionStream</text>
<text text-anchor="middle" x="482.5" y="-7.5" font-family="Helvetica" font-size="10.00">Base&lt; CompAlgo, StreamType &gt;</text>
</a>
</g>
</g>
<!-- Node8&#45;&gt;Node2 -->
<g id="edge8" class="edge">
<title>Node8&#45;&gt;Node2</title>
<path fill="none" stroke="orange" stroke-dasharray="5,2" d="M573.79,-11.5C609.48,-11.08 650.78,-12.03 688,-16.5 693.81,-17.2 699.79,-18.12 705.77,-19.18"/>
<polygon fill="orange" stroke="orange" points="573.34,-8.01 563.4,-11.67 573.45,-15.01 573.34,-8.01"/>
<text text-anchor="start" x="581" y="-41.5" font-family="Helvetica" font-size="10.00"> &lt; CompAlgo, std::basic</text>
<text text-anchor="start" x="581" y="-30.5" font-family="Helvetica" font-size="10.00">_iostream&lt; char, std::</text>
<text text-anchor="middle" x="634.5" y="-19.5" font-family="Helvetica" font-size="10.00">char_traits&lt; char &gt; &gt; &gt;</text>
</g>
<!-- Node9 -->
<g id="node9" class="node">
<title>Node9</title>
<g id="a_node9"><a xlink:title=" ">
<polygon fill="none" stroke="#bfbfbf" points="280.5,-6 280.5,-25 349.5,-25 349.5,-6 280.5,-6"/>
<text text-anchor="middle" x="315" y="-13" font-family="Helvetica" font-size="10.00">StreamType</text>
</a>
</g>
</g>
<!-- Node9&#45;&gt;Node8 -->
<g id="edge9" class="edge">
<title>Node9&#45;&gt;Node8</title>
<path fill="none" stroke="midnightblue" d="M360.27,-15.5C373.12,-15.5 387.56,-15.5 401.87,-15.5"/>
<polygon fill="midnightblue" stroke="midnightblue" points="359.89,-12 349.89,-15.5 359.89,-19 359.89,-12"/>
</g>
</g>
</svg>
