<?xml version="1.0" encoding="UTF-8" standalone="no"?>
<!DOCTYPE svg PUBLIC "-//W3C//DTD SVG 1.1//EN"
 "http://www.w3.org/Graphics/SVG/1.1/DTD/svg11.dtd">
<!-- Generated by graphviz version 2.44.0 (0)
 -->
<!-- Title: CDPL::Grid::AttributedGrid Pages: 1 -->
<svg width="165pt" height="151pt"
 viewBox="0.00 0.00 165.00 151.00" xmlns="http://www.w3.org/2000/svg" xmlns:xlink="http://www.w3.org/1999/xlink">
<g id="graph0" class="graph" transform="scale(1 1) rotate(0) translate(4 147)">
<title>CDPL::Grid::AttributedGrid</title>
<!-- Node1 -->
<g id="node1" class="node">
<title>Node1</title>
<g id="a_node1"><a xlink:title="AttributedGrid.">
<polygon fill="#bfbfbf" stroke="black" points="12,-67.5 12,-86.5 145,-86.5 145,-67.5 12,-67.5"/>
<text text-anchor="middle" x="78.5" y="-74.5" font-family="Helvetica" font-size="10.00">CDPL::Grid::AttributedGrid</text>
</a>
</g>
</g>
<!-- Node3 -->
<g id="node3" class="node">
<title>Node3</title>
<g id="a_node3"><a xlink:href="classCDPL_1_1Grid_1_1SpatialGrid.html" target="_top" xlink:title="SpatialGrid.">
<polygon fill="none" stroke="black" points="18,-0.5 18,-30.5 139,-30.5 139,-0.5 18,-0.5"/>
<text text-anchor="start" x="26" y="-18.5" font-family="Helvetica" font-size="10.00">CDPL::Grid::SpatialGrid</text>
<text text-anchor="middle" x="78.5" y="-7.5" font-family="Helvetica" font-size="10.00">&lt; T, CVT &gt;</text>
</a>
</g>
</g>
<!-- Node1&#45;&gt;Node3 -->
<g id="edge2" class="edge">
<title>Node1&#45;&gt;Node3</title>
<path fill="none" stroke="midnightblue" d="M78.5,-57.23C78.5,-48.59 78.5,-38.5 78.5,-30.52"/>
<polygon fill="midnightblue" stroke="midnightblue" points="75,-57.48 78.5,-67.48 82,-57.48 75,-57.48"/>
</g>
<!-- Node2 -->
<g id="node2" class="node">
<title>Node2</title>
<g id="a_node2"><a xlink:href="classCDPL_1_1Base_1_1PropertyContainer.html" target="_top" xlink:title="A class providing methods for the storage and lookup of object properties.">
<polygon fill="none" stroke="black" points="0,-123.5 0,-142.5 157,-142.5 157,-123.5 0,-123.5"/>
<text text-anchor="middle" x="78.5" y="-130.5" font-family="Helvetica" font-size="10.00">CDPL::Base::PropertyContainer</text>
</a>
</g>
</g>
<!-- Node2&#45;&gt;Node1 -->
<g id="edge1" class="edge">
<title>Node2&#45;&gt;Node1</title>
<path fill="none" stroke="midnightblue" d="M78.5,-112.8C78.5,-103.91 78.5,-93.78 78.5,-86.75"/>
<polygon fill="midnightblue" stroke="midnightblue" points="75,-113.08 78.5,-123.08 82,-113.08 75,-113.08"/>
</g>
</g>
</svg>
