<?xml version="1.0" encoding="UTF-8" standalone="no"?>
<!DOCTYPE svg PUBLIC "-//W3C//DTD SVG 1.1//EN"
 "http://www.w3.org/Graphics/SVG/1.1/DTD/svg11.dtd">
<!-- Generated by graphviz version 2.44.0 (0)
 -->
<!-- Title: CDPL::Math::VectorSlice&lt; V &gt; Pages: 1 -->
<svg width="330pt" height="241pt"
 viewBox="0.00 0.00 329.50 241.00" xmlns="http://www.w3.org/2000/svg" xmlns:xlink="http://www.w3.org/1999/xlink">
<g id="graph0" class="graph" transform="scale(1 1) rotate(0) translate(4 237)">
<title>CDPL::Math::VectorSlice&lt; V &gt;</title>
<!-- Node1 -->
<g id="node1" class="node">
<title>Node1</title>
<g id="a_node1"><a xlink:title=" ">
<polygon fill="#bfbfbf" stroke="black" points="71,-0.5 71,-19.5 222,-19.5 222,-0.5 71,-0.5"/>
<text text-anchor="middle" x="146.5" y="-7.5" font-family="Helvetica" font-size="10.00">CDPL::Math::VectorSlice&lt; V &gt;</text>
</a>
</g>
</g>
<!-- Node2 -->
<g id="node2" class="node">
<title>Node2</title>
<g id="a_node2"><a xlink:href="classCDPL_1_1Math_1_1VectorExpression.html" target="_top" xlink:title=" ">
<polygon fill="none" stroke="black" points="70,-57.5 70,-87.5 223,-87.5 223,-57.5 70,-57.5"/>
<text text-anchor="start" x="78" y="-75.5" font-family="Helvetica" font-size="10.00">CDPL::Math::VectorExpression</text>
<text text-anchor="middle" x="146.5" y="-64.5" font-family="Helvetica" font-size="10.00">&lt; VectorSlice&lt; V &gt; &gt;</text>
</a>
</g>
</g>
<!-- Node2&#45;&gt;Node1 -->
<g id="edge1" class="edge">
<title>Node2&#45;&gt;Node1</title>
<path fill="none" stroke="midnightblue" d="M146.5,-47.35C146.5,-37.51 146.5,-26.78 146.5,-19.54"/>
<polygon fill="midnightblue" stroke="midnightblue" points="143,-47.47 146.5,-57.47 150,-47.47 143,-47.47"/>
</g>
<!-- Node3 -->
<g id="node3" class="node">
<title>Node3</title>
<g id="a_node3"><a xlink:href="classCDPL_1_1Math_1_1Expression.html" target="_top" xlink:title=" ">
<polygon fill="none" stroke="black" points="0,-135.5 0,-165.5 125,-165.5 125,-135.5 0,-135.5"/>
<text text-anchor="start" x="8" y="-153.5" font-family="Helvetica" font-size="10.00">CDPL::Math::Expression</text>
<text text-anchor="middle" x="62.5" y="-142.5" font-family="Helvetica" font-size="10.00">&lt; VectorSlice&lt; V &gt; &gt;</text>
</a>
</g>
</g>
<!-- Node3&#45;&gt;Node2 -->
<g id="edge2" class="edge">
<title>Node3&#45;&gt;Node2</title>
<path fill="none" stroke="midnightblue" d="M85.83,-128.39C100.15,-115.43 118.12,-99.18 130.77,-87.73"/>
<polygon fill="midnightblue" stroke="midnightblue" points="83.37,-125.9 78.3,-135.2 88.06,-131.09 83.37,-125.9"/>
</g>
<!-- Node4 -->
<g id="node4" class="node">
<title>Node4</title>
<g id="a_node4"><a xlink:href="classCDPL_1_1Math_1_1Expression.html" target="_top" xlink:title=" ">
<polygon fill="none" stroke="black" points="71.5,-213.5 71.5,-232.5 221.5,-232.5 221.5,-213.5 71.5,-213.5"/>
<text text-anchor="middle" x="146.5" y="-220.5" font-family="Helvetica" font-size="10.00">CDPL::Math::Expression&lt; E &gt;</text>
</a>
</g>
</g>
<!-- Node4&#45;&gt;Node3 -->
<g id="edge3" class="edge">
<title>Node4&#45;&gt;Node3</title>
<path fill="none" stroke="orange" stroke-dasharray="5,2" d="M124.32,-207.57C118.7,-203.66 112.76,-199.32 107.5,-195 96.41,-185.9 84.79,-174.62 76.14,-165.83"/>
<polygon fill="orange" stroke="orange" points="122.51,-210.57 132.75,-213.27 126.43,-204.77 122.51,-210.57"/>
<text text-anchor="middle" x="155.5" y="-187" font-family="Helvetica" font-size="10.00"> &lt; VectorSlice&lt; V &gt; &gt;</text>
</g>
<!-- Node5 -->
<g id="node5" class="node">
<title>Node5</title>
<g id="a_node5"><a xlink:href="classCDPL_1_1Math_1_1VectorExpression.html" target="_top" xlink:title=" ">
<polygon fill="none" stroke="black" points="143.5,-141 143.5,-160 321.5,-160 321.5,-141 143.5,-141"/>
<text text-anchor="middle" x="232.5" y="-148" font-family="Helvetica" font-size="10.00">CDPL::Math::VectorExpression&lt; E &gt;</text>
</a>
</g>
</g>
<!-- Node4&#45;&gt;Node5 -->
<g id="edge5" class="edge">
<title>Node4&#45;&gt;Node5</title>
<path fill="none" stroke="midnightblue" d="M180.95,-209.35C188.86,-205.49 196.89,-200.71 203.5,-195 214.9,-185.15 223.71,-169.78 228.49,-160.2"/>
<polygon fill="midnightblue" stroke="midnightblue" points="179.47,-206.18 171.79,-213.47 182.35,-212.56 179.47,-206.18"/>
</g>
<!-- Node5&#45;&gt;Node2 -->
<g id="edge4" class="edge">
<title>Node5&#45;&gt;Node2</title>
<path fill="none" stroke="orange" stroke-dasharray="5,2" d="M214.85,-133.9C199.43,-120.27 177.24,-100.66 162.36,-87.52"/>
<polygon fill="orange" stroke="orange" points="212.82,-136.78 222.63,-140.78 217.46,-131.54 212.82,-136.78"/>
<text text-anchor="middle" x="242.5" y="-109" font-family="Helvetica" font-size="10.00"> &lt; VectorSlice&lt; V &gt; &gt;</text>
</g>
</g>
</svg>
