<?xml version="1.0" encoding="UTF-8" standalone="no"?>
<!DOCTYPE svg PUBLIC "-//W3C//DTD SVG 1.1//EN"
 "http://www.w3.org/Graphics/SVG/1.1/DTD/svg11.dtd">
<!-- Generated by graphviz version 2.44.0 (0)
 -->
<!-- Title: CDPL::Math::VectorBinary2&lt; E1, E2, F &gt; Pages: 1 -->
<svg width="935pt" height="88pt"
 viewBox="0.00 0.00 935.00 88.00" xmlns="http://www.w3.org/2000/svg" xmlns:xlink="http://www.w3.org/1999/xlink">
<g id="graph0" class="graph" transform="scale(1 1) rotate(0) translate(4 84)">
<title>CDPL::Math::VectorBinary2&lt; E1, E2, F &gt;</title>
<!-- Node1 -->
<g id="node1" class="node">
<title>Node1</title>
<g id="a_node1"><a xlink:title=" ">
<polygon fill="#bfbfbf" stroke="black" points="789,-21 789,-51 927,-51 927,-21 789,-21"/>
<text text-anchor="start" x="797" y="-39" font-family="Helvetica" font-size="10.00">CDPL::Math::VectorBinary2</text>
<text text-anchor="middle" x="858" y="-28" font-family="Helvetica" font-size="10.00">&lt; E1, E2, F &gt;</text>
</a>
</g>
</g>
<!-- Node2 -->
<g id="node2" class="node">
<title>Node2</title>
<g id="a_node2"><a xlink:href="classCDPL_1_1Math_1_1VectorExpression.html" target="_top" xlink:title=" ">
<polygon fill="none" stroke="black" points="596,-21 596,-51 752,-51 752,-21 596,-21"/>
<text text-anchor="start" x="604" y="-39" font-family="Helvetica" font-size="10.00">CDPL::Math::VectorExpression</text>
<text text-anchor="middle" x="674" y="-28" font-family="Helvetica" font-size="10.00">&lt; VectorBinary2&lt; E1, E2, F &gt; &gt;</text>
</a>
</g>
</g>
<!-- Node2&#45;&gt;Node1 -->
<g id="edge1" class="edge">
<title>Node2&#45;&gt;Node1</title>
<path fill="none" stroke="midnightblue" d="M762.26,-36C771.21,-36 780.21,-36 788.92,-36"/>
<polygon fill="midnightblue" stroke="midnightblue" points="762.18,-32.5 752.18,-36 762.18,-39.5 762.18,-32.5"/>
</g>
<!-- Node3 -->
<g id="node3" class="node">
<title>Node3</title>
<g id="a_node3"><a xlink:href="classCDPL_1_1Math_1_1Expression.html" target="_top" xlink:title=" ">
<polygon fill="none" stroke="black" points="308.5,-38.5 308.5,-79.5 437.5,-79.5 437.5,-38.5 308.5,-38.5"/>
<text text-anchor="start" x="316.5" y="-67.5" font-family="Helvetica" font-size="10.00">CDPL::Math::Expression</text>
<text text-anchor="start" x="316.5" y="-56.5" font-family="Helvetica" font-size="10.00">&lt; VectorBinary2&lt; E1, E2,</text>
<text text-anchor="middle" x="373" y="-45.5" font-family="Helvetica" font-size="10.00"> F &gt; &gt;</text>
</a>
</g>
</g>
<!-- Node3&#45;&gt;Node2 -->
<g id="edge2" class="edge">
<title>Node3&#45;&gt;Node2</title>
<path fill="none" stroke="midnightblue" d="M447.76,-53.33C492.75,-49.87 550.18,-45.45 595.79,-41.94"/>
<polygon fill="midnightblue" stroke="midnightblue" points="447.48,-49.84 437.78,-54.09 448.02,-56.82 447.48,-49.84"/>
</g>
<!-- Node4 -->
<g id="node4" class="node">
<title>Node4</title>
<g id="a_node4"><a xlink:href="classCDPL_1_1Math_1_1Expression.html" target="_top" xlink:title=" ">
<polygon fill="none" stroke="black" points="0,-24.5 0,-43.5 150,-43.5 150,-24.5 0,-24.5"/>
<text text-anchor="middle" x="75" y="-31.5" font-family="Helvetica" font-size="10.00">CDPL::Math::Expression&lt; E &gt;</text>
</a>
</g>
</g>
<!-- Node4&#45;&gt;Node3 -->
<g id="edge3" class="edge">
<title>Node4&#45;&gt;Node3</title>
<path fill="none" stroke="orange" stroke-dasharray="5,2" d="M160.48,-41.13C207.47,-45.1 265.01,-49.96 308.2,-53.61"/>
<polygon fill="orange" stroke="orange" points="160.57,-37.63 150.31,-40.28 159.98,-44.61 160.57,-37.63"/>
<text text-anchor="start" x="168" y="-63" font-family="Helvetica" font-size="10.00"> &lt; VectorBinary2&lt; E1,</text>
<text text-anchor="middle" x="217" y="-52" font-family="Helvetica" font-size="10.00"> E2, F &gt; &gt;</text>
</g>
<!-- Node5 -->
<g id="node5" class="node">
<title>Node5</title>
<g id="a_node5"><a xlink:href="classCDPL_1_1Math_1_1VectorExpression.html" target="_top" xlink:title=" ">
<polygon fill="none" stroke="black" points="284,-0.5 284,-19.5 462,-19.5 462,-0.5 284,-0.5"/>
<text text-anchor="middle" x="373" y="-7.5" font-family="Helvetica" font-size="10.00">CDPL::Math::VectorExpression&lt; E &gt;</text>
</a>
</g>
</g>
<!-- Node4&#45;&gt;Node5 -->
<g id="edge5" class="edge">
<title>Node4&#45;&gt;Node5</title>
<path fill="none" stroke="midnightblue" d="M160.49,-27.15C199.13,-24.02 244.9,-20.31 283.96,-17.14"/>
<polygon fill="midnightblue" stroke="midnightblue" points="160,-23.68 150.31,-27.97 160.56,-30.66 160,-23.68"/>
</g>
<!-- Node5&#45;&gt;Node2 -->
<g id="edge4" class="edge">
<title>Node5&#45;&gt;Node2</title>
<path fill="none" stroke="orange" stroke-dasharray="5,2" d="M472.38,-10.14C505.97,-11.04 543.71,-13.01 578,-17 586.69,-18.01 595.77,-19.4 604.72,-20.96"/>
<polygon fill="orange" stroke="orange" points="472.18,-6.63 462.1,-9.89 472.01,-13.63 472.18,-6.63"/>
<text text-anchor="start" x="480" y="-31" font-family="Helvetica" font-size="10.00"> &lt; VectorBinary2&lt; E1,</text>
<text text-anchor="middle" x="529" y="-20" font-family="Helvetica" font-size="10.00"> E2, F &gt; &gt;</text>
</g>
</g>
</svg>
