<?xml version="1.0" encoding="UTF-8" standalone="no"?>
<!DOCTYPE svg PUBLIC "-//W3C//DTD SVG 1.1//EN"
 "http://www.w3.org/Graphics/SVG/1.1/DTD/svg11.dtd">
<!-- Generated by graphviz version 2.44.0 (0)
 -->
<!-- Title: CDPL::Math::ScalarVector&lt; T &gt; Pages: 1 -->
<svg width="1474pt" height="120pt"
 viewBox="0.00 0.00 1474.00 119.50" xmlns="http://www.w3.org/2000/svg" xmlns:xlink="http://www.w3.org/1999/xlink">
<g id="graph0" class="graph" transform="scale(1 1) rotate(0) translate(4 115.5)">
<title>CDPL::Math::ScalarVector&lt; T &gt;</title>
<!-- Node1 -->
<g id="node1" class="node">
<title>Node1</title>
<g id="a_node1"><a xlink:title=" ">
<polygon fill="#bfbfbf" stroke="black" points="1310,-47.5 1310,-66.5 1466,-66.5 1466,-47.5 1310,-47.5"/>
<text text-anchor="middle" x="1388" y="-54.5" font-family="Helvetica" font-size="10.00">CDPL::Math::ScalarVector&lt; T &gt;</text>
</a>
</g>
</g>
<!-- Node2 -->
<g id="node2" class="node">
<title>Node2</title>
<g id="a_node2"><a xlink:href="classCDPL_1_1Math_1_1VectorContainer.html" target="_top" xlink:title=" ">
<polygon fill="none" stroke="black" points="1127,-42 1127,-72 1273,-72 1273,-42 1127,-42"/>
<text text-anchor="start" x="1135" y="-60" font-family="Helvetica" font-size="10.00">CDPL::Math::VectorContainer</text>
<text text-anchor="middle" x="1200" y="-49" font-family="Helvetica" font-size="10.00">&lt; ScalarVector&lt; T &gt; &gt;</text>
</a>
</g>
</g>
<!-- Node2&#45;&gt;Node1 -->
<g id="edge1" class="edge">
<title>Node2&#45;&gt;Node1</title>
<path fill="none" stroke="midnightblue" d="M1283.44,-57C1292.25,-57 1301.19,-57 1309.94,-57"/>
<polygon fill="midnightblue" stroke="midnightblue" points="1283.18,-53.5 1273.18,-57 1283.18,-60.5 1283.18,-53.5"/>
</g>
<!-- Node3 -->
<g id="node3" class="node">
<title>Node3</title>
<g id="a_node3"><a xlink:href="classCDPL_1_1Math_1_1VectorExpression.html" target="_top" xlink:title=" ">
<polygon fill="none" stroke="black" points="615,-62 615,-92 768,-92 768,-62 615,-62"/>
<text text-anchor="start" x="623" y="-80" font-family="Helvetica" font-size="10.00">CDPL::Math::VectorExpression</text>
<text text-anchor="middle" x="691.5" y="-69" font-family="Helvetica" font-size="10.00">&lt; ScalarVector&lt; T &gt; &gt;</text>
</a>
</g>
</g>
<!-- Node3&#45;&gt;Node2 -->
<g id="edge2" class="edge">
<title>Node3&#45;&gt;Node2</title>
<path fill="none" stroke="midnightblue" d="M778.17,-74.4C862.39,-71.73 994.57,-67.24 1109,-62 1114.78,-61.74 1120.78,-61.44 1126.8,-61.14"/>
<polygon fill="midnightblue" stroke="midnightblue" points="778.02,-70.91 768.14,-74.72 778.24,-77.9 778.02,-70.91"/>
</g>
<!-- Node4 -->
<g id="node4" class="node">
<title>Node4</title>
<g id="a_node4"><a xlink:href="classCDPL_1_1Math_1_1Expression.html" target="_top" xlink:title=" ">
<polygon fill="none" stroke="black" points="313.5,-81 313.5,-111 438.5,-111 438.5,-81 313.5,-81"/>
<text text-anchor="start" x="321.5" y="-99" font-family="Helvetica" font-size="10.00">CDPL::Math::Expression</text>
<text text-anchor="middle" x="376" y="-88" font-family="Helvetica" font-size="10.00">&lt; ScalarVector&lt; T &gt; &gt;</text>
</a>
</g>
</g>
<!-- Node4&#45;&gt;Node3 -->
<g id="edge3" class="edge">
<title>Node4&#45;&gt;Node3</title>
<path fill="none" stroke="midnightblue" d="M448.75,-91.98C488.6,-89.71 539.05,-86.78 584,-84 593.99,-83.38 604.5,-82.71 614.87,-82.04"/>
<polygon fill="midnightblue" stroke="midnightblue" points="448.38,-88.49 438.6,-92.55 448.78,-95.48 448.38,-88.49"/>
</g>
<!-- Node5 -->
<g id="node5" class="node">
<title>Node5</title>
<g id="a_node5"><a xlink:href="classCDPL_1_1Math_1_1Expression.html" target="_top" xlink:title=" ">
<polygon fill="none" stroke="black" points="0,-41.5 0,-60.5 150,-60.5 150,-41.5 0,-41.5"/>
<text text-anchor="middle" x="75" y="-48.5" font-family="Helvetica" font-size="10.00">CDPL::Math::Expression&lt; E &gt;</text>
</a>
</g>
</g>
<!-- Node5&#45;&gt;Node4 -->
<g id="edge4" class="edge">
<title>Node5&#45;&gt;Node4</title>
<path fill="none" stroke="orange" stroke-dasharray="5,2" d="M148.63,-62.07C155.18,-63.06 161.71,-64.05 168,-65 216.87,-72.38 272.23,-80.67 313.4,-86.81"/>
<polygon fill="orange" stroke="orange" points="148.76,-58.55 138.35,-60.51 147.71,-65.47 148.76,-58.55"/>
<text text-anchor="middle" x="218.5" y="-82" font-family="Helvetica" font-size="10.00"> &lt; ScalarVector&lt; T &gt; &gt;</text>
</g>
<!-- Node6 -->
<g id="node6" class="node">
<title>Node6</title>
<g id="a_node6"><a xlink:href="classCDPL_1_1Math_1_1VectorExpression.html" target="_top" xlink:title=" ">
<polygon fill="none" stroke="black" points="287,-41.5 287,-60.5 465,-60.5 465,-41.5 287,-41.5"/>
<text text-anchor="middle" x="376" y="-48.5" font-family="Helvetica" font-size="10.00">CDPL::Math::VectorExpression&lt; E &gt;</text>
</a>
</g>
</g>
<!-- Node5&#45;&gt;Node6 -->
<g id="edge6" class="edge">
<title>Node5&#45;&gt;Node6</title>
<path fill="none" stroke="midnightblue" d="M160.41,-51C199.86,-51 246.81,-51 286.73,-51"/>
<polygon fill="midnightblue" stroke="midnightblue" points="160.29,-47.5 150.29,-51 160.29,-54.5 160.29,-47.5"/>
</g>
<!-- Node9 -->
<g id="node9" class="node">
<title>Node9</title>
<g id="a_node9"><a xlink:href="classCDPL_1_1Math_1_1Expression.html" target="_top" xlink:title=" ">
<polygon fill="none" stroke="black" points="300.5,-0.5 300.5,-19.5 451.5,-19.5 451.5,-0.5 300.5,-0.5"/>
<text text-anchor="middle" x="376" y="-7.5" font-family="Helvetica" font-size="10.00">CDPL::Math::Expression&lt; C &gt;</text>
</a>
</g>
</g>
<!-- Node5&#45;&gt;Node9 -->
<g id="edge10" class="edge">
<title>Node5&#45;&gt;Node9</title>
<path fill="none" stroke="orange" stroke-dasharray="5,2" d="M142.41,-39.87C151.01,-38.52 159.71,-37.2 168,-36 211.74,-29.69 260.8,-23.49 300.18,-18.73"/>
<polygon fill="orange" stroke="orange" points="141.71,-36.44 132.39,-41.47 142.81,-43.35 141.71,-36.44"/>
<text text-anchor="middle" x="218.5" y="-39" font-family="Helvetica" font-size="10.00"> &lt; C &gt;</text>
</g>
<!-- Node6&#45;&gt;Node3 -->
<g id="edge5" class="edge">
<title>Node6&#45;&gt;Node3</title>
<path fill="none" stroke="orange" stroke-dasharray="5,2" d="M475.26,-59.15C520.36,-62.89 573.01,-67.26 614.95,-70.73"/>
<polygon fill="orange" stroke="orange" points="475.42,-55.65 465.16,-58.31 474.84,-62.63 475.42,-55.65"/>
<text text-anchor="middle" x="533.5" y="-70" font-family="Helvetica" font-size="10.00"> &lt; ScalarVector&lt; T &gt; &gt;</text>
</g>
<!-- Node8 -->
<g id="node8" class="node">
<title>Node8</title>
<g id="a_node8"><a xlink:href="classCDPL_1_1Math_1_1VectorExpression.html" target="_top" xlink:title=" ">
<polygon fill="none" stroke="black" points="602,-23.5 602,-42.5 781,-42.5 781,-23.5 602,-23.5"/>
<text text-anchor="middle" x="691.5" y="-30.5" font-family="Helvetica" font-size="10.00">CDPL::Math::VectorExpression&lt; C &gt;</text>
</a>
</g>
</g>
<!-- Node6&#45;&gt;Node8 -->
<g id="edge11" class="edge">
<title>Node6&#45;&gt;Node8</title>
<path fill="none" stroke="orange" stroke-dasharray="5,2" d="M464.21,-40.54C470.56,-39.96 476.88,-39.43 483,-39 521.91,-36.24 565.02,-34.74 601.82,-33.93"/>
<polygon fill="orange" stroke="orange" points="463.84,-37.06 454.22,-41.5 464.51,-44.03 463.84,-37.06"/>
<text text-anchor="middle" x="533.5" y="-42" font-family="Helvetica" font-size="10.00"> &lt; C &gt;</text>
</g>
<!-- Node7 -->
<g id="node7" class="node">
<title>Node7</title>
<g id="a_node7"><a xlink:href="classCDPL_1_1Math_1_1VectorContainer.html" target="_top" xlink:title=" ">
<polygon fill="none" stroke="black" points="818,-27.5 818,-46.5 990,-46.5 990,-27.5 818,-27.5"/>
<text text-anchor="middle" x="904" y="-34.5" font-family="Helvetica" font-size="10.00">CDPL::Math::VectorContainer&lt; C &gt;</text>
</a>
</g>
</g>
<!-- Node7&#45;&gt;Node2 -->
<g id="edge7" class="edge">
<title>Node7&#45;&gt;Node2</title>
<path fill="none" stroke="orange" stroke-dasharray="5,2" d="M1000.06,-43.47C1041.14,-46.26 1088.43,-49.48 1126.59,-52.07"/>
<polygon fill="orange" stroke="orange" points="1000.25,-39.97 990.04,-42.78 999.78,-46.96 1000.25,-39.97"/>
<text text-anchor="middle" x="1058.5" y="-54" font-family="Helvetica" font-size="10.00"> &lt; ScalarVector&lt; T &gt; &gt;</text>
</g>
<!-- Node8&#45;&gt;Node7 -->
<g id="edge8" class="edge">
<title>Node8&#45;&gt;Node7</title>
<path fill="none" stroke="midnightblue" d="M791.17,-34.87C800.07,-35.04 809.03,-35.21 817.8,-35.38"/>
<polygon fill="midnightblue" stroke="midnightblue" points="791.23,-31.38 781.16,-34.68 791.09,-38.37 791.23,-31.38"/>
</g>
<!-- Node9&#45;&gt;Node8 -->
<g id="edge9" class="edge">
<title>Node9&#45;&gt;Node8</title>
<path fill="none" stroke="midnightblue" d="M461.93,-16.23C505.3,-19.41 558.02,-23.28 601.9,-26.5"/>
<polygon fill="midnightblue" stroke="midnightblue" points="461.92,-12.72 451.69,-15.48 461.41,-19.7 461.92,-12.72"/>
</g>
</g>
</svg>
