<?xml version="1.0" encoding="UTF-8" standalone="no"?>
<!DOCTYPE svg PUBLIC "-//W3C//DTD SVG 1.1//EN"
 "http://www.w3.org/Graphics/SVG/1.1/DTD/svg11.dtd">
<!-- Generated by graphviz version 2.44.0 (0)
 -->
<!-- Title: CDPL::Math::VectorContainer&lt; C &gt; Pages: 1 -->
<svg width="1334pt" height="257pt"
 viewBox="0.00 0.00 1334.00 257.00" xmlns="http://www.w3.org/2000/svg" xmlns:xlink="http://www.w3.org/1999/xlink">
<g id="graph0" class="graph" transform="scale(1 1) rotate(0) translate(4 253)">
<title>CDPL::Math::VectorContainer&lt; C &gt;</title>
<!-- Node1 -->
<g id="node1" class="node">
<title>Node1</title>
<g id="a_node1"><a xlink:title=" ">
<polygon fill="#bfbfbf" stroke="black" points="674,-126 674,-145 846,-145 846,-126 674,-126"/>
<text text-anchor="middle" x="760" y="-133" font-family="Helvetica" font-size="10.00">CDPL::Math::VectorContainer&lt; C &gt;</text>
</a>
</g>
</g>
<!-- Node6 -->
<g id="node6" class="node">
<title>Node6</title>
<g id="a_node6"><a xlink:href="classCDPL_1_1Math_1_1VectorContainer.html" target="_top" xlink:title=" ">
<polygon fill="none" stroke="black" points="985,-218.5 985,-248.5 1131,-248.5 1131,-218.5 985,-218.5"/>
<text text-anchor="start" x="993" y="-236.5" font-family="Helvetica" font-size="10.00">CDPL::Math::VectorContainer</text>
<text text-anchor="middle" x="1058" y="-225.5" font-family="Helvetica" font-size="10.00">&lt; ScalarVector&lt; T &gt; &gt;</text>
</a>
</g>
</g>
<!-- Node1&#45;&gt;Node6 -->
<g id="edge6" class="edge">
<title>Node1&#45;&gt;Node6</title>
<path fill="none" stroke="orange" stroke-dasharray="5,2" d="M787.84,-149.66C808.3,-160.05 837.39,-173.94 864,-183.5 903.74,-197.77 949.44,-209.8 986.39,-218.48"/>
<polygon fill="orange" stroke="orange" points="789.31,-146.48 778.81,-145.02 786.11,-152.71 789.31,-146.48"/>
<text text-anchor="middle" x="915.5" y="-215.5" font-family="Helvetica" font-size="10.00"> &lt; ScalarVector&lt; T &gt; &gt;</text>
</g>
<!-- Node8 -->
<g id="node8" class="node">
<title>Node8</title>
<g id="a_node8"><a xlink:href="classCDPL_1_1Math_1_1VectorContainer.html" target="_top" xlink:title=" ">
<polygon fill="none" stroke="black" points="985,-169.5 985,-199.5 1131,-199.5 1131,-169.5 985,-169.5"/>
<text text-anchor="start" x="993" y="-187.5" font-family="Helvetica" font-size="10.00">CDPL::Math::VectorContainer</text>
<text text-anchor="middle" x="1058" y="-176.5" font-family="Helvetica" font-size="10.00">&lt; ZeroVector&lt; T &gt; &gt;</text>
</a>
</g>
</g>
<!-- Node1&#45;&gt;Node8 -->
<g id="edge8" class="edge">
<title>Node1&#45;&gt;Node8</title>
<path fill="none" stroke="orange" stroke-dasharray="5,2" d="M828.43,-146.66C875.1,-154.39 937.13,-164.66 984.8,-172.55"/>
<polygon fill="orange" stroke="orange" points="828.86,-143.19 818.42,-145.01 827.72,-150.09 828.86,-143.19"/>
<text text-anchor="middle" x="915.5" y="-171.5" font-family="Helvetica" font-size="10.00"> &lt; ZeroVector&lt; T &gt; &gt;</text>
</g>
<!-- Node10 -->
<g id="node10" class="node">
<title>Node10</title>
<g id="a_node10"><a xlink:href="classCDPL_1_1Math_1_1VectorContainer.html" target="_top" xlink:title=" ">
<polygon fill="none" stroke="black" points="985,-120.5 985,-150.5 1131,-150.5 1131,-120.5 985,-120.5"/>
<text text-anchor="start" x="993" y="-138.5" font-family="Helvetica" font-size="10.00">CDPL::Math::VectorContainer</text>
<text text-anchor="middle" x="1058" y="-127.5" font-family="Helvetica" font-size="10.00">&lt; UnitVector&lt; T &gt; &gt;</text>
</a>
</g>
</g>
<!-- Node1&#45;&gt;Node10 -->
<g id="edge10" class="edge">
<title>Node1&#45;&gt;Node10</title>
<path fill="none" stroke="orange" stroke-dasharray="5,2" d="M856.4,-135.5C898.11,-135.5 946.23,-135.5 984.89,-135.5"/>
<polygon fill="orange" stroke="orange" points="856.22,-132 846.22,-135.5 856.22,-139 856.22,-132"/>
<text text-anchor="middle" x="915.5" y="-138.5" font-family="Helvetica" font-size="10.00"> &lt; UnitVector&lt; T &gt; &gt;</text>
</g>
<!-- Node12 -->
<g id="node12" class="node">
<title>Node12</title>
<g id="a_node12"><a xlink:href="classCDPL_1_1Math_1_1VectorContainer.html" target="_top" xlink:title=" ">
<polygon fill="none" stroke="black" points="985,-71.5 985,-101.5 1131,-101.5 1131,-71.5 985,-71.5"/>
<text text-anchor="start" x="993" y="-89.5" font-family="Helvetica" font-size="10.00">CDPL::Math::VectorContainer</text>
<text text-anchor="middle" x="1058" y="-78.5" font-family="Helvetica" font-size="10.00">&lt; InitListVector&lt; T &gt; &gt;</text>
</a>
</g>
</g>
<!-- Node1&#45;&gt;Node12 -->
<g id="edge12" class="edge">
<title>Node1&#45;&gt;Node12</title>
<path fill="none" stroke="orange" stroke-dasharray="5,2" d="M828.43,-124.34C875.1,-116.61 937.13,-106.34 984.8,-98.45"/>
<polygon fill="orange" stroke="orange" points="827.72,-120.91 818.42,-125.99 828.86,-127.81 827.72,-120.91"/>
<text text-anchor="middle" x="915.5" y="-121.5" font-family="Helvetica" font-size="10.00"> &lt; InitListVector&lt; T &gt; &gt;</text>
</g>
<!-- Node14 -->
<g id="node14" class="node">
<title>Node14</title>
<g id="a_node14"><a xlink:href="classCDPL_1_1Math_1_1VectorContainer.html" target="_top" xlink:title=" ">
<polygon fill="none" stroke="black" points="985,-0.5 985,-52.5 1131,-52.5 1131,-0.5 985,-0.5"/>
<text text-anchor="start" x="993" y="-40.5" font-family="Helvetica" font-size="10.00">CDPL::Math::VectorContainer</text>
<text text-anchor="start" x="993" y="-29.5" font-family="Helvetica" font-size="10.00">&lt; SparseVector&lt; T, std::</text>
<text text-anchor="start" x="993" y="-18.5" font-family="Helvetica" font-size="10.00">unordered_map&lt; std::size</text>
<text text-anchor="middle" x="1058" y="-7.5" font-family="Helvetica" font-size="10.00">_t, T &gt; &gt; &gt;</text>
</a>
</g>
</g>
<!-- Node1&#45;&gt;Node14 -->
<g id="edge14" class="edge">
<title>Node1&#45;&gt;Node14</title>
<path fill="none" stroke="orange" stroke-dasharray="5,2" d="M779.71,-119.36C799.39,-103.25 831.88,-79.01 864,-65.5 902.29,-49.4 947.7,-39.79 984.86,-34.15"/>
<polygon fill="orange" stroke="orange" points="777.3,-116.82 771.87,-125.91 781.78,-122.19 777.3,-116.82"/>
<text text-anchor="start" x="869" y="-90.5" font-family="Helvetica" font-size="10.00"> &lt; SparseVector&lt; T,</text>
<text text-anchor="start" x="869" y="-79.5" font-family="Helvetica" font-size="10.00"> std::unordered_map</text>
<text text-anchor="middle" x="915.5" y="-68.5" font-family="Helvetica" font-size="10.00">&lt; std::size_t, T &gt; &gt; &gt;</text>
</g>
<!-- Node2 -->
<g id="node2" class="node">
<title>Node2</title>
<g id="a_node2"><a xlink:href="classCDPL_1_1Math_1_1VectorExpression.html" target="_top" xlink:title=" ">
<polygon fill="none" stroke="black" points="458,-126 458,-145 637,-145 637,-126 458,-126"/>
<text text-anchor="middle" x="547.5" y="-133" font-family="Helvetica" font-size="10.00">CDPL::Math::VectorExpression&lt; C &gt;</text>
</a>
</g>
</g>
<!-- Node2&#45;&gt;Node1 -->
<g id="edge1" class="edge">
<title>Node2&#45;&gt;Node1</title>
<path fill="none" stroke="midnightblue" d="M647.17,-135.5C656.07,-135.5 665.03,-135.5 673.8,-135.5"/>
<polygon fill="midnightblue" stroke="midnightblue" points="647.16,-132 637.16,-135.5 647.16,-139 647.16,-132"/>
</g>
<!-- Node3 -->
<g id="node3" class="node">
<title>Node3</title>
<g id="a_node3"><a xlink:href="classCDPL_1_1Math_1_1Expression.html" target="_top" xlink:title=" ">
<polygon fill="none" stroke="black" points="228.5,-144 228.5,-163 379.5,-163 379.5,-144 228.5,-144"/>
<text text-anchor="middle" x="304" y="-151" font-family="Helvetica" font-size="10.00">CDPL::Math::Expression&lt; C &gt;</text>
</a>
</g>
</g>
<!-- Node3&#45;&gt;Node2 -->
<g id="edge2" class="edge">
<title>Node3&#45;&gt;Node2</title>
<path fill="none" stroke="midnightblue" d="M390.03,-147.16C411.94,-145.53 435.58,-143.77 457.68,-142.12"/>
<polygon fill="midnightblue" stroke="midnightblue" points="389.47,-143.69 379.76,-147.93 389.99,-150.67 389.47,-143.69"/>
</g>
<!-- Node4 -->
<g id="node4" class="node">
<title>Node4</title>
<g id="a_node4"><a xlink:href="classCDPL_1_1Math_1_1Expression.html" target="_top" xlink:title=" ">
<polygon fill="none" stroke="black" points="0,-124 0,-143 150,-143 150,-124 0,-124"/>
<text text-anchor="middle" x="75" y="-131" font-family="Helvetica" font-size="10.00">CDPL::Math::Expression&lt; E &gt;</text>
</a>
</g>
</g>
<!-- Node4&#45;&gt;Node3 -->
<g id="edge3" class="edge">
<title>Node4&#45;&gt;Node3</title>
<path fill="none" stroke="orange" stroke-dasharray="5,2" d="M160.16,-140.91C182.51,-142.88 206.5,-145 228.31,-146.92"/>
<polygon fill="orange" stroke="orange" points="160.28,-137.41 150.01,-140.02 159.67,-144.39 160.28,-137.41"/>
<text text-anchor="middle" x="182.5" y="-147.5" font-family="Helvetica" font-size="10.00"> &lt; C &gt;</text>
</g>
<!-- Node5 -->
<g id="node5" class="node">
<title>Node5</title>
<g id="a_node5"><a xlink:href="classCDPL_1_1Math_1_1VectorExpression.html" target="_top" xlink:title=" ">
<polygon fill="none" stroke="black" points="215,-106 215,-125 393,-125 393,-106 215,-106"/>
<text text-anchor="middle" x="304" y="-113" font-family="Helvetica" font-size="10.00">CDPL::Math::VectorExpression&lt; E &gt;</text>
</a>
</g>
</g>
<!-- Node4&#45;&gt;Node5 -->
<g id="edge5" class="edge">
<title>Node4&#45;&gt;Node5</title>
<path fill="none" stroke="midnightblue" d="M160.35,-126.81C178.13,-125.4 196.93,-123.91 214.85,-122.49"/>
<polygon fill="midnightblue" stroke="midnightblue" points="159.71,-123.35 150.01,-127.63 160.26,-130.33 159.71,-123.35"/>
</g>
<!-- Node5&#45;&gt;Node2 -->
<g id="edge4" class="edge">
<title>Node5&#45;&gt;Node2</title>
<path fill="none" stroke="orange" stroke-dasharray="5,2" d="M403.41,-123.65C421.38,-125.14 440.04,-126.68 457.72,-128.15"/>
<polygon fill="orange" stroke="orange" points="403.47,-120.14 393.21,-122.81 402.89,-127.12 403.47,-120.14"/>
<text text-anchor="middle" x="425.5" y="-129.5" font-family="Helvetica" font-size="10.00"> &lt; C &gt;</text>
</g>
<!-- Node7 -->
<g id="node7" class="node">
<title>Node7</title>
<g id="a_node7"><a xlink:href="classCDPL_1_1Math_1_1ScalarVector.html" target="_top" xlink:title=" ">
<polygon fill="none" stroke="black" points="1169,-224 1169,-243 1325,-243 1325,-224 1169,-224"/>
<text text-anchor="middle" x="1247" y="-231" font-family="Helvetica" font-size="10.00">CDPL::Math::ScalarVector&lt; T &gt;</text>
</a>
</g>
</g>
<!-- Node6&#45;&gt;Node7 -->
<g id="edge7" class="edge">
<title>Node6&#45;&gt;Node7</title>
<path fill="none" stroke="midnightblue" d="M1141.26,-233.5C1150.39,-233.5 1159.66,-233.5 1168.73,-233.5"/>
<polygon fill="midnightblue" stroke="midnightblue" points="1141.03,-230 1131.03,-233.5 1141.03,-237 1141.03,-230"/>
</g>
<!-- Node9 -->
<g id="node9" class="node">
<title>Node9</title>
<g id="a_node9"><a xlink:href="classCDPL_1_1Math_1_1ZeroVector.html" target="_top" xlink:title=" ">
<polygon fill="none" stroke="black" points="1173,-175 1173,-194 1321,-194 1321,-175 1173,-175"/>
<text text-anchor="middle" x="1247" y="-182" font-family="Helvetica" font-size="10.00">CDPL::Math::ZeroVector&lt; T &gt;</text>
</a>
</g>
</g>
<!-- Node8&#45;&gt;Node9 -->
<g id="edge9" class="edge">
<title>Node8&#45;&gt;Node9</title>
<path fill="none" stroke="midnightblue" d="M1141.07,-184.5C1151.62,-184.5 1162.37,-184.5 1172.77,-184.5"/>
<polygon fill="midnightblue" stroke="midnightblue" points="1141.03,-181 1131.03,-184.5 1141.03,-188 1141.03,-181"/>
</g>
<!-- Node11 -->
<g id="node11" class="node">
<title>Node11</title>
<g id="a_node11"><a xlink:href="classCDPL_1_1Math_1_1UnitVector.html" target="_top" xlink:title=" ">
<polygon fill="none" stroke="black" points="1174,-126 1174,-145 1320,-145 1320,-126 1174,-126"/>
<text text-anchor="middle" x="1247" y="-133" font-family="Helvetica" font-size="10.00">CDPL::Math::UnitVector&lt; T &gt;</text>
</a>
</g>
</g>
<!-- Node10&#45;&gt;Node11 -->
<g id="edge11" class="edge">
<title>Node10&#45;&gt;Node11</title>
<path fill="none" stroke="midnightblue" d="M1141.3,-135.5C1152.09,-135.5 1163.09,-135.5 1173.7,-135.5"/>
<polygon fill="midnightblue" stroke="midnightblue" points="1141.03,-132 1131.03,-135.5 1141.03,-139 1141.03,-132"/>
</g>
<!-- Node13 -->
<g id="node13" class="node">
<title>Node13</title>
<g id="a_node13"><a xlink:href="classCDPL_1_1Math_1_1InitListVector.html" target="_top" xlink:title=" ">
<polygon fill="none" stroke="black" points="1168,-77 1168,-96 1326,-96 1326,-77 1168,-77"/>
<text text-anchor="middle" x="1247" y="-84" font-family="Helvetica" font-size="10.00">CDPL::Math::InitListVector&lt; T &gt;</text>
</a>
</g>
</g>
<!-- Node12&#45;&gt;Node13 -->
<g id="edge13" class="edge">
<title>Node12&#45;&gt;Node13</title>
<path fill="none" stroke="midnightblue" d="M1141.29,-86.5C1150.09,-86.5 1159.04,-86.5 1167.79,-86.5"/>
<polygon fill="midnightblue" stroke="midnightblue" points="1141.03,-83 1131.03,-86.5 1141.03,-90 1141.03,-83"/>
</g>
<!-- Node15 -->
<g id="node15" class="node">
<title>Node15</title>
<g id="a_node15"><a xlink:href="classCDPL_1_1Math_1_1SparseVector.html" target="_top" xlink:title=" ">
<polygon fill="none" stroke="black" points="1179,-11.5 1179,-41.5 1315,-41.5 1315,-11.5 1179,-11.5"/>
<text text-anchor="start" x="1187" y="-29.5" font-family="Helvetica" font-size="10.00">CDPL::Math::SparseVector</text>
<text text-anchor="middle" x="1247" y="-18.5" font-family="Helvetica" font-size="10.00">&lt; T, A &gt;</text>
</a>
</g>
</g>
<!-- Node14&#45;&gt;Node15 -->
<g id="edge15" class="edge">
<title>Node14&#45;&gt;Node15</title>
<path fill="none" stroke="midnightblue" d="M1141.09,-26.5C1153.73,-26.5 1166.65,-26.5 1178.91,-26.5"/>
<polygon fill="midnightblue" stroke="midnightblue" points="1141.03,-23 1131.03,-26.5 1141.03,-30 1141.03,-23"/>
</g>
</g>
</svg>
