<?xml version="1.0" encoding="UTF-8" standalone="no"?>
<!DOCTYPE svg PUBLIC "-//W3C//DTD SVG 1.1//EN"
 "http://www.w3.org/Graphics/SVG/1.1/DTD/svg11.dtd">
<!-- Generated by graphviz version 2.44.0 (0)
 -->
<!-- Title: CDPL::Math::Scalar1GridBinary&lt; E1, E2, F &gt; Pages: 1 -->
<!--zoomable 88 -->
<svg id="main" version="1.1" xmlns="http://www.w3.org/2000/svg" xmlns:xlink="http://www.w3.org/1999/xlink" xml:space="preserve" onload="init(evt)">
<style type="text/css"><![CDATA[
.edge:hover path { stroke: red; }
.edge:hover polygon { stroke: red; fill: red; }
]]></style>
<script type="text/javascript"><![CDATA[
var edges = document.getElementsByTagName('g');
if (edges && edges.length) {
  for (var i=0;i<edges.length;i++) {
    if (edges[i].id.substr(0,4)=='edge') {
      edges[i].setAttribute('class','edge');
    }
  }
}
]]></script>
        <defs>
                <circle id="rim" cx="0" cy="0" r="7"/>
                <circle id="rim2" cx="0" cy="0" r="3.5"/>
                <g id="zoomPlus">
                        <use xlink:href="#rim" fill="#404040">
                                <set attributeName="fill" to="#808080" begin="zoomplus.mouseover" end="zoomplus.mouseout"/>
                        </use>
                        <path d="M-4,0h8M0,-4v8" fill="none" stroke="white" stroke-width="1.5" pointer-events="none"/>
                </g>
                <g id="zoomMin">
                        <use xlink:href="#rim" fill="#404040">
                                <set attributeName="fill" to="#808080" begin="zoomminus.mouseover" end="zoomminus.mouseout"/>
                        </use>
                        <path d="M-4,0h8" fill="none" stroke="white" stroke-width="1.5" pointer-events="none"/>
                </g>
                <g id="dirArrow">
                        <path fill="none" stroke="white" stroke-width="1.5" d="M0,-3.0v7 M-2.5,-0.5L0,-3.0L2.5,-0.5"/>
                </g>
               <g id="resetDef">
                       <use xlink:href="#rim2" fill="#404040">
                               <set attributeName="fill" to="#808080" begin="reset.mouseover" end="reset.mouseout"/>
                       </use>
               </g>
        </defs>

<script type="text/javascript">
var viewWidth = 918;
var viewHeight = 88;
var sectionId = 'dynsection-0';
</script>
<script xlink:href="svgpan.js"/>
<svg id="graph" class="graph">
<g id="viewport">
<title>CDPL::Math::Scalar1GridBinary&lt; E1, E2, F &gt;</title>
<!-- Node1 -->
<g id="node1" class="node">
<title>Node1</title>
<g id="a_node1"><a xlink:title=" ">
<polygon fill="#bfbfbf" stroke="black" points="754,-21 754,-51 910,-51 910,-21 754,-21"/>
<text text-anchor="start" x="762" y="-39" font-family="Helvetica" font-size="10.00">CDPL::Math::Scalar1GridBinary</text>
<text text-anchor="middle" x="832" y="-28" font-family="Helvetica" font-size="10.00">&lt; E1, E2, F &gt;</text>
</a>
</g>
</g>
<!-- Node2 -->
<g id="node2" class="node">
<title>Node2</title>
<g id="a_node2"><a xlink:href="classCDPL_1_1Math_1_1GridExpression.html" target="_top" xlink:title=" ">
<polygon fill="none" stroke="black" points="574,-15.5 574,-56.5 717,-56.5 717,-15.5 574,-15.5"/>
<text text-anchor="start" x="582" y="-44.5" font-family="Helvetica" font-size="10.00">CDPL::Math::GridExpression</text>
<text text-anchor="start" x="582" y="-33.5" font-family="Helvetica" font-size="10.00">&lt; Scalar1GridBinary&lt; E1,</text>
<text text-anchor="middle" x="645.5" y="-22.5" font-family="Helvetica" font-size="10.00"> E2, F &gt; &gt;</text>
</a>
</g>
</g>
<!-- Node2&#45;&gt;Node1 -->
<g id="edge1" class="edge">
<title>Node2&#45;&gt;Node1</title>
<path fill="none" stroke="midnightblue" d="M727.27,-36C736.06,-36 744.99,-36 753.74,-36"/>
<polygon fill="midnightblue" stroke="midnightblue" points="727.04,-32.5 717.04,-36 727.04,-39.5 727.04,-32.5"/>
</g>
<!-- Node3 -->
<g id="node3" class="node">
<title>Node3</title>
<g id="a_node3"><a xlink:href="classCDPL_1_1Math_1_1Expression.html" target="_top" xlink:title=" ">
<polygon fill="none" stroke="black" points="297.5,-38.5 297.5,-79.5 426.5,-79.5 426.5,-38.5 297.5,-38.5"/>
<text text-anchor="start" x="305.5" y="-67.5" font-family="Helvetica" font-size="10.00">CDPL::Math::Expression</text>
<text text-anchor="start" x="305.5" y="-56.5" font-family="Helvetica" font-size="10.00">&lt; Scalar1GridBinary&lt; E1,</text>
<text text-anchor="middle" x="362" y="-45.5" font-family="Helvetica" font-size="10.00"> E2, F &gt; &gt;</text>
</a>
</g>
</g>
<!-- Node3&#45;&gt;Node2 -->
<g id="edge2" class="edge">
<title>Node3&#45;&gt;Node2</title>
<path fill="none" stroke="midnightblue" d="M436.5,-52.99C478.88,-49.53 531.89,-45.2 573.79,-41.78"/>
<polygon fill="midnightblue" stroke="midnightblue" points="436.21,-49.51 426.53,-53.81 436.78,-56.48 436.21,-49.51"/>
</g>
<!-- Node4 -->
<g id="node4" class="node">
<title>Node4</title>
<g id="a_node4"><a xlink:href="classCDPL_1_1Math_1_1Expression.html" target="_top" xlink:title=" ">
<polygon fill="none" stroke="black" points="0,-24.5 0,-43.5 150,-43.5 150,-24.5 0,-24.5"/>
<text text-anchor="middle" x="75" y="-31.5" font-family="Helvetica" font-size="10.00">CDPL::Math::Expression&lt; E &gt;</text>
</a>
</g>
</g>
<!-- Node4&#45;&gt;Node3 -->
<g id="edge3" class="edge">
<title>Node4&#45;&gt;Node3</title>
<path fill="none" stroke="orange" stroke-dasharray="5,2" d="M160.22,-41.39C204.13,-45.24 256.94,-49.87 297.39,-53.42"/>
<polygon fill="orange" stroke="orange" points="160.4,-37.89 150.14,-40.5 159.79,-44.86 160.4,-37.89"/>
<text text-anchor="start" x="168" y="-63" font-family="Helvetica" font-size="10.00"> &lt; Scalar1GridBinary</text>
<text text-anchor="middle" x="214" y="-52" font-family="Helvetica" font-size="10.00">&lt; E1, E2, F &gt; &gt;</text>
</g>
<!-- Node5 -->
<g id="node5" class="node">
<title>Node5</title>
<g id="a_node5"><a xlink:href="classCDPL_1_1Math_1_1GridExpression.html" target="_top" xlink:title=" ">
<polygon fill="none" stroke="black" points="278,-0.5 278,-19.5 446,-19.5 446,-0.5 278,-0.5"/>
<text text-anchor="middle" x="362" y="-7.5" font-family="Helvetica" font-size="10.00">CDPL::Math::GridExpression&lt; E &gt;</text>
</a>
</g>
</g>
<!-- Node4&#45;&gt;Node5 -->
<g id="edge5" class="edge">
<title>Node4&#45;&gt;Node5</title>
<path fill="none" stroke="midnightblue" d="M160.42,-26.89C197.53,-23.77 240.98,-20.11 277.94,-16.99"/>
<polygon fill="midnightblue" stroke="midnightblue" points="159.81,-23.43 150.14,-27.76 160.39,-30.41 159.81,-23.43"/>
</g>
<!-- Node5&#45;&gt;Node2 -->
<g id="edge4" class="edge">
<title>Node5&#45;&gt;Node2</title>
<path fill="none" stroke="orange" stroke-dasharray="5,2" d="M456.52,-10.1C488.2,-11 523.73,-12.98 556,-17 561.77,-17.72 567.72,-18.63 573.68,-19.65"/>
<polygon fill="orange" stroke="orange" points="456.46,-6.59 446.38,-9.84 456.29,-13.59 456.46,-6.59"/>
<text text-anchor="start" x="464" y="-31" font-family="Helvetica" font-size="10.00"> &lt; Scalar1GridBinary</text>
<text text-anchor="middle" x="510" y="-20" font-family="Helvetica" font-size="10.00">&lt; E1, E2, F &gt; &gt;</text>
</g>
</g>
</svg>
        <g id="navigator" transform="translate(0 0)" fill="#404254">
                <rect fill="#f2f5e9" fill-opacity="0.5" stroke="#606060" stroke-width=".5" x="0" y="0" width="60" height="60"/>
                <use id="zoomplus" xlink:href="#zoomPlus" x="17" y="9" onmousedown="handleZoom(evt,'in')"/>
                <use id="zoomminus" xlink:href="#zoomMin" x="42" y="9" onmousedown="handleZoom(evt,'out')"/>
                <use id="reset" xlink:href="#resetDef" x="30" y="36" onmousedown="handleReset()"/>
                <g id="arrowUp" xlink:href="#dirArrow" transform="translate(30 24)" onmousedown="handlePan(0,-1)">
                  <use xlink:href="#rim" fill="#404040">
                        <set attributeName="fill" to="#808080" begin="arrowUp.mouseover" end="arrowUp.mouseout"/>
                  </use>
                  <path fill="none" stroke="white" stroke-width="1.5" d="M0,-3.0v7 M-2.5,-0.5L0,-3.0L2.5,-0.5"/>
                </g>
                <g id="arrowRight" xlink:href="#dirArrow" transform="rotate(90) translate(36 -43)" onmousedown="handlePan(1,0)">
                  <use xlink:href="#rim" fill="#404040">
                        <set attributeName="fill" to="#808080" begin="arrowRight.mouseover" end="arrowRight.mouseout"/>
                  </use>
                  <path fill="none" stroke="white" stroke-width="1.5" d="M0,-3.0v7 M-2.5,-0.5L0,-3.0L2.5,-0.5"/>
                </g>
                <g id="arrowDown" xlink:href="#dirArrow" transform="rotate(180) translate(-30 -48)" onmousedown="handlePan(0,1)">
                  <use xlink:href="#rim" fill="#404040">
                        <set attributeName="fill" to="#808080" begin="arrowDown.mouseover" end="arrowDown.mouseout"/>
                  </use>
                  <path fill="none" stroke="white" stroke-width="1.5" d="M0,-3.0v7 M-2.5,-0.5L0,-3.0L2.5,-0.5"/>
                </g>
                <g id="arrowLeft" xlink:href="#dirArrow" transform="rotate(270) translate(-36 17)" onmousedown="handlePan(-1,0)">
                  <use xlink:href="#rim" fill="#404040">
                        <set attributeName="fill" to="#808080" begin="arrowLeft.mouseover" end="arrowLeft.mouseout"/>
                  </use>
                  <path fill="none" stroke="white" stroke-width="1.5" d="M0,-3.0v7 M-2.5,-0.5L0,-3.0L2.5,-0.5"/>
                </g>
        </g>
        <svg viewBox="0 0 15 15" width="100%" height="30px" preserveAspectRatio="xMaxYMin meet">
         <g id="arrow_out" transform="scale(0.3 0.3)">
          <a xlink:href="classCDPL_1_1Math_1_1Scalar1GridBinary__inherit__graph_org.svg" target="_base">
           <rect id="button" ry="5" rx="5" y="6" x="6" height="38" width="38"
                fill="#f2f5e9" fill-opacity="0.5" stroke="#606060" stroke-width="1.0"/>
           <path id="arrow"
             d="M 11.500037,31.436501 C 11.940474,20.09759 22.043105,11.32322 32.158766,21.979434 L 37.068811,17.246167 C 37.068811,17.246167 37.088388,32 37.088388,32 L 22.160133,31.978069 C 22.160133,31.978069 26.997745,27.140456 26.997745,27.140456 C 18.528582,18.264221 13.291696,25.230495 11.500037,31.436501 z"
             style="fill:#404040;"/>
          </a>
         </g>
        </svg>
</svg>
