<?xml version="1.0" encoding="UTF-8" standalone="no"?>
<!DOCTYPE svg PUBLIC "-//W3C//DTD SVG 1.1//EN"
 "http://www.w3.org/Graphics/SVG/1.1/DTD/svg11.dtd">
<!-- Generated by graphviz version 2.44.0 (0)
 -->
<!-- Title: CDPL::Math::SparseVector&lt; T, A &gt; Pages: 1 -->
<!--zoomable 146 -->
<svg id="main" version="1.1" xmlns="http://www.w3.org/2000/svg" xmlns:xlink="http://www.w3.org/1999/xlink" xml:space="preserve" onload="init(evt)">
<style type="text/css"><![CDATA[
.edge:hover path { stroke: red; }
.edge:hover polygon { stroke: red; fill: red; }
]]></style>
<script type="text/javascript"><![CDATA[
var edges = document.getElementsByTagName('g');
if (edges && edges.length) {
  for (var i=0;i<edges.length;i++) {
    if (edges[i].id.substr(0,4)=='edge') {
      edges[i].setAttribute('class','edge');
    }
  }
}
]]></script>
        <defs>
                <circle id="rim" cx="0" cy="0" r="7"/>
                <circle id="rim2" cx="0" cy="0" r="3.5"/>
                <g id="zoomPlus">
                        <use xlink:href="#rim" fill="#404040">
                                <set attributeName="fill" to="#808080" begin="zoomplus.mouseover" end="zoomplus.mouseout"/>
                        </use>
                        <path d="M-4,0h8M0,-4v8" fill="none" stroke="white" stroke-width="1.5" pointer-events="none"/>
                </g>
                <g id="zoomMin">
                        <use xlink:href="#rim" fill="#404040">
                                <set attributeName="fill" to="#808080" begin="zoomminus.mouseover" end="zoomminus.mouseout"/>
                        </use>
                        <path d="M-4,0h8" fill="none" stroke="white" stroke-width="1.5" pointer-events="none"/>
                </g>
                <g id="dirArrow">
                        <path fill="none" stroke="white" stroke-width="1.5" d="M0,-3.0v7 M-2.5,-0.5L0,-3.0L2.5,-0.5"/>
                </g>
               <g id="resetDef">
                       <use xlink:href="#rim2" fill="#404040">
                               <set attributeName="fill" to="#808080" begin="reset.mouseover" end="reset.mouseout"/>
                       </use>
               </g>
        </defs>

<script type="text/javascript">
var viewWidth = 1430;
var viewHeight = 146;
var sectionId = 'dynsection-0';
</script>
<script xlink:href="svgpan.js"/>
<svg id="graph" class="graph">
<g id="viewport">
<title>CDPL::Math::SparseVector&lt; T, A &gt;</title>
<!-- Node1 -->
<g id="node1" class="node">
<title>Node1</title>
<g id="a_node1"><a xlink:title=" ">
<polygon fill="#bfbfbf" stroke="black" points="1286,-33 1286,-63 1422,-63 1422,-33 1286,-33"/>
<text text-anchor="start" x="1294" y="-51" font-family="Helvetica" font-size="10.00">CDPL::Math::SparseVector</text>
<text text-anchor="middle" x="1354" y="-40" font-family="Helvetica" font-size="10.00">&lt; T, A &gt;</text>
</a>
</g>
</g>
<!-- Node2 -->
<g id="node2" class="node">
<title>Node2</title>
<g id="a_node2"><a xlink:href="classCDPL_1_1Math_1_1VectorContainer.html" target="_top" xlink:title=" ">
<polygon fill="none" stroke="black" points="1103,-22 1103,-74 1249,-74 1249,-22 1103,-22"/>
<text text-anchor="start" x="1111" y="-62" font-family="Helvetica" font-size="10.00">CDPL::Math::VectorContainer</text>
<text text-anchor="start" x="1111" y="-51" font-family="Helvetica" font-size="10.00">&lt; SparseVector&lt; T, std::</text>
<text text-anchor="start" x="1111" y="-40" font-family="Helvetica" font-size="10.00">unordered_map&lt; std::size</text>
<text text-anchor="middle" x="1176" y="-29" font-family="Helvetica" font-size="10.00">_t, T &gt; &gt; &gt;</text>
</a>
</g>
</g>
<!-- Node2&#45;&gt;Node1 -->
<g id="edge1" class="edge">
<title>Node2&#45;&gt;Node1</title>
<path fill="none" stroke="midnightblue" d="M1259.14,-48C1268.08,-48 1277.1,-48 1285.83,-48"/>
<polygon fill="midnightblue" stroke="midnightblue" points="1259.09,-44.5 1249.09,-48 1259.09,-51.5 1259.09,-44.5"/>
</g>
<!-- Node3 -->
<g id="node3" class="node">
<title>Node3</title>
<g id="a_node3"><a xlink:href="classCDPL_1_1Math_1_1VectorExpression.html" target="_top" xlink:title=" ">
<polygon fill="none" stroke="black" points="592,-52.5 592,-93.5 759,-93.5 759,-52.5 592,-52.5"/>
<text text-anchor="start" x="600" y="-81.5" font-family="Helvetica" font-size="10.00">CDPL::Math::VectorExpression</text>
<text text-anchor="start" x="600" y="-70.5" font-family="Helvetica" font-size="10.00">&lt; SparseVector&lt; T, std::unordered</text>
<text text-anchor="middle" x="675.5" y="-59.5" font-family="Helvetica" font-size="10.00">_map&lt; std::size_t, T &gt; &gt; &gt;</text>
</a>
</g>
</g>
<!-- Node3&#45;&gt;Node2 -->
<g id="edge2" class="edge">
<title>Node3&#45;&gt;Node2</title>
<path fill="none" stroke="midnightblue" d="M769.29,-71.55C852.16,-69.78 976.8,-65.99 1085,-58 1090.8,-57.57 1096.81,-57.06 1102.83,-56.49"/>
<polygon fill="midnightblue" stroke="midnightblue" points="769.07,-68.05 759.14,-71.76 769.21,-75.05 769.07,-68.05"/>
</g>
<!-- Node4 -->
<g id="node4" class="node">
<title>Node4</title>
<g id="a_node4"><a xlink:href="classCDPL_1_1Math_1_1Expression.html" target="_top" xlink:title=" ">
<polygon fill="none" stroke="black" points="300.5,-85 300.5,-137 435.5,-137 435.5,-85 300.5,-85"/>
<text text-anchor="start" x="308.5" y="-125" font-family="Helvetica" font-size="10.00">CDPL::Math::Expression</text>
<text text-anchor="start" x="308.5" y="-114" font-family="Helvetica" font-size="10.00">&lt; SparseVector&lt; T, std</text>
<text text-anchor="start" x="308.5" y="-103" font-family="Helvetica" font-size="10.00">::unordered_map&lt; std::size</text>
<text text-anchor="middle" x="368" y="-92" font-family="Helvetica" font-size="10.00">_t, T &gt; &gt; &gt;</text>
</a>
</g>
</g>
<!-- Node4&#45;&gt;Node3 -->
<g id="edge3" class="edge">
<title>Node4&#45;&gt;Node3</title>
<path fill="none" stroke="midnightblue" d="M445.9,-110.21C482.98,-108.94 527.98,-106.12 568,-100 578.84,-98.34 590.19,-96.07 601.26,-93.53"/>
<polygon fill="midnightblue" stroke="midnightblue" points="445.55,-106.71 435.66,-110.52 445.77,-113.71 445.55,-106.71"/>
</g>
<!-- Node5 -->
<g id="node5" class="node">
<title>Node5</title>
<g id="a_node5"><a xlink:href="classCDPL_1_1Math_1_1Expression.html" target="_top" xlink:title=" ">
<polygon fill="none" stroke="black" points="0,-43.5 0,-62.5 150,-62.5 150,-43.5 0,-43.5"/>
<text text-anchor="middle" x="75" y="-50.5" font-family="Helvetica" font-size="10.00">CDPL::Math::Expression&lt; E &gt;</text>
</a>
</g>
</g>
<!-- Node5&#45;&gt;Node4 -->
<g id="edge4" class="edge">
<title>Node5&#45;&gt;Node4</title>
<path fill="none" stroke="orange" stroke-dasharray="5,2" d="M133.65,-64.49C181.69,-74.06 250.14,-87.71 300.48,-97.74"/>
<polygon fill="orange" stroke="orange" points="134.22,-61.03 123.73,-62.51 132.85,-67.9 134.22,-61.03"/>
<text text-anchor="start" x="168" y="-113" font-family="Helvetica" font-size="10.00"> &lt; SparseVector&lt; T,</text>
<text text-anchor="start" x="168" y="-102" font-family="Helvetica" font-size="10.00"> std::unordered_map</text>
<text text-anchor="middle" x="214.5" y="-91" font-family="Helvetica" font-size="10.00">&lt; std::size_t, T &gt; &gt; &gt;</text>
</g>
<!-- Node6 -->
<g id="node6" class="node">
<title>Node6</title>
<g id="a_node6"><a xlink:href="classCDPL_1_1Math_1_1VectorExpression.html" target="_top" xlink:title=" ">
<polygon fill="none" stroke="black" points="279,-43.5 279,-62.5 457,-62.5 457,-43.5 279,-43.5"/>
<text text-anchor="middle" x="368" y="-50.5" font-family="Helvetica" font-size="10.00">CDPL::Math::VectorExpression&lt; E &gt;</text>
</a>
</g>
</g>
<!-- Node5&#45;&gt;Node6 -->
<g id="edge6" class="edge">
<title>Node5&#45;&gt;Node6</title>
<path fill="none" stroke="midnightblue" d="M160.49,-53C197.69,-53 241.38,-53 278.97,-53"/>
<polygon fill="midnightblue" stroke="midnightblue" points="160.18,-49.5 150.18,-53 160.18,-56.5 160.18,-49.5"/>
</g>
<!-- Node9 -->
<g id="node9" class="node">
<title>Node9</title>
<g id="a_node9"><a xlink:href="classCDPL_1_1Math_1_1Expression.html" target="_top" xlink:title=" ">
<polygon fill="none" stroke="black" points="292.5,-0.5 292.5,-19.5 443.5,-19.5 443.5,-0.5 292.5,-0.5"/>
<text text-anchor="middle" x="368" y="-7.5" font-family="Helvetica" font-size="10.00">CDPL::Math::Expression&lt; C &gt;</text>
</a>
</g>
</g>
<!-- Node5&#45;&gt;Node9 -->
<g id="edge10" class="edge">
<title>Node5&#45;&gt;Node9</title>
<path fill="none" stroke="orange" stroke-dasharray="5,2" d="M143.42,-41.83C151.69,-40.51 160.04,-39.21 168,-38 210.6,-31.53 258.41,-24.79 296.49,-19.54"/>
<polygon fill="orange" stroke="orange" points="142.71,-38.4 133.39,-43.44 143.82,-45.32 142.71,-38.4"/>
<text text-anchor="middle" x="214.5" y="-41" font-family="Helvetica" font-size="10.00"> &lt; C &gt;</text>
</g>
<!-- Node6&#45;&gt;Node3 -->
<g id="edge5" class="edge">
<title>Node6&#45;&gt;Node3</title>
<path fill="none" stroke="orange" stroke-dasharray="5,2" d="M467.44,-59.44C507.58,-62.07 553.47,-65.08 591.84,-67.59"/>
<polygon fill="orange" stroke="orange" points="467.57,-55.95 457.36,-58.78 467.11,-62.93 467.57,-55.95"/>
<text text-anchor="start" x="475" y="-90" font-family="Helvetica" font-size="10.00"> &lt; SparseVector&lt; T,</text>
<text text-anchor="start" x="475" y="-79" font-family="Helvetica" font-size="10.00"> std::unordered_map</text>
<text text-anchor="middle" x="521.5" y="-68" font-family="Helvetica" font-size="10.00">&lt; std::size_t, T &gt; &gt; &gt;</text>
</g>
<!-- Node8 -->
<g id="node8" class="node">
<title>Node8</title>
<g id="a_node8"><a xlink:href="classCDPL_1_1Math_1_1VectorExpression.html" target="_top" xlink:title=" ">
<polygon fill="none" stroke="black" points="586,-14.5 586,-33.5 765,-33.5 765,-14.5 586,-14.5"/>
<text text-anchor="middle" x="675.5" y="-21.5" font-family="Helvetica" font-size="10.00">CDPL::Math::VectorExpression&lt; C &gt;</text>
</a>
</g>
</g>
<!-- Node6&#45;&gt;Node8 -->
<g id="edge11" class="edge">
<title>Node6&#45;&gt;Node8</title>
<path fill="none" stroke="orange" stroke-dasharray="5,2" d="M467.43,-43.66C505.49,-40.04 548.73,-35.94 585.81,-32.42"/>
<polygon fill="orange" stroke="orange" points="466.99,-40.18 457.36,-44.61 467.65,-47.15 466.99,-40.18"/>
<text text-anchor="middle" x="521.5" y="-46" font-family="Helvetica" font-size="10.00"> &lt; C &gt;</text>
</g>
<!-- Node7 -->
<g id="node7" class="node">
<title>Node7</title>
<g id="a_node7"><a xlink:href="classCDPL_1_1Math_1_1VectorContainer.html" target="_top" xlink:title=" ">
<polygon fill="none" stroke="black" points="802,-14.5 802,-33.5 974,-33.5 974,-14.5 802,-14.5"/>
<text text-anchor="middle" x="888" y="-21.5" font-family="Helvetica" font-size="10.00">CDPL::Math::VectorContainer&lt; C &gt;</text>
</a>
</g>
</g>
<!-- Node7&#45;&gt;Node2 -->
<g id="edge7" class="edge">
<title>Node7&#45;&gt;Node2</title>
<path fill="none" stroke="orange" stroke-dasharray="5,2" d="M984.47,-19.81C1016.53,-19.65 1052.41,-20.82 1085,-25 1090.76,-25.74 1096.68,-26.73 1102.6,-27.87"/>
<polygon fill="orange" stroke="orange" points="984.16,-16.32 974.2,-19.91 984.23,-23.32 984.16,-16.32"/>
<text text-anchor="start" x="992" y="-50" font-family="Helvetica" font-size="10.00"> &lt; SparseVector&lt; T,</text>
<text text-anchor="start" x="992" y="-39" font-family="Helvetica" font-size="10.00"> std::unordered_map</text>
<text text-anchor="middle" x="1038.5" y="-28" font-family="Helvetica" font-size="10.00">&lt; std::size_t, T &gt; &gt; &gt;</text>
</g>
<!-- Node8&#45;&gt;Node7 -->
<g id="edge8" class="edge">
<title>Node8&#45;&gt;Node7</title>
<path fill="none" stroke="midnightblue" d="M775.17,-24C784.07,-24 793.03,-24 801.8,-24"/>
<polygon fill="midnightblue" stroke="midnightblue" points="775.16,-20.5 765.16,-24 775.16,-27.5 775.16,-20.5"/>
</g>
<!-- Node9&#45;&gt;Node8 -->
<g id="edge9" class="edge">
<title>Node9&#45;&gt;Node8</title>
<path fill="none" stroke="midnightblue" d="M453.98,-9.64C489.27,-9.92 530.64,-10.79 568,-13 574.77,-13.4 581.78,-13.91 588.82,-14.49"/>
<polygon fill="midnightblue" stroke="midnightblue" points="453.73,-6.14 443.71,-9.57 453.69,-13.14 453.73,-6.14"/>
</g>
</g>
</svg>
        <g id="navigator" transform="translate(0 0)" fill="#404254">
                <rect fill="#f2f5e9" fill-opacity="0.5" stroke="#606060" stroke-width=".5" x="0" y="0" width="60" height="60"/>
                <use id="zoomplus" xlink:href="#zoomPlus" x="17" y="9" onmousedown="handleZoom(evt,'in')"/>
                <use id="zoomminus" xlink:href="#zoomMin" x="42" y="9" onmousedown="handleZoom(evt,'out')"/>
                <use id="reset" xlink:href="#resetDef" x="30" y="36" onmousedown="handleReset()"/>
                <g id="arrowUp" xlink:href="#dirArrow" transform="translate(30 24)" onmousedown="handlePan(0,-1)">
                  <use xlink:href="#rim" fill="#404040">
                        <set attributeName="fill" to="#808080" begin="arrowUp.mouseover" end="arrowUp.mouseout"/>
                  </use>
                  <path fill="none" stroke="white" stroke-width="1.5" d="M0,-3.0v7 M-2.5,-0.5L0,-3.0L2.5,-0.5"/>
                </g>
                <g id="arrowRight" xlink:href="#dirArrow" transform="rotate(90) translate(36 -43)" onmousedown="handlePan(1,0)">
                  <use xlink:href="#rim" fill="#404040">
                        <set attributeName="fill" to="#808080" begin="arrowRight.mouseover" end="arrowRight.mouseout"/>
                  </use>
                  <path fill="none" stroke="white" stroke-width="1.5" d="M0,-3.0v7 M-2.5,-0.5L0,-3.0L2.5,-0.5"/>
                </g>
                <g id="arrowDown" xlink:href="#dirArrow" transform="rotate(180) translate(-30 -48)" onmousedown="handlePan(0,1)">
                  <use xlink:href="#rim" fill="#404040">
                        <set attributeName="fill" to="#808080" begin="arrowDown.mouseover" end="arrowDown.mouseout"/>
                  </use>
                  <path fill="none" stroke="white" stroke-width="1.5" d="M0,-3.0v7 M-2.5,-0.5L0,-3.0L2.5,-0.5"/>
                </g>
                <g id="arrowLeft" xlink:href="#dirArrow" transform="rotate(270) translate(-36 17)" onmousedown="handlePan(-1,0)">
                  <use xlink:href="#rim" fill="#404040">
                        <set attributeName="fill" to="#808080" begin="arrowLeft.mouseover" end="arrowLeft.mouseout"/>
                  </use>
                  <path fill="none" stroke="white" stroke-width="1.5" d="M0,-3.0v7 M-2.5,-0.5L0,-3.0L2.5,-0.5"/>
                </g>
        </g>
        <svg viewBox="0 0 15 15" width="100%" height="30px" preserveAspectRatio="xMaxYMin meet">
         <g id="arrow_out" transform="scale(0.3 0.3)">
          <a xlink:href="classCDPL_1_1Math_1_1SparseVector__inherit__graph_org.svg" target="_base">
           <rect id="button" ry="5" rx="5" y="6" x="6" height="38" width="38"
                fill="#f2f5e9" fill-opacity="0.5" stroke="#606060" stroke-width="1.0"/>
           <path id="arrow"
             d="M 11.500037,31.436501 C 11.940474,20.09759 22.043105,11.32322 32.158766,21.979434 L 37.068811,17.246167 C 37.068811,17.246167 37.088388,32 37.088388,32 L 22.160133,31.978069 C 22.160133,31.978069 26.997745,27.140456 26.997745,27.140456 C 18.528582,18.264221 13.291696,25.230495 11.500037,31.436501 z"
             style="fill:#404040;"/>
          </a>
         </g>
        </svg>
</svg>
