<?xml version="1.0" encoding="UTF-8" standalone="no"?>
<!DOCTYPE svg PUBLIC "-//W3C//DTD SVG 1.1//EN"
 "http://www.w3.org/Graphics/SVG/1.1/DTD/svg11.dtd">
<!-- Generated by graphviz version 2.44.0 (0)
 -->
<!-- Title: CDPL::Util::DGCoordinatesGeneratorBase&lt; Dim, T, Derived &gt; Pages: 1 -->
<!--zoomable 147 -->
<svg id="main" version="1.1" xmlns="http://www.w3.org/2000/svg" xmlns:xlink="http://www.w3.org/1999/xlink" xml:space="preserve" onload="init(evt)">
<style type="text/css"><![CDATA[
.edge:hover path { stroke: red; }
.edge:hover polygon { stroke: red; fill: red; }
]]></style>
<script type="text/javascript"><![CDATA[
var edges = document.getElementsByTagName('g');
if (edges && edges.length) {
  for (var i=0;i<edges.length;i++) {
    if (edges[i].id.substr(0,4)=='edge') {
      edges[i].setAttribute('class','edge');
    }
  }
}
]]></script>
        <defs>
                <circle id="rim" cx="0" cy="0" r="7"/>
                <circle id="rim2" cx="0" cy="0" r="3.5"/>
                <g id="zoomPlus">
                        <use xlink:href="#rim" fill="#404040">
                                <set attributeName="fill" to="#808080" begin="zoomplus.mouseover" end="zoomplus.mouseout"/>
                        </use>
                        <path d="M-4,0h8M0,-4v8" fill="none" stroke="white" stroke-width="1.5" pointer-events="none"/>
                </g>
                <g id="zoomMin">
                        <use xlink:href="#rim" fill="#404040">
                                <set attributeName="fill" to="#808080" begin="zoomminus.mouseover" end="zoomminus.mouseout"/>
                        </use>
                        <path d="M-4,0h8" fill="none" stroke="white" stroke-width="1.5" pointer-events="none"/>
                </g>
                <g id="dirArrow">
                        <path fill="none" stroke="white" stroke-width="1.5" d="M0,-3.0v7 M-2.5,-0.5L0,-3.0L2.5,-0.5"/>
                </g>
               <g id="resetDef">
                       <use xlink:href="#rim2" fill="#404040">
                               <set attributeName="fill" to="#808080" begin="reset.mouseover" end="reset.mouseout"/>
                       </use>
               </g>
        </defs>

<script type="text/javascript">
var viewWidth = 928;
var viewHeight = 147;
var sectionId = 'dynsection-0';
</script>
<script xlink:href="svgpan.js"/>
<svg id="graph" class="graph">
<g id="viewport">
<title>CDPL::Util::DGCoordinatesGeneratorBase&lt; Dim, T, Derived &gt;</title>
<!-- Node1 -->
<g id="node1" class="node">
<title>Node1</title>
<g id="a_node1"><a xlink:title="Base for classes dedicated to the generation of coordinates that fulfill user&#45;provided point distance...">
<polygon fill="#bfbfbf" stroke="black" points="0,-66.5 0,-107.5 137,-107.5 137,-66.5 0,-66.5"/>
<text text-anchor="start" x="8" y="-95.5" font-family="Helvetica" font-size="10.00">CDPL::Util::DGCoordinates</text>
<text text-anchor="start" x="8" y="-84.5" font-family="Helvetica" font-size="10.00">GeneratorBase&lt; Dim, T,</text>
<text text-anchor="middle" x="68.5" y="-73.5" font-family="Helvetica" font-size="10.00"> Derived &gt;</text>
</a>
</g>
</g>
<!-- Node2 -->
<g id="node2" class="node">
<title>Node2</title>
<g id="a_node2"><a xlink:href="classCDPL_1_1Util_1_1DGCoordinatesGenerator.html" target="_top" xlink:title=" ">
<polygon fill="none" stroke="black" points="783,-103 783,-133 920,-133 920,-103 783,-103"/>
<text text-anchor="start" x="791" y="-121" font-family="Helvetica" font-size="10.00">CDPL::Util::DGCoordinates</text>
<text text-anchor="middle" x="851.5" y="-110" font-family="Helvetica" font-size="10.00">Generator&lt; 2, double &gt;</text>
</a>
</g>
</g>
<!-- Node1&#45;&gt;Node2 -->
<g id="edge1" class="edge">
<title>Node1&#45;&gt;Node2</title>
<path fill="none" stroke="midnightblue" d="M140.63,-110.01C145.46,-111.15 150.28,-112.16 155,-113 382.07,-153.38 657.46,-136.29 782.67,-125.01"/>
<polygon fill="midnightblue" stroke="midnightblue" points="141.27,-106.56 130.72,-107.53 139.57,-113.35 141.27,-106.56"/>
</g>
<!-- Node3 -->
<g id="node3" class="node">
<title>Node3</title>
<g id="a_node3"><a xlink:href="classCDPL_1_1Util_1_1DGCoordinatesGeneratorBase.html" target="_top" xlink:title=" ">
<polygon fill="none" stroke="black" points="353,-61 353,-113 490,-113 490,-61 353,-61"/>
<text text-anchor="start" x="361" y="-101" font-family="Helvetica" font-size="10.00">CDPL::Util::DGCoordinates</text>
<text text-anchor="start" x="361" y="-90" font-family="Helvetica" font-size="10.00">GeneratorBase&lt; Dim, T,</text>
<text text-anchor="start" x="361" y="-79" font-family="Helvetica" font-size="10.00"> DGCoordinatesGenerator</text>
<text text-anchor="middle" x="421.5" y="-68" font-family="Helvetica" font-size="10.00">&lt; Dim, T &gt; &gt;</text>
</a>
</g>
</g>
<!-- Node1&#45;&gt;Node3 -->
<g id="edge2" class="edge">
<title>Node1&#45;&gt;Node3</title>
<path fill="none" stroke="orange" stroke-dasharray="5,2" d="M147.23,-87C208.79,-87 293.92,-87 352.73,-87"/>
<polygon fill="orange" stroke="orange" points="147.18,-83.5 137.18,-87 147.18,-90.5 147.18,-83.5"/>
<text text-anchor="start" x="155" y="-101" font-family="Helvetica" font-size="10.00"> &lt; Dim, T, DGCoordinatesGenerator</text>
<text text-anchor="middle" x="234" y="-90" font-family="Helvetica" font-size="10.00">&lt; Dim, T &gt; &gt;</text>
</g>
<!-- Node5 -->
<g id="node5" class="node">
<title>Node5</title>
<g id="a_node5"><a xlink:href="classCDPL_1_1Util_1_1DGCoordinatesGeneratorBase.html" target="_top" xlink:title=" ">
<polygon fill="none" stroke="black" points="331,-0.5 331,-41.5 512,-41.5 512,-0.5 331,-0.5"/>
<text text-anchor="start" x="339" y="-29.5" font-family="Helvetica" font-size="10.00">CDPL::Util::DGCoordinates</text>
<text text-anchor="start" x="339" y="-18.5" font-family="Helvetica" font-size="10.00">GeneratorBase&lt; 3, T, DGCoordinates</text>
<text text-anchor="middle" x="421.5" y="-7.5" font-family="Helvetica" font-size="10.00">Generator&lt; 3, T &gt; &gt;</text>
</a>
</g>
</g>
<!-- Node1&#45;&gt;Node5 -->
<g id="edge5" class="edge">
<title>Node1&#45;&gt;Node5</title>
<path fill="none" stroke="orange" stroke-dasharray="5,2" d="M143.4,-63.8C147.31,-62.8 151.19,-61.86 155,-61 212.97,-47.89 279.05,-37.92 330.79,-31.21"/>
<polygon fill="orange" stroke="orange" points="142.42,-60.44 133.66,-66.39 144.22,-67.21 142.42,-60.44"/>
<text text-anchor="start" x="161.5" y="-75" font-family="Helvetica" font-size="10.00"> &lt; 3, T, DGCoordinatesGenerator</text>
<text text-anchor="middle" x="234" y="-64" font-family="Helvetica" font-size="10.00">&lt; 3, T &gt; &gt;</text>
</g>
<!-- Node4 -->
<g id="node4" class="node">
<title>Node4</title>
<g id="a_node4"><a xlink:href="classCDPL_1_1Util_1_1DGCoordinatesGenerator.html" target="_top" xlink:title="Generic implementation for generation of coordinates that fulfill user&#45;provided point distance constr...">
<polygon fill="none" stroke="black" points="549,-78 549,-108 686,-108 686,-78 549,-78"/>
<text text-anchor="start" x="557" y="-96" font-family="Helvetica" font-size="10.00">CDPL::Util::DGCoordinates</text>
<text text-anchor="middle" x="617.5" y="-85" font-family="Helvetica" font-size="10.00">Generator&lt; Dim, T &gt;</text>
</a>
</g>
</g>
<!-- Node3&#45;&gt;Node4 -->
<g id="edge3" class="edge">
<title>Node3&#45;&gt;Node4</title>
<path fill="none" stroke="midnightblue" d="M500.48,-89.41C516.49,-89.91 533.22,-90.42 548.83,-90.91"/>
<polygon fill="midnightblue" stroke="midnightblue" points="500.18,-85.9 490.08,-89.09 499.97,-92.9 500.18,-85.9"/>
</g>
<!-- Node4&#45;&gt;Node2 -->
<g id="edge4" class="edge">
<title>Node4&#45;&gt;Node2</title>
<path fill="none" stroke="orange" stroke-dasharray="5,2" d="M696.37,-101.39C724.34,-104.41 755.64,-107.78 782.69,-110.69"/>
<polygon fill="orange" stroke="orange" points="696.55,-97.89 686.23,-100.3 695.8,-104.85 696.55,-97.89"/>
<text text-anchor="middle" x="734.5" y="-111" font-family="Helvetica" font-size="10.00"> &lt; 2, double &gt;</text>
</g>
<!-- Node6 -->
<g id="node6" class="node">
<title>Node6</title>
<g id="a_node6"><a xlink:href="classCDPL_1_1Util_1_1DGCoordinatesGenerator_3_013_00_01T_01_4.html" target="_top" xlink:title="Specialized implementation for the generation of 3D coordinates that fulfill user&#45;provided point dist...">
<polygon fill="none" stroke="black" points="549,-6 549,-36 686,-36 686,-6 549,-6"/>
<text text-anchor="start" x="557" y="-24" font-family="Helvetica" font-size="10.00">CDPL::Util::DGCoordinates</text>
<text text-anchor="middle" x="617.5" y="-13" font-family="Helvetica" font-size="10.00">Generator&lt; 3, T &gt;</text>
</a>
</g>
</g>
<!-- Node5&#45;&gt;Node6 -->
<g id="edge6" class="edge">
<title>Node5&#45;&gt;Node6</title>
<path fill="none" stroke="midnightblue" d="M522.24,-21C531.2,-21 540.13,-21 548.73,-21"/>
<polygon fill="midnightblue" stroke="midnightblue" points="522.12,-17.5 512.12,-21 522.12,-24.5 522.12,-17.5"/>
</g>
</g>
</svg>
        <g id="navigator" transform="translate(0 0)" fill="#404254">
                <rect fill="#f2f5e9" fill-opacity="0.5" stroke="#606060" stroke-width=".5" x="0" y="0" width="60" height="60"/>
                <use id="zoomplus" xlink:href="#zoomPlus" x="17" y="9" onmousedown="handleZoom(evt,'in')"/>
                <use id="zoomminus" xlink:href="#zoomMin" x="42" y="9" onmousedown="handleZoom(evt,'out')"/>
                <use id="reset" xlink:href="#resetDef" x="30" y="36" onmousedown="handleReset()"/>
                <g id="arrowUp" xlink:href="#dirArrow" transform="translate(30 24)" onmousedown="handlePan(0,-1)">
                  <use xlink:href="#rim" fill="#404040">
                        <set attributeName="fill" to="#808080" begin="arrowUp.mouseover" end="arrowUp.mouseout"/>
                  </use>
                  <path fill="none" stroke="white" stroke-width="1.5" d="M0,-3.0v7 M-2.5,-0.5L0,-3.0L2.5,-0.5"/>
                </g>
                <g id="arrowRight" xlink:href="#dirArrow" transform="rotate(90) translate(36 -43)" onmousedown="handlePan(1,0)">
                  <use xlink:href="#rim" fill="#404040">
                        <set attributeName="fill" to="#808080" begin="arrowRight.mouseover" end="arrowRight.mouseout"/>
                  </use>
                  <path fill="none" stroke="white" stroke-width="1.5" d="M0,-3.0v7 M-2.5,-0.5L0,-3.0L2.5,-0.5"/>
                </g>
                <g id="arrowDown" xlink:href="#dirArrow" transform="rotate(180) translate(-30 -48)" onmousedown="handlePan(0,1)">
                  <use xlink:href="#rim" fill="#404040">
                        <set attributeName="fill" to="#808080" begin="arrowDown.mouseover" end="arrowDown.mouseout"/>
                  </use>
                  <path fill="none" stroke="white" stroke-width="1.5" d="M0,-3.0v7 M-2.5,-0.5L0,-3.0L2.5,-0.5"/>
                </g>
                <g id="arrowLeft" xlink:href="#dirArrow" transform="rotate(270) translate(-36 17)" onmousedown="handlePan(-1,0)">
                  <use xlink:href="#rim" fill="#404040">
                        <set attributeName="fill" to="#808080" begin="arrowLeft.mouseover" end="arrowLeft.mouseout"/>
                  </use>
                  <path fill="none" stroke="white" stroke-width="1.5" d="M0,-3.0v7 M-2.5,-0.5L0,-3.0L2.5,-0.5"/>
                </g>
        </g>
        <svg viewBox="0 0 15 15" width="100%" height="30px" preserveAspectRatio="xMaxYMin meet">
         <g id="arrow_out" transform="scale(0.3 0.3)">
          <a xlink:href="classCDPL_1_1Util_1_1DGCoordinatesGeneratorBase__inherit__graph_org.svg" target="_base">
           <rect id="button" ry="5" rx="5" y="6" x="6" height="38" width="38"
                fill="#f2f5e9" fill-opacity="0.5" stroke="#606060" stroke-width="1.0"/>
           <path id="arrow"
             d="M 11.500037,31.436501 C 11.940474,20.09759 22.043105,11.32322 32.158766,21.979434 L 37.068811,17.246167 C 37.068811,17.246167 37.088388,32 37.088388,32 L 22.160133,31.978069 C 22.160133,31.978069 26.997745,27.140456 26.997745,27.140456 C 18.528582,18.264221 13.291696,25.230495 11.500037,31.436501 z"
             style="fill:#404040;"/>
          </a>
         </g>
        </svg>
</svg>
