<?xml version="1.0" encoding="UTF-8" standalone="no"?>
<!DOCTYPE svg PUBLIC "-//W3C//DTD SVG 1.1//EN"
 "http://www.w3.org/Graphics/SVG/1.1/DTD/svg11.dtd">
<!-- Generated by graphviz version 2.40.1 (0)
 -->
<!-- Title: CDPL::Vis::View2D Pages: 1 -->
<svg width="502pt" height="116pt"
 viewBox="0.00 0.00 502.00 116.00" xmlns="http://www.w3.org/2000/svg" xmlns:xlink="http://www.w3.org/1999/xlink">
<g id="graph0" class="graph" transform="scale(1 1) rotate(0) translate(4 112)">
<title>CDPL::Vis::View2D</title>
<!-- Node1 -->
<g id="node1" class="node">
<title>Node1</title>
<g id="a_node1"><a xlink:title="The abstract base of classes implementing the 2D visualization of data objects.">
<polygon fill="#bfbfbf" stroke="#000000" points="200,-44.5 200,-63.5 307,-63.5 307,-44.5 200,-44.5"/>
<text text-anchor="middle" x="253.5" y="-51.5" font-family="Helvetica,sans-Serif" font-size="10.00" fill="#000000">CDPL::Vis::View2D</text>
</a>
</g>
</g>
<!-- Node3 -->
<g id="node3" class="node">
<title>Node3</title>
<g id="a_node3"><a xlink:href="classCDPL_1_1Vis_1_1ReactionView2D.html" target="_top" xlink:title="Implements the 2D visualization of chemical reactions.">
<polygon fill="none" stroke="#000000" points="344,-88.5 344,-107.5 493,-107.5 493,-88.5 344,-88.5"/>
<text text-anchor="middle" x="418.5" y="-95.5" font-family="Helvetica,sans-Serif" font-size="10.00" fill="#000000">CDPL::Vis::ReactionView2D</text>
</a>
</g>
</g>
<!-- Node1&#45;&gt;Node3 -->
<g id="edge2" class="edge">
<title>Node1&#45;&gt;Node3</title>
<path fill="none" stroke="#191970" d="M296.8269,-66.3457C311.4685,-70.4529 327.9235,-74.998 343,-79 354.8882,-82.1557 367.8646,-85.4686 379.6535,-88.4284"/>
<polygon fill="#191970" stroke="#191970" points="297.5937,-62.9256 287.0194,-63.5843 295.6965,-69.6636 297.5937,-62.9256"/>
</g>
<!-- Node4 -->
<g id="node4" class="node">
<title>Node4</title>
<g id="a_node4"><a xlink:href="classCDPL_1_1Vis_1_1StructureGridView2D.html" target="_top" xlink:title="Implements the 2D visualization of multiple chemical structures arrange in a grid.">
<polygon fill="none" stroke="#000000" points="351.5,-39 351.5,-69 485.5,-69 485.5,-39 351.5,-39"/>
<text text-anchor="start" x="359.5" y="-57" font-family="Helvetica,sans-Serif" font-size="10.00" fill="#000000">CDPL::Vis::StructureGrid</text>
<text text-anchor="middle" x="418.5" y="-46" font-family="Helvetica,sans-Serif" font-size="10.00" fill="#000000">View2D</text>
</a>
</g>
</g>
<!-- Node1&#45;&gt;Node4 -->
<g id="edge3" class="edge">
<title>Node1&#45;&gt;Node4</title>
<path fill="none" stroke="#191970" d="M317.1831,-54C328.3713,-54 340.0472,-54 351.3268,-54"/>
<polygon fill="#191970" stroke="#191970" points="317.0708,-50.5001 307.0708,-54 317.0707,-57.5001 317.0708,-50.5001"/>
</g>
<!-- Node5 -->
<g id="node5" class="node">
<title>Node5</title>
<g id="a_node5"><a xlink:href="classCDPL_1_1Vis_1_1StructureView2D.html" target="_top" xlink:title="Implements the 2D visualization of chemical structures.">
<polygon fill="none" stroke="#000000" points="343,-.5 343,-19.5 494,-19.5 494,-.5 343,-.5"/>
<text text-anchor="middle" x="418.5" y="-7.5" font-family="Helvetica,sans-Serif" font-size="10.00" fill="#000000">CDPL::Vis::StructureView2D</text>
</a>
</g>
</g>
<!-- Node1&#45;&gt;Node5 -->
<g id="edge4" class="edge">
<title>Node1&#45;&gt;Node5</title>
<path fill="none" stroke="#191970" d="M296.8269,-41.6543C311.4685,-37.5471 327.9235,-33.002 343,-29 354.8882,-25.8443 367.8646,-22.5314 379.6535,-19.5716"/>
<polygon fill="#191970" stroke="#191970" points="295.6965,-38.3364 287.0194,-44.4157 297.5937,-45.0744 295.6965,-38.3364"/>
</g>
<!-- Node2 -->
<g id="node2" class="node">
<title>Node2</title>
<g id="a_node2"><a xlink:href="classCDPL_1_1Base_1_1ControlParameterContainer.html" target="_top" xlink:title="A class providing methods for the storage and lookup of control&#45;parameter values.">
<polygon fill="none" stroke="#000000" points="0,-39 0,-69 164,-69 164,-39 0,-39"/>
<text text-anchor="start" x="8" y="-57" font-family="Helvetica,sans-Serif" font-size="10.00" fill="#000000">CDPL::Base::ControlParameter</text>
<text text-anchor="middle" x="82" y="-46" font-family="Helvetica,sans-Serif" font-size="10.00" fill="#000000">Container</text>
</a>
</g>
</g>
<!-- Node2&#45;&gt;Node1 -->
<g id="edge1" class="edge">
<title>Node2&#45;&gt;Node1</title>
<path fill="none" stroke="#191970" d="M174.3893,-54C183.023,-54 191.5663,-54 199.6665,-54"/>
<polygon fill="#191970" stroke="#191970" points="174.2338,-50.5001 164.2338,-54 174.2338,-57.5001 174.2338,-50.5001"/>
</g>
</g>
</svg>
