<?xml version="1.0" encoding="UTF-8" standalone="no"?>
<!DOCTYPE svg PUBLIC "-//W3C//DTD SVG 1.1//EN"
 "http://www.w3.org/Graphics/SVG/1.1/DTD/svg11.dtd">
<!-- Generated by graphviz version 2.44.0 (0)
 -->
<!-- Title: CDPL::Math::QuaternionReference&lt; Q &gt; Pages: 1 -->
<svg width="315pt" height="231pt"
 viewBox="0.00 0.00 314.50 231.00" xmlns="http://www.w3.org/2000/svg" xmlns:xlink="http://www.w3.org/1999/xlink">
<g id="graph0" class="graph" transform="scale(1 1) rotate(0) translate(4 227)">
<title>CDPL::Math::QuaternionReference&lt; Q &gt;</title>
<!-- Node1 -->
<g id="node1" class="node">
<title>Node1</title>
<g id="a_node1"><a xlink:title=" ">
<polygon fill="#bfbfbf" stroke="black" points="0,-0.5 0,-19.5 194,-19.5 194,-0.5 0,-0.5"/>
<text text-anchor="middle" x="97" y="-7.5" font-family="Helvetica" font-size="10.00">CDPL::Math::QuaternionReference&lt; Q &gt;</text>
</a>
</g>
</g>
<!-- Node2 -->
<g id="node2" class="node">
<title>Node2</title>
<g id="a_node2"><a xlink:href="classCDPL_1_1Math_1_1QuaternionExpression.html" target="_top" xlink:title=" ">
<polygon fill="none" stroke="black" points="10.5,-57.5 10.5,-87.5 183.5,-87.5 183.5,-57.5 10.5,-57.5"/>
<text text-anchor="start" x="18.5" y="-75.5" font-family="Helvetica" font-size="10.00">CDPL::Math::QuaternionExpression</text>
<text text-anchor="middle" x="97" y="-64.5" font-family="Helvetica" font-size="10.00">&lt; QuaternionReference&lt; Q &gt; &gt;</text>
</a>
</g>
</g>
<!-- Node2&#45;&gt;Node1 -->
<g id="edge1" class="edge">
<title>Node2&#45;&gt;Node1</title>
<path fill="none" stroke="midnightblue" d="M97,-47.35C97,-37.51 97,-26.78 97,-19.54"/>
<polygon fill="midnightblue" stroke="midnightblue" points="93.5,-47.47 97,-57.47 100.5,-47.47 93.5,-47.47"/>
</g>
<!-- Node3 -->
<g id="node3" class="node">
<title>Node3</title>
<g id="a_node3"><a xlink:href="classCDPL_1_1Math_1_1Expression.html" target="_top" xlink:title=" ">
<polygon fill="none" stroke="black" points="18,-203.5 18,-222.5 168,-222.5 168,-203.5 18,-203.5"/>
<text text-anchor="middle" x="93" y="-210.5" font-family="Helvetica" font-size="10.00">CDPL::Math::Expression&lt; E &gt;</text>
</a>
</g>
</g>
<!-- Node3&#45;&gt;Node2 -->
<g id="edge2" class="edge">
<title>Node3&#45;&gt;Node2</title>
<path fill="none" stroke="midnightblue" d="M93.54,-193.25C94.35,-165.19 95.86,-112.88 96.59,-87.73"/>
<polygon fill="midnightblue" stroke="midnightblue" points="90.04,-193.24 93.25,-203.34 97.04,-193.44 90.04,-193.24"/>
</g>
<!-- Node4 -->
<g id="node4" class="node">
<title>Node4</title>
<g id="a_node4"><a xlink:href="classCDPL_1_1Math_1_1QuaternionExpression.html" target="_top" xlink:title=" ">
<polygon fill="none" stroke="black" points="109.5,-146.5 109.5,-165.5 306.5,-165.5 306.5,-146.5 109.5,-146.5"/>
<text text-anchor="middle" x="208" y="-153.5" font-family="Helvetica" font-size="10.00">CDPL::Math::QuaternionExpression&lt; E &gt;</text>
</a>
</g>
</g>
<!-- Node3&#45;&gt;Node4 -->
<g id="edge4" class="edge">
<title>Node3&#45;&gt;Node4</title>
<path fill="none" stroke="midnightblue" d="M120.27,-198.96C141.89,-188.62 171.47,-174.47 190.16,-165.53"/>
<polygon fill="midnightblue" stroke="midnightblue" points="118.48,-195.93 110.97,-203.41 121.5,-202.25 118.48,-195.93"/>
</g>
<!-- Node4&#45;&gt;Node2 -->
<g id="edge3" class="edge">
<title>Node4&#45;&gt;Node2</title>
<path fill="none" stroke="orange" stroke-dasharray="5,2" d="M187.87,-140.22C167.49,-125.26 136.23,-102.3 116.2,-87.6"/>
<polygon fill="orange" stroke="orange" points="185.99,-143.18 196.12,-146.28 190.13,-137.54 185.99,-143.18"/>
<text text-anchor="start" x="168" y="-120" font-family="Helvetica" font-size="10.00"> &lt; QuaternionReference</text>
<text text-anchor="middle" x="220" y="-109" font-family="Helvetica" font-size="10.00">&lt; Q &gt; &gt;</text>
</g>
</g>
</svg>
