<?xml version="1.0" encoding="UTF-8" standalone="no"?>
<!DOCTYPE svg PUBLIC "-//W3C//DTD SVG 1.1//EN"
 "http://www.w3.org/Graphics/SVG/1.1/DTD/svg11.dtd">
<!-- Generated by graphviz version 2.44.0 (0)
 -->
<!-- Title: CDPL::Math::VectorReference&lt; V &gt; Pages: 1 -->
<svg width="336pt" height="263pt"
 viewBox="0.00 0.00 335.50 263.00" xmlns="http://www.w3.org/2000/svg" xmlns:xlink="http://www.w3.org/1999/xlink">
<g id="graph0" class="graph" transform="scale(1 1) rotate(0) translate(4 259)">
<title>CDPL::Math::VectorReference&lt; V &gt;</title>
<!-- Node1 -->
<g id="node1" class="node">
<title>Node1</title>
<g id="a_node1"><a xlink:title=" ">
<polygon fill="#bfbfbf" stroke="black" points="65,-0.5 65,-19.5 238,-19.5 238,-0.5 65,-0.5"/>
<text text-anchor="middle" x="151.5" y="-7.5" font-family="Helvetica" font-size="10.00">CDPL::Math::VectorReference&lt; V &gt;</text>
</a>
</g>
</g>
<!-- Node2 -->
<g id="node2" class="node">
<title>Node2</title>
<g id="a_node2"><a xlink:href="classCDPL_1_1Math_1_1VectorExpression.html" target="_top" xlink:title=" ">
<polygon fill="none" stroke="black" points="75,-57.5 75,-87.5 228,-87.5 228,-57.5 75,-57.5"/>
<text text-anchor="start" x="83" y="-75.5" font-family="Helvetica" font-size="10.00">CDPL::Math::VectorExpression</text>
<text text-anchor="middle" x="151.5" y="-64.5" font-family="Helvetica" font-size="10.00">&lt; VectorReference&lt; V &gt; &gt;</text>
</a>
</g>
</g>
<!-- Node2&#45;&gt;Node1 -->
<g id="edge1" class="edge">
<title>Node2&#45;&gt;Node1</title>
<path fill="none" stroke="midnightblue" d="M151.5,-47.35C151.5,-37.51 151.5,-26.78 151.5,-19.54"/>
<polygon fill="midnightblue" stroke="midnightblue" points="148,-47.47 151.5,-57.47 155,-47.47 148,-47.47"/>
</g>
<!-- Node3 -->
<g id="node3" class="node">
<title>Node3</title>
<g id="a_node3"><a xlink:href="classCDPL_1_1Math_1_1Expression.html" target="_top" xlink:title=" ">
<polygon fill="none" stroke="black" points="0,-146.5 0,-176.5 131,-176.5 131,-146.5 0,-146.5"/>
<text text-anchor="start" x="8" y="-164.5" font-family="Helvetica" font-size="10.00">CDPL::Math::Expression</text>
<text text-anchor="middle" x="65.5" y="-153.5" font-family="Helvetica" font-size="10.00">&lt; VectorReference&lt; V &gt; &gt;</text>
</a>
</g>
</g>
<!-- Node3&#45;&gt;Node2 -->
<g id="edge2" class="edge">
<title>Node3&#45;&gt;Node2</title>
<path fill="none" stroke="midnightblue" d="M86.99,-138.76C102.82,-122.74 123.88,-101.44 137.56,-87.6"/>
<polygon fill="midnightblue" stroke="midnightblue" points="84.24,-136.56 79.7,-146.13 89.22,-141.48 84.24,-136.56"/>
</g>
<!-- Node4 -->
<g id="node4" class="node">
<title>Node4</title>
<g id="a_node4"><a xlink:href="classCDPL_1_1Math_1_1Expression.html" target="_top" xlink:title=" ">
<polygon fill="none" stroke="black" points="76.5,-235.5 76.5,-254.5 226.5,-254.5 226.5,-235.5 76.5,-235.5"/>
<text text-anchor="middle" x="151.5" y="-242.5" font-family="Helvetica" font-size="10.00">CDPL::Math::Expression&lt; E &gt;</text>
</a>
</g>
</g>
<!-- Node4&#45;&gt;Node3 -->
<g id="edge3" class="edge">
<title>Node4&#45;&gt;Node3</title>
<path fill="none" stroke="orange" stroke-dasharray="5,2" d="M131.43,-229.4C126.42,-225.52 121.16,-221.23 116.5,-217 102.31,-204.1 87.48,-187.9 77.5,-176.53"/>
<polygon fill="orange" stroke="orange" points="129.36,-232.23 139.45,-235.46 133.58,-226.64 129.36,-232.23"/>
<text text-anchor="start" x="116.5" y="-209" font-family="Helvetica" font-size="10.00"> &lt; VectorReference&lt;</text>
<text text-anchor="middle" x="162" y="-198" font-family="Helvetica" font-size="10.00"> V &gt; &gt;</text>
</g>
<!-- Node5 -->
<g id="node5" class="node">
<title>Node5</title>
<g id="a_node5"><a xlink:href="classCDPL_1_1Math_1_1VectorExpression.html" target="_top" xlink:title=" ">
<polygon fill="none" stroke="black" points="149.5,-152 149.5,-171 327.5,-171 327.5,-152 149.5,-152"/>
<text text-anchor="middle" x="238.5" y="-159" font-family="Helvetica" font-size="10.00">CDPL::Math::VectorExpression&lt; E &gt;</text>
</a>
</g>
</g>
<!-- Node4&#45;&gt;Node5 -->
<g id="edge5" class="edge">
<title>Node4&#45;&gt;Node5</title>
<path fill="none" stroke="midnightblue" d="M186.55,-231.13C194.01,-227.33 201.46,-222.65 207.5,-217 221.5,-203.92 230.9,-183.07 235.41,-171.31"/>
<polygon fill="midnightblue" stroke="midnightblue" points="184.79,-228.08 177.19,-235.46 187.73,-234.44 184.79,-228.08"/>
</g>
<!-- Node5&#45;&gt;Node2 -->
<g id="edge4" class="edge">
<title>Node5&#45;&gt;Node2</title>
<path fill="none" stroke="orange" stroke-dasharray="5,2" d="M222.62,-144.62C206.31,-128.31 181.16,-103.16 165.55,-87.55"/>
<polygon fill="orange" stroke="orange" points="220.29,-147.24 229.84,-151.84 225.24,-142.29 220.29,-147.24"/>
<text text-anchor="start" x="204.5" y="-120" font-family="Helvetica" font-size="10.00"> &lt; VectorReference&lt;</text>
<text text-anchor="middle" x="250" y="-109" font-family="Helvetica" font-size="10.00"> V &gt; &gt;</text>
</g>
</g>
</svg>
