<?xml version="1.0" encoding="UTF-8" standalone="no"?>
<!DOCTYPE svg PUBLIC "-//W3C//DTD SVG 1.1//EN"
 "http://www.w3.org/Graphics/SVG/1.1/DTD/svg11.dtd">
<!-- Generated by graphviz version 2.44.0 (0)
 -->
<!-- Title: CDPL::Vis::View2D Pages: 1 -->
<svg width="481pt" height="116pt"
 viewBox="0.00 0.00 481.00 116.00" xmlns="http://www.w3.org/2000/svg" xmlns:xlink="http://www.w3.org/1999/xlink">
<g id="graph0" class="graph" transform="scale(1 1) rotate(0) translate(4 112)">
<title>CDPL::Vis::View2D</title>
<!-- Node1 -->
<g id="node1" class="node">
<title>Node1</title>
<g id="a_node1"><a xlink:title="The abstract base of classes implementing the 2D visualization of data objects.">
<polygon fill="#bfbfbf" stroke="black" points="190,-44.5 190,-63.5 294,-63.5 294,-44.5 190,-44.5"/>
<text text-anchor="middle" x="242" y="-51.5" font-family="Helvetica" font-size="10.00">CDPL::Vis::View2D</text>
</a>
</g>
</g>
<!-- Node3 -->
<g id="node3" class="node">
<title>Node3</title>
<g id="a_node3"><a xlink:href="classCDPL_1_1Vis_1_1ReactionView2D.html" target="_top" xlink:title="Implements the 2D visualization of chemical reactions.">
<polygon fill="none" stroke="black" points="330.5,-88.5 330.5,-107.5 472.5,-107.5 472.5,-88.5 330.5,-88.5"/>
<text text-anchor="middle" x="401.5" y="-95.5" font-family="Helvetica" font-size="10.00">CDPL::Vis::ReactionView2D</text>
</a>
</g>
</g>
<!-- Node1&#45;&gt;Node3 -->
<g id="edge2" class="edge">
<title>Node1&#45;&gt;Node3</title>
<path fill="none" stroke="midnightblue" d="M285.55,-66.38C299.68,-70.45 315.5,-74.96 330,-79 341.23,-82.13 353.5,-85.46 364.6,-88.45"/>
<polygon fill="midnightblue" stroke="midnightblue" points="286.18,-62.92 275.6,-63.51 284.24,-69.64 286.18,-62.92"/>
</g>
<!-- Node4 -->
<g id="node4" class="node">
<title>Node4</title>
<g id="a_node4"><a xlink:href="classCDPL_1_1Vis_1_1StructureGridView2D.html" target="_top" xlink:title="Implements the 2D visualization of multiple chemical structures arrange in a grid.">
<polygon fill="none" stroke="black" points="338,-39 338,-69 465,-69 465,-39 338,-39"/>
<text text-anchor="start" x="346" y="-57" font-family="Helvetica" font-size="10.00">CDPL::Vis::StructureGrid</text>
<text text-anchor="middle" x="401.5" y="-46" font-family="Helvetica" font-size="10.00">View2D</text>
</a>
</g>
</g>
<!-- Node1&#45;&gt;Node4 -->
<g id="edge3" class="edge">
<title>Node1&#45;&gt;Node4</title>
<path fill="none" stroke="midnightblue" d="M304.45,-54C315.4,-54 326.81,-54 337.78,-54"/>
<polygon fill="midnightblue" stroke="midnightblue" points="304.14,-50.5 294.14,-54 304.14,-57.5 304.14,-50.5"/>
</g>
<!-- Node5 -->
<g id="node5" class="node">
<title>Node5</title>
<g id="a_node5"><a xlink:href="classCDPL_1_1Vis_1_1StructureView2D.html" target="_top" xlink:title="Implements the 2D visualization of chemical structures.">
<polygon fill="none" stroke="black" points="330,-0.5 330,-19.5 473,-19.5 473,-0.5 330,-0.5"/>
<text text-anchor="middle" x="401.5" y="-7.5" font-family="Helvetica" font-size="10.00">CDPL::Vis::StructureView2D</text>
</a>
</g>
</g>
<!-- Node1&#45;&gt;Node5 -->
<g id="edge4" class="edge">
<title>Node1&#45;&gt;Node5</title>
<path fill="none" stroke="midnightblue" d="M285.55,-41.62C299.68,-37.55 315.5,-33.04 330,-29 341.23,-25.87 353.5,-22.54 364.6,-19.55"/>
<polygon fill="midnightblue" stroke="midnightblue" points="284.24,-38.36 275.6,-44.49 286.18,-45.08 284.24,-38.36"/>
</g>
<!-- Node2 -->
<g id="node2" class="node">
<title>Node2</title>
<g id="a_node2"><a xlink:href="classCDPL_1_1Base_1_1ControlParameterContainer.html" target="_top" xlink:title="A class providing methods for the storage and lookup of control&#45;parameter values.">
<polygon fill="none" stroke="black" points="0,-39 0,-69 154,-69 154,-39 0,-39"/>
<text text-anchor="start" x="8" y="-57" font-family="Helvetica" font-size="10.00">CDPL::Base::ControlParameter</text>
<text text-anchor="middle" x="77" y="-46" font-family="Helvetica" font-size="10.00">Container</text>
</a>
</g>
</g>
<!-- Node2&#45;&gt;Node1 -->
<g id="edge1" class="edge">
<title>Node2&#45;&gt;Node1</title>
<path fill="none" stroke="midnightblue" d="M164.47,-54C173.17,-54 181.79,-54 189.93,-54"/>
<polygon fill="midnightblue" stroke="midnightblue" points="164.25,-50.5 154.25,-54 164.25,-57.5 164.25,-50.5"/>
</g>
</g>
</svg>
