<?xml version="1.0" encoding="UTF-8" standalone="no"?>
<!DOCTYPE svg PUBLIC "-//W3C//DTD SVG 1.1//EN"
 "http://www.w3.org/Graphics/SVG/1.1/DTD/svg11.dtd">
<!-- Generated by graphviz version 2.44.0 (0)
 -->
<!-- Title: CDPL Pages: 1 -->
<svg width="744pt" height="508pt"
 viewBox="0.00 0.00 744.00 508.00" xmlns="http://www.w3.org/2000/svg" xmlns:xlink="http://www.w3.org/1999/xlink">
<g id="graph0" class="graph" transform="scale(1 1) rotate(0) translate(4 504)">
<title>CDPL</title>
<g id="clust1" class="cluster">
<title>clusterdir_13e5b888d4d8e2bc4637fdf598186b4c</title>
<g id="a_clust1"><a xlink:href="dir_13e5b888d4d8e2bc4637fdf598186b4c.html" target="_top">
<polygon fill="#eeeeff" stroke="black" points="8,-8 8,-492 728,-492 728,-8 8,-8"/>
</a>
</g>
</g>
<!-- dir_13e5b888d4d8e2bc4637fdf598186b4c -->
<g id="node1" class="node">
<title>dir_13e5b888d4d8e2bc4637fdf598186b4c</title>
<text text-anchor="middle" x="393" y="-463.5" font-family="Helvetica" font-size="10.00">CDPL</text>
</g>
<!-- dir_c3d01f90f61dda2cb9d0391b1b68a0df -->
<g id="node3" class="node">
<title>dir_c3d01f90f61dda2cb9d0391b1b68a0df</title>
<g id="a_node3"><a xlink:href="dir_c3d01f90f61dda2cb9d0391b1b68a0df.html" target="_top" xlink:title="Biomol">
<polygon fill="white" stroke="black" points="90,-340 36,-340 36,-304 90,-304 90,-340"/>
<text text-anchor="middle" x="63" y="-319.5" font-family="Helvetica" font-size="10.00">Biomol</text>
</a>
</g>
</g>
<!-- dir_13e5b888d4d8e2bc4637fdf598186b4c&#45;&gt;dir_c3d01f90f61dda2cb9d0391b1b68a0df -->
<g id="edge15" class="edge">
<title>dir_13e5b888d4d8e2bc4637fdf598186b4c&#45;&gt;dir_c3d01f90f61dda2cb9d0391b1b68a0df</title>
<path fill="none" stroke="black" d="M365.61,-462.29C305.21,-455.9 162.81,-438.41 123,-412 100.18,-396.86 83.79,-369.78 73.96,-349.45"/>
<polygon fill="black" stroke="black" points="77.02,-347.72 69.67,-340.09 70.66,-350.64 77.02,-347.72"/>
<g id="a_edge15&#45;headlabel"><a xlink:href="dir_000000_000006.html" target="_top" xlink:title="62">
<text text-anchor="middle" x="81.1" y="-347.3" font-family="Helvetica" font-size="10.00">62</text>
</a>
</g>
</g>
<!-- dir_d89ea033734e8789fcb8ee8bcbb3a57a -->
<g id="node5" class="node">
<title>dir_d89ea033734e8789fcb8ee8bcbb3a57a</title>
<g id="a_node5"><a xlink:href="dir_d89ea033734e8789fcb8ee8bcbb3a57a.html" target="_top" xlink:title="ConfGen">
<polygon fill="white" stroke="black" points="468,-340 412,-340 412,-304 468,-304 468,-340"/>
<text text-anchor="middle" x="440" y="-319.5" font-family="Helvetica" font-size="10.00">ConfGen</text>
</a>
</g>
</g>
<!-- dir_13e5b888d4d8e2bc4637fdf598186b4c&#45;&gt;dir_d89ea033734e8789fcb8ee8bcbb3a57a -->
<g id="edge16" class="edge">
<title>dir_13e5b888d4d8e2bc4637fdf598186b4c&#45;&gt;dir_d89ea033734e8789fcb8ee8bcbb3a57a</title>
<path fill="none" stroke="black" d="M407.97,-447.56C415.55,-437.75 424.14,-424.91 429,-412 436.43,-392.24 439.08,-368.44 439.92,-350.42"/>
<polygon fill="black" stroke="black" points="443.42,-350.4 440.24,-340.3 436.43,-350.19 443.42,-350.4"/>
<g id="a_edge16&#45;headlabel"><a xlink:href="dir_000000_000007.html" target="_top" xlink:title="43">
<text text-anchor="middle" x="446.15" y="-351.58" font-family="Helvetica" font-size="10.00">43</text>
</a>
</g>
</g>
<!-- dir_52613e1dd88146f0fdbace754ba7438c -->
<g id="node6" class="node">
<title>dir_52613e1dd88146f0fdbace754ba7438c</title>
<g id="a_node6"><a xlink:href="dir_52613e1dd88146f0fdbace754ba7438c.html" target="_top" xlink:title="Descr">
<polygon fill="white" stroke="black" points="186,-412 132,-412 132,-376 186,-376 186,-412"/>
<text text-anchor="middle" x="159" y="-391.5" font-family="Helvetica" font-size="10.00">Descr</text>
</a>
</g>
</g>
<!-- dir_13e5b888d4d8e2bc4637fdf598186b4c&#45;&gt;dir_52613e1dd88146f0fdbace754ba7438c -->
<g id="edge9" class="edge">
<title>dir_13e5b888d4d8e2bc4637fdf598186b4c&#45;&gt;dir_52613e1dd88146f0fdbace754ba7438c</title>
<path fill="none" stroke="black" d="M365.7,-456.83C323.69,-444.27 243.13,-420.17 195.95,-406.05"/>
<polygon fill="black" stroke="black" points="196.71,-402.63 186.13,-403.11 194.7,-409.33 196.71,-402.63"/>
<g id="a_edge9&#45;headlabel"><a xlink:href="dir_000000_000008.html" target="_top" xlink:title="28">
<text text-anchor="middle" x="200.97" y="-398.44" font-family="Helvetica" font-size="10.00">28</text>
</a>
</g>
</g>
<!-- dir_f004f69ff5ad8056db5461f401b89d84 -->
<g id="node7" class="node">
<title>dir_f004f69ff5ad8056db5461f401b89d84</title>
<g id="a_node7"><a xlink:href="dir_f004f69ff5ad8056db5461f401b89d84.html" target="_top" xlink:title="ForceField">
<polygon fill="white" stroke="black" points="588,-340 526,-340 526,-304 588,-304 588,-340"/>
<text text-anchor="middle" x="557" y="-319.5" font-family="Helvetica" font-size="10.00">ForceField</text>
</a>
</g>
</g>
<!-- dir_13e5b888d4d8e2bc4637fdf598186b4c&#45;&gt;dir_f004f69ff5ad8056db5461f401b89d84 -->
<g id="edge17" class="edge">
<title>dir_13e5b888d4d8e2bc4637fdf598186b4c&#45;&gt;dir_f004f69ff5ad8056db5461f401b89d84</title>
<path fill="none" stroke="black" d="M412.78,-447.87C441.84,-422.71 496.19,-375.65 529.23,-347.04"/>
<polygon fill="black" stroke="black" points="531.88,-349.38 537.15,-340.19 527.3,-344.09 531.88,-349.38"/>
<g id="a_edge17&#45;headlabel"><a xlink:href="dir_000000_000009.html" target="_top" xlink:title="67">
<text text-anchor="middle" x="531.02" y="-351.38" font-family="Helvetica" font-size="10.00">67</text>
</a>
</g>
</g>
<!-- dir_75e9dc5194008ef9ee22ae8306c0eb0f -->
<g id="node8" class="node">
<title>dir_75e9dc5194008ef9ee22ae8306c0eb0f</title>
<g id="a_node8"><a xlink:href="dir_75e9dc5194008ef9ee22ae8306c0eb0f.html" target="_top" xlink:title="GRAIL">
<polygon fill="white" stroke="black" points="420,-412 366,-412 366,-376 420,-376 420,-412"/>
<text text-anchor="middle" x="393" y="-391.5" font-family="Helvetica" font-size="10.00">GRAIL</text>
</a>
</g>
</g>
<!-- dir_13e5b888d4d8e2bc4637fdf598186b4c&#45;&gt;dir_75e9dc5194008ef9ee22ae8306c0eb0f -->
<g id="edge11" class="edge">
<title>dir_13e5b888d4d8e2bc4637fdf598186b4c&#45;&gt;dir_75e9dc5194008ef9ee22ae8306c0eb0f</title>
<path fill="none" stroke="black" d="M393,-447.7C393,-439.98 393,-430.71 393,-422.11"/>
<polygon fill="black" stroke="black" points="396.5,-422.1 393,-412.1 389.5,-422.1 396.5,-422.1"/>
<g id="a_edge11&#45;headlabel"><a xlink:href="dir_000000_000010.html" target="_top" xlink:title="14">
<text text-anchor="middle" x="399.34" y="-423.2" font-family="Helvetica" font-size="10.00">14</text>
</a>
</g>
</g>
<!-- dir_9a404c9961da00d4b89f16bd2ea8d981 -->
<g id="node9" class="node">
<title>dir_9a404c9961da00d4b89f16bd2ea8d981</title>
<g id="a_node9"><a xlink:href="dir_9a404c9961da00d4b89f16bd2ea8d981.html" target="_top" xlink:title="Grid">
<polygon fill="white" stroke="black" points="680,-268 626,-268 626,-232 680,-232 680,-268"/>
<text text-anchor="middle" x="653" y="-247.5" font-family="Helvetica" font-size="10.00">Grid</text>
</a>
</g>
</g>
<!-- dir_13e5b888d4d8e2bc4637fdf598186b4c&#45;&gt;dir_9a404c9961da00d4b89f16bd2ea8d981 -->
<g id="edge13" class="edge">
<title>dir_13e5b888d4d8e2bc4637fdf598186b4c&#45;&gt;dir_9a404c9961da00d4b89f16bd2ea8d981</title>
<path fill="none" stroke="black" d="M420.47,-464.29C486.39,-461.95 650.53,-452.12 684,-412 716.14,-373.48 689.33,-311.68 669.51,-276.92"/>
<polygon fill="black" stroke="black" points="672.51,-275.12 664.41,-268.29 666.48,-278.68 672.51,-275.12"/>
<g id="a_edge13&#45;headlabel"><a xlink:href="dir_000000_000011.html" target="_top" xlink:title="43">
<text text-anchor="middle" x="676.78" y="-274.27" font-family="Helvetica" font-size="10.00">43</text>
</a>
</g>
</g>
<!-- dir_76ec631f4004f297aa98c89994166e73 -->
<g id="node10" class="node">
<title>dir_76ec631f4004f297aa98c89994166e73</title>
<g id="a_node10"><a xlink:href="dir_76ec631f4004f297aa98c89994166e73.html" target="_top" xlink:title="Math">
<polygon fill="white" stroke="black" points="486,-196 432,-196 432,-160 486,-160 486,-196"/>
<text text-anchor="middle" x="459" y="-175.5" font-family="Helvetica" font-size="10.00">Math</text>
</a>
</g>
</g>
<!-- dir_13e5b888d4d8e2bc4637fdf598186b4c&#45;&gt;dir_76ec631f4004f297aa98c89994166e73 -->
<g id="edge12" class="edge">
<title>dir_13e5b888d4d8e2bc4637fdf598186b4c&#45;&gt;dir_76ec631f4004f297aa98c89994166e73</title>
<path fill="none" stroke="black" d="M420.08,-462.28C478.03,-454.82 613.28,-428.3 669,-340 677.54,-326.47 676.8,-317.97 669,-304 664.15,-295.32 553.79,-232.32 495.05,-199.21"/>
<polygon fill="black" stroke="black" points="496.52,-196.02 486.09,-194.17 493.08,-202.12 496.52,-196.02"/>
<g id="a_edge12&#45;headlabel"><a xlink:href="dir_000000_000001.html" target="_top" xlink:title="177">
<text text-anchor="middle" x="501.04" y="-192.81" font-family="Helvetica" font-size="10.00">177</text>
</a>
</g>
</g>
<!-- dir_4a34af1b017a5e41c49da01e4d581da2 -->
<g id="node11" class="node">
<title>dir_4a34af1b017a5e41c49da01e4d581da2</title>
<g id="a_node11"><a xlink:href="dir_4a34af1b017a5e41c49da01e4d581da2.html" target="_top" xlink:title="MolProp">
<polygon fill="white" stroke="black" points="354,-340 300,-340 300,-304 354,-304 354,-340"/>
<text text-anchor="middle" x="327" y="-319.5" font-family="Helvetica" font-size="10.00">MolProp</text>
</a>
</g>
</g>
<!-- dir_13e5b888d4d8e2bc4637fdf598186b4c&#45;&gt;dir_4a34af1b017a5e41c49da01e4d581da2 -->
<g id="edge8" class="edge">
<title>dir_13e5b888d4d8e2bc4637fdf598186b4c&#45;&gt;dir_4a34af1b017a5e41c49da01e4d581da2</title>
<path fill="none" stroke="black" d="M379.4,-447.59C372.05,-437.59 363.23,-424.55 357,-412 347.12,-392.1 339.26,-368.17 334.06,-350.14"/>
<polygon fill="black" stroke="black" points="337.37,-348.97 331.32,-340.28 330.63,-350.85 337.37,-348.97"/>
<g id="a_edge8&#45;headlabel"><a xlink:href="dir_000000_000012.html" target="_top" xlink:title="23">
<text text-anchor="middle" x="341.07" y="-349.18" font-family="Helvetica" font-size="10.00">23</text>
</a>
</g>
</g>
<!-- dir_44c4819b58b16e7a1f761f8b885b5ba0 -->
<g id="node12" class="node">
<title>dir_44c4819b58b16e7a1f761f8b885b5ba0</title>
<g id="a_node12"><a xlink:href="dir_44c4819b58b16e7a1f761f8b885b5ba0.html" target="_top" xlink:title="Pharm">
<polygon fill="white" stroke="black" points="262,-340 208,-340 208,-304 262,-304 262,-340"/>
<text text-anchor="middle" x="235" y="-319.5" font-family="Helvetica" font-size="10.00">Pharm</text>
</a>
</g>
</g>
<!-- dir_13e5b888d4d8e2bc4637fdf598186b4c&#45;&gt;dir_44c4819b58b16e7a1f761f8b885b5ba0 -->
<g id="edge7" class="edge">
<title>dir_13e5b888d4d8e2bc4637fdf598186b4c&#45;&gt;dir_44c4819b58b16e7a1f761f8b885b5ba0</title>
<path fill="none" stroke="black" d="M365.95,-463.6C331.92,-460.28 274.38,-449.13 245,-412 231.32,-394.72 229.73,-369.29 231.03,-350.03"/>
<polygon fill="black" stroke="black" points="234.51,-350.35 231.99,-340.06 227.54,-349.68 234.51,-350.35"/>
<g id="a_edge7&#45;headlabel"><a xlink:href="dir_000000_000013.html" target="_top" xlink:title="106">
<text text-anchor="middle" x="236.99" y="-351.7" font-family="Helvetica" font-size="10.00">106</text>
</a>
</g>
</g>
<!-- dir_a02c2e35855499cd9e109553a19d0667 -->
<g id="node13" class="node">
<title>dir_a02c2e35855499cd9e109553a19d0667</title>
<g id="a_node13"><a xlink:href="dir_a02c2e35855499cd9e109553a19d0667.html" target="_top" xlink:title="Shape">
<polygon fill="white" stroke="black" points="308,-412 254,-412 254,-376 308,-376 308,-412"/>
<text text-anchor="middle" x="281" y="-391.5" font-family="Helvetica" font-size="10.00">Shape</text>
</a>
</g>
</g>
<!-- dir_13e5b888d4d8e2bc4637fdf598186b4c&#45;&gt;dir_a02c2e35855499cd9e109553a19d0667 -->
<g id="edge14" class="edge">
<title>dir_13e5b888d4d8e2bc4637fdf598186b4c&#45;&gt;dir_a02c2e35855499cd9e109553a19d0667</title>
<path fill="none" stroke="black" d="M365.89,-448.05C351.14,-438.84 332.71,-427.32 316.79,-417.37"/>
<polygon fill="black" stroke="black" points="318.59,-414.36 308.25,-412.03 314.88,-420.3 318.59,-414.36"/>
<g id="a_edge14&#45;headlabel"><a xlink:href="dir_000000_000003.html" target="_top" xlink:title="22">
<text text-anchor="middle" x="323.14" y="-411.36" font-family="Helvetica" font-size="10.00">22</text>
</a>
</g>
</g>
<!-- dir_56c96f24a7ae97bf7f34b6e3938ad4c7 -->
<g id="node15" class="node">
<title>dir_56c96f24a7ae97bf7f34b6e3938ad4c7</title>
<g id="a_node15"><a xlink:href="dir_56c96f24a7ae97bf7f34b6e3938ad4c7.html" target="_top" xlink:title="Vis">
<polygon fill="white" stroke="black" points="660,-340 606,-340 606,-304 660,-304 660,-340"/>
<text text-anchor="middle" x="633" y="-319.5" font-family="Helvetica" font-size="10.00">Vis</text>
</a>
</g>
</g>
<!-- dir_13e5b888d4d8e2bc4637fdf598186b4c&#45;&gt;dir_56c96f24a7ae97bf7f34b6e3938ad4c7 -->
<g id="edge10" class="edge">
<title>dir_13e5b888d4d8e2bc4637fdf598186b4c&#45;&gt;dir_56c96f24a7ae97bf7f34b6e3938ad4c7</title>
<path fill="none" stroke="black" d="M420.06,-448.99C463.37,-423.37 548.27,-373.13 596.76,-344.44"/>
<polygon fill="black" stroke="black" points="598.84,-347.28 605.67,-339.17 595.28,-341.25 598.84,-347.28"/>
<g id="a_edge10&#45;headlabel"><a xlink:href="dir_000000_000002.html" target="_top" xlink:title="75">
<text text-anchor="middle" x="597.19" y="-349.05" font-family="Helvetica" font-size="10.00">75</text>
</a>
</g>
</g>
<!-- dir_ea97f66d84072e3323f941252a229abf -->
<g id="node2" class="node">
<title>dir_ea97f66d84072e3323f941252a229abf</title>
<g id="a_node2"><a xlink:href="dir_ea97f66d84072e3323f941252a229abf.html" target="_top" xlink:title="Base">
<polygon fill="white" stroke="black" points="301,-52 247,-52 247,-16 301,-16 301,-52"/>
<text text-anchor="middle" x="274" y="-31.5" font-family="Helvetica" font-size="10.00">Base</text>
</a>
</g>
</g>
<!-- dir_c3d01f90f61dda2cb9d0391b1b68a0df&#45;&gt;dir_ea97f66d84072e3323f941252a229abf -->
<g id="edge51" class="edge">
<title>dir_c3d01f90f61dda2cb9d0391b1b68a0df&#45;&gt;dir_ea97f66d84072e3323f941252a229abf</title>
<path fill="none" stroke="black" d="M60.54,-303.85C55.48,-261.52 48.66,-150.92 104,-88 137.31,-50.12 197.22,-39 236.29,-35.91"/>
<polygon fill="black" stroke="black" points="236.96,-39.38 246.71,-35.24 236.51,-32.39 236.96,-39.38"/>
<g id="a_edge51&#45;headlabel"><a xlink:href="dir_000006_000005.html" target="_top" xlink:title="3">
<text text-anchor="middle" x="233.56" y="-39.94" font-family="Helvetica" font-size="10.00">3</text>
</a>
</g>
</g>
<!-- dir_a73e1d15e6da56bea42fb33a94074c1c -->
<g id="node4" class="node">
<title>dir_a73e1d15e6da56bea42fb33a94074c1c</title>
<g id="a_node4"><a xlink:href="dir_a73e1d15e6da56bea42fb33a94074c1c.html" target="_top" xlink:title="Chem">
<polygon fill="white" stroke="black" points="354,-268 300,-268 300,-232 354,-232 354,-268"/>
<text text-anchor="middle" x="327" y="-247.5" font-family="Helvetica" font-size="10.00">Chem</text>
</a>
</g>
</g>
<!-- dir_c3d01f90f61dda2cb9d0391b1b68a0df&#45;&gt;dir_a73e1d15e6da56bea42fb33a94074c1c -->
<g id="edge50" class="edge">
<title>dir_c3d01f90f61dda2cb9d0391b1b68a0df&#45;&gt;dir_a73e1d15e6da56bea42fb33a94074c1c</title>
<path fill="none" stroke="black" d="M90.26,-313.77C137.91,-301.14 236.38,-275.03 290.09,-260.79"/>
<polygon fill="black" stroke="black" points="291.12,-264.13 299.89,-258.19 289.33,-257.37 291.12,-264.13"/>
<g id="a_edge50&#45;headlabel"><a xlink:href="dir_000006_000004.html" target="_top" xlink:title="5">
<text text-anchor="middle" x="288.37" y="-265.3" font-family="Helvetica" font-size="10.00">5</text>
</a>
</g>
</g>
<!-- dir_239469eeca6d3c1a97f8d4fbb99adcb8 -->
<g id="node14" class="node">
<title>dir_239469eeca6d3c1a97f8d4fbb99adcb8</title>
<g id="a_node14"><a xlink:href="dir_239469eeca6d3c1a97f8d4fbb99adcb8.html" target="_top" xlink:title="Util">
<polygon fill="white" stroke="black" points="354,-124 300,-124 300,-88 354,-88 354,-124"/>
<text text-anchor="middle" x="327" y="-103.5" font-family="Helvetica" font-size="10.00">Util</text>
</a>
</g>
</g>
<!-- dir_c3d01f90f61dda2cb9d0391b1b68a0df&#45;&gt;dir_239469eeca6d3c1a97f8d4fbb99adcb8 -->
<g id="edge49" class="edge">
<title>dir_c3d01f90f61dda2cb9d0391b1b68a0df&#45;&gt;dir_239469eeca6d3c1a97f8d4fbb99adcb8</title>
<path fill="none" stroke="black" d="M69.59,-303.85C84.21,-266.58 119.99,-179.95 144,-160 185.92,-125.17 249.69,-113.22 289.82,-109.13"/>
<polygon fill="black" stroke="black" points="290.33,-112.59 299.98,-108.21 289.7,-105.62 290.33,-112.59"/>
<g id="a_edge49&#45;headlabel"><a xlink:href="dir_000006_000014.html" target="_top" xlink:title="34">
<text text-anchor="middle" x="287.01" y="-113.24" font-family="Helvetica" font-size="10.00">34</text>
</a>
</g>
</g>
<!-- dir_a73e1d15e6da56bea42fb33a94074c1c&#45;&gt;dir_ea97f66d84072e3323f941252a229abf -->
<g id="edge48" class="edge">
<title>dir_a73e1d15e6da56bea42fb33a94074c1c&#45;&gt;dir_ea97f66d84072e3323f941252a229abf</title>
<path fill="none" stroke="black" d="M321.49,-231.74C313.94,-207.75 300.29,-162.88 291,-124 286.09,-103.47 281.66,-80.02 278.55,-62.34"/>
<polygon fill="black" stroke="black" points="281.95,-61.42 276.8,-52.16 275.05,-62.61 281.95,-61.42"/>
<g id="a_edge48&#45;headlabel"><a xlink:href="dir_000004_000005.html" target="_top" xlink:title="22">
<text text-anchor="middle" x="285.36" y="-61.98" font-family="Helvetica" font-size="10.00">22</text>
</a>
</g>
</g>
<!-- dir_a73e1d15e6da56bea42fb33a94074c1c&#45;&gt;dir_76ec631f4004f297aa98c89994166e73 -->
<g id="edge47" class="edge">
<title>dir_a73e1d15e6da56bea42fb33a94074c1c&#45;&gt;dir_76ec631f4004f297aa98c89994166e73</title>
<path fill="none" stroke="black" d="M354.03,-234.67C373.83,-224.17 400.92,-209.8 422.62,-198.29"/>
<polygon fill="black" stroke="black" points="424.36,-201.33 431.55,-193.56 421.08,-195.15 424.36,-201.33"/>
<g id="a_edge47&#45;headlabel"><a xlink:href="dir_000004_000001.html" target="_top" xlink:title="32">
<text text-anchor="middle" x="422.51" y="-203.03" font-family="Helvetica" font-size="10.00">32</text>
</a>
</g>
</g>
<!-- dir_a73e1d15e6da56bea42fb33a94074c1c&#45;&gt;dir_239469eeca6d3c1a97f8d4fbb99adcb8 -->
<g id="edge46" class="edge">
<title>dir_a73e1d15e6da56bea42fb33a94074c1c&#45;&gt;dir_239469eeca6d3c1a97f8d4fbb99adcb8</title>
<path fill="none" stroke="black" d="M327,-231.87C327,-207.67 327,-163.21 327,-134.39"/>
<polygon fill="black" stroke="black" points="330.5,-134.19 327,-124.19 323.5,-134.19 330.5,-134.19"/>
<g id="a_edge46&#45;headlabel"><a xlink:href="dir_000004_000014.html" target="_top" xlink:title="204">
<text text-anchor="middle" x="333.34" y="-135.28" font-family="Helvetica" font-size="10.00">204</text>
</a>
</g>
</g>
<!-- dir_d89ea033734e8789fcb8ee8bcbb3a57a&#45;&gt;dir_a73e1d15e6da56bea42fb33a94074c1c -->
<g id="edge20" class="edge">
<title>dir_d89ea033734e8789fcb8ee8bcbb3a57a&#45;&gt;dir_a73e1d15e6da56bea42fb33a94074c1c</title>
<path fill="none" stroke="black" d="M412.36,-303.88C397.47,-294.66 378.93,-283.17 362.94,-273.26"/>
<polygon fill="black" stroke="black" points="364.7,-270.24 354.36,-267.95 361.02,-276.19 364.7,-270.24"/>
<g id="a_edge20&#45;headlabel"><a xlink:href="dir_000007_000004.html" target="_top" xlink:title="12">
<text text-anchor="middle" x="369.25" y="-267.22" font-family="Helvetica" font-size="10.00">12</text>
</a>
</g>
</g>
<!-- dir_d89ea033734e8789fcb8ee8bcbb3a57a&#45;&gt;dir_76ec631f4004f297aa98c89994166e73 -->
<g id="edge19" class="edge">
<title>dir_d89ea033734e8789fcb8ee8bcbb3a57a&#45;&gt;dir_76ec631f4004f297aa98c89994166e73</title>
<path fill="none" stroke="black" d="M442.29,-303.87C445.53,-279.67 451.48,-235.21 455.33,-206.39"/>
<polygon fill="black" stroke="black" points="458.84,-206.57 456.7,-196.19 451.9,-205.64 458.84,-206.57"/>
<g id="a_edge19&#45;headlabel"><a xlink:href="dir_000007_000001.html" target="_top" xlink:title="4">
<text text-anchor="middle" x="461.18" y="-208" font-family="Helvetica" font-size="10.00">4</text>
</a>
</g>
</g>
<!-- dir_d89ea033734e8789fcb8ee8bcbb3a57a&#45;&gt;dir_239469eeca6d3c1a97f8d4fbb99adcb8 -->
<g id="edge18" class="edge">
<title>dir_d89ea033734e8789fcb8ee8bcbb3a57a&#45;&gt;dir_239469eeca6d3c1a97f8d4fbb99adcb8</title>
<path fill="none" stroke="black" d="M439.21,-303.99C437.02,-272.87 428.81,-205.77 398,-160 389.07,-146.73 375.68,-135.49 362.92,-126.83"/>
<polygon fill="black" stroke="black" points="364.56,-123.72 354.26,-121.25 360.77,-129.61 364.56,-123.72"/>
<g id="a_edge18&#45;headlabel"><a xlink:href="dir_000007_000014.html" target="_top" xlink:title="11">
<text text-anchor="middle" x="369.12" y="-120.78" font-family="Helvetica" font-size="10.00">11</text>
</a>
</g>
</g>
<!-- dir_52613e1dd88146f0fdbace754ba7438c&#45;&gt;dir_ea97f66d84072e3323f941252a229abf -->
<g id="edge42" class="edge">
<title>dir_52613e1dd88146f0fdbace754ba7438c&#45;&gt;dir_ea97f66d84072e3323f941252a229abf</title>
<path fill="none" stroke="black" d="M131.84,-390.22C101.12,-385.52 52.12,-373.02 27,-340 2.9,-308.32 17,-290.8 17,-251 17,-251 17,-251 17,-177 17,-77.84 165.37,-47.39 236.65,-38.48"/>
<polygon fill="black" stroke="black" points="237.46,-41.91 246.98,-37.27 236.64,-34.96 237.46,-41.91"/>
<g id="a_edge42&#45;headlabel"><a xlink:href="dir_000008_000005.html" target="_top" xlink:title="1">
<text text-anchor="middle" x="234.22" y="-42.65" font-family="Helvetica" font-size="10.00">1</text>
</a>
</g>
</g>
<!-- dir_52613e1dd88146f0fdbace754ba7438c&#45;&gt;dir_a73e1d15e6da56bea42fb33a94074c1c -->
<g id="edge41" class="edge">
<title>dir_52613e1dd88146f0fdbace754ba7438c&#45;&gt;dir_a73e1d15e6da56bea42fb33a94074c1c</title>
<path fill="none" stroke="black" d="M162.69,-375.71C167.73,-355.96 178.58,-323.82 199,-304 224.13,-279.61 262.09,-265.82 290.15,-258.46"/>
<polygon fill="black" stroke="black" points="291.12,-261.82 299.99,-256.03 289.45,-255.03 291.12,-261.82"/>
<g id="a_edge41&#45;headlabel"><a xlink:href="dir_000008_000004.html" target="_top" xlink:title="10">
<text text-anchor="middle" x="288.31" y="-262.94" font-family="Helvetica" font-size="10.00">10</text>
</a>
</g>
</g>
<!-- dir_52613e1dd88146f0fdbace754ba7438c&#45;&gt;dir_76ec631f4004f297aa98c89994166e73 -->
<g id="edge40" class="edge">
<title>dir_52613e1dd88146f0fdbace754ba7438c&#45;&gt;dir_76ec631f4004f297aa98c89994166e73</title>
<path fill="none" stroke="black" d="M157.76,-375.8C157.18,-356.99 158.58,-326.53 171,-304 195.07,-260.35 212.71,-254.88 257,-232 310.6,-204.31 379.86,-190.23 421.78,-183.76"/>
<polygon fill="black" stroke="black" points="422.45,-187.2 431.83,-182.27 421.42,-180.27 422.45,-187.2"/>
<g id="a_edge40&#45;headlabel"><a xlink:href="dir_000008_000001.html" target="_top" xlink:title="20">
<text text-anchor="middle" x="419.3" y="-188.03" font-family="Helvetica" font-size="10.00">20</text>
</a>
</g>
</g>
<!-- dir_52613e1dd88146f0fdbace754ba7438c&#45;&gt;dir_44c4819b58b16e7a1f761f8b885b5ba0 -->
<g id="edge39" class="edge">
<title>dir_52613e1dd88146f0fdbace754ba7438c&#45;&gt;dir_44c4819b58b16e7a1f761f8b885b5ba0</title>
<path fill="none" stroke="black" d="M177.79,-375.7C187.17,-367.05 198.68,-356.45 208.91,-347.03"/>
<polygon fill="black" stroke="black" points="211.45,-349.45 216.43,-340.1 206.7,-344.3 211.45,-349.45"/>
<g id="a_edge39&#45;headlabel"><a xlink:href="dir_000008_000013.html" target="_top" xlink:title="2">
<text text-anchor="middle" x="210.72" y="-351.48" font-family="Helvetica" font-size="10.00">2</text>
</a>
</g>
</g>
<!-- dir_52613e1dd88146f0fdbace754ba7438c&#45;&gt;dir_239469eeca6d3c1a97f8d4fbb99adcb8 -->
<g id="edge38" class="edge">
<title>dir_52613e1dd88146f0fdbace754ba7438c&#45;&gt;dir_239469eeca6d3c1a97f8d4fbb99adcb8</title>
<path fill="none" stroke="black" d="M155.3,-375.96C152.03,-357.81 148.68,-328.41 155,-304 173.36,-233.13 183.63,-212.17 235,-160 250.75,-144 272.33,-131.23 290.63,-122.24"/>
<polygon fill="black" stroke="black" points="292.31,-125.32 299.86,-117.88 289.32,-118.99 292.31,-125.32"/>
<g id="a_edge38&#45;headlabel"><a xlink:href="dir_000008_000014.html" target="_top" xlink:title="6">
<text text-anchor="middle" x="290.27" y="-126.92" font-family="Helvetica" font-size="10.00">6</text>
</a>
</g>
</g>
<!-- dir_f004f69ff5ad8056db5461f401b89d84&#45;&gt;dir_ea97f66d84072e3323f941252a229abf -->
<g id="edge28" class="edge">
<title>dir_f004f69ff5ad8056db5461f401b89d84&#45;&gt;dir_ea97f66d84072e3323f941252a229abf</title>
<path fill="none" stroke="black" d="M588.41,-307.55C591.31,-306.34 594.21,-305.14 597,-304 637.65,-287.41 664.25,-304.27 689,-268 698.02,-254.78 694.38,-247.07 689,-232 657.79,-144.67 622.25,-126.75 538,-88 462.31,-53.19 364.05,-41.16 311.34,-37.06"/>
<polygon fill="black" stroke="black" points="311.34,-33.55 301.11,-36.33 310.84,-40.54 311.34,-33.55"/>
<g id="a_edge28&#45;headlabel"><a xlink:href="dir_000009_000005.html" target="_top" xlink:title="1">
<text text-anchor="middle" x="315.13" y="-28.48" font-family="Helvetica" font-size="10.00">1</text>
</a>
</g>
</g>
<!-- dir_f004f69ff5ad8056db5461f401b89d84&#45;&gt;dir_a73e1d15e6da56bea42fb33a94074c1c -->
<g id="edge27" class="edge">
<title>dir_f004f69ff5ad8056db5461f401b89d84&#45;&gt;dir_a73e1d15e6da56bea42fb33a94074c1c</title>
<path fill="none" stroke="black" d="M525.98,-311.56C483.92,-298.76 408.89,-275.92 363.96,-262.25"/>
<polygon fill="black" stroke="black" points="364.89,-258.87 354.31,-259.31 362.85,-265.57 364.89,-258.87"/>
<g id="a_edge27&#45;headlabel"><a xlink:href="dir_000009_000004.html" target="_top" xlink:title="6">
<text text-anchor="middle" x="369.16" y="-254.7" font-family="Helvetica" font-size="10.00">6</text>
</a>
</g>
</g>
<!-- dir_f004f69ff5ad8056db5461f401b89d84&#45;&gt;dir_76ec631f4004f297aa98c89994166e73 -->
<g id="edge26" class="edge">
<title>dir_f004f69ff5ad8056db5461f401b89d84&#45;&gt;dir_76ec631f4004f297aa98c89994166e73</title>
<path fill="none" stroke="black" d="M550.19,-303.69C542.44,-285.06 528.65,-255 512,-232 504.62,-221.81 495.26,-211.76 486.46,-203.19"/>
<polygon fill="black" stroke="black" points="488.61,-200.41 478.94,-196.08 483.8,-205.5 488.61,-200.41"/>
<g id="a_edge26&#45;headlabel"><a xlink:href="dir_000009_000001.html" target="_top" xlink:title="2">
<text text-anchor="middle" x="493.17" y="-198.31" font-family="Helvetica" font-size="10.00">2</text>
</a>
</g>
</g>
<!-- dir_f004f69ff5ad8056db5461f401b89d84&#45;&gt;dir_239469eeca6d3c1a97f8d4fbb99adcb8 -->
<g id="edge25" class="edge">
<title>dir_f004f69ff5ad8056db5461f401b89d84&#45;&gt;dir_239469eeca6d3c1a97f8d4fbb99adcb8</title>
<path fill="none" stroke="black" d="M555.45,-303.8C551.53,-270.84 538.22,-198.61 495,-160 458.31,-127.22 401.39,-114.71 364.15,-109.94"/>
<polygon fill="black" stroke="black" points="364.54,-106.46 354.2,-108.79 363.74,-113.41 364.54,-106.46"/>
<g id="a_edge25&#45;headlabel"><a xlink:href="dir_000009_000014.html" target="_top" xlink:title="17">
<text text-anchor="middle" x="368.44" y="-101.55" font-family="Helvetica" font-size="10.00">17</text>
</a>
</g>
</g>
<!-- dir_75e9dc5194008ef9ee22ae8306c0eb0f&#45;&gt;dir_a73e1d15e6da56bea42fb33a94074c1c -->
<g id="edge37" class="edge">
<title>dir_75e9dc5194008ef9ee22ae8306c0eb0f&#45;&gt;dir_a73e1d15e6da56bea42fb33a94074c1c</title>
<path fill="none" stroke="black" d="M388.68,-375.72C383.75,-357.38 374.82,-327.8 363,-304 358.37,-294.68 352.32,-285.1 346.51,-276.69"/>
<polygon fill="black" stroke="black" points="349.26,-274.52 340.6,-268.41 343.56,-278.58 349.26,-274.52"/>
<g id="a_edge37&#45;headlabel"><a xlink:href="dir_000010_000004.html" target="_top" xlink:title="6">
<text text-anchor="middle" x="353.66" y="-273.3" font-family="Helvetica" font-size="10.00">6</text>
</a>
</g>
</g>
<!-- dir_75e9dc5194008ef9ee22ae8306c0eb0f&#45;&gt;dir_9a404c9961da00d4b89f16bd2ea8d981 -->
<g id="edge36" class="edge">
<title>dir_75e9dc5194008ef9ee22ae8306c0eb0f&#45;&gt;dir_9a404c9961da00d4b89f16bd2ea8d981</title>
<path fill="none" stroke="black" d="M420,-392.01C483.15,-389.08 637.53,-378.08 669,-340 683.37,-322.61 676.56,-296.69 667.83,-277.31"/>
<polygon fill="black" stroke="black" points="670.87,-275.56 663.33,-268.11 664.58,-278.63 670.87,-275.56"/>
<g id="a_edge36&#45;headlabel"><a xlink:href="dir_000010_000011.html" target="_top" xlink:title="4">
<text text-anchor="middle" x="675" y="-275.04" font-family="Helvetica" font-size="10.00">4</text>
</a>
</g>
</g>
<!-- dir_75e9dc5194008ef9ee22ae8306c0eb0f&#45;&gt;dir_76ec631f4004f297aa98c89994166e73 -->
<g id="edge35" class="edge">
<title>dir_75e9dc5194008ef9ee22ae8306c0eb0f&#45;&gt;dir_76ec631f4004f297aa98c89994166e73</title>
<path fill="none" stroke="black" d="M420.28,-386.73C443.88,-379.7 476.57,-365.76 492,-340 516.66,-298.82 505.19,-278.15 492,-232 489.29,-222.51 484.33,-213.06 479.07,-204.83"/>
<polygon fill="black" stroke="black" points="481.86,-202.72 473.33,-196.43 476.08,-206.67 481.86,-202.72"/>
<g id="a_edge35&#45;headlabel"><a xlink:href="dir_000010_000001.html" target="_top" xlink:title="15">
<text text-anchor="middle" x="486.23" y="-201.58" font-family="Helvetica" font-size="10.00">15</text>
</a>
</g>
</g>
<!-- dir_75e9dc5194008ef9ee22ae8306c0eb0f&#45;&gt;dir_44c4819b58b16e7a1f761f8b885b5ba0 -->
<g id="edge34" class="edge">
<title>dir_75e9dc5194008ef9ee22ae8306c0eb0f&#45;&gt;dir_44c4819b58b16e7a1f761f8b885b5ba0</title>
<path fill="none" stroke="black" d="M365.84,-380.97C339.76,-369.41 300.18,-351.88 271.39,-339.12"/>
<polygon fill="black" stroke="black" points="272.63,-335.84 262.07,-334.99 269.8,-342.24 272.63,-335.84"/>
<g id="a_edge34&#45;headlabel"><a xlink:href="dir_000010_000013.html" target="_top" xlink:title="3">
<text text-anchor="middle" x="277.07" y="-332.2" font-family="Helvetica" font-size="10.00">3</text>
</a>
</g>
</g>
<!-- dir_75e9dc5194008ef9ee22ae8306c0eb0f&#45;&gt;dir_239469eeca6d3c1a97f8d4fbb99adcb8 -->
<g id="edge33" class="edge">
<title>dir_75e9dc5194008ef9ee22ae8306c0eb0f&#45;&gt;dir_239469eeca6d3c1a97f8d4fbb99adcb8</title>
<path fill="none" stroke="black" d="M390.38,-375.97C385.72,-346.46 375.31,-284.02 363,-232 354.91,-197.81 343.36,-159.01 335.54,-133.84"/>
<polygon fill="black" stroke="black" points="338.87,-132.75 332.54,-124.25 332.19,-134.84 338.87,-132.75"/>
<g id="a_edge33&#45;headlabel"><a xlink:href="dir_000010_000014.html" target="_top" xlink:title="1">
<text text-anchor="middle" x="342.65" y="-132.83" font-family="Helvetica" font-size="10.00">1</text>
</a>
</g>
</g>
<!-- dir_9a404c9961da00d4b89f16bd2ea8d981&#45;&gt;dir_ea97f66d84072e3323f941252a229abf -->
<g id="edge45" class="edge">
<title>dir_9a404c9961da00d4b89f16bd2ea8d981&#45;&gt;dir_ea97f66d84072e3323f941252a229abf</title>
<path fill="none" stroke="black" d="M649.74,-231.92C645.11,-212.07 634.76,-179.54 614,-160 526.4,-77.56 379.91,-48.53 311.42,-39.12"/>
<polygon fill="black" stroke="black" points="311.49,-35.6 301.12,-37.78 310.58,-42.54 311.49,-35.6"/>
<g id="a_edge45&#45;headlabel"><a xlink:href="dir_000011_000005.html" target="_top" xlink:title="3">
<text text-anchor="middle" x="315.42" y="-30.75" font-family="Helvetica" font-size="10.00">3</text>
</a>
</g>
</g>
<!-- dir_9a404c9961da00d4b89f16bd2ea8d981&#45;&gt;dir_76ec631f4004f297aa98c89994166e73 -->
<g id="edge44" class="edge">
<title>dir_9a404c9961da00d4b89f16bd2ea8d981&#45;&gt;dir_76ec631f4004f297aa98c89994166e73</title>
<path fill="none" stroke="black" d="M625.74,-237.43C621.17,-235.57 616.47,-233.7 612,-232 572.64,-217.04 526.96,-201.44 495.83,-191.07"/>
<polygon fill="black" stroke="black" points="496.85,-187.72 486.26,-187.9 494.65,-194.37 496.85,-187.72"/>
<g id="a_edge44&#45;headlabel"><a xlink:href="dir_000011_000001.html" target="_top" xlink:title="2">
<text text-anchor="middle" x="501.16" y="-183.66" font-family="Helvetica" font-size="10.00">2</text>
</a>
</g>
</g>
<!-- dir_9a404c9961da00d4b89f16bd2ea8d981&#45;&gt;dir_239469eeca6d3c1a97f8d4fbb99adcb8 -->
<g id="edge43" class="edge">
<title>dir_9a404c9961da00d4b89f16bd2ea8d981&#45;&gt;dir_239469eeca6d3c1a97f8d4fbb99adcb8</title>
<path fill="none" stroke="black" d="M646.13,-231.92C636.97,-211.43 618.73,-177.65 592,-160 555.01,-135.57 428.22,-118.33 364.37,-110.97"/>
<polygon fill="black" stroke="black" points="364.65,-107.48 354.32,-109.84 363.86,-114.44 364.65,-107.48"/>
<g id="a_edge43&#45;headlabel"><a xlink:href="dir_000011_000014.html" target="_top" xlink:title="27">
<text text-anchor="middle" x="368.54" y="-102.56" font-family="Helvetica" font-size="10.00">27</text>
</a>
</g>
</g>
<!-- dir_76ec631f4004f297aa98c89994166e73&#45;&gt;dir_ea97f66d84072e3323f941252a229abf -->
<g id="edge6" class="edge">
<title>dir_76ec631f4004f297aa98c89994166e73&#45;&gt;dir_ea97f66d84072e3323f941252a229abf</title>
<path fill="none" stroke="black" d="M442.61,-159.77C424.23,-140.94 393.03,-110.47 363,-88 346.36,-75.55 326.6,-63.53 309.93,-54.1"/>
<polygon fill="black" stroke="black" points="311.47,-50.95 301.03,-49.14 308.06,-57.07 311.47,-50.95"/>
<g id="a_edge6&#45;headlabel"><a xlink:href="dir_000001_000005.html" target="_top" xlink:title="19">
<text text-anchor="middle" x="315.99" y="-47.72" font-family="Helvetica" font-size="10.00">19</text>
</a>
</g>
</g>
<!-- dir_76ec631f4004f297aa98c89994166e73&#45;&gt;dir_239469eeca6d3c1a97f8d4fbb99adcb8 -->
<g id="edge5" class="edge">
<title>dir_76ec631f4004f297aa98c89994166e73&#45;&gt;dir_239469eeca6d3c1a97f8d4fbb99adcb8</title>
<path fill="none" stroke="black" d="M431.97,-162.67C412.17,-152.17 385.08,-137.8 363.38,-126.29"/>
<polygon fill="black" stroke="black" points="364.92,-123.15 354.45,-121.56 361.64,-129.33 364.92,-123.15"/>
<g id="a_edge5&#45;headlabel"><a xlink:href="dir_000001_000014.html" target="_top" xlink:title="2">
<text text-anchor="middle" x="369.43" y="-119.82" font-family="Helvetica" font-size="10.00">2</text>
</a>
</g>
</g>
<!-- dir_4a34af1b017a5e41c49da01e4d581da2&#45;&gt;dir_a73e1d15e6da56bea42fb33a94074c1c -->
<g id="edge31" class="edge">
<title>dir_4a34af1b017a5e41c49da01e4d581da2&#45;&gt;dir_a73e1d15e6da56bea42fb33a94074c1c</title>
<path fill="none" stroke="black" d="M327,-303.7C327,-295.98 327,-286.71 327,-278.11"/>
<polygon fill="black" stroke="black" points="330.5,-278.1 327,-268.1 323.5,-278.1 330.5,-278.1"/>
<g id="a_edge31&#45;headlabel"><a xlink:href="dir_000012_000004.html" target="_top" xlink:title="16">
<text text-anchor="middle" x="333.34" y="-279.2" font-family="Helvetica" font-size="10.00">16</text>
</a>
</g>
</g>
<!-- dir_4a34af1b017a5e41c49da01e4d581da2&#45;&gt;dir_76ec631f4004f297aa98c89994166e73 -->
<g id="edge30" class="edge">
<title>dir_4a34af1b017a5e41c49da01e4d581da2&#45;&gt;dir_76ec631f4004f297aa98c89994166e73</title>
<path fill="none" stroke="black" d="M342.92,-303.87C366.11,-278.92 409.31,-232.45 435.97,-203.77"/>
<polygon fill="black" stroke="black" points="438.78,-205.9 443.02,-196.19 433.65,-201.13 438.78,-205.9"/>
<g id="a_edge30&#45;headlabel"><a xlink:href="dir_000012_000001.html" target="_top" xlink:title="4">
<text text-anchor="middle" x="438.41" y="-207.96" font-family="Helvetica" font-size="10.00">4</text>
</a>
</g>
</g>
<!-- dir_4a34af1b017a5e41c49da01e4d581da2&#45;&gt;dir_239469eeca6d3c1a97f8d4fbb99adcb8 -->
<g id="edge29" class="edge">
<title>dir_4a34af1b017a5e41c49da01e4d581da2&#45;&gt;dir_239469eeca6d3c1a97f8d4fbb99adcb8</title>
<path fill="none" stroke="black" d="M311.39,-303.77C303.63,-294.03 295.05,-281.18 291,-268 276.66,-221.36 297.35,-165.49 312.8,-133.33"/>
<polygon fill="black" stroke="black" points="316.05,-134.66 317.38,-124.15 309.78,-131.54 316.05,-134.66"/>
<g id="a_edge29&#45;headlabel"><a xlink:href="dir_000012_000014.html" target="_top" xlink:title="7">
<text text-anchor="middle" x="316.98" y="-136.64" font-family="Helvetica" font-size="10.00">7</text>
</a>
</g>
</g>
<!-- dir_44c4819b58b16e7a1f761f8b885b5ba0&#45;&gt;dir_ea97f66d84072e3323f941252a229abf -->
<g id="edge4" class="edge">
<title>dir_44c4819b58b16e7a1f761f8b885b5ba0&#45;&gt;dir_ea97f66d84072e3323f941252a229abf</title>
<path fill="none" stroke="black" d="M235.92,-303.9C236.99,-285.95 239,-256.93 242,-232 249.33,-171.1 261.82,-100.22 268.84,-62.29"/>
<polygon fill="black" stroke="black" points="272.35,-62.53 270.74,-52.06 265.47,-61.25 272.35,-62.53"/>
<g id="a_edge4&#45;headlabel"><a xlink:href="dir_000013_000005.html" target="_top" xlink:title="9">
<text text-anchor="middle" x="274.48" y="-64.09" font-family="Helvetica" font-size="10.00">9</text>
</a>
</g>
</g>
<!-- dir_44c4819b58b16e7a1f761f8b885b5ba0&#45;&gt;dir_a73e1d15e6da56bea42fb33a94074c1c -->
<g id="edge3" class="edge">
<title>dir_44c4819b58b16e7a1f761f8b885b5ba0&#45;&gt;dir_a73e1d15e6da56bea42fb33a94074c1c</title>
<path fill="none" stroke="black" d="M257.74,-303.7C269.44,-294.8 283.86,-283.82 296.51,-274.2"/>
<polygon fill="black" stroke="black" points="298.68,-276.94 304.52,-268.1 294.44,-271.37 298.68,-276.94"/>
<g id="a_edge3&#45;headlabel"><a xlink:href="dir_000013_000004.html" target="_top" xlink:title="15">
<text text-anchor="middle" x="297.54" y="-278.88" font-family="Helvetica" font-size="10.00">15</text>
</a>
</g>
</g>
<!-- dir_44c4819b58b16e7a1f761f8b885b5ba0&#45;&gt;dir_76ec631f4004f297aa98c89994166e73 -->
<g id="edge2" class="edge">
<title>dir_44c4819b58b16e7a1f761f8b885b5ba0&#45;&gt;dir_76ec631f4004f297aa98c89994166e73</title>
<path fill="none" stroke="black" d="M241.55,-303.68C250,-283.6 266.58,-250.85 291,-232 329.56,-202.23 385.17,-188.99 421.69,-183.23"/>
<polygon fill="black" stroke="black" points="422.52,-186.65 431.91,-181.74 421.51,-179.72 422.52,-186.65"/>
<g id="a_edge2&#45;headlabel"><a xlink:href="dir_000013_000001.html" target="_top" xlink:title="15">
<text text-anchor="middle" x="419.38" y="-187.48" font-family="Helvetica" font-size="10.00">15</text>
</a>
</g>
</g>
<!-- dir_44c4819b58b16e7a1f761f8b885b5ba0&#45;&gt;dir_239469eeca6d3c1a97f8d4fbb99adcb8 -->
<g id="edge1" class="edge">
<title>dir_44c4819b58b16e7a1f761f8b885b5ba0&#45;&gt;dir_239469eeca6d3c1a97f8d4fbb99adcb8</title>
<path fill="none" stroke="black" d="M238.15,-303.58C244.2,-272.96 259.38,-208.16 287,-160 292.42,-150.55 299.29,-140.85 305.8,-132.38"/>
<polygon fill="black" stroke="black" points="308.67,-134.39 312.12,-124.37 303.18,-130.05 308.67,-134.39"/>
<g id="a_edge1&#45;headlabel"><a xlink:href="dir_000013_000014.html" target="_top" xlink:title="27">
<text text-anchor="middle" x="308.67" y="-136.47" font-family="Helvetica" font-size="10.00">27</text>
</a>
</g>
</g>
<!-- dir_a02c2e35855499cd9e109553a19d0667&#45;&gt;dir_ea97f66d84072e3323f941252a229abf -->
<g id="edge56" class="edge">
<title>dir_a02c2e35855499cd9e109553a19d0667&#45;&gt;dir_ea97f66d84072e3323f941252a229abf</title>
<path fill="none" stroke="black" d="M253.71,-385.34C232.18,-377.7 203.58,-363.62 190,-340 135.81,-245.73 215.67,-114.85 254.66,-60.37"/>
<polygon fill="black" stroke="black" points="257.7,-62.15 260.76,-52 252.04,-58.02 257.7,-62.15"/>
<g id="a_edge56&#45;headlabel"><a xlink:href="dir_000003_000005.html" target="_top" xlink:title="1">
<text text-anchor="middle" x="257.88" y="-64.22" font-family="Helvetica" font-size="10.00">1</text>
</a>
</g>
</g>
<!-- dir_a02c2e35855499cd9e109553a19d0667&#45;&gt;dir_a73e1d15e6da56bea42fb33a94074c1c -->
<g id="edge55" class="edge">
<title>dir_a02c2e35855499cd9e109553a19d0667&#45;&gt;dir_a73e1d15e6da56bea42fb33a94074c1c</title>
<path fill="none" stroke="black" d="M280.52,-375.71C280.56,-357.35 282.21,-327.77 291,-304 294.55,-294.4 300.2,-284.85 305.98,-276.56"/>
<polygon fill="black" stroke="black" points="308.86,-278.55 311.97,-268.42 303.23,-274.4 308.86,-278.55"/>
<g id="a_edge55&#45;headlabel"><a xlink:href="dir_000003_000004.html" target="_top" xlink:title="1">
<text text-anchor="middle" x="309.02" y="-280.63" font-family="Helvetica" font-size="10.00">1</text>
</a>
</g>
</g>
<!-- dir_a02c2e35855499cd9e109553a19d0667&#45;&gt;dir_76ec631f4004f297aa98c89994166e73 -->
<g id="edge54" class="edge">
<title>dir_a02c2e35855499cd9e109553a19d0667&#45;&gt;dir_76ec631f4004f297aa98c89994166e73</title>
<path fill="none" stroke="black" d="M308.19,-386.57C360.79,-374 471.78,-346.82 477,-340 506.88,-300.97 487.58,-240.21 472.32,-205.57"/>
<polygon fill="black" stroke="black" points="475.33,-203.74 467.97,-196.12 468.97,-206.66 475.33,-203.74"/>
<g id="a_edge54&#45;headlabel"><a xlink:href="dir_000003_000001.html" target="_top" xlink:title="21">
<text text-anchor="middle" x="479.41" y="-203.31" font-family="Helvetica" font-size="10.00">21</text>
</a>
</g>
</g>
<!-- dir_a02c2e35855499cd9e109553a19d0667&#45;&gt;dir_44c4819b58b16e7a1f761f8b885b5ba0 -->
<g id="edge53" class="edge">
<title>dir_a02c2e35855499cd9e109553a19d0667&#45;&gt;dir_44c4819b58b16e7a1f761f8b885b5ba0</title>
<path fill="none" stroke="black" d="M269.63,-375.7C264.28,-367.56 257.8,-357.69 251.89,-348.7"/>
<polygon fill="black" stroke="black" points="254.66,-346.54 246.24,-340.1 248.81,-350.38 254.66,-346.54"/>
<g id="a_edge53&#45;headlabel"><a xlink:href="dir_000003_000013.html" target="_top" xlink:title="3">
<text text-anchor="middle" x="259" y="-345.48" font-family="Helvetica" font-size="10.00">3</text>
</a>
</g>
</g>
<!-- dir_a02c2e35855499cd9e109553a19d0667&#45;&gt;dir_239469eeca6d3c1a97f8d4fbb99adcb8 -->
<g id="edge52" class="edge">
<title>dir_a02c2e35855499cd9e109553a19d0667&#45;&gt;dir_239469eeca6d3c1a97f8d4fbb99adcb8</title>
<path fill="none" stroke="black" d="M253.95,-383.58C234.82,-375.33 210.59,-361.29 199,-340 191.35,-325.95 195.59,-319.63 199,-304 214.01,-235.22 222.58,-216.19 265,-160 273.21,-149.12 284.02,-138.93 294.3,-130.45"/>
<polygon fill="black" stroke="black" points="296.73,-132.99 302.38,-124.03 292.37,-127.51 296.73,-132.99"/>
<g id="a_edge52&#45;headlabel"><a xlink:href="dir_000003_000014.html" target="_top" xlink:title="2">
<text text-anchor="middle" x="295.68" y="-134.95" font-family="Helvetica" font-size="10.00">2</text>
</a>
</g>
</g>
<!-- dir_239469eeca6d3c1a97f8d4fbb99adcb8&#45;&gt;dir_ea97f66d84072e3323f941252a229abf -->
<g id="edge32" class="edge">
<title>dir_239469eeca6d3c1a97f8d4fbb99adcb8&#45;&gt;dir_ea97f66d84072e3323f941252a229abf</title>
<path fill="none" stroke="black" d="M313.9,-87.7C307.61,-79.39 299.95,-69.28 293.04,-60.14"/>
<polygon fill="black" stroke="black" points="295.78,-57.96 286.95,-52.1 290.2,-62.19 295.78,-57.96"/>
<g id="a_edge32&#45;headlabel"><a xlink:href="dir_000014_000005.html" target="_top" xlink:title="25">
<text text-anchor="middle" x="300.21" y="-56.62" font-family="Helvetica" font-size="10.00">25</text>
</a>
</g>
</g>
<!-- dir_56c96f24a7ae97bf7f34b6e3938ad4c7&#45;&gt;dir_ea97f66d84072e3323f941252a229abf -->
<g id="edge24" class="edge">
<title>dir_56c96f24a7ae97bf7f34b6e3938ad4c7&#45;&gt;dir_ea97f66d84072e3323f941252a229abf</title>
<path fill="none" stroke="black" d="M660.01,-306.07C673.51,-297 688.52,-284.07 696,-268 702.75,-253.49 698.95,-247.73 696,-232 680.69,-150.4 652.77,-121.95 577,-88 487.54,-47.91 370.57,-38.06 311.55,-35.7"/>
<polygon fill="black" stroke="black" points="311.34,-32.19 301.23,-35.34 311.1,-39.19 311.34,-32.19"/>
<g id="a_edge24&#45;headlabel"><a xlink:href="dir_000002_000005.html" target="_top" xlink:title="13">
<text text-anchor="middle" x="315.03" y="-26.98" font-family="Helvetica" font-size="10.00">13</text>
</a>
</g>
</g>
<!-- dir_56c96f24a7ae97bf7f34b6e3938ad4c7&#45;&gt;dir_a73e1d15e6da56bea42fb33a94074c1c -->
<g id="edge23" class="edge">
<title>dir_56c96f24a7ae97bf7f34b6e3938ad4c7&#45;&gt;dir_a73e1d15e6da56bea42fb33a94074c1c</title>
<path fill="none" stroke="black" d="M605.77,-307.29C602.85,-306.07 599.89,-304.95 597,-304 516.12,-277.42 416.99,-262.16 364.23,-255.34"/>
<polygon fill="black" stroke="black" points="364.36,-251.83 354,-254.05 363.49,-258.78 364.36,-251.83"/>
<g id="a_edge23&#45;headlabel"><a xlink:href="dir_000002_000004.html" target="_top" xlink:title="1">
<text text-anchor="middle" x="368.28" y="-246.97" font-family="Helvetica" font-size="10.00">1</text>
</a>
</g>
</g>
<!-- dir_56c96f24a7ae97bf7f34b6e3938ad4c7&#45;&gt;dir_76ec631f4004f297aa98c89994166e73 -->
<g id="edge22" class="edge">
<title>dir_56c96f24a7ae97bf7f34b6e3938ad4c7&#45;&gt;dir_76ec631f4004f297aa98c89994166e73</title>
<path fill="none" stroke="black" d="M612.86,-303.72C591.67,-285.62 557.26,-256.48 527,-232 514.92,-222.23 501.46,-211.67 489.72,-202.56"/>
<polygon fill="black" stroke="black" points="491.57,-199.57 481.52,-196.22 487.29,-205.11 491.57,-199.57"/>
<g id="a_edge22&#45;headlabel"><a xlink:href="dir_000002_000001.html" target="_top" xlink:title="20">
<text text-anchor="middle" x="496.15" y="-197.02" font-family="Helvetica" font-size="10.00">20</text>
</a>
</g>
</g>
<!-- dir_56c96f24a7ae97bf7f34b6e3938ad4c7&#45;&gt;dir_239469eeca6d3c1a97f8d4fbb99adcb8 -->
<g id="edge21" class="edge">
<title>dir_56c96f24a7ae97bf7f34b6e3938ad4c7&#45;&gt;dir_239469eeca6d3c1a97f8d4fbb99adcb8</title>
<path fill="none" stroke="black" d="M624.96,-303.75C608.67,-270.69 568.52,-198.31 513,-160 467.71,-128.76 404.2,-115.79 364.34,-110.51"/>
<polygon fill="black" stroke="black" points="364.61,-107.02 354.25,-109.27 363.75,-113.97 364.61,-107.02"/>
<g id="a_edge21&#45;headlabel"><a xlink:href="dir_000002_000014.html" target="_top" xlink:title="17">
<text text-anchor="middle" x="368.52" y="-102.14" font-family="Helvetica" font-size="10.00">17</text>
</a>
</g>
</g>
</g>
</svg>
