<?xml version="1.0" encoding="UTF-8" standalone="no"?>
<!DOCTYPE svg PUBLIC "-//W3C//DTD SVG 1.1//EN"
 "http://www.w3.org/Graphics/SVG/1.1/DTD/svg11.dtd">
<!-- Generated by graphviz version 2.44.0 (0)
 -->
<!-- Title: Shape Pages: 1 -->
<svg width="225pt" height="439pt"
 viewBox="0.00 0.00 225.03 439.00" xmlns="http://www.w3.org/2000/svg" xmlns:xlink="http://www.w3.org/1999/xlink">
<g id="graph0" class="graph" transform="scale(1 1) rotate(0) translate(4 435)">
<title>Shape</title>
<g id="clust1" class="cluster">
<title>clusterdir_d9e3ca1242923a0f3e299c3c2535cd81</title>
<g id="a_clust1"><a xlink:href="dir_d9e3ca1242923a0f3e299c3c2535cd81.html" target="_top" xlink:title="CDPL">
<polygon fill="#ddddee" stroke="black" points="75,-352 75,-423 145,-423 145,-352 75,-352"/>
<text text-anchor="middle" x="110" y="-411" font-family="Helvetica" font-size="10.00">CDPL</text>
</a>
</g>
</g>
<!-- dir_e60b3667286dd230b98f983f5ace3d9d -->
<g id="node1" class="node">
<title>dir_e60b3667286dd230b98f983f5ace3d9d</title>
<g id="a_node1"><a xlink:href="dir_e60b3667286dd230b98f983f5ace3d9d.html" target="_top" xlink:title="Shape">
<polygon fill="#eeeeff" stroke="black" points="137,-396 83,-396 83,-360 137,-360 137,-396"/>
<text text-anchor="middle" x="110" y="-375.5" font-family="Helvetica" font-size="10.00">Shape</text>
</a>
</g>
</g>
<!-- dir_7ca0558073eba65288e02324c8ceb8f8 -->
<g id="node2" class="node">
<title>dir_7ca0558073eba65288e02324c8ceb8f8</title>
<g id="a_node2"><a xlink:href="dir_7ca0558073eba65288e02324c8ceb8f8.html" target="_top" xlink:title="Base">
<polygon fill="none" stroke="black" points="130,-36 76,-36 76,0 130,0 130,-36"/>
<text text-anchor="middle" x="103" y="-15.5" font-family="Helvetica" font-size="10.00">Base</text>
</a>
</g>
</g>
<!-- dir_e60b3667286dd230b98f983f5ace3d9d&#45;&gt;dir_7ca0558073eba65288e02324c8ceb8f8 -->
<g id="edge10" class="edge">
<title>dir_e60b3667286dd230b98f983f5ace3d9d&#45;&gt;dir_7ca0558073eba65288e02324c8ceb8f8</title>
<path fill="none" stroke="black" d="M84.21,-359.94C51.7,-336.16 0,-289.73 0,-235 0,-235 0,-235 0,-161 0,-111.66 41.26,-67.89 71.55,-42.41"/>
<polygon fill="black" stroke="black" points="73.84,-45.06 79.37,-36.03 69.41,-39.64 73.84,-45.06"/>
<g id="a_edge10&#45;headlabel"><a xlink:href="dir_000003_000005.html" target="_top" xlink:title="1">
<text text-anchor="middle" x="72.85" y="-47.03" font-family="Helvetica" font-size="10.00">1</text>
</a>
</g>
</g>
<!-- dir_2821c7f3ff716b7357153e2284349b47 -->
<g id="node3" class="node">
<title>dir_2821c7f3ff716b7357153e2284349b47</title>
<g id="a_node3"><a xlink:href="dir_2821c7f3ff716b7357153e2284349b47.html" target="_top" xlink:title="Chem">
<polygon fill="none" stroke="black" points="82,-252 28,-252 28,-216 82,-216 82,-252"/>
<text text-anchor="middle" x="55" y="-231.5" font-family="Helvetica" font-size="10.00">Chem</text>
</a>
</g>
</g>
<!-- dir_e60b3667286dd230b98f983f5ace3d9d&#45;&gt;dir_2821c7f3ff716b7357153e2284349b47 -->
<g id="edge11" class="edge">
<title>dir_e60b3667286dd230b98f983f5ace3d9d&#45;&gt;dir_2821c7f3ff716b7357153e2284349b47</title>
<path fill="none" stroke="black" d="M103.37,-359.87C93.91,-335.46 76.47,-290.43 65.32,-261.64"/>
<polygon fill="black" stroke="black" points="68.53,-260.25 61.66,-252.19 62.01,-262.78 68.53,-260.25"/>
<g id="a_edge11&#45;headlabel"><a xlink:href="dir_000003_000004.html" target="_top" xlink:title="1">
<text text-anchor="middle" x="72.48" y="-260.08" font-family="Helvetica" font-size="10.00">1</text>
</a>
</g>
</g>
<!-- dir_a11e439900186475800e797c0fd0ac6b -->
<g id="node4" class="node">
<title>dir_a11e439900186475800e797c0fd0ac6b</title>
<g id="a_node4"><a xlink:href="dir_a11e439900186475800e797c0fd0ac6b.html" target="_top" xlink:title="Math">
<polygon fill="none" stroke="black" points="158,-180 104,-180 104,-144 158,-144 158,-180"/>
<text text-anchor="middle" x="131" y="-159.5" font-family="Helvetica" font-size="10.00">Math</text>
</a>
</g>
</g>
<!-- dir_e60b3667286dd230b98f983f5ace3d9d&#45;&gt;dir_a11e439900186475800e797c0fd0ac6b -->
<g id="edge12" class="edge">
<title>dir_e60b3667286dd230b98f983f5ace3d9d&#45;&gt;dir_a11e439900186475800e797c0fd0ac6b</title>
<path fill="none" stroke="black" d="M111.68,-359.85C115.32,-322.83 123.92,-235.18 128.31,-190.39"/>
<polygon fill="black" stroke="black" points="131.82,-190.53 129.31,-180.23 124.85,-189.84 131.82,-190.53"/>
<g id="a_edge12&#45;headlabel"><a xlink:href="dir_000003_000001.html" target="_top" xlink:title="21">
<text text-anchor="middle" x="134.29" y="-191.88" font-family="Helvetica" font-size="10.00">21</text>
</a>
</g>
</g>
<!-- dir_5e8c3cb997677a4f5ba873b3f390ab24 -->
<g id="node5" class="node">
<title>dir_5e8c3cb997677a4f5ba873b3f390ab24</title>
<g id="a_node5"><a xlink:href="dir_5e8c3cb997677a4f5ba873b3f390ab24.html" target="_top" xlink:title="Pharm">
<polygon fill="none" stroke="black" points="192,-324 138,-324 138,-288 192,-288 192,-324"/>
<text text-anchor="middle" x="165" y="-303.5" font-family="Helvetica" font-size="10.00">Pharm</text>
</a>
</g>
</g>
<!-- dir_e60b3667286dd230b98f983f5ace3d9d&#45;&gt;dir_5e8c3cb997677a4f5ba873b3f390ab24 -->
<g id="edge13" class="edge">
<title>dir_e60b3667286dd230b98f983f5ace3d9d&#45;&gt;dir_5e8c3cb997677a4f5ba873b3f390ab24</title>
<path fill="none" stroke="black" d="M123.6,-359.7C130.12,-351.39 138.07,-341.28 145.25,-332.14"/>
<polygon fill="black" stroke="black" points="148.13,-334.13 151.56,-324.1 142.63,-329.81 148.13,-334.13"/>
<g id="a_edge13&#45;headlabel"><a xlink:href="dir_000003_000013.html" target="_top" xlink:title="3">
<text text-anchor="middle" x="148.15" y="-336.21" font-family="Helvetica" font-size="10.00">3</text>
</a>
</g>
</g>
<!-- dir_c592efebd7ac9eb7f4dce0afc29c639f -->
<g id="node6" class="node">
<title>dir_c592efebd7ac9eb7f4dce0afc29c639f</title>
<g id="a_node6"><a xlink:href="dir_c592efebd7ac9eb7f4dce0afc29c639f.html" target="_top" xlink:title="Util">
<polygon fill="none" stroke="black" points="185,-108 131,-108 131,-72 185,-72 185,-108"/>
<text text-anchor="middle" x="158" y="-87.5" font-family="Helvetica" font-size="10.00">Util</text>
</a>
</g>
</g>
<!-- dir_e60b3667286dd230b98f983f5ace3d9d&#45;&gt;dir_c592efebd7ac9eb7f4dce0afc29c639f -->
<g id="edge14" class="edge">
<title>dir_e60b3667286dd230b98f983f5ace3d9d&#45;&gt;dir_c592efebd7ac9eb7f4dce0afc29c639f</title>
<path fill="none" stroke="black" d="M137.29,-369.34C158.82,-361.7 187.42,-347.62 201,-324 239.66,-256.75 198.03,-162.14 173.42,-116.97"/>
<polygon fill="black" stroke="black" points="176.4,-115.13 168.46,-108.11 170.29,-118.55 176.4,-115.13"/>
<g id="a_edge14&#45;headlabel"><a xlink:href="dir_000003_000014.html" target="_top" xlink:title="2">
<text text-anchor="middle" x="180.63" y="-114.38" font-family="Helvetica" font-size="10.00">2</text>
</a>
</g>
</g>
<!-- dir_2821c7f3ff716b7357153e2284349b47&#45;&gt;dir_7ca0558073eba65288e02324c8ceb8f8 -->
<g id="edge1" class="edge">
<title>dir_2821c7f3ff716b7357153e2284349b47&#45;&gt;dir_7ca0558073eba65288e02324c8ceb8f8</title>
<path fill="none" stroke="black" d="M57.7,-215.87C60.62,-197.89 65.59,-168.85 71,-144 78.38,-110.1 88.54,-71.47 95.42,-46.24"/>
<polygon fill="black" stroke="black" points="98.87,-46.87 98.15,-36.3 92.12,-45.01 98.87,-46.87"/>
<g id="a_edge1&#45;headlabel"><a xlink:href="dir_000004_000005.html" target="_top" xlink:title="21">
<text text-anchor="middle" x="100.66" y="-48.58" font-family="Helvetica" font-size="10.00">21</text>
</a>
</g>
</g>
<!-- dir_2821c7f3ff716b7357153e2284349b47&#45;&gt;dir_a11e439900186475800e797c0fd0ac6b -->
<g id="edge2" class="edge">
<title>dir_2821c7f3ff716b7357153e2284349b47&#45;&gt;dir_a11e439900186475800e797c0fd0ac6b</title>
<path fill="none" stroke="black" d="M73.79,-215.7C83.17,-207.05 94.68,-196.45 104.91,-187.03"/>
<polygon fill="black" stroke="black" points="107.45,-189.45 112.43,-180.1 102.7,-184.3 107.45,-189.45"/>
<g id="a_edge2&#45;headlabel"><a xlink:href="dir_000004_000001.html" target="_top" xlink:title="32">
<text text-anchor="middle" x="106.72" y="-191.48" font-family="Helvetica" font-size="10.00">32</text>
</a>
</g>
</g>
<!-- dir_2821c7f3ff716b7357153e2284349b47&#45;&gt;dir_c592efebd7ac9eb7f4dce0afc29c639f -->
<g id="edge3" class="edge">
<title>dir_2821c7f3ff716b7357153e2284349b47&#45;&gt;dir_c592efebd7ac9eb7f4dce0afc29c639f</title>
<path fill="none" stroke="black" d="M60.18,-215.71C66.41,-196.83 78.15,-166.3 95,-144 103.22,-133.11 114.08,-122.97 124.45,-114.54"/>
<polygon fill="black" stroke="black" points="126.89,-117.07 132.61,-108.16 122.58,-111.56 126.89,-117.07"/>
<g id="a_edge3&#45;headlabel"><a xlink:href="dir_000004_000014.html" target="_top" xlink:title="191">
<text text-anchor="middle" x="125.81" y="-119.03" font-family="Helvetica" font-size="10.00">191</text>
</a>
</g>
</g>
<!-- dir_a11e439900186475800e797c0fd0ac6b&#45;&gt;dir_7ca0558073eba65288e02324c8ceb8f8 -->
<g id="edge4" class="edge">
<title>dir_a11e439900186475800e797c0fd0ac6b&#45;&gt;dir_7ca0558073eba65288e02324c8ceb8f8</title>
<path fill="none" stroke="black" d="M127.62,-143.87C122.83,-119.56 114.01,-74.82 108.33,-46.01"/>
<polygon fill="black" stroke="black" points="111.76,-45.32 106.39,-36.19 104.89,-46.68 111.76,-45.32"/>
<g id="a_edge4&#45;headlabel"><a xlink:href="dir_000001_000005.html" target="_top" xlink:title="19">
<text text-anchor="middle" x="115.24" y="-45.8" font-family="Helvetica" font-size="10.00">19</text>
</a>
</g>
</g>
<!-- dir_a11e439900186475800e797c0fd0ac6b&#45;&gt;dir_c592efebd7ac9eb7f4dce0afc29c639f -->
<g id="edge5" class="edge">
<title>dir_a11e439900186475800e797c0fd0ac6b&#45;&gt;dir_c592efebd7ac9eb7f4dce0afc29c639f</title>
<path fill="none" stroke="black" d="M137.67,-143.7C140.71,-135.81 144.38,-126.3 147.76,-117.55"/>
<polygon fill="black" stroke="black" points="151.07,-118.69 151.4,-108.1 144.54,-116.17 151.07,-118.69"/>
<g id="a_edge5&#45;headlabel"><a xlink:href="dir_000001_000014.html" target="_top" xlink:title="2">
<text text-anchor="middle" x="152.42" y="-120.57" font-family="Helvetica" font-size="10.00">2</text>
</a>
</g>
</g>
<!-- dir_5e8c3cb997677a4f5ba873b3f390ab24&#45;&gt;dir_7ca0558073eba65288e02324c8ceb8f8 -->
<g id="edge6" class="edge">
<title>dir_5e8c3cb997677a4f5ba873b3f390ab24&#45;&gt;dir_7ca0558073eba65288e02324c8ceb8f8</title>
<path fill="none" stroke="black" d="M173.8,-287.8C193.26,-247.19 235.04,-143.39 194,-72 182.33,-51.7 159.57,-38.45 139.73,-30.27"/>
<polygon fill="black" stroke="black" points="140.88,-26.97 130.29,-26.66 138.38,-33.5 140.88,-26.97"/>
<g id="a_edge6&#45;headlabel"><a xlink:href="dir_000013_000005.html" target="_top" xlink:title="9">
<text text-anchor="middle" x="145.25" y="-23.1" font-family="Helvetica" font-size="10.00">9</text>
</a>
</g>
</g>
<!-- dir_5e8c3cb997677a4f5ba873b3f390ab24&#45;&gt;dir_2821c7f3ff716b7357153e2284349b47 -->
<g id="edge7" class="edge">
<title>dir_5e8c3cb997677a4f5ba873b3f390ab24&#45;&gt;dir_2821c7f3ff716b7357153e2284349b47</title>
<path fill="none" stroke="black" d="M138.09,-287.88C123.84,-278.81 106.15,-267.55 90.76,-257.76"/>
<polygon fill="black" stroke="black" points="92.33,-254.61 82.01,-252.19 88.57,-260.51 92.33,-254.61"/>
<g id="a_edge7&#45;headlabel"><a xlink:href="dir_000013_000004.html" target="_top" xlink:title="15">
<text text-anchor="middle" x="96.89" y="-251.64" font-family="Helvetica" font-size="10.00">15</text>
</a>
</g>
</g>
<!-- dir_5e8c3cb997677a4f5ba873b3f390ab24&#45;&gt;dir_a11e439900186475800e797c0fd0ac6b -->
<g id="edge8" class="edge">
<title>dir_5e8c3cb997677a4f5ba873b3f390ab24&#45;&gt;dir_a11e439900186475800e797c0fd0ac6b</title>
<path fill="none" stroke="black" d="M160.9,-287.87C155.08,-263.56 144.37,-218.82 137.47,-190.01"/>
<polygon fill="black" stroke="black" points="140.85,-189.1 135.12,-180.19 134.04,-190.73 140.85,-189.1"/>
<g id="a_edge8&#45;headlabel"><a xlink:href="dir_000013_000001.html" target="_top" xlink:title="15">
<text text-anchor="middle" x="144.45" y="-189.43" font-family="Helvetica" font-size="10.00">15</text>
</a>
</g>
</g>
<!-- dir_5e8c3cb997677a4f5ba873b3f390ab24&#45;&gt;dir_c592efebd7ac9eb7f4dce0afc29c639f -->
<g id="edge9" class="edge">
<title>dir_5e8c3cb997677a4f5ba873b3f390ab24&#45;&gt;dir_c592efebd7ac9eb7f4dce0afc29c639f</title>
<path fill="none" stroke="black" d="M166.31,-287.57C168.3,-257.99 171.39,-196.09 167,-144 166.28,-135.5 164.93,-126.31 163.49,-118.01"/>
<polygon fill="black" stroke="black" points="166.91,-117.29 161.65,-108.09 160.03,-118.56 166.91,-117.29"/>
<g id="a_edge9&#45;headlabel"><a xlink:href="dir_000013_000014.html" target="_top" xlink:title="26">
<text text-anchor="middle" x="170.36" y="-117.81" font-family="Helvetica" font-size="10.00">26</text>
</a>
</g>
</g>
<!-- dir_c592efebd7ac9eb7f4dce0afc29c639f&#45;&gt;dir_7ca0558073eba65288e02324c8ceb8f8 -->
<g id="edge15" class="edge">
<title>dir_c592efebd7ac9eb7f4dce0afc29c639f&#45;&gt;dir_7ca0558073eba65288e02324c8ceb8f8</title>
<path fill="none" stroke="black" d="M144.4,-71.7C137.88,-63.39 129.93,-53.28 122.75,-44.14"/>
<polygon fill="black" stroke="black" points="125.37,-41.81 116.44,-36.1 119.87,-46.13 125.37,-41.81"/>
<g id="a_edge15&#45;headlabel"><a xlink:href="dir_000014_000005.html" target="_top" xlink:title="25">
<text text-anchor="middle" x="129.82" y="-40.38" font-family="Helvetica" font-size="10.00">25</text>
</a>
</g>
</g>
</g>
</svg>
