<?xml version="1.0" encoding="UTF-8" standalone="no"?>
<!DOCTYPE svg PUBLIC "-//W3C//DTD SVG 1.1//EN"
 "http://www.w3.org/Graphics/SVG/1.1/DTD/svg11.dtd">
<!-- Generated by graphviz version 2.40.1 (0)
 -->
<!-- Title: GRAIL Pages: 1 -->
<svg width="260pt" height="367pt"
 viewBox="0.00 0.00 260.47 367.00" xmlns="http://www.w3.org/2000/svg" xmlns:xlink="http://www.w3.org/1999/xlink">
<g id="graph0" class="graph" transform="scale(1 1) rotate(0) translate(4 363)">
<title>GRAIL</title>
<g id="clust1" class="cluster">
<title>clusterdir_d9e3ca1242923a0f3e299c3c2535cd81</title>
<g id="a_clust1"><a xlink:href="dir_d9e3ca1242923a0f3e299c3c2535cd81.html" target="_top" xlink:title="CDPL">
<polygon fill="#ddddee" stroke="#000000" points="123,-280 123,-351 193,-351 193,-280 123,-280"/>
<text text-anchor="middle" x="158" y="-339" font-family="Helvetica,sans-Serif" font-size="10.00" fill="#000000">CDPL</text>
</a>
</g>
</g>
<!-- dir_63172153952ece9cd58d985c57b76252 -->
<g id="node1" class="node">
<title>dir_63172153952ece9cd58d985c57b76252</title>
<g id="a_node1"><a xlink:href="dir_63172153952ece9cd58d985c57b76252.html" target="_top" xlink:title="GRAIL">
<polygon fill="#eeeeff" stroke="#000000" points="185,-324 131,-324 131,-288 185,-288 185,-324"/>
<text text-anchor="middle" x="158" y="-303.5" font-family="Helvetica,sans-Serif" font-size="10.00" fill="#000000">GRAIL</text>
</a>
</g>
</g>
<!-- dir_8e68467dd8a3f99c322490b7fb276a25 -->
<g id="node2" class="node">
<title>dir_8e68467dd8a3f99c322490b7fb276a25</title>
<g id="a_node2"><a xlink:href="dir_8e68467dd8a3f99c322490b7fb276a25.html" target="_top" xlink:title="Grid">
<polygon fill="none" stroke="#000000" points="54,-180 0,-180 0,-144 54,-144 54,-180"/>
<text text-anchor="middle" x="27" y="-159.5" font-family="Helvetica,sans-Serif" font-size="10.00" fill="#000000">Grid</text>
</a>
</g>
</g>
<!-- dir_63172153952ece9cd58d985c57b76252&#45;&gt;dir_8e68467dd8a3f99c322490b7fb276a25 -->
<g id="edge6" class="edge">
<title>dir_63172153952ece9cd58d985c57b76252&#45;&gt;dir_8e68467dd8a3f99c322490b7fb276a25</title>
<path fill="none" stroke="#000000" d="M130.6062,-294.8937C111.0404,-285.8036 85.2343,-271.2999 68,-252 52.0048,-234.0878 41.2492,-208.8839 34.7824,-189.7025"/>
<polygon fill="#000000" stroke="#000000" points="38.0702,-188.4916 31.7058,-180.0213 31.399,-190.6117 38.0702,-188.4916"/>
<g id="a_edge6&#45;headlabel"><a xlink:href="dir_000010_000011.html" target="_top" xlink:title="4">
<text text-anchor="middle" x="41.8647" y="-188.5575" font-family="Helvetica,sans-Serif" font-size="10.00" fill="#000000">4</text>
</a>
</g>
</g>
<!-- dir_2821c7f3ff716b7357153e2284349b47 -->
<g id="node3" class="node">
<title>dir_2821c7f3ff716b7357153e2284349b47</title>
<g id="a_node3"><a xlink:href="dir_2821c7f3ff716b7357153e2284349b47.html" target="_top" xlink:title="Chem">
<polygon fill="none" stroke="#000000" points="240,-180 186,-180 186,-144 240,-144 240,-180"/>
<text text-anchor="middle" x="213" y="-159.5" font-family="Helvetica,sans-Serif" font-size="10.00" fill="#000000">Chem</text>
</a>
</g>
</g>
<!-- dir_63172153952ece9cd58d985c57b76252&#45;&gt;dir_2821c7f3ff716b7357153e2284349b47 -->
<g id="edge7" class="edge">
<title>dir_63172153952ece9cd58d985c57b76252&#45;&gt;dir_2821c7f3ff716b7357153e2284349b47</title>
<path fill="none" stroke="#000000" d="M172.8853,-287.5185C180.2462,-277.5296 188.672,-264.6716 194,-252 202.3306,-232.1876 207.1533,-208.3321 209.8541,-190.1605"/>
<polygon fill="#000000" stroke="#000000" points="213.3302,-190.5721 211.2095,-180.1917 206.3941,-189.6289 213.3302,-190.5721"/>
<g id="a_edge7&#45;headlabel"><a xlink:href="dir_000010_000004.html" target="_top" xlink:title="6">
<text text-anchor="middle" x="215.6594" y="-192.0164" font-family="Helvetica,sans-Serif" font-size="10.00" fill="#000000">6</text>
</a>
</g>
</g>
<!-- dir_a11e439900186475800e797c0fd0ac6b -->
<g id="node4" class="node">
<title>dir_a11e439900186475800e797c0fd0ac6b</title>
<g id="a_node4"><a xlink:href="dir_a11e439900186475800e797c0fd0ac6b.html" target="_top" xlink:title="Math">
<polygon fill="none" stroke="#000000" points="130,-108 76,-108 76,-72 130,-72 130,-108"/>
<text text-anchor="middle" x="103" y="-87.5" font-family="Helvetica,sans-Serif" font-size="10.00" fill="#000000">Math</text>
</a>
</g>
</g>
<!-- dir_63172153952ece9cd58d985c57b76252&#45;&gt;dir_a11e439900186475800e797c0fd0ac6b -->
<g id="edge8" class="edge">
<title>dir_63172153952ece9cd58d985c57b76252&#45;&gt;dir_a11e439900186475800e797c0fd0ac6b</title>
<path fill="none" stroke="#000000" d="M142.6349,-287.7075C135.1426,-277.7703 126.7442,-264.9015 122,-252 105.5801,-207.3472 102.5289,-151.5299 102.3714,-118.4343"/>
<polygon fill="#000000" stroke="#000000" points="105.8725,-118.1449 102.4137,-108.1306 98.8725,-118.1161 105.8725,-118.1449"/>
<g id="a_edge8&#45;headlabel"><a xlink:href="dir_000010_000001.html" target="_top" xlink:title="15">
<text text-anchor="middle" x="108.697" y="-119.2511" font-family="Helvetica,sans-Serif" font-size="10.00" fill="#000000">15</text>
</a>
</g>
</g>
<!-- dir_5e8c3cb997677a4f5ba873b3f390ab24 -->
<g id="node5" class="node">
<title>dir_5e8c3cb997677a4f5ba873b3f390ab24</title>
<g id="a_node5"><a xlink:href="dir_5e8c3cb997677a4f5ba873b3f390ab24.html" target="_top" xlink:title="Pharm">
<polygon fill="none" stroke="#000000" points="185,-252 131,-252 131,-216 185,-216 185,-252"/>
<text text-anchor="middle" x="158" y="-231.5" font-family="Helvetica,sans-Serif" font-size="10.00" fill="#000000">Pharm</text>
</a>
</g>
</g>
<!-- dir_63172153952ece9cd58d985c57b76252&#45;&gt;dir_5e8c3cb997677a4f5ba873b3f390ab24 -->
<g id="edge9" class="edge">
<title>dir_63172153952ece9cd58d985c57b76252&#45;&gt;dir_5e8c3cb997677a4f5ba873b3f390ab24</title>
<path fill="none" stroke="#000000" d="M158,-287.8314C158,-280.131 158,-270.9743 158,-262.4166"/>
<polygon fill="#000000" stroke="#000000" points="161.5001,-262.4132 158,-252.4133 154.5001,-262.4133 161.5001,-262.4132"/>
<g id="a_edge9&#45;headlabel"><a xlink:href="dir_000010_000013.html" target="_top" xlink:title="3">
<text text-anchor="middle" x="164.3393" y="-263.5079" font-family="Helvetica,sans-Serif" font-size="10.00" fill="#000000">3</text>
</a>
</g>
</g>
<!-- dir_c592efebd7ac9eb7f4dce0afc29c639f -->
<g id="node6" class="node">
<title>dir_c592efebd7ac9eb7f4dce0afc29c639f</title>
<g id="a_node6"><a xlink:href="dir_c592efebd7ac9eb7f4dce0afc29c639f.html" target="_top" xlink:title="Util">
<polygon fill="none" stroke="#000000" points="185,-36 131,-36 131,0 185,0 185,-36"/>
<text text-anchor="middle" x="158" y="-15.5" font-family="Helvetica,sans-Serif" font-size="10.00" fill="#000000">Util</text>
</a>
</g>
</g>
<!-- dir_63172153952ece9cd58d985c57b76252&#45;&gt;dir_c592efebd7ac9eb7f4dce0afc29c639f -->
<g id="edge10" class="edge">
<title>dir_63172153952ece9cd58d985c57b76252&#45;&gt;dir_c592efebd7ac9eb7f4dce0afc29c639f</title>
<path fill="none" stroke="#000000" d="M179.9542,-287.9921C212.1135,-259.2779 266.424,-200.5719 249,-144 236.8688,-104.6127 206.8212,-67.3736 184.5539,-43.7395"/>
<polygon fill="#000000" stroke="#000000" points="186.8006,-41.0274 177.3377,-36.2625 181.7638,-45.8886 186.8006,-41.0274"/>
<g id="a_edge10&#45;headlabel"><a xlink:href="dir_000010_000014.html" target="_top" xlink:title="1">
<text text-anchor="middle" x="191.3398" y="-39.1422" font-family="Helvetica,sans-Serif" font-size="10.00" fill="#000000">1</text>
</a>
</g>
</g>
<!-- dir_8e68467dd8a3f99c322490b7fb276a25&#45;&gt;dir_a11e439900186475800e797c0fd0ac6b -->
<g id="edge1" class="edge">
<title>dir_8e68467dd8a3f99c322490b7fb276a25&#45;&gt;dir_a11e439900186475800e797c0fd0ac6b</title>
<path fill="none" stroke="#000000" d="M46.178,-143.8314C55.3588,-135.1337 66.5006,-124.5783 76.4776,-115.1265"/>
<polygon fill="#000000" stroke="#000000" points="78.9757,-117.5811 83.8281,-108.1628 74.1615,-112.4995 78.9757,-117.5811"/>
<g id="a_edge1&#45;headlabel"><a xlink:href="dir_000011_000001.html" target="_top" xlink:title="2">
<text text-anchor="middle" x="78.3189" y="-119.6145" font-family="Helvetica,sans-Serif" font-size="10.00" fill="#000000">2</text>
</a>
</g>
</g>
<!-- dir_8e68467dd8a3f99c322490b7fb276a25&#45;&gt;dir_c592efebd7ac9eb7f4dce0afc29c639f -->
<g id="edge2" class="edge">
<title>dir_8e68467dd8a3f99c322490b7fb276a25&#45;&gt;dir_c592efebd7ac9eb7f4dce0afc29c639f</title>
<path fill="none" stroke="#000000" d="M31.4637,-143.961C37.0563,-124.3779 48.2545,-93.0849 67,-72 81.8638,-55.2812 103.1774,-42.2494 121.4414,-33.1799"/>
<polygon fill="#000000" stroke="#000000" points="123.1326,-36.2514 130.6641,-28.7997 120.1295,-29.9283 123.1326,-36.2514"/>
<g id="a_edge2&#45;headlabel"><a xlink:href="dir_000011_000014.html" target="_top" xlink:title="27">
<text text-anchor="middle" x="121.1036" y="-37.8582" font-family="Helvetica,sans-Serif" font-size="10.00" fill="#000000">27</text>
</a>
</g>
</g>
<!-- dir_2821c7f3ff716b7357153e2284349b47&#45;&gt;dir_a11e439900186475800e797c0fd0ac6b -->
<g id="edge3" class="edge">
<title>dir_2821c7f3ff716b7357153e2284349b47&#45;&gt;dir_a11e439900186475800e797c0fd0ac6b</title>
<path fill="none" stroke="#000000" d="M185.809,-144.2022C171.6622,-134.9425 154.1843,-123.5025 138.937,-113.5224"/>
<polygon fill="#000000" stroke="#000000" points="140.5433,-110.3907 130.2594,-107.8425 136.7097,-116.2476 140.5433,-110.3907"/>
<g id="a_edge3&#45;headlabel"><a xlink:href="dir_000004_000001.html" target="_top" xlink:title="32">
<text text-anchor="middle" x="145.1058" y="-107.4837" font-family="Helvetica,sans-Serif" font-size="10.00" fill="#000000">32</text>
</a>
</g>
</g>
<!-- dir_2821c7f3ff716b7357153e2284349b47&#45;&gt;dir_c592efebd7ac9eb7f4dce0afc29c639f -->
<g id="edge4" class="edge">
<title>dir_2821c7f3ff716b7357153e2284349b47&#45;&gt;dir_c592efebd7ac9eb7f4dce0afc29c639f</title>
<path fill="none" stroke="#000000" d="M206.0342,-143.7623C196.5705,-118.9846 179.5689,-74.4714 168.5393,-45.5939"/>
<polygon fill="#000000" stroke="#000000" points="171.747,-44.1826 164.9092,-36.0896 165.2077,-46.6803 171.747,-44.1826"/>
<g id="a_edge4&#45;headlabel"><a xlink:href="dir_000004_000014.html" target="_top" xlink:title="180">
<text text-anchor="middle" x="175.6819" y="-44.0275" font-family="Helvetica,sans-Serif" font-size="10.00" fill="#000000">180</text>
</a>
</g>
</g>
<!-- dir_a11e439900186475800e797c0fd0ac6b&#45;&gt;dir_c592efebd7ac9eb7f4dce0afc29c639f -->
<g id="edge5" class="edge">
<title>dir_a11e439900186475800e797c0fd0ac6b&#45;&gt;dir_c592efebd7ac9eb7f4dce0afc29c639f</title>
<path fill="none" stroke="#000000" d="M116.8788,-71.8314C123.2136,-63.5386 130.8384,-53.557 137.7926,-44.4533"/>
<polygon fill="#000000" stroke="#000000" points="140.6452,-46.4847 143.9343,-36.4133 135.0825,-42.2353 140.6452,-46.4847"/>
<g id="a_edge5&#45;headlabel"><a xlink:href="dir_000001_000014.html" target="_top" xlink:title="2">
<text text-anchor="middle" x="140.7195" y="-48.5647" font-family="Helvetica,sans-Serif" font-size="10.00" fill="#000000">2</text>
</a>
</g>
</g>
<!-- dir_5e8c3cb997677a4f5ba873b3f390ab24&#45;&gt;dir_2821c7f3ff716b7357153e2284349b47 -->
<g id="edge11" class="edge">
<title>dir_5e8c3cb997677a4f5ba873b3f390ab24&#45;&gt;dir_2821c7f3ff716b7357153e2284349b47</title>
<path fill="none" stroke="#000000" d="M171.8788,-215.8314C178.2136,-207.5386 185.8384,-197.557 192.7926,-188.4533"/>
<polygon fill="#000000" stroke="#000000" points="195.6452,-190.4847 198.9343,-180.4133 190.0825,-186.2353 195.6452,-190.4847"/>
<g id="a_edge11&#45;headlabel"><a xlink:href="dir_000013_000004.html" target="_top" xlink:title="15">
<text text-anchor="middle" x="195.7195" y="-192.5647" font-family="Helvetica,sans-Serif" font-size="10.00" fill="#000000">15</text>
</a>
</g>
</g>
<!-- dir_5e8c3cb997677a4f5ba873b3f390ab24&#45;&gt;dir_a11e439900186475800e797c0fd0ac6b -->
<g id="edge12" class="edge">
<title>dir_5e8c3cb997677a4f5ba873b3f390ab24&#45;&gt;dir_a11e439900186475800e797c0fd0ac6b</title>
<path fill="none" stroke="#000000" d="M151.0342,-215.7623C141.5705,-190.9846 124.5689,-146.4714 113.5393,-117.5939"/>
<polygon fill="#000000" stroke="#000000" points="116.747,-116.1826 109.9092,-108.0896 110.2077,-118.6803 116.747,-116.1826"/>
<g id="a_edge12&#45;headlabel"><a xlink:href="dir_000013_000001.html" target="_top" xlink:title="15">
<text text-anchor="middle" x="120.6819" y="-116.0275" font-family="Helvetica,sans-Serif" font-size="10.00" fill="#000000">15</text>
</a>
</g>
</g>
<!-- dir_5e8c3cb997677a4f5ba873b3f390ab24&#45;&gt;dir_c592efebd7ac9eb7f4dce0afc29c639f -->
<g id="edge13" class="edge">
<title>dir_5e8c3cb997677a4f5ba873b3f390ab24&#45;&gt;dir_c592efebd7ac9eb7f4dce0afc29c639f</title>
<path fill="none" stroke="#000000" d="M158,-215.9555C158,-178.3938 158,-91.5541 158,-46.4103"/>
<polygon fill="#000000" stroke="#000000" points="161.5001,-46.145 158,-36.1451 154.5001,-46.1451 161.5001,-46.145"/>
<g id="a_edge13&#45;headlabel"><a xlink:href="dir_000013_000014.html" target="_top" xlink:title="26">
<text text-anchor="middle" x="164.3393" y="-47.2397" font-family="Helvetica,sans-Serif" font-size="10.00" fill="#000000">26</text>
</a>
</g>
</g>
</g>
</svg>
