<?xml version="1.0" encoding="UTF-8" standalone="no"?>
<!DOCTYPE svg PUBLIC "-//W3C//DTD SVG 1.1//EN"
 "http://www.w3.org/Graphics/SVG/1.1/DTD/svg11.dtd">
<!-- Generated by graphviz version 2.44.0 (0)
 -->
<!-- Title: Biomol Pages: 1 -->
<svg width="134pt" height="311pt"
 viewBox="0.00 0.00 134.00 311.00" xmlns="http://www.w3.org/2000/svg" xmlns:xlink="http://www.w3.org/1999/xlink">
<g id="graph0" class="graph" transform="scale(1 1) rotate(0) translate(4 307)">
<title>Biomol</title>
<g id="clust1" class="cluster">
<title>clusterdir_13e5b888d4d8e2bc4637fdf598186b4c</title>
<g id="a_clust1"><a xlink:href="dir_13e5b888d4d8e2bc4637fdf598186b4c.html" target="_top" xlink:title="CDPL">
<polygon fill="#ddddee" stroke="black" points="8,-8 8,-295 118,-295 118,-8 8,-8"/>
<text text-anchor="middle" x="63" y="-283" font-family="Helvetica" font-size="10.00">CDPL</text>
</a>
</g>
</g>
<!-- dir_239469eeca6d3c1a97f8d4fbb99adcb8 -->
<g id="node1" class="node">
<title>dir_239469eeca6d3c1a97f8d4fbb99adcb8</title>
<g id="a_node1"><a xlink:href="dir_239469eeca6d3c1a97f8d4fbb99adcb8.html" target="_top" xlink:title="Util">
<polygon fill="none" stroke="black" points="70,-124 16,-124 16,-88 70,-88 70,-124"/>
<text text-anchor="middle" x="43" y="-103.5" font-family="Helvetica" font-size="10.00">Util</text>
</a>
</g>
</g>
<!-- dir_ea97f66d84072e3323f941252a229abf -->
<g id="node3" class="node">
<title>dir_ea97f66d84072e3323f941252a229abf</title>
<g id="a_node3"><a xlink:href="dir_ea97f66d84072e3323f941252a229abf.html" target="_top" xlink:title="Base">
<polygon fill="none" stroke="black" points="110,-52 56,-52 56,-16 110,-16 110,-52"/>
<text text-anchor="middle" x="83" y="-31.5" font-family="Helvetica" font-size="10.00">Base</text>
</a>
</g>
</g>
<!-- dir_239469eeca6d3c1a97f8d4fbb99adcb8&#45;&gt;dir_ea97f66d84072e3323f941252a229abf -->
<g id="edge1" class="edge">
<title>dir_239469eeca6d3c1a97f8d4fbb99adcb8&#45;&gt;dir_ea97f66d84072e3323f941252a229abf</title>
<path fill="none" stroke="black" d="M52.89,-87.7C57.49,-79.64 63.06,-69.89 68.15,-60.98"/>
<polygon fill="black" stroke="black" points="71.3,-62.52 73.23,-52.1 65.23,-59.05 71.3,-62.52"/>
<g id="a_edge1&#45;headlabel"><a xlink:href="dir_000014_000005.html" target="_top" xlink:title="25">
<text text-anchor="middle" x="71.99" y="-64.55" font-family="Helvetica" font-size="10.00">25</text>
</a>
</g>
</g>
<!-- dir_a73e1d15e6da56bea42fb33a94074c1c -->
<g id="node2" class="node">
<title>dir_a73e1d15e6da56bea42fb33a94074c1c</title>
<g id="a_node2"><a xlink:href="dir_a73e1d15e6da56bea42fb33a94074c1c.html" target="_top" xlink:title="Chem">
<polygon fill="none" stroke="black" points="90,-196 36,-196 36,-160 90,-160 90,-196"/>
<text text-anchor="middle" x="63" y="-175.5" font-family="Helvetica" font-size="10.00">Chem</text>
</a>
</g>
</g>
<!-- dir_a73e1d15e6da56bea42fb33a94074c1c&#45;&gt;dir_239469eeca6d3c1a97f8d4fbb99adcb8 -->
<g id="edge2" class="edge">
<title>dir_a73e1d15e6da56bea42fb33a94074c1c&#45;&gt;dir_239469eeca6d3c1a97f8d4fbb99adcb8</title>
<path fill="none" stroke="black" d="M58.06,-159.7C55.83,-151.9 53.15,-142.51 50.67,-133.83"/>
<polygon fill="black" stroke="black" points="54,-132.76 47.89,-124.1 47.27,-134.68 54,-132.76"/>
<g id="a_edge2&#45;headlabel"><a xlink:href="dir_000004_000014.html" target="_top" xlink:title="191">
<text text-anchor="middle" x="57.72" y="-132.93" font-family="Helvetica" font-size="10.00">191</text>
</a>
</g>
</g>
<!-- dir_a73e1d15e6da56bea42fb33a94074c1c&#45;&gt;dir_ea97f66d84072e3323f941252a229abf -->
<g id="edge3" class="edge">
<title>dir_a73e1d15e6da56bea42fb33a94074c1c&#45;&gt;dir_ea97f66d84072e3323f941252a229abf</title>
<path fill="none" stroke="black" d="M69.45,-159.6C72.93,-149.38 76.93,-136.13 79,-124 82.49,-103.55 83.42,-80.09 83.52,-62.39"/>
<polygon fill="black" stroke="black" points="87.02,-62.18 83.48,-52.2 80.02,-62.21 87.02,-62.18"/>
<g id="a_edge3&#45;headlabel"><a xlink:href="dir_000004_000005.html" target="_top" xlink:title="21">
<text text-anchor="middle" x="89.87" y="-63.27" font-family="Helvetica" font-size="10.00">21</text>
</a>
</g>
</g>
<!-- dir_c3d01f90f61dda2cb9d0391b1b68a0df -->
<g id="node4" class="node">
<title>dir_c3d01f90f61dda2cb9d0391b1b68a0df</title>
<g id="a_node4"><a xlink:href="dir_c3d01f90f61dda2cb9d0391b1b68a0df.html" target="_top" xlink:title="Biomol">
<polygon fill="#eeeeff" stroke="black" points="90,-268 36,-268 36,-232 90,-232 90,-268"/>
<text text-anchor="middle" x="63" y="-247.5" font-family="Helvetica" font-size="10.00">Biomol</text>
</a>
</g>
</g>
<!-- dir_c3d01f90f61dda2cb9d0391b1b68a0df&#45;&gt;dir_239469eeca6d3c1a97f8d4fbb99adcb8 -->
<g id="edge4" class="edge">
<title>dir_c3d01f90f61dda2cb9d0391b1b68a0df&#45;&gt;dir_239469eeca6d3c1a97f8d4fbb99adcb8</title>
<path fill="none" stroke="black" d="M47.39,-231.77C39.63,-222.03 31.05,-209.18 27,-196 20.68,-175.46 25.7,-151.44 31.73,-133.53"/>
<polygon fill="black" stroke="black" points="35.06,-134.61 35.22,-124.02 28.49,-132.2 35.06,-134.61"/>
<g id="a_edge4&#45;headlabel"><a xlink:href="dir_000006_000014.html" target="_top" xlink:title="34">
<text text-anchor="middle" x="36.49" y="-136.47" font-family="Helvetica" font-size="10.00">34</text>
</a>
</g>
</g>
<!-- dir_c3d01f90f61dda2cb9d0391b1b68a0df&#45;&gt;dir_a73e1d15e6da56bea42fb33a94074c1c -->
<g id="edge5" class="edge">
<title>dir_c3d01f90f61dda2cb9d0391b1b68a0df&#45;&gt;dir_a73e1d15e6da56bea42fb33a94074c1c</title>
<path fill="none" stroke="black" d="M63,-231.7C63,-223.98 63,-214.71 63,-206.11"/>
<polygon fill="black" stroke="black" points="66.5,-206.1 63,-196.1 59.5,-206.1 66.5,-206.1"/>
<g id="a_edge5&#45;headlabel"><a xlink:href="dir_000006_000004.html" target="_top" xlink:title="5">
<text text-anchor="middle" x="69.34" y="-207.2" font-family="Helvetica" font-size="10.00">5</text>
</a>
</g>
</g>
<!-- dir_c3d01f90f61dda2cb9d0391b1b68a0df&#45;&gt;dir_ea97f66d84072e3323f941252a229abf -->
<g id="edge6" class="edge">
<title>dir_c3d01f90f61dda2cb9d0391b1b68a0df&#45;&gt;dir_ea97f66d84072e3323f941252a229abf</title>
<path fill="none" stroke="black" d="M78.61,-231.77C86.37,-222.03 94.95,-209.18 99,-196 113.01,-150.45 101.42,-94.57 92.02,-62.05"/>
<polygon fill="black" stroke="black" points="95.33,-60.91 89.07,-52.36 88.63,-62.95 95.33,-60.91"/>
<g id="a_edge6&#45;headlabel"><a xlink:href="dir_000006_000005.html" target="_top" xlink:title="3">
<text text-anchor="middle" x="99.09" y="-61.03" font-family="Helvetica" font-size="10.00">3</text>
</a>
</g>
</g>
</g>
</svg>
