<?xml version="1.0" encoding="UTF-8" standalone="no"?>
<!DOCTYPE svg PUBLIC "-//W3C//DTD SVG 1.1//EN"
 "http://www.w3.org/Graphics/SVG/1.1/DTD/svg11.dtd">
<!-- Generated by graphviz version 2.40.1 (0)
 -->
<!-- Title: Shape Pages: 1 -->
<svg width="225pt" height="439pt"
 viewBox="0.00 0.00 224.97 439.00" xmlns="http://www.w3.org/2000/svg" xmlns:xlink="http://www.w3.org/1999/xlink">
<g id="graph0" class="graph" transform="scale(1 1) rotate(0) translate(4 435)">
<title>Shape</title>
<g id="clust1" class="cluster">
<title>clusterdir_d9e3ca1242923a0f3e299c3c2535cd81</title>
<g id="a_clust1"><a xlink:href="dir_d9e3ca1242923a0f3e299c3c2535cd81.html" target="_top" xlink:title="CDPL">
<polygon fill="#ddddee" stroke="#000000" points="75,-352 75,-423 145,-423 145,-352 75,-352"/>
<text text-anchor="middle" x="110" y="-411" font-family="Helvetica,sans-Serif" font-size="10.00" fill="#000000">CDPL</text>
</a>
</g>
</g>
<!-- dir_e60b3667286dd230b98f983f5ace3d9d -->
<g id="node1" class="node">
<title>dir_e60b3667286dd230b98f983f5ace3d9d</title>
<g id="a_node1"><a xlink:href="dir_e60b3667286dd230b98f983f5ace3d9d.html" target="_top" xlink:title="Shape">
<polygon fill="#eeeeff" stroke="#000000" points="137,-396 83,-396 83,-360 137,-360 137,-396"/>
<text text-anchor="middle" x="110" y="-375.5" font-family="Helvetica,sans-Serif" font-size="10.00" fill="#000000">Shape</text>
</a>
</g>
</g>
<!-- dir_7ca0558073eba65288e02324c8ceb8f8 -->
<g id="node2" class="node">
<title>dir_7ca0558073eba65288e02324c8ceb8f8</title>
<g id="a_node2"><a xlink:href="dir_7ca0558073eba65288e02324c8ceb8f8.html" target="_top" xlink:title="Base">
<polygon fill="none" stroke="#000000" points="130,-36 76,-36 76,0 130,0 130,-36"/>
<text text-anchor="middle" x="103" y="-15.5" font-family="Helvetica,sans-Serif" font-size="10.00" fill="#000000">Base</text>
</a>
</g>
</g>
<!-- dir_e60b3667286dd230b98f983f5ace3d9d&#45;&gt;dir_7ca0558073eba65288e02324c8ceb8f8 -->
<g id="edge10" class="edge">
<title>dir_e60b3667286dd230b98f983f5ace3d9d&#45;&gt;dir_7ca0558073eba65288e02324c8ceb8f8</title>
<path fill="none" stroke="#000000" d="M83.3721,-359.9905C50.8173,-335.592 0,-288.7396 0,-234 0,-234 0,-234 0,-162 0,-112.7637 40.3277,-68.7636 70.5151,-42.7245"/>
<polygon fill="#000000" stroke="#000000" points="72.9078,-45.286 78.3289,-36.1831 68.4144,-39.9185 72.9078,-45.286"/>
<g id="a_edge10&#45;headlabel"><a xlink:href="dir_000003_000005.html" target="_top" xlink:title="1">
<text text-anchor="middle" x="71.9741" y="-47.2705" font-family="Helvetica,sans-Serif" font-size="10.00" fill="#000000">1</text>
</a>
</g>
</g>
<!-- dir_2821c7f3ff716b7357153e2284349b47 -->
<g id="node3" class="node">
<title>dir_2821c7f3ff716b7357153e2284349b47</title>
<g id="a_node3"><a xlink:href="dir_2821c7f3ff716b7357153e2284349b47.html" target="_top" xlink:title="Chem">
<polygon fill="none" stroke="#000000" points="82,-252 28,-252 28,-216 82,-216 82,-252"/>
<text text-anchor="middle" x="55" y="-231.5" font-family="Helvetica,sans-Serif" font-size="10.00" fill="#000000">Chem</text>
</a>
</g>
</g>
<!-- dir_e60b3667286dd230b98f983f5ace3d9d&#45;&gt;dir_2821c7f3ff716b7357153e2284349b47 -->
<g id="edge11" class="edge">
<title>dir_e60b3667286dd230b98f983f5ace3d9d&#45;&gt;dir_2821c7f3ff716b7357153e2284349b47</title>
<path fill="none" stroke="#000000" d="M103.0342,-359.7623C93.5705,-334.9846 76.5689,-290.4714 65.5393,-261.5939"/>
<polygon fill="#000000" stroke="#000000" points="68.747,-260.1826 61.9092,-252.0896 62.2077,-262.6803 68.747,-260.1826"/>
<g id="a_edge11&#45;headlabel"><a xlink:href="dir_000003_000004.html" target="_top" xlink:title="1">
<text text-anchor="middle" x="72.6819" y="-260.0275" font-family="Helvetica,sans-Serif" font-size="10.00" fill="#000000">1</text>
</a>
</g>
</g>
<!-- dir_a11e439900186475800e797c0fd0ac6b -->
<g id="node4" class="node">
<title>dir_a11e439900186475800e797c0fd0ac6b</title>
<g id="a_node4"><a xlink:href="dir_a11e439900186475800e797c0fd0ac6b.html" target="_top" xlink:title="Math">
<polygon fill="none" stroke="#000000" points="158,-180 104,-180 104,-144 158,-144 158,-180"/>
<text text-anchor="middle" x="131" y="-159.5" font-family="Helvetica,sans-Serif" font-size="10.00" fill="#000000">Math</text>
</a>
</g>
</g>
<!-- dir_e60b3667286dd230b98f983f5ace3d9d&#45;&gt;dir_a11e439900186475800e797c0fd0ac6b -->
<g id="edge12" class="edge">
<title>dir_e60b3667286dd230b98f983f5ace3d9d&#45;&gt;dir_a11e439900186475800e797c0fd0ac6b</title>
<path fill="none" stroke="#000000" d="M111.7543,-359.9555C115.4139,-322.3144 123.8846,-235.1867 128.2657,-190.1246"/>
<polygon fill="#000000" stroke="#000000" points="131.7517,-190.4369 129.2359,-180.1451 124.7846,-189.7594 131.7517,-190.4369"/>
<g id="a_edge12&#45;headlabel"><a xlink:href="dir_000003_000001.html" target="_top" xlink:title="21">
<text text-anchor="middle" x="134.2299" y="-191.7893" font-family="Helvetica,sans-Serif" font-size="10.00" fill="#000000">21</text>
</a>
</g>
</g>
<!-- dir_5e8c3cb997677a4f5ba873b3f390ab24 -->
<g id="node5" class="node">
<title>dir_5e8c3cb997677a4f5ba873b3f390ab24</title>
<g id="a_node5"><a xlink:href="dir_5e8c3cb997677a4f5ba873b3f390ab24.html" target="_top" xlink:title="Pharm">
<polygon fill="none" stroke="#000000" points="192,-324 138,-324 138,-288 192,-288 192,-324"/>
<text text-anchor="middle" x="165" y="-303.5" font-family="Helvetica,sans-Serif" font-size="10.00" fill="#000000">Pharm</text>
</a>
</g>
</g>
<!-- dir_e60b3667286dd230b98f983f5ace3d9d&#45;&gt;dir_5e8c3cb997677a4f5ba873b3f390ab24 -->
<g id="edge13" class="edge">
<title>dir_e60b3667286dd230b98f983f5ace3d9d&#45;&gt;dir_5e8c3cb997677a4f5ba873b3f390ab24</title>
<path fill="none" stroke="#000000" d="M123.8788,-359.8314C130.2136,-351.5386 137.8384,-341.557 144.7926,-332.4533"/>
<polygon fill="#000000" stroke="#000000" points="147.6452,-334.4847 150.9343,-324.4133 142.0825,-330.2353 147.6452,-334.4847"/>
<g id="a_edge13&#45;headlabel"><a xlink:href="dir_000003_000013.html" target="_top" xlink:title="3">
<text text-anchor="middle" x="147.7195" y="-336.5647" font-family="Helvetica,sans-Serif" font-size="10.00" fill="#000000">3</text>
</a>
</g>
</g>
<!-- dir_c592efebd7ac9eb7f4dce0afc29c639f -->
<g id="node6" class="node">
<title>dir_c592efebd7ac9eb7f4dce0afc29c639f</title>
<g id="a_node6"><a xlink:href="dir_c592efebd7ac9eb7f4dce0afc29c639f.html" target="_top" xlink:title="Util">
<polygon fill="none" stroke="#000000" points="185,-108 131,-108 131,-72 185,-72 185,-108"/>
<text text-anchor="middle" x="158" y="-87.5" font-family="Helvetica,sans-Serif" font-size="10.00" fill="#000000">Util</text>
</a>
</g>
</g>
<!-- dir_e60b3667286dd230b98f983f5ace3d9d&#45;&gt;dir_c592efebd7ac9eb7f4dce0afc29c639f -->
<g id="edge14" class="edge">
<title>dir_e60b3667286dd230b98f983f5ace3d9d&#45;&gt;dir_c592efebd7ac9eb7f4dce0afc29c639f</title>
<path fill="none" stroke="#000000" d="M137.3047,-370.0514C158.8506,-362.1773 187.4557,-347.7867 201,-324 239.2576,-256.8112 198.5781,-162.7717 173.9439,-117.0698"/>
<polygon fill="#000000" stroke="#000000" points="176.8712,-115.131 168.9649,-108.0782 170.7473,-118.522 176.8712,-115.131"/>
<g id="a_edge14&#45;headlabel"><a xlink:href="dir_000003_000014.html" target="_top" xlink:title="2">
<text text-anchor="middle" x="181.0963" y="-114.4003" font-family="Helvetica,sans-Serif" font-size="10.00" fill="#000000">2</text>
</a>
</g>
</g>
<!-- dir_2821c7f3ff716b7357153e2284349b47&#45;&gt;dir_7ca0558073eba65288e02324c8ceb8f8 -->
<g id="edge1" class="edge">
<title>dir_2821c7f3ff716b7357153e2284349b47&#45;&gt;dir_7ca0558073eba65288e02324c8ceb8f8</title>
<path fill="none" stroke="#000000" d="M57.8051,-215.9951C60.7368,-197.7726 65.6491,-168.8218 71,-144 78.3153,-110.0658 88.3917,-71.4247 95.2706,-45.9821"/>
<polygon fill="#000000" stroke="#000000" points="98.6664,-46.8325 97.9162,-36.2643 91.9122,-44.9937 98.6664,-46.8325"/>
<g id="a_edge1&#45;headlabel"><a xlink:href="dir_000004_000005.html" target="_top" xlink:title="21">
<text text-anchor="middle" x="100.4618" y="-48.5467" font-family="Helvetica,sans-Serif" font-size="10.00" fill="#000000">21</text>
</a>
</g>
</g>
<!-- dir_2821c7f3ff716b7357153e2284349b47&#45;&gt;dir_a11e439900186475800e797c0fd0ac6b -->
<g id="edge2" class="edge">
<title>dir_2821c7f3ff716b7357153e2284349b47&#45;&gt;dir_a11e439900186475800e797c0fd0ac6b</title>
<path fill="none" stroke="#000000" d="M74.178,-215.8314C83.3588,-207.1337 94.5006,-196.5783 104.4776,-187.1265"/>
<polygon fill="#000000" stroke="#000000" points="106.9757,-189.5811 111.8281,-180.1628 102.1615,-184.4995 106.9757,-189.5811"/>
<g id="a_edge2&#45;headlabel"><a xlink:href="dir_000004_000001.html" target="_top" xlink:title="32">
<text text-anchor="middle" x="106.3189" y="-191.6145" font-family="Helvetica,sans-Serif" font-size="10.00" fill="#000000">32</text>
</a>
</g>
</g>
<!-- dir_2821c7f3ff716b7357153e2284349b47&#45;&gt;dir_c592efebd7ac9eb7f4dce0afc29c639f -->
<g id="edge3" class="edge">
<title>dir_2821c7f3ff716b7357153e2284349b47&#45;&gt;dir_c592efebd7ac9eb7f4dce0afc29c639f</title>
<path fill="none" stroke="#000000" d="M60.4097,-215.8466C66.6872,-196.727 78.3512,-166.3518 95,-144 103.0801,-133.152 113.7086,-122.997 123.9289,-114.486"/>
<polygon fill="#000000" stroke="#000000" points="126.3679,-117.0166 131.9813,-108.031 121.9896,-111.5548 126.3679,-117.0166"/>
<g id="a_edge3&#45;headlabel"><a xlink:href="dir_000004_000014.html" target="_top" xlink:title="189">
<text text-anchor="middle" x="125.3391" y="-118.9802" font-family="Helvetica,sans-Serif" font-size="10.00" fill="#000000">189</text>
</a>
</g>
</g>
<!-- dir_a11e439900186475800e797c0fd0ac6b&#45;&gt;dir_7ca0558073eba65288e02324c8ceb8f8 -->
<g id="edge4" class="edge">
<title>dir_a11e439900186475800e797c0fd0ac6b&#45;&gt;dir_7ca0558073eba65288e02324c8ceb8f8</title>
<path fill="none" stroke="#000000" d="M127.4538,-143.7623C122.6569,-119.0928 114.0561,-74.8598 108.4392,-45.9731"/>
<polygon fill="#000000" stroke="#000000" points="111.8619,-45.2377 106.5174,-36.0896 104.9905,-46.5738 111.8619,-45.2377"/>
<g id="a_edge4&#45;headlabel"><a xlink:href="dir_000001_000005.html" target="_top" xlink:title="19">
<text text-anchor="middle" x="115.335" y="-45.7243" font-family="Helvetica,sans-Serif" font-size="10.00" fill="#000000">19</text>
</a>
</g>
</g>
<!-- dir_a11e439900186475800e797c0fd0ac6b&#45;&gt;dir_c592efebd7ac9eb7f4dce0afc29c639f -->
<g id="edge5" class="edge">
<title>dir_a11e439900186475800e797c0fd0ac6b&#45;&gt;dir_c592efebd7ac9eb7f4dce0afc29c639f</title>
<path fill="none" stroke="#000000" d="M137.8132,-143.8314C140.7644,-135.9617 144.2858,-126.5712 147.555,-117.8533"/>
<polygon fill="#000000" stroke="#000000" points="150.8609,-119.0055 151.095,-108.4133 144.3066,-116.5476 150.8609,-119.0055"/>
<g id="a_edge5&#45;headlabel"><a xlink:href="dir_000001_000014.html" target="_top" xlink:title="2">
<text text-anchor="middle" x="152.2573" y="-120.8682" font-family="Helvetica,sans-Serif" font-size="10.00" fill="#000000">2</text>
</a>
</g>
</g>
<!-- dir_5e8c3cb997677a4f5ba873b3f390ab24&#45;&gt;dir_7ca0558073eba65288e02324c8ceb8f8 -->
<g id="edge6" class="edge">
<title>dir_5e8c3cb997677a4f5ba873b3f390ab24&#45;&gt;dir_7ca0558073eba65288e02324c8ceb8f8</title>
<path fill="none" stroke="#000000" d="M174.2245,-287.831C193.8205,-246.463 234.6124,-143.3242 194,-72 182.3604,-51.5583 159.598,-38.0559 139.7517,-29.6651"/>
<polygon fill="#000000" stroke="#000000" points="140.8919,-26.3526 130.3047,-25.9486 138.3292,-32.8667 140.8919,-26.3526"/>
<g id="a_edge6&#45;headlabel"><a xlink:href="dir_000013_000005.html" target="_top" xlink:title="9">
<text text-anchor="middle" x="145.2764" y="-22.5264" font-family="Helvetica,sans-Serif" font-size="10.00" fill="#000000">9</text>
</a>
</g>
</g>
<!-- dir_5e8c3cb997677a4f5ba873b3f390ab24&#45;&gt;dir_2821c7f3ff716b7357153e2284349b47 -->
<g id="edge7" class="edge">
<title>dir_5e8c3cb997677a4f5ba873b3f390ab24&#45;&gt;dir_2821c7f3ff716b7357153e2284349b47</title>
<path fill="none" stroke="#000000" d="M137.809,-288.2022C123.6622,-278.9425 106.1843,-267.5025 90.937,-257.5224"/>
<polygon fill="#000000" stroke="#000000" points="92.5433,-254.3907 82.2594,-251.8425 88.7097,-260.2476 92.5433,-254.3907"/>
<g id="a_edge7&#45;headlabel"><a xlink:href="dir_000013_000004.html" target="_top" xlink:title="15">
<text text-anchor="middle" x="97.1058" y="-251.4837" font-family="Helvetica,sans-Serif" font-size="10.00" fill="#000000">15</text>
</a>
</g>
</g>
<!-- dir_5e8c3cb997677a4f5ba873b3f390ab24&#45;&gt;dir_a11e439900186475800e797c0fd0ac6b -->
<g id="edge8" class="edge">
<title>dir_5e8c3cb997677a4f5ba873b3f390ab24&#45;&gt;dir_a11e439900186475800e797c0fd0ac6b</title>
<path fill="none" stroke="#000000" d="M160.6939,-287.7623C154.8691,-263.0928 144.4252,-218.8598 137.6048,-189.9731"/>
<polygon fill="#000000" stroke="#000000" points="140.9755,-189.0177 135.2712,-180.0896 134.1628,-190.6263 140.9755,-189.0177"/>
<g id="a_edge8&#45;headlabel"><a xlink:href="dir_000013_000001.html" target="_top" xlink:title="15">
<text text-anchor="middle" x="144.5647" y="-189.3637" font-family="Helvetica,sans-Serif" font-size="10.00" fill="#000000">15</text>
</a>
</g>
</g>
<!-- dir_5e8c3cb997677a4f5ba873b3f390ab24&#45;&gt;dir_c592efebd7ac9eb7f4dce0afc29c639f -->
<g id="edge9" class="edge">
<title>dir_5e8c3cb997677a4f5ba873b3f390ab24&#45;&gt;dir_c592efebd7ac9eb7f4dce0afc29c639f</title>
<path fill="none" stroke="#000000" d="M166.3347,-287.9815C168.304,-258.0318 171.3151,-196.1382 167,-144 166.3055,-135.6085 165.0138,-126.5578 163.6214,-118.3092"/>
<polygon fill="#000000" stroke="#000000" points="167.0544,-117.6235 161.8413,-108.3999 160.1647,-118.8612 167.0544,-117.6235"/>
<g id="a_edge9&#45;headlabel"><a xlink:href="dir_000013_000014.html" target="_top" xlink:title="26">
<text text-anchor="middle" x="170.4844" y="-118.1595" font-family="Helvetica,sans-Serif" font-size="10.00" fill="#000000">26</text>
</a>
</g>
</g>
<!-- dir_c592efebd7ac9eb7f4dce0afc29c639f&#45;&gt;dir_7ca0558073eba65288e02324c8ceb8f8 -->
<g id="edge15" class="edge">
<title>dir_c592efebd7ac9eb7f4dce0afc29c639f&#45;&gt;dir_7ca0558073eba65288e02324c8ceb8f8</title>
<path fill="none" stroke="#000000" d="M144.1212,-71.8314C137.7864,-63.5386 130.1616,-53.557 123.2074,-44.4533"/>
<polygon fill="#000000" stroke="#000000" points="125.9175,-42.2353 117.0657,-36.4133 120.3548,-46.4847 125.9175,-42.2353"/>
<g id="a_edge15&#45;headlabel"><a xlink:href="dir_000014_000005.html" target="_top" xlink:title="25">
<text text-anchor="middle" x="130.3558" y="-40.8683" font-family="Helvetica,sans-Serif" font-size="10.00" fill="#000000">25</text>
</a>
</g>
</g>
</g>
</svg>
