<?xml version="1.0" encoding="UTF-8" standalone="no"?>
<!DOCTYPE svg PUBLIC "-//W3C//DTD SVG 1.1//EN"
 "http://www.w3.org/Graphics/SVG/1.1/DTD/svg11.dtd">
<!-- Generated by graphviz version 2.44.0 (0)
 -->
<!-- Title: GRAIL Pages: 1 -->
<svg width="260pt" height="367pt"
 viewBox="0.00 0.00 260.43 367.00" xmlns="http://www.w3.org/2000/svg" xmlns:xlink="http://www.w3.org/1999/xlink">
<g id="graph0" class="graph" transform="scale(1 1) rotate(0) translate(4 363)">
<title>GRAIL</title>
<g id="clust1" class="cluster">
<title>clusterdir_d9e3ca1242923a0f3e299c3c2535cd81</title>
<g id="a_clust1"><a xlink:href="dir_d9e3ca1242923a0f3e299c3c2535cd81.html" target="_top" xlink:title="CDPL">
<polygon fill="#ddddee" stroke="black" points="123,-280 123,-351 193,-351 193,-280 123,-280"/>
<text text-anchor="middle" x="158" y="-339" font-family="Helvetica" font-size="10.00">CDPL</text>
</a>
</g>
</g>
<!-- dir_63172153952ece9cd58d985c57b76252 -->
<g id="node1" class="node">
<title>dir_63172153952ece9cd58d985c57b76252</title>
<g id="a_node1"><a xlink:href="dir_63172153952ece9cd58d985c57b76252.html" target="_top" xlink:title="GRAIL">
<polygon fill="#eeeeff" stroke="black" points="185,-324 131,-324 131,-288 185,-288 185,-324"/>
<text text-anchor="middle" x="158" y="-303.5" font-family="Helvetica" font-size="10.00">GRAIL</text>
</a>
</g>
</g>
<!-- dir_8e68467dd8a3f99c322490b7fb276a25 -->
<g id="node2" class="node">
<title>dir_8e68467dd8a3f99c322490b7fb276a25</title>
<g id="a_node2"><a xlink:href="dir_8e68467dd8a3f99c322490b7fb276a25.html" target="_top" xlink:title="Grid">
<polygon fill="none" stroke="black" points="54,-180 0,-180 0,-144 54,-144 54,-180"/>
<text text-anchor="middle" x="27" y="-159.5" font-family="Helvetica" font-size="10.00">Grid</text>
</a>
</g>
</g>
<!-- dir_63172153952ece9cd58d985c57b76252&#45;&gt;dir_8e68467dd8a3f99c322490b7fb276a25 -->
<g id="edge6" class="edge">
<title>dir_63172153952ece9cd58d985c57b76252&#45;&gt;dir_8e68467dd8a3f99c322490b7fb276a25</title>
<path fill="none" stroke="black" d="M130.63,-294.19C111.07,-285.32 85.27,-271.1 68,-252 51.85,-234.14 41.02,-208.82 34.57,-189.75"/>
<polygon fill="black" stroke="black" points="37.88,-188.61 31.51,-180.15 31.22,-190.74 37.88,-188.61"/>
<g id="a_edge6&#45;headlabel"><a xlink:href="dir_000010_000011.html" target="_top" xlink:title="4">
<text text-anchor="middle" x="41.68" y="-188.68" font-family="Helvetica" font-size="10.00">4</text>
</a>
</g>
</g>
<!-- dir_2821c7f3ff716b7357153e2284349b47 -->
<g id="node3" class="node">
<title>dir_2821c7f3ff716b7357153e2284349b47</title>
<g id="a_node3"><a xlink:href="dir_2821c7f3ff716b7357153e2284349b47.html" target="_top" xlink:title="Chem">
<polygon fill="none" stroke="black" points="240,-180 186,-180 186,-144 240,-144 240,-180"/>
<text text-anchor="middle" x="213" y="-159.5" font-family="Helvetica" font-size="10.00">Chem</text>
</a>
</g>
</g>
<!-- dir_63172153952ece9cd58d985c57b76252&#45;&gt;dir_2821c7f3ff716b7357153e2284349b47 -->
<g id="edge7" class="edge">
<title>dir_63172153952ece9cd58d985c57b76252&#45;&gt;dir_2821c7f3ff716b7357153e2284349b47</title>
<path fill="none" stroke="black" d="M172.16,-287.85C179.69,-277.93 188.5,-264.89 194,-252 202.41,-232.29 207.24,-208.49 209.93,-190.46"/>
<polygon fill="black" stroke="black" points="213.43,-190.71 211.3,-180.33 206.49,-189.76 213.43,-190.71"/>
<g id="a_edge7&#45;headlabel"><a xlink:href="dir_000010_000004.html" target="_top" xlink:title="6">
<text text-anchor="middle" x="215.76" y="-192.15" font-family="Helvetica" font-size="10.00">6</text>
</a>
</g>
</g>
<!-- dir_a11e439900186475800e797c0fd0ac6b -->
<g id="node4" class="node">
<title>dir_a11e439900186475800e797c0fd0ac6b</title>
<g id="a_node4"><a xlink:href="dir_a11e439900186475800e797c0fd0ac6b.html" target="_top" xlink:title="Math">
<polygon fill="none" stroke="black" points="130,-108 76,-108 76,-72 130,-72 130,-108"/>
<text text-anchor="middle" x="103" y="-87.5" font-family="Helvetica" font-size="10.00">Math</text>
</a>
</g>
</g>
<!-- dir_63172153952ece9cd58d985c57b76252&#45;&gt;dir_a11e439900186475800e797c0fd0ac6b -->
<g id="edge8" class="edge">
<title>dir_63172153952ece9cd58d985c57b76252&#45;&gt;dir_a11e439900186475800e797c0fd0ac6b</title>
<path fill="none" stroke="black" d="M143,-287.57C135.42,-277.76 126.82,-264.92 122,-252 105.3,-207.22 102.39,-151.01 102.33,-118.24"/>
<polygon fill="black" stroke="black" points="105.83,-118.09 102.4,-108.07 98.83,-118.04 105.83,-118.09"/>
<g id="a_edge8&#45;headlabel"><a xlink:href="dir_000010_000001.html" target="_top" xlink:title="15">
<text text-anchor="middle" x="108.64" y="-119.21" font-family="Helvetica" font-size="10.00">15</text>
</a>
</g>
</g>
<!-- dir_5e8c3cb997677a4f5ba873b3f390ab24 -->
<g id="node5" class="node">
<title>dir_5e8c3cb997677a4f5ba873b3f390ab24</title>
<g id="a_node5"><a xlink:href="dir_5e8c3cb997677a4f5ba873b3f390ab24.html" target="_top" xlink:title="Pharm">
<polygon fill="none" stroke="black" points="185,-252 131,-252 131,-216 185,-216 185,-252"/>
<text text-anchor="middle" x="158" y="-231.5" font-family="Helvetica" font-size="10.00">Pharm</text>
</a>
</g>
</g>
<!-- dir_63172153952ece9cd58d985c57b76252&#45;&gt;dir_5e8c3cb997677a4f5ba873b3f390ab24 -->
<g id="edge9" class="edge">
<title>dir_63172153952ece9cd58d985c57b76252&#45;&gt;dir_5e8c3cb997677a4f5ba873b3f390ab24</title>
<path fill="none" stroke="black" d="M158,-287.7C158,-279.98 158,-270.71 158,-262.11"/>
<polygon fill="black" stroke="black" points="161.5,-262.1 158,-252.1 154.5,-262.1 161.5,-262.1"/>
<g id="a_edge9&#45;headlabel"><a xlink:href="dir_000010_000013.html" target="_top" xlink:title="3">
<text text-anchor="middle" x="164.34" y="-263.2" font-family="Helvetica" font-size="10.00">3</text>
</a>
</g>
</g>
<!-- dir_c592efebd7ac9eb7f4dce0afc29c639f -->
<g id="node6" class="node">
<title>dir_c592efebd7ac9eb7f4dce0afc29c639f</title>
<g id="a_node6"><a xlink:href="dir_c592efebd7ac9eb7f4dce0afc29c639f.html" target="_top" xlink:title="Util">
<polygon fill="none" stroke="black" points="185,-36 131,-36 131,0 185,0 185,-36"/>
<text text-anchor="middle" x="158" y="-15.5" font-family="Helvetica" font-size="10.00">Util</text>
</a>
</g>
</g>
<!-- dir_63172153952ece9cd58d985c57b76252&#45;&gt;dir_c592efebd7ac9eb7f4dce0afc29c639f -->
<g id="edge10" class="edge">
<title>dir_63172153952ece9cd58d985c57b76252&#45;&gt;dir_c592efebd7ac9eb7f4dce0afc29c639f</title>
<path fill="none" stroke="black" d="M179.15,-287.82C211.18,-259.57 266.48,-200.77 249,-144 236.79,-104.36 206.16,-67.03 183.8,-43.66"/>
<polygon fill="black" stroke="black" points="186.07,-40.98 176.57,-36.29 181.08,-45.88 186.07,-40.98"/>
<g id="a_edge10&#45;headlabel"><a xlink:href="dir_000010_000014.html" target="_top" xlink:title="1">
<text text-anchor="middle" x="190.62" y="-39.06" font-family="Helvetica" font-size="10.00">1</text>
</a>
</g>
</g>
<!-- dir_8e68467dd8a3f99c322490b7fb276a25&#45;&gt;dir_a11e439900186475800e797c0fd0ac6b -->
<g id="edge1" class="edge">
<title>dir_8e68467dd8a3f99c322490b7fb276a25&#45;&gt;dir_a11e439900186475800e797c0fd0ac6b</title>
<path fill="none" stroke="black" d="M45.79,-143.7C55.17,-135.05 66.68,-124.45 76.91,-115.03"/>
<polygon fill="black" stroke="black" points="79.45,-117.45 84.43,-108.1 74.7,-112.3 79.45,-117.45"/>
<g id="a_edge1&#45;headlabel"><a xlink:href="dir_000011_000001.html" target="_top" xlink:title="2">
<text text-anchor="middle" x="78.72" y="-119.48" font-family="Helvetica" font-size="10.00">2</text>
</a>
</g>
</g>
<!-- dir_8e68467dd8a3f99c322490b7fb276a25&#45;&gt;dir_c592efebd7ac9eb7f4dce0afc29c639f -->
<g id="edge2" class="edge">
<title>dir_8e68467dd8a3f99c322490b7fb276a25&#45;&gt;dir_c592efebd7ac9eb7f4dce0afc29c639f</title>
<path fill="none" stroke="black" d="M31.28,-143.83C36.82,-124.49 48.07,-93.03 67,-72 81.89,-55.45 103.21,-42.66 121.47,-33.78"/>
<polygon fill="black" stroke="black" points="123.09,-36.89 130.69,-29.5 120.14,-30.54 123.09,-36.89"/>
<g id="a_edge2&#45;headlabel"><a xlink:href="dir_000011_000014.html" target="_top" xlink:title="27">
<text text-anchor="middle" x="121.02" y="-38.48" font-family="Helvetica" font-size="10.00">27</text>
</a>
</g>
</g>
<!-- dir_2821c7f3ff716b7357153e2284349b47&#45;&gt;dir_a11e439900186475800e797c0fd0ac6b -->
<g id="edge3" class="edge">
<title>dir_2821c7f3ff716b7357153e2284349b47&#45;&gt;dir_a11e439900186475800e797c0fd0ac6b</title>
<path fill="none" stroke="black" d="M186.09,-143.88C171.84,-134.81 154.15,-123.55 138.76,-113.76"/>
<polygon fill="black" stroke="black" points="140.33,-110.61 130.01,-108.19 136.57,-116.51 140.33,-110.61"/>
<g id="a_edge3&#45;headlabel"><a xlink:href="dir_000004_000001.html" target="_top" xlink:title="32">
<text text-anchor="middle" x="144.89" y="-107.64" font-family="Helvetica" font-size="10.00">32</text>
</a>
</g>
</g>
<!-- dir_2821c7f3ff716b7357153e2284349b47&#45;&gt;dir_c592efebd7ac9eb7f4dce0afc29c639f -->
<g id="edge4" class="edge">
<title>dir_2821c7f3ff716b7357153e2284349b47&#45;&gt;dir_c592efebd7ac9eb7f4dce0afc29c639f</title>
<path fill="none" stroke="black" d="M206.37,-143.87C196.91,-119.46 179.47,-74.43 168.32,-45.64"/>
<polygon fill="black" stroke="black" points="171.53,-44.25 164.66,-36.19 165.01,-46.78 171.53,-44.25"/>
<g id="a_edge4&#45;headlabel"><a xlink:href="dir_000004_000014.html" target="_top" xlink:title="191">
<text text-anchor="middle" x="175.48" y="-44.08" font-family="Helvetica" font-size="10.00">191</text>
</a>
</g>
</g>
<!-- dir_a11e439900186475800e797c0fd0ac6b&#45;&gt;dir_c592efebd7ac9eb7f4dce0afc29c639f -->
<g id="edge5" class="edge">
<title>dir_a11e439900186475800e797c0fd0ac6b&#45;&gt;dir_c592efebd7ac9eb7f4dce0afc29c639f</title>
<path fill="none" stroke="black" d="M116.6,-71.7C123.12,-63.39 131.07,-53.28 138.25,-44.14"/>
<polygon fill="black" stroke="black" points="141.13,-46.13 144.56,-36.1 135.63,-41.81 141.13,-46.13"/>
<g id="a_edge5&#45;headlabel"><a xlink:href="dir_000001_000014.html" target="_top" xlink:title="2">
<text text-anchor="middle" x="141.15" y="-48.21" font-family="Helvetica" font-size="10.00">2</text>
</a>
</g>
</g>
<!-- dir_5e8c3cb997677a4f5ba873b3f390ab24&#45;&gt;dir_2821c7f3ff716b7357153e2284349b47 -->
<g id="edge11" class="edge">
<title>dir_5e8c3cb997677a4f5ba873b3f390ab24&#45;&gt;dir_2821c7f3ff716b7357153e2284349b47</title>
<path fill="none" stroke="black" d="M171.6,-215.7C178.12,-207.39 186.07,-197.28 193.25,-188.14"/>
<polygon fill="black" stroke="black" points="196.13,-190.13 199.56,-180.1 190.63,-185.81 196.13,-190.13"/>
<g id="a_edge11&#45;headlabel"><a xlink:href="dir_000013_000004.html" target="_top" xlink:title="15">
<text text-anchor="middle" x="196.15" y="-192.21" font-family="Helvetica" font-size="10.00">15</text>
</a>
</g>
</g>
<!-- dir_5e8c3cb997677a4f5ba873b3f390ab24&#45;&gt;dir_a11e439900186475800e797c0fd0ac6b -->
<g id="edge12" class="edge">
<title>dir_5e8c3cb997677a4f5ba873b3f390ab24&#45;&gt;dir_a11e439900186475800e797c0fd0ac6b</title>
<path fill="none" stroke="black" d="M151.37,-215.87C141.91,-191.46 124.47,-146.43 113.32,-117.64"/>
<polygon fill="black" stroke="black" points="116.53,-116.25 109.66,-108.19 110.01,-118.78 116.53,-116.25"/>
<g id="a_edge12&#45;headlabel"><a xlink:href="dir_000013_000001.html" target="_top" xlink:title="15">
<text text-anchor="middle" x="120.48" y="-116.08" font-family="Helvetica" font-size="10.00">15</text>
</a>
</g>
</g>
<!-- dir_5e8c3cb997677a4f5ba873b3f390ab24&#45;&gt;dir_c592efebd7ac9eb7f4dce0afc29c639f -->
<g id="edge13" class="edge">
<title>dir_5e8c3cb997677a4f5ba873b3f390ab24&#45;&gt;dir_c592efebd7ac9eb7f4dce0afc29c639f</title>
<path fill="none" stroke="black" d="M158,-215.85C158,-178.83 158,-91.18 158,-46.39"/>
<polygon fill="black" stroke="black" points="161.5,-46.23 158,-36.23 154.5,-46.23 161.5,-46.23"/>
<g id="a_edge13&#45;headlabel"><a xlink:href="dir_000013_000014.html" target="_top" xlink:title="26">
<text text-anchor="middle" x="164.34" y="-47.33" font-family="Helvetica" font-size="10.00">26</text>
</a>
</g>
</g>
</g>
</svg>
