<?xml version="1.0" encoding="UTF-8" standalone="no"?>
<!DOCTYPE svg PUBLIC "-//W3C//DTD SVG 1.1//EN"
 "http://www.w3.org/Graphics/SVG/1.1/DTD/svg11.dtd">
<!-- Generated by graphviz version 2.44.0 (0)
 -->
<!-- Title: Vis Pages: 1 -->
<svg width="174pt" height="383pt"
 viewBox="0.00 0.00 174.00 383.00" xmlns="http://www.w3.org/2000/svg" xmlns:xlink="http://www.w3.org/1999/xlink">
<g id="graph0" class="graph" transform="scale(1 1) rotate(0) translate(4 379)">
<title>Vis</title>
<g id="clust1" class="cluster">
<title>clusterdir_13e5b888d4d8e2bc4637fdf598186b4c</title>
<g id="a_clust1"><a xlink:href="dir_13e5b888d4d8e2bc4637fdf598186b4c.html" target="_top" xlink:title="CDPL">
<polygon fill="#ddddee" stroke="black" points="8,-8 8,-367 158,-367 158,-8 8,-8"/>
<text text-anchor="middle" x="83" y="-355" font-family="Helvetica" font-size="10.00">CDPL</text>
</a>
</g>
</g>
<!-- dir_239469eeca6d3c1a97f8d4fbb99adcb8 -->
<g id="node1" class="node">
<title>dir_239469eeca6d3c1a97f8d4fbb99adcb8</title>
<g id="a_node1"><a xlink:href="dir_239469eeca6d3c1a97f8d4fbb99adcb8.html" target="_top" xlink:title="Util">
<polygon fill="none" stroke="black" points="90,-124 36,-124 36,-88 90,-88 90,-124"/>
<text text-anchor="middle" x="63" y="-103.5" font-family="Helvetica" font-size="10.00">Util</text>
</a>
</g>
</g>
<!-- dir_ea97f66d84072e3323f941252a229abf -->
<g id="node4" class="node">
<title>dir_ea97f66d84072e3323f941252a229abf</title>
<g id="a_node4"><a xlink:href="dir_ea97f66d84072e3323f941252a229abf.html" target="_top" xlink:title="Base">
<polygon fill="none" stroke="black" points="113,-52 59,-52 59,-16 113,-16 113,-52"/>
<text text-anchor="middle" x="86" y="-31.5" font-family="Helvetica" font-size="10.00">Base</text>
</a>
</g>
</g>
<!-- dir_239469eeca6d3c1a97f8d4fbb99adcb8&#45;&gt;dir_ea97f66d84072e3323f941252a229abf -->
<g id="edge7" class="edge">
<title>dir_239469eeca6d3c1a97f8d4fbb99adcb8&#45;&gt;dir_ea97f66d84072e3323f941252a229abf</title>
<path fill="none" stroke="black" d="M68.69,-87.7C71.25,-79.9 74.33,-70.51 77.18,-61.83"/>
<polygon fill="black" stroke="black" points="80.58,-62.7 80.38,-52.1 73.93,-60.51 80.58,-62.7"/>
<g id="a_edge7&#45;headlabel"><a xlink:href="dir_000014_000005.html" target="_top" xlink:title="25">
<text text-anchor="middle" x="82.16" y="-64.5" font-family="Helvetica" font-size="10.00">25</text>
</a>
</g>
</g>
<!-- dir_76ec631f4004f297aa98c89994166e73 -->
<g id="node2" class="node">
<title>dir_76ec631f4004f297aa98c89994166e73</title>
<g id="a_node2"><a xlink:href="dir_76ec631f4004f297aa98c89994166e73.html" target="_top" xlink:title="Math">
<polygon fill="none" stroke="black" points="130,-196 76,-196 76,-160 130,-160 130,-196"/>
<text text-anchor="middle" x="103" y="-175.5" font-family="Helvetica" font-size="10.00">Math</text>
</a>
</g>
</g>
<!-- dir_76ec631f4004f297aa98c89994166e73&#45;&gt;dir_239469eeca6d3c1a97f8d4fbb99adcb8 -->
<g id="edge1" class="edge">
<title>dir_76ec631f4004f297aa98c89994166e73&#45;&gt;dir_239469eeca6d3c1a97f8d4fbb99adcb8</title>
<path fill="none" stroke="black" d="M93.11,-159.7C88.51,-151.64 82.94,-141.89 77.85,-132.98"/>
<polygon fill="black" stroke="black" points="80.77,-131.05 72.77,-124.1 74.7,-134.52 80.77,-131.05"/>
<g id="a_edge1&#45;headlabel"><a xlink:href="dir_000001_000014.html" target="_top" xlink:title="2">
<text text-anchor="middle" x="85.02" y="-130.26" font-family="Helvetica" font-size="10.00">2</text>
</a>
</g>
</g>
<!-- dir_76ec631f4004f297aa98c89994166e73&#45;&gt;dir_ea97f66d84072e3323f941252a229abf -->
<g id="edge2" class="edge">
<title>dir_76ec631f4004f297aa98c89994166e73&#45;&gt;dir_ea97f66d84072e3323f941252a229abf</title>
<path fill="none" stroke="black" d="M103.22,-159.85C103.22,-141.85 102.56,-112.8 99,-88 97.77,-79.43 95.76,-70.22 93.68,-61.92"/>
<polygon fill="black" stroke="black" points="97.01,-60.8 91.07,-52.02 90.24,-62.58 97.01,-60.8"/>
<g id="a_edge2&#45;headlabel"><a xlink:href="dir_000001_000005.html" target="_top" xlink:title="19">
<text text-anchor="middle" x="100.67" y="-61.05" font-family="Helvetica" font-size="10.00">19</text>
</a>
</g>
</g>
<!-- dir_a73e1d15e6da56bea42fb33a94074c1c -->
<g id="node3" class="node">
<title>dir_a73e1d15e6da56bea42fb33a94074c1c</title>
<g id="a_node3"><a xlink:href="dir_a73e1d15e6da56bea42fb33a94074c1c.html" target="_top" xlink:title="Chem">
<polygon fill="none" stroke="black" points="70,-268 16,-268 16,-232 70,-232 70,-268"/>
<text text-anchor="middle" x="43" y="-247.5" font-family="Helvetica" font-size="10.00">Chem</text>
</a>
</g>
</g>
<!-- dir_a73e1d15e6da56bea42fb33a94074c1c&#45;&gt;dir_239469eeca6d3c1a97f8d4fbb99adcb8 -->
<g id="edge8" class="edge">
<title>dir_a73e1d15e6da56bea42fb33a94074c1c&#45;&gt;dir_239469eeca6d3c1a97f8d4fbb99adcb8</title>
<path fill="none" stroke="black" d="M44.2,-231.87C45.59,-213.9 48.17,-184.87 52,-160 53.31,-151.51 55.08,-142.33 56.83,-134.03"/>
<polygon fill="black" stroke="black" points="60.28,-134.62 58.98,-124.1 53.44,-133.13 60.28,-134.62"/>
<g id="a_edge8&#45;headlabel"><a xlink:href="dir_000004_000014.html" target="_top" xlink:title="204">
<text text-anchor="middle" x="62.29" y="-136.23" font-family="Helvetica" font-size="10.00">204</text>
</a>
</g>
</g>
<!-- dir_a73e1d15e6da56bea42fb33a94074c1c&#45;&gt;dir_76ec631f4004f297aa98c89994166e73 -->
<g id="edge9" class="edge">
<title>dir_a73e1d15e6da56bea42fb33a94074c1c&#45;&gt;dir_76ec631f4004f297aa98c89994166e73</title>
<path fill="none" stroke="black" d="M57.83,-231.7C65.02,-223.3 73.8,-213.07 81.69,-203.86"/>
<polygon fill="black" stroke="black" points="84.49,-205.97 88.34,-196.1 79.17,-201.42 84.49,-205.97"/>
<g id="a_edge9&#45;headlabel"><a xlink:href="dir_000004_000001.html" target="_top" xlink:title="32">
<text text-anchor="middle" x="84.31" y="-208.05" font-family="Helvetica" font-size="10.00">32</text>
</a>
</g>
</g>
<!-- dir_a73e1d15e6da56bea42fb33a94074c1c&#45;&gt;dir_ea97f66d84072e3323f941252a229abf -->
<g id="edge10" class="edge">
<title>dir_a73e1d15e6da56bea42fb33a94074c1c&#45;&gt;dir_ea97f66d84072e3323f941252a229abf</title>
<path fill="none" stroke="black" d="M35.84,-231.65C24.4,-201.13 5.38,-136.49 27,-88 32.17,-76.41 41.27,-66.29 50.79,-58.09"/>
<polygon fill="black" stroke="black" points="53.2,-60.65 58.82,-51.66 48.83,-55.18 53.2,-60.65"/>
<g id="a_edge10&#45;headlabel"><a xlink:href="dir_000004_000005.html" target="_top" xlink:title="22">
<text text-anchor="middle" x="52.17" y="-62.61" font-family="Helvetica" font-size="10.00">22</text>
</a>
</g>
</g>
<!-- dir_56c96f24a7ae97bf7f34b6e3938ad4c7 -->
<g id="node5" class="node">
<title>dir_56c96f24a7ae97bf7f34b6e3938ad4c7</title>
<g id="a_node5"><a xlink:href="dir_56c96f24a7ae97bf7f34b6e3938ad4c7.html" target="_top" xlink:title="Vis">
<polygon fill="#eeeeff" stroke="black" points="126,-340 72,-340 72,-304 126,-304 126,-340"/>
<text text-anchor="middle" x="99" y="-319.5" font-family="Helvetica" font-size="10.00">Vis</text>
</a>
</g>
</g>
<!-- dir_56c96f24a7ae97bf7f34b6e3938ad4c7&#45;&gt;dir_239469eeca6d3c1a97f8d4fbb99adcb8 -->
<g id="edge3" class="edge">
<title>dir_56c96f24a7ae97bf7f34b6e3938ad4c7&#45;&gt;dir_239469eeca6d3c1a97f8d4fbb99adcb8</title>
<path fill="none" stroke="black" d="M95.67,-303.81C92.06,-285.79 85.88,-256.72 79,-232 74.48,-215.75 70.07,-212.58 67,-196 63.22,-175.6 62.3,-152.14 62.29,-134.43"/>
<polygon fill="black" stroke="black" points="65.79,-134.25 62.37,-124.22 58.79,-134.19 65.79,-134.25"/>
<g id="a_edge3&#45;headlabel"><a xlink:href="dir_000002_000014.html" target="_top" xlink:title="15">
<text text-anchor="middle" x="68.59" y="-135.37" font-family="Helvetica" font-size="10.00">15</text>
</a>
</g>
</g>
<!-- dir_56c96f24a7ae97bf7f34b6e3938ad4c7&#45;&gt;dir_76ec631f4004f297aa98c89994166e73 -->
<g id="edge4" class="edge">
<title>dir_56c96f24a7ae97bf7f34b6e3938ad4c7&#45;&gt;dir_76ec631f4004f297aa98c89994166e73</title>
<path fill="none" stroke="black" d="M99.48,-303.87C100.16,-279.67 101.42,-235.21 102.23,-206.39"/>
<polygon fill="black" stroke="black" points="105.73,-206.28 102.52,-196.19 98.74,-206.09 105.73,-206.28"/>
<g id="a_edge4&#45;headlabel"><a xlink:href="dir_000002_000001.html" target="_top" xlink:title="14">
<text text-anchor="middle" x="108.47" y="-207.46" font-family="Helvetica" font-size="10.00">14</text>
</a>
</g>
</g>
<!-- dir_56c96f24a7ae97bf7f34b6e3938ad4c7&#45;&gt;dir_a73e1d15e6da56bea42fb33a94074c1c -->
<g id="edge5" class="edge">
<title>dir_56c96f24a7ae97bf7f34b6e3938ad4c7&#45;&gt;dir_a73e1d15e6da56bea42fb33a94074c1c</title>
<path fill="none" stroke="black" d="M85.16,-303.7C78.51,-295.39 70.42,-285.28 63.11,-276.14"/>
<polygon fill="black" stroke="black" points="65.66,-273.73 56.68,-268.1 60.2,-278.1 65.66,-273.73"/>
<g id="a_edge5&#45;headlabel"><a xlink:href="dir_000002_000004.html" target="_top" xlink:title="1">
<text text-anchor="middle" x="70.13" y="-272.26" font-family="Helvetica" font-size="10.00">1</text>
</a>
</g>
</g>
<!-- dir_56c96f24a7ae97bf7f34b6e3938ad4c7&#45;&gt;dir_ea97f66d84072e3323f941252a229abf -->
<g id="edge6" class="edge">
<title>dir_56c96f24a7ae97bf7f34b6e3938ad4c7&#45;&gt;dir_ea97f66d84072e3323f941252a229abf</title>
<path fill="none" stroke="black" d="M108.49,-303.72C123.44,-274.36 149.73,-212.78 139,-160 131.71,-124.11 113.74,-85.74 100.75,-61.12"/>
<polygon fill="black" stroke="black" points="103.7,-59.22 95.87,-52.08 97.54,-62.54 103.7,-59.22"/>
<g id="a_edge6&#45;headlabel"><a xlink:href="dir_000002_000005.html" target="_top" xlink:title="11">
<text text-anchor="middle" x="107.9" y="-58.54" font-family="Helvetica" font-size="10.00">11</text>
</a>
</g>
</g>
</g>
</svg>
