<?xml version="1.0" encoding="UTF-8" standalone="no"?>
<!DOCTYPE svg PUBLIC "-//W3C//DTD SVG 1.1//EN"
 "http://www.w3.org/Graphics/SVG/1.1/DTD/svg11.dtd">
<!-- Generated by graphviz version 2.44.0 (0)
 -->
<!-- Title: Descr Pages: 1 -->
<svg width="145pt" height="367pt"
 viewBox="0.00 0.00 145.44 367.00" xmlns="http://www.w3.org/2000/svg" xmlns:xlink="http://www.w3.org/1999/xlink">
<g id="graph0" class="graph" transform="scale(1 1) rotate(0) translate(4 363)">
<title>Descr</title>
<g id="clust1" class="cluster">
<title>clusterdir_d9e3ca1242923a0f3e299c3c2535cd81</title>
<g id="a_clust1"><a xlink:href="dir_d9e3ca1242923a0f3e299c3c2535cd81.html" target="_top" xlink:title="CDPL">
<polygon fill="#ddddee" stroke="black" points="31.11,-280 31.11,-351 101.11,-351 101.11,-280 31.11,-280"/>
<text text-anchor="middle" x="66.11" y="-339" font-family="Helvetica" font-size="10.00">CDPL</text>
</a>
</g>
</g>
<!-- dir_e745a1d3abba6038f68bb4cb91ac9212 -->
<g id="node1" class="node">
<title>dir_e745a1d3abba6038f68bb4cb91ac9212</title>
<g id="a_node1"><a xlink:href="dir_e745a1d3abba6038f68bb4cb91ac9212.html" target="_top" xlink:title="Descr">
<polygon fill="#eeeeff" stroke="black" points="93.11,-324 39.11,-324 39.11,-288 93.11,-288 93.11,-324"/>
<text text-anchor="middle" x="66.11" y="-303.5" font-family="Helvetica" font-size="10.00">Descr</text>
</a>
</g>
</g>
<!-- dir_2821c7f3ff716b7357153e2284349b47 -->
<g id="node2" class="node">
<title>dir_2821c7f3ff716b7357153e2284349b47</title>
<g id="a_node2"><a xlink:href="dir_2821c7f3ff716b7357153e2284349b47.html" target="_top" xlink:title="Chem">
<polygon fill="none" stroke="black" points="66.11,-180 12.11,-180 12.11,-144 66.11,-144 66.11,-180"/>
<text text-anchor="middle" x="39.11" y="-159.5" font-family="Helvetica" font-size="10.00">Chem</text>
</a>
</g>
</g>
<!-- dir_e745a1d3abba6038f68bb4cb91ac9212&#45;&gt;dir_2821c7f3ff716b7357153e2284349b47 -->
<g id="edge1" class="edge">
<title>dir_e745a1d3abba6038f68bb4cb91ac9212&#45;&gt;dir_2821c7f3ff716b7357153e2284349b47</title>
<path fill="none" stroke="black" d="M62.85,-287.87C58.25,-263.67 49.79,-219.21 44.32,-190.39"/>
<polygon fill="black" stroke="black" points="47.68,-189.36 42.38,-180.19 40.8,-190.67 47.68,-189.36"/>
<g id="a_edge1&#45;headlabel"><a xlink:href="dir_000008_000004.html" target="_top" xlink:title="10">
<text text-anchor="middle" x="51.14" y="-189.86" font-family="Helvetica" font-size="10.00">10</text>
</a>
</g>
</g>
<!-- dir_a11e439900186475800e797c0fd0ac6b -->
<g id="node3" class="node">
<title>dir_a11e439900186475800e797c0fd0ac6b</title>
<g id="a_node3"><a xlink:href="dir_a11e439900186475800e797c0fd0ac6b.html" target="_top" xlink:title="Math">
<polygon fill="none" stroke="black" points="104.11,-108 50.11,-108 50.11,-72 104.11,-72 104.11,-108"/>
<text text-anchor="middle" x="77.11" y="-87.5" font-family="Helvetica" font-size="10.00">Math</text>
</a>
</g>
</g>
<!-- dir_e745a1d3abba6038f68bb4cb91ac9212&#45;&gt;dir_a11e439900186475800e797c0fd0ac6b -->
<g id="edge2" class="edge">
<title>dir_e745a1d3abba6038f68bb4cb91ac9212&#45;&gt;dir_a11e439900186475800e797c0fd0ac6b</title>
<path fill="none" stroke="black" d="M93.2,-290.39C106.99,-281.34 122.43,-268.32 130.11,-252 151.63,-206.24 120.37,-149.37 97.5,-116.92"/>
<polygon fill="black" stroke="black" points="100.04,-114.47 91.32,-108.45 94.39,-118.59 100.04,-114.47"/>
<g id="a_edge2&#45;headlabel"><a xlink:href="dir_000008_000001.html" target="_top" xlink:title="19">
<text text-anchor="middle" x="104.45" y="-113.2" font-family="Helvetica" font-size="10.00">19</text>
</a>
</g>
</g>
<!-- dir_5e8c3cb997677a4f5ba873b3f390ab24 -->
<g id="node4" class="node">
<title>dir_5e8c3cb997677a4f5ba873b3f390ab24</title>
<g id="a_node4"><a xlink:href="dir_5e8c3cb997677a4f5ba873b3f390ab24.html" target="_top" xlink:title="Pharm">
<polygon fill="none" stroke="black" points="121.11,-252 67.11,-252 67.11,-216 121.11,-216 121.11,-252"/>
<text text-anchor="middle" x="94.11" y="-231.5" font-family="Helvetica" font-size="10.00">Pharm</text>
</a>
</g>
</g>
<!-- dir_e745a1d3abba6038f68bb4cb91ac9212&#45;&gt;dir_5e8c3cb997677a4f5ba873b3f390ab24 -->
<g id="edge3" class="edge">
<title>dir_e745a1d3abba6038f68bb4cb91ac9212&#45;&gt;dir_5e8c3cb997677a4f5ba873b3f390ab24</title>
<path fill="none" stroke="black" d="M73.03,-287.7C76.18,-279.81 79.99,-270.3 83.49,-261.55"/>
<polygon fill="black" stroke="black" points="86.8,-262.69 87.27,-252.1 80.3,-260.09 86.8,-262.69"/>
<g id="a_edge3&#45;headlabel"><a xlink:href="dir_000008_000013.html" target="_top" xlink:title="2">
<text text-anchor="middle" x="88.1" y="-264.58" font-family="Helvetica" font-size="10.00">2</text>
</a>
</g>
</g>
<!-- dir_c592efebd7ac9eb7f4dce0afc29c639f -->
<g id="node5" class="node">
<title>dir_c592efebd7ac9eb7f4dce0afc29c639f</title>
<g id="a_node5"><a xlink:href="dir_c592efebd7ac9eb7f4dce0afc29c639f.html" target="_top" xlink:title="Util">
<polygon fill="none" stroke="black" points="76.11,-36 22.11,-36 22.11,0 76.11,0 76.11,-36"/>
<text text-anchor="middle" x="49.11" y="-15.5" font-family="Helvetica" font-size="10.00">Util</text>
</a>
</g>
</g>
<!-- dir_e745a1d3abba6038f68bb4cb91ac9212&#45;&gt;dir_c592efebd7ac9eb7f4dce0afc29c639f -->
<g id="edge4" class="edge">
<title>dir_e745a1d3abba6038f68bb4cb91ac9212&#45;&gt;dir_c592efebd7ac9eb7f4dce0afc29c639f</title>
<path fill="none" stroke="black" d="M54.13,-287.8C38.77,-264.6 12.94,-221.37 3.11,-180 -8.29,-132.07 15.56,-77.04 32.99,-45.32"/>
<polygon fill="black" stroke="black" points="36.24,-46.68 38.14,-36.26 30.16,-43.22 36.24,-46.68"/>
<g id="a_edge4&#45;headlabel"><a xlink:href="dir_000008_000014.html" target="_top" xlink:title="6">
<text text-anchor="middle" x="36.93" y="-48.71" font-family="Helvetica" font-size="10.00">6</text>
</a>
</g>
</g>
<!-- dir_2821c7f3ff716b7357153e2284349b47&#45;&gt;dir_a11e439900186475800e797c0fd0ac6b -->
<g id="edge5" class="edge">
<title>dir_2821c7f3ff716b7357153e2284349b47&#45;&gt;dir_a11e439900186475800e797c0fd0ac6b</title>
<path fill="none" stroke="black" d="M48.5,-143.7C52.87,-135.64 58.16,-125.89 63,-116.98"/>
<polygon fill="black" stroke="black" points="66.13,-118.56 67.82,-108.1 59.97,-115.22 66.13,-118.56"/>
<g id="a_edge5&#45;headlabel"><a xlink:href="dir_000004_000001.html" target="_top" xlink:title="32">
<text text-anchor="middle" x="66.91" y="-120.58" font-family="Helvetica" font-size="10.00">32</text>
</a>
</g>
</g>
<!-- dir_2821c7f3ff716b7357153e2284349b47&#45;&gt;dir_c592efebd7ac9eb7f4dce0afc29c639f -->
<g id="edge6" class="edge">
<title>dir_2821c7f3ff716b7357153e2284349b47&#45;&gt;dir_c592efebd7ac9eb7f4dce0afc29c639f</title>
<path fill="none" stroke="black" d="M38.85,-143.9C38.72,-125.96 38.95,-96.94 41.11,-72 41.84,-63.53 43.07,-54.35 44.35,-46.05"/>
<polygon fill="black" stroke="black" points="47.81,-46.55 45.96,-36.12 40.9,-45.43 47.81,-46.55"/>
<g id="a_edge6&#45;headlabel"><a xlink:href="dir_000004_000014.html" target="_top" xlink:title="191">
<text text-anchor="middle" x="50.04" y="-48.05" font-family="Helvetica" font-size="10.00">191</text>
</a>
</g>
</g>
<!-- dir_a11e439900186475800e797c0fd0ac6b&#45;&gt;dir_c592efebd7ac9eb7f4dce0afc29c639f -->
<g id="edge7" class="edge">
<title>dir_a11e439900186475800e797c0fd0ac6b&#45;&gt;dir_c592efebd7ac9eb7f4dce0afc29c639f</title>
<path fill="none" stroke="black" d="M70.19,-71.7C67.03,-63.81 63.23,-54.3 59.73,-45.55"/>
<polygon fill="black" stroke="black" points="62.91,-44.09 55.95,-36.1 56.41,-46.69 62.91,-44.09"/>
<g id="a_edge7&#45;headlabel"><a xlink:href="dir_000001_000014.html" target="_top" xlink:title="2">
<text text-anchor="middle" x="66.88" y="-43.87" font-family="Helvetica" font-size="10.00">2</text>
</a>
</g>
</g>
<!-- dir_5e8c3cb997677a4f5ba873b3f390ab24&#45;&gt;dir_2821c7f3ff716b7357153e2284349b47 -->
<g id="edge8" class="edge">
<title>dir_5e8c3cb997677a4f5ba873b3f390ab24&#45;&gt;dir_2821c7f3ff716b7357153e2284349b47</title>
<path fill="none" stroke="black" d="M80.51,-215.7C73.98,-207.39 66.04,-197.28 58.86,-188.14"/>
<polygon fill="black" stroke="black" points="61.48,-185.81 52.55,-180.1 55.97,-190.13 61.48,-185.81"/>
<g id="a_edge8&#45;headlabel"><a xlink:href="dir_000013_000004.html" target="_top" xlink:title="15">
<text text-anchor="middle" x="65.93" y="-184.38" font-family="Helvetica" font-size="10.00">15</text>
</a>
</g>
</g>
<!-- dir_5e8c3cb997677a4f5ba873b3f390ab24&#45;&gt;dir_a11e439900186475800e797c0fd0ac6b -->
<g id="edge9" class="edge">
<title>dir_5e8c3cb997677a4f5ba873b3f390ab24&#45;&gt;dir_a11e439900186475800e797c0fd0ac6b</title>
<path fill="none" stroke="black" d="M92.06,-215.87C89.16,-191.67 83.84,-147.21 80.39,-118.39"/>
<polygon fill="black" stroke="black" points="83.83,-117.7 79.16,-108.19 76.88,-118.53 83.83,-117.7"/>
<g id="a_edge9&#45;headlabel"><a xlink:href="dir_000013_000001.html" target="_top" xlink:title="15">
<text text-anchor="middle" x="87.08" y="-118.43" font-family="Helvetica" font-size="10.00">15</text>
</a>
</g>
</g>
<!-- dir_5e8c3cb997677a4f5ba873b3f390ab24&#45;&gt;dir_c592efebd7ac9eb7f4dce0afc29c639f -->
<g id="edge10" class="edge">
<title>dir_5e8c3cb997677a4f5ba873b3f390ab24&#45;&gt;dir_c592efebd7ac9eb7f4dce0afc29c639f</title>
<path fill="none" stroke="black" d="M101.98,-215.58C114.6,-184.95 135.74,-120.14 113.11,-72 106.93,-58.87 95.73,-47.87 84.4,-39.36"/>
<polygon fill="black" stroke="black" points="86.4,-36.49 76.2,-33.61 82.38,-42.22 86.4,-36.49"/>
<g id="a_edge10&#45;headlabel"><a xlink:href="dir_000013_000014.html" target="_top" xlink:title="26">
<text text-anchor="middle" x="90.97" y="-33.73" font-family="Helvetica" font-size="10.00">26</text>
</a>
</g>
</g>
</g>
</svg>
