<?xml version="1.0" encoding="UTF-8" standalone="no"?>
<!DOCTYPE svg PUBLIC "-//W3C//DTD SVG 1.1//EN"
 "http://www.w3.org/Graphics/SVG/1.1/DTD/svg11.dtd">
<!-- Generated by graphviz version 2.40.1 (0)
 -->
<!-- Title: GRAIL Pages: 1 -->
<svg width="310pt" height="367pt"
 viewBox="0.00 0.00 310.35 367.00" xmlns="http://www.w3.org/2000/svg" xmlns:xlink="http://www.w3.org/1999/xlink">
<g id="graph0" class="graph" transform="scale(1 1) rotate(0) translate(4 363)">
<title>GRAIL</title>
<g id="clust1" class="cluster">
<title>clusterdir_d9e3ca1242923a0f3e299c3c2535cd81</title>
<g id="a_clust1"><a xlink:href="dir_d9e3ca1242923a0f3e299c3c2535cd81.html" target="_top" xlink:title="CDPL">
<polygon fill="#ddddee" stroke="#000000" points="107.3533,-280 107.3533,-351 177.3533,-351 177.3533,-280 107.3533,-280"/>
<text text-anchor="middle" x="142.3533" y="-339" font-family="Helvetica,sans-Serif" font-size="10.00" fill="#000000">CDPL</text>
</a>
</g>
</g>
<!-- dir_63172153952ece9cd58d985c57b76252 -->
<g id="node1" class="node">
<title>dir_63172153952ece9cd58d985c57b76252</title>
<g id="a_node1"><a xlink:href="dir_63172153952ece9cd58d985c57b76252.html" target="_top" xlink:title="GRAIL">
<polygon fill="#eeeeff" stroke="#000000" points="169.3533,-324 115.3533,-324 115.3533,-288 169.3533,-288 169.3533,-324"/>
<text text-anchor="middle" x="142.3533" y="-303.5" font-family="Helvetica,sans-Serif" font-size="10.00" fill="#000000">GRAIL</text>
</a>
</g>
</g>
<!-- dir_800d7d48dc6ea121393d52928155436d -->
<g id="node2" class="node">
<title>dir_800d7d48dc6ea121393d52928155436d</title>
<g id="a_node2"><a xlink:href="dir_800d7d48dc6ea121393d52928155436d.html" target="_top" xlink:title="MolProp">
<polygon fill="none" stroke="#000000" points="142.3533,-252 86.3533,-252 86.3533,-216 142.3533,-216 142.3533,-252"/>
<text text-anchor="middle" x="114.3533" y="-231.5" font-family="Helvetica,sans-Serif" font-size="10.00" fill="#000000">MolProp</text>
</a>
</g>
</g>
<!-- dir_63172153952ece9cd58d985c57b76252&#45;&gt;dir_800d7d48dc6ea121393d52928155436d -->
<g id="edge9" class="edge">
<title>dir_63172153952ece9cd58d985c57b76252&#45;&gt;dir_800d7d48dc6ea121393d52928155436d</title>
<path fill="none" stroke="#000000" d="M135.2878,-287.8314C132.2273,-279.9617 128.5754,-270.5712 125.1852,-261.8533"/>
<polygon fill="#000000" stroke="#000000" points="128.4006,-260.4647 121.514,-252.4133 121.8766,-263.0019 128.4006,-260.4647"/>
<g id="a_edge9&#45;headlabel"><a xlink:href="dir_000010_000012.html" target="_top" xlink:title="1">
<text text-anchor="middle" x="132.3496" y="-260.2859" font-family="Helvetica,sans-Serif" font-size="10.00" fill="#000000">1</text>
</a>
</g>
</g>
<!-- dir_8e68467dd8a3f99c322490b7fb276a25 -->
<g id="node3" class="node">
<title>dir_8e68467dd8a3f99c322490b7fb276a25</title>
<g id="a_node3"><a xlink:href="dir_8e68467dd8a3f99c322490b7fb276a25.html" target="_top" xlink:title="Grid">
<polygon fill="none" stroke="#000000" points="66.3533,-180 12.3533,-180 12.3533,-144 66.3533,-144 66.3533,-180"/>
<text text-anchor="middle" x="39.3533" y="-159.5" font-family="Helvetica,sans-Serif" font-size="10.00" fill="#000000">Grid</text>
</a>
</g>
</g>
<!-- dir_63172153952ece9cd58d985c57b76252&#45;&gt;dir_8e68467dd8a3f99c322490b7fb276a25 -->
<g id="edge10" class="edge">
<title>dir_63172153952ece9cd58d985c57b76252&#45;&gt;dir_8e68467dd8a3f99c322490b7fb276a25</title>
<path fill="none" stroke="#000000" d="M115.0476,-287.9605C102.2878,-278.4597 87.6716,-265.9007 77.3533,-252 63.4503,-233.2699 53.5181,-208.689 47.3028,-189.9496"/>
<polygon fill="#000000" stroke="#000000" points="50.5779,-188.6973 44.2307,-180.2141 43.9023,-190.8038 50.5779,-188.6973"/>
<g id="a_edge10&#45;headlabel"><a xlink:href="dir_000010_000011.html" target="_top" xlink:title="4">
<text text-anchor="middle" x="54.3672" y="-188.7709" font-family="Helvetica,sans-Serif" font-size="10.00" fill="#000000">4</text>
</a>
</g>
</g>
<!-- dir_2821c7f3ff716b7357153e2284349b47 -->
<g id="node4" class="node">
<title>dir_2821c7f3ff716b7357153e2284349b47</title>
<g id="a_node4"><a xlink:href="dir_2821c7f3ff716b7357153e2284349b47.html" target="_top" xlink:title="Chem">
<polygon fill="none" stroke="#000000" points="252.3533,-180 198.3533,-180 198.3533,-144 252.3533,-144 252.3533,-180"/>
<text text-anchor="middle" x="225.3533" y="-159.5" font-family="Helvetica,sans-Serif" font-size="10.00" fill="#000000">Chem</text>
</a>
</g>
</g>
<!-- dir_63172153952ece9cd58d985c57b76252&#45;&gt;dir_2821c7f3ff716b7357153e2284349b47 -->
<g id="edge11" class="edge">
<title>dir_63172153952ece9cd58d985c57b76252&#45;&gt;dir_2821c7f3ff716b7357153e2284349b47</title>
<path fill="none" stroke="#000000" d="M158.2552,-287.7841C166.6356,-277.6625 176.7279,-264.5994 184.3533,-252 196.4302,-232.0457 207.2348,-207.9265 214.7169,-189.6811"/>
<polygon fill="#000000" stroke="#000000" points="218.0404,-190.7969 218.5187,-180.2129 211.5445,-188.1885 218.0404,-190.7969"/>
<g id="a_edge11&#45;headlabel"><a xlink:href="dir_000010_000004.html" target="_top" xlink:title="5">
<text text-anchor="middle" x="219.3359" y="-192.6906" font-family="Helvetica,sans-Serif" font-size="10.00" fill="#000000">5</text>
</a>
</g>
</g>
<!-- dir_a11e439900186475800e797c0fd0ac6b -->
<g id="node5" class="node">
<title>dir_a11e439900186475800e797c0fd0ac6b</title>
<g id="a_node5"><a xlink:href="dir_a11e439900186475800e797c0fd0ac6b.html" target="_top" xlink:title="Math">
<polygon fill="none" stroke="#000000" points="182.3533,-108 128.3533,-108 128.3533,-72 182.3533,-72 182.3533,-108"/>
<text text-anchor="middle" x="155.3533" y="-87.5" font-family="Helvetica,sans-Serif" font-size="10.00" fill="#000000">Math</text>
</a>
</g>
</g>
<!-- dir_63172153952ece9cd58d985c57b76252&#45;&gt;dir_a11e439900186475800e797c0fd0ac6b -->
<g id="edge12" class="edge">
<title>dir_63172153952ece9cd58d985c57b76252&#45;&gt;dir_a11e439900186475800e797c0fd0ac6b</title>
<path fill="none" stroke="#000000" d="M146.0808,-287.59C148.0204,-277.1892 150.2184,-263.9215 151.3533,-252 155.8091,-205.1978 156.1521,-150.468 155.8531,-118.1033"/>
<polygon fill="#000000" stroke="#000000" points="159.352,-117.9859 155.7321,-108.0286 152.3525,-118.07 159.352,-117.9859"/>
<g id="a_edge12&#45;headlabel"><a xlink:href="dir_000010_000001.html" target="_top" xlink:title="13">
<text text-anchor="middle" x="162.2342" y="-119.0461" font-family="Helvetica,sans-Serif" font-size="10.00" fill="#000000">13</text>
</a>
</g>
</g>
<!-- dir_5e8c3cb997677a4f5ba873b3f390ab24 -->
<g id="node6" class="node">
<title>dir_5e8c3cb997677a4f5ba873b3f390ab24</title>
<g id="a_node6"><a xlink:href="dir_5e8c3cb997677a4f5ba873b3f390ab24.html" target="_top" xlink:title="Pharm">
<polygon fill="none" stroke="#000000" points="302.3533,-252 248.3533,-252 248.3533,-216 302.3533,-216 302.3533,-252"/>
<text text-anchor="middle" x="275.3533" y="-231.5" font-family="Helvetica,sans-Serif" font-size="10.00" fill="#000000">Pharm</text>
</a>
</g>
</g>
<!-- dir_63172153952ece9cd58d985c57b76252&#45;&gt;dir_5e8c3cb997677a4f5ba873b3f390ab24 -->
<g id="edge13" class="edge">
<title>dir_63172153952ece9cd58d985c57b76252&#45;&gt;dir_5e8c3cb997677a4f5ba873b3f390ab24</title>
<path fill="none" stroke="#000000" d="M169.5888,-291.256C189.6712,-280.3843 217.1969,-265.4832 239.1332,-253.6079"/>
<polygon fill="#000000" stroke="#000000" points="241.0265,-256.563 248.1543,-248.7243 237.6939,-250.4071 241.0265,-256.563"/>
<g id="a_edge13&#45;headlabel"><a xlink:href="dir_000010_000013.html" target="_top" xlink:title="5">
<text text-anchor="middle" x="239.217" y="-258.2711" font-family="Helvetica,sans-Serif" font-size="10.00" fill="#000000">5</text>
</a>
</g>
</g>
<!-- dir_c592efebd7ac9eb7f4dce0afc29c639f -->
<g id="node7" class="node">
<title>dir_c592efebd7ac9eb7f4dce0afc29c639f</title>
<g id="a_node7"><a xlink:href="dir_c592efebd7ac9eb7f4dce0afc29c639f.html" target="_top" xlink:title="Util">
<polygon fill="none" stroke="#000000" points="151.3533,-36 97.3533,-36 97.3533,0 151.3533,0 151.3533,-36"/>
<text text-anchor="middle" x="124.3533" y="-15.5" font-family="Helvetica,sans-Serif" font-size="10.00" fill="#000000">Util</text>
</a>
</g>
</g>
<!-- dir_63172153952ece9cd58d985c57b76252&#45;&gt;dir_c592efebd7ac9eb7f4dce0afc29c639f -->
<g id="edge14" class="edge">
<title>dir_63172153952ece9cd58d985c57b76252&#45;&gt;dir_c592efebd7ac9eb7f4dce0afc29c639f</title>
<path fill="none" stroke="#000000" d="M115.0091,-292.933C96.5724,-283.2764 72.4114,-268.9054 54.3533,-252 25.7259,-225.1999 15.2469,-217.3674 3.3533,-180 -15.074,-122.1048 46.7223,-68.4457 88.6901,-39.7576"/>
<polygon fill="#000000" stroke="#000000" points="90.6659,-42.647 97.0489,-34.1907 86.7857,-36.8208 90.6659,-42.647"/>
<g id="a_edge14&#45;headlabel"><a xlink:href="dir_000010_000014.html" target="_top" xlink:title="1">
<text text-anchor="middle" x="89.2479" y="-44.5026" font-family="Helvetica,sans-Serif" font-size="10.00" fill="#000000">1</text>
</a>
</g>
</g>
<!-- dir_800d7d48dc6ea121393d52928155436d&#45;&gt;dir_2821c7f3ff716b7357153e2284349b47 -->
<g id="edge1" class="edge">
<title>dir_800d7d48dc6ea121393d52928155436d&#45;&gt;dir_2821c7f3ff716b7357153e2284349b47</title>
<path fill="none" stroke="#000000" d="M142.3633,-215.8314C156.6442,-206.5681 174.1738,-195.1975 189.4368,-185.2972"/>
<polygon fill="#000000" stroke="#000000" points="191.6348,-188.0434 198.1197,-179.665 187.8254,-182.1706 191.6348,-188.0434"/>
<g id="a_edge1&#45;headlabel"><a xlink:href="dir_000012_000004.html" target="_top" xlink:title="11">
<text text-anchor="middle" x="190.1642" y="-189.8815" font-family="Helvetica,sans-Serif" font-size="10.00" fill="#000000">11</text>
</a>
</g>
</g>
<!-- dir_800d7d48dc6ea121393d52928155436d&#45;&gt;dir_a11e439900186475800e797c0fd0ac6b -->
<g id="edge2" class="edge">
<title>dir_800d7d48dc6ea121393d52928155436d&#45;&gt;dir_a11e439900186475800e797c0fd0ac6b</title>
<path fill="none" stroke="#000000" d="M119.546,-215.7623C126.57,-191.0928 139.1641,-146.8598 147.3888,-117.9731"/>
<polygon fill="#000000" stroke="#000000" points="150.8306,-118.6658 150.2028,-108.0896 144.0981,-116.7489 150.8306,-118.6658"/>
<g id="a_edge2&#45;headlabel"><a xlink:href="dir_000012_000001.html" target="_top" xlink:title="4">
<text text-anchor="middle" x="152.577" y="-120.4005" font-family="Helvetica,sans-Serif" font-size="10.00" fill="#000000">4</text>
</a>
</g>
</g>
<!-- dir_800d7d48dc6ea121393d52928155436d&#45;&gt;dir_c592efebd7ac9eb7f4dce0afc29c639f -->
<g id="edge3" class="edge">
<title>dir_800d7d48dc6ea121393d52928155436d&#45;&gt;dir_c592efebd7ac9eb7f4dce0afc29c639f</title>
<path fill="none" stroke="#000000" d="M114.5544,-215.5186C114.9648,-185.4217 116.1491,-123.9573 119.3533,-72 119.8611,-63.7671 120.6069,-54.8449 121.3683,-46.6693"/>
<polygon fill="#000000" stroke="#000000" points="124.8755,-46.7645 122.3596,-36.4727 117.9083,-46.087 124.8755,-46.7645"/>
<g id="a_edge3&#45;headlabel"><a xlink:href="dir_000012_000014.html" target="_top" xlink:title="6">
<text text-anchor="middle" x="127.3537" y="-48.1169" font-family="Helvetica,sans-Serif" font-size="10.00" fill="#000000">6</text>
</a>
</g>
</g>
<!-- dir_8e68467dd8a3f99c322490b7fb276a25&#45;&gt;dir_a11e439900186475800e797c0fd0ac6b -->
<g id="edge4" class="edge">
<title>dir_8e68467dd8a3f99c322490b7fb276a25&#45;&gt;dir_a11e439900186475800e797c0fd0ac6b</title>
<path fill="none" stroke="#000000" d="M66.5502,-145.1192C82.4031,-135.2794 102.5812,-122.7551 119.6956,-112.1324"/>
<polygon fill="#000000" stroke="#000000" points="121.6762,-115.0225 128.3269,-106.775 117.9847,-109.075 121.6762,-115.0225"/>
<g id="a_edge4&#45;headlabel"><a xlink:href="dir_000011_000001.html" target="_top" xlink:title="2">
<text text-anchor="middle" x="120.1194" y="-116.8304" font-family="Helvetica,sans-Serif" font-size="10.00" fill="#000000">2</text>
</a>
</g>
</g>
<!-- dir_8e68467dd8a3f99c322490b7fb276a25&#45;&gt;dir_c592efebd7ac9eb7f4dce0afc29c639f -->
<g id="edge5" class="edge">
<title>dir_8e68467dd8a3f99c322490b7fb276a25&#45;&gt;dir_c592efebd7ac9eb7f4dce0afc29c639f</title>
<path fill="none" stroke="#000000" d="M46.0776,-143.7195C53.3155,-125.0279 65.7729,-95.4858 80.3533,-72 86.347,-62.3455 93.869,-52.5028 100.9897,-43.911"/>
<polygon fill="#000000" stroke="#000000" points="103.8175,-45.9885 107.6309,-36.1037 98.4856,-41.453 103.8175,-45.9885"/>
<g id="a_edge5&#45;headlabel"><a xlink:href="dir_000011_000014.html" target="_top" xlink:title="27">
<text text-anchor="middle" x="103.6512" y="-48.0661" font-family="Helvetica,sans-Serif" font-size="10.00" fill="#000000">27</text>
</a>
</g>
</g>
<!-- dir_2821c7f3ff716b7357153e2284349b47&#45;&gt;dir_a11e439900186475800e797c0fd0ac6b -->
<g id="edge6" class="edge">
<title>dir_2821c7f3ff716b7357153e2284349b47&#45;&gt;dir_a11e439900186475800e797c0fd0ac6b</title>
<path fill="none" stroke="#000000" d="M207.6894,-143.8314C199.3802,-135.2848 189.327,-124.9443 180.2615,-115.6198"/>
<polygon fill="#000000" stroke="#000000" points="182.7354,-113.1435 173.2551,-108.4133 177.7164,-118.023 182.7354,-113.1435"/>
<g id="a_edge6&#45;headlabel"><a xlink:href="dir_000004_000001.html" target="_top" xlink:title="32">
<text text-anchor="middle" x="187.2769" y="-111.2416" font-family="Helvetica,sans-Serif" font-size="10.00" fill="#000000">32</text>
</a>
</g>
</g>
<!-- dir_2821c7f3ff716b7357153e2284349b47&#45;&gt;dir_c592efebd7ac9eb7f4dce0afc29c639f -->
<g id="edge7" class="edge">
<title>dir_2821c7f3ff716b7357153e2284349b47&#45;&gt;dir_c592efebd7ac9eb7f4dce0afc29c639f</title>
<path fill="none" stroke="#000000" d="M221.4749,-143.7271C216.7402,-124.5077 207.323,-94.05 191.3533,-72 182.7504,-60.1216 170.8927,-49.4123 159.5415,-40.7223"/>
<polygon fill="#000000" stroke="#000000" points="161.5527,-37.8569 151.4195,-34.7637 157.4121,-43.5009 161.5527,-37.8569"/>
<g id="a_edge7&#45;headlabel"><a xlink:href="dir_000004_000014.html" target="_top" xlink:title="178">
<text text-anchor="middle" x="166.1305" y="-35.1939" font-family="Helvetica,sans-Serif" font-size="10.00" fill="#000000">178</text>
</a>
</g>
</g>
<!-- dir_a11e439900186475800e797c0fd0ac6b&#45;&gt;dir_c592efebd7ac9eb7f4dce0afc29c639f -->
<g id="edge8" class="edge">
<title>dir_a11e439900186475800e797c0fd0ac6b&#45;&gt;dir_c592efebd7ac9eb7f4dce0afc29c639f</title>
<path fill="none" stroke="#000000" d="M147.5307,-71.8314C144.1424,-63.9617 140.0992,-54.5712 136.3457,-45.8533"/>
<polygon fill="#000000" stroke="#000000" points="139.4506,-44.214 132.2813,-36.4133 133.0212,-46.9822 139.4506,-44.214"/>
<g id="a_edge8&#45;headlabel"><a xlink:href="dir_000001_000014.html" target="_top" xlink:title="2">
<text text-anchor="middle" x="143.4799" y="-43.8928" font-family="Helvetica,sans-Serif" font-size="10.00" fill="#000000">2</text>
</a>
</g>
</g>
<!-- dir_5e8c3cb997677a4f5ba873b3f390ab24&#45;&gt;dir_2821c7f3ff716b7357153e2284349b47 -->
<g id="edge15" class="edge">
<title>dir_5e8c3cb997677a4f5ba873b3f390ab24&#45;&gt;dir_2821c7f3ff716b7357153e2284349b47</title>
<path fill="none" stroke="#000000" d="M262.7362,-215.8314C257.0361,-207.6232 250.187,-197.7606 243.9174,-188.7323"/>
<polygon fill="#000000" stroke="#000000" points="246.7191,-186.6306 238.1403,-180.4133 240.9695,-190.6234 246.7191,-186.6306"/>
<g id="a_edge15&#45;headlabel"><a xlink:href="dir_000013_000004.html" target="_top" xlink:title="15">
<text text-anchor="middle" x="251.1015" y="-185.4636" font-family="Helvetica,sans-Serif" font-size="10.00" fill="#000000">15</text>
</a>
</g>
</g>
<!-- dir_5e8c3cb997677a4f5ba873b3f390ab24&#45;&gt;dir_a11e439900186475800e797c0fd0ac6b -->
<g id="edge16" class="edge">
<title>dir_5e8c3cb997677a4f5ba873b3f390ab24&#45;&gt;dir_a11e439900186475800e797c0fd0ac6b</title>
<path fill="none" stroke="#000000" d="M277.1067,-215.9777C278.052,-196.4092 276.661,-165.1289 261.3533,-144 244.8134,-121.1703 215.7754,-107.3338 192.2697,-99.3908"/>
<polygon fill="#000000" stroke="#000000" points="193.1768,-96.007 182.5871,-96.3384 191.0721,-102.6831 193.1768,-96.007"/>
<g id="a_edge16&#45;headlabel"><a xlink:href="dir_000013_000001.html" target="_top" xlink:title="15">
<text text-anchor="middle" x="197.4587" y="-91.8798" font-family="Helvetica,sans-Serif" font-size="10.00" fill="#000000">15</text>
</a>
</g>
</g>
<!-- dir_5e8c3cb997677a4f5ba873b3f390ab24&#45;&gt;dir_c592efebd7ac9eb7f4dce0afc29c639f -->
<g id="edge17" class="edge">
<title>dir_5e8c3cb997677a4f5ba873b3f390ab24&#45;&gt;dir_c592efebd7ac9eb7f4dce0afc29c639f</title>
<path fill="none" stroke="#000000" d="M281.3452,-215.7177C286.439,-197.0246 291.5887,-167.4814 282.3533,-144 260.8947,-89.4401 200.1296,-52.4219 160.5155,-33.2916"/>
<polygon fill="#000000" stroke="#000000" points="161.9676,-30.1069 151.4271,-29.0357 158.999,-36.4462 161.9676,-30.1069"/>
<g id="a_edge17&#45;headlabel"><a xlink:href="dir_000013_000014.html" target="_top" xlink:title="26">
<text text-anchor="middle" x="166.427" y="-26.5599" font-family="Helvetica,sans-Serif" font-size="10.00" fill="#000000">26</text>
</a>
</g>
</g>
</g>
</svg>
