<?xml version="1.0" encoding="UTF-8" standalone="no"?>
<!DOCTYPE svg PUBLIC "-//W3C//DTD SVG 1.1//EN"
 "http://www.w3.org/Graphics/SVG/1.1/DTD/svg11.dtd">
<!-- Generated by graphviz version 2.44.0 (0)
 -->
<!-- Title: ForceField Pages: 1 -->
<svg width="184pt" height="367pt"
 viewBox="0.00 0.00 184.19 367.00" xmlns="http://www.w3.org/2000/svg" xmlns:xlink="http://www.w3.org/1999/xlink">
<g id="graph0" class="graph" transform="scale(1 1) rotate(0) translate(4 363)">
<title>ForceField</title>
<g id="clust1" class="cluster">
<title>clusterdir_d9e3ca1242923a0f3e299c3c2535cd81</title>
<g id="a_clust1"><a xlink:href="dir_d9e3ca1242923a0f3e299c3c2535cd81.html" target="_top" xlink:title="CDPL">
<polygon fill="#ddddee" stroke="black" points="27.19,-280 27.19,-351 105.19,-351 105.19,-280 27.19,-280"/>
<text text-anchor="middle" x="66.19" y="-339" font-family="Helvetica" font-size="10.00">CDPL</text>
</a>
</g>
</g>
<!-- dir_f85293c44cb7dbf0b9661f2bdcd7f1cd -->
<g id="node1" class="node">
<title>dir_f85293c44cb7dbf0b9661f2bdcd7f1cd</title>
<g id="a_node1"><a xlink:href="dir_f85293c44cb7dbf0b9661f2bdcd7f1cd.html" target="_top" xlink:title="ForceField">
<polygon fill="#eeeeff" stroke="black" points="97.19,-324 35.19,-324 35.19,-288 97.19,-288 97.19,-324"/>
<text text-anchor="middle" x="66.19" y="-303.5" font-family="Helvetica" font-size="10.00">ForceField</text>
</a>
</g>
</g>
<!-- dir_7ca0558073eba65288e02324c8ceb8f8 -->
<g id="node2" class="node">
<title>dir_7ca0558073eba65288e02324c8ceb8f8</title>
<g id="a_node2"><a xlink:href="dir_7ca0558073eba65288e02324c8ceb8f8.html" target="_top" xlink:title="Base">
<polygon fill="none" stroke="black" points="101.19,-36 47.19,-36 47.19,0 101.19,0 101.19,-36"/>
<text text-anchor="middle" x="74.19" y="-15.5" font-family="Helvetica" font-size="10.00">Base</text>
</a>
</g>
</g>
<!-- dir_f85293c44cb7dbf0b9661f2bdcd7f1cd&#45;&gt;dir_7ca0558073eba65288e02324c8ceb8f8 -->
<g id="edge6" class="edge">
<title>dir_f85293c44cb7dbf0b9661f2bdcd7f1cd&#45;&gt;dir_7ca0558073eba65288e02324c8ceb8f8</title>
<path fill="none" stroke="black" d="M51.44,-287.58C28.65,-258.51 -11.07,-197.98 3.19,-144 13.07,-106.61 37,-68.68 54.36,-44.57"/>
<polygon fill="black" stroke="black" points="57.31,-46.46 60.42,-36.34 51.67,-42.32 57.31,-46.46"/>
<g id="a_edge6&#45;headlabel"><a xlink:href="dir_000009_000005.html" target="_top" xlink:title="1">
<text text-anchor="middle" x="57.46" y="-48.54" font-family="Helvetica" font-size="10.00">1</text>
</a>
</g>
</g>
<!-- dir_2821c7f3ff716b7357153e2284349b47 -->
<g id="node3" class="node">
<title>dir_2821c7f3ff716b7357153e2284349b47</title>
<g id="a_node3"><a xlink:href="dir_2821c7f3ff716b7357153e2284349b47.html" target="_top" xlink:title="Chem">
<polygon fill="none" stroke="black" points="121.19,-252 67.19,-252 67.19,-216 121.19,-216 121.19,-252"/>
<text text-anchor="middle" x="94.19" y="-231.5" font-family="Helvetica" font-size="10.00">Chem</text>
</a>
</g>
</g>
<!-- dir_f85293c44cb7dbf0b9661f2bdcd7f1cd&#45;&gt;dir_2821c7f3ff716b7357153e2284349b47 -->
<g id="edge7" class="edge">
<title>dir_f85293c44cb7dbf0b9661f2bdcd7f1cd&#45;&gt;dir_2821c7f3ff716b7357153e2284349b47</title>
<path fill="none" stroke="black" d="M73.11,-287.7C76.26,-279.81 80.07,-270.3 83.57,-261.55"/>
<polygon fill="black" stroke="black" points="86.88,-262.69 87.35,-252.1 80.38,-260.09 86.88,-262.69"/>
<g id="a_edge7&#45;headlabel"><a xlink:href="dir_000009_000004.html" target="_top" xlink:title="6">
<text text-anchor="middle" x="88.18" y="-264.58" font-family="Helvetica" font-size="10.00">6</text>
</a>
</g>
</g>
<!-- dir_a11e439900186475800e797c0fd0ac6b -->
<g id="node4" class="node">
<title>dir_a11e439900186475800e797c0fd0ac6b</title>
<g id="a_node4"><a xlink:href="dir_a11e439900186475800e797c0fd0ac6b.html" target="_top" xlink:title="Math">
<polygon fill="none" stroke="black" points="66.19,-180 12.19,-180 12.19,-144 66.19,-144 66.19,-180"/>
<text text-anchor="middle" x="39.19" y="-159.5" font-family="Helvetica" font-size="10.00">Math</text>
</a>
</g>
</g>
<!-- dir_f85293c44cb7dbf0b9661f2bdcd7f1cd&#45;&gt;dir_a11e439900186475800e797c0fd0ac6b -->
<g id="edge8" class="edge">
<title>dir_f85293c44cb7dbf0b9661f2bdcd7f1cd&#45;&gt;dir_a11e439900186475800e797c0fd0ac6b</title>
<path fill="none" stroke="black" d="M62.93,-287.87C58.33,-263.67 49.88,-219.21 44.4,-190.39"/>
<polygon fill="black" stroke="black" points="47.76,-189.36 42.46,-180.19 40.89,-190.67 47.76,-189.36"/>
<g id="a_edge8&#45;headlabel"><a xlink:href="dir_000009_000001.html" target="_top" xlink:title="2">
<text text-anchor="middle" x="51.23" y="-189.86" font-family="Helvetica" font-size="10.00">2</text>
</a>
</g>
</g>
<!-- dir_c592efebd7ac9eb7f4dce0afc29c639f -->
<g id="node5" class="node">
<title>dir_c592efebd7ac9eb7f4dce0afc29c639f</title>
<g id="a_node5"><a xlink:href="dir_c592efebd7ac9eb7f4dce0afc29c639f.html" target="_top" xlink:title="Util">
<polygon fill="none" stroke="black" points="176.19,-108 122.19,-108 122.19,-72 176.19,-72 176.19,-108"/>
<text text-anchor="middle" x="149.19" y="-87.5" font-family="Helvetica" font-size="10.00">Util</text>
</a>
</g>
</g>
<!-- dir_f85293c44cb7dbf0b9661f2bdcd7f1cd&#45;&gt;dir_c592efebd7ac9eb7f4dce0afc29c639f -->
<g id="edge9" class="edge">
<title>dir_f85293c44cb7dbf0b9661f2bdcd7f1cd&#45;&gt;dir_c592efebd7ac9eb7f4dce0afc29c639f</title>
<path fill="none" stroke="black" d="M95.5,-287.97C108.3,-278.96 122.19,-266.7 130.19,-252 153.25,-209.61 153.95,-151.79 151.89,-118.22"/>
<polygon fill="black" stroke="black" points="155.38,-117.93 151.15,-108.22 148.4,-118.45 155.38,-117.93"/>
<g id="a_edge9&#45;headlabel"><a xlink:href="dir_000009_000014.html" target="_top" xlink:title="17">
<text text-anchor="middle" x="158.47" y="-118.81" font-family="Helvetica" font-size="10.00">17</text>
</a>
</g>
</g>
<!-- dir_2821c7f3ff716b7357153e2284349b47&#45;&gt;dir_7ca0558073eba65288e02324c8ceb8f8 -->
<g id="edge1" class="edge">
<title>dir_2821c7f3ff716b7357153e2284349b47&#45;&gt;dir_7ca0558073eba65288e02324c8ceb8f8</title>
<path fill="none" stroke="black" d="M92.59,-215.85C89.13,-178.83 80.94,-91.18 76.75,-46.39"/>
<polygon fill="black" stroke="black" points="80.22,-45.86 75.8,-36.23 73.25,-46.51 80.22,-45.86"/>
<g id="a_edge1&#45;headlabel"><a xlink:href="dir_000004_000005.html" target="_top" xlink:title="21">
<text text-anchor="middle" x="83.38" y="-46.68" font-family="Helvetica" font-size="10.00">21</text>
</a>
</g>
</g>
<!-- dir_2821c7f3ff716b7357153e2284349b47&#45;&gt;dir_a11e439900186475800e797c0fd0ac6b -->
<g id="edge2" class="edge">
<title>dir_2821c7f3ff716b7357153e2284349b47&#45;&gt;dir_a11e439900186475800e797c0fd0ac6b</title>
<path fill="none" stroke="black" d="M80.59,-215.7C74.07,-207.39 66.12,-197.28 58.94,-188.14"/>
<polygon fill="black" stroke="black" points="61.56,-185.81 52.63,-180.1 56.05,-190.13 61.56,-185.81"/>
<g id="a_edge2&#45;headlabel"><a xlink:href="dir_000004_000001.html" target="_top" xlink:title="32">
<text text-anchor="middle" x="66.01" y="-184.38" font-family="Helvetica" font-size="10.00">32</text>
</a>
</g>
</g>
<!-- dir_2821c7f3ff716b7357153e2284349b47&#45;&gt;dir_c592efebd7ac9eb7f4dce0afc29c639f -->
<g id="edge3" class="edge">
<title>dir_2821c7f3ff716b7357153e2284349b47&#45;&gt;dir_c592efebd7ac9eb7f4dce0afc29c639f</title>
<path fill="none" stroke="black" d="M100.82,-215.87C110.28,-191.46 127.72,-146.43 138.87,-117.64"/>
<polygon fill="black" stroke="black" points="142.18,-118.78 142.53,-108.19 135.66,-116.25 142.18,-118.78"/>
<g id="a_edge3&#45;headlabel"><a xlink:href="dir_000004_000014.html" target="_top" xlink:title="191">
<text text-anchor="middle" x="143.53" y="-120.66" font-family="Helvetica" font-size="10.00">191</text>
</a>
</g>
</g>
<!-- dir_a11e439900186475800e797c0fd0ac6b&#45;&gt;dir_7ca0558073eba65288e02324c8ceb8f8 -->
<g id="edge4" class="edge">
<title>dir_a11e439900186475800e797c0fd0ac6b&#45;&gt;dir_7ca0558073eba65288e02324c8ceb8f8</title>
<path fill="none" stroke="black" d="M43.41,-143.87C49.4,-119.56 60.43,-74.82 67.53,-46.01"/>
<polygon fill="black" stroke="black" points="70.96,-46.74 69.95,-36.19 64.16,-45.06 70.96,-46.74"/>
<g id="a_edge4&#45;headlabel"><a xlink:href="dir_000001_000005.html" target="_top" xlink:title="19">
<text text-anchor="middle" x="72.85" y="-48.41" font-family="Helvetica" font-size="10.00">19</text>
</a>
</g>
</g>
<!-- dir_a11e439900186475800e797c0fd0ac6b&#45;&gt;dir_c592efebd7ac9eb7f4dce0afc29c639f -->
<g id="edge5" class="edge">
<title>dir_a11e439900186475800e797c0fd0ac6b&#45;&gt;dir_c592efebd7ac9eb7f4dce0afc29c639f</title>
<path fill="none" stroke="black" d="M66.1,-143.88C80.35,-134.81 98.04,-123.55 113.43,-113.76"/>
<polygon fill="black" stroke="black" points="115.62,-116.51 122.18,-108.19 111.86,-110.61 115.62,-116.51"/>
<g id="a_edge5&#45;headlabel"><a xlink:href="dir_000001_000014.html" target="_top" xlink:title="2">
<text text-anchor="middle" x="114.11" y="-118.34" font-family="Helvetica" font-size="10.00">2</text>
</a>
</g>
</g>
<!-- dir_c592efebd7ac9eb7f4dce0afc29c639f&#45;&gt;dir_7ca0558073eba65288e02324c8ceb8f8 -->
<g id="edge10" class="edge">
<title>dir_c592efebd7ac9eb7f4dce0afc29c639f&#45;&gt;dir_7ca0558073eba65288e02324c8ceb8f8</title>
<path fill="none" stroke="black" d="M130.65,-71.7C121.39,-63.05 110.03,-52.45 99.93,-43.03"/>
<polygon fill="black" stroke="black" points="102.21,-40.37 92.52,-36.1 97.44,-45.49 102.21,-40.37"/>
<g id="a_edge10&#45;headlabel"><a xlink:href="dir_000014_000005.html" target="_top" xlink:title="25">
<text text-anchor="middle" x="106.78" y="-38.25" font-family="Helvetica" font-size="10.00">25</text>
</a>
</g>
</g>
</g>
</svg>
