<?xml version="1.0" encoding="UTF-8" standalone="no"?>
<!DOCTYPE svg PUBLIC "-//W3C//DTD SVG 1.1//EN"
 "http://www.w3.org/Graphics/SVG/1.1/DTD/svg11.dtd">
<!-- Generated by graphviz version 2.44.0 (0)
 -->
<!-- Title: Graphical Class Hierarchy Pages: 1 -->
<svg width="576pt" height="83pt"
 viewBox="0.00 0.00 576.00 83.00" xmlns="http://www.w3.org/2000/svg" xmlns:xlink="http://www.w3.org/1999/xlink">
<g id="graph0" class="graph" transform="scale(1 1) rotate(0) translate(4 79)">
<title>Graphical Class Hierarchy</title>
<!-- Node0 -->
<g id="node1" class="node">
<title>Node0</title>
<g id="a_node1"><a xlink:href="classCDPL_1_1Math_1_1Expression.html" target="_top" xlink:title=" ">
<polygon fill="none" stroke="black" points="0,-0.5 0,-74.5 166,-74.5 166,-0.5 0,-0.5"/>
<text text-anchor="start" x="8" y="-62.5" font-family="Helvetica" font-size="10.00">CDPL::Math::Expression</text>
<text text-anchor="start" x="8" y="-51.5" font-family="Helvetica" font-size="10.00">&lt; RegularSpatialGrid&lt;</text>
<text text-anchor="start" x="8" y="-40.5" font-family="Helvetica" font-size="10.00"> T, typename TypeTraits</text>
<text text-anchor="start" x="8" y="-29.5" font-family="Helvetica" font-size="10.00">&lt; T &gt;::RealType, Grid&lt; T</text>
<text text-anchor="start" x="8" y="-18.5" font-family="Helvetica" font-size="10.00"> &gt;, CMatrix&lt; typename TypeTraits</text>
<text text-anchor="middle" x="83" y="-7.5" font-family="Helvetica" font-size="10.00">&lt; T &gt;::RealType, 4, 4 &gt; &gt; &gt;</text>
</a>
</g>
</g>
<!-- Node1 -->
<g id="node2" class="node">
<title>Node1</title>
<g id="a_node2"><a xlink:href="classCDPL_1_1Math_1_1GridExpression.html" target="_top" xlink:title=" ">
<polygon fill="none" stroke="black" points="202,-0.5 202,-74.5 392,-74.5 392,-0.5 202,-0.5"/>
<text text-anchor="start" x="210" y="-62.5" font-family="Helvetica" font-size="10.00">CDPL::Math::GridExpression</text>
<text text-anchor="start" x="210" y="-51.5" font-family="Helvetica" font-size="10.00">&lt; RegularSpatialGrid&lt; T,</text>
<text text-anchor="start" x="210" y="-40.5" font-family="Helvetica" font-size="10.00"> typename TypeTraits&lt; T &gt;</text>
<text text-anchor="start" x="210" y="-29.5" font-family="Helvetica" font-size="10.00">::RealType, Grid&lt; T &gt;, CMatrix</text>
<text text-anchor="start" x="210" y="-18.5" font-family="Helvetica" font-size="10.00">&lt; typename TypeTraits&lt; T &gt;::RealType,</text>
<text text-anchor="middle" x="297" y="-7.5" font-family="Helvetica" font-size="10.00"> 4, 4 &gt; &gt; &gt;</text>
</a>
</g>
</g>
<!-- Node0&#45;&gt;Node1 -->
<g id="edge1" class="edge">
<title>Node0&#45;&gt;Node1</title>
<path fill="none" stroke="midnightblue" d="M176.45,-37.5C184.85,-37.5 193.37,-37.5 201.79,-37.5"/>
<polygon fill="midnightblue" stroke="midnightblue" points="176.27,-34 166.27,-37.5 176.27,-41 176.27,-34"/>
</g>
<!-- Node2 -->
<g id="node3" class="node">
<title>Node2</title>
<g id="a_node3"><a xlink:href="classCDPL_1_1Math_1_1RegularSpatialGrid.html" target="_top" xlink:title=" ">
<polygon fill="none" stroke="black" points="428,-22.5 428,-52.5 568,-52.5 568,-22.5 428,-22.5"/>
<text text-anchor="start" x="436" y="-40.5" font-family="Helvetica" font-size="10.00">CDPL::Math::RegularSpatial</text>
<text text-anchor="middle" x="498" y="-29.5" font-family="Helvetica" font-size="10.00">Grid&lt; T, C, GD, XF &gt;</text>
</a>
</g>
</g>
<!-- Node1&#45;&gt;Node2 -->
<g id="edge2" class="edge">
<title>Node1&#45;&gt;Node2</title>
<path fill="none" stroke="midnightblue" d="M402.35,-37.5C410.94,-37.5 419.49,-37.5 427.73,-37.5"/>
<polygon fill="midnightblue" stroke="midnightblue" points="402.26,-34 392.26,-37.5 402.26,-41 402.26,-34"/>
</g>
</g>
</svg>
