<?xml version="1.0" encoding="UTF-8" standalone="no"?>
<!DOCTYPE svg PUBLIC "-//W3C//DTD SVG 1.1//EN"
 "http://www.w3.org/Graphics/SVG/1.1/DTD/svg11.dtd">
<!-- Generated by graphviz version 2.44.0 (0)
 -->
<!-- Title: Graphical Class Hierarchy Pages: 1 -->
<svg width="391pt" height="142pt"
 viewBox="0.00 0.00 391.00 142.00" xmlns="http://www.w3.org/2000/svg" xmlns:xlink="http://www.w3.org/1999/xlink">
<g id="graph0" class="graph" transform="scale(1 1) rotate(0) translate(4 138)">
<title>Graphical Class Hierarchy</title>
<!-- Node0 -->
<g id="node1" class="node">
<title>Node0</title>
<g id="a_node1"><a xlink:href="classCDPL_1_1Math_1_1Expression.html" target="_top" xlink:title=" ">
<polygon fill="none" stroke="black" points="0,-57.5 0,-76.5 150,-76.5 150,-57.5 0,-57.5"/>
<text text-anchor="middle" x="75" y="-64.5" font-family="Helvetica" font-size="10.00">CDPL::Math::Expression&lt; E &gt;</text>
</a>
</g>
</g>
<!-- Node1 -->
<g id="node2" class="node">
<title>Node1</title>
<g id="a_node2"><a xlink:href="classCDPL_1_1Math_1_1GridExpression.html" target="_top" xlink:title=" ">
<polygon fill="none" stroke="black" points="200.5,-114.5 200.5,-133.5 368.5,-133.5 368.5,-114.5 200.5,-114.5"/>
<text text-anchor="middle" x="284.5" y="-121.5" font-family="Helvetica" font-size="10.00">CDPL::Math::GridExpression&lt; E &gt;</text>
</a>
</g>
</g>
<!-- Node0&#45;&gt;Node1 -->
<g id="edge1" class="edge">
<title>Node0&#45;&gt;Node1</title>
<path fill="none" stroke="midnightblue" d="M109.96,-80.11C131.51,-88.09 160.11,-98.04 186,-105 199.32,-108.58 213.84,-111.78 227.51,-114.48"/>
<polygon fill="midnightblue" stroke="midnightblue" points="111.19,-76.84 100.59,-76.61 108.73,-83.39 111.19,-76.84"/>
</g>
<!-- Node2 -->
<g id="node3" class="node">
<title>Node2</title>
<g id="a_node3"><a xlink:href="classCDPL_1_1Math_1_1MatrixExpression.html" target="_top" xlink:title=" ">
<polygon fill="none" stroke="black" points="196,-76.5 196,-95.5 373,-95.5 373,-76.5 196,-76.5"/>
<text text-anchor="middle" x="284.5" y="-83.5" font-family="Helvetica" font-size="10.00">CDPL::Math::MatrixExpression&lt; E &gt;</text>
</a>
</g>
</g>
<!-- Node0&#45;&gt;Node2 -->
<g id="edge2" class="edge">
<title>Node0&#45;&gt;Node2</title>
<path fill="none" stroke="midnightblue" d="M160.2,-74.71C171.89,-75.78 183.92,-76.88 195.67,-77.96"/>
<polygon fill="midnightblue" stroke="midnightblue" points="160.31,-71.21 150.03,-73.78 159.67,-78.18 160.31,-71.21"/>
</g>
<!-- Node3 -->
<g id="node4" class="node">
<title>Node3</title>
<g id="a_node4"><a xlink:href="classCDPL_1_1Math_1_1QuaternionExpression.html" target="_top" xlink:title=" ">
<polygon fill="none" stroke="black" points="186,-38.5 186,-57.5 383,-57.5 383,-38.5 186,-38.5"/>
<text text-anchor="middle" x="284.5" y="-45.5" font-family="Helvetica" font-size="10.00">CDPL::Math::QuaternionExpression&lt; E &gt;</text>
</a>
</g>
</g>
<!-- Node0&#45;&gt;Node3 -->
<g id="edge3" class="edge">
<title>Node0&#45;&gt;Node3</title>
<path fill="none" stroke="midnightblue" d="M160.25,-59.29C168.71,-58.51 177.35,-57.72 185.93,-56.93"/>
<polygon fill="midnightblue" stroke="midnightblue" points="159.67,-55.82 150.03,-60.22 160.31,-62.79 159.67,-55.82"/>
</g>
<!-- Node4 -->
<g id="node5" class="node">
<title>Node4</title>
<g id="a_node5"><a xlink:href="classCDPL_1_1Math_1_1VectorExpression.html" target="_top" xlink:title=" ">
<polygon fill="none" stroke="black" points="195.5,-0.5 195.5,-19.5 373.5,-19.5 373.5,-0.5 195.5,-0.5"/>
<text text-anchor="middle" x="284.5" y="-7.5" font-family="Helvetica" font-size="10.00">CDPL::Math::VectorExpression&lt; E &gt;</text>
</a>
</g>
</g>
<!-- Node0&#45;&gt;Node4 -->
<g id="edge4" class="edge">
<title>Node0&#45;&gt;Node4</title>
<path fill="none" stroke="midnightblue" d="M109.96,-53.89C131.51,-45.91 160.11,-35.96 186,-29 199.32,-25.42 213.84,-22.22 227.51,-19.52"/>
<polygon fill="midnightblue" stroke="midnightblue" points="108.73,-50.61 100.59,-57.39 111.19,-57.16 108.73,-50.61"/>
</g>
</g>
</svg>
