<?xml version="1.0" encoding="UTF-8" standalone="no"?>
<!DOCTYPE svg PUBLIC "-//W3C//DTD SVG 1.1//EN"
 "http://www.w3.org/Graphics/SVG/1.1/DTD/svg11.dtd">
<!-- Generated by graphviz version 2.40.1 (0)
 -->
<!-- Title: Graphical Class Hierarchy Pages: 1 -->
<svg width="401pt" height="66pt"
 viewBox="0.00 0.00 401.00 66.00" xmlns="http://www.w3.org/2000/svg" xmlns:xlink="http://www.w3.org/1999/xlink">
<g id="graph0" class="graph" transform="scale(1 1) rotate(0) translate(4 62)">
<title>Graphical Class Hierarchy</title>
<!-- Node0 -->
<g id="node1" class="node">
<title>Node0</title>
<g id="a_node1"><a xlink:href="structCDPL_1_1Math_1_1QuaternionScalarRealUnaryFunctor.html" target="_top" xlink:title=" ">
<polygon fill="none" stroke="#000000" points="0,-14 0,-44 162,-44 162,-14 0,-14"/>
<text text-anchor="start" x="8" y="-32" font-family="Helvetica,sans-Serif" font-size="10.00" fill="#000000">CDPL::Math::QuaternionScalar</text>
<text text-anchor="middle" x="81" y="-21" font-family="Helvetica,sans-Serif" font-size="10.00" fill="#000000">RealUnaryFunctor&lt; Q &gt;</text>
</a>
</g>
</g>
<!-- Node1 -->
<g id="node2" class="node">
<title>Node1</title>
<g id="a_node2"><a xlink:href="structCDPL_1_1Math_1_1QuaternionNorm.html" target="_top" xlink:title=" ">
<polygon fill="none" stroke="#000000" points="201,-38.5 201,-57.5 390,-57.5 390,-38.5 201,-38.5"/>
<text text-anchor="middle" x="295.5" y="-45.5" font-family="Helvetica,sans-Serif" font-size="10.00" fill="#000000">CDPL::Math::QuaternionNorm&lt; Q &gt;</text>
</a>
</g>
</g>
<!-- Node0&#45;&gt;Node1 -->
<g id="edge1" class="edge">
<title>Node0&#45;&gt;Node1</title>
<path fill="none" stroke="#191970" d="M172.3047,-37.0876C181.7902,-37.9278 191.4459,-38.7831 200.966,-39.6264"/>
<polygon fill="#191970" stroke="#191970" points="172.3631,-33.5792 162.0933,-36.1831 171.7454,-40.5519 172.3631,-33.5792"/>
</g>
<!-- Node2 -->
<g id="node3" class="node">
<title>Node2</title>
<g id="a_node3"><a xlink:href="structCDPL_1_1Math_1_1QuaternionNorm2.html" target="_top" xlink:title=" ">
<polygon fill="none" stroke="#000000" points="198,-.5 198,-19.5 393,-19.5 393,-.5 198,-.5"/>
<text text-anchor="middle" x="295.5" y="-7.5" font-family="Helvetica,sans-Serif" font-size="10.00" fill="#000000">CDPL::Math::QuaternionNorm2&lt; Q &gt;</text>
</a>
</g>
</g>
<!-- Node0&#45;&gt;Node2 -->
<g id="edge2" class="edge">
<title>Node0&#45;&gt;Node2</title>
<path fill="none" stroke="#191970" d="M172.2708,-20.9154C180.6808,-20.1705 189.2249,-19.4136 197.6899,-18.6638"/>
<polygon fill="#191970" stroke="#191970" points="171.7454,-17.4481 162.0933,-21.8169 172.3631,-24.4208 171.7454,-17.4481"/>
</g>
</g>
</svg>
