<?xml version="1.0" encoding="UTF-8" standalone="no"?>
<!DOCTYPE svg PUBLIC "-//W3C//DTD SVG 1.1//EN"
 "http://www.w3.org/Graphics/SVG/1.1/DTD/svg11.dtd">
<!-- Generated by graphviz version 2.44.0 (0)
 -->
<!-- Title: Graphical Class Hierarchy Pages: 1 -->
<svg width="362pt" height="186pt"
 viewBox="0.00 0.00 362.00 186.00" xmlns="http://www.w3.org/2000/svg" xmlns:xlink="http://www.w3.org/1999/xlink">
<g id="graph0" class="graph" transform="scale(1 1) rotate(0) translate(4 182)">
<title>Graphical Class Hierarchy</title>
<!-- Node0 -->
<g id="node1" class="node">
<title>Node0</title>
<g id="a_node1"><a xlink:href="classCDPL_1_1Chem_1_1MatchExpression.html" target="_top" xlink:title=" ">
<polygon fill="none" stroke="black" points="0,-73.5 0,-103.5 157,-103.5 157,-73.5 0,-73.5"/>
<text text-anchor="start" x="8" y="-91.5" font-family="Helvetica" font-size="10.00">CDPL::Chem::MatchExpression</text>
<text text-anchor="middle" x="78.5" y="-80.5" font-family="Helvetica" font-size="10.00">&lt; Bond, MolecularGraph &gt;</text>
</a>
</g>
</g>
<!-- Node1 -->
<g id="node2" class="node">
<title>Node1</title>
<g id="a_node2"><a xlink:href="classCDPL_1_1Chem_1_1BondConfigurationMatchExpression.html" target="_top" xlink:title="BondConfigurationMatchExpression.">
<polygon fill="none" stroke="black" points="193,-147.5 193,-177.5 354,-177.5 354,-147.5 193,-147.5"/>
<text text-anchor="start" x="201" y="-165.5" font-family="Helvetica" font-size="10.00">CDPL::Chem::BondConfiguration</text>
<text text-anchor="middle" x="273.5" y="-154.5" font-family="Helvetica" font-size="10.00">MatchExpression</text>
</a>
</g>
</g>
<!-- Node0&#45;&gt;Node1 -->
<g id="edge1" class="edge">
<title>Node0&#45;&gt;Node1</title>
<path fill="none" stroke="midnightblue" d="M120.01,-107.78C141.45,-117.62 168.37,-129.4 193,-138.5 201.38,-141.6 210.37,-144.6 219.18,-147.38"/>
<polygon fill="midnightblue" stroke="midnightblue" points="121.42,-104.58 110.88,-103.56 118.48,-110.93 121.42,-104.58"/>
</g>
<!-- Node2 -->
<g id="node3" class="node">
<title>Node2</title>
<g id="a_node3"><a xlink:href="classCDPL_1_1Chem_1_1BondDirectionMatchExpression.html" target="_top" xlink:title="BondDirectionMatchExpression.">
<polygon fill="none" stroke="black" points="202,-98.5 202,-128.5 345,-128.5 345,-98.5 202,-98.5"/>
<text text-anchor="start" x="210" y="-116.5" font-family="Helvetica" font-size="10.00">CDPL::Chem::BondDirection</text>
<text text-anchor="middle" x="273.5" y="-105.5" font-family="Helvetica" font-size="10.00">MatchExpression</text>
</a>
</g>
</g>
<!-- Node0&#45;&gt;Node2 -->
<g id="edge2" class="edge">
<title>Node0&#45;&gt;Node2</title>
<path fill="none" stroke="midnightblue" d="M167.28,-99.87C178.86,-101.37 190.61,-102.89 201.85,-104.35"/>
<polygon fill="midnightblue" stroke="midnightblue" points="167.53,-96.37 157.17,-98.56 166.63,-103.32 167.53,-96.37"/>
</g>
<!-- Node3 -->
<g id="node4" class="node">
<title>Node3</title>
<g id="a_node4"><a xlink:href="classCDPL_1_1Chem_1_1BondReactionCenterStatusMatchExpression.html" target="_top" xlink:title="BondReactionCenterStatusMatchExpression.">
<polygon fill="none" stroke="black" points="198.5,-49.5 198.5,-79.5 348.5,-79.5 348.5,-49.5 198.5,-49.5"/>
<text text-anchor="start" x="206.5" y="-67.5" font-family="Helvetica" font-size="10.00">CDPL::Chem::BondReaction</text>
<text text-anchor="middle" x="273.5" y="-56.5" font-family="Helvetica" font-size="10.00">CenterStatusMatchExpression</text>
</a>
</g>
</g>
<!-- Node0&#45;&gt;Node3 -->
<g id="edge3" class="edge">
<title>Node0&#45;&gt;Node3</title>
<path fill="none" stroke="midnightblue" d="M167.14,-77.6C177.59,-76.3 188.19,-74.98 198.44,-73.71"/>
<polygon fill="midnightblue" stroke="midnightblue" points="166.66,-74.13 157.17,-78.84 167.52,-81.08 166.66,-74.13"/>
</g>
<!-- Node4 -->
<g id="node5" class="node">
<title>Node4</title>
<g id="a_node5"><a xlink:href="classCDPL_1_1Chem_1_1BondSubstituentDirectionMatchExpression.html" target="_top" xlink:title="BondSubstituentDirectionMatchExpression.">
<polygon fill="none" stroke="black" points="197,-0.5 197,-30.5 350,-30.5 350,-0.5 197,-0.5"/>
<text text-anchor="start" x="205" y="-18.5" font-family="Helvetica" font-size="10.00">CDPL::Chem::BondSubstituent</text>
<text text-anchor="middle" x="273.5" y="-7.5" font-family="Helvetica" font-size="10.00">DirectionMatchExpression</text>
</a>
</g>
</g>
<!-- Node0&#45;&gt;Node4 -->
<g id="edge4" class="edge">
<title>Node0&#45;&gt;Node4</title>
<path fill="none" stroke="midnightblue" d="M122.26,-69.27C143.37,-60.08 169.32,-49.21 193,-40.5 202.37,-37.05 212.46,-33.65 222.21,-30.51"/>
<polygon fill="midnightblue" stroke="midnightblue" points="120.69,-66.14 112.94,-73.37 123.5,-72.55 120.69,-66.14"/>
</g>
</g>
</svg>
