<?xml version="1.0" encoding="UTF-8" standalone="no"?>
<!DOCTYPE svg PUBLIC "-//W3C//DTD SVG 1.1//EN"
 "http://www.w3.org/Graphics/SVG/1.1/DTD/svg11.dtd">
<!-- Generated by graphviz version 2.44.0 (0)
 -->
<!-- Title: Graphical Class Hierarchy Pages: 1 -->
<svg width="510pt" height="28pt"
 viewBox="0.00 0.00 510.00 28.00" xmlns="http://www.w3.org/2000/svg" xmlns:xlink="http://www.w3.org/1999/xlink">
<g id="graph0" class="graph" transform="scale(1 1) rotate(0) translate(4 24)">
<title>Graphical Class Hierarchy</title>
<!-- Node0 -->
<g id="node1" class="node">
<title>Node0</title>
<g id="a_node1"><a xlink:href="classCDPL_1_1Util_1_1Array.html" target="_top" xlink:title=" ">
<polygon fill="none" stroke="black" points="0,-0.5 0,-19.5 118,-19.5 118,-0.5 0,-0.5"/>
<text text-anchor="middle" x="59" y="-7.5" font-family="Helvetica" font-size="10.00">CDPL::Util::Array&lt; V &gt;</text>
</a>
</g>
</g>
<!-- Node1 -->
<g id="node2" class="node">
<title>Node1</title>
<g id="a_node2"><a xlink:href="classCDPL_1_1Math_1_1VectorArray.html" target="_top" xlink:title="An array for storing generic vector objects.">
<polygon fill="none" stroke="black" points="154,-0.5 154,-19.5 306,-19.5 306,-0.5 154,-0.5"/>
<text text-anchor="middle" x="230" y="-7.5" font-family="Helvetica" font-size="10.00">CDPL::Math::VectorArray&lt; V &gt;</text>
</a>
</g>
</g>
<!-- Node0&#45;&gt;Node1 -->
<g id="edge1" class="edge">
<title>Node0&#45;&gt;Node1</title>
<path fill="none" stroke="midnightblue" d="M128.25,-10C136.64,-10 145.24,-10 153.72,-10"/>
<polygon fill="midnightblue" stroke="midnightblue" points="128.16,-6.5 118.16,-10 128.16,-13.5 128.16,-6.5"/>
</g>
<!-- Node2 -->
<g id="node3" class="node">
<title>Node2</title>
<g id="a_node3"><a xlink:href="classCDPL_1_1ConfGen_1_1ConformerData.html" target="_top" xlink:title=" ">
<polygon fill="none" stroke="black" points="342,-0.5 342,-19.5 502,-19.5 502,-0.5 342,-0.5"/>
<text text-anchor="middle" x="422" y="-7.5" font-family="Helvetica" font-size="10.00">CDPL::ConfGen::ConformerData</text>
</a>
</g>
</g>
<!-- Node1&#45;&gt;Node2 -->
<g id="edge2" class="edge">
<title>Node1&#45;&gt;Node2</title>
<path fill="none" stroke="midnightblue" d="M316.35,-10C324.81,-10 333.37,-10 341.77,-10"/>
<polygon fill="midnightblue" stroke="midnightblue" points="316.09,-6.5 306.09,-10 316.09,-13.5 316.09,-6.5"/>
</g>
</g>
</svg>
