<?xml version="1.0" encoding="UTF-8" standalone="no"?>
<!DOCTYPE svg PUBLIC "-//W3C//DTD SVG 1.1//EN"
 "http://www.w3.org/Graphics/SVG/1.1/DTD/svg11.dtd">
<!-- Generated by graphviz version 2.44.0 (0)
 -->
<!-- Title: Graphical Class Hierarchy Pages: 1 -->
<svg width="760pt" height="728pt"
 viewBox="0.00 0.00 760.00 728.00" xmlns="http://www.w3.org/2000/svg" xmlns:xlink="http://www.w3.org/1999/xlink">
<g id="graph0" class="graph" transform="scale(1 1) rotate(0) translate(4 724)">
<title>Graphical Class Hierarchy</title>
<!-- Node0 -->
<g id="node1" class="node">
<title>Node0</title>
<g id="a_node1"><a xlink:href="classCDPL_1_1Util_1_1Array.html" target="_top" xlink:title=" ">
<polygon fill="none" stroke="black" points="0,-239.5 0,-280.5 110,-280.5 110,-239.5 0,-239.5"/>
<text text-anchor="start" x="8" y="-268.5" font-family="Helvetica" font-size="10.00">CDPL::Util::Array&lt;</text>
<text text-anchor="start" x="8" y="-257.5" font-family="Helvetica" font-size="10.00"> typename ValueType</text>
<text text-anchor="middle" x="55" y="-246.5" font-family="Helvetica" font-size="10.00">::SharedPointer &gt;</text>
</a>
</g>
</g>
<!-- Node1 -->
<g id="node2" class="node">
<title>Node1</title>
<g id="a_node2"><a xlink:href="classCDPL_1_1Util_1_1IndirectArray.html" target="_top" xlink:title=" ">
<polygon fill="none" stroke="black" points="162,-421 162,-451 287,-451 287,-421 162,-421"/>
<text text-anchor="start" x="170" y="-439" font-family="Helvetica" font-size="10.00">CDPL::Util::IndirectArray</text>
<text text-anchor="middle" x="224.5" y="-428" font-family="Helvetica" font-size="10.00">&lt; Fragment &gt;</text>
</a>
</g>
</g>
<!-- Node0&#45;&gt;Node1 -->
<g id="edge1" class="edge">
<title>Node0&#45;&gt;Node1</title>
<path fill="none" stroke="midnightblue" d="M73.19,-289.44C89.67,-316.09 116.36,-355.43 146,-384 160.93,-398.39 180.31,-411.39 195.95,-420.79"/>
<polygon fill="midnightblue" stroke="midnightblue" points="75.99,-287.3 67.8,-280.58 70.01,-290.94 75.99,-287.3"/>
</g>
<!-- Node12 -->
<g id="node13" class="node">
<title>Node12</title>
<g id="a_node13"><a xlink:href="classCDPL_1_1Util_1_1IndirectArray.html" target="_top" xlink:title=" ">
<polygon fill="none" stroke="black" points="162,-218 162,-248 287,-248 287,-218 162,-218"/>
<text text-anchor="start" x="170" y="-236" font-family="Helvetica" font-size="10.00">CDPL::Util::IndirectArray</text>
<text text-anchor="middle" x="224.5" y="-225" font-family="Helvetica" font-size="10.00">&lt; GaussianShape &gt;</text>
</a>
</g>
</g>
<!-- Node0&#45;&gt;Node12 -->
<g id="edge12" class="edge">
<title>Node0&#45;&gt;Node12</title>
<path fill="none" stroke="midnightblue" d="M120.58,-249.59C134.14,-247.4 148.4,-245.11 161.84,-242.94"/>
<polygon fill="midnightblue" stroke="midnightblue" points="119.7,-246.19 110.38,-251.23 120.81,-253.1 119.7,-246.19"/>
</g>
<!-- Node14 -->
<g id="node15" class="node">
<title>Node14</title>
<g id="a_node15"><a xlink:href="classCDPL_1_1Util_1_1IndirectArray.html" target="_top" xlink:title=" ">
<polygon fill="none" stroke="black" points="162,-169 162,-199 287,-199 287,-169 162,-169"/>
<text text-anchor="start" x="170" y="-187" font-family="Helvetica" font-size="10.00">CDPL::Util::IndirectArray</text>
<text text-anchor="middle" x="224.5" y="-176" font-family="Helvetica" font-size="10.00">&lt; RegularGrid&lt; T, T &gt; &gt;</text>
</a>
</g>
</g>
<!-- Node0&#45;&gt;Node14 -->
<g id="edge14" class="edge">
<title>Node0&#45;&gt;Node14</title>
<path fill="none" stroke="midnightblue" d="M97.49,-234.15C112.44,-225.47 129.66,-216.18 146,-209 154.15,-205.42 162.99,-202.09 171.68,-199.1"/>
<polygon fill="midnightblue" stroke="midnightblue" points="95.34,-231.35 88.51,-239.45 98.9,-237.38 95.34,-231.35"/>
</g>
<!-- Node16 -->
<g id="node17" class="node">
<title>Node16</title>
<g id="a_node17"><a xlink:href="classCDPL_1_1Util_1_1IndirectArray.html" target="_top" xlink:title=" ">
<polygon fill="none" stroke="black" points="162,-484 162,-514 287,-514 287,-484 162,-484"/>
<text text-anchor="start" x="170" y="-502" font-family="Helvetica" font-size="10.00">CDPL::Util::IndirectArray</text>
<text text-anchor="middle" x="224.5" y="-491" font-family="Helvetica" font-size="10.00">&lt; ElectronSystem &gt;</text>
</a>
</g>
</g>
<!-- Node0&#45;&gt;Node16 -->
<g id="edge16" class="edge">
<title>Node0&#45;&gt;Node16</title>
<path fill="none" stroke="midnightblue" d="M62.67,-290.42C73.47,-333.32 98.52,-411.84 146,-461 155.26,-470.59 167.45,-478.11 179.42,-483.83"/>
<polygon fill="midnightblue" stroke="midnightblue" points="66.04,-289.47 60.28,-280.58 59.24,-291.12 66.04,-289.47"/>
</g>
<!-- Node19 -->
<g id="node20" class="node">
<title>Node19</title>
<g id="a_node20"><a xlink:href="classCDPL_1_1Util_1_1IndirectArray.html" target="_top" xlink:title=" ">
<polygon fill="none" stroke="black" points="147,-267.5 147,-308.5 302,-308.5 302,-267.5 147,-267.5"/>
<text text-anchor="start" x="155" y="-296.5" font-family="Helvetica" font-size="10.00">CDPL::Util::IndirectArray</text>
<text text-anchor="start" x="155" y="-285.5" font-family="Helvetica" font-size="10.00">&lt; MatchExpression&lt; ObjType1,</text>
<text text-anchor="middle" x="224.5" y="-274.5" font-family="Helvetica" font-size="10.00"> void &gt; &gt;</text>
</a>
</g>
</g>
<!-- Node0&#45;&gt;Node19 -->
<g id="edge19" class="edge">
<title>Node0&#45;&gt;Node19</title>
<path fill="none" stroke="midnightblue" d="M120.4,-270.77C129.06,-272.21 138.02,-273.71 146.88,-275.19"/>
<polygon fill="midnightblue" stroke="midnightblue" points="120.82,-267.29 110.38,-269.09 119.67,-274.19 120.82,-267.29"/>
</g>
<!-- Node24 -->
<g id="node25" class="node">
<title>Node24</title>
<g id="a_node25"><a xlink:href="classCDPL_1_1Util_1_1IndirectArray.html" target="_top" xlink:title="A dynamic array class for the storage of object pointers with an indirected query interface.">
<polygon fill="none" stroke="black" points="159,-108.5 159,-149.5 290,-149.5 290,-108.5 159,-108.5"/>
<text text-anchor="start" x="167" y="-137.5" font-family="Helvetica" font-size="10.00">CDPL::Util::IndirectArray</text>
<text text-anchor="start" x="167" y="-126.5" font-family="Helvetica" font-size="10.00">&lt; ValueType, PointerType,</text>
<text text-anchor="middle" x="224.5" y="-115.5" font-family="Helvetica" font-size="10.00"> NullPointerCheck &gt;</text>
</a>
</g>
</g>
<!-- Node0&#45;&gt;Node24 -->
<g id="edge24" class="edge">
<title>Node0&#45;&gt;Node24</title>
<path fill="none" stroke="midnightblue" d="M76.2,-231.13C92.81,-209.16 118.1,-179.47 146,-160 151.47,-156.19 157.47,-152.74 163.64,-149.66"/>
<polygon fill="midnightblue" stroke="midnightblue" points="73.19,-229.32 70.05,-239.44 78.81,-233.48 73.19,-229.32"/>
</g>
<!-- Node2 -->
<g id="node3" class="node">
<title>Node2</title>
<g id="a_node3"><a xlink:href="classCDPL_1_1Chem_1_1FragmentList.html" target="_top" xlink:title="A data type for the storage of Chem::Fragment objects.">
<polygon fill="none" stroke="black" points="359,-494.5 359,-513.5 497,-513.5 497,-494.5 359,-494.5"/>
<text text-anchor="middle" x="428" y="-501.5" font-family="Helvetica" font-size="10.00">CDPL::Chem::FragmentList</text>
</a>
</g>
</g>
<!-- Node1&#45;&gt;Node2 -->
<g id="edge2" class="edge">
<title>Node1&#45;&gt;Node2</title>
<path fill="none" stroke="midnightblue" d="M280.18,-454.45C318.41,-467.35 367.92,-484.06 398.56,-494.4"/>
<polygon fill="midnightblue" stroke="midnightblue" points="280.81,-450.97 270.22,-451.09 278.58,-457.61 280.81,-450.97"/>
</g>
<!-- Node3 -->
<g id="node4" class="node">
<title>Node3</title>
<g id="a_node4"><a xlink:href="classCDPL_1_1Biomol_1_1ResidueList.html" target="_top" xlink:title="Implements the extraction of residues in biological macromolecules.">
<polygon fill="none" stroke="black" points="584.5,-662.5 584.5,-681.5 720.5,-681.5 720.5,-662.5 584.5,-662.5"/>
<text text-anchor="middle" x="652.5" y="-669.5" font-family="Helvetica" font-size="10.00">CDPL::Biomol::ResidueList</text>
</a>
</g>
</g>
<!-- Node2&#45;&gt;Node3 -->
<g id="edge3" class="edge">
<title>Node2&#45;&gt;Node3</title>
<path fill="none" stroke="midnightblue" d="M445.92,-520.6C464.3,-539.01 494.1,-569.96 517,-599 534.86,-621.65 528.98,-637.03 553,-653 562.35,-659.22 573.25,-663.51 584.31,-666.45"/>
<polygon fill="midnightblue" stroke="midnightblue" points="448.35,-518.09 438.79,-513.52 443.42,-523.05 448.35,-518.09"/>
</g>
<!-- Node4 -->
<g id="node5" class="node">
<title>Node4</title>
<g id="a_node5"><a xlink:href="classCDPL_1_1Chem_1_1AromaticRingSet.html" target="_top" xlink:title="Implements the perception of aromatic rings in a molecular graph.">
<polygon fill="none" stroke="black" points="575,-624.5 575,-643.5 730,-643.5 730,-624.5 575,-624.5"/>
<text text-anchor="middle" x="652.5" y="-631.5" font-family="Helvetica" font-size="10.00">CDPL::Chem::AromaticRingSet</text>
</a>
</g>
</g>
<!-- Node2&#45;&gt;Node4 -->
<g id="edge4" class="edge">
<title>Node2&#45;&gt;Node4</title>
<path fill="none" stroke="midnightblue" d="M443.05,-521.51C464.13,-546.51 506.46,-591.92 553,-615 560.88,-618.91 569.48,-622.01 578.22,-624.48"/>
<polygon fill="midnightblue" stroke="midnightblue" points="445.57,-519.08 436.51,-513.6 440.18,-523.54 445.57,-519.08"/>
</g>
<!-- Node5 -->
<g id="node6" class="node">
<title>Node5</title>
<g id="a_node6"><a xlink:href="classCDPL_1_1Chem_1_1AromaticSSSRSubset.html" target="_top" xlink:title="Implements the extraction of the aromatic rings in the SSSR of a molecular graph.">
<polygon fill="none" stroke="black" points="563.5,-586.5 563.5,-605.5 741.5,-605.5 741.5,-586.5 563.5,-586.5"/>
<text text-anchor="middle" x="652.5" y="-593.5" font-family="Helvetica" font-size="10.00">CDPL::Chem::AromaticSSSRSubset</text>
</a>
</g>
</g>
<!-- Node2&#45;&gt;Node5 -->
<g id="edge5" class="edge">
<title>Node2&#45;&gt;Node5</title>
<path fill="none" stroke="midnightblue" d="M450.28,-519.61C474.11,-536.34 514.46,-562.44 553,-577 563.26,-580.88 574.44,-584 585.46,-586.5"/>
<polygon fill="midnightblue" stroke="midnightblue" points="452.17,-516.66 441.99,-513.7 448.1,-522.36 452.17,-516.66"/>
</g>
<!-- Node6 -->
<g id="node7" class="node">
<title>Node6</title>
<g id="a_node7"><a xlink:href="classCDPL_1_1Chem_1_1CompleteRingSet.html" target="_top" xlink:title="Implements the exhaustive perception of rings in a molecular graph.">
<polygon fill="none" stroke="black" points="573.5,-548.5 573.5,-567.5 731.5,-567.5 731.5,-548.5 573.5,-548.5"/>
<text text-anchor="middle" x="652.5" y="-555.5" font-family="Helvetica" font-size="10.00">CDPL::Chem::CompleteRingSet</text>
</a>
</g>
</g>
<!-- Node2&#45;&gt;Node6 -->
<g id="edge6" class="edge">
<title>Node2&#45;&gt;Node6</title>
<path fill="none" stroke="midnightblue" d="M469.75,-516.44C493.84,-523.56 525,-532.36 553,-539 567.4,-542.42 583.1,-545.66 597.65,-548.46"/>
<polygon fill="midnightblue" stroke="midnightblue" points="470.48,-513.01 459.9,-513.51 468.48,-519.71 470.48,-513.01"/>
</g>
<!-- Node7 -->
<g id="node8" class="node">
<title>Node7</title>
<g id="a_node8"><a xlink:href="classCDPL_1_1Chem_1_1ComponentSet.html" target="_top" xlink:title="Implements the perception of molecular graph components.">
<polygon fill="none" stroke="black" points="579.5,-510.5 579.5,-529.5 725.5,-529.5 725.5,-510.5 579.5,-510.5"/>
<text text-anchor="middle" x="652.5" y="-517.5" font-family="Helvetica" font-size="10.00">CDPL::Chem::ComponentSet</text>
</a>
</g>
</g>
<!-- Node2&#45;&gt;Node7 -->
<g id="edge7" class="edge">
<title>Node2&#45;&gt;Node7</title>
<path fill="none" stroke="midnightblue" d="M507.47,-509.64C530.78,-511.32 556.21,-513.15 579.11,-514.79"/>
<polygon fill="midnightblue" stroke="midnightblue" points="507.49,-506.14 497.27,-508.91 506.99,-513.12 507.49,-506.14"/>
</g>
<!-- Node8 -->
<g id="node9" class="node">
<title>Node8</title>
<g id="a_node9"><a xlink:href="classCDPL_1_1Chem_1_1ConnectedSubstructureSet.html" target="_top" xlink:title="ConnectedSubstructureSet.">
<polygon fill="none" stroke="black" points="553,-472.5 553,-491.5 752,-491.5 752,-472.5 553,-472.5"/>
<text text-anchor="middle" x="652.5" y="-479.5" font-family="Helvetica" font-size="10.00">CDPL::Chem::ConnectedSubstructureSet</text>
</a>
</g>
</g>
<!-- Node2&#45;&gt;Node8 -->
<g id="edge8" class="edge">
<title>Node2&#45;&gt;Node8</title>
<path fill="none" stroke="midnightblue" d="M507.28,-496.26C522.74,-494.73 539.13,-493.11 555.11,-491.53"/>
<polygon fill="midnightblue" stroke="midnightblue" points="506.88,-492.78 497.27,-497.25 507.57,-499.75 506.88,-492.78"/>
</g>
<!-- Node9 -->
<g id="node10" class="node">
<title>Node9</title>
<g id="a_node10"><a xlink:href="classCDPL_1_1Chem_1_1ExtendedSSSR.html" target="_top" xlink:title="Implements the perception of the Extended Smallest Set of Smallest Rings (ESSSR) of a molecular graph...">
<polygon fill="none" stroke="black" points="577.5,-434.5 577.5,-453.5 727.5,-453.5 727.5,-434.5 577.5,-434.5"/>
<text text-anchor="middle" x="652.5" y="-441.5" font-family="Helvetica" font-size="10.00">CDPL::Chem::ExtendedSSSR</text>
</a>
</g>
</g>
<!-- Node2&#45;&gt;Node9 -->
<g id="edge9" class="edge">
<title>Node2&#45;&gt;Node9</title>
<path fill="none" stroke="midnightblue" d="M464.46,-490.92C489.06,-482.19 522.72,-470.89 553,-463 566.65,-459.44 581.52,-456.23 595.48,-453.51"/>
<polygon fill="midnightblue" stroke="midnightblue" points="463.07,-487.7 454.84,-494.38 465.43,-494.29 463.07,-487.7"/>
</g>
<!-- Node10 -->
<g id="node11" class="node">
<title>Node10</title>
<g id="a_node11"><a xlink:href="classCDPL_1_1Chem_1_1SmallestSetOfSmallestRings.html" target="_top" xlink:title="Implements the perception of the Smallest Set of Smallest Rings (SSSR) of a molecular graphs.">
<polygon fill="none" stroke="black" points="580,-385 580,-415 725,-415 725,-385 580,-385"/>
<text text-anchor="start" x="588" y="-403" font-family="Helvetica" font-size="10.00">CDPL::Chem::SmallestSetOf</text>
<text text-anchor="middle" x="652.5" y="-392" font-family="Helvetica" font-size="10.00">SmallestRings</text>
</a>
</g>
</g>
<!-- Node2&#45;&gt;Node10 -->
<g id="edge10" class="edge">
<title>Node2&#45;&gt;Node10</title>
<path fill="none" stroke="midnightblue" d="M456.48,-489.34C474.13,-479.61 497.36,-466.24 517,-453 533.81,-441.67 534.79,-433.9 553,-425 561.4,-420.89 570.54,-417.41 579.76,-414.48"/>
<polygon fill="midnightblue" stroke="midnightblue" points="454.4,-486.48 447.3,-494.34 457.76,-492.63 454.4,-486.48"/>
</g>
<!-- Node11 -->
<g id="node12" class="node">
<title>Node11</title>
<g id="a_node12"><a xlink:href="classCDPL_1_1ForceField_1_1MMFF94AromaticSSSRSubset.html" target="_top" xlink:title="Implements the extraction of all rings in the SSSR of a molecular graph that are aromatic according t...">
<polygon fill="none" stroke="black" points="582.5,-336 582.5,-366 722.5,-366 722.5,-336 582.5,-336"/>
<text text-anchor="start" x="590.5" y="-354" font-family="Helvetica" font-size="10.00">CDPL::ForceField::MMFF94</text>
<text text-anchor="middle" x="652.5" y="-343" font-family="Helvetica" font-size="10.00">AromaticSSSRSubset</text>
</a>
</g>
</g>
<!-- Node2&#45;&gt;Node11 -->
<g id="edge11" class="edge">
<title>Node2&#45;&gt;Node11</title>
<path fill="none" stroke="midnightblue" d="M463.62,-490.02C481.38,-481.45 502.31,-469.04 517,-453 542.51,-425.14 523.89,-400.08 553,-376 561.5,-368.97 571.72,-363.89 582.31,-360.21"/>
<polygon fill="midnightblue" stroke="midnightblue" points="461.76,-487.02 454.14,-494.37 464.68,-493.38 461.76,-487.02"/>
</g>
<!-- Node13 -->
<g id="node14" class="node">
<title>Node13</title>
<g id="a_node14"><a xlink:href="classCDPL_1_1Shape_1_1GaussianShapeSet.html" target="_top" xlink:title=" ">
<polygon fill="none" stroke="black" points="344.5,-215.5 344.5,-234.5 511.5,-234.5 511.5,-215.5 344.5,-215.5"/>
<text text-anchor="middle" x="428" y="-222.5" font-family="Helvetica" font-size="10.00">CDPL::Shape::GaussianShapeSet</text>
</a>
</g>
</g>
<!-- Node12&#45;&gt;Node13 -->
<g id="edge13" class="edge">
<title>Node12&#45;&gt;Node13</title>
<path fill="none" stroke="midnightblue" d="M297.4,-230.15C312.59,-229.54 328.74,-228.9 344.3,-228.28"/>
<polygon fill="midnightblue" stroke="midnightblue" points="296.9,-226.66 287.05,-230.56 297.18,-233.66 296.9,-226.66"/>
</g>
<!-- Node15 -->
<g id="node16" class="node">
<title>Node15</title>
<g id="a_node16"><a xlink:href="classCDPL_1_1Grid_1_1RegularGridSet.html" target="_top" xlink:title="RegularGridSet.">
<polygon fill="none" stroke="black" points="358.5,-166 358.5,-196 497.5,-196 497.5,-166 358.5,-166"/>
<text text-anchor="start" x="366.5" y="-184" font-family="Helvetica" font-size="10.00">CDPL::Grid::RegularGridSet</text>
<text text-anchor="middle" x="428" y="-173" font-family="Helvetica" font-size="10.00">&lt; T, CVT &gt;</text>
</a>
</g>
</g>
<!-- Node14&#45;&gt;Node15 -->
<g id="edge15" class="edge">
<title>Node14&#45;&gt;Node15</title>
<path fill="none" stroke="midnightblue" d="M297.29,-182.93C317.19,-182.63 338.73,-182.31 358.44,-182.02"/>
<polygon fill="midnightblue" stroke="midnightblue" points="297,-179.44 287.05,-183.08 297.1,-186.43 297,-179.44"/>
</g>
<!-- Node17 -->
<g id="node18" class="node">
<title>Node17</title>
<g id="a_node18"><a xlink:href="classCDPL_1_1Chem_1_1ElectronSystemList.html" target="_top" xlink:title="A data type for the storage of Chem::ElectronSystem objects.">
<polygon fill="none" stroke="black" points="345,-608.5 345,-627.5 511,-627.5 511,-608.5 345,-608.5"/>
<text text-anchor="middle" x="428" y="-615.5" font-family="Helvetica" font-size="10.00">CDPL::Chem::ElectronSystemList</text>
</a>
</g>
</g>
<!-- Node16&#45;&gt;Node17 -->
<g id="edge17" class="edge">
<title>Node16&#45;&gt;Node17</title>
<path fill="none" stroke="midnightblue" d="M259.63,-519.16C303.52,-545.08 377.97,-589.04 410.72,-608.38"/>
<polygon fill="midnightblue" stroke="midnightblue" points="261.41,-516.14 251.02,-514.07 257.85,-522.17 261.41,-516.14"/>
</g>
<!-- Node18 -->
<g id="node19" class="node">
<title>Node18</title>
<g id="a_node19"><a xlink:href="classCDPL_1_1Chem_1_1PiElectronSystemList.html" target="_top" xlink:title="Implements the perception of all pi electron systems present in a molecule.">
<polygon fill="none" stroke="black" points="565,-700.5 565,-719.5 740,-719.5 740,-700.5 565,-700.5"/>
<text text-anchor="middle" x="652.5" y="-707.5" font-family="Helvetica" font-size="10.00">CDPL::Chem::PiElectronSystemList</text>
</a>
</g>
</g>
<!-- Node17&#45;&gt;Node18 -->
<g id="edge18" class="edge">
<title>Node17&#45;&gt;Node18</title>
<path fill="none" stroke="midnightblue" d="M450.28,-633.61C474.11,-650.34 514.46,-676.44 553,-691 563.26,-694.88 574.44,-698 585.46,-700.5"/>
<polygon fill="midnightblue" stroke="midnightblue" points="452.17,-630.66 441.99,-627.7 448.1,-636.36 452.17,-630.66"/>
</g>
<!-- Node20 -->
<g id="node21" class="node">
<title>Node20</title>
<g id="a_node21"><a xlink:href="classCDPL_1_1Chem_1_1MatchExpressionList.html" target="_top" xlink:title=" ">
<polygon fill="none" stroke="black" points="349.5,-303 349.5,-333 506.5,-333 506.5,-303 349.5,-303"/>
<text text-anchor="start" x="357.5" y="-321" font-family="Helvetica" font-size="10.00">CDPL::Chem::MatchExpression</text>
<text text-anchor="middle" x="428" y="-310" font-family="Helvetica" font-size="10.00">List&lt; ObjType1, void &gt;</text>
</a>
</g>
</g>
<!-- Node19&#45;&gt;Node20 -->
<g id="edge20" class="edge">
<title>Node19&#45;&gt;Node20</title>
<path fill="none" stroke="midnightblue" d="M312.5,-300.95C324.79,-302.78 337.36,-304.65 349.46,-306.46"/>
<polygon fill="midnightblue" stroke="midnightblue" points="312.66,-297.44 302.25,-299.43 311.63,-304.36 312.66,-297.44"/>
</g>
<!-- Node23 -->
<g id="node24" class="node">
<title>Node23</title>
<g id="a_node24"><a xlink:href="classCDPL_1_1Chem_1_1MatchExpressionList.html" target="_top" xlink:title="A container for the storage and evaluation of logical match expression lists.">
<polygon fill="none" stroke="black" points="349.5,-254 349.5,-284 506.5,-284 506.5,-254 349.5,-254"/>
<text text-anchor="start" x="357.5" y="-272" font-family="Helvetica" font-size="10.00">CDPL::Chem::MatchExpression</text>
<text text-anchor="middle" x="428" y="-261" font-family="Helvetica" font-size="10.00">List&lt; ObjType1, ObjType2 &gt;</text>
</a>
</g>
</g>
<!-- Node19&#45;&gt;Node23 -->
<g id="edge23" class="edge">
<title>Node19&#45;&gt;Node23</title>
<path fill="none" stroke="midnightblue" d="M312.5,-279.8C324.79,-278.64 337.36,-277.45 349.46,-276.31"/>
<polygon fill="midnightblue" stroke="midnightblue" points="311.88,-276.34 302.25,-280.76 312.54,-283.31 311.88,-276.34"/>
</g>
<!-- Node21 -->
<g id="node22" class="node">
<title>Node21</title>
<g id="a_node22"><a xlink:href="classCDPL_1_1Chem_1_1ANDMatchExpressionList.html" target="_top" xlink:title="ANDMatchExpressionList.">
<polygon fill="none" stroke="black" points="563,-238 563,-268 742,-268 742,-238 563,-238"/>
<text text-anchor="start" x="571" y="-256" font-family="Helvetica" font-size="10.00">CDPL::Chem::ANDMatchExpression</text>
<text text-anchor="middle" x="652.5" y="-245" font-family="Helvetica" font-size="10.00">List&lt; ObjType1, ObjType2 &gt;</text>
</a>
</g>
</g>
<!-- Node20&#45;&gt;Node21 -->
<g id="edge21" class="edge">
<title>Node20&#45;&gt;Node21</title>
<path fill="none" stroke="midnightblue" d="M498.78,-300.02C504.98,-298.11 511.13,-296.09 517,-294 533.49,-288.12 536.46,-283.73 553,-278 563.5,-274.36 574.8,-271 585.87,-268"/>
<polygon fill="midnightblue" stroke="midnightblue" points="497.6,-296.72 489.02,-302.94 499.61,-303.43 497.6,-296.72"/>
</g>
<!-- Node22 -->
<g id="node23" class="node">
<title>Node22</title>
<g id="a_node23"><a xlink:href="classCDPL_1_1Chem_1_1ORMatchExpressionList.html" target="_top" xlink:title="ORMatchExpressionList.">
<polygon fill="none" stroke="black" points="566.5,-287 566.5,-317 738.5,-317 738.5,-287 566.5,-287"/>
<text text-anchor="start" x="574.5" y="-305" font-family="Helvetica" font-size="10.00">CDPL::Chem::ORMatchExpression</text>
<text text-anchor="middle" x="652.5" y="-294" font-family="Helvetica" font-size="10.00">List&lt; ObjType1, ObjType2 &gt;</text>
</a>
</g>
</g>
<!-- Node20&#45;&gt;Node22 -->
<g id="edge22" class="edge">
<title>Node20&#45;&gt;Node22</title>
<path fill="none" stroke="midnightblue" d="M516.59,-311.7C532.94,-310.53 550.01,-309.3 566.3,-308.13"/>
<polygon fill="midnightblue" stroke="midnightblue" points="516.23,-308.22 506.51,-312.43 516.73,-315.2 516.23,-308.22"/>
</g>
<!-- Node25 -->
<g id="node26" class="node">
<title>Node25</title>
<g id="a_node26"><a xlink:href="classCDPL_1_1Chem_1_1MatchExpressionList.html" target="_top" xlink:title=" ">
<polygon fill="none" stroke="black" points="349.5,-113 349.5,-143 506.5,-143 506.5,-113 349.5,-113"/>
<text text-anchor="start" x="357.5" y="-131" font-family="Helvetica" font-size="10.00">CDPL::Chem::MatchExpression</text>
<text text-anchor="middle" x="428" y="-120" font-family="Helvetica" font-size="10.00">List&lt; ObjType, void &gt;</text>
</a>
</g>
</g>
<!-- Node24&#45;&gt;Node25 -->
<g id="edge25" class="edge">
<title>Node24&#45;&gt;Node25</title>
<path fill="none" stroke="midnightblue" d="M300.43,-128.63C316.41,-128.55 333.32,-128.46 349.39,-128.39"/>
<polygon fill="midnightblue" stroke="midnightblue" points="300.07,-125.13 290.09,-128.68 300.1,-132.13 300.07,-125.13"/>
</g>
<!-- Node26 -->
<g id="node27" class="node">
<title>Node26</title>
<g id="a_node27"><a xlink:href="classCDPL_1_1Chem_1_1ANDMatchExpressionList_3_01ObjType_00_01void_01_4.html" target="_top" xlink:title="ANDMatchExpressionList.">
<polygon fill="none" stroke="black" points="563,-88 563,-118 742,-118 742,-88 563,-88"/>
<text text-anchor="start" x="571" y="-106" font-family="Helvetica" font-size="10.00">CDPL::Chem::ANDMatchExpression</text>
<text text-anchor="middle" x="652.5" y="-95" font-family="Helvetica" font-size="10.00">List&lt; ObjType, void &gt;</text>
</a>
</g>
</g>
<!-- Node25&#45;&gt;Node26 -->
<g id="edge26" class="edge">
<title>Node25&#45;&gt;Node26</title>
<path fill="none" stroke="midnightblue" d="M516.86,-118.13C531.98,-116.43 547.7,-114.66 562.84,-112.96"/>
<polygon fill="midnightblue" stroke="midnightblue" points="516.05,-114.7 506.51,-119.29 516.84,-121.65 516.05,-114.7"/>
</g>
<!-- Node27 -->
<g id="node28" class="node">
<title>Node27</title>
<g id="a_node28"><a xlink:href="classCDPL_1_1Chem_1_1ORMatchExpressionList_3_01ObjType_00_01void_01_4.html" target="_top" xlink:title="ORMatchExpressionList.">
<polygon fill="none" stroke="black" points="566.5,-137 566.5,-167 738.5,-167 738.5,-137 566.5,-137"/>
<text text-anchor="start" x="574.5" y="-155" font-family="Helvetica" font-size="10.00">CDPL::Chem::ORMatchExpression</text>
<text text-anchor="middle" x="652.5" y="-144" font-family="Helvetica" font-size="10.00">List&lt; ObjType, void &gt;</text>
</a>
</g>
</g>
<!-- Node25&#45;&gt;Node27 -->
<g id="edge27" class="edge">
<title>Node25&#45;&gt;Node27</title>
<path fill="none" stroke="midnightblue" d="M516.59,-137.45C532.94,-139.21 550.01,-141.05 566.3,-142.81"/>
<polygon fill="midnightblue" stroke="midnightblue" points="516.83,-133.95 506.51,-136.36 516.07,-140.91 516.83,-133.95"/>
</g>
<!-- Node640 -->
<g id="node29" class="node">
<title>Node640</title>
<g id="a_node29"><a xlink:href="classCDPL_1_1Chem_1_1MatchExpression_3_01ObjType_00_01void_01_4.html" target="_top" xlink:title="A generic boolean expression interface for the implementation of query/target object equivalence test...">
<polygon fill="none" stroke="black" points="146,-59 146,-89 303,-89 303,-59 146,-59"/>
<text text-anchor="start" x="154" y="-77" font-family="Helvetica" font-size="10.00">CDPL::Chem::MatchExpression</text>
<text text-anchor="middle" x="224.5" y="-66" font-family="Helvetica" font-size="10.00">&lt; ObjType, void &gt;</text>
</a>
</g>
</g>
<!-- Node640&#45;&gt;Node25 -->
<g id="edge28" class="edge">
<title>Node640&#45;&gt;Node25</title>
<path fill="none" stroke="midnightblue" d="M291.29,-91.63C316.98,-98.52 346.14,-106.33 370.82,-112.95"/>
<polygon fill="midnightblue" stroke="midnightblue" points="292.19,-88.25 281.63,-89.04 290.38,-95.01 292.19,-88.25"/>
</g>
<!-- Node641 -->
<g id="node30" class="node">
<title>Node641</title>
<g id="a_node30"><a xlink:href="classCDPL_1_1Chem_1_1NOTMatchExpression_3_01ObjType_00_01void_01_4.html" target="_top" xlink:title="NOTMatchExpression.">
<polygon fill="none" stroke="black" points="339,-61 339,-91 517,-91 517,-61 339,-61"/>
<text text-anchor="start" x="347" y="-79" font-family="Helvetica" font-size="10.00">CDPL::Chem::NOTMatchExpression</text>
<text text-anchor="middle" x="428" y="-68" font-family="Helvetica" font-size="10.00">&lt; ObjType, void &gt;</text>
</a>
</g>
</g>
<!-- Node640&#45;&gt;Node641 -->
<g id="edge29" class="edge">
<title>Node640&#45;&gt;Node641</title>
<path fill="none" stroke="midnightblue" d="M313.3,-74.87C321.72,-74.96 330.26,-75.04 338.68,-75.12"/>
<polygon fill="midnightblue" stroke="midnightblue" points="313.15,-71.37 303.12,-74.77 313.08,-78.37 313.15,-71.37"/>
</g>
<!-- Node642 -->
<g id="node31" class="node">
<title>Node642</title>
<g id="a_node31"><a xlink:href="classCDPL_1_1Chem_1_1PropertyMatchExpression_3_01ValueType_00_01MatchFunc_00_01ObjType_00_01void_01_4.html" target="_top" xlink:title="PropertyMatchExpression.">
<polygon fill="none" stroke="black" points="355,-0.5 355,-41.5 501,-41.5 501,-0.5 355,-0.5"/>
<text text-anchor="start" x="363" y="-29.5" font-family="Helvetica" font-size="10.00">CDPL::Chem::PropertyMatch</text>
<text text-anchor="start" x="363" y="-18.5" font-family="Helvetica" font-size="10.00">Expression&lt; ValueType,</text>
<text text-anchor="middle" x="428" y="-7.5" font-family="Helvetica" font-size="10.00"> MatchFunc, ObjType, void &gt;</text>
</a>
</g>
</g>
<!-- Node640&#45;&gt;Node642 -->
<g id="edge30" class="edge">
<title>Node640&#45;&gt;Node642</title>
<path fill="none" stroke="midnightblue" d="M292.65,-56.34C312.63,-51.08 334.62,-45.3 354.91,-39.96"/>
<polygon fill="midnightblue" stroke="midnightblue" points="291.48,-53.03 282.7,-58.95 293.26,-59.8 291.48,-53.03"/>
</g>
<!-- Node643 -->
<g id="node32" class="node">
<title>Node643</title>
<g id="a_node32"><a xlink:href="classCDPL_1_1Chem_1_1MatchExpression.html" target="_top" xlink:title=" ">
<polygon fill="none" stroke="black" points="146,-344 146,-374 303,-374 303,-344 146,-344"/>
<text text-anchor="start" x="154" y="-362" font-family="Helvetica" font-size="10.00">CDPL::Chem::MatchExpression</text>
<text text-anchor="middle" x="224.5" y="-351" font-family="Helvetica" font-size="10.00">&lt; ObjType1, void &gt;</text>
</a>
</g>
</g>
<!-- Node643&#45;&gt;Node20 -->
<g id="edge31" class="edge">
<title>Node643&#45;&gt;Node20</title>
<path fill="none" stroke="midnightblue" d="M309.35,-341.94C323.88,-338.98 338.89,-335.93 353.12,-333.03"/>
<polygon fill="midnightblue" stroke="midnightblue" points="308.49,-338.54 299.39,-343.97 309.88,-345.4 308.49,-338.54"/>
</g>
<!-- Node643&#45;&gt;Node23 -->
<g id="edge32" class="edge">
<title>Node643&#45;&gt;Node23</title>
<path fill="none" stroke="midnightblue" d="M264.86,-339.16C277.22,-332.67 290.81,-325.26 303,-318 319.52,-308.16 321.54,-302.06 339,-294 347.08,-290.27 355.83,-286.98 364.58,-284.11"/>
<polygon fill="midnightblue" stroke="midnightblue" points="262.96,-336.21 255.7,-343.93 266.19,-342.42 262.96,-336.21"/>
</g>
<!-- Node644 -->
<g id="node33" class="node">
<title>Node644</title>
<g id="a_node33"><a xlink:href="classCDPL_1_1Chem_1_1NOTMatchExpression.html" target="_top" xlink:title="NOTMatchExpression.">
<polygon fill="none" stroke="black" points="339,-413 339,-443 517,-443 517,-413 339,-413"/>
<text text-anchor="start" x="347" y="-431" font-family="Helvetica" font-size="10.00">CDPL::Chem::NOTMatchExpression</text>
<text text-anchor="middle" x="428" y="-420" font-family="Helvetica" font-size="10.00">&lt; ObjType1, ObjType2 &gt;</text>
</a>
</g>
</g>
<!-- Node643&#45;&gt;Node644 -->
<g id="edge33" class="edge">
<title>Node643&#45;&gt;Node644</title>
<path fill="none" stroke="midnightblue" d="M271.17,-377.82C291.74,-386.01 316.42,-395.44 339,-403 349.24,-406.43 360.25,-409.8 370.9,-412.91"/>
<polygon fill="midnightblue" stroke="midnightblue" points="272.32,-374.51 261.73,-374.04 269.71,-381.01 272.32,-374.51"/>
</g>
<!-- Node645 -->
<g id="node34" class="node">
<title>Node645</title>
<g id="a_node34"><a xlink:href="classCDPL_1_1Chem_1_1PropertyMatchExpression.html" target="_top" xlink:title="PropertyMatchExpression.">
<polygon fill="none" stroke="black" points="342,-352.5 342,-393.5 514,-393.5 514,-352.5 342,-352.5"/>
<text text-anchor="start" x="350" y="-381.5" font-family="Helvetica" font-size="10.00">CDPL::Chem::PropertyMatch</text>
<text text-anchor="start" x="350" y="-370.5" font-family="Helvetica" font-size="10.00">Expression&lt; ValueType,</text>
<text text-anchor="middle" x="428" y="-359.5" font-family="Helvetica" font-size="10.00"> MatchFunc, ObjType1, ObjType2 &gt;</text>
</a>
</g>
</g>
<!-- Node643&#45;&gt;Node645 -->
<g id="edge34" class="edge">
<title>Node643&#45;&gt;Node645</title>
<path fill="none" stroke="midnightblue" d="M313.28,-365.1C322.72,-365.75 332.31,-366.42 341.72,-367.07"/>
<polygon fill="midnightblue" stroke="midnightblue" points="313.34,-361.59 303.12,-364.39 312.85,-368.58 313.34,-361.59"/>
</g>
</g>
</svg>
