<?xml version="1.0" encoding="UTF-8" standalone="no"?>
<!DOCTYPE svg PUBLIC "-//W3C//DTD SVG 1.1//EN"
 "http://www.w3.org/Graphics/SVG/1.1/DTD/svg11.dtd">
<!-- Generated by graphviz version 2.44.0 (0)
 -->
<!-- Title: Graphical Class Hierarchy Pages: 1 -->
<svg width="508pt" height="50pt"
 viewBox="0.00 0.00 508.00 50.00" xmlns="http://www.w3.org/2000/svg" xmlns:xlink="http://www.w3.org/1999/xlink">
<g id="graph0" class="graph" transform="scale(1 1) rotate(0) translate(4 46)">
<title>Graphical Class Hierarchy</title>
<!-- Node0 -->
<g id="node1" class="node">
<title>Node0</title>
<g id="a_node1"><a xlink:href="classCDPL_1_1Math_1_1Expression.html" target="_top" xlink:title=" ">
<polygon fill="none" stroke="black" points="0,-0.5 0,-41.5 129,-41.5 129,-0.5 0,-0.5"/>
<text text-anchor="start" x="8" y="-29.5" font-family="Helvetica" font-size="10.00">CDPL::Math::Expression</text>
<text text-anchor="start" x="8" y="-18.5" font-family="Helvetica" font-size="10.00">&lt; Scalar2GridBinary&lt; E1,</text>
<text text-anchor="middle" x="64.5" y="-7.5" font-family="Helvetica" font-size="10.00"> E2, F &gt; &gt;</text>
</a>
</g>
</g>
<!-- Node1 -->
<g id="node2" class="node">
<title>Node1</title>
<g id="a_node2"><a xlink:href="classCDPL_1_1Math_1_1GridExpression.html" target="_top" xlink:title=" ">
<polygon fill="none" stroke="black" points="165,-0.5 165,-41.5 308,-41.5 308,-0.5 165,-0.5"/>
<text text-anchor="start" x="173" y="-29.5" font-family="Helvetica" font-size="10.00">CDPL::Math::GridExpression</text>
<text text-anchor="start" x="173" y="-18.5" font-family="Helvetica" font-size="10.00">&lt; Scalar2GridBinary&lt; E1,</text>
<text text-anchor="middle" x="236.5" y="-7.5" font-family="Helvetica" font-size="10.00"> E2, F &gt; &gt;</text>
</a>
</g>
</g>
<!-- Node0&#45;&gt;Node1 -->
<g id="edge1" class="edge">
<title>Node0&#45;&gt;Node1</title>
<path fill="none" stroke="midnightblue" d="M139.45,-21C147.87,-21 156.43,-21 164.8,-21"/>
<polygon fill="midnightblue" stroke="midnightblue" points="139.29,-17.5 129.29,-21 139.29,-24.5 139.29,-17.5"/>
</g>
<!-- Node2 -->
<g id="node3" class="node">
<title>Node2</title>
<g id="a_node3"><a xlink:href="classCDPL_1_1Math_1_1Scalar2GridBinary.html" target="_top" xlink:title=" ">
<polygon fill="none" stroke="black" points="344,-6 344,-36 500,-36 500,-6 344,-6"/>
<text text-anchor="start" x="352" y="-24" font-family="Helvetica" font-size="10.00">CDPL::Math::Scalar2GridBinary</text>
<text text-anchor="middle" x="422" y="-13" font-family="Helvetica" font-size="10.00">&lt; E1, E2, F &gt;</text>
</a>
</g>
</g>
<!-- Node1&#45;&gt;Node2 -->
<g id="edge2" class="edge">
<title>Node1&#45;&gt;Node2</title>
<path fill="none" stroke="midnightblue" d="M318.44,-21C326.92,-21 335.52,-21 343.95,-21"/>
<polygon fill="midnightblue" stroke="midnightblue" points="318.18,-17.5 308.18,-21 318.18,-24.5 318.18,-17.5"/>
</g>
</g>
</svg>
