<?xml version="1.0" encoding="UTF-8" standalone="no"?>
<!DOCTYPE svg PUBLIC "-//W3C//DTD SVG 1.1//EN"
 "http://www.w3.org/Graphics/SVG/1.1/DTD/svg11.dtd">
<!-- Generated by graphviz version 2.44.0 (0)
 -->
<!-- Title: Graphical Class Hierarchy Pages: 1 -->
<svg width="791pt" height="258pt"
 viewBox="0.00 0.00 791.00 257.50" xmlns="http://www.w3.org/2000/svg" xmlns:xlink="http://www.w3.org/1999/xlink">
<g id="graph0" class="graph" transform="scale(1 1) rotate(0) translate(4 253.5)">
<title>Graphical Class Hierarchy</title>
<!-- Node846 -->
<g id="node1" class="node">
<title>Node846</title>
<g id="a_node1"><a xlink:title="STL class.">
<polygon fill="none" stroke="#bfbfbf" points="0,-154 0,-173 77,-173 77,-154 0,-154"/>
<text text-anchor="middle" x="38.5" y="-161" font-family="Helvetica" font-size="10.00">std::exception</text>
</a>
</g>
</g>
<!-- Node0 -->
<g id="node2" class="node">
<title>Node0</title>
<g id="a_node2"><a xlink:href="classCDPL_1_1Base_1_1Exception.html" target="_top" xlink:title="The root of the CDPL exception hierarchy.">
<polygon fill="none" stroke="black" points="113,-154 113,-173 233,-173 233,-154 113,-154"/>
<text text-anchor="middle" x="173" y="-161" font-family="Helvetica" font-size="10.00">CDPL::Base::Exception</text>
</a>
</g>
</g>
<!-- Node846&#45;&gt;Node0 -->
<g id="edge1" class="edge">
<title>Node846&#45;&gt;Node0</title>
<path fill="none" stroke="midnightblue" d="M87.38,-163.5C95.69,-163.5 104.42,-163.5 112.99,-163.5"/>
<polygon fill="midnightblue" stroke="midnightblue" points="87.11,-160 77.11,-163.5 87.11,-167 87.11,-160"/>
</g>
<!-- Node1 -->
<g id="node3" class="node">
<title>Node1</title>
<g id="a_node3"><a xlink:href="classCDPL_1_1Base_1_1BadCast.html" target="_top" xlink:title="Thrown to indicate that a cast or conversion from a given source type to a requested target type is n...">
<polygon fill="none" stroke="black" points="284.5,-230 284.5,-249 399.5,-249 399.5,-230 284.5,-230"/>
<text text-anchor="middle" x="342" y="-237" font-family="Helvetica" font-size="10.00">CDPL::Base::BadCast</text>
</a>
</g>
</g>
<!-- Node0&#45;&gt;Node1 -->
<g id="edge2" class="edge">
<title>Node0&#45;&gt;Node1</title>
<path fill="none" stroke="midnightblue" d="M195.56,-178.86C214.22,-191.55 242.35,-209.26 269,-220.5 277.81,-224.22 287.55,-227.37 296.94,-229.98"/>
<polygon fill="midnightblue" stroke="midnightblue" points="197.42,-175.89 187.2,-173.08 193.43,-181.65 197.42,-175.89"/>
</g>
<!-- Node2 -->
<g id="node4" class="node">
<title>Node2</title>
<g id="a_node4"><a xlink:href="classCDPL_1_1Base_1_1ItemNotFound.html" target="_top" xlink:title="Thrown to indicate that some requested data item could not be found.">
<polygon fill="none" stroke="black" points="272,-192 272,-211 412,-211 412,-192 272,-192"/>
<text text-anchor="middle" x="342" y="-199" font-family="Helvetica" font-size="10.00">CDPL::Base::ItemNotFound</text>
</a>
</g>
</g>
<!-- Node0&#45;&gt;Node2 -->
<g id="edge3" class="edge">
<title>Node0&#45;&gt;Node2</title>
<path fill="none" stroke="midnightblue" d="M225.96,-175.32C249.51,-180.68 276.97,-186.93 299.16,-191.98"/>
<polygon fill="midnightblue" stroke="midnightblue" points="226.67,-171.9 216.14,-173.09 225.12,-178.72 226.67,-171.9"/>
</g>
<!-- Node3 -->
<g id="node5" class="node">
<title>Node3</title>
<g id="a_node5"><a xlink:href="classCDPL_1_1Base_1_1OperationFailed.html" target="_top" xlink:title="Thrown to indicate that some requested operation has failed (e.g. due to unfulfilled preconditions or...">
<polygon fill="none" stroke="black" points="269,-154 269,-173 415,-173 415,-154 269,-154"/>
<text text-anchor="middle" x="342" y="-161" font-family="Helvetica" font-size="10.00">CDPL::Base::OperationFailed</text>
</a>
</g>
</g>
<!-- Node0&#45;&gt;Node3 -->
<g id="edge4" class="edge">
<title>Node0&#45;&gt;Node3</title>
<path fill="none" stroke="midnightblue" d="M243.49,-163.5C251.91,-163.5 260.52,-163.5 268.97,-163.5"/>
<polygon fill="midnightblue" stroke="midnightblue" points="243.35,-160 233.35,-163.5 243.35,-167 243.35,-160"/>
</g>
<!-- Node6 -->
<g id="node8" class="node">
<title>Node6</title>
<g id="a_node8"><a xlink:href="classCDPL_1_1Base_1_1ValueError.html" target="_top" xlink:title="Thrown to indicate errors caused by some invalid value.">
<polygon fill="none" stroke="black" points="281,-97 281,-116 403,-116 403,-97 281,-97"/>
<text text-anchor="middle" x="342" y="-104" font-family="Helvetica" font-size="10.00">CDPL::Base::ValueError</text>
</a>
</g>
</g>
<!-- Node0&#45;&gt;Node6 -->
<g id="edge7" class="edge">
<title>Node0&#45;&gt;Node6</title>
<path fill="none" stroke="midnightblue" d="M211.48,-150.71C242.23,-140.21 285.11,-125.58 312.96,-116.07"/>
<polygon fill="midnightblue" stroke="midnightblue" points="210.29,-147.42 201.95,-153.96 212.55,-154.04 210.29,-147.42"/>
</g>
<!-- Node11 -->
<g id="node13" class="node">
<title>Node11</title>
<g id="a_node13"><a xlink:href="classCDPL_1_1ForceField_1_1Error.html" target="_top" xlink:title=" ">
<polygon fill="none" stroke="black" points="281,-37 281,-56 403,-56 403,-37 281,-37"/>
<text text-anchor="middle" x="342" y="-44" font-family="Helvetica" font-size="10.00">CDPL::ForceField::Error</text>
</a>
</g>
</g>
<!-- Node0&#45;&gt;Node11 -->
<g id="edge12" class="edge">
<title>Node0&#45;&gt;Node11</title>
<path fill="none" stroke="midnightblue" d="M192.72,-147.06C211.41,-131.01 241.26,-106.32 269,-87.5 286.5,-75.63 307.64,-63.87 322.47,-56.01"/>
<polygon fill="midnightblue" stroke="midnightblue" points="190.23,-144.59 184.97,-153.78 194.82,-149.88 190.23,-144.59"/>
</g>
<!-- Node4 -->
<g id="node6" class="node">
<title>Node4</title>
<g id="a_node6"><a xlink:href="classCDPL_1_1Base_1_1CalculationFailed.html" target="_top" xlink:title="Thrown to indicate that some requested calculation has failed.">
<polygon fill="none" stroke="black" points="462,-202 462,-221 614,-221 614,-202 462,-202"/>
<text text-anchor="middle" x="538" y="-209" font-family="Helvetica" font-size="10.00">CDPL::Base::CalculationFailed</text>
</a>
</g>
</g>
<!-- Node3&#45;&gt;Node4 -->
<g id="edge5" class="edge">
<title>Node3&#45;&gt;Node4</title>
<path fill="none" stroke="midnightblue" d="M389.45,-175.66C397.96,-177.92 406.75,-180.27 415,-182.5 431.03,-186.84 434.89,-188.49 451,-192.5 464.2,-195.79 478.62,-199.09 491.81,-201.99"/>
<polygon fill="midnightblue" stroke="midnightblue" points="390.22,-172.25 379.65,-173.07 388.43,-179.01 390.22,-172.25"/>
</g>
<!-- Node5 -->
<g id="node7" class="node">
<title>Node5</title>
<g id="a_node7"><a xlink:href="classCDPL_1_1Base_1_1IOError.html" target="_top" xlink:title="Thrown to indicate that an I/O operation has failed because of physical (e.g. broken pipe) or logical...">
<polygon fill="none" stroke="black" points="483.5,-164 483.5,-183 592.5,-183 592.5,-164 483.5,-164"/>
<text text-anchor="middle" x="538" y="-171" font-family="Helvetica" font-size="10.00">CDPL::Base::IOError</text>
</a>
</g>
</g>
<!-- Node3&#45;&gt;Node5 -->
<g id="edge6" class="edge">
<title>Node3&#45;&gt;Node5</title>
<path fill="none" stroke="midnightblue" d="M425.42,-167.75C445.07,-168.76 465.54,-169.82 483.5,-170.74"/>
<polygon fill="midnightblue" stroke="midnightblue" points="425.41,-164.24 415.24,-167.22 425.04,-171.23 425.41,-164.24"/>
</g>
<!-- Node7 -->
<g id="node9" class="node">
<title>Node7</title>
<g id="a_node9"><a xlink:href="classCDPL_1_1Base_1_1NullPointerException.html" target="_top" xlink:title="Thrown when an operation requires or expects a valid pointer but a null pointer was provided.">
<polygon fill="none" stroke="black" points="454,-126 454,-145 622,-145 622,-126 454,-126"/>
<text text-anchor="middle" x="538" y="-133" font-family="Helvetica" font-size="10.00">CDPL::Base::NullPointerException</text>
</a>
</g>
</g>
<!-- Node6&#45;&gt;Node7 -->
<g id="edge8" class="edge">
<title>Node6&#45;&gt;Node7</title>
<path fill="none" stroke="midnightblue" d="M413.15,-116.99C432.76,-119.92 453.97,-123.09 473.2,-125.96"/>
<polygon fill="midnightblue" stroke="midnightblue" points="413.46,-113.49 403.05,-115.48 412.43,-120.42 413.46,-113.49"/>
</g>
<!-- Node8 -->
<g id="node10" class="node">
<title>Node8</title>
<g id="a_node10"><a xlink:href="classCDPL_1_1Base_1_1RangeError.html" target="_top" xlink:title="Thrown to indicate that a value is out of range.">
<polygon fill="none" stroke="black" points="475,-88 475,-107 601,-107 601,-88 475,-88"/>
<text text-anchor="middle" x="538" y="-95" font-family="Helvetica" font-size="10.00">CDPL::Base::RangeError</text>
</a>
</g>
</g>
<!-- Node6&#45;&gt;Node8 -->
<g id="edge9" class="edge">
<title>Node6&#45;&gt;Node8</title>
<path fill="none" stroke="midnightblue" d="M413.13,-103.25C433.32,-102.31 455.21,-101.29 474.88,-100.38"/>
<polygon fill="midnightblue" stroke="midnightblue" points="412.88,-99.75 403.05,-103.71 413.21,-106.75 412.88,-99.75"/>
</g>
<!-- Node10 -->
<g id="node12" class="node">
<title>Node10</title>
<g id="a_node12"><a xlink:href="classCDPL_1_1Base_1_1SizeError.html" target="_top" xlink:title="Thrown to indicate that the size of a (multidimensional) array is not correct.">
<polygon fill="none" stroke="black" points="479.5,-50 479.5,-69 596.5,-69 596.5,-50 479.5,-50"/>
<text text-anchor="middle" x="538" y="-57" font-family="Helvetica" font-size="10.00">CDPL::Base::SizeError</text>
</a>
</g>
</g>
<!-- Node6&#45;&gt;Node10 -->
<g id="edge11" class="edge">
<title>Node6&#45;&gt;Node10</title>
<path fill="none" stroke="midnightblue" d="M388.18,-94.4C407.49,-89.33 430.31,-83.47 451,-78.5 464.38,-75.29 478.98,-71.99 492.29,-69.05"/>
<polygon fill="midnightblue" stroke="midnightblue" points="387.2,-91.03 378.43,-96.97 388.99,-97.8 387.2,-91.03"/>
</g>
<!-- Node9 -->
<g id="node11" class="node">
<title>Node9</title>
<g id="a_node11"><a xlink:href="classCDPL_1_1Base_1_1IndexError.html" target="_top" xlink:title="Thrown to indicate that an index is out of range.">
<polygon fill="none" stroke="black" points="661,-88 661,-107 783,-107 783,-88 661,-88"/>
<text text-anchor="middle" x="722" y="-95" font-family="Helvetica" font-size="10.00">CDPL::Base::IndexError</text>
</a>
</g>
</g>
<!-- Node8&#45;&gt;Node9 -->
<g id="edge10" class="edge">
<title>Node8&#45;&gt;Node9</title>
<path fill="none" stroke="midnightblue" d="M611.2,-97.5C627.6,-97.5 644.85,-97.5 660.69,-97.5"/>
<polygon fill="midnightblue" stroke="midnightblue" points="611.13,-94 601.13,-97.5 611.13,-101 611.13,-94"/>
</g>
<!-- Node12 -->
<g id="node14" class="node">
<title>Node12</title>
<g id="a_node14"><a xlink:href="classCDPL_1_1ForceField_1_1ParameterizationFailed.html" target="_top" xlink:title=" ">
<polygon fill="none" stroke="black" points="451,-0.5 451,-30.5 625,-30.5 625,-0.5 451,-0.5"/>
<text text-anchor="start" x="459" y="-18.5" font-family="Helvetica" font-size="10.00">CDPL::ForceField::Parameterization</text>
<text text-anchor="middle" x="538" y="-7.5" font-family="Helvetica" font-size="10.00">Failed</text>
</a>
</g>
</g>
<!-- Node11&#45;&gt;Node12 -->
<g id="edge13" class="edge">
<title>Node11&#45;&gt;Node12</title>
<path fill="none" stroke="midnightblue" d="M412.73,-35.36C425.08,-33.38 438.07,-31.31 450.81,-29.27"/>
<polygon fill="midnightblue" stroke="midnightblue" points="411.85,-31.95 402.52,-36.99 412.95,-38.87 411.85,-31.95"/>
</g>
</g>
</svg>
