<?xml version="1.0" encoding="UTF-8" standalone="no"?>
<!DOCTYPE svg PUBLIC "-//W3C//DTD SVG 1.1//EN"
 "http://www.w3.org/Graphics/SVG/1.1/DTD/svg11.dtd">
<!-- Generated by graphviz version 2.44.0 (0)
 -->
<!-- Title: Graphical Class Hierarchy Pages: 1 -->
<svg width="537pt" height="39pt"
 viewBox="0.00 0.00 537.00 39.00" xmlns="http://www.w3.org/2000/svg" xmlns:xlink="http://www.w3.org/1999/xlink">
<g id="graph0" class="graph" transform="scale(1 1) rotate(0) translate(4 35)">
<title>Graphical Class Hierarchy</title>
<!-- Node0 -->
<g id="node1" class="node">
<title>Node0</title>
<g id="a_node1"><a xlink:href="classCDPL_1_1Math_1_1Expression.html" target="_top" xlink:title=" ">
<polygon fill="none" stroke="black" points="0,-0.5 0,-30.5 131,-30.5 131,-0.5 0,-0.5"/>
<text text-anchor="start" x="8" y="-18.5" font-family="Helvetica" font-size="10.00">CDPL::Math::Expression</text>
<text text-anchor="middle" x="65.5" y="-7.5" font-family="Helvetica" font-size="10.00">&lt; VectorReference&lt; V &gt; &gt;</text>
</a>
</g>
</g>
<!-- Node1 -->
<g id="node2" class="node">
<title>Node1</title>
<g id="a_node2"><a xlink:href="classCDPL_1_1Math_1_1VectorExpression.html" target="_top" xlink:title=" ">
<polygon fill="none" stroke="black" points="167,-0.5 167,-30.5 320,-30.5 320,-0.5 167,-0.5"/>
<text text-anchor="start" x="175" y="-18.5" font-family="Helvetica" font-size="10.00">CDPL::Math::VectorExpression</text>
<text text-anchor="middle" x="243.5" y="-7.5" font-family="Helvetica" font-size="10.00">&lt; VectorReference&lt; V &gt; &gt;</text>
</a>
</g>
</g>
<!-- Node0&#45;&gt;Node1 -->
<g id="edge1" class="edge">
<title>Node0&#45;&gt;Node1</title>
<path fill="none" stroke="midnightblue" d="M141.29,-15.5C149.78,-15.5 158.44,-15.5 166.94,-15.5"/>
<polygon fill="midnightblue" stroke="midnightblue" points="141.04,-12 131.04,-15.5 141.04,-19 141.04,-12"/>
</g>
<!-- Node2 -->
<g id="node3" class="node">
<title>Node2</title>
<g id="a_node3"><a xlink:href="classCDPL_1_1Math_1_1VectorReference.html" target="_top" xlink:title=" ">
<polygon fill="none" stroke="black" points="356,-6 356,-25 529,-25 529,-6 356,-6"/>
<text text-anchor="middle" x="442.5" y="-13" font-family="Helvetica" font-size="10.00">CDPL::Math::VectorReference&lt; V &gt;</text>
</a>
</g>
</g>
<!-- Node1&#45;&gt;Node2 -->
<g id="edge2" class="edge">
<title>Node1&#45;&gt;Node2</title>
<path fill="none" stroke="midnightblue" d="M330.36,-15.5C338.84,-15.5 347.44,-15.5 355.92,-15.5"/>
<polygon fill="midnightblue" stroke="midnightblue" points="330.1,-12 320.1,-15.5 330.1,-19 330.1,-12"/>
</g>
</g>
</svg>
