<?xml version="1.0" encoding="UTF-8" standalone="no"?>
<!DOCTYPE svg PUBLIC "-//W3C//DTD SVG 1.1//EN"
 "http://www.w3.org/Graphics/SVG/1.1/DTD/svg11.dtd">
<!-- Generated by graphviz version 2.44.0 (0)
 -->
<!-- Title: Graphical Class Hierarchy Pages: 1 -->
<svg width="253pt" height="78pt"
 viewBox="0.00 0.00 253.00 77.50" xmlns="http://www.w3.org/2000/svg" xmlns:xlink="http://www.w3.org/1999/xlink">
<g id="graph0" class="graph" transform="scale(1 1) rotate(0) translate(4 73.5)">
<title>Graphical Class Hierarchy</title>
<!-- Node487 -->
<g id="node1" class="node">
<title>Node487</title>
<g id="a_node1"><a xlink:title=" ">
<polygon fill="none" stroke="#bfbfbf" points="0,-28 0,-47 72,-47 72,-28 0,-28"/>
<text text-anchor="middle" x="36" y="-35" font-family="Helvetica" font-size="10.00">is_arithmetic</text>
</a>
</g>
</g>
<!-- Node0 -->
<g id="node2" class="node">
<title>Node0</title>
<g id="a_node2"><a xlink:href="structCDPL_1_1Math_1_1IsScalar.html" target="_top" xlink:title=" ">
<polygon fill="none" stroke="black" points="108,-50 108,-69 245,-69 245,-50 108,-50"/>
<text text-anchor="middle" x="176.5" y="-57" font-family="Helvetica" font-size="10.00">CDPL::Math::IsScalar&lt; T &gt;</text>
</a>
</g>
</g>
<!-- Node487&#45;&gt;Node0 -->
<g id="edge1" class="edge">
<title>Node487&#45;&gt;Node0</title>
<path fill="none" stroke="midnightblue" d="M82.2,-44.68C92.83,-46.37 104.33,-48.2 115.5,-49.97"/>
<polygon fill="midnightblue" stroke="midnightblue" points="82.73,-41.22 72.31,-43.11 81.63,-48.13 82.73,-41.22"/>
</g>
<!-- Node489 -->
<g id="node3" class="node">
<title>Node489</title>
<g id="a_node3"><a xlink:href="structCDPL_1_1Math_1_1IsScalar_3_01std_1_1complex_3_01T_01_4_01_4.html" target="_top" xlink:title=" ">
<polygon fill="none" stroke="black" points="119,-0.5 119,-30.5 234,-30.5 234,-0.5 119,-0.5"/>
<text text-anchor="start" x="127" y="-18.5" font-family="Helvetica" font-size="10.00">CDPL::Math::IsScalar</text>
<text text-anchor="middle" x="176.5" y="-7.5" font-family="Helvetica" font-size="10.00">&lt; std::complex&lt; T &gt; &gt;</text>
</a>
</g>
</g>
<!-- Node487&#45;&gt;Node489 -->
<g id="edge2" class="edge">
<title>Node487&#45;&gt;Node489</title>
<path fill="none" stroke="midnightblue" d="M82.3,-30.3C94.02,-28.44 106.78,-26.42 119,-24.48"/>
<polygon fill="midnightblue" stroke="midnightblue" points="81.63,-26.87 72.31,-31.89 82.73,-33.78 81.63,-26.87"/>
</g>
</g>
</svg>
