<?xml version="1.0" encoding="UTF-8" standalone="no"?>
<!DOCTYPE svg PUBLIC "-//W3C//DTD SVG 1.1//EN"
 "http://www.w3.org/Graphics/SVG/1.1/DTD/svg11.dtd">
<!-- Generated by graphviz version 2.44.0 (0)
 -->
<!-- Title: Graphical Class Hierarchy Pages: 1 -->
<svg width="760pt" height="733pt"
 viewBox="0.00 0.00 760.00 733.00" xmlns="http://www.w3.org/2000/svg" xmlns:xlink="http://www.w3.org/1999/xlink">
<g id="graph0" class="graph" transform="scale(1 1) rotate(0) translate(4 729)">
<title>Graphical Class Hierarchy</title>
<!-- Node0 -->
<g id="node1" class="node">
<title>Node0</title>
<g id="a_node1"><a xlink:href="classCDPL_1_1Util_1_1Array.html" target="_top" xlink:title=" ">
<polygon fill="none" stroke="black" points="0,-239.5 0,-280.5 110,-280.5 110,-239.5 0,-239.5"/>
<text text-anchor="start" x="8" y="-268.5" font-family="Helvetica" font-size="10.00">CDPL::Util::Array&lt;</text>
<text text-anchor="start" x="8" y="-257.5" font-family="Helvetica" font-size="10.00"> typename ValueType</text>
<text text-anchor="middle" x="55" y="-246.5" font-family="Helvetica" font-size="10.00">::SharedPointer &gt;</text>
</a>
</g>
</g>
<!-- Node1 -->
<g id="node2" class="node">
<title>Node1</title>
<g id="a_node2"><a xlink:href="classCDPL_1_1Util_1_1IndirectArray.html" target="_top" xlink:title=" ">
<polygon fill="none" stroke="black" points="162,-421 162,-451 287,-451 287,-421 162,-421"/>
<text text-anchor="start" x="170" y="-439" font-family="Helvetica" font-size="10.00">CDPL::Util::IndirectArray</text>
<text text-anchor="middle" x="224.5" y="-428" font-family="Helvetica" font-size="10.00">&lt; Fragment &gt;</text>
</a>
</g>
</g>
<!-- Node0&#45;&gt;Node1 -->
<g id="edge1" class="edge">
<title>Node0&#45;&gt;Node1</title>
<path fill="none" stroke="midnightblue" d="M73.19,-289.44C89.67,-316.09 116.36,-355.43 146,-384 160.93,-398.39 180.31,-411.39 195.95,-420.79"/>
<polygon fill="midnightblue" stroke="midnightblue" points="75.99,-287.3 67.8,-280.58 70.01,-290.94 75.99,-287.3"/>
</g>
<!-- Node13 -->
<g id="node14" class="node">
<title>Node13</title>
<g id="a_node14"><a xlink:href="classCDPL_1_1Util_1_1IndirectArray.html" target="_top" xlink:title=" ">
<polygon fill="none" stroke="black" points="162,-218 162,-248 287,-248 287,-218 162,-218"/>
<text text-anchor="start" x="170" y="-236" font-family="Helvetica" font-size="10.00">CDPL::Util::IndirectArray</text>
<text text-anchor="middle" x="224.5" y="-225" font-family="Helvetica" font-size="10.00">&lt; GaussianShape &gt;</text>
</a>
</g>
</g>
<!-- Node0&#45;&gt;Node13 -->
<g id="edge13" class="edge">
<title>Node0&#45;&gt;Node13</title>
<path fill="none" stroke="midnightblue" d="M120.58,-249.59C134.14,-247.4 148.4,-245.11 161.84,-242.94"/>
<polygon fill="midnightblue" stroke="midnightblue" points="119.7,-246.19 110.38,-251.23 120.81,-253.1 119.7,-246.19"/>
</g>
<!-- Node15 -->
<g id="node16" class="node">
<title>Node15</title>
<g id="a_node16"><a xlink:href="classCDPL_1_1Util_1_1IndirectArray.html" target="_top" xlink:title=" ">
<polygon fill="none" stroke="black" points="162,-169 162,-199 287,-199 287,-169 162,-169"/>
<text text-anchor="start" x="170" y="-187" font-family="Helvetica" font-size="10.00">CDPL::Util::IndirectArray</text>
<text text-anchor="middle" x="224.5" y="-176" font-family="Helvetica" font-size="10.00">&lt; RegularGrid&lt; T, T &gt; &gt;</text>
</a>
</g>
</g>
<!-- Node0&#45;&gt;Node15 -->
<g id="edge15" class="edge">
<title>Node0&#45;&gt;Node15</title>
<path fill="none" stroke="midnightblue" d="M97.49,-234.15C112.44,-225.47 129.66,-216.18 146,-209 154.15,-205.42 162.99,-202.09 171.68,-199.1"/>
<polygon fill="midnightblue" stroke="midnightblue" points="95.34,-231.35 88.51,-239.45 98.9,-237.38 95.34,-231.35"/>
</g>
<!-- Node17 -->
<g id="node18" class="node">
<title>Node17</title>
<g id="a_node18"><a xlink:href="classCDPL_1_1Util_1_1IndirectArray.html" target="_top" xlink:title=" ">
<polygon fill="none" stroke="black" points="162,-484 162,-514 287,-514 287,-484 162,-484"/>
<text text-anchor="start" x="170" y="-502" font-family="Helvetica" font-size="10.00">CDPL::Util::IndirectArray</text>
<text text-anchor="middle" x="224.5" y="-491" font-family="Helvetica" font-size="10.00">&lt; ElectronSystem &gt;</text>
</a>
</g>
</g>
<!-- Node0&#45;&gt;Node17 -->
<g id="edge17" class="edge">
<title>Node0&#45;&gt;Node17</title>
<path fill="none" stroke="midnightblue" d="M62.67,-290.42C73.47,-333.32 98.52,-411.84 146,-461 155.26,-470.59 167.45,-478.11 179.42,-483.83"/>
<polygon fill="midnightblue" stroke="midnightblue" points="66.04,-289.47 60.28,-280.58 59.24,-291.12 66.04,-289.47"/>
</g>
<!-- Node20 -->
<g id="node21" class="node">
<title>Node20</title>
<g id="a_node21"><a xlink:href="classCDPL_1_1Util_1_1IndirectArray.html" target="_top" xlink:title=" ">
<polygon fill="none" stroke="black" points="147,-267.5 147,-308.5 302,-308.5 302,-267.5 147,-267.5"/>
<text text-anchor="start" x="155" y="-296.5" font-family="Helvetica" font-size="10.00">CDPL::Util::IndirectArray</text>
<text text-anchor="start" x="155" y="-285.5" font-family="Helvetica" font-size="10.00">&lt; MatchExpression&lt; ObjType1,</text>
<text text-anchor="middle" x="224.5" y="-274.5" font-family="Helvetica" font-size="10.00"> void &gt; &gt;</text>
</a>
</g>
</g>
<!-- Node0&#45;&gt;Node20 -->
<g id="edge20" class="edge">
<title>Node0&#45;&gt;Node20</title>
<path fill="none" stroke="midnightblue" d="M120.4,-270.77C129.06,-272.21 138.02,-273.71 146.88,-275.19"/>
<polygon fill="midnightblue" stroke="midnightblue" points="120.82,-267.29 110.38,-269.09 119.67,-274.19 120.82,-267.29"/>
</g>
<!-- Node25 -->
<g id="node26" class="node">
<title>Node25</title>
<g id="a_node26"><a xlink:href="classCDPL_1_1Util_1_1IndirectArray.html" target="_top" xlink:title="A dynamic array class for the storage of object pointers with an indirected query interface.">
<polygon fill="none" stroke="black" points="159,-108.5 159,-149.5 290,-149.5 290,-108.5 159,-108.5"/>
<text text-anchor="start" x="167" y="-137.5" font-family="Helvetica" font-size="10.00">CDPL::Util::IndirectArray</text>
<text text-anchor="start" x="167" y="-126.5" font-family="Helvetica" font-size="10.00">&lt; ValueType, PointerType,</text>
<text text-anchor="middle" x="224.5" y="-115.5" font-family="Helvetica" font-size="10.00"> NullPointerCheck &gt;</text>
</a>
</g>
</g>
<!-- Node0&#45;&gt;Node25 -->
<g id="edge25" class="edge">
<title>Node0&#45;&gt;Node25</title>
<path fill="none" stroke="midnightblue" d="M76.2,-231.13C92.81,-209.16 118.1,-179.47 146,-160 151.47,-156.19 157.47,-152.74 163.64,-149.66"/>
<polygon fill="midnightblue" stroke="midnightblue" points="73.19,-229.32 70.05,-239.44 78.81,-233.48 73.19,-229.32"/>
</g>
<!-- Node2 -->
<g id="node3" class="node">
<title>Node2</title>
<g id="a_node3"><a xlink:href="classCDPL_1_1Chem_1_1FragmentList.html" target="_top" xlink:title="A data type for the storage of Chem::Fragment objects.">
<polygon fill="none" stroke="black" points="359,-477.5 359,-496.5 497,-496.5 497,-477.5 359,-477.5"/>
<text text-anchor="middle" x="428" y="-484.5" font-family="Helvetica" font-size="10.00">CDPL::Chem::FragmentList</text>
</a>
</g>
</g>
<!-- Node1&#45;&gt;Node2 -->
<g id="edge2" class="edge">
<title>Node1&#45;&gt;Node2</title>
<path fill="none" stroke="midnightblue" d="M294.96,-453.58C326.6,-461.59 362.81,-470.75 389.3,-477.46"/>
<polygon fill="midnightblue" stroke="midnightblue" points="295.42,-450.09 284.87,-451.03 293.7,-456.87 295.42,-450.09"/>
</g>
<!-- Node3 -->
<g id="node4" class="node">
<title>Node3</title>
<g id="a_node4"><a xlink:href="classCDPL_1_1Biomol_1_1ResidueList.html" target="_top" xlink:title="Implements the extraction of residues in biological macromolecules.">
<polygon fill="none" stroke="black" points="584.5,-291.5 584.5,-310.5 720.5,-310.5 720.5,-291.5 584.5,-291.5"/>
<text text-anchor="middle" x="652.5" y="-298.5" font-family="Helvetica" font-size="10.00">CDPL::Biomol::ResidueList</text>
</a>
</g>
</g>
<!-- Node2&#45;&gt;Node3 -->
<g id="edge3" class="edge">
<title>Node2&#45;&gt;Node3</title>
<path fill="none" stroke="midnightblue" d="M486.42,-473.72C497.81,-468.81 508.77,-462.12 517,-453 557.74,-407.86 508.61,-362.56 553,-321 561.73,-312.83 572.83,-307.6 584.43,-304.32"/>
<polygon fill="midnightblue" stroke="midnightblue" points="484.88,-470.57 476.81,-477.44 487.4,-477.1 484.88,-470.57"/>
</g>
<!-- Node4 -->
<g id="node5" class="node">
<title>Node4</title>
<g id="a_node5"><a xlink:href="classCDPL_1_1Chem_1_1AromaticRingSet.html" target="_top" xlink:title="Implements the perception of aromatic rings in a molecular graph.">
<polygon fill="none" stroke="black" points="575,-667.5 575,-686.5 730,-686.5 730,-667.5 575,-667.5"/>
<text text-anchor="middle" x="652.5" y="-674.5" font-family="Helvetica" font-size="10.00">CDPL::Chem::AromaticRingSet</text>
</a>
</g>
</g>
<!-- Node2&#45;&gt;Node4 -->
<g id="edge4" class="edge">
<title>Node2&#45;&gt;Node4</title>
<path fill="none" stroke="midnightblue" d="M443.2,-504.33C461.05,-526.34 492.33,-565.73 517,-601 534.17,-625.55 528.25,-641.11 553,-658 559.62,-662.52 567.04,-666.02 574.75,-668.74"/>
<polygon fill="midnightblue" stroke="midnightblue" points="445.88,-502.07 436.85,-496.53 440.45,-506.49 445.88,-502.07"/>
</g>
<!-- Node5 -->
<g id="node6" class="node">
<title>Node5</title>
<g id="a_node6"><a xlink:href="classCDPL_1_1Chem_1_1AromaticSSSRSubset.html" target="_top" xlink:title="Implements the extraction of the aromatic rings in the SSSR of a molecular graph.">
<polygon fill="none" stroke="black" points="563.5,-629.5 563.5,-648.5 741.5,-648.5 741.5,-629.5 563.5,-629.5"/>
<text text-anchor="middle" x="652.5" y="-636.5" font-family="Helvetica" font-size="10.00">CDPL::Chem::AromaticSSSRSubset</text>
</a>
</g>
</g>
<!-- Node2&#45;&gt;Node5 -->
<g id="edge5" class="edge">
<title>Node2&#45;&gt;Node5</title>
<path fill="none" stroke="midnightblue" d="M440.26,-505.07C459.5,-534.31 501.66,-591.58 553,-620 560.01,-623.88 567.68,-626.98 575.55,-629.45"/>
<polygon fill="midnightblue" stroke="midnightblue" points="443.18,-503.15 434.83,-496.64 437.3,-506.94 443.18,-503.15"/>
</g>
<!-- Node6 -->
<g id="node7" class="node">
<title>Node6</title>
<g id="a_node7"><a xlink:href="classCDPL_1_1Chem_1_1CompleteRingSet.html" target="_top" xlink:title="Implements the exhaustive perception of rings in a molecular graph.">
<polygon fill="none" stroke="black" points="573.5,-591.5 573.5,-610.5 731.5,-610.5 731.5,-591.5 573.5,-591.5"/>
<text text-anchor="middle" x="652.5" y="-598.5" font-family="Helvetica" font-size="10.00">CDPL::Chem::CompleteRingSet</text>
</a>
</g>
</g>
<!-- Node2&#45;&gt;Node6 -->
<g id="edge6" class="edge">
<title>Node2&#45;&gt;Node6</title>
<path fill="none" stroke="midnightblue" d="M445.55,-503.84C467.87,-525.49 509.82,-562.6 553,-582 561.66,-585.89 571.09,-588.98 580.58,-591.44"/>
<polygon fill="midnightblue" stroke="midnightblue" points="447.82,-501.16 438.25,-496.62 442.9,-506.14 447.82,-501.16"/>
</g>
<!-- Node7 -->
<g id="node8" class="node">
<title>Node7</title>
<g id="a_node8"><a xlink:href="classCDPL_1_1Chem_1_1ComponentSet.html" target="_top" xlink:title="Implements the perception of molecular graph components.">
<polygon fill="none" stroke="black" points="579.5,-553.5 579.5,-572.5 725.5,-572.5 725.5,-553.5 579.5,-553.5"/>
<text text-anchor="middle" x="652.5" y="-560.5" font-family="Helvetica" font-size="10.00">CDPL::Chem::ComponentSet</text>
</a>
</g>
</g>
<!-- Node2&#45;&gt;Node7 -->
<g id="edge7" class="edge">
<title>Node2&#45;&gt;Node7</title>
<path fill="none" stroke="midnightblue" d="M455.59,-501.5C480.2,-514.37 518.15,-532.81 553,-544 564.77,-547.78 577.59,-550.93 589.97,-553.5"/>
<polygon fill="midnightblue" stroke="midnightblue" points="457,-498.29 446.53,-496.7 453.73,-504.48 457,-498.29"/>
</g>
<!-- Node8 -->
<g id="node9" class="node">
<title>Node8</title>
<g id="a_node9"><a xlink:href="classCDPL_1_1Chem_1_1ConnectedSubstructureSet.html" target="_top" xlink:title="ConnectedSubstructureSet.">
<polygon fill="none" stroke="black" points="553,-515.5 553,-534.5 752,-534.5 752,-515.5 553,-515.5"/>
<text text-anchor="middle" x="652.5" y="-522.5" font-family="Helvetica" font-size="10.00">CDPL::Chem::ConnectedSubstructureSet</text>
</a>
</g>
</g>
<!-- Node2&#45;&gt;Node8 -->
<g id="edge8" class="edge">
<title>Node2&#45;&gt;Node8</title>
<path fill="none" stroke="midnightblue" d="M495.02,-498.28C527.03,-503.74 565.07,-510.24 595.62,-515.46"/>
<polygon fill="midnightblue" stroke="midnightblue" points="495.31,-494.77 484.86,-496.54 494.13,-501.67 495.31,-494.77"/>
</g>
<!-- Node9 -->
<g id="node10" class="node">
<title>Node9</title>
<g id="a_node10"><a xlink:href="classCDPL_1_1Chem_1_1ExtendedSSSR.html" target="_top" xlink:title="Implements the perception of the Extended Smallest Set of Smallest Rings (ESSSR) of a molecular graph...">
<polygon fill="none" stroke="black" points="577.5,-477.5 577.5,-496.5 727.5,-496.5 727.5,-477.5 577.5,-477.5"/>
<text text-anchor="middle" x="652.5" y="-484.5" font-family="Helvetica" font-size="10.00">CDPL::Chem::ExtendedSSSR</text>
</a>
</g>
</g>
<!-- Node2&#45;&gt;Node9 -->
<g id="edge9" class="edge">
<title>Node2&#45;&gt;Node9</title>
<path fill="none" stroke="midnightblue" d="M507.52,-487C530.16,-487 554.79,-487 577.17,-487"/>
<polygon fill="midnightblue" stroke="midnightblue" points="507.27,-483.5 497.27,-487 507.27,-490.5 507.27,-483.5"/>
</g>
<!-- Node10 -->
<g id="node11" class="node">
<title>Node10</title>
<g id="a_node11"><a xlink:href="classCDPL_1_1Chem_1_1SmallestSetOfSmallestRings.html" target="_top" xlink:title="Implements the perception of the Smallest Set of Smallest Rings (SSSR) of a molecular graphs.">
<polygon fill="none" stroke="black" points="580,-428 580,-458 725,-458 725,-428 580,-428"/>
<text text-anchor="start" x="588" y="-446" font-family="Helvetica" font-size="10.00">CDPL::Chem::SmallestSetOf</text>
<text text-anchor="middle" x="652.5" y="-435" font-family="Helvetica" font-size="10.00">SmallestRings</text>
</a>
</g>
</g>
<!-- Node2&#45;&gt;Node10 -->
<g id="edge10" class="edge">
<title>Node2&#45;&gt;Node10</title>
<path fill="none" stroke="midnightblue" d="M487.4,-475.45C515.64,-469.87 549.81,-463.11 579.64,-457.21"/>
<polygon fill="midnightblue" stroke="midnightblue" points="486.41,-472.08 477.28,-477.45 487.77,-478.95 486.41,-472.08"/>
</g>
<!-- Node11 -->
<g id="node12" class="node">
<title>Node11</title>
<g id="a_node12"><a xlink:href="classCDPL_1_1ForceField_1_1MMFF94AromaticSSSRSubset.html" target="_top" xlink:title="Implements the extraction of all rings in the SSSR of a molecular graph that are aromatic according t...">
<polygon fill="none" stroke="black" points="582.5,-379 582.5,-409 722.5,-409 722.5,-379 582.5,-379"/>
<text text-anchor="start" x="590.5" y="-397" font-family="Helvetica" font-size="10.00">CDPL::ForceField::MMFF94</text>
<text text-anchor="middle" x="652.5" y="-386" font-family="Helvetica" font-size="10.00">AromaticSSSRSubset</text>
</a>
</g>
</g>
<!-- Node2&#45;&gt;Node11 -->
<g id="edge11" class="edge">
<title>Node2&#45;&gt;Node11</title>
<path fill="none" stroke="midnightblue" d="M472.11,-474.12C486.93,-468.73 503.25,-461.67 517,-453 535.61,-441.26 533.71,-429.6 553,-419 562.12,-413.98 572.27,-409.95 582.49,-406.72"/>
<polygon fill="midnightblue" stroke="midnightblue" points="470.91,-470.83 462.62,-477.43 473.22,-477.44 470.91,-470.83"/>
</g>
<!-- Node12 -->
<g id="node13" class="node">
<title>Node12</title>
<g id="a_node13"><a xlink:href="classCDPL_1_1MolProp_1_1FunctionalGroupList.html" target="_top" xlink:title="Implementation of Ertl&#39;s algorithm [FGPE] for the identification of functional groups in organic mole...">
<polygon fill="none" stroke="black" points="584.5,-330 584.5,-360 720.5,-360 720.5,-330 584.5,-330"/>
<text text-anchor="start" x="592.5" y="-348" font-family="Helvetica" font-size="10.00">CDPL::MolProp::Functional</text>
<text text-anchor="middle" x="652.5" y="-337" font-family="Helvetica" font-size="10.00">GroupList</text>
</a>
</g>
</g>
<!-- Node2&#45;&gt;Node12 -->
<g id="edge12" class="edge">
<title>Node2&#45;&gt;Node12</title>
<path fill="none" stroke="midnightblue" d="M482.6,-473.99C495.02,-469.01 507.4,-462.22 517,-453 546,-425.15 522.38,-396.06 553,-370 562,-362.34 573.04,-356.98 584.43,-353.23"/>
<polygon fill="midnightblue" stroke="midnightblue" points="481.33,-470.73 473.14,-477.45 483.73,-477.3 481.33,-470.73"/>
</g>
<!-- Node14 -->
<g id="node15" class="node">
<title>Node14</title>
<g id="a_node15"><a xlink:href="classCDPL_1_1Shape_1_1GaussianShapeSet.html" target="_top" xlink:title=" ">
<polygon fill="none" stroke="black" points="344.5,-215.5 344.5,-234.5 511.5,-234.5 511.5,-215.5 344.5,-215.5"/>
<text text-anchor="middle" x="428" y="-222.5" font-family="Helvetica" font-size="10.00">CDPL::Shape::GaussianShapeSet</text>
</a>
</g>
</g>
<!-- Node13&#45;&gt;Node14 -->
<g id="edge14" class="edge">
<title>Node13&#45;&gt;Node14</title>
<path fill="none" stroke="midnightblue" d="M297.4,-230.15C312.59,-229.54 328.74,-228.9 344.3,-228.28"/>
<polygon fill="midnightblue" stroke="midnightblue" points="296.9,-226.66 287.05,-230.56 297.18,-233.66 296.9,-226.66"/>
</g>
<!-- Node16 -->
<g id="node17" class="node">
<title>Node16</title>
<g id="a_node17"><a xlink:href="classCDPL_1_1Grid_1_1RegularGridSet.html" target="_top" xlink:title="RegularGridSet.">
<polygon fill="none" stroke="black" points="358.5,-166 358.5,-196 497.5,-196 497.5,-166 358.5,-166"/>
<text text-anchor="start" x="366.5" y="-184" font-family="Helvetica" font-size="10.00">CDPL::Grid::RegularGridSet</text>
<text text-anchor="middle" x="428" y="-173" font-family="Helvetica" font-size="10.00">&lt; T, CVT &gt;</text>
</a>
</g>
</g>
<!-- Node15&#45;&gt;Node16 -->
<g id="edge16" class="edge">
<title>Node15&#45;&gt;Node16</title>
<path fill="none" stroke="midnightblue" d="M297.29,-182.93C317.19,-182.63 338.73,-182.31 358.44,-182.02"/>
<polygon fill="midnightblue" stroke="midnightblue" points="297,-179.44 287.05,-183.08 297.1,-186.43 297,-179.44"/>
</g>
<!-- Node18 -->
<g id="node19" class="node">
<title>Node18</title>
<g id="a_node19"><a xlink:href="classCDPL_1_1Chem_1_1ElectronSystemList.html" target="_top" xlink:title="A data type for the storage of Chem::ElectronSystem objects.">
<polygon fill="none" stroke="black" points="345,-610.5 345,-629.5 511,-629.5 511,-610.5 345,-610.5"/>
<text text-anchor="middle" x="428" y="-617.5" font-family="Helvetica" font-size="10.00">CDPL::Chem::ElectronSystemList</text>
</a>
</g>
</g>
<!-- Node17&#45;&gt;Node18 -->
<g id="edge18" class="edge">
<title>Node17&#45;&gt;Node18</title>
<path fill="none" stroke="midnightblue" d="M259.25,-519.26C303.28,-545.71 378.56,-590.91 411.17,-610.49"/>
<polygon fill="midnightblue" stroke="midnightblue" points="260.99,-516.23 250.61,-514.08 257.38,-522.23 260.99,-516.23"/>
</g>
<!-- Node19 -->
<g id="node20" class="node">
<title>Node19</title>
<g id="a_node20"><a xlink:href="classCDPL_1_1Chem_1_1PiElectronSystemList.html" target="_top" xlink:title="Implements the perception of all pi electron systems present in a molecule.">
<polygon fill="none" stroke="black" points="565,-705.5 565,-724.5 740,-724.5 740,-705.5 565,-705.5"/>
<text text-anchor="middle" x="652.5" y="-712.5" font-family="Helvetica" font-size="10.00">CDPL::Chem::PiElectronSystemList</text>
</a>
</g>
</g>
<!-- Node18&#45;&gt;Node19 -->
<g id="edge19" class="edge">
<title>Node18&#45;&gt;Node19</title>
<path fill="none" stroke="midnightblue" d="M449.41,-635.73C473.04,-653.15 513.76,-680.77 553,-696 562.99,-699.88 573.86,-702.99 584.61,-705.47"/>
<polygon fill="midnightblue" stroke="midnightblue" points="451.33,-632.8 441.23,-629.6 447.14,-638.4 451.33,-632.8"/>
</g>
<!-- Node21 -->
<g id="node22" class="node">
<title>Node21</title>
<g id="a_node22"><a xlink:href="classCDPL_1_1Chem_1_1MatchExpressionList.html" target="_top" xlink:title=" ">
<polygon fill="none" stroke="black" points="349.5,-303 349.5,-333 506.5,-333 506.5,-303 349.5,-303"/>
<text text-anchor="start" x="357.5" y="-321" font-family="Helvetica" font-size="10.00">CDPL::Chem::MatchExpression</text>
<text text-anchor="middle" x="428" y="-310" font-family="Helvetica" font-size="10.00">List&lt; ObjType1, void &gt;</text>
</a>
</g>
</g>
<!-- Node20&#45;&gt;Node21 -->
<g id="edge21" class="edge">
<title>Node20&#45;&gt;Node21</title>
<path fill="none" stroke="midnightblue" d="M312.5,-300.95C324.79,-302.78 337.36,-304.65 349.46,-306.46"/>
<polygon fill="midnightblue" stroke="midnightblue" points="312.66,-297.44 302.25,-299.43 311.63,-304.36 312.66,-297.44"/>
</g>
<!-- Node24 -->
<g id="node25" class="node">
<title>Node24</title>
<g id="a_node25"><a xlink:href="classCDPL_1_1Chem_1_1MatchExpressionList.html" target="_top" xlink:title="A container for the storage and evaluation of logical match expression lists.">
<polygon fill="none" stroke="black" points="349.5,-254 349.5,-284 506.5,-284 506.5,-254 349.5,-254"/>
<text text-anchor="start" x="357.5" y="-272" font-family="Helvetica" font-size="10.00">CDPL::Chem::MatchExpression</text>
<text text-anchor="middle" x="428" y="-261" font-family="Helvetica" font-size="10.00">List&lt; ObjType1, ObjType2 &gt;</text>
</a>
</g>
</g>
<!-- Node20&#45;&gt;Node24 -->
<g id="edge24" class="edge">
<title>Node20&#45;&gt;Node24</title>
<path fill="none" stroke="midnightblue" d="M312.5,-279.8C324.79,-278.64 337.36,-277.45 349.46,-276.31"/>
<polygon fill="midnightblue" stroke="midnightblue" points="311.88,-276.34 302.25,-280.76 312.54,-283.31 311.88,-276.34"/>
</g>
<!-- Node22 -->
<g id="node23" class="node">
<title>Node22</title>
<g id="a_node23"><a xlink:href="classCDPL_1_1Chem_1_1ANDMatchExpressionList.html" target="_top" xlink:title="ANDMatchExpressionList.">
<polygon fill="none" stroke="black" points="563,-193 563,-223 742,-223 742,-193 563,-193"/>
<text text-anchor="start" x="571" y="-211" font-family="Helvetica" font-size="10.00">CDPL::Chem::ANDMatchExpression</text>
<text text-anchor="middle" x="652.5" y="-200" font-family="Helvetica" font-size="10.00">List&lt; ObjType1, ObjType2 &gt;</text>
</a>
</g>
</g>
<!-- Node21&#45;&gt;Node22 -->
<g id="edge22" class="edge">
<title>Node21&#45;&gt;Node22</title>
<path fill="none" stroke="midnightblue" d="M511.26,-297.97C513.24,-296.73 515.16,-295.41 517,-294 542.02,-274.9 527.81,-251.88 553,-233 558.08,-229.19 563.68,-225.96 569.56,-223.22"/>
<polygon fill="midnightblue" stroke="midnightblue" points="509.3,-295.06 502.23,-302.95 512.68,-301.19 509.3,-295.06"/>
</g>
<!-- Node23 -->
<g id="node24" class="node">
<title>Node23</title>
<g id="a_node24"><a xlink:href="classCDPL_1_1Chem_1_1ORMatchExpressionList.html" target="_top" xlink:title="ORMatchExpressionList.">
<polygon fill="none" stroke="black" points="566.5,-242 566.5,-272 738.5,-272 738.5,-242 566.5,-242"/>
<text text-anchor="start" x="574.5" y="-260" font-family="Helvetica" font-size="10.00">CDPL::Chem::ORMatchExpression</text>
<text text-anchor="middle" x="652.5" y="-249" font-family="Helvetica" font-size="10.00">List&lt; ObjType1, ObjType2 &gt;</text>
</a>
</g>
</g>
<!-- Node21&#45;&gt;Node23 -->
<g id="edge23" class="edge">
<title>Node21&#45;&gt;Node23</title>
<path fill="none" stroke="midnightblue" d="M495.72,-300.22C502.92,-298.18 510.12,-296.08 517,-294 533.14,-289.11 536.82,-286.74 553,-282 564.68,-278.58 577.22,-275.18 589.31,-272.05"/>
<polygon fill="midnightblue" stroke="midnightblue" points="494.62,-296.9 485.94,-302.97 496.51,-303.64 494.62,-296.9"/>
</g>
<!-- Node26 -->
<g id="node27" class="node">
<title>Node26</title>
<g id="a_node27"><a xlink:href="classCDPL_1_1Chem_1_1MatchExpressionList.html" target="_top" xlink:title=" ">
<polygon fill="none" stroke="black" points="349.5,-113 349.5,-143 506.5,-143 506.5,-113 349.5,-113"/>
<text text-anchor="start" x="357.5" y="-131" font-family="Helvetica" font-size="10.00">CDPL::Chem::MatchExpression</text>
<text text-anchor="middle" x="428" y="-120" font-family="Helvetica" font-size="10.00">List&lt; ObjType, void &gt;</text>
</a>
</g>
</g>
<!-- Node25&#45;&gt;Node26 -->
<g id="edge26" class="edge">
<title>Node25&#45;&gt;Node26</title>
<path fill="none" stroke="midnightblue" d="M300.43,-128.63C316.41,-128.55 333.32,-128.46 349.39,-128.39"/>
<polygon fill="midnightblue" stroke="midnightblue" points="300.07,-125.13 290.09,-128.68 300.1,-132.13 300.07,-125.13"/>
</g>
<!-- Node27 -->
<g id="node28" class="node">
<title>Node27</title>
<g id="a_node28"><a xlink:href="classCDPL_1_1Chem_1_1ANDMatchExpressionList_3_01ObjType_00_01void_01_4.html" target="_top" xlink:title="ANDMatchExpressionList.">
<polygon fill="none" stroke="black" points="563,-79 563,-109 742,-109 742,-79 563,-79"/>
<text text-anchor="start" x="571" y="-97" font-family="Helvetica" font-size="10.00">CDPL::Chem::ANDMatchExpression</text>
<text text-anchor="middle" x="652.5" y="-86" font-family="Helvetica" font-size="10.00">List&lt; ObjType, void &gt;</text>
</a>
</g>
</g>
<!-- Node26&#45;&gt;Node27 -->
<g id="edge27" class="edge">
<title>Node26&#45;&gt;Node27</title>
<path fill="none" stroke="midnightblue" d="M516.43,-114.64C531.68,-112.31 547.55,-109.88 562.84,-107.55"/>
<polygon fill="midnightblue" stroke="midnightblue" points="515.86,-111.19 506.51,-116.16 516.92,-118.11 515.86,-111.19"/>
</g>
<!-- Node28 -->
<g id="node29" class="node">
<title>Node28</title>
<g id="a_node29"><a xlink:href="classCDPL_1_1Chem_1_1ORMatchExpressionList_3_01ObjType_00_01void_01_4.html" target="_top" xlink:title="ORMatchExpressionList.">
<polygon fill="none" stroke="black" points="566.5,-128 566.5,-158 738.5,-158 738.5,-128 566.5,-128"/>
<text text-anchor="start" x="574.5" y="-146" font-family="Helvetica" font-size="10.00">CDPL::Chem::ORMatchExpression</text>
<text text-anchor="middle" x="652.5" y="-135" font-family="Helvetica" font-size="10.00">List&lt; ObjType, void &gt;</text>
</a>
</g>
</g>
<!-- Node26&#45;&gt;Node28 -->
<g id="edge28" class="edge">
<title>Node26&#45;&gt;Node28</title>
<path fill="none" stroke="midnightblue" d="M516.59,-133.9C532.94,-135.01 550.01,-136.16 566.3,-137.26"/>
<polygon fill="midnightblue" stroke="midnightblue" points="516.72,-130.41 506.51,-133.23 516.25,-137.39 516.72,-130.41"/>
</g>
<!-- Node645 -->
<g id="node30" class="node">
<title>Node645</title>
<g id="a_node30"><a xlink:href="classCDPL_1_1Chem_1_1MatchExpression_3_01ObjType_00_01void_01_4.html" target="_top" xlink:title="A generic boolean expression interface for the implementation of query/target object equivalence test...">
<polygon fill="none" stroke="black" points="146,-59 146,-89 303,-89 303,-59 146,-59"/>
<text text-anchor="start" x="154" y="-77" font-family="Helvetica" font-size="10.00">CDPL::Chem::MatchExpression</text>
<text text-anchor="middle" x="224.5" y="-66" font-family="Helvetica" font-size="10.00">&lt; ObjType, void &gt;</text>
</a>
</g>
</g>
<!-- Node645&#45;&gt;Node26 -->
<g id="edge29" class="edge">
<title>Node645&#45;&gt;Node26</title>
<path fill="none" stroke="midnightblue" d="M291.29,-91.63C316.98,-98.52 346.14,-106.33 370.82,-112.95"/>
<polygon fill="midnightblue" stroke="midnightblue" points="292.19,-88.25 281.63,-89.04 290.38,-95.01 292.19,-88.25"/>
</g>
<!-- Node646 -->
<g id="node31" class="node">
<title>Node646</title>
<g id="a_node31"><a xlink:href="classCDPL_1_1Chem_1_1NOTMatchExpression_3_01ObjType_00_01void_01_4.html" target="_top" xlink:title="NOTMatchExpression.">
<polygon fill="none" stroke="black" points="339,-61 339,-91 517,-91 517,-61 339,-61"/>
<text text-anchor="start" x="347" y="-79" font-family="Helvetica" font-size="10.00">CDPL::Chem::NOTMatchExpression</text>
<text text-anchor="middle" x="428" y="-68" font-family="Helvetica" font-size="10.00">&lt; ObjType, void &gt;</text>
</a>
</g>
</g>
<!-- Node645&#45;&gt;Node646 -->
<g id="edge30" class="edge">
<title>Node645&#45;&gt;Node646</title>
<path fill="none" stroke="midnightblue" d="M313.3,-74.87C321.72,-74.96 330.26,-75.04 338.68,-75.12"/>
<polygon fill="midnightblue" stroke="midnightblue" points="313.15,-71.37 303.12,-74.77 313.08,-78.37 313.15,-71.37"/>
</g>
<!-- Node647 -->
<g id="node32" class="node">
<title>Node647</title>
<g id="a_node32"><a xlink:href="classCDPL_1_1Chem_1_1PropertyMatchExpression_3_01ValueType_00_01MatchFunc_00_01ObjType_00_01void_01_4.html" target="_top" xlink:title="PropertyMatchExpression.">
<polygon fill="none" stroke="black" points="355,-0.5 355,-41.5 501,-41.5 501,-0.5 355,-0.5"/>
<text text-anchor="start" x="363" y="-29.5" font-family="Helvetica" font-size="10.00">CDPL::Chem::PropertyMatch</text>
<text text-anchor="start" x="363" y="-18.5" font-family="Helvetica" font-size="10.00">Expression&lt; ValueType,</text>
<text text-anchor="middle" x="428" y="-7.5" font-family="Helvetica" font-size="10.00"> MatchFunc, ObjType, void &gt;</text>
</a>
</g>
</g>
<!-- Node645&#45;&gt;Node647 -->
<g id="edge31" class="edge">
<title>Node645&#45;&gt;Node647</title>
<path fill="none" stroke="midnightblue" d="M292.65,-56.34C312.63,-51.08 334.62,-45.3 354.91,-39.96"/>
<polygon fill="midnightblue" stroke="midnightblue" points="291.48,-53.03 282.7,-58.95 293.26,-59.8 291.48,-53.03"/>
</g>
<!-- Node648 -->
<g id="node33" class="node">
<title>Node648</title>
<g id="a_node33"><a xlink:href="classCDPL_1_1Chem_1_1MatchExpression.html" target="_top" xlink:title=" ">
<polygon fill="none" stroke="black" points="146,-344 146,-374 303,-374 303,-344 146,-344"/>
<text text-anchor="start" x="154" y="-362" font-family="Helvetica" font-size="10.00">CDPL::Chem::MatchExpression</text>
<text text-anchor="middle" x="224.5" y="-351" font-family="Helvetica" font-size="10.00">&lt; ObjType1, void &gt;</text>
</a>
</g>
</g>
<!-- Node648&#45;&gt;Node21 -->
<g id="edge32" class="edge">
<title>Node648&#45;&gt;Node21</title>
<path fill="none" stroke="midnightblue" d="M309.35,-341.94C323.88,-338.98 338.89,-335.93 353.12,-333.03"/>
<polygon fill="midnightblue" stroke="midnightblue" points="308.49,-338.54 299.39,-343.97 309.88,-345.4 308.49,-338.54"/>
</g>
<!-- Node648&#45;&gt;Node24 -->
<g id="edge33" class="edge">
<title>Node648&#45;&gt;Node24</title>
<path fill="none" stroke="midnightblue" d="M264.86,-339.16C277.22,-332.67 290.81,-325.26 303,-318 319.52,-308.16 321.54,-302.06 339,-294 347.08,-290.27 355.83,-286.98 364.58,-284.11"/>
<polygon fill="midnightblue" stroke="midnightblue" points="262.96,-336.21 255.7,-343.93 266.19,-342.42 262.96,-336.21"/>
</g>
<!-- Node649 -->
<g id="node34" class="node">
<title>Node649</title>
<g id="a_node34"><a xlink:href="classCDPL_1_1Chem_1_1NOTMatchExpression.html" target="_top" xlink:title="NOTMatchExpression.">
<polygon fill="none" stroke="black" points="339,-413 339,-443 517,-443 517,-413 339,-413"/>
<text text-anchor="start" x="347" y="-431" font-family="Helvetica" font-size="10.00">CDPL::Chem::NOTMatchExpression</text>
<text text-anchor="middle" x="428" y="-420" font-family="Helvetica" font-size="10.00">&lt; ObjType1, ObjType2 &gt;</text>
</a>
</g>
</g>
<!-- Node648&#45;&gt;Node649 -->
<g id="edge34" class="edge">
<title>Node648&#45;&gt;Node649</title>
<path fill="none" stroke="midnightblue" d="M271.17,-377.82C291.74,-386.01 316.42,-395.44 339,-403 349.24,-406.43 360.25,-409.8 370.9,-412.91"/>
<polygon fill="midnightblue" stroke="midnightblue" points="272.32,-374.51 261.73,-374.04 269.71,-381.01 272.32,-374.51"/>
</g>
<!-- Node650 -->
<g id="node35" class="node">
<title>Node650</title>
<g id="a_node35"><a xlink:href="classCDPL_1_1Chem_1_1PropertyMatchExpression.html" target="_top" xlink:title="PropertyMatchExpression.">
<polygon fill="none" stroke="black" points="342,-352.5 342,-393.5 514,-393.5 514,-352.5 342,-352.5"/>
<text text-anchor="start" x="350" y="-381.5" font-family="Helvetica" font-size="10.00">CDPL::Chem::PropertyMatch</text>
<text text-anchor="start" x="350" y="-370.5" font-family="Helvetica" font-size="10.00">Expression&lt; ValueType,</text>
<text text-anchor="middle" x="428" y="-359.5" font-family="Helvetica" font-size="10.00"> MatchFunc, ObjType1, ObjType2 &gt;</text>
</a>
</g>
</g>
<!-- Node648&#45;&gt;Node650 -->
<g id="edge35" class="edge">
<title>Node648&#45;&gt;Node650</title>
<path fill="none" stroke="midnightblue" d="M313.28,-365.1C322.72,-365.75 332.31,-366.42 341.72,-367.07"/>
<polygon fill="midnightblue" stroke="midnightblue" points="313.34,-361.59 303.12,-364.39 312.85,-368.58 313.34,-361.59"/>
</g>
</g>
</svg>
