<?xml version="1.0" encoding="UTF-8" standalone="no"?>
<!DOCTYPE svg PUBLIC "-//W3C//DTD SVG 1.1//EN"
 "http://www.w3.org/Graphics/SVG/1.1/DTD/svg11.dtd">
<!-- Generated by graphviz version 2.40.1 (0)
 -->
<!-- Title: Graphical Class Hierarchy Pages: 1 -->
<svg width="320pt" height="66pt"
 viewBox="0.00 0.00 320.00 66.00" xmlns="http://www.w3.org/2000/svg" xmlns:xlink="http://www.w3.org/1999/xlink">
<g id="graph0" class="graph" transform="scale(1 1) rotate(0) translate(4 62)">
<title>Graphical Class Hierarchy</title>
<!-- Node0 -->
<g id="node1" class="node">
<title>Node0</title>
<g id="a_node1"><a xlink:href="classCDPL_1_1Vis_1_1FontMetrics.html" target="_top" xlink:title="An interface class with methods that provide information about the metrics of a font.">
<polygon fill="none" stroke="#000000" points="0,-19.5 0,-38.5 125,-38.5 125,-19.5 0,-19.5"/>
<text text-anchor="middle" x="62.5" y="-26.5" font-family="Helvetica,sans-Serif" font-size="10.00" fill="#000000">CDPL::Vis::FontMetrics</text>
</a>
</g>
</g>
<!-- Node1 -->
<g id="node2" class="node">
<title>Node1</title>
<g id="a_node2"><a xlink:href="classCDPL_1_1Vis_1_1CairoFontMetrics.html" target="_top" xlink:title="Implements the FontMetrics interface for the Cairo rendering backend.">
<polygon fill="none" stroke="#000000" points="161,-38.5 161,-57.5 312,-57.5 312,-38.5 161,-38.5"/>
<text text-anchor="middle" x="236.5" y="-45.5" font-family="Helvetica,sans-Serif" font-size="10.00" fill="#000000">CDPL::Vis::CairoFontMetrics</text>
</a>
</g>
</g>
<!-- Node0&#45;&gt;Node1 -->
<g id="edge1" class="edge">
<title>Node0&#45;&gt;Node1</title>
<path fill="none" stroke="#191970" d="M135.4106,-36.9615C143.775,-37.8749 152.3179,-38.8077 160.7189,-39.725"/>
<polygon fill="#191970" stroke="#191970" points="135.6389,-33.4657 125.318,-35.8594 134.8789,-40.4243 135.6389,-33.4657"/>
</g>
<!-- Node2 -->
<g id="node3" class="node">
<title>Node2</title>
<g id="a_node3"><a xlink:href="classCDPL_1_1Vis_1_1QtFontMetrics.html" target="_top" xlink:title="Implements the FontMetrics interface for the Qt rendering backend.">
<polygon fill="none" stroke="#000000" points="168,-.5 168,-19.5 305,-19.5 305,-.5 168,-.5"/>
<text text-anchor="middle" x="236.5" y="-7.5" font-family="Helvetica,sans-Serif" font-size="10.00" fill="#000000">CDPL::Vis::QtFontMetrics</text>
</a>
</g>
</g>
<!-- Node0&#45;&gt;Node2 -->
<g id="edge2" class="edge">
<title>Node0&#45;&gt;Node2</title>
<path fill="none" stroke="#191970" d="M135.4948,-21.0293C146.2256,-19.8576 157.2483,-18.6539 167.8867,-17.4923"/>
<polygon fill="#191970" stroke="#191970" points="134.8789,-17.5757 125.318,-22.1406 135.6389,-24.5343 134.8789,-17.5757"/>
</g>
</g>
</svg>
