<?xml version="1.0" encoding="UTF-8" standalone="no"?>
<!DOCTYPE svg PUBLIC "-//W3C//DTD SVG 1.1//EN"
 "http://www.w3.org/Graphics/SVG/1.1/DTD/svg11.dtd">
<!-- Generated by graphviz version 2.44.0 (0)
 -->
<!-- Title: Graphical Class Hierarchy Pages: 1 -->
<svg width="539pt" height="50pt"
 viewBox="0.00 0.00 539.00 50.00" xmlns="http://www.w3.org/2000/svg" xmlns:xlink="http://www.w3.org/1999/xlink">
<g id="graph0" class="graph" transform="scale(1 1) rotate(0) translate(4 46)">
<title>Graphical Class Hierarchy</title>
<!-- Node0 -->
<g id="node1" class="node">
<title>Node0</title>
<g id="a_node1"><a xlink:href="classCDPL_1_1Math_1_1Expression.html" target="_top" xlink:title=" ">
<polygon fill="none" stroke="black" points="0,-0.5 0,-41.5 134,-41.5 134,-0.5 0,-0.5"/>
<text text-anchor="start" x="8" y="-29.5" font-family="Helvetica" font-size="10.00">CDPL::Math::Expression</text>
<text text-anchor="start" x="8" y="-18.5" font-family="Helvetica" font-size="10.00">&lt; VectorQuaternionAdapter</text>
<text text-anchor="middle" x="67" y="-7.5" font-family="Helvetica" font-size="10.00">&lt; V &gt; &gt;</text>
</a>
</g>
</g>
<!-- Node1 -->
<g id="node2" class="node">
<title>Node1</title>
<g id="a_node2"><a xlink:href="classCDPL_1_1Math_1_1QuaternionExpression.html" target="_top" xlink:title=" ">
<polygon fill="none" stroke="black" points="170,-6 170,-36 343,-36 343,-6 170,-6"/>
<text text-anchor="start" x="178" y="-24" font-family="Helvetica" font-size="10.00">CDPL::Math::QuaternionExpression</text>
<text text-anchor="middle" x="256.5" y="-13" font-family="Helvetica" font-size="10.00">&lt; VectorQuaternionAdapter&lt; V &gt; &gt;</text>
</a>
</g>
</g>
<!-- Node0&#45;&gt;Node1 -->
<g id="edge1" class="edge">
<title>Node0&#45;&gt;Node1</title>
<path fill="none" stroke="midnightblue" d="M144.3,-21C152.75,-21 161.4,-21 169.96,-21"/>
<polygon fill="midnightblue" stroke="midnightblue" points="144.11,-17.5 134.11,-21 144.11,-24.5 144.11,-17.5"/>
</g>
<!-- Node2 -->
<g id="node3" class="node">
<title>Node2</title>
<g id="a_node3"><a xlink:href="classCDPL_1_1Math_1_1VectorQuaternionAdapter.html" target="_top" xlink:title=" ">
<polygon fill="none" stroke="black" points="379,-6 379,-36 531,-36 531,-6 379,-6"/>
<text text-anchor="start" x="387" y="-24" font-family="Helvetica" font-size="10.00">CDPL::Math::VectorQuaternion</text>
<text text-anchor="middle" x="455" y="-13" font-family="Helvetica" font-size="10.00">Adapter&lt; V &gt;</text>
</a>
</g>
</g>
<!-- Node1&#45;&gt;Node2 -->
<g id="edge2" class="edge">
<title>Node1&#45;&gt;Node2</title>
<path fill="none" stroke="midnightblue" d="M353.2,-21C361.8,-21 370.44,-21 378.84,-21"/>
<polygon fill="midnightblue" stroke="midnightblue" points="353.12,-17.5 343.12,-21 353.12,-24.5 353.12,-17.5"/>
</g>
</g>
</svg>
