<?xml version="1.0" encoding="UTF-8" standalone="no"?>
<!DOCTYPE svg PUBLIC "-//W3C//DTD SVG 1.1//EN"
 "http://www.w3.org/Graphics/SVG/1.1/DTD/svg11.dtd">
<!-- Generated by graphviz version 2.44.0 (0)
 -->
<!-- Title: Graphical Class Hierarchy Pages: 1 -->
<svg width="371pt" height="88pt"
 viewBox="0.00 0.00 371.00 88.00" xmlns="http://www.w3.org/2000/svg" xmlns:xlink="http://www.w3.org/1999/xlink">
<g id="graph0" class="graph" transform="scale(1 1) rotate(0) translate(4 84)">
<title>Graphical Class Hierarchy</title>
<!-- Node0 -->
<g id="node1" class="node">
<title>Node0</title>
<g id="a_node1"><a xlink:href="classCDPL_1_1Chem_1_1MatchExpression.html" target="_top" xlink:title=" ">
<polygon fill="none" stroke="black" points="0,-24.5 0,-54.5 157,-54.5 157,-24.5 0,-24.5"/>
<text text-anchor="start" x="8" y="-42.5" font-family="Helvetica" font-size="10.00">CDPL::Chem::MatchExpression</text>
<text text-anchor="middle" x="78.5" y="-31.5" font-family="Helvetica" font-size="10.00">&lt; Reaction &gt;</text>
</a>
</g>
</g>
<!-- Node1 -->
<g id="node2" class="node">
<title>Node1</title>
<g id="a_node2"><a xlink:href="classCDPL_1_1Chem_1_1ReactionAtomMappingMatchExpression.html" target="_top" xlink:title="ReactionAtomMappingMatchExpression.">
<polygon fill="none" stroke="black" points="206.5,-49.5 206.5,-79.5 349.5,-79.5 349.5,-49.5 206.5,-49.5"/>
<text text-anchor="start" x="214.5" y="-67.5" font-family="Helvetica" font-size="10.00">CDPL::Chem::ReactionAtom</text>
<text text-anchor="middle" x="278" y="-56.5" font-family="Helvetica" font-size="10.00">MappingMatchExpression</text>
</a>
</g>
</g>
<!-- Node0&#45;&gt;Node1 -->
<g id="edge1" class="edge">
<title>Node0&#45;&gt;Node1</title>
<path fill="none" stroke="midnightblue" d="M167.22,-50.6C180.32,-52.26 193.68,-53.95 206.36,-55.56"/>
<polygon fill="midnightblue" stroke="midnightblue" points="167.63,-47.13 157.27,-49.34 166.75,-54.07 167.63,-47.13"/>
</g>
<!-- Node2 -->
<g id="node3" class="node">
<title>Node2</title>
<g id="a_node3"><a xlink:href="classCDPL_1_1Chem_1_1ReactionComponentGroupingMatchExpression.html" target="_top" xlink:title="ReactionComponentGroupingMatchExpression.">
<polygon fill="none" stroke="black" points="193,-0.5 193,-30.5 363,-30.5 363,-0.5 193,-0.5"/>
<text text-anchor="start" x="201" y="-18.5" font-family="Helvetica" font-size="10.00">CDPL::Chem::ReactionComponent</text>
<text text-anchor="middle" x="278" y="-7.5" font-family="Helvetica" font-size="10.00">GroupingMatchExpression</text>
</a>
</g>
</g>
<!-- Node0&#45;&gt;Node2 -->
<g id="edge2" class="edge">
<title>Node0&#45;&gt;Node2</title>
<path fill="none" stroke="midnightblue" d="M167.47,-28.81C175.88,-27.79 184.41,-26.75 192.78,-25.73"/>
<polygon fill="midnightblue" stroke="midnightblue" points="166.78,-25.37 157.27,-30.05 167.62,-32.32 166.78,-25.37"/>
</g>
</g>
</svg>
