<?xml version="1.0" encoding="UTF-8" standalone="no"?>
<!DOCTYPE svg PUBLIC "-//W3C//DTD SVG 1.1//EN"
 "http://www.w3.org/Graphics/SVG/1.1/DTD/svg11.dtd">
<!-- Generated by graphviz version 2.44.0 (0)
 -->
<!-- Title: Graphical Class Hierarchy Pages: 1 -->
<svg width="1160pt" height="399pt"
 viewBox="0.00 0.00 1160.00 398.50" xmlns="http://www.w3.org/2000/svg" xmlns:xlink="http://www.w3.org/1999/xlink">
<g id="graph0" class="graph" transform="scale(1 1) rotate(0) translate(4 394.5)">
<title>Graphical Class Hierarchy</title>
<!-- Node1064 -->
<g id="node1" class="node">
<title>Node1064</title>
<g id="a_node1"><a xlink:href="classCDPL_1_1Chem_1_1BondContainer.html" target="_top" xlink:title="A common interface for data&#45;structures that support a random access to stored Chem::Bond instances.">
<polygon fill="none" stroke="black" points="203,-143 203,-162 349,-162 349,-143 203,-143"/>
<text text-anchor="middle" x="276" y="-150" font-family="Helvetica" font-size="10.00">CDPL::Chem::BondContainer</text>
</a>
</g>
</g>
<!-- Node4 -->
<g id="node2" class="node">
<title>Node4</title>
<g id="a_node2"><a xlink:href="classCDPL_1_1Chem_1_1Atom.html" target="_top" xlink:title="Atom.">
<polygon fill="none" stroke="black" points="415,-181 415,-200 519,-200 519,-181 415,-181"/>
<text text-anchor="middle" x="467" y="-188" font-family="Helvetica" font-size="10.00">CDPL::Chem::Atom</text>
</a>
</g>
</g>
<!-- Node1064&#45;&gt;Node4 -->
<g id="edge1" class="edge">
<title>Node1064&#45;&gt;Node4</title>
<path fill="none" stroke="midnightblue" d="M334.74,-164.11C361.62,-169.51 393.2,-175.86 418.65,-180.98"/>
<polygon fill="midnightblue" stroke="midnightblue" points="335.19,-160.63 324.69,-162.09 333.81,-167.49 335.19,-160.63"/>
</g>
<!-- Node8 -->
<g id="node4" class="node">
<title>Node8</title>
<g id="a_node4"><a xlink:href="classCDPL_1_1Chem_1_1MolecularGraph.html" target="_top" xlink:title="MolecularGraph.">
<polygon fill="none" stroke="black" points="392.5,-105 392.5,-124 541.5,-124 541.5,-105 392.5,-105"/>
<text text-anchor="middle" x="467" y="-112" font-family="Helvetica" font-size="10.00">CDPL::Chem::MolecularGraph</text>
</a>
</g>
</g>
<!-- Node1064&#45;&gt;Node8 -->
<g id="edge3" class="edge">
<title>Node1064&#45;&gt;Node8</title>
<path fill="none" stroke="midnightblue" d="M334.74,-140.89C361.62,-135.49 393.2,-129.14 418.65,-124.02"/>
<polygon fill="midnightblue" stroke="midnightblue" points="333.81,-137.51 324.69,-142.91 335.19,-144.37 333.81,-137.51"/>
</g>
<!-- Node5 -->
<g id="node3" class="node">
<title>Node5</title>
<g id="a_node3"><a xlink:href="classCDPL_1_1Chem_1_1BasicAtom.html" target="_top" xlink:title="BasicAtom.">
<polygon fill="none" stroke="black" points="602.5,-181 602.5,-200 731.5,-200 731.5,-181 602.5,-181"/>
<text text-anchor="middle" x="667" y="-188" font-family="Helvetica" font-size="10.00">CDPL::Chem::BasicAtom</text>
</a>
</g>
</g>
<!-- Node4&#45;&gt;Node5 -->
<g id="edge2" class="edge">
<title>Node4&#45;&gt;Node5</title>
<path fill="none" stroke="midnightblue" d="M529.29,-190.5C552.45,-190.5 578.83,-190.5 602.21,-190.5"/>
<polygon fill="midnightblue" stroke="midnightblue" points="529.25,-187 519.25,-190.5 529.25,-194 529.25,-187"/>
</g>
<!-- Node9 -->
<g id="node5" class="node">
<title>Node9</title>
<g id="a_node5"><a xlink:href="classCDPL_1_1Chem_1_1Fragment.html" target="_top" xlink:title="Fragment.">
<polygon fill="none" stroke="black" points="606,-55 606,-74 728,-74 728,-55 606,-55"/>
<text text-anchor="middle" x="667" y="-62" font-family="Helvetica" font-size="10.00">CDPL::Chem::Fragment</text>
</a>
</g>
</g>
<!-- Node8&#45;&gt;Node9 -->
<g id="edge4" class="edge">
<title>Node8&#45;&gt;Node9</title>
<path fill="none" stroke="midnightblue" d="M517.66,-102.47C526.14,-100.26 534.85,-97.89 543,-95.5 559.19,-90.76 562.74,-87.97 579,-83.5 591.52,-80.06 605.19,-76.83 617.91,-74.04"/>
<polygon fill="midnightblue" stroke="midnightblue" points="516.67,-99.11 507.85,-104.98 518.41,-105.89 516.67,-99.11"/>
</g>
<!-- Node16 -->
<g id="node12" class="node">
<title>Node16</title>
<g id="a_node12"><a xlink:href="classCDPL_1_1Chem_1_1Molecule.html" target="_top" xlink:title="Molecule.">
<polygon fill="none" stroke="black" points="607,-143 607,-162 727,-162 727,-143 607,-143"/>
<text text-anchor="middle" x="667" y="-150" font-family="Helvetica" font-size="10.00">CDPL::Chem::Molecule</text>
</a>
</g>
</g>
<!-- Node8&#45;&gt;Node16 -->
<g id="edge11" class="edge">
<title>Node8&#45;&gt;Node16</title>
<path fill="none" stroke="midnightblue" d="M527.87,-125.99C556.12,-131.41 589.44,-137.81 616.27,-142.96"/>
<polygon fill="midnightblue" stroke="midnightblue" points="528.19,-122.49 517.71,-124.04 526.87,-129.36 528.19,-122.49"/>
</g>
<!-- Node18 -->
<g id="node14" class="node">
<title>Node18</title>
<g id="a_node14"><a xlink:href="classCDPL_1_1ConfGen_1_1CanonicalFragment.html" target="_top" xlink:title="CanonicalFragment.">
<polygon fill="none" stroke="black" points="598.5,-93.5 598.5,-123.5 735.5,-123.5 735.5,-93.5 598.5,-93.5"/>
<text text-anchor="start" x="606.5" y="-111.5" font-family="Helvetica" font-size="10.00">CDPL::ConfGen::Canonical</text>
<text text-anchor="middle" x="667" y="-100.5" font-family="Helvetica" font-size="10.00">Fragment</text>
</a>
</g>
</g>
<!-- Node8&#45;&gt;Node18 -->
<g id="edge13" class="edge">
<title>Node8&#45;&gt;Node18</title>
<path fill="none" stroke="midnightblue" d="M551.85,-111.96C567.39,-111.49 583.45,-111 598.43,-110.55"/>
<polygon fill="midnightblue" stroke="midnightblue" points="551.62,-108.46 541.73,-112.27 551.83,-115.46 551.62,-108.46"/>
</g>
<!-- Node10 -->
<g id="node6" class="node">
<title>Node10</title>
<g id="a_node6"><a xlink:href="classCDPL_1_1Biomol_1_1HierarchyViewNode.html" target="_top" xlink:title="HierarchyViewNode.">
<polygon fill="none" stroke="black" points="793,-55 793,-74 965,-74 965,-55 793,-55"/>
<text text-anchor="middle" x="879" y="-62" font-family="Helvetica" font-size="10.00">CDPL::Biomol::HierarchyViewNode</text>
</a>
</g>
</g>
<!-- Node9&#45;&gt;Node10 -->
<g id="edge5" class="edge">
<title>Node9&#45;&gt;Node10</title>
<path fill="none" stroke="midnightblue" d="M738.28,-64.5C755.75,-64.5 774.67,-64.5 792.78,-64.5"/>
<polygon fill="midnightblue" stroke="midnightblue" points="738.18,-61 728.18,-64.5 738.18,-68 738.18,-61"/>
</g>
<!-- Node14 -->
<g id="node10" class="node">
<title>Node14</title>
<g id="a_node10"><a xlink:href="classCDPL_1_1Chem_1_1AromaticSubstructure.html" target="_top" xlink:title="Implements the perception of aromatic atoms and bonds in a molecular graph.">
<polygon fill="none" stroke="black" points="791,-17 791,-36 967,-36 967,-17 791,-17"/>
<text text-anchor="middle" x="879" y="-24" font-family="Helvetica" font-size="10.00">CDPL::Chem::AromaticSubstructure</text>
</a>
</g>
</g>
<!-- Node9&#45;&gt;Node14 -->
<g id="edge9" class="edge">
<title>Node9&#45;&gt;Node14</title>
<path fill="none" stroke="midnightblue" d="M730.71,-53.15C760.84,-47.7 796.55,-41.24 825.26,-36.04"/>
<polygon fill="midnightblue" stroke="midnightblue" points="729.94,-49.74 720.72,-54.96 731.18,-56.62 729.94,-49.74"/>
</g>
<!-- Node15 -->
<g id="node11" class="node">
<title>Node15</title>
<g id="a_node11"><a xlink:href="classCDPL_1_1Chem_1_1CyclicSubstructure.html" target="_top" xlink:title="Implements the perception of ring atoms and bonds in a molecular graph.">
<polygon fill="none" stroke="black" points="797,-93 797,-112 961,-112 961,-93 797,-93"/>
<text text-anchor="middle" x="879" y="-100" font-family="Helvetica" font-size="10.00">CDPL::Chem::CyclicSubstructure</text>
</a>
</g>
</g>
<!-- Node9&#45;&gt;Node15 -->
<g id="edge10" class="edge">
<title>Node9&#45;&gt;Node15</title>
<path fill="none" stroke="midnightblue" d="M730.71,-75.85C760.84,-81.3 796.55,-87.76 825.26,-92.96"/>
<polygon fill="midnightblue" stroke="midnightblue" points="731.18,-72.38 720.72,-74.04 729.94,-79.26 731.18,-72.38"/>
</g>
<!-- Node11 -->
<g id="node7" class="node">
<title>Node11</title>
<g id="a_node7"><a xlink:href="classCDPL_1_1Biomol_1_1HierarchyViewChain.html" target="_top" xlink:title="HierarchyViewChain.">
<polygon fill="none" stroke="black" points="1003,-98.5 1003,-128.5 1152,-128.5 1152,-98.5 1003,-98.5"/>
<text text-anchor="start" x="1011" y="-116.5" font-family="Helvetica" font-size="10.00">CDPL::Biomol::HierarchyView</text>
<text text-anchor="middle" x="1077.5" y="-105.5" font-family="Helvetica" font-size="10.00">Chain</text>
</a>
</g>
</g>
<!-- Node10&#45;&gt;Node11 -->
<g id="edge6" class="edge">
<title>Node10&#45;&gt;Node11</title>
<path fill="none" stroke="midnightblue" d="M935.59,-76.18C946.05,-78.51 956.87,-81.01 967,-83.5 985.57,-88.07 1005.78,-93.48 1023.74,-98.44"/>
<polygon fill="midnightblue" stroke="midnightblue" points="936.23,-72.74 925.71,-74.01 934.72,-79.58 936.23,-72.74"/>
</g>
<!-- Node12 -->
<g id="node8" class="node">
<title>Node12</title>
<g id="a_node8"><a xlink:href="classCDPL_1_1Biomol_1_1HierarchyViewFragment.html" target="_top" xlink:title="HierarchyViewFragment.">
<polygon fill="none" stroke="black" points="1003,-49.5 1003,-79.5 1152,-79.5 1152,-49.5 1003,-49.5"/>
<text text-anchor="start" x="1011" y="-67.5" font-family="Helvetica" font-size="10.00">CDPL::Biomol::HierarchyView</text>
<text text-anchor="middle" x="1077.5" y="-56.5" font-family="Helvetica" font-size="10.00">Fragment</text>
</a>
</g>
</g>
<!-- Node10&#45;&gt;Node12 -->
<g id="edge7" class="edge">
<title>Node10&#45;&gt;Node12</title>
<path fill="none" stroke="midnightblue" d="M975.09,-64.5C984.38,-64.5 993.71,-64.5 1002.74,-64.5"/>
<polygon fill="midnightblue" stroke="midnightblue" points="975.04,-61 965.04,-64.5 975.04,-68 975.04,-61"/>
</g>
<!-- Node13 -->
<g id="node9" class="node">
<title>Node13</title>
<g id="a_node9"><a xlink:href="classCDPL_1_1Biomol_1_1HierarchyViewModel.html" target="_top" xlink:title="HierarchyViewModel.">
<polygon fill="none" stroke="black" points="1003,-0.5 1003,-30.5 1152,-30.5 1152,-0.5 1003,-0.5"/>
<text text-anchor="start" x="1011" y="-18.5" font-family="Helvetica" font-size="10.00">CDPL::Biomol::HierarchyView</text>
<text text-anchor="middle" x="1077.5" y="-7.5" font-family="Helvetica" font-size="10.00">Model</text>
</a>
</g>
</g>
<!-- Node10&#45;&gt;Node13 -->
<g id="edge8" class="edge">
<title>Node10&#45;&gt;Node13</title>
<path fill="none" stroke="midnightblue" d="M935.59,-52.82C946.05,-50.49 956.87,-47.99 967,-45.5 985.57,-40.93 1005.78,-35.52 1023.74,-30.56"/>
<polygon fill="midnightblue" stroke="midnightblue" points="934.72,-49.42 925.71,-54.99 936.23,-56.26 934.72,-49.42"/>
</g>
<!-- Node17 -->
<g id="node13" class="node">
<title>Node17</title>
<g id="a_node13"><a xlink:href="classCDPL_1_1Chem_1_1BasicMolecule.html" target="_top" xlink:title="BasicMolecule.">
<polygon fill="none" stroke="black" points="806.5,-143 806.5,-162 951.5,-162 951.5,-143 806.5,-143"/>
<text text-anchor="middle" x="879" y="-150" font-family="Helvetica" font-size="10.00">CDPL::Chem::BasicMolecule</text>
</a>
</g>
</g>
<!-- Node16&#45;&gt;Node17 -->
<g id="edge12" class="edge">
<title>Node16&#45;&gt;Node17</title>
<path fill="none" stroke="midnightblue" d="M737.07,-152.5C759.29,-152.5 783.94,-152.5 806.33,-152.5"/>
<polygon fill="midnightblue" stroke="midnightblue" points="737.06,-149 727.06,-152.5 737.06,-156 737.06,-149"/>
</g>
<!-- Node879 -->
<g id="node15" class="node">
<title>Node879</title>
<g id="a_node15"><a xlink:href="classCDPL_1_1Chem_1_1Entity3DContainer.html" target="_top" xlink:title="A common interface for data&#45;structures that support a random access to stored Chem::Entity3D instance...">
<polygon fill="none" stroke="black" points="0,-124 0,-143 161,-143 161,-124 0,-124"/>
<text text-anchor="middle" x="80.5" y="-131" font-family="Helvetica" font-size="10.00">CDPL::Chem::Entity3DContainer</text>
</a>
</g>
</g>
<!-- Node880 -->
<g id="node16" class="node">
<title>Node880</title>
<g id="a_node16"><a xlink:href="classCDPL_1_1Chem_1_1AtomContainer.html" target="_top" xlink:title="A common interface for data&#45;structures that support a random access to stored Chem::Atom instances.">
<polygon fill="none" stroke="black" points="203,-181 203,-200 349,-200 349,-181 203,-181"/>
<text text-anchor="middle" x="276" y="-188" font-family="Helvetica" font-size="10.00">CDPL::Chem::AtomContainer</text>
</a>
</g>
</g>
<!-- Node879&#45;&gt;Node880 -->
<g id="edge14" class="edge">
<title>Node879&#45;&gt;Node880</title>
<path fill="none" stroke="midnightblue" d="M117.93,-146.3C140.55,-154.05 170.3,-163.87 197,-171.5 208.66,-174.83 221.4,-178.09 233.15,-180.95"/>
<polygon fill="midnightblue" stroke="midnightblue" points="118.98,-142.96 108.38,-143.01 116.7,-149.58 118.98,-142.96"/>
</g>
<!-- Node23 -->
<g id="node20" class="node">
<title>Node23</title>
<g id="a_node20"><a xlink:href="classCDPL_1_1Pharm_1_1FeatureContainer.html" target="_top" xlink:title="FeatureContainer.">
<polygon fill="none" stroke="black" points="197,-67 197,-86 355,-86 355,-67 197,-67"/>
<text text-anchor="middle" x="276" y="-74" font-family="Helvetica" font-size="10.00">CDPL::Pharm::FeatureContainer</text>
</a>
</g>
</g>
<!-- Node879&#45;&gt;Node23 -->
<g id="edge20" class="edge">
<title>Node879&#45;&gt;Node23</title>
<path fill="none" stroke="midnightblue" d="M123.54,-121.12C159.27,-110.59 209.82,-95.7 242.51,-86.07"/>
<polygon fill="midnightblue" stroke="midnightblue" points="122.49,-117.78 113.89,-123.96 124.47,-124.49 122.49,-117.78"/>
</g>
<!-- Node880&#45;&gt;Node4 -->
<g id="edge15" class="edge">
<title>Node880&#45;&gt;Node4</title>
<path fill="none" stroke="midnightblue" d="M359.36,-190.5C378.25,-190.5 397.79,-190.5 414.91,-190.5"/>
<polygon fill="midnightblue" stroke="midnightblue" points="359.26,-187 349.26,-190.5 359.26,-194 359.26,-187"/>
</g>
<!-- Node880&#45;&gt;Node8 -->
<g id="edge19" class="edge">
<title>Node880&#45;&gt;Node8</title>
<path fill="none" stroke="midnightblue" d="M343.21,-177.28C347.3,-175.58 351.27,-173.66 355,-171.5 375.12,-159.83 370.93,-145.27 391,-133.5 397.6,-129.63 404.99,-126.54 412.47,-124.07"/>
<polygon fill="midnightblue" stroke="midnightblue" points="341.66,-174.13 333.48,-180.87 344.08,-180.69 341.66,-174.13"/>
</g>
<!-- Node1 -->
<g id="node17" class="node">
<title>Node1</title>
<g id="a_node17"><a xlink:href="classCDPL_1_1Chem_1_1Bond.html" target="_top" xlink:title="Bond.">
<polygon fill="none" stroke="black" points="415,-219 415,-238 519,-238 519,-219 415,-219"/>
<text text-anchor="middle" x="467" y="-226" font-family="Helvetica" font-size="10.00">CDPL::Chem::Bond</text>
</a>
</g>
</g>
<!-- Node880&#45;&gt;Node1 -->
<g id="edge16" class="edge">
<title>Node880&#45;&gt;Node1</title>
<path fill="none" stroke="midnightblue" d="M334.74,-202.11C361.62,-207.51 393.2,-213.86 418.65,-218.98"/>
<polygon fill="midnightblue" stroke="midnightblue" points="335.19,-198.63 324.69,-200.09 333.81,-205.49 335.19,-198.63"/>
</g>
<!-- Node881 -->
<g id="node19" class="node">
<title>Node881</title>
<g id="a_node19"><a xlink:href="classCDPL_1_1Chem_1_1ElectronSystem.html" target="_top" xlink:title="Describes an electron system of a molecule in terms of involved atoms and their electron contribution...">
<polygon fill="none" stroke="black" points="392,-143 392,-162 542,-162 542,-143 392,-143"/>
<text text-anchor="middle" x="467" y="-150" font-family="Helvetica" font-size="10.00">CDPL::Chem::ElectronSystem</text>
</a>
</g>
</g>
<!-- Node880&#45;&gt;Node881 -->
<g id="edge18" class="edge">
<title>Node880&#45;&gt;Node881</title>
<path fill="none" stroke="midnightblue" d="M334.74,-178.89C361.62,-173.49 393.2,-167.14 418.65,-162.02"/>
<polygon fill="midnightblue" stroke="midnightblue" points="333.81,-175.51 324.69,-180.91 335.19,-182.37 333.81,-175.51"/>
</g>
<!-- Node2 -->
<g id="node18" class="node">
<title>Node2</title>
<g id="a_node18"><a xlink:href="classCDPL_1_1Chem_1_1BasicBond.html" target="_top" xlink:title="BasicBond.">
<polygon fill="none" stroke="black" points="603,-219 603,-238 731,-238 731,-219 603,-219"/>
<text text-anchor="middle" x="667" y="-226" font-family="Helvetica" font-size="10.00">CDPL::Chem::BasicBond</text>
</a>
</g>
</g>
<!-- Node1&#45;&gt;Node2 -->
<g id="edge17" class="edge">
<title>Node1&#45;&gt;Node2</title>
<path fill="none" stroke="midnightblue" d="M529.39,-228.5C552.76,-228.5 579.41,-228.5 602.94,-228.5"/>
<polygon fill="midnightblue" stroke="midnightblue" points="529.25,-225 519.25,-228.5 529.25,-232 529.25,-225"/>
</g>
<!-- Node24 -->
<g id="node21" class="node">
<title>Node24</title>
<g id="a_node21"><a xlink:href="classCDPL_1_1Pharm_1_1FeatureSet.html" target="_top" xlink:title="FeatureSet.">
<polygon fill="none" stroke="black" points="401.5,-29 401.5,-48 532.5,-48 532.5,-29 401.5,-29"/>
<text text-anchor="middle" x="467" y="-36" font-family="Helvetica" font-size="10.00">CDPL::Pharm::FeatureSet</text>
</a>
</g>
</g>
<!-- Node23&#45;&gt;Node24 -->
<g id="edge21" class="edge">
<title>Node23&#45;&gt;Node24</title>
<path fill="none" stroke="midnightblue" d="M334.74,-64.89C361.62,-59.49 393.2,-53.14 418.65,-48.02"/>
<polygon fill="midnightblue" stroke="midnightblue" points="333.81,-61.51 324.69,-66.91 335.19,-68.37 333.81,-61.51"/>
</g>
<!-- Node25 -->
<g id="node22" class="node">
<title>Node25</title>
<g id="a_node22"><a xlink:href="classCDPL_1_1Pharm_1_1Pharmacophore.html" target="_top" xlink:title="Pharmacophore.">
<polygon fill="none" stroke="black" points="391,-67 391,-86 543,-86 543,-67 391,-67"/>
<text text-anchor="middle" x="467" y="-74" font-family="Helvetica" font-size="10.00">CDPL::Pharm::Pharmacophore</text>
</a>
</g>
</g>
<!-- Node23&#45;&gt;Node25 -->
<g id="edge22" class="edge">
<title>Node23&#45;&gt;Node25</title>
<path fill="none" stroke="midnightblue" d="M365.24,-76.5C373.81,-76.5 382.44,-76.5 390.86,-76.5"/>
<polygon fill="midnightblue" stroke="midnightblue" points="365.24,-73 355.24,-76.5 365.24,-80 365.24,-73"/>
</g>
<!-- Node26 -->
<g id="node23" class="node">
<title>Node26</title>
<g id="a_node23"><a xlink:href="classCDPL_1_1Pharm_1_1BasicPharmacophore.html" target="_top" xlink:title="BasicPharmacophore.">
<polygon fill="none" stroke="black" points="579,-17 579,-36 755,-36 755,-17 579,-17"/>
<text text-anchor="middle" x="667" y="-24" font-family="Helvetica" font-size="10.00">CDPL::Pharm::BasicPharmacophore</text>
</a>
</g>
</g>
<!-- Node25&#45;&gt;Node26 -->
<g id="edge23" class="edge">
<title>Node25&#45;&gt;Node26</title>
<path fill="none" stroke="midnightblue" d="M517.66,-64.47C526.14,-62.26 534.85,-59.89 543,-57.5 559.19,-52.76 562.74,-49.97 579,-45.5 591.52,-42.06 605.19,-38.83 617.91,-36.04"/>
<polygon fill="midnightblue" stroke="midnightblue" points="516.67,-61.11 507.85,-66.98 518.41,-67.89 516.67,-61.11"/>
</g>
<!-- Node0 -->
<g id="node24" class="node">
<title>Node0</title>
<g id="a_node24"><a xlink:href="classCDPL_1_1Base_1_1PropertyContainer.html" target="_top" xlink:title="A class providing methods for the storage and lookup of object properties.">
<polygon fill="none" stroke="black" points="2,-257 2,-276 159,-276 159,-257 2,-257"/>
<text text-anchor="middle" x="80.5" y="-264" font-family="Helvetica" font-size="10.00">CDPL::Base::PropertyContainer</text>
</a>
</g>
</g>
<!-- Node0&#45;&gt;Node8 -->
<g id="edge29" class="edge">
<title>Node0&#45;&gt;Node8</title>
<path fill="none" stroke="midnightblue" d="M91.28,-247.79C108.21,-217.59 146.12,-158.91 197,-133.5 257.74,-103.17 335.97,-101.11 392.39,-105.01"/>
<polygon fill="midnightblue" stroke="midnightblue" points="88.05,-246.4 86.35,-256.86 94.2,-249.74 88.05,-246.4"/>
</g>
<!-- Node0&#45;&gt;Node1 -->
<g id="edge24" class="edge">
<title>Node0&#45;&gt;Node1</title>
<path fill="none" stroke="midnightblue" d="M143.13,-255.28C160.5,-252.41 179.45,-249.56 197,-247.5 272.56,-238.64 360.58,-233.37 414.8,-230.7"/>
<polygon fill="midnightblue" stroke="midnightblue" points="142.38,-251.85 133.1,-256.96 143.54,-258.76 142.38,-251.85"/>
</g>
<!-- Node0&#45;&gt;Node23 -->
<g id="edge34" class="edge">
<title>Node0&#45;&gt;Node23</title>
<path fill="none" stroke="midnightblue" d="M94.08,-248.5C109.77,-226.04 137.4,-186.46 161,-152.5 177.04,-129.42 174.32,-117.1 197,-100.5 205.57,-94.22 215.82,-89.56 226.02,-86.11"/>
<polygon fill="midnightblue" stroke="midnightblue" points="91.18,-246.55 88.32,-256.75 96.91,-250.56 91.18,-246.55"/>
</g>
<!-- Node3 -->
<g id="node25" class="node">
<title>Node3</title>
<g id="a_node25"><a xlink:href="classCDPL_1_1Chem_1_1Entity3D.html" target="_top" xlink:title="Entity3D.">
<polygon fill="none" stroke="black" points="216.5,-257 216.5,-276 335.5,-276 335.5,-257 216.5,-257"/>
<text text-anchor="middle" x="276" y="-264" font-family="Helvetica" font-size="10.00">CDPL::Chem::Entity3D</text>
</a>
</g>
</g>
<!-- Node0&#45;&gt;Node3 -->
<g id="edge25" class="edge">
<title>Node0&#45;&gt;Node3</title>
<path fill="none" stroke="midnightblue" d="M169.49,-266.5C185.41,-266.5 201.65,-266.5 216.46,-266.5"/>
<polygon fill="midnightblue" stroke="midnightblue" points="169.09,-263 159.09,-266.5 169.09,-270 169.09,-263"/>
</g>
<!-- Node19 -->
<g id="node28" class="node">
<title>Node19</title>
<g id="a_node28"><a xlink:href="classCDPL_1_1Chem_1_1Reaction.html" target="_top" xlink:title="Reaction.">
<polygon fill="none" stroke="black" points="216.5,-333 216.5,-352 335.5,-352 335.5,-333 216.5,-333"/>
<text text-anchor="middle" x="276" y="-340" font-family="Helvetica" font-size="10.00">CDPL::Chem::Reaction</text>
</a>
</g>
</g>
<!-- Node0&#45;&gt;Node19 -->
<g id="edge30" class="edge">
<title>Node0&#45;&gt;Node19</title>
<path fill="none" stroke="midnightblue" d="M106.96,-281.1C129.9,-293.75 164.86,-311.82 197,-323.5 206.96,-327.12 217.87,-330.26 228.31,-332.9"/>
<polygon fill="midnightblue" stroke="midnightblue" points="108.64,-278.03 98.2,-276.21 105.23,-284.14 108.64,-278.03"/>
</g>
<!-- Node21 -->
<g id="node30" class="node">
<title>Node21</title>
<g id="a_node30"><a xlink:href="classCDPL_1_1Grid_1_1AttributedGrid.html" target="_top" xlink:title="AttributedGrid.">
<polygon fill="none" stroke="black" points="209.5,-295 209.5,-314 342.5,-314 342.5,-295 209.5,-295"/>
<text text-anchor="middle" x="276" y="-302" font-family="Helvetica" font-size="10.00">CDPL::Grid::AttributedGrid</text>
</a>
</g>
</g>
<!-- Node0&#45;&gt;Node21 -->
<g id="edge32" class="edge">
<title>Node0&#45;&gt;Node21</title>
<path fill="none" stroke="midnightblue" d="M140.25,-278.04C167.85,-283.46 200.35,-289.84 226.52,-294.98"/>
<polygon fill="midnightblue" stroke="midnightblue" points="140.82,-274.58 130.33,-276.09 139.47,-281.45 140.82,-274.58"/>
</g>
<!-- Node27 -->
<g id="node32" class="node">
<title>Node27</title>
<g id="a_node32"><a xlink:href="classCDPL_1_1Shape_1_1GaussianShape.html" target="_top" xlink:title="A data type for the descripton of arbitrary shapes composed of spheres approximated by gaussian funct...">
<polygon fill="none" stroke="black" points="200,-371 200,-390 352,-390 352,-371 200,-371"/>
<text text-anchor="middle" x="276" y="-378" font-family="Helvetica" font-size="10.00">CDPL::Shape::GaussianShape</text>
</a>
</g>
</g>
<!-- Node0&#45;&gt;Node27 -->
<g id="edge35" class="edge">
<title>Node0&#45;&gt;Node27</title>
<path fill="none" stroke="midnightblue" d="M97.41,-283.68C118.24,-305.13 156.85,-341.42 197,-361.5 204.73,-365.36 213.29,-368.47 221.83,-370.96"/>
<polygon fill="midnightblue" stroke="midnightblue" points="99.77,-281.08 90.33,-276.25 94.7,-285.91 99.77,-281.08"/>
</g>
<!-- Node3&#45;&gt;Node4 -->
<g id="edge26" class="edge">
<title>Node3&#45;&gt;Node4</title>
<path fill="none" stroke="midnightblue" d="M302.44,-251.79C325.08,-239.18 359.42,-221.24 391,-209.5 400.69,-205.9 411.34,-202.74 421.49,-200.09"/>
<polygon fill="midnightblue" stroke="midnightblue" points="300.48,-248.87 293.49,-256.83 303.92,-254.97 300.48,-248.87"/>
</g>
<!-- Node6 -->
<g id="node26" class="node">
<title>Node6</title>
<g id="a_node26"><a xlink:href="classCDPL_1_1Pharm_1_1Feature.html" target="_top" xlink:title="Feature.">
<polygon fill="none" stroke="black" points="409,-257 409,-276 525,-276 525,-257 409,-257"/>
<text text-anchor="middle" x="467" y="-264" font-family="Helvetica" font-size="10.00">CDPL::Pharm::Feature</text>
</a>
</g>
</g>
<!-- Node3&#45;&gt;Node6 -->
<g id="edge27" class="edge">
<title>Node3&#45;&gt;Node6</title>
<path fill="none" stroke="midnightblue" d="M345.52,-266.5C366.27,-266.5 388.82,-266.5 408.74,-266.5"/>
<polygon fill="midnightblue" stroke="midnightblue" points="345.51,-263 335.51,-266.5 345.51,-270 345.51,-263"/>
</g>
<!-- Node7 -->
<g id="node27" class="node">
<title>Node7</title>
<g id="a_node27"><a xlink:href="classCDPL_1_1Pharm_1_1BasicFeature.html" target="_top" xlink:title="BasicFeature.">
<polygon fill="none" stroke="black" points="596.5,-257 596.5,-276 737.5,-276 737.5,-257 596.5,-257"/>
<text text-anchor="middle" x="667" y="-264" font-family="Helvetica" font-size="10.00">CDPL::Pharm::BasicFeature</text>
</a>
</g>
</g>
<!-- Node6&#45;&gt;Node7 -->
<g id="edge28" class="edge">
<title>Node6&#45;&gt;Node7</title>
<path fill="none" stroke="midnightblue" d="M535.14,-266.5C554.88,-266.5 576.51,-266.5 596.4,-266.5"/>
<polygon fill="midnightblue" stroke="midnightblue" points="535,-263 525,-266.5 535,-270 535,-263"/>
</g>
<!-- Node20 -->
<g id="node29" class="node">
<title>Node20</title>
<g id="a_node29"><a xlink:href="classCDPL_1_1Chem_1_1BasicReaction.html" target="_top" xlink:title="BasicReaction.">
<polygon fill="none" stroke="black" points="395,-345 395,-364 539,-364 539,-345 395,-345"/>
<text text-anchor="middle" x="467" y="-352" font-family="Helvetica" font-size="10.00">CDPL::Chem::BasicReaction</text>
</a>
</g>
</g>
<!-- Node19&#45;&gt;Node20 -->
<g id="edge31" class="edge">
<title>Node19&#45;&gt;Node20</title>
<path fill="none" stroke="midnightblue" d="M345.81,-346.87C361.76,-347.88 378.76,-348.96 394.8,-349.98"/>
<polygon fill="midnightblue" stroke="midnightblue" points="345.71,-343.36 335.51,-346.21 345.26,-350.34 345.71,-343.36"/>
</g>
<!-- Node22 -->
<g id="node31" class="node">
<title>Node22</title>
<g id="a_node31"><a xlink:href="classCDPL_1_1Grid_1_1SpatialGrid.html" target="_top" xlink:title="SpatialGrid.">
<polygon fill="none" stroke="black" points="406.5,-295.5 406.5,-325.5 527.5,-325.5 527.5,-295.5 406.5,-295.5"/>
<text text-anchor="start" x="414.5" y="-313.5" font-family="Helvetica" font-size="10.00">CDPL::Grid::SpatialGrid</text>
<text text-anchor="middle" x="467" y="-302.5" font-family="Helvetica" font-size="10.00">&lt; T, CVT &gt;</text>
</a>
</g>
</g>
<!-- Node21&#45;&gt;Node22 -->
<g id="edge33" class="edge">
<title>Node21&#45;&gt;Node22</title>
<path fill="none" stroke="midnightblue" d="M352.9,-306.91C370.65,-307.47 389.31,-308.07 406.24,-308.6"/>
<polygon fill="midnightblue" stroke="midnightblue" points="352.68,-303.4 342.57,-306.58 352.46,-310.4 352.68,-303.4"/>
</g>
</g>
</svg>
