<?xml version="1.0" encoding="UTF-8" standalone="no"?>
<!DOCTYPE svg PUBLIC "-//W3C//DTD SVG 1.1//EN"
 "http://www.w3.org/Graphics/SVG/1.1/DTD/svg11.dtd">
<!-- Generated by graphviz version 2.44.0 (0)
 -->
<!-- Title: Graphical Class Hierarchy Pages: 1 -->
<svg width="349pt" height="88pt"
 viewBox="0.00 0.00 349.00 88.00" xmlns="http://www.w3.org/2000/svg" xmlns:xlink="http://www.w3.org/1999/xlink">
<g id="graph0" class="graph" transform="scale(1 1) rotate(0) translate(4 84)">
<title>Graphical Class Hierarchy</title>
<!-- Node0 -->
<g id="node1" class="node">
<title>Node0</title>
<g id="a_node1"><a xlink:href="classCDPL_1_1Pharm_1_1FeatureDistanceConstraint.html" target="_top" xlink:title="FeatureDistanceConstraint.">
<polygon fill="none" stroke="black" points="0,-24.5 0,-54.5 155,-54.5 155,-24.5 0,-24.5"/>
<text text-anchor="start" x="8" y="-42.5" font-family="Helvetica" font-size="10.00">CDPL::Pharm::FeatureDistance</text>
<text text-anchor="middle" x="77.5" y="-31.5" font-family="Helvetica" font-size="10.00">Constraint</text>
</a>
</g>
</g>
<!-- Node1 -->
<g id="node2" class="node">
<title>Node1</title>
<g id="a_node2"><a xlink:href="classCDPL_1_1Pharm_1_1HydrophobicInteractionConstraint.html" target="_top" xlink:title="HydrophobicInteractionConstraint.">
<polygon fill="none" stroke="black" points="197.5,-49.5 197.5,-79.5 334.5,-79.5 334.5,-49.5 197.5,-49.5"/>
<text text-anchor="start" x="205.5" y="-67.5" font-family="Helvetica" font-size="10.00">CDPL::Pharm::Hydrophobic</text>
<text text-anchor="middle" x="266" y="-56.5" font-family="Helvetica" font-size="10.00">InteractionConstraint</text>
</a>
</g>
</g>
<!-- Node0&#45;&gt;Node1 -->
<g id="edge1" class="edge">
<title>Node0&#45;&gt;Node1</title>
<path fill="none" stroke="midnightblue" d="M165.38,-51.15C176.1,-52.58 186.92,-54.03 197.29,-55.42"/>
<polygon fill="midnightblue" stroke="midnightblue" points="165.54,-47.64 155.16,-49.78 164.61,-54.57 165.54,-47.64"/>
</g>
<!-- Node2 -->
<g id="node3" class="node">
<title>Node2</title>
<g id="a_node3"><a xlink:href="classCDPL_1_1Pharm_1_1IonicInteractionConstraint.html" target="_top" xlink:title="IonicInteractionConstraint.">
<polygon fill="none" stroke="black" points="191,-0.5 191,-30.5 341,-30.5 341,-0.5 191,-0.5"/>
<text text-anchor="start" x="199" y="-18.5" font-family="Helvetica" font-size="10.00">CDPL::Pharm::IonicInteraction</text>
<text text-anchor="middle" x="266" y="-7.5" font-family="Helvetica" font-size="10.00">Constraint</text>
</a>
</g>
</g>
<!-- Node0&#45;&gt;Node2 -->
<g id="edge2" class="edge">
<title>Node0&#45;&gt;Node2</title>
<path fill="none" stroke="midnightblue" d="M165.15,-28.35C173.7,-27.25 182.33,-26.14 190.74,-25.06"/>
<polygon fill="midnightblue" stroke="midnightblue" points="164.64,-24.89 155.16,-29.63 165.53,-31.83 164.64,-24.89"/>
</g>
</g>
</svg>
