<?xml version="1.0" encoding="UTF-8" standalone="no"?>
<!DOCTYPE svg PUBLIC "-//W3C//DTD SVG 1.1//EN"
 "http://www.w3.org/Graphics/SVG/1.1/DTD/svg11.dtd">
<!-- Generated by graphviz version 2.44.0 (0)
 -->
<!-- Title: Graphical Class Hierarchy Pages: 1 -->
<svg width="490pt" height="50pt"
 viewBox="0.00 0.00 490.00 50.00" xmlns="http://www.w3.org/2000/svg" xmlns:xlink="http://www.w3.org/1999/xlink">
<g id="graph0" class="graph" transform="scale(1 1) rotate(0) translate(4 46)">
<title>Graphical Class Hierarchy</title>
<!-- Node0 -->
<g id="node1" class="node">
<title>Node0</title>
<g id="a_node1"><a xlink:href="classCDPL_1_1Math_1_1Expression.html" target="_top" xlink:title=" ">
<polygon fill="none" stroke="black" points="0,-0.5 0,-41.5 126,-41.5 126,-0.5 0,-0.5"/>
<text text-anchor="start" x="8" y="-29.5" font-family="Helvetica" font-size="10.00">CDPL::Math::Expression</text>
<text text-anchor="start" x="8" y="-18.5" font-family="Helvetica" font-size="10.00">&lt; VectorMatrixUnary&lt; E,</text>
<text text-anchor="middle" x="63" y="-7.5" font-family="Helvetica" font-size="10.00"> F &gt; &gt;</text>
</a>
</g>
</g>
<!-- Node1 -->
<g id="node2" class="node">
<title>Node1</title>
<g id="a_node2"><a xlink:href="classCDPL_1_1Math_1_1MatrixExpression.html" target="_top" xlink:title=" ">
<polygon fill="none" stroke="black" points="162,-6 162,-36 315,-36 315,-6 162,-6"/>
<text text-anchor="start" x="170" y="-24" font-family="Helvetica" font-size="10.00">CDPL::Math::MatrixExpression</text>
<text text-anchor="middle" x="238.5" y="-13" font-family="Helvetica" font-size="10.00">&lt; VectorMatrixUnary&lt; E, F &gt; &gt;</text>
</a>
</g>
</g>
<!-- Node0&#45;&gt;Node1 -->
<g id="edge1" class="edge">
<title>Node0&#45;&gt;Node1</title>
<path fill="none" stroke="midnightblue" d="M136.32,-21C144.75,-21 153.37,-21 161.85,-21"/>
<polygon fill="midnightblue" stroke="midnightblue" points="136.15,-17.5 126.15,-21 136.15,-24.5 136.15,-17.5"/>
</g>
<!-- Node2 -->
<g id="node3" class="node">
<title>Node2</title>
<g id="a_node3"><a xlink:href="classCDPL_1_1Math_1_1VectorMatrixUnary.html" target="_top" xlink:title=" ">
<polygon fill="none" stroke="black" points="351,-6 351,-36 482,-36 482,-6 351,-6"/>
<text text-anchor="start" x="359" y="-24" font-family="Helvetica" font-size="10.00">CDPL::Math::VectorMatrix</text>
<text text-anchor="middle" x="416.5" y="-13" font-family="Helvetica" font-size="10.00">Unary&lt; E, F &gt;</text>
</a>
</g>
</g>
<!-- Node1&#45;&gt;Node2 -->
<g id="edge2" class="edge">
<title>Node1&#45;&gt;Node2</title>
<path fill="none" stroke="midnightblue" d="M325.28,-21C333.92,-21 342.6,-21 350.96,-21"/>
<polygon fill="midnightblue" stroke="midnightblue" points="325.16,-17.5 315.16,-21 325.16,-24.5 325.16,-17.5"/>
</g>
</g>
</svg>
