<?xml version="1.0" encoding="UTF-8" standalone="no"?>
<!DOCTYPE svg PUBLIC "-//W3C//DTD SVG 1.1//EN"
 "http://www.w3.org/Graphics/SVG/1.1/DTD/svg11.dtd">
<!-- Generated by graphviz version 2.40.1 (0)
 -->
<!-- Title: Graphical Class Hierarchy Pages: 1 -->
<svg width="380pt" height="235pt"
 viewBox="0.00 0.00 380.00 235.00" xmlns="http://www.w3.org/2000/svg" xmlns:xlink="http://www.w3.org/1999/xlink">
<g id="graph0" class="graph" transform="scale(1 1) rotate(0) translate(4 231)">
<title>Graphical Class Hierarchy</title>
<!-- Node0 -->
<g id="node1" class="node">
<title>Node0</title>
<g id="a_node1"><a xlink:href="structCDPL_1_1Math_1_1ScalarBinaryAssignmentFunctor.html" target="_top" xlink:title=" ">
<polygon fill="none" stroke="#000000" points="0,-98.5 0,-128.5 162,-128.5 162,-98.5 0,-98.5"/>
<text text-anchor="start" x="8" y="-116.5" font-family="Helvetica,sans-Serif" font-size="10.00" fill="#000000">CDPL::Math::ScalarBinary</text>
<text text-anchor="middle" x="81" y="-105.5" font-family="Helvetica,sans-Serif" font-size="10.00" fill="#000000">AssignmentFunctor&lt; T1, T2 &gt;</text>
</a>
</g>
</g>
<!-- Node1 -->
<g id="node2" class="node">
<title>Node1</title>
<g id="a_node2"><a xlink:href="structCDPL_1_1Math_1_1ScalarAdditionAssignment.html" target="_top" xlink:title=" ">
<polygon fill="none" stroke="#000000" points="210.5,-196.5 210.5,-226.5 359.5,-226.5 359.5,-196.5 210.5,-196.5"/>
<text text-anchor="start" x="218.5" y="-214.5" font-family="Helvetica,sans-Serif" font-size="10.00" fill="#000000">CDPL::Math::ScalarAddition</text>
<text text-anchor="middle" x="285" y="-203.5" font-family="Helvetica,sans-Serif" font-size="10.00" fill="#000000">Assignment&lt; T1, T2 &gt;</text>
</a>
</g>
</g>
<!-- Node0&#45;&gt;Node1 -->
<g id="edge1" class="edge">
<title>Node0&#45;&gt;Node1</title>
<path fill="none" stroke="#191970" d="M108.9071,-134.4821C131.8189,-150.8675 165.6479,-173.1856 198,-187.5 205.5941,-190.8601 213.7727,-193.8575 221.9684,-196.4985"/>
<polygon fill="#191970" stroke="#191970" points="110.8367,-131.5581 100.6863,-128.5218 106.7278,-137.2253 110.8367,-131.5581"/>
</g>
<!-- Node2 -->
<g id="node3" class="node">
<title>Node2</title>
<g id="a_node3"><a xlink:href="structCDPL_1_1Math_1_1ScalarAssignment.html" target="_top" xlink:title=" ">
<polygon fill="none" stroke="#000000" points="202,-147.5 202,-177.5 368,-177.5 368,-147.5 202,-147.5"/>
<text text-anchor="start" x="210" y="-165.5" font-family="Helvetica,sans-Serif" font-size="10.00" fill="#000000">CDPL::Math::ScalarAssignment</text>
<text text-anchor="middle" x="285" y="-154.5" font-family="Helvetica,sans-Serif" font-size="10.00" fill="#000000">&lt; T1, T2 &gt;</text>
</a>
</g>
</g>
<!-- Node0&#45;&gt;Node2 -->
<g id="edge2" class="edge">
<title>Node0&#45;&gt;Node2</title>
<path fill="none" stroke="#191970" d="M153.4568,-130.9038C176.0238,-136.3243 200.7023,-142.252 222.5253,-147.4938"/>
<polygon fill="#191970" stroke="#191970" points="154.134,-127.467 143.5931,-128.5346 152.4991,-134.2734 154.134,-127.467"/>
</g>
<!-- Node3 -->
<g id="node4" class="node">
<title>Node3</title>
<g id="a_node4"><a xlink:href="structCDPL_1_1Math_1_1ScalarDivisionAssignment.html" target="_top" xlink:title=" ">
<polygon fill="none" stroke="#000000" points="211,-98.5 211,-128.5 359,-128.5 359,-98.5 211,-98.5"/>
<text text-anchor="start" x="219" y="-116.5" font-family="Helvetica,sans-Serif" font-size="10.00" fill="#000000">CDPL::Math::ScalarDivision</text>
<text text-anchor="middle" x="285" y="-105.5" font-family="Helvetica,sans-Serif" font-size="10.00" fill="#000000">Assignment&lt; T1, T2 &gt;</text>
</a>
</g>
</g>
<!-- Node0&#45;&gt;Node3 -->
<g id="edge3" class="edge">
<title>Node0&#45;&gt;Node3</title>
<path fill="none" stroke="#191970" d="M172.4169,-113.5C185.2206,-113.5 198.2493,-113.5 210.684,-113.5"/>
<polygon fill="#191970" stroke="#191970" points="172.2124,-110.0001 162.2124,-113.5 172.2123,-117.0001 172.2124,-110.0001"/>
</g>
<!-- Node4 -->
<g id="node5" class="node">
<title>Node4</title>
<g id="a_node5"><a xlink:href="structCDPL_1_1Math_1_1ScalarMultiplicationAssignment.html" target="_top" xlink:title=" ">
<polygon fill="none" stroke="#000000" points="198,-49.5 198,-79.5 372,-79.5 372,-49.5 198,-49.5"/>
<text text-anchor="start" x="206" y="-67.5" font-family="Helvetica,sans-Serif" font-size="10.00" fill="#000000">CDPL::Math::ScalarMultiplication</text>
<text text-anchor="middle" x="285" y="-56.5" font-family="Helvetica,sans-Serif" font-size="10.00" fill="#000000">Assignment&lt; T1, T2 &gt;</text>
</a>
</g>
</g>
<!-- Node0&#45;&gt;Node4 -->
<g id="edge4" class="edge">
<title>Node0&#45;&gt;Node4</title>
<path fill="none" stroke="#191970" d="M153.4568,-96.0962C176.0238,-90.6757 200.7023,-84.748 222.5253,-79.5062"/>
<polygon fill="#191970" stroke="#191970" points="152.4991,-92.7266 143.5931,-98.4654 154.134,-99.533 152.4991,-92.7266"/>
</g>
<!-- Node5 -->
<g id="node6" class="node">
<title>Node5</title>
<g id="a_node6"><a xlink:href="structCDPL_1_1Math_1_1ScalarSubtractionAssignment.html" target="_top" xlink:title=" ">
<polygon fill="none" stroke="#000000" points="203,-.5 203,-30.5 367,-30.5 367,-.5 203,-.5"/>
<text text-anchor="start" x="211" y="-18.5" font-family="Helvetica,sans-Serif" font-size="10.00" fill="#000000">CDPL::Math::ScalarSubtraction</text>
<text text-anchor="middle" x="285" y="-7.5" font-family="Helvetica,sans-Serif" font-size="10.00" fill="#000000">Assignment&lt; T1, T2 &gt;</text>
</a>
</g>
</g>
<!-- Node0&#45;&gt;Node5 -->
<g id="edge5" class="edge">
<title>Node0&#45;&gt;Node5</title>
<path fill="none" stroke="#191970" d="M109.4081,-92.6243C132.3598,-76.5524 165.9985,-54.7459 198,-40.5 206.3271,-36.7931 215.3468,-33.4826 224.3177,-30.5792"/>
<polygon fill="#191970" stroke="#191970" points="107.2913,-89.8347 101.1605,-98.4755 111.3417,-95.5438 107.2913,-89.8347"/>
</g>
</g>
</svg>
