<?xml version="1.0" encoding="UTF-8" standalone="no"?>
<!DOCTYPE svg PUBLIC "-//W3C//DTD SVG 1.1//EN"
 "http://www.w3.org/Graphics/SVG/1.1/DTD/svg11.dtd">
<!-- Generated by graphviz version 2.44.0 (0)
 -->
<!-- Title: Graphical Class Hierarchy Pages: 1 -->
<svg width="545pt" height="50pt"
 viewBox="0.00 0.00 545.00 50.00" xmlns="http://www.w3.org/2000/svg" xmlns:xlink="http://www.w3.org/1999/xlink">
<g id="graph0" class="graph" transform="scale(1 1) rotate(0) translate(4 46)">
<title>Graphical Class Hierarchy</title>
<!-- Node0 -->
<g id="node1" class="node">
<title>Node0</title>
<g id="a_node1"><a xlink:href="classCDPL_1_1Math_1_1Expression.html" target="_top" xlink:title=" ">
<polygon fill="none" stroke="black" points="0,-0.5 0,-41.5 131,-41.5 131,-0.5 0,-0.5"/>
<text text-anchor="start" x="8" y="-29.5" font-family="Helvetica" font-size="10.00">CDPL::Math::Expression</text>
<text text-anchor="start" x="8" y="-18.5" font-family="Helvetica" font-size="10.00">&lt; QuaternionBinary1&lt; E1,</text>
<text text-anchor="middle" x="65.5" y="-7.5" font-family="Helvetica" font-size="10.00"> E2, F &gt; &gt;</text>
</a>
</g>
</g>
<!-- Node1 -->
<g id="node2" class="node">
<title>Node1</title>
<g id="a_node2"><a xlink:href="classCDPL_1_1Math_1_1QuaternionExpression.html" target="_top" xlink:title=" ">
<polygon fill="none" stroke="black" points="167,-6 167,-36 343,-36 343,-6 167,-6"/>
<text text-anchor="start" x="175" y="-24" font-family="Helvetica" font-size="10.00">CDPL::Math::QuaternionExpression</text>
<text text-anchor="middle" x="255" y="-13" font-family="Helvetica" font-size="10.00">&lt; QuaternionBinary1&lt; E1, E2, F &gt; &gt;</text>
</a>
</g>
</g>
<!-- Node0&#45;&gt;Node1 -->
<g id="edge1" class="edge">
<title>Node0&#45;&gt;Node1</title>
<path fill="none" stroke="midnightblue" d="M141.19,-21C149.62,-21 158.26,-21 166.83,-21"/>
<polygon fill="midnightblue" stroke="midnightblue" points="141.03,-17.5 131.03,-21 141.03,-24.5 141.03,-17.5"/>
</g>
<!-- Node2 -->
<g id="node3" class="node">
<title>Node2</title>
<g id="a_node3"><a xlink:href="classCDPL_1_1Math_1_1QuaternionBinary1.html" target="_top" xlink:title=" ">
<polygon fill="none" stroke="black" points="379,-6 379,-36 537,-36 537,-6 379,-6"/>
<text text-anchor="start" x="387" y="-24" font-family="Helvetica" font-size="10.00">CDPL::Math::QuaternionBinary1</text>
<text text-anchor="middle" x="458" y="-13" font-family="Helvetica" font-size="10.00">&lt; E1, E2, F &gt;</text>
</a>
</g>
</g>
<!-- Node1&#45;&gt;Node2 -->
<g id="edge2" class="edge">
<title>Node1&#45;&gt;Node2</title>
<path fill="none" stroke="midnightblue" d="M353.34,-21C361.93,-21 370.55,-21 378.96,-21"/>
<polygon fill="midnightblue" stroke="midnightblue" points="353.28,-17.5 343.28,-21 353.28,-24.5 353.28,-17.5"/>
</g>
</g>
</svg>
