<?xml version="1.0" encoding="UTF-8" standalone="no"?>
<!DOCTYPE svg PUBLIC "-//W3C//DTD SVG 1.1//EN"
 "http://www.w3.org/Graphics/SVG/1.1/DTD/svg11.dtd">
<!-- Generated by graphviz version 2.44.0 (0)
 -->
<!-- Title: Graphical Class Hierarchy Pages: 1 -->
<svg width="527pt" height="382pt"
 viewBox="0.00 0.00 527.00 382.00" xmlns="http://www.w3.org/2000/svg" xmlns:xlink="http://www.w3.org/1999/xlink">
<g id="graph0" class="graph" transform="scale(1 1) rotate(0) translate(4 378)">
<title>Graphical Class Hierarchy</title>
<!-- Node0 -->
<g id="node1" class="node">
<title>Node0</title>
<g id="a_node1"><a xlink:href="classCDPL_1_1Vis_1_1GraphicsPrimitive2D.html" target="_top" xlink:title="The abstract base class of all 2D graphics primitives.">
<polygon fill="none" stroke="black" points="162,-183.5 162,-202.5 320,-202.5 320,-183.5 162,-183.5"/>
<text text-anchor="middle" x="241" y="-190.5" font-family="Helvetica" font-size="10.00">CDPL::Vis::GraphicsPrimitive2D</text>
</a>
</g>
</g>
<!-- Node1 -->
<g id="node2" class="node">
<title>Node1</title>
<g id="a_node2"><a xlink:href="classCDPL_1_1Vis_1_1ClipPathPrimitive2D.html" target="_top" xlink:title="A graphics primitive representing a clipping region in 2D space.">
<polygon fill="none" stroke="black" points="359,-354.5 359,-373.5 516,-373.5 516,-354.5 359,-354.5"/>
<text text-anchor="middle" x="437.5" y="-361.5" font-family="Helvetica" font-size="10.00">CDPL::Vis::ClipPathPrimitive2D</text>
</a>
</g>
</g>
<!-- Node0&#45;&gt;Node1 -->
<g id="edge1" class="edge">
<title>Node0&#45;&gt;Node1</title>
<path fill="none" stroke="midnightblue" d="M262.14,-209.07C279.17,-223.43 303.38,-245.73 320,-269 341.73,-299.41 326.94,-321.5 356,-345 360.8,-348.88 366.26,-352 372.02,-354.49"/>
<polygon fill="midnightblue" stroke="midnightblue" points="264.36,-206.37 254.42,-202.69 259.9,-211.76 264.36,-206.37"/>
</g>
<!-- Node2 -->
<g id="node3" class="node">
<title>Node2</title>
<g id="a_node3"><a xlink:href="classCDPL_1_1Vis_1_1EllipsePrimitive2D.html" target="_top" xlink:title="A graphics primitive representing a ellipse.">
<polygon fill="none" stroke="black" points="363,-240.5 363,-259.5 512,-259.5 512,-240.5 363,-240.5"/>
<text text-anchor="middle" x="437.5" y="-247.5" font-family="Helvetica" font-size="10.00">CDPL::Vis::EllipsePrimitive2D</text>
</a>
</g>
</g>
<!-- Node0&#45;&gt;Node2 -->
<g id="edge2" class="edge">
<title>Node0&#45;&gt;Node2</title>
<path fill="none" stroke="midnightblue" d="M278.22,-206C300.5,-213.76 329.72,-223.54 356,-231 367.88,-234.37 380.86,-237.63 392.87,-240.46"/>
<polygon fill="midnightblue" stroke="midnightblue" points="279.1,-202.6 268.51,-202.59 276.78,-209.21 279.1,-202.6"/>
</g>
<!-- Node3 -->
<g id="node4" class="node">
<title>Node3</title>
<g id="a_node4"><a xlink:href="classCDPL_1_1Vis_1_1LinePrimitive2D.html" target="_top" xlink:title="A graphics primitive representing a single line.">
<polygon fill="none" stroke="black" points="369,-278.5 369,-297.5 506,-297.5 506,-278.5 369,-278.5"/>
<text text-anchor="middle" x="437.5" y="-285.5" font-family="Helvetica" font-size="10.00">CDPL::Vis::LinePrimitive2D</text>
</a>
</g>
</g>
<!-- Node0&#45;&gt;Node3 -->
<g id="edge3" class="edge">
<title>Node0&#45;&gt;Node3</title>
<path fill="none" stroke="midnightblue" d="M261.29,-209.03C283.01,-226.28 319.98,-253.35 356,-269 364.82,-272.83 374.54,-275.96 384.08,-278.49"/>
<polygon fill="midnightblue" stroke="midnightblue" points="263.47,-206.28 253.49,-202.72 259.07,-211.73 263.47,-206.28"/>
</g>
<!-- Node4 -->
<g id="node5" class="node">
<title>Node4</title>
<g id="a_node5"><a xlink:href="classCDPL_1_1Vis_1_1LineSegmentListPrimitive2D.html" target="_top" xlink:title="A graphics primitive representing a list of disjoint line segments.">
<polygon fill="none" stroke="black" points="366.5,-115 366.5,-145 508.5,-145 508.5,-115 366.5,-115"/>
<text text-anchor="start" x="374.5" y="-133" font-family="Helvetica" font-size="10.00">CDPL::Vis::LineSegmentList</text>
<text text-anchor="middle" x="437.5" y="-122" font-family="Helvetica" font-size="10.00">Primitive2D</text>
</a>
</g>
</g>
<!-- Node0&#45;&gt;Node4 -->
<g id="edge4" class="edge">
<title>Node0&#45;&gt;Node4</title>
<path fill="none" stroke="midnightblue" d="M279.76,-180.2C301.93,-172.73 330.51,-163.2 356,-155 366.17,-151.73 377.08,-148.29 387.49,-145.04"/>
<polygon fill="midnightblue" stroke="midnightblue" points="278.41,-176.96 270.06,-183.47 280.65,-183.59 278.41,-176.96"/>
</g>
<!-- Node5 -->
<g id="node6" class="node">
<title>Node5</title>
<g id="a_node6"><a xlink:href="classCDPL_1_1Vis_1_1PathPrimitive2D.html" target="_top" xlink:title="A graphics primitive representing an arbitrary path in 2D space.">
<polygon fill="none" stroke="black" points="367.5,-316.5 367.5,-335.5 507.5,-335.5 507.5,-316.5 367.5,-316.5"/>
<text text-anchor="middle" x="437.5" y="-323.5" font-family="Helvetica" font-size="10.00">CDPL::Vis::PathPrimitive2D</text>
</a>
</g>
</g>
<!-- Node0&#45;&gt;Node5 -->
<g id="edge5" class="edge">
<title>Node0&#45;&gt;Node5</title>
<path fill="none" stroke="midnightblue" d="M259.77,-209.92C275.71,-225.19 299.65,-248.36 320,-269 336.33,-285.57 335.83,-295.4 356,-307 362.72,-310.87 370.19,-313.95 377.79,-316.4"/>
<polygon fill="midnightblue" stroke="midnightblue" points="261.87,-207.09 252.22,-202.71 257.03,-212.15 261.87,-207.09"/>
</g>
<!-- Node6 -->
<g id="node7" class="node">
<title>Node6</title>
<g id="a_node7"><a xlink:href="classCDPL_1_1Vis_1_1PointListPrimitive2D.html" target="_top" xlink:title="A graphics primitive representing a list of points.">
<polygon fill="none" stroke="black" points="358.5,-76.5 358.5,-95.5 516.5,-95.5 516.5,-76.5 358.5,-76.5"/>
<text text-anchor="middle" x="437.5" y="-83.5" font-family="Helvetica" font-size="10.00">CDPL::Vis::PointListPrimitive2D</text>
</a>
</g>
</g>
<!-- Node0&#45;&gt;Node6 -->
<g id="edge6" class="edge">
<title>Node0&#45;&gt;Node6</title>
<path fill="none" stroke="midnightblue" d="M258.82,-176.2C279.78,-156.24 317.54,-123.32 356,-105 364.04,-101.17 372.9,-98.08 381.73,-95.6"/>
<polygon fill="midnightblue" stroke="midnightblue" points="256.14,-173.93 251.4,-183.41 261.01,-178.95 256.14,-173.93"/>
</g>
<!-- Node7 -->
<g id="node8" class="node">
<title>Node7</title>
<g id="a_node8"><a xlink:href="classCDPL_1_1Vis_1_1PolygonPrimitive2D.html" target="_top" xlink:title="A graphics primitive representing a polygon.">
<polygon fill="none" stroke="black" points="360.5,-38.5 360.5,-57.5 514.5,-57.5 514.5,-38.5 360.5,-38.5"/>
<text text-anchor="middle" x="437.5" y="-45.5" font-family="Helvetica" font-size="10.00">CDPL::Vis::PolygonPrimitive2D</text>
</a>
</g>
</g>
<!-- Node0&#45;&gt;Node7 -->
<g id="edge7" class="edge">
<title>Node0&#45;&gt;Node7</title>
<path fill="none" stroke="midnightblue" d="M253.34,-174.57C271.45,-146.75 309.65,-94.38 356,-67 362.55,-63.13 369.84,-60.05 377.28,-57.59"/>
<polygon fill="midnightblue" stroke="midnightblue" points="250.2,-172.99 247.79,-183.3 256.1,-176.74 250.2,-172.99"/>
</g>
<!-- Node8 -->
<g id="node9" class="node">
<title>Node8</title>
<g id="a_node9"><a xlink:href="classCDPL_1_1Vis_1_1PolylinePrimitive2D.html" target="_top" xlink:title="A graphics primitive representing a set of connected line segments.">
<polygon fill="none" stroke="black" points="360.5,-0.5 360.5,-19.5 514.5,-19.5 514.5,-0.5 360.5,-0.5"/>
<text text-anchor="middle" x="437.5" y="-7.5" font-family="Helvetica" font-size="10.00">CDPL::Vis::PolylinePrimitive2D</text>
</a>
</g>
</g>
<!-- Node0&#45;&gt;Node8 -->
<g id="edge8" class="edge">
<title>Node0&#45;&gt;Node8</title>
<path fill="none" stroke="midnightblue" d="M255.37,-175.41C271.21,-154.42 298.19,-118.11 320,-86 336.83,-61.21 331.61,-46.4 356,-29 361.38,-25.16 367.42,-22.09 373.72,-19.64"/>
<polygon fill="midnightblue" stroke="midnightblue" points="252.56,-173.33 249.32,-183.42 258.14,-177.56 252.56,-173.33"/>
</g>
<!-- Node9 -->
<g id="node10" class="node">
<title>Node9</title>
<g id="a_node10"><a xlink:href="classCDPL_1_1Vis_1_1TextBlockPrimitive2D.html" target="_top" xlink:title="A graphics primitive representing a block of styled text.">
<polygon fill="none" stroke="black" points="356,-202.5 356,-221.5 519,-221.5 519,-202.5 356,-202.5"/>
<text text-anchor="middle" x="437.5" y="-209.5" font-family="Helvetica" font-size="10.00">CDPL::Vis::TextBlockPrimitive2D</text>
</a>
</g>
</g>
<!-- Node0&#45;&gt;Node9 -->
<g id="edge9" class="edge">
<title>Node0&#45;&gt;Node9</title>
<path fill="none" stroke="midnightblue" d="M330.23,-201.62C338.77,-202.45 347.4,-203.3 355.85,-204.12"/>
<polygon fill="midnightblue" stroke="midnightblue" points="330.56,-198.13 320.27,-200.65 329.88,-205.1 330.56,-198.13"/>
</g>
<!-- Node10 -->
<g id="node11" class="node">
<title>Node10</title>
<g id="a_node11"><a xlink:href="classCDPL_1_1Vis_1_1TextLabelPrimitive2D.html" target="_top" xlink:title="A graphics primitive representing a text label.">
<polygon fill="none" stroke="black" points="357,-164.5 357,-183.5 518,-183.5 518,-164.5 357,-164.5"/>
<text text-anchor="middle" x="437.5" y="-171.5" font-family="Helvetica" font-size="10.00">CDPL::Vis::TextLabelPrimitive2D</text>
</a>
</g>
</g>
<!-- Node0&#45;&gt;Node10 -->
<g id="edge10" class="edge">
<title>Node0&#45;&gt;Node10</title>
<path fill="none" stroke="midnightblue" d="M330.5,-184.35C339.27,-183.5 348.13,-182.63 356.81,-181.79"/>
<polygon fill="midnightblue" stroke="midnightblue" points="329.88,-180.9 320.27,-185.35 330.56,-187.87 329.88,-180.9"/>
</g>
<!-- Node621 -->
<g id="node12" class="node">
<title>Node621</title>
<g id="a_node12"><a xlink:href="classCDPL_1_1Vis_1_1Line2D.html" target="_top" xlink:title="Specifies a line segment in 2D space.">
<polygon fill="none" stroke="black" points="191,-278.5 191,-297.5 291,-297.5 291,-278.5 191,-278.5"/>
<text text-anchor="middle" x="241" y="-285.5" font-family="Helvetica" font-size="10.00">CDPL::Vis::Line2D</text>
</a>
</g>
</g>
<!-- Node621&#45;&gt;Node3 -->
<g id="edge11" class="edge">
<title>Node621&#45;&gt;Node3</title>
<path fill="none" stroke="midnightblue" d="M301.28,-288C322.57,-288 346.74,-288 368.7,-288"/>
<polygon fill="midnightblue" stroke="midnightblue" points="301.08,-284.5 291.08,-288 301.08,-291.5 301.08,-284.5"/>
</g>
<!-- Node808 -->
<g id="node13" class="node">
<title>Node808</title>
<g id="a_node13"><a xlink:href="classCDPL_1_1Vis_1_1Path2D.html" target="_top" xlink:title="Provides a container for painting operations, enabling arbitrary graphical shapes to be constructed a...">
<polygon fill="none" stroke="black" points="190,-335.5 190,-354.5 292,-354.5 292,-335.5 190,-335.5"/>
<text text-anchor="middle" x="241" y="-342.5" font-family="Helvetica" font-size="10.00">CDPL::Vis::Path2D</text>
</a>
</g>
</g>
<!-- Node808&#45;&gt;Node1 -->
<g id="edge12" class="edge">
<title>Node808&#45;&gt;Node1</title>
<path fill="none" stroke="midnightblue" d="M302.33,-350.89C320.14,-352.63 339.89,-354.56 358.64,-356.39"/>
<polygon fill="midnightblue" stroke="midnightblue" points="302.38,-347.38 292.09,-349.89 301.7,-354.35 302.38,-347.38"/>
</g>
<!-- Node808&#45;&gt;Node5 -->
<g id="edge13" class="edge">
<title>Node808&#45;&gt;Node5</title>
<path fill="none" stroke="midnightblue" d="M302.26,-339.11C322.81,-337.11 345.95,-334.85 367.16,-332.77"/>
<polygon fill="midnightblue" stroke="midnightblue" points="301.7,-335.65 292.09,-340.11 302.38,-342.62 301.7,-335.65"/>
</g>
<!-- Node1078 -->
<g id="node14" class="node">
<title>Node1078</title>
<g id="a_node14"><a xlink:title=" ">
<polygon fill="none" stroke="#bfbfbf" points="0,-57.5 0,-76.5 126,-76.5 126,-57.5 0,-57.5"/>
<text text-anchor="middle" x="63" y="-64.5" font-family="Helvetica" font-size="10.00">VectorArray&lt; Vector2D &gt;</text>
</a>
</g>
</g>
<!-- Node1079 -->
<g id="node15" class="node">
<title>Node1079</title>
<g id="a_node15"><a xlink:href="classCDPL_1_1Vis_1_1PointArray2D.html" target="_top" xlink:title="Stores a set of points in 2D space.">
<polygon fill="none" stroke="black" points="177,-57.5 177,-76.5 305,-76.5 305,-57.5 177,-57.5"/>
<text text-anchor="middle" x="241" y="-64.5" font-family="Helvetica" font-size="10.00">CDPL::Vis::PointArray2D</text>
</a>
</g>
</g>
<!-- Node1078&#45;&gt;Node1079 -->
<g id="edge14" class="edge">
<title>Node1078&#45;&gt;Node1079</title>
<path fill="none" stroke="midnightblue" d="M136.2,-67C149.64,-67 163.58,-67 176.73,-67"/>
<polygon fill="midnightblue" stroke="midnightblue" points="136.05,-63.5 126.05,-67 136.05,-70.5 136.05,-63.5"/>
</g>
<!-- Node1079&#45;&gt;Node4 -->
<g id="edge15" class="edge">
<title>Node1079&#45;&gt;Node4</title>
<path fill="none" stroke="midnightblue" d="M279.76,-79.8C301.93,-87.27 330.51,-96.8 356,-105 366.17,-108.27 377.08,-111.71 387.49,-114.96"/>
<polygon fill="midnightblue" stroke="midnightblue" points="280.65,-76.41 270.06,-76.53 278.41,-83.04 280.65,-76.41"/>
</g>
<!-- Node1079&#45;&gt;Node6 -->
<g id="edge16" class="edge">
<title>Node1079&#45;&gt;Node6</title>
<path fill="none" stroke="midnightblue" d="M315.26,-74.16C329.34,-75.53 344.13,-76.98 358.36,-78.37"/>
<polygon fill="midnightblue" stroke="midnightblue" points="315.44,-70.66 305.15,-73.17 314.76,-77.62 315.44,-70.66"/>
</g>
<!-- Node1079&#45;&gt;Node7 -->
<g id="edge17" class="edge">
<title>Node1079&#45;&gt;Node7</title>
<path fill="none" stroke="midnightblue" d="M315.23,-59.85C330,-58.4 345.57,-56.88 360.43,-55.43"/>
<polygon fill="midnightblue" stroke="midnightblue" points="314.76,-56.38 305.15,-60.83 315.44,-63.34 314.76,-56.38"/>
</g>
<!-- Node1079&#45;&gt;Node8 -->
<g id="edge18" class="edge">
<title>Node1079&#45;&gt;Node8</title>
<path fill="none" stroke="midnightblue" d="M278.22,-54C300.5,-46.24 329.72,-36.46 356,-29 367.88,-25.63 380.86,-22.37 392.87,-19.54"/>
<polygon fill="midnightblue" stroke="midnightblue" points="276.78,-50.79 268.51,-57.41 279.1,-57.4 276.78,-50.79"/>
</g>
</g>
</svg>
