<?xml version="1.0" encoding="UTF-8" standalone="no"?>
<!DOCTYPE svg PUBLIC "-//W3C//DTD SVG 1.1//EN"
 "http://www.w3.org/Graphics/SVG/1.1/DTD/svg11.dtd">
<!-- Generated by graphviz version 2.44.0 (0)
 -->
<!-- Title: Graphical Class Hierarchy Pages: 1 -->
<svg width="510pt" height="50pt"
 viewBox="0.00 0.00 510.00 50.00" xmlns="http://www.w3.org/2000/svg" xmlns:xlink="http://www.w3.org/1999/xlink">
<g id="graph0" class="graph" transform="scale(1 1) rotate(0) translate(4 46)">
<title>Graphical Class Hierarchy</title>
<!-- Node0 -->
<g id="node1" class="node">
<title>Node0</title>
<g id="a_node1"><a xlink:href="classCDPL_1_1Math_1_1Expression.html" target="_top" xlink:title=" ">
<polygon fill="none" stroke="black" points="0,-0.5 0,-41.5 125,-41.5 125,-0.5 0,-0.5"/>
<text text-anchor="start" x="8" y="-29.5" font-family="Helvetica" font-size="10.00">CDPL::Math::Expression</text>
<text text-anchor="start" x="8" y="-18.5" font-family="Helvetica" font-size="10.00">&lt; TriangularAdapter&lt; M,</text>
<text text-anchor="middle" x="62.5" y="-7.5" font-family="Helvetica" font-size="10.00"> Tri &gt; &gt;</text>
</a>
</g>
</g>
<!-- Node1 -->
<g id="node2" class="node">
<title>Node1</title>
<g id="a_node2"><a xlink:href="classCDPL_1_1Math_1_1MatrixExpression.html" target="_top" xlink:title=" ">
<polygon fill="none" stroke="black" points="161,-6 161,-36 314,-36 314,-6 161,-6"/>
<text text-anchor="start" x="169" y="-24" font-family="Helvetica" font-size="10.00">CDPL::Math::MatrixExpression</text>
<text text-anchor="middle" x="237.5" y="-13" font-family="Helvetica" font-size="10.00">&lt; TriangularAdapter&lt; M, Tri &gt; &gt;</text>
</a>
</g>
</g>
<!-- Node0&#45;&gt;Node1 -->
<g id="edge1" class="edge">
<title>Node0&#45;&gt;Node1</title>
<path fill="none" stroke="midnightblue" d="M135.52,-21C143.86,-21 152.38,-21 160.77,-21"/>
<polygon fill="midnightblue" stroke="midnightblue" points="135.47,-17.5 125.47,-21 135.47,-24.5 135.47,-17.5"/>
</g>
<!-- Node2 -->
<g id="node3" class="node">
<title>Node2</title>
<g id="a_node3"><a xlink:href="classCDPL_1_1Math_1_1TriangularAdapter.html" target="_top" xlink:title=" ">
<polygon fill="none" stroke="black" points="350,-6 350,-36 502,-36 502,-6 350,-6"/>
<text text-anchor="start" x="358" y="-24" font-family="Helvetica" font-size="10.00">CDPL::Math::TriangularAdapter</text>
<text text-anchor="middle" x="426" y="-13" font-family="Helvetica" font-size="10.00">&lt; M, Tri &gt;</text>
</a>
</g>
</g>
<!-- Node1&#45;&gt;Node2 -->
<g id="edge2" class="edge">
<title>Node1&#45;&gt;Node2</title>
<path fill="none" stroke="midnightblue" d="M324.13,-21C332.74,-21 341.43,-21 349.91,-21"/>
<polygon fill="midnightblue" stroke="midnightblue" points="324.09,-17.5 314.09,-21 324.09,-24.5 324.09,-17.5"/>
</g>
</g>
</svg>
