<?xml version="1.0" encoding="UTF-8" standalone="no"?>
<!DOCTYPE svg PUBLIC "-//W3C//DTD SVG 1.1//EN"
 "http://www.w3.org/Graphics/SVG/1.1/DTD/svg11.dtd">
<!-- Generated by graphviz version 2.44.0 (0)
 -->
<!-- Title: Graphical Class Hierarchy Pages: 1 -->
<svg width="715pt" height="50pt"
 viewBox="0.00 0.00 715.00 50.00" xmlns="http://www.w3.org/2000/svg" xmlns:xlink="http://www.w3.org/1999/xlink">
<g id="graph0" class="graph" transform="scale(1 1) rotate(0) translate(4 46)">
<title>Graphical Class Hierarchy</title>
<!-- Node0 -->
<g id="node1" class="node">
<title>Node0</title>
<g id="a_node1"><a xlink:href="classCDPL_1_1Math_1_1Expression.html" target="_top" xlink:title=" ">
<polygon fill="none" stroke="black" points="0,-0.5 0,-41.5 160,-41.5 160,-0.5 0,-0.5"/>
<text text-anchor="start" x="8" y="-29.5" font-family="Helvetica" font-size="10.00">CDPL::Math::Expression</text>
<text text-anchor="start" x="8" y="-18.5" font-family="Helvetica" font-size="10.00">&lt; CMatrix&lt; typename TypeTraits</text>
<text text-anchor="middle" x="80" y="-7.5" font-family="Helvetica" font-size="10.00">&lt; T &gt;::RealType, M, N &gt; &gt;</text>
</a>
</g>
</g>
<!-- Node1 -->
<g id="node2" class="node">
<title>Node1</title>
<g id="a_node2"><a xlink:href="classCDPL_1_1Math_1_1MatrixExpression.html" target="_top" xlink:title=" ">
<polygon fill="none" stroke="black" points="196,-0.5 196,-41.5 356,-41.5 356,-0.5 196,-0.5"/>
<text text-anchor="start" x="204" y="-29.5" font-family="Helvetica" font-size="10.00">CDPL::Math::MatrixExpression</text>
<text text-anchor="start" x="204" y="-18.5" font-family="Helvetica" font-size="10.00">&lt; CMatrix&lt; typename TypeTraits</text>
<text text-anchor="middle" x="276" y="-7.5" font-family="Helvetica" font-size="10.00">&lt; T &gt;::RealType, M, N &gt; &gt;</text>
</a>
</g>
</g>
<!-- Node0&#45;&gt;Node1 -->
<g id="edge1" class="edge">
<title>Node0&#45;&gt;Node1</title>
<path fill="none" stroke="midnightblue" d="M170.44,-21C178.88,-21 187.41,-21 195.75,-21"/>
<polygon fill="midnightblue" stroke="midnightblue" points="170.19,-17.5 160.19,-21 170.19,-24.5 170.19,-17.5"/>
</g>
<!-- Node2 -->
<g id="node3" class="node">
<title>Node2</title>
<g id="a_node3"><a xlink:href="classCDPL_1_1Math_1_1MatrixContainer.html" target="_top" xlink:title=" ">
<polygon fill="none" stroke="black" points="392,-0.5 392,-41.5 552,-41.5 552,-0.5 392,-0.5"/>
<text text-anchor="start" x="400" y="-29.5" font-family="Helvetica" font-size="10.00">CDPL::Math::MatrixContainer</text>
<text text-anchor="start" x="400" y="-18.5" font-family="Helvetica" font-size="10.00">&lt; CMatrix&lt; typename TypeTraits</text>
<text text-anchor="middle" x="472" y="-7.5" font-family="Helvetica" font-size="10.00">&lt; T &gt;::RealType, M, N &gt; &gt;</text>
</a>
</g>
</g>
<!-- Node1&#45;&gt;Node2 -->
<g id="edge2" class="edge">
<title>Node1&#45;&gt;Node2</title>
<path fill="none" stroke="midnightblue" d="M366.44,-21C374.88,-21 383.41,-21 391.75,-21"/>
<polygon fill="midnightblue" stroke="midnightblue" points="366.19,-17.5 356.19,-21 366.19,-24.5 366.19,-17.5"/>
</g>
<!-- Node3 -->
<g id="node4" class="node">
<title>Node3</title>
<g id="a_node4"><a xlink:href="classCDPL_1_1Math_1_1CMatrix.html" target="_top" xlink:title=" ">
<polygon fill="none" stroke="black" points="588,-0.5 588,-41.5 707,-41.5 707,-0.5 588,-0.5"/>
<text text-anchor="start" x="596" y="-29.5" font-family="Helvetica" font-size="10.00">CDPL::Math::CMatrix</text>
<text text-anchor="start" x="596" y="-18.5" font-family="Helvetica" font-size="10.00">&lt; typename TypeTraits</text>
<text text-anchor="middle" x="647.5" y="-7.5" font-family="Helvetica" font-size="10.00">&lt; T &gt;::RealType, 4, 4 &gt;</text>
</a>
</g>
</g>
<!-- Node2&#45;&gt;Node3 -->
<g id="edge3" class="edge">
<title>Node2&#45;&gt;Node3</title>
<path fill="none" stroke="midnightblue" d="M562.34,-21C571.04,-21 579.7,-21 587.98,-21"/>
<polygon fill="midnightblue" stroke="midnightblue" points="562.13,-17.5 552.13,-21 562.13,-24.5 562.13,-17.5"/>
</g>
</g>
</svg>
