<?xml version="1.0" encoding="UTF-8" standalone="no"?>
<!DOCTYPE svg PUBLIC "-//W3C//DTD SVG 1.1//EN"
 "http://www.w3.org/Graphics/SVG/1.1/DTD/svg11.dtd">
<!-- Generated by graphviz version 2.44.0 (0)
 -->
<!-- Title: Graphical Class Hierarchy Pages: 1 -->
<svg width="501pt" height="50pt"
 viewBox="0.00 0.00 501.00 50.00" xmlns="http://www.w3.org/2000/svg" xmlns:xlink="http://www.w3.org/1999/xlink">
<g id="graph0" class="graph" transform="scale(1 1) rotate(0) translate(4 46)">
<title>Graphical Class Hierarchy</title>
<!-- Node0 -->
<g id="node1" class="node">
<title>Node0</title>
<g id="a_node1"><a xlink:href="classCDPL_1_1Util_1_1MultiMap.html" target="_top" xlink:title=" ">
<polygon fill="none" stroke="black" points="0,-0.5 0,-41.5 122,-41.5 122,-0.5 0,-0.5"/>
<text text-anchor="start" x="8" y="-29.5" font-family="Helvetica" font-size="10.00">CDPL::Util::MultiMap</text>
<text text-anchor="start" x="8" y="-18.5" font-family="Helvetica" font-size="10.00">&lt; const Feature *, const</text>
<text text-anchor="middle" x="61" y="-7.5" font-family="Helvetica" font-size="10.00"> Feature *, true &gt;</text>
</a>
</g>
</g>
<!-- Node1 -->
<g id="node2" class="node">
<title>Node1</title>
<g id="a_node2"><a xlink:href="classCDPL_1_1Pharm_1_1FeatureMapping.html" target="_top" xlink:title="A data type for the storage and lookup of arbitrary feature to feature mappings.">
<polygon fill="none" stroke="black" points="158,-11.5 158,-30.5 311,-30.5 311,-11.5 158,-11.5"/>
<text text-anchor="middle" x="234.5" y="-18.5" font-family="Helvetica" font-size="10.00">CDPL::Pharm::FeatureMapping</text>
</a>
</g>
</g>
<!-- Node0&#45;&gt;Node1 -->
<g id="edge1" class="edge">
<title>Node0&#45;&gt;Node1</title>
<path fill="none" stroke="midnightblue" d="M132.56,-21C140.94,-21 149.51,-21 157.95,-21"/>
<polygon fill="midnightblue" stroke="midnightblue" points="132.46,-17.5 122.46,-21 132.46,-24.5 132.46,-17.5"/>
</g>
<!-- Node2 -->
<g id="node3" class="node">
<title>Node2</title>
<g id="a_node3"><a xlink:href="classCDPL_1_1Pharm_1_1SpatialFeatureMapping.html" target="_top" xlink:title="SpatialFeatureMapping.">
<polygon fill="none" stroke="black" points="347,-6 347,-36 493,-36 493,-6 347,-6"/>
<text text-anchor="start" x="355" y="-24" font-family="Helvetica" font-size="10.00">CDPL::Pharm::SpatialFeature</text>
<text text-anchor="middle" x="420" y="-13" font-family="Helvetica" font-size="10.00">Mapping</text>
</a>
</g>
</g>
<!-- Node1&#45;&gt;Node2 -->
<g id="edge2" class="edge">
<title>Node1&#45;&gt;Node2</title>
<path fill="none" stroke="midnightblue" d="M321.46,-21C329.91,-21 338.43,-21 346.72,-21"/>
<polygon fill="midnightblue" stroke="midnightblue" points="321.2,-17.5 311.2,-21 321.2,-24.5 321.2,-17.5"/>
</g>
</g>
</svg>
