<?xml version="1.0" encoding="UTF-8" standalone="no"?>
<!DOCTYPE svg PUBLIC "-//W3C//DTD SVG 1.1//EN"
 "http://www.w3.org/Graphics/SVG/1.1/DTD/svg11.dtd">
<!-- Generated by graphviz version 2.44.0 (0)
 -->
<!-- Title: Graphical Class Hierarchy Pages: 1 -->
<svg width="489pt" height="28pt"
 viewBox="0.00 0.00 489.00 28.00" xmlns="http://www.w3.org/2000/svg" xmlns:xlink="http://www.w3.org/1999/xlink">
<g id="graph0" class="graph" transform="scale(1 1) rotate(0) translate(4 24)">
<title>Graphical Class Hierarchy</title>
<!-- Node0 -->
<g id="node1" class="node">
<title>Node0</title>
<g id="a_node1"><a xlink:href="classCDPL_1_1Vis_1_1Shape3D.html" target="_top" xlink:title="The abstract base of all classes describing the geometric shape of 3D objects.">
<polygon fill="none" stroke="black" points="0,-0.5 0,-19.5 110,-19.5 110,-0.5 0,-0.5"/>
<text text-anchor="middle" x="55" y="-7.5" font-family="Helvetica" font-size="10.00">CDPL::Vis::Shape3D</text>
</a>
</g>
</g>
<!-- Node1 -->
<g id="node2" class="node">
<title>Node1</title>
<g id="a_node2"><a xlink:href="classCDPL_1_1Vis_1_1TriangleMesh3D.html" target="_top" xlink:title="Data structure for describing the geometric shape of 3D objects by means of a triangle mesh.">
<polygon fill="none" stroke="black" points="146,-0.5 146,-19.5 286,-19.5 286,-0.5 146,-0.5"/>
<text text-anchor="middle" x="216" y="-7.5" font-family="Helvetica" font-size="10.00">CDPL::Vis::TriangleMesh3D</text>
</a>
</g>
</g>
<!-- Node0&#45;&gt;Node1 -->
<g id="edge1" class="edge">
<title>Node0&#45;&gt;Node1</title>
<path fill="none" stroke="midnightblue" d="M120.35,-10C128.73,-10 137.34,-10 145.79,-10"/>
<polygon fill="midnightblue" stroke="midnightblue" points="120.27,-6.5 110.27,-10 120.27,-13.5 120.27,-6.5"/>
</g>
<!-- Node2 -->
<g id="node3" class="node">
<title>Node2</title>
<g id="a_node3"><a xlink:href="classCDPL_1_1Vis_1_1IcosahedronMesh3D.html" target="_top" xlink:title="A pre&#45;defined triangle mesh providing the vertices and faces of a regular icosahedron.">
<polygon fill="none" stroke="black" points="322,-0.5 322,-19.5 481,-19.5 481,-0.5 322,-0.5"/>
<text text-anchor="middle" x="401.5" y="-7.5" font-family="Helvetica" font-size="10.00">CDPL::Vis::IcosahedronMesh3D</text>
</a>
</g>
</g>
<!-- Node1&#45;&gt;Node2 -->
<g id="edge2" class="edge">
<title>Node1&#45;&gt;Node2</title>
<path fill="none" stroke="midnightblue" d="M296.35,-10C304.83,-10 313.44,-10 321.91,-10"/>
<polygon fill="midnightblue" stroke="midnightblue" points="296.11,-6.5 286.11,-10 296.11,-13.5 296.11,-6.5"/>
</g>
</g>
</svg>
