<?xml version="1.0" encoding="UTF-8" standalone="no"?>
<!DOCTYPE svg PUBLIC "-//W3C//DTD SVG 1.1//EN"
 "http://www.w3.org/Graphics/SVG/1.1/DTD/svg11.dtd">
<!-- Generated by graphviz version 2.40.1 (0)
 -->
<!-- Title: Graphical Class Hierarchy Pages: 1 -->
<svg width="806pt" height="700pt"
 viewBox="0.00 0.00 806.00 699.50" xmlns="http://www.w3.org/2000/svg" xmlns:xlink="http://www.w3.org/1999/xlink">
<g id="graph0" class="graph" transform="scale(1 1) rotate(0) translate(4 695.5)">
<title>Graphical Class Hierarchy</title>
<!-- Node1078 -->
<g id="node1" class="node">
<title>Node1078</title>
<g id="a_node1"><a xlink:href="classCDPL_1_1Util_1_1Array.html" target="_top" xlink:title=" ">
<polygon fill="none" stroke="#000000" points="0,-488.5 0,-529.5 122,-529.5 122,-488.5 0,-488.5"/>
<text text-anchor="start" x="8" y="-517.5" font-family="Helvetica,sans-Serif" font-size="10.00" fill="#000000">CDPL::Util::Array&lt;</text>
<text text-anchor="start" x="8" y="-506.5" font-family="Helvetica,sans-Serif" font-size="10.00" fill="#000000"> typename ValueType</text>
<text text-anchor="middle" x="61" y="-495.5" font-family="Helvetica,sans-Serif" font-size="10.00" fill="#000000">::SharedPointer &gt;</text>
</a>
</g>
</g>
<!-- Node1079 -->
<g id="node2" class="node">
<title>Node1079</title>
<g id="a_node2"><a xlink:href="classCDPL_1_1Util_1_1IndirectArray.html" target="_top" xlink:title="A dynamic array class for the storage of object pointers with an indirected query interface.">
<polygon fill="none" stroke="#000000" points="171.5,-373.5 171.5,-414.5 314.5,-414.5 314.5,-373.5 171.5,-373.5"/>
<text text-anchor="start" x="179.5" y="-402.5" font-family="Helvetica,sans-Serif" font-size="10.00" fill="#000000">CDPL::Util::IndirectArray</text>
<text text-anchor="start" x="179.5" y="-391.5" font-family="Helvetica,sans-Serif" font-size="10.00" fill="#000000">&lt; ValueType, PointerType,</text>
<text text-anchor="middle" x="243" y="-380.5" font-family="Helvetica,sans-Serif" font-size="10.00" fill="#000000"> NullPointerCheck &gt;</text>
</a>
</g>
</g>
<!-- Node1078&#45;&gt;Node1079 -->
<g id="edge1" class="edge">
<title>Node1078&#45;&gt;Node1079</title>
<path fill="none" stroke="#191970" d="M87.4318,-480.8176C105.7945,-462.5769 131.6204,-439.4359 158,-424 163.8079,-420.6015 170.0628,-417.4984 176.4508,-414.6871"/>
<polygon fill="#191970" stroke="#191970" points="84.5787,-478.7253 80.0391,-488.2983 89.5577,-483.6457 84.5787,-478.7253"/>
</g>
<!-- Node1080 -->
<g id="node3" class="node">
<title>Node1080</title>
<g id="a_node3"><a xlink:href="classCDPL_1_1Util_1_1IndirectArray.html" target="_top" xlink:title=" ">
<polygon fill="none" stroke="#000000" points="176,-612 176,-642 310,-642 310,-612 176,-612"/>
<text text-anchor="start" x="184" y="-630" font-family="Helvetica,sans-Serif" font-size="10.00" fill="#000000">CDPL::Util::IndirectArray</text>
<text text-anchor="middle" x="243" y="-619" font-family="Helvetica,sans-Serif" font-size="10.00" fill="#000000">&lt; ElectronSystem &gt;</text>
</a>
</g>
</g>
<!-- Node1078&#45;&gt;Node1080 -->
<g id="edge2" class="edge">
<title>Node1078&#45;&gt;Node1080</title>
<path fill="none" stroke="#191970" d="M84.1354,-537.5795C102.2448,-558.2087 129.1315,-585.2711 158,-602 164.6544,-605.8562 171.952,-609.1597 179.3875,-611.9793"/>
<polygon fill="#191970" stroke="#191970" points="86.5749,-535.0481 77.4035,-529.7437 81.2652,-539.6097 86.5749,-535.0481"/>
</g>
<!-- Node1083 -->
<g id="node6" class="node">
<title>Node1083</title>
<g id="a_node6"><a xlink:href="classCDPL_1_1Util_1_1IndirectArray.html" target="_top" xlink:title=" ">
<polygon fill="none" stroke="#000000" points="176,-241 176,-271 310,-271 310,-241 176,-241"/>
<text text-anchor="start" x="184" y="-259" font-family="Helvetica,sans-Serif" font-size="10.00" fill="#000000">CDPL::Util::IndirectArray</text>
<text text-anchor="middle" x="243" y="-248" font-family="Helvetica,sans-Serif" font-size="10.00" fill="#000000">&lt; Fragment &gt;</text>
</a>
</g>
</g>
<!-- Node1078&#45;&gt;Node1083 -->
<g id="edge5" class="edge">
<title>Node1078&#45;&gt;Node1083</title>
<path fill="none" stroke="#191970" d="M69.4711,-478.6383C82.585,-436.1091 111.2785,-358.2685 158,-307 171.7942,-291.8634 191.1309,-279.779 207.8766,-271.18"/>
<polygon fill="#191970" stroke="#191970" points="66.0627,-477.8195 66.5436,-488.4034 72.7679,-479.8296 66.0627,-477.8195"/>
</g>
<!-- Node1094 -->
<g id="node17" class="node">
<title>Node1094</title>
<g id="a_node17"><a xlink:href="classCDPL_1_1Util_1_1IndirectArray.html" target="_top" xlink:title=" ">
<polygon fill="none" stroke="#000000" points="176,-661 176,-691 310,-691 310,-661 176,-661"/>
<text text-anchor="start" x="184" y="-679" font-family="Helvetica,sans-Serif" font-size="10.00" fill="#000000">CDPL::Util::IndirectArray</text>
<text text-anchor="middle" x="243" y="-668" font-family="Helvetica,sans-Serif" font-size="10.00" fill="#000000">&lt; GaussianShape &gt;</text>
</a>
</g>
</g>
<!-- Node1078&#45;&gt;Node1094 -->
<g id="edge16" class="edge">
<title>Node1078&#45;&gt;Node1094</title>
<path fill="none" stroke="#191970" d="M73.731,-539.1519C89.0299,-571.7639 117.7629,-622.9709 158,-652 163.4716,-655.9475 169.5733,-659.247 175.9269,-662.0047"/>
<polygon fill="#191970" stroke="#191970" points="76.7448,-537.3246 69.4165,-529.6731 70.3738,-540.2246 76.7448,-537.3246"/>
</g>
<!-- Node1096 -->
<g id="node19" class="node">
<title>Node1096</title>
<g id="a_node19"><a xlink:href="classCDPL_1_1Util_1_1IndirectArray.html" target="_top" xlink:title=" ">
<polygon fill="none" stroke="#000000" points="161,-551.5 161,-592.5 325,-592.5 325,-551.5 161,-551.5"/>
<text text-anchor="start" x="169" y="-580.5" font-family="Helvetica,sans-Serif" font-size="10.00" fill="#000000">CDPL::Util::IndirectArray</text>
<text text-anchor="start" x="169" y="-569.5" font-family="Helvetica,sans-Serif" font-size="10.00" fill="#000000">&lt; MatchExpression&lt; ObjType,</text>
<text text-anchor="middle" x="243" y="-558.5" font-family="Helvetica,sans-Serif" font-size="10.00" fill="#000000"> void &gt; &gt;</text>
</a>
</g>
</g>
<!-- Node1078&#45;&gt;Node1096 -->
<g id="edge18" class="edge">
<title>Node1078&#45;&gt;Node1096</title>
<path fill="none" stroke="#191970" d="M130.0302,-532.8951C147.7207,-539.0187 166.5894,-545.5502 183.7388,-551.4865"/>
<polygon fill="#191970" stroke="#191970" points="130.9365,-529.5051 120.3418,-529.5414 128.6467,-536.12 130.9365,-529.5051"/>
</g>
<!-- Node1097 -->
<g id="node23" class="node">
<title>Node1097</title>
<g id="a_node23"><a xlink:href="classCDPL_1_1Util_1_1IndirectArray.html" target="_top" xlink:title=" ">
<polygon fill="none" stroke="#000000" points="158,-433.5 158,-474.5 328,-474.5 328,-433.5 158,-433.5"/>
<text text-anchor="start" x="166" y="-462.5" font-family="Helvetica,sans-Serif" font-size="10.00" fill="#000000">CDPL::Util::IndirectArray</text>
<text text-anchor="start" x="166" y="-451.5" font-family="Helvetica,sans-Serif" font-size="10.00" fill="#000000">&lt; MatchExpression&lt; ObjType1,</text>
<text text-anchor="middle" x="243" y="-440.5" font-family="Helvetica,sans-Serif" font-size="10.00" fill="#000000"> void &gt; &gt;</text>
</a>
</g>
</g>
<!-- Node1078&#45;&gt;Node1097 -->
<g id="edge22" class="edge">
<title>Node1078&#45;&gt;Node1097</title>
<path fill="none" stroke="#191970" d="M131.8417,-487.5918C146.0857,-483.2873 161.0235,-478.7731 175.1622,-474.5004"/>
<polygon fill="#191970" stroke="#191970" points="130.6696,-484.2896 122.1097,-490.5328 132.6946,-490.9903 130.6696,-484.2896"/>
</g>
<!-- Node1081 -->
<g id="node4" class="node">
<title>Node1081</title>
<g id="a_node4"><a xlink:href="classCDPL_1_1Chem_1_1ElectronSystemList.html" target="_top" xlink:title="A data type for the storage of Chem::ElectronSystem objects.">
<polygon fill="none" stroke="#000000" points="369,-623.5 369,-642.5 545,-642.5 545,-623.5 369,-623.5"/>
<text text-anchor="middle" x="457" y="-630.5" font-family="Helvetica,sans-Serif" font-size="10.00" fill="#000000">CDPL::Chem::ElectronSystemList</text>
</a>
</g>
</g>
<!-- Node1080&#45;&gt;Node1081 -->
<g id="edge3" class="edge">
<title>Node1080&#45;&gt;Node1081</title>
<path fill="none" stroke="#191970" d="M320.3337,-629.1682C336.0993,-629.6103 352.7979,-630.0784 368.906,-630.5301"/>
<polygon fill="#191970" stroke="#191970" points="320.218,-625.6637 310.1238,-628.882 320.0217,-632.661 320.218,-625.6637"/>
</g>
<!-- Node1082 -->
<g id="node5" class="node">
<title>Node1082</title>
<g id="a_node5"><a xlink:href="classCDPL_1_1Chem_1_1PiElectronSystemList.html" target="_top" xlink:title="Implements the perception of all pi electron systems present in a molecule.">
<polygon fill="none" stroke="#000000" points="599.5,-623.5 599.5,-642.5 784.5,-642.5 784.5,-623.5 599.5,-623.5"/>
<text text-anchor="middle" x="692" y="-630.5" font-family="Helvetica,sans-Serif" font-size="10.00" fill="#000000">CDPL::Chem::PiElectronSystemList</text>
</a>
</g>
</g>
<!-- Node1081&#45;&gt;Node1082 -->
<g id="edge4" class="edge">
<title>Node1081&#45;&gt;Node1082</title>
<path fill="none" stroke="#191970" d="M555.2258,-633C569.8565,-633 584.897,-633 599.4064,-633"/>
<polygon fill="#191970" stroke="#191970" points="555.174,-629.5001 545.1739,-633 555.1739,-636.5001 555.174,-629.5001"/>
</g>
<!-- Node1084 -->
<g id="node7" class="node">
<title>Node1084</title>
<g id="a_node7"><a xlink:href="classCDPL_1_1Chem_1_1FragmentList.html" target="_top" xlink:title="A data type for the storage of Chem::Fragment objects.">
<polygon fill="none" stroke="#000000" points="384,-191.5 384,-210.5 530,-210.5 530,-191.5 384,-191.5"/>
<text text-anchor="middle" x="457" y="-198.5" font-family="Helvetica,sans-Serif" font-size="10.00" fill="#000000">CDPL::Chem::FragmentList</text>
</a>
</g>
</g>
<!-- Node1083&#45;&gt;Node1084 -->
<g id="edge6" class="edge">
<title>Node1083&#45;&gt;Node1084</title>
<path fill="none" stroke="#191970" d="M311.4177,-238.416C347.3517,-229.1807 389.9887,-218.2225 419.8005,-210.5606"/>
<polygon fill="#191970" stroke="#191970" points="310.2904,-235.0919 301.4764,-240.971 312.0329,-241.8716 310.2904,-235.0919"/>
</g>
<!-- Node1085 -->
<g id="node8" class="node">
<title>Node1085</title>
<g id="a_node8"><a xlink:href="classCDPL_1_1Biomol_1_1ResidueList.html" target="_top" xlink:title="Implements the extraction of residues in biological macromolecules.">
<polygon fill="none" stroke="#000000" points="620,-76.5 620,-95.5 764,-95.5 764,-76.5 620,-76.5"/>
<text text-anchor="middle" x="692" y="-83.5" font-family="Helvetica,sans-Serif" font-size="10.00" fill="#000000">CDPL::Biomol::ResidueList</text>
</a>
</g>
</g>
<!-- Node1084&#45;&gt;Node1085 -->
<g id="edge7" class="edge">
<title>Node1084&#45;&gt;Node1085</title>
<path fill="none" stroke="#191970" d="M473.9755,-184.202C497.1828,-162.285 541.0826,-124.446 586,-105 596.6375,-100.3947 608.3398,-96.9057 619.9673,-94.2624"/>
<polygon fill="#191970" stroke="#191970" points="471.4446,-181.7801 466.662,-191.234 476.2963,-186.826 471.4446,-181.7801"/>
</g>
<!-- Node1086 -->
<g id="node9" class="node">
<title>Node1086</title>
<g id="a_node9"><a xlink:href="classCDPL_1_1Chem_1_1AromaticRingSet.html" target="_top" xlink:title="Implements the perception of aromatic rings in a molecular graph.">
<polygon fill="none" stroke="#000000" points="610,-38.5 610,-57.5 774,-57.5 774,-38.5 610,-38.5"/>
<text text-anchor="middle" x="692" y="-45.5" font-family="Helvetica,sans-Serif" font-size="10.00" fill="#000000">CDPL::Chem::AromaticRingSet</text>
</a>
</g>
</g>
<!-- Node1084&#45;&gt;Node1086 -->
<g id="edge8" class="edge">
<title>Node1084&#45;&gt;Node1086</title>
<path fill="none" stroke="#191970" d="M468.8171,-182.7174C488.9889,-153.1491 533.0625,-95.2964 586,-67 593.4198,-63.034 601.5063,-59.8751 609.796,-57.3623"/>
<polygon fill="#191970" stroke="#191970" points="465.7631,-180.9888 463.1268,-191.2504 471.5869,-184.8725 465.7631,-180.9888"/>
</g>
<!-- Node1087 -->
<g id="node10" class="node">
<title>Node1087</title>
<g id="a_node10"><a xlink:href="classCDPL_1_1Chem_1_1AromaticSSSRSubset.html" target="_top" xlink:title="Implements the extraction of the aromatic rings in the SSSR of a molecular graph.">
<polygon fill="none" stroke="#000000" points="599.5,-.5 599.5,-19.5 784.5,-19.5 784.5,-.5 599.5,-.5"/>
<text text-anchor="middle" x="692" y="-7.5" font-family="Helvetica,sans-Serif" font-size="10.00" fill="#000000">CDPL::Chem::AromaticSSSRSubset</text>
</a>
</g>
</g>
<!-- Node1084&#45;&gt;Node1087 -->
<g id="edge9" class="edge">
<title>Node1084&#45;&gt;Node1087</title>
<path fill="none" stroke="#191970" d="M465.4623,-181.7176C482.5153,-145.3256 524.6869,-66.7881 586,-29 592.2073,-25.1744 598.9834,-22.0734 606.0109,-19.5651"/>
<polygon fill="#191970" stroke="#191970" points="462.1111,-180.6316 461.1523,-191.1829 468.4817,-183.5325 462.1111,-180.6316"/>
</g>
<!-- Node1088 -->
<g id="node11" class="node">
<title>Node1088</title>
<g id="a_node11"><a xlink:href="classCDPL_1_1Chem_1_1CompleteRingSet.html" target="_top" xlink:title="Implements the exhaustive perception of rings in a molecular graph.">
<polygon fill="none" stroke="#000000" points="608.5,-327.5 608.5,-346.5 775.5,-346.5 775.5,-327.5 608.5,-327.5"/>
<text text-anchor="middle" x="692" y="-334.5" font-family="Helvetica,sans-Serif" font-size="10.00" fill="#000000">CDPL::Chem::CompleteRingSet</text>
</a>
</g>
</g>
<!-- Node1084&#45;&gt;Node1088 -->
<g id="edge10" class="edge">
<title>Node1084&#45;&gt;Node1088</title>
<path fill="none" stroke="#191970" d="M498.4997,-214.2587C516.0385,-221.4696 535.675,-231.8599 550,-246 575.462,-271.1334 557.3516,-296.5694 586,-318 592.7369,-323.0395 600.3806,-326.8945 608.4042,-329.8255"/>
<polygon fill="#191970" stroke="#191970" points="499.6076,-210.9343 489.0188,-210.5761 497.0731,-217.4594 499.6076,-210.9343"/>
</g>
<!-- Node1089 -->
<g id="node12" class="node">
<title>Node1089</title>
<g id="a_node12"><a xlink:href="classCDPL_1_1Chem_1_1ComponentSet.html" target="_top" xlink:title="Implements the perception of molecular graph components.">
<polygon fill="none" stroke="#000000" points="614.5,-289.5 614.5,-308.5 769.5,-308.5 769.5,-289.5 614.5,-289.5"/>
<text text-anchor="middle" x="692" y="-296.5" font-family="Helvetica,sans-Serif" font-size="10.00" fill="#000000">CDPL::Chem::ComponentSet</text>
</a>
</g>
</g>
<!-- Node1084&#45;&gt;Node1089 -->
<g id="edge11" class="edge">
<title>Node1084&#45;&gt;Node1089</title>
<path fill="none" stroke="#191970" d="M491.1821,-214.5294C509.3863,-222.4632 531.7263,-233.3975 550,-246 568.1172,-258.4946 566.3497,-270.0899 586,-280 594.8475,-284.462 604.5749,-287.8908 614.4387,-290.523"/>
<polygon fill="#191970" stroke="#191970" points="492.3877,-211.2389 481.8153,-210.5502 489.6507,-217.6816 492.3877,-211.2389"/>
</g>
<!-- Node1090 -->
<g id="node13" class="node">
<title>Node1090</title>
<g id="a_node13"><a xlink:href="classCDPL_1_1Chem_1_1ConnectedSubstructureSet.html" target="_top" xlink:title="ConnectedSubstructureSet.">
<polygon fill="none" stroke="#000000" points="586,-251.5 586,-270.5 798,-270.5 798,-251.5 586,-251.5"/>
<text text-anchor="middle" x="692" y="-258.5" font-family="Helvetica,sans-Serif" font-size="10.00" fill="#000000">CDPL::Chem::ConnectedSubstructureSet</text>
</a>
</g>
</g>
<!-- Node1084&#45;&gt;Node1090 -->
<g id="edge12" class="edge">
<title>Node1084&#45;&gt;Node1090</title>
<path fill="none" stroke="#191970" d="M493.0686,-213.856C518.7391,-222.6619 554.1809,-234.1274 586,-242 600.4283,-245.5698 616.1179,-248.7548 630.8939,-251.4497"/>
<polygon fill="#191970" stroke="#191970" points="493.9885,-210.4706 483.3937,-210.5044 491.6971,-217.085 493.9885,-210.4706"/>
</g>
<!-- Node1091 -->
<g id="node14" class="node">
<title>Node1091</title>
<g id="a_node14"><a xlink:href="classCDPL_1_1Chem_1_1ExtendedSSSR.html" target="_top" xlink:title="Implements the perception of the Extended Smallest Set of Smallest Rings (ESSSR) of a molecular graph...">
<polygon fill="none" stroke="#000000" points="615.5,-213.5 615.5,-232.5 768.5,-232.5 768.5,-213.5 615.5,-213.5"/>
<text text-anchor="middle" x="692" y="-220.5" font-family="Helvetica,sans-Serif" font-size="10.00" fill="#000000">CDPL::Chem::ExtendedSSSR</text>
</a>
</g>
</g>
<!-- Node1084&#45;&gt;Node1091 -->
<g id="edge13" class="edge">
<title>Node1084&#45;&gt;Node1091</title>
<path fill="none" stroke="#191970" d="M540.0556,-208.7754C564.553,-211.0688 591.2416,-213.5673 615.319,-215.8214"/>
<polygon fill="#191970" stroke="#191970" points="540.35,-205.2878 530.0673,-207.8403 539.6975,-212.2573 540.35,-205.2878"/>
</g>
<!-- Node1092 -->
<g id="node15" class="node">
<title>Node1092</title>
<g id="a_node15"><a xlink:href="classCDPL_1_1Chem_1_1SmallestSetOfSmallestRings.html" target="_top" xlink:title="Implements the perception of the Smallest Set of Smallest Rings (SSSR) of a molecular graphs.">
<polygon fill="none" stroke="#000000" points="616,-164 616,-194 768,-194 768,-164 616,-164"/>
<text text-anchor="start" x="624" y="-182" font-family="Helvetica,sans-Serif" font-size="10.00" fill="#000000">CDPL::Chem::SmallestSetOf</text>
<text text-anchor="middle" x="692" y="-171" font-family="Helvetica,sans-Serif" font-size="10.00" fill="#000000">SmallestRings</text>
</a>
</g>
</g>
<!-- Node1084&#45;&gt;Node1092 -->
<g id="edge14" class="edge">
<title>Node1084&#45;&gt;Node1092</title>
<path fill="none" stroke="#191970" d="M540.1059,-193.2199C564.7283,-190.9148 591.5603,-188.4029 615.7276,-186.1404"/>
<polygon fill="#191970" stroke="#191970" points="539.6975,-189.7427 530.0673,-194.1597 540.35,-196.7122 539.6975,-189.7427"/>
</g>
<!-- Node1093 -->
<g id="node16" class="node">
<title>Node1093</title>
<g id="a_node16"><a xlink:href="classCDPL_1_1ForceField_1_1MMFF94AromaticSSSRSubset.html" target="_top" xlink:title="Implements the extraction of all rings in the SSSR of a molecular graph that are aromatic according t...">
<polygon fill="none" stroke="#000000" points="621,-115 621,-145 763,-145 763,-115 621,-115"/>
<text text-anchor="start" x="629" y="-133" font-family="Helvetica,sans-Serif" font-size="10.00" fill="#000000">CDPL::ForceField::MMFF94</text>
<text text-anchor="middle" x="692" y="-122" font-family="Helvetica,sans-Serif" font-size="10.00" fill="#000000">AromaticSSSRSubset</text>
</a>
</g>
</g>
<!-- Node1084&#45;&gt;Node1093 -->
<g id="edge15" class="edge">
<title>Node1084&#45;&gt;Node1093</title>
<path fill="none" stroke="#191970" d="M489.7993,-187.7423C515.6453,-177.615 552.7455,-163.7798 586,-154 597.2232,-150.6993 609.2276,-147.5897 620.9765,-144.7722"/>
<polygon fill="#191970" stroke="#191970" points="488.4903,-184.4961 480.476,-191.426 491.0625,-191.0064 488.4903,-184.4961"/>
</g>
<!-- Node1095 -->
<g id="node18" class="node">
<title>Node1095</title>
<g id="a_node18"><a xlink:href="classCDPL_1_1Shape_1_1GaussianShapeSet.html" target="_top" xlink:title=" ">
<polygon fill="none" stroke="#000000" points="369.5,-666.5 369.5,-685.5 544.5,-685.5 544.5,-666.5 369.5,-666.5"/>
<text text-anchor="middle" x="457" y="-673.5" font-family="Helvetica,sans-Serif" font-size="10.00" fill="#000000">CDPL::Shape::GaussianShapeSet</text>
</a>
</g>
</g>
<!-- Node1094&#45;&gt;Node1095 -->
<g id="edge17" class="edge">
<title>Node1094&#45;&gt;Node1095</title>
<path fill="none" stroke="#191970" d="M320.4019,-676C336.2739,-676 353.089,-676 369.2935,-676"/>
<polygon fill="#191970" stroke="#191970" points="320.1238,-672.5001 310.1238,-676 320.1238,-679.5001 320.1238,-672.5001"/>
</g>
<!-- Node439 -->
<g id="node20" class="node">
<title>Node439</title>
<g id="a_node20"><a xlink:href="classCDPL_1_1Chem_1_1MatchExpressionList.html" target="_top" xlink:title=" ">
<polygon fill="none" stroke="#000000" points="374.5,-574 374.5,-604 539.5,-604 539.5,-574 374.5,-574"/>
<text text-anchor="start" x="382.5" y="-592" font-family="Helvetica,sans-Serif" font-size="10.00" fill="#000000">CDPL::Chem::MatchExpression</text>
<text text-anchor="middle" x="457" y="-581" font-family="Helvetica,sans-Serif" font-size="10.00" fill="#000000">List&lt; ObjType, void &gt;</text>
</a>
</g>
</g>
<!-- Node1096&#45;&gt;Node439 -->
<g id="edge19" class="edge">
<title>Node1096&#45;&gt;Node439</title>
<path fill="none" stroke="#191970" d="M335.4366,-579.3431C348.3892,-580.372 361.6319,-581.424 374.3864,-582.4372"/>
<polygon fill="#191970" stroke="#191970" points="335.3718,-575.827 325.126,-578.524 334.8174,-582.805 335.3718,-575.827"/>
</g>
<!-- Node440 -->
<g id="node21" class="node">
<title>Node440</title>
<g id="a_node21"><a xlink:href="classCDPL_1_1Chem_1_1ANDMatchExpressionList_3_01ObjType_00_01void_01_4.html" target="_top" xlink:title="ANDMatchExpressionList.">
<polygon fill="none" stroke="#000000" points="598.5,-574 598.5,-604 785.5,-604 785.5,-574 598.5,-574"/>
<text text-anchor="start" x="606.5" y="-592" font-family="Helvetica,sans-Serif" font-size="10.00" fill="#000000">CDPL::Chem::ANDMatchExpression</text>
<text text-anchor="middle" x="692" y="-581" font-family="Helvetica,sans-Serif" font-size="10.00" fill="#000000">List&lt; ObjType, void &gt;</text>
</a>
</g>
</g>
<!-- Node439&#45;&gt;Node440 -->
<g id="edge20" class="edge">
<title>Node439&#45;&gt;Node440</title>
<path fill="none" stroke="#191970" d="M549.9053,-589C565.8652,-589 582.4589,-589 598.436,-589"/>
<polygon fill="#191970" stroke="#191970" points="549.5218,-585.5001 539.5218,-589 549.5217,-592.5001 549.5218,-585.5001"/>
</g>
<!-- Node441 -->
<g id="node22" class="node">
<title>Node441</title>
<g id="a_node22"><a xlink:href="classCDPL_1_1Chem_1_1ORMatchExpressionList_3_01ObjType_00_01void_01_4.html" target="_top" xlink:title="ORMatchExpressionList.">
<polygon fill="none" stroke="#000000" points="602.5,-525 602.5,-555 781.5,-555 781.5,-525 602.5,-525"/>
<text text-anchor="start" x="610.5" y="-543" font-family="Helvetica,sans-Serif" font-size="10.00" fill="#000000">CDPL::Chem::ORMatchExpression</text>
<text text-anchor="middle" x="692" y="-532" font-family="Helvetica,sans-Serif" font-size="10.00" fill="#000000">List&lt; ObjType, void &gt;</text>
</a>
</g>
</g>
<!-- Node439&#45;&gt;Node441 -->
<g id="edge21" class="edge">
<title>Node439&#45;&gt;Node441</title>
<path fill="none" stroke="#191970" d="M539.0709,-571.8873C565.4428,-566.3885 594.4414,-560.342 620.0316,-555.0062"/>
<polygon fill="#191970" stroke="#191970" points="538.1798,-568.4978 529.1048,-573.9654 539.6087,-575.3504 538.1798,-568.4978"/>
</g>
<!-- Node1 -->
<g id="node24" class="node">
<title>Node1</title>
<g id="a_node24"><a xlink:href="classCDPL_1_1Chem_1_1MatchExpressionList.html" target="_top" xlink:title="A container for the storage and evaluation of logical match expression lists.">
<polygon fill="none" stroke="#000000" points="374.5,-415 374.5,-445 539.5,-445 539.5,-415 374.5,-415"/>
<text text-anchor="start" x="382.5" y="-433" font-family="Helvetica,sans-Serif" font-size="10.00" fill="#000000">CDPL::Chem::MatchExpression</text>
<text text-anchor="middle" x="457" y="-422" font-family="Helvetica,sans-Serif" font-size="10.00" fill="#000000">List&lt; ObjType1, ObjType2 &gt;</text>
</a>
</g>
</g>
<!-- Node1097&#45;&gt;Node1 -->
<g id="edge23" class="edge">
<title>Node1097&#45;&gt;Node1</title>
<path fill="none" stroke="#191970" d="M338.2112,-443.3221C350.2093,-441.9765 362.4076,-440.6085 374.1926,-439.2868"/>
<polygon fill="#191970" stroke="#191970" points="337.741,-439.8528 328.1934,-444.4456 338.5212,-446.8092 337.741,-439.8528"/>
</g>
<!-- Node4 -->
<g id="node25" class="node">
<title>Node4</title>
<g id="a_node25"><a xlink:href="classCDPL_1_1Chem_1_1MatchExpressionList.html" target="_top" xlink:title=" ">
<polygon fill="none" stroke="#000000" points="374.5,-366 374.5,-396 539.5,-396 539.5,-366 374.5,-366"/>
<text text-anchor="start" x="382.5" y="-384" font-family="Helvetica,sans-Serif" font-size="10.00" fill="#000000">CDPL::Chem::MatchExpression</text>
<text text-anchor="middle" x="457" y="-373" font-family="Helvetica,sans-Serif" font-size="10.00" fill="#000000">List&lt; ObjType1, void &gt;</text>
</a>
</g>
</g>
<!-- Node1097&#45;&gt;Node4 -->
<g id="edge24" class="edge">
<title>Node1097&#45;&gt;Node4</title>
<path fill="none" stroke="#191970" d="M313.6253,-429.8364C318.5164,-427.9292 323.3477,-425.975 328,-424 344.4662,-417.0097 347.278,-412.354 364,-406 373.5336,-402.3775 383.8041,-399.0618 393.9192,-396.1125"/>
<polygon fill="#191970" stroke="#191970" points="312.2737,-426.6058 304.177,-433.4391 314.7678,-433.1465 312.2737,-426.6058"/>
</g>
<!-- Node5 -->
<g id="node26" class="node">
<title>Node5</title>
<g id="a_node26"><a xlink:href="classCDPL_1_1Chem_1_1ANDMatchExpressionList.html" target="_top" xlink:title="ANDMatchExpressionList.">
<polygon fill="none" stroke="#000000" points="598.5,-415 598.5,-445 785.5,-445 785.5,-415 598.5,-415"/>
<text text-anchor="start" x="606.5" y="-433" font-family="Helvetica,sans-Serif" font-size="10.00" fill="#000000">CDPL::Chem::ANDMatchExpression</text>
<text text-anchor="middle" x="692" y="-422" font-family="Helvetica,sans-Serif" font-size="10.00" fill="#000000">List&lt; ObjType1, ObjType2 &gt;</text>
</a>
</g>
</g>
<!-- Node4&#45;&gt;Node5 -->
<g id="edge25" class="edge">
<title>Node4&#45;&gt;Node5</title>
<path fill="none" stroke="#191970" d="M539.0709,-398.1127C565.4428,-403.6115 594.4414,-409.658 620.0316,-414.9938"/>
<polygon fill="#191970" stroke="#191970" points="539.6087,-394.6496 529.1048,-396.0346 538.1798,-401.5022 539.6087,-394.6496"/>
</g>
<!-- Node6 -->
<g id="node27" class="node">
<title>Node6</title>
<g id="a_node27"><a xlink:href="classCDPL_1_1Chem_1_1ORMatchExpressionList.html" target="_top" xlink:title="ORMatchExpressionList.">
<polygon fill="none" stroke="#000000" points="602.5,-366 602.5,-396 781.5,-396 781.5,-366 602.5,-366"/>
<text text-anchor="start" x="610.5" y="-384" font-family="Helvetica,sans-Serif" font-size="10.00" fill="#000000">CDPL::Chem::ORMatchExpression</text>
<text text-anchor="middle" x="692" y="-373" font-family="Helvetica,sans-Serif" font-size="10.00" fill="#000000">List&lt; ObjType1, ObjType2 &gt;</text>
</a>
</g>
</g>
<!-- Node4&#45;&gt;Node6 -->
<g id="edge26" class="edge">
<title>Node4&#45;&gt;Node6</title>
<path fill="none" stroke="#191970" d="M549.6584,-381C567.0445,-381 585.1911,-381 602.4796,-381"/>
<polygon fill="#191970" stroke="#191970" points="549.5218,-377.5001 539.5218,-381 549.5217,-384.5001 549.5218,-377.5001"/>
</g>
<!-- Node436 -->
<g id="node28" class="node">
<title>Node436</title>
<g id="a_node28"><a xlink:href="classCDPL_1_1Chem_1_1MatchExpression_3_01ObjType_00_01void_01_4.html" target="_top" xlink:title="A generic boolean expression interface for the implementation of query/target object equivalence test...">
<polygon fill="none" stroke="#000000" points="160.5,-502 160.5,-532 325.5,-532 325.5,-502 160.5,-502"/>
<text text-anchor="start" x="168.5" y="-520" font-family="Helvetica,sans-Serif" font-size="10.00" fill="#000000">CDPL::Chem::MatchExpression</text>
<text text-anchor="middle" x="243" y="-509" font-family="Helvetica,sans-Serif" font-size="10.00" fill="#000000">&lt; ObjType, void &gt;</text>
</a>
</g>
</g>
<!-- Node436&#45;&gt;Node439 -->
<g id="edge29" class="edge">
<title>Node436&#45;&gt;Node439</title>
<path fill="none" stroke="#191970" d="M311.4042,-535.3903C317.0866,-537.4381 322.685,-539.6437 328,-542 345.142,-549.5997 346.7701,-556.6017 364,-564 372.7567,-567.76 382.2245,-571.085 391.6526,-573.9824"/>
<polygon fill="#191970" stroke="#191970" points="312.392,-532.029 301.7974,-532.0939 310.1201,-538.65 312.392,-532.029"/>
</g>
<!-- Node437 -->
<g id="node29" class="node">
<title>Node437</title>
<g id="a_node29"><a xlink:href="classCDPL_1_1Chem_1_1NOTMatchExpression_3_01ObjType_00_01void_01_4.html" target="_top" xlink:title="NOTMatchExpression.">
<polygon fill="none" stroke="#000000" points="364,-464 364,-494 550,-494 550,-464 364,-464"/>
<text text-anchor="start" x="372" y="-482" font-family="Helvetica,sans-Serif" font-size="10.00" fill="#000000">CDPL::Chem::NOTMatchExpression</text>
<text text-anchor="middle" x="457" y="-471" font-family="Helvetica,sans-Serif" font-size="10.00" fill="#000000">&lt; ObjType, void &gt;</text>
</a>
</g>
</g>
<!-- Node436&#45;&gt;Node437 -->
<g id="edge27" class="edge">
<title>Node436&#45;&gt;Node437</title>
<path fill="none" stroke="#191970" d="M335.8583,-500.5111C347.9921,-498.3565 360.3728,-496.1581 372.3615,-494.0293"/>
<polygon fill="#191970" stroke="#191970" points="334.972,-497.1137 325.738,-502.3082 336.1959,-504.0059 334.972,-497.1137"/>
</g>
<!-- Node438 -->
<g id="node30" class="node">
<title>Node438</title>
<g id="a_node30"><a xlink:href="classCDPL_1_1Chem_1_1PropertyMatchExpression_3_01ValueType_00_01MatchFunc_00_01ObjType_00_01void_01_4.html" target="_top" xlink:title="PropertyMatchExpression.">
<polygon fill="none" stroke="#000000" points="380,-513.5 380,-554.5 534,-554.5 534,-513.5 380,-513.5"/>
<text text-anchor="start" x="388" y="-542.5" font-family="Helvetica,sans-Serif" font-size="10.00" fill="#000000">CDPL::Chem::PropertyMatch</text>
<text text-anchor="start" x="388" y="-531.5" font-family="Helvetica,sans-Serif" font-size="10.00" fill="#000000">Expression&lt; ValueType,</text>
<text text-anchor="middle" x="457" y="-520.5" font-family="Helvetica,sans-Serif" font-size="10.00" fill="#000000"> MatchFunc, ObjType, void &gt;</text>
</a>
</g>
</g>
<!-- Node436&#45;&gt;Node438 -->
<g id="edge28" class="edge">
<title>Node436&#45;&gt;Node438</title>
<path fill="none" stroke="#191970" d="M335.8135,-524.373C350.4704,-525.5374 365.4888,-526.7304 379.7423,-527.8627"/>
<polygon fill="#191970" stroke="#191970" points="335.9838,-520.8756 325.738,-523.5726 335.4294,-527.8536 335.9838,-520.8756"/>
</g>
<!-- Node0 -->
<g id="node31" class="node">
<title>Node0</title>
<g id="a_node31"><a xlink:href="classCDPL_1_1Chem_1_1MatchExpression.html" target="_top" xlink:title=" ">
<polygon fill="none" stroke="#000000" points="160.5,-317 160.5,-347 325.5,-347 325.5,-317 160.5,-317"/>
<text text-anchor="start" x="168.5" y="-335" font-family="Helvetica,sans-Serif" font-size="10.00" fill="#000000">CDPL::Chem::MatchExpression</text>
<text text-anchor="middle" x="243" y="-324" font-family="Helvetica,sans-Serif" font-size="10.00" fill="#000000">&lt; ObjType1, void &gt;</text>
</a>
</g>
</g>
<!-- Node0&#45;&gt;Node1 -->
<g id="edge30" class="edge">
<title>Node0&#45;&gt;Node1</title>
<path fill="none" stroke="#191970" d="M304.6824,-350.9565C312.8595,-354.6746 320.869,-359.0041 328,-364 348.1357,-378.1067 343.1355,-392.9955 364,-406 369.5189,-409.4398 375.5147,-412.3886 381.714,-414.9161"/>
<polygon fill="#191970" stroke="#191970" points="305.989,-347.7088 295.4169,-347.0154 303.2491,-354.1503 305.989,-347.7088"/>
</g>
<!-- Node0&#45;&gt;Node4 -->
<g id="edge33" class="edge">
<title>Node0&#45;&gt;Node4</title>
<path fill="none" stroke="#191970" d="M318.6903,-349.3309C342.4496,-354.7712 368.4674,-360.7285 391.4628,-365.9938"/>
<polygon fill="#191970" stroke="#191970" points="319.1903,-345.8549 308.6614,-347.0346 317.6279,-352.6784 319.1903,-345.8549"/>
</g>
<!-- Node2 -->
<g id="node32" class="node">
<title>Node2</title>
<g id="a_node32"><a xlink:href="classCDPL_1_1Chem_1_1NOTMatchExpression.html" target="_top" xlink:title="NOTMatchExpression.">
<polygon fill="none" stroke="#000000" points="364,-256 364,-286 550,-286 550,-256 364,-256"/>
<text text-anchor="start" x="372" y="-274" font-family="Helvetica,sans-Serif" font-size="10.00" fill="#000000">CDPL::Chem::NOTMatchExpression</text>
<text text-anchor="middle" x="457" y="-263" font-family="Helvetica,sans-Serif" font-size="10.00" fill="#000000">&lt; ObjType1, ObjType2 &gt;</text>
</a>
</g>
</g>
<!-- Node0&#45;&gt;Node2 -->
<g id="edge31" class="edge">
<title>Node0&#45;&gt;Node2</title>
<path fill="none" stroke="#191970" d="M302.1061,-314.0728C321.7649,-308.2016 343.7949,-301.7204 364,-296 375.5825,-292.7208 388.0062,-289.3087 399.8819,-286.0977"/>
<polygon fill="#191970" stroke="#191970" points="300.9409,-310.7681 292.3654,-316.9898 302.9491,-317.4739 300.9409,-310.7681"/>
</g>
<!-- Node3 -->
<g id="node33" class="node">
<title>Node3</title>
<g id="a_node33"><a xlink:href="classCDPL_1_1Chem_1_1PropertyMatchExpression.html" target="_top" xlink:title="PropertyMatchExpression.">
<polygon fill="none" stroke="#000000" points="365,-305.5 365,-346.5 549,-346.5 549,-305.5 365,-305.5"/>
<text text-anchor="start" x="373" y="-334.5" font-family="Helvetica,sans-Serif" font-size="10.00" fill="#000000">CDPL::Chem::PropertyMatch</text>
<text text-anchor="start" x="373" y="-323.5" font-family="Helvetica,sans-Serif" font-size="10.00" fill="#000000">Expression&lt; ValueType,</text>
<text text-anchor="middle" x="457" y="-312.5" font-family="Helvetica,sans-Serif" font-size="10.00" fill="#000000"> MatchFunc, ObjType1, ObjType2 &gt;</text>
</a>
</g>
</g>
<!-- Node0&#45;&gt;Node3 -->
<g id="edge32" class="edge">
<title>Node0&#45;&gt;Node3</title>
<path fill="none" stroke="#191970" d="M335.7379,-329.3999C345.4016,-329.1289 355.2234,-328.8536 364.8802,-328.5828"/>
<polygon fill="#191970" stroke="#191970" points="335.6359,-325.9013 325.738,-329.6802 335.8322,-332.8985 335.6359,-325.9013"/>
</g>
</g>
</svg>
