<?xml version="1.0" encoding="UTF-8" standalone="no"?>
<!DOCTYPE svg PUBLIC "-//W3C//DTD SVG 1.1//EN"
 "http://www.w3.org/Graphics/SVG/1.1/DTD/svg11.dtd">
<!-- Generated by graphviz version 2.40.1 (0)
 -->
<!-- Title: Graphical Class Hierarchy Pages: 1 -->
<svg width="590pt" height="50pt"
 viewBox="0.00 0.00 590.00 50.00" xmlns="http://www.w3.org/2000/svg" xmlns:xlink="http://www.w3.org/1999/xlink">
<g id="graph0" class="graph" transform="scale(1 1) rotate(0) translate(4 46)">
<title>Graphical Class Hierarchy</title>
<!-- Node0 -->
<g id="node1" class="node">
<title>Node0</title>
<g id="a_node1"><a xlink:href="classCDPL_1_1Math_1_1Expression.html" target="_top" xlink:title=" ">
<polygon fill="none" stroke="#000000" points="0,-.5 0,-41.5 146,-41.5 146,-.5 0,-.5"/>
<text text-anchor="start" x="8" y="-29.5" font-family="Helvetica,sans-Serif" font-size="10.00" fill="#000000">CDPL::Math::Expression</text>
<text text-anchor="start" x="8" y="-18.5" font-family="Helvetica,sans-Serif" font-size="10.00" fill="#000000">&lt; QuaternionBinary2&lt; E1,</text>
<text text-anchor="middle" x="73" y="-7.5" font-family="Helvetica,sans-Serif" font-size="10.00" fill="#000000"> E2, F &gt; &gt;</text>
</a>
</g>
</g>
<!-- Node1 -->
<g id="node2" class="node">
<title>Node1</title>
<g id="a_node2"><a xlink:href="classCDPL_1_1Math_1_1QuaternionExpression.html" target="_top" xlink:title=" ">
<polygon fill="none" stroke="#000000" points="182,-6 182,-36 376,-36 376,-6 182,-6"/>
<text text-anchor="start" x="190" y="-24" font-family="Helvetica,sans-Serif" font-size="10.00" fill="#000000">CDPL::Math::QuaternionExpression</text>
<text text-anchor="middle" x="279" y="-13" font-family="Helvetica,sans-Serif" font-size="10.00" fill="#000000">&lt; QuaternionBinary2&lt; E1, E2, F &gt; &gt;</text>
</a>
</g>
</g>
<!-- Node0&#45;&gt;Node1 -->
<g id="edge1" class="edge">
<title>Node0&#45;&gt;Node1</title>
<path fill="none" stroke="#191970" d="M156.3581,-21C164.7662,-21 173.3556,-21 181.8908,-21"/>
<polygon fill="#191970" stroke="#191970" points="156.208,-17.5001 146.2079,-21 156.2079,-24.5001 156.208,-17.5001"/>
</g>
<!-- Node2 -->
<g id="node3" class="node">
<title>Node2</title>
<g id="a_node3"><a xlink:href="classCDPL_1_1Math_1_1QuaternionBinary2.html" target="_top" xlink:title=" ">
<polygon fill="none" stroke="#000000" points="412,-6 412,-36 582,-36 582,-6 412,-6"/>
<text text-anchor="start" x="420" y="-24" font-family="Helvetica,sans-Serif" font-size="10.00" fill="#000000">CDPL::Math::QuaternionBinary2</text>
<text text-anchor="middle" x="497" y="-13" font-family="Helvetica,sans-Serif" font-size="10.00" fill="#000000">&lt; E1, E2, F &gt;</text>
</a>
</g>
</g>
<!-- Node1&#45;&gt;Node2 -->
<g id="edge2" class="edge">
<title>Node1&#45;&gt;Node2</title>
<path fill="none" stroke="#191970" d="M386.2965,-21C394.9094,-21 403.5365,-21 411.9626,-21"/>
<polygon fill="#191970" stroke="#191970" points="386.2052,-17.5001 376.2051,-21 386.2051,-24.5001 386.2052,-17.5001"/>
</g>
</g>
</svg>
