<?xml version="1.0" encoding="UTF-8" standalone="no"?>
<!DOCTYPE svg PUBLIC "-//W3C//DTD SVG 1.1//EN"
 "http://www.w3.org/Graphics/SVG/1.1/DTD/svg11.dtd">
<!-- Generated by graphviz version 2.40.1 (0)
 -->
<!-- Title: Graphical Class Hierarchy Pages: 1 -->
<svg width="1227pt" height="399pt"
 viewBox="0.00 0.00 1227.00 398.50" xmlns="http://www.w3.org/2000/svg" xmlns:xlink="http://www.w3.org/1999/xlink">
<g id="graph0" class="graph" transform="scale(1 1) rotate(0) translate(4 394.5)">
<title>Graphical Class Hierarchy</title>
<!-- Node1055 -->
<g id="node1" class="node">
<title>Node1055</title>
<g id="a_node1"><a xlink:href="classCDPL_1_1Chem_1_1BondContainer.html" target="_top" xlink:title="A common interface for data&#45;structures that support a random access to stored Chem::Bond instances.">
<polygon fill="none" stroke="#000000" points="215,-143 215,-162 370,-162 370,-143 215,-143"/>
<text text-anchor="middle" x="292.5" y="-150" font-family="Helvetica,sans-Serif" font-size="10.00" fill="#000000">CDPL::Chem::BondContainer</text>
</a>
</g>
</g>
<!-- Node4 -->
<g id="node2" class="node">
<title>Node4</title>
<g id="a_node2"><a xlink:href="classCDPL_1_1Chem_1_1Atom.html" target="_top" xlink:title="Atom.">
<polygon fill="none" stroke="#000000" points="439.5,-181 439.5,-200 548.5,-200 548.5,-181 439.5,-181"/>
<text text-anchor="middle" x="494" y="-188" font-family="Helvetica,sans-Serif" font-size="10.00" fill="#000000">CDPL::Chem::Atom</text>
</a>
</g>
</g>
<!-- Node1055&#45;&gt;Node4 -->
<g id="edge1" class="edge">
<title>Node1055&#45;&gt;Node4</title>
<path fill="none" stroke="#191970" d="M353.0461,-163.9181C381.8771,-169.3552 415.9625,-175.7832 443.3923,-180.9561"/>
<polygon fill="#191970" stroke="#191970" points="353.5623,-160.4539 343.0869,-162.04 352.265,-167.3326 353.5623,-160.4539"/>
</g>
<!-- Node8 -->
<g id="node4" class="node">
<title>Node8</title>
<g id="a_node4"><a xlink:href="classCDPL_1_1Chem_1_1MolecularGraph.html" target="_top" xlink:title="MolecularGraph.">
<polygon fill="none" stroke="#000000" points="414.5,-105 414.5,-124 573.5,-124 573.5,-105 414.5,-105"/>
<text text-anchor="middle" x="494" y="-112" font-family="Helvetica,sans-Serif" font-size="10.00" fill="#000000">CDPL::Chem::MolecularGraph</text>
</a>
</g>
</g>
<!-- Node1055&#45;&gt;Node8 -->
<g id="edge3" class="edge">
<title>Node1055&#45;&gt;Node8</title>
<path fill="none" stroke="#191970" d="M353.0461,-141.0819C381.8771,-135.6448 415.9625,-129.2168 443.3923,-124.0439"/>
<polygon fill="#191970" stroke="#191970" points="352.265,-137.6674 343.0869,-142.96 353.5623,-144.5461 352.265,-137.6674"/>
</g>
<!-- Node5 -->
<g id="node3" class="node">
<title>Node5</title>
<g id="a_node3"><a xlink:href="classCDPL_1_1Chem_1_1BasicAtom.html" target="_top" xlink:title="BasicAtom.">
<polygon fill="none" stroke="#000000" points="637.5,-181 637.5,-200 772.5,-200 772.5,-181 637.5,-181"/>
<text text-anchor="middle" x="705" y="-188" font-family="Helvetica,sans-Serif" font-size="10.00" fill="#000000">CDPL::Chem::BasicAtom</text>
</a>
</g>
</g>
<!-- Node4&#45;&gt;Node5 -->
<g id="edge2" class="edge">
<title>Node4&#45;&gt;Node5</title>
<path fill="none" stroke="#191970" d="M558.701,-190.5C583.6491,-190.5 612.1954,-190.5 637.4096,-190.5"/>
<polygon fill="#191970" stroke="#191970" points="558.6122,-187.0001 548.6121,-190.5 558.6121,-194.0001 558.6122,-187.0001"/>
</g>
<!-- Node9 -->
<g id="node5" class="node">
<title>Node9</title>
<g id="a_node5"><a xlink:href="classCDPL_1_1Chem_1_1Fragment.html" target="_top" xlink:title="Fragment.">
<polygon fill="none" stroke="#000000" points="641,-55 641,-74 769,-74 769,-55 641,-55"/>
<text text-anchor="middle" x="705" y="-62" font-family="Helvetica,sans-Serif" font-size="10.00" fill="#000000">CDPL::Chem::Fragment</text>
</a>
</g>
</g>
<!-- Node8&#45;&gt;Node9 -->
<g id="edge4" class="edge">
<title>Node8&#45;&gt;Node9</title>
<path fill="none" stroke="#191970" d="M547.7012,-102.6317C556.8468,-100.4027 566.223,-97.9866 575,-95.5 591.2268,-90.9028 594.704,-87.8455 611,-83.5 624.1916,-79.9823 638.5768,-76.7688 652.0374,-74.0254"/>
<polygon fill="#191970" stroke="#191970" points="546.82,-99.2437 537.907,-104.9715 548.4466,-106.0521 546.82,-99.2437"/>
</g>
<!-- Node16 -->
<g id="node12" class="node">
<title>Node16</title>
<g id="a_node12"><a xlink:href="classCDPL_1_1Chem_1_1Molecule.html" target="_top" xlink:title="Molecule.">
<polygon fill="none" stroke="#000000" points="642,-143 642,-162 768,-162 768,-143 642,-143"/>
<text text-anchor="middle" x="705" y="-150" font-family="Helvetica,sans-Serif" font-size="10.00" fill="#000000">CDPL::Chem::Molecule</text>
</a>
</g>
</g>
<!-- Node8&#45;&gt;Node16 -->
<g id="edge11" class="edge">
<title>Node8&#45;&gt;Node16</title>
<path fill="none" stroke="#191970" d="M557.0054,-125.847C587.2791,-131.2991 623.1579,-137.7607 652.0063,-142.9561"/>
<polygon fill="#191970" stroke="#191970" points="557.4339,-122.3679 546.9719,-124.04 556.1931,-129.2571 557.4339,-122.3679"/>
</g>
<!-- Node18 -->
<g id="node14" class="node">
<title>Node18</title>
<g id="a_node14"><a xlink:href="classCDPL_1_1ConfGen_1_1CanonicalFragment.html" target="_top" xlink:title="CanonicalFragment.">
<polygon fill="none" stroke="#000000" points="633,-93.5 633,-123.5 777,-123.5 777,-93.5 633,-93.5"/>
<text text-anchor="start" x="641" y="-111.5" font-family="Helvetica,sans-Serif" font-size="10.00" fill="#000000">CDPL::ConfGen::Canonical</text>
<text text-anchor="middle" x="705" y="-100.5" font-family="Helvetica,sans-Serif" font-size="10.00" fill="#000000">Fragment</text>
</a>
</g>
</g>
<!-- Node8&#45;&gt;Node18 -->
<g id="edge13" class="edge">
<title>Node8&#45;&gt;Node18</title>
<path fill="none" stroke="#191970" d="M583.8539,-111.9449C600.1783,-111.4807 617.0139,-111.002 632.7501,-110.5545"/>
<polygon fill="#191970" stroke="#191970" points="583.6665,-108.4487 573.7701,-112.2317 583.8655,-115.4459 583.6665,-108.4487"/>
</g>
<!-- Node10 -->
<g id="node6" class="node">
<title>Node10</title>
<g id="a_node6"><a xlink:href="classCDPL_1_1Biomol_1_1HierarchyViewNode.html" target="_top" xlink:title="HierarchyViewNode.">
<polygon fill="none" stroke="#000000" points="836.5,-55 836.5,-74 1021.5,-74 1021.5,-55 836.5,-55"/>
<text text-anchor="middle" x="929" y="-62" font-family="Helvetica,sans-Serif" font-size="10.00" fill="#000000">CDPL::Biomol::HierarchyViewNode</text>
</a>
</g>
</g>
<!-- Node9&#45;&gt;Node10 -->
<g id="edge5" class="edge">
<title>Node9&#45;&gt;Node10</title>
<path fill="none" stroke="#191970" d="M779.1931,-64.5C797.5092,-64.5 817.3535,-64.5 836.4229,-64.5"/>
<polygon fill="#191970" stroke="#191970" points="779.1894,-61.0001 769.1894,-64.5 779.1894,-68.0001 779.1894,-61.0001"/>
</g>
<!-- Node14 -->
<g id="node10" class="node">
<title>Node14</title>
<g id="a_node10"><a xlink:href="classCDPL_1_1Chem_1_1AromaticSubstructure.html" target="_top" xlink:title="Implements the perception of aromatic atoms and bonds in a molecular graph.">
<polygon fill="none" stroke="#000000" points="835,-17 835,-36 1023,-36 1023,-17 835,-17"/>
<text text-anchor="middle" x="929" y="-24" font-family="Helvetica,sans-Serif" font-size="10.00" fill="#000000">CDPL::Chem::AromaticSubstructure</text>
</a>
</g>
</g>
<!-- Node9&#45;&gt;Node14 -->
<g id="edge9" class="edge">
<title>Node9&#45;&gt;Node14</title>
<path fill="none" stroke="#191970" d="M771.4684,-53.2241C803.6948,-47.7571 841.9823,-41.2619 872.7413,-36.0439"/>
<polygon fill="#191970" stroke="#191970" points="770.5093,-49.8367 761.2355,-54.96 771.6801,-56.7381 770.5093,-49.8367"/>
</g>
<!-- Node15 -->
<g id="node11" class="node">
<title>Node15</title>
<g id="a_node11"><a xlink:href="classCDPL_1_1Chem_1_1CyclicSubstructure.html" target="_top" xlink:title="Implements the perception of ring atoms and bonds in a molecular graph.">
<polygon fill="none" stroke="#000000" points="842.5,-93 842.5,-112 1015.5,-112 1015.5,-93 842.5,-93"/>
<text text-anchor="middle" x="929" y="-100" font-family="Helvetica,sans-Serif" font-size="10.00" fill="#000000">CDPL::Chem::CyclicSubstructure</text>
</a>
</g>
</g>
<!-- Node9&#45;&gt;Node15 -->
<g id="edge10" class="edge">
<title>Node9&#45;&gt;Node15</title>
<path fill="none" stroke="#191970" d="M771.4684,-75.7759C803.6948,-81.2429 841.9823,-87.7381 872.7413,-92.9561"/>
<polygon fill="#191970" stroke="#191970" points="771.6801,-72.2619 761.2355,-74.04 770.5093,-79.1633 771.6801,-72.2619"/>
</g>
<!-- Node11 -->
<g id="node7" class="node">
<title>Node11</title>
<g id="a_node7"><a xlink:href="classCDPL_1_1Biomol_1_1HierarchyViewChain.html" target="_top" xlink:title="HierarchyViewChain.">
<polygon fill="none" stroke="#000000" points="1059,-98.5 1059,-128.5 1219,-128.5 1219,-98.5 1059,-98.5"/>
<text text-anchor="start" x="1067" y="-116.5" font-family="Helvetica,sans-Serif" font-size="10.00" fill="#000000">CDPL::Biomol::HierarchyView</text>
<text text-anchor="middle" x="1139" y="-105.5" font-family="Helvetica,sans-Serif" font-size="10.00" fill="#000000">Chain</text>
</a>
</g>
</g>
<!-- Node10&#45;&gt;Node11 -->
<g id="edge6" class="edge">
<title>Node10&#45;&gt;Node11</title>
<path fill="none" stroke="#191970" d="M988.7444,-76.0748C1000.1411,-78.4244 1011.9568,-80.9579 1023,-83.5 1042.7645,-88.0498 1064.3003,-93.4855 1083.3912,-98.4724"/>
<polygon fill="#191970" stroke="#191970" points="989.3644,-72.6293 978.8669,-74.0616 987.9664,-79.4882 989.3644,-72.6293"/>
</g>
<!-- Node12 -->
<g id="node8" class="node">
<title>Node12</title>
<g id="a_node8"><a xlink:href="classCDPL_1_1Biomol_1_1HierarchyViewFragment.html" target="_top" xlink:title="HierarchyViewFragment.">
<polygon fill="none" stroke="#000000" points="1059,-49.5 1059,-79.5 1219,-79.5 1219,-49.5 1059,-49.5"/>
<text text-anchor="start" x="1067" y="-67.5" font-family="Helvetica,sans-Serif" font-size="10.00" fill="#000000">CDPL::Biomol::HierarchyView</text>
<text text-anchor="middle" x="1139" y="-56.5" font-family="Helvetica,sans-Serif" font-size="10.00" fill="#000000">Fragment</text>
</a>
</g>
</g>
<!-- Node10&#45;&gt;Node12 -->
<g id="edge7" class="edge">
<title>Node10&#45;&gt;Node12</title>
<path fill="none" stroke="#191970" d="M1031.9429,-64.5C1041.0177,-64.5 1050.1129,-64.5 1058.9574,-64.5"/>
<polygon fill="#191970" stroke="#191970" points="1031.7204,-61.0001 1021.7203,-64.5 1031.7203,-68.0001 1031.7204,-61.0001"/>
</g>
<!-- Node13 -->
<g id="node9" class="node">
<title>Node13</title>
<g id="a_node9"><a xlink:href="classCDPL_1_1Biomol_1_1HierarchyViewModel.html" target="_top" xlink:title="HierarchyViewModel.">
<polygon fill="none" stroke="#000000" points="1059,-.5 1059,-30.5 1219,-30.5 1219,-.5 1059,-.5"/>
<text text-anchor="start" x="1067" y="-18.5" font-family="Helvetica,sans-Serif" font-size="10.00" fill="#000000">CDPL::Biomol::HierarchyView</text>
<text text-anchor="middle" x="1139" y="-7.5" font-family="Helvetica,sans-Serif" font-size="10.00" fill="#000000">Model</text>
</a>
</g>
</g>
<!-- Node10&#45;&gt;Node13 -->
<g id="edge8" class="edge">
<title>Node10&#45;&gt;Node13</title>
<path fill="none" stroke="#191970" d="M988.7444,-52.9252C1000.1411,-50.5756 1011.9568,-48.0421 1023,-45.5 1042.7645,-40.9502 1064.3003,-35.5145 1083.3912,-30.5276"/>
<polygon fill="#191970" stroke="#191970" points="987.9664,-49.5118 978.8669,-54.9384 989.3644,-56.3707 987.9664,-49.5118"/>
</g>
<!-- Node17 -->
<g id="node13" class="node">
<title>Node17</title>
<g id="a_node13"><a xlink:href="classCDPL_1_1Chem_1_1BasicMolecule.html" target="_top" xlink:title="BasicMolecule.">
<polygon fill="none" stroke="#000000" points="853,-143 853,-162 1005,-162 1005,-143 853,-143"/>
<text text-anchor="middle" x="929" y="-150" font-family="Helvetica,sans-Serif" font-size="10.00" fill="#000000">CDPL::Chem::BasicMolecule</text>
</a>
</g>
</g>
<!-- Node16&#45;&gt;Node17 -->
<g id="edge12" class="edge">
<title>Node16&#45;&gt;Node17</title>
<path fill="none" stroke="#191970" d="M778.3329,-152.5C802.1791,-152.5 828.6911,-152.5 852.7456,-152.5"/>
<polygon fill="#191970" stroke="#191970" points="778.2913,-149.0001 768.2912,-152.5 778.2912,-156.0001 778.2913,-149.0001"/>
</g>
<!-- Node874 -->
<g id="node15" class="node">
<title>Node874</title>
<g id="a_node15"><a xlink:href="classCDPL_1_1Chem_1_1Entity3DContainer.html" target="_top" xlink:title="A common interface for data&#45;structures that support a random access to stored Chem::Entity3D instance...">
<polygon fill="none" stroke="#000000" points="0,-124 0,-143 172,-143 172,-124 0,-124"/>
<text text-anchor="middle" x="86" y="-131" font-family="Helvetica,sans-Serif" font-size="10.00" fill="#000000">CDPL::Chem::Entity3DContainer</text>
</a>
</g>
</g>
<!-- Node875 -->
<g id="node16" class="node">
<title>Node875</title>
<g id="a_node16"><a xlink:href="classCDPL_1_1Chem_1_1AtomContainer.html" target="_top" xlink:title="A common interface for data&#45;structures that support a random access to stored Chem::Atom instances.">
<polygon fill="none" stroke="#000000" points="214.5,-181 214.5,-200 370.5,-200 370.5,-181 214.5,-181"/>
<text text-anchor="middle" x="292.5" y="-188" font-family="Helvetica,sans-Serif" font-size="10.00" fill="#000000">CDPL::Chem::AtomContainer</text>
</a>
</g>
</g>
<!-- Node874&#45;&gt;Node875 -->
<g id="edge14" class="edge">
<title>Node874&#45;&gt;Node875</title>
<path fill="none" stroke="#191970" d="M124.1635,-146.2577C148.101,-154.0426 179.6861,-163.9205 208,-171.5 220.4915,-174.8439 234.1264,-178.0854 246.7268,-180.9158"/>
<polygon fill="#191970" stroke="#191970" points="124.9972,-142.8479 114.4046,-143.0623 122.8189,-149.5004 124.9972,-142.8479"/>
</g>
<!-- Node23 -->
<g id="node20" class="node">
<title>Node23</title>
<g id="a_node20"><a xlink:href="classCDPL_1_1Pharm_1_1FeatureContainer.html" target="_top" xlink:title="FeatureContainer.">
<polygon fill="none" stroke="#000000" points="208,-67 208,-86 377,-86 377,-67 208,-67"/>
<text text-anchor="middle" x="292.5" y="-74" font-family="Helvetica,sans-Serif" font-size="10.00" fill="#000000">CDPL::Pharm::FeatureContainer</text>
</a>
</g>
</g>
<!-- Node874&#45;&gt;Node23 -->
<g id="edge20" class="edge">
<title>Node874&#45;&gt;Node23</title>
<path fill="none" stroke="#191970" d="M130.3805,-121.2497C168.5328,-110.7185 222.7907,-95.7418 257.8238,-86.0716"/>
<polygon fill="#191970" stroke="#191970" points="129.2717,-117.9248 120.5635,-123.9595 131.1343,-124.6725 129.2717,-117.9248"/>
</g>
<!-- Node875&#45;&gt;Node4 -->
<g id="edge15" class="edge">
<title>Node875&#45;&gt;Node4</title>
<path fill="none" stroke="#191970" d="M380.71,-190.5C400.6145,-190.5 421.1822,-190.5 439.2402,-190.5"/>
<polygon fill="#191970" stroke="#191970" points="380.6936,-187.0001 370.6936,-190.5 380.6935,-194.0001 380.6936,-187.0001"/>
</g>
<!-- Node875&#45;&gt;Node8 -->
<g id="edge19" class="edge">
<title>Node875&#45;&gt;Node8</title>
<path fill="none" stroke="#191970" d="M364.5943,-177.4437C368.8977,-175.7044 373.07,-173.7335 377,-171.5 397.2263,-160.0051 392.827,-145.0881 413,-133.5 419.7634,-129.6149 427.2776,-126.5234 434.9248,-124.0636"/>
<polygon fill="#191970" stroke="#191970" points="363.2315,-174.2142 355.0069,-180.8931 365.6014,-180.8009 363.2315,-174.2142"/>
</g>
<!-- Node1 -->
<g id="node17" class="node">
<title>Node1</title>
<g id="a_node17"><a xlink:href="classCDPL_1_1Chem_1_1Bond.html" target="_top" xlink:title="Bond.">
<polygon fill="none" stroke="#000000" points="440.5,-219 440.5,-238 547.5,-238 547.5,-219 440.5,-219"/>
<text text-anchor="middle" x="494" y="-226" font-family="Helvetica,sans-Serif" font-size="10.00" fill="#000000">CDPL::Chem::Bond</text>
</a>
</g>
</g>
<!-- Node875&#45;&gt;Node1 -->
<g id="edge16" class="edge">
<title>Node875&#45;&gt;Node1</title>
<path fill="none" stroke="#191970" d="M353.0461,-201.9181C381.8771,-207.3552 415.9625,-213.7832 443.3923,-218.9561"/>
<polygon fill="#191970" stroke="#191970" points="353.5623,-198.4539 343.0869,-200.04 352.265,-205.3326 353.5623,-198.4539"/>
</g>
<!-- Node876 -->
<g id="node19" class="node">
<title>Node876</title>
<g id="a_node19"><a xlink:href="classCDPL_1_1Chem_1_1ElectronSystem.html" target="_top" xlink:title="Describes an electron system of a molecule in terms of involved atoms and their electron contribution...">
<polygon fill="none" stroke="#000000" points="414.5,-143 414.5,-162 573.5,-162 573.5,-143 414.5,-143"/>
<text text-anchor="middle" x="494" y="-150" font-family="Helvetica,sans-Serif" font-size="10.00" fill="#000000">CDPL::Chem::ElectronSystem</text>
</a>
</g>
</g>
<!-- Node875&#45;&gt;Node876 -->
<g id="edge18" class="edge">
<title>Node875&#45;&gt;Node876</title>
<path fill="none" stroke="#191970" d="M353.0461,-179.0819C381.8771,-173.6448 415.9625,-167.2168 443.3923,-162.0439"/>
<polygon fill="#191970" stroke="#191970" points="352.265,-175.6674 343.0869,-180.96 353.5623,-182.5461 352.265,-175.6674"/>
</g>
<!-- Node2 -->
<g id="node18" class="node">
<title>Node2</title>
<g id="a_node18"><a xlink:href="classCDPL_1_1Chem_1_1BasicBond.html" target="_top" xlink:title="BasicBond.">
<polygon fill="none" stroke="#000000" points="638,-219 638,-238 772,-238 772,-219 638,-219"/>
<text text-anchor="middle" x="705" y="-226" font-family="Helvetica,sans-Serif" font-size="10.00" fill="#000000">CDPL::Chem::BasicBond</text>
</a>
</g>
</g>
<!-- Node1&#45;&gt;Node2 -->
<g id="edge17" class="edge">
<title>Node1&#45;&gt;Node2</title>
<path fill="none" stroke="#191970" d="M557.7531,-228.5C583.0922,-228.5 612.2622,-228.5 637.9206,-228.5"/>
<polygon fill="#191970" stroke="#191970" points="557.517,-225.0001 547.517,-228.5 557.5169,-232.0001 557.517,-225.0001"/>
</g>
<!-- Node24 -->
<g id="node21" class="node">
<title>Node24</title>
<g id="a_node21"><a xlink:href="classCDPL_1_1Pharm_1_1FeatureSet.html" target="_top" xlink:title="FeatureSet.">
<polygon fill="none" stroke="#000000" points="425.5,-29 425.5,-48 562.5,-48 562.5,-29 425.5,-29"/>
<text text-anchor="middle" x="494" y="-36" font-family="Helvetica,sans-Serif" font-size="10.00" fill="#000000">CDPL::Pharm::FeatureSet</text>
</a>
</g>
</g>
<!-- Node23&#45;&gt;Node24 -->
<g id="edge21" class="edge">
<title>Node23&#45;&gt;Node24</title>
<path fill="none" stroke="#191970" d="M353.0461,-65.0819C381.8771,-59.6448 415.9625,-53.2168 443.3923,-48.0439"/>
<polygon fill="#191970" stroke="#191970" points="352.265,-61.6674 343.0869,-66.96 353.5623,-68.5461 352.265,-61.6674"/>
</g>
<!-- Node25 -->
<g id="node22" class="node">
<title>Node25</title>
<g id="a_node22"><a xlink:href="classCDPL_1_1Pharm_1_1Pharmacophore.html" target="_top" xlink:title="Pharmacophore.">
<polygon fill="none" stroke="#000000" points="413,-67 413,-86 575,-86 575,-67 413,-67"/>
<text text-anchor="middle" x="494" y="-74" font-family="Helvetica,sans-Serif" font-size="10.00" fill="#000000">CDPL::Pharm::Pharmacophore</text>
</a>
</g>
</g>
<!-- Node23&#45;&gt;Node25 -->
<g id="edge22" class="edge">
<title>Node23&#45;&gt;Node25</title>
<path fill="none" stroke="#191970" d="M387.1319,-76.5C395.7322,-76.5 404.3922,-76.5 412.86,-76.5"/>
<polygon fill="#191970" stroke="#191970" points="387.0783,-73.0001 377.0783,-76.5 387.0783,-80.0001 387.0783,-73.0001"/>
</g>
<!-- Node26 -->
<g id="node23" class="node">
<title>Node26</title>
<g id="a_node23"><a xlink:href="classCDPL_1_1Pharm_1_1BasicPharmacophore.html" target="_top" xlink:title="BasicPharmacophore.">
<polygon fill="none" stroke="#000000" points="611,-17 611,-36 799,-36 799,-17 611,-17"/>
<text text-anchor="middle" x="705" y="-24" font-family="Helvetica,sans-Serif" font-size="10.00" fill="#000000">CDPL::Pharm::BasicPharmacophore</text>
</a>
</g>
</g>
<!-- Node25&#45;&gt;Node26 -->
<g id="edge23" class="edge">
<title>Node25&#45;&gt;Node26</title>
<path fill="none" stroke="#191970" d="M547.7012,-64.6317C556.8468,-62.4027 566.223,-59.9866 575,-57.5 591.2268,-52.9028 594.704,-49.8455 611,-45.5 624.1916,-41.9823 638.5768,-38.7688 652.0374,-36.0254"/>
<polygon fill="#191970" stroke="#191970" points="546.82,-61.2437 537.907,-66.9715 548.4466,-68.0521 546.82,-61.2437"/>
</g>
<!-- Node0 -->
<g id="node24" class="node">
<title>Node0</title>
<g id="a_node24"><a xlink:href="classCDPL_1_1Base_1_1PropertyContainer.html" target="_top" xlink:title="A class providing methods for the storage and lookup of object properties.">
<polygon fill="none" stroke="#000000" points="2.5,-257 2.5,-276 169.5,-276 169.5,-257 2.5,-257"/>
<text text-anchor="middle" x="86" y="-264" font-family="Helvetica,sans-Serif" font-size="10.00" fill="#000000">CDPL::Base::PropertyContainer</text>
</a>
</g>
</g>
<!-- Node0&#45;&gt;Node8 -->
<g id="edge29" class="edge">
<title>Node0&#45;&gt;Node8</title>
<path fill="none" stroke="#191970" d="M96.3608,-248.1432C114.52,-217.9958 155.235,-158.8209 208,-133.5 275.408,-101.1523 362.2085,-100.2303 422.4181,-104.9884"/>
<polygon fill="#191970" stroke="#191970" points="93.3058,-246.434 91.2709,-256.8316 99.3457,-249.9724 93.3058,-246.434"/>
</g>
<!-- Node0&#45;&gt;Node1 -->
<g id="edge24" class="edge">
<title>Node0&#45;&gt;Node1</title>
<path fill="none" stroke="#191970" d="M150.5978,-255.3526C169.0915,-252.4569 189.3046,-249.5727 208,-247.5 288.7421,-238.5483 382.8099,-233.2871 440.3737,-230.6498"/>
<polygon fill="#191970" stroke="#191970" points="149.846,-251.9282 140.521,-256.9575 150.947,-258.8411 149.846,-251.9282"/>
</g>
<!-- Node0&#45;&gt;Node23 -->
<g id="edge34" class="edge">
<title>Node0&#45;&gt;Node23</title>
<path fill="none" stroke="#191970" d="M99.8164,-248.6564C116.9996,-226.3578 147.1075,-186.9347 172,-152.5 188.4676,-129.7197 185.1388,-116.8551 208,-100.5 216.8062,-94.1999 227.2275,-89.5484 237.6905,-86.1155"/>
<polygon fill="#191970" stroke="#191970" points="96.8388,-246.7859 93.4975,-256.8401 102.3794,-251.064 96.8388,-246.7859"/>
</g>
<!-- Node3 -->
<g id="node25" class="node">
<title>Node3</title>
<g id="a_node25"><a xlink:href="classCDPL_1_1Chem_1_1Entity3D.html" target="_top" xlink:title="Entity3D.">
<polygon fill="none" stroke="#000000" points="230,-257 230,-276 355,-276 355,-257 230,-257"/>
<text text-anchor="middle" x="292.5" y="-264" font-family="Helvetica,sans-Serif" font-size="10.00" fill="#000000">CDPL::Chem::Entity3D</text>
</a>
</g>
</g>
<!-- Node0&#45;&gt;Node3 -->
<g id="edge25" class="edge">
<title>Node0&#45;&gt;Node3</title>
<path fill="none" stroke="#191970" d="M180.145,-266.5C197.0244,-266.5 214.2309,-266.5 229.9412,-266.5"/>
<polygon fill="#191970" stroke="#191970" points="179.6938,-263.0001 169.6938,-266.5 179.6937,-270.0001 179.6938,-263.0001"/>
</g>
<!-- Node19 -->
<g id="node28" class="node">
<title>Node19</title>
<g id="a_node28"><a xlink:href="classCDPL_1_1Chem_1_1Reaction.html" target="_top" xlink:title="Reaction.">
<polygon fill="none" stroke="#000000" points="230,-333 230,-352 355,-352 355,-333 230,-333"/>
<text text-anchor="middle" x="292.5" y="-340" font-family="Helvetica,sans-Serif" font-size="10.00" fill="#000000">CDPL::Chem::Reaction</text>
</a>
</g>
</g>
<!-- Node0&#45;&gt;Node19 -->
<g id="edge30" class="edge">
<title>Node0&#45;&gt;Node19</title>
<path fill="none" stroke="#191970" d="M112.2113,-280.7722C136.4633,-293.4833 173.821,-311.8263 208,-323.5 218.672,-327.145 230.3436,-330.285 241.513,-332.9031"/>
<polygon fill="#191970" stroke="#191970" points="113.7586,-277.631 103.2844,-276.0367 110.4782,-283.8148 113.7586,-277.631"/>
</g>
<!-- Node21 -->
<g id="node30" class="node">
<title>Node21</title>
<g id="a_node30"><a xlink:href="classCDPL_1_1Grid_1_1AttributedGrid.html" target="_top" xlink:title="AttributedGrid.">
<polygon fill="none" stroke="#000000" points="221,-295 221,-314 364,-314 364,-295 221,-295"/>
<text text-anchor="middle" x="292.5" y="-302" font-family="Helvetica,sans-Serif" font-size="10.00" fill="#000000">CDPL::Grid::AttributedGrid</text>
</a>
</g>
</g>
<!-- Node0&#45;&gt;Node21 -->
<g id="edge32" class="edge">
<title>Node0&#45;&gt;Node21</title>
<path fill="none" stroke="#191970" d="M148.0485,-277.9181C177.5949,-283.3552 212.5261,-289.7832 240.6365,-294.9561"/>
<polygon fill="#191970" stroke="#191970" points="148.3105,-274.4076 137.8421,-276.04 147.0435,-281.292 148.3105,-274.4076"/>
</g>
<!-- Node27 -->
<g id="node32" class="node">
<title>Node27</title>
<g id="a_node32"><a xlink:href="classCDPL_1_1Shape_1_1GaussianShape.html" target="_top" xlink:title="A data type for the descripton of arbitrary shapes composed of spheres approximated by gaussian funct...">
<polygon fill="none" stroke="#000000" points="213,-371 213,-390 372,-390 372,-371 213,-371"/>
<text text-anchor="middle" x="292.5" y="-378" font-family="Helvetica,sans-Serif" font-size="10.00" fill="#000000">CDPL::Shape::GaussianShape</text>
</a>
</g>
</g>
<!-- Node0&#45;&gt;Node27 -->
<g id="edge35" class="edge">
<title>Node0&#45;&gt;Node27</title>
<path fill="none" stroke="#191970" d="M102.3202,-283.1471C124.3173,-304.5916 165.6305,-341.4812 208,-361.5 216.1572,-365.3541 225.1324,-368.4453 234.0941,-370.9195"/>
<polygon fill="#191970" stroke="#191970" points="104.6872,-280.5651 95.1238,-276.0052 99.7563,-285.5336 104.6872,-280.5651"/>
</g>
<!-- Node3&#45;&gt;Node4 -->
<g id="edge26" class="edge">
<title>Node3&#45;&gt;Node4</title>
<path fill="none" stroke="#191970" d="M318.8038,-252.066C342.7692,-239.4017 379.4401,-221.2251 413,-209.5 423.3633,-205.8793 434.7123,-202.7338 445.5484,-200.1005"/>
<polygon fill="#191970" stroke="#191970" points="317.137,-248.9883 309.9687,-256.7899 320.4377,-255.1613 317.137,-248.9883"/>
</g>
<!-- Node6 -->
<g id="node26" class="node">
<title>Node6</title>
<g id="a_node26"><a xlink:href="classCDPL_1_1Pharm_1_1Feature.html" target="_top" xlink:title="Feature.">
<polygon fill="none" stroke="#000000" points="433,-257 433,-276 555,-276 555,-257 433,-257"/>
<text text-anchor="middle" x="494" y="-264" font-family="Helvetica,sans-Serif" font-size="10.00" fill="#000000">CDPL::Pharm::Feature</text>
</a>
</g>
</g>
<!-- Node3&#45;&gt;Node6 -->
<g id="edge27" class="edge">
<title>Node3&#45;&gt;Node6</title>
<path fill="none" stroke="#191970" d="M365.1748,-266.5C387.3293,-266.5 411.4521,-266.5 432.7698,-266.5"/>
<polygon fill="#191970" stroke="#191970" points="365.1514,-263.0001 355.1513,-266.5 365.1513,-270.0001 365.1514,-263.0001"/>
</g>
<!-- Node7 -->
<g id="node27" class="node">
<title>Node7</title>
<g id="a_node27"><a xlink:href="classCDPL_1_1Pharm_1_1BasicFeature.html" target="_top" xlink:title="BasicFeature.">
<polygon fill="none" stroke="#000000" points="631,-257 631,-276 779,-276 779,-257 631,-257"/>
<text text-anchor="middle" x="705" y="-264" font-family="Helvetica,sans-Serif" font-size="10.00" fill="#000000">CDPL::Pharm::BasicFeature</text>
</a>
</g>
</g>
<!-- Node6&#45;&gt;Node7 -->
<g id="edge28" class="edge">
<title>Node6&#45;&gt;Node7</title>
<path fill="none" stroke="#191970" d="M565.19,-266.5C586.2564,-266.5 609.3709,-266.5 630.6325,-266.5"/>
<polygon fill="#191970" stroke="#191970" points="565.03,-263.0001 555.0299,-266.5 565.0299,-270.0001 565.03,-263.0001"/>
</g>
<!-- Node20 -->
<g id="node29" class="node">
<title>Node20</title>
<g id="a_node29"><a xlink:href="classCDPL_1_1Chem_1_1BasicReaction.html" target="_top" xlink:title="BasicReaction.">
<polygon fill="none" stroke="#000000" points="418.5,-345 418.5,-364 569.5,-364 569.5,-345 418.5,-345"/>
<text text-anchor="middle" x="494" y="-352" font-family="Helvetica,sans-Serif" font-size="10.00" fill="#000000">CDPL::Chem::BasicReaction</text>
</a>
</g>
</g>
<!-- Node19&#45;&gt;Node20 -->
<g id="edge31" class="edge">
<title>Node19&#45;&gt;Node20</title>
<path fill="none" stroke="#191970" d="M365.1608,-346.8272C382.4247,-347.8553 400.8845,-348.9547 418.2812,-349.9907"/>
<polygon fill="#191970" stroke="#191970" points="365.3417,-343.3319 355.1513,-346.2311 364.9255,-350.3195 365.3417,-343.3319"/>
</g>
<!-- Node22 -->
<g id="node31" class="node">
<title>Node22</title>
<g id="a_node31"><a xlink:href="classCDPL_1_1Grid_1_1SpatialGrid.html" target="_top" xlink:title="SpatialGrid.">
<polygon fill="none" stroke="#000000" points="430,-295.5 430,-325.5 558,-325.5 558,-295.5 430,-295.5"/>
<text text-anchor="start" x="438" y="-313.5" font-family="Helvetica,sans-Serif" font-size="10.00" fill="#000000">CDPL::Grid::SpatialGrid</text>
<text text-anchor="middle" x="494" y="-302.5" font-family="Helvetica,sans-Serif" font-size="10.00" fill="#000000">&lt; T, CVT &gt;</text>
</a>
</g>
</g>
<!-- Node21&#45;&gt;Node22 -->
<g id="edge33" class="edge">
<title>Node21&#45;&gt;Node22</title>
<path fill="none" stroke="#191970" d="M374.3084,-306.936C392.8626,-307.4885 412.306,-308.0674 429.9976,-308.5942"/>
<polygon fill="#191970" stroke="#191970" points="374.2085,-303.4316 364.1087,-306.6323 374.0001,-310.4284 374.2085,-303.4316"/>
</g>
</g>
</svg>
