<?xml version="1.0" encoding="UTF-8" standalone="no"?>
<!DOCTYPE svg PUBLIC "-//W3C//DTD SVG 1.1//EN"
 "http://www.w3.org/Graphics/SVG/1.1/DTD/svg11.dtd">
<!-- Generated by graphviz version 2.44.0 (0)
 -->
<!-- Title: Graphical Class Hierarchy Pages: 1 -->
<svg width="358pt" height="104pt"
 viewBox="0.00 0.00 358.00 104.00" xmlns="http://www.w3.org/2000/svg" xmlns:xlink="http://www.w3.org/1999/xlink">
<g id="graph0" class="graph" transform="scale(1 1) rotate(0) translate(4 100)">
<title>Graphical Class Hierarchy</title>
<!-- Node0 -->
<g id="node1" class="node">
<title>Node0</title>
<g id="a_node1"><a xlink:href="structCDPL_1_1Math_1_1VectorScalarRealUnaryFunctor.html" target="_top" xlink:title=" ">
<polygon fill="none" stroke="black" points="0,-33 0,-63 132,-63 132,-33 0,-33"/>
<text text-anchor="start" x="8" y="-51" font-family="Helvetica" font-size="10.00">CDPL::Math::VectorScalar</text>
<text text-anchor="middle" x="66" y="-40" font-family="Helvetica" font-size="10.00">RealUnaryFunctor&lt; V &gt;</text>
</a>
</g>
</g>
<!-- Node1 -->
<g id="node2" class="node">
<title>Node1</title>
<g id="a_node2"><a xlink:href="structCDPL_1_1Math_1_1VectorNorm1.html" target="_top" xlink:title=" ">
<polygon fill="none" stroke="black" points="180,-76.5 180,-95.5 338,-95.5 338,-76.5 180,-76.5"/>
<text text-anchor="middle" x="259" y="-83.5" font-family="Helvetica" font-size="10.00">CDPL::Math::VectorNorm1&lt; V &gt;</text>
</a>
</g>
</g>
<!-- Node0&#45;&gt;Node1 -->
<g id="edge1" class="edge">
<title>Node0&#45;&gt;Node1</title>
<path fill="none" stroke="midnightblue" d="M142.2,-62.96C165.02,-67.5 189.46,-72.36 209.98,-76.45"/>
<polygon fill="midnightblue" stroke="midnightblue" points="142.69,-59.49 132.2,-60.97 141.32,-66.36 142.69,-59.49"/>
</g>
<!-- Node2 -->
<g id="node3" class="node">
<title>Node2</title>
<g id="a_node3"><a xlink:href="structCDPL_1_1Math_1_1VectorNorm2.html" target="_top" xlink:title=" ">
<polygon fill="none" stroke="black" points="180,-38.5 180,-57.5 338,-57.5 338,-38.5 180,-38.5"/>
<text text-anchor="middle" x="259" y="-45.5" font-family="Helvetica" font-size="10.00">CDPL::Math::VectorNorm2&lt; V &gt;</text>
</a>
</g>
</g>
<!-- Node0&#45;&gt;Node2 -->
<g id="edge2" class="edge">
<title>Node0&#45;&gt;Node2</title>
<path fill="none" stroke="midnightblue" d="M142.42,-48C154.73,-48 167.52,-48 179.9,-48"/>
<polygon fill="midnightblue" stroke="midnightblue" points="142.2,-44.5 132.2,-48 142.2,-51.5 142.2,-44.5"/>
</g>
<!-- Node3 -->
<g id="node4" class="node">
<title>Node3</title>
<g id="a_node4"><a xlink:href="structCDPL_1_1Math_1_1VectorNormInfinity.html" target="_top" xlink:title=" ">
<polygon fill="none" stroke="black" points="168,-0.5 168,-19.5 350,-19.5 350,-0.5 168,-0.5"/>
<text text-anchor="middle" x="259" y="-7.5" font-family="Helvetica" font-size="10.00">CDPL::Math::VectorNormInfinity&lt; V &gt;</text>
</a>
</g>
</g>
<!-- Node0&#45;&gt;Node3 -->
<g id="edge3" class="edge">
<title>Node0&#45;&gt;Node3</title>
<path fill="none" stroke="midnightblue" d="M142.2,-33.04C165.02,-28.5 189.46,-23.64 209.98,-19.55"/>
<polygon fill="midnightblue" stroke="midnightblue" points="141.32,-29.64 132.2,-35.03 142.69,-36.51 141.32,-29.64"/>
</g>
</g>
</svg>
