<?xml version="1.0" encoding="UTF-8" standalone="no"?>
<!DOCTYPE svg PUBLIC "-//W3C//DTD SVG 1.1//EN"
 "http://www.w3.org/Graphics/SVG/1.1/DTD/svg11.dtd">
<!-- Generated by graphviz version 2.44.0 (0)
 -->
<!-- Title: Graphical Class Hierarchy Pages: 1 -->
<svg width="308pt" height="66pt"
 viewBox="0.00 0.00 308.00 66.00" xmlns="http://www.w3.org/2000/svg" xmlns:xlink="http://www.w3.org/1999/xlink">
<g id="graph0" class="graph" transform="scale(1 1) rotate(0) translate(4 62)">
<title>Graphical Class Hierarchy</title>
<!-- Node0 -->
<g id="node1" class="node">
<title>Node0</title>
<g id="a_node1"><a xlink:href="classCDPL_1_1Vis_1_1FontMetrics.html" target="_top" xlink:title="An interface class with methods that provide information about the metrics of a font.">
<polygon fill="none" stroke="black" points="0,-19.5 0,-38.5 121,-38.5 121,-19.5 0,-19.5"/>
<text text-anchor="middle" x="60.5" y="-26.5" font-family="Helvetica" font-size="10.00">CDPL::Vis::FontMetrics</text>
</a>
</g>
</g>
<!-- Node1 -->
<g id="node2" class="node">
<title>Node1</title>
<g id="a_node2"><a xlink:href="classCDPL_1_1Vis_1_1CairoFontMetrics.html" target="_top" xlink:title="Implements the FontMetrics interface for the Cairo rendering backend.">
<polygon fill="none" stroke="black" points="157,-38.5 157,-57.5 300,-57.5 300,-38.5 157,-38.5"/>
<text text-anchor="middle" x="228.5" y="-45.5" font-family="Helvetica" font-size="10.00">CDPL::Vis::CairoFontMetrics</text>
</a>
</g>
</g>
<!-- Node0&#45;&gt;Node1 -->
<g id="edge1" class="edge">
<title>Node0&#45;&gt;Node1</title>
<path fill="none" stroke="midnightblue" d="M131.55,-37.02C139.95,-37.98 148.52,-38.96 156.92,-39.92"/>
<polygon fill="midnightblue" stroke="midnightblue" points="131.76,-33.52 121.43,-35.86 130.97,-40.47 131.76,-33.52"/>
</g>
<!-- Node2 -->
<g id="node3" class="node">
<title>Node2</title>
<g id="a_node3"><a xlink:href="classCDPL_1_1Vis_1_1QtFontMetrics.html" target="_top" xlink:title="Implements the FontMetrics interface for the Qt rendering backend.">
<polygon fill="none" stroke="black" points="163,-0.5 163,-19.5 294,-19.5 294,-0.5 163,-0.5"/>
<text text-anchor="middle" x="228.5" y="-7.5" font-family="Helvetica" font-size="10.00">CDPL::Vis::QtFontMetrics</text>
</a>
</g>
</g>
<!-- Node0&#45;&gt;Node2 -->
<g id="edge2" class="edge">
<title>Node0&#45;&gt;Node2</title>
<path fill="none" stroke="midnightblue" d="M131.67,-20.97C142.03,-19.78 152.65,-18.57 162.89,-17.4"/>
<polygon fill="midnightblue" stroke="midnightblue" points="130.97,-17.53 121.43,-22.14 131.76,-24.48 130.97,-17.53"/>
</g>
</g>
</svg>
