<?xml version="1.0" encoding="UTF-8" standalone="no"?>
<!DOCTYPE svg PUBLIC "-//W3C//DTD SVG 1.1//EN"
 "http://www.w3.org/Graphics/SVG/1.1/DTD/svg11.dtd">
<!-- Generated by graphviz version 2.44.0 (0)
 -->
<!-- Title: Graphical Class Hierarchy Pages: 1 -->
<svg width="534pt" height="50pt"
 viewBox="0.00 0.00 534.00 50.00" xmlns="http://www.w3.org/2000/svg" xmlns:xlink="http://www.w3.org/1999/xlink">
<g id="graph0" class="graph" transform="scale(1 1) rotate(0) translate(4 46)">
<title>Graphical Class Hierarchy</title>
<!-- Node0 -->
<g id="node1" class="node">
<title>Node0</title>
<g id="a_node1"><a xlink:href="classCDPL_1_1Math_1_1Expression.html" target="_top" xlink:title=" ">
<polygon fill="none" stroke="black" points="0,-0.5 0,-41.5 125,-41.5 125,-0.5 0,-0.5"/>
<text text-anchor="start" x="8" y="-29.5" font-family="Helvetica" font-size="10.00">CDPL::Math::Expression</text>
<text text-anchor="start" x="8" y="-18.5" font-family="Helvetica" font-size="10.00">&lt; QuaternionUnary2&lt; E,</text>
<text text-anchor="middle" x="62.5" y="-7.5" font-family="Helvetica" font-size="10.00"> F &gt; &gt;</text>
</a>
</g>
</g>
<!-- Node1 -->
<g id="node2" class="node">
<title>Node1</title>
<g id="a_node2"><a xlink:href="classCDPL_1_1Math_1_1QuaternionExpression.html" target="_top" xlink:title=" ">
<polygon fill="none" stroke="black" points="161,-6 161,-36 334,-36 334,-6 161,-6"/>
<text text-anchor="start" x="169" y="-24" font-family="Helvetica" font-size="10.00">CDPL::Math::QuaternionExpression</text>
<text text-anchor="middle" x="247.5" y="-13" font-family="Helvetica" font-size="10.00">&lt; QuaternionUnary2&lt; E, F &gt; &gt;</text>
</a>
</g>
</g>
<!-- Node0&#45;&gt;Node1 -->
<g id="edge1" class="edge">
<title>Node0&#45;&gt;Node1</title>
<path fill="none" stroke="midnightblue" d="M135.25,-21C143.6,-21 152.19,-21 160.7,-21"/>
<polygon fill="midnightblue" stroke="midnightblue" points="135.2,-17.5 125.2,-21 135.2,-24.5 135.2,-17.5"/>
</g>
<!-- Node2 -->
<g id="node3" class="node">
<title>Node2</title>
<g id="a_node3"><a xlink:href="classCDPL_1_1Math_1_1QuaternionUnary2.html" target="_top" xlink:title=" ">
<polygon fill="none" stroke="black" points="370,-6 370,-36 526,-36 526,-6 370,-6"/>
<text text-anchor="start" x="378" y="-24" font-family="Helvetica" font-size="10.00">CDPL::Math::QuaternionUnary2</text>
<text text-anchor="middle" x="448" y="-13" font-family="Helvetica" font-size="10.00">&lt; E, F &gt;</text>
</a>
</g>
</g>
<!-- Node1&#45;&gt;Node2 -->
<g id="edge2" class="edge">
<title>Node1&#45;&gt;Node2</title>
<path fill="none" stroke="midnightblue" d="M344.17,-21C352.76,-21 361.39,-21 369.79,-21"/>
<polygon fill="midnightblue" stroke="midnightblue" points="344.12,-17.5 334.12,-21 344.12,-24.5 344.12,-17.5"/>
</g>
</g>
</svg>
