<?xml version="1.0" encoding="UTF-8" standalone="no"?>
<!DOCTYPE svg PUBLIC "-//W3C//DTD SVG 1.1//EN"
 "http://www.w3.org/Graphics/SVG/1.1/DTD/svg11.dtd">
<!-- Generated by graphviz version 2.44.0 (0)
 -->
<!-- Title: Graphical Class Hierarchy Pages: 1 -->
<svg width="412pt" height="66pt"
 viewBox="0.00 0.00 412.00 66.00" xmlns="http://www.w3.org/2000/svg" xmlns:xlink="http://www.w3.org/1999/xlink">
<g id="graph0" class="graph" transform="scale(1 1) rotate(0) translate(4 62)">
<title>Graphical Class Hierarchy</title>
<!-- Node0 -->
<g id="node1" class="node">
<title>Node0</title>
<g id="a_node1"><a xlink:href="structCDPL_1_1Math_1_1ScalarUnaryFunctor.html" target="_top" xlink:title=" ">
<polygon fill="none" stroke="black" points="0,-19.5 0,-38.5 188,-38.5 188,-19.5 0,-19.5"/>
<text text-anchor="middle" x="94" y="-26.5" font-family="Helvetica" font-size="10.00">CDPL::Math::ScalarUnaryFunctor&lt; T &gt;</text>
</a>
</g>
</g>
<!-- Node1 -->
<g id="node2" class="node">
<title>Node1</title>
<g id="a_node2"><a xlink:href="structCDPL_1_1Math_1_1ScalarConjugation.html" target="_top" xlink:title=" ">
<polygon fill="none" stroke="black" points="224,-38.5 224,-57.5 404,-57.5 404,-38.5 224,-38.5"/>
<text text-anchor="middle" x="314" y="-45.5" font-family="Helvetica" font-size="10.00">CDPL::Math::ScalarConjugation&lt; T &gt;</text>
</a>
</g>
</g>
<!-- Node0&#45;&gt;Node1 -->
<g id="edge1" class="edge">
<title>Node0&#45;&gt;Node1</title>
<path fill="none" stroke="midnightblue" d="M198.09,-37.99C206.65,-38.73 215.25,-39.48 223.69,-40.22"/>
<polygon fill="midnightblue" stroke="midnightblue" points="198.35,-34.49 188.08,-37.11 197.74,-41.47 198.35,-34.49"/>
</g>
<!-- Node2 -->
<g id="node3" class="node">
<title>Node2</title>
<g id="a_node3"><a xlink:href="structCDPL_1_1Math_1_1ScalarNegation.html" target="_top" xlink:title=" ">
<polygon fill="none" stroke="black" points="230.5,-0.5 230.5,-19.5 397.5,-19.5 397.5,-0.5 230.5,-0.5"/>
<text text-anchor="middle" x="314" y="-7.5" font-family="Helvetica" font-size="10.00">CDPL::Math::ScalarNegation&lt; T &gt;</text>
</a>
</g>
</g>
<!-- Node0&#45;&gt;Node2 -->
<g id="edge2" class="edge">
<title>Node0&#45;&gt;Node2</title>
<path fill="none" stroke="midnightblue" d="M198.31,-20C209.01,-19.06 219.78,-18.12 230.22,-17.22"/>
<polygon fill="midnightblue" stroke="midnightblue" points="197.74,-16.53 188.08,-20.89 198.35,-23.51 197.74,-16.53"/>
</g>
</g>
</svg>
