<?xml version="1.0" encoding="UTF-8" standalone="no"?>
<!DOCTYPE svg PUBLIC "-//W3C//DTD SVG 1.1//EN"
 "http://www.w3.org/Graphics/SVG/1.1/DTD/svg11.dtd">
<!-- Generated by graphviz version 2.44.0 (0)
 -->
<!-- Title: Graphical Class Hierarchy Pages: 1 -->
<svg width="550pt" height="50pt"
 viewBox="0.00 0.00 550.00 50.00" xmlns="http://www.w3.org/2000/svg" xmlns:xlink="http://www.w3.org/1999/xlink">
<g id="graph0" class="graph" transform="scale(1 1) rotate(0) translate(4 46)">
<title>Graphical Class Hierarchy</title>
<!-- Node0 -->
<g id="node1" class="node">
<title>Node0</title>
<g id="a_node1"><a xlink:href="classCDPL_1_1Math_1_1Expression.html" target="_top" xlink:title=" ">
<polygon fill="none" stroke="black" points="0,-0.5 0,-41.5 140,-41.5 140,-0.5 0,-0.5"/>
<text text-anchor="start" x="8" y="-29.5" font-family="Helvetica" font-size="10.00">CDPL::Math::Expression</text>
<text text-anchor="start" x="8" y="-18.5" font-family="Helvetica" font-size="10.00">&lt; Scalar1QuaternionBinary1</text>
<text text-anchor="middle" x="70" y="-7.5" font-family="Helvetica" font-size="10.00">&lt; E1, E2, F &gt; &gt;</text>
</a>
</g>
</g>
<!-- Node1 -->
<g id="node2" class="node">
<title>Node1</title>
<g id="a_node2"><a xlink:href="classCDPL_1_1Math_1_1QuaternionExpression.html" target="_top" xlink:title=" ">
<polygon fill="none" stroke="black" points="176,-0.5 176,-41.5 349,-41.5 349,-0.5 176,-0.5"/>
<text text-anchor="start" x="184" y="-29.5" font-family="Helvetica" font-size="10.00">CDPL::Math::QuaternionExpression</text>
<text text-anchor="start" x="184" y="-18.5" font-family="Helvetica" font-size="10.00">&lt; Scalar1QuaternionBinary1</text>
<text text-anchor="middle" x="262.5" y="-7.5" font-family="Helvetica" font-size="10.00">&lt; E1, E2, F &gt; &gt;</text>
</a>
</g>
</g>
<!-- Node0&#45;&gt;Node1 -->
<g id="edge1" class="edge">
<title>Node0&#45;&gt;Node1</title>
<path fill="none" stroke="midnightblue" d="M150.23,-21C158.67,-21 167.28,-21 175.79,-21"/>
<polygon fill="midnightblue" stroke="midnightblue" points="150.04,-17.5 140.04,-21 150.04,-24.5 150.04,-17.5"/>
</g>
<!-- Node2 -->
<g id="node3" class="node">
<title>Node2</title>
<g id="a_node3"><a xlink:href="classCDPL_1_1Math_1_1Scalar1QuaternionBinary1.html" target="_top" xlink:title=" ">
<polygon fill="none" stroke="black" points="385,-6 385,-36 542,-36 542,-6 385,-6"/>
<text text-anchor="start" x="393" y="-24" font-family="Helvetica" font-size="10.00">CDPL::Math::Scalar1Quaternion</text>
<text text-anchor="middle" x="463.5" y="-13" font-family="Helvetica" font-size="10.00">Binary1&lt; E1, E2, F &gt;</text>
</a>
</g>
</g>
<!-- Node1&#45;&gt;Node2 -->
<g id="edge2" class="edge">
<title>Node1&#45;&gt;Node2</title>
<path fill="none" stroke="midnightblue" d="M359.14,-21C367.77,-21 376.43,-21 384.88,-21"/>
<polygon fill="midnightblue" stroke="midnightblue" points="359.05,-17.5 349.05,-21 359.05,-24.5 359.05,-17.5"/>
</g>
</g>
</svg>
