<?xml version="1.0" encoding="UTF-8" standalone="no"?>
<!DOCTYPE svg PUBLIC "-//W3C//DTD SVG 1.1//EN"
 "http://www.w3.org/Graphics/SVG/1.1/DTD/svg11.dtd">
<!-- Generated by graphviz version 2.40.1 (0)
 -->
<!-- Title: Graphical Class Hierarchy Pages: 1 -->
<svg width="1034pt" height="184pt"
 viewBox="0.00 0.00 1034.00 184.00" xmlns="http://www.w3.org/2000/svg" xmlns:xlink="http://www.w3.org/1999/xlink">
<g id="graph0" class="graph" transform="scale(1 1) rotate(0) translate(4 180)">
<title>Graphical Class Hierarchy</title>
<!-- Node482 -->
<g id="node1" class="node">
<title>Node482</title>
<g id="a_node1"><a xlink:title="STL class.">
<polygon fill="none" stroke="#bfbfbf" points="0,-76 0,-95 80,-95 80,-76 0,-76"/>
<text text-anchor="middle" x="40" y="-83" font-family="Helvetica,sans-Serif" font-size="10.00" fill="#000000">std::ios_base</text>
</a>
</g>
</g>
<!-- Node483 -->
<g id="node2" class="node">
<title>Node483</title>
<g id="a_node2"><a xlink:title="STL class.">
<polygon fill="none" stroke="#bfbfbf" points="116,-76 116,-95 244,-95 244,-76 116,-76"/>
<text text-anchor="middle" x="180" y="-83" font-family="Helvetica,sans-Serif" font-size="10.00" fill="#000000">std::basic_ios&lt; Char &gt;</text>
</a>
</g>
</g>
<!-- Node482&#45;&gt;Node483 -->
<g id="edge1" class="edge">
<title>Node482&#45;&gt;Node483</title>
<path fill="none" stroke="#191970" d="M90.3397,-85.5C98.608,-85.5 107.2745,-85.5 115.8243,-85.5"/>
<polygon fill="#191970" stroke="#191970" points="90.1184,-82.0001 80.1184,-85.5 90.1183,-89.0001 90.1184,-82.0001"/>
</g>
<!-- Node484 -->
<g id="node3" class="node">
<title>Node484</title>
<g id="a_node3"><a xlink:title="STL class.">
<polygon fill="none" stroke="#bfbfbf" points="281.5,-95.5 281.5,-125.5 387.5,-125.5 387.5,-95.5 281.5,-95.5"/>
<text text-anchor="start" x="289.5" y="-113.5" font-family="Helvetica,sans-Serif" font-size="10.00" fill="#000000">std::basic_istream</text>
<text text-anchor="middle" x="334.5" y="-102.5" font-family="Helvetica,sans-Serif" font-size="10.00" fill="#000000">&lt; Char &gt;</text>
</a>
</g>
</g>
<!-- Node483&#45;&gt;Node484 -->
<g id="edge2" class="edge">
<title>Node483&#45;&gt;Node484</title>
<path fill="none" stroke="#191970" d="M248.7993,-96.6326C259.7301,-98.4013 270.8893,-100.207 281.3873,-101.9057"/>
<polygon fill="#191970" stroke="#191970" points="249.2813,-93.1651 238.8506,-95.0227 248.1631,-100.0752 249.2813,-93.1651"/>
</g>
<!-- Node490 -->
<g id="node9" class="node">
<title>Node490</title>
<g id="a_node9"><a xlink:title="STL class.">
<polygon fill="none" stroke="#bfbfbf" points="280,-46.5 280,-76.5 389,-76.5 389,-46.5 280,-46.5"/>
<text text-anchor="start" x="288" y="-64.5" font-family="Helvetica,sans-Serif" font-size="10.00" fill="#000000">std::basic_ostream</text>
<text text-anchor="middle" x="334.5" y="-53.5" font-family="Helvetica,sans-Serif" font-size="10.00" fill="#000000">&lt; Char &gt;</text>
</a>
</g>
</g>
<!-- Node483&#45;&gt;Node490 -->
<g id="edge8" class="edge">
<title>Node483&#45;&gt;Node490</title>
<path fill="none" stroke="#191970" d="M251.6623,-74.368C261.0865,-72.904 270.6223,-71.4227 279.7046,-70.0119"/>
<polygon fill="#191970" stroke="#191970" points="250.8506,-70.952 241.5064,-75.9456 251.9252,-77.8691 250.8506,-70.952"/>
</g>
<!-- Node0 -->
<g id="node4" class="node">
<title>Node0</title>
<g id="a_node4"><a xlink:href="classCDPL_1_1Util_1_1CompressionStreamBase.html" target="_top" xlink:title=" ">
<polygon fill="none" stroke="#000000" points="426.5,-123.5 426.5,-175.5 596.5,-175.5 596.5,-123.5 426.5,-123.5"/>
<text text-anchor="start" x="434.5" y="-163.5" font-family="Helvetica,sans-Serif" font-size="10.00" fill="#000000">CDPL::Util::CompressionStream</text>
<text text-anchor="start" x="434.5" y="-152.5" font-family="Helvetica,sans-Serif" font-size="10.00" fill="#000000">Base&lt; CompAlgo, std::basic</text>
<text text-anchor="start" x="434.5" y="-141.5" font-family="Helvetica,sans-Serif" font-size="10.00" fill="#000000">_istream&lt; char, std::char_traits</text>
<text text-anchor="middle" x="511.5" y="-130.5" font-family="Helvetica,sans-Serif" font-size="10.00" fill="#000000">&lt; char &gt; &gt; &gt;</text>
</a>
</g>
</g>
<!-- Node484&#45;&gt;Node0 -->
<g id="edge3" class="edge">
<title>Node484&#45;&gt;Node0</title>
<path fill="none" stroke="#191970" d="M397.5493,-124.3922C406.8826,-126.4487 416.6285,-128.5961 426.3213,-130.7318"/>
<polygon fill="#191970" stroke="#191970" points="398.1247,-120.9351 387.6058,-122.2013 396.6184,-127.7712 398.1247,-120.9351"/>
</g>
<!-- Node487 -->
<g id="node6" class="node">
<title>Node487</title>
<g id="a_node6"><a xlink:title="STL class.">
<polygon fill="none" stroke="#bfbfbf" points="455.5,-71.5 455.5,-101.5 567.5,-101.5 567.5,-71.5 455.5,-71.5"/>
<text text-anchor="start" x="463.5" y="-89.5" font-family="Helvetica,sans-Serif" font-size="10.00" fill="#000000">std::basic_iostream</text>
<text text-anchor="middle" x="511.5" y="-78.5" font-family="Helvetica,sans-Serif" font-size="10.00" fill="#000000">&lt; Char &gt;</text>
</a>
</g>
</g>
<!-- Node484&#45;&gt;Node487 -->
<g id="edge5" class="edge">
<title>Node484&#45;&gt;Node487</title>
<path fill="none" stroke="#191970" d="M397.5866,-101.9459C416.4414,-99.3893 436.9778,-96.6047 455.3555,-94.1128"/>
<polygon fill="#191970" stroke="#191970" points="397.0449,-98.4872 387.6058,-103.2992 397.9855,-105.4237 397.0449,-98.4872"/>
</g>
<!-- Node1 -->
<g id="node5" class="node">
<title>Node1</title>
<g id="a_node5"><a xlink:href="classCDPL_1_1Util_1_1DecompressionIStream.html" target="_top" xlink:title=" ">
<polygon fill="none" stroke="#000000" points="646,-132 646,-173 800,-173 800,-132 646,-132"/>
<text text-anchor="start" x="654" y="-161" font-family="Helvetica,sans-Serif" font-size="10.00" fill="#000000">CDPL::Util::Decompression</text>
<text text-anchor="start" x="654" y="-150" font-family="Helvetica,sans-Serif" font-size="10.00" fill="#000000">IStream&lt; CompAlgo, CharT,</text>
<text text-anchor="middle" x="723" y="-139" font-family="Helvetica,sans-Serif" font-size="10.00" fill="#000000"> TraitsT &gt;</text>
</a>
</g>
</g>
<!-- Node0&#45;&gt;Node1 -->
<g id="edge4" class="edge">
<title>Node0&#45;&gt;Node1</title>
<path fill="none" stroke="#191970" d="M606.614,-150.8491C619.7695,-151.0357 633.1467,-151.2255 645.9202,-151.4067"/>
<polygon fill="#191970" stroke="#191970" points="606.6596,-147.3495 596.6109,-150.7072 606.5602,-154.3488 606.6596,-147.3495"/>
</g>
<!-- Node488 -->
<g id="node7" class="node">
<title>Node488</title>
<g id="a_node7"><a xlink:href="classCDPL_1_1Util_1_1CompressionStreamBase.html" target="_top" xlink:title=" ">
<polygon fill="none" stroke="#000000" points="638,-60.5 638,-112.5 808,-112.5 808,-60.5 638,-60.5"/>
<text text-anchor="start" x="646" y="-100.5" font-family="Helvetica,sans-Serif" font-size="10.00" fill="#000000">CDPL::Util::CompressionStream</text>
<text text-anchor="start" x="646" y="-89.5" font-family="Helvetica,sans-Serif" font-size="10.00" fill="#000000">Base&lt; CompAlgo, std::basic</text>
<text text-anchor="start" x="646" y="-78.5" font-family="Helvetica,sans-Serif" font-size="10.00" fill="#000000">_iostream&lt; char, std::char</text>
<text text-anchor="middle" x="723" y="-67.5" font-family="Helvetica,sans-Serif" font-size="10.00" fill="#000000">_traits&lt; char &gt; &gt; &gt;</text>
</a>
</g>
</g>
<!-- Node487&#45;&gt;Node488 -->
<g id="edge6" class="edge">
<title>Node487&#45;&gt;Node488</title>
<path fill="none" stroke="#191970" d="M577.6964,-86.5C596.7731,-86.5 617.8561,-86.5 637.9081,-86.5"/>
<polygon fill="#191970" stroke="#191970" points="577.6229,-83.0001 567.6228,-86.5 577.6228,-90.0001 577.6229,-83.0001"/>
</g>
<!-- Node489 -->
<g id="node8" class="node">
<title>Node489</title>
<g id="a_node8"><a xlink:href="classCDPL_1_1Util_1_1CompressedIOStream.html" target="_top" xlink:title=" ">
<polygon fill="none" stroke="#000000" points="848,-71.5 848,-101.5 1026,-101.5 1026,-71.5 848,-71.5"/>
<text text-anchor="start" x="856" y="-89.5" font-family="Helvetica,sans-Serif" font-size="10.00" fill="#000000">CDPL::Util::CompressedIOStream</text>
<text text-anchor="middle" x="937" y="-78.5" font-family="Helvetica,sans-Serif" font-size="10.00" fill="#000000">&lt; CompAlgo, CharT, TraitsT &gt;</text>
</a>
</g>
</g>
<!-- Node488&#45;&gt;Node489 -->
<g id="edge7" class="edge">
<title>Node488&#45;&gt;Node489</title>
<path fill="none" stroke="#191970" d="M818.3663,-86.5C828.1877,-86.5 838.1414,-86.5 847.8911,-86.5"/>
<polygon fill="#191970" stroke="#191970" points="818.1934,-83.0001 808.1934,-86.5 818.1933,-90.0001 818.1934,-83.0001"/>
</g>
<!-- Node490&#45;&gt;Node487 -->
<g id="edge11" class="edge">
<title>Node490&#45;&gt;Node487</title>
<path fill="none" stroke="#191970" d="M399.1044,-70.6249C417.5189,-73.2258 437.4253,-76.0375 455.2957,-78.5615"/>
<polygon fill="#191970" stroke="#191970" points="399.4413,-67.1378 389.0501,-69.2048 398.4623,-74.0691 399.4413,-67.1378"/>
</g>
<!-- Node491 -->
<g id="node10" class="node">
<title>Node491</title>
<g id="a_node10"><a xlink:href="classCDPL_1_1Util_1_1CompressionStreamBase.html" target="_top" xlink:title=" ">
<polygon fill="none" stroke="#000000" points="425,-.5 425,-52.5 598,-52.5 598,-.5 425,-.5"/>
<text text-anchor="start" x="433" y="-40.5" font-family="Helvetica,sans-Serif" font-size="10.00" fill="#000000">CDPL::Util::CompressionStream</text>
<text text-anchor="start" x="433" y="-29.5" font-family="Helvetica,sans-Serif" font-size="10.00" fill="#000000">Base&lt; CompAlgo, std::basic</text>
<text text-anchor="start" x="433" y="-18.5" font-family="Helvetica,sans-Serif" font-size="10.00" fill="#000000">_ostream&lt; char, std::char_traits</text>
<text text-anchor="middle" x="511.5" y="-7.5" font-family="Helvetica,sans-Serif" font-size="10.00" fill="#000000">&lt; char &gt; &gt; &gt;</text>
</a>
</g>
</g>
<!-- Node490&#45;&gt;Node491 -->
<g id="edge9" class="edge">
<title>Node490&#45;&gt;Node491</title>
<path fill="none" stroke="#191970" d="M399.1143,-48.7232C407.5096,-47.0631 416.2149,-45.3417 424.8958,-43.6251"/>
<polygon fill="#191970" stroke="#191970" points="398.1812,-45.3398 389.0501,-50.7133 399.5391,-52.2069 398.1812,-45.3398"/>
</g>
<!-- Node492 -->
<g id="node11" class="node">
<title>Node492</title>
<g id="a_node11"><a xlink:href="classCDPL_1_1Util_1_1CompressionOStream.html" target="_top" xlink:title=" ">
<polygon fill="none" stroke="#000000" points="634,-11.5 634,-41.5 812,-41.5 812,-11.5 634,-11.5"/>
<text text-anchor="start" x="642" y="-29.5" font-family="Helvetica,sans-Serif" font-size="10.00" fill="#000000">CDPL::Util::CompressionOStream</text>
<text text-anchor="middle" x="723" y="-18.5" font-family="Helvetica,sans-Serif" font-size="10.00" fill="#000000">&lt; CompAlgo, CharT, TraitsT &gt;</text>
</a>
</g>
</g>
<!-- Node491&#45;&gt;Node492 -->
<g id="edge10" class="edge">
<title>Node491&#45;&gt;Node492</title>
<path fill="none" stroke="#191970" d="M608.392,-26.5C616.8434,-26.5 625.3709,-26.5 633.7564,-26.5"/>
<polygon fill="#191970" stroke="#191970" points="608.1354,-23.0001 598.1354,-26.5 608.1354,-30.0001 608.1354,-23.0001"/>
</g>
</g>
</svg>
