<?xml version="1.0" encoding="UTF-8" standalone="no"?>
<!DOCTYPE svg PUBLIC "-//W3C//DTD SVG 1.1//EN"
 "http://www.w3.org/Graphics/SVG/1.1/DTD/svg11.dtd">
<!-- Generated by graphviz version 2.40.1 (0)
 -->
<!-- Title: Graphical Class Hierarchy Pages: 1 -->
<svg width="369pt" height="88pt"
 viewBox="0.00 0.00 369.00 88.00" xmlns="http://www.w3.org/2000/svg" xmlns:xlink="http://www.w3.org/1999/xlink">
<g id="graph0" class="graph" transform="scale(1 1) rotate(0) translate(4 84)">
<title>Graphical Class Hierarchy</title>
<!-- Node0 -->
<g id="node1" class="node">
<title>Node0</title>
<g id="a_node1"><a xlink:href="classCDPL_1_1Pharm_1_1FeatureDistanceConstraint.html" target="_top" xlink:title="FeatureDistanceConstraint.">
<polygon fill="none" stroke="#000000" points="0,-24.5 0,-54.5 164,-54.5 164,-24.5 0,-24.5"/>
<text text-anchor="start" x="8" y="-42.5" font-family="Helvetica,sans-Serif" font-size="10.00" fill="#000000">CDPL::Pharm::FeatureDistance</text>
<text text-anchor="middle" x="82" y="-31.5" font-family="Helvetica,sans-Serif" font-size="10.00" fill="#000000">Constraint</text>
</a>
</g>
</g>
<!-- Node1 -->
<g id="node2" class="node">
<title>Node1</title>
<g id="a_node2"><a xlink:href="classCDPL_1_1Pharm_1_1HydrophobicInteractionConstraint.html" target="_top" xlink:title="HydrophobicInteractionConstraint.">
<polygon fill="none" stroke="#000000" points="207,-49.5 207,-79.5 354,-79.5 354,-49.5 207,-49.5"/>
<text text-anchor="start" x="215" y="-67.5" font-family="Helvetica,sans-Serif" font-size="10.00" fill="#000000">CDPL::Pharm::Hydrophobic</text>
<text text-anchor="middle" x="280.5" y="-56.5" font-family="Helvetica,sans-Serif" font-size="10.00" fill="#000000">InteractionConstraint</text>
</a>
</g>
</g>
<!-- Node0&#45;&gt;Node1 -->
<g id="edge1" class="edge">
<title>Node0&#45;&gt;Node1</title>
<path fill="none" stroke="#191970" d="M174.2081,-51.1131C185.1903,-52.4963 196.2881,-53.894 206.96,-55.238"/>
<polygon fill="#191970" stroke="#191970" points="174.5294,-47.626 164.1704,-49.8489 173.6547,-54.5711 174.5294,-47.626"/>
</g>
<!-- Node2 -->
<g id="node3" class="node">
<title>Node2</title>
<g id="a_node3"><a xlink:href="classCDPL_1_1Pharm_1_1IonicInteractionConstraint.html" target="_top" xlink:title="IonicInteractionConstraint.">
<polygon fill="none" stroke="#000000" points="200,-.5 200,-30.5 361,-30.5 361,-.5 200,-.5"/>
<text text-anchor="start" x="208" y="-18.5" font-family="Helvetica,sans-Serif" font-size="10.00" fill="#000000">CDPL::Pharm::IonicInteraction</text>
<text text-anchor="middle" x="280.5" y="-7.5" font-family="Helvetica,sans-Serif" font-size="10.00" fill="#000000">Constraint</text>
</a>
</g>
</g>
<!-- Node0&#45;&gt;Node2 -->
<g id="edge2" class="edge">
<title>Node0&#45;&gt;Node2</title>
<path fill="none" stroke="#191970" d="M174.2233,-28.3496C182.8278,-27.3092 191.5031,-26.2603 199.9888,-25.2343"/>
<polygon fill="#191970" stroke="#191970" points="173.678,-24.8899 164.1704,-29.565 174.5183,-31.8393 173.678,-24.8899"/>
</g>
</g>
</svg>
