<?xml version="1.0" encoding="UTF-8" standalone="no"?>
<!DOCTYPE svg PUBLIC "-//W3C//DTD SVG 1.1//EN"
 "http://www.w3.org/Graphics/SVG/1.1/DTD/svg11.dtd">
<!-- Generated by graphviz version 2.44.0 (0)
 -->
<!-- Title: Graphical Class Hierarchy Pages: 1 -->
<svg width="495pt" height="66pt"
 viewBox="0.00 0.00 495.00 66.00" xmlns="http://www.w3.org/2000/svg" xmlns:xlink="http://www.w3.org/1999/xlink">
<g id="graph0" class="graph" transform="scale(1 1) rotate(0) translate(4 62)">
<title>Graphical Class Hierarchy</title>
<!-- Node0 -->
<g id="node1" class="node">
<title>Node0</title>
<g id="a_node1"><a xlink:href="classCDPL_1_1Vis_1_1Shape3D.html" target="_top" xlink:title="The abstract base of all classes describing the geometric shape of 3D objects.">
<polygon fill="none" stroke="black" points="0,-19.5 0,-38.5 110,-38.5 110,-19.5 0,-19.5"/>
<text text-anchor="middle" x="55" y="-26.5" font-family="Helvetica" font-size="10.00">CDPL::Vis::Shape3D</text>
</a>
</g>
</g>
<!-- Node1 -->
<g id="node2" class="node">
<title>Node1</title>
<g id="a_node2"><a xlink:href="classCDPL_1_1Vis_1_1TriangleMesh3D.html" target="_top" xlink:title="Data structure for describing the geometric shape of 3D objects by means of a triangle mesh.">
<polygon fill="none" stroke="black" points="146,-19.5 146,-38.5 286,-38.5 286,-19.5 146,-19.5"/>
<text text-anchor="middle" x="216" y="-26.5" font-family="Helvetica" font-size="10.00">CDPL::Vis::TriangleMesh3D</text>
</a>
</g>
</g>
<!-- Node0&#45;&gt;Node1 -->
<g id="edge1" class="edge">
<title>Node0&#45;&gt;Node1</title>
<path fill="none" stroke="midnightblue" d="M120.35,-29C128.73,-29 137.34,-29 145.79,-29"/>
<polygon fill="midnightblue" stroke="midnightblue" points="120.27,-25.5 110.27,-29 120.27,-32.5 120.27,-25.5"/>
</g>
<!-- Node2 -->
<g id="node3" class="node">
<title>Node2</title>
<g id="a_node3"><a xlink:href="classCDPL_1_1Vis_1_1IcosahedronMesh3D.html" target="_top" xlink:title="A pre&#45;defined triangle mesh providing the vertices and faces of a regular icosahedron.">
<polygon fill="none" stroke="black" points="325,-38.5 325,-57.5 484,-57.5 484,-38.5 325,-38.5"/>
<text text-anchor="middle" x="404.5" y="-45.5" font-family="Helvetica" font-size="10.00">CDPL::Vis::IcosahedronMesh3D</text>
</a>
</g>
</g>
<!-- Node1&#45;&gt;Node2 -->
<g id="edge2" class="edge">
<title>Node1&#45;&gt;Node2</title>
<path fill="none" stroke="midnightblue" d="M296.29,-37.08C305.69,-38.04 315.29,-39.01 324.69,-39.97"/>
<polygon fill="midnightblue" stroke="midnightblue" points="296.48,-33.58 286.18,-36.05 295.77,-40.54 296.48,-33.58"/>
</g>
<!-- Node3 -->
<g id="node4" class="node">
<title>Node3</title>
<g id="a_node4"><a xlink:href="classCDPL_1_1Vis_1_1RightFrustumMesh3D.html" target="_top" xlink:title="A pre&#45;defined triangle mesh providing the vertices and faces of a right frustum specified by the cont...">
<polygon fill="none" stroke="black" points="322,-0.5 322,-19.5 487,-19.5 487,-0.5 322,-0.5"/>
<text text-anchor="middle" x="404.5" y="-7.5" font-family="Helvetica" font-size="10.00">CDPL::Vis::RightFrustumMesh3D</text>
</a>
</g>
</g>
<!-- Node1&#45;&gt;Node3 -->
<g id="edge3" class="edge">
<title>Node1&#45;&gt;Node3</title>
<path fill="none" stroke="midnightblue" d="M296.36,-20.91C304.79,-20.06 313.37,-19.18 321.83,-18.32"/>
<polygon fill="midnightblue" stroke="midnightblue" points="295.77,-17.46 286.18,-21.95 296.48,-24.42 295.77,-17.46"/>
</g>
</g>
</svg>
