<?xml version="1.0" encoding="UTF-8" standalone="no"?>
<!DOCTYPE svg PUBLIC "-//W3C//DTD SVG 1.1//EN"
 "http://www.w3.org/Graphics/SVG/1.1/DTD/svg11.dtd">
<!-- Generated by graphviz version 2.44.0 (0)
 -->
<!-- Title: Graphical Class Hierarchy Pages: 1 -->
<svg width="488pt" height="50pt"
 viewBox="0.00 0.00 488.00 50.00" xmlns="http://www.w3.org/2000/svg" xmlns:xlink="http://www.w3.org/1999/xlink">
<g id="graph0" class="graph" transform="scale(1 1) rotate(0) translate(4 46)">
<title>Graphical Class Hierarchy</title>
<!-- Node0 -->
<g id="node1" class="node">
<title>Node0</title>
<g id="a_node1"><a xlink:href="classCDPL_1_1Math_1_1Expression.html" target="_top" xlink:title=" ">
<polygon fill="none" stroke="black" points="0,-0.5 0,-41.5 125,-41.5 125,-0.5 0,-0.5"/>
<text text-anchor="start" x="8" y="-29.5" font-family="Helvetica" font-size="10.00">CDPL::Math::Expression</text>
<text text-anchor="start" x="8" y="-18.5" font-family="Helvetica" font-size="10.00">&lt; VectorMatrixBinary&lt;</text>
<text text-anchor="middle" x="62.5" y="-7.5" font-family="Helvetica" font-size="10.00"> E1, E2, F &gt; &gt;</text>
</a>
</g>
</g>
<!-- Node1 -->
<g id="node2" class="node">
<title>Node1</title>
<g id="a_node2"><a xlink:href="classCDPL_1_1Math_1_1MatrixExpression.html" target="_top" xlink:title=" ">
<polygon fill="none" stroke="black" points="161,-0.5 161,-41.5 313,-41.5 313,-0.5 161,-0.5"/>
<text text-anchor="start" x="169" y="-29.5" font-family="Helvetica" font-size="10.00">CDPL::Math::MatrixExpression</text>
<text text-anchor="start" x="169" y="-18.5" font-family="Helvetica" font-size="10.00">&lt; VectorMatrixBinary&lt; E1,</text>
<text text-anchor="middle" x="237" y="-7.5" font-family="Helvetica" font-size="10.00"> E2, F &gt; &gt;</text>
</a>
</g>
</g>
<!-- Node0&#45;&gt;Node1 -->
<g id="edge1" class="edge">
<title>Node0&#45;&gt;Node1</title>
<path fill="none" stroke="midnightblue" d="M135.4,-21C143.79,-21 152.36,-21 160.78,-21"/>
<polygon fill="midnightblue" stroke="midnightblue" points="135.29,-17.5 125.29,-21 135.29,-24.5 135.29,-17.5"/>
</g>
<!-- Node2 -->
<g id="node3" class="node">
<title>Node2</title>
<g id="a_node3"><a xlink:href="classCDPL_1_1Math_1_1VectorMatrixBinary.html" target="_top" xlink:title=" ">
<polygon fill="none" stroke="black" points="349,-6 349,-36 480,-36 480,-6 349,-6"/>
<text text-anchor="start" x="357" y="-24" font-family="Helvetica" font-size="10.00">CDPL::Math::VectorMatrix</text>
<text text-anchor="middle" x="414.5" y="-13" font-family="Helvetica" font-size="10.00">Binary&lt; E1, E2, F &gt;</text>
</a>
</g>
</g>
<!-- Node1&#45;&gt;Node2 -->
<g id="edge2" class="edge">
<title>Node1&#45;&gt;Node2</title>
<path fill="none" stroke="midnightblue" d="M323.29,-21C331.93,-21 340.6,-21 348.96,-21"/>
<polygon fill="midnightblue" stroke="midnightblue" points="323.19,-17.5 313.19,-21 323.19,-24.5 323.19,-17.5"/>
</g>
</g>
</svg>
