<?xml version="1.0" encoding="UTF-8" standalone="no"?>
<!DOCTYPE svg PUBLIC "-//W3C//DTD SVG 1.1//EN"
 "http://www.w3.org/Graphics/SVG/1.1/DTD/svg11.dtd">
<!-- Generated by graphviz version 2.44.0 (0)
 -->
<!-- Title: Graphical Class Hierarchy Pages: 1 -->
<svg width="760pt" height="700pt"
 viewBox="0.00 0.00 760.00 699.50" xmlns="http://www.w3.org/2000/svg" xmlns:xlink="http://www.w3.org/1999/xlink">
<g id="graph0" class="graph" transform="scale(1 1) rotate(0) translate(4 695.5)">
<title>Graphical Class Hierarchy</title>
<!-- Node1087 -->
<g id="node1" class="node">
<title>Node1087</title>
<g id="a_node1"><a xlink:href="classCDPL_1_1Util_1_1Array.html" target="_top" xlink:title=" ">
<polygon fill="none" stroke="black" points="0,-488.5 0,-529.5 110,-529.5 110,-488.5 0,-488.5"/>
<text text-anchor="start" x="8" y="-517.5" font-family="Helvetica" font-size="10.00">CDPL::Util::Array&lt;</text>
<text text-anchor="start" x="8" y="-506.5" font-family="Helvetica" font-size="10.00"> typename ValueType</text>
<text text-anchor="middle" x="55" y="-495.5" font-family="Helvetica" font-size="10.00">::SharedPointer &gt;</text>
</a>
</g>
</g>
<!-- Node1088 -->
<g id="node2" class="node">
<title>Node1088</title>
<g id="a_node2"><a xlink:href="classCDPL_1_1Util_1_1IndirectArray.html" target="_top" xlink:title="A dynamic array class for the storage of object pointers with an indirected query interface.">
<polygon fill="none" stroke="black" points="159,-373.5 159,-414.5 290,-414.5 290,-373.5 159,-373.5"/>
<text text-anchor="start" x="167" y="-402.5" font-family="Helvetica" font-size="10.00">CDPL::Util::IndirectArray</text>
<text text-anchor="start" x="167" y="-391.5" font-family="Helvetica" font-size="10.00">&lt; ValueType, PointerType,</text>
<text text-anchor="middle" x="224.5" y="-380.5" font-family="Helvetica" font-size="10.00"> NullPointerCheck &gt;</text>
</a>
</g>
</g>
<!-- Node1087&#45;&gt;Node1088 -->
<g id="edge1" class="edge">
<title>Node1087&#45;&gt;Node1088</title>
<path fill="none" stroke="midnightblue" d="M80.31,-480.96C97.25,-462.79 121.19,-439.66 146,-424 151.37,-420.61 157.18,-417.5 163.13,-414.67"/>
<polygon fill="midnightblue" stroke="midnightblue" points="77.66,-478.67 73.49,-488.42 82.82,-483.4 77.66,-478.67"/>
</g>
<!-- Node1089 -->
<g id="node3" class="node">
<title>Node1089</title>
<g id="a_node3"><a xlink:href="classCDPL_1_1Util_1_1IndirectArray.html" target="_top" xlink:title=" ">
<polygon fill="none" stroke="black" points="162,-612 162,-642 287,-642 287,-612 162,-612"/>
<text text-anchor="start" x="170" y="-630" font-family="Helvetica" font-size="10.00">CDPL::Util::IndirectArray</text>
<text text-anchor="middle" x="224.5" y="-619" font-family="Helvetica" font-size="10.00">&lt; ElectronSystem &gt;</text>
</a>
</g>
</g>
<!-- Node1087&#45;&gt;Node1089 -->
<g id="edge2" class="edge">
<title>Node1087&#45;&gt;Node1089</title>
<path fill="none" stroke="midnightblue" d="M77.4,-537.7C94.05,-558.22 118.84,-585.09 146,-602 152.12,-605.81 158.88,-609.1 165.78,-611.91"/>
<polygon fill="midnightblue" stroke="midnightblue" points="79.95,-535.29 70.99,-529.63 74.47,-539.64 79.95,-535.29"/>
</g>
<!-- Node1092 -->
<g id="node6" class="node">
<title>Node1092</title>
<g id="a_node6"><a xlink:href="classCDPL_1_1Util_1_1IndirectArray.html" target="_top" xlink:title=" ">
<polygon fill="none" stroke="black" points="162,-241 162,-271 287,-271 287,-241 162,-241"/>
<text text-anchor="start" x="170" y="-259" font-family="Helvetica" font-size="10.00">CDPL::Util::IndirectArray</text>
<text text-anchor="middle" x="224.5" y="-248" font-family="Helvetica" font-size="10.00">&lt; Fragment &gt;</text>
</a>
</g>
</g>
<!-- Node1087&#45;&gt;Node1092 -->
<g id="edge5" class="edge">
<title>Node1087&#45;&gt;Node1092</title>
<path fill="none" stroke="midnightblue" d="M63.69,-478.56C75.58,-436.26 101.81,-359.05 146,-307 158.61,-292.14 176.62,-279.94 192.1,-271.2"/>
<polygon fill="midnightblue" stroke="midnightblue" points="60.29,-477.71 61.04,-488.28 67.05,-479.55 60.29,-477.71"/>
</g>
<!-- Node1103 -->
<g id="node17" class="node">
<title>Node1103</title>
<g id="a_node17"><a xlink:href="classCDPL_1_1Util_1_1IndirectArray.html" target="_top" xlink:title=" ">
<polygon fill="none" stroke="black" points="162,-661 162,-691 287,-691 287,-661 162,-661"/>
<text text-anchor="start" x="170" y="-679" font-family="Helvetica" font-size="10.00">CDPL::Util::IndirectArray</text>
<text text-anchor="middle" x="224.5" y="-668" font-family="Helvetica" font-size="10.00">&lt; GaussianShape &gt;</text>
</a>
</g>
</g>
<!-- Node1087&#45;&gt;Node1103 -->
<g id="edge16" class="edge">
<title>Node1087&#45;&gt;Node1103</title>
<path fill="none" stroke="midnightblue" d="M67.38,-538.96C81.19,-571.4 107.52,-622.46 146,-652 150.8,-655.69 156.18,-658.81 161.8,-661.46"/>
<polygon fill="midnightblue" stroke="midnightblue" points="70.54,-537.45 63.49,-529.53 64.07,-540.11 70.54,-537.45"/>
</g>
<!-- Node1105 -->
<g id="node19" class="node">
<title>Node1105</title>
<g id="a_node19"><a xlink:href="classCDPL_1_1Util_1_1IndirectArray.html" target="_top" xlink:title=" ">
<polygon fill="none" stroke="black" points="150,-551.5 150,-592.5 299,-592.5 299,-551.5 150,-551.5"/>
<text text-anchor="start" x="158" y="-580.5" font-family="Helvetica" font-size="10.00">CDPL::Util::IndirectArray</text>
<text text-anchor="start" x="158" y="-569.5" font-family="Helvetica" font-size="10.00">&lt; MatchExpression&lt; ObjType,</text>
<text text-anchor="middle" x="224.5" y="-558.5" font-family="Helvetica" font-size="10.00"> void &gt; &gt;</text>
</a>
</g>
</g>
<!-- Node1087&#45;&gt;Node1105 -->
<g id="edge18" class="edge">
<title>Node1087&#45;&gt;Node1105</title>
<path fill="none" stroke="midnightblue" d="M119.76,-532.98C135.92,-539.06 153.15,-545.54 168.82,-551.43"/>
<polygon fill="midnightblue" stroke="midnightblue" points="120.97,-529.7 110.38,-529.45 118.51,-536.25 120.97,-529.7"/>
</g>
<!-- Node1106 -->
<g id="node23" class="node">
<title>Node1106</title>
<g id="a_node23"><a xlink:href="classCDPL_1_1Util_1_1IndirectArray.html" target="_top" xlink:title=" ">
<polygon fill="none" stroke="black" points="147,-433.5 147,-474.5 302,-474.5 302,-433.5 147,-433.5"/>
<text text-anchor="start" x="155" y="-462.5" font-family="Helvetica" font-size="10.00">CDPL::Util::IndirectArray</text>
<text text-anchor="start" x="155" y="-451.5" font-family="Helvetica" font-size="10.00">&lt; MatchExpression&lt; ObjType1,</text>
<text text-anchor="middle" x="224.5" y="-440.5" font-family="Helvetica" font-size="10.00"> void &gt; &gt;</text>
</a>
</g>
</g>
<!-- Node1087&#45;&gt;Node1106 -->
<g id="edge22" class="edge">
<title>Node1087&#45;&gt;Node1106</title>
<path fill="none" stroke="midnightblue" d="M120.01,-487.98C133.44,-483.57 147.58,-478.93 160.96,-474.54"/>
<polygon fill="midnightblue" stroke="midnightblue" points="118.79,-484.7 110.38,-491.14 120.98,-491.35 118.79,-484.7"/>
</g>
<!-- Node1090 -->
<g id="node4" class="node">
<title>Node1090</title>
<g id="a_node4"><a xlink:href="classCDPL_1_1Chem_1_1ElectronSystemList.html" target="_top" xlink:title="A data type for the storage of Chem::ElectronSystem objects.">
<polygon fill="none" stroke="black" points="345,-623.5 345,-642.5 511,-642.5 511,-623.5 345,-623.5"/>
<text text-anchor="middle" x="428" y="-630.5" font-family="Helvetica" font-size="10.00">CDPL::Chem::ElectronSystemList</text>
</a>
</g>
</g>
<!-- Node1089&#45;&gt;Node1090 -->
<g id="edge3" class="edge">
<title>Node1089&#45;&gt;Node1090</title>
<path fill="none" stroke="midnightblue" d="M297.47,-629.14C312.76,-629.6 329.02,-630.08 344.67,-630.55"/>
<polygon fill="midnightblue" stroke="midnightblue" points="297.15,-625.63 287.05,-628.83 296.94,-632.63 297.15,-625.63"/>
</g>
<!-- Node1091 -->
<g id="node5" class="node">
<title>Node1091</title>
<g id="a_node5"><a xlink:href="classCDPL_1_1Chem_1_1PiElectronSystemList.html" target="_top" xlink:title="Implements the perception of all pi electron systems present in a molecule.">
<polygon fill="none" stroke="black" points="565,-623.5 565,-642.5 740,-642.5 740,-623.5 565,-623.5"/>
<text text-anchor="middle" x="652.5" y="-630.5" font-family="Helvetica" font-size="10.00">CDPL::Chem::PiElectronSystemList</text>
</a>
</g>
</g>
<!-- Node1090&#45;&gt;Node1091 -->
<g id="edge4" class="edge">
<title>Node1090&#45;&gt;Node1091</title>
<path fill="none" stroke="midnightblue" d="M521.55,-633C535.86,-633 550.59,-633 564.77,-633"/>
<polygon fill="midnightblue" stroke="midnightblue" points="521.22,-629.5 511.22,-633 521.22,-636.5 521.22,-629.5"/>
</g>
<!-- Node1093 -->
<g id="node7" class="node">
<title>Node1093</title>
<g id="a_node7"><a xlink:href="classCDPL_1_1Chem_1_1FragmentList.html" target="_top" xlink:title="A data type for the storage of Chem::Fragment objects.">
<polygon fill="none" stroke="black" points="359,-191.5 359,-210.5 497,-210.5 497,-191.5 359,-191.5"/>
<text text-anchor="middle" x="428" y="-198.5" font-family="Helvetica" font-size="10.00">CDPL::Chem::FragmentList</text>
</a>
</g>
</g>
<!-- Node1092&#45;&gt;Node1093 -->
<g id="edge6" class="edge">
<title>Node1092&#45;&gt;Node1093</title>
<path fill="none" stroke="midnightblue" d="M290.36,-238.3C324.1,-229.09 364.02,-218.19 391.97,-210.56"/>
<polygon fill="midnightblue" stroke="midnightblue" points="289.29,-234.96 280.56,-240.97 291.13,-241.71 289.29,-234.96"/>
</g>
<!-- Node1094 -->
<g id="node8" class="node">
<title>Node1094</title>
<g id="a_node8"><a xlink:href="classCDPL_1_1Biomol_1_1ResidueList.html" target="_top" xlink:title="Implements the extraction of residues in biological macromolecules.">
<polygon fill="none" stroke="black" points="584.5,-76.5 584.5,-95.5 720.5,-95.5 720.5,-76.5 584.5,-76.5"/>
<text text-anchor="middle" x="652.5" y="-83.5" font-family="Helvetica" font-size="10.00">CDPL::Biomol::ResidueList</text>
</a>
</g>
</g>
<!-- Node1093&#45;&gt;Node1094 -->
<g id="edge7" class="edge">
<title>Node1093&#45;&gt;Node1094</title>
<path fill="none" stroke="midnightblue" d="M445.52,-183.98C467.79,-162.1 509.7,-124.58 553,-105 562.84,-100.55 573.69,-97.14 584.48,-94.53"/>
<polygon fill="midnightblue" stroke="midnightblue" points="442.82,-181.73 438.23,-191.27 447.77,-186.67 442.82,-181.73"/>
</g>
<!-- Node1095 -->
<g id="node9" class="node">
<title>Node1095</title>
<g id="a_node9"><a xlink:href="classCDPL_1_1Chem_1_1AromaticRingSet.html" target="_top" xlink:title="Implements the perception of aromatic rings in a molecular graph.">
<polygon fill="none" stroke="black" points="575,-38.5 575,-57.5 730,-57.5 730,-38.5 575,-38.5"/>
<text text-anchor="middle" x="652.5" y="-45.5" font-family="Helvetica" font-size="10.00">CDPL::Chem::AromaticRingSet</text>
</a>
</g>
</g>
<!-- Node1093&#45;&gt;Node1095 -->
<g id="edge8" class="edge">
<title>Node1093&#45;&gt;Node1095</title>
<path fill="none" stroke="midnightblue" d="M440.22,-182.79C459.41,-153.33 501.5,-95.63 553,-67 560,-63.11 567.67,-60 575.53,-57.52"/>
<polygon fill="midnightblue" stroke="midnightblue" points="437.23,-180.98 434.81,-191.29 443.13,-184.73 437.23,-180.98"/>
</g>
<!-- Node1096 -->
<g id="node10" class="node">
<title>Node1096</title>
<g id="a_node10"><a xlink:href="classCDPL_1_1Chem_1_1AromaticSSSRSubset.html" target="_top" xlink:title="Implements the extraction of the aromatic rings in the SSSR of a molecular graph.">
<polygon fill="none" stroke="black" points="563.5,-0.5 563.5,-19.5 741.5,-19.5 741.5,-0.5 563.5,-0.5"/>
<text text-anchor="middle" x="652.5" y="-7.5" font-family="Helvetica" font-size="10.00">CDPL::Chem::AromaticSSSRSubset</text>
</a>
</g>
</g>
<!-- Node1093&#45;&gt;Node1096 -->
<g id="edge9" class="edge">
<title>Node1093&#45;&gt;Node1096</title>
<path fill="none" stroke="midnightblue" d="M436.97,-181.8C453.07,-145.54 493.14,-67.23 553,-29 559.02,-25.16 565.63,-22.06 572.5,-19.56"/>
<polygon fill="midnightblue" stroke="midnightblue" points="433.65,-180.66 432.9,-191.23 440.07,-183.43 433.65,-180.66"/>
</g>
<!-- Node1097 -->
<g id="node11" class="node">
<title>Node1097</title>
<g id="a_node11"><a xlink:href="classCDPL_1_1Chem_1_1CompleteRingSet.html" target="_top" xlink:title="Implements the exhaustive perception of rings in a molecular graph.">
<polygon fill="none" stroke="black" points="573.5,-327.5 573.5,-346.5 731.5,-346.5 731.5,-327.5 573.5,-327.5"/>
<text text-anchor="middle" x="652.5" y="-334.5" font-family="Helvetica" font-size="10.00">CDPL::Chem::CompleteRingSet</text>
</a>
</g>
</g>
<!-- Node1093&#45;&gt;Node1097 -->
<g id="edge10" class="edge">
<title>Node1093&#45;&gt;Node1097</title>
<path fill="none" stroke="midnightblue" d="M467.99,-214.57C484.66,-221.87 503.37,-232.25 517,-246 542.18,-271.41 524.49,-296.38 553,-318 559.11,-322.63 566.02,-326.23 573.29,-329.02"/>
<polygon fill="midnightblue" stroke="midnightblue" points="469.04,-211.22 458.47,-210.63 466.36,-217.69 469.04,-211.22"/>
</g>
<!-- Node1098 -->
<g id="node12" class="node">
<title>Node1098</title>
<g id="a_node12"><a xlink:href="classCDPL_1_1Chem_1_1ComponentSet.html" target="_top" xlink:title="Implements the perception of molecular graph components.">
<polygon fill="none" stroke="black" points="579.5,-289.5 579.5,-308.5 725.5,-308.5 725.5,-289.5 579.5,-289.5"/>
<text text-anchor="middle" x="652.5" y="-296.5" font-family="Helvetica" font-size="10.00">CDPL::Chem::ComponentSet</text>
</a>
</g>
</g>
<!-- Node1093&#45;&gt;Node1098 -->
<g id="edge11" class="edge">
<title>Node1093&#45;&gt;Node1098</title>
<path fill="none" stroke="midnightblue" d="M461.18,-214.76C478.42,-222.78 499.61,-233.72 517,-246 534.98,-258.69 533.42,-269.96 553,-280 561.21,-284.21 570.25,-287.49 579.41,-290.05"/>
<polygon fill="midnightblue" stroke="midnightblue" points="462.62,-211.57 452.07,-210.61 459.72,-217.94 462.62,-211.57"/>
</g>
<!-- Node1099 -->
<g id="node13" class="node">
<title>Node1099</title>
<g id="a_node13"><a xlink:href="classCDPL_1_1Chem_1_1ConnectedSubstructureSet.html" target="_top" xlink:title="ConnectedSubstructureSet.">
<polygon fill="none" stroke="black" points="553,-251.5 553,-270.5 752,-270.5 752,-251.5 553,-251.5"/>
<text text-anchor="middle" x="652.5" y="-258.5" font-family="Helvetica" font-size="10.00">CDPL::Chem::ConnectedSubstructureSet</text>
</a>
</g>
</g>
<!-- Node1093&#45;&gt;Node1099 -->
<g id="edge12" class="edge">
<title>Node1093&#45;&gt;Node1099</title>
<path fill="none" stroke="midnightblue" d="M464.46,-214.08C489.06,-222.81 522.72,-234.11 553,-242 566.65,-245.56 581.52,-248.77 595.48,-251.49"/>
<polygon fill="midnightblue" stroke="midnightblue" points="465.43,-210.71 454.84,-210.62 463.07,-217.3 465.43,-210.71"/>
</g>
<!-- Node1100 -->
<g id="node14" class="node">
<title>Node1100</title>
<g id="a_node14"><a xlink:href="classCDPL_1_1Chem_1_1ExtendedSSSR.html" target="_top" xlink:title="Implements the perception of the Extended Smallest Set of Smallest Rings (ESSSR) of a molecular graph...">
<polygon fill="none" stroke="black" points="577.5,-213.5 577.5,-232.5 727.5,-232.5 727.5,-213.5 577.5,-213.5"/>
<text text-anchor="middle" x="652.5" y="-220.5" font-family="Helvetica" font-size="10.00">CDPL::Chem::ExtendedSSSR</text>
</a>
</g>
</g>
<!-- Node1093&#45;&gt;Node1100 -->
<g id="edge13" class="edge">
<title>Node1093&#45;&gt;Node1100</title>
<path fill="none" stroke="midnightblue" d="M507.52,-208.76C530.16,-211 554.79,-213.44 577.17,-215.65"/>
<polygon fill="midnightblue" stroke="midnightblue" points="507.57,-205.25 497.27,-207.75 506.88,-212.22 507.57,-205.25"/>
</g>
<!-- Node1101 -->
<g id="node15" class="node">
<title>Node1101</title>
<g id="a_node15"><a xlink:href="classCDPL_1_1Chem_1_1SmallestSetOfSmallestRings.html" target="_top" xlink:title="Implements the perception of the Smallest Set of Smallest Rings (SSSR) of a molecular graphs.">
<polygon fill="none" stroke="black" points="580,-164 580,-194 725,-194 725,-164 580,-164"/>
<text text-anchor="start" x="588" y="-182" font-family="Helvetica" font-size="10.00">CDPL::Chem::SmallestSetOf</text>
<text text-anchor="middle" x="652.5" y="-171" font-family="Helvetica" font-size="10.00">SmallestRings</text>
</a>
</g>
</g>
<!-- Node1093&#45;&gt;Node1101 -->
<g id="edge14" class="edge">
<title>Node1093&#45;&gt;Node1101</title>
<path fill="none" stroke="midnightblue" d="M507.25,-193.26C530.89,-190.93 556.71,-188.37 579.89,-186.08"/>
<polygon fill="midnightblue" stroke="midnightblue" points="506.88,-189.78 497.27,-194.25 507.57,-196.75 506.88,-189.78"/>
</g>
<!-- Node1102 -->
<g id="node16" class="node">
<title>Node1102</title>
<g id="a_node16"><a xlink:href="classCDPL_1_1ForceField_1_1MMFF94AromaticSSSRSubset.html" target="_top" xlink:title="Implements the extraction of all rings in the SSSR of a molecular graph that are aromatic according t...">
<polygon fill="none" stroke="black" points="582.5,-115 582.5,-145 722.5,-145 722.5,-115 582.5,-115"/>
<text text-anchor="start" x="590.5" y="-133" font-family="Helvetica" font-size="10.00">CDPL::ForceField::MMFF94</text>
<text text-anchor="middle" x="652.5" y="-122" font-family="Helvetica" font-size="10.00">AromaticSSSRSubset</text>
</a>
</g>
</g>
<!-- Node1093&#45;&gt;Node1102 -->
<g id="edge15" class="edge">
<title>Node1093&#45;&gt;Node1102</title>
<path fill="none" stroke="midnightblue" d="M460.85,-187.68C485.68,-177.61 521.16,-163.87 553,-154 563.26,-150.82 574.22,-147.79 584.96,-145.03"/>
<polygon fill="midnightblue" stroke="midnightblue" points="459.49,-184.46 451.56,-191.48 462.14,-190.94 459.49,-184.46"/>
</g>
<!-- Node1104 -->
<g id="node18" class="node">
<title>Node1104</title>
<g id="a_node18"><a xlink:href="classCDPL_1_1Shape_1_1GaussianShapeSet.html" target="_top" xlink:title=" ">
<polygon fill="none" stroke="black" points="344.5,-666.5 344.5,-685.5 511.5,-685.5 511.5,-666.5 344.5,-666.5"/>
<text text-anchor="middle" x="428" y="-673.5" font-family="Helvetica" font-size="10.00">CDPL::Shape::GaussianShapeSet</text>
</a>
</g>
</g>
<!-- Node1103&#45;&gt;Node1104 -->
<g id="edge17" class="edge">
<title>Node1103&#45;&gt;Node1104</title>
<path fill="none" stroke="midnightblue" d="M297.4,-676C312.59,-676 328.74,-676 344.3,-676"/>
<polygon fill="midnightblue" stroke="midnightblue" points="297.05,-672.5 287.05,-676 297.05,-679.5 297.05,-672.5"/>
</g>
<!-- Node443 -->
<g id="node20" class="node">
<title>Node443</title>
<g id="a_node20"><a xlink:href="classCDPL_1_1Chem_1_1MatchExpressionList.html" target="_top" xlink:title=" ">
<polygon fill="none" stroke="black" points="349.5,-574 349.5,-604 506.5,-604 506.5,-574 349.5,-574"/>
<text text-anchor="start" x="357.5" y="-592" font-family="Helvetica" font-size="10.00">CDPL::Chem::MatchExpression</text>
<text text-anchor="middle" x="428" y="-581" font-family="Helvetica" font-size="10.00">List&lt; ObjType, void &gt;</text>
</a>
</g>
</g>
<!-- Node1105&#45;&gt;Node443 -->
<g id="edge19" class="edge">
<title>Node1105&#45;&gt;Node443</title>
<path fill="none" stroke="midnightblue" d="M309.15,-579.06C322.41,-580.18 336.07,-581.33 349.19,-582.44"/>
<polygon fill="midnightblue" stroke="midnightblue" points="309.36,-575.56 299.1,-578.21 308.77,-582.54 309.36,-575.56"/>
</g>
<!-- Node444 -->
<g id="node21" class="node">
<title>Node444</title>
<g id="a_node21"><a xlink:href="classCDPL_1_1Chem_1_1ANDMatchExpressionList_3_01ObjType_00_01void_01_4.html" target="_top" xlink:title="ANDMatchExpressionList.">
<polygon fill="none" stroke="black" points="563,-574 563,-604 742,-604 742,-574 563,-574"/>
<text text-anchor="start" x="571" y="-592" font-family="Helvetica" font-size="10.00">CDPL::Chem::ANDMatchExpression</text>
<text text-anchor="middle" x="652.5" y="-581" font-family="Helvetica" font-size="10.00">List&lt; ObjType, void &gt;</text>
</a>
</g>
</g>
<!-- Node443&#45;&gt;Node444 -->
<g id="edge20" class="edge">
<title>Node443&#45;&gt;Node444</title>
<path fill="none" stroke="midnightblue" d="M516.86,-589C531.98,-589 547.7,-589 562.84,-589"/>
<polygon fill="midnightblue" stroke="midnightblue" points="516.51,-585.5 506.51,-589 516.51,-592.5 516.51,-585.5"/>
</g>
<!-- Node445 -->
<g id="node22" class="node">
<title>Node445</title>
<g id="a_node22"><a xlink:href="classCDPL_1_1Chem_1_1ORMatchExpressionList_3_01ObjType_00_01void_01_4.html" target="_top" xlink:title="ORMatchExpressionList.">
<polygon fill="none" stroke="black" points="566.5,-525 566.5,-555 738.5,-555 738.5,-525 566.5,-525"/>
<text text-anchor="start" x="574.5" y="-543" font-family="Helvetica" font-size="10.00">CDPL::Chem::ORMatchExpression</text>
<text text-anchor="middle" x="652.5" y="-532" font-family="Helvetica" font-size="10.00">List&lt; ObjType, void &gt;</text>
</a>
</g>
</g>
<!-- Node443&#45;&gt;Node445 -->
<g id="edge21" class="edge">
<title>Node443&#45;&gt;Node445</title>
<path fill="none" stroke="midnightblue" d="M507.04,-571.81C531.92,-566.34 559.24,-560.32 583.36,-555.01"/>
<polygon fill="midnightblue" stroke="midnightblue" points="506.28,-568.4 497.27,-573.97 507.79,-575.23 506.28,-568.4"/>
</g>
<!-- Node1 -->
<g id="node24" class="node">
<title>Node1</title>
<g id="a_node24"><a xlink:href="classCDPL_1_1Chem_1_1MatchExpressionList.html" target="_top" xlink:title="A container for the storage and evaluation of logical match expression lists.">
<polygon fill="none" stroke="black" points="349.5,-415 349.5,-445 506.5,-445 506.5,-415 349.5,-415"/>
<text text-anchor="start" x="357.5" y="-433" font-family="Helvetica" font-size="10.00">CDPL::Chem::MatchExpression</text>
<text text-anchor="middle" x="428" y="-422" font-family="Helvetica" font-size="10.00">List&lt; ObjType1, ObjType2 &gt;</text>
</a>
</g>
</g>
<!-- Node1106&#45;&gt;Node1 -->
<g id="edge23" class="edge">
<title>Node1106&#45;&gt;Node1</title>
<path fill="none" stroke="midnightblue" d="M312.5,-443.64C324.79,-442.17 337.36,-440.68 349.46,-439.24"/>
<polygon fill="midnightblue" stroke="midnightblue" points="311.77,-440.2 302.25,-444.86 312.6,-447.15 311.77,-440.2"/>
</g>
<!-- Node4 -->
<g id="node25" class="node">
<title>Node4</title>
<g id="a_node25"><a xlink:href="classCDPL_1_1Chem_1_1MatchExpressionList.html" target="_top" xlink:title=" ">
<polygon fill="none" stroke="black" points="349.5,-366 349.5,-396 506.5,-396 506.5,-366 349.5,-366"/>
<text text-anchor="start" x="357.5" y="-384" font-family="Helvetica" font-size="10.00">CDPL::Chem::MatchExpression</text>
<text text-anchor="middle" x="428" y="-373" font-family="Helvetica" font-size="10.00">List&lt; ObjType1, void &gt;</text>
</a>
</g>
</g>
<!-- Node1106&#45;&gt;Node4 -->
<g id="edge24" class="edge">
<title>Node1106&#45;&gt;Node4</title>
<path fill="none" stroke="midnightblue" d="M289.7,-429.69C294.22,-427.81 298.69,-425.91 303,-424 319.36,-416.76 322.32,-412.47 339,-406 348.33,-402.38 358.39,-399.03 368.27,-396.03"/>
<polygon fill="midnightblue" stroke="midnightblue" points="288.32,-426.48 280.38,-433.5 290.97,-432.96 288.32,-426.48"/>
</g>
<!-- Node5 -->
<g id="node26" class="node">
<title>Node5</title>
<g id="a_node26"><a xlink:href="classCDPL_1_1Chem_1_1ANDMatchExpressionList.html" target="_top" xlink:title="ANDMatchExpressionList.">
<polygon fill="none" stroke="black" points="563,-415 563,-445 742,-445 742,-415 563,-415"/>
<text text-anchor="start" x="571" y="-433" font-family="Helvetica" font-size="10.00">CDPL::Chem::ANDMatchExpression</text>
<text text-anchor="middle" x="652.5" y="-422" font-family="Helvetica" font-size="10.00">List&lt; ObjType1, ObjType2 &gt;</text>
</a>
</g>
</g>
<!-- Node4&#45;&gt;Node5 -->
<g id="edge25" class="edge">
<title>Node4&#45;&gt;Node5</title>
<path fill="none" stroke="midnightblue" d="M507.04,-398.19C531.92,-403.66 559.24,-409.68 583.36,-414.99"/>
<polygon fill="midnightblue" stroke="midnightblue" points="507.79,-394.77 497.27,-396.03 506.28,-401.6 507.79,-394.77"/>
</g>
<!-- Node6 -->
<g id="node27" class="node">
<title>Node6</title>
<g id="a_node27"><a xlink:href="classCDPL_1_1Chem_1_1ORMatchExpressionList.html" target="_top" xlink:title="ORMatchExpressionList.">
<polygon fill="none" stroke="black" points="566.5,-366 566.5,-396 738.5,-396 738.5,-366 566.5,-366"/>
<text text-anchor="start" x="574.5" y="-384" font-family="Helvetica" font-size="10.00">CDPL::Chem::ORMatchExpression</text>
<text text-anchor="middle" x="652.5" y="-373" font-family="Helvetica" font-size="10.00">List&lt; ObjType1, ObjType2 &gt;</text>
</a>
</g>
</g>
<!-- Node4&#45;&gt;Node6 -->
<g id="edge26" class="edge">
<title>Node4&#45;&gt;Node6</title>
<path fill="none" stroke="midnightblue" d="M516.59,-381C532.94,-381 550.01,-381 566.3,-381"/>
<polygon fill="midnightblue" stroke="midnightblue" points="516.51,-377.5 506.51,-381 516.51,-384.5 516.51,-377.5"/>
</g>
<!-- Node440 -->
<g id="node28" class="node">
<title>Node440</title>
<g id="a_node28"><a xlink:href="classCDPL_1_1Chem_1_1MatchExpression_3_01ObjType_00_01void_01_4.html" target="_top" xlink:title="A generic boolean expression interface for the implementation of query/target object equivalence test...">
<polygon fill="none" stroke="black" points="146,-502 146,-532 303,-532 303,-502 146,-502"/>
<text text-anchor="start" x="154" y="-520" font-family="Helvetica" font-size="10.00">CDPL::Chem::MatchExpression</text>
<text text-anchor="middle" x="224.5" y="-509" font-family="Helvetica" font-size="10.00">&lt; ObjType, void &gt;</text>
</a>
</g>
</g>
<!-- Node440&#45;&gt;Node443 -->
<g id="edge29" class="edge">
<title>Node440&#45;&gt;Node443</title>
<path fill="none" stroke="midnightblue" d="M287.45,-535.52C292.77,-537.55 298.02,-539.71 303,-542 320.04,-549.82 321.82,-556.48 339,-564 347.44,-567.69 356.57,-571 365.65,-573.9"/>
<polygon fill="midnightblue" stroke="midnightblue" points="288.43,-532.15 277.84,-532.01 286.04,-538.73 288.43,-532.15"/>
</g>
<!-- Node441 -->
<g id="node29" class="node">
<title>Node441</title>
<g id="a_node29"><a xlink:href="classCDPL_1_1Chem_1_1NOTMatchExpression_3_01ObjType_00_01void_01_4.html" target="_top" xlink:title="NOTMatchExpression.">
<polygon fill="none" stroke="black" points="339,-464 339,-494 517,-494 517,-464 339,-464"/>
<text text-anchor="start" x="347" y="-482" font-family="Helvetica" font-size="10.00">CDPL::Chem::NOTMatchExpression</text>
<text text-anchor="middle" x="428" y="-471" font-family="Helvetica" font-size="10.00">&lt; ObjType, void &gt;</text>
</a>
</g>
</g>
<!-- Node440&#45;&gt;Node441 -->
<g id="edge27" class="edge">
<title>Node440&#45;&gt;Node441</title>
<path fill="none" stroke="midnightblue" d="M313.08,-500.48C324.5,-498.33 336.15,-496.13 347.42,-494.01"/>
<polygon fill="midnightblue" stroke="midnightblue" points="312.3,-497.07 303.12,-502.36 313.59,-503.95 312.3,-497.07"/>
</g>
<!-- Node442 -->
<g id="node30" class="node">
<title>Node442</title>
<g id="a_node30"><a xlink:href="classCDPL_1_1Chem_1_1PropertyMatchExpression_3_01ValueType_00_01MatchFunc_00_01ObjType_00_01void_01_4.html" target="_top" xlink:title="PropertyMatchExpression.">
<polygon fill="none" stroke="black" points="355,-513.5 355,-554.5 501,-554.5 501,-513.5 355,-513.5"/>
<text text-anchor="start" x="363" y="-542.5" font-family="Helvetica" font-size="10.00">CDPL::Chem::PropertyMatch</text>
<text text-anchor="start" x="363" y="-531.5" font-family="Helvetica" font-size="10.00">Expression&lt; ValueType,</text>
<text text-anchor="middle" x="428" y="-520.5" font-family="Helvetica" font-size="10.00"> MatchFunc, ObjType, void &gt;</text>
</a>
</g>
</g>
<!-- Node440&#45;&gt;Node442 -->
<g id="edge28" class="edge">
<title>Node440&#45;&gt;Node442</title>
<path fill="none" stroke="midnightblue" d="M313.15,-524.39C327.02,-525.57 341.24,-526.76 354.71,-527.9"/>
<polygon fill="midnightblue" stroke="midnightblue" points="313.38,-520.9 303.12,-523.55 312.79,-527.88 313.38,-520.9"/>
</g>
<!-- Node0 -->
<g id="node31" class="node">
<title>Node0</title>
<g id="a_node31"><a xlink:href="classCDPL_1_1Chem_1_1MatchExpression.html" target="_top" xlink:title=" ">
<polygon fill="none" stroke="black" points="146,-317 146,-347 303,-347 303,-317 146,-317"/>
<text text-anchor="start" x="154" y="-335" font-family="Helvetica" font-size="10.00">CDPL::Chem::MatchExpression</text>
<text text-anchor="middle" x="224.5" y="-324" font-family="Helvetica" font-size="10.00">&lt; ObjType1, void &gt;</text>
</a>
</g>
</g>
<!-- Node0&#45;&gt;Node1 -->
<g id="edge30" class="edge">
<title>Node0&#45;&gt;Node1</title>
<path fill="none" stroke="midnightblue" d="M281.34,-351.29C288.93,-354.97 296.38,-359.2 303,-364 322.91,-378.42 318.23,-392.85 339,-406 344.49,-409.47 350.47,-412.45 356.66,-415"/>
<polygon fill="midnightblue" stroke="midnightblue" points="282.61,-348.02 272.06,-347.06 279.71,-354.39 282.61,-348.02"/>
</g>
<!-- Node0&#45;&gt;Node4 -->
<g id="edge33" class="edge">
<title>Node0&#45;&gt;Node4</title>
<path fill="none" stroke="midnightblue" d="M297.07,-349.4C319.36,-354.82 343.74,-360.75 365.29,-365.99"/>
<polygon fill="midnightblue" stroke="midnightblue" points="297.87,-346 287.33,-347.03 296.22,-352.8 297.87,-346"/>
</g>
<!-- Node2 -->
<g id="node32" class="node">
<title>Node2</title>
<g id="a_node32"><a xlink:href="classCDPL_1_1Chem_1_1NOTMatchExpression.html" target="_top" xlink:title="NOTMatchExpression.">
<polygon fill="none" stroke="black" points="339,-256 339,-286 517,-286 517,-256 339,-256"/>
<text text-anchor="start" x="347" y="-274" font-family="Helvetica" font-size="10.00">CDPL::Chem::NOTMatchExpression</text>
<text text-anchor="middle" x="428" y="-263" font-family="Helvetica" font-size="10.00">&lt; ObjType1, ObjType2 &gt;</text>
</a>
</g>
</g>
<!-- Node0&#45;&gt;Node2 -->
<g id="edge31" class="edge">
<title>Node0&#45;&gt;Node2</title>
<path fill="none" stroke="midnightblue" d="M281.43,-313.89C299.74,-308.06 320.2,-301.65 339,-296 349.95,-292.71 361.7,-289.29 372.94,-286.08"/>
<polygon fill="midnightblue" stroke="midnightblue" points="280.25,-310.59 271.79,-316.97 282.38,-317.26 280.25,-310.59"/>
</g>
<!-- Node3 -->
<g id="node33" class="node">
<title>Node3</title>
<g id="a_node33"><a xlink:href="classCDPL_1_1Chem_1_1PropertyMatchExpression.html" target="_top" xlink:title="PropertyMatchExpression.">
<polygon fill="none" stroke="black" points="342,-305.5 342,-346.5 514,-346.5 514,-305.5 342,-305.5"/>
<text text-anchor="start" x="350" y="-334.5" font-family="Helvetica" font-size="10.00">CDPL::Chem::PropertyMatch</text>
<text text-anchor="start" x="350" y="-323.5" font-family="Helvetica" font-size="10.00">Expression&lt; ValueType,</text>
<text text-anchor="middle" x="428" y="-312.5" font-family="Helvetica" font-size="10.00"> MatchFunc, ObjType1, ObjType2 &gt;</text>
</a>
</g>
</g>
<!-- Node0&#45;&gt;Node3 -->
<g id="edge32" class="edge">
<title>Node0&#45;&gt;Node3</title>
<path fill="none" stroke="midnightblue" d="M313.28,-329.39C322.72,-329.11 332.31,-328.82 341.72,-328.54"/>
<polygon fill="midnightblue" stroke="midnightblue" points="313.01,-325.89 303.12,-329.69 313.22,-332.89 313.01,-325.89"/>
</g>
</g>
</svg>
