<?xml version="1.0" encoding="UTF-8" standalone="no"?>
<!DOCTYPE svg PUBLIC "-//W3C//DTD SVG 1.1//EN"
 "http://www.w3.org/Graphics/SVG/1.1/DTD/svg11.dtd">
<!-- Generated by graphviz version 2.44.0 (0)
 -->
<!-- Title: Graphical Class Hierarchy Pages: 1 -->
<svg width="273pt" height="78pt"
 viewBox="0.00 0.00 273.00 77.50" xmlns="http://www.w3.org/2000/svg" xmlns:xlink="http://www.w3.org/1999/xlink">
<g id="graph0" class="graph" transform="scale(1 1) rotate(0) translate(4 73.5)">
<title>Graphical Class Hierarchy</title>
<!-- Node600 -->
<g id="node1" class="node">
<title>Node600</title>
<g id="a_node1"><a xlink:title=" ">
<polygon fill="none" stroke="#bfbfbf" points="0,-28 0,-47 92,-47 92,-28 0,-28"/>
<text text-anchor="middle" x="46" y="-35" font-family="Helvetica" font-size="10.00">std::is_arithmetic</text>
</a>
</g>
</g>
<!-- Node0 -->
<g id="node2" class="node">
<title>Node0</title>
<g id="a_node2"><a xlink:href="structCDPL_1_1Math_1_1IsScalar.html" target="_top" xlink:title=" ">
<polygon fill="none" stroke="black" points="128,-50 128,-69 265,-69 265,-50 128,-50"/>
<text text-anchor="middle" x="196.5" y="-57" font-family="Helvetica" font-size="10.00">CDPL::Math::IsScalar&lt; T &gt;</text>
</a>
</g>
</g>
<!-- Node600&#45;&gt;Node0 -->
<g id="edge1" class="edge">
<title>Node600&#45;&gt;Node0</title>
<path fill="none" stroke="midnightblue" d="M102.38,-45.7C111.8,-47.1 121.66,-48.56 131.28,-49.99"/>
<polygon fill="midnightblue" stroke="midnightblue" points="102.77,-42.22 92.36,-44.22 101.74,-49.15 102.77,-42.22"/>
</g>
<!-- Node602 -->
<g id="node3" class="node">
<title>Node602</title>
<g id="a_node3"><a xlink:href="structCDPL_1_1Math_1_1IsScalar_3_01std_1_1complex_3_01T_01_4_01_4.html" target="_top" xlink:title=" ">
<polygon fill="none" stroke="black" points="139,-0.5 139,-30.5 254,-30.5 254,-0.5 139,-0.5"/>
<text text-anchor="start" x="147" y="-18.5" font-family="Helvetica" font-size="10.00">CDPL::Math::IsScalar</text>
<text text-anchor="middle" x="196.5" y="-7.5" font-family="Helvetica" font-size="10.00">&lt; std::complex&lt; T &gt; &gt;</text>
</a>
</g>
</g>
<!-- Node600&#45;&gt;Node602 -->
<g id="edge2" class="edge">
<title>Node600&#45;&gt;Node602</title>
<path fill="none" stroke="midnightblue" d="M102.57,-29.27C114.43,-27.51 126.97,-25.65 138.87,-23.89"/>
<polygon fill="midnightblue" stroke="midnightblue" points="101.74,-25.85 92.36,-30.78 102.77,-32.78 101.74,-25.85"/>
</g>
</g>
</svg>
