<?xml version="1.0" encoding="UTF-8" standalone="no"?>
<!DOCTYPE svg PUBLIC "-//W3C//DTD SVG 1.1//EN"
 "http://www.w3.org/Graphics/SVG/1.1/DTD/svg11.dtd">
<!-- Generated by graphviz version 2.44.0 (0)
 -->
<!-- Title: Graphical Class Hierarchy Pages: 1 -->
<svg width="527pt" height="382pt"
 viewBox="0.00 0.00 527.00 381.50" xmlns="http://www.w3.org/2000/svg" xmlns:xlink="http://www.w3.org/1999/xlink">
<g id="graph0" class="graph" transform="scale(1 1) rotate(0) translate(4 377.5)">
<title>Graphical Class Hierarchy</title>
<!-- Node1125 -->
<g id="node1" class="node">
<title>Node1125</title>
<g id="a_node1"><a xlink:title=" ">
<polygon fill="none" stroke="#bfbfbf" points="0,-285.5 0,-304.5 126,-304.5 126,-285.5 0,-285.5"/>
<text text-anchor="middle" x="63" y="-292.5" font-family="Helvetica" font-size="10.00">VectorArray&lt; Vector2D &gt;</text>
</a>
</g>
</g>
<!-- Node1126 -->
<g id="node2" class="node">
<title>Node1126</title>
<g id="a_node2"><a xlink:href="classCDPL_1_1Vis_1_1PointArray2D.html" target="_top" xlink:title="Stores a set of points in 2D space.">
<polygon fill="none" stroke="black" points="177,-285.5 177,-304.5 305,-304.5 305,-285.5 177,-285.5"/>
<text text-anchor="middle" x="241" y="-292.5" font-family="Helvetica" font-size="10.00">CDPL::Vis::PointArray2D</text>
</a>
</g>
</g>
<!-- Node1125&#45;&gt;Node1126 -->
<g id="edge1" class="edge">
<title>Node1125&#45;&gt;Node1126</title>
<path fill="none" stroke="midnightblue" d="M136.2,-295C149.64,-295 163.58,-295 176.73,-295"/>
<polygon fill="midnightblue" stroke="midnightblue" points="136.05,-291.5 126.05,-295 136.05,-298.5 136.05,-291.5"/>
</g>
<!-- Node540 -->
<g id="node3" class="node">
<title>Node540</title>
<g id="a_node3"><a xlink:href="classCDPL_1_1Vis_1_1LineSegmentListPrimitive2D.html" target="_top" xlink:title="A graphics primitive representing a list of disjoint line segments.">
<polygon fill="none" stroke="black" points="366.5,-343 366.5,-373 508.5,-373 508.5,-343 366.5,-343"/>
<text text-anchor="start" x="374.5" y="-361" font-family="Helvetica" font-size="10.00">CDPL::Vis::LineSegmentList</text>
<text text-anchor="middle" x="437.5" y="-350" font-family="Helvetica" font-size="10.00">Primitive2D</text>
</a>
</g>
</g>
<!-- Node1126&#45;&gt;Node540 -->
<g id="edge2" class="edge">
<title>Node1126&#45;&gt;Node540</title>
<path fill="none" stroke="midnightblue" d="M279.76,-307.8C301.93,-315.27 330.51,-324.8 356,-333 366.17,-336.27 377.08,-339.71 387.49,-342.96"/>
<polygon fill="midnightblue" stroke="midnightblue" points="280.65,-304.41 270.06,-304.53 278.41,-311.04 280.65,-304.41"/>
</g>
<!-- Node541 -->
<g id="node4" class="node">
<title>Node541</title>
<g id="a_node4"><a xlink:href="classCDPL_1_1Vis_1_1PointListPrimitive2D.html" target="_top" xlink:title="A graphics primitive representing a list of points.">
<polygon fill="none" stroke="black" points="358.5,-304.5 358.5,-323.5 516.5,-323.5 516.5,-304.5 358.5,-304.5"/>
<text text-anchor="middle" x="437.5" y="-311.5" font-family="Helvetica" font-size="10.00">CDPL::Vis::PointListPrimitive2D</text>
</a>
</g>
</g>
<!-- Node1126&#45;&gt;Node541 -->
<g id="edge3" class="edge">
<title>Node1126&#45;&gt;Node541</title>
<path fill="none" stroke="midnightblue" d="M315.26,-302.16C329.34,-303.53 344.13,-304.98 358.36,-306.37"/>
<polygon fill="midnightblue" stroke="midnightblue" points="315.44,-298.66 305.15,-301.17 314.76,-305.62 315.44,-298.66"/>
</g>
<!-- Node542 -->
<g id="node5" class="node">
<title>Node542</title>
<g id="a_node5"><a xlink:href="classCDPL_1_1Vis_1_1PolygonPrimitive2D.html" target="_top" xlink:title="A graphics primitive representing a polygon.">
<polygon fill="none" stroke="black" points="360.5,-266.5 360.5,-285.5 514.5,-285.5 514.5,-266.5 360.5,-266.5"/>
<text text-anchor="middle" x="437.5" y="-273.5" font-family="Helvetica" font-size="10.00">CDPL::Vis::PolygonPrimitive2D</text>
</a>
</g>
</g>
<!-- Node1126&#45;&gt;Node542 -->
<g id="edge4" class="edge">
<title>Node1126&#45;&gt;Node542</title>
<path fill="none" stroke="midnightblue" d="M315.23,-287.85C330,-286.4 345.57,-284.88 360.43,-283.43"/>
<polygon fill="midnightblue" stroke="midnightblue" points="314.76,-284.38 305.15,-288.83 315.44,-291.34 314.76,-284.38"/>
</g>
<!-- Node543 -->
<g id="node6" class="node">
<title>Node543</title>
<g id="a_node6"><a xlink:href="classCDPL_1_1Vis_1_1PolylinePrimitive2D.html" target="_top" xlink:title="A graphics primitive representing a set of connected line segments.">
<polygon fill="none" stroke="black" points="360.5,-228.5 360.5,-247.5 514.5,-247.5 514.5,-228.5 360.5,-228.5"/>
<text text-anchor="middle" x="437.5" y="-235.5" font-family="Helvetica" font-size="10.00">CDPL::Vis::PolylinePrimitive2D</text>
</a>
</g>
</g>
<!-- Node1126&#45;&gt;Node543 -->
<g id="edge5" class="edge">
<title>Node1126&#45;&gt;Node543</title>
<path fill="none" stroke="midnightblue" d="M278.22,-282C300.5,-274.24 329.72,-264.46 356,-257 367.88,-253.63 380.86,-250.37 392.87,-247.54"/>
<polygon fill="midnightblue" stroke="midnightblue" points="276.78,-278.79 268.51,-285.41 279.1,-285.4 276.78,-278.79"/>
</g>
<!-- Node538 -->
<g id="node7" class="node">
<title>Node538</title>
<g id="a_node7"><a xlink:href="classCDPL_1_1Vis_1_1GraphicsPrimitive2D.html" target="_top" xlink:title="The abstract base class of all 2D graphics primitives.">
<polygon fill="none" stroke="black" points="162,-171.5 162,-190.5 320,-190.5 320,-171.5 162,-171.5"/>
<text text-anchor="middle" x="241" y="-178.5" font-family="Helvetica" font-size="10.00">CDPL::Vis::GraphicsPrimitive2D</text>
</a>
</g>
</g>
<!-- Node538&#45;&gt;Node540 -->
<g id="edge9" class="edge">
<title>Node538&#45;&gt;Node540</title>
<path fill="none" stroke="midnightblue" d="M257.33,-198.33C273.57,-216.98 299.63,-247.79 320,-276 337.54,-300.29 332.23,-314.76 356,-333 360.99,-336.83 366.58,-340.08 372.42,-342.83"/>
<polygon fill="midnightblue" stroke="midnightblue" points="259.84,-195.88 250.62,-190.66 254.57,-200.49 259.84,-195.88"/>
</g>
<!-- Node538&#45;&gt;Node541 -->
<g id="edge11" class="edge">
<title>Node538&#45;&gt;Node541</title>
<path fill="none" stroke="midnightblue" d="M254.85,-199.11C273.93,-224.58 312.24,-270.6 356,-295 363.02,-298.92 370.83,-302.03 378.73,-304.5"/>
<polygon fill="midnightblue" stroke="midnightblue" points="257.45,-196.73 248.72,-190.73 251.8,-200.87 257.45,-196.73"/>
</g>
<!-- Node538&#45;&gt;Node542 -->
<g id="edge12" class="edge">
<title>Node538&#45;&gt;Node542</title>
<path fill="none" stroke="midnightblue" d="M261.29,-197.03C283.01,-214.28 319.98,-241.35 356,-257 364.82,-260.83 374.54,-263.96 384.08,-266.49"/>
<polygon fill="midnightblue" stroke="midnightblue" points="263.47,-194.28 253.49,-190.72 259.07,-199.73 263.47,-194.28"/>
</g>
<!-- Node538&#45;&gt;Node543 -->
<g id="edge13" class="edge">
<title>Node538&#45;&gt;Node543</title>
<path fill="none" stroke="midnightblue" d="M278.22,-194C300.5,-201.76 329.72,-211.54 356,-219 367.88,-222.37 380.86,-225.63 392.87,-228.46"/>
<polygon fill="midnightblue" stroke="midnightblue" points="279.1,-190.6 268.51,-190.59 276.78,-197.21 279.1,-190.6"/>
</g>
<!-- Node1 -->
<g id="node8" class="node">
<title>Node1</title>
<g id="a_node8"><a xlink:href="classCDPL_1_1Vis_1_1ClipPathPrimitive2D.html" target="_top" xlink:title="A graphics primitive representing a clipping region in 2D space.">
<polygon fill="none" stroke="black" points="359,-76.5 359,-95.5 516,-95.5 516,-76.5 359,-76.5"/>
<text text-anchor="middle" x="437.5" y="-83.5" font-family="Helvetica" font-size="10.00">CDPL::Vis::ClipPathPrimitive2D</text>
</a>
</g>
</g>
<!-- Node538&#45;&gt;Node1 -->
<g id="edge6" class="edge">
<title>Node538&#45;&gt;Node1</title>
<path fill="none" stroke="midnightblue" d="M261.29,-164.97C283.01,-147.72 319.98,-120.65 356,-105 364.82,-101.17 374.54,-98.04 384.08,-95.51"/>
<polygon fill="midnightblue" stroke="midnightblue" points="259.07,-162.27 253.49,-171.28 263.47,-167.72 259.07,-162.27"/>
</g>
<!-- Node539 -->
<g id="node9" class="node">
<title>Node539</title>
<g id="a_node9"><a xlink:href="classCDPL_1_1Vis_1_1EllipsePrimitive2D.html" target="_top" xlink:title="A graphics primitive representing a ellipse.">
<polygon fill="none" stroke="black" points="363,-190.5 363,-209.5 512,-209.5 512,-190.5 363,-190.5"/>
<text text-anchor="middle" x="437.5" y="-197.5" font-family="Helvetica" font-size="10.00">CDPL::Vis::EllipsePrimitive2D</text>
</a>
</g>
</g>
<!-- Node538&#45;&gt;Node539 -->
<g id="edge7" class="edge">
<title>Node538&#45;&gt;Node539</title>
<path fill="none" stroke="midnightblue" d="M330.55,-189.65C341.34,-190.7 352.27,-191.77 362.8,-192.8"/>
<polygon fill="midnightblue" stroke="midnightblue" points="330.56,-186.13 320.27,-188.65 329.88,-193.1 330.56,-186.13"/>
</g>
<!-- Node476 -->
<g id="node10" class="node">
<title>Node476</title>
<g id="a_node10"><a xlink:href="classCDPL_1_1Vis_1_1LinePrimitive2D.html" target="_top" xlink:title="A graphics primitive representing a single line.">
<polygon fill="none" stroke="black" points="369,-0.5 369,-19.5 506,-19.5 506,-0.5 369,-0.5"/>
<text text-anchor="middle" x="437.5" y="-7.5" font-family="Helvetica" font-size="10.00">CDPL::Vis::LinePrimitive2D</text>
</a>
</g>
</g>
<!-- Node538&#45;&gt;Node476 -->
<g id="edge8" class="edge">
<title>Node538&#45;&gt;Node476</title>
<path fill="none" stroke="midnightblue" d="M257.33,-163.67C273.57,-145.02 299.63,-114.21 320,-86 337.54,-61.71 331.61,-46.4 356,-29 361.38,-25.16 367.42,-22.09 373.72,-19.64"/>
<polygon fill="midnightblue" stroke="midnightblue" points="254.57,-161.51 250.62,-171.34 259.84,-166.12 254.57,-161.51"/>
</g>
<!-- Node2 -->
<g id="node11" class="node">
<title>Node2</title>
<g id="a_node11"><a xlink:href="classCDPL_1_1Vis_1_1PathPrimitive2D.html" target="_top" xlink:title="A graphics primitive representing an arbitrary path in 2D space.">
<polygon fill="none" stroke="black" points="367.5,-38.5 367.5,-57.5 507.5,-57.5 507.5,-38.5 367.5,-38.5"/>
<text text-anchor="middle" x="437.5" y="-45.5" font-family="Helvetica" font-size="10.00">CDPL::Vis::PathPrimitive2D</text>
</a>
</g>
</g>
<!-- Node538&#45;&gt;Node2 -->
<g id="edge10" class="edge">
<title>Node538&#45;&gt;Node2</title>
<path fill="none" stroke="midnightblue" d="M254.85,-162.89C273.93,-137.42 312.24,-91.4 356,-67 363.02,-63.08 370.83,-59.97 378.73,-57.5"/>
<polygon fill="midnightblue" stroke="midnightblue" points="251.8,-161.13 248.72,-171.27 257.45,-165.27 251.8,-161.13"/>
</g>
<!-- Node544 -->
<g id="node12" class="node">
<title>Node544</title>
<g id="a_node12"><a xlink:href="classCDPL_1_1Vis_1_1TextBlockPrimitive2D.html" target="_top" xlink:title="A graphics primitive representing a block of styled text.">
<polygon fill="none" stroke="black" points="356,-152.5 356,-171.5 519,-171.5 519,-152.5 356,-152.5"/>
<text text-anchor="middle" x="437.5" y="-159.5" font-family="Helvetica" font-size="10.00">CDPL::Vis::TextBlockPrimitive2D</text>
</a>
</g>
</g>
<!-- Node538&#45;&gt;Node544 -->
<g id="edge14" class="edge">
<title>Node538&#45;&gt;Node544</title>
<path fill="none" stroke="midnightblue" d="M330.23,-172.38C338.77,-171.55 347.4,-170.7 355.85,-169.88"/>
<polygon fill="midnightblue" stroke="midnightblue" points="329.88,-168.9 320.27,-173.35 330.56,-175.87 329.88,-168.9"/>
</g>
<!-- Node545 -->
<g id="node13" class="node">
<title>Node545</title>
<g id="a_node13"><a xlink:href="classCDPL_1_1Vis_1_1TextLabelPrimitive2D.html" target="_top" xlink:title="A graphics primitive representing a text label.">
<polygon fill="none" stroke="black" points="357,-114.5 357,-133.5 518,-133.5 518,-114.5 357,-114.5"/>
<text text-anchor="middle" x="437.5" y="-121.5" font-family="Helvetica" font-size="10.00">CDPL::Vis::TextLabelPrimitive2D</text>
</a>
</g>
</g>
<!-- Node538&#45;&gt;Node545 -->
<g id="edge15" class="edge">
<title>Node538&#45;&gt;Node545</title>
<path fill="none" stroke="midnightblue" d="M278.22,-168C300.5,-160.24 329.72,-150.46 356,-143 367.88,-139.63 380.86,-136.37 392.87,-133.54"/>
<polygon fill="midnightblue" stroke="midnightblue" points="276.78,-164.79 268.51,-171.41 279.1,-171.4 276.78,-164.79"/>
</g>
<!-- Node475 -->
<g id="node14" class="node">
<title>Node475</title>
<g id="a_node14"><a xlink:href="classCDPL_1_1Vis_1_1Line2D.html" target="_top" xlink:title="Specifies a line segment in 2D space.">
<polygon fill="none" stroke="black" points="191,-0.5 191,-19.5 291,-19.5 291,-0.5 191,-0.5"/>
<text text-anchor="middle" x="241" y="-7.5" font-family="Helvetica" font-size="10.00">CDPL::Vis::Line2D</text>
</a>
</g>
</g>
<!-- Node475&#45;&gt;Node476 -->
<g id="edge16" class="edge">
<title>Node475&#45;&gt;Node476</title>
<path fill="none" stroke="midnightblue" d="M301.28,-10C322.57,-10 346.74,-10 368.7,-10"/>
<polygon fill="midnightblue" stroke="midnightblue" points="301.08,-6.5 291.08,-10 301.08,-13.5 301.08,-6.5"/>
</g>
<!-- Node0 -->
<g id="node15" class="node">
<title>Node0</title>
<g id="a_node15"><a xlink:href="classCDPL_1_1Vis_1_1Path2D.html" target="_top" xlink:title="Provides a container for painting operations, enabling arbitrary graphical shapes to be constructed a...">
<polygon fill="none" stroke="black" points="190,-57.5 190,-76.5 292,-76.5 292,-57.5 190,-57.5"/>
<text text-anchor="middle" x="241" y="-64.5" font-family="Helvetica" font-size="10.00">CDPL::Vis::Path2D</text>
</a>
</g>
</g>
<!-- Node0&#45;&gt;Node1 -->
<g id="edge17" class="edge">
<title>Node0&#45;&gt;Node1</title>
<path fill="none" stroke="midnightblue" d="M302.33,-72.89C320.14,-74.63 339.89,-76.56 358.64,-78.39"/>
<polygon fill="midnightblue" stroke="midnightblue" points="302.38,-69.38 292.09,-71.89 301.7,-76.35 302.38,-69.38"/>
</g>
<!-- Node0&#45;&gt;Node2 -->
<g id="edge18" class="edge">
<title>Node0&#45;&gt;Node2</title>
<path fill="none" stroke="midnightblue" d="M302.26,-61.11C322.81,-59.11 345.95,-56.85 367.16,-54.77"/>
<polygon fill="midnightblue" stroke="midnightblue" points="301.7,-57.65 292.09,-62.11 302.38,-64.62 301.7,-57.65"/>
</g>
</g>
</svg>
