<?xml version="1.0" encoding="UTF-8" standalone="no"?>
<!DOCTYPE svg PUBLIC "-//W3C//DTD SVG 1.1//EN"
 "http://www.w3.org/Graphics/SVG/1.1/DTD/svg11.dtd">
<!-- Generated by graphviz version 2.40.1 (0)
 -->
<!-- Title: Graphical Class Hierarchy Pages: 1 -->
<svg width="402pt" height="186pt"
 viewBox="0.00 0.00 402.00 186.00" xmlns="http://www.w3.org/2000/svg" xmlns:xlink="http://www.w3.org/1999/xlink">
<g id="graph0" class="graph" transform="scale(1 1) rotate(0) translate(4 182)">
<title>Graphical Class Hierarchy</title>
<!-- Node0 -->
<g id="node1" class="node">
<title>Node0</title>
<g id="a_node1"><a xlink:href="classCDPL_1_1Chem_1_1MatchExpression.html" target="_top" xlink:title=" ">
<polygon fill="none" stroke="#000000" points="0,-73.5 0,-103.5 165,-103.5 165,-73.5 0,-73.5"/>
<text text-anchor="start" x="8" y="-91.5" font-family="Helvetica,sans-Serif" font-size="10.00" fill="#000000">CDPL::Chem::MatchExpression</text>
<text text-anchor="middle" x="82.5" y="-80.5" font-family="Helvetica,sans-Serif" font-size="10.00" fill="#000000">&lt; Atom, MolecularGraph &gt;</text>
</a>
</g>
</g>
<!-- Node1 -->
<g id="node2" class="node">
<title>Node1</title>
<g id="a_node2"><a xlink:href="classCDPL_1_1Chem_1_1AtomConfigurationMatchExpression.html" target="_top" xlink:title="AtomConfigurationMatchExpression.">
<polygon fill="none" stroke="#000000" points="210.5,-147.5 210.5,-177.5 384.5,-177.5 384.5,-147.5 210.5,-147.5"/>
<text text-anchor="start" x="218.5" y="-165.5" font-family="Helvetica,sans-Serif" font-size="10.00" fill="#000000">CDPL::Chem::AtomConfiguration</text>
<text text-anchor="middle" x="297.5" y="-154.5" font-family="Helvetica,sans-Serif" font-size="10.00" fill="#000000">MatchExpression</text>
</a>
</g>
</g>
<!-- Node0&#45;&gt;Node1 -->
<g id="edge1" class="edge">
<title>Node0&#45;&gt;Node1</title>
<path fill="none" stroke="#191970" d="M123.9149,-107.8448C146.3957,-117.8668 174.8629,-129.7944 201,-138.5 210.6637,-141.7187 220.9987,-144.7286 231.1823,-147.455"/>
<polygon fill="#191970" stroke="#191970" points="125.2262,-104.5969 114.671,-103.6813 122.3515,-110.9793 125.2262,-104.5969"/>
</g>
<!-- Node2 -->
<g id="node3" class="node">
<title>Node2</title>
<g id="a_node3"><a xlink:href="classCDPL_1_1Chem_1_1AtomEnvironmentMatchExpression.html" target="_top" xlink:title="AtomEnvironmentMatchExpression.">
<polygon fill="none" stroke="#000000" points="212,-98.5 212,-128.5 383,-128.5 383,-98.5 212,-98.5"/>
<text text-anchor="start" x="220" y="-116.5" font-family="Helvetica,sans-Serif" font-size="10.00" fill="#000000">CDPL::Chem::AtomEnvironment</text>
<text text-anchor="middle" x="297.5" y="-105.5" font-family="Helvetica,sans-Serif" font-size="10.00" fill="#000000">MatchExpression</text>
</a>
</g>
</g>
<!-- Node0&#45;&gt;Node2 -->
<g id="edge2" class="edge">
<title>Node0&#45;&gt;Node2</title>
<path fill="none" stroke="#191970" d="M175.1231,-99.2701C187.2516,-100.6804 199.6377,-102.1207 211.6477,-103.5172"/>
<polygon fill="#191970" stroke="#191970" points="175.3471,-95.7727 165.0097,-98.0942 174.5385,-102.7258 175.3471,-95.7727"/>
</g>
<!-- Node3 -->
<g id="node4" class="node">
<title>Node3</title>
<g id="a_node4"><a xlink:href="classCDPL_1_1Chem_1_1AtomSSSRRingSizeMatchExpression.html" target="_top" xlink:title="AtomSSSRRingSizeMatchExpression.">
<polygon fill="none" stroke="#000000" points="201,-49.5 201,-79.5 394,-79.5 394,-49.5 201,-49.5"/>
<text text-anchor="start" x="209" y="-67.5" font-family="Helvetica,sans-Serif" font-size="10.00" fill="#000000">CDPL::Chem::AtomSSSRRing</text>
<text text-anchor="middle" x="297.5" y="-56.5" font-family="Helvetica,sans-Serif" font-size="10.00" fill="#000000">SizeMatchExpression&lt; MatchFunc &gt;</text>
</a>
</g>
</g>
<!-- Node0&#45;&gt;Node3 -->
<g id="edge3" class="edge">
<title>Node0&#45;&gt;Node3</title>
<path fill="none" stroke="#191970" d="M174.9878,-78.1758C183.5497,-77.22 192.2412,-76.2498 200.8392,-75.29"/>
<polygon fill="#191970" stroke="#191970" points="174.5597,-74.7017 165.0097,-79.2896 175.3363,-81.6585 174.5597,-74.7017"/>
</g>
<!-- Node4 -->
<g id="node5" class="node">
<title>Node4</title>
<g id="a_node5"><a xlink:href="classCDPL_1_1Chem_1_1AtomTypeMatchExpression.html" target="_top" xlink:title="AtomTypeMatchExpression.">
<polygon fill="none" stroke="#000000" points="217,-.5 217,-30.5 378,-30.5 378,-.5 217,-.5"/>
<text text-anchor="start" x="225" y="-18.5" font-family="Helvetica,sans-Serif" font-size="10.00" fill="#000000">CDPL::Chem::AtomTypeMatch</text>
<text text-anchor="middle" x="297.5" y="-7.5" font-family="Helvetica,sans-Serif" font-size="10.00" fill="#000000">Expression</text>
</a>
</g>
</g>
<!-- Node0&#45;&gt;Node4 -->
<g id="edge4" class="edge">
<title>Node0&#45;&gt;Node4</title>
<path fill="none" stroke="#191970" d="M125.7673,-69.3791C147.994,-59.9662 175.6649,-48.8727 201,-40.5 211.7633,-36.943 223.336,-33.5695 234.5995,-30.5186"/>
<polygon fill="#191970" stroke="#191970" points="124.1023,-66.2844 116.2828,-73.4332 126.8536,-72.721 124.1023,-66.2844"/>
</g>
</g>
</svg>
