<?xml version="1.0" encoding="UTF-8" standalone="no"?>
<!DOCTYPE svg PUBLIC "-//W3C//DTD SVG 1.1//EN"
 "http://www.w3.org/Graphics/SVG/1.1/DTD/svg11.dtd">
<!-- Generated by graphviz version 2.40.1 (0)
 -->
<!-- Title: Graphical Class Hierarchy Pages: 1 -->
<svg width="563pt" height="268pt"
 viewBox="0.00 0.00 563.00 268.00" xmlns="http://www.w3.org/2000/svg" xmlns:xlink="http://www.w3.org/1999/xlink">
<g id="graph0" class="graph" transform="scale(1 1) rotate(0) translate(4 264)">
<title>Graphical Class Hierarchy</title>
<!-- Node1104 -->
<g id="node1" class="node">
<title>Node1104</title>
<g id="a_node1"><a xlink:title=" ">
<polygon fill="none" stroke="#bfbfbf" points="0,-183.5 0,-202.5 140,-202.5 140,-183.5 0,-183.5"/>
<text text-anchor="middle" x="70" y="-190.5" font-family="Helvetica,sans-Serif" font-size="10.00" fill="#000000">VectorArray&lt; Vector2D &gt;</text>
</a>
</g>
</g>
<!-- Node1105 -->
<g id="node2" class="node">
<title>Node1105</title>
<g id="a_node2"><a xlink:href="classCDPL_1_1Vis_1_1PointArray2D.html" target="_top" xlink:title="Stores a set of points in 2D space.">
<polygon fill="none" stroke="#000000" points="194,-183.5 194,-202.5 328,-202.5 328,-183.5 194,-183.5"/>
<text text-anchor="middle" x="261" y="-190.5" font-family="Helvetica,sans-Serif" font-size="10.00" fill="#000000">CDPL::Vis::PointArray2D</text>
</a>
</g>
</g>
<!-- Node1104&#45;&gt;Node1105 -->
<g id="edge1" class="edge">
<title>Node1104&#45;&gt;Node1105</title>
<path fill="none" stroke="#191970" d="M150.4524,-193C164.8977,-193 179.8142,-193 193.8347,-193"/>
<polygon fill="#191970" stroke="#191970" points="150.0368,-189.5001 140.0368,-193 150.0368,-196.5001 150.0368,-189.5001"/>
</g>
<!-- Node529 -->
<g id="node3" class="node">
<title>Node529</title>
<g id="a_node3"><a xlink:href="classCDPL_1_1Vis_1_1LineSegmentListPrimitive2D.html" target="_top" xlink:title="A graphics primitive representing a list of disjoint line segments.">
<polygon fill="none" stroke="#000000" points="393.5,-115 393.5,-145 543.5,-145 543.5,-115 393.5,-115"/>
<text text-anchor="start" x="401.5" y="-133" font-family="Helvetica,sans-Serif" font-size="10.00" fill="#000000">CDPL::Vis::LineSegmentList</text>
<text text-anchor="middle" x="468.5" y="-122" font-family="Helvetica,sans-Serif" font-size="10.00" fill="#000000">Primitive2D</text>
</a>
</g>
</g>
<!-- Node1105&#45;&gt;Node529 -->
<g id="edge2" class="edge">
<title>Node1105&#45;&gt;Node529</title>
<path fill="none" stroke="#191970" d="M300.4385,-180.3632C324.0566,-172.8583 354.6998,-163.2307 382,-155 392.9256,-151.706 404.6539,-148.2578 415.8386,-145.0111"/>
<polygon fill="#191970" stroke="#191970" points="299.2436,-177.0704 290.7768,-183.4394 301.3673,-183.7405 299.2436,-177.0704"/>
</g>
<!-- Node530 -->
<g id="node4" class="node">
<title>Node530</title>
<g id="a_node4"><a xlink:href="classCDPL_1_1Vis_1_1PointListPrimitive2D.html" target="_top" xlink:title="A graphics primitive representing a list of points.">
<polygon fill="none" stroke="#000000" points="384,-240.5 384,-259.5 553,-259.5 553,-240.5 384,-240.5"/>
<text text-anchor="middle" x="468.5" y="-247.5" font-family="Helvetica,sans-Serif" font-size="10.00" fill="#000000">CDPL::Vis::PointListPrimitive2D</text>
</a>
</g>
</g>
<!-- Node1105&#45;&gt;Node530 -->
<g id="edge3" class="edge">
<title>Node1105&#45;&gt;Node530</title>
<path fill="none" stroke="#191970" d="M298.8293,-205.8232C322.5626,-213.6329 353.8877,-223.5138 382,-231 394.7775,-234.4026 408.732,-237.6633 421.6307,-240.4935"/>
<polygon fill="#191970" stroke="#191970" points="299.7476,-202.4404 289.1542,-202.6161 297.545,-209.0849 299.7476,-202.4404"/>
</g>
<!-- Node531 -->
<g id="node5" class="node">
<title>Node531</title>
<g id="a_node5"><a xlink:href="classCDPL_1_1Vis_1_1PolygonPrimitive2D.html" target="_top" xlink:title="A graphics primitive representing a polygon.">
<polygon fill="none" stroke="#000000" points="385.5,-202.5 385.5,-221.5 551.5,-221.5 551.5,-202.5 385.5,-202.5"/>
<text text-anchor="middle" x="468.5" y="-209.5" font-family="Helvetica,sans-Serif" font-size="10.00" fill="#000000">CDPL::Vis::PolygonPrimitive2D</text>
</a>
</g>
</g>
<!-- Node1105&#45;&gt;Node531 -->
<g id="edge4" class="edge">
<title>Node1105&#45;&gt;Node531</title>
<path fill="none" stroke="#191970" d="M338.0647,-200.0565C353.4627,-201.4665 369.702,-202.9534 385.2963,-204.3813"/>
<polygon fill="#191970" stroke="#191970" points="338.3603,-196.569 328.0827,-199.1425 337.7219,-203.5399 338.3603,-196.569"/>
</g>
<!-- Node532 -->
<g id="node6" class="node">
<title>Node532</title>
<g id="a_node6"><a xlink:href="classCDPL_1_1Vis_1_1PolylinePrimitive2D.html" target="_top" xlink:title="A graphics primitive representing a set of connected line segments.">
<polygon fill="none" stroke="#000000" points="385.5,-164.5 385.5,-183.5 551.5,-183.5 551.5,-164.5 385.5,-164.5"/>
<text text-anchor="middle" x="468.5" y="-171.5" font-family="Helvetica,sans-Serif" font-size="10.00" fill="#000000">CDPL::Vis::PolylinePrimitive2D</text>
</a>
</g>
</g>
<!-- Node1105&#45;&gt;Node532 -->
<g id="edge5" class="edge">
<title>Node1105&#45;&gt;Node532</title>
<path fill="none" stroke="#191970" d="M338.0647,-185.9435C353.4627,-184.5335 369.702,-183.0466 385.2963,-181.6187"/>
<polygon fill="#191970" stroke="#191970" points="337.7219,-182.4601 328.0827,-186.8575 338.3603,-189.431 337.7219,-182.4601"/>
</g>
<!-- Node527 -->
<g id="node7" class="node">
<title>Node527</title>
<g id="a_node7"><a xlink:href="classCDPL_1_1Vis_1_1GraphicsPrimitive2D.html" target="_top" xlink:title="The abstract base class of all 2D graphics primitives.">
<polygon fill="none" stroke="#000000" points="176,-120.5 176,-139.5 346,-139.5 346,-120.5 176,-120.5"/>
<text text-anchor="middle" x="261" y="-127.5" font-family="Helvetica,sans-Serif" font-size="10.00" fill="#000000">CDPL::Vis::GraphicsPrimitive2D</text>
</a>
</g>
</g>
<!-- Node527&#45;&gt;Node529 -->
<g id="edge8" class="edge">
<title>Node527&#45;&gt;Node529</title>
<path fill="none" stroke="#191970" d="M356.6338,-130C369.002,-130 381.5249,-130 393.4938,-130"/>
<polygon fill="#191970" stroke="#191970" points="356.2965,-126.5001 346.2965,-130 356.2964,-133.5001 356.2965,-126.5001"/>
</g>
<!-- Node527&#45;&gt;Node530 -->
<g id="edge9" class="edge">
<title>Node527&#45;&gt;Node530</title>
<path fill="none" stroke="#191970" d="M296.988,-143.512C313.2227,-150.8234 331.8775,-161.0381 346,-174 368.0746,-194.2605 357.4727,-213.7898 382,-231 387.5379,-234.8858 393.7274,-237.9971 400.181,-240.4854"/>
<polygon fill="#191970" stroke="#191970" points="298.3307,-140.2796 287.7615,-139.5439 295.5651,-146.7101 298.3307,-140.2796"/>
</g>
<!-- Node527&#45;&gt;Node531 -->
<g id="edge10" class="edge">
<title>Node527&#45;&gt;Node531</title>
<path fill="none" stroke="#191970" d="M288.7561,-144.2973C305.3784,-152.8771 326.9189,-164.0263 346,-174 362.0335,-182.3807 365.0109,-186.7808 382,-193 392.2512,-196.7527 403.4698,-199.8853 414.3305,-202.4531"/>
<polygon fill="#191970" stroke="#191970" points="290.0851,-141.0446 279.5933,-139.5709 286.876,-147.2658 290.0851,-141.0446"/>
</g>
<!-- Node527&#45;&gt;Node532 -->
<g id="edge11" class="edge">
<title>Node527&#45;&gt;Node532</title>
<path fill="none" stroke="#191970" d="M316.1382,-141.692C349.7043,-148.8096 392.0418,-157.7872 423.5635,-164.4713"/>
<polygon fill="#191970" stroke="#191970" points="316.533,-138.1979 306.0244,-139.5473 315.0808,-145.0457 316.533,-138.1979"/>
</g>
<!-- Node528 -->
<g id="node8" class="node">
<title>Node528</title>
<g id="a_node8"><a xlink:href="classCDPL_1_1Vis_1_1EllipsePrimitive2D.html" target="_top" xlink:title="A graphics primitive representing a ellipse.">
<polygon fill="none" stroke="#000000" points="389,-38.5 389,-57.5 548,-57.5 548,-38.5 389,-38.5"/>
<text text-anchor="middle" x="468.5" y="-45.5" font-family="Helvetica,sans-Serif" font-size="10.00" fill="#000000">CDPL::Vis::EllipsePrimitive2D</text>
</a>
</g>
</g>
<!-- Node527&#45;&gt;Node528 -->
<g id="edge6" class="edge">
<title>Node527&#45;&gt;Node528</title>
<path fill="none" stroke="#191970" d="M284.7469,-115.2275C308.5431,-101.0129 346.6227,-79.8388 382,-67 392.2617,-63.2759 403.4848,-60.1561 414.3469,-57.5918"/>
<polygon fill="#191970" stroke="#191970" points="282.8064,-112.3109 276.0654,-120.4846 286.4323,-118.2986 282.8064,-112.3109"/>
</g>
<!-- Node1 -->
<g id="node9" class="node">
<title>Node1</title>
<g id="a_node9"><a xlink:href="classCDPL_1_1Vis_1_1LinePrimitive2D.html" target="_top" xlink:title="A graphics primitive representing a single line.">
<polygon fill="none" stroke="#000000" points="395,-.5 395,-19.5 542,-19.5 542,-.5 395,-.5"/>
<text text-anchor="middle" x="468.5" y="-7.5" font-family="Helvetica,sans-Serif" font-size="10.00" fill="#000000">CDPL::Vis::LinePrimitive2D</text>
</a>
</g>
</g>
<!-- Node527&#45;&gt;Node1 -->
<g id="edge7" class="edge">
<title>Node527&#45;&gt;Node1</title>
<path fill="none" stroke="#191970" d="M276.2706,-112.9198C297.6228,-90.1454 338.6743,-50.244 382,-29 389.8689,-25.1416 398.522,-22.0595 407.22,-19.5992"/>
<polygon fill="#191970" stroke="#191970" points="273.5207,-110.7394 269.3275,-120.4692 278.673,-115.478 273.5207,-110.7394"/>
</g>
<!-- Node533 -->
<g id="node10" class="node">
<title>Node533</title>
<g id="a_node10"><a xlink:href="classCDPL_1_1Vis_1_1TextLabelPrimitive2D.html" target="_top" xlink:title="A graphics primitive representing a text label.">
<polygon fill="none" stroke="#000000" points="382,-76.5 382,-95.5 555,-95.5 555,-76.5 382,-76.5"/>
<text text-anchor="middle" x="468.5" y="-83.5" font-family="Helvetica,sans-Serif" font-size="10.00" fill="#000000">CDPL::Vis::TextLabelPrimitive2D</text>
</a>
</g>
</g>
<!-- Node527&#45;&gt;Node533 -->
<g id="edge12" class="edge">
<title>Node527&#45;&gt;Node533</title>
<path fill="none" stroke="#191970" d="M316.1382,-118.308C349.7043,-111.1904 392.0418,-102.2128 423.5635,-95.5287"/>
<polygon fill="#191970" stroke="#191970" points="315.0808,-114.9543 306.0244,-120.4527 316.533,-121.8021 315.0808,-114.9543"/>
</g>
<!-- Node0 -->
<g id="node11" class="node">
<title>Node0</title>
<g id="a_node11"><a xlink:href="classCDPL_1_1Vis_1_1Line2D.html" target="_top" xlink:title="Specifies a line segment in 2D space.">
<polygon fill="none" stroke="#000000" points="209.5,-.5 209.5,-19.5 312.5,-19.5 312.5,-.5 209.5,-.5"/>
<text text-anchor="middle" x="261" y="-7.5" font-family="Helvetica,sans-Serif" font-size="10.00" fill="#000000">CDPL::Vis::Line2D</text>
</a>
</g>
</g>
<!-- Node0&#45;&gt;Node1 -->
<g id="edge13" class="edge">
<title>Node0&#45;&gt;Node1</title>
<path fill="none" stroke="#191970" d="M322.7241,-10C345.3848,-10 371.2643,-10 394.8669,-10"/>
<polygon fill="#191970" stroke="#191970" points="322.5588,-6.5001 312.5587,-10 322.5587,-13.5001 322.5588,-6.5001"/>
</g>
</g>
</svg>
