<?xml version="1.0" encoding="UTF-8" standalone="no"?>
<!DOCTYPE svg PUBLIC "-//W3C//DTD SVG 1.1//EN"
 "http://www.w3.org/Graphics/SVG/1.1/DTD/svg11.dtd">
<!-- Generated by graphviz version 2.44.0 (0)
 -->
<!-- Title: Graphical Class Hierarchy Pages: 1 -->
<svg width="558pt" height="50pt"
 viewBox="0.00 0.00 558.00 50.00" xmlns="http://www.w3.org/2000/svg" xmlns:xlink="http://www.w3.org/1999/xlink">
<g id="graph0" class="graph" transform="scale(1 1) rotate(0) translate(4 46)">
<title>Graphical Class Hierarchy</title>
<!-- Node0 -->
<g id="node1" class="node">
<title>Node0</title>
<g id="a_node1"><a xlink:href="classCDPL_1_1Math_1_1Expression.html" target="_top" xlink:title=" ">
<polygon fill="none" stroke="black" points="0,-0.5 0,-41.5 143,-41.5 143,-0.5 0,-0.5"/>
<text text-anchor="start" x="8" y="-29.5" font-family="Helvetica" font-size="10.00">CDPL::Math::Expression</text>
<text text-anchor="start" x="8" y="-18.5" font-family="Helvetica" font-size="10.00">&lt; Scalar13QuaternionTernary</text>
<text text-anchor="middle" x="71.5" y="-7.5" font-family="Helvetica" font-size="10.00">&lt; E1, E2, E3, F &gt; &gt;</text>
</a>
</g>
</g>
<!-- Node1 -->
<g id="node2" class="node">
<title>Node1</title>
<g id="a_node2"><a xlink:href="classCDPL_1_1Math_1_1QuaternionExpression.html" target="_top" xlink:title=" ">
<polygon fill="none" stroke="black" points="179,-0.5 179,-41.5 352,-41.5 352,-0.5 179,-0.5"/>
<text text-anchor="start" x="187" y="-29.5" font-family="Helvetica" font-size="10.00">CDPL::Math::QuaternionExpression</text>
<text text-anchor="start" x="187" y="-18.5" font-family="Helvetica" font-size="10.00">&lt; Scalar13QuaternionTernary</text>
<text text-anchor="middle" x="265.5" y="-7.5" font-family="Helvetica" font-size="10.00">&lt; E1, E2, E3, F &gt; &gt;</text>
</a>
</g>
</g>
<!-- Node0&#45;&gt;Node1 -->
<g id="edge1" class="edge">
<title>Node0&#45;&gt;Node1</title>
<path fill="none" stroke="midnightblue" d="M153.4,-21C161.86,-21 170.48,-21 178.99,-21"/>
<polygon fill="midnightblue" stroke="midnightblue" points="153.18,-17.5 143.18,-21 153.18,-24.5 153.18,-17.5"/>
</g>
<!-- Node2 -->
<g id="node3" class="node">
<title>Node2</title>
<g id="a_node3"><a xlink:href="classCDPL_1_1Math_1_1Scalar13QuaternionTernary.html" target="_top" xlink:title=" ">
<polygon fill="none" stroke="black" points="388,-6 388,-36 550,-36 550,-6 388,-6"/>
<text text-anchor="start" x="396" y="-24" font-family="Helvetica" font-size="10.00">CDPL::Math::Scalar13Quaternion</text>
<text text-anchor="middle" x="469" y="-13" font-family="Helvetica" font-size="10.00">Ternary&lt; E1, E2, E3, F &gt;</text>
</a>
</g>
</g>
<!-- Node1&#45;&gt;Node2 -->
<g id="edge2" class="edge">
<title>Node1&#45;&gt;Node2</title>
<path fill="none" stroke="midnightblue" d="M362.52,-21C370.97,-21 379.47,-21 387.77,-21"/>
<polygon fill="midnightblue" stroke="midnightblue" points="362.25,-17.5 352.25,-21 362.25,-24.5 362.25,-17.5"/>
</g>
</g>
</svg>
