<?xml version="1.0" encoding="UTF-8" standalone="no"?>
<!DOCTYPE svg PUBLIC "-//W3C//DTD SVG 1.1//EN"
 "http://www.w3.org/Graphics/SVG/1.1/DTD/svg11.dtd">
<!-- Generated by graphviz version 2.44.0 (0)
 -->
<!-- Title: Graphical Class Hierarchy Pages: 1 -->
<svg width="379pt" height="186pt"
 viewBox="0.00 0.00 379.00 186.00" xmlns="http://www.w3.org/2000/svg" xmlns:xlink="http://www.w3.org/1999/xlink">
<g id="graph0" class="graph" transform="scale(1 1) rotate(0) translate(4 182)">
<title>Graphical Class Hierarchy</title>
<!-- Node0 -->
<g id="node1" class="node">
<title>Node0</title>
<g id="a_node1"><a xlink:href="classCDPL_1_1Chem_1_1MatchExpression.html" target="_top" xlink:title=" ">
<polygon fill="none" stroke="black" points="0,-73.5 0,-103.5 157,-103.5 157,-73.5 0,-73.5"/>
<text text-anchor="start" x="8" y="-91.5" font-family="Helvetica" font-size="10.00">CDPL::Chem::MatchExpression</text>
<text text-anchor="middle" x="78.5" y="-80.5" font-family="Helvetica" font-size="10.00">&lt; Atom, MolecularGraph &gt;</text>
</a>
</g>
</g>
<!-- Node1 -->
<g id="node2" class="node">
<title>Node1</title>
<g id="a_node2"><a xlink:href="classCDPL_1_1Chem_1_1AtomConfigurationMatchExpression.html" target="_top" xlink:title="AtomConfigurationMatchExpression.">
<polygon fill="none" stroke="black" points="201,-147.5 201,-177.5 363,-177.5 363,-147.5 201,-147.5"/>
<text text-anchor="start" x="209" y="-165.5" font-family="Helvetica" font-size="10.00">CDPL::Chem::AtomConfiguration</text>
<text text-anchor="middle" x="282" y="-154.5" font-family="Helvetica" font-size="10.00">MatchExpression</text>
</a>
</g>
</g>
<!-- Node0&#45;&gt;Node1 -->
<g id="edge1" class="edge">
<title>Node0&#45;&gt;Node1</title>
<path fill="none" stroke="midnightblue" d="M119.45,-107.84C140.94,-117.8 168.07,-129.67 193,-138.5 201.96,-141.67 211.55,-144.68 220.98,-147.42"/>
<polygon fill="midnightblue" stroke="midnightblue" points="120.85,-104.63 110.31,-103.56 117.88,-110.97 120.85,-104.63"/>
</g>
<!-- Node2 -->
<g id="node3" class="node">
<title>Node2</title>
<g id="a_node3"><a xlink:href="classCDPL_1_1Chem_1_1AtomEnvironmentMatchExpression.html" target="_top" xlink:title="AtomEnvironmentMatchExpression.">
<polygon fill="none" stroke="black" points="202.5,-98.5 202.5,-128.5 361.5,-128.5 361.5,-98.5 202.5,-98.5"/>
<text text-anchor="start" x="210.5" y="-116.5" font-family="Helvetica" font-size="10.00">CDPL::Chem::AtomEnvironment</text>
<text text-anchor="middle" x="282" y="-105.5" font-family="Helvetica" font-size="10.00">MatchExpression</text>
</a>
</g>
</g>
<!-- Node0&#45;&gt;Node2 -->
<g id="edge2" class="edge">
<title>Node0&#45;&gt;Node2</title>
<path fill="none" stroke="midnightblue" d="M167.31,-99.39C178.99,-100.84 190.91,-102.32 202.42,-103.75"/>
<polygon fill="midnightblue" stroke="midnightblue" points="167.47,-95.89 157.12,-98.13 166.61,-102.83 167.47,-95.89"/>
</g>
<!-- Node3 -->
<g id="node4" class="node">
<title>Node3</title>
<g id="a_node4"><a xlink:href="classCDPL_1_1Chem_1_1AtomSSSRRingSizeMatchExpression.html" target="_top" xlink:title="AtomSSSRRingSizeMatchExpression.">
<polygon fill="none" stroke="black" points="193,-49.5 193,-79.5 371,-79.5 371,-49.5 193,-49.5"/>
<text text-anchor="start" x="201" y="-67.5" font-family="Helvetica" font-size="10.00">CDPL::Chem::AtomSSSRRing</text>
<text text-anchor="middle" x="282" y="-56.5" font-family="Helvetica" font-size="10.00">SizeMatchExpression&lt; MatchFunc &gt;</text>
</a>
</g>
</g>
<!-- Node0&#45;&gt;Node3 -->
<g id="edge3" class="edge">
<title>Node0&#45;&gt;Node3</title>
<path fill="none" stroke="midnightblue" d="M167.3,-78.04C175.72,-77.04 184.26,-76.02 192.68,-75.02"/>
<polygon fill="midnightblue" stroke="midnightblue" points="166.63,-74.6 157.12,-79.26 167.46,-81.55 166.63,-74.6"/>
</g>
<!-- Node4 -->
<g id="node5" class="node">
<title>Node4</title>
<g id="a_node5"><a xlink:href="classCDPL_1_1Chem_1_1AtomTypeMatchExpression.html" target="_top" xlink:title="AtomTypeMatchExpression.">
<polygon fill="none" stroke="black" points="206,-0.5 206,-30.5 358,-30.5 358,-0.5 206,-0.5"/>
<text text-anchor="start" x="214" y="-18.5" font-family="Helvetica" font-size="10.00">CDPL::Chem::AtomTypeMatch</text>
<text text-anchor="middle" x="282" y="-7.5" font-family="Helvetica" font-size="10.00">Expression</text>
</a>
</g>
</g>
<!-- Node0&#45;&gt;Node4 -->
<g id="edge4" class="edge">
<title>Node0&#45;&gt;Node4</title>
<path fill="none" stroke="midnightblue" d="M121.7,-69.19C142.86,-59.88 169.02,-48.94 193,-40.5 202.89,-37.02 213.53,-33.67 223.87,-30.62"/>
<polygon fill="midnightblue" stroke="midnightblue" points="120.07,-66.08 112.35,-73.34 122.91,-72.48 120.07,-66.08"/>
</g>
</g>
</svg>
