<?xml version="1.0" encoding="UTF-8" standalone="no"?>
<!DOCTYPE svg PUBLIC "-//W3C//DTD SVG 1.1//EN"
 "http://www.w3.org/Graphics/SVG/1.1/DTD/svg11.dtd">
<!-- Generated by graphviz version 2.44.0 (0)
 -->
<!-- Title: Graphical Class Hierarchy Pages: 1 -->
<svg width="972pt" height="184pt"
 viewBox="0.00 0.00 972.00 184.00" xmlns="http://www.w3.org/2000/svg" xmlns:xlink="http://www.w3.org/1999/xlink">
<g id="graph0" class="graph" transform="scale(1 1) rotate(0) translate(4 180)">
<title>Graphical Class Hierarchy</title>
<!-- Node592 -->
<g id="node1" class="node">
<title>Node592</title>
<g id="a_node1"><a xlink:title=" ">
<polygon fill="none" stroke="#bfbfbf" points="0,-76 0,-95 75,-95 75,-76 0,-76"/>
<text text-anchor="middle" x="37.5" y="-83" font-family="Helvetica" font-size="10.00">std::ios_base</text>
</a>
</g>
</g>
<!-- Node593 -->
<g id="node2" class="node">
<title>Node593</title>
<g id="a_node2"><a xlink:title=" ">
<polygon fill="none" stroke="#bfbfbf" points="111,-76 111,-95 227,-95 227,-76 111,-76"/>
<text text-anchor="middle" x="169" y="-83" font-family="Helvetica" font-size="10.00">std::basic_ios&lt; Char &gt;</text>
</a>
</g>
</g>
<!-- Node592&#45;&gt;Node593 -->
<g id="edge1" class="edge">
<title>Node592&#45;&gt;Node593</title>
<path fill="none" stroke="midnightblue" d="M85.43,-85.5C93.67,-85.5 102.33,-85.5 110.81,-85.5"/>
<polygon fill="midnightblue" stroke="midnightblue" points="85.26,-82 75.26,-85.5 85.26,-89 85.26,-82"/>
</g>
<!-- Node594 -->
<g id="node3" class="node">
<title>Node594</title>
<g id="a_node3"><a xlink:title=" ">
<polygon fill="none" stroke="#bfbfbf" points="264.5,-95.5 264.5,-125.5 361.5,-125.5 361.5,-95.5 264.5,-95.5"/>
<text text-anchor="start" x="272.5" y="-113.5" font-family="Helvetica" font-size="10.00">std::basic_istream</text>
<text text-anchor="middle" x="313" y="-102.5" font-family="Helvetica" font-size="10.00">&lt; Char &gt;</text>
</a>
</g>
</g>
<!-- Node593&#45;&gt;Node594 -->
<g id="edge2" class="edge">
<title>Node593&#45;&gt;Node594</title>
<path fill="none" stroke="midnightblue" d="M234.09,-96.78C244.18,-98.56 254.46,-100.37 264.1,-102.07"/>
<polygon fill="midnightblue" stroke="midnightblue" points="234.54,-93.31 224.09,-95.02 233.33,-100.2 234.54,-93.31"/>
</g>
<!-- Node600 -->
<g id="node9" class="node">
<title>Node600</title>
<g id="a_node9"><a xlink:title=" ">
<polygon fill="none" stroke="#bfbfbf" points="263,-46.5 263,-76.5 363,-76.5 363,-46.5 263,-46.5"/>
<text text-anchor="start" x="271" y="-64.5" font-family="Helvetica" font-size="10.00">std::basic_ostream</text>
<text text-anchor="middle" x="313" y="-53.5" font-family="Helvetica" font-size="10.00">&lt; Char &gt;</text>
</a>
</g>
</g>
<!-- Node593&#45;&gt;Node600 -->
<g id="edge8" class="edge">
<title>Node593&#45;&gt;Node600</title>
<path fill="none" stroke="midnightblue" d="M236.53,-74.26C245.45,-72.75 254.46,-71.23 263,-69.78"/>
<polygon fill="midnightblue" stroke="midnightblue" points="235.81,-70.83 226.53,-75.95 236.97,-77.73 235.81,-70.83"/>
</g>
<!-- Node0 -->
<g id="node4" class="node">
<title>Node0</title>
<g id="a_node4"><a xlink:href="classCDPL_1_1Util_1_1CompressionStreamBase.html" target="_top" xlink:title=" ">
<polygon fill="none" stroke="black" points="399,-123.5 399,-175.5 558,-175.5 558,-123.5 399,-123.5"/>
<text text-anchor="start" x="407" y="-163.5" font-family="Helvetica" font-size="10.00">CDPL::Util::CompressionStream</text>
<text text-anchor="start" x="407" y="-152.5" font-family="Helvetica" font-size="10.00">Base&lt; CompAlgo, std::basic</text>
<text text-anchor="start" x="407" y="-141.5" font-family="Helvetica" font-size="10.00">_istream&lt; char, std::char_traits</text>
<text text-anchor="middle" x="478.5" y="-130.5" font-family="Helvetica" font-size="10.00">&lt; char &gt; &gt; &gt;</text>
</a>
</g>
</g>
<!-- Node594&#45;&gt;Node0 -->
<g id="edge3" class="edge">
<title>Node594&#45;&gt;Node0</title>
<path fill="none" stroke="midnightblue" d="M371.55,-124.23C380.42,-126.34 389.71,-128.56 398.95,-130.76"/>
<polygon fill="midnightblue" stroke="midnightblue" points="372.27,-120.8 361.73,-121.89 370.65,-127.61 372.27,-120.8"/>
</g>
<!-- Node597 -->
<g id="node6" class="node">
<title>Node597</title>
<g id="a_node6"><a xlink:title=" ">
<polygon fill="none" stroke="#bfbfbf" points="427.5,-71.5 427.5,-101.5 529.5,-101.5 529.5,-71.5 427.5,-71.5"/>
<text text-anchor="start" x="435.5" y="-89.5" font-family="Helvetica" font-size="10.00">std::basic_iostream</text>
<text text-anchor="middle" x="478.5" y="-78.5" font-family="Helvetica" font-size="10.00">&lt; Char &gt;</text>
</a>
</g>
</g>
<!-- Node594&#45;&gt;Node597 -->
<g id="edge5" class="edge">
<title>Node594&#45;&gt;Node597</title>
<path fill="none" stroke="midnightblue" d="M371.64,-102.04C389.84,-99.37 409.8,-96.44 427.43,-93.85"/>
<polygon fill="midnightblue" stroke="midnightblue" points="371.12,-98.58 361.73,-103.49 372.13,-105.5 371.12,-98.58"/>
</g>
<!-- Node1 -->
<g id="node5" class="node">
<title>Node1</title>
<g id="a_node5"><a xlink:href="classCDPL_1_1Util_1_1DecompressionIStream.html" target="_top" xlink:title=" ">
<polygon fill="none" stroke="black" points="607,-132 607,-173 748,-173 748,-132 607,-132"/>
<text text-anchor="start" x="615" y="-161" font-family="Helvetica" font-size="10.00">CDPL::Util::Decompression</text>
<text text-anchor="start" x="615" y="-150" font-family="Helvetica" font-size="10.00">IStream&lt; CompAlgo, CharT,</text>
<text text-anchor="middle" x="677.5" y="-139" font-family="Helvetica" font-size="10.00"> TraitsT &gt;</text>
</a>
</g>
</g>
<!-- Node0&#45;&gt;Node1 -->
<g id="edge4" class="edge">
<title>Node0&#45;&gt;Node1</title>
<path fill="none" stroke="midnightblue" d="M568.46,-150.85C581.33,-151.05 594.41,-151.25 606.83,-151.44"/>
<polygon fill="midnightblue" stroke="midnightblue" points="568.26,-147.35 558.21,-150.7 568.15,-154.35 568.26,-147.35"/>
</g>
<!-- Node598 -->
<g id="node7" class="node">
<title>Node598</title>
<g id="a_node7"><a xlink:href="classCDPL_1_1Util_1_1CompressionStreamBase.html" target="_top" xlink:title=" ">
<polygon fill="none" stroke="black" points="598,-60.5 598,-112.5 757,-112.5 757,-60.5 598,-60.5"/>
<text text-anchor="start" x="606" y="-100.5" font-family="Helvetica" font-size="10.00">CDPL::Util::CompressionStream</text>
<text text-anchor="start" x="606" y="-89.5" font-family="Helvetica" font-size="10.00">Base&lt; CompAlgo, std::basic</text>
<text text-anchor="start" x="606" y="-78.5" font-family="Helvetica" font-size="10.00">_iostream&lt; char, std::char</text>
<text text-anchor="middle" x="677.5" y="-67.5" font-family="Helvetica" font-size="10.00">_traits&lt; char &gt; &gt; &gt;</text>
</a>
</g>
</g>
<!-- Node597&#45;&gt;Node598 -->
<g id="edge6" class="edge">
<title>Node597&#45;&gt;Node598</title>
<path fill="none" stroke="midnightblue" d="M539.9,-86.5C558.13,-86.5 578.41,-86.5 597.65,-86.5"/>
<polygon fill="midnightblue" stroke="midnightblue" points="539.72,-83 529.72,-86.5 539.72,-90 539.72,-83"/>
</g>
<!-- Node599 -->
<g id="node8" class="node">
<title>Node599</title>
<g id="a_node8"><a xlink:href="classCDPL_1_1Util_1_1CompressedIOStream.html" target="_top" xlink:title=" ">
<polygon fill="none" stroke="black" points="797,-71.5 797,-101.5 964,-101.5 964,-71.5 797,-71.5"/>
<text text-anchor="start" x="805" y="-89.5" font-family="Helvetica" font-size="10.00">CDPL::Util::CompressedIOStream</text>
<text text-anchor="middle" x="880.5" y="-78.5" font-family="Helvetica" font-size="10.00">&lt; CompAlgo, CharT, TraitsT &gt;</text>
</a>
</g>
</g>
<!-- Node598&#45;&gt;Node599 -->
<g id="edge7" class="edge">
<title>Node598&#45;&gt;Node599</title>
<path fill="none" stroke="midnightblue" d="M767.21,-86.5C777,-86.5 786.95,-86.5 796.67,-86.5"/>
<polygon fill="midnightblue" stroke="midnightblue" points="767.08,-83 757.08,-86.5 767.08,-90 767.08,-83"/>
</g>
<!-- Node600&#45;&gt;Node597 -->
<g id="edge11" class="edge">
<title>Node600&#45;&gt;Node597</title>
<path fill="none" stroke="midnightblue" d="M373.29,-70.57C391.01,-73.28 410.27,-76.22 427.35,-78.83"/>
<polygon fill="midnightblue" stroke="midnightblue" points="373.47,-67.05 363.06,-69 372.41,-73.97 373.47,-67.05"/>
</g>
<!-- Node601 -->
<g id="node10" class="node">
<title>Node601</title>
<g id="a_node10"><a xlink:href="classCDPL_1_1Util_1_1CompressionStreamBase.html" target="_top" xlink:title=" ">
<polygon fill="none" stroke="black" points="399,-0.5 399,-52.5 558,-52.5 558,-0.5 399,-0.5"/>
<text text-anchor="start" x="407" y="-40.5" font-family="Helvetica" font-size="10.00">CDPL::Util::CompressionStream</text>
<text text-anchor="start" x="407" y="-29.5" font-family="Helvetica" font-size="10.00">Base&lt; CompAlgo, std::basic</text>
<text text-anchor="start" x="407" y="-18.5" font-family="Helvetica" font-size="10.00">_ostream&lt; char, std::char_traits</text>
<text text-anchor="middle" x="478.5" y="-7.5" font-family="Helvetica" font-size="10.00">&lt; char &gt; &gt; &gt;</text>
</a>
</g>
</g>
<!-- Node600&#45;&gt;Node601 -->
<g id="edge9" class="edge">
<title>Node600&#45;&gt;Node601</title>
<path fill="none" stroke="midnightblue" d="M373.07,-48.86C381.44,-47.06 390.15,-45.2 398.82,-43.34"/>
<polygon fill="midnightblue" stroke="midnightblue" points="372.1,-45.48 363.06,-51 373.57,-52.33 372.1,-45.48"/>
</g>
<!-- Node602 -->
<g id="node11" class="node">
<title>Node602</title>
<g id="a_node11"><a xlink:href="classCDPL_1_1Util_1_1CompressionOStream.html" target="_top" xlink:title=" ">
<polygon fill="none" stroke="black" points="594,-11.5 594,-41.5 761,-41.5 761,-11.5 594,-11.5"/>
<text text-anchor="start" x="602" y="-29.5" font-family="Helvetica" font-size="10.00">CDPL::Util::CompressionOStream</text>
<text text-anchor="middle" x="677.5" y="-18.5" font-family="Helvetica" font-size="10.00">&lt; CompAlgo, CharT, TraitsT &gt;</text>
</a>
</g>
</g>
<!-- Node601&#45;&gt;Node602 -->
<g id="edge10" class="edge">
<title>Node601&#45;&gt;Node602</title>
<path fill="none" stroke="midnightblue" d="M568.42,-26.5C576.84,-26.5 585.36,-26.5 593.72,-26.5"/>
<polygon fill="midnightblue" stroke="midnightblue" points="568.21,-23 558.21,-26.5 568.21,-30 568.21,-23"/>
</g>
</g>
</svg>
