<?xml version="1.0" encoding="UTF-8" standalone="no"?>
<!DOCTYPE svg PUBLIC "-//W3C//DTD SVG 1.1//EN"
 "http://www.w3.org/Graphics/SVG/1.1/DTD/svg11.dtd">
<!-- Generated by graphviz version 2.44.0 (0)
 -->
<!-- Title: CDPL::Math::TypeTraits&lt; std::complex&lt; T &gt; &gt; Pages: 1 -->
<svg width="192pt" height="174pt"
 viewBox="0.00 0.00 192.00 174.00" xmlns="http://www.w3.org/2000/svg" xmlns:xlink="http://www.w3.org/1999/xlink">
<g id="graph0" class="graph" transform="scale(1 1) rotate(0) translate(4 170)">
<title>CDPL::Math::TypeTraits&lt; std::complex&lt; T &gt; &gt;</title>
<!-- Node1 -->
<g id="node1" class="node">
<title>Node1</title>
<g id="a_node1"><a xlink:title=" ">
<polygon fill="#bfbfbf" stroke="black" points="21,-0.5 21,-30.5 143,-30.5 143,-0.5 21,-0.5"/>
<text text-anchor="start" x="29" y="-18.5" font-family="Helvetica" font-size="10.00">CDPL::Math::TypeTraits</text>
<text text-anchor="middle" x="82" y="-7.5" font-family="Helvetica" font-size="10.00">&lt; std::complex&lt; T &gt; &gt;</text>
</a>
</g>
</g>
<!-- Node2 -->
<g id="node2" class="node">
<title>Node2</title>
<g id="a_node2"><a xlink:href="structCDPL_1_1Math_1_1ComplexTraits.html" target="_top" xlink:title=" ">
<polygon fill="none" stroke="black" points="12,-68.5 12,-98.5 152,-98.5 152,-68.5 12,-68.5"/>
<text text-anchor="start" x="20" y="-86.5" font-family="Helvetica" font-size="10.00">CDPL::Math::ComplexTraits</text>
<text text-anchor="middle" x="82" y="-75.5" font-family="Helvetica" font-size="10.00">&lt; std::complex&lt; T &gt; &gt;</text>
</a>
</g>
</g>
<!-- Node2&#45;&gt;Node1 -->
<g id="edge1" class="edge">
<title>Node2&#45;&gt;Node1</title>
<path fill="none" stroke="midnightblue" d="M82,-58.03C82,-48.86 82,-38.74 82,-30.79"/>
<polygon fill="midnightblue" stroke="midnightblue" points="78.5,-58.18 82,-68.18 85.5,-58.18 78.5,-58.18"/>
</g>
<!-- Node3 -->
<g id="node3" class="node">
<title>Node3</title>
<g id="a_node3"><a xlink:href="structCDPL_1_1Math_1_1ComplexTraits.html" target="_top" xlink:title=" ">
<polygon fill="none" stroke="black" points="0,-146.5 0,-165.5 164,-165.5 164,-146.5 0,-146.5"/>
<text text-anchor="middle" x="82" y="-153.5" font-family="Helvetica" font-size="10.00">CDPL::Math::ComplexTraits&lt; T &gt;</text>
</a>
</g>
</g>
<!-- Node3&#45;&gt;Node2 -->
<g id="edge2" class="edge">
<title>Node3&#45;&gt;Node2</title>
<path fill="none" stroke="orange" stroke-dasharray="5,2" d="M82,-136.24C82,-124.41 82,-109.38 82,-98.58"/>
<polygon fill="orange" stroke="orange" points="78.5,-136.36 82,-146.36 85.5,-136.36 78.5,-136.36"/>
<text text-anchor="middle" x="133" y="-120" font-family="Helvetica" font-size="10.00"> &lt; std::complex&lt; T &gt; &gt;</text>
</g>
</g>
</svg>
