<?xml version="1.0" encoding="UTF-8" standalone="no"?>
<!DOCTYPE svg PUBLIC "-//W3C//DTD SVG 1.1//EN"
 "http://www.w3.org/Graphics/SVG/1.1/DTD/svg11.dtd">
<!-- Generated by graphviz version 2.44.0 (0)
 -->
<!-- Title: CDPL::Math::TypeTraits&lt; T &gt; Pages: 1 -->
<svg width="206pt" height="264pt"
 viewBox="0.00 0.00 206.00 264.00" xmlns="http://www.w3.org/2000/svg" xmlns:xlink="http://www.w3.org/1999/xlink">
<g id="graph0" class="graph" transform="scale(1 1) rotate(0) translate(4 260)">
<title>CDPL::Math::TypeTraits&lt; T &gt;</title>
<!-- Node1 -->
<g id="node1" class="node">
<title>Node1</title>
<g id="a_node1"><a xlink:title=" ">
<polygon fill="#bfbfbf" stroke="black" points="3,-179.5 3,-198.5 149,-198.5 149,-179.5 3,-179.5"/>
<text text-anchor="middle" x="76" y="-186.5" font-family="Helvetica" font-size="10.00">CDPL::Math::TypeTraits&lt; T &gt;</text>
</a>
</g>
</g>
<!-- Node3 -->
<g id="node3" class="node">
<title>Node3</title>
<g id="a_node3"><a xlink:href="structCDPL_1_1Math_1_1TypeTraits.html" target="_top" xlink:title=" ">
<polygon fill="none" stroke="black" points="8.5,-79.5 8.5,-120.5 143.5,-120.5 143.5,-79.5 8.5,-79.5"/>
<text text-anchor="start" x="16.5" y="-108.5" font-family="Helvetica" font-size="10.00">CDPL::Math::TypeTraits</text>
<text text-anchor="start" x="16.5" y="-97.5" font-family="Helvetica" font-size="10.00">&lt; SparseContainerElement</text>
<text text-anchor="middle" x="76" y="-86.5" font-family="Helvetica" font-size="10.00">&lt; C &gt;::ValueType &gt;</text>
</a>
</g>
</g>
<!-- Node1&#45;&gt;Node3 -->
<g id="edge2" class="edge">
<title>Node1&#45;&gt;Node3</title>
<path fill="none" stroke="orange" stroke-dasharray="5,2" d="M76,-169.2C76,-154.88 76,-135.21 76,-120.68"/>
<polygon fill="orange" stroke="orange" points="72.5,-169.34 76,-179.34 79.5,-169.34 72.5,-169.34"/>
<text text-anchor="start" x="76" y="-153" font-family="Helvetica" font-size="10.00"> &lt; SparseContainerElement</text>
<text text-anchor="middle" x="137" y="-142" font-family="Helvetica" font-size="10.00">&lt; C &gt;::ValueType &gt;</text>
</g>
<!-- Node2 -->
<g id="node2" class="node">
<title>Node2</title>
<g id="a_node2"><a xlink:href="structCDPL_1_1Math_1_1ScalarTraits.html" target="_top" xlink:title=" ">
<polygon fill="none" stroke="black" points="0,-236.5 0,-255.5 152,-255.5 152,-236.5 0,-236.5"/>
<text text-anchor="middle" x="76" y="-243.5" font-family="Helvetica" font-size="10.00">CDPL::Math::ScalarTraits&lt; T &gt;</text>
</a>
</g>
</g>
<!-- Node2&#45;&gt;Node1 -->
<g id="edge1" class="edge">
<title>Node2&#45;&gt;Node1</title>
<path fill="none" stroke="midnightblue" d="M76,-226.12C76,-216.82 76,-206.06 76,-198.71"/>
<polygon fill="midnightblue" stroke="midnightblue" points="72.5,-226.41 76,-236.41 79.5,-226.41 72.5,-226.41"/>
</g>
<!-- Node4 -->
<g id="node4" class="node">
<title>Node4</title>
<g id="a_node4"><a xlink:href="structCDPL_1_1Math_1_1TypeTraits_3_01SparseContainerElement_3_01C_01_4_01_4.html" target="_top" xlink:title=" ">
<polygon fill="none" stroke="black" points="8.5,-0.5 8.5,-41.5 143.5,-41.5 143.5,-0.5 8.5,-0.5"/>
<text text-anchor="start" x="16.5" y="-29.5" font-family="Helvetica" font-size="10.00">CDPL::Math::TypeTraits</text>
<text text-anchor="start" x="16.5" y="-18.5" font-family="Helvetica" font-size="10.00">&lt; SparseContainerElement</text>
<text text-anchor="middle" x="76" y="-7.5" font-family="Helvetica" font-size="10.00">&lt; C &gt; &gt;</text>
</a>
</g>
</g>
<!-- Node3&#45;&gt;Node4 -->
<g id="edge3" class="edge">
<title>Node3&#45;&gt;Node4</title>
<path fill="none" stroke="midnightblue" d="M76,-68.91C76,-59.79 76,-50.02 76,-41.76"/>
<polygon fill="midnightblue" stroke="midnightblue" points="72.5,-69.17 76,-79.17 79.5,-69.17 72.5,-69.17"/>
</g>
</g>
</svg>
