<?xml version="1.0" encoding="UTF-8" standalone="no"?>
<!DOCTYPE svg PUBLIC "-//W3C//DTD SVG 1.1//EN"
 "http://www.w3.org/Graphics/SVG/1.1/DTD/svg11.dtd">
<!-- Generated by graphviz version 2.40.1 (0)
 -->
<!-- Title: CDPL::Math::GridCoordinatesMatrixTransformTraits&lt; MatrixType &gt; Pages: 1 -->
<svg width="778pt" height="110pt"
 viewBox="0.00 0.00 778.00 110.00" xmlns="http://www.w3.org/2000/svg" xmlns:xlink="http://www.w3.org/1999/xlink">
<g id="graph0" class="graph" transform="scale(1 1) rotate(0) translate(4 106)">
<title>CDPL::Math::GridCoordinatesMatrixTransformTraits&lt; MatrixType &gt;</title>
<!-- Node1 -->
<g id="node1" class="node">
<title>Node1</title>
<g id="a_node1"><a xlink:title=" ">
<polygon fill="#bfbfbf" stroke="#000000" points="0,-35 0,-65 198,-65 198,-35 0,-35"/>
<text text-anchor="start" x="8" y="-53" font-family="Helvetica,sans-Serif" font-size="10.00" fill="#000000">CDPL::Math::GridCoordinates</text>
<text text-anchor="middle" x="99" y="-42" font-family="Helvetica,sans-Serif" font-size="10.00" fill="#000000">MatrixTransformTraits&lt; MatrixType &gt;</text>
</a>
</g>
</g>
<!-- Node2 -->
<g id="node2" class="node">
<title>Node2</title>
<g id="a_node2"><a xlink:href="structCDPL_1_1Math_1_1GridCoordinatesMatrixTransformTraits.html" target="_top" xlink:title=" ">
<polygon fill="none" stroke="#000000" points="368,-60.5 368,-101.5 539,-101.5 539,-60.5 368,-60.5"/>
<text text-anchor="start" x="376" y="-89.5" font-family="Helvetica,sans-Serif" font-size="10.00" fill="#000000">CDPL::Math::GridCoordinates</text>
<text text-anchor="start" x="376" y="-78.5" font-family="Helvetica,sans-Serif" font-size="10.00" fill="#000000">MatrixTransformTraits&lt; CMatrix</text>
<text text-anchor="middle" x="453.5" y="-67.5" font-family="Helvetica,sans-Serif" font-size="10.00" fill="#000000">&lt; T, 4, 4 &gt; &gt;</text>
</a>
</g>
</g>
<!-- Node1&#45;&gt;Node2 -->
<g id="edge1" class="edge">
<title>Node1&#45;&gt;Node2</title>
<path fill="none" stroke="#ffa500" stroke-dasharray="5,2" d="M208.356,-59.5629C259.6664,-64.0498 319.9189,-69.3187 367.8492,-73.5101"/>
<polygon fill="#ffa500" stroke="#ffa500" points="208.4863,-56.061 198.2194,-58.6764 207.8765,-63.0344 208.4863,-56.061"/>
<text text-anchor="middle" x="274" y="-73" font-family="Helvetica,sans-Serif" font-size="10.00" fill="#000000"> &lt; CMatrix&lt; T, 4, 4 &gt; &gt;</text>
</g>
<!-- Node4 -->
<g id="node4" class="node">
<title>Node4</title>
<g id="a_node4"><a xlink:href="structCDPL_1_1Math_1_1GridCoordinatesMatrixTransformTraits.html" target="_top" xlink:title=" ">
<polygon fill="none" stroke="#000000" points="350,-.5 350,-41.5 557,-41.5 557,-.5 350,-.5"/>
<text text-anchor="start" x="358" y="-29.5" font-family="Helvetica,sans-Serif" font-size="10.00" fill="#000000">CDPL::Math::GridCoordinates</text>
<text text-anchor="start" x="358" y="-18.5" font-family="Helvetica,sans-Serif" font-size="10.00" fill="#000000">MatrixTransformTraits&lt; BoundedMatrix</text>
<text text-anchor="middle" x="453.5" y="-7.5" font-family="Helvetica,sans-Serif" font-size="10.00" fill="#000000">&lt; T, 4, 4 &gt; &gt;</text>
</a>
</g>
</g>
<!-- Node1&#45;&gt;Node4 -->
<g id="edge3" class="edge">
<title>Node1&#45;&gt;Node4</title>
<path fill="none" stroke="#ffa500" stroke-dasharray="5,2" d="M207.8591,-33.8379C210.5984,-33.5424 213.3156,-33.2623 216,-33 259.7604,-28.7248 308.2147,-25.9299 349.8838,-24.1235"/>
<polygon fill="#ffa500" stroke="#ffa500" points="207.4042,-30.3669 197.8617,-34.9703 208.1921,-37.3224 207.4042,-30.3669"/>
<text text-anchor="start" x="219.5" y="-47" font-family="Helvetica,sans-Serif" font-size="10.00" fill="#000000"> &lt; BoundedMatrix&lt; T,</text>
<text text-anchor="middle" x="274" y="-36" font-family="Helvetica,sans-Serif" font-size="10.00" fill="#000000"> 4, 4 &gt; &gt;</text>
</g>
<!-- Node3 -->
<g id="node3" class="node">
<title>Node3</title>
<g id="a_node3"><a xlink:href="structCDPL_1_1Math_1_1GridCoordinatesTransformTraits_3_01CMatrix_3_01T_00_014_00_014_01_4_01_4.html" target="_top" xlink:title=" ">
<polygon fill="none" stroke="#000000" points="603.5,-60.5 603.5,-101.5 760.5,-101.5 760.5,-60.5 603.5,-60.5"/>
<text text-anchor="start" x="611.5" y="-89.5" font-family="Helvetica,sans-Serif" font-size="10.00" fill="#000000">CDPL::Math::GridCoordinates</text>
<text text-anchor="start" x="611.5" y="-78.5" font-family="Helvetica,sans-Serif" font-size="10.00" fill="#000000">TransformTraits&lt; CMatrix</text>
<text text-anchor="middle" x="682" y="-67.5" font-family="Helvetica,sans-Serif" font-size="10.00" fill="#000000">&lt; T, 4, 4 &gt; &gt;</text>
</a>
</g>
</g>
<!-- Node2&#45;&gt;Node3 -->
<g id="edge2" class="edge">
<title>Node2&#45;&gt;Node3</title>
<path fill="none" stroke="#191970" d="M549.4284,-81C567.3866,-81 585.9649,-81 603.3258,-81"/>
<polygon fill="#191970" stroke="#191970" points="549.2351,-77.5001 539.2351,-81 549.235,-84.5001 549.2351,-77.5001"/>
</g>
<!-- Node5 -->
<g id="node5" class="node">
<title>Node5</title>
<g id="a_node5"><a xlink:href="structCDPL_1_1Math_1_1GridCoordinatesTransformTraits_3_01BoundedMatrix_3_01T_00_014_00_014_01_4_01_4.html" target="_top" xlink:title=" ">
<polygon fill="none" stroke="#000000" points="594,-.5 594,-41.5 770,-41.5 770,-.5 594,-.5"/>
<text text-anchor="start" x="602" y="-29.5" font-family="Helvetica,sans-Serif" font-size="10.00" fill="#000000">CDPL::Math::GridCoordinates</text>
<text text-anchor="start" x="602" y="-18.5" font-family="Helvetica,sans-Serif" font-size="10.00" fill="#000000">TransformTraits&lt; BoundedMatrix</text>
<text text-anchor="middle" x="682" y="-7.5" font-family="Helvetica,sans-Serif" font-size="10.00" fill="#000000">&lt; T, 4, 4 &gt; &gt;</text>
</a>
</g>
</g>
<!-- Node4&#45;&gt;Node5 -->
<g id="edge4" class="edge">
<title>Node4&#45;&gt;Node5</title>
<path fill="none" stroke="#191970" d="M567.1525,-21C576.11,-21 585.0724,-21 593.8194,-21"/>
<polygon fill="#191970" stroke="#191970" points="567.053,-17.5001 557.053,-21 567.053,-24.5001 567.053,-17.5001"/>
</g>
</g>
</svg>
