<?xml version="1.0" encoding="UTF-8" standalone="no"?>
<!DOCTYPE svg PUBLIC "-//W3C//DTD SVG 1.1//EN"
 "http://www.w3.org/Graphics/SVG/1.1/DTD/svg11.dtd">
<!-- Generated by graphviz version 2.44.0 (0)
 -->
<!-- Title: CDPL::Math::MinimizerVariableArrayTraits&lt; A &gt; Pages: 1 -->
<svg width="522pt" height="88pt"
 viewBox="0.00 0.00 522.00 88.00" xmlns="http://www.w3.org/2000/svg" xmlns:xlink="http://www.w3.org/1999/xlink">
<g id="graph0" class="graph" transform="scale(1 1) rotate(0) translate(4 84)">
<title>CDPL::Math::MinimizerVariableArrayTraits&lt; A &gt;</title>
<!-- Node1 -->
<g id="node1" class="node">
<title>Node1</title>
<g id="a_node1"><a xlink:title=" ">
<polygon fill="#bfbfbf" stroke="black" points="0,-24.5 0,-54.5 152,-54.5 152,-24.5 0,-24.5"/>
<text text-anchor="start" x="8" y="-42.5" font-family="Helvetica" font-size="10.00">CDPL::Math::MinimizerVariable</text>
<text text-anchor="middle" x="76" y="-31.5" font-family="Helvetica" font-size="10.00">ArrayTraits&lt; A &gt;</text>
</a>
</g>
</g>
<!-- Node2 -->
<g id="node2" class="node">
<title>Node2</title>
<g id="a_node2"><a xlink:href="structCDPL_1_1Math_1_1MinimizerVariableArrayTraits.html" target="_top" xlink:title=" ">
<polygon fill="none" stroke="black" points="321,-49.5 321,-79.5 514,-79.5 514,-49.5 321,-49.5"/>
<text text-anchor="start" x="329" y="-67.5" font-family="Helvetica" font-size="10.00">CDPL::Math::MinimizerVariable</text>
<text text-anchor="middle" x="417.5" y="-56.5" font-family="Helvetica" font-size="10.00">ArrayTraits&lt; QuaternionTransformation &gt;</text>
</a>
</g>
</g>
<!-- Node1&#45;&gt;Node2 -->
<g id="edge1" class="edge">
<title>Node1&#45;&gt;Node2</title>
<path fill="none" stroke="orange" stroke-dasharray="5,2" d="M162.45,-45.79C210.72,-49.35 271.16,-53.8 320.99,-57.47"/>
<polygon fill="orange" stroke="orange" points="162.58,-42.29 152.35,-45.05 162.06,-49.27 162.58,-42.29"/>
<text text-anchor="middle" x="236.5" y="-58.5" font-family="Helvetica" font-size="10.00"> &lt; QuaternionTransformation &gt;</text>
</g>
<!-- Node3 -->
<g id="node3" class="node">
<title>Node3</title>
<g id="a_node3"><a xlink:href="structCDPL_1_1Math_1_1MinimizerVariableArrayTraits.html" target="_top" xlink:title=" ">
<polygon fill="none" stroke="black" points="341.5,-0.5 341.5,-30.5 493.5,-30.5 493.5,-0.5 341.5,-0.5"/>
<text text-anchor="start" x="349.5" y="-18.5" font-family="Helvetica" font-size="10.00">CDPL::Math::MinimizerVariable</text>
<text text-anchor="middle" x="417.5" y="-7.5" font-family="Helvetica" font-size="10.00">ArrayTraits&lt; VA &gt;</text>
</a>
</g>
</g>
<!-- Node1&#45;&gt;Node3 -->
<g id="edge2" class="edge">
<title>Node1&#45;&gt;Node3</title>
<path fill="none" stroke="orange" stroke-dasharray="5,2" d="M162.26,-32.09C164.87,-31.89 167.45,-31.69 170,-31.5 227.52,-27.16 292.64,-22.96 341.5,-19.96"/>
<polygon fill="orange" stroke="orange" points="161.8,-28.62 152.11,-32.9 162.36,-35.6 161.8,-28.62"/>
<text text-anchor="middle" x="236.5" y="-34.5" font-family="Helvetica" font-size="10.00"> &lt; VA &gt;</text>
</g>
</g>
</svg>
