<?xml version="1.0" encoding="UTF-8" standalone="no"?>
<!DOCTYPE svg PUBLIC "-//W3C//DTD SVG 1.1//EN"
 "http://www.w3.org/Graphics/SVG/1.1/DTD/svg11.dtd">
<!-- Generated by graphviz version 2.44.0 (0)
 -->
<!-- Title: CDPL::Math::VectorTemporaryTraits&lt; V &gt; Pages: 1 -->
<!--zoomable 764 -->
<svg id="main" version="1.1" xmlns="http://www.w3.org/2000/svg" xmlns:xlink="http://www.w3.org/1999/xlink" xml:space="preserve" onload="init(evt)">
<style type="text/css"><![CDATA[
.edge:hover path { stroke: red; }
.edge:hover polygon { stroke: red; fill: red; }
]]></style>
<script type="text/javascript"><![CDATA[
var edges = document.getElementsByTagName('g');
if (edges && edges.length) {
  for (var i=0;i<edges.length;i++) {
    if (edges[i].id.substr(0,4)=='edge') {
      edges[i].setAttribute('class','edge');
    }
  }
}
]]></script>
        <defs>
                <circle id="rim" cx="0" cy="0" r="7"/>
                <circle id="rim2" cx="0" cy="0" r="3.5"/>
                <g id="zoomPlus">
                        <use xlink:href="#rim" fill="#404040">
                                <set attributeName="fill" to="#808080" begin="zoomplus.mouseover" end="zoomplus.mouseout"/>
                        </use>
                        <path d="M-4,0h8M0,-4v8" fill="none" stroke="white" stroke-width="1.5" pointer-events="none"/>
                </g>
                <g id="zoomMin">
                        <use xlink:href="#rim" fill="#404040">
                                <set attributeName="fill" to="#808080" begin="zoomminus.mouseover" end="zoomminus.mouseout"/>
                        </use>
                        <path d="M-4,0h8" fill="none" stroke="white" stroke-width="1.5" pointer-events="none"/>
                </g>
                <g id="dirArrow">
                        <path fill="none" stroke="white" stroke-width="1.5" d="M0,-3.0v7 M-2.5,-0.5L0,-3.0L2.5,-0.5"/>
                </g>
               <g id="resetDef">
                       <use xlink:href="#rim2" fill="#404040">
                               <set attributeName="fill" to="#808080" begin="reset.mouseover" end="reset.mouseout"/>
                       </use>
               </g>
        </defs>

<script type="text/javascript">
var viewWidth = 679;
var viewHeight = 764;
var sectionId = 'dynsection-0';
</script>
<script xlink:href="svgpan.js"/>
<svg id="graph" class="graph">
<g id="viewport">
<title>CDPL::Math::VectorTemporaryTraits&lt; V &gt;</title>
<!-- Node1 -->
<g id="node1" class="node">
<title>Node1</title>
<g id="a_node1"><a xlink:title=" ">
<polygon fill="#bfbfbf" stroke="black" points="0,-529 0,-559 151,-559 151,-529 0,-529"/>
<text text-anchor="start" x="8" y="-547" font-family="Helvetica" font-size="10.00">CDPL::Math::VectorTemporary</text>
<text text-anchor="middle" x="75.5" y="-536" font-family="Helvetica" font-size="10.00">Traits&lt; V &gt;</text>
</a>
</g>
</g>
<!-- Node2 -->
<g id="node2" class="node">
<title>Node2</title>
<g id="a_node2"><a xlink:href="structCDPL_1_1Math_1_1VectorTemporaryTraits_3_01const_01HomogenousCoordsAdapter_3_01V_01_4_01_4.html" target="_top" xlink:title=" ">
<polygon fill="none" stroke="black" points="217,-725 217,-755 450,-755 450,-725 217,-725"/>
<text text-anchor="start" x="225" y="-743" font-family="Helvetica" font-size="10.00">CDPL::Math::VectorTemporary</text>
<text text-anchor="middle" x="333.5" y="-732" font-family="Helvetica" font-size="10.00">Traits&lt; const HomogenousCoordsAdapter&lt; V &gt; &gt;</text>
</a>
</g>
</g>
<!-- Node1&#45;&gt;Node2 -->
<g id="edge1" class="edge">
<title>Node1&#45;&gt;Node2</title>
<path fill="none" stroke="midnightblue" d="M88.85,-568.02C109.73,-606.04 155.8,-679.49 217,-716 222.8,-719.46 229.03,-722.43 235.48,-724.98"/>
<polygon fill="midnightblue" stroke="midnightblue" points="91.9,-566.31 84.09,-559.16 85.74,-569.63 91.9,-566.31"/>
</g>
<!-- Node3 -->
<g id="node3" class="node">
<title>Node3</title>
<g id="a_node3"><a xlink:href="structCDPL_1_1Math_1_1VectorTemporaryTraits_3_01const_01VectorRange_3_01V_01_4_01_4.html" target="_top" xlink:title=" ">
<polygon fill="none" stroke="black" points="250.5,-676 250.5,-706 416.5,-706 416.5,-676 250.5,-676"/>
<text text-anchor="start" x="258.5" y="-694" font-family="Helvetica" font-size="10.00">CDPL::Math::VectorTemporary</text>
<text text-anchor="middle" x="333.5" y="-683" font-family="Helvetica" font-size="10.00">Traits&lt; const VectorRange&lt; V &gt; &gt;</text>
</a>
</g>
</g>
<!-- Node1&#45;&gt;Node3 -->
<g id="edge2" class="edge">
<title>Node1&#45;&gt;Node3</title>
<path fill="none" stroke="midnightblue" d="M95.82,-567C120.81,-595.15 167.08,-642.14 217,-667 227.36,-672.16 238.77,-676.21 250.27,-679.39"/>
<polygon fill="midnightblue" stroke="midnightblue" points="98.27,-564.49 89.06,-559.25 93,-569.09 98.27,-564.49"/>
</g>
<!-- Node4 -->
<g id="node4" class="node">
<title>Node4</title>
<g id="a_node4"><a xlink:href="structCDPL_1_1Math_1_1VectorTemporaryTraits_3_01const_01VectorReference_3_01V_01_4_01_4.html" target="_top" xlink:title=" ">
<polygon fill="none" stroke="black" points="242.5,-627 242.5,-657 424.5,-657 424.5,-627 242.5,-627"/>
<text text-anchor="start" x="250.5" y="-645" font-family="Helvetica" font-size="10.00">CDPL::Math::VectorTemporary</text>
<text text-anchor="middle" x="333.5" y="-634" font-family="Helvetica" font-size="10.00">Traits&lt; const VectorReference&lt; V &gt; &gt;</text>
</a>
</g>
</g>
<!-- Node1&#45;&gt;Node4 -->
<g id="edge3" class="edge">
<title>Node1&#45;&gt;Node4</title>
<path fill="none" stroke="midnightblue" d="M109.28,-564.65C137.01,-581.28 178.3,-604.1 217,-618 226.44,-621.39 236.51,-624.37 246.6,-626.96"/>
<polygon fill="midnightblue" stroke="midnightblue" points="110.78,-561.47 100.42,-559.27 107.15,-567.45 110.78,-561.47"/>
</g>
<!-- Node5 -->
<g id="node5" class="node">
<title>Node5</title>
<g id="a_node5"><a xlink:href="structCDPL_1_1Math_1_1VectorTemporaryTraits_3_01const_01VectorSlice_3_01V_01_4_01_4.html" target="_top" xlink:title=" ">
<polygon fill="none" stroke="black" points="253.5,-578 253.5,-608 413.5,-608 413.5,-578 253.5,-578"/>
<text text-anchor="start" x="261.5" y="-596" font-family="Helvetica" font-size="10.00">CDPL::Math::VectorTemporary</text>
<text text-anchor="middle" x="333.5" y="-585" font-family="Helvetica" font-size="10.00">Traits&lt; const VectorSlice&lt; V &gt; &gt;</text>
</a>
</g>
</g>
<!-- Node1&#45;&gt;Node5 -->
<g id="edge4" class="edge">
<title>Node1&#45;&gt;Node5</title>
<path fill="none" stroke="midnightblue" d="M161.24,-560.22C191.19,-565.95 224.71,-572.37 254.11,-578"/>
<polygon fill="midnightblue" stroke="midnightblue" points="161.71,-556.75 151.23,-558.3 160.4,-563.62 161.71,-556.75"/>
</g>
<!-- Node6 -->
<g id="node6" class="node">
<title>Node6</title>
<g id="a_node6"><a xlink:href="structCDPL_1_1Math_1_1VectorTemporaryTraits_3_01HomogenousCoordsAdapter_3_01V_01_4_01_4.html" target="_top" xlink:title=" ">
<polygon fill="none" stroke="black" points="230.5,-529 230.5,-559 436.5,-559 436.5,-529 230.5,-529"/>
<text text-anchor="start" x="238.5" y="-547" font-family="Helvetica" font-size="10.00">CDPL::Math::VectorTemporary</text>
<text text-anchor="middle" x="333.5" y="-536" font-family="Helvetica" font-size="10.00">Traits&lt; HomogenousCoordsAdapter&lt; V &gt; &gt;</text>
</a>
</g>
</g>
<!-- Node1&#45;&gt;Node6 -->
<g id="edge5" class="edge">
<title>Node1&#45;&gt;Node6</title>
<path fill="none" stroke="midnightblue" d="M161.51,-544C183.47,-544 207.34,-544 230.08,-544"/>
<polygon fill="midnightblue" stroke="midnightblue" points="161.23,-540.5 151.23,-544 161.23,-547.5 161.23,-540.5"/>
</g>
<!-- Node7 -->
<g id="node7" class="node">
<title>Node7</title>
<g id="a_node7"><a xlink:href="structCDPL_1_1Math_1_1VectorTemporaryTraits_3_01VectorRange_3_01V_01_4_01_4.html" target="_top" xlink:title=" ">
<polygon fill="none" stroke="black" points="258,-480 258,-510 409,-510 409,-480 258,-480"/>
<text text-anchor="start" x="266" y="-498" font-family="Helvetica" font-size="10.00">CDPL::Math::VectorTemporary</text>
<text text-anchor="middle" x="333.5" y="-487" font-family="Helvetica" font-size="10.00">Traits&lt; VectorRange&lt; V &gt; &gt;</text>
</a>
</g>
</g>
<!-- Node1&#45;&gt;Node7 -->
<g id="edge6" class="edge">
<title>Node1&#45;&gt;Node7</title>
<path fill="none" stroke="midnightblue" d="M161.21,-527.79C192.38,-521.82 227.43,-515.11 257.67,-509.32"/>
<polygon fill="midnightblue" stroke="midnightblue" points="160.4,-524.38 151.23,-529.7 161.71,-531.25 160.4,-524.38"/>
</g>
<!-- Node8 -->
<g id="node8" class="node">
<title>Node8</title>
<g id="a_node8"><a xlink:href="structCDPL_1_1Math_1_1VectorTemporaryTraits_3_01VectorReference_3_01V_01_4_01_4.html" target="_top" xlink:title=" ">
<polygon fill="none" stroke="black" points="256,-431 256,-461 411,-461 411,-431 256,-431"/>
<text text-anchor="start" x="264" y="-449" font-family="Helvetica" font-size="10.00">CDPL::Math::VectorTemporary</text>
<text text-anchor="middle" x="333.5" y="-438" font-family="Helvetica" font-size="10.00">Traits&lt; VectorReference&lt; V &gt; &gt;</text>
</a>
</g>
</g>
<!-- Node1&#45;&gt;Node8 -->
<g id="edge7" class="edge">
<title>Node1&#45;&gt;Node8</title>
<path fill="none" stroke="midnightblue" d="M109.85,-523.44C137.62,-507.12 178.67,-484.83 217,-471 229.35,-466.54 242.75,-462.75 255.89,-459.58"/>
<polygon fill="midnightblue" stroke="midnightblue" points="107.77,-520.6 100.97,-528.72 111.35,-526.62 107.77,-520.6"/>
</g>
<!-- Node9 -->
<g id="node9" class="node">
<title>Node9</title>
<g id="a_node9"><a xlink:href="structCDPL_1_1Math_1_1VectorTemporaryTraits_3_01VectorSlice_3_01V_01_4_01_4.html" target="_top" xlink:title=" ">
<polygon fill="none" stroke="black" points="258,-382 258,-412 409,-412 409,-382 258,-382"/>
<text text-anchor="start" x="266" y="-400" font-family="Helvetica" font-size="10.00">CDPL::Math::VectorTemporary</text>
<text text-anchor="middle" x="333.5" y="-389" font-family="Helvetica" font-size="10.00">Traits&lt; VectorSlice&lt; V &gt; &gt;</text>
</a>
</g>
</g>
<!-- Node1&#45;&gt;Node9 -->
<g id="edge8" class="edge">
<title>Node1&#45;&gt;Node9</title>
<path fill="none" stroke="midnightblue" d="M95.9,-521.26C120.96,-493.41 167.31,-446.87 217,-422 229.66,-415.66 243.88,-410.93 257.91,-407.39"/>
<polygon fill="midnightblue" stroke="midnightblue" points="93.12,-519.11 89.11,-528.92 98.36,-523.75 93.12,-519.11"/>
</g>
<!-- Node10 -->
<g id="node10" class="node">
<title>Node10</title>
<g id="a_node10"><a xlink:href="structCDPL_1_1Math_1_1VectorTemporaryTraits.html" target="_top" xlink:title=" ">
<polygon fill="none" stroke="black" points="258,-333 258,-363 409,-363 409,-333 258,-333"/>
<text text-anchor="start" x="266" y="-351" font-family="Helvetica" font-size="10.00">CDPL::Math::VectorTemporary</text>
<text text-anchor="middle" x="333.5" y="-340" font-family="Helvetica" font-size="10.00">Traits&lt; M &gt;</text>
</a>
</g>
</g>
<!-- Node1&#45;&gt;Node10 -->
<g id="edge9" class="edge">
<title>Node1&#45;&gt;Node10</title>
<path fill="none" stroke="orange" stroke-dasharray="5,2" d="M88.19,-520.01C108.44,-481.42 153.98,-406.5 217,-373 229.59,-366.31 243.86,-361.4 257.96,-357.82"/>
<polygon fill="orange" stroke="orange" points="85.04,-518.49 83.6,-528.99 91.27,-521.68 85.04,-518.49"/>
<text text-anchor="middle" x="184" y="-411" font-family="Helvetica" font-size="10.00"> &lt; M &gt;</text>
</g>
<!-- Node11 -->
<g id="node11" class="node">
<title>Node11</title>
<g id="a_node11"><a xlink:href="structCDPL_1_1Math_1_1VectorTemporaryTraits_3_01const_01MatrixColumn_3_01M_01_4_01_4.html" target="_top" xlink:title=" ">
<polygon fill="none" stroke="black" points="492.5,-661 492.5,-691 665.5,-691 665.5,-661 492.5,-661"/>
<text text-anchor="start" x="500.5" y="-679" font-family="Helvetica" font-size="10.00">CDPL::Math::VectorTemporary</text>
<text text-anchor="middle" x="579" y="-668" font-family="Helvetica" font-size="10.00">Traits&lt; const MatrixColumn&lt; M &gt; &gt;</text>
</a>
</g>
</g>
<!-- Node10&#45;&gt;Node11 -->
<g id="edge10" class="edge">
<title>Node10&#45;&gt;Node11</title>
<path fill="none" stroke="midnightblue" d="M418.83,-353.45C430.61,-357.61 441.55,-363.83 450,-373 471.2,-395.99 466.32,-628.54 487,-652 490.02,-655.43 493.48,-658.4 497.23,-660.97"/>
<polygon fill="midnightblue" stroke="midnightblue" points="419.82,-350.09 409.23,-350.54 417.79,-356.79 419.82,-350.09"/>
</g>
<!-- Node12 -->
<g id="node12" class="node">
<title>Node12</title>
<g id="a_node12"><a xlink:href="structCDPL_1_1Math_1_1VectorTemporaryTraits_3_01const_01MatrixRange_3_01M_01_4_01_4.html" target="_top" xlink:title=" ">
<polygon fill="none" stroke="black" points="495.5,-612 495.5,-642 662.5,-642 662.5,-612 495.5,-612"/>
<text text-anchor="start" x="503.5" y="-630" font-family="Helvetica" font-size="10.00">CDPL::Math::VectorTemporary</text>
<text text-anchor="middle" x="579" y="-619" font-family="Helvetica" font-size="10.00">Traits&lt; const MatrixRange&lt; M &gt; &gt;</text>
</a>
</g>
</g>
<!-- Node10&#45;&gt;Node12 -->
<g id="edge11" class="edge">
<title>Node10&#45;&gt;Node12</title>
<path fill="none" stroke="midnightblue" d="M419.19,-353.86C430.77,-357.99 441.57,-364.1 450,-373 467.81,-391.79 469.62,-583.82 487,-603 490.07,-606.39 493.56,-609.33 497.34,-611.87"/>
<polygon fill="midnightblue" stroke="midnightblue" points="419.88,-350.41 409.3,-350.83 417.84,-357.11 419.88,-350.41"/>
</g>
<!-- Node13 -->
<g id="node13" class="node">
<title>Node13</title>
<g id="a_node13"><a xlink:href="structCDPL_1_1Math_1_1VectorTemporaryTraits_3_01const_01MatrixReference_3_01M_01_4_01_4.html" target="_top" xlink:title=" ">
<polygon fill="none" stroke="black" points="487.5,-563 487.5,-593 670.5,-593 670.5,-563 487.5,-563"/>
<text text-anchor="start" x="495.5" y="-581" font-family="Helvetica" font-size="10.00">CDPL::Math::VectorTemporary</text>
<text text-anchor="middle" x="579" y="-570" font-family="Helvetica" font-size="10.00">Traits&lt; const MatrixReference&lt; M &gt; &gt;</text>
</a>
</g>
</g>
<!-- Node10&#45;&gt;Node13 -->
<g id="edge12" class="edge">
<title>Node10&#45;&gt;Node13</title>
<path fill="none" stroke="midnightblue" d="M419.09,-354.26C430.63,-358.35 441.44,-364.34 450,-373 464.43,-387.6 472.9,-539.08 487,-554 490.25,-557.44 493.94,-560.41 497.92,-562.98"/>
<polygon fill="midnightblue" stroke="midnightblue" points="419.83,-350.83 409.25,-351.25 417.79,-357.52 419.83,-350.83"/>
</g>
<!-- Node14 -->
<g id="node14" class="node">
<title>Node14</title>
<g id="a_node14"><a xlink:href="structCDPL_1_1Math_1_1VectorTemporaryTraits_3_01const_01MatrixRow_3_01M_01_4_01_4.html" target="_top" xlink:title=" ">
<polygon fill="none" stroke="black" points="499.5,-514 499.5,-544 658.5,-544 658.5,-514 499.5,-514"/>
<text text-anchor="start" x="507.5" y="-532" font-family="Helvetica" font-size="10.00">CDPL::Math::VectorTemporary</text>
<text text-anchor="middle" x="579" y="-521" font-family="Helvetica" font-size="10.00">Traits&lt; const MatrixRow&lt; M &gt; &gt;</text>
</a>
</g>
</g>
<!-- Node10&#45;&gt;Node14 -->
<g id="edge13" class="edge">
<title>Node10&#45;&gt;Node14</title>
<path fill="none" stroke="midnightblue" d="M419.01,-354.97C430.45,-358.98 441.25,-364.76 450,-373 472.18,-393.88 465.29,-483.63 487,-505 490.73,-508.67 494.94,-511.79 499.47,-514.46"/>
<polygon fill="midnightblue" stroke="midnightblue" points="419.85,-351.57 409.27,-352 417.81,-358.27 419.85,-351.57"/>
</g>
<!-- Node15 -->
<g id="node15" class="node">
<title>Node15</title>
<g id="a_node15"><a xlink:href="structCDPL_1_1Math_1_1VectorTemporaryTraits_3_01const_01MatrixSlice_3_01M_01_4_01_4.html" target="_top" xlink:title=" ">
<polygon fill="none" stroke="black" points="498.5,-465 498.5,-495 659.5,-495 659.5,-465 498.5,-465"/>
<text text-anchor="start" x="506.5" y="-483" font-family="Helvetica" font-size="10.00">CDPL::Math::VectorTemporary</text>
<text text-anchor="middle" x="579" y="-472" font-family="Helvetica" font-size="10.00">Traits&lt; const MatrixSlice&lt; M &gt; &gt;</text>
</a>
</g>
</g>
<!-- Node10&#45;&gt;Node15 -->
<g id="edge14" class="edge">
<title>Node10&#45;&gt;Node15</title>
<path fill="none" stroke="midnightblue" d="M418.67,-356.38C430,-360.22 440.86,-365.57 450,-373 481.35,-398.47 456.23,-429.84 487,-456 490.98,-459.39 495.39,-462.3 500.06,-464.81"/>
<polygon fill="midnightblue" stroke="midnightblue" points="419.64,-353.02 409.06,-353.5 417.64,-359.73 419.64,-353.02"/>
</g>
<!-- Node16 -->
<g id="node16" class="node">
<title>Node16</title>
<g id="a_node16"><a xlink:href="structCDPL_1_1Math_1_1VectorTemporaryTraits_3_01const_01MatrixTranspose_3_01M_01_4_01_4.html" target="_top" xlink:title=" ">
<polygon fill="none" stroke="black" points="487,-416 487,-446 671,-446 671,-416 487,-416"/>
<text text-anchor="start" x="495" y="-434" font-family="Helvetica" font-size="10.00">CDPL::Math::VectorTemporary</text>
<text text-anchor="middle" x="579" y="-423" font-family="Helvetica" font-size="10.00">Traits&lt; const MatrixTranspose&lt; M &gt; &gt;</text>
</a>
</g>
</g>
<!-- Node10&#45;&gt;Node16 -->
<g id="edge15" class="edge">
<title>Node10&#45;&gt;Node16</title>
<path fill="none" stroke="midnightblue" d="M419.02,-360.96C429.75,-364.13 440.34,-368.08 450,-373 469.64,-382.99 467.64,-395.47 487,-406 494.05,-409.84 501.74,-413.12 509.56,-415.92"/>
<polygon fill="midnightblue" stroke="midnightblue" points="419.72,-357.52 409.15,-358.25 417.87,-364.27 419.72,-357.52"/>
</g>
<!-- Node17 -->
<g id="node17" class="node">
<title>Node17</title>
<g id="a_node17"><a xlink:href="structCDPL_1_1Math_1_1VectorTemporaryTraits_3_01const_01TriangularAdapter_3_01M_00_01Tri_01_4_01_4.html" target="_top" xlink:title=" ">
<polygon fill="none" stroke="black" points="503,-355.5 503,-396.5 655,-396.5 655,-355.5 503,-355.5"/>
<text text-anchor="start" x="511" y="-384.5" font-family="Helvetica" font-size="10.00">CDPL::Math::VectorTemporary</text>
<text text-anchor="start" x="511" y="-373.5" font-family="Helvetica" font-size="10.00">Traits&lt; const TriangularAdapter</text>
<text text-anchor="middle" x="579" y="-362.5" font-family="Helvetica" font-size="10.00">&lt; M, Tri &gt; &gt;</text>
</a>
</g>
</g>
<!-- Node10&#45;&gt;Node17 -->
<g id="edge16" class="edge">
<title>Node10&#45;&gt;Node17</title>
<path fill="none" stroke="midnightblue" d="M419.44,-357.77C446.51,-360.88 476.25,-364.3 502.59,-367.33"/>
<polygon fill="midnightblue" stroke="midnightblue" points="419.55,-354.26 409.21,-356.59 418.75,-361.21 419.55,-354.26"/>
</g>
<!-- Node18 -->
<g id="node18" class="node">
<title>Node18</title>
<g id="a_node18"><a xlink:href="structCDPL_1_1Math_1_1VectorTemporaryTraits_3_01MatrixColumn_3_01M_01_4_01_4.html" target="_top" xlink:title=" ">
<polygon fill="none" stroke="black" points="503.5,-306 503.5,-336 654.5,-336 654.5,-306 503.5,-306"/>
<text text-anchor="start" x="511.5" y="-324" font-family="Helvetica" font-size="10.00">CDPL::Math::VectorTemporary</text>
<text text-anchor="middle" x="579" y="-313" font-family="Helvetica" font-size="10.00">Traits&lt; MatrixColumn&lt; M &gt; &gt;</text>
</a>
</g>
</g>
<!-- Node10&#45;&gt;Node18 -->
<g id="edge17" class="edge">
<title>Node10&#45;&gt;Node18</title>
<path fill="none" stroke="midnightblue" d="M419.18,-338.61C446.6,-335.57 476.8,-332.22 503.43,-329.27"/>
<polygon fill="midnightblue" stroke="midnightblue" points="418.77,-335.13 409.21,-339.72 419.54,-342.09 418.77,-335.13"/>
</g>
<!-- Node19 -->
<g id="node19" class="node">
<title>Node19</title>
<g id="a_node19"><a xlink:href="structCDPL_1_1Math_1_1VectorTemporaryTraits_3_01MatrixRange_3_01M_01_4_01_4.html" target="_top" xlink:title=" ">
<polygon fill="none" stroke="black" points="503.5,-257 503.5,-287 654.5,-287 654.5,-257 503.5,-257"/>
<text text-anchor="start" x="511.5" y="-275" font-family="Helvetica" font-size="10.00">CDPL::Math::VectorTemporary</text>
<text text-anchor="middle" x="579" y="-264" font-family="Helvetica" font-size="10.00">Traits&lt; MatrixRange&lt; M &gt; &gt;</text>
</a>
</g>
</g>
<!-- Node10&#45;&gt;Node19 -->
<g id="edge18" class="edge">
<title>Node10&#45;&gt;Node19</title>
<path fill="none" stroke="midnightblue" d="M386.97,-329.66C416.28,-319.62 453.53,-307.19 487,-297 497.97,-293.66 509.75,-290.28 521.07,-287.13"/>
<polygon fill="midnightblue" stroke="midnightblue" points="385.67,-326.41 377.35,-332.97 387.95,-333.03 385.67,-326.41"/>
</g>
<!-- Node20 -->
<g id="node20" class="node">
<title>Node20</title>
<g id="a_node20"><a xlink:href="structCDPL_1_1Math_1_1VectorTemporaryTraits_3_01MatrixReference_3_01M_01_4_01_4.html" target="_top" xlink:title=" ">
<polygon fill="none" stroke="black" points="501,-208 501,-238 657,-238 657,-208 501,-208"/>
<text text-anchor="start" x="509" y="-226" font-family="Helvetica" font-size="10.00">CDPL::Math::VectorTemporary</text>
<text text-anchor="middle" x="579" y="-215" font-family="Helvetica" font-size="10.00">Traits&lt; MatrixReference&lt; M &gt; &gt;</text>
</a>
</g>
</g>
<!-- Node10&#45;&gt;Node20 -->
<g id="edge19" class="edge">
<title>Node10&#45;&gt;Node20</title>
<path fill="none" stroke="midnightblue" d="M361.19,-326.75C390.51,-304.33 439.73,-269.35 487,-248 495.36,-244.22 504.42,-240.9 513.47,-238.02"/>
<polygon fill="midnightblue" stroke="midnightblue" points="358.88,-324.11 353.11,-333 363.16,-329.65 358.88,-324.11"/>
</g>
<!-- Node21 -->
<g id="node21" class="node">
<title>Node21</title>
<g id="a_node21"><a xlink:href="structCDPL_1_1Math_1_1VectorTemporaryTraits_3_01MatrixRow_3_01M_01_4_01_4.html" target="_top" xlink:title=" ">
<polygon fill="none" stroke="black" points="503.5,-159 503.5,-189 654.5,-189 654.5,-159 503.5,-159"/>
<text text-anchor="start" x="511.5" y="-177" font-family="Helvetica" font-size="10.00">CDPL::Math::VectorTemporary</text>
<text text-anchor="middle" x="579" y="-166" font-family="Helvetica" font-size="10.00">Traits&lt; MatrixRow&lt; M &gt; &gt;</text>
</a>
</g>
</g>
<!-- Node10&#45;&gt;Node21 -->
<g id="edge20" class="edge">
<title>Node10&#45;&gt;Node21</title>
<path fill="none" stroke="midnightblue" d="M351.99,-324.62C377.87,-291.69 429.53,-231.98 487,-199 493.68,-195.17 500.97,-191.9 508.43,-189.12"/>
<polygon fill="midnightblue" stroke="midnightblue" points="349.04,-322.72 345.69,-332.77 354.57,-327 349.04,-322.72"/>
</g>
<!-- Node22 -->
<g id="node22" class="node">
<title>Node22</title>
<g id="a_node22"><a xlink:href="structCDPL_1_1Math_1_1VectorTemporaryTraits_3_01MatrixSlice_3_01M_01_4_01_4.html" target="_top" xlink:title=" ">
<polygon fill="none" stroke="black" points="503.5,-110 503.5,-140 654.5,-140 654.5,-110 503.5,-110"/>
<text text-anchor="start" x="511.5" y="-128" font-family="Helvetica" font-size="10.00">CDPL::Math::VectorTemporary</text>
<text text-anchor="middle" x="579" y="-117" font-family="Helvetica" font-size="10.00">Traits&lt; MatrixSlice&lt; M &gt; &gt;</text>
</a>
</g>
</g>
<!-- Node10&#45;&gt;Node22 -->
<g id="edge21" class="edge">
<title>Node10&#45;&gt;Node22</title>
<path fill="none" stroke="midnightblue" d="M346.29,-323.98C368.1,-282.08 418.83,-195.78 487,-150 492.71,-146.16 499,-142.91 505.52,-140.16"/>
<polygon fill="midnightblue" stroke="midnightblue" points="343.16,-322.42 341.72,-332.92 349.39,-325.6 343.16,-322.42"/>
</g>
<!-- Node23 -->
<g id="node23" class="node">
<title>Node23</title>
<g id="a_node23"><a xlink:href="structCDPL_1_1Math_1_1VectorTemporaryTraits_3_01MatrixTranspose_3_01M_01_4_01_4.html" target="_top" xlink:title=" ">
<polygon fill="none" stroke="black" points="500.5,-61 500.5,-91 657.5,-91 657.5,-61 500.5,-61"/>
<text text-anchor="start" x="508.5" y="-79" font-family="Helvetica" font-size="10.00">CDPL::Math::VectorTemporary</text>
<text text-anchor="middle" x="579" y="-68" font-family="Helvetica" font-size="10.00">Traits&lt; MatrixTranspose&lt; M &gt; &gt;</text>
</a>
</g>
</g>
<!-- Node10&#45;&gt;Node23 -->
<g id="edge22" class="edge">
<title>Node10&#45;&gt;Node23</title>
<path fill="none" stroke="midnightblue" d="M342.79,-323.1C360.75,-273.07 408.11,-160.09 487,-101 492.11,-97.17 497.78,-93.93 503.72,-91.18"/>
<polygon fill="midnightblue" stroke="midnightblue" points="339.4,-322.18 339.4,-332.78 346.01,-324.49 339.4,-322.18"/>
</g>
<!-- Node24 -->
<g id="node24" class="node">
<title>Node24</title>
<g id="a_node24"><a xlink:href="structCDPL_1_1Math_1_1VectorTemporaryTraits_3_01TriangularAdapter_3_01M_00_01Tri_01_4_01_4.html" target="_top" xlink:title=" ">
<polygon fill="none" stroke="black" points="503.5,-0.5 503.5,-41.5 654.5,-41.5 654.5,-0.5 503.5,-0.5"/>
<text text-anchor="start" x="511.5" y="-29.5" font-family="Helvetica" font-size="10.00">CDPL::Math::VectorTemporary</text>
<text text-anchor="start" x="511.5" y="-18.5" font-family="Helvetica" font-size="10.00">Traits&lt; TriangularAdapter</text>
<text text-anchor="middle" x="579" y="-7.5" font-family="Helvetica" font-size="10.00">&lt; M, Tri &gt; &gt;</text>
</a>
</g>
</g>
<!-- Node10&#45;&gt;Node24 -->
<g id="edge23" class="edge">
<title>Node10&#45;&gt;Node24</title>
<path fill="none" stroke="midnightblue" d="M340.5,-323.03C355.37,-266.49 399.2,-127.73 487,-52 491.93,-47.75 497.47,-44.07 503.32,-40.9"/>
<polygon fill="midnightblue" stroke="midnightblue" points="337.07,-322.34 337.99,-332.9 343.85,-324.07 337.07,-322.34"/>
</g>
</g>
</svg>
        <g id="navigator" transform="translate(0 0)" fill="#404254">
                <rect fill="#f2f5e9" fill-opacity="0.5" stroke="#606060" stroke-width=".5" x="0" y="0" width="60" height="60"/>
                <use id="zoomplus" xlink:href="#zoomPlus" x="17" y="9" onmousedown="handleZoom(evt,'in')"/>
                <use id="zoomminus" xlink:href="#zoomMin" x="42" y="9" onmousedown="handleZoom(evt,'out')"/>
                <use id="reset" xlink:href="#resetDef" x="30" y="36" onmousedown="handleReset()"/>
                <g id="arrowUp" xlink:href="#dirArrow" transform="translate(30 24)" onmousedown="handlePan(0,-1)">
                  <use xlink:href="#rim" fill="#404040">
                        <set attributeName="fill" to="#808080" begin="arrowUp.mouseover" end="arrowUp.mouseout"/>
                  </use>
                  <path fill="none" stroke="white" stroke-width="1.5" d="M0,-3.0v7 M-2.5,-0.5L0,-3.0L2.5,-0.5"/>
                </g>
                <g id="arrowRight" xlink:href="#dirArrow" transform="rotate(90) translate(36 -43)" onmousedown="handlePan(1,0)">
                  <use xlink:href="#rim" fill="#404040">
                        <set attributeName="fill" to="#808080" begin="arrowRight.mouseover" end="arrowRight.mouseout"/>
                  </use>
                  <path fill="none" stroke="white" stroke-width="1.5" d="M0,-3.0v7 M-2.5,-0.5L0,-3.0L2.5,-0.5"/>
                </g>
                <g id="arrowDown" xlink:href="#dirArrow" transform="rotate(180) translate(-30 -48)" onmousedown="handlePan(0,1)">
                  <use xlink:href="#rim" fill="#404040">
                        <set attributeName="fill" to="#808080" begin="arrowDown.mouseover" end="arrowDown.mouseout"/>
                  </use>
                  <path fill="none" stroke="white" stroke-width="1.5" d="M0,-3.0v7 M-2.5,-0.5L0,-3.0L2.5,-0.5"/>
                </g>
                <g id="arrowLeft" xlink:href="#dirArrow" transform="rotate(270) translate(-36 17)" onmousedown="handlePan(-1,0)">
                  <use xlink:href="#rim" fill="#404040">
                        <set attributeName="fill" to="#808080" begin="arrowLeft.mouseover" end="arrowLeft.mouseout"/>
                  </use>
                  <path fill="none" stroke="white" stroke-width="1.5" d="M0,-3.0v7 M-2.5,-0.5L0,-3.0L2.5,-0.5"/>
                </g>
        </g>
        <svg viewBox="0 0 15 15" width="100%" height="30px" preserveAspectRatio="xMaxYMin meet">
         <g id="arrow_out" transform="scale(0.3 0.3)">
          <a xlink:href="structCDPL_1_1Math_1_1VectorTemporaryTraits__inherit__graph_org.svg" target="_base">
           <rect id="button" ry="5" rx="5" y="6" x="6" height="38" width="38"
                fill="#f2f5e9" fill-opacity="0.5" stroke="#606060" stroke-width="1.0"/>
           <path id="arrow"
             d="M 11.500037,31.436501 C 11.940474,20.09759 22.043105,11.32322 32.158766,21.979434 L 37.068811,17.246167 C 37.068811,17.246167 37.088388,32 37.088388,32 L 22.160133,31.978069 C 22.160133,31.978069 26.997745,27.140456 26.997745,27.140456 C 18.528582,18.264221 13.291696,25.230495 11.500037,31.436501 z"
             style="fill:#404040;"/>
          </a>
         </g>
        </svg>
</svg>
