<?xml version="1.0" encoding="UTF-8" standalone="no"?>
<!DOCTYPE svg PUBLIC "-//W3C//DTD SVG 1.1//EN"
 "http://www.w3.org/Graphics/SVG/1.1/DTD/svg11.dtd">
<!-- Generated by graphviz version 2.44.0 (0)
 -->
<!-- Title: CDPL::Math::TypeTraits&lt; SparseContainerElement&lt; C &gt; &gt; Pages: 1 -->
<svg width="267pt" height="264pt"
 viewBox="0.00 0.00 267.00 264.00" xmlns="http://www.w3.org/2000/svg" xmlns:xlink="http://www.w3.org/1999/xlink">
<g id="graph0" class="graph" transform="scale(1 1) rotate(0) translate(4 260)">
<title>CDPL::Math::TypeTraits&lt; SparseContainerElement&lt; C &gt; &gt;</title>
<!-- Node1 -->
<g id="node1" class="node">
<title>Node1</title>
<g id="a_node1"><a xlink:title=" ">
<polygon fill="#bfbfbf" stroke="black" points="12.5,-0.5 12.5,-41.5 147.5,-41.5 147.5,-0.5 12.5,-0.5"/>
<text text-anchor="start" x="20.5" y="-29.5" font-family="Helvetica" font-size="10.00">CDPL::Math::TypeTraits</text>
<text text-anchor="start" x="20.5" y="-18.5" font-family="Helvetica" font-size="10.00">&lt; SparseContainerElement</text>
<text text-anchor="middle" x="80" y="-7.5" font-family="Helvetica" font-size="10.00">&lt; C &gt; &gt;</text>
</a>
</g>
</g>
<!-- Node2 -->
<g id="node2" class="node">
<title>Node2</title>
<g id="a_node2"><a xlink:href="structCDPL_1_1Math_1_1TypeTraits.html" target="_top" xlink:title=" ">
<polygon fill="none" stroke="black" points="12.5,-79.5 12.5,-120.5 147.5,-120.5 147.5,-79.5 12.5,-79.5"/>
<text text-anchor="start" x="20.5" y="-108.5" font-family="Helvetica" font-size="10.00">CDPL::Math::TypeTraits</text>
<text text-anchor="start" x="20.5" y="-97.5" font-family="Helvetica" font-size="10.00">&lt; SparseContainerElement</text>
<text text-anchor="middle" x="80" y="-86.5" font-family="Helvetica" font-size="10.00">&lt; C &gt;::ValueType &gt;</text>
</a>
</g>
</g>
<!-- Node2&#45;&gt;Node1 -->
<g id="edge1" class="edge">
<title>Node2&#45;&gt;Node1</title>
<path fill="none" stroke="midnightblue" d="M80,-68.91C80,-59.79 80,-50.02 80,-41.76"/>
<polygon fill="midnightblue" stroke="midnightblue" points="76.5,-69.17 80,-79.17 83.5,-69.17 76.5,-69.17"/>
</g>
<!-- Node3 -->
<g id="node3" class="node">
<title>Node3</title>
<g id="a_node3"><a xlink:href="structCDPL_1_1Math_1_1ScalarTraits.html" target="_top" xlink:title=" ">
<polygon fill="none" stroke="black" points="0,-236.5 0,-255.5 152,-255.5 152,-236.5 0,-236.5"/>
<text text-anchor="middle" x="76" y="-243.5" font-family="Helvetica" font-size="10.00">CDPL::Math::ScalarTraits&lt; T &gt;</text>
</a>
</g>
</g>
<!-- Node3&#45;&gt;Node2 -->
<g id="edge2" class="edge">
<title>Node3&#45;&gt;Node2</title>
<path fill="none" stroke="midnightblue" d="M76.52,-226.26C77.28,-198.92 78.69,-148.32 79.46,-120.53"/>
<polygon fill="midnightblue" stroke="midnightblue" points="73.02,-226.33 76.24,-236.42 80.01,-226.52 73.02,-226.33"/>
</g>
<!-- Node4 -->
<g id="node4" class="node">
<title>Node4</title>
<g id="a_node4"><a xlink:href="structCDPL_1_1Math_1_1TypeTraits.html" target="_top" xlink:title=" ">
<polygon fill="none" stroke="black" points="92,-179.5 92,-198.5 238,-198.5 238,-179.5 92,-179.5"/>
<text text-anchor="middle" x="165" y="-186.5" font-family="Helvetica" font-size="10.00">CDPL::Math::TypeTraits&lt; T &gt;</text>
</a>
</g>
</g>
<!-- Node3&#45;&gt;Node4 -->
<g id="edge4" class="edge">
<title>Node3&#45;&gt;Node4</title>
<path fill="none" stroke="midnightblue" d="M98.48,-231.11C115.07,-220.86 137.12,-207.23 151.19,-198.53"/>
<polygon fill="midnightblue" stroke="midnightblue" points="96.57,-228.17 89.91,-236.41 100.25,-234.13 96.57,-228.17"/>
</g>
<!-- Node4&#45;&gt;Node2 -->
<g id="edge3" class="edge">
<title>Node4&#45;&gt;Node2</title>
<path fill="none" stroke="orange" stroke-dasharray="5,2" d="M149.46,-172.1C135.33,-157.63 114.41,-136.22 99.23,-120.68"/>
<polygon fill="orange" stroke="orange" points="147.05,-174.63 156.54,-179.34 152.05,-169.74 147.05,-174.63"/>
<text text-anchor="start" x="137" y="-153" font-family="Helvetica" font-size="10.00"> &lt; SparseContainerElement</text>
<text text-anchor="middle" x="198" y="-142" font-family="Helvetica" font-size="10.00">&lt; C &gt;::ValueType &gt;</text>
</g>
</g>
</svg>
