<?xml version="1.0" encoding="UTF-8" standalone="no"?>
<!DOCTYPE svg PUBLIC "-//W3C//DTD SVG 1.1//EN"
 "http://www.w3.org/Graphics/SVG/1.1/DTD/svg11.dtd">
<!-- Generated by graphviz version 2.44.0 (0)
 -->
<!-- Title: CDPL::Math::VectorTemporaryTraits&lt; MatrixReference&lt; M &gt; &gt; Pages: 1 -->
<svg width="164pt" height="185pt"
 viewBox="0.00 0.00 164.00 185.00" xmlns="http://www.w3.org/2000/svg" xmlns:xlink="http://www.w3.org/1999/xlink">
<g id="graph0" class="graph" transform="scale(1 1) rotate(0) translate(4 181)">
<title>CDPL::Math::VectorTemporaryTraits&lt; MatrixReference&lt; M &gt; &gt;</title>
<!-- Node1 -->
<g id="node1" class="node">
<title>Node1</title>
<g id="a_node1"><a xlink:title=" ">
<polygon fill="#bfbfbf" stroke="black" points="0,-0.5 0,-30.5 156,-30.5 156,-0.5 0,-0.5"/>
<text text-anchor="start" x="8" y="-18.5" font-family="Helvetica" font-size="10.00">CDPL::Math::VectorTemporary</text>
<text text-anchor="middle" x="78" y="-7.5" font-family="Helvetica" font-size="10.00">Traits&lt; MatrixReference&lt; M &gt; &gt;</text>
</a>
</g>
</g>
<!-- Node2 -->
<g id="node2" class="node">
<title>Node2</title>
<g id="a_node2"><a xlink:href="structCDPL_1_1Math_1_1VectorTemporaryTraits.html" target="_top" xlink:title=" ">
<polygon fill="none" stroke="black" points="2.5,-68.5 2.5,-98.5 153.5,-98.5 153.5,-68.5 2.5,-68.5"/>
<text text-anchor="start" x="10.5" y="-86.5" font-family="Helvetica" font-size="10.00">CDPL::Math::VectorTemporary</text>
<text text-anchor="middle" x="78" y="-75.5" font-family="Helvetica" font-size="10.00">Traits&lt; M &gt;</text>
</a>
</g>
</g>
<!-- Node2&#45;&gt;Node1 -->
<g id="edge1" class="edge">
<title>Node2&#45;&gt;Node1</title>
<path fill="none" stroke="midnightblue" d="M78,-58.03C78,-48.86 78,-38.74 78,-30.79"/>
<polygon fill="midnightblue" stroke="midnightblue" points="74.5,-58.18 78,-68.18 81.5,-58.18 74.5,-58.18"/>
</g>
<!-- Node3 -->
<g id="node3" class="node">
<title>Node3</title>
<g id="a_node3"><a xlink:href="structCDPL_1_1Math_1_1VectorTemporaryTraits.html" target="_top" xlink:title=" ">
<polygon fill="none" stroke="black" points="2.5,-146.5 2.5,-176.5 153.5,-176.5 153.5,-146.5 2.5,-146.5"/>
<text text-anchor="start" x="10.5" y="-164.5" font-family="Helvetica" font-size="10.00">CDPL::Math::VectorTemporary</text>
<text text-anchor="middle" x="78" y="-153.5" font-family="Helvetica" font-size="10.00">Traits&lt; V &gt;</text>
</a>
</g>
</g>
<!-- Node3&#45;&gt;Node2 -->
<g id="edge2" class="edge">
<title>Node3&#45;&gt;Node2</title>
<path fill="none" stroke="orange" stroke-dasharray="5,2" d="M78,-136.09C78,-123.76 78,-109.22 78,-98.73"/>
<polygon fill="orange" stroke="orange" points="74.5,-136.2 78,-146.2 81.5,-136.21 74.5,-136.2"/>
<text text-anchor="middle" x="93" y="-120" font-family="Helvetica" font-size="10.00"> &lt; M &gt;</text>
</g>
</g>
</svg>
