<?xml version="1.0" encoding="UTF-8" standalone="no"?>
<!DOCTYPE svg PUBLIC "-//W3C//DTD SVG 1.1//EN"
 "http://www.w3.org/Graphics/SVG/1.1/DTD/svg11.dtd">
<!-- Generated by graphviz version 2.44.0 (0)
 -->
<!-- Title: CDPL::Math::VectorScalarBinaryFunctor&lt; V1, V2 &gt; Pages: 1 -->
<svg width="346pt" height="106pt"
 viewBox="0.00 0.00 346.00 106.00" xmlns="http://www.w3.org/2000/svg" xmlns:xlink="http://www.w3.org/1999/xlink">
<g id="graph0" class="graph" transform="scale(1 1) rotate(0) translate(4 102)">
<title>CDPL::Math::VectorScalarBinaryFunctor&lt; V1, V2 &gt;</title>
<!-- Node1 -->
<g id="node1" class="node">
<title>Node1</title>
<g id="a_node1"><a xlink:title=" ">
<polygon fill="#bfbfbf" stroke="black" points="103,-67.5 103,-97.5 235,-97.5 235,-67.5 103,-67.5"/>
<text text-anchor="start" x="111" y="-85.5" font-family="Helvetica" font-size="10.00">CDPL::Math::VectorScalar</text>
<text text-anchor="middle" x="169" y="-74.5" font-family="Helvetica" font-size="10.00">BinaryFunctor&lt; V1, V2 &gt;</text>
</a>
</g>
</g>
<!-- Node2 -->
<g id="node2" class="node">
<title>Node2</title>
<g id="a_node2"><a xlink:href="structCDPL_1_1Math_1_1VectorAngleCosine.html" target="_top" xlink:title=" ">
<polygon fill="none" stroke="black" points="0,-0.5 0,-30.5 160,-30.5 160,-0.5 0,-0.5"/>
<text text-anchor="start" x="8" y="-18.5" font-family="Helvetica" font-size="10.00">CDPL::Math::VectorAngleCosine</text>
<text text-anchor="middle" x="80" y="-7.5" font-family="Helvetica" font-size="10.00">&lt; V1, V2 &gt;</text>
</a>
</g>
</g>
<!-- Node1&#45;&gt;Node2 -->
<g id="edge1" class="edge">
<title>Node1&#45;&gt;Node2</title>
<path fill="none" stroke="midnightblue" d="M141.55,-61.45C127.86,-51.45 111.63,-39.6 99.27,-30.58"/>
<polygon fill="midnightblue" stroke="midnightblue" points="139.55,-64.32 149.69,-67.4 143.68,-58.67 139.55,-64.32"/>
</g>
<!-- Node3 -->
<g id="node3" class="node">
<title>Node3</title>
<g id="a_node3"><a xlink:href="structCDPL_1_1Math_1_1VectorInnerProduct.html" target="_top" xlink:title=" ">
<polygon fill="none" stroke="black" points="178,-0.5 178,-30.5 338,-30.5 338,-0.5 178,-0.5"/>
<text text-anchor="start" x="186" y="-18.5" font-family="Helvetica" font-size="10.00">CDPL::Math::VectorInnerProduct</text>
<text text-anchor="middle" x="258" y="-7.5" font-family="Helvetica" font-size="10.00">&lt; V1, V2 &gt;</text>
</a>
</g>
</g>
<!-- Node1&#45;&gt;Node3 -->
<g id="edge2" class="edge">
<title>Node1&#45;&gt;Node3</title>
<path fill="none" stroke="midnightblue" d="M196.45,-61.45C210.14,-51.45 226.37,-39.6 238.73,-30.58"/>
<polygon fill="midnightblue" stroke="midnightblue" points="194.32,-58.67 188.31,-67.4 198.45,-64.32 194.32,-58.67"/>
</g>
</g>
</svg>
