<?xml version="1.0" encoding="UTF-8" standalone="no"?>
<!DOCTYPE svg PUBLIC "-//W3C//DTD SVG 1.1//EN"
 "http://www.w3.org/Graphics/SVG/1.1/DTD/svg11.dtd">
<!-- Generated by graphviz version 2.44.0 (0)
 -->
<!-- Title: CDPL::Math::VectorTemporaryTraits&lt; TriangularAdapter&lt; M, Tri &gt; &gt; Pages: 1 -->
<svg width="159pt" height="196pt"
 viewBox="0.00 0.00 159.00 196.00" xmlns="http://www.w3.org/2000/svg" xmlns:xlink="http://www.w3.org/1999/xlink">
<g id="graph0" class="graph" transform="scale(1 1) rotate(0) translate(4 192)">
<title>CDPL::Math::VectorTemporaryTraits&lt; TriangularAdapter&lt; M, Tri &gt; &gt;</title>
<!-- Node1 -->
<g id="node1" class="node">
<title>Node1</title>
<g id="a_node1"><a xlink:title=" ">
<polygon fill="#bfbfbf" stroke="black" points="0,-0.5 0,-41.5 151,-41.5 151,-0.5 0,-0.5"/>
<text text-anchor="start" x="8" y="-29.5" font-family="Helvetica" font-size="10.00">CDPL::Math::VectorTemporary</text>
<text text-anchor="start" x="8" y="-18.5" font-family="Helvetica" font-size="10.00">Traits&lt; TriangularAdapter</text>
<text text-anchor="middle" x="75.5" y="-7.5" font-family="Helvetica" font-size="10.00">&lt; M, Tri &gt; &gt;</text>
</a>
</g>
</g>
<!-- Node2 -->
<g id="node2" class="node">
<title>Node2</title>
<g id="a_node2"><a xlink:href="structCDPL_1_1Math_1_1VectorTemporaryTraits.html" target="_top" xlink:title=" ">
<polygon fill="none" stroke="black" points="0,-79.5 0,-109.5 151,-109.5 151,-79.5 0,-79.5"/>
<text text-anchor="start" x="8" y="-97.5" font-family="Helvetica" font-size="10.00">CDPL::Math::VectorTemporary</text>
<text text-anchor="middle" x="75.5" y="-86.5" font-family="Helvetica" font-size="10.00">Traits&lt; M &gt;</text>
</a>
</g>
</g>
<!-- Node2&#45;&gt;Node1 -->
<g id="edge1" class="edge">
<title>Node2&#45;&gt;Node1</title>
<path fill="none" stroke="midnightblue" d="M75.5,-69.1C75.5,-60.1 75.5,-50.02 75.5,-41.51"/>
<polygon fill="midnightblue" stroke="midnightblue" points="72,-69.37 75.5,-79.37 79,-69.37 72,-69.37"/>
</g>
<!-- Node3 -->
<g id="node3" class="node">
<title>Node3</title>
<g id="a_node3"><a xlink:href="structCDPL_1_1Math_1_1VectorTemporaryTraits.html" target="_top" xlink:title=" ">
<polygon fill="none" stroke="black" points="0,-157.5 0,-187.5 151,-187.5 151,-157.5 0,-157.5"/>
<text text-anchor="start" x="8" y="-175.5" font-family="Helvetica" font-size="10.00">CDPL::Math::VectorTemporary</text>
<text text-anchor="middle" x="75.5" y="-164.5" font-family="Helvetica" font-size="10.00">Traits&lt; V &gt;</text>
</a>
</g>
</g>
<!-- Node3&#45;&gt;Node2 -->
<g id="edge2" class="edge">
<title>Node3&#45;&gt;Node2</title>
<path fill="none" stroke="orange" stroke-dasharray="5,2" d="M75.5,-147.09C75.5,-134.76 75.5,-120.22 75.5,-109.73"/>
<polygon fill="orange" stroke="orange" points="72,-147.2 75.5,-157.2 79,-147.21 72,-147.2"/>
<text text-anchor="middle" x="90.5" y="-131" font-family="Helvetica" font-size="10.00"> &lt; M &gt;</text>
</g>
</g>
</svg>
