<?xml version="1.0" encoding="UTF-8" standalone="no"?>
<!DOCTYPE svg PUBLIC "-//W3C//DTD SVG 1.1//EN"
 "http://www.w3.org/Graphics/SVG/1.1/DTD/svg11.dtd">
<!-- Generated by graphviz version 2.44.0 (0)
 -->
<!-- Title: CDPL.Vis.PolygonPrimitive2D Pages: 1 -->
<svg width="300pt" height="196pt"
 viewBox="0.00 0.00 300.00 196.00" xmlns="http://www.w3.org/2000/svg" xmlns:xlink="http://www.w3.org/1999/xlink">
<g id="graph0" class="graph" transform="scale(1 1) rotate(0) translate(4 192)">
<title>CDPL.Vis.PolygonPrimitive2D</title>
<!-- Node1 -->
<g id="node1" class="node">
<title>Node1</title>
<g id="a_node1"><a xlink:title="A graphics primitive representing a polygon.">
<polygon fill="#bfbfbf" stroke="black" points="64,-0.5 64,-19.5 212,-19.5 212,-0.5 64,-0.5"/>
<text text-anchor="middle" x="138" y="-7.5" font-family="Helvetica" font-size="10.00">CDPL.Vis.PolygonPrimitive2D</text>
</a>
</g>
</g>
<!-- Node2 -->
<g id="node2" class="node">
<title>Node2</title>
<g id="a_node2"><a xlink:href="classCDPL_1_1Vis_1_1PointArray2D.html" target="_top" xlink:title="Stores a set of points in 2D space.">
<polygon fill="none" stroke="black" points="0,-56.5 0,-75.5 122,-75.5 122,-56.5 0,-56.5"/>
<text text-anchor="middle" x="61" y="-63.5" font-family="Helvetica" font-size="10.00">CDPL.Vis.PointArray2D</text>
</a>
</g>
</g>
<!-- Node2&#45;&gt;Node1 -->
<g id="edge1" class="edge">
<title>Node2&#45;&gt;Node1</title>
<path fill="none" stroke="midnightblue" d="M81.9,-50.34C95.91,-40.52 113.88,-27.91 125.66,-19.65"/>
<polygon fill="midnightblue" stroke="midnightblue" points="79.55,-47.72 73.37,-56.32 83.57,-53.45 79.55,-47.72"/>
</g>
<!-- Node3 -->
<g id="node3" class="node">
<title>Node3</title>
<g id="a_node3"><a xlink:href="classCDPL_1_1Math_1_1Vector2DArray.html" target="_top" xlink:title="An array of Math.Vector2D objects.">
<polygon fill="none" stroke="black" points="24,-112.5 24,-131.5 158,-131.5 158,-112.5 24,-112.5"/>
<text text-anchor="middle" x="91" y="-119.5" font-family="Helvetica" font-size="10.00">CDPL.Math.Vector2DArray</text>
</a>
</g>
</g>
<!-- Node3&#45;&gt;Node2 -->
<g id="edge2" class="edge">
<title>Node3&#45;&gt;Node2</title>
<path fill="none" stroke="midnightblue" d="M81.15,-103.27C76.03,-94.05 69.98,-83.17 65.86,-75.75"/>
<polygon fill="midnightblue" stroke="midnightblue" points="78.13,-105.04 86.05,-112.08 84.25,-101.64 78.13,-105.04"/>
</g>
<!-- Node4 -->
<g id="node4" class="node">
<title>Node4</title>
<g id="a_node4"><a xlink:title=" ">
<polygon fill="none" stroke="#bfbfbf" points="80.5,-168.5 80.5,-187.5 195.5,-187.5 195.5,-168.5 80.5,-168.5"/>
<text text-anchor="middle" x="138" y="-175.5" font-family="Helvetica" font-size="10.00">Boost.Python.instance</text>
</a>
</g>
</g>
<!-- Node4&#45;&gt;Node3 -->
<g id="edge3" class="edge">
<title>Node4&#45;&gt;Node3</title>
<path fill="none" stroke="midnightblue" d="M123.58,-160.43C115.34,-150.97 105.35,-139.48 98.62,-131.75"/>
<polygon fill="midnightblue" stroke="midnightblue" points="121.03,-162.84 130.24,-168.08 126.31,-158.24 121.03,-162.84"/>
</g>
<!-- Node5 -->
<g id="node5" class="node">
<title>Node5</title>
<g id="a_node5"><a xlink:href="classCDPL_1_1Vis_1_1GraphicsPrimitive2D.html" target="_top" xlink:title="The abstract base class of all 2D graphics primitives.">
<polygon fill="none" stroke="black" points="140,-56.5 140,-75.5 292,-75.5 292,-56.5 140,-56.5"/>
<text text-anchor="middle" x="216" y="-63.5" font-family="Helvetica" font-size="10.00">CDPL.Vis.GraphicsPrimitive2D</text>
</a>
</g>
</g>
<!-- Node4&#45;&gt;Node5 -->
<g id="edge5" class="edge">
<title>Node4&#45;&gt;Node5</title>
<path fill="none" stroke="midnightblue" d="M150.08,-159.96C166.99,-136.12 197.06,-93.71 209.91,-75.59"/>
<polygon fill="midnightblue" stroke="midnightblue" points="147.05,-158.19 144.12,-168.37 152.76,-162.24 147.05,-158.19"/>
</g>
<!-- Node5&#45;&gt;Node1 -->
<g id="edge4" class="edge">
<title>Node5&#45;&gt;Node1</title>
<path fill="none" stroke="midnightblue" d="M195.23,-50.62C180.98,-40.76 162.54,-27.99 150.5,-19.65"/>
<polygon fill="midnightblue" stroke="midnightblue" points="193.25,-53.51 203.47,-56.32 197.24,-47.75 193.25,-53.51"/>
</g>
</g>
</svg>
