<?xml version="1.0" encoding="UTF-8" standalone="no"?>
<!DOCTYPE svg PUBLIC "-//W3C//DTD SVG 1.1//EN"
 "http://www.w3.org/Graphics/SVG/1.1/DTD/svg11.dtd">
<!-- Generated by graphviz version 2.44.0 (0)
 -->
<!-- Title: CDPL.Base.IOError Pages: 1 -->
<svg width="256pt" height="196pt"
 viewBox="0.00 0.00 255.50 196.00" xmlns="http://www.w3.org/2000/svg" xmlns:xlink="http://www.w3.org/1999/xlink">
<g id="graph0" class="graph" transform="scale(1 1) rotate(0) translate(4 192)">
<title>CDPL.Base.IOError</title>
<!-- Node1 -->
<g id="node1" class="node">
<title>Node1</title>
<g id="a_node1"><a xlink:title="Thrown to indicate that an I/O operation has failed because of physical (e.g.">
<polygon fill="#bfbfbf" stroke="black" points="84.5,-0.5 84.5,-19.5 187.5,-19.5 187.5,-0.5 84.5,-0.5"/>
<text text-anchor="middle" x="136" y="-7.5" font-family="Helvetica" font-size="10.00">CDPL.Base.IOError</text>
</a>
</g>
</g>
<!-- Node2 -->
<g id="node2" class="node">
<title>Node2</title>
<g id="a_node2"><a xlink:href="classCDPL_1_1Base_1_1OperationFailed.html" target="_top" xlink:title="Thrown to indicate that some requested operation has failed (e.g.">
<polygon fill="none" stroke="black" points="0,-56.5 0,-75.5 140,-75.5 140,-56.5 0,-56.5"/>
<text text-anchor="middle" x="70" y="-63.5" font-family="Helvetica" font-size="10.00">CDPL.Base.OperationFailed</text>
</a>
</g>
</g>
<!-- Node2&#45;&gt;Node1 -->
<g id="edge1" class="edge">
<title>Node2&#45;&gt;Node1</title>
<path fill="none" stroke="midnightblue" d="M88.55,-49.82C100.38,-40.15 115.29,-27.95 125.2,-19.83"/>
<polygon fill="midnightblue" stroke="midnightblue" points="86.13,-47.28 80.6,-56.32 90.56,-52.7 86.13,-47.28"/>
</g>
<!-- Node3 -->
<g id="node3" class="node">
<title>Node3</title>
<g id="a_node3"><a xlink:href="classCDPL_1_1Base_1_1Exception.html" target="_top" xlink:title="The root of the CDPL exception hierarchy.">
<polygon fill="none" stroke="black" points="13,-112.5 13,-131.5 127,-131.5 127,-112.5 13,-112.5"/>
<text text-anchor="middle" x="70" y="-119.5" font-family="Helvetica" font-size="10.00">CDPL.Base.Exception</text>
</a>
</g>
</g>
<!-- Node3&#45;&gt;Node2 -->
<g id="edge2" class="edge">
<title>Node3&#45;&gt;Node2</title>
<path fill="none" stroke="midnightblue" d="M70,-101.8C70,-92.91 70,-82.78 70,-75.75"/>
<polygon fill="midnightblue" stroke="midnightblue" points="66.5,-102.08 70,-112.08 73.5,-102.08 66.5,-102.08"/>
</g>
<!-- Node4 -->
<g id="node4" class="node">
<title>Node4</title>
<g id="a_node4"><a xlink:title=" ">
<polygon fill="none" stroke="#bfbfbf" points="22,-168.5 22,-187.5 118,-187.5 118,-168.5 22,-168.5"/>
<text text-anchor="middle" x="70" y="-175.5" font-family="Helvetica" font-size="10.00">builtins::Exception</text>
</a>
</g>
</g>
<!-- Node4&#45;&gt;Node3 -->
<g id="edge3" class="edge">
<title>Node4&#45;&gt;Node3</title>
<path fill="none" stroke="midnightblue" d="M70,-157.8C70,-148.91 70,-138.78 70,-131.75"/>
<polygon fill="midnightblue" stroke="midnightblue" points="66.5,-158.08 70,-168.08 73.5,-158.08 66.5,-158.08"/>
</g>
<!-- Node5 -->
<g id="node5" class="node">
<title>Node5</title>
<g id="a_node5"><a xlink:title=" ">
<polygon fill="none" stroke="#bfbfbf" points="158.5,-56.5 158.5,-75.5 247.5,-75.5 247.5,-56.5 158.5,-56.5"/>
<text text-anchor="middle" x="203" y="-63.5" font-family="Helvetica" font-size="10.00">builtins::OSError</text>
</a>
</g>
</g>
<!-- Node5&#45;&gt;Node1 -->
<g id="edge4" class="edge">
<title>Node5&#45;&gt;Node1</title>
<path fill="none" stroke="midnightblue" d="M184.17,-49.82C172.16,-40.15 157.03,-27.95 146.96,-19.83"/>
<polygon fill="midnightblue" stroke="midnightblue" points="182.25,-52.77 192.24,-56.32 186.65,-47.32 182.25,-52.77"/>
</g>
</g>
</svg>
