<?xml version="1.0" encoding="UTF-8" standalone="no"?>
<!DOCTYPE svg PUBLIC "-//W3C//DTD SVG 1.1//EN"
 "http://www.w3.org/Graphics/SVG/1.1/DTD/svg11.dtd">
<!-- Generated by graphviz version 2.44.0 (0)
 -->
<!-- Title: CDPL.Grid.DRegularGridInputHandler Pages: 1 -->
<svg width="501pt" height="186pt"
 viewBox="0.00 0.00 501.00 186.00" xmlns="http://www.w3.org/2000/svg" xmlns:xlink="http://www.w3.org/1999/xlink">
<g id="graph0" class="graph" transform="scale(1 1) rotate(0) translate(4 182)">
<title>CDPL.Grid.DRegularGridInputHandler</title>
<polygon fill="white" stroke="transparent" points="-4,4 -4,-182 497,-182 497,4 -4,4"/>
<!-- Node1 -->
<g id="node1" class="node">
<title>Node1</title>
<g id="a_node1"><a xlink:title="A factory interface providing methods for the creation of Grid.DRegularGridReaderBase instances for r...">
<polygon fill="#bfbfbf" stroke="black" points="151,-73.5 151,-103.5 298,-103.5 298,-73.5 151,-73.5"/>
<text text-anchor="start" x="159" y="-91.5" font-family="Helvetica" font-size="10.00">CDPL.Grid.DRegularGridInput</text>
<text text-anchor="middle" x="224.5" y="-80.5" font-family="Helvetica" font-size="10.00">Handler</text>
</a>
</g>
</g>
<!-- Node3 -->
<g id="node3" class="node">
<title>Node3</title>
<g id="a_node3"><a xlink:href="classCDPL_1_1Grid_1_1CDFBZ2DRegularGridInputHandler.html" target="_top" xlink:title="A handler for the input of bzip2&#45;compressed regular spatial grid data in the native I/O format of the...">
<polygon fill="white" stroke="black" points="340.5,-147.5 340.5,-177.5 486.5,-177.5 486.5,-147.5 340.5,-147.5"/>
<text text-anchor="start" x="348.5" y="-165.5" font-family="Helvetica" font-size="10.00">CDPL.Grid.CDFBZ2DRegular</text>
<text text-anchor="middle" x="413.5" y="-154.5" font-family="Helvetica" font-size="10.00">GridInputHandler</text>
</a>
</g>
</g>
<!-- Node1&#45;&gt;Node3 -->
<g id="edge2" class="edge">
<title>Node1&#45;&gt;Node3</title>
<path fill="none" stroke="midnightblue" d="M264.43,-107.99C284.86,-117.82 310.47,-129.53 334,-138.5 342.26,-141.65 351.12,-144.68 359.81,-147.46"/>
<polygon fill="midnightblue" stroke="midnightblue" points="265.96,-104.84 255.43,-103.62 262.9,-111.14 265.96,-104.84"/>
</g>
<!-- Node4 -->
<g id="node4" class="node">
<title>Node4</title>
<g id="a_node4"><a xlink:href="classCDPL_1_1Grid_1_1CDFDRegularGridInputHandler.html" target="_top" xlink:title="A handler for the input of regular spatial grid data in the native I/O format of the CDPL.">
<polygon fill="white" stroke="black" points="340.5,-98.5 340.5,-128.5 486.5,-128.5 486.5,-98.5 340.5,-98.5"/>
<text text-anchor="start" x="348.5" y="-116.5" font-family="Helvetica" font-size="10.00">CDPL.Grid.CDFDRegularGrid</text>
<text text-anchor="middle" x="413.5" y="-105.5" font-family="Helvetica" font-size="10.00">InputHandler</text>
</a>
</g>
</g>
<!-- Node1&#45;&gt;Node4 -->
<g id="edge3" class="edge">
<title>Node1&#45;&gt;Node4</title>
<path fill="none" stroke="midnightblue" d="M308.23,-99.56C318.91,-100.99 329.79,-102.44 340.28,-103.85"/>
<polygon fill="midnightblue" stroke="midnightblue" points="308.44,-96.06 298.07,-98.2 307.51,-103 308.44,-96.06"/>
</g>
<!-- Node5 -->
<g id="node5" class="node">
<title>Node5</title>
<g id="a_node5"><a xlink:href="classCDPL_1_1Grid_1_1CDFGZDRegularGridInputHandler.html" target="_top" xlink:title="A handler for the input of gzip&#45;compressed regular spatial grid data in the native I/O format of the ...">
<polygon fill="white" stroke="black" points="334,-49.5 334,-79.5 493,-79.5 493,-49.5 334,-49.5"/>
<text text-anchor="start" x="342" y="-67.5" font-family="Helvetica" font-size="10.00">CDPL.Grid.CDFGZDRegularGrid</text>
<text text-anchor="middle" x="413.5" y="-56.5" font-family="Helvetica" font-size="10.00">InputHandler</text>
</a>
</g>
</g>
<!-- Node1&#45;&gt;Node5 -->
<g id="edge4" class="edge">
<title>Node1&#45;&gt;Node5</title>
<path fill="none" stroke="midnightblue" d="M308.03,-77.91C316.59,-76.81 325.27,-75.7 333.78,-74.6"/>
<polygon fill="midnightblue" stroke="midnightblue" points="307.54,-74.44 298.07,-79.19 308.43,-81.39 307.54,-74.44"/>
</g>
<!-- Node6 -->
<g id="node6" class="node">
<title>Node6</title>
<g id="a_node6"><a xlink:href="classCDPL_1_1Grid_1_1CUBEDRegularGridInputHandler.html" target="_top" xlink:title="A handler for the input of regular spatial grid data in the Gaussian CUBEL [CUBE] format.">
<polygon fill="white" stroke="black" points="336.5,-0.5 336.5,-30.5 490.5,-30.5 490.5,-0.5 336.5,-0.5"/>
<text text-anchor="start" x="344.5" y="-18.5" font-family="Helvetica" font-size="10.00">CDPL.Grid.CUBEDRegularGrid</text>
<text text-anchor="middle" x="413.5" y="-7.5" font-family="Helvetica" font-size="10.00">InputHandler</text>
</a>
</g>
</g>
<!-- Node1&#45;&gt;Node6 -->
<g id="edge5" class="edge">
<title>Node1&#45;&gt;Node6</title>
<path fill="none" stroke="midnightblue" d="M265.18,-69.11C285.5,-59.56 310.79,-48.25 334,-39.5 342.27,-36.38 351.14,-33.37 359.83,-30.59"/>
<polygon fill="midnightblue" stroke="midnightblue" points="263.46,-66.05 255.93,-73.5 266.46,-72.38 263.46,-66.05"/>
</g>
<!-- Node2 -->
<g id="node2" class="node">
<title>Node2</title>
<g id="a_node2"><a xlink:title=" ">
<polygon fill="white" stroke="#bfbfbf" points="0,-79 0,-98 115,-98 115,-79 0,-79"/>
<text text-anchor="middle" x="57.5" y="-86" font-family="Helvetica" font-size="10.00">Boost.Python.instance</text>
</a>
</g>
</g>
<!-- Node2&#45;&gt;Node1 -->
<g id="edge1" class="edge">
<title>Node2&#45;&gt;Node1</title>
<path fill="none" stroke="midnightblue" d="M125.39,-88.5C133.78,-88.5 142.4,-88.5 150.88,-88.5"/>
<polygon fill="midnightblue" stroke="midnightblue" points="125.28,-85 115.28,-88.5 125.28,-92 125.28,-85"/>
</g>
</g>
</svg>
