<?xml version="1.0" encoding="UTF-8" standalone="no"?>
<!DOCTYPE svg PUBLIC "-//W3C//DTD SVG 1.1//EN"
 "http://www.w3.org/Graphics/SVG/1.1/DTD/svg11.dtd">
<!-- Generated by graphviz version 2.40.1 (0)
 -->
<!-- Title: CDPL.Grid.DRegularGridReader Pages: 1 -->
<svg width="199pt" height="263pt"
 viewBox="0.00 0.00 199.00 263.00" xmlns="http://www.w3.org/2000/svg" xmlns:xlink="http://www.w3.org/1999/xlink">
<g id="graph0" class="graph" transform="scale(1 1) rotate(0) translate(4 259)">
<title>CDPL.Grid.DRegularGridReader</title>
<!-- Node1 -->
<g id="node1" class="node">
<title>Node1</title>
<g id="a_node1"><a xlink:title="Reader for grid data of type Grid.DRegularGrid in any supported format.">
<polygon fill="#bfbfbf" stroke="#000000" points="12,-.5 12,-19.5 179,-19.5 179,-.5 12,-.5"/>
<text text-anchor="middle" x="95.5" y="-7.5" font-family="Helvetica,sans-Serif" font-size="10.00" fill="#000000">CDPL.Grid.DRegularGridReader</text>
</a>
</g>
</g>
<!-- Node2 -->
<g id="node2" class="node">
<title>Node2</title>
<g id="a_node2"><a xlink:href="classCDPL_1_1Grid_1_1DRegularGridReaderBase.html" target="_top" xlink:title="An interface for reading data objects of type Grid.DRegularGrid from an arbitrary data source.">
<polygon fill="none" stroke="#000000" points="0,-56.5 0,-75.5 191,-75.5 191,-56.5 0,-56.5"/>
<text text-anchor="middle" x="95.5" y="-63.5" font-family="Helvetica,sans-Serif" font-size="10.00" fill="#000000">CDPL.Grid.DRegularGridReaderBase</text>
</a>
</g>
</g>
<!-- Node2&#45;&gt;Node1 -->
<g id="edge1" class="edge">
<title>Node2&#45;&gt;Node1</title>
<path fill="none" stroke="#191970" d="M95.5,-46.1575C95.5,-37.155 95.5,-26.9199 95.5,-19.6427"/>
<polygon fill="#191970" stroke="#191970" points="92.0001,-46.2455 95.5,-56.2455 99.0001,-46.2456 92.0001,-46.2455"/>
</g>
<!-- Node3 -->
<g id="node3" class="node">
<title>Node3</title>
<g id="a_node3"><a xlink:href="classCDPL_1_1Base_1_1DataIOBase.html" target="_top" xlink:title="Provides infrastructure for the registration of I/O callback functions.">
<polygon fill="none" stroke="#000000" points="30.5,-112.5 30.5,-131.5 160.5,-131.5 160.5,-112.5 30.5,-112.5"/>
<text text-anchor="middle" x="95.5" y="-119.5" font-family="Helvetica,sans-Serif" font-size="10.00" fill="#000000">CDPL.Base.DataIOBase</text>
</a>
</g>
</g>
<!-- Node3&#45;&gt;Node2 -->
<g id="edge2" class="edge">
<title>Node3&#45;&gt;Node2</title>
<path fill="none" stroke="#191970" d="M95.5,-102.1575C95.5,-93.155 95.5,-82.9199 95.5,-75.6427"/>
<polygon fill="#191970" stroke="#191970" points="92.0001,-102.2455 95.5,-112.2455 99.0001,-102.2456 92.0001,-102.2455"/>
</g>
<!-- Node4 -->
<g id="node4" class="node">
<title>Node4</title>
<g id="a_node4"><a xlink:href="classCDPL_1_1Base_1_1ControlParameterContainer.html" target="_top" xlink:title="A class providing methods for the storage and lookup of control&#45;parameter values.">
<polygon fill="none" stroke="#000000" points="16.5,-168.5 16.5,-198.5 174.5,-198.5 174.5,-168.5 16.5,-168.5"/>
<text text-anchor="start" x="24.5" y="-186.5" font-family="Helvetica,sans-Serif" font-size="10.00" fill="#000000">CDPL.Base.ControlParameter</text>
<text text-anchor="middle" x="95.5" y="-175.5" font-family="Helvetica,sans-Serif" font-size="10.00" fill="#000000">Container</text>
</a>
</g>
</g>
<!-- Node4&#45;&gt;Node3 -->
<g id="edge3" class="edge">
<title>Node4&#45;&gt;Node3</title>
<path fill="none" stroke="#191970" d="M95.5,-158.2849C95.5,-148.9858 95.5,-138.9883 95.5,-131.8469"/>
<polygon fill="#191970" stroke="#191970" points="92.0001,-158.2977 95.5,-168.2977 99.0001,-158.2978 92.0001,-158.2977"/>
</g>
<!-- Node5 -->
<g id="node5" class="node">
<title>Node5</title>
<g id="a_node5"><a xlink:title=" ">
<polygon fill="none" stroke="#bfbfbf" points="66.5,-235.5 66.5,-254.5 124.5,-254.5 124.5,-235.5 66.5,-235.5"/>
<text text-anchor="middle" x="95.5" y="-242.5" font-family="Helvetica,sans-Serif" font-size="10.00" fill="#000000">instance</text>
</a>
</g>
</g>
<!-- Node5&#45;&gt;Node4 -->
<g id="edge4" class="edge">
<title>Node5&#45;&gt;Node4</title>
<path fill="none" stroke="#191970" d="M95.5,-225.3693C95.5,-216.681 95.5,-206.6241 95.5,-198.5446"/>
<polygon fill="#191970" stroke="#191970" points="92.0001,-225.3906 95.5,-235.3906 99.0001,-225.3907 92.0001,-225.3906"/>
</g>
</g>
</svg>
