<?xml version="1.0" encoding="UTF-8" standalone="no"?>
<!DOCTYPE svg PUBLIC "-//W3C//DTD SVG 1.1//EN"
 "http://www.w3.org/Graphics/SVG/1.1/DTD/svg11.dtd">
<!-- Generated by graphviz version 2.44.0 (0)
 -->
<!-- Title: CDPL.Grid.DRegularGridReaderBase Pages: 1 -->
<!--zoomable 372 -->
<svg id="main" version="1.1" xmlns="http://www.w3.org/2000/svg" xmlns:xlink="http://www.w3.org/1999/xlink" xml:space="preserve" onload="init(evt)">
<style type="text/css"><![CDATA[
.edge:hover path { stroke: red; }
.edge:hover polygon { stroke: red; fill: red; }
]]></style>
<script type="text/javascript"><![CDATA[
var edges = document.getElementsByTagName('g');
if (edges && edges.length) {
  for (var i=0;i<edges.length;i++) {
    if (edges[i].id.substr(0,4)=='edge') {
      edges[i].setAttribute('class','edge');
    }
  }
}
]]></script>
        <defs>
                <circle id="rim" cx="0" cy="0" r="7"/>
                <circle id="rim2" cx="0" cy="0" r="3.5"/>
                <g id="zoomPlus">
                        <use xlink:href="#rim" fill="#404040">
                                <set attributeName="fill" to="#808080" begin="zoomplus.mouseover" end="zoomplus.mouseout"/>
                        </use>
                        <path d="M-4,0h8M0,-4v8" fill="none" stroke="white" stroke-width="1.5" pointer-events="none"/>
                </g>
                <g id="zoomMin">
                        <use xlink:href="#rim" fill="#404040">
                                <set attributeName="fill" to="#808080" begin="zoomminus.mouseover" end="zoomminus.mouseout"/>
                        </use>
                        <path d="M-4,0h8" fill="none" stroke="white" stroke-width="1.5" pointer-events="none"/>
                </g>
                <g id="dirArrow">
                        <path fill="none" stroke="white" stroke-width="1.5" d="M0,-3.0v7 M-2.5,-0.5L0,-3.0L2.5,-0.5"/>
                </g>
               <g id="resetDef">
                       <use xlink:href="#rim2" fill="#404040">
                               <set attributeName="fill" to="#808080" begin="reset.mouseover" end="reset.mouseout"/>
                       </use>
               </g>
        </defs>

<script type="text/javascript">
var viewWidth = 818;
var viewHeight = 372;
var sectionId = 'dynsection-0';
</script>
<script xlink:href="svgpan.js"/>
<svg id="graph" class="graph">
<g id="viewport">
<title>CDPL.Grid.DRegularGridReaderBase</title>
<!-- Node1 -->
<g id="node1" class="node">
<title>Node1</title>
<g id="a_node1"><a xlink:title="An interface for reading data objects of type Grid.DRegularGrid from an arbitrary data source.">
<polygon fill="#bfbfbf" stroke="black" points="434,-170 434,-189 613,-189 613,-170 434,-170"/>
<text text-anchor="middle" x="523.5" y="-177" font-family="Helvetica" font-size="10.00">CDPL.Grid.DRegularGridReaderBase</text>
</a>
</g>
</g>
<!-- Node5 -->
<g id="node5" class="node">
<title>Node5</title>
<g id="a_node5"><a xlink:href="classCDPL_1_1Grid_1_1CDFBZ2DRegularGridReader.html" target="_top" xlink:title=" ">
<polygon fill="none" stroke="black" points="656.5,-333.5 656.5,-363.5 802.5,-363.5 802.5,-333.5 656.5,-333.5"/>
<text text-anchor="start" x="664.5" y="-351.5" font-family="Helvetica" font-size="10.00">CDPL.Grid.CDFBZ2DRegular</text>
<text text-anchor="middle" x="729.5" y="-340.5" font-family="Helvetica" font-size="10.00">GridReader</text>
</a>
</g>
</g>
<!-- Node1&#45;&gt;Node5 -->
<g id="edge4" class="edge">
<title>Node1&#45;&gt;Node5</title>
<path fill="none" stroke="midnightblue" d="M535.49,-198.15C554.64,-229.02 597.07,-290.68 649,-324.5 654.19,-327.88 659.89,-330.81 665.76,-333.33"/>
<polygon fill="midnightblue" stroke="midnightblue" points="538.29,-196.02 530.11,-189.28 532.31,-199.65 538.29,-196.02"/>
</g>
<!-- Node6 -->
<g id="node6" class="node">
<title>Node6</title>
<g id="a_node6"><a xlink:href="classCDPL_1_1Grid_1_1CDFDRegularGridReader.html" target="_top" xlink:title="A reader for spatial regular grid data in the native I/O format of the CDPL.">
<polygon fill="none" stroke="black" points="656.5,-284.5 656.5,-314.5 802.5,-314.5 802.5,-284.5 656.5,-284.5"/>
<text text-anchor="start" x="664.5" y="-302.5" font-family="Helvetica" font-size="10.00">CDPL.Grid.CDFDRegularGrid</text>
<text text-anchor="middle" x="729.5" y="-291.5" font-family="Helvetica" font-size="10.00">Reader</text>
</a>
</g>
</g>
<!-- Node1&#45;&gt;Node6 -->
<g id="edge5" class="edge">
<title>Node1&#45;&gt;Node6</title>
<path fill="none" stroke="midnightblue" d="M541.77,-196.17C564.59,-217.37 606.85,-253.82 649,-275.5 655.54,-278.86 662.63,-281.84 669.79,-284.45"/>
<polygon fill="midnightblue" stroke="midnightblue" points="543.95,-193.42 534.28,-189.11 539.15,-198.52 543.95,-193.42"/>
</g>
<!-- Node7 -->
<g id="node7" class="node">
<title>Node7</title>
<g id="a_node7"><a xlink:href="classCDPL_1_1Grid_1_1CDFGZDRegularGridReader.html" target="_top" xlink:title=" ">
<polygon fill="none" stroke="black" points="650,-235.5 650,-265.5 809,-265.5 809,-235.5 650,-235.5"/>
<text text-anchor="start" x="658" y="-253.5" font-family="Helvetica" font-size="10.00">CDPL.Grid.CDFGZDRegularGrid</text>
<text text-anchor="middle" x="729.5" y="-242.5" font-family="Helvetica" font-size="10.00">Reader</text>
</a>
</g>
</g>
<!-- Node1&#45;&gt;Node7 -->
<g id="edge6" class="edge">
<title>Node1&#45;&gt;Node7</title>
<path fill="none" stroke="midnightblue" d="M558.03,-192.86C582.96,-202.63 617.9,-215.95 649,-226.5 657.87,-229.51 667.37,-232.54 676.59,-235.38"/>
<polygon fill="midnightblue" stroke="midnightblue" points="559.24,-189.58 548.66,-189.18 556.68,-196.09 559.24,-189.58"/>
</g>
<!-- Node8 -->
<g id="node8" class="node">
<title>Node8</title>
<g id="a_node8"><a xlink:href="classCDPL_1_1Grid_1_1CompoundDRegularGridReader.html" target="_top" xlink:title="CompoundDataReader.">
<polygon fill="none" stroke="black" points="652,-186.5 652,-216.5 807,-216.5 807,-186.5 652,-186.5"/>
<text text-anchor="start" x="660" y="-204.5" font-family="Helvetica" font-size="10.00">CDPL.Grid.CompoundDRegular</text>
<text text-anchor="middle" x="729.5" y="-193.5" font-family="Helvetica" font-size="10.00">GridReader</text>
</a>
</g>
</g>
<!-- Node1&#45;&gt;Node8 -->
<g id="edge7" class="edge">
<title>Node1&#45;&gt;Node8</title>
<path fill="none" stroke="midnightblue" d="M622.91,-190.11C632.66,-191.16 642.45,-192.22 651.92,-193.24"/>
<polygon fill="midnightblue" stroke="midnightblue" points="623.11,-186.61 612.79,-189.02 622.36,-193.57 623.11,-186.61"/>
</g>
<!-- Node9 -->
<g id="node9" class="node">
<title>Node9</title>
<g id="a_node9"><a xlink:href="classCDPL_1_1Grid_1_1DRegularGridReader.html" target="_top" xlink:title="Reader for grid data of type Grid.DRegularGrid in any supported format.">
<polygon fill="none" stroke="black" points="651.5,-148 651.5,-167 807.5,-167 807.5,-148 651.5,-148"/>
<text text-anchor="middle" x="729.5" y="-155" font-family="Helvetica" font-size="10.00">CDPL.Grid.DRegularGridReader</text>
</a>
</g>
</g>
<!-- Node1&#45;&gt;Node9 -->
<g id="edge8" class="edge">
<title>Node1&#45;&gt;Node9</title>
<path fill="none" stroke="midnightblue" d="M622.75,-168.9C632.33,-167.87 641.95,-166.83 651.29,-165.83"/>
<polygon fill="midnightblue" stroke="midnightblue" points="622.36,-165.43 612.79,-169.98 623.11,-172.39 622.36,-165.43"/>
</g>
<!-- Node10 -->
<g id="node10" class="node">
<title>Node10</title>
<g id="a_node10"><a xlink:href="classCDPL_1_1Grid_1_1FileCDFBZ2DRegularGridReader.html" target="_top" xlink:title=" ">
<polygon fill="none" stroke="black" points="649,-98.5 649,-128.5 810,-128.5 810,-98.5 649,-98.5"/>
<text text-anchor="start" x="657" y="-116.5" font-family="Helvetica" font-size="10.00">CDPL.Grid.FileCDFBZ2DRegular</text>
<text text-anchor="middle" x="729.5" y="-105.5" font-family="Helvetica" font-size="10.00">GridReader</text>
</a>
</g>
</g>
<!-- Node1&#45;&gt;Node10 -->
<g id="edge9" class="edge">
<title>Node1&#45;&gt;Node10</title>
<path fill="none" stroke="midnightblue" d="M562.82,-166.73C587.42,-158.57 620.06,-147.81 649,-138.5 659.05,-135.26 669.84,-131.84 680.12,-128.6"/>
<polygon fill="midnightblue" stroke="midnightblue" points="561.53,-163.47 553.15,-169.95 563.74,-170.12 561.53,-163.47"/>
</g>
<!-- Node11 -->
<g id="node11" class="node">
<title>Node11</title>
<g id="a_node11"><a xlink:href="classCDPL_1_1Grid_1_1FileCDFDRegularGridReader.html" target="_top" xlink:title=" ">
<polygon fill="none" stroke="black" points="658,-49.5 658,-79.5 801,-79.5 801,-49.5 658,-49.5"/>
<text text-anchor="start" x="666" y="-67.5" font-family="Helvetica" font-size="10.00">CDPL.Grid.FileCDFDRegular</text>
<text text-anchor="middle" x="729.5" y="-56.5" font-family="Helvetica" font-size="10.00">GridReader</text>
</a>
</g>
</g>
<!-- Node1&#45;&gt;Node11 -->
<g id="edge10" class="edge">
<title>Node1&#45;&gt;Node11</title>
<path fill="none" stroke="midnightblue" d="M542.65,-163.13C565.8,-143.01 607.81,-109.02 649,-88.5 655.71,-85.16 662.97,-82.18 670.29,-79.56"/>
<polygon fill="midnightblue" stroke="midnightblue" points="540.19,-160.63 535.01,-169.87 544.82,-165.88 540.19,-160.63"/>
</g>
<!-- Node12 -->
<g id="node12" class="node">
<title>Node12</title>
<g id="a_node12"><a xlink:href="classCDPL_1_1Grid_1_1FileCDFGZDRegularGridReader.html" target="_top" xlink:title=" ">
<polygon fill="none" stroke="black" points="651,-0.5 651,-30.5 808,-30.5 808,-0.5 651,-0.5"/>
<text text-anchor="start" x="659" y="-18.5" font-family="Helvetica" font-size="10.00">CDPL.Grid.FileCDFGZDRegular</text>
<text text-anchor="middle" x="729.5" y="-7.5" font-family="Helvetica" font-size="10.00">GridReader</text>
</a>
</g>
</g>
<!-- Node1&#45;&gt;Node12 -->
<g id="edge11" class="edge">
<title>Node1&#45;&gt;Node12</title>
<path fill="none" stroke="midnightblue" d="M535.94,-161.07C555.45,-131.14 598.05,-72.05 649,-39.5 654.35,-36.08 660.2,-33.13 666.24,-30.59"/>
<polygon fill="midnightblue" stroke="midnightblue" points="532.86,-159.38 530.43,-169.69 538.76,-163.15 532.86,-159.38"/>
</g>
<!-- Node2 -->
<g id="node2" class="node">
<title>Node2</title>
<g id="a_node2"><a xlink:href="classCDPL_1_1Base_1_1DataIOBase.html" target="_top" xlink:title="Provides infrastructure for the registration of I/O callback functions.">
<polygon fill="none" stroke="black" points="273,-170 273,-189 398,-189 398,-170 273,-170"/>
<text text-anchor="middle" x="335.5" y="-177" font-family="Helvetica" font-size="10.00">CDPL.Base.DataIOBase</text>
</a>
</g>
</g>
<!-- Node2&#45;&gt;Node1 -->
<g id="edge1" class="edge">
<title>Node2&#45;&gt;Node1</title>
<path fill="none" stroke="midnightblue" d="M408.24,-179.5C416.6,-179.5 425.21,-179.5 433.77,-179.5"/>
<polygon fill="midnightblue" stroke="midnightblue" points="408.18,-176 398.18,-179.5 408.18,-183 408.18,-176"/>
</g>
<!-- Node3 -->
<g id="node3" class="node">
<title>Node3</title>
<g id="a_node3"><a xlink:href="classCDPL_1_1Base_1_1ControlParameterContainer.html" target="_top" xlink:title="A class providing methods for the storage and lookup of control&#45;parameter values.">
<polygon fill="none" stroke="black" points="89,-164.5 89,-194.5 237,-194.5 237,-164.5 89,-164.5"/>
<text text-anchor="start" x="97" y="-182.5" font-family="Helvetica" font-size="10.00">CDPL.Base.ControlParameter</text>
<text text-anchor="middle" x="163" y="-171.5" font-family="Helvetica" font-size="10.00">Container</text>
</a>
</g>
</g>
<!-- Node3&#45;&gt;Node2 -->
<g id="edge2" class="edge">
<title>Node3&#45;&gt;Node2</title>
<path fill="none" stroke="midnightblue" d="M247.33,-179.5C255.9,-179.5 264.5,-179.5 272.77,-179.5"/>
<polygon fill="midnightblue" stroke="midnightblue" points="247.3,-176 237.3,-179.5 247.3,-183 247.3,-176"/>
</g>
<!-- Node4 -->
<g id="node4" class="node">
<title>Node4</title>
<g id="a_node4"><a xlink:title=" ">
<polygon fill="none" stroke="#bfbfbf" points="0,-170 0,-189 53,-189 53,-170 0,-170"/>
<text text-anchor="middle" x="26.5" y="-177" font-family="Helvetica" font-size="10.00">instance</text>
</a>
</g>
</g>
<!-- Node4&#45;&gt;Node3 -->
<g id="edge3" class="edge">
<title>Node4&#45;&gt;Node3</title>
<path fill="none" stroke="midnightblue" d="M63.14,-179.5C71.15,-179.5 79.93,-179.5 88.85,-179.5"/>
<polygon fill="midnightblue" stroke="midnightblue" points="63.12,-176 53.12,-179.5 63.11,-183 63.12,-176"/>
</g>
</g>
</svg>
        <g id="navigator" transform="translate(0 0)" fill="#404254">
                <rect fill="#f2f5e9" fill-opacity="0.5" stroke="#606060" stroke-width=".5" x="0" y="0" width="60" height="60"/>
                <use id="zoomplus" xlink:href="#zoomPlus" x="17" y="9" onmousedown="handleZoom(evt,'in')"/>
                <use id="zoomminus" xlink:href="#zoomMin" x="42" y="9" onmousedown="handleZoom(evt,'out')"/>
                <use id="reset" xlink:href="#resetDef" x="30" y="36" onmousedown="handleReset()"/>
                <g id="arrowUp" xlink:href="#dirArrow" transform="translate(30 24)" onmousedown="handlePan(0,-1)">
                  <use xlink:href="#rim" fill="#404040">
                        <set attributeName="fill" to="#808080" begin="arrowUp.mouseover" end="arrowUp.mouseout"/>
                  </use>
                  <path fill="none" stroke="white" stroke-width="1.5" d="M0,-3.0v7 M-2.5,-0.5L0,-3.0L2.5,-0.5"/>
                </g>
                <g id="arrowRight" xlink:href="#dirArrow" transform="rotate(90) translate(36 -43)" onmousedown="handlePan(1,0)">
                  <use xlink:href="#rim" fill="#404040">
                        <set attributeName="fill" to="#808080" begin="arrowRight.mouseover" end="arrowRight.mouseout"/>
                  </use>
                  <path fill="none" stroke="white" stroke-width="1.5" d="M0,-3.0v7 M-2.5,-0.5L0,-3.0L2.5,-0.5"/>
                </g>
                <g id="arrowDown" xlink:href="#dirArrow" transform="rotate(180) translate(-30 -48)" onmousedown="handlePan(0,1)">
                  <use xlink:href="#rim" fill="#404040">
                        <set attributeName="fill" to="#808080" begin="arrowDown.mouseover" end="arrowDown.mouseout"/>
                  </use>
                  <path fill="none" stroke="white" stroke-width="1.5" d="M0,-3.0v7 M-2.5,-0.5L0,-3.0L2.5,-0.5"/>
                </g>
                <g id="arrowLeft" xlink:href="#dirArrow" transform="rotate(270) translate(-36 17)" onmousedown="handlePan(-1,0)">
                  <use xlink:href="#rim" fill="#404040">
                        <set attributeName="fill" to="#808080" begin="arrowLeft.mouseover" end="arrowLeft.mouseout"/>
                  </use>
                  <path fill="none" stroke="white" stroke-width="1.5" d="M0,-3.0v7 M-2.5,-0.5L0,-3.0L2.5,-0.5"/>
                </g>
        </g>
        <svg viewBox="0 0 15 15" width="100%" height="30px" preserveAspectRatio="xMaxYMin meet">
         <g id="arrow_out" transform="scale(0.3 0.3)">
          <a xlink:href="classCDPL_1_1Grid_1_1DRegularGridReaderBase__inherit__graph_org.svg" target="_base">
           <rect id="button" ry="5" rx="5" y="6" x="6" height="38" width="38"
                fill="#f2f5e9" fill-opacity="0.5" stroke="#606060" stroke-width="1.0"/>
           <path id="arrow"
             d="M 11.500037,31.436501 C 11.940474,20.09759 22.043105,11.32322 32.158766,21.979434 L 37.068811,17.246167 C 37.068811,17.246167 37.088388,32 37.088388,32 L 22.160133,31.978069 C 22.160133,31.978069 26.997745,27.140456 26.997745,27.140456 C 18.528582,18.264221 13.291696,25.230495 11.500037,31.436501 z"
             style="fill:#404040;"/>
          </a>
         </g>
        </svg>
</svg>
