<?xml version="1.0" encoding="UTF-8" standalone="no"?>
<!DOCTYPE svg PUBLIC "-//W3C//DTD SVG 1.1//EN"
 "http://www.w3.org/Graphics/SVG/1.1/DTD/svg11.dtd">
<!-- Generated by graphviz version 2.44.0 (0)
 -->
<!-- Title: CDPL.Grid.DRegularGridOutputHandler Pages: 1 -->
<!--zoomable 186 -->
<svg id="main" version="1.1" xmlns="http://www.w3.org/2000/svg" xmlns:xlink="http://www.w3.org/1999/xlink" xml:space="preserve" onload="init(evt)">
<style type="text/css"><![CDATA[
.edge:hover path { stroke: red; }
.edge:hover polygon { stroke: red; fill: red; }
]]></style>
<script type="text/javascript"><![CDATA[
var edges = document.getElementsByTagName('g');
if (edges && edges.length) {
  for (var i=0;i<edges.length;i++) {
    if (edges[i].id.substr(0,4)=='edge') {
      edges[i].setAttribute('class','edge');
    }
  }
}
]]></script>
        <defs>
                <circle id="rim" cx="0" cy="0" r="7"/>
                <circle id="rim2" cx="0" cy="0" r="3.5"/>
                <g id="zoomPlus">
                        <use xlink:href="#rim" fill="#404040">
                                <set attributeName="fill" to="#808080" begin="zoomplus.mouseover" end="zoomplus.mouseout"/>
                        </use>
                        <path d="M-4,0h8M0,-4v8" fill="none" stroke="white" stroke-width="1.5" pointer-events="none"/>
                </g>
                <g id="zoomMin">
                        <use xlink:href="#rim" fill="#404040">
                                <set attributeName="fill" to="#808080" begin="zoomminus.mouseover" end="zoomminus.mouseout"/>
                        </use>
                        <path d="M-4,0h8" fill="none" stroke="white" stroke-width="1.5" pointer-events="none"/>
                </g>
                <g id="dirArrow">
                        <path fill="none" stroke="white" stroke-width="1.5" d="M0,-3.0v7 M-2.5,-0.5L0,-3.0L2.5,-0.5"/>
                </g>
               <g id="resetDef">
                       <use xlink:href="#rim2" fill="#404040">
                               <set attributeName="fill" to="#808080" begin="reset.mouseover" end="reset.mouseout"/>
                       </use>
               </g>
        </defs>

<script type="text/javascript">
var viewWidth = 509;
var viewHeight = 186;
var sectionId = 'dynsection-0';
</script>
<script xlink:href="svgpan.js"/>
<svg id="graph" class="graph">
<g id="viewport">
<title>CDPL.Grid.DRegularGridOutputHandler</title>
<polygon fill="white" stroke="transparent" points="-4,4 -4,-182 505,-182 505,4 -4,4"/>
<!-- Node1 -->
<g id="node1" class="node">
<title>Node1</title>
<g id="a_node1"><a xlink:title="A factory interface providing methods for the creation of Grid.DRegularGridWriterBase instances for d...">
<polygon fill="#bfbfbf" stroke="black" points="151,-73.5 151,-103.5 306,-103.5 306,-73.5 151,-73.5"/>
<text text-anchor="start" x="159" y="-91.5" font-family="Helvetica" font-size="10.00">CDPL.Grid.DRegularGridOutput</text>
<text text-anchor="middle" x="228.5" y="-80.5" font-family="Helvetica" font-size="10.00">Handler</text>
</a>
</g>
</g>
<!-- Node3 -->
<g id="node3" class="node">
<title>Node3</title>
<g id="a_node3"><a xlink:href="classCDPL_1_1Grid_1_1CDFBZ2DRegularGridOutputHandler.html" target="_top" xlink:title="A handler for the output of bzip2&#45;compressed regular spatial grid data in the native I/O format of th...">
<polygon fill="white" stroke="black" points="348.5,-147.5 348.5,-177.5 494.5,-177.5 494.5,-147.5 348.5,-147.5"/>
<text text-anchor="start" x="356.5" y="-165.5" font-family="Helvetica" font-size="10.00">CDPL.Grid.CDFBZ2DRegular</text>
<text text-anchor="middle" x="421.5" y="-154.5" font-family="Helvetica" font-size="10.00">GridOutputHandler</text>
</a>
</g>
</g>
<!-- Node1&#45;&gt;Node3 -->
<g id="edge2" class="edge">
<title>Node1&#45;&gt;Node3</title>
<path fill="none" stroke="midnightblue" d="M269.93,-107.9C291.14,-117.71 317.69,-129.42 342,-138.5 350.28,-141.59 359.15,-144.59 367.84,-147.37"/>
<polygon fill="midnightblue" stroke="midnightblue" points="271.14,-104.6 260.6,-103.55 268.18,-110.94 271.14,-104.6"/>
</g>
<!-- Node4 -->
<g id="node4" class="node">
<title>Node4</title>
<g id="a_node4"><a xlink:href="classCDPL_1_1Grid_1_1CDFDRegularGridOutputHandler.html" target="_top" xlink:title="A handler for the output of regular spatial grid data in the native I/O format of the CDPL.">
<polygon fill="white" stroke="black" points="348.5,-98.5 348.5,-128.5 494.5,-128.5 494.5,-98.5 348.5,-98.5"/>
<text text-anchor="start" x="356.5" y="-116.5" font-family="Helvetica" font-size="10.00">CDPL.Grid.CDFDRegularGrid</text>
<text text-anchor="middle" x="421.5" y="-105.5" font-family="Helvetica" font-size="10.00">OutputHandler</text>
</a>
</g>
</g>
<!-- Node1&#45;&gt;Node4 -->
<g id="edge3" class="edge">
<title>Node1&#45;&gt;Node4</title>
<path fill="none" stroke="midnightblue" d="M316.27,-99.86C326.96,-101.26 337.79,-102.67 348.24,-104.04"/>
<polygon fill="midnightblue" stroke="midnightblue" points="316.46,-96.35 306.09,-98.52 315.55,-103.29 316.46,-96.35"/>
</g>
<!-- Node5 -->
<g id="node5" class="node">
<title>Node5</title>
<g id="a_node5"><a xlink:href="classCDPL_1_1Grid_1_1CDFGZDRegularGridOutputHandler.html" target="_top" xlink:title="A handler for the output of gzip&#45;compressed regular spatial grid data in the native I/O format of the...">
<polygon fill="white" stroke="black" points="342,-49.5 342,-79.5 501,-79.5 501,-49.5 342,-49.5"/>
<text text-anchor="start" x="350" y="-67.5" font-family="Helvetica" font-size="10.00">CDPL.Grid.CDFGZDRegularGrid</text>
<text text-anchor="middle" x="421.5" y="-56.5" font-family="Helvetica" font-size="10.00">OutputHandler</text>
</a>
</g>
</g>
<!-- Node1&#45;&gt;Node5 -->
<g id="edge4" class="edge">
<title>Node1&#45;&gt;Node5</title>
<path fill="none" stroke="midnightblue" d="M316.06,-77.62C324.61,-76.55 333.25,-75.46 341.71,-74.4"/>
<polygon fill="midnightblue" stroke="midnightblue" points="315.57,-74.16 306.09,-78.88 316.44,-81.1 315.57,-74.16"/>
</g>
<!-- Node6 -->
<g id="node6" class="node">
<title>Node6</title>
<g id="a_node6"><a xlink:href="classCDPL_1_1Grid_1_1CUBEDRegularGridOutputHandler.html" target="_top" xlink:title="A handler for the output of regular spatial grid data in the Gaussian CUBE [CUBE] format.">
<polygon fill="white" stroke="black" points="344.5,-0.5 344.5,-30.5 498.5,-30.5 498.5,-0.5 344.5,-0.5"/>
<text text-anchor="start" x="352.5" y="-18.5" font-family="Helvetica" font-size="10.00">CDPL.Grid.CUBEDRegularGrid</text>
<text text-anchor="middle" x="421.5" y="-7.5" font-family="Helvetica" font-size="10.00">OutputHandler</text>
</a>
</g>
</g>
<!-- Node1&#45;&gt;Node6 -->
<g id="edge5" class="edge">
<title>Node1&#45;&gt;Node6</title>
<path fill="none" stroke="midnightblue" d="M270.89,-69.13C291.94,-59.61 318.08,-48.33 342,-39.5 350.42,-36.39 359.45,-33.36 368.28,-30.55"/>
<polygon fill="midnightblue" stroke="midnightblue" points="269.24,-66.03 261.59,-73.36 272.14,-72.4 269.24,-66.03"/>
</g>
<!-- Node2 -->
<g id="node2" class="node">
<title>Node2</title>
<g id="a_node2"><a xlink:title=" ">
<polygon fill="white" stroke="#bfbfbf" points="0,-79 0,-98 115,-98 115,-79 0,-79"/>
<text text-anchor="middle" x="57.5" y="-86" font-family="Helvetica" font-size="10.00">Boost.Python.instance</text>
</a>
</g>
</g>
<!-- Node2&#45;&gt;Node1 -->
<g id="edge1" class="edge">
<title>Node2&#45;&gt;Node1</title>
<path fill="none" stroke="midnightblue" d="M125.31,-88.5C133.67,-88.5 142.28,-88.5 150.79,-88.5"/>
<polygon fill="midnightblue" stroke="midnightblue" points="125.24,-85 115.24,-88.5 125.24,-92 125.24,-85"/>
</g>
</g>
</svg>
        <g id="navigator" transform="translate(0 0)" fill="#404254">
                <rect fill="#f2f5e9" fill-opacity="0.5" stroke="#606060" stroke-width=".5" x="0" y="0" width="60" height="60"/>
                <use id="zoomplus" xlink:href="#zoomPlus" x="17" y="9" onmousedown="handleZoom(evt,'in')"/>
                <use id="zoomminus" xlink:href="#zoomMin" x="42" y="9" onmousedown="handleZoom(evt,'out')"/>
                <use id="reset" xlink:href="#resetDef" x="30" y="36" onmousedown="handleReset()"/>
                <g id="arrowUp" xlink:href="#dirArrow" transform="translate(30 24)" onmousedown="handlePan(0,-1)">
                  <use xlink:href="#rim" fill="#404040">
                        <set attributeName="fill" to="#808080" begin="arrowUp.mouseover" end="arrowUp.mouseout"/>
                  </use>
                  <path fill="none" stroke="white" stroke-width="1.5" d="M0,-3.0v7 M-2.5,-0.5L0,-3.0L2.5,-0.5"/>
                </g>
                <g id="arrowRight" xlink:href="#dirArrow" transform="rotate(90) translate(36 -43)" onmousedown="handlePan(1,0)">
                  <use xlink:href="#rim" fill="#404040">
                        <set attributeName="fill" to="#808080" begin="arrowRight.mouseover" end="arrowRight.mouseout"/>
                  </use>
                  <path fill="none" stroke="white" stroke-width="1.5" d="M0,-3.0v7 M-2.5,-0.5L0,-3.0L2.5,-0.5"/>
                </g>
                <g id="arrowDown" xlink:href="#dirArrow" transform="rotate(180) translate(-30 -48)" onmousedown="handlePan(0,1)">
                  <use xlink:href="#rim" fill="#404040">
                        <set attributeName="fill" to="#808080" begin="arrowDown.mouseover" end="arrowDown.mouseout"/>
                  </use>
                  <path fill="none" stroke="white" stroke-width="1.5" d="M0,-3.0v7 M-2.5,-0.5L0,-3.0L2.5,-0.5"/>
                </g>
                <g id="arrowLeft" xlink:href="#dirArrow" transform="rotate(270) translate(-36 17)" onmousedown="handlePan(-1,0)">
                  <use xlink:href="#rim" fill="#404040">
                        <set attributeName="fill" to="#808080" begin="arrowLeft.mouseover" end="arrowLeft.mouseout"/>
                  </use>
                  <path fill="none" stroke="white" stroke-width="1.5" d="M0,-3.0v7 M-2.5,-0.5L0,-3.0L2.5,-0.5"/>
                </g>
        </g>
        <svg viewBox="0 0 15 15" width="100%" height="30px" preserveAspectRatio="xMaxYMin meet">
         <g id="arrow_out" transform="scale(0.3 0.3)">
          <a xlink:href="classCDPL_1_1Grid_1_1DRegularGridOutputHandler__inherit__graph_org.svg" target="_base">
           <rect id="button" ry="5" rx="5" y="6" x="6" height="38" width="38"
                fill="#f2f5e9" fill-opacity="0.5" stroke="#606060" stroke-width="1.0"/>
           <path id="arrow"
             d="M 11.500037,31.436501 C 11.940474,20.09759 22.043105,11.32322 32.158766,21.979434 L 37.068811,17.246167 C 37.068811,17.246167 37.088388,32 37.088388,32 L 22.160133,31.978069 C 22.160133,31.978069 26.997745,27.140456 26.997745,27.140456 C 18.528582,18.264221 13.291696,25.230495 11.500037,31.436501 z"
             style="fill:#404040;"/>
          </a>
         </g>
        </svg>
</svg>
