<?xml version="1.0" encoding="UTF-8" standalone="no"?>
<!DOCTYPE svg PUBLIC "-//W3C//DTD SVG 1.1//EN"
 "http://www.w3.org/Graphics/SVG/1.1/DTD/svg11.dtd">
<!-- Generated by graphviz version 2.44.0 (0)
 -->
<!-- Title: CDPL.Vis.GraphicsPrimitive2D Pages: 1 -->
<svg width="442pt" height="382pt"
 viewBox="0.00 0.00 442.00 382.00" xmlns="http://www.w3.org/2000/svg" xmlns:xlink="http://www.w3.org/1999/xlink">
<g id="graph0" class="graph" transform="scale(1 1) rotate(0) translate(4 378)">
<title>CDPL.Vis.GraphicsPrimitive2D</title>
<!-- Node1 -->
<g id="node1" class="node">
<title>Node1</title>
<g id="a_node1"><a xlink:title="The abstract base class of all 2D graphics primitives.">
<polygon fill="#bfbfbf" stroke="black" points="89,-171.5 89,-190.5 241,-190.5 241,-171.5 89,-171.5"/>
<text text-anchor="middle" x="165" y="-178.5" font-family="Helvetica" font-size="10.00">CDPL.Vis.GraphicsPrimitive2D</text>
</a>
</g>
</g>
<!-- Node3 -->
<g id="node3" class="node">
<title>Node3</title>
<g id="a_node3"><a xlink:href="classCDPL_1_1Vis_1_1ClipPathPrimitive2D.html" target="_top" xlink:title="A graphics primitive representing a clipping region in 2D space.">
<polygon fill="none" stroke="black" points="280,-354.5 280,-373.5 431,-373.5 431,-354.5 280,-354.5"/>
<text text-anchor="middle" x="355.5" y="-361.5" font-family="Helvetica" font-size="10.00">CDPL.Vis.ClipPathPrimitive2D</text>
</a>
</g>
</g>
<!-- Node1&#45;&gt;Node3 -->
<g id="edge2" class="edge">
<title>Node1&#45;&gt;Node3</title>
<path fill="none" stroke="midnightblue" d="M173.36,-199.97C187.76,-234.49 223.04,-307.44 277,-345 282.57,-348.88 288.85,-351.97 295.36,-354.43"/>
<polygon fill="midnightblue" stroke="midnightblue" points="176.56,-198.54 169.56,-190.58 170.07,-201.16 176.56,-198.54"/>
</g>
<!-- Node4 -->
<g id="node4" class="node">
<title>Node4</title>
<g id="a_node4"><a xlink:href="classCDPL_1_1Vis_1_1EllipsePrimitive2D.html" target="_top" xlink:title="A graphics primitive representing a ellipse.">
<polygon fill="none" stroke="black" points="284,-316.5 284,-335.5 427,-335.5 427,-316.5 284,-316.5"/>
<text text-anchor="middle" x="355.5" y="-323.5" font-family="Helvetica" font-size="10.00">CDPL.Vis.EllipsePrimitive2D</text>
</a>
</g>
</g>
<!-- Node1&#45;&gt;Node4 -->
<g id="edge3" class="edge">
<title>Node1&#45;&gt;Node4</title>
<path fill="none" stroke="midnightblue" d="M176.95,-199.39C194.46,-227.15 231.49,-279.44 277,-307 283.4,-310.88 290.55,-313.96 297.84,-316.42"/>
<polygon fill="midnightblue" stroke="midnightblue" points="179.8,-197.35 171.58,-190.67 173.84,-201.02 179.8,-197.35"/>
</g>
<!-- Node5 -->
<g id="node5" class="node">
<title>Node5</title>
<g id="a_node5"><a xlink:href="classCDPL_1_1Vis_1_1LinePrimitive2D.html" target="_top" xlink:title="A graphics primitive representing a single line.">
<polygon fill="none" stroke="black" points="290,-278.5 290,-297.5 421,-297.5 421,-278.5 290,-278.5"/>
<text text-anchor="middle" x="355.5" y="-285.5" font-family="Helvetica" font-size="10.00">CDPL.Vis.LinePrimitive2D</text>
</a>
</g>
</g>
<!-- Node1&#45;&gt;Node5 -->
<g id="edge4" class="edge">
<title>Node1&#45;&gt;Node5</title>
<path fill="none" stroke="midnightblue" d="M182.31,-197.76C202.66,-217.69 239.37,-250.57 277,-269 284.84,-272.84 293.51,-275.94 302.14,-278.43"/>
<polygon fill="midnightblue" stroke="midnightblue" points="184.66,-195.16 175.11,-190.57 179.72,-200.11 184.66,-195.16"/>
</g>
<!-- Node6 -->
<g id="node6" class="node">
<title>Node6</title>
<g id="a_node6"><a xlink:href="classCDPL_1_1Vis_1_1LineSegmentListPrimitive2D.html" target="_top" xlink:title="A graphics primitive representing a list of disjoint line segments.">
<polygon fill="none" stroke="black" points="287.5,-229 287.5,-259 423.5,-259 423.5,-229 287.5,-229"/>
<text text-anchor="start" x="295.5" y="-247" font-family="Helvetica" font-size="10.00">CDPL.Vis.LineSegmentList</text>
<text text-anchor="middle" x="355.5" y="-236" font-family="Helvetica" font-size="10.00">Primitive2D</text>
</a>
</g>
</g>
<!-- Node1&#45;&gt;Node6 -->
<g id="edge5" class="edge">
<title>Node1&#45;&gt;Node6</title>
<path fill="none" stroke="midnightblue" d="M203.06,-193.87C224.61,-201.31 252.3,-210.79 277,-219 286.79,-222.26 297.3,-225.69 307.32,-228.93"/>
<polygon fill="midnightblue" stroke="midnightblue" points="203.92,-190.47 193.32,-190.51 201.63,-197.08 203.92,-190.47"/>
</g>
<!-- Node7 -->
<g id="node7" class="node">
<title>Node7</title>
<g id="a_node7"><a xlink:href="classCDPL_1_1Vis_1_1PathPrimitive2D.html" target="_top" xlink:title="A graphics primitive representing an arbitrary path in 2D space.">
<polygon fill="none" stroke="black" points="288.5,-190.5 288.5,-209.5 422.5,-209.5 422.5,-190.5 288.5,-190.5"/>
<text text-anchor="middle" x="355.5" y="-197.5" font-family="Helvetica" font-size="10.00">CDPL.Vis.PathPrimitive2D</text>
</a>
</g>
</g>
<!-- Node1&#45;&gt;Node7 -->
<g id="edge6" class="edge">
<title>Node1&#45;&gt;Node7</title>
<path fill="none" stroke="midnightblue" d="M251,-189.57C263.49,-190.83 276.21,-192.11 288.25,-193.32"/>
<polygon fill="midnightblue" stroke="midnightblue" points="251.34,-186.08 241.04,-188.56 250.64,-193.05 251.34,-186.08"/>
</g>
<!-- Node8 -->
<g id="node8" class="node">
<title>Node8</title>
<g id="a_node8"><a xlink:href="classCDPL_1_1Vis_1_1PointListPrimitive2D.html" target="_top" xlink:title="A graphics primitive representing a list of points.">
<polygon fill="none" stroke="black" points="279.5,-152.5 279.5,-171.5 431.5,-171.5 431.5,-152.5 279.5,-152.5"/>
<text text-anchor="middle" x="355.5" y="-159.5" font-family="Helvetica" font-size="10.00">CDPL.Vis.PointListPrimitive2D</text>
</a>
</g>
</g>
<!-- Node1&#45;&gt;Node8 -->
<g id="edge7" class="edge">
<title>Node1&#45;&gt;Node8</title>
<path fill="none" stroke="midnightblue" d="M251.19,-172.41C260.6,-171.46 270.13,-170.5 279.41,-169.57"/>
<polygon fill="midnightblue" stroke="midnightblue" points="250.64,-168.95 241.04,-173.44 251.34,-175.92 250.64,-168.95"/>
</g>
<!-- Node9 -->
<g id="node9" class="node">
<title>Node9</title>
<g id="a_node9"><a xlink:href="classCDPL_1_1Vis_1_1PolygonPrimitive2D.html" target="_top" xlink:title="A graphics primitive representing a polygon.">
<polygon fill="none" stroke="black" points="281.5,-114.5 281.5,-133.5 429.5,-133.5 429.5,-114.5 281.5,-114.5"/>
<text text-anchor="middle" x="355.5" y="-121.5" font-family="Helvetica" font-size="10.00">CDPL.Vis.PolygonPrimitive2D</text>
</a>
</g>
</g>
<!-- Node1&#45;&gt;Node9 -->
<g id="edge8" class="edge">
<title>Node1&#45;&gt;Node9</title>
<path fill="none" stroke="midnightblue" d="M201.26,-168.03C222.95,-160.27 251.4,-150.5 277,-143 288.43,-139.65 300.93,-136.41 312.49,-133.57"/>
<polygon fill="midnightblue" stroke="midnightblue" points="200.03,-164.75 191.81,-171.43 202.4,-171.34 200.03,-164.75"/>
</g>
<!-- Node10 -->
<g id="node10" class="node">
<title>Node10</title>
<g id="a_node10"><a xlink:href="classCDPL_1_1Vis_1_1PolylinePrimitive2D.html" target="_top" xlink:title="A graphics primitive representing a set of connected line segments.">
<polygon fill="none" stroke="black" points="281.5,-76.5 281.5,-95.5 429.5,-95.5 429.5,-76.5 281.5,-76.5"/>
<text text-anchor="middle" x="355.5" y="-83.5" font-family="Helvetica" font-size="10.00">CDPL.Vis.PolylinePrimitive2D</text>
</a>
</g>
</g>
<!-- Node1&#45;&gt;Node10 -->
<g id="edge9" class="edge">
<title>Node1&#45;&gt;Node10</title>
<path fill="none" stroke="midnightblue" d="M185.02,-164.78C206.16,-147.54 241.96,-120.67 277,-105 285.47,-101.21 294.82,-98.11 304,-95.58"/>
<polygon fill="midnightblue" stroke="midnightblue" points="182.62,-162.22 177.16,-171.3 187.09,-167.61 182.62,-162.22"/>
</g>
<!-- Node11 -->
<g id="node11" class="node">
<title>Node11</title>
<g id="a_node11"><a xlink:href="classCDPL_1_1Vis_1_1TextBlockPrimitive2D.html" target="_top" xlink:title="A graphics primitive representing a block of styled text.">
<polygon fill="none" stroke="black" points="277,-38.5 277,-57.5 434,-57.5 434,-38.5 277,-38.5"/>
<text text-anchor="middle" x="355.5" y="-45.5" font-family="Helvetica" font-size="10.00">CDPL.Vis.TextBlockPrimitive2D</text>
</a>
</g>
</g>
<!-- Node1&#45;&gt;Node11 -->
<g id="edge10" class="edge">
<title>Node1&#45;&gt;Node11</title>
<path fill="none" stroke="midnightblue" d="M178.43,-162.93C196.91,-137.51 234.08,-91.55 277,-67 283.73,-63.15 291.23,-60.07 298.83,-57.62"/>
<polygon fill="midnightblue" stroke="midnightblue" points="175.43,-161.11 172.5,-171.29 181.14,-165.17 175.43,-161.11"/>
</g>
<!-- Node12 -->
<g id="node12" class="node">
<title>Node12</title>
<g id="a_node12"><a xlink:href="classCDPL_1_1Vis_1_1TextLabelPrimitive2D.html" target="_top" xlink:title="A graphics primitive representing a text label.">
<polygon fill="none" stroke="black" points="278,-0.5 278,-19.5 433,-19.5 433,-0.5 278,-0.5"/>
<text text-anchor="middle" x="355.5" y="-7.5" font-family="Helvetica" font-size="10.00">CDPL.Vis.TextLabelPrimitive2D</text>
</a>
</g>
</g>
<!-- Node1&#45;&gt;Node12 -->
<g id="edge11" class="edge">
<title>Node1&#45;&gt;Node12</title>
<path fill="none" stroke="midnightblue" d="M174.39,-162.07C189.8,-129.55 225.8,-63.3 277,-29 282.75,-25.14 289.22,-22.07 295.89,-19.62"/>
<polygon fill="midnightblue" stroke="midnightblue" points="171.11,-160.81 170.11,-171.35 177.47,-163.73 171.11,-160.81"/>
</g>
<!-- Node2 -->
<g id="node2" class="node">
<title>Node2</title>
<g id="a_node2"><a xlink:title=" ">
<polygon fill="none" stroke="#bfbfbf" points="0,-171.5 0,-190.5 53,-190.5 53,-171.5 0,-171.5"/>
<text text-anchor="middle" x="26.5" y="-178.5" font-family="Helvetica" font-size="10.00">instance</text>
</a>
</g>
</g>
<!-- Node2&#45;&gt;Node1 -->
<g id="edge1" class="edge">
<title>Node2&#45;&gt;Node1</title>
<path fill="none" stroke="midnightblue" d="M63.19,-181C71.18,-181 79.96,-181 88.9,-181"/>
<polygon fill="midnightblue" stroke="midnightblue" points="63.17,-177.5 53.17,-181 63.17,-184.5 63.17,-177.5"/>
</g>
</g>
</svg>
