<?xml version="1.0" encoding="UTF-8" standalone="no"?>
<!DOCTYPE svg PUBLIC "-//W3C//DTD SVG 1.1//EN"
 "http://www.w3.org/Graphics/SVG/1.1/DTD/svg11.dtd">
<!-- Generated by graphviz version 2.44.0 (0)
 -->
<!-- Title: CDPL.Vis.LineSegmentListPrimitive2D Pages: 1 -->
<svg width="300pt" height="207pt"
 viewBox="0.00 0.00 300.00 207.00" xmlns="http://www.w3.org/2000/svg" xmlns:xlink="http://www.w3.org/1999/xlink">
<g id="graph0" class="graph" transform="scale(1 1) rotate(0) translate(4 203)">
<title>CDPL.Vis.LineSegmentListPrimitive2D</title>
<!-- Node1 -->
<g id="node1" class="node">
<title>Node1</title>
<g id="a_node1"><a xlink:title="A graphics primitive representing a list of disjoint line segments.">
<polygon fill="#bfbfbf" stroke="black" points="70,-0.5 70,-30.5 206,-30.5 206,-0.5 70,-0.5"/>
<text text-anchor="start" x="78" y="-18.5" font-family="Helvetica" font-size="10.00">CDPL.Vis.LineSegmentList</text>
<text text-anchor="middle" x="138" y="-7.5" font-family="Helvetica" font-size="10.00">Primitive2D</text>
</a>
</g>
</g>
<!-- Node2 -->
<g id="node2" class="node">
<title>Node2</title>
<g id="a_node2"><a xlink:href="classCDPL_1_1Vis_1_1PointArray2D.html" target="_top" xlink:title="Stores a set of points in 2D space.">
<polygon fill="none" stroke="black" points="0,-67.5 0,-86.5 122,-86.5 122,-67.5 0,-67.5"/>
<text text-anchor="middle" x="61" y="-74.5" font-family="Helvetica" font-size="10.00">CDPL.Vis.PointArray2D</text>
</a>
</g>
</g>
<!-- Node2&#45;&gt;Node1 -->
<g id="edge1" class="edge">
<title>Node2&#45;&gt;Node1</title>
<path fill="none" stroke="midnightblue" d="M80.16,-61.2C92.3,-51.81 107.91,-39.75 119.85,-30.52"/>
<polygon fill="midnightblue" stroke="midnightblue" points="77.81,-58.59 72.03,-67.48 82.09,-64.13 77.81,-58.59"/>
</g>
<!-- Node3 -->
<g id="node3" class="node">
<title>Node3</title>
<g id="a_node3"><a xlink:href="classCDPL_1_1Math_1_1Vector2DArray.html" target="_top" xlink:title="An array of Math.Vector2D objects.">
<polygon fill="none" stroke="black" points="24,-123.5 24,-142.5 158,-142.5 158,-123.5 24,-123.5"/>
<text text-anchor="middle" x="91" y="-130.5" font-family="Helvetica" font-size="10.00">CDPL.Math.Vector2DArray</text>
</a>
</g>
</g>
<!-- Node3&#45;&gt;Node2 -->
<g id="edge2" class="edge">
<title>Node3&#45;&gt;Node2</title>
<path fill="none" stroke="midnightblue" d="M81.15,-114.27C76.03,-105.05 69.98,-94.17 65.86,-86.75"/>
<polygon fill="midnightblue" stroke="midnightblue" points="78.13,-116.04 86.05,-123.08 84.25,-112.64 78.13,-116.04"/>
</g>
<!-- Node4 -->
<g id="node4" class="node">
<title>Node4</title>
<g id="a_node4"><a xlink:title=" ">
<polygon fill="none" stroke="#bfbfbf" points="80.5,-179.5 80.5,-198.5 195.5,-198.5 195.5,-179.5 80.5,-179.5"/>
<text text-anchor="middle" x="138" y="-186.5" font-family="Helvetica" font-size="10.00">Boost.Python.instance</text>
</a>
</g>
</g>
<!-- Node4&#45;&gt;Node3 -->
<g id="edge3" class="edge">
<title>Node4&#45;&gt;Node3</title>
<path fill="none" stroke="midnightblue" d="M123.58,-171.43C115.34,-161.97 105.35,-150.48 98.62,-142.75"/>
<polygon fill="midnightblue" stroke="midnightblue" points="121.03,-173.84 130.24,-179.08 126.31,-169.24 121.03,-173.84"/>
</g>
<!-- Node5 -->
<g id="node5" class="node">
<title>Node5</title>
<g id="a_node5"><a xlink:href="classCDPL_1_1Vis_1_1GraphicsPrimitive2D.html" target="_top" xlink:title="The abstract base class of all 2D graphics primitives.">
<polygon fill="none" stroke="black" points="140,-67.5 140,-86.5 292,-86.5 292,-67.5 140,-67.5"/>
<text text-anchor="middle" x="216" y="-74.5" font-family="Helvetica" font-size="10.00">CDPL.Vis.GraphicsPrimitive2D</text>
</a>
</g>
</g>
<!-- Node4&#45;&gt;Node5 -->
<g id="edge5" class="edge">
<title>Node4&#45;&gt;Node5</title>
<path fill="none" stroke="midnightblue" d="M150.08,-170.96C166.99,-147.12 197.06,-104.71 209.91,-86.59"/>
<polygon fill="midnightblue" stroke="midnightblue" points="147.05,-169.19 144.12,-179.37 152.76,-173.24 147.05,-169.19"/>
</g>
<!-- Node5&#45;&gt;Node1 -->
<g id="edge4" class="edge">
<title>Node5&#45;&gt;Node1</title>
<path fill="none" stroke="midnightblue" d="M196.59,-61.2C184.29,-51.81 168.48,-39.75 156.38,-30.52"/>
<polygon fill="midnightblue" stroke="midnightblue" points="194.75,-64.19 204.82,-67.48 199,-58.63 194.75,-64.19"/>
</g>
</g>
</svg>
