<?xml version="1.0" encoding="UTF-8" standalone="no"?>
<!DOCTYPE svg PUBLIC "-//W3C//DTD SVG 1.1//EN"
 "http://www.w3.org/Graphics/SVG/1.1/DTD/svg11.dtd">
<!-- Generated by graphviz version 2.44.0 (0)
 -->
<!-- Title: CDPL.ForceField.MMFF94AromaticSSSRSubset Pages: 1 -->
<svg width="181pt" height="151pt"
 viewBox="0.00 0.00 181.00 151.00" xmlns="http://www.w3.org/2000/svg" xmlns:xlink="http://www.w3.org/1999/xlink">
<g id="graph0" class="graph" transform="scale(1 1) rotate(0) translate(4 147)">
<title>CDPL.ForceField.MMFF94AromaticSSSRSubset</title>
<!-- Node1 -->
<g id="node1" class="node">
<title>Node1</title>
<g id="a_node1"><a xlink:title="Implements the extraction of all rings in the SSSR of a molecular graph that are aromatic according t...">
<polygon fill="#bfbfbf" stroke="black" points="0,-0.5 0,-30.5 173,-30.5 173,-0.5 0,-0.5"/>
<text text-anchor="start" x="8" y="-18.5" font-family="Helvetica" font-size="10.00">CDPL.ForceField.MMFF94Aromatic</text>
<text text-anchor="middle" x="86.5" y="-7.5" font-family="Helvetica" font-size="10.00">SSSRSubset</text>
</a>
</g>
</g>
<!-- Node2 -->
<g id="node2" class="node">
<title>Node2</title>
<g id="a_node2"><a xlink:href="classCDPL_1_1Chem_1_1FragmentList.html" target="_top" xlink:title="A data type for the storage of Chem.Fragment objects.">
<polygon fill="none" stroke="black" points="20.5,-67.5 20.5,-86.5 152.5,-86.5 152.5,-67.5 20.5,-67.5"/>
<text text-anchor="middle" x="86.5" y="-74.5" font-family="Helvetica" font-size="10.00">CDPL.Chem.FragmentList</text>
</a>
</g>
</g>
<!-- Node2&#45;&gt;Node1 -->
<g id="edge1" class="edge">
<title>Node2&#45;&gt;Node1</title>
<path fill="none" stroke="midnightblue" d="M86.5,-57.23C86.5,-48.59 86.5,-38.5 86.5,-30.52"/>
<polygon fill="midnightblue" stroke="midnightblue" points="83,-57.48 86.5,-67.48 90,-57.48 83,-57.48"/>
</g>
<!-- Node3 -->
<g id="node3" class="node">
<title>Node3</title>
<g id="a_node3"><a xlink:title=" ">
<polygon fill="none" stroke="#bfbfbf" points="60,-123.5 60,-142.5 113,-142.5 113,-123.5 60,-123.5"/>
<text text-anchor="middle" x="86.5" y="-130.5" font-family="Helvetica" font-size="10.00">instance</text>
</a>
</g>
</g>
<!-- Node3&#45;&gt;Node2 -->
<g id="edge2" class="edge">
<title>Node3&#45;&gt;Node2</title>
<path fill="none" stroke="midnightblue" d="M86.5,-112.8C86.5,-103.91 86.5,-93.78 86.5,-86.75"/>
<polygon fill="midnightblue" stroke="midnightblue" points="83,-113.08 86.5,-123.08 90,-113.08 83,-113.08"/>
</g>
</g>
</svg>
