<?xml version="1.0" encoding="UTF-8" standalone="no"?>
<!DOCTYPE svg PUBLIC "-//W3C//DTD SVG 1.1//EN"
 "http://www.w3.org/Graphics/SVG/1.1/DTD/svg11.dtd">
<!-- Generated by graphviz version 2.44.0 (0)
 -->
<!-- Title: CDPL.Vis.ClipPathPrimitive2D Pages: 1 -->
<svg width="274pt" height="140pt"
 viewBox="0.00 0.00 274.00 140.00" xmlns="http://www.w3.org/2000/svg" xmlns:xlink="http://www.w3.org/1999/xlink">
<g id="graph0" class="graph" transform="scale(1 1) rotate(0) translate(4 136)">
<title>CDPL.Vis.ClipPathPrimitive2D</title>
<!-- Node1 -->
<g id="node1" class="node">
<title>Node1</title>
<g id="a_node1"><a xlink:title="A graphics primitive representing a clipping region in 2D space.">
<polygon fill="#bfbfbf" stroke="black" points="43.5,-0.5 43.5,-19.5 194.5,-19.5 194.5,-0.5 43.5,-0.5"/>
<text text-anchor="middle" x="119" y="-7.5" font-family="Helvetica" font-size="10.00">CDPL.Vis.ClipPathPrimitive2D</text>
</a>
</g>
</g>
<!-- Node2 -->
<g id="node2" class="node">
<title>Node2</title>
<g id="a_node2"><a xlink:href="classCDPL_1_1Vis_1_1Path2D.html" target="_top" xlink:title="Provides a container for painting operations, enabling arbitrary graphical shapes to be constructed a...">
<polygon fill="none" stroke="black" points="0,-56.5 0,-75.5 96,-75.5 96,-56.5 0,-56.5"/>
<text text-anchor="middle" x="48" y="-63.5" font-family="Helvetica" font-size="10.00">CDPL.Vis.Path2D</text>
</a>
</g>
</g>
<!-- Node2&#45;&gt;Node1 -->
<g id="edge1" class="edge">
<title>Node2&#45;&gt;Node1</title>
<path fill="none" stroke="midnightblue" d="M67.59,-50.1C80.37,-40.38 96.61,-28.03 107.39,-19.83"/>
<polygon fill="midnightblue" stroke="midnightblue" points="65.25,-47.48 59.41,-56.32 69.49,-53.06 65.25,-47.48"/>
</g>
<!-- Node3 -->
<g id="node3" class="node">
<title>Node3</title>
<g id="a_node3"><a xlink:title=" ">
<polygon fill="none" stroke="#bfbfbf" points="92.5,-112.5 92.5,-131.5 145.5,-131.5 145.5,-112.5 92.5,-112.5"/>
<text text-anchor="middle" x="119" y="-119.5" font-family="Helvetica" font-size="10.00">instance</text>
</a>
</g>
</g>
<!-- Node3&#45;&gt;Node2 -->
<g id="edge2" class="edge">
<title>Node3&#45;&gt;Node2</title>
<path fill="none" stroke="midnightblue" d="M99.41,-106.1C86.63,-96.38 70.39,-84.03 59.61,-75.83"/>
<polygon fill="midnightblue" stroke="midnightblue" points="97.51,-109.06 107.59,-112.32 101.75,-103.48 97.51,-109.06"/>
</g>
<!-- Node4 -->
<g id="node4" class="node">
<title>Node4</title>
<g id="a_node4"><a xlink:href="classCDPL_1_1Vis_1_1GraphicsPrimitive2D.html" target="_top" xlink:title="The abstract base class of all 2D graphics primitives.">
<polygon fill="none" stroke="black" points="114,-56.5 114,-75.5 266,-75.5 266,-56.5 114,-56.5"/>
<text text-anchor="middle" x="190" y="-63.5" font-family="Helvetica" font-size="10.00">CDPL.Vis.GraphicsPrimitive2D</text>
</a>
</g>
</g>
<!-- Node3&#45;&gt;Node4 -->
<g id="edge4" class="edge">
<title>Node3&#45;&gt;Node4</title>
<path fill="none" stroke="midnightblue" d="M138.59,-106.1C151.37,-96.38 167.61,-84.03 178.39,-75.83"/>
<polygon fill="midnightblue" stroke="midnightblue" points="136.25,-103.48 130.41,-112.32 140.49,-109.06 136.25,-103.48"/>
</g>
<!-- Node4&#45;&gt;Node1 -->
<g id="edge3" class="edge">
<title>Node4&#45;&gt;Node1</title>
<path fill="none" stroke="midnightblue" d="M170.41,-50.1C157.63,-40.38 141.39,-28.03 130.61,-19.83"/>
<polygon fill="midnightblue" stroke="midnightblue" points="168.51,-53.06 178.59,-56.32 172.75,-47.48 168.51,-53.06"/>
</g>
</g>
</svg>
