<?xml version="1.0" encoding="UTF-8" standalone="no"?>
<!DOCTYPE svg PUBLIC "-//W3C//DTD SVG 1.1//EN"
 "http://www.w3.org/Graphics/SVG/1.1/DTD/svg11.dtd">
<!-- Generated by graphviz version 2.44.0 (0)
 -->
<!-- Title: CDPL.Grid.DRegularGridSetInputHandler Pages: 1 -->
<svg width="432pt" height="137pt"
 viewBox="0.00 0.00 432.00 137.00" xmlns="http://www.w3.org/2000/svg" xmlns:xlink="http://www.w3.org/1999/xlink">
<g id="graph0" class="graph" transform="scale(1 1) rotate(0) translate(4 133)">
<title>CDPL.Grid.DRegularGridSetInputHandler</title>
<!-- Node1 -->
<g id="node1" class="node">
<title>Node1</title>
<g id="a_node1"><a xlink:title="A factory interface providing methods for the creation of Grid.DRegularGridSetReaderBase instances fo...">
<polygon fill="#bfbfbf" stroke="black" points="89,-49.5 89,-79.5 229,-79.5 229,-49.5 89,-49.5"/>
<text text-anchor="start" x="97" y="-67.5" font-family="Helvetica" font-size="10.00">CDPL.Grid.DRegularGridSet</text>
<text text-anchor="middle" x="159" y="-56.5" font-family="Helvetica" font-size="10.00">InputHandler</text>
</a>
</g>
</g>
<!-- Node3 -->
<g id="node3" class="node">
<title>Node3</title>
<g id="a_node3"><a xlink:href="classCDPL_1_1Grid_1_1CDFBZ2DRegularGridSetInputHandler.html" target="_top" xlink:title="A handler for the input of bzip2&#45;compressed spatial regular grid set data in the native I/O format of...">
<polygon fill="none" stroke="black" points="271.5,-98.5 271.5,-128.5 417.5,-128.5 417.5,-98.5 271.5,-98.5"/>
<text text-anchor="start" x="279.5" y="-116.5" font-family="Helvetica" font-size="10.00">CDPL.Grid.CDFBZ2DRegular</text>
<text text-anchor="middle" x="344.5" y="-105.5" font-family="Helvetica" font-size="10.00">GridSetInputHandler</text>
</a>
</g>
</g>
<!-- Node1&#45;&gt;Node3 -->
<g id="edge2" class="edge">
<title>Node1&#45;&gt;Node3</title>
<path fill="none" stroke="midnightblue" d="M226,-82.12C246.07,-87.48 267.94,-93.32 287.3,-98.49"/>
<polygon fill="midnightblue" stroke="midnightblue" points="226.87,-78.73 216.3,-79.53 225.06,-85.5 226.87,-78.73"/>
</g>
<!-- Node4 -->
<g id="node4" class="node">
<title>Node4</title>
<g id="a_node4"><a xlink:href="classCDPL_1_1Grid_1_1CDFDRegularGridSetInputHandler.html" target="_top" xlink:title="A handler for the input of spatial regular grid set data in the native I/O format of the CDPL.">
<polygon fill="none" stroke="black" points="271.5,-49.5 271.5,-79.5 417.5,-79.5 417.5,-49.5 271.5,-49.5"/>
<text text-anchor="start" x="279.5" y="-67.5" font-family="Helvetica" font-size="10.00">CDPL.Grid.CDFDRegularGrid</text>
<text text-anchor="middle" x="344.5" y="-56.5" font-family="Helvetica" font-size="10.00">SetInputHandler</text>
</a>
</g>
</g>
<!-- Node1&#45;&gt;Node4 -->
<g id="edge3" class="edge">
<title>Node1&#45;&gt;Node4</title>
<path fill="none" stroke="midnightblue" d="M239.26,-64.5C249.94,-64.5 260.85,-64.5 271.39,-64.5"/>
<polygon fill="midnightblue" stroke="midnightblue" points="239.11,-61 229.11,-64.5 239.11,-68 239.11,-61"/>
</g>
<!-- Node5 -->
<g id="node5" class="node">
<title>Node5</title>
<g id="a_node5"><a xlink:href="classCDPL_1_1Grid_1_1CDFGZDRegularGridSetInputHandler.html" target="_top" xlink:title="A handler for the input of gzip&#45;compressed spatial regular grid set data in the native I/O format of ...">
<polygon fill="none" stroke="black" points="265,-0.5 265,-30.5 424,-30.5 424,-0.5 265,-0.5"/>
<text text-anchor="start" x="273" y="-18.5" font-family="Helvetica" font-size="10.00">CDPL.Grid.CDFGZDRegularGrid</text>
<text text-anchor="middle" x="344.5" y="-7.5" font-family="Helvetica" font-size="10.00">SetInputHandler</text>
</a>
</g>
</g>
<!-- Node1&#45;&gt;Node5 -->
<g id="edge4" class="edge">
<title>Node1&#45;&gt;Node5</title>
<path fill="none" stroke="midnightblue" d="M226,-46.88C246.07,-41.52 267.94,-35.68 287.3,-30.51"/>
<polygon fill="midnightblue" stroke="midnightblue" points="225.06,-43.5 216.3,-49.47 226.87,-50.27 225.06,-43.5"/>
</g>
<!-- Node2 -->
<g id="node2" class="node">
<title>Node2</title>
<g id="a_node2"><a xlink:title=" ">
<polygon fill="none" stroke="#bfbfbf" points="0,-55 0,-74 53,-74 53,-55 0,-55"/>
<text text-anchor="middle" x="26.5" y="-62" font-family="Helvetica" font-size="10.00">instance</text>
</a>
</g>
</g>
<!-- Node2&#45;&gt;Node1 -->
<g id="edge1" class="edge">
<title>Node2&#45;&gt;Node1</title>
<path fill="none" stroke="midnightblue" d="M63.33,-64.5C71.34,-64.5 80.1,-64.5 88.96,-64.5"/>
<polygon fill="midnightblue" stroke="midnightblue" points="63.28,-61 53.28,-64.5 63.28,-68 63.28,-61"/>
</g>
</g>
</svg>
