<?xml version="1.0" encoding="UTF-8" standalone="no"?>
<!DOCTYPE svg PUBLIC "-//W3C//DTD SVG 1.1//EN"
 "http://www.w3.org/Graphics/SVG/1.1/DTD/svg11.dtd">
<!-- Generated by graphviz version 2.44.0 (0)
 -->
<!-- Title: CDPL.Vis.GraphicsPrimitive2D Pages: 1 -->
<!--zoomable 382 -->
<svg id="main" version="1.1" xmlns="http://www.w3.org/2000/svg" xmlns:xlink="http://www.w3.org/1999/xlink" xml:space="preserve" onload="init(evt)">
<style type="text/css"><![CDATA[
.edge:hover path { stroke: red; }
.edge:hover polygon { stroke: red; fill: red; }
]]></style>
<script type="text/javascript"><![CDATA[
var edges = document.getElementsByTagName('g');
if (edges && edges.length) {
  for (var i=0;i<edges.length;i++) {
    if (edges[i].id.substr(0,4)=='edge') {
      edges[i].setAttribute('class','edge');
    }
  }
}
]]></script>
        <defs>
                <circle id="rim" cx="0" cy="0" r="7"/>
                <circle id="rim2" cx="0" cy="0" r="3.5"/>
                <g id="zoomPlus">
                        <use xlink:href="#rim" fill="#404040">
                                <set attributeName="fill" to="#808080" begin="zoomplus.mouseover" end="zoomplus.mouseout"/>
                        </use>
                        <path d="M-4,0h8M0,-4v8" fill="none" stroke="white" stroke-width="1.5" pointer-events="none"/>
                </g>
                <g id="zoomMin">
                        <use xlink:href="#rim" fill="#404040">
                                <set attributeName="fill" to="#808080" begin="zoomminus.mouseover" end="zoomminus.mouseout"/>
                        </use>
                        <path d="M-4,0h8" fill="none" stroke="white" stroke-width="1.5" pointer-events="none"/>
                </g>
                <g id="dirArrow">
                        <path fill="none" stroke="white" stroke-width="1.5" d="M0,-3.0v7 M-2.5,-0.5L0,-3.0L2.5,-0.5"/>
                </g>
               <g id="resetDef">
                       <use xlink:href="#rim2" fill="#404040">
                               <set attributeName="fill" to="#808080" begin="reset.mouseover" end="reset.mouseout"/>
                       </use>
               </g>
        </defs>

<script type="text/javascript">
var viewWidth = 504;
var viewHeight = 382;
var sectionId = 'dynsection-0';
</script>
<script xlink:href="svgpan.js"/>
<svg id="graph" class="graph">
<g id="viewport">
<title>CDPL.Vis.GraphicsPrimitive2D</title>
<!-- Node1 -->
<g id="node1" class="node">
<title>Node1</title>
<g id="a_node1"><a xlink:title="The abstract base class of all 2D graphics primitives.">
<polygon fill="#bfbfbf" stroke="black" points="151,-171.5 151,-190.5 303,-190.5 303,-171.5 151,-171.5"/>
<text text-anchor="middle" x="227" y="-178.5" font-family="Helvetica" font-size="10.00">CDPL.Vis.GraphicsPrimitive2D</text>
</a>
</g>
</g>
<!-- Node3 -->
<g id="node3" class="node">
<title>Node3</title>
<g id="a_node3"><a xlink:href="classCDPL_1_1Vis_1_1ClipPathPrimitive2D.html" target="_top" xlink:title="A graphics primitive representing a clipping region in 2D space.">
<polygon fill="none" stroke="black" points="342,-354.5 342,-373.5 493,-373.5 493,-354.5 342,-354.5"/>
<text text-anchor="middle" x="417.5" y="-361.5" font-family="Helvetica" font-size="10.00">CDPL.Vis.ClipPathPrimitive2D</text>
</a>
</g>
</g>
<!-- Node1&#45;&gt;Node3 -->
<g id="edge2" class="edge">
<title>Node1&#45;&gt;Node3</title>
<path fill="none" stroke="midnightblue" d="M235.36,-199.97C249.76,-234.49 285.04,-307.44 339,-345 344.57,-348.88 350.85,-351.97 357.36,-354.43"/>
<polygon fill="midnightblue" stroke="midnightblue" points="238.56,-198.54 231.56,-190.58 232.07,-201.16 238.56,-198.54"/>
</g>
<!-- Node4 -->
<g id="node4" class="node">
<title>Node4</title>
<g id="a_node4"><a xlink:href="classCDPL_1_1Vis_1_1EllipsePrimitive2D.html" target="_top" xlink:title="A graphics primitive representing a ellipse.">
<polygon fill="none" stroke="black" points="346,-316.5 346,-335.5 489,-335.5 489,-316.5 346,-316.5"/>
<text text-anchor="middle" x="417.5" y="-323.5" font-family="Helvetica" font-size="10.00">CDPL.Vis.EllipsePrimitive2D</text>
</a>
</g>
</g>
<!-- Node1&#45;&gt;Node4 -->
<g id="edge3" class="edge">
<title>Node1&#45;&gt;Node4</title>
<path fill="none" stroke="midnightblue" d="M238.95,-199.39C256.46,-227.15 293.49,-279.44 339,-307 345.4,-310.88 352.55,-313.96 359.84,-316.42"/>
<polygon fill="midnightblue" stroke="midnightblue" points="241.8,-197.35 233.58,-190.67 235.84,-201.02 241.8,-197.35"/>
</g>
<!-- Node5 -->
<g id="node5" class="node">
<title>Node5</title>
<g id="a_node5"><a xlink:href="classCDPL_1_1Vis_1_1LinePrimitive2D.html" target="_top" xlink:title="A graphics primitive representing a single line.">
<polygon fill="none" stroke="black" points="352,-278.5 352,-297.5 483,-297.5 483,-278.5 352,-278.5"/>
<text text-anchor="middle" x="417.5" y="-285.5" font-family="Helvetica" font-size="10.00">CDPL.Vis.LinePrimitive2D</text>
</a>
</g>
</g>
<!-- Node1&#45;&gt;Node5 -->
<g id="edge4" class="edge">
<title>Node1&#45;&gt;Node5</title>
<path fill="none" stroke="midnightblue" d="M244.31,-197.76C264.66,-217.69 301.37,-250.57 339,-269 346.84,-272.84 355.51,-275.94 364.14,-278.43"/>
<polygon fill="midnightblue" stroke="midnightblue" points="246.66,-195.16 237.11,-190.57 241.72,-200.11 246.66,-195.16"/>
</g>
<!-- Node6 -->
<g id="node6" class="node">
<title>Node6</title>
<g id="a_node6"><a xlink:href="classCDPL_1_1Vis_1_1LineSegmentListPrimitive2D.html" target="_top" xlink:title="A graphics primitive representing a list of disjoint line segments.">
<polygon fill="none" stroke="black" points="349.5,-229 349.5,-259 485.5,-259 485.5,-229 349.5,-229"/>
<text text-anchor="start" x="357.5" y="-247" font-family="Helvetica" font-size="10.00">CDPL.Vis.LineSegmentList</text>
<text text-anchor="middle" x="417.5" y="-236" font-family="Helvetica" font-size="10.00">Primitive2D</text>
</a>
</g>
</g>
<!-- Node1&#45;&gt;Node6 -->
<g id="edge5" class="edge">
<title>Node1&#45;&gt;Node6</title>
<path fill="none" stroke="midnightblue" d="M265.06,-193.87C286.61,-201.31 314.3,-210.79 339,-219 348.79,-222.26 359.3,-225.69 369.32,-228.93"/>
<polygon fill="midnightblue" stroke="midnightblue" points="265.92,-190.47 255.32,-190.51 263.63,-197.08 265.92,-190.47"/>
</g>
<!-- Node7 -->
<g id="node7" class="node">
<title>Node7</title>
<g id="a_node7"><a xlink:href="classCDPL_1_1Vis_1_1PathPrimitive2D.html" target="_top" xlink:title="A graphics primitive representing an arbitrary path in 2D space.">
<polygon fill="none" stroke="black" points="350.5,-190.5 350.5,-209.5 484.5,-209.5 484.5,-190.5 350.5,-190.5"/>
<text text-anchor="middle" x="417.5" y="-197.5" font-family="Helvetica" font-size="10.00">CDPL.Vis.PathPrimitive2D</text>
</a>
</g>
</g>
<!-- Node1&#45;&gt;Node7 -->
<g id="edge6" class="edge">
<title>Node1&#45;&gt;Node7</title>
<path fill="none" stroke="midnightblue" d="M313,-189.57C325.49,-190.83 338.21,-192.11 350.25,-193.32"/>
<polygon fill="midnightblue" stroke="midnightblue" points="313.34,-186.08 303.04,-188.56 312.64,-193.05 313.34,-186.08"/>
</g>
<!-- Node8 -->
<g id="node8" class="node">
<title>Node8</title>
<g id="a_node8"><a xlink:href="classCDPL_1_1Vis_1_1PointListPrimitive2D.html" target="_top" xlink:title="A graphics primitive representing a list of points.">
<polygon fill="none" stroke="black" points="341.5,-152.5 341.5,-171.5 493.5,-171.5 493.5,-152.5 341.5,-152.5"/>
<text text-anchor="middle" x="417.5" y="-159.5" font-family="Helvetica" font-size="10.00">CDPL.Vis.PointListPrimitive2D</text>
</a>
</g>
</g>
<!-- Node1&#45;&gt;Node8 -->
<g id="edge7" class="edge">
<title>Node1&#45;&gt;Node8</title>
<path fill="none" stroke="midnightblue" d="M313.19,-172.41C322.6,-171.46 332.13,-170.5 341.41,-169.57"/>
<polygon fill="midnightblue" stroke="midnightblue" points="312.64,-168.95 303.04,-173.44 313.34,-175.92 312.64,-168.95"/>
</g>
<!-- Node9 -->
<g id="node9" class="node">
<title>Node9</title>
<g id="a_node9"><a xlink:href="classCDPL_1_1Vis_1_1PolygonPrimitive2D.html" target="_top" xlink:title="A graphics primitive representing a polygon.">
<polygon fill="none" stroke="black" points="343.5,-114.5 343.5,-133.5 491.5,-133.5 491.5,-114.5 343.5,-114.5"/>
<text text-anchor="middle" x="417.5" y="-121.5" font-family="Helvetica" font-size="10.00">CDPL.Vis.PolygonPrimitive2D</text>
</a>
</g>
</g>
<!-- Node1&#45;&gt;Node9 -->
<g id="edge8" class="edge">
<title>Node1&#45;&gt;Node9</title>
<path fill="none" stroke="midnightblue" d="M263.26,-168.03C284.95,-160.27 313.4,-150.5 339,-143 350.43,-139.65 362.93,-136.41 374.49,-133.57"/>
<polygon fill="midnightblue" stroke="midnightblue" points="262.03,-164.75 253.81,-171.43 264.4,-171.34 262.03,-164.75"/>
</g>
<!-- Node10 -->
<g id="node10" class="node">
<title>Node10</title>
<g id="a_node10"><a xlink:href="classCDPL_1_1Vis_1_1PolylinePrimitive2D.html" target="_top" xlink:title="A graphics primitive representing a set of connected line segments.">
<polygon fill="none" stroke="black" points="343.5,-76.5 343.5,-95.5 491.5,-95.5 491.5,-76.5 343.5,-76.5"/>
<text text-anchor="middle" x="417.5" y="-83.5" font-family="Helvetica" font-size="10.00">CDPL.Vis.PolylinePrimitive2D</text>
</a>
</g>
</g>
<!-- Node1&#45;&gt;Node10 -->
<g id="edge9" class="edge">
<title>Node1&#45;&gt;Node10</title>
<path fill="none" stroke="midnightblue" d="M247.02,-164.78C268.16,-147.54 303.96,-120.67 339,-105 347.47,-101.21 356.82,-98.11 366,-95.58"/>
<polygon fill="midnightblue" stroke="midnightblue" points="244.62,-162.22 239.16,-171.3 249.09,-167.61 244.62,-162.22"/>
</g>
<!-- Node11 -->
<g id="node11" class="node">
<title>Node11</title>
<g id="a_node11"><a xlink:href="classCDPL_1_1Vis_1_1TextBlockPrimitive2D.html" target="_top" xlink:title="A graphics primitive representing a block of styled text.">
<polygon fill="none" stroke="black" points="339,-38.5 339,-57.5 496,-57.5 496,-38.5 339,-38.5"/>
<text text-anchor="middle" x="417.5" y="-45.5" font-family="Helvetica" font-size="10.00">CDPL.Vis.TextBlockPrimitive2D</text>
</a>
</g>
</g>
<!-- Node1&#45;&gt;Node11 -->
<g id="edge10" class="edge">
<title>Node1&#45;&gt;Node11</title>
<path fill="none" stroke="midnightblue" d="M240.43,-162.93C258.91,-137.51 296.08,-91.55 339,-67 345.73,-63.15 353.23,-60.07 360.83,-57.62"/>
<polygon fill="midnightblue" stroke="midnightblue" points="237.43,-161.11 234.5,-171.29 243.14,-165.17 237.43,-161.11"/>
</g>
<!-- Node12 -->
<g id="node12" class="node">
<title>Node12</title>
<g id="a_node12"><a xlink:href="classCDPL_1_1Vis_1_1TextLabelPrimitive2D.html" target="_top" xlink:title="A graphics primitive representing a text label.">
<polygon fill="none" stroke="black" points="340,-0.5 340,-19.5 495,-19.5 495,-0.5 340,-0.5"/>
<text text-anchor="middle" x="417.5" y="-7.5" font-family="Helvetica" font-size="10.00">CDPL.Vis.TextLabelPrimitive2D</text>
</a>
</g>
</g>
<!-- Node1&#45;&gt;Node12 -->
<g id="edge11" class="edge">
<title>Node1&#45;&gt;Node12</title>
<path fill="none" stroke="midnightblue" d="M236.39,-162.07C251.8,-129.55 287.8,-63.3 339,-29 344.75,-25.14 351.22,-22.07 357.89,-19.62"/>
<polygon fill="midnightblue" stroke="midnightblue" points="233.11,-160.81 232.11,-171.35 239.47,-163.73 233.11,-160.81"/>
</g>
<!-- Node2 -->
<g id="node2" class="node">
<title>Node2</title>
<g id="a_node2"><a xlink:title=" ">
<polygon fill="none" stroke="#bfbfbf" points="0,-171.5 0,-190.5 115,-190.5 115,-171.5 0,-171.5"/>
<text text-anchor="middle" x="57.5" y="-178.5" font-family="Helvetica" font-size="10.00">Boost.Python.instance</text>
</a>
</g>
</g>
<!-- Node2&#45;&gt;Node1 -->
<g id="edge1" class="edge">
<title>Node2&#45;&gt;Node1</title>
<path fill="none" stroke="midnightblue" d="M125.33,-181C133.75,-181 142.41,-181 150.94,-181"/>
<polygon fill="midnightblue" stroke="midnightblue" points="125.21,-177.5 115.21,-181 125.21,-184.5 125.21,-177.5"/>
</g>
</g>
</svg>
        <g id="navigator" transform="translate(0 0)" fill="#404254">
                <rect fill="#f2f5e9" fill-opacity="0.5" stroke="#606060" stroke-width=".5" x="0" y="0" width="60" height="60"/>
                <use id="zoomplus" xlink:href="#zoomPlus" x="17" y="9" onmousedown="handleZoom(evt,'in')"/>
                <use id="zoomminus" xlink:href="#zoomMin" x="42" y="9" onmousedown="handleZoom(evt,'out')"/>
                <use id="reset" xlink:href="#resetDef" x="30" y="36" onmousedown="handleReset()"/>
                <g id="arrowUp" xlink:href="#dirArrow" transform="translate(30 24)" onmousedown="handlePan(0,-1)">
                  <use xlink:href="#rim" fill="#404040">
                        <set attributeName="fill" to="#808080" begin="arrowUp.mouseover" end="arrowUp.mouseout"/>
                  </use>
                  <path fill="none" stroke="white" stroke-width="1.5" d="M0,-3.0v7 M-2.5,-0.5L0,-3.0L2.5,-0.5"/>
                </g>
                <g id="arrowRight" xlink:href="#dirArrow" transform="rotate(90) translate(36 -43)" onmousedown="handlePan(1,0)">
                  <use xlink:href="#rim" fill="#404040">
                        <set attributeName="fill" to="#808080" begin="arrowRight.mouseover" end="arrowRight.mouseout"/>
                  </use>
                  <path fill="none" stroke="white" stroke-width="1.5" d="M0,-3.0v7 M-2.5,-0.5L0,-3.0L2.5,-0.5"/>
                </g>
                <g id="arrowDown" xlink:href="#dirArrow" transform="rotate(180) translate(-30 -48)" onmousedown="handlePan(0,1)">
                  <use xlink:href="#rim" fill="#404040">
                        <set attributeName="fill" to="#808080" begin="arrowDown.mouseover" end="arrowDown.mouseout"/>
                  </use>
                  <path fill="none" stroke="white" stroke-width="1.5" d="M0,-3.0v7 M-2.5,-0.5L0,-3.0L2.5,-0.5"/>
                </g>
                <g id="arrowLeft" xlink:href="#dirArrow" transform="rotate(270) translate(-36 17)" onmousedown="handlePan(-1,0)">
                  <use xlink:href="#rim" fill="#404040">
                        <set attributeName="fill" to="#808080" begin="arrowLeft.mouseover" end="arrowLeft.mouseout"/>
                  </use>
                  <path fill="none" stroke="white" stroke-width="1.5" d="M0,-3.0v7 M-2.5,-0.5L0,-3.0L2.5,-0.5"/>
                </g>
        </g>
        <svg viewBox="0 0 15 15" width="100%" height="30px" preserveAspectRatio="xMaxYMin meet">
         <g id="arrow_out" transform="scale(0.3 0.3)">
          <a xlink:href="classCDPL_1_1Vis_1_1GraphicsPrimitive2D__inherit__graph_org.svg" target="_base">
           <rect id="button" ry="5" rx="5" y="6" x="6" height="38" width="38"
                fill="#f2f5e9" fill-opacity="0.5" stroke="#606060" stroke-width="1.0"/>
           <path id="arrow"
             d="M 11.500037,31.436501 C 11.940474,20.09759 22.043105,11.32322 32.158766,21.979434 L 37.068811,17.246167 C 37.068811,17.246167 37.088388,32 37.088388,32 L 22.160133,31.978069 C 22.160133,31.978069 26.997745,27.140456 26.997745,27.140456 C 18.528582,18.264221 13.291696,25.230495 11.500037,31.436501 z"
             style="fill:#404040;"/>
          </a>
         </g>
        </svg>
</svg>
