<?xml version="1.0" encoding="UTF-8" standalone="no"?>
<!DOCTYPE svg PUBLIC "-//W3C//DTD SVG 1.1//EN"
 "http://www.w3.org/Graphics/SVG/1.1/DTD/svg11.dtd">
<!-- Generated by graphviz version 2.44.0 (0)
 -->
<!-- Title: CDPL.Shape.GaussianShapeOverlapFunction Pages: 1 -->
<svg width="444pt" height="88pt"
 viewBox="0.00 0.00 444.00 88.00" xmlns="http://www.w3.org/2000/svg" xmlns:xlink="http://www.w3.org/1999/xlink">
<g id="graph0" class="graph" transform="scale(1 1) rotate(0) translate(4 84)">
<title>CDPL.Shape.GaussianShapeOverlapFunction</title>
<!-- Node1 -->
<g id="node1" class="node">
<title>Node1</title>
<g id="a_node1"><a xlink:title=" ">
<polygon fill="#bfbfbf" stroke="black" points="89,-24.5 89,-54.5 235,-54.5 235,-24.5 89,-24.5"/>
<text text-anchor="start" x="97" y="-42.5" font-family="Helvetica" font-size="10.00">CDPL.Shape.GaussianShape</text>
<text text-anchor="middle" x="162" y="-31.5" font-family="Helvetica" font-size="10.00">OverlapFunction</text>
</a>
</g>
</g>
<!-- Node3 -->
<g id="node3" class="node">
<title>Node3</title>
<g id="a_node3"><a xlink:href="classCDPL_1_1Shape_1_1ExactGaussianShapeOverlapFunction.html" target="_top" xlink:title=" ">
<polygon fill="none" stroke="black" points="282,-49.5 282,-79.5 425,-79.5 425,-49.5 282,-49.5"/>
<text text-anchor="start" x="290" y="-67.5" font-family="Helvetica" font-size="10.00">CDPL.Shape.ExactGaussian</text>
<text text-anchor="middle" x="353.5" y="-56.5" font-family="Helvetica" font-size="10.00">ShapeOverlapFunction</text>
</a>
</g>
</g>
<!-- Node1&#45;&gt;Node3 -->
<g id="edge2" class="edge">
<title>Node1&#45;&gt;Node3</title>
<path fill="none" stroke="midnightblue" d="M245.31,-50.36C257.46,-51.96 269.88,-53.6 281.77,-55.17"/>
<polygon fill="midnightblue" stroke="midnightblue" points="245.55,-46.86 235.18,-49.02 244.64,-53.8 245.55,-46.86"/>
</g>
<!-- Node4 -->
<g id="node4" class="node">
<title>Node4</title>
<g id="a_node4"><a xlink:href="classCDPL_1_1Shape_1_1FastGaussianShapeOverlapFunction.html" target="_top" xlink:title=" ">
<polygon fill="none" stroke="black" points="271,-0.5 271,-30.5 436,-30.5 436,-0.5 271,-0.5"/>
<text text-anchor="start" x="279" y="-18.5" font-family="Helvetica" font-size="10.00">CDPL.Shape.FastGaussianShape</text>
<text text-anchor="middle" x="353.5" y="-7.5" font-family="Helvetica" font-size="10.00">OverlapFunction</text>
</a>
</g>
</g>
<!-- Node1&#45;&gt;Node4 -->
<g id="edge3" class="edge">
<title>Node1&#45;&gt;Node4</title>
<path fill="none" stroke="midnightblue" d="M245.35,-29.07C253.76,-28.01 262.3,-26.92 270.7,-25.86"/>
<polygon fill="midnightblue" stroke="midnightblue" points="244.66,-25.63 235.18,-30.36 245.54,-32.57 244.66,-25.63"/>
</g>
<!-- Node2 -->
<g id="node2" class="node">
<title>Node2</title>
<g id="a_node2"><a xlink:title=" ">
<polygon fill="none" stroke="#bfbfbf" points="0,-30 0,-49 53,-49 53,-30 0,-30"/>
<text text-anchor="middle" x="26.5" y="-37" font-family="Helvetica" font-size="10.00">instance</text>
</a>
</g>
</g>
<!-- Node2&#45;&gt;Node1 -->
<g id="edge1" class="edge">
<title>Node2&#45;&gt;Node1</title>
<path fill="none" stroke="midnightblue" d="M63.28,-39.5C71.29,-39.5 80.06,-39.5 88.96,-39.5"/>
<polygon fill="midnightblue" stroke="midnightblue" points="63.24,-36 53.24,-39.5 63.24,-43 63.24,-36"/>
</g>
</g>
</svg>
