<?xml version="1.0" encoding="UTF-8" standalone="no"?>
<!DOCTYPE svg PUBLIC "-//W3C//DTD SVG 1.1//EN"
 "http://www.w3.org/Graphics/SVG/1.1/DTD/svg11.dtd">
<!-- Generated by graphviz version 2.40.1 (0)
 -->
<!-- Title: CDPL.Vis.View2D Pages: 1 -->
<svg width="497pt" height="207pt"
 viewBox="0.00 0.00 497.00 207.00" xmlns="http://www.w3.org/2000/svg" xmlns:xlink="http://www.w3.org/1999/xlink">
<g id="graph0" class="graph" transform="scale(1 1) rotate(0) translate(4 203)">
<title>CDPL.Vis.View2D</title>
<!-- Node1 -->
<g id="node1" class="node">
<title>Node1</title>
<g id="a_node1"><a xlink:title="The abstract base of classes implementing the 2D visualization of data objects.">
<polygon fill="#bfbfbf" stroke="#000000" points="193,-56.5 193,-75.5 294,-75.5 294,-56.5 193,-56.5"/>
<text text-anchor="middle" x="243.5" y="-63.5" font-family="Helvetica,sans-Serif" font-size="10.00" fill="#000000">CDPL.Vis.View2D</text>
</a>
</g>
</g>
<!-- Node4 -->
<g id="node4" class="node">
<title>Node4</title>
<g id="a_node4"><a xlink:href="classCDPL_1_1Vis_1_1ReactionView2D.html" target="_top" xlink:title="Implements the 2D visualization of chemical reactions.">
<polygon fill="none" stroke="#000000" points="0,-.5 0,-19.5 143,-19.5 143,-.5 0,-.5"/>
<text text-anchor="middle" x="71.5" y="-7.5" font-family="Helvetica,sans-Serif" font-size="10.00" fill="#000000">CDPL.Vis.ReactionView2D</text>
</a>
</g>
</g>
<!-- Node1&#45;&gt;Node4 -->
<g id="edge3" class="edge">
<title>Node1&#45;&gt;Node4</title>
<path fill="none" stroke="#191970" d="M204.1565,-53.1905C172.6449,-42.9309 129.1481,-28.7691 100.682,-19.5011"/>
<polygon fill="#191970" stroke="#191970" points="203.3399,-56.6054 213.9321,-56.3733 205.507,-49.9493 203.3399,-56.6054"/>
</g>
<!-- Node5 -->
<g id="node5" class="node">
<title>Node5</title>
<g id="a_node5"><a xlink:href="classCDPL_1_1Vis_1_1StructureGridView2D.html" target="_top" xlink:title="Implements the 2D visualization of multiple chemical structures arrange in a grid.">
<polygon fill="none" stroke="#000000" points="161,-.5 161,-19.5 326,-19.5 326,-.5 161,-.5"/>
<text text-anchor="middle" x="243.5" y="-7.5" font-family="Helvetica,sans-Serif" font-size="10.00" fill="#000000">CDPL.Vis.StructureGridView2D</text>
</a>
</g>
</g>
<!-- Node1&#45;&gt;Node5 -->
<g id="edge4" class="edge">
<title>Node1&#45;&gt;Node5</title>
<path fill="none" stroke="#191970" d="M243.5,-46.1575C243.5,-37.155 243.5,-26.9199 243.5,-19.6427"/>
<polygon fill="#191970" stroke="#191970" points="240.0001,-46.2455 243.5,-56.2455 247.0001,-46.2456 240.0001,-46.2455"/>
</g>
<!-- Node6 -->
<g id="node6" class="node">
<title>Node6</title>
<g id="a_node6"><a xlink:href="classCDPL_1_1Vis_1_1StructureView2D.html" target="_top" xlink:title="Implements the 2D visualization of chemical structures.">
<polygon fill="none" stroke="#000000" points="344,-.5 344,-19.5 489,-19.5 489,-.5 344,-.5"/>
<text text-anchor="middle" x="416.5" y="-7.5" font-family="Helvetica,sans-Serif" font-size="10.00" fill="#000000">CDPL.Vis.StructureView2D</text>
</a>
</g>
</g>
<!-- Node1&#45;&gt;Node6 -->
<g id="edge5" class="edge">
<title>Node1&#45;&gt;Node6</title>
<path fill="none" stroke="#191970" d="M283.0723,-53.1905C314.7671,-42.9309 358.5168,-28.7691 387.1483,-19.5011"/>
<polygon fill="#191970" stroke="#191970" points="281.6758,-49.9636 273.2398,-56.3733 283.8316,-56.6234 281.6758,-49.9636"/>
</g>
<!-- Node2 -->
<g id="node2" class="node">
<title>Node2</title>
<g id="a_node2"><a xlink:href="classCDPL_1_1Base_1_1ControlParameterContainer.html" target="_top" xlink:title="A class providing methods for the storage and lookup of control&#45;parameter values.">
<polygon fill="none" stroke="#000000" points="164.5,-112.5 164.5,-142.5 322.5,-142.5 322.5,-112.5 164.5,-112.5"/>
<text text-anchor="start" x="172.5" y="-130.5" font-family="Helvetica,sans-Serif" font-size="10.00" fill="#000000">CDPL.Base.ControlParameter</text>
<text text-anchor="middle" x="243.5" y="-119.5" font-family="Helvetica,sans-Serif" font-size="10.00" fill="#000000">Container</text>
</a>
</g>
</g>
<!-- Node2&#45;&gt;Node1 -->
<g id="edge1" class="edge">
<title>Node2&#45;&gt;Node1</title>
<path fill="none" stroke="#191970" d="M243.5,-102.2849C243.5,-92.9858 243.5,-82.9883 243.5,-75.8469"/>
<polygon fill="#191970" stroke="#191970" points="240.0001,-102.2977 243.5,-112.2977 247.0001,-102.2978 240.0001,-102.2977"/>
</g>
<!-- Node3 -->
<g id="node3" class="node">
<title>Node3</title>
<g id="a_node3"><a xlink:title=" ">
<polygon fill="none" stroke="#bfbfbf" points="214.5,-179.5 214.5,-198.5 272.5,-198.5 272.5,-179.5 214.5,-179.5"/>
<text text-anchor="middle" x="243.5" y="-186.5" font-family="Helvetica,sans-Serif" font-size="10.00" fill="#000000">instance</text>
</a>
</g>
</g>
<!-- Node3&#45;&gt;Node2 -->
<g id="edge2" class="edge">
<title>Node3&#45;&gt;Node2</title>
<path fill="none" stroke="#191970" d="M243.5,-169.3693C243.5,-160.681 243.5,-150.6241 243.5,-142.5446"/>
<polygon fill="#191970" stroke="#191970" points="240.0001,-169.3906 243.5,-179.3906 247.0001,-169.3907 240.0001,-169.3906"/>
</g>
</g>
</svg>
