<?xml version="1.0" encoding="UTF-8" standalone="no"?>
<!DOCTYPE svg PUBLIC "-//W3C//DTD SVG 1.1//EN"
 "http://www.w3.org/Graphics/SVG/1.1/DTD/svg11.dtd">
<!-- Generated by graphviz version 2.44.0 (0)
 -->
<!-- Title: CDPL.Math.ConstDQuaternionExpression Pages: 1 -->
<svg width="182pt" height="151pt"
 viewBox="0.00 0.00 182.00 151.00" xmlns="http://www.w3.org/2000/svg" xmlns:xlink="http://www.w3.org/1999/xlink">
<g id="graph0" class="graph" transform="scale(1 1) rotate(0) translate(4 147)">
<title>CDPL.Math.ConstDQuaternionExpression</title>
<!-- Node1 -->
<g id="node1" class="node">
<title>Node1</title>
<g id="a_node1"><a xlink:title=" ">
<polygon fill="#bfbfbf" stroke="black" points="11,-56.5 11,-86.5 163,-86.5 163,-56.5 11,-56.5"/>
<text text-anchor="start" x="19" y="-74.5" font-family="Helvetica" font-size="10.00">CDPL.Math.ConstDQuaternion</text>
<text text-anchor="middle" x="87" y="-63.5" font-family="Helvetica" font-size="10.00">Expression</text>
</a>
</g>
</g>
<!-- Node3 -->
<g id="node3" class="node">
<title>Node3</title>
<g id="a_node3"><a xlink:href="classCDPL_1_1Math_1_1DQuaternionExpression.html" target="_top" xlink:title=" ">
<polygon fill="none" stroke="black" points="0,-0.5 0,-19.5 174,-19.5 174,-0.5 0,-0.5"/>
<text text-anchor="middle" x="87" y="-7.5" font-family="Helvetica" font-size="10.00">CDPL.Math.DQuaternionExpression</text>
</a>
</g>
</g>
<!-- Node1&#45;&gt;Node3 -->
<g id="edge2" class="edge">
<title>Node1&#45;&gt;Node3</title>
<path fill="none" stroke="midnightblue" d="M87,-46.29C87,-36.86 87,-26.65 87,-19.66"/>
<polygon fill="midnightblue" stroke="midnightblue" points="83.5,-46.4 87,-56.4 90.5,-46.4 83.5,-46.4"/>
</g>
<!-- Node2 -->
<g id="node2" class="node">
<title>Node2</title>
<g id="a_node2"><a xlink:title=" ">
<polygon fill="none" stroke="#bfbfbf" points="60.5,-123.5 60.5,-142.5 113.5,-142.5 113.5,-123.5 60.5,-123.5"/>
<text text-anchor="middle" x="87" y="-130.5" font-family="Helvetica" font-size="10.00">instance</text>
</a>
</g>
</g>
<!-- Node2&#45;&gt;Node1 -->
<g id="edge1" class="edge">
<title>Node2&#45;&gt;Node1</title>
<path fill="none" stroke="midnightblue" d="M87,-113.23C87,-104.59 87,-94.5 87,-86.52"/>
<polygon fill="midnightblue" stroke="midnightblue" points="83.5,-113.48 87,-123.48 90.5,-113.48 83.5,-113.48"/>
</g>
</g>
</svg>
