<?xml version="1.0" encoding="UTF-8" standalone="no"?>
<!DOCTYPE svg PUBLIC "-//W3C//DTD SVG 1.1//EN"
 "http://www.w3.org/Graphics/SVG/1.1/DTD/svg11.dtd">
<!-- Generated by graphviz version 2.44.0 (0)
 -->
<!-- Title: CDPL.Vis.Object3DWriterBase Pages: 1 -->
<!--zoomable 192 -->
<svg id="main" version="1.1" xmlns="http://www.w3.org/2000/svg" xmlns:xlink="http://www.w3.org/1999/xlink" xml:space="preserve" onload="init(evt)">
<style type="text/css"><![CDATA[
.edge:hover path { stroke: red; }
.edge:hover polygon { stroke: red; fill: red; }
]]></style>
<script type="text/javascript"><![CDATA[
var edges = document.getElementsByTagName('g');
if (edges && edges.length) {
  for (var i=0;i<edges.length;i++) {
    if (edges[i].id.substr(0,4)=='edge') {
      edges[i].setAttribute('class','edge');
    }
  }
}
]]></script>
        <defs>
                <circle id="rim" cx="0" cy="0" r="7"/>
                <circle id="rim2" cx="0" cy="0" r="3.5"/>
                <g id="zoomPlus">
                        <use xlink:href="#rim" fill="#404040">
                                <set attributeName="fill" to="#808080" begin="zoomplus.mouseover" end="zoomplus.mouseout"/>
                        </use>
                        <path d="M-4,0h8M0,-4v8" fill="none" stroke="white" stroke-width="1.5" pointer-events="none"/>
                </g>
                <g id="zoomMin">
                        <use xlink:href="#rim" fill="#404040">
                                <set attributeName="fill" to="#808080" begin="zoomminus.mouseover" end="zoomminus.mouseout"/>
                        </use>
                        <path d="M-4,0h8" fill="none" stroke="white" stroke-width="1.5" pointer-events="none"/>
                </g>
                <g id="dirArrow">
                        <path fill="none" stroke="white" stroke-width="1.5" d="M0,-3.0v7 M-2.5,-0.5L0,-3.0L2.5,-0.5"/>
                </g>
               <g id="resetDef">
                       <use xlink:href="#rim2" fill="#404040">
                               <set attributeName="fill" to="#808080" begin="reset.mouseover" end="reset.mouseout"/>
                       </use>
               </g>
        </defs>

<script type="text/javascript">
var viewWidth = 855;
var viewHeight = 192;
var sectionId = 'dynsection-0';
</script>
<script xlink:href="svgpan.js"/>
<svg id="graph" class="graph">
<g id="viewport">
<title>CDPL.Vis.Object3DWriterBase</title>
<!-- Node1 -->
<g id="node1" class="node">
<title>Node1</title>
<g id="a_node1"><a xlink:title=" ">
<polygon fill="#bfbfbf" stroke="black" points="496,-76.5 496,-95.5 648,-95.5 648,-76.5 496,-76.5"/>
<text text-anchor="middle" x="572" y="-83.5" font-family="Helvetica" font-size="10.00">CDPL.Vis.Object3DWriterBase</text>
</a>
</g>
</g>
<!-- Node5 -->
<g id="node5" class="node">
<title>Node5</title>
<g id="a_node5"><a xlink:href="classCDPL_1_1Vis_1_1FileSTLObject3DWriter.html" target="_top" xlink:title=" ">
<polygon fill="none" stroke="black" points="684,-164.5 684,-183.5 847,-183.5 847,-164.5 684,-164.5"/>
<text text-anchor="middle" x="765.5" y="-171.5" font-family="Helvetica" font-size="10.00">CDPL.Vis.FileSTLObject3DWriter</text>
</a>
</g>
</g>
<!-- Node1&#45;&gt;Node5 -->
<g id="edge4" class="edge">
<title>Node1&#45;&gt;Node5</title>
<path fill="none" stroke="midnightblue" d="M593.58,-101.66C615.06,-117.3 650.27,-140.98 684,-155 693.15,-158.8 703.21,-161.94 713.04,-164.49"/>
<polygon fill="midnightblue" stroke="midnightblue" points="595.37,-98.64 585.25,-95.5 591.21,-104.26 595.37,-98.64"/>
</g>
<!-- Node6 -->
<g id="node6" class="node">
<title>Node6</title>
<g id="a_node6"><a xlink:href="classCDPL_1_1Vis_1_1FileVRMLObject3DWriter.html" target="_top" xlink:title=" ">
<polygon fill="none" stroke="black" points="695.5,-115 695.5,-145 835.5,-145 835.5,-115 695.5,-115"/>
<text text-anchor="start" x="703.5" y="-133" font-family="Helvetica" font-size="10.00">CDPL.Vis.FileVRMLObject3</text>
<text text-anchor="middle" x="765.5" y="-122" font-family="Helvetica" font-size="10.00">DWriter</text>
</a>
</g>
</g>
<!-- Node1&#45;&gt;Node6 -->
<g id="edge5" class="edge">
<title>Node1&#45;&gt;Node6</title>
<path fill="none" stroke="midnightblue" d="M624.41,-97.81C647.32,-103.08 674.58,-109.34 698.93,-114.93"/>
<polygon fill="midnightblue" stroke="midnightblue" points="625.08,-94.38 614.55,-95.55 623.51,-101.2 625.08,-94.38"/>
</g>
<!-- Node7 -->
<g id="node7" class="node">
<title>Node7</title>
<g id="a_node7"><a xlink:href="classCDPL_1_1Vis_1_1Object3DWriter.html" target="_top" xlink:title="Writer for Vis.Object3D data in any supported format.">
<polygon fill="none" stroke="black" points="701,-76.5 701,-95.5 830,-95.5 830,-76.5 701,-76.5"/>
<text text-anchor="middle" x="765.5" y="-83.5" font-family="Helvetica" font-size="10.00">CDPL.Vis.Object3DWriter</text>
</a>
</g>
</g>
<!-- Node1&#45;&gt;Node7 -->
<g id="edge6" class="edge">
<title>Node1&#45;&gt;Node7</title>
<path fill="none" stroke="midnightblue" d="M658.42,-86C672.64,-86 687.17,-86 700.73,-86"/>
<polygon fill="midnightblue" stroke="midnightblue" points="658.14,-82.5 648.14,-86 658.14,-89.5 658.14,-82.5"/>
</g>
<!-- Node8 -->
<g id="node8" class="node">
<title>Node8</title>
<g id="a_node8"><a xlink:href="classCDPL_1_1Vis_1_1STLObject3DWriter.html" target="_top" xlink:title="Outputs 3D visualization data represented by Vis.Object3D instances in the STL [STLFMT] format.">
<polygon fill="none" stroke="black" points="692,-38.5 692,-57.5 839,-57.5 839,-38.5 692,-38.5"/>
<text text-anchor="middle" x="765.5" y="-45.5" font-family="Helvetica" font-size="10.00">CDPL.Vis.STLObject3DWriter</text>
</a>
</g>
</g>
<!-- Node1&#45;&gt;Node8 -->
<g id="edge7" class="edge">
<title>Node1&#45;&gt;Node8</title>
<path fill="none" stroke="midnightblue" d="M631.15,-74.46C658.46,-69.04 690.63,-62.66 716.52,-57.52"/>
<polygon fill="midnightblue" stroke="midnightblue" points="630.45,-71.03 621.32,-76.41 631.81,-77.9 630.45,-71.03"/>
</g>
<!-- Node9 -->
<g id="node9" class="node">
<title>Node9</title>
<g id="a_node9"><a xlink:href="classCDPL_1_1Vis_1_1VRMLObject3DWriter.html" target="_top" xlink:title="Outputs 3D visualization data represented by Vis.Object3D instances in the VRML [VRML97] format.">
<polygon fill="none" stroke="black" points="687,-0.5 687,-19.5 844,-19.5 844,-0.5 687,-0.5"/>
<text text-anchor="middle" x="765.5" y="-7.5" font-family="Helvetica" font-size="10.00">CDPL.Vis.VRMLObject3DWriter</text>
</a>
</g>
</g>
<!-- Node1&#45;&gt;Node9 -->
<g id="edge8" class="edge">
<title>Node1&#45;&gt;Node9</title>
<path fill="none" stroke="midnightblue" d="M597.29,-71.34C619.27,-58.61 652.87,-40.47 684,-29 693.97,-25.33 704.9,-22.19 715.41,-19.58"/>
<polygon fill="midnightblue" stroke="midnightblue" points="595.47,-68.35 588.62,-76.43 599.02,-74.38 595.47,-68.35"/>
</g>
<!-- Node2 -->
<g id="node2" class="node">
<title>Node2</title>
<g id="a_node2"><a xlink:href="classCDPL_1_1Base_1_1DataIOBase.html" target="_top" xlink:title="Provides infrastructure for the registration of I/O callback functions.">
<polygon fill="none" stroke="black" points="335,-76.5 335,-95.5 460,-95.5 460,-76.5 335,-76.5"/>
<text text-anchor="middle" x="397.5" y="-83.5" font-family="Helvetica" font-size="10.00">CDPL.Base.DataIOBase</text>
</a>
</g>
</g>
<!-- Node2&#45;&gt;Node1 -->
<g id="edge1" class="edge">
<title>Node2&#45;&gt;Node1</title>
<path fill="none" stroke="midnightblue" d="M470.4,-86C478.79,-86 487.36,-86 495.78,-86"/>
<polygon fill="midnightblue" stroke="midnightblue" points="470.29,-82.5 460.29,-86 470.29,-89.5 470.29,-82.5"/>
</g>
<!-- Node3 -->
<g id="node3" class="node">
<title>Node3</title>
<g id="a_node3"><a xlink:href="classCDPL_1_1Base_1_1ControlParameterContainer.html" target="_top" xlink:title="A class providing methods for the storage and lookup of control&#45;parameter values.">
<polygon fill="none" stroke="black" points="151,-71 151,-101 299,-101 299,-71 151,-71"/>
<text text-anchor="start" x="159" y="-89" font-family="Helvetica" font-size="10.00">CDPL.Base.ControlParameter</text>
<text text-anchor="middle" x="225" y="-78" font-family="Helvetica" font-size="10.00">Container</text>
</a>
</g>
</g>
<!-- Node3&#45;&gt;Node2 -->
<g id="edge2" class="edge">
<title>Node3&#45;&gt;Node2</title>
<path fill="none" stroke="midnightblue" d="M309.33,-86C317.9,-86 326.5,-86 334.77,-86"/>
<polygon fill="midnightblue" stroke="midnightblue" points="309.3,-82.5 299.3,-86 309.3,-89.5 309.3,-82.5"/>
</g>
<!-- Node4 -->
<g id="node4" class="node">
<title>Node4</title>
<g id="a_node4"><a xlink:title=" ">
<polygon fill="none" stroke="#bfbfbf" points="0,-76.5 0,-95.5 115,-95.5 115,-76.5 0,-76.5"/>
<text text-anchor="middle" x="57.5" y="-83.5" font-family="Helvetica" font-size="10.00">Boost.Python.instance</text>
</a>
</g>
</g>
<!-- Node4&#45;&gt;Node3 -->
<g id="edge3" class="edge">
<title>Node4&#45;&gt;Node3</title>
<path fill="none" stroke="midnightblue" d="M125.51,-86C133.86,-86 142.43,-86 150.86,-86"/>
<polygon fill="midnightblue" stroke="midnightblue" points="125.46,-82.5 115.46,-86 125.46,-89.5 125.46,-82.5"/>
</g>
</g>
</svg>
        <g id="navigator" transform="translate(0 0)" fill="#404254">
                <rect fill="#f2f5e9" fill-opacity="0.5" stroke="#606060" stroke-width=".5" x="0" y="0" width="60" height="60"/>
                <use id="zoomplus" xlink:href="#zoomPlus" x="17" y="9" onmousedown="handleZoom(evt,'in')"/>
                <use id="zoomminus" xlink:href="#zoomMin" x="42" y="9" onmousedown="handleZoom(evt,'out')"/>
                <use id="reset" xlink:href="#resetDef" x="30" y="36" onmousedown="handleReset()"/>
                <g id="arrowUp" xlink:href="#dirArrow" transform="translate(30 24)" onmousedown="handlePan(0,-1)">
                  <use xlink:href="#rim" fill="#404040">
                        <set attributeName="fill" to="#808080" begin="arrowUp.mouseover" end="arrowUp.mouseout"/>
                  </use>
                  <path fill="none" stroke="white" stroke-width="1.5" d="M0,-3.0v7 M-2.5,-0.5L0,-3.0L2.5,-0.5"/>
                </g>
                <g id="arrowRight" xlink:href="#dirArrow" transform="rotate(90) translate(36 -43)" onmousedown="handlePan(1,0)">
                  <use xlink:href="#rim" fill="#404040">
                        <set attributeName="fill" to="#808080" begin="arrowRight.mouseover" end="arrowRight.mouseout"/>
                  </use>
                  <path fill="none" stroke="white" stroke-width="1.5" d="M0,-3.0v7 M-2.5,-0.5L0,-3.0L2.5,-0.5"/>
                </g>
                <g id="arrowDown" xlink:href="#dirArrow" transform="rotate(180) translate(-30 -48)" onmousedown="handlePan(0,1)">
                  <use xlink:href="#rim" fill="#404040">
                        <set attributeName="fill" to="#808080" begin="arrowDown.mouseover" end="arrowDown.mouseout"/>
                  </use>
                  <path fill="none" stroke="white" stroke-width="1.5" d="M0,-3.0v7 M-2.5,-0.5L0,-3.0L2.5,-0.5"/>
                </g>
                <g id="arrowLeft" xlink:href="#dirArrow" transform="rotate(270) translate(-36 17)" onmousedown="handlePan(-1,0)">
                  <use xlink:href="#rim" fill="#404040">
                        <set attributeName="fill" to="#808080" begin="arrowLeft.mouseover" end="arrowLeft.mouseout"/>
                  </use>
                  <path fill="none" stroke="white" stroke-width="1.5" d="M0,-3.0v7 M-2.5,-0.5L0,-3.0L2.5,-0.5"/>
                </g>
        </g>
        <svg viewBox="0 0 15 15" width="100%" height="30px" preserveAspectRatio="xMaxYMin meet">
         <g id="arrow_out" transform="scale(0.3 0.3)">
          <a xlink:href="classCDPL_1_1Vis_1_1Object3DWriterBase__inherit__graph_org.svg" target="_base">
           <rect id="button" ry="5" rx="5" y="6" x="6" height="38" width="38"
                fill="#f2f5e9" fill-opacity="0.5" stroke="#606060" stroke-width="1.0"/>
           <path id="arrow"
             d="M 11.500037,31.436501 C 11.940474,20.09759 22.043105,11.32322 32.158766,21.979434 L 37.068811,17.246167 C 37.068811,17.246167 37.088388,32 37.088388,32 L 22.160133,31.978069 C 22.160133,31.978069 26.997745,27.140456 26.997745,27.140456 C 18.528582,18.264221 13.291696,25.230495 11.500037,31.436501 z"
             style="fill:#404040;"/>
          </a>
         </g>
        </svg>
</svg>
