<?xml version="1.0" encoding="UTF-8" standalone="no"?>
<!DOCTYPE svg PUBLIC "-//W3C//DTD SVG 1.1//EN"
 "http://www.w3.org/Graphics/SVG/1.1/DTD/svg11.dtd">
<!-- Generated by graphviz version 2.44.0 (0)
 -->
<!-- Title: CDPL.Grid.DRegularGridReaderBase Pages: 1 -->
<svg width="880pt" height="470pt"
 viewBox="0.00 0.00 880.00 470.00" xmlns="http://www.w3.org/2000/svg" xmlns:xlink="http://www.w3.org/1999/xlink">
<g id="graph0" class="graph" transform="scale(1 1) rotate(0) translate(4 466)">
<title>CDPL.Grid.DRegularGridReaderBase</title>
<polygon fill="white" stroke="transparent" points="-4,4 -4,-466 876,-466 876,4 -4,4"/>
<!-- Node1 -->
<g id="node1" class="node">
<title>Node1</title>
<g id="a_node1"><a xlink:title="An interface for reading data objects of type Grid.DRegularGrid from an arbitrary data source.">
<polygon fill="#bfbfbf" stroke="black" points="496,-219 496,-238 675,-238 675,-219 496,-219"/>
<text text-anchor="middle" x="585.5" y="-226" font-family="Helvetica" font-size="10.00">CDPL.Grid.DRegularGridReaderBase</text>
</a>
</g>
</g>
<!-- Node5 -->
<g id="node5" class="node">
<title>Node5</title>
<g id="a_node5"><a xlink:href="classCDPL_1_1Grid_1_1CDFBZ2DRegularGridReader.html" target="_top" xlink:title=" ">
<polygon fill="white" stroke="black" points="718.5,-431.5 718.5,-461.5 864.5,-461.5 864.5,-431.5 718.5,-431.5"/>
<text text-anchor="start" x="726.5" y="-449.5" font-family="Helvetica" font-size="10.00">CDPL.Grid.CDFBZ2DRegular</text>
<text text-anchor="middle" x="791.5" y="-438.5" font-family="Helvetica" font-size="10.00">GridReader</text>
</a>
</g>
</g>
<!-- Node1&#45;&gt;Node5 -->
<g id="edge4" class="edge">
<title>Node1&#45;&gt;Node5</title>
<path fill="none" stroke="midnightblue" d="M593.59,-247.92C608.84,-286.98 648.53,-375.33 711,-422.5 715.6,-425.97 720.71,-428.95 726.05,-431.5"/>
<polygon fill="midnightblue" stroke="midnightblue" points="596.75,-246.4 589.93,-238.28 590.21,-248.88 596.75,-246.4"/>
</g>
<!-- Node6 -->
<g id="node6" class="node">
<title>Node6</title>
<g id="a_node6"><a xlink:href="classCDPL_1_1Grid_1_1CDFDRegularGridReader.html" target="_top" xlink:title="A reader for regular spatial grid data in the native I/O format of the CDPL.">
<polygon fill="white" stroke="black" points="718.5,-382.5 718.5,-412.5 864.5,-412.5 864.5,-382.5 718.5,-382.5"/>
<text text-anchor="start" x="726.5" y="-400.5" font-family="Helvetica" font-size="10.00">CDPL.Grid.CDFDRegularGrid</text>
<text text-anchor="middle" x="791.5" y="-389.5" font-family="Helvetica" font-size="10.00">Reader</text>
</a>
</g>
</g>
<!-- Node1&#45;&gt;Node6 -->
<g id="edge5" class="edge">
<title>Node1&#45;&gt;Node6</title>
<path fill="none" stroke="midnightblue" d="M597.49,-247.15C616.64,-278.02 659.07,-339.68 711,-373.5 716.19,-376.88 721.89,-379.81 727.76,-382.33"/>
<polygon fill="midnightblue" stroke="midnightblue" points="600.29,-245.02 592.11,-238.28 594.31,-248.65 600.29,-245.02"/>
</g>
<!-- Node7 -->
<g id="node7" class="node">
<title>Node7</title>
<g id="a_node7"><a xlink:href="classCDPL_1_1Grid_1_1CDFGZDRegularGridReader.html" target="_top" xlink:title=" ">
<polygon fill="white" stroke="black" points="712,-333.5 712,-363.5 871,-363.5 871,-333.5 712,-333.5"/>
<text text-anchor="start" x="720" y="-351.5" font-family="Helvetica" font-size="10.00">CDPL.Grid.CDFGZDRegularGrid</text>
<text text-anchor="middle" x="791.5" y="-340.5" font-family="Helvetica" font-size="10.00">Reader</text>
</a>
</g>
</g>
<!-- Node1&#45;&gt;Node7 -->
<g id="edge6" class="edge">
<title>Node1&#45;&gt;Node7</title>
<path fill="none" stroke="midnightblue" d="M603.77,-245.17C626.59,-266.37 668.85,-302.82 711,-324.5 717.54,-327.86 724.63,-330.84 731.79,-333.45"/>
<polygon fill="midnightblue" stroke="midnightblue" points="605.95,-242.42 596.28,-238.11 601.15,-247.52 605.95,-242.42"/>
</g>
<!-- Node8 -->
<g id="node8" class="node">
<title>Node8</title>
<g id="a_node8"><a xlink:href="classCDPL_1_1Grid_1_1CUBEDRegularGridReader.html" target="_top" xlink:title="A reader for regular spatial grid data in the Gaussian CUBE [CUBE] format.">
<polygon fill="white" stroke="black" points="714.5,-284.5 714.5,-314.5 868.5,-314.5 868.5,-284.5 714.5,-284.5"/>
<text text-anchor="start" x="722.5" y="-302.5" font-family="Helvetica" font-size="10.00">CDPL.Grid.CUBEDRegularGrid</text>
<text text-anchor="middle" x="791.5" y="-291.5" font-family="Helvetica" font-size="10.00">Reader</text>
</a>
</g>
</g>
<!-- Node1&#45;&gt;Node8 -->
<g id="edge7" class="edge">
<title>Node1&#45;&gt;Node8</title>
<path fill="none" stroke="midnightblue" d="M620.03,-241.86C644.96,-251.63 679.9,-264.95 711,-275.5 719.87,-278.51 729.37,-281.54 738.59,-284.38"/>
<polygon fill="midnightblue" stroke="midnightblue" points="621.24,-238.58 610.66,-238.18 618.68,-245.09 621.24,-238.58"/>
</g>
<!-- Node9 -->
<g id="node9" class="node">
<title>Node9</title>
<g id="a_node9"><a xlink:href="classCDPL_1_1Grid_1_1CompoundDRegularGridReader.html" target="_top" xlink:title="CompoundDataReader.">
<polygon fill="white" stroke="black" points="714,-235.5 714,-265.5 869,-265.5 869,-235.5 714,-235.5"/>
<text text-anchor="start" x="722" y="-253.5" font-family="Helvetica" font-size="10.00">CDPL.Grid.CompoundDRegular</text>
<text text-anchor="middle" x="791.5" y="-242.5" font-family="Helvetica" font-size="10.00">GridReader</text>
</a>
</g>
</g>
<!-- Node1&#45;&gt;Node9 -->
<g id="edge8" class="edge">
<title>Node1&#45;&gt;Node9</title>
<path fill="none" stroke="midnightblue" d="M684.91,-239.11C694.66,-240.16 704.45,-241.22 713.92,-242.24"/>
<polygon fill="midnightblue" stroke="midnightblue" points="685.11,-235.61 674.79,-238.02 684.36,-242.57 685.11,-235.61"/>
</g>
<!-- Node10 -->
<g id="node10" class="node">
<title>Node10</title>
<g id="a_node10"><a xlink:href="classCDPL_1_1Grid_1_1DRegularGridReader.html" target="_top" xlink:title="Reader for grid data of type Grid.DRegularGrid in any supported format.">
<polygon fill="white" stroke="black" points="713.5,-197 713.5,-216 869.5,-216 869.5,-197 713.5,-197"/>
<text text-anchor="middle" x="791.5" y="-204" font-family="Helvetica" font-size="10.00">CDPL.Grid.DRegularGridReader</text>
</a>
</g>
</g>
<!-- Node1&#45;&gt;Node10 -->
<g id="edge9" class="edge">
<title>Node1&#45;&gt;Node10</title>
<path fill="none" stroke="midnightblue" d="M684.75,-217.9C694.33,-216.87 703.95,-215.83 713.29,-214.83"/>
<polygon fill="midnightblue" stroke="midnightblue" points="684.36,-214.43 674.79,-218.98 685.11,-221.39 684.36,-214.43"/>
</g>
<!-- Node11 -->
<g id="node11" class="node">
<title>Node11</title>
<g id="a_node11"><a xlink:href="classCDPL_1_1Grid_1_1FileCDFBZ2DRegularGridReader.html" target="_top" xlink:title=" ">
<polygon fill="white" stroke="black" points="711,-147.5 711,-177.5 872,-177.5 872,-147.5 711,-147.5"/>
<text text-anchor="start" x="719" y="-165.5" font-family="Helvetica" font-size="10.00">CDPL.Grid.FileCDFBZ2DRegular</text>
<text text-anchor="middle" x="791.5" y="-154.5" font-family="Helvetica" font-size="10.00">GridReader</text>
</a>
</g>
</g>
<!-- Node1&#45;&gt;Node11 -->
<g id="edge10" class="edge">
<title>Node1&#45;&gt;Node11</title>
<path fill="none" stroke="midnightblue" d="M624.82,-215.73C649.42,-207.57 682.06,-196.81 711,-187.5 721.05,-184.26 731.84,-180.84 742.12,-177.6"/>
<polygon fill="midnightblue" stroke="midnightblue" points="623.53,-212.47 615.15,-218.95 625.74,-219.12 623.53,-212.47"/>
</g>
<!-- Node12 -->
<g id="node12" class="node">
<title>Node12</title>
<g id="a_node12"><a xlink:href="classCDPL_1_1Grid_1_1FileCDFDRegularGridReader.html" target="_top" xlink:title=" ">
<polygon fill="white" stroke="black" points="720,-98.5 720,-128.5 863,-128.5 863,-98.5 720,-98.5"/>
<text text-anchor="start" x="728" y="-116.5" font-family="Helvetica" font-size="10.00">CDPL.Grid.FileCDFDRegular</text>
<text text-anchor="middle" x="791.5" y="-105.5" font-family="Helvetica" font-size="10.00">GridReader</text>
</a>
</g>
</g>
<!-- Node1&#45;&gt;Node12 -->
<g id="edge11" class="edge">
<title>Node1&#45;&gt;Node12</title>
<path fill="none" stroke="midnightblue" d="M604.65,-212.13C627.8,-192.01 669.81,-158.02 711,-137.5 717.71,-134.16 724.97,-131.18 732.29,-128.56"/>
<polygon fill="midnightblue" stroke="midnightblue" points="602.19,-209.63 597.01,-218.87 606.82,-214.88 602.19,-209.63"/>
</g>
<!-- Node13 -->
<g id="node13" class="node">
<title>Node13</title>
<g id="a_node13"><a xlink:href="classCDPL_1_1Grid_1_1FileCDFGZDRegularGridReader.html" target="_top" xlink:title=" ">
<polygon fill="white" stroke="black" points="713,-49.5 713,-79.5 870,-79.5 870,-49.5 713,-49.5"/>
<text text-anchor="start" x="721" y="-67.5" font-family="Helvetica" font-size="10.00">CDPL.Grid.FileCDFGZDRegular</text>
<text text-anchor="middle" x="791.5" y="-56.5" font-family="Helvetica" font-size="10.00">GridReader</text>
</a>
</g>
</g>
<!-- Node1&#45;&gt;Node13 -->
<g id="edge12" class="edge">
<title>Node1&#45;&gt;Node13</title>
<path fill="none" stroke="midnightblue" d="M597.94,-210.07C617.45,-180.14 660.05,-121.05 711,-88.5 716.35,-85.08 722.2,-82.13 728.24,-79.59"/>
<polygon fill="midnightblue" stroke="midnightblue" points="594.86,-208.38 592.43,-218.69 600.76,-212.15 594.86,-208.38"/>
</g>
<!-- Node14 -->
<g id="node14" class="node">
<title>Node14</title>
<g id="a_node14"><a xlink:href="classCDPL_1_1Grid_1_1FileCUBEDRegularGridReader.html" target="_top" xlink:title=" ">
<polygon fill="white" stroke="black" points="715.5,-0.5 715.5,-30.5 867.5,-30.5 867.5,-0.5 715.5,-0.5"/>
<text text-anchor="start" x="723.5" y="-18.5" font-family="Helvetica" font-size="10.00">CDPL.Grid.FileCUBEDRegular</text>
<text text-anchor="middle" x="791.5" y="-7.5" font-family="Helvetica" font-size="10.00">GridReader</text>
</a>
</g>
</g>
<!-- Node1&#45;&gt;Node14 -->
<g id="edge13" class="edge">
<title>Node1&#45;&gt;Node14</title>
<path fill="none" stroke="midnightblue" d="M593.73,-209.58C609.24,-171.52 649.39,-85.45 711,-39.5 715.62,-36.05 720.74,-33.1 726.09,-30.56"/>
<polygon fill="midnightblue" stroke="midnightblue" points="590.44,-208.38 590.01,-218.97 596.95,-210.96 590.44,-208.38"/>
</g>
<!-- Node2 -->
<g id="node2" class="node">
<title>Node2</title>
<g id="a_node2"><a xlink:href="classCDPL_1_1Base_1_1DataIOBase.html" target="_top" xlink:title="Provides infrastructure for the registration of I/O callback functions.">
<polygon fill="white" stroke="black" points="335,-219 335,-238 460,-238 460,-219 335,-219"/>
<text text-anchor="middle" x="397.5" y="-226" font-family="Helvetica" font-size="10.00">CDPL.Base.DataIOBase</text>
</a>
</g>
</g>
<!-- Node2&#45;&gt;Node1 -->
<g id="edge1" class="edge">
<title>Node2&#45;&gt;Node1</title>
<path fill="none" stroke="midnightblue" d="M470.24,-228.5C478.6,-228.5 487.21,-228.5 495.77,-228.5"/>
<polygon fill="midnightblue" stroke="midnightblue" points="470.18,-225 460.18,-228.5 470.18,-232 470.18,-225"/>
</g>
<!-- Node3 -->
<g id="node3" class="node">
<title>Node3</title>
<g id="a_node3"><a xlink:href="classCDPL_1_1Base_1_1ControlParameterContainer.html" target="_top" xlink:title="A class providing methods for the storage and lookup of control&#45;parameter values.">
<polygon fill="white" stroke="black" points="151,-213.5 151,-243.5 299,-243.5 299,-213.5 151,-213.5"/>
<text text-anchor="start" x="159" y="-231.5" font-family="Helvetica" font-size="10.00">CDPL.Base.ControlParameter</text>
<text text-anchor="middle" x="225" y="-220.5" font-family="Helvetica" font-size="10.00">Container</text>
</a>
</g>
</g>
<!-- Node3&#45;&gt;Node2 -->
<g id="edge2" class="edge">
<title>Node3&#45;&gt;Node2</title>
<path fill="none" stroke="midnightblue" d="M309.33,-228.5C317.9,-228.5 326.5,-228.5 334.77,-228.5"/>
<polygon fill="midnightblue" stroke="midnightblue" points="309.3,-225 299.3,-228.5 309.3,-232 309.3,-225"/>
</g>
<!-- Node4 -->
<g id="node4" class="node">
<title>Node4</title>
<g id="a_node4"><a xlink:title=" ">
<polygon fill="white" stroke="#bfbfbf" points="0,-219 0,-238 115,-238 115,-219 0,-219"/>
<text text-anchor="middle" x="57.5" y="-226" font-family="Helvetica" font-size="10.00">Boost.Python.instance</text>
</a>
</g>
</g>
<!-- Node4&#45;&gt;Node3 -->
<g id="edge3" class="edge">
<title>Node4&#45;&gt;Node3</title>
<path fill="none" stroke="midnightblue" d="M125.51,-228.5C133.86,-228.5 142.43,-228.5 150.86,-228.5"/>
<polygon fill="midnightblue" stroke="midnightblue" points="125.46,-225 115.46,-228.5 125.46,-232 125.46,-225"/>
</g>
</g>
</svg>
