<?xml version="1.0" encoding="UTF-8" standalone="no"?>
<!DOCTYPE svg PUBLIC "-//W3C//DTD SVG 1.1//EN"
 "http://www.w3.org/Graphics/SVG/1.1/DTD/svg11.dtd">
<!-- Generated by graphviz version 2.44.0 (0)
 -->
<!-- Title: CDPL.Biomol.HierarchyViewNode Pages: 1 -->
<svg width="1140pt" height="137pt"
 viewBox="0.00 0.00 1140.00 137.00" xmlns="http://www.w3.org/2000/svg" xmlns:xlink="http://www.w3.org/1999/xlink">
<g id="graph0" class="graph" transform="scale(1 1) rotate(0) translate(4 133)">
<title>CDPL.Biomol.HierarchyViewNode</title>
<!-- Node1 -->
<g id="node1" class="node">
<title>Node1</title>
<g id="a_node1"><a xlink:title="HierarchyViewNode.">
<polygon fill="#bfbfbf" stroke="black" points="787,-55 787,-74 953,-74 953,-55 787,-55"/>
<text text-anchor="middle" x="870" y="-62" font-family="Helvetica" font-size="10.00">CDPL.Biomol.HierarchyViewNode</text>
</a>
</g>
</g>
<!-- Node9 -->
<g id="node9" class="node">
<title>Node9</title>
<g id="a_node9"><a xlink:href="classCDPL_1_1Biomol_1_1HierarchyViewChain.html" target="_top" xlink:title="HierarchyViewChain.">
<polygon fill="none" stroke="black" points="989,-98.5 989,-128.5 1132,-128.5 1132,-98.5 989,-98.5"/>
<text text-anchor="start" x="997" y="-116.5" font-family="Helvetica" font-size="10.00">CDPL.Biomol.HierarchyView</text>
<text text-anchor="middle" x="1060.5" y="-105.5" font-family="Helvetica" font-size="10.00">Chain</text>
</a>
</g>
</g>
<!-- Node1&#45;&gt;Node9 -->
<g id="edge10" class="edge">
<title>Node1&#45;&gt;Node9</title>
<path fill="none" stroke="midnightblue" d="M917.55,-76.6C942.97,-83.21 974.66,-91.45 1001.65,-98.46"/>
<polygon fill="midnightblue" stroke="midnightblue" points="918.35,-73.19 907.79,-74.06 916.59,-79.97 918.35,-73.19"/>
</g>
<!-- Node10 -->
<g id="node10" class="node">
<title>Node10</title>
<g id="a_node10"><a xlink:href="classCDPL_1_1Biomol_1_1HierarchyViewFragment.html" target="_top" xlink:title="HierarchyViewFragment.">
<polygon fill="none" stroke="black" points="989,-49.5 989,-79.5 1132,-79.5 1132,-49.5 989,-49.5"/>
<text text-anchor="start" x="997" y="-67.5" font-family="Helvetica" font-size="10.00">CDPL.Biomol.HierarchyView</text>
<text text-anchor="middle" x="1060.5" y="-56.5" font-family="Helvetica" font-size="10.00">Fragment</text>
</a>
</g>
</g>
<!-- Node1&#45;&gt;Node10 -->
<g id="edge11" class="edge">
<title>Node1&#45;&gt;Node10</title>
<path fill="none" stroke="midnightblue" d="M963.22,-64.5C971.84,-64.5 980.48,-64.5 988.86,-64.5"/>
<polygon fill="midnightblue" stroke="midnightblue" points="963.13,-61 953.13,-64.5 963.13,-68 963.13,-61"/>
</g>
<!-- Node11 -->
<g id="node11" class="node">
<title>Node11</title>
<g id="a_node11"><a xlink:href="classCDPL_1_1Biomol_1_1HierarchyViewModel.html" target="_top" xlink:title="HierarchyViewModel.">
<polygon fill="none" stroke="black" points="989,-0.5 989,-30.5 1132,-30.5 1132,-0.5 989,-0.5"/>
<text text-anchor="start" x="997" y="-18.5" font-family="Helvetica" font-size="10.00">CDPL.Biomol.HierarchyView</text>
<text text-anchor="middle" x="1060.5" y="-7.5" font-family="Helvetica" font-size="10.00">Model</text>
</a>
</g>
</g>
<!-- Node1&#45;&gt;Node11 -->
<g id="edge12" class="edge">
<title>Node1&#45;&gt;Node11</title>
<path fill="none" stroke="midnightblue" d="M917.55,-52.4C942.97,-45.79 974.66,-37.55 1001.65,-30.54"/>
<polygon fill="midnightblue" stroke="midnightblue" points="916.59,-49.03 907.79,-54.94 918.35,-55.81 916.59,-49.03"/>
</g>
<!-- Node2 -->
<g id="node2" class="node">
<title>Node2</title>
<g id="a_node2"><a xlink:href="classCDPL_1_1Chem_1_1Fragment.html" target="_top" xlink:title="Fragment.">
<polygon fill="none" stroke="black" points="635,-55 635,-74 751,-74 751,-55 635,-55"/>
<text text-anchor="middle" x="693" y="-62" font-family="Helvetica" font-size="10.00">CDPL.Chem.Fragment</text>
</a>
</g>
</g>
<!-- Node2&#45;&gt;Node1 -->
<g id="edge1" class="edge">
<title>Node2&#45;&gt;Node1</title>
<path fill="none" stroke="midnightblue" d="M761.33,-64.5C769.67,-64.5 778.27,-64.5 786.81,-64.5"/>
<polygon fill="midnightblue" stroke="midnightblue" points="761.3,-61 751.3,-64.5 761.3,-68 761.3,-61"/>
</g>
<!-- Node3 -->
<g id="node3" class="node">
<title>Node3</title>
<g id="a_node3"><a xlink:href="classCDPL_1_1Chem_1_1MolecularGraph.html" target="_top" xlink:title="MolecularGraph.">
<polygon fill="none" stroke="black" points="456,-55 456,-74 599,-74 599,-55 456,-55"/>
<text text-anchor="middle" x="527.5" y="-62" font-family="Helvetica" font-size="10.00">CDPL.Chem.MolecularGraph</text>
</a>
</g>
</g>
<!-- Node3&#45;&gt;Node2 -->
<g id="edge2" class="edge">
<title>Node3&#45;&gt;Node2</title>
<path fill="none" stroke="midnightblue" d="M609.36,-64.5C617.99,-64.5 626.64,-64.5 634.91,-64.5"/>
<polygon fill="midnightblue" stroke="midnightblue" points="609.26,-61 599.26,-64.5 609.26,-68 609.26,-61"/>
</g>
<!-- Node4 -->
<g id="node4" class="node">
<title>Node4</title>
<g id="a_node4"><a xlink:href="classCDPL_1_1Chem_1_1AtomContainer.html" target="_top" xlink:title="A common interface for data&#45;structures that support a random access to stored Chem....">
<polygon fill="none" stroke="black" points="280,-93 280,-112 420,-112 420,-93 280,-93"/>
<text text-anchor="middle" x="350" y="-100" font-family="Helvetica" font-size="10.00">CDPL.Chem.AtomContainer</text>
</a>
</g>
</g>
<!-- Node4&#45;&gt;Node3 -->
<g id="edge3" class="edge">
<title>Node4&#45;&gt;Node3</title>
<path fill="none" stroke="midnightblue" d="M405.28,-90.75C430.09,-85.37 459.11,-79.09 482.53,-74.02"/>
<polygon fill="midnightblue" stroke="midnightblue" points="404.32,-87.37 395.29,-92.91 405.8,-94.22 404.32,-87.37"/>
</g>
<!-- Node5 -->
<g id="node5" class="node">
<title>Node5</title>
<g id="a_node5"><a xlink:href="classCDPL_1_1Chem_1_1Entity3DContainer.html" target="_top" xlink:title="A common interface for data&#45;structures that support a random access to stored Chem....">
<polygon fill="none" stroke="black" points="89,-93 89,-112 244,-112 244,-93 89,-93"/>
<text text-anchor="middle" x="166.5" y="-100" font-family="Helvetica" font-size="10.00">CDPL.Chem.Entity3DContainer</text>
</a>
</g>
</g>
<!-- Node5&#45;&gt;Node4 -->
<g id="edge4" class="edge">
<title>Node5&#45;&gt;Node4</title>
<path fill="none" stroke="midnightblue" d="M254.23,-102.5C262.8,-102.5 271.41,-102.5 279.77,-102.5"/>
<polygon fill="midnightblue" stroke="midnightblue" points="254.21,-99 244.21,-102.5 254.21,-106 254.21,-99"/>
</g>
<!-- Node6 -->
<g id="node6" class="node">
<title>Node6</title>
<g id="a_node6"><a xlink:title=" ">
<polygon fill="none" stroke="#bfbfbf" points="0,-55 0,-74 53,-74 53,-55 0,-55"/>
<text text-anchor="middle" x="26.5" y="-62" font-family="Helvetica" font-size="10.00">instance</text>
</a>
</g>
</g>
<!-- Node6&#45;&gt;Node5 -->
<g id="edge5" class="edge">
<title>Node6&#45;&gt;Node5</title>
<path fill="none" stroke="midnightblue" d="M62.91,-74.25C83.8,-80 110.14,-87.26 130.9,-92.97"/>
<polygon fill="midnightblue" stroke="midnightblue" points="63.7,-70.84 53.13,-71.56 61.85,-77.59 63.7,-70.84"/>
</g>
<!-- Node7 -->
<g id="node7" class="node">
<title>Node7</title>
<g id="a_node7"><a xlink:href="classCDPL_1_1Chem_1_1BondContainer.html" target="_top" xlink:title="A common interface for data&#45;structures that support a random access to stored Chem....">
<polygon fill="none" stroke="black" points="280,-55 280,-74 420,-74 420,-55 280,-55"/>
<text text-anchor="middle" x="350" y="-62" font-family="Helvetica" font-size="10.00">CDPL.Chem.BondContainer</text>
</a>
</g>
</g>
<!-- Node6&#45;&gt;Node7 -->
<g id="edge7" class="edge">
<title>Node6&#45;&gt;Node7</title>
<path fill="none" stroke="midnightblue" d="M63.37,-64.5C115.54,-64.5 213.36,-64.5 279.83,-64.5"/>
<polygon fill="midnightblue" stroke="midnightblue" points="63.27,-61 53.27,-64.5 63.27,-68 63.27,-61"/>
</g>
<!-- Node8 -->
<g id="node8" class="node">
<title>Node8</title>
<g id="a_node8"><a xlink:href="classCDPL_1_1Base_1_1PropertyContainer.html" target="_top" xlink:title="A class providing methods for the storage and lookup of object properties.">
<polygon fill="none" stroke="black" points="91,-17 91,-36 242,-36 242,-17 91,-17"/>
<text text-anchor="middle" x="166.5" y="-24" font-family="Helvetica" font-size="10.00">CDPL.Base.PropertyContainer</text>
</a>
</g>
</g>
<!-- Node6&#45;&gt;Node8 -->
<g id="edge9" class="edge">
<title>Node6&#45;&gt;Node8</title>
<path fill="none" stroke="midnightblue" d="M62.91,-54.75C83.8,-49 110.14,-41.74 130.9,-36.03"/>
<polygon fill="midnightblue" stroke="midnightblue" points="61.85,-51.41 53.13,-57.44 63.7,-58.16 61.85,-51.41"/>
</g>
<!-- Node7&#45;&gt;Node3 -->
<g id="edge6" class="edge">
<title>Node7&#45;&gt;Node3</title>
<path fill="none" stroke="midnightblue" d="M430.35,-64.5C438.81,-64.5 447.37,-64.5 455.72,-64.5"/>
<polygon fill="midnightblue" stroke="midnightblue" points="430.11,-61 420.11,-64.5 430.11,-68 430.11,-61"/>
</g>
<!-- Node8&#45;&gt;Node3 -->
<g id="edge8" class="edge">
<title>Node8&#45;&gt;Node3</title>
<path fill="none" stroke="midnightblue" d="M252.26,-30.73C301.38,-33.71 364.32,-38.46 420,-45.5 439.38,-47.95 460.59,-51.55 478.94,-54.95"/>
<polygon fill="midnightblue" stroke="midnightblue" points="252.19,-27.22 242,-30.12 251.77,-34.2 252.19,-27.22"/>
</g>
</g>
</svg>
