<?xml version="1.0" encoding="UTF-8" standalone="no"?>
<!DOCTYPE svg PUBLIC "-//W3C//DTD SVG 1.1//EN"
 "http://www.w3.org/Graphics/SVG/1.1/DTD/svg11.dtd">
<!-- Generated by graphviz version 2.44.0 (0)
 -->
<!-- Title: CDPL.Grid.DRegularGrid Pages: 1 -->
<svg width="312pt" height="252pt"
 viewBox="0.00 0.00 312.00 252.00" xmlns="http://www.w3.org/2000/svg" xmlns:xlink="http://www.w3.org/1999/xlink">
<g id="graph0" class="graph" transform="scale(1 1) rotate(0) translate(4 248)">
<title>CDPL.Grid.DRegularGrid</title>
<!-- Node1 -->
<g id="node1" class="node">
<title>Node1</title>
<g id="a_node1"><a xlink:title="RegularGrid.">
<polygon fill="#bfbfbf" stroke="black" points="81,-0.5 81,-19.5 206,-19.5 206,-0.5 81,-0.5"/>
<text text-anchor="middle" x="143.5" y="-7.5" font-family="Helvetica" font-size="10.00">CDPL.Grid.DRegularGrid</text>
</a>
</g>
</g>
<!-- Node2 -->
<g id="node2" class="node">
<title>Node2</title>
<g id="a_node2"><a xlink:href="classCDPL_1_1Grid_1_1DSpatialGrid.html" target="_top" xlink:title="SpatialGrid.">
<polygon fill="none" stroke="black" points="38.5,-56.5 38.5,-75.5 160.5,-75.5 160.5,-56.5 38.5,-56.5"/>
<text text-anchor="middle" x="99.5" y="-63.5" font-family="Helvetica" font-size="10.00">CDPL.Grid.DSpatialGrid</text>
</a>
</g>
</g>
<!-- Node2&#45;&gt;Node1 -->
<g id="edge1" class="edge">
<title>Node2&#45;&gt;Node1</title>
<path fill="none" stroke="midnightblue" d="M113.23,-48.14C120.9,-38.74 130.13,-27.4 136.37,-19.75"/>
<polygon fill="midnightblue" stroke="midnightblue" points="110.37,-46.12 106.77,-56.08 115.8,-50.54 110.37,-46.12"/>
</g>
<!-- Node3 -->
<g id="node3" class="node">
<title>Node3</title>
<g id="a_node3"><a xlink:href="classCDPL_1_1Grid_1_1AttributedGrid.html" target="_top" xlink:title="AttributedGrid.">
<polygon fill="none" stroke="black" points="0,-112.5 0,-131.5 127,-131.5 127,-112.5 0,-112.5"/>
<text text-anchor="middle" x="63.5" y="-119.5" font-family="Helvetica" font-size="10.00">CDPL.Grid.AttributedGrid</text>
</a>
</g>
</g>
<!-- Node3&#45;&gt;Node2 -->
<g id="edge2" class="edge">
<title>Node3&#45;&gt;Node2</title>
<path fill="none" stroke="midnightblue" d="M75.12,-103.57C81.32,-94.27 88.67,-83.25 93.67,-75.75"/>
<polygon fill="midnightblue" stroke="midnightblue" points="72.08,-101.82 69.44,-112.08 77.9,-105.7 72.08,-101.82"/>
</g>
<!-- Node4 -->
<g id="node4" class="node">
<title>Node4</title>
<g id="a_node4"><a xlink:href="classCDPL_1_1Base_1_1PropertyContainer.html" target="_top" xlink:title="A class providing methods for the storage and lookup of object properties.">
<polygon fill="none" stroke="black" points="16,-168.5 16,-187.5 167,-187.5 167,-168.5 16,-168.5"/>
<text text-anchor="middle" x="91.5" y="-175.5" font-family="Helvetica" font-size="10.00">CDPL.Base.PropertyContainer</text>
</a>
</g>
</g>
<!-- Node4&#45;&gt;Node3 -->
<g id="edge3" class="edge">
<title>Node4&#45;&gt;Node3</title>
<path fill="none" stroke="midnightblue" d="M82.16,-158.98C77.41,-149.82 71.84,-139.09 68.04,-131.75"/>
<polygon fill="midnightblue" stroke="midnightblue" points="79.17,-160.82 86.88,-168.08 85.38,-157.59 79.17,-160.82"/>
</g>
<!-- Node5 -->
<g id="node5" class="node">
<title>Node5</title>
<g id="a_node5"><a xlink:title=" ">
<polygon fill="none" stroke="#bfbfbf" points="117,-224.5 117,-243.5 170,-243.5 170,-224.5 117,-224.5"/>
<text text-anchor="middle" x="143.5" y="-231.5" font-family="Helvetica" font-size="10.00">instance</text>
</a>
</g>
</g>
<!-- Node5&#45;&gt;Node4 -->
<g id="edge4" class="edge">
<title>Node5&#45;&gt;Node4</title>
<path fill="none" stroke="midnightblue" d="M127.82,-216.72C118.66,-207.2 107.45,-195.56 99.93,-187.75"/>
<polygon fill="midnightblue" stroke="midnightblue" points="125.46,-219.31 134.91,-224.08 130.5,-214.45 125.46,-219.31"/>
</g>
<!-- Node6 -->
<g id="node6" class="node">
<title>Node6</title>
<g id="a_node6"><a xlink:href="classCDPL_1_1Math_1_1DRegularSpatialGrid.html" target="_top" xlink:title="An unbounded dense regular grid in 3D space holding floating point values of type double.">
<polygon fill="none" stroke="black" points="145,-112.5 145,-131.5 304,-131.5 304,-112.5 145,-112.5"/>
<text text-anchor="middle" x="224.5" y="-119.5" font-family="Helvetica" font-size="10.00">CDPL.Math.DRegularSpatialGrid</text>
</a>
</g>
</g>
<!-- Node5&#45;&gt;Node6 -->
<g id="edge6" class="edge">
<title>Node5&#45;&gt;Node6</title>
<path fill="none" stroke="midnightblue" d="M155.82,-216.27C173.33,-192.49 204.77,-149.79 218.17,-131.59"/>
<polygon fill="midnightblue" stroke="midnightblue" points="152.97,-214.24 149.86,-224.37 158.6,-218.39 152.97,-214.24"/>
</g>
<!-- Node6&#45;&gt;Node1 -->
<g id="edge5" class="edge">
<title>Node6&#45;&gt;Node1</title>
<path fill="none" stroke="midnightblue" d="M212.18,-104.27C194.67,-80.49 163.23,-37.79 149.83,-19.59"/>
<polygon fill="midnightblue" stroke="midnightblue" points="209.4,-106.39 218.14,-112.37 215.03,-102.24 209.4,-106.39"/>
</g>
</g>
</svg>
