<?xml version="1.0" encoding="UTF-8" standalone="no"?>
<!DOCTYPE svg PUBLIC "-//W3C//DTD SVG 1.1//EN"
 "http://www.w3.org/Graphics/SVG/1.1/DTD/svg11.dtd">
<!-- Generated by graphviz version 2.40.1 (0)
 -->
<!-- Title: CDPL.Vis.Path2D Pages: 1 -->
<svg width="330pt" height="140pt"
 viewBox="0.00 0.00 329.50 140.00" xmlns="http://www.w3.org/2000/svg" xmlns:xlink="http://www.w3.org/1999/xlink">
<g id="graph0" class="graph" transform="scale(1 1) rotate(0) translate(4 136)">
<title>CDPL.Vis.Path2D</title>
<!-- Node1 -->
<g id="node1" class="node">
<title>Node1</title>
<g id="a_node1"><a xlink:title="Provides a container for painting operations, enabling arbitrary graphical shapes to be constructed a...">
<polygon fill="#bfbfbf" stroke="#000000" points="116.5,-56.5 116.5,-75.5 214.5,-75.5 214.5,-56.5 116.5,-56.5"/>
<text text-anchor="middle" x="165.5" y="-63.5" font-family="Helvetica,sans-Serif" font-size="10.00" fill="#000000">CDPL.Vis.Path2D</text>
</a>
</g>
</g>
<!-- Node3 -->
<g id="node3" class="node">
<title>Node3</title>
<g id="a_node3"><a xlink:href="classCDPL_1_1Vis_1_1ClipPathPrimitive2D.html" target="_top" xlink:title="A graphics primitive representing a clipping region in 2D space.">
<polygon fill="none" stroke="#000000" points="0,-.5 0,-19.5 161,-19.5 161,-.5 0,-.5"/>
<text text-anchor="middle" x="80.5" y="-7.5" font-family="Helvetica,sans-Serif" font-size="10.00" fill="#000000">CDPL.Vis.ClipPathPrimitive2D</text>
</a>
</g>
</g>
<!-- Node1&#45;&gt;Node3 -->
<g id="edge2" class="edge">
<title>Node1&#45;&gt;Node3</title>
<path fill="none" stroke="#191970" d="M141.9581,-50.49C126.961,-40.6096 108.0027,-28.1194 95.1362,-19.6427"/>
<polygon fill="#191970" stroke="#191970" points="140.4179,-53.6666 150.6941,-56.2455 144.2691,-47.8212 140.4179,-53.6666"/>
</g>
<!-- Node4 -->
<g id="node4" class="node">
<title>Node4</title>
<g id="a_node4"><a xlink:href="classCDPL_1_1Vis_1_1PathPrimitive2D.html" target="_top" xlink:title="A graphics primitive representing an arbitrary path in 2D space.">
<polygon fill="none" stroke="#000000" points="179.5,-.5 179.5,-19.5 321.5,-19.5 321.5,-.5 179.5,-.5"/>
<text text-anchor="middle" x="250.5" y="-7.5" font-family="Helvetica,sans-Serif" font-size="10.00" fill="#000000">CDPL.Vis.PathPrimitive2D</text>
</a>
</g>
</g>
<!-- Node1&#45;&gt;Node4 -->
<g id="edge3" class="edge">
<title>Node1&#45;&gt;Node4</title>
<path fill="none" stroke="#191970" d="M189.0419,-50.49C204.039,-40.6096 222.9973,-28.1194 235.8638,-19.6427"/>
<polygon fill="#191970" stroke="#191970" points="186.7309,-47.8212 180.3059,-56.2455 190.5821,-53.6666 186.7309,-47.8212"/>
</g>
<!-- Node2 -->
<g id="node2" class="node">
<title>Node2</title>
<g id="a_node2"><a xlink:title=" ">
<polygon fill="none" stroke="#bfbfbf" points="136.5,-112.5 136.5,-131.5 194.5,-131.5 194.5,-112.5 136.5,-112.5"/>
<text text-anchor="middle" x="165.5" y="-119.5" font-family="Helvetica,sans-Serif" font-size="10.00" fill="#000000">instance</text>
</a>
</g>
</g>
<!-- Node2&#45;&gt;Node1 -->
<g id="edge1" class="edge">
<title>Node2&#45;&gt;Node1</title>
<path fill="none" stroke="#191970" d="M165.5,-102.1575C165.5,-93.155 165.5,-82.9199 165.5,-75.6427"/>
<polygon fill="#191970" stroke="#191970" points="162.0001,-102.2455 165.5,-112.2455 169.0001,-102.2456 162.0001,-102.2455"/>
</g>
</g>
</svg>
