<?xml version="1.0" encoding="UTF-8" standalone="no"?>
<!DOCTYPE svg PUBLIC "-//W3C//DTD SVG 1.1//EN"
 "http://www.w3.org/Graphics/SVG/1.1/DTD/svg11.dtd">
<!-- Generated by graphviz version 2.44.0 (0)
 -->
<!-- Title: CDPL.Vis.Path2D Pages: 1 -->
<svg width="312pt" height="140pt"
 viewBox="0.00 0.00 311.50 140.00" xmlns="http://www.w3.org/2000/svg" xmlns:xlink="http://www.w3.org/1999/xlink">
<g id="graph0" class="graph" transform="scale(1 1) rotate(0) translate(4 136)">
<title>CDPL.Vis.Path2D</title>
<!-- Node1 -->
<g id="node1" class="node">
<title>Node1</title>
<g id="a_node1"><a xlink:title="Provides a container for painting operations, enabling arbitrary graphical shapes to be constructed a...">
<polygon fill="#bfbfbf" stroke="black" points="107.5,-56.5 107.5,-75.5 203.5,-75.5 203.5,-56.5 107.5,-56.5"/>
<text text-anchor="middle" x="155.5" y="-63.5" font-family="Helvetica" font-size="10.00">CDPL.Vis.Path2D</text>
</a>
</g>
</g>
<!-- Node3 -->
<g id="node3" class="node">
<title>Node3</title>
<g id="a_node3"><a xlink:href="classCDPL_1_1Vis_1_1ClipPathPrimitive2D.html" target="_top" xlink:title="A graphics primitive representing a clipping region in 2D space.">
<polygon fill="none" stroke="black" points="0,-0.5 0,-19.5 151,-19.5 151,-0.5 0,-0.5"/>
<text text-anchor="middle" x="75.5" y="-7.5" font-family="Helvetica" font-size="10.00">CDPL.Vis.ClipPathPrimitive2D</text>
</a>
</g>
</g>
<!-- Node1&#45;&gt;Node3 -->
<g id="edge2" class="edge">
<title>Node1&#45;&gt;Node3</title>
<path fill="none" stroke="midnightblue" d="M134.2,-50.62C119.58,-40.76 100.67,-27.99 88.32,-19.65"/>
<polygon fill="midnightblue" stroke="midnightblue" points="132.4,-53.63 142.65,-56.32 136.32,-47.83 132.4,-53.63"/>
</g>
<!-- Node4 -->
<g id="node4" class="node">
<title>Node4</title>
<g id="a_node4"><a xlink:href="classCDPL_1_1Vis_1_1PathPrimitive2D.html" target="_top" xlink:title="A graphics primitive representing an arbitrary path in 2D space.">
<polygon fill="none" stroke="black" points="169.5,-0.5 169.5,-19.5 303.5,-19.5 303.5,-0.5 169.5,-0.5"/>
<text text-anchor="middle" x="236.5" y="-7.5" font-family="Helvetica" font-size="10.00">CDPL.Vis.PathPrimitive2D</text>
</a>
</g>
</g>
<!-- Node1&#45;&gt;Node4 -->
<g id="edge3" class="edge">
<title>Node1&#45;&gt;Node4</title>
<path fill="none" stroke="midnightblue" d="M177.07,-50.62C191.86,-40.76 211.01,-27.99 223.52,-19.65"/>
<polygon fill="midnightblue" stroke="midnightblue" points="174.89,-47.86 168.51,-56.32 178.78,-53.69 174.89,-47.86"/>
</g>
<!-- Node2 -->
<g id="node2" class="node">
<title>Node2</title>
<g id="a_node2"><a xlink:title=" ">
<polygon fill="none" stroke="#bfbfbf" points="129,-112.5 129,-131.5 182,-131.5 182,-112.5 129,-112.5"/>
<text text-anchor="middle" x="155.5" y="-119.5" font-family="Helvetica" font-size="10.00">instance</text>
</a>
</g>
</g>
<!-- Node2&#45;&gt;Node1 -->
<g id="edge1" class="edge">
<title>Node2&#45;&gt;Node1</title>
<path fill="none" stroke="midnightblue" d="M155.5,-101.8C155.5,-92.91 155.5,-82.78 155.5,-75.75"/>
<polygon fill="midnightblue" stroke="midnightblue" points="152,-102.08 155.5,-112.08 159,-102.08 152,-102.08"/>
</g>
</g>
</svg>
