<?xml version="1.0" encoding="UTF-8" standalone="no"?>
<!DOCTYPE svg PUBLIC "-//W3C//DTD SVG 1.1//EN"
 "http://www.w3.org/Graphics/SVG/1.1/DTD/svg11.dtd">
<!-- Generated by graphviz version 2.44.0 (0)
 -->
<!-- Title: CDPL.Vis.Object3DOutputHandler Pages: 1 -->
<svg width="523pt" height="186pt"
 viewBox="0.00 0.00 523.00 186.00" xmlns="http://www.w3.org/2000/svg" xmlns:xlink="http://www.w3.org/1999/xlink">
<g id="graph0" class="graph" transform="scale(1 1) rotate(0) translate(4 182)">
<title>CDPL.Vis.Object3DOutputHandler</title>
<!-- Node1 -->
<g id="node1" class="node">
<title>Node1</title>
<g id="a_node1"><a xlink:title=" ">
<polygon fill="#bfbfbf" stroke="black" points="151,-79 151,-98 318,-98 318,-79 151,-79"/>
<text text-anchor="middle" x="234.5" y="-86" font-family="Helvetica" font-size="10.00">CDPL.Vis.Object3DOutputHandler</text>
</a>
</g>
</g>
<!-- Node3 -->
<g id="node3" class="node">
<title>Node3</title>
<g id="a_node3"><a xlink:href="classCDPL_1_1Vis_1_1PLYObject3DOutputHandler.html" target="_top" xlink:title="A handler for the output of Vis.Object3D instances in the Polygon File Format [PLYFMT].">
<polygon fill="none" stroke="black" points="359,-147.5 359,-177.5 510,-177.5 510,-147.5 359,-147.5"/>
<text text-anchor="start" x="367" y="-165.5" font-family="Helvetica" font-size="10.00">CDPL.Vis.PLYObject3DOutput</text>
<text text-anchor="middle" x="434.5" y="-154.5" font-family="Helvetica" font-size="10.00">Handler</text>
</a>
</g>
</g>
<!-- Node1&#45;&gt;Node3 -->
<g id="edge2" class="edge">
<title>Node1&#45;&gt;Node3</title>
<path fill="none" stroke="midnightblue" d="M265.4,-102.16C289.15,-112.75 323.36,-127.44 354,-138.5 362.54,-141.58 371.7,-144.6 380.64,-147.4"/>
<polygon fill="midnightblue" stroke="midnightblue" points="266.77,-98.93 256.21,-98.03 263.9,-105.32 266.77,-98.93"/>
</g>
<!-- Node4 -->
<g id="node4" class="node">
<title>Node4</title>
<g id="a_node4"><a xlink:href="classCDPL_1_1Vis_1_1R3DObject3DOutputHandler.html" target="_top" xlink:title="A handler for the output of Vis.Object3D instances in the Raster3D [R3DFMT] format.">
<polygon fill="none" stroke="black" points="357.5,-98.5 357.5,-128.5 511.5,-128.5 511.5,-98.5 357.5,-98.5"/>
<text text-anchor="start" x="365.5" y="-116.5" font-family="Helvetica" font-size="10.00">CDPL.Vis.R3DObject3DOutput</text>
<text text-anchor="middle" x="434.5" y="-105.5" font-family="Helvetica" font-size="10.00">Handler</text>
</a>
</g>
</g>
<!-- Node1&#45;&gt;Node4 -->
<g id="edge3" class="edge">
<title>Node1&#45;&gt;Node4</title>
<path fill="none" stroke="midnightblue" d="M320.99,-99.29C333.06,-100.82 345.42,-102.38 357.31,-103.88"/>
<polygon fill="midnightblue" stroke="midnightblue" points="321.28,-95.8 310.92,-98.02 320.4,-102.75 321.28,-95.8"/>
</g>
<!-- Node5 -->
<g id="node5" class="node">
<title>Node5</title>
<g id="a_node5"><a xlink:href="classCDPL_1_1Vis_1_1STLObject3DOutputHandler.html" target="_top" xlink:title="A handler for the output of Vis.Object3D instances in the STL [STLFMT] format.">
<polygon fill="none" stroke="black" points="358.5,-49.5 358.5,-79.5 510.5,-79.5 510.5,-49.5 358.5,-49.5"/>
<text text-anchor="start" x="366.5" y="-67.5" font-family="Helvetica" font-size="10.00">CDPL.Vis.STLObject3DOutput</text>
<text text-anchor="middle" x="434.5" y="-56.5" font-family="Helvetica" font-size="10.00">Handler</text>
</a>
</g>
</g>
<!-- Node1&#45;&gt;Node5 -->
<g id="edge4" class="edge">
<title>Node1&#45;&gt;Node5</title>
<path fill="none" stroke="midnightblue" d="M324.03,-77.77C335.46,-76.38 347.09,-74.97 358.28,-73.62"/>
<polygon fill="midnightblue" stroke="midnightblue" points="323.55,-74.3 314.04,-78.98 324.39,-81.25 323.55,-74.3"/>
</g>
<!-- Node6 -->
<g id="node6" class="node">
<title>Node6</title>
<g id="a_node6"><a xlink:href="classCDPL_1_1Vis_1_1VRMLObject3DOutputHandler.html" target="_top" xlink:title="A handler for the output of Vis.Object3D instances in the VRML [VRML97] format.">
<polygon fill="none" stroke="black" points="354,-0.5 354,-30.5 515,-30.5 515,-0.5 354,-0.5"/>
<text text-anchor="start" x="362" y="-18.5" font-family="Helvetica" font-size="10.00">CDPL.Vis.VRMLObject3DOutput</text>
<text text-anchor="middle" x="434.5" y="-7.5" font-family="Helvetica" font-size="10.00">Handler</text>
</a>
</g>
</g>
<!-- Node1&#45;&gt;Node6 -->
<g id="edge5" class="edge">
<title>Node1&#45;&gt;Node6</title>
<path fill="none" stroke="midnightblue" d="M266.29,-74.78C290.02,-64.46 323.78,-50.28 354,-39.5 362.69,-36.4 372,-33.35 381.09,-30.52"/>
<polygon fill="midnightblue" stroke="midnightblue" points="264.84,-71.6 257.09,-78.82 267.65,-78.01 264.84,-71.6"/>
</g>
<!-- Node2 -->
<g id="node2" class="node">
<title>Node2</title>
<g id="a_node2"><a xlink:title=" ">
<polygon fill="none" stroke="#bfbfbf" points="0,-79 0,-98 115,-98 115,-79 0,-79"/>
<text text-anchor="middle" x="57.5" y="-86" font-family="Helvetica" font-size="10.00">Boost.Python.instance</text>
</a>
</g>
</g>
<!-- Node2&#45;&gt;Node1 -->
<g id="edge1" class="edge">
<title>Node2&#45;&gt;Node1</title>
<path fill="none" stroke="midnightblue" d="M125.36,-88.5C133.72,-88.5 142.35,-88.5 150.91,-88.5"/>
<polygon fill="midnightblue" stroke="midnightblue" points="125.32,-85 115.32,-88.5 125.32,-92 125.32,-85"/>
</g>
</g>
</svg>
