<?xml version="1.0" encoding="UTF-8" standalone="no"?>
<!DOCTYPE svg PUBLIC "-//W3C//DTD SVG 1.1//EN"
 "http://www.w3.org/Graphics/SVG/1.1/DTD/svg11.dtd">
<!-- Generated by graphviz version 2.44.0 (0)
 -->
<!-- Title: CDPL.Vis.RightFrustumMesh3D Pages: 1 -->
<svg width="167pt" height="196pt"
 viewBox="0.00 0.00 167.00 196.00" xmlns="http://www.w3.org/2000/svg" xmlns:xlink="http://www.w3.org/1999/xlink">
<g id="graph0" class="graph" transform="scale(1 1) rotate(0) translate(4 192)">
<title>CDPL.Vis.RightFrustumMesh3D</title>
<!-- Node1 -->
<g id="node1" class="node">
<title>Node1</title>
<g id="a_node1"><a xlink:title="A pre&#45;defined triangle mesh providing the vertices and faces of a right frustum specified by the cont...">
<polygon fill="#bfbfbf" stroke="black" points="0,-0.5 0,-19.5 159,-19.5 159,-0.5 0,-0.5"/>
<text text-anchor="middle" x="79.5" y="-7.5" font-family="Helvetica" font-size="10.00">CDPL.Vis.RightFrustumMesh3D</text>
</a>
</g>
</g>
<!-- Node2 -->
<g id="node2" class="node">
<title>Node2</title>
<g id="a_node2"><a xlink:href="classCDPL_1_1Vis_1_1TriangleMesh3D.html" target="_top" xlink:title="Data structure for describing the geometric shape of 3D objects by means of a triangle mesh.">
<polygon fill="none" stroke="black" points="12.5,-56.5 12.5,-75.5 146.5,-75.5 146.5,-56.5 12.5,-56.5"/>
<text text-anchor="middle" x="79.5" y="-63.5" font-family="Helvetica" font-size="10.00">CDPL.Vis.TriangleMesh3D</text>
</a>
</g>
</g>
<!-- Node2&#45;&gt;Node1 -->
<g id="edge1" class="edge">
<title>Node2&#45;&gt;Node1</title>
<path fill="none" stroke="midnightblue" d="M79.5,-45.8C79.5,-36.91 79.5,-26.78 79.5,-19.75"/>
<polygon fill="midnightblue" stroke="midnightblue" points="76,-46.08 79.5,-56.08 83,-46.08 76,-46.08"/>
</g>
<!-- Node3 -->
<g id="node3" class="node">
<title>Node3</title>
<g id="a_node3"><a xlink:href="classCDPL_1_1Vis_1_1Shape3D.html" target="_top" xlink:title="The abstract base of all classes describing the geometric shape of 3D objects.">
<polygon fill="none" stroke="black" points="27.5,-112.5 27.5,-131.5 131.5,-131.5 131.5,-112.5 27.5,-112.5"/>
<text text-anchor="middle" x="79.5" y="-119.5" font-family="Helvetica" font-size="10.00">CDPL.Vis.Shape3D</text>
</a>
</g>
</g>
<!-- Node3&#45;&gt;Node2 -->
<g id="edge2" class="edge">
<title>Node3&#45;&gt;Node2</title>
<path fill="none" stroke="midnightblue" d="M79.5,-101.8C79.5,-92.91 79.5,-82.78 79.5,-75.75"/>
<polygon fill="midnightblue" stroke="midnightblue" points="76,-102.08 79.5,-112.08 83,-102.08 76,-102.08"/>
</g>
<!-- Node4 -->
<g id="node4" class="node">
<title>Node4</title>
<g id="a_node4"><a xlink:title=" ">
<polygon fill="none" stroke="#bfbfbf" points="22,-168.5 22,-187.5 137,-187.5 137,-168.5 22,-168.5"/>
<text text-anchor="middle" x="79.5" y="-175.5" font-family="Helvetica" font-size="10.00">Boost.Python.instance</text>
</a>
</g>
</g>
<!-- Node4&#45;&gt;Node3 -->
<g id="edge3" class="edge">
<title>Node4&#45;&gt;Node3</title>
<path fill="none" stroke="midnightblue" d="M79.5,-157.8C79.5,-148.91 79.5,-138.78 79.5,-131.75"/>
<polygon fill="midnightblue" stroke="midnightblue" points="76,-158.08 79.5,-168.08 83,-158.08 76,-158.08"/>
</g>
</g>
</svg>
