<?xml version="1.0" encoding="UTF-8" standalone="no"?>
<!DOCTYPE svg PUBLIC "-//W3C//DTD SVG 1.1//EN"
 "http://www.w3.org/Graphics/SVG/1.1/DTD/svg11.dtd">
<!-- Generated by graphviz version 2.44.0 (0)
 -->
<!-- Title: CDPL.Vis.VRMLObject3DWriter Pages: 1 -->
<svg width="165pt" height="263pt"
 viewBox="0.00 0.00 165.00 263.00" xmlns="http://www.w3.org/2000/svg" xmlns:xlink="http://www.w3.org/1999/xlink">
<g id="graph0" class="graph" transform="scale(1 1) rotate(0) translate(4 259)">
<title>CDPL.Vis.VRMLObject3DWriter</title>
<!-- Node1 -->
<g id="node1" class="node">
<title>Node1</title>
<g id="a_node1"><a xlink:title="Outputs 3D visualization data represented by Vis.Object3D instances in the VRML [VRML97] format.">
<polygon fill="#bfbfbf" stroke="black" points="0,-0.5 0,-19.5 157,-19.5 157,-0.5 0,-0.5"/>
<text text-anchor="middle" x="78.5" y="-7.5" font-family="Helvetica" font-size="10.00">CDPL.Vis.VRMLObject3DWriter</text>
</a>
</g>
</g>
<!-- Node2 -->
<g id="node2" class="node">
<title>Node2</title>
<g id="a_node2"><a xlink:href="classCDPL_1_1Vis_1_1Object3DWriterBase.html" target="_top" xlink:title=" ">
<polygon fill="none" stroke="black" points="2.5,-56.5 2.5,-75.5 154.5,-75.5 154.5,-56.5 2.5,-56.5"/>
<text text-anchor="middle" x="78.5" y="-63.5" font-family="Helvetica" font-size="10.00">CDPL.Vis.Object3DWriterBase</text>
</a>
</g>
</g>
<!-- Node2&#45;&gt;Node1 -->
<g id="edge1" class="edge">
<title>Node2&#45;&gt;Node1</title>
<path fill="none" stroke="midnightblue" d="M78.5,-45.8C78.5,-36.91 78.5,-26.78 78.5,-19.75"/>
<polygon fill="midnightblue" stroke="midnightblue" points="75,-46.08 78.5,-56.08 82,-46.08 75,-46.08"/>
</g>
<!-- Node3 -->
<g id="node3" class="node">
<title>Node3</title>
<g id="a_node3"><a xlink:href="classCDPL_1_1Base_1_1DataIOBase.html" target="_top" xlink:title="Provides infrastructure for the registration of I/O callback functions.">
<polygon fill="none" stroke="black" points="16,-112.5 16,-131.5 141,-131.5 141,-112.5 16,-112.5"/>
<text text-anchor="middle" x="78.5" y="-119.5" font-family="Helvetica" font-size="10.00">CDPL.Base.DataIOBase</text>
</a>
</g>
</g>
<!-- Node3&#45;&gt;Node2 -->
<g id="edge2" class="edge">
<title>Node3&#45;&gt;Node2</title>
<path fill="none" stroke="midnightblue" d="M78.5,-101.8C78.5,-92.91 78.5,-82.78 78.5,-75.75"/>
<polygon fill="midnightblue" stroke="midnightblue" points="75,-102.08 78.5,-112.08 82,-102.08 75,-102.08"/>
</g>
<!-- Node4 -->
<g id="node4" class="node">
<title>Node4</title>
<g id="a_node4"><a xlink:href="classCDPL_1_1Base_1_1ControlParameterContainer.html" target="_top" xlink:title="A class providing methods for the storage and lookup of control&#45;parameter values.">
<polygon fill="none" stroke="black" points="4.5,-168.5 4.5,-198.5 152.5,-198.5 152.5,-168.5 4.5,-168.5"/>
<text text-anchor="start" x="12.5" y="-186.5" font-family="Helvetica" font-size="10.00">CDPL.Base.ControlParameter</text>
<text text-anchor="middle" x="78.5" y="-175.5" font-family="Helvetica" font-size="10.00">Container</text>
</a>
</g>
</g>
<!-- Node4&#45;&gt;Node3 -->
<g id="edge3" class="edge">
<title>Node4&#45;&gt;Node3</title>
<path fill="none" stroke="midnightblue" d="M78.5,-158.29C78.5,-148.86 78.5,-138.65 78.5,-131.66"/>
<polygon fill="midnightblue" stroke="midnightblue" points="75,-158.4 78.5,-168.4 82,-158.4 75,-158.4"/>
</g>
<!-- Node5 -->
<g id="node5" class="node">
<title>Node5</title>
<g id="a_node5"><a xlink:title=" ">
<polygon fill="none" stroke="#bfbfbf" points="21,-235.5 21,-254.5 136,-254.5 136,-235.5 21,-235.5"/>
<text text-anchor="middle" x="78.5" y="-242.5" font-family="Helvetica" font-size="10.00">Boost.Python.instance</text>
</a>
</g>
</g>
<!-- Node5&#45;&gt;Node4 -->
<g id="edge4" class="edge">
<title>Node5&#45;&gt;Node4</title>
<path fill="none" stroke="midnightblue" d="M78.5,-225.23C78.5,-216.59 78.5,-206.5 78.5,-198.52"/>
<polygon fill="midnightblue" stroke="midnightblue" points="75,-225.48 78.5,-235.48 82,-225.48 75,-225.48"/>
</g>
</g>
</svg>
