<?xml version="1.0" encoding="UTF-8" standalone="no"?>
<!DOCTYPE svg PUBLIC "-//W3C//DTD SVG 1.1//EN"
 "http://www.w3.org/Graphics/SVG/1.1/DTD/svg11.dtd">
<!-- Generated by graphviz version 2.44.0 (0)
 -->
<!-- Title: CDPL.Vis.PointArray2D Pages: 1 -->
<svg width="577pt" height="154pt"
 viewBox="0.00 0.00 577.00 153.50" xmlns="http://www.w3.org/2000/svg" xmlns:xlink="http://www.w3.org/1999/xlink">
<g id="graph0" class="graph" transform="scale(1 1) rotate(0) translate(4 149.5)">
<title>CDPL.Vis.PointArray2D</title>
<!-- Node1 -->
<g id="node1" class="node">
<title>Node1</title>
<g id="a_node1"><a xlink:title="Stores a set of points in 2D space.">
<polygon fill="#bfbfbf" stroke="black" points="259,-57.5 259,-76.5 381,-76.5 381,-57.5 259,-57.5"/>
<text text-anchor="middle" x="320" y="-64.5" font-family="Helvetica" font-size="10.00">CDPL.Vis.PointArray2D</text>
</a>
</g>
</g>
<!-- Node4 -->
<g id="node4" class="node">
<title>Node4</title>
<g id="a_node4"><a xlink:href="classCDPL_1_1Vis_1_1LineSegmentListPrimitive2D.html" target="_top" xlink:title="A graphics primitive representing a list of disjoint line segments.">
<polygon fill="none" stroke="black" points="425,-115 425,-145 561,-145 561,-115 425,-115"/>
<text text-anchor="start" x="433" y="-133" font-family="Helvetica" font-size="10.00">CDPL.Vis.LineSegmentList</text>
<text text-anchor="middle" x="493" y="-122" font-family="Helvetica" font-size="10.00">Primitive2D</text>
</a>
</g>
</g>
<!-- Node1&#45;&gt;Node4 -->
<g id="edge3" class="edge">
<title>Node1&#45;&gt;Node4</title>
<path fill="none" stroke="midnightblue" d="M353.58,-80.41C372.08,-87.9 395.73,-97.25 417,-105 426.16,-108.34 436,-111.74 445.45,-114.93"/>
<polygon fill="midnightblue" stroke="midnightblue" points="354.72,-77.1 344.14,-76.58 352.09,-83.58 354.72,-77.1"/>
</g>
<!-- Node5 -->
<g id="node5" class="node">
<title>Node5</title>
<g id="a_node5"><a xlink:href="classCDPL_1_1Vis_1_1PointListPrimitive2D.html" target="_top" xlink:title="A graphics primitive representing a list of points.">
<polygon fill="none" stroke="black" points="417,-76.5 417,-95.5 569,-95.5 569,-76.5 417,-76.5"/>
<text text-anchor="middle" x="493" y="-83.5" font-family="Helvetica" font-size="10.00">CDPL.Vis.PointListPrimitive2D</text>
</a>
</g>
</g>
<!-- Node1&#45;&gt;Node5 -->
<g id="edge4" class="edge">
<title>Node1&#45;&gt;Node5</title>
<path fill="none" stroke="midnightblue" d="M391.44,-74.83C399.86,-75.76 408.49,-76.72 416.97,-77.66"/>
<polygon fill="midnightblue" stroke="midnightblue" points="391.61,-71.32 381.29,-73.7 390.84,-78.28 391.61,-71.32"/>
</g>
<!-- Node6 -->
<g id="node6" class="node">
<title>Node6</title>
<g id="a_node6"><a xlink:href="classCDPL_1_1Vis_1_1PolygonPrimitive2D.html" target="_top" xlink:title="A graphics primitive representing a polygon.">
<polygon fill="none" stroke="black" points="419,-38.5 419,-57.5 567,-57.5 567,-38.5 419,-38.5"/>
<text text-anchor="middle" x="493" y="-45.5" font-family="Helvetica" font-size="10.00">CDPL.Vis.PolygonPrimitive2D</text>
</a>
</g>
</g>
<!-- Node1&#45;&gt;Node6 -->
<g id="edge5" class="edge">
<title>Node1&#45;&gt;Node6</title>
<path fill="none" stroke="midnightblue" d="M391.37,-59.18C400.41,-58.18 409.68,-57.15 418.76,-56.14"/>
<polygon fill="midnightblue" stroke="midnightblue" points="390.84,-55.72 381.29,-60.3 391.61,-62.68 390.84,-55.72"/>
</g>
<!-- Node7 -->
<g id="node7" class="node">
<title>Node7</title>
<g id="a_node7"><a xlink:href="classCDPL_1_1Vis_1_1PolylinePrimitive2D.html" target="_top" xlink:title="A graphics primitive representing a set of connected line segments.">
<polygon fill="none" stroke="black" points="419,-0.5 419,-19.5 567,-19.5 567,-0.5 419,-0.5"/>
<text text-anchor="middle" x="493" y="-7.5" font-family="Helvetica" font-size="10.00">CDPL.Vis.PolylinePrimitive2D</text>
</a>
</g>
</g>
<!-- Node1&#45;&gt;Node7 -->
<g id="edge6" class="edge">
<title>Node1&#45;&gt;Node7</title>
<path fill="none" stroke="midnightblue" d="M352.26,-53.44C370.85,-45.68 395.02,-36.1 417,-29 427.74,-25.53 439.5,-22.29 450.47,-19.51"/>
<polygon fill="midnightblue" stroke="midnightblue" points="350.67,-50.31 342.82,-57.43 353.4,-56.76 350.67,-50.31"/>
</g>
<!-- Node2 -->
<g id="node2" class="node">
<title>Node2</title>
<g id="a_node2"><a xlink:href="classCDPL_1_1Math_1_1Vector2DArray.html" target="_top" xlink:title="An array of Math.Vector2D objects.">
<polygon fill="none" stroke="black" points="89,-57.5 89,-76.5 223,-76.5 223,-57.5 89,-57.5"/>
<text text-anchor="middle" x="156" y="-64.5" font-family="Helvetica" font-size="10.00">CDPL.Math.Vector2DArray</text>
</a>
</g>
</g>
<!-- Node2&#45;&gt;Node1 -->
<g id="edge1" class="edge">
<title>Node2&#45;&gt;Node1</title>
<path fill="none" stroke="midnightblue" d="M233.39,-67C241.98,-67 250.64,-67 258.99,-67"/>
<polygon fill="midnightblue" stroke="midnightblue" points="233.36,-63.5 223.36,-67 233.36,-70.5 233.36,-63.5"/>
</g>
<!-- Node3 -->
<g id="node3" class="node">
<title>Node3</title>
<g id="a_node3"><a xlink:title=" ">
<polygon fill="none" stroke="#bfbfbf" points="0,-57.5 0,-76.5 53,-76.5 53,-57.5 0,-57.5"/>
<text text-anchor="middle" x="26.5" y="-64.5" font-family="Helvetica" font-size="10.00">instance</text>
</a>
</g>
</g>
<!-- Node3&#45;&gt;Node2 -->
<g id="edge2" class="edge">
<title>Node3&#45;&gt;Node2</title>
<path fill="none" stroke="midnightblue" d="M63.35,-67C71.35,-67 80.09,-67 88.88,-67"/>
<polygon fill="midnightblue" stroke="midnightblue" points="63.3,-63.5 53.3,-67 63.3,-70.5 63.3,-63.5"/>
</g>
</g>
</svg>
