<?xml version="1.0" encoding="UTF-8" standalone="no"?>
<!DOCTYPE svg PUBLIC "-//W3C//DTD SVG 1.1//EN"
 "http://www.w3.org/Graphics/SVG/1.1/DTD/svg11.dtd">
<!-- Generated by graphviz version 2.44.0 (0)
 -->
<!-- Title: CDPL.Grid.DRegularGridSetReaderBase Pages: 1 -->
<!--zoomable 382 -->
<svg id="main" version="1.1" xmlns="http://www.w3.org/2000/svg" xmlns:xlink="http://www.w3.org/1999/xlink" xml:space="preserve" onload="init(evt)">
<style type="text/css"><![CDATA[
.edge:hover path { stroke: red; }
.edge:hover polygon { stroke: red; fill: red; }
]]></style>
<script type="text/javascript"><![CDATA[
var edges = document.getElementsByTagName('g');
if (edges && edges.length) {
  for (var i=0;i<edges.length;i++) {
    if (edges[i].id.substr(0,4)=='edge') {
      edges[i].setAttribute('class','edge');
    }
  }
}
]]></script>
        <defs>
                <circle id="rim" cx="0" cy="0" r="7"/>
                <circle id="rim2" cx="0" cy="0" r="3.5"/>
                <g id="zoomPlus">
                        <use xlink:href="#rim" fill="#404040">
                                <set attributeName="fill" to="#808080" begin="zoomplus.mouseover" end="zoomplus.mouseout"/>
                        </use>
                        <path d="M-4,0h8M0,-4v8" fill="none" stroke="white" stroke-width="1.5" pointer-events="none"/>
                </g>
                <g id="zoomMin">
                        <use xlink:href="#rim" fill="#404040">
                                <set attributeName="fill" to="#808080" begin="zoomminus.mouseover" end="zoomminus.mouseout"/>
                        </use>
                        <path d="M-4,0h8" fill="none" stroke="white" stroke-width="1.5" pointer-events="none"/>
                </g>
                <g id="dirArrow">
                        <path fill="none" stroke="white" stroke-width="1.5" d="M0,-3.0v7 M-2.5,-0.5L0,-3.0L2.5,-0.5"/>
                </g>
               <g id="resetDef">
                       <use xlink:href="#rim2" fill="#404040">
                               <set attributeName="fill" to="#808080" begin="reset.mouseover" end="reset.mouseout"/>
                       </use>
               </g>
        </defs>

<script type="text/javascript">
var viewWidth = 779;
var viewHeight = 382;
var sectionId = 'dynsection-0';
</script>
<script xlink:href="svgpan.js"/>
<svg id="graph" class="graph">
<g id="viewport">
<title>CDPL.Grid.DRegularGridSetReaderBase</title>
<!-- Node1 -->
<g id="node1" class="node">
<title>Node1</title>
<g id="a_node1"><a xlink:title="An interface for reading data objects of type Grid.DRegularGridSet from an arbitrary data source.">
<polygon fill="#bfbfbf" stroke="black" points="434,-171.5 434,-201.5 574,-201.5 574,-171.5 434,-171.5"/>
<text text-anchor="start" x="442" y="-189.5" font-family="Helvetica" font-size="10.00">CDPL.Grid.DRegularGridSet</text>
<text text-anchor="middle" x="504" y="-178.5" font-family="Helvetica" font-size="10.00">ReaderBase</text>
</a>
</g>
</g>
<!-- Node5 -->
<g id="node5" class="node">
<title>Node5</title>
<g id="a_node5"><a xlink:href="classCDPL_1_1Grid_1_1CDFBZ2DRegularGridSetReader.html" target="_top" xlink:title=" ">
<polygon fill="none" stroke="black" points="617.5,-343.5 617.5,-373.5 763.5,-373.5 763.5,-343.5 617.5,-343.5"/>
<text text-anchor="start" x="625.5" y="-361.5" font-family="Helvetica" font-size="10.00">CDPL.Grid.CDFBZ2DRegular</text>
<text text-anchor="middle" x="690.5" y="-350.5" font-family="Helvetica" font-size="10.00">GridSetReader</text>
</a>
</g>
</g>
<!-- Node1&#45;&gt;Node5 -->
<g id="edge4" class="edge">
<title>Node1&#45;&gt;Node5</title>
<path fill="none" stroke="midnightblue" d="M515.97,-210.94C531.97,-243.84 564.8,-301.99 610,-334.5 614.8,-337.95 620.1,-340.91 625.62,-343.45"/>
<polygon fill="midnightblue" stroke="midnightblue" points="518.99,-209.14 511.55,-201.6 512.66,-212.13 518.99,-209.14"/>
</g>
<!-- Node6 -->
<g id="node6" class="node">
<title>Node6</title>
<g id="a_node6"><a xlink:href="classCDPL_1_1Grid_1_1CDFDRegularGridSetReader.html" target="_top" xlink:title="A reader for spatial regular grid set data in the native I/O format of the CDPL.">
<polygon fill="none" stroke="black" points="617.5,-294.5 617.5,-324.5 763.5,-324.5 763.5,-294.5 617.5,-294.5"/>
<text text-anchor="start" x="625.5" y="-312.5" font-family="Helvetica" font-size="10.00">CDPL.Grid.CDFDRegularGrid</text>
<text text-anchor="middle" x="690.5" y="-301.5" font-family="Helvetica" font-size="10.00">SetReader</text>
</a>
</g>
</g>
<!-- Node1&#45;&gt;Node6 -->
<g id="edge5" class="edge">
<title>Node1&#45;&gt;Node6</title>
<path fill="none" stroke="midnightblue" d="M523.47,-209.22C542.84,-231.64 575.24,-265.38 610,-285.5 615.86,-288.89 622.26,-291.85 628.78,-294.42"/>
<polygon fill="midnightblue" stroke="midnightblue" points="526.08,-206.89 516.95,-201.52 520.74,-211.42 526.08,-206.89"/>
</g>
<!-- Node7 -->
<g id="node7" class="node">
<title>Node7</title>
<g id="a_node7"><a xlink:href="classCDPL_1_1Grid_1_1CDFGZDRegularGridSetReader.html" target="_top" xlink:title=" ">
<polygon fill="none" stroke="black" points="611,-245.5 611,-275.5 770,-275.5 770,-245.5 611,-245.5"/>
<text text-anchor="start" x="619" y="-263.5" font-family="Helvetica" font-size="10.00">CDPL.Grid.CDFGZDRegularGrid</text>
<text text-anchor="middle" x="690.5" y="-252.5" font-family="Helvetica" font-size="10.00">SetReader</text>
</a>
</g>
</g>
<!-- Node1&#45;&gt;Node7 -->
<g id="edge6" class="edge">
<title>Node1&#45;&gt;Node7</title>
<path fill="none" stroke="midnightblue" d="M542.86,-206.24C562.57,-216.07 587.24,-227.7 610,-236.5 618.2,-239.67 627.01,-242.69 635.67,-245.46"/>
<polygon fill="midnightblue" stroke="midnightblue" points="544.4,-203.09 533.9,-201.72 541.25,-209.34 544.4,-203.09"/>
</g>
<!-- Node8 -->
<g id="node8" class="node">
<title>Node8</title>
<g id="a_node8"><a xlink:href="classCDPL_1_1Grid_1_1CompoundDRegularGridSetReader.html" target="_top" xlink:title="CompoundDataReader.">
<polygon fill="none" stroke="black" points="613,-196.5 613,-226.5 768,-226.5 768,-196.5 613,-196.5"/>
<text text-anchor="start" x="621" y="-214.5" font-family="Helvetica" font-size="10.00">CDPL.Grid.CompoundDRegular</text>
<text text-anchor="middle" x="690.5" y="-203.5" font-family="Helvetica" font-size="10.00">GridSetReader</text>
</a>
</g>
</g>
<!-- Node1&#45;&gt;Node8 -->
<g id="edge7" class="edge">
<title>Node1&#45;&gt;Node8</title>
<path fill="none" stroke="midnightblue" d="M584.36,-197.25C593.78,-198.53 603.38,-199.83 612.77,-201.1"/>
<polygon fill="midnightblue" stroke="midnightblue" points="584.61,-193.75 574.23,-195.88 583.67,-200.69 584.61,-193.75"/>
</g>
<!-- Node9 -->
<g id="node9" class="node">
<title>Node9</title>
<g id="a_node9"><a xlink:href="classCDPL_1_1Grid_1_1DRegularGridSetReader.html" target="_top" xlink:title="Reader for grid set data of type Grid.DRegularGridSet in any supported format.">
<polygon fill="none" stroke="black" points="620.5,-147.5 620.5,-177.5 760.5,-177.5 760.5,-147.5 620.5,-147.5"/>
<text text-anchor="start" x="628.5" y="-165.5" font-family="Helvetica" font-size="10.00">CDPL.Grid.DRegularGridSet</text>
<text text-anchor="middle" x="690.5" y="-154.5" font-family="Helvetica" font-size="10.00">Reader</text>
</a>
</g>
</g>
<!-- Node1&#45;&gt;Node9 -->
<g id="edge8" class="edge">
<title>Node1&#45;&gt;Node9</title>
<path fill="none" stroke="midnightblue" d="M584.27,-176.19C596.32,-174.62 608.68,-173.01 620.5,-171.48"/>
<polygon fill="midnightblue" stroke="midnightblue" points="583.69,-172.73 574.23,-177.5 584.59,-179.68 583.69,-172.73"/>
</g>
<!-- Node10 -->
<g id="node10" class="node">
<title>Node10</title>
<g id="a_node10"><a xlink:href="classCDPL_1_1Grid_1_1FileCDFBZ2DRegularGridSetReader.html" target="_top" xlink:title=" ">
<polygon fill="none" stroke="black" points="610,-98.5 610,-128.5 771,-128.5 771,-98.5 610,-98.5"/>
<text text-anchor="start" x="618" y="-116.5" font-family="Helvetica" font-size="10.00">CDPL.Grid.FileCDFBZ2DRegular</text>
<text text-anchor="middle" x="690.5" y="-105.5" font-family="Helvetica" font-size="10.00">GridSetReader</text>
</a>
</g>
</g>
<!-- Node1&#45;&gt;Node10 -->
<g id="edge9" class="edge">
<title>Node1&#45;&gt;Node10</title>
<path fill="none" stroke="midnightblue" d="M543.59,-166.87C563.19,-157.32 587.55,-146.08 610,-137.5 618.22,-134.36 627.03,-131.36 635.69,-128.6"/>
<polygon fill="midnightblue" stroke="midnightblue" points="541.81,-163.85 534.38,-171.4 544.9,-170.13 541.81,-163.85"/>
</g>
<!-- Node11 -->
<g id="node11" class="node">
<title>Node11</title>
<g id="a_node11"><a xlink:href="classCDPL_1_1Grid_1_1FileCDFDRegularGridSetReader.html" target="_top" xlink:title=" ">
<polygon fill="none" stroke="black" points="619,-49.5 619,-79.5 762,-79.5 762,-49.5 619,-49.5"/>
<text text-anchor="start" x="627" y="-67.5" font-family="Helvetica" font-size="10.00">CDPL.Grid.FileCDFDRegular</text>
<text text-anchor="middle" x="690.5" y="-56.5" font-family="Helvetica" font-size="10.00">GridSetReader</text>
</a>
</g>
</g>
<!-- Node1&#45;&gt;Node11 -->
<g id="edge10" class="edge">
<title>Node1&#45;&gt;Node11</title>
<path fill="none" stroke="midnightblue" d="M523.84,-163.64C543.28,-141.46 575.54,-108.32 610,-88.5 615.87,-85.12 622.27,-82.17 628.8,-79.61"/>
<polygon fill="midnightblue" stroke="midnightblue" points="521.15,-161.41 517.28,-171.28 526.46,-165.98 521.15,-161.41"/>
</g>
<!-- Node12 -->
<g id="node12" class="node">
<title>Node12</title>
<g id="a_node12"><a xlink:href="classCDPL_1_1Grid_1_1FileCDFGZDRegularGridSetReader.html" target="_top" xlink:title=" ">
<polygon fill="none" stroke="black" points="612,-0.5 612,-30.5 769,-30.5 769,-0.5 612,-0.5"/>
<text text-anchor="start" x="620" y="-18.5" font-family="Helvetica" font-size="10.00">CDPL.Grid.FileCDFGZDRegular</text>
<text text-anchor="middle" x="690.5" y="-7.5" font-family="Helvetica" font-size="10.00">GridSetReader</text>
</a>
</g>
</g>
<!-- Node1&#45;&gt;Node12 -->
<g id="edge11" class="edge">
<title>Node1&#45;&gt;Node12</title>
<path fill="none" stroke="midnightblue" d="M516.26,-161.72C532.4,-128.96 565.18,-71.62 610,-39.5 614.8,-36.06 620.11,-33.1 625.63,-30.56"/>
<polygon fill="midnightblue" stroke="midnightblue" points="512.96,-160.52 511.79,-171.05 519.27,-163.54 512.96,-160.52"/>
</g>
<!-- Node2 -->
<g id="node2" class="node">
<title>Node2</title>
<g id="a_node2"><a xlink:href="classCDPL_1_1Base_1_1DataIOBase.html" target="_top" xlink:title="Provides infrastructure for the registration of I/O callback functions.">
<polygon fill="none" stroke="black" points="273,-177 273,-196 398,-196 398,-177 273,-177"/>
<text text-anchor="middle" x="335.5" y="-184" font-family="Helvetica" font-size="10.00">CDPL.Base.DataIOBase</text>
</a>
</g>
</g>
<!-- Node2&#45;&gt;Node1 -->
<g id="edge1" class="edge">
<title>Node2&#45;&gt;Node1</title>
<path fill="none" stroke="midnightblue" d="M408.28,-186.5C416.77,-186.5 425.42,-186.5 433.87,-186.5"/>
<polygon fill="midnightblue" stroke="midnightblue" points="408.03,-183 398.03,-186.5 408.03,-190 408.03,-183"/>
</g>
<!-- Node3 -->
<g id="node3" class="node">
<title>Node3</title>
<g id="a_node3"><a xlink:href="classCDPL_1_1Base_1_1ControlParameterContainer.html" target="_top" xlink:title="A class providing methods for the storage and lookup of control&#45;parameter values.">
<polygon fill="none" stroke="black" points="89,-171.5 89,-201.5 237,-201.5 237,-171.5 89,-171.5"/>
<text text-anchor="start" x="97" y="-189.5" font-family="Helvetica" font-size="10.00">CDPL.Base.ControlParameter</text>
<text text-anchor="middle" x="163" y="-178.5" font-family="Helvetica" font-size="10.00">Container</text>
</a>
</g>
</g>
<!-- Node3&#45;&gt;Node2 -->
<g id="edge2" class="edge">
<title>Node3&#45;&gt;Node2</title>
<path fill="none" stroke="midnightblue" d="M247.33,-186.5C255.9,-186.5 264.5,-186.5 272.77,-186.5"/>
<polygon fill="midnightblue" stroke="midnightblue" points="247.3,-183 237.3,-186.5 247.3,-190 247.3,-183"/>
</g>
<!-- Node4 -->
<g id="node4" class="node">
<title>Node4</title>
<g id="a_node4"><a xlink:title=" ">
<polygon fill="none" stroke="#bfbfbf" points="0,-177 0,-196 53,-196 53,-177 0,-177"/>
<text text-anchor="middle" x="26.5" y="-184" font-family="Helvetica" font-size="10.00">instance</text>
</a>
</g>
</g>
<!-- Node4&#45;&gt;Node3 -->
<g id="edge3" class="edge">
<title>Node4&#45;&gt;Node3</title>
<path fill="none" stroke="midnightblue" d="M63.14,-186.5C71.15,-186.5 79.93,-186.5 88.85,-186.5"/>
<polygon fill="midnightblue" stroke="midnightblue" points="63.12,-183 53.12,-186.5 63.11,-190 63.12,-183"/>
</g>
</g>
</svg>
        <g id="navigator" transform="translate(0 0)" fill="#404254">
                <rect fill="#f2f5e9" fill-opacity="0.5" stroke="#606060" stroke-width=".5" x="0" y="0" width="60" height="60"/>
                <use id="zoomplus" xlink:href="#zoomPlus" x="17" y="9" onmousedown="handleZoom(evt,'in')"/>
                <use id="zoomminus" xlink:href="#zoomMin" x="42" y="9" onmousedown="handleZoom(evt,'out')"/>
                <use id="reset" xlink:href="#resetDef" x="30" y="36" onmousedown="handleReset()"/>
                <g id="arrowUp" xlink:href="#dirArrow" transform="translate(30 24)" onmousedown="handlePan(0,-1)">
                  <use xlink:href="#rim" fill="#404040">
                        <set attributeName="fill" to="#808080" begin="arrowUp.mouseover" end="arrowUp.mouseout"/>
                  </use>
                  <path fill="none" stroke="white" stroke-width="1.5" d="M0,-3.0v7 M-2.5,-0.5L0,-3.0L2.5,-0.5"/>
                </g>
                <g id="arrowRight" xlink:href="#dirArrow" transform="rotate(90) translate(36 -43)" onmousedown="handlePan(1,0)">
                  <use xlink:href="#rim" fill="#404040">
                        <set attributeName="fill" to="#808080" begin="arrowRight.mouseover" end="arrowRight.mouseout"/>
                  </use>
                  <path fill="none" stroke="white" stroke-width="1.5" d="M0,-3.0v7 M-2.5,-0.5L0,-3.0L2.5,-0.5"/>
                </g>
                <g id="arrowDown" xlink:href="#dirArrow" transform="rotate(180) translate(-30 -48)" onmousedown="handlePan(0,1)">
                  <use xlink:href="#rim" fill="#404040">
                        <set attributeName="fill" to="#808080" begin="arrowDown.mouseover" end="arrowDown.mouseout"/>
                  </use>
                  <path fill="none" stroke="white" stroke-width="1.5" d="M0,-3.0v7 M-2.5,-0.5L0,-3.0L2.5,-0.5"/>
                </g>
                <g id="arrowLeft" xlink:href="#dirArrow" transform="rotate(270) translate(-36 17)" onmousedown="handlePan(-1,0)">
                  <use xlink:href="#rim" fill="#404040">
                        <set attributeName="fill" to="#808080" begin="arrowLeft.mouseover" end="arrowLeft.mouseout"/>
                  </use>
                  <path fill="none" stroke="white" stroke-width="1.5" d="M0,-3.0v7 M-2.5,-0.5L0,-3.0L2.5,-0.5"/>
                </g>
        </g>
        <svg viewBox="0 0 15 15" width="100%" height="30px" preserveAspectRatio="xMaxYMin meet">
         <g id="arrow_out" transform="scale(0.3 0.3)">
          <a xlink:href="classCDPL_1_1Grid_1_1DRegularGridSetReaderBase__inherit__graph_org.svg" target="_base">
           <rect id="button" ry="5" rx="5" y="6" x="6" height="38" width="38"
                fill="#f2f5e9" fill-opacity="0.5" stroke="#606060" stroke-width="1.0"/>
           <path id="arrow"
             d="M 11.500037,31.436501 C 11.940474,20.09759 22.043105,11.32322 32.158766,21.979434 L 37.068811,17.246167 C 37.068811,17.246167 37.088388,32 37.088388,32 L 22.160133,31.978069 C 22.160133,31.978069 26.997745,27.140456 26.997745,27.140456 C 18.528582,18.264221 13.291696,25.230495 11.500037,31.436501 z"
             style="fill:#404040;"/>
          </a>
         </g>
        </svg>
</svg>
