<?xml version="1.0" encoding="UTF-8" standalone="no"?>
<!DOCTYPE svg PUBLIC "-//W3C//DTD SVG 1.1//EN"
 "http://www.w3.org/Graphics/SVG/1.1/DTD/svg11.dtd">
<!-- Generated by graphviz version 2.44.0 (0)
 -->
<!-- Title: CDPL.Vis.ColorTable Pages: 1 -->
<svg width="318pt" height="151pt"
 viewBox="0.00 0.00 318.00 151.00" xmlns="http://www.w3.org/2000/svg" xmlns:xlink="http://www.w3.org/1999/xlink">
<g id="graph0" class="graph" transform="scale(1 1) rotate(0) translate(4 147)">
<title>CDPL.Vis.ColorTable</title>
<!-- Node1 -->
<g id="node1" class="node">
<title>Node1</title>
<g id="a_node1"><a xlink:title="A container for the storage and lookup of Vis.Color objects that are associated with a numeric identi...">
<polygon fill="#bfbfbf" stroke="black" points="97.5,-67.5 97.5,-86.5 207.5,-86.5 207.5,-67.5 97.5,-67.5"/>
<text text-anchor="middle" x="152.5" y="-74.5" font-family="Helvetica" font-size="10.00">CDPL.Vis.ColorTable</text>
</a>
</g>
</g>
<!-- Node3 -->
<g id="node3" class="node">
<title>Node3</title>
<g id="a_node3"><a xlink:href="classCDPL_1_1Vis_1_1DefaultAtomColorTable.html" target="_top" xlink:title="Provides default colors for the element dependent coloring of atom labels in 2D depictions of chemica...">
<polygon fill="none" stroke="black" points="0,-0.5 0,-30.5 141,-30.5 141,-0.5 0,-0.5"/>
<text text-anchor="start" x="8" y="-18.5" font-family="Helvetica" font-size="10.00">CDPL.Vis.DefaultAtomColor</text>
<text text-anchor="middle" x="70.5" y="-7.5" font-family="Helvetica" font-size="10.00">Table</text>
</a>
</g>
</g>
<!-- Node1&#45;&gt;Node3 -->
<g id="edge2" class="edge">
<title>Node1&#45;&gt;Node3</title>
<path fill="none" stroke="midnightblue" d="M132.47,-61.47C119.49,-52.05 102.67,-39.84 89.83,-30.52"/>
<polygon fill="midnightblue" stroke="midnightblue" points="130.6,-64.43 140.75,-67.48 134.71,-58.77 130.6,-64.43"/>
</g>
<!-- Node4 -->
<g id="node4" class="node">
<title>Node4</title>
<g id="a_node4"><a xlink:href="classCDPL_1_1Vis_1_1DefaultFeatureColorTable.html" target="_top" xlink:title="Provides default colors for the type dependent coloring of chemical features in 3D visualizations of ...">
<polygon fill="none" stroke="black" points="159,-0.5 159,-30.5 310,-30.5 310,-0.5 159,-0.5"/>
<text text-anchor="start" x="167" y="-18.5" font-family="Helvetica" font-size="10.00">CDPL.Vis.DefaultFeatureColor</text>
<text text-anchor="middle" x="234.5" y="-7.5" font-family="Helvetica" font-size="10.00">Table</text>
</a>
</g>
</g>
<!-- Node1&#45;&gt;Node4 -->
<g id="edge3" class="edge">
<title>Node1&#45;&gt;Node4</title>
<path fill="none" stroke="midnightblue" d="M172.53,-61.47C185.51,-52.05 202.33,-39.84 215.17,-30.52"/>
<polygon fill="midnightblue" stroke="midnightblue" points="170.29,-58.77 164.25,-67.48 174.4,-64.43 170.29,-58.77"/>
</g>
<!-- Node2 -->
<g id="node2" class="node">
<title>Node2</title>
<g id="a_node2"><a xlink:title=" ">
<polygon fill="none" stroke="#bfbfbf" points="95,-123.5 95,-142.5 210,-142.5 210,-123.5 95,-123.5"/>
<text text-anchor="middle" x="152.5" y="-130.5" font-family="Helvetica" font-size="10.00">Boost.Python.instance</text>
</a>
</g>
</g>
<!-- Node2&#45;&gt;Node1 -->
<g id="edge1" class="edge">
<title>Node2&#45;&gt;Node1</title>
<path fill="none" stroke="midnightblue" d="M152.5,-112.8C152.5,-103.91 152.5,-93.78 152.5,-86.75"/>
<polygon fill="midnightblue" stroke="midnightblue" points="149,-113.08 152.5,-123.08 156,-113.08 149,-113.08"/>
</g>
</g>
</svg>
