<?xml version="1.0" encoding="UTF-8" standalone="no"?>
<!DOCTYPE svg PUBLIC "-//W3C//DTD SVG 1.1//EN"
 "http://www.w3.org/Graphics/SVG/1.1/DTD/svg11.dtd">
<!-- Generated by graphviz version 2.44.0 (0)
 -->
<!-- Title: CDPL.Grid.DRegularGridWriterBase Pages: 1 -->
<svg width="812pt" height="323pt"
 viewBox="0.00 0.00 812.00 323.00" xmlns="http://www.w3.org/2000/svg" xmlns:xlink="http://www.w3.org/1999/xlink">
<g id="graph0" class="graph" transform="scale(1 1) rotate(0) translate(4 319)">
<title>CDPL.Grid.DRegularGridWriterBase</title>
<!-- Node1 -->
<g id="node1" class="node">
<title>Node1</title>
<g id="a_node1"><a xlink:title="An interface for writing data objects of type Grid.DRegularGrid to an arbitrary data sink.">
<polygon fill="#bfbfbf" stroke="black" points="434,-148 434,-167 607,-167 607,-148 434,-148"/>
<text text-anchor="middle" x="520.5" y="-155" font-family="Helvetica" font-size="10.00">CDPL.Grid.DRegularGridWriterBase</text>
</a>
</g>
</g>
<!-- Node5 -->
<g id="node5" class="node">
<title>Node5</title>
<g id="a_node5"><a xlink:href="classCDPL_1_1Grid_1_1CDFBZ2DRegularGridWriter.html" target="_top" xlink:title=" ">
<polygon fill="none" stroke="black" points="650.5,-284.5 650.5,-314.5 796.5,-314.5 796.5,-284.5 650.5,-284.5"/>
<text text-anchor="start" x="658.5" y="-302.5" font-family="Helvetica" font-size="10.00">CDPL.Grid.CDFBZ2DRegular</text>
<text text-anchor="middle" x="723.5" y="-291.5" font-family="Helvetica" font-size="10.00">GridWriter</text>
</a>
</g>
</g>
<!-- Node1&#45;&gt;Node5 -->
<g id="edge4" class="edge">
<title>Node1&#45;&gt;Node5</title>
<path fill="none" stroke="midnightblue" d="M534.97,-175.13C555.53,-200.86 597.21,-248.55 643,-275.5 648.72,-278.86 654.94,-281.79 661.32,-284.34"/>
<polygon fill="midnightblue" stroke="midnightblue" points="537.53,-172.72 528.6,-167.01 532.02,-177.04 537.53,-172.72"/>
</g>
<!-- Node6 -->
<g id="node6" class="node">
<title>Node6</title>
<g id="a_node6"><a xlink:href="classCDPL_1_1Grid_1_1CDFDRegularGridWriter.html" target="_top" xlink:title="A writer for spatial regular grid data in the native I/O format of the CDPL.">
<polygon fill="none" stroke="black" points="650.5,-235.5 650.5,-265.5 796.5,-265.5 796.5,-235.5 650.5,-235.5"/>
<text text-anchor="start" x="658.5" y="-253.5" font-family="Helvetica" font-size="10.00">CDPL.Grid.CDFDRegularGrid</text>
<text text-anchor="middle" x="723.5" y="-242.5" font-family="Helvetica" font-size="10.00">Writer</text>
</a>
</g>
</g>
<!-- Node1&#45;&gt;Node6 -->
<g id="edge5" class="edge">
<title>Node1&#45;&gt;Node6</title>
<path fill="none" stroke="midnightblue" d="M544.59,-172.69C568.46,-187.89 607.17,-211.15 643,-226.5 650.55,-229.74 658.68,-232.72 666.76,-235.41"/>
<polygon fill="midnightblue" stroke="midnightblue" points="546.22,-169.58 535.91,-167.1 542.43,-175.46 546.22,-169.58"/>
</g>
<!-- Node7 -->
<g id="node7" class="node">
<title>Node7</title>
<g id="a_node7"><a xlink:href="classCDPL_1_1Grid_1_1CDFGZDRegularGridWriter.html" target="_top" xlink:title=" ">
<polygon fill="none" stroke="black" points="644,-186.5 644,-216.5 803,-216.5 803,-186.5 644,-186.5"/>
<text text-anchor="start" x="652" y="-204.5" font-family="Helvetica" font-size="10.00">CDPL.Grid.CDFGZDRegularGrid</text>
<text text-anchor="middle" x="723.5" y="-193.5" font-family="Helvetica" font-size="10.00">Writer</text>
</a>
</g>
</g>
<!-- Node1&#45;&gt;Node7 -->
<g id="edge6" class="edge">
<title>Node1&#45;&gt;Node7</title>
<path fill="none" stroke="midnightblue" d="M575.14,-169.24C599.25,-174.52 628,-180.81 653.68,-186.43"/>
<polygon fill="midnightblue" stroke="midnightblue" points="575.63,-165.77 565.11,-167.05 574.13,-172.6 575.63,-165.77"/>
</g>
<!-- Node8 -->
<g id="node8" class="node">
<title>Node8</title>
<g id="a_node8"><a xlink:href="classCDPL_1_1Grid_1_1DRegularGridWriter.html" target="_top" xlink:title="Writer for grid data of type Grid.DRegularGrid in any supported format.">
<polygon fill="none" stroke="black" points="648,-148 648,-167 799,-167 799,-148 648,-148"/>
<text text-anchor="middle" x="723.5" y="-155" font-family="Helvetica" font-size="10.00">CDPL.Grid.DRegularGridWriter</text>
</a>
</g>
</g>
<!-- Node1&#45;&gt;Node8 -->
<g id="edge7" class="edge">
<title>Node1&#45;&gt;Node8</title>
<path fill="none" stroke="midnightblue" d="M617.26,-157.5C627.53,-157.5 637.87,-157.5 647.84,-157.5"/>
<polygon fill="midnightblue" stroke="midnightblue" points="617.03,-154 607.03,-157.5 617.03,-161 617.03,-154"/>
</g>
<!-- Node9 -->
<g id="node9" class="node">
<title>Node9</title>
<g id="a_node9"><a xlink:href="classCDPL_1_1Grid_1_1FileCDFBZ2DRegularGridWriter.html" target="_top" xlink:title=" ">
<polygon fill="none" stroke="black" points="643,-98.5 643,-128.5 804,-128.5 804,-98.5 643,-98.5"/>
<text text-anchor="start" x="651" y="-116.5" font-family="Helvetica" font-size="10.00">CDPL.Grid.FileCDFBZ2DRegular</text>
<text text-anchor="middle" x="723.5" y="-105.5" font-family="Helvetica" font-size="10.00">GridWriter</text>
</a>
</g>
</g>
<!-- Node1&#45;&gt;Node9 -->
<g id="edge8" class="edge">
<title>Node1&#45;&gt;Node9</title>
<path fill="none" stroke="midnightblue" d="M575.14,-145.76C599.25,-140.48 628,-134.19 653.68,-128.57"/>
<polygon fill="midnightblue" stroke="midnightblue" points="574.13,-142.4 565.11,-147.95 575.63,-149.23 574.13,-142.4"/>
</g>
<!-- Node10 -->
<g id="node10" class="node">
<title>Node10</title>
<g id="a_node10"><a xlink:href="classCDPL_1_1Grid_1_1FileCDFDRegularGridWriter.html" target="_top" xlink:title=" ">
<polygon fill="none" stroke="black" points="652,-49.5 652,-79.5 795,-79.5 795,-49.5 652,-49.5"/>
<text text-anchor="start" x="660" y="-67.5" font-family="Helvetica" font-size="10.00">CDPL.Grid.FileCDFDRegular</text>
<text text-anchor="middle" x="723.5" y="-56.5" font-family="Helvetica" font-size="10.00">GridWriter</text>
</a>
</g>
</g>
<!-- Node1&#45;&gt;Node10 -->
<g id="edge9" class="edge">
<title>Node1&#45;&gt;Node10</title>
<path fill="none" stroke="midnightblue" d="M544.59,-142.31C568.46,-127.11 607.17,-103.85 643,-88.5 650.55,-85.26 658.68,-82.28 666.76,-79.59"/>
<polygon fill="midnightblue" stroke="midnightblue" points="542.43,-139.54 535.91,-147.9 546.22,-145.42 542.43,-139.54"/>
</g>
<!-- Node11 -->
<g id="node11" class="node">
<title>Node11</title>
<g id="a_node11"><a xlink:href="classCDPL_1_1Grid_1_1FileCDFGZDRegularGridWriter.html" target="_top" xlink:title=" ">
<polygon fill="none" stroke="black" points="645,-0.5 645,-30.5 802,-30.5 802,-0.5 645,-0.5"/>
<text text-anchor="start" x="653" y="-18.5" font-family="Helvetica" font-size="10.00">CDPL.Grid.FileCDFGZDRegular</text>
<text text-anchor="middle" x="723.5" y="-7.5" font-family="Helvetica" font-size="10.00">GridWriter</text>
</a>
</g>
</g>
<!-- Node1&#45;&gt;Node11 -->
<g id="edge10" class="edge">
<title>Node1&#45;&gt;Node11</title>
<path fill="none" stroke="midnightblue" d="M534.97,-139.87C555.53,-114.14 597.21,-66.45 643,-39.5 648.72,-36.14 654.94,-33.21 661.32,-30.66"/>
<polygon fill="midnightblue" stroke="midnightblue" points="532.02,-137.96 528.6,-147.99 537.53,-142.28 532.02,-137.96"/>
</g>
<!-- Node2 -->
<g id="node2" class="node">
<title>Node2</title>
<g id="a_node2"><a xlink:href="classCDPL_1_1Base_1_1DataIOBase.html" target="_top" xlink:title="Provides infrastructure for the registration of I/O callback functions.">
<polygon fill="none" stroke="black" points="273,-148 273,-167 398,-167 398,-148 273,-148"/>
<text text-anchor="middle" x="335.5" y="-155" font-family="Helvetica" font-size="10.00">CDPL.Base.DataIOBase</text>
</a>
</g>
</g>
<!-- Node2&#45;&gt;Node1 -->
<g id="edge1" class="edge">
<title>Node2&#45;&gt;Node1</title>
<path fill="none" stroke="midnightblue" d="M408.25,-157.5C416.6,-157.5 425.19,-157.5 433.7,-157.5"/>
<polygon fill="midnightblue" stroke="midnightblue" points="408.2,-154 398.2,-157.5 408.2,-161 408.2,-154"/>
</g>
<!-- Node3 -->
<g id="node3" class="node">
<title>Node3</title>
<g id="a_node3"><a xlink:href="classCDPL_1_1Base_1_1ControlParameterContainer.html" target="_top" xlink:title="A class providing methods for the storage and lookup of control&#45;parameter values.">
<polygon fill="none" stroke="black" points="89,-142.5 89,-172.5 237,-172.5 237,-142.5 89,-142.5"/>
<text text-anchor="start" x="97" y="-160.5" font-family="Helvetica" font-size="10.00">CDPL.Base.ControlParameter</text>
<text text-anchor="middle" x="163" y="-149.5" font-family="Helvetica" font-size="10.00">Container</text>
</a>
</g>
</g>
<!-- Node3&#45;&gt;Node2 -->
<g id="edge2" class="edge">
<title>Node3&#45;&gt;Node2</title>
<path fill="none" stroke="midnightblue" d="M247.33,-157.5C255.9,-157.5 264.5,-157.5 272.77,-157.5"/>
<polygon fill="midnightblue" stroke="midnightblue" points="247.3,-154 237.3,-157.5 247.3,-161 247.3,-154"/>
</g>
<!-- Node4 -->
<g id="node4" class="node">
<title>Node4</title>
<g id="a_node4"><a xlink:title=" ">
<polygon fill="none" stroke="#bfbfbf" points="0,-148 0,-167 53,-167 53,-148 0,-148"/>
<text text-anchor="middle" x="26.5" y="-155" font-family="Helvetica" font-size="10.00">instance</text>
</a>
</g>
</g>
<!-- Node4&#45;&gt;Node3 -->
<g id="edge3" class="edge">
<title>Node4&#45;&gt;Node3</title>
<path fill="none" stroke="midnightblue" d="M63.14,-157.5C71.15,-157.5 79.93,-157.5 88.85,-157.5"/>
<polygon fill="midnightblue" stroke="midnightblue" points="63.12,-154 53.12,-157.5 63.11,-161 63.12,-154"/>
</g>
</g>
</svg>
