<?xml version="1.0" encoding="UTF-8" standalone="no"?>
<!DOCTYPE svg PUBLIC "-//W3C//DTD SVG 1.1//EN"
 "http://www.w3.org/Graphics/SVG/1.1/DTD/svg11.dtd">
<!-- Generated by graphviz version 2.40.1 (0)
 -->
<!-- Title: CDPL.Grid.FRegularGrid Pages: 1 -->
<svg width="332pt" height="252pt"
 viewBox="0.00 0.00 331.50 252.00" xmlns="http://www.w3.org/2000/svg" xmlns:xlink="http://www.w3.org/1999/xlink">
<g id="graph0" class="graph" transform="scale(1 1) rotate(0) translate(4 248)">
<title>CDPL.Grid.FRegularGrid</title>
<!-- Node1 -->
<g id="node1" class="node">
<title>Node1</title>
<g id="a_node1"><a xlink:title="RegularGrid.">
<polygon fill="#bfbfbf" stroke="#000000" points="88,-.5 88,-19.5 219,-19.5 219,-.5 88,-.5"/>
<text text-anchor="middle" x="153.5" y="-7.5" font-family="Helvetica,sans-Serif" font-size="10.00" fill="#000000">CDPL.Grid.FRegularGrid</text>
</a>
</g>
</g>
<!-- Node2 -->
<g id="node2" class="node">
<title>Node2</title>
<g id="a_node2"><a xlink:href="classCDPL_1_1Grid_1_1FSpatialGrid.html" target="_top" xlink:title="SpatialGrid.">
<polygon fill="none" stroke="#000000" points="43.5,-56.5 43.5,-75.5 171.5,-75.5 171.5,-56.5 43.5,-56.5"/>
<text text-anchor="middle" x="107.5" y="-63.5" font-family="Helvetica,sans-Serif" font-size="10.00" fill="#000000">CDPL.Grid.FSpatialGrid</text>
</a>
</g>
</g>
<!-- Node2&#45;&gt;Node1 -->
<g id="edge1" class="edge">
<title>Node2&#45;&gt;Node1</title>
<path fill="none" stroke="#191970" d="M121.8747,-48.5004C129.6971,-38.9775 139.076,-27.5596 145.5792,-19.6427"/>
<polygon fill="#191970" stroke="#191970" points="119.1555,-46.2967 115.5126,-56.2455 124.5646,-50.7399 119.1555,-46.2967"/>
</g>
<!-- Node3 -->
<g id="node3" class="node">
<title>Node3</title>
<g id="a_node3"><a xlink:href="classCDPL_1_1Grid_1_1AttributedGrid.html" target="_top" xlink:title="AttributedGrid.">
<polygon fill="none" stroke="#000000" points="0,-112.5 0,-131.5 137,-131.5 137,-112.5 0,-112.5"/>
<text text-anchor="middle" x="68.5" y="-119.5" font-family="Helvetica,sans-Serif" font-size="10.00" fill="#000000">CDPL.Grid.AttributedGrid</text>
</a>
</g>
</g>
<!-- Node3&#45;&gt;Node2 -->
<g id="edge2" class="edge">
<title>Node3&#45;&gt;Node2</title>
<path fill="none" stroke="#191970" d="M81.0908,-103.9209C87.6395,-94.5176 95.3824,-83.3997 100.7846,-75.6427"/>
<polygon fill="#191970" stroke="#191970" points="78.1361,-102.0392 75.2933,-112.2455 83.8804,-106.0397 78.1361,-102.0392"/>
</g>
<!-- Node4 -->
<g id="node4" class="node">
<title>Node4</title>
<g id="a_node4"><a xlink:href="classCDPL_1_1Base_1_1PropertyContainer.html" target="_top" xlink:title="A class providing methods for the storage and lookup of object properties.">
<polygon fill="none" stroke="#000000" points="19,-168.5 19,-187.5 180,-187.5 180,-168.5 19,-168.5"/>
<text text-anchor="middle" x="99.5" y="-175.5" font-family="Helvetica,sans-Serif" font-size="10.00" fill="#000000">CDPL.Base.PropertyContainer</text>
</a>
</g>
</g>
<!-- Node4&#45;&gt;Node3 -->
<g id="edge3" class="edge">
<title>Node4&#45;&gt;Node3</title>
<path fill="none" stroke="#191970" d="M89.1688,-159.3372C84.0335,-150.0605 78.0434,-139.2398 73.8379,-131.6427"/>
<polygon fill="#191970" stroke="#191970" points="86.1949,-161.1917 94.1002,-168.2455 92.3191,-157.8015 86.1949,-161.1917"/>
</g>
<!-- Node5 -->
<g id="node5" class="node">
<title>Node5</title>
<g id="a_node5"><a xlink:title=" ">
<polygon fill="none" stroke="#bfbfbf" points="124.5,-224.5 124.5,-243.5 182.5,-243.5 182.5,-224.5 124.5,-224.5"/>
<text text-anchor="middle" x="153.5" y="-231.5" font-family="Helvetica,sans-Serif" font-size="10.00" fill="#000000">instance</text>
</a>
</g>
</g>
<!-- Node5&#45;&gt;Node4 -->
<g id="edge4" class="edge">
<title>Node5&#45;&gt;Node4</title>
<path fill="none" stroke="#191970" d="M136.9031,-216.7884C127.6653,-207.2085 116.5096,-195.6396 108.7983,-187.6427"/>
<polygon fill="#191970" stroke="#191970" points="134.6331,-219.4766 144.0939,-224.2455 139.672,-214.6176 134.6331,-219.4766"/>
</g>
<!-- Node6 -->
<g id="node6" class="node">
<title>Node6</title>
<g id="a_node6"><a xlink:href="classCDPL_1_1Math_1_1FRegularSpatialGrid.html" target="_top" xlink:title="An unbounded dense regular grid in 3D space holding floating point values of type float.">
<polygon fill="none" stroke="#000000" points="155.5,-112.5 155.5,-131.5 323.5,-131.5 323.5,-112.5 155.5,-112.5"/>
<text text-anchor="middle" x="239.5" y="-119.5" font-family="Helvetica,sans-Serif" font-size="10.00" fill="#000000">CDPL.Math.FRegularSpatialGrid</text>
</a>
</g>
</g>
<!-- Node5&#45;&gt;Node6 -->
<g id="edge6" class="edge">
<title>Node5&#45;&gt;Node6</title>
<path fill="none" stroke="#191970" d="M167.1593,-216.2111C185.5973,-192.1989 217.7943,-150.2679 232.1862,-131.5249"/>
<polygon fill="#191970" stroke="#191970" points="164.1466,-214.3878 160.8323,-224.4509 169.6986,-218.651 164.1466,-214.3878"/>
</g>
<!-- Node6&#45;&gt;Node1 -->
<g id="edge5" class="edge">
<title>Node6&#45;&gt;Node1</title>
<path fill="none" stroke="#191970" d="M225.8407,-104.2111C207.4027,-80.1989 175.2057,-38.2679 160.8138,-19.5249"/>
<polygon fill="#191970" stroke="#191970" points="223.3014,-106.651 232.1677,-112.4509 228.8534,-102.3878 223.3014,-106.651"/>
</g>
</g>
</svg>
