<?xml version="1.0" encoding="UTF-8" standalone="no"?>
<!DOCTYPE svg PUBLIC "-//W3C//DTD SVG 1.1//EN"
 "http://www.w3.org/Graphics/SVG/1.1/DTD/svg11.dtd">
<!-- Generated by graphviz version 2.44.0 (0)
 -->
<!-- Title: CDPL.Grid.DRegularGridReaderBase Pages: 1 -->
<!--zoomable 372 -->
<svg id="main" version="1.1" xmlns="http://www.w3.org/2000/svg" xmlns:xlink="http://www.w3.org/1999/xlink" xml:space="preserve" onload="init(evt)">
<style type="text/css"><![CDATA[
.edge:hover path { stroke: red; }
.edge:hover polygon { stroke: red; fill: red; }
]]></style>
<script type="text/javascript"><![CDATA[
var edges = document.getElementsByTagName('g');
if (edges && edges.length) {
  for (var i=0;i<edges.length;i++) {
    if (edges[i].id.substr(0,4)=='edge') {
      edges[i].setAttribute('class','edge');
    }
  }
}
]]></script>
        <defs>
                <circle id="rim" cx="0" cy="0" r="7"/>
                <circle id="rim2" cx="0" cy="0" r="3.5"/>
                <g id="zoomPlus">
                        <use xlink:href="#rim" fill="#404040">
                                <set attributeName="fill" to="#808080" begin="zoomplus.mouseover" end="zoomplus.mouseout"/>
                        </use>
                        <path d="M-4,0h8M0,-4v8" fill="none" stroke="white" stroke-width="1.5" pointer-events="none"/>
                </g>
                <g id="zoomMin">
                        <use xlink:href="#rim" fill="#404040">
                                <set attributeName="fill" to="#808080" begin="zoomminus.mouseover" end="zoomminus.mouseout"/>
                        </use>
                        <path d="M-4,0h8" fill="none" stroke="white" stroke-width="1.5" pointer-events="none"/>
                </g>
                <g id="dirArrow">
                        <path fill="none" stroke="white" stroke-width="1.5" d="M0,-3.0v7 M-2.5,-0.5L0,-3.0L2.5,-0.5"/>
                </g>
               <g id="resetDef">
                       <use xlink:href="#rim2" fill="#404040">
                               <set attributeName="fill" to="#808080" begin="reset.mouseover" end="reset.mouseout"/>
                       </use>
               </g>
        </defs>

<script type="text/javascript">
var viewWidth = 880;
var viewHeight = 372;
var sectionId = 'dynsection-0';
</script>
<script xlink:href="svgpan.js"/>
<svg id="graph" class="graph">
<g id="viewport">
<title>CDPL.Grid.DRegularGridReaderBase</title>
<!-- Node1 -->
<g id="node1" class="node">
<title>Node1</title>
<g id="a_node1"><a xlink:title="An interface for reading data objects of type Grid.DRegularGrid from an arbitrary data source.">
<polygon fill="#bfbfbf" stroke="black" points="496,-170 496,-189 675,-189 675,-170 496,-170"/>
<text text-anchor="middle" x="585.5" y="-177" font-family="Helvetica" font-size="10.00">CDPL.Grid.DRegularGridReaderBase</text>
</a>
</g>
</g>
<!-- Node5 -->
<g id="node5" class="node">
<title>Node5</title>
<g id="a_node5"><a xlink:href="classCDPL_1_1Grid_1_1CDFBZ2DRegularGridReader.html" target="_top" xlink:title=" ">
<polygon fill="none" stroke="black" points="718.5,-333.5 718.5,-363.5 864.5,-363.5 864.5,-333.5 718.5,-333.5"/>
<text text-anchor="start" x="726.5" y="-351.5" font-family="Helvetica" font-size="10.00">CDPL.Grid.CDFBZ2DRegular</text>
<text text-anchor="middle" x="791.5" y="-340.5" font-family="Helvetica" font-size="10.00">GridReader</text>
</a>
</g>
</g>
<!-- Node1&#45;&gt;Node5 -->
<g id="edge4" class="edge">
<title>Node1&#45;&gt;Node5</title>
<path fill="none" stroke="midnightblue" d="M597.49,-198.15C616.64,-229.02 659.07,-290.68 711,-324.5 716.19,-327.88 721.89,-330.81 727.76,-333.33"/>
<polygon fill="midnightblue" stroke="midnightblue" points="600.29,-196.02 592.11,-189.28 594.31,-199.65 600.29,-196.02"/>
</g>
<!-- Node6 -->
<g id="node6" class="node">
<title>Node6</title>
<g id="a_node6"><a xlink:href="classCDPL_1_1Grid_1_1CDFDRegularGridReader.html" target="_top" xlink:title="A reader for spatial regular grid data in the native I/O format of the CDPL.">
<polygon fill="none" stroke="black" points="718.5,-284.5 718.5,-314.5 864.5,-314.5 864.5,-284.5 718.5,-284.5"/>
<text text-anchor="start" x="726.5" y="-302.5" font-family="Helvetica" font-size="10.00">CDPL.Grid.CDFDRegularGrid</text>
<text text-anchor="middle" x="791.5" y="-291.5" font-family="Helvetica" font-size="10.00">Reader</text>
</a>
</g>
</g>
<!-- Node1&#45;&gt;Node6 -->
<g id="edge5" class="edge">
<title>Node1&#45;&gt;Node6</title>
<path fill="none" stroke="midnightblue" d="M603.77,-196.17C626.59,-217.37 668.85,-253.82 711,-275.5 717.54,-278.86 724.63,-281.84 731.79,-284.45"/>
<polygon fill="midnightblue" stroke="midnightblue" points="605.95,-193.42 596.28,-189.11 601.15,-198.52 605.95,-193.42"/>
</g>
<!-- Node7 -->
<g id="node7" class="node">
<title>Node7</title>
<g id="a_node7"><a xlink:href="classCDPL_1_1Grid_1_1CDFGZDRegularGridReader.html" target="_top" xlink:title=" ">
<polygon fill="none" stroke="black" points="712,-235.5 712,-265.5 871,-265.5 871,-235.5 712,-235.5"/>
<text text-anchor="start" x="720" y="-253.5" font-family="Helvetica" font-size="10.00">CDPL.Grid.CDFGZDRegularGrid</text>
<text text-anchor="middle" x="791.5" y="-242.5" font-family="Helvetica" font-size="10.00">Reader</text>
</a>
</g>
</g>
<!-- Node1&#45;&gt;Node7 -->
<g id="edge6" class="edge">
<title>Node1&#45;&gt;Node7</title>
<path fill="none" stroke="midnightblue" d="M620.03,-192.86C644.96,-202.63 679.9,-215.95 711,-226.5 719.87,-229.51 729.37,-232.54 738.59,-235.38"/>
<polygon fill="midnightblue" stroke="midnightblue" points="621.24,-189.58 610.66,-189.18 618.68,-196.09 621.24,-189.58"/>
</g>
<!-- Node8 -->
<g id="node8" class="node">
<title>Node8</title>
<g id="a_node8"><a xlink:href="classCDPL_1_1Grid_1_1CompoundDRegularGridReader.html" target="_top" xlink:title="CompoundDataReader.">
<polygon fill="none" stroke="black" points="714,-186.5 714,-216.5 869,-216.5 869,-186.5 714,-186.5"/>
<text text-anchor="start" x="722" y="-204.5" font-family="Helvetica" font-size="10.00">CDPL.Grid.CompoundDRegular</text>
<text text-anchor="middle" x="791.5" y="-193.5" font-family="Helvetica" font-size="10.00">GridReader</text>
</a>
</g>
</g>
<!-- Node1&#45;&gt;Node8 -->
<g id="edge7" class="edge">
<title>Node1&#45;&gt;Node8</title>
<path fill="none" stroke="midnightblue" d="M684.91,-190.11C694.66,-191.16 704.45,-192.22 713.92,-193.24"/>
<polygon fill="midnightblue" stroke="midnightblue" points="685.11,-186.61 674.79,-189.02 684.36,-193.57 685.11,-186.61"/>
</g>
<!-- Node9 -->
<g id="node9" class="node">
<title>Node9</title>
<g id="a_node9"><a xlink:href="classCDPL_1_1Grid_1_1DRegularGridReader.html" target="_top" xlink:title="Reader for grid data of type Grid.DRegularGrid in any supported format.">
<polygon fill="none" stroke="black" points="713.5,-148 713.5,-167 869.5,-167 869.5,-148 713.5,-148"/>
<text text-anchor="middle" x="791.5" y="-155" font-family="Helvetica" font-size="10.00">CDPL.Grid.DRegularGridReader</text>
</a>
</g>
</g>
<!-- Node1&#45;&gt;Node9 -->
<g id="edge8" class="edge">
<title>Node1&#45;&gt;Node9</title>
<path fill="none" stroke="midnightblue" d="M684.75,-168.9C694.33,-167.87 703.95,-166.83 713.29,-165.83"/>
<polygon fill="midnightblue" stroke="midnightblue" points="684.36,-165.43 674.79,-169.98 685.11,-172.39 684.36,-165.43"/>
</g>
<!-- Node10 -->
<g id="node10" class="node">
<title>Node10</title>
<g id="a_node10"><a xlink:href="classCDPL_1_1Grid_1_1FileCDFBZ2DRegularGridReader.html" target="_top" xlink:title=" ">
<polygon fill="none" stroke="black" points="711,-98.5 711,-128.5 872,-128.5 872,-98.5 711,-98.5"/>
<text text-anchor="start" x="719" y="-116.5" font-family="Helvetica" font-size="10.00">CDPL.Grid.FileCDFBZ2DRegular</text>
<text text-anchor="middle" x="791.5" y="-105.5" font-family="Helvetica" font-size="10.00">GridReader</text>
</a>
</g>
</g>
<!-- Node1&#45;&gt;Node10 -->
<g id="edge9" class="edge">
<title>Node1&#45;&gt;Node10</title>
<path fill="none" stroke="midnightblue" d="M624.82,-166.73C649.42,-158.57 682.06,-147.81 711,-138.5 721.05,-135.26 731.84,-131.84 742.12,-128.6"/>
<polygon fill="midnightblue" stroke="midnightblue" points="623.53,-163.47 615.15,-169.95 625.74,-170.12 623.53,-163.47"/>
</g>
<!-- Node11 -->
<g id="node11" class="node">
<title>Node11</title>
<g id="a_node11"><a xlink:href="classCDPL_1_1Grid_1_1FileCDFDRegularGridReader.html" target="_top" xlink:title=" ">
<polygon fill="none" stroke="black" points="720,-49.5 720,-79.5 863,-79.5 863,-49.5 720,-49.5"/>
<text text-anchor="start" x="728" y="-67.5" font-family="Helvetica" font-size="10.00">CDPL.Grid.FileCDFDRegular</text>
<text text-anchor="middle" x="791.5" y="-56.5" font-family="Helvetica" font-size="10.00">GridReader</text>
</a>
</g>
</g>
<!-- Node1&#45;&gt;Node11 -->
<g id="edge10" class="edge">
<title>Node1&#45;&gt;Node11</title>
<path fill="none" stroke="midnightblue" d="M604.65,-163.13C627.8,-143.01 669.81,-109.02 711,-88.5 717.71,-85.16 724.97,-82.18 732.29,-79.56"/>
<polygon fill="midnightblue" stroke="midnightblue" points="602.19,-160.63 597.01,-169.87 606.82,-165.88 602.19,-160.63"/>
</g>
<!-- Node12 -->
<g id="node12" class="node">
<title>Node12</title>
<g id="a_node12"><a xlink:href="classCDPL_1_1Grid_1_1FileCDFGZDRegularGridReader.html" target="_top" xlink:title=" ">
<polygon fill="none" stroke="black" points="713,-0.5 713,-30.5 870,-30.5 870,-0.5 713,-0.5"/>
<text text-anchor="start" x="721" y="-18.5" font-family="Helvetica" font-size="10.00">CDPL.Grid.FileCDFGZDRegular</text>
<text text-anchor="middle" x="791.5" y="-7.5" font-family="Helvetica" font-size="10.00">GridReader</text>
</a>
</g>
</g>
<!-- Node1&#45;&gt;Node12 -->
<g id="edge11" class="edge">
<title>Node1&#45;&gt;Node12</title>
<path fill="none" stroke="midnightblue" d="M597.94,-161.07C617.45,-131.14 660.05,-72.05 711,-39.5 716.35,-36.08 722.2,-33.13 728.24,-30.59"/>
<polygon fill="midnightblue" stroke="midnightblue" points="594.86,-159.38 592.43,-169.69 600.76,-163.15 594.86,-159.38"/>
</g>
<!-- Node2 -->
<g id="node2" class="node">
<title>Node2</title>
<g id="a_node2"><a xlink:href="classCDPL_1_1Base_1_1DataIOBase.html" target="_top" xlink:title="Provides infrastructure for the registration of I/O callback functions.">
<polygon fill="none" stroke="black" points="335,-170 335,-189 460,-189 460,-170 335,-170"/>
<text text-anchor="middle" x="397.5" y="-177" font-family="Helvetica" font-size="10.00">CDPL.Base.DataIOBase</text>
</a>
</g>
</g>
<!-- Node2&#45;&gt;Node1 -->
<g id="edge1" class="edge">
<title>Node2&#45;&gt;Node1</title>
<path fill="none" stroke="midnightblue" d="M470.24,-179.5C478.6,-179.5 487.21,-179.5 495.77,-179.5"/>
<polygon fill="midnightblue" stroke="midnightblue" points="470.18,-176 460.18,-179.5 470.18,-183 470.18,-176"/>
</g>
<!-- Node3 -->
<g id="node3" class="node">
<title>Node3</title>
<g id="a_node3"><a xlink:href="classCDPL_1_1Base_1_1ControlParameterContainer.html" target="_top" xlink:title="A class providing methods for the storage and lookup of control&#45;parameter values.">
<polygon fill="none" stroke="black" points="151,-164.5 151,-194.5 299,-194.5 299,-164.5 151,-164.5"/>
<text text-anchor="start" x="159" y="-182.5" font-family="Helvetica" font-size="10.00">CDPL.Base.ControlParameter</text>
<text text-anchor="middle" x="225" y="-171.5" font-family="Helvetica" font-size="10.00">Container</text>
</a>
</g>
</g>
<!-- Node3&#45;&gt;Node2 -->
<g id="edge2" class="edge">
<title>Node3&#45;&gt;Node2</title>
<path fill="none" stroke="midnightblue" d="M309.33,-179.5C317.9,-179.5 326.5,-179.5 334.77,-179.5"/>
<polygon fill="midnightblue" stroke="midnightblue" points="309.3,-176 299.3,-179.5 309.3,-183 309.3,-176"/>
</g>
<!-- Node4 -->
<g id="node4" class="node">
<title>Node4</title>
<g id="a_node4"><a xlink:title=" ">
<polygon fill="none" stroke="#bfbfbf" points="0,-170 0,-189 115,-189 115,-170 0,-170"/>
<text text-anchor="middle" x="57.5" y="-177" font-family="Helvetica" font-size="10.00">Boost.Python.instance</text>
</a>
</g>
</g>
<!-- Node4&#45;&gt;Node3 -->
<g id="edge3" class="edge">
<title>Node4&#45;&gt;Node3</title>
<path fill="none" stroke="midnightblue" d="M125.51,-179.5C133.86,-179.5 142.43,-179.5 150.86,-179.5"/>
<polygon fill="midnightblue" stroke="midnightblue" points="125.46,-176 115.46,-179.5 125.46,-183 125.46,-176"/>
</g>
</g>
</svg>
        <g id="navigator" transform="translate(0 0)" fill="#404254">
                <rect fill="#f2f5e9" fill-opacity="0.5" stroke="#606060" stroke-width=".5" x="0" y="0" width="60" height="60"/>
                <use id="zoomplus" xlink:href="#zoomPlus" x="17" y="9" onmousedown="handleZoom(evt,'in')"/>
                <use id="zoomminus" xlink:href="#zoomMin" x="42" y="9" onmousedown="handleZoom(evt,'out')"/>
                <use id="reset" xlink:href="#resetDef" x="30" y="36" onmousedown="handleReset()"/>
                <g id="arrowUp" xlink:href="#dirArrow" transform="translate(30 24)" onmousedown="handlePan(0,-1)">
                  <use xlink:href="#rim" fill="#404040">
                        <set attributeName="fill" to="#808080" begin="arrowUp.mouseover" end="arrowUp.mouseout"/>
                  </use>
                  <path fill="none" stroke="white" stroke-width="1.5" d="M0,-3.0v7 M-2.5,-0.5L0,-3.0L2.5,-0.5"/>
                </g>
                <g id="arrowRight" xlink:href="#dirArrow" transform="rotate(90) translate(36 -43)" onmousedown="handlePan(1,0)">
                  <use xlink:href="#rim" fill="#404040">
                        <set attributeName="fill" to="#808080" begin="arrowRight.mouseover" end="arrowRight.mouseout"/>
                  </use>
                  <path fill="none" stroke="white" stroke-width="1.5" d="M0,-3.0v7 M-2.5,-0.5L0,-3.0L2.5,-0.5"/>
                </g>
                <g id="arrowDown" xlink:href="#dirArrow" transform="rotate(180) translate(-30 -48)" onmousedown="handlePan(0,1)">
                  <use xlink:href="#rim" fill="#404040">
                        <set attributeName="fill" to="#808080" begin="arrowDown.mouseover" end="arrowDown.mouseout"/>
                  </use>
                  <path fill="none" stroke="white" stroke-width="1.5" d="M0,-3.0v7 M-2.5,-0.5L0,-3.0L2.5,-0.5"/>
                </g>
                <g id="arrowLeft" xlink:href="#dirArrow" transform="rotate(270) translate(-36 17)" onmousedown="handlePan(-1,0)">
                  <use xlink:href="#rim" fill="#404040">
                        <set attributeName="fill" to="#808080" begin="arrowLeft.mouseover" end="arrowLeft.mouseout"/>
                  </use>
                  <path fill="none" stroke="white" stroke-width="1.5" d="M0,-3.0v7 M-2.5,-0.5L0,-3.0L2.5,-0.5"/>
                </g>
        </g>
        <svg viewBox="0 0 15 15" width="100%" height="30px" preserveAspectRatio="xMaxYMin meet">
         <g id="arrow_out" transform="scale(0.3 0.3)">
          <a xlink:href="classCDPL_1_1Grid_1_1DRegularGridReaderBase__inherit__graph_org.svg" target="_base">
           <rect id="button" ry="5" rx="5" y="6" x="6" height="38" width="38"
                fill="#f2f5e9" fill-opacity="0.5" stroke="#606060" stroke-width="1.0"/>
           <path id="arrow"
             d="M 11.500037,31.436501 C 11.940474,20.09759 22.043105,11.32322 32.158766,21.979434 L 37.068811,17.246167 C 37.068811,17.246167 37.088388,32 37.088388,32 L 22.160133,31.978069 C 22.160133,31.978069 26.997745,27.140456 26.997745,27.140456 C 18.528582,18.264221 13.291696,25.230495 11.500037,31.436501 z"
             style="fill:#404040;"/>
          </a>
         </g>
        </svg>
</svg>
