<?xml version="1.0" encoding="UTF-8" standalone="no"?>
<!DOCTYPE svg PUBLIC "-//W3C//DTD SVG 1.1//EN"
 "http://www.w3.org/Graphics/SVG/1.1/DTD/svg11.dtd">
<!-- Generated by graphviz version 2.44.0 (0)
 -->
<!-- Title: CDPL.Vis.View2D Pages: 1 -->
<svg width="473pt" height="207pt"
 viewBox="0.00 0.00 472.50 207.00" xmlns="http://www.w3.org/2000/svg" xmlns:xlink="http://www.w3.org/1999/xlink">
<g id="graph0" class="graph" transform="scale(1 1) rotate(0) translate(4 203)">
<title>CDPL.Vis.View2D</title>
<!-- Node1 -->
<g id="node1" class="node">
<title>Node1</title>
<g id="a_node1"><a xlink:title="The abstract base of classes implementing the 2D visualization of data objects.">
<polygon fill="#bfbfbf" stroke="black" points="183,-56.5 183,-75.5 281,-75.5 281,-56.5 183,-56.5"/>
<text text-anchor="middle" x="232" y="-63.5" font-family="Helvetica" font-size="10.00">CDPL.Vis.View2D</text>
</a>
</g>
</g>
<!-- Node4 -->
<g id="node4" class="node">
<title>Node4</title>
<g id="a_node4"><a xlink:href="classCDPL_1_1Vis_1_1ReactionView2D.html" target="_top" xlink:title="Implements the 2D visualization of chemical reactions.">
<polygon fill="none" stroke="black" points="0,-0.5 0,-19.5 136,-19.5 136,-0.5 0,-0.5"/>
<text text-anchor="middle" x="68" y="-7.5" font-family="Helvetica" font-size="10.00">CDPL.Vis.ReactionView2D</text>
</a>
</g>
</g>
<!-- Node1&#45;&gt;Node4 -->
<g id="edge3" class="edge">
<title>Node1&#45;&gt;Node4</title>
<path fill="none" stroke="midnightblue" d="M196.48,-53.3C165.58,-43.13 121.53,-28.62 93.86,-19.52"/>
<polygon fill="midnightblue" stroke="midnightblue" points="195.42,-56.64 206.01,-56.44 197.61,-49.99 195.42,-56.64"/>
</g>
<!-- Node5 -->
<g id="node5" class="node">
<title>Node5</title>
<g id="a_node5"><a xlink:href="classCDPL_1_1Vis_1_1StructureGridView2D.html" target="_top" xlink:title="Implements the 2D visualization of multiple chemical structures arrange in a grid.">
<polygon fill="none" stroke="black" points="154.5,-0.5 154.5,-19.5 309.5,-19.5 309.5,-0.5 154.5,-0.5"/>
<text text-anchor="middle" x="232" y="-7.5" font-family="Helvetica" font-size="10.00">CDPL.Vis.StructureGridView2D</text>
</a>
</g>
</g>
<!-- Node1&#45;&gt;Node5 -->
<g id="edge4" class="edge">
<title>Node1&#45;&gt;Node5</title>
<path fill="none" stroke="midnightblue" d="M232,-45.8C232,-36.91 232,-26.78 232,-19.75"/>
<polygon fill="midnightblue" stroke="midnightblue" points="228.5,-46.08 232,-56.08 235.5,-46.08 228.5,-46.08"/>
</g>
<!-- Node6 -->
<g id="node6" class="node">
<title>Node6</title>
<g id="a_node6"><a xlink:href="classCDPL_1_1Vis_1_1StructureView2D.html" target="_top" xlink:title="Implements the 2D visualization of chemical structures.">
<polygon fill="none" stroke="black" points="327.5,-0.5 327.5,-19.5 464.5,-19.5 464.5,-0.5 327.5,-0.5"/>
<text text-anchor="middle" x="396" y="-7.5" font-family="Helvetica" font-size="10.00">CDPL.Vis.StructureView2D</text>
</a>
</g>
</g>
<!-- Node1&#45;&gt;Node6 -->
<g id="edge5" class="edge">
<title>Node1&#45;&gt;Node6</title>
<path fill="none" stroke="midnightblue" d="M267.52,-53.3C298.42,-43.13 342.47,-28.62 370.14,-19.52"/>
<polygon fill="midnightblue" stroke="midnightblue" points="266.39,-49.99 257.99,-56.44 268.58,-56.64 266.39,-49.99"/>
</g>
<!-- Node2 -->
<g id="node2" class="node">
<title>Node2</title>
<g id="a_node2"><a xlink:href="classCDPL_1_1Base_1_1ControlParameterContainer.html" target="_top" xlink:title="A class providing methods for the storage and lookup of control&#45;parameter values.">
<polygon fill="none" stroke="black" points="158,-112.5 158,-142.5 306,-142.5 306,-112.5 158,-112.5"/>
<text text-anchor="start" x="166" y="-130.5" font-family="Helvetica" font-size="10.00">CDPL.Base.ControlParameter</text>
<text text-anchor="middle" x="232" y="-119.5" font-family="Helvetica" font-size="10.00">Container</text>
</a>
</g>
</g>
<!-- Node2&#45;&gt;Node1 -->
<g id="edge1" class="edge">
<title>Node2&#45;&gt;Node1</title>
<path fill="none" stroke="midnightblue" d="M232,-102.29C232,-92.86 232,-82.65 232,-75.66"/>
<polygon fill="midnightblue" stroke="midnightblue" points="228.5,-102.4 232,-112.4 235.5,-102.4 228.5,-102.4"/>
</g>
<!-- Node3 -->
<g id="node3" class="node">
<title>Node3</title>
<g id="a_node3"><a xlink:title=" ">
<polygon fill="none" stroke="#bfbfbf" points="205.5,-179.5 205.5,-198.5 258.5,-198.5 258.5,-179.5 205.5,-179.5"/>
<text text-anchor="middle" x="232" y="-186.5" font-family="Helvetica" font-size="10.00">instance</text>
</a>
</g>
</g>
<!-- Node3&#45;&gt;Node2 -->
<g id="edge2" class="edge">
<title>Node3&#45;&gt;Node2</title>
<path fill="none" stroke="midnightblue" d="M232,-169.23C232,-160.59 232,-150.5 232,-142.52"/>
<polygon fill="midnightblue" stroke="midnightblue" points="228.5,-169.48 232,-179.48 235.5,-169.48 228.5,-169.48"/>
</g>
</g>
</svg>
