<?xml version="1.0" encoding="UTF-8" standalone="no"?>
<!DOCTYPE svg PUBLIC "-//W3C//DTD SVG 1.1//EN"
 "http://www.w3.org/Graphics/SVG/1.1/DTD/svg11.dtd">
<!-- Generated by graphviz version 2.40.1 (0)
 -->
<!-- Title: Graphical Class Hierarchy Pages: 1 -->
<svg width="309pt" height="1424pt"
 viewBox="0.00 0.00 309.00 1424.00" xmlns="http://www.w3.org/2000/svg" xmlns:xlink="http://www.w3.org/1999/xlink">
<g id="graph0" class="graph" transform="scale(1 1) rotate(0) translate(4 1420)">
<title>Graphical Class Hierarchy</title>
<!-- Node1261 -->
<g id="node1" class="node">
<title>Node1261</title>
<g id="a_node1"><a xlink:title=" ">
<polygon fill="none" stroke="#bfbfbf" points="0,-687.5 0,-706.5 44,-706.5 44,-687.5 0,-687.5"/>
<text text-anchor="middle" x="22" y="-694.5" font-family="Helvetica,sans-Serif" font-size="10.00" fill="#000000">enum</text>
</a>
</g>
</g>
<!-- Node0 -->
<g id="node2" class="node">
<title>Node0</title>
<g id="a_node2"><a xlink:href="classCDPL_1_1Base_1_1IOStream_1_1OpenMode.html" target="_top" xlink:title=" ">
<polygon fill="none" stroke="#000000" points="104,-1396.5 104,-1415.5 277,-1415.5 277,-1396.5 104,-1396.5"/>
<text text-anchor="middle" x="190.5" y="-1403.5" font-family="Helvetica,sans-Serif" font-size="10.00" fill="#000000">CDPL.Base.IOStream.OpenMode</text>
</a>
</g>
</g>
<!-- Node1261&#45;&gt;Node0 -->
<g id="edge1" class="edge">
<title>Node1261&#45;&gt;Node0</title>
<path fill="none" stroke="#191970" d="M22.2489,-716.8424C23.7847,-824.5786 33.5011,-1336.2985 80,-1387 86.5784,-1394.173 94.8024,-1399.2688 103.7781,-1402.8252"/>
<polygon fill="#191970" stroke="#191970" points="25.747,-716.6683 22.1122,-706.7165 18.7476,-716.7628 25.747,-716.6683"/>
</g>
<!-- Node1263 -->
<g id="node3" class="node">
<title>Node1263</title>
<g id="a_node3"><a xlink:href="classCDPL_1_1Biomol_1_1PDBData_1_1RecordType.html" target="_top" xlink:title=" ">
<polygon fill="none" stroke="#000000" points="98,-1358.5 98,-1377.5 283,-1377.5 283,-1358.5 98,-1358.5"/>
<text text-anchor="middle" x="190.5" y="-1365.5" font-family="Helvetica,sans-Serif" font-size="10.00" fill="#000000">CDPL.Biomol.PDBData.RecordType</text>
</a>
</g>
</g>
<!-- Node1261&#45;&gt;Node1263 -->
<g id="edge2" class="edge">
<title>Node1261&#45;&gt;Node1263</title>
<path fill="none" stroke="#191970" d="M22.3555,-717.0462C24.3956,-821.5968 36.1108,-1301.377 80,-1349 85.0788,-1354.5109 91.1292,-1358.7939 97.7441,-1362.0937"/>
<polygon fill="#191970" stroke="#191970" points="25.8525,-716.8453 22.1657,-706.9127 18.8537,-716.9765 25.8525,-716.8453"/>
</g>
<!-- Node1264 -->
<g id="node4" class="node">
<title>Node1264</title>
<g id="a_node4"><a xlink:href="classCDPL_1_1Chem_1_1ChEMBLStandardizer_1_1ChangeFlags.html" target="_top" xlink:title=" ">
<polygon fill="none" stroke="#000000" points="101,-1309 101,-1339 280,-1339 280,-1309 101,-1309"/>
<text text-anchor="start" x="109" y="-1327" font-family="Helvetica,sans-Serif" font-size="10.00" fill="#000000">CDPL.Chem.ChEMBLStandardizer.</text>
<text text-anchor="middle" x="190.5" y="-1316" font-family="Helvetica,sans-Serif" font-size="10.00" fill="#000000">ChangeFlags</text>
</a>
</g>
</g>
<!-- Node1261&#45;&gt;Node1264 -->
<g id="edge3" class="edge">
<title>Node1261&#45;&gt;Node1264</title>
<path fill="none" stroke="#191970" d="M22.5377,-716.7281C25.4135,-815.725 40.3563,-1255.3797 80,-1300 85.8023,-1306.5307 92.9263,-1311.5161 100.7371,-1315.2962"/>
<polygon fill="#191970" stroke="#191970" points="26.0331,-716.514 22.2521,-706.6168 19.0359,-716.7117 26.0331,-716.514"/>
</g>
<!-- Node1265 -->
<g id="node5" class="node">
<title>Node1265</title>
<g id="a_node5"><a xlink:href="classCDPL_1_1Chem_1_1MatchConstraint_1_1Relation.html" target="_top" xlink:title="Defines constants for the specification of relational constraints on the values of query/target attri...">
<polygon fill="none" stroke="#000000" points="111,-1260 111,-1290 270,-1290 270,-1260 111,-1260"/>
<text text-anchor="start" x="119" y="-1278" font-family="Helvetica,sans-Serif" font-size="10.00" fill="#000000">CDPL.Chem.MatchConstraint.</text>
<text text-anchor="middle" x="190.5" y="-1267" font-family="Helvetica,sans-Serif" font-size="10.00" fill="#000000">Relation</text>
</a>
</g>
</g>
<!-- Node1261&#45;&gt;Node1265 -->
<g id="edge4" class="edge">
<title>Node1261&#45;&gt;Node1265</title>
<path fill="none" stroke="#191970" d="M22.7201,-716.8744C26.3141,-811.1477 43.6037,-1210.3806 80,-1251 88.2534,-1260.211 99.1366,-1266.342 110.8556,-1270.351"/>
<polygon fill="#191970" stroke="#191970" points="26.2116,-716.5806 22.3414,-706.718 19.2165,-716.8415 26.2116,-716.5806"/>
</g>
<!-- Node1266 -->
<g id="node6" class="node">
<title>Node1266</title>
<g id="a_node6"><a xlink:href="classCDPL_1_1Chem_1_1MatchConstraintList_1_1Type.html" target="_top" xlink:title="Defines constants that describe the logical type of the match constraint list.">
<polygon fill="none" stroke="#000000" points="112.5,-1211 112.5,-1241 268.5,-1241 268.5,-1211 112.5,-1211"/>
<text text-anchor="start" x="120.5" y="-1229" font-family="Helvetica,sans-Serif" font-size="10.00" fill="#000000">CDPL.Chem.MatchConstraint</text>
<text text-anchor="middle" x="190.5" y="-1218" font-family="Helvetica,sans-Serif" font-size="10.00" fill="#000000">List.Type</text>
</a>
</g>
</g>
<!-- Node1261&#45;&gt;Node1266 -->
<g id="edge5" class="edge">
<title>Node1261&#45;&gt;Node1266</title>
<path fill="none" stroke="#191970" d="M22.9275,-716.7745C27.2725,-805.6417 46.8105,-1165.3314 80,-1202 88.6288,-1211.5333 100.0759,-1217.7594 112.3342,-1221.7466"/>
<polygon fill="#191970" stroke="#191970" points="26.4194,-716.5202 22.4438,-706.6996 19.4275,-716.856 26.4194,-716.5202"/>
</g>
<!-- Node1267 -->
<g id="node7" class="node">
<title>Node1267</title>
<g id="a_node7"><a xlink:href="classCDPL_1_1Chem_1_1ProtonationStateStandardizer_1_1Flavor.html" target="_top" xlink:title=" ">
<polygon fill="none" stroke="#000000" points="111.5,-1162 111.5,-1192 269.5,-1192 269.5,-1162 111.5,-1162"/>
<text text-anchor="start" x="119.5" y="-1180" font-family="Helvetica,sans-Serif" font-size="10.00" fill="#000000">CDPL.Chem.ProtonationState</text>
<text text-anchor="middle" x="190.5" y="-1169" font-family="Helvetica,sans-Serif" font-size="10.00" fill="#000000">Standardizer.Flavor</text>
</a>
</g>
</g>
<!-- Node1261&#45;&gt;Node1267 -->
<g id="edge6" class="edge">
<title>Node1261&#45;&gt;Node1267</title>
<path fill="none" stroke="#191970" d="M23.1871,-716.6139C28.384,-799.615 50.2081,-1119.211 80,-1152 88.399,-1161.2439 99.4301,-1167.4402 111.2707,-1171.532"/>
<polygon fill="#191970" stroke="#191970" points="26.674,-716.2924 22.565,-706.5268 19.6873,-716.7234 26.674,-716.2924"/>
</g>
<!-- Node1268 -->
<g id="node8" class="node">
<title>Node1268</title>
<g id="a_node8"><a xlink:href="classCDPL_1_1Chem_1_1TautomerGenerator_1_1Mode.html" target="_top" xlink:title=" ">
<polygon fill="none" stroke="#000000" points="90.5,-1123.5 90.5,-1142.5 290.5,-1142.5 290.5,-1123.5 90.5,-1123.5"/>
<text text-anchor="middle" x="190.5" y="-1130.5" font-family="Helvetica,sans-Serif" font-size="10.00" fill="#000000">CDPL.Chem.TautomerGenerator.Mode</text>
</a>
</g>
</g>
<!-- Node1261&#45;&gt;Node1268 -->
<g id="edge7" class="edge">
<title>Node1261&#45;&gt;Node1268</title>
<path fill="none" stroke="#191970" d="M23.3709,-716.4923C29.0675,-794.9687 51.8902,-1084.9737 80,-1114 83.5208,-1117.6356 87.4663,-1120.7288 91.7138,-1123.3521"/>
<polygon fill="#191970" stroke="#191970" points="26.8611,-716.2295 22.6561,-706.5049 19.879,-716.7293 26.8611,-716.2295"/>
</g>
<!-- Node1269 -->
<g id="node9" class="node">
<title>Node1269</title>
<g id="a_node9"><a xlink:href="classCDPL_1_1Descr_1_1MoleculeAutoCorr2DDescriptorCalculator_1_1Mode.html" target="_top" xlink:title=" ">
<polygon fill="none" stroke="#000000" points="107,-1074 107,-1104 274,-1104 274,-1074 107,-1074"/>
<text text-anchor="start" x="115" y="-1092" font-family="Helvetica,sans-Serif" font-size="10.00" fill="#000000">CDPL.Descr.MoleculeAutoCorr2</text>
<text text-anchor="middle" x="190.5" y="-1081" font-family="Helvetica,sans-Serif" font-size="10.00" fill="#000000">DDescriptorCalculator.Mode</text>
</a>
</g>
</g>
<!-- Node1261&#45;&gt;Node1269 -->
<g id="edge8" class="edge">
<title>Node1261&#45;&gt;Node1269</title>
<path fill="none" stroke="#191970" d="M22.2841,-716.9661C23.6877,-786.1399 31.9431,-1014.0947 80,-1065 87.412,-1072.8513 96.7395,-1078.4368 106.8175,-1082.3676"/>
<polygon fill="#191970" stroke="#191970" points="25.7776,-716.5572 22.1029,-706.62 18.7787,-716.6798 25.7776,-716.5572"/>
</g>
<!-- Node1270 -->
<g id="node10" class="node">
<title>Node1270</title>
<g id="a_node10"><a xlink:href="classCDPL_1_1ForceField_1_1MMFF94VanDerWaalsInteraction_1_1HDonorAcceptorType.html" target="_top" xlink:title=" ">
<polygon fill="none" stroke="#000000" points="80,-1025 80,-1055 301,-1055 301,-1025 80,-1025"/>
<text text-anchor="start" x="88" y="-1043" font-family="Helvetica,sans-Serif" font-size="10.00" fill="#000000">CDPL.ForceField.MMFF94Van</text>
<text text-anchor="middle" x="190.5" y="-1032" font-family="Helvetica,sans-Serif" font-size="10.00" fill="#000000">DerWaalsInteraction.HDonorAcceptorType</text>
</a>
</g>
</g>
<!-- Node1261&#45;&gt;Node1270 -->
<g id="edge9" class="edge">
<title>Node1261&#45;&gt;Node1270</title>
<path fill="none" stroke="#191970" d="M22.8036,-716.7087C25.7702,-779.4198 38.2002,-972.7535 80,-1016 83.2744,-1019.3877 86.906,-1022.3512 90.7991,-1024.9402"/>
<polygon fill="#191970" stroke="#191970" points="26.2944,-716.42 22.3549,-706.5849 19.3012,-716.7301 26.2944,-716.42"/>
</g>
<!-- Node1271 -->
<g id="node11" class="node">
<title>Node1271</title>
<g id="a_node11"><a xlink:href="classCDPL_1_1GRAIL_1_1BindingAffinityCalculator_1_1AffinityMeasure.html" target="_top" xlink:title=" ">
<polygon fill="none" stroke="#000000" points="116,-976 116,-1006 265,-1006 265,-976 116,-976"/>
<text text-anchor="start" x="124" y="-994" font-family="Helvetica,sans-Serif" font-size="10.00" fill="#000000">CDPL.GRAIL.BindingAffinity</text>
<text text-anchor="middle" x="190.5" y="-983" font-family="Helvetica,sans-Serif" font-size="10.00" fill="#000000">Calculator.AffinityMeasure</text>
</a>
</g>
</g>
<!-- Node1261&#45;&gt;Node1271 -->
<g id="edge10" class="edge">
<title>Node1261&#45;&gt;Node1271</title>
<path fill="none" stroke="#191970" d="M23.4989,-716.5439C28.1883,-772.4606 44.4385,-931.3576 80,-967 89.7753,-976.7975 102.5468,-983.0189 115.923,-986.8908"/>
<polygon fill="#191970" stroke="#191970" points="26.9838,-716.2139 22.6918,-706.5273 20.0064,-716.7762 26.9838,-716.2139"/>
</g>
<!-- Node1272 -->
<g id="node12" class="node">
<title>Node1272</title>
<g id="a_node12"><a xlink:href="classCDPL_1_1GRAIL_1_1GRAILDescriptorCalculator_1_1ElementIndex.html" target="_top" xlink:title=" ">
<polygon fill="none" stroke="#000000" points="113,-927 113,-957 268,-957 268,-927 113,-927"/>
<text text-anchor="start" x="121" y="-945" font-family="Helvetica,sans-Serif" font-size="10.00" fill="#000000">CDPL.GRAIL.GRAILDescriptor</text>
<text text-anchor="middle" x="190.5" y="-934" font-family="Helvetica,sans-Serif" font-size="10.00" fill="#000000">Calculator.ElementIndex</text>
</a>
</g>
</g>
<!-- Node1261&#45;&gt;Node1272 -->
<g id="edge11" class="edge">
<title>Node1261&#45;&gt;Node1272</title>
<path fill="none" stroke="#191970" d="M24.5321,-716.7564C31.1866,-765.5655 50.6989,-889.9264 80,-918 89.143,-926.76 100.6933,-932.6292 112.8576,-936.5084"/>
<polygon fill="#191970" stroke="#191970" points="27.9647,-716.0163 23.1812,-706.5628 21.0254,-716.936 27.9647,-716.0163"/>
</g>
<!-- Node1273 -->
<g id="node13" class="node">
<title>Node1273</title>
<g id="a_node13"><a xlink:href="classCDPL_1_1GRAIL_1_1GRAILXDescriptorCalculator_1_1ElementIndex.html" target="_top" xlink:title=" ">
<polygon fill="none" stroke="#000000" points="109.5,-878 109.5,-908 271.5,-908 271.5,-878 109.5,-878"/>
<text text-anchor="start" x="117.5" y="-896" font-family="Helvetica,sans-Serif" font-size="10.00" fill="#000000">CDPL.GRAIL.GRAILXDescriptor</text>
<text text-anchor="middle" x="190.5" y="-885" font-family="Helvetica,sans-Serif" font-size="10.00" fill="#000000">Calculator.ElementIndex</text>
</a>
</g>
</g>
<!-- Node1261&#45;&gt;Node1273 -->
<g id="edge12" class="edge">
<title>Node1261&#45;&gt;Node1273</title>
<path fill="none" stroke="#191970" d="M26.0766,-716.6288C34.8921,-757.2038 56.8122,-848.2606 80,-869 88.4137,-876.5252 98.6224,-881.8808 109.3954,-885.6617"/>
<polygon fill="#191970" stroke="#191970" points="29.4523,-715.6761 23.9475,-706.6236 22.6056,-717.1331 29.4523,-715.6761"/>
</g>
<!-- Node1274 -->
<g id="node14" class="node">
<title>Node1274</title>
<g id="a_node14"><a xlink:href="classCDPL_1_1Math_1_1DRegularSpatialGrid_1_1DataMode.html" target="_top" xlink:title=" ">
<polygon fill="none" stroke="#000000" points="115.5,-829 115.5,-859 265.5,-859 265.5,-829 115.5,-829"/>
<text text-anchor="start" x="123.5" y="-847" font-family="Helvetica,sans-Serif" font-size="10.00" fill="#000000">CDPL.Math.DRegularSpatial</text>
<text text-anchor="middle" x="190.5" y="-836" font-family="Helvetica,sans-Serif" font-size="10.00" fill="#000000">Grid.DataMode</text>
</a>
</g>
</g>
<!-- Node1261&#45;&gt;Node1274 -->
<g id="edge13" class="edge">
<title>Node1261&#45;&gt;Node1274</title>
<path fill="none" stroke="#191970" d="M25.6694,-716.8172C31.8477,-744.36 47.036,-793.7755 80,-820 90.2162,-828.1275 102.5812,-833.652 115.2891,-837.3774"/>
<polygon fill="#191970" stroke="#191970" points="29.051,-715.885 23.6059,-706.7964 22.1948,-717.2968 29.051,-715.885"/>
</g>
<!-- Node1275 -->
<g id="node15" class="node">
<title>Node1275</title>
<g id="a_node15"><a xlink:href="classCDPL_1_1Math_1_1DVectorBFGSMinimizer_1_1Status.html" target="_top" xlink:title=" ">
<polygon fill="none" stroke="#000000" points="97.5,-780 97.5,-810 283.5,-810 283.5,-780 97.5,-780"/>
<text text-anchor="start" x="105.5" y="-798" font-family="Helvetica,sans-Serif" font-size="10.00" fill="#000000">CDPL.Math.DVectorBFGSMinimizer.</text>
<text text-anchor="middle" x="190.5" y="-787" font-family="Helvetica,sans-Serif" font-size="10.00" fill="#000000">Status</text>
</a>
</g>
</g>
<!-- Node1261&#45;&gt;Node1275 -->
<g id="edge14" class="edge">
<title>Node1261&#45;&gt;Node1275</title>
<path fill="none" stroke="#191970" d="M31.6992,-715.7566C41.5377,-732.8538 58.3804,-757.4472 80,-771 85.489,-774.4409 91.399,-777.3935 97.5303,-779.9265"/>
<polygon fill="#191970" stroke="#191970" points="34.6087,-713.7829 26.7327,-706.6963 28.4704,-717.1477 34.6087,-713.7829"/>
</g>
<!-- Node1276 -->
<g id="node16" class="node">
<title>Node1276</title>
<g id="a_node16"><a xlink:href="classCDPL_1_1Math_1_1FRegularSpatialGrid_1_1DataMode.html" target="_top" xlink:title=" ">
<polygon fill="none" stroke="#000000" points="116.5,-731 116.5,-761 264.5,-761 264.5,-731 116.5,-731"/>
<text text-anchor="start" x="124.5" y="-749" font-family="Helvetica,sans-Serif" font-size="10.00" fill="#000000">CDPL.Math.FRegularSpatial</text>
<text text-anchor="middle" x="190.5" y="-738" font-family="Helvetica,sans-Serif" font-size="10.00" fill="#000000">Grid.DataMode</text>
</a>
</g>
</g>
<!-- Node1261&#45;&gt;Node1276 -->
<g id="edge15" class="edge">
<title>Node1261&#45;&gt;Node1276</title>
<path fill="none" stroke="#191970" d="M50.6356,-710.6438C59.866,-714.6879 70.2361,-718.8678 80,-722 91.5897,-725.7179 104.047,-729.0426 116.2718,-731.9466"/>
<polygon fill="#191970" stroke="#191970" points="52.0572,-707.4455 41.5022,-706.5281 49.1814,-713.8275 52.0572,-707.4455"/>
</g>
<!-- Node1277 -->
<g id="node17" class="node">
<title>Node1277</title>
<g id="a_node17"><a xlink:href="classCDPL_1_1Math_1_1FVectorBFGSMinimizer_1_1Status.html" target="_top" xlink:title=" ">
<polygon fill="none" stroke="#000000" points="98.5,-682 98.5,-712 282.5,-712 282.5,-682 98.5,-682"/>
<text text-anchor="start" x="106.5" y="-700" font-family="Helvetica,sans-Serif" font-size="10.00" fill="#000000">CDPL.Math.FVectorBFGSMinimizer.</text>
<text text-anchor="middle" x="190.5" y="-689" font-family="Helvetica,sans-Serif" font-size="10.00" fill="#000000">Status</text>
</a>
</g>
</g>
<!-- Node1261&#45;&gt;Node1277 -->
<g id="edge16" class="edge">
<title>Node1261&#45;&gt;Node1277</title>
<path fill="none" stroke="#191970" d="M54.1181,-697C66.9311,-697 82.3943,-697 98.2389,-697"/>
<polygon fill="#191970" stroke="#191970" points="54.0285,-693.5001 44.0284,-697 54.0284,-700.5001 54.0285,-693.5001"/>
</g>
<!-- Node1278 -->
<g id="node18" class="node">
<title>Node1278</title>
<g id="a_node18"><a xlink:href="classCDPL_1_1Math_1_1Vector2DArrayBFGSMinimizer_1_1Status.html" target="_top" xlink:title=" ">
<polygon fill="none" stroke="#000000" points="81.5,-633 81.5,-663 299.5,-663 299.5,-633 81.5,-633"/>
<text text-anchor="start" x="89.5" y="-651" font-family="Helvetica,sans-Serif" font-size="10.00" fill="#000000">CDPL.Math.Vector2DArrayBFGSMinimizer.</text>
<text text-anchor="middle" x="190.5" y="-640" font-family="Helvetica,sans-Serif" font-size="10.00" fill="#000000">Status</text>
</a>
</g>
</g>
<!-- Node1261&#45;&gt;Node1278 -->
<g id="edge17" class="edge">
<title>Node1261&#45;&gt;Node1278</title>
<path fill="none" stroke="#191970" d="M51.8646,-683.5062C60.7981,-679.7805 70.6943,-675.9544 80,-673 91.5293,-669.3396 103.8963,-665.9952 116.0332,-663.026"/>
<polygon fill="#191970" stroke="#191970" points="50.4371,-680.31 42.622,-687.4636 53.1924,-686.7449 50.4371,-680.31"/>
</g>
<!-- Node1279 -->
<g id="node19" class="node">
<title>Node1279</title>
<g id="a_node19"><a xlink:href="classCDPL_1_1Math_1_1Vector2FArrayBFGSMinimizer_1_1Status.html" target="_top" xlink:title=" ">
<polygon fill="none" stroke="#000000" points="83,-584 83,-614 298,-614 298,-584 83,-584"/>
<text text-anchor="start" x="91" y="-602" font-family="Helvetica,sans-Serif" font-size="10.00" fill="#000000">CDPL.Math.Vector2FArrayBFGSMinimizer.</text>
<text text-anchor="middle" x="190.5" y="-591" font-family="Helvetica,sans-Serif" font-size="10.00" fill="#000000">Status</text>
</a>
</g>
</g>
<!-- Node1261&#45;&gt;Node1279 -->
<g id="edge18" class="edge">
<title>Node1261&#45;&gt;Node1279</title>
<path fill="none" stroke="#191970" d="M31.7874,-678.5385C41.6888,-661.702 58.5744,-637.4612 80,-624 86.1622,-620.1284 92.8514,-616.8538 99.7866,-614.0843"/>
<polygon fill="#191970" stroke="#191970" points="28.6235,-677.0248 26.7833,-687.4586 34.7285,-680.4497 28.6235,-677.0248"/>
</g>
<!-- Node1280 -->
<g id="node20" class="node">
<title>Node1280</title>
<g id="a_node20"><a xlink:href="classCDPL_1_1Math_1_1Vector3DArrayBFGSMinimizer_1_1Status.html" target="_top" xlink:title=" ">
<polygon fill="none" stroke="#000000" points="81.5,-535 81.5,-565 299.5,-565 299.5,-535 81.5,-535"/>
<text text-anchor="start" x="89.5" y="-553" font-family="Helvetica,sans-Serif" font-size="10.00" fill="#000000">CDPL.Math.Vector3DArrayBFGSMinimizer.</text>
<text text-anchor="middle" x="190.5" y="-542" font-family="Helvetica,sans-Serif" font-size="10.00" fill="#000000">Status</text>
</a>
</g>
</g>
<!-- Node1261&#45;&gt;Node1280 -->
<g id="edge19" class="edge">
<title>Node1261&#45;&gt;Node1280</title>
<path fill="none" stroke="#191970" d="M25.7495,-677.3792C32.0237,-650.1029 47.3264,-601.1397 80,-575 84.838,-571.1295 90.1584,-567.833 95.7692,-565.0278"/>
<polygon fill="#191970" stroke="#191970" points="22.2959,-676.7939 23.6484,-687.302 29.144,-678.244 22.2959,-676.7939"/>
</g>
<!-- Node1281 -->
<g id="node21" class="node">
<title>Node1281</title>
<g id="a_node21"><a xlink:href="classCDPL_1_1Math_1_1Vector3FArrayBFGSMinimizer_1_1Status.html" target="_top" xlink:title=" ">
<polygon fill="none" stroke="#000000" points="83,-486 83,-516 298,-516 298,-486 83,-486"/>
<text text-anchor="start" x="91" y="-504" font-family="Helvetica,sans-Serif" font-size="10.00" fill="#000000">CDPL.Math.Vector3FArrayBFGSMinimizer.</text>
<text text-anchor="middle" x="190.5" y="-493" font-family="Helvetica,sans-Serif" font-size="10.00" fill="#000000">Status</text>
</a>
</g>
</g>
<!-- Node1261&#45;&gt;Node1281 -->
<g id="edge20" class="edge">
<title>Node1261&#45;&gt;Node1281</title>
<path fill="none" stroke="#191970" d="M26.1067,-677.4997C34.9798,-637.188 57.0041,-546.7101 80,-526 84.2385,-522.1828 88.9347,-518.9097 93.9305,-516.1063"/>
<polygon fill="#191970" stroke="#191970" points="22.6499,-676.9265 23.9629,-687.4397 29.4926,-678.4024 22.6499,-676.9265"/>
</g>
<!-- Node1282 -->
<g id="node22" class="node">
<title>Node1282</title>
<g id="a_node22"><a xlink:href="classCDPL_1_1Pharm_1_1DefaultPharmacophoreGenerator_1_1Configuration.html" target="_top" xlink:title="Flags controlling feature generation.">
<polygon fill="none" stroke="#000000" points="94.5,-437 94.5,-467 286.5,-467 286.5,-437 94.5,-437"/>
<text text-anchor="start" x="102.5" y="-455" font-family="Helvetica,sans-Serif" font-size="10.00" fill="#000000">CDPL.Pharm.DefaultPharmacophore</text>
<text text-anchor="middle" x="190.5" y="-444" font-family="Helvetica,sans-Serif" font-size="10.00" fill="#000000">Generator.Configuration</text>
</a>
</g>
</g>
<!-- Node1261&#45;&gt;Node1282 -->
<g id="edge21" class="edge">
<title>Node1261&#45;&gt;Node1282</title>
<path fill="none" stroke="#191970" d="M24.5598,-677.3472C31.2786,-628.7919 50.9281,-505.0641 80,-477 84.3161,-472.8335 89.1722,-469.305 94.3785,-466.3215"/>
<polygon fill="#191970" stroke="#191970" points="21.0603,-677.1101 23.195,-687.4876 27.9977,-678.0438 21.0603,-677.1101"/>
</g>
<!-- Node1283 -->
<g id="node23" class="node">
<title>Node1283</title>
<g id="a_node23"><a xlink:href="classCDPL_1_1Pharm_1_1PatternBasedFeatureGenerator_1_1PatternAtomLabelFlag.html" target="_top" xlink:title=" ">
<polygon fill="none" stroke="#000000" points="100.5,-388 100.5,-418 280.5,-418 280.5,-388 100.5,-388"/>
<text text-anchor="start" x="108.5" y="-406" font-family="Helvetica,sans-Serif" font-size="10.00" fill="#000000">CDPL.Pharm.PatternBasedFeature</text>
<text text-anchor="middle" x="190.5" y="-395" font-family="Helvetica,sans-Serif" font-size="10.00" fill="#000000">Generator.PatternAtomLabelFlag</text>
</a>
</g>
</g>
<!-- Node1261&#45;&gt;Node1283 -->
<g id="edge22" class="edge">
<title>Node1261&#45;&gt;Node1283</title>
<path fill="none" stroke="#191970" d="M23.5566,-677.169C28.357,-621.1667 44.7829,-463.5759 80,-428 85.8809,-422.0592 92.8546,-417.4019 100.3963,-413.7657"/>
<polygon fill="#191970" stroke="#191970" points="20.0612,-676.9701 22.7277,-687.2239 27.0376,-677.5453 20.0612,-676.9701"/>
</g>
<!-- Node1284 -->
<g id="node24" class="node">
<title>Node1284</title>
<g id="a_node24"><a xlink:href="classCDPL_1_1Pharm_1_1ScreeningDBCreator_1_1Mode.html" target="_top" xlink:title=" ">
<polygon fill="none" stroke="#000000" points="87.5,-349.5 87.5,-368.5 293.5,-368.5 293.5,-349.5 87.5,-349.5"/>
<text text-anchor="middle" x="190.5" y="-356.5" font-family="Helvetica,sans-Serif" font-size="10.00" fill="#000000">CDPL.Pharm.ScreeningDBCreator.Mode</text>
</a>
</g>
</g>
<!-- Node1261&#45;&gt;Node1284 -->
<g id="edge23" class="edge">
<title>Node1261&#45;&gt;Node1284</title>
<path fill="none" stroke="#191970" d="M22.7521,-677.2926C25.5623,-614.5942 37.5711,-421.3716 80,-379 84.1385,-374.8671 88.8245,-371.4282 93.8728,-368.5774"/>
<polygon fill="#191970" stroke="#191970" points="19.2498,-677.2775 22.3292,-687.415 26.2437,-677.5698 19.2498,-677.2775"/>
</g>
<!-- Node1285 -->
<g id="node25" class="node">
<title>Node1285</title>
<g id="a_node25"><a xlink:href="classCDPL_1_1Pharm_1_1ScreeningProcessor_1_1HitReportMode.html" target="_top" xlink:title=" ">
<polygon fill="none" stroke="#000000" points="102,-300 102,-330 279,-330 279,-300 102,-300"/>
<text text-anchor="start" x="110" y="-318" font-family="Helvetica,sans-Serif" font-size="10.00" fill="#000000">CDPL.Pharm.ScreeningProcessor.</text>
<text text-anchor="middle" x="190.5" y="-307" font-family="Helvetica,sans-Serif" font-size="10.00" fill="#000000">HitReportMode</text>
</a>
</g>
</g>
<!-- Node1261&#45;&gt;Node1285 -->
<g id="edge24" class="edge">
<title>Node1261&#45;&gt;Node1285</title>
<path fill="none" stroke="#191970" d="M22.4028,-677.1983C24.1908,-609.5997 33.5421,-389.4037 80,-340 86.1982,-333.4088 93.7366,-328.3792 101.9336,-324.5627"/>
<polygon fill="#191970" stroke="#191970" points="18.9006,-677.2554 22.1627,-687.3355 25.8986,-677.4212 18.9006,-677.2554"/>
</g>
<!-- Node1286 -->
<g id="node26" class="node">
<title>Node1286</title>
<g id="a_node26"><a xlink:href="classCDPL_1_1Shape_1_1ScreeningSettings_1_1AlignmentMode.html" target="_top" xlink:title=" ">
<polygon fill="none" stroke="#000000" points="106,-251 106,-281 275,-281 275,-251 106,-251"/>
<text text-anchor="start" x="114" y="-269" font-family="Helvetica,sans-Serif" font-size="10.00" fill="#000000">CDPL.Shape.ScreeningSettings.</text>
<text text-anchor="middle" x="190.5" y="-258" font-family="Helvetica,sans-Serif" font-size="10.00" fill="#000000">AlignmentMode</text>
</a>
</g>
</g>
<!-- Node1261&#45;&gt;Node1286 -->
<g id="edge25" class="edge">
<title>Node1261&#45;&gt;Node1286</title>
<path fill="none" stroke="#191970" d="M23.5266,-677.0875C29.6552,-599.4352 53.4235,-319.8098 80,-291 87.135,-283.2655 96.1137,-277.6719 105.8541,-273.6622"/>
<polygon fill="#191970" stroke="#191970" points="20.0115,-677.1466 22.7243,-687.3882 26.9904,-677.6903 20.0115,-677.1466"/>
</g>
<!-- Node1287 -->
<g id="node27" class="node">
<title>Node1287</title>
<g id="a_node27"><a xlink:href="classCDPL_1_1Shape_1_1ScreeningSettings_1_1ColorFeatureType.html" target="_top" xlink:title=" ">
<polygon fill="none" stroke="#000000" points="106,-202 106,-232 275,-232 275,-202 106,-202"/>
<text text-anchor="start" x="114" y="-220" font-family="Helvetica,sans-Serif" font-size="10.00" fill="#000000">CDPL.Shape.ScreeningSettings.</text>
<text text-anchor="middle" x="190.5" y="-209" font-family="Helvetica,sans-Serif" font-size="10.00" fill="#000000">ColorFeatureType</text>
</a>
</g>
</g>
<!-- Node1261&#45;&gt;Node1287 -->
<g id="edge26" class="edge">
<title>Node1261&#45;&gt;Node1287</title>
<path fill="none" stroke="#191970" d="M23.1871,-677.3861C28.384,-594.385 50.2081,-274.789 80,-242 87.0763,-234.2118 96.021,-228.587 105.744,-224.5614"/>
<polygon fill="#191970" stroke="#191970" points="19.6873,-677.2766 22.565,-687.4732 26.674,-677.7076 19.6873,-677.2766"/>
</g>
<!-- Node1288 -->
<g id="node28" class="node">
<title>Node1288</title>
<g id="a_node28"><a xlink:href="classCDPL_1_1Shape_1_1ScreeningSettings_1_1ScreeningMode.html" target="_top" xlink:title=" ">
<polygon fill="none" stroke="#000000" points="106,-153 106,-183 275,-183 275,-153 106,-153"/>
<text text-anchor="start" x="114" y="-171" font-family="Helvetica,sans-Serif" font-size="10.00" fill="#000000">CDPL.Shape.ScreeningSettings.</text>
<text text-anchor="middle" x="190.5" y="-160" font-family="Helvetica,sans-Serif" font-size="10.00" fill="#000000">ScreeningMode</text>
</a>
</g>
</g>
<!-- Node1261&#45;&gt;Node1288 -->
<g id="edge27" class="edge">
<title>Node1261&#45;&gt;Node1288</title>
<path fill="none" stroke="#191970" d="M22.9377,-677.2711C27.3269,-588.6082 47.0294,-229.7357 80,-193 87.0943,-185.0955 96.1124,-179.4134 105.9269,-175.3678"/>
<polygon fill="#191970" stroke="#191970" points="19.4388,-677.1646 22.4489,-687.3228 26.4305,-677.5046 19.4388,-677.1646"/>
</g>
<!-- Node1289 -->
<g id="node29" class="node">
<title>Node1289</title>
<g id="a_node29"><a xlink:href="classCDPL_1_1Vis_1_1Brush_1_1Style.html" target="_top" xlink:title="Defines constants for supported fill pattern styles.">
<polygon fill="none" stroke="#000000" points="131,-114.5 131,-133.5 250,-133.5 250,-114.5 131,-114.5"/>
<text text-anchor="middle" x="190.5" y="-121.5" font-family="Helvetica,sans-Serif" font-size="10.00" fill="#000000">CDPL.Vis.Brush.Style</text>
</a>
</g>
</g>
<!-- Node1261&#45;&gt;Node1289 -->
<g id="edge28" class="edge">
<title>Node1261&#45;&gt;Node1289</title>
<path fill="none" stroke="#191970" d="M22.693,-677.1343C26.1622,-582.906 42.9647,-183.9048 80,-144 92.9306,-130.0675 112.0402,-123.8465 130.7465,-121.4841"/>
<polygon fill="#191970" stroke="#191970" points="19.1897,-677.1667 22.328,-687.2861 26.1852,-677.4183 19.1897,-677.1667"/>
</g>
<!-- Node1290 -->
<g id="node30" class="node">
<title>Node1290</title>
<g id="a_node30"><a xlink:href="classCDPL_1_1Vis_1_1Pen_1_1CapStyle.html" target="_top" xlink:title="Defines constants for supported line cap styles.">
<polygon fill="none" stroke="#000000" points="126.5,-76.5 126.5,-95.5 254.5,-95.5 254.5,-76.5 126.5,-76.5"/>
<text text-anchor="middle" x="190.5" y="-83.5" font-family="Helvetica,sans-Serif" font-size="10.00" fill="#000000">CDPL.Vis.Pen.CapStyle</text>
</a>
</g>
</g>
<!-- Node1261&#45;&gt;Node1290 -->
<g id="edge29" class="edge">
<title>Node1261&#45;&gt;Node1290</title>
<path fill="none" stroke="#191970" d="M22.5455,-676.9744C25.4155,-578.4099 40.1737,-147.8288 80,-105 91.9299,-92.1707 109.129,-86.0136 126.4179,-83.4231"/>
<polygon fill="#191970" stroke="#191970" points="19.044,-676.9809 22.2597,-687.0759 26.0412,-677.1789 19.044,-676.9809"/>
</g>
<!-- Node1291 -->
<g id="node31" class="node">
<title>Node1291</title>
<g id="a_node31"><a xlink:href="classCDPL_1_1Vis_1_1Pen_1_1JoinStyle.html" target="_top" xlink:title="Defines constants for supported line join styles.">
<polygon fill="none" stroke="#000000" points="127,-38.5 127,-57.5 254,-57.5 254,-38.5 127,-38.5"/>
<text text-anchor="middle" x="190.5" y="-45.5" font-family="Helvetica,sans-Serif" font-size="10.00" fill="#000000">CDPL.Vis.Pen.JoinStyle</text>
</a>
</g>
</g>
<!-- Node1261&#45;&gt;Node1291 -->
<g id="edge30" class="edge">
<title>Node1261&#45;&gt;Node1291</title>
<path fill="none" stroke="#191970" d="M22.4129,-677.3201C24.728,-575.6569 37.5521,-112.9169 80,-67 92.0245,-53.9928 109.4628,-47.8322 126.9468,-45.2941"/>
<polygon fill="#191970" stroke="#191970" points="18.9116,-677.3463 22.191,-687.4209 25.9099,-677.5002 18.9116,-677.3463"/>
</g>
<!-- Node1292 -->
<g id="node32" class="node">
<title>Node1292</title>
<g id="a_node32"><a xlink:href="classCDPL_1_1Vis_1_1Pen_1_1LineStyle.html" target="_top" xlink:title="Defines constants for supported line styles.">
<polygon fill="none" stroke="#000000" points="126,-.5 126,-19.5 255,-19.5 255,-.5 126,-.5"/>
<text text-anchor="middle" x="190.5" y="-7.5" font-family="Helvetica,sans-Serif" font-size="10.00" fill="#000000">CDPL.Vis.Pen.LineStyle</text>
</a>
</g>
</g>
<!-- Node1261&#45;&gt;Node1292 -->
<g id="edge31" class="edge">
<title>Node1261&#45;&gt;Node1292</title>
<path fill="none" stroke="#191970" d="M22.3073,-677.1375C24.1268,-571.4344 34.9988,-77.9333 80,-29 91.7271,-16.2482 108.6558,-10.0665 125.7519,-7.4278"/>
<polygon fill="#191970" stroke="#191970" points="18.8044,-677.2901 22.1395,-687.3463 25.8035,-677.4052 18.8044,-677.2901"/>
</g>
</g>
</svg>
