<?xml version="1.0" encoding="UTF-8" standalone="no"?>
<!DOCTYPE svg PUBLIC "-//W3C//DTD SVG 1.1//EN"
 "http://www.w3.org/Graphics/SVG/1.1/DTD/svg11.dtd">
<!-- Generated by graphviz version 2.40.1 (0)
 -->
<!-- Title: Graphical Class Hierarchy Pages: 1 -->
<svg width="309pt" height="1511pt"
 viewBox="0.00 0.00 309.00 1511.00" xmlns="http://www.w3.org/2000/svg" xmlns:xlink="http://www.w3.org/1999/xlink">
<g id="graph0" class="graph" transform="scale(1 1) rotate(0) translate(4 1507)">
<title>Graphical Class Hierarchy</title>
<!-- Node1300 -->
<g id="node1" class="node">
<title>Node1300</title>
<g id="a_node1"><a xlink:title=" ">
<polygon fill="none" stroke="#bfbfbf" points="0,-725.5 0,-744.5 44,-744.5 44,-725.5 0,-725.5"/>
<text text-anchor="middle" x="22" y="-732.5" font-family="Helvetica,sans-Serif" font-size="10.00" fill="#000000">enum</text>
</a>
</g>
</g>
<!-- Node0 -->
<g id="node2" class="node">
<title>Node0</title>
<g id="a_node2"><a xlink:href="classCDPL_1_1Base_1_1IOStream_1_1OpenMode.html" target="_top" xlink:title=" ">
<polygon fill="none" stroke="#000000" points="104,-1483.5 104,-1502.5 277,-1502.5 277,-1483.5 104,-1483.5"/>
<text text-anchor="middle" x="190.5" y="-1490.5" font-family="Helvetica,sans-Serif" font-size="10.00" fill="#000000">CDPL.Base.IOStream.OpenMode</text>
</a>
</g>
</g>
<!-- Node1300&#45;&gt;Node0 -->
<g id="edge1" class="edge">
<title>Node1300&#45;&gt;Node0</title>
<path fill="none" stroke="#191970" d="M22.1319,-754.8249C23.0625,-867.0287 30.1646,-1419.3575 80,-1474 86.5585,-1481.1912 94.7704,-1486.2981 103.7395,-1489.8605"/>
<polygon fill="#191970" stroke="#191970" points="25.6302,-754.5808 22.0546,-744.6076 18.6304,-754.6338 25.6302,-754.5808"/>
</g>
<!-- Node1302 -->
<g id="node3" class="node">
<title>Node1302</title>
<g id="a_node3"><a xlink:href="classCDPL_1_1Biomol_1_1PDBData_1_1RecordType.html" target="_top" xlink:title=" ">
<polygon fill="none" stroke="#000000" points="98,-1445.5 98,-1464.5 283,-1464.5 283,-1445.5 98,-1445.5"/>
<text text-anchor="middle" x="190.5" y="-1452.5" font-family="Helvetica,sans-Serif" font-size="10.00" fill="#000000">CDPL.Biomol.PDBData.RecordType</text>
</a>
</g>
</g>
<!-- Node1300&#45;&gt;Node1302 -->
<g id="edge2" class="edge">
<title>Node1300&#45;&gt;Node1302</title>
<path fill="none" stroke="#191970" d="M22.2209,-754.8132C23.6167,-863.511 32.749,-1384.4106 80,-1436 85.1275,-1441.5983 91.2573,-1445.9318 97.9649,-1449.256"/>
<polygon fill="#191970" stroke="#191970" points="25.7183,-754.5727 22.0977,-744.6157 18.7188,-754.6573 25.7183,-754.5727"/>
</g>
<!-- Node1303 -->
<g id="node4" class="node">
<title>Node1303</title>
<g id="a_node4"><a xlink:href="classCDPL_1_1Chem_1_1ChEMBLStandardizer_1_1ChangeFlags.html" target="_top" xlink:title=" ">
<polygon fill="none" stroke="#000000" points="101,-1396 101,-1426 280,-1426 280,-1396 101,-1396"/>
<text text-anchor="start" x="109" y="-1414" font-family="Helvetica,sans-Serif" font-size="10.00" fill="#000000">CDPL.Chem.ChEMBLStandardizer.</text>
<text text-anchor="middle" x="190.5" y="-1403" font-family="Helvetica,sans-Serif" font-size="10.00" fill="#000000">ChangeFlags</text>
</a>
</g>
</g>
<!-- Node1300&#45;&gt;Node1303 -->
<g id="edge3" class="edge">
<title>Node1300&#45;&gt;Node1303</title>
<path fill="none" stroke="#191970" d="M22.3933,-755.0121C24.6253,-859.3897 37.1592,-1338.4318 80,-1387 85.8438,-1393.625 93.0475,-1398.6625 100.9524,-1402.4659"/>
<polygon fill="#191970" stroke="#191970" points="25.8902,-754.8213 22.1846,-744.8956 18.8917,-754.9657 25.8902,-754.8213"/>
</g>
<!-- Node1304 -->
<g id="node5" class="node">
<title>Node1304</title>
<g id="a_node5"><a xlink:href="classCDPL_1_1Chem_1_1MatchConstraint_1_1Relation.html" target="_top" xlink:title="Defines constants for the specification of relational constraints on the values of query/target attri...">
<polygon fill="none" stroke="#000000" points="111,-1347 111,-1377 270,-1377 270,-1347 111,-1347"/>
<text text-anchor="start" x="119" y="-1365" font-family="Helvetica,sans-Serif" font-size="10.00" fill="#000000">CDPL.Chem.MatchConstraint.</text>
<text text-anchor="middle" x="190.5" y="-1354" font-family="Helvetica,sans-Serif" font-size="10.00" fill="#000000">Relation</text>
</a>
</g>
</g>
<!-- Node1300&#45;&gt;Node1304 -->
<g id="edge4" class="edge">
<title>Node1300&#45;&gt;Node1304</title>
<path fill="none" stroke="#191970" d="M22.5377,-754.7281C25.4135,-853.725 40.3563,-1293.3797 80,-1338 88.2145,-1347.2457 99.078,-1353.3942 110.7893,-1357.4101"/>
<polygon fill="#191970" stroke="#191970" points="26.0331,-754.514 22.2521,-744.6168 19.0359,-754.7117 26.0331,-754.514"/>
</g>
<!-- Node1305 -->
<g id="node6" class="node">
<title>Node1305</title>
<g id="a_node6"><a xlink:href="classCDPL_1_1Chem_1_1MatchConstraintList_1_1Type.html" target="_top" xlink:title="Defines constants that describe the logical type of the match constraint list.">
<polygon fill="none" stroke="#000000" points="112.5,-1298 112.5,-1328 268.5,-1328 268.5,-1298 112.5,-1298"/>
<text text-anchor="start" x="120.5" y="-1316" font-family="Helvetica,sans-Serif" font-size="10.00" fill="#000000">CDPL.Chem.MatchConstraint</text>
<text text-anchor="middle" x="190.5" y="-1305" font-family="Helvetica,sans-Serif" font-size="10.00" fill="#000000">List.Type</text>
</a>
</g>
</g>
<!-- Node1300&#45;&gt;Node1305 -->
<g id="edge5" class="edge">
<title>Node1300&#45;&gt;Node1305</title>
<path fill="none" stroke="#191970" d="M22.7201,-754.8744C26.3141,-849.1477 43.6037,-1248.3806 80,-1289 88.5809,-1298.5765 100.0045,-1304.8237 112.2545,-1308.8183"/>
<polygon fill="#191970" stroke="#191970" points="26.2116,-754.5806 22.3414,-744.718 19.2165,-754.8415 26.2116,-754.5806"/>
</g>
<!-- Node1306 -->
<g id="node7" class="node">
<title>Node1306</title>
<g id="a_node7"><a xlink:href="classCDPL_1_1Chem_1_1ProtonationStateStandardizer_1_1Flavor.html" target="_top" xlink:title=" ">
<polygon fill="none" stroke="#000000" points="111.5,-1249 111.5,-1279 269.5,-1279 269.5,-1249 111.5,-1249"/>
<text text-anchor="start" x="119.5" y="-1267" font-family="Helvetica,sans-Serif" font-size="10.00" fill="#000000">CDPL.Chem.ProtonationState</text>
<text text-anchor="middle" x="190.5" y="-1256" font-family="Helvetica,sans-Serif" font-size="10.00" fill="#000000">Standardizer.Flavor</text>
</a>
</g>
</g>
<!-- Node1300&#45;&gt;Node1306 -->
<g id="edge6" class="edge">
<title>Node1300&#45;&gt;Node1306</title>
<path fill="none" stroke="#191970" d="M22.9377,-754.7289C27.3269,-843.3918 47.0294,-1202.2643 80,-1239 88.4081,-1248.3682 99.5184,-1254.6149 111.4543,-1258.7152"/>
<polygon fill="#191970" stroke="#191970" points="26.4305,-754.4954 22.4489,-744.6772 19.4388,-754.8354 26.4305,-754.4954"/>
</g>
<!-- Node1307 -->
<g id="node8" class="node">
<title>Node1307</title>
<g id="a_node8"><a xlink:href="classCDPL_1_1Chem_1_1TautomerGenerator_1_1Mode.html" target="_top" xlink:title=" ">
<polygon fill="none" stroke="#000000" points="90.5,-1210.5 90.5,-1229.5 290.5,-1229.5 290.5,-1210.5 90.5,-1210.5"/>
<text text-anchor="middle" x="190.5" y="-1217.5" font-family="Helvetica,sans-Serif" font-size="10.00" fill="#000000">CDPL.Chem.TautomerGenerator.Mode</text>
</a>
</g>
</g>
<!-- Node1300&#45;&gt;Node1307 -->
<g id="edge7" class="edge">
<title>Node1300&#45;&gt;Node1307</title>
<path fill="none" stroke="#191970" d="M23.0939,-754.8673C27.9427,-839.6272 48.6498,-1168.1586 80,-1201 83.4946,-1204.6608 87.4192,-1207.7741 91.6503,-1210.4131"/>
<polygon fill="#191970" stroke="#191970" points="26.5825,-754.5644 22.5263,-744.7768 19.5936,-754.9576 26.5825,-754.5644"/>
</g>
<!-- Node1308 -->
<g id="node9" class="node">
<title>Node1308</title>
<g id="a_node9"><a xlink:href="classCDPL_1_1Descr_1_1MoleculeAutoCorr2DDescriptorCalculator_1_1Mode.html" target="_top" xlink:title=" ">
<polygon fill="none" stroke="#000000" points="107,-1161 107,-1191 274,-1191 274,-1161 107,-1161"/>
<text text-anchor="start" x="115" y="-1179" font-family="Helvetica,sans-Serif" font-size="10.00" fill="#000000">CDPL.Descr.MoleculeAutoCorr2</text>
<text text-anchor="middle" x="190.5" y="-1168" font-family="Helvetica,sans-Serif" font-size="10.00" fill="#000000">DDescriptorCalculator.Mode</text>
</a>
</g>
</g>
<!-- Node1300&#45;&gt;Node1308 -->
<g id="edge8" class="edge">
<title>Node1300&#45;&gt;Node1308</title>
<path fill="none" stroke="#191970" d="M23.4445,-754.9681C29.3421,-834.0505 52.5886,-1122.4318 80,-1152 87.4073,-1159.9901 96.7964,-1165.6438 106.9599,-1169.5985"/>
<polygon fill="#191970" stroke="#191970" points="26.9262,-754.5907 22.7018,-744.8746 19.9451,-755.1045 26.9262,-754.5907"/>
</g>
<!-- Node1309 -->
<g id="node10" class="node">
<title>Node1309</title>
<g id="a_node10"><a xlink:href="classCDPL_1_1Descr_1_1NPoint2DPharmacophoreFingerprintGenerator_1_1FeatureDistanceType.html" target="_top" xlink:title=" ">
<polygon fill="none" stroke="#000000" points="80,-1112 80,-1142 301,-1142 301,-1112 80,-1112"/>
<text text-anchor="start" x="88" y="-1130" font-family="Helvetica,sans-Serif" font-size="10.00" fill="#000000">CDPL.Descr.NPoint2DPharmacophore</text>
<text text-anchor="middle" x="190.5" y="-1119" font-family="Helvetica,sans-Serif" font-size="10.00" fill="#000000">FingerprintGenerator.FeatureDistanceType</text>
</a>
</g>
</g>
<!-- Node1300&#45;&gt;Node1309 -->
<g id="edge9" class="edge">
<title>Node1300&#45;&gt;Node1309</title>
<path fill="none" stroke="#191970" d="M22.2841,-754.9661C23.6877,-824.1399 31.9431,-1052.0947 80,-1103 83.0995,-1106.2833 86.5341,-1109.1703 90.2184,-1111.7058"/>
<polygon fill="#191970" stroke="#191970" points="25.7776,-754.5572 22.1029,-744.62 18.7787,-754.6798 25.7776,-754.5572"/>
</g>
<!-- Node1310 -->
<g id="node11" class="node">
<title>Node1310</title>
<g id="a_node11"><a xlink:href="classCDPL_1_1ForceField_1_1MMFF94VanDerWaalsInteraction_1_1HDonorAcceptorType.html" target="_top" xlink:title=" ">
<polygon fill="none" stroke="#000000" points="80,-1063 80,-1093 301,-1093 301,-1063 80,-1063"/>
<text text-anchor="start" x="88" y="-1081" font-family="Helvetica,sans-Serif" font-size="10.00" fill="#000000">CDPL.ForceField.MMFF94Van</text>
<text text-anchor="middle" x="190.5" y="-1070" font-family="Helvetica,sans-Serif" font-size="10.00" fill="#000000">DerWaalsInteraction.HDonorAcceptorType</text>
</a>
</g>
</g>
<!-- Node1300&#45;&gt;Node1310 -->
<g id="edge10" class="edge">
<title>Node1300&#45;&gt;Node1310</title>
<path fill="none" stroke="#191970" d="M22.8036,-754.7087C25.7702,-817.4198 38.2002,-1010.7535 80,-1054 83.2744,-1057.3877 86.906,-1060.3512 90.7991,-1062.9402"/>
<polygon fill="#191970" stroke="#191970" points="26.2944,-754.42 22.3549,-744.5849 19.3012,-754.7301 26.2944,-754.42"/>
</g>
<!-- Node1311 -->
<g id="node12" class="node">
<title>Node1311</title>
<g id="a_node12"><a xlink:href="classCDPL_1_1GRAIL_1_1BindingAffinityCalculator_1_1AffinityMeasure.html" target="_top" xlink:title=" ">
<polygon fill="none" stroke="#000000" points="116,-1014 116,-1044 265,-1044 265,-1014 116,-1014"/>
<text text-anchor="start" x="124" y="-1032" font-family="Helvetica,sans-Serif" font-size="10.00" fill="#000000">CDPL.GRAIL.BindingAffinity</text>
<text text-anchor="middle" x="190.5" y="-1021" font-family="Helvetica,sans-Serif" font-size="10.00" fill="#000000">Calculator.AffinityMeasure</text>
</a>
</g>
</g>
<!-- Node1300&#45;&gt;Node1311 -->
<g id="edge11" class="edge">
<title>Node1300&#45;&gt;Node1311</title>
<path fill="none" stroke="#191970" d="M23.4989,-754.5439C28.1883,-810.4606 44.4385,-969.3576 80,-1005 89.7753,-1014.7975 102.5468,-1021.0189 115.923,-1024.8908"/>
<polygon fill="#191970" stroke="#191970" points="26.9838,-754.2139 22.6918,-744.5273 20.0064,-754.7762 26.9838,-754.2139"/>
</g>
<!-- Node1312 -->
<g id="node13" class="node">
<title>Node1312</title>
<g id="a_node13"><a xlink:href="classCDPL_1_1GRAIL_1_1GRAILDescriptorCalculator_1_1ElementIndex.html" target="_top" xlink:title=" ">
<polygon fill="none" stroke="#000000" points="113,-965 113,-995 268,-995 268,-965 113,-965"/>
<text text-anchor="start" x="121" y="-983" font-family="Helvetica,sans-Serif" font-size="10.00" fill="#000000">CDPL.GRAIL.GRAILDescriptor</text>
<text text-anchor="middle" x="190.5" y="-972" font-family="Helvetica,sans-Serif" font-size="10.00" fill="#000000">Calculator.ElementIndex</text>
</a>
</g>
</g>
<!-- Node1300&#45;&gt;Node1312 -->
<g id="edge12" class="edge">
<title>Node1300&#45;&gt;Node1312</title>
<path fill="none" stroke="#191970" d="M24.5321,-754.7564C31.1866,-803.5655 50.6989,-927.9264 80,-956 89.143,-964.76 100.6933,-970.6292 112.8576,-974.5084"/>
<polygon fill="#191970" stroke="#191970" points="27.9647,-754.0163 23.1812,-744.5628 21.0254,-754.936 27.9647,-754.0163"/>
</g>
<!-- Node1313 -->
<g id="node14" class="node">
<title>Node1313</title>
<g id="a_node14"><a xlink:href="classCDPL_1_1GRAIL_1_1GRAILXDescriptorCalculator_1_1ElementIndex.html" target="_top" xlink:title=" ">
<polygon fill="none" stroke="#000000" points="109.5,-916 109.5,-946 271.5,-946 271.5,-916 109.5,-916"/>
<text text-anchor="start" x="117.5" y="-934" font-family="Helvetica,sans-Serif" font-size="10.00" fill="#000000">CDPL.GRAIL.GRAILXDescriptor</text>
<text text-anchor="middle" x="190.5" y="-923" font-family="Helvetica,sans-Serif" font-size="10.00" fill="#000000">Calculator.ElementIndex</text>
</a>
</g>
</g>
<!-- Node1300&#45;&gt;Node1313 -->
<g id="edge13" class="edge">
<title>Node1300&#45;&gt;Node1313</title>
<path fill="none" stroke="#191970" d="M26.0766,-754.6288C34.8921,-795.2038 56.8122,-886.2606 80,-907 88.4137,-914.5252 98.6224,-919.8808 109.3954,-923.6617"/>
<polygon fill="#191970" stroke="#191970" points="29.4523,-753.6761 23.9475,-744.6236 22.6056,-755.1331 29.4523,-753.6761"/>
</g>
<!-- Node1314 -->
<g id="node15" class="node">
<title>Node1314</title>
<g id="a_node15"><a xlink:href="classCDPL_1_1Math_1_1DRegularSpatialGrid_1_1DataMode.html" target="_top" xlink:title=" ">
<polygon fill="none" stroke="#000000" points="115.5,-867 115.5,-897 265.5,-897 265.5,-867 115.5,-867"/>
<text text-anchor="start" x="123.5" y="-885" font-family="Helvetica,sans-Serif" font-size="10.00" fill="#000000">CDPL.Math.DRegularSpatial</text>
<text text-anchor="middle" x="190.5" y="-874" font-family="Helvetica,sans-Serif" font-size="10.00" fill="#000000">Grid.DataMode</text>
</a>
</g>
</g>
<!-- Node1300&#45;&gt;Node1314 -->
<g id="edge14" class="edge">
<title>Node1300&#45;&gt;Node1314</title>
<path fill="none" stroke="#191970" d="M25.6694,-754.8172C31.8477,-782.36 47.036,-831.7755 80,-858 90.2162,-866.1275 102.5812,-871.652 115.2891,-875.3774"/>
<polygon fill="#191970" stroke="#191970" points="29.051,-753.885 23.6059,-744.7964 22.1948,-755.2968 29.051,-753.885"/>
</g>
<!-- Node1315 -->
<g id="node16" class="node">
<title>Node1315</title>
<g id="a_node16"><a xlink:href="classCDPL_1_1Math_1_1DVectorBFGSMinimizer_1_1Status.html" target="_top" xlink:title=" ">
<polygon fill="none" stroke="#000000" points="97.5,-818 97.5,-848 283.5,-848 283.5,-818 97.5,-818"/>
<text text-anchor="start" x="105.5" y="-836" font-family="Helvetica,sans-Serif" font-size="10.00" fill="#000000">CDPL.Math.DVectorBFGSMinimizer.</text>
<text text-anchor="middle" x="190.5" y="-825" font-family="Helvetica,sans-Serif" font-size="10.00" fill="#000000">Status</text>
</a>
</g>
</g>
<!-- Node1300&#45;&gt;Node1315 -->
<g id="edge15" class="edge">
<title>Node1300&#45;&gt;Node1315</title>
<path fill="none" stroke="#191970" d="M31.6992,-753.7566C41.5377,-770.8538 58.3804,-795.4472 80,-809 85.489,-812.4409 91.399,-815.3935 97.5303,-817.9265"/>
<polygon fill="#191970" stroke="#191970" points="34.6087,-751.7829 26.7327,-744.6963 28.4704,-755.1477 34.6087,-751.7829"/>
</g>
<!-- Node1316 -->
<g id="node17" class="node">
<title>Node1316</title>
<g id="a_node17"><a xlink:href="classCDPL_1_1Math_1_1FRegularSpatialGrid_1_1DataMode.html" target="_top" xlink:title=" ">
<polygon fill="none" stroke="#000000" points="116.5,-769 116.5,-799 264.5,-799 264.5,-769 116.5,-769"/>
<text text-anchor="start" x="124.5" y="-787" font-family="Helvetica,sans-Serif" font-size="10.00" fill="#000000">CDPL.Math.FRegularSpatial</text>
<text text-anchor="middle" x="190.5" y="-776" font-family="Helvetica,sans-Serif" font-size="10.00" fill="#000000">Grid.DataMode</text>
</a>
</g>
</g>
<!-- Node1300&#45;&gt;Node1316 -->
<g id="edge16" class="edge">
<title>Node1300&#45;&gt;Node1316</title>
<path fill="none" stroke="#191970" d="M50.6356,-748.6438C59.866,-752.6879 70.2361,-756.8678 80,-760 91.5897,-763.7179 104.047,-767.0426 116.2718,-769.9466"/>
<polygon fill="#191970" stroke="#191970" points="52.0572,-745.4455 41.5022,-744.5281 49.1814,-751.8275 52.0572,-745.4455"/>
</g>
<!-- Node1317 -->
<g id="node18" class="node">
<title>Node1317</title>
<g id="a_node18"><a xlink:href="classCDPL_1_1Math_1_1FVectorBFGSMinimizer_1_1Status.html" target="_top" xlink:title=" ">
<polygon fill="none" stroke="#000000" points="98.5,-720 98.5,-750 282.5,-750 282.5,-720 98.5,-720"/>
<text text-anchor="start" x="106.5" y="-738" font-family="Helvetica,sans-Serif" font-size="10.00" fill="#000000">CDPL.Math.FVectorBFGSMinimizer.</text>
<text text-anchor="middle" x="190.5" y="-727" font-family="Helvetica,sans-Serif" font-size="10.00" fill="#000000">Status</text>
</a>
</g>
</g>
<!-- Node1300&#45;&gt;Node1317 -->
<g id="edge17" class="edge">
<title>Node1300&#45;&gt;Node1317</title>
<path fill="none" stroke="#191970" d="M54.1181,-735C66.9311,-735 82.3943,-735 98.2389,-735"/>
<polygon fill="#191970" stroke="#191970" points="54.0285,-731.5001 44.0284,-735 54.0284,-738.5001 54.0285,-731.5001"/>
</g>
<!-- Node1318 -->
<g id="node19" class="node">
<title>Node1318</title>
<g id="a_node19"><a xlink:href="classCDPL_1_1Math_1_1Vector2DArrayBFGSMinimizer_1_1Status.html" target="_top" xlink:title=" ">
<polygon fill="none" stroke="#000000" points="81.5,-671 81.5,-701 299.5,-701 299.5,-671 81.5,-671"/>
<text text-anchor="start" x="89.5" y="-689" font-family="Helvetica,sans-Serif" font-size="10.00" fill="#000000">CDPL.Math.Vector2DArrayBFGSMinimizer.</text>
<text text-anchor="middle" x="190.5" y="-678" font-family="Helvetica,sans-Serif" font-size="10.00" fill="#000000">Status</text>
</a>
</g>
</g>
<!-- Node1300&#45;&gt;Node1318 -->
<g id="edge18" class="edge">
<title>Node1300&#45;&gt;Node1318</title>
<path fill="none" stroke="#191970" d="M51.8646,-721.5062C60.7981,-717.7805 70.6943,-713.9544 80,-711 91.5293,-707.3396 103.8963,-703.9952 116.0332,-701.026"/>
<polygon fill="#191970" stroke="#191970" points="50.4371,-718.31 42.622,-725.4636 53.1924,-724.7449 50.4371,-718.31"/>
</g>
<!-- Node1319 -->
<g id="node20" class="node">
<title>Node1319</title>
<g id="a_node20"><a xlink:href="classCDPL_1_1Math_1_1Vector2FArrayBFGSMinimizer_1_1Status.html" target="_top" xlink:title=" ">
<polygon fill="none" stroke="#000000" points="83,-622 83,-652 298,-652 298,-622 83,-622"/>
<text text-anchor="start" x="91" y="-640" font-family="Helvetica,sans-Serif" font-size="10.00" fill="#000000">CDPL.Math.Vector2FArrayBFGSMinimizer.</text>
<text text-anchor="middle" x="190.5" y="-629" font-family="Helvetica,sans-Serif" font-size="10.00" fill="#000000">Status</text>
</a>
</g>
</g>
<!-- Node1300&#45;&gt;Node1319 -->
<g id="edge19" class="edge">
<title>Node1300&#45;&gt;Node1319</title>
<path fill="none" stroke="#191970" d="M31.7874,-716.5385C41.6888,-699.702 58.5744,-675.4612 80,-662 86.1622,-658.1284 92.8514,-654.8538 99.7866,-652.0843"/>
<polygon fill="#191970" stroke="#191970" points="28.6235,-715.0248 26.7833,-725.4586 34.7285,-718.4497 28.6235,-715.0248"/>
</g>
<!-- Node1320 -->
<g id="node21" class="node">
<title>Node1320</title>
<g id="a_node21"><a xlink:href="classCDPL_1_1Math_1_1Vector3DArrayBFGSMinimizer_1_1Status.html" target="_top" xlink:title=" ">
<polygon fill="none" stroke="#000000" points="81.5,-573 81.5,-603 299.5,-603 299.5,-573 81.5,-573"/>
<text text-anchor="start" x="89.5" y="-591" font-family="Helvetica,sans-Serif" font-size="10.00" fill="#000000">CDPL.Math.Vector3DArrayBFGSMinimizer.</text>
<text text-anchor="middle" x="190.5" y="-580" font-family="Helvetica,sans-Serif" font-size="10.00" fill="#000000">Status</text>
</a>
</g>
</g>
<!-- Node1300&#45;&gt;Node1320 -->
<g id="edge20" class="edge">
<title>Node1300&#45;&gt;Node1320</title>
<path fill="none" stroke="#191970" d="M25.7495,-715.3792C32.0237,-688.1029 47.3264,-639.1397 80,-613 84.838,-609.1295 90.1584,-605.833 95.7692,-603.0278"/>
<polygon fill="#191970" stroke="#191970" points="22.2959,-714.7939 23.6484,-725.302 29.144,-716.244 22.2959,-714.7939"/>
</g>
<!-- Node1321 -->
<g id="node22" class="node">
<title>Node1321</title>
<g id="a_node22"><a xlink:href="classCDPL_1_1Math_1_1Vector3FArrayBFGSMinimizer_1_1Status.html" target="_top" xlink:title=" ">
<polygon fill="none" stroke="#000000" points="83,-524 83,-554 298,-554 298,-524 83,-524"/>
<text text-anchor="start" x="91" y="-542" font-family="Helvetica,sans-Serif" font-size="10.00" fill="#000000">CDPL.Math.Vector3FArrayBFGSMinimizer.</text>
<text text-anchor="middle" x="190.5" y="-531" font-family="Helvetica,sans-Serif" font-size="10.00" fill="#000000">Status</text>
</a>
</g>
</g>
<!-- Node1300&#45;&gt;Node1321 -->
<g id="edge21" class="edge">
<title>Node1300&#45;&gt;Node1321</title>
<path fill="none" stroke="#191970" d="M26.1067,-715.4997C34.9798,-675.188 57.0041,-584.7101 80,-564 84.2385,-560.1828 88.9347,-556.9097 93.9305,-554.1063"/>
<polygon fill="#191970" stroke="#191970" points="22.6499,-714.9265 23.9629,-725.4397 29.4926,-716.4024 22.6499,-714.9265"/>
</g>
<!-- Node1322 -->
<g id="node23" class="node">
<title>Node1322</title>
<g id="a_node23"><a xlink:href="classCDPL_1_1Pharm_1_1DefaultPharmacophoreGenerator_1_1Configuration.html" target="_top" xlink:title="Flags controlling feature generation.">
<polygon fill="none" stroke="#000000" points="94.5,-475 94.5,-505 286.5,-505 286.5,-475 94.5,-475"/>
<text text-anchor="start" x="102.5" y="-493" font-family="Helvetica,sans-Serif" font-size="10.00" fill="#000000">CDPL.Pharm.DefaultPharmacophore</text>
<text text-anchor="middle" x="190.5" y="-482" font-family="Helvetica,sans-Serif" font-size="10.00" fill="#000000">Generator.Configuration</text>
</a>
</g>
</g>
<!-- Node1300&#45;&gt;Node1322 -->
<g id="edge22" class="edge">
<title>Node1300&#45;&gt;Node1322</title>
<path fill="none" stroke="#191970" d="M24.5598,-715.3472C31.2786,-666.7919 50.9281,-543.0641 80,-515 84.3161,-510.8335 89.1722,-507.305 94.3785,-504.3215"/>
<polygon fill="#191970" stroke="#191970" points="21.0603,-715.1101 23.195,-725.4876 27.9977,-716.0438 21.0603,-715.1101"/>
</g>
<!-- Node1323 -->
<g id="node24" class="node">
<title>Node1323</title>
<g id="a_node24"><a xlink:href="classCDPL_1_1Pharm_1_1PatternBasedFeatureGenerator_1_1PatternAtomLabelFlag.html" target="_top" xlink:title=" ">
<polygon fill="none" stroke="#000000" points="100.5,-426 100.5,-456 280.5,-456 280.5,-426 100.5,-426"/>
<text text-anchor="start" x="108.5" y="-444" font-family="Helvetica,sans-Serif" font-size="10.00" fill="#000000">CDPL.Pharm.PatternBasedFeature</text>
<text text-anchor="middle" x="190.5" y="-433" font-family="Helvetica,sans-Serif" font-size="10.00" fill="#000000">Generator.PatternAtomLabelFlag</text>
</a>
</g>
</g>
<!-- Node1300&#45;&gt;Node1323 -->
<g id="edge23" class="edge">
<title>Node1300&#45;&gt;Node1323</title>
<path fill="none" stroke="#191970" d="M23.5566,-715.169C28.357,-659.1667 44.7829,-501.5759 80,-466 85.8809,-460.0592 92.8546,-455.4019 100.3963,-451.7657"/>
<polygon fill="#191970" stroke="#191970" points="20.0612,-714.9701 22.7277,-725.2239 27.0376,-715.5453 20.0612,-714.9701"/>
</g>
<!-- Node1324 -->
<g id="node25" class="node">
<title>Node1324</title>
<g id="a_node25"><a xlink:href="classCDPL_1_1Pharm_1_1ScreeningDBCreator_1_1Mode.html" target="_top" xlink:title=" ">
<polygon fill="none" stroke="#000000" points="87.5,-387.5 87.5,-406.5 293.5,-406.5 293.5,-387.5 87.5,-387.5"/>
<text text-anchor="middle" x="190.5" y="-394.5" font-family="Helvetica,sans-Serif" font-size="10.00" fill="#000000">CDPL.Pharm.ScreeningDBCreator.Mode</text>
</a>
</g>
</g>
<!-- Node1300&#45;&gt;Node1324 -->
<g id="edge24" class="edge">
<title>Node1300&#45;&gt;Node1324</title>
<path fill="none" stroke="#191970" d="M22.7521,-715.2926C25.5623,-652.5942 37.5711,-459.3716 80,-417 84.1385,-412.8671 88.8245,-409.4282 93.8728,-406.5774"/>
<polygon fill="#191970" stroke="#191970" points="19.2498,-715.2775 22.3292,-725.415 26.2437,-715.5698 19.2498,-715.2775"/>
</g>
<!-- Node1325 -->
<g id="node26" class="node">
<title>Node1325</title>
<g id="a_node26"><a xlink:href="classCDPL_1_1Pharm_1_1ScreeningProcessor_1_1HitReportMode.html" target="_top" xlink:title=" ">
<polygon fill="none" stroke="#000000" points="102,-338 102,-368 279,-368 279,-338 102,-338"/>
<text text-anchor="start" x="110" y="-356" font-family="Helvetica,sans-Serif" font-size="10.00" fill="#000000">CDPL.Pharm.ScreeningProcessor.</text>
<text text-anchor="middle" x="190.5" y="-345" font-family="Helvetica,sans-Serif" font-size="10.00" fill="#000000">HitReportMode</text>
</a>
</g>
</g>
<!-- Node1300&#45;&gt;Node1325 -->
<g id="edge25" class="edge">
<title>Node1300&#45;&gt;Node1325</title>
<path fill="none" stroke="#191970" d="M22.4028,-715.1983C24.1908,-647.5997 33.5421,-427.4037 80,-378 86.1982,-371.4088 93.7366,-366.3792 101.9336,-362.5627"/>
<polygon fill="#191970" stroke="#191970" points="18.9006,-715.2554 22.1627,-725.3355 25.8986,-715.4212 18.9006,-715.2554"/>
</g>
<!-- Node1326 -->
<g id="node27" class="node">
<title>Node1326</title>
<g id="a_node27"><a xlink:href="classCDPL_1_1Shape_1_1ScreeningSettings_1_1AlignmentMode.html" target="_top" xlink:title=" ">
<polygon fill="none" stroke="#000000" points="106,-289 106,-319 275,-319 275,-289 106,-289"/>
<text text-anchor="start" x="114" y="-307" font-family="Helvetica,sans-Serif" font-size="10.00" fill="#000000">CDPL.Shape.ScreeningSettings.</text>
<text text-anchor="middle" x="190.5" y="-296" font-family="Helvetica,sans-Serif" font-size="10.00" fill="#000000">AlignmentMode</text>
</a>
</g>
</g>
<!-- Node1300&#45;&gt;Node1326 -->
<g id="edge26" class="edge">
<title>Node1300&#45;&gt;Node1326</title>
<path fill="none" stroke="#191970" d="M23.5266,-715.0875C29.6552,-637.4352 53.4235,-357.8098 80,-329 87.135,-321.2655 96.1137,-315.6719 105.8541,-311.6622"/>
<polygon fill="#191970" stroke="#191970" points="20.0115,-715.1466 22.7243,-725.3882 26.9904,-715.6903 20.0115,-715.1466"/>
</g>
<!-- Node1327 -->
<g id="node28" class="node">
<title>Node1327</title>
<g id="a_node28"><a xlink:href="classCDPL_1_1Shape_1_1ScreeningSettings_1_1ColorFeatureType.html" target="_top" xlink:title=" ">
<polygon fill="none" stroke="#000000" points="106,-240 106,-270 275,-270 275,-240 106,-240"/>
<text text-anchor="start" x="114" y="-258" font-family="Helvetica,sans-Serif" font-size="10.00" fill="#000000">CDPL.Shape.ScreeningSettings.</text>
<text text-anchor="middle" x="190.5" y="-247" font-family="Helvetica,sans-Serif" font-size="10.00" fill="#000000">ColorFeatureType</text>
</a>
</g>
</g>
<!-- Node1300&#45;&gt;Node1327 -->
<g id="edge27" class="edge">
<title>Node1300&#45;&gt;Node1327</title>
<path fill="none" stroke="#191970" d="M23.1871,-715.3861C28.384,-632.385 50.2081,-312.789 80,-280 87.0763,-272.2118 96.021,-266.587 105.744,-262.5614"/>
<polygon fill="#191970" stroke="#191970" points="19.6873,-715.2766 22.565,-725.4732 26.674,-715.7076 19.6873,-715.2766"/>
</g>
<!-- Node1328 -->
<g id="node29" class="node">
<title>Node1328</title>
<g id="a_node29"><a xlink:href="classCDPL_1_1Shape_1_1ScreeningSettings_1_1ScreeningMode.html" target="_top" xlink:title=" ">
<polygon fill="none" stroke="#000000" points="106,-191 106,-221 275,-221 275,-191 106,-191"/>
<text text-anchor="start" x="114" y="-209" font-family="Helvetica,sans-Serif" font-size="10.00" fill="#000000">CDPL.Shape.ScreeningSettings.</text>
<text text-anchor="middle" x="190.5" y="-198" font-family="Helvetica,sans-Serif" font-size="10.00" fill="#000000">ScreeningMode</text>
</a>
</g>
</g>
<!-- Node1300&#45;&gt;Node1328 -->
<g id="edge28" class="edge">
<title>Node1300&#45;&gt;Node1328</title>
<path fill="none" stroke="#191970" d="M22.9377,-715.2711C27.3269,-626.6082 47.0294,-267.7357 80,-231 87.0943,-223.0955 96.1124,-217.4134 105.9269,-213.3678"/>
<polygon fill="#191970" stroke="#191970" points="19.4388,-715.1646 22.4489,-725.3228 26.4305,-715.5046 19.4388,-715.1646"/>
</g>
<!-- Node1329 -->
<g id="node30" class="node">
<title>Node1329</title>
<g id="a_node30"><a xlink:href="classCDPL_1_1Vis_1_1Brush_1_1Style.html" target="_top" xlink:title="Defines constants for supported fill pattern styles.">
<polygon fill="none" stroke="#000000" points="131,-152.5 131,-171.5 250,-171.5 250,-152.5 131,-152.5"/>
<text text-anchor="middle" x="190.5" y="-159.5" font-family="Helvetica,sans-Serif" font-size="10.00" fill="#000000">CDPL.Vis.Brush.Style</text>
</a>
</g>
</g>
<!-- Node1300&#45;&gt;Node1329 -->
<g id="edge29" class="edge">
<title>Node1300&#45;&gt;Node1329</title>
<path fill="none" stroke="#191970" d="M22.693,-715.1343C26.1622,-620.906 42.9647,-221.9048 80,-182 92.9306,-168.0675 112.0402,-161.8465 130.7465,-159.4841"/>
<polygon fill="#191970" stroke="#191970" points="19.1897,-715.1667 22.328,-725.2861 26.1852,-715.4183 19.1897,-715.1667"/>
</g>
<!-- Node1330 -->
<g id="node31" class="node">
<title>Node1330</title>
<g id="a_node31"><a xlink:href="classCDPL_1_1Vis_1_1Path2D_1_1FillRule.html" target="_top" xlink:title="Specifies which method to use for filling closed shapes described by the Path2D object.">
<polygon fill="none" stroke="#000000" points="123,-114.5 123,-133.5 258,-133.5 258,-114.5 123,-114.5"/>
<text text-anchor="middle" x="190.5" y="-121.5" font-family="Helvetica,sans-Serif" font-size="10.00" fill="#000000">CDPL.Vis.Path2D.FillRule</text>
</a>
</g>
</g>
<!-- Node1300&#45;&gt;Node1330 -->
<g id="edge30" class="edge">
<title>Node1300&#45;&gt;Node1330</title>
<path fill="none" stroke="#191970" d="M22.5455,-714.9744C25.4155,-616.4099 40.1737,-185.8288 80,-143 91.1346,-131.026 106.8592,-124.8642 122.9628,-121.9897"/>
<polygon fill="#191970" stroke="#191970" points="19.044,-714.9809 22.2597,-725.0759 26.0412,-715.1789 19.044,-714.9809"/>
</g>
<!-- Node1331 -->
<g id="node32" class="node">
<title>Node1331</title>
<g id="a_node32"><a xlink:href="classCDPL_1_1Vis_1_1Pen_1_1CapStyle.html" target="_top" xlink:title="Defines constants for supported line cap styles.">
<polygon fill="none" stroke="#000000" points="126.5,-76.5 126.5,-95.5 254.5,-95.5 254.5,-76.5 126.5,-76.5"/>
<text text-anchor="middle" x="190.5" y="-83.5" font-family="Helvetica,sans-Serif" font-size="10.00" fill="#000000">CDPL.Vis.Pen.CapStyle</text>
</a>
</g>
</g>
<!-- Node1300&#45;&gt;Node1331 -->
<g id="edge31" class="edge">
<title>Node1300&#45;&gt;Node1331</title>
<path fill="none" stroke="#191970" d="M22.4129,-715.3201C24.728,-613.6569 37.5521,-150.9169 80,-105 91.8923,-92.1358 109.0802,-85.9684 126.3704,-83.3791"/>
<polygon fill="#191970" stroke="#191970" points="18.9116,-715.3463 22.191,-725.4209 25.9099,-715.5002 18.9116,-715.3463"/>
</g>
<!-- Node1332 -->
<g id="node33" class="node">
<title>Node1332</title>
<g id="a_node33"><a xlink:href="classCDPL_1_1Vis_1_1Pen_1_1JoinStyle.html" target="_top" xlink:title="Defines constants for supported line join styles.">
<polygon fill="none" stroke="#000000" points="127,-38.5 127,-57.5 254,-57.5 254,-38.5 127,-38.5"/>
<text text-anchor="middle" x="190.5" y="-45.5" font-family="Helvetica,sans-Serif" font-size="10.00" fill="#000000">CDPL.Vis.Pen.JoinStyle</text>
</a>
</g>
</g>
<!-- Node1300&#45;&gt;Node1332 -->
<g id="edge32" class="edge">
<title>Node1300&#45;&gt;Node1332</title>
<path fill="none" stroke="#191970" d="M22.3073,-715.1375C24.1268,-609.4344 34.9988,-115.9333 80,-67 91.9906,-53.9617 109.4192,-47.792 126.9046,-45.2552"/>
<polygon fill="#191970" stroke="#191970" points="18.8044,-715.2901 22.1395,-725.3463 25.8035,-715.4052 18.8044,-715.2901"/>
</g>
<!-- Node1333 -->
<g id="node34" class="node">
<title>Node1333</title>
<g id="a_node34"><a xlink:href="classCDPL_1_1Vis_1_1Pen_1_1LineStyle.html" target="_top" xlink:title="Defines constants for supported line styles.">
<polygon fill="none" stroke="#000000" points="126,-.5 126,-19.5 255,-19.5 255,-.5 126,-.5"/>
<text text-anchor="middle" x="190.5" y="-7.5" font-family="Helvetica,sans-Serif" font-size="10.00" fill="#000000">CDPL.Vis.Pen.LineStyle</text>
</a>
</g>
</g>
<!-- Node1300&#45;&gt;Node1333 -->
<g id="edge33" class="edge">
<title>Node1300&#45;&gt;Node1333</title>
<path fill="none" stroke="#191970" d="M22.2103,-715.0458C23.5497,-605.5748 32.4294,-80.9687 80,-29 91.6975,-16.221 108.6171,-10.031 125.7141,-7.3931"/>
<polygon fill="#191970" stroke="#191970" points="18.7076,-715.2763 22.0925,-725.3159 25.7071,-715.3567 18.7076,-715.2763"/>
</g>
</g>
</svg>
