<?xml version="1.0" encoding="UTF-8" standalone="no"?>
<!DOCTYPE svg PUBLIC "-//W3C//DTD SVG 1.1//EN"
 "http://www.w3.org/Graphics/SVG/1.1/DTD/svg11.dtd">
<!-- Generated by graphviz version 2.40.1 (0)
 -->
<!-- Title: Graphical Class Hierarchy Pages: 1 -->
<svg width="309pt" height="1375pt"
 viewBox="0.00 0.00 309.00 1375.00" xmlns="http://www.w3.org/2000/svg" xmlns:xlink="http://www.w3.org/1999/xlink">
<g id="graph0" class="graph" transform="scale(1 1) rotate(0) translate(4 1371)">
<title>Graphical Class Hierarchy</title>
<!-- Node1260 -->
<g id="node1" class="node">
<title>Node1260</title>
<g id="a_node1"><a xlink:title=" ">
<polygon fill="none" stroke="#bfbfbf" points="0,-662.5 0,-681.5 44,-681.5 44,-662.5 0,-662.5"/>
<text text-anchor="middle" x="22" y="-669.5" font-family="Helvetica,sans-Serif" font-size="10.00" fill="#000000">enum</text>
</a>
</g>
</g>
<!-- Node0 -->
<g id="node2" class="node">
<title>Node0</title>
<g id="a_node2"><a xlink:href="classCDPL_1_1Base_1_1IOStream_1_1OpenMode.html" target="_top" xlink:title=" ">
<polygon fill="none" stroke="#000000" points="104,-1347.5 104,-1366.5 277,-1366.5 277,-1347.5 104,-1347.5"/>
<text text-anchor="middle" x="190.5" y="-1354.5" font-family="Helvetica,sans-Serif" font-size="10.00" fill="#000000">CDPL.Base.IOStream.OpenMode</text>
</a>
</g>
</g>
<!-- Node1260&#45;&gt;Node0 -->
<g id="edge1" class="edge">
<title>Node1260&#45;&gt;Node0</title>
<path fill="none" stroke="#191970" d="M22.3117,-691.8032C24.1542,-797.1907 35.1262,-1289.2179 80,-1338 86.5892,-1345.1631 94.8197,-1350.2529 103.7991,-1353.806"/>
<polygon fill="#191970" stroke="#191970" points="25.8083,-691.565 22.1417,-681.6249 18.8093,-691.682 25.8083,-691.565"/>
</g>
<!-- Node1262 -->
<g id="node3" class="node">
<title>Node1262</title>
<g id="a_node3"><a xlink:href="classCDPL_1_1Biomol_1_1PDBData_1_1RecordType.html" target="_top" xlink:title=" ">
<polygon fill="none" stroke="#000000" points="98,-1309.5 98,-1328.5 283,-1328.5 283,-1309.5 98,-1309.5"/>
<text text-anchor="middle" x="190.5" y="-1316.5" font-family="Helvetica,sans-Serif" font-size="10.00" fill="#000000">CDPL.Biomol.PDBData.RecordType</text>
</a>
</g>
</g>
<!-- Node1260&#45;&gt;Node1262 -->
<g id="edge2" class="edge">
<title>Node1260&#45;&gt;Node1262</title>
<path fill="none" stroke="#191970" d="M22.4175,-691.6176C24.756,-792.959 37.6791,-1254.2338 80,-1300 85.0881,-1305.5023 91.145,-1309.7793 97.7642,-1313.0752"/>
<polygon fill="#191970" stroke="#191970" points="25.9152,-691.4684 22.1933,-681.5488 18.9169,-691.6243 25.9152,-691.4684"/>
</g>
<!-- Node1263 -->
<g id="node4" class="node">
<title>Node1263</title>
<g id="a_node4"><a xlink:href="classCDPL_1_1Chem_1_1ChEMBLStandardizer_1_1ChangeFlags.html" target="_top" xlink:title=" ">
<polygon fill="none" stroke="#000000" points="101,-1260 101,-1290 280,-1290 280,-1260 101,-1260"/>
<text text-anchor="start" x="109" y="-1278" font-family="Helvetica,sans-Serif" font-size="10.00" fill="#000000">CDPL.Chem.ChEMBLStandardizer.</text>
<text text-anchor="middle" x="190.5" y="-1267" font-family="Helvetica,sans-Serif" font-size="10.00" fill="#000000">ChangeFlags</text>
</a>
</g>
</g>
<!-- Node1260&#45;&gt;Node1263 -->
<g id="edge3" class="edge">
<title>Node1260&#45;&gt;Node1263</title>
<path fill="none" stroke="#191970" d="M22.6246,-691.8479C25.8493,-788.6536 41.9544,-1208.3483 80,-1251 85.8152,-1257.5192 92.9476,-1262.4972 100.7635,-1266.2727"/>
<polygon fill="#191970" stroke="#191970" points="26.1175,-691.5711 22.2946,-681.69 19.1212,-691.7984 26.1175,-691.5711"/>
</g>
<!-- Node1264 -->
<g id="node5" class="node">
<title>Node1264</title>
<g id="a_node5"><a xlink:href="classCDPL_1_1Chem_1_1MatchConstraint_1_1Relation.html" target="_top" xlink:title="Defines constants for the specification of relational constraints on the values of query/target attri...">
<polygon fill="none" stroke="#000000" points="111,-1211 111,-1241 270,-1241 270,-1211 111,-1211"/>
<text text-anchor="start" x="119" y="-1229" font-family="Helvetica,sans-Serif" font-size="10.00" fill="#000000">CDPL.Chem.MatchConstraint.</text>
<text text-anchor="middle" x="190.5" y="-1218" font-family="Helvetica,sans-Serif" font-size="10.00" fill="#000000">Relation</text>
</a>
</g>
</g>
<!-- Node1260&#45;&gt;Node1264 -->
<g id="edge4" class="edge">
<title>Node1260&#45;&gt;Node1264</title>
<path fill="none" stroke="#191970" d="M22.8192,-691.8752C26.7787,-783.6151 45.1818,-1163.3245 80,-1202 88.2749,-1211.1916 99.1691,-1217.3128 110.8923,-1221.318"/>
<polygon fill="#191970" stroke="#191970" points="26.3098,-691.5767 22.3903,-681.7336 19.3161,-691.8726 26.3098,-691.5767"/>
</g>
<!-- Node1265 -->
<g id="node6" class="node">
<title>Node1265</title>
<g id="a_node6"><a xlink:href="classCDPL_1_1Chem_1_1MatchConstraintList_1_1Type.html" target="_top" xlink:title="Defines constants that describe the logical type of the match constraint list.">
<polygon fill="none" stroke="#000000" points="112.5,-1162 112.5,-1192 268.5,-1192 268.5,-1162 112.5,-1162"/>
<text text-anchor="start" x="120.5" y="-1180" font-family="Helvetica,sans-Serif" font-size="10.00" fill="#000000">CDPL.Chem.MatchConstraint</text>
<text text-anchor="middle" x="190.5" y="-1169" font-family="Helvetica,sans-Serif" font-size="10.00" fill="#000000">List.Type</text>
</a>
</g>
</g>
<!-- Node1260&#45;&gt;Node1265 -->
<g id="edge5" class="edge">
<title>Node1260&#45;&gt;Node1265</title>
<path fill="none" stroke="#191970" d="M23.0395,-691.6465C27.7652,-777.6533 48.3682,-1118.2503 80,-1153 88.6557,-1162.5089 100.1159,-1168.7231 112.3789,-1172.706"/>
<polygon fill="#191970" stroke="#191970" points="26.534,-691.4488 22.4994,-681.6522 19.5442,-691.8266 26.534,-691.4488"/>
</g>
<!-- Node1266 -->
<g id="node7" class="node">
<title>Node1266</title>
<g id="a_node7"><a xlink:href="classCDPL_1_1Chem_1_1ProtonationStateStandardizer_1_1Flavor.html" target="_top" xlink:title=" ">
<polygon fill="none" stroke="#000000" points="111.5,-1113 111.5,-1143 269.5,-1143 269.5,-1113 111.5,-1113"/>
<text text-anchor="start" x="119.5" y="-1131" font-family="Helvetica,sans-Serif" font-size="10.00" fill="#000000">CDPL.Chem.ProtonationState</text>
<text text-anchor="middle" x="190.5" y="-1120" font-family="Helvetica,sans-Serif" font-size="10.00" fill="#000000">Standardizer.Flavor</text>
</a>
</g>
</g>
<!-- Node1260&#45;&gt;Node1266 -->
<g id="edge6" class="edge">
<title>Node1260&#45;&gt;Node1266</title>
<path fill="none" stroke="#191970" d="M23.3673,-692.1026C29.0497,-773.042 51.8249,-1072.207 80,-1103 88.4312,-1112.2146 99.4785,-1118.396 111.3253,-1122.4822"/>
<polygon fill="#191970" stroke="#191970" points="26.8365,-691.5366 22.6543,-681.8021 19.8532,-692.02 26.8365,-691.5366"/>
</g>
<!-- Node1267 -->
<g id="node8" class="node">
<title>Node1267</title>
<g id="a_node8"><a xlink:href="classCDPL_1_1Chem_1_1TautomerGenerator_1_1Mode.html" target="_top" xlink:title=" ">
<polygon fill="none" stroke="#000000" points="90.5,-1074.5 90.5,-1093.5 290.5,-1093.5 290.5,-1074.5 90.5,-1074.5"/>
<text text-anchor="middle" x="190.5" y="-1081.5" font-family="Helvetica,sans-Serif" font-size="10.00" fill="#000000">CDPL.Chem.TautomerGenerator.Mode</text>
</a>
</g>
</g>
<!-- Node1260&#45;&gt;Node1267 -->
<g id="edge7" class="edge">
<title>Node1260&#45;&gt;Node1267</title>
<path fill="none" stroke="#191970" d="M23.5696,-691.8082C29.7723,-767.8137 53.5318,-1037.8954 80,-1065 83.5359,-1068.621 87.4934,-1071.7024 91.7504,-1074.3165"/>
<polygon fill="#191970" stroke="#191970" points="27.0468,-691.3832 22.7552,-681.6965 20.0694,-691.9453 27.0468,-691.3832"/>
</g>
<!-- Node1268 -->
<g id="node9" class="node">
<title>Node1268</title>
<g id="a_node9"><a xlink:href="classCDPL_1_1Descr_1_1MoleculeAutoCorr2DDescriptorCalculator_1_1Mode.html" target="_top" xlink:title=" ">
<polygon fill="none" stroke="#000000" points="107,-1025 107,-1055 274,-1055 274,-1025 107,-1025"/>
<text text-anchor="start" x="115" y="-1043" font-family="Helvetica,sans-Serif" font-size="10.00" fill="#000000">CDPL.Descr.MoleculeAutoCorr2</text>
<text text-anchor="middle" x="190.5" y="-1032" font-family="Helvetica,sans-Serif" font-size="10.00" fill="#000000">DDescriptorCalculator.Mode</text>
</a>
</g>
</g>
<!-- Node1260&#45;&gt;Node1268 -->
<g id="edge8" class="edge">
<title>Node1260&#45;&gt;Node1268</title>
<path fill="none" stroke="#191970" d="M22.5253,-691.9405C24.685,-758.1077 35.0348,-968.8777 80,-1016 87.4539,-1023.8115 96.8054,-1029.3742 106.8951,-1033.294"/>
<polygon fill="#191970" stroke="#191970" points="26.0151,-691.5442 22.2191,-681.6528 19.0182,-691.7525 26.0151,-691.5442"/>
</g>
<!-- Node1269 -->
<g id="node10" class="node">
<title>Node1269</title>
<g id="a_node10"><a xlink:href="classCDPL_1_1ForceField_1_1MMFF94VanDerWaalsInteraction_1_1HDonorAcceptorType.html" target="_top" xlink:title=" ">
<polygon fill="none" stroke="#000000" points="80,-976 80,-1006 301,-1006 301,-976 80,-976"/>
<text text-anchor="start" x="88" y="-994" font-family="Helvetica,sans-Serif" font-size="10.00" fill="#000000">CDPL.ForceField.MMFF94Van</text>
<text text-anchor="middle" x="190.5" y="-983" font-family="Helvetica,sans-Serif" font-size="10.00" fill="#000000">DerWaalsInteraction.HDonorAcceptorType</text>
</a>
</g>
</g>
<!-- Node1260&#45;&gt;Node1269 -->
<g id="edge9" class="edge">
<title>Node1260&#45;&gt;Node1269</title>
<path fill="none" stroke="#191970" d="M23.1266,-691.7762C26.9299,-751.3663 41.2936,-927.5219 80,-967 83.2985,-970.3643 86.9497,-973.3087 90.8585,-975.8824"/>
<polygon fill="#191970" stroke="#191970" points="26.6191,-691.5443 22.5192,-681.7749 19.632,-691.9687 26.6191,-691.5443"/>
</g>
<!-- Node1270 -->
<g id="node11" class="node">
<title>Node1270</title>
<g id="a_node11"><a xlink:href="classCDPL_1_1GRAIL_1_1BindingAffinityCalculator_1_1AffinityMeasure.html" target="_top" xlink:title=" ">
<polygon fill="none" stroke="#000000" points="116,-927 116,-957 265,-957 265,-927 116,-927"/>
<text text-anchor="start" x="124" y="-945" font-family="Helvetica,sans-Serif" font-size="10.00" fill="#000000">CDPL.GRAIL.BindingAffinity</text>
<text text-anchor="middle" x="190.5" y="-934" font-family="Helvetica,sans-Serif" font-size="10.00" fill="#000000">Calculator.AffinityMeasure</text>
</a>
</g>
</g>
<!-- Node1260&#45;&gt;Node1270 -->
<g id="edge10" class="edge">
<title>Node1260&#45;&gt;Node1270</title>
<path fill="none" stroke="#191970" d="M23.939,-691.5135C29.546,-743.9424 47.4859,-886.0554 80,-918 89.8025,-927.6308 102.5061,-933.7891 115.7914,-937.654"/>
<polygon fill="#191970" stroke="#191970" points="27.4136,-691.0868 22.9031,-681.5 20.4508,-691.8072 27.4136,-691.0868"/>
</g>
<!-- Node1271 -->
<g id="node12" class="node">
<title>Node1271</title>
<g id="a_node12"><a xlink:href="classCDPL_1_1GRAIL_1_1GRAILDescriptorCalculator_1_1ElementIndex.html" target="_top" xlink:title=" ">
<polygon fill="none" stroke="#000000" points="113,-878 113,-908 268,-908 268,-878 113,-878"/>
<text text-anchor="start" x="121" y="-896" font-family="Helvetica,sans-Serif" font-size="10.00" fill="#000000">CDPL.GRAIL.GRAILDescriptor</text>
<text text-anchor="middle" x="190.5" y="-885" font-family="Helvetica,sans-Serif" font-size="10.00" fill="#000000">Calculator.ElementIndex</text>
</a>
</g>
</g>
<!-- Node1260&#45;&gt;Node1271 -->
<g id="edge11" class="edge">
<title>Node1260&#45;&gt;Node1271</title>
<path fill="none" stroke="#191970" d="M25.2515,-692.0141C32.9773,-737.1035 53.7666,-844.6016 80,-869 89.2001,-877.5565 100.7063,-883.3348 112.7907,-887.1891"/>
<polygon fill="#191970" stroke="#191970" points="28.6756,-691.2692 23.5735,-681.9839 21.7716,-692.4243 28.6756,-691.2692"/>
</g>
<!-- Node1272 -->
<g id="node13" class="node">
<title>Node1272</title>
<g id="a_node13"><a xlink:href="classCDPL_1_1Math_1_1DRegularSpatialGrid_1_1DataMode.html" target="_top" xlink:title=" ">
<polygon fill="none" stroke="#000000" points="115.5,-829 115.5,-859 265.5,-859 265.5,-829 115.5,-829"/>
<text text-anchor="start" x="123.5" y="-847" font-family="Helvetica,sans-Serif" font-size="10.00" fill="#000000">CDPL.Math.DRegularSpatial</text>
<text text-anchor="middle" x="190.5" y="-836" font-family="Helvetica,sans-Serif" font-size="10.00" fill="#000000">Grid.DataMode</text>
</a>
</g>
</g>
<!-- Node1260&#45;&gt;Node1272 -->
<g id="edge12" class="edge">
<title>Node1260&#45;&gt;Node1272</title>
<path fill="none" stroke="#191970" d="M23.924,-692.0676C28.1179,-724.176 41.0831,-786.8474 80,-820 90.0872,-828.5931 102.5372,-834.3232 115.4028,-838.1027"/>
<polygon fill="#191970" stroke="#191970" points="27.3559,-691.2706 22.744,-681.7322 20.4011,-692.0648 27.3559,-691.2706"/>
</g>
<!-- Node1273 -->
<g id="node14" class="node">
<title>Node1273</title>
<g id="a_node14"><a xlink:href="classCDPL_1_1Math_1_1DVectorBFGSMinimizer_1_1Status.html" target="_top" xlink:title=" ">
<polygon fill="none" stroke="#000000" points="97.5,-780 97.5,-810 283.5,-810 283.5,-780 97.5,-780"/>
<text text-anchor="start" x="105.5" y="-798" font-family="Helvetica,sans-Serif" font-size="10.00" fill="#000000">CDPL.Math.DVectorBFGSMinimizer.</text>
<text text-anchor="middle" x="190.5" y="-787" font-family="Helvetica,sans-Serif" font-size="10.00" fill="#000000">Status</text>
</a>
</g>
</g>
<!-- Node1260&#45;&gt;Node1273 -->
<g id="edge13" class="edge">
<title>Node1260&#45;&gt;Node1273</title>
<path fill="none" stroke="#191970" d="M27.9475,-691.2544C35.9904,-713.9583 52.5737,-751.1139 80,-771 85.3242,-774.8604 91.1472,-778.1215 97.2472,-780.874"/>
<polygon fill="#191970" stroke="#191970" points="31.2398,-690.063 24.7597,-681.6809 24.5983,-692.2745 31.2398,-690.063"/>
</g>
<!-- Node1274 -->
<g id="node15" class="node">
<title>Node1274</title>
<g id="a_node15"><a xlink:href="classCDPL_1_1Math_1_1FRegularSpatialGrid_1_1DataMode.html" target="_top" xlink:title=" ">
<polygon fill="none" stroke="#000000" points="116.5,-731 116.5,-761 264.5,-761 264.5,-731 116.5,-731"/>
<text text-anchor="start" x="124.5" y="-749" font-family="Helvetica,sans-Serif" font-size="10.00" fill="#000000">CDPL.Math.FRegularSpatial</text>
<text text-anchor="middle" x="190.5" y="-738" font-family="Helvetica,sans-Serif" font-size="10.00" fill="#000000">Grid.DataMode</text>
</a>
</g>
</g>
<!-- Node1260&#45;&gt;Node1274 -->
<g id="edge14" class="edge">
<title>Node1260&#45;&gt;Node1274</title>
<path fill="none" stroke="#191970" d="M37.4293,-689.1469C48.2824,-700.1634 63.7255,-713.8827 80,-722 91.2431,-727.6078 103.7709,-731.9117 116.2384,-735.2131"/>
<polygon fill="#191970" stroke="#191970" points="39.811,-686.5719 30.3915,-681.7217 34.7304,-691.3873 39.811,-686.5719"/>
</g>
<!-- Node1275 -->
<g id="node16" class="node">
<title>Node1275</title>
<g id="a_node16"><a xlink:href="classCDPL_1_1Math_1_1FVectorBFGSMinimizer_1_1Status.html" target="_top" xlink:title=" ">
<polygon fill="none" stroke="#000000" points="98.5,-682 98.5,-712 282.5,-712 282.5,-682 98.5,-682"/>
<text text-anchor="start" x="106.5" y="-700" font-family="Helvetica,sans-Serif" font-size="10.00" fill="#000000">CDPL.Math.FVectorBFGSMinimizer.</text>
<text text-anchor="middle" x="190.5" y="-689" font-family="Helvetica,sans-Serif" font-size="10.00" fill="#000000">Status</text>
</a>
</g>
</g>
<!-- Node1260&#45;&gt;Node1275 -->
<g id="edge15" class="edge">
<title>Node1260&#45;&gt;Node1275</title>
<path fill="none" stroke="#191970" d="M54.1181,-676.7653C66.9311,-678.6663 82.3943,-680.9606 98.2389,-683.3114"/>
<polygon fill="#191970" stroke="#191970" points="54.4338,-673.2739 44.0284,-675.2683 53.4065,-680.1981 54.4338,-673.2739"/>
</g>
<!-- Node1276 -->
<g id="node17" class="node">
<title>Node1276</title>
<g id="a_node17"><a xlink:href="classCDPL_1_1Math_1_1Vector2DArrayBFGSMinimizer_1_1Status.html" target="_top" xlink:title=" ">
<polygon fill="none" stroke="#000000" points="81.5,-633 81.5,-663 299.5,-663 299.5,-633 81.5,-633"/>
<text text-anchor="start" x="89.5" y="-651" font-family="Helvetica,sans-Serif" font-size="10.00" fill="#000000">CDPL.Math.Vector2DArrayBFGSMinimizer.</text>
<text text-anchor="middle" x="190.5" y="-640" font-family="Helvetica,sans-Serif" font-size="10.00" fill="#000000">Status</text>
</a>
</g>
</g>
<!-- Node1260&#45;&gt;Node1276 -->
<g id="edge16" class="edge">
<title>Node1260&#45;&gt;Node1276</title>
<path fill="none" stroke="#191970" d="M54.1662,-667.4185C63.3802,-666.1061 73.962,-664.5989 85.069,-663.0169"/>
<polygon fill="#191970" stroke="#191970" points="53.435,-663.9872 44.0284,-668.8624 54.4221,-670.9173 53.435,-663.9872"/>
</g>
<!-- Node1277 -->
<g id="node18" class="node">
<title>Node1277</title>
<g id="a_node18"><a xlink:href="classCDPL_1_1Math_1_1Vector2FArrayBFGSMinimizer_1_1Status.html" target="_top" xlink:title=" ">
<polygon fill="none" stroke="#000000" points="83,-584 83,-614 298,-614 298,-584 83,-584"/>
<text text-anchor="start" x="91" y="-602" font-family="Helvetica,sans-Serif" font-size="10.00" fill="#000000">CDPL.Math.Vector2FArrayBFGSMinimizer.</text>
<text text-anchor="middle" x="190.5" y="-591" font-family="Helvetica,sans-Serif" font-size="10.00" fill="#000000">Status</text>
</a>
</g>
</g>
<!-- Node1260&#45;&gt;Node1277 -->
<g id="edge17" class="edge">
<title>Node1260&#45;&gt;Node1277</title>
<path fill="none" stroke="#191970" d="M37.9653,-655.2279C48.8592,-644.7433 64.1429,-631.7956 80,-624 87.8548,-620.1385 96.3177,-616.864 104.94,-614.0892"/>
<polygon fill="#191970" stroke="#191970" points="35.4674,-652.7759 30.8632,-662.318 40.413,-657.7298 35.4674,-652.7759"/>
</g>
<!-- Node1278 -->
<g id="node19" class="node">
<title>Node1278</title>
<g id="a_node19"><a xlink:href="classCDPL_1_1Math_1_1Vector3DArrayBFGSMinimizer_1_1Status.html" target="_top" xlink:title=" ">
<polygon fill="none" stroke="#000000" points="81.5,-535 81.5,-565 299.5,-565 299.5,-535 81.5,-535"/>
<text text-anchor="start" x="89.5" y="-553" font-family="Helvetica,sans-Serif" font-size="10.00" fill="#000000">CDPL.Math.Vector3DArrayBFGSMinimizer.</text>
<text text-anchor="middle" x="190.5" y="-542" font-family="Helvetica,sans-Serif" font-size="10.00" fill="#000000">Status</text>
</a>
</g>
</g>
<!-- Node1260&#45;&gt;Node1278 -->
<g id="edge18" class="edge">
<title>Node1260&#45;&gt;Node1278</title>
<path fill="none" stroke="#191970" d="M28.3229,-652.5259C36.5857,-630.2607 53.2407,-594.3959 80,-575 85.335,-571.133 91.166,-567.85 97.2717,-565.0643"/>
<polygon fill="#191970" stroke="#191970" points="24.9261,-651.6371 24.9333,-662.2319 31.5346,-653.9451 24.9261,-651.6371"/>
</g>
<!-- Node1279 -->
<g id="node20" class="node">
<title>Node1279</title>
<g id="a_node20"><a xlink:href="classCDPL_1_1Math_1_1Vector3FArrayBFGSMinimizer_1_1Status.html" target="_top" xlink:title=" ">
<polygon fill="none" stroke="#000000" points="83,-486 83,-516 298,-516 298,-486 83,-486"/>
<text text-anchor="start" x="91" y="-504" font-family="Helvetica,sans-Serif" font-size="10.00" fill="#000000">CDPL.Math.Vector3FArrayBFGSMinimizer.</text>
<text text-anchor="middle" x="190.5" y="-493" font-family="Helvetica,sans-Serif" font-size="10.00" fill="#000000">Status</text>
</a>
</g>
</g>
<!-- Node1260&#45;&gt;Node1279 -->
<g id="edge19" class="edge">
<title>Node1260&#45;&gt;Node1279</title>
<path fill="none" stroke="#191970" d="M24.0434,-652.2349C28.4058,-620.6045 41.6039,-558.8411 80,-526 84.4841,-522.1646 89.4348,-518.8848 94.6811,-516.0831"/>
<polygon fill="#191970" stroke="#191970" points="20.5382,-652.0661 22.8056,-662.4154 27.487,-652.911 20.5382,-652.0661"/>
</g>
<!-- Node1280 -->
<g id="node21" class="node">
<title>Node1280</title>
<g id="a_node21"><a xlink:href="classCDPL_1_1Pharm_1_1DefaultPharmacophoreGenerator_1_1Configuration.html" target="_top" xlink:title="Flags controlling feature generation.">
<polygon fill="none" stroke="#000000" points="94.5,-437 94.5,-467 286.5,-467 286.5,-437 94.5,-437"/>
<text text-anchor="start" x="102.5" y="-455" font-family="Helvetica,sans-Serif" font-size="10.00" fill="#000000">CDPL.Pharm.DefaultPharmacophore</text>
<text text-anchor="middle" x="190.5" y="-444" font-family="Helvetica,sans-Serif" font-size="10.00" fill="#000000">Generator.Configuration</text>
</a>
</g>
</g>
<!-- Node1260&#45;&gt;Node1280 -->
<g id="edge20" class="edge">
<title>Node1260&#45;&gt;Node1280</title>
<path fill="none" stroke="#191970" d="M25.2953,-652.2024C33.113,-607.5986 54.0824,-501.2464 80,-477 84.309,-472.9688 89.1256,-469.5392 94.2716,-466.6253"/>
<polygon fill="#191970" stroke="#191970" points="21.8344,-651.677 23.5961,-662.1244 28.734,-652.8587 21.8344,-651.677"/>
</g>
<!-- Node1281 -->
<g id="node22" class="node">
<title>Node1281</title>
<g id="a_node22"><a xlink:href="classCDPL_1_1Pharm_1_1PatternBasedFeatureGenerator_1_1PatternAtomLabelFlag.html" target="_top" xlink:title=" ">
<polygon fill="none" stroke="#000000" points="100.5,-388 100.5,-418 280.5,-418 280.5,-388 100.5,-388"/>
<text text-anchor="start" x="108.5" y="-406" font-family="Helvetica,sans-Serif" font-size="10.00" fill="#000000">CDPL.Pharm.PatternBasedFeature</text>
<text text-anchor="middle" x="190.5" y="-395" font-family="Helvetica,sans-Serif" font-size="10.00" fill="#000000">Generator.PatternAtomLabelFlag</text>
</a>
</g>
</g>
<!-- Node1260&#45;&gt;Node1281 -->
<g id="edge21" class="edge">
<title>Node1260&#45;&gt;Node1281</title>
<path fill="none" stroke="#191970" d="M24.0157,-652.3074C29.7625,-600.0577 47.9163,-459.7367 80,-428 85.873,-422.1905 92.7933,-417.6143 100.259,-414.0232"/>
<polygon fill="#191970" stroke="#191970" points="20.5294,-651.9942 22.9505,-662.3087 27.49,-652.7356 20.5294,-651.9942"/>
</g>
<!-- Node1282 -->
<g id="node23" class="node">
<title>Node1282</title>
<g id="a_node23"><a xlink:href="classCDPL_1_1Pharm_1_1ScreeningDBCreator_1_1Mode.html" target="_top" xlink:title=" ">
<polygon fill="none" stroke="#000000" points="87.5,-349.5 87.5,-368.5 293.5,-368.5 293.5,-349.5 87.5,-349.5"/>
<text text-anchor="middle" x="190.5" y="-356.5" font-family="Helvetica,sans-Serif" font-size="10.00" fill="#000000">CDPL.Pharm.ScreeningDBCreator.Mode</text>
</a>
</g>
</g>
<!-- Node1260&#45;&gt;Node1282 -->
<g id="edge22" class="edge">
<title>Node1260&#45;&gt;Node1282</title>
<path fill="none" stroke="#191970" d="M23.1097,-651.9245C26.8336,-592.2048 40.9258,-417.4398 80,-379 84.2389,-374.83 89.0362,-371.3697 94.1987,-368.5092"/>
<polygon fill="#191970" stroke="#191970" points="19.595,-652.071 22.4988,-662.2601 26.5828,-652.484 19.595,-652.071"/>
</g>
<!-- Node1283 -->
<g id="node24" class="node">
<title>Node1283</title>
<g id="a_node24"><a xlink:href="classCDPL_1_1Pharm_1_1ScreeningProcessor_1_1HitReportMode.html" target="_top" xlink:title=" ">
<polygon fill="none" stroke="#000000" points="102,-300 102,-330 279,-330 279,-300 102,-300"/>
<text text-anchor="start" x="110" y="-318" font-family="Helvetica,sans-Serif" font-size="10.00" fill="#000000">CDPL.Pharm.ScreeningProcessor.</text>
<text text-anchor="middle" x="190.5" y="-307" font-family="Helvetica,sans-Serif" font-size="10.00" fill="#000000">HitReportMode</text>
</a>
</g>
</g>
<!-- Node1260&#45;&gt;Node1283 -->
<g id="edge23" class="edge">
<title>Node1260&#45;&gt;Node1283</title>
<path fill="none" stroke="#191970" d="M22.6637,-652.3412C25.2422,-588.0385 36.716,-385.4835 80,-340 86.1695,-333.5171 93.6365,-328.5489 101.745,-324.7617"/>
<polygon fill="#191970" stroke="#191970" points="19.1651,-652.2412 22.2905,-662.3645 26.1602,-652.5017 19.1651,-652.2412"/>
</g>
<!-- Node1284 -->
<g id="node25" class="node">
<title>Node1284</title>
<g id="a_node25"><a xlink:href="classCDPL_1_1Shape_1_1ScreeningSettings_1_1AlignmentMode.html" target="_top" xlink:title=" ">
<polygon fill="none" stroke="#000000" points="106,-251 106,-281 275,-281 275,-251 106,-251"/>
<text text-anchor="start" x="114" y="-269" font-family="Helvetica,sans-Serif" font-size="10.00" fill="#000000">CDPL.Shape.ScreeningSettings.</text>
<text text-anchor="middle" x="190.5" y="-258" font-family="Helvetica,sans-Serif" font-size="10.00" fill="#000000">AlignmentMode</text>
</a>
</g>
</g>
<!-- Node1260&#45;&gt;Node1284 -->
<g id="edge24" class="edge">
<title>Node1260&#45;&gt;Node1284</title>
<path fill="none" stroke="#191970" d="M23.7389,-651.8945C30.3849,-577.0898 55.062,-317.786 80,-291 87.1704,-283.2983 96.1698,-277.7238 105.9206,-273.7238"/>
<polygon fill="#191970" stroke="#191970" points="20.2176,-651.9844 22.8298,-662.2522 27.1908,-652.5965 20.2176,-651.9844"/>
</g>
<!-- Node1285 -->
<g id="node26" class="node">
<title>Node1285</title>
<g id="a_node26"><a xlink:href="classCDPL_1_1Shape_1_1ScreeningSettings_1_1ColorFeatureType.html" target="_top" xlink:title=" ">
<polygon fill="none" stroke="#000000" points="106,-202 106,-232 275,-232 275,-202 106,-202"/>
<text text-anchor="start" x="114" y="-220" font-family="Helvetica,sans-Serif" font-size="10.00" fill="#000000">CDPL.Shape.ScreeningSettings.</text>
<text text-anchor="middle" x="190.5" y="-209" font-family="Helvetica,sans-Serif" font-size="10.00" fill="#000000">ColorFeatureType</text>
</a>
</g>
</g>
<!-- Node1260&#45;&gt;Node1285 -->
<g id="edge25" class="edge">
<title>Node1260&#45;&gt;Node1285</title>
<path fill="none" stroke="#191970" d="M23.3706,-651.9438C29.0659,-571.1916 51.8844,-272.7185 80,-242 87.1046,-234.2376 96.0658,-228.6278 105.7972,-224.6099"/>
<polygon fill="#191970" stroke="#191970" points="19.8582,-652.0018 22.6559,-662.2205 26.8413,-652.4874 19.8582,-652.0018"/>
</g>
<!-- Node1286 -->
<g id="node27" class="node">
<title>Node1286</title>
<g id="a_node27"><a xlink:href="classCDPL_1_1Shape_1_1ScreeningSettings_1_1ScreeningMode.html" target="_top" xlink:title=" ">
<polygon fill="none" stroke="#000000" points="106,-153 106,-183 275,-183 275,-153 106,-153"/>
<text text-anchor="start" x="114" y="-171" font-family="Helvetica,sans-Serif" font-size="10.00" fill="#000000">CDPL.Shape.ScreeningSettings.</text>
<text text-anchor="middle" x="190.5" y="-160" font-family="Helvetica,sans-Serif" font-size="10.00" fill="#000000">ScreeningMode</text>
</a>
</g>
</g>
<!-- Node1260&#45;&gt;Node1286 -->
<g id="edge26" class="edge">
<title>Node1260&#45;&gt;Node1286</title>
<path fill="none" stroke="#191970" d="M23.0673,-652.1786C27.8764,-566.1273 48.6708,-227.6996 80,-193 87.1177,-185.1166 96.1493,-179.4466 105.9706,-175.4071"/>
<polygon fill="#191970" stroke="#191970" points="19.5601,-652.214 22.5059,-662.391 26.5496,-652.5982 19.5601,-652.214"/>
</g>
<!-- Node1287 -->
<g id="node28" class="node">
<title>Node1287</title>
<g id="a_node28"><a xlink:href="classCDPL_1_1Vis_1_1Brush_1_1Style.html" target="_top" xlink:title="Defines constants for supported fill pattern styles.">
<polygon fill="none" stroke="#000000" points="131,-114.5 131,-133.5 250,-133.5 250,-114.5 131,-114.5"/>
<text text-anchor="middle" x="190.5" y="-121.5" font-family="Helvetica,sans-Serif" font-size="10.00" fill="#000000">CDPL.Vis.Brush.Style</text>
</a>
</g>
</g>
<!-- Node1260&#45;&gt;Node1287 -->
<g id="edge27" class="edge">
<title>Node1260&#45;&gt;Node1287</title>
<path fill="none" stroke="#191970" d="M22.7951,-652.1726C26.6466,-560.6565 44.6384,-181.9144 80,-144 92.9648,-130.0993 112.0825,-123.8859 130.7858,-121.5207"/>
<polygon fill="#191970" stroke="#191970" points="19.293,-652.1539 22.3783,-662.2896 26.2871,-652.4422 19.293,-652.1539"/>
</g>
<!-- Node1288 -->
<g id="node29" class="node">
<title>Node1288</title>
<g id="a_node29"><a xlink:href="classCDPL_1_1Vis_1_1Pen_1_1CapStyle.html" target="_top" xlink:title="Defines constants for supported line cap styles.">
<polygon fill="none" stroke="#000000" points="126.5,-76.5 126.5,-95.5 254.5,-95.5 254.5,-76.5 126.5,-76.5"/>
<text text-anchor="middle" x="190.5" y="-83.5" font-family="Helvetica,sans-Serif" font-size="10.00" fill="#000000">CDPL.Vis.Pen.CapStyle</text>
</a>
</g>
</g>
<!-- Node1260&#45;&gt;Node1288 -->
<g id="edge28" class="edge">
<title>Node1260&#45;&gt;Node1288</title>
<path fill="none" stroke="#191970" d="M22.6277,-652.2385C25.8438,-556.7298 41.8292,-145.8728 80,-105 91.9573,-92.1962 109.1646,-86.0468 126.4525,-83.4553"/>
<polygon fill="#191970" stroke="#191970" points="19.1212,-652.3843 22.2913,-662.4937 26.1174,-652.6139 19.1212,-652.3843"/>
</g>
<!-- Node1289 -->
<g id="node30" class="node">
<title>Node1289</title>
<g id="a_node30"><a xlink:href="classCDPL_1_1Vis_1_1Pen_1_1JoinStyle.html" target="_top" xlink:title="Defines constants for supported line join styles.">
<polygon fill="none" stroke="#000000" points="127,-38.5 127,-57.5 254,-57.5 254,-38.5 127,-38.5"/>
<text text-anchor="middle" x="190.5" y="-45.5" font-family="Helvetica,sans-Serif" font-size="10.00" fill="#000000">CDPL.Vis.Pen.JoinStyle</text>
</a>
</g>
</g>
<!-- Node1260&#45;&gt;Node1289 -->
<g id="edge29" class="edge">
<title>Node1260&#45;&gt;Node1289</title>
<path fill="none" stroke="#191970" d="M22.4958,-652.173C25.1667,-552.6837 39.2667,-110.8958 80,-67 92.049,-54.0155 109.4944,-47.8614 126.9773,-45.3224"/>
<polygon fill="#191970" stroke="#191970" points="18.9928,-652.247 22.2313,-662.3347 25.9904,-652.4291 18.9928,-652.247"/>
</g>
<!-- Node1290 -->
<g id="node31" class="node">
<title>Node1290</title>
<g id="a_node31"><a xlink:href="classCDPL_1_1Vis_1_1Pen_1_1LineStyle.html" target="_top" xlink:title="Defines constants for supported line styles.">
<polygon fill="none" stroke="#000000" points="126,-.5 126,-19.5 255,-19.5 255,-.5 126,-.5"/>
<text text-anchor="middle" x="190.5" y="-7.5" font-family="Helvetica,sans-Serif" font-size="10.00" fill="#000000">CDPL.Vis.Pen.LineStyle</text>
</a>
</g>
</g>
<!-- Node1260&#45;&gt;Node1290 -->
<g id="edge30" class="edge">
<title>Node1260&#45;&gt;Node1290</title>
<path fill="none" stroke="#191970" d="M22.3827,-651.9152C24.5457,-548.16 36.7267,-75.8965 80,-29 91.7484,-16.2679 108.6836,-10.0921 125.7791,-7.4529"/>
<polygon fill="#191970" stroke="#191970" points="18.8773,-652.1556 22.176,-662.2238 25.8759,-652.296 18.8773,-652.1556"/>
</g>
</g>
</svg>
