<?xml version="1.0" encoding="UTF-8" standalone="no"?>
<!DOCTYPE svg PUBLIC "-//W3C//DTD SVG 1.1//EN"
 "http://www.w3.org/Graphics/SVG/1.1/DTD/svg11.dtd">
<!-- Generated by graphviz version 2.44.0 (0)
 -->
<!-- Title: Graphical Class Hierarchy Pages: 1 -->
<svg width="290pt" height="1511pt"
 viewBox="0.00 0.00 290.00 1511.00" xmlns="http://www.w3.org/2000/svg" xmlns:xlink="http://www.w3.org/1999/xlink">
<g id="graph0" class="graph" transform="scale(1 1) rotate(0) translate(4 1507)">
<title>Graphical Class Hierarchy</title>
<!-- Node1300 -->
<g id="node1" class="node">
<title>Node1300</title>
<g id="a_node1"><a xlink:title=" ">
<polygon fill="none" stroke="#bfbfbf" points="0,-725.5 0,-744.5 41,-744.5 41,-725.5 0,-725.5"/>
<text text-anchor="middle" x="20.5" y="-732.5" font-family="Helvetica" font-size="10.00">enum</text>
</a>
</g>
</g>
<!-- Node0 -->
<g id="node2" class="node">
<title>Node0</title>
<g id="a_node2"><a xlink:href="classCDPL_1_1Base_1_1IOStream_1_1OpenMode.html" target="_top" xlink:title=" ">
<polygon fill="none" stroke="black" points="97.5,-1483.5 97.5,-1502.5 261.5,-1502.5 261.5,-1483.5 97.5,-1483.5"/>
<text text-anchor="middle" x="179.5" y="-1490.5" font-family="Helvetica" font-size="10.00">CDPL.Base.IOStream.OpenMode</text>
</a>
</g>
</g>
<!-- Node1300&#45;&gt;Node0 -->
<g id="edge1" class="edge">
<title>Node1300&#45;&gt;Node0</title>
<path fill="none" stroke="midnightblue" d="M21.57,-754.81C22.18,-866.94 27.67,-1418.92 77,-1474 82.62,-1480.28 89.6,-1484.89 97.25,-1488.24"/>
<polygon fill="midnightblue" stroke="midnightblue" points="25.07,-754.58 21.53,-744.6 18.07,-754.62 25.07,-754.58"/>
</g>
<!-- Node1302 -->
<g id="node3" class="node">
<title>Node1302</title>
<g id="a_node3"><a xlink:href="classCDPL_1_1Biomol_1_1PDBData_1_1RecordType.html" target="_top" xlink:title=" ">
<polygon fill="none" stroke="black" points="92.5,-1445.5 92.5,-1464.5 266.5,-1464.5 266.5,-1445.5 92.5,-1445.5"/>
<text text-anchor="middle" x="179.5" y="-1452.5" font-family="Helvetica" font-size="10.00">CDPL.Biomol.PDBData.RecordType</text>
</a>
</g>
</g>
<!-- Node1300&#45;&gt;Node1302 -->
<g id="edge2" class="edge">
<title>Node1300&#45;&gt;Node1302</title>
<path fill="none" stroke="midnightblue" d="M21.66,-754.8C22.72,-863.42 30.24,-1384 77,-1436 81.44,-1440.93 86.71,-1444.84 92.49,-1447.9"/>
<polygon fill="midnightblue" stroke="midnightblue" points="25.16,-754.58 21.57,-744.61 18.16,-754.64 25.16,-754.58"/>
</g>
<!-- Node1303 -->
<g id="node4" class="node">
<title>Node1303</title>
<g id="a_node4"><a xlink:href="classCDPL_1_1Chem_1_1ChEMBLStandardizer_1_1ChangeFlags.html" target="_top" xlink:title=" ">
<polygon fill="none" stroke="black" points="93.5,-1396 93.5,-1426 265.5,-1426 265.5,-1396 93.5,-1396"/>
<text text-anchor="start" x="101.5" y="-1414" font-family="Helvetica" font-size="10.00">CDPL.Chem.ChEMBLStandardizer.</text>
<text text-anchor="middle" x="179.5" y="-1403" font-family="Helvetica" font-size="10.00">ChangeFlags</text>
</a>
</g>
</g>
<!-- Node1300&#45;&gt;Node1303 -->
<g id="edge3" class="edge">
<title>Node1300&#45;&gt;Node1303</title>
<path fill="none" stroke="midnightblue" d="M21.83,-755C23.73,-859.29 34.71,-1337.98 77,-1387 81.61,-1392.35 87.18,-1396.62 93.29,-1400.03"/>
<polygon fill="midnightblue" stroke="midnightblue" points="25.33,-754.82 21.65,-744.89 18.33,-754.95 25.33,-754.82"/>
</g>
<!-- Node1304 -->
<g id="node5" class="node">
<title>Node1304</title>
<g id="a_node5"><a xlink:href="classCDPL_1_1Chem_1_1MatchConstraint_1_1Relation.html" target="_top" xlink:title="Defines constants for the specification of relational constraints on the values of query/target attri...">
<polygon fill="none" stroke="black" points="105,-1347 105,-1377 254,-1377 254,-1347 105,-1347"/>
<text text-anchor="start" x="113" y="-1365" font-family="Helvetica" font-size="10.00">CDPL.Chem.MatchConstraint.</text>
<text text-anchor="middle" x="179.5" y="-1354" font-family="Helvetica" font-size="10.00">Relation</text>
</a>
</g>
</g>
<!-- Node1300&#45;&gt;Node1304 -->
<g id="edge4" class="edge">
<title>Node1300&#45;&gt;Node1304</title>
<path fill="none" stroke="midnightblue" d="M21.97,-754.71C24.5,-853.63 37.87,-1292.96 77,-1338 84.42,-1346.54 94.27,-1352.35 104.92,-1356.24"/>
<polygon fill="midnightblue" stroke="midnightblue" points="25.47,-754.52 21.72,-744.61 18.47,-754.69 25.47,-754.52"/>
</g>
<!-- Node1305 -->
<g id="node6" class="node">
<title>Node1305</title>
<g id="a_node6"><a xlink:href="classCDPL_1_1Chem_1_1MatchConstraintList_1_1Type.html" target="_top" xlink:title="Defines constants that describe the logical type of the match constraint list.">
<polygon fill="none" stroke="black" points="106,-1298 106,-1328 253,-1328 253,-1298 106,-1298"/>
<text text-anchor="start" x="114" y="-1316" font-family="Helvetica" font-size="10.00">CDPL.Chem.MatchConstraint</text>
<text text-anchor="middle" x="179.5" y="-1305" font-family="Helvetica" font-size="10.00">List.Type</text>
</a>
</g>
</g>
<!-- Node1300&#45;&gt;Node1305 -->
<g id="edge5" class="edge">
<title>Node1300&#45;&gt;Node1305</title>
<path fill="none" stroke="midnightblue" d="M22.14,-754.86C25.37,-849.05 41.09,-1247.99 77,-1289 84.69,-1297.79 94.95,-1303.67 106,-1307.55"/>
<polygon fill="midnightblue" stroke="midnightblue" points="25.64,-754.59 21.8,-744.71 18.64,-754.82 25.64,-754.59"/>
</g>
<!-- Node1306 -->
<g id="node7" class="node">
<title>Node1306</title>
<g id="a_node7"><a xlink:href="classCDPL_1_1Chem_1_1ProtonationStateStandardizer_1_1Flavor.html" target="_top" xlink:title=" ">
<polygon fill="none" stroke="black" points="105.5,-1249 105.5,-1279 253.5,-1279 253.5,-1249 105.5,-1249"/>
<text text-anchor="start" x="113.5" y="-1267" font-family="Helvetica" font-size="10.00">CDPL.Chem.ProtonationState</text>
<text text-anchor="middle" x="179.5" y="-1256" font-family="Helvetica" font-size="10.00">Standardizer.Flavor</text>
</a>
</g>
</g>
<!-- Node1300&#45;&gt;Node1306 -->
<g id="edge6" class="edge">
<title>Node1300&#45;&gt;Node1306</title>
<path fill="none" stroke="midnightblue" d="M22.35,-754.71C26.36,-843.3 44.49,-1201.89 77,-1239 84.53,-1247.6 94.51,-1253.48 105.26,-1257.46"/>
<polygon fill="midnightblue" stroke="midnightblue" points="25.85,-754.5 21.91,-744.67 18.85,-754.81 25.85,-754.5"/>
</g>
<!-- Node1307 -->
<g id="node8" class="node">
<title>Node1307</title>
<g id="a_node8"><a xlink:href="classCDPL_1_1Chem_1_1TautomerGenerator_1_1Mode.html" target="_top" xlink:title=" ">
<polygon fill="none" stroke="black" points="87,-1210.5 87,-1229.5 272,-1229.5 272,-1210.5 87,-1210.5"/>
<text text-anchor="middle" x="179.5" y="-1217.5" font-family="Helvetica" font-size="10.00">CDPL.Chem.TautomerGenerator.Mode</text>
</a>
</g>
</g>
<!-- Node1300&#45;&gt;Node1307 -->
<g id="edge7" class="edge">
<title>Node1300&#45;&gt;Node1307</title>
<path fill="none" stroke="midnightblue" d="M22.5,-754.85C26.93,-839.55 46,-1167.87 77,-1201 80.43,-1204.67 84.32,-1207.76 88.54,-1210.35"/>
<polygon fill="midnightblue" stroke="midnightblue" points="25.99,-754.58 21.98,-744.77 19,-754.94 25.99,-754.58"/>
</g>
<!-- Node1308 -->
<g id="node9" class="node">
<title>Node1308</title>
<g id="a_node9"><a xlink:href="classCDPL_1_1Descr_1_1MoleculeAutoCorr2DDescriptorCalculator_1_1Mode.html" target="_top" xlink:title=" ">
<polygon fill="none" stroke="black" points="100.5,-1161 100.5,-1191 258.5,-1191 258.5,-1161 100.5,-1161"/>
<text text-anchor="start" x="108.5" y="-1179" font-family="Helvetica" font-size="10.00">CDPL.Descr.MoleculeAutoCorr2</text>
<text text-anchor="middle" x="179.5" y="-1168" font-family="Helvetica" font-size="10.00">DDescriptorCalculator.Mode</text>
</a>
</g>
</g>
<!-- Node1300&#45;&gt;Node1308 -->
<g id="edge8" class="edge">
<title>Node1300&#45;&gt;Node1308</title>
<path fill="none" stroke="midnightblue" d="M21.28,-755.11C20.88,-830.18 23.39,-1092.75 77,-1152 83.44,-1159.12 91.56,-1164.31 100.4,-1168.08"/>
<polygon fill="midnightblue" stroke="midnightblue" points="24.78,-754.76 21.36,-744.73 17.78,-754.7 24.78,-754.76"/>
</g>
<!-- Node1309 -->
<g id="node10" class="node">
<title>Node1309</title>
<g id="a_node10"><a xlink:href="classCDPL_1_1Descr_1_1NPoint2DPharmacophoreFingerprintGenerator_1_1FeatureDistanceType.html" target="_top" xlink:title=" ">
<polygon fill="none" stroke="black" points="78.5,-1112 78.5,-1142 280.5,-1142 280.5,-1112 78.5,-1112"/>
<text text-anchor="start" x="86.5" y="-1130" font-family="Helvetica" font-size="10.00">CDPL.Descr.NPoint2DPharmacophore</text>
<text text-anchor="middle" x="179.5" y="-1119" font-family="Helvetica" font-size="10.00">FingerprintGenerator.FeatureDistanceType</text>
</a>
</g>
</g>
<!-- Node1300&#45;&gt;Node1309 -->
<g id="edge9" class="edge">
<title>Node1300&#45;&gt;Node1309</title>
<path fill="none" stroke="midnightblue" d="M21.67,-754.93C22.69,-823.97 29.63,-1051.55 77,-1103 80.07,-1106.33 83.5,-1109.24 87.2,-1111.78"/>
<polygon fill="midnightblue" stroke="midnightblue" points="25.17,-754.56 21.55,-744.6 18.17,-754.64 25.17,-754.56"/>
</g>
<!-- Node1310 -->
<g id="node11" class="node">
<title>Node1310</title>
<g id="a_node11"><a xlink:href="classCDPL_1_1ForceField_1_1MMFF94VanDerWaalsInteraction_1_1HDonorAcceptorType.html" target="_top" xlink:title=" ">
<polygon fill="none" stroke="black" points="78.5,-1063 78.5,-1093 280.5,-1093 280.5,-1063 78.5,-1063"/>
<text text-anchor="start" x="86.5" y="-1081" font-family="Helvetica" font-size="10.00">CDPL.ForceField.MMFF94Van</text>
<text text-anchor="middle" x="179.5" y="-1070" font-family="Helvetica" font-size="10.00">DerWaalsInteraction.HDonorAcceptorType</text>
</a>
</g>
</g>
<!-- Node1300&#45;&gt;Node1310 -->
<g id="edge10" class="edge">
<title>Node1300&#45;&gt;Node1310</title>
<path fill="none" stroke="midnightblue" d="M22.17,-754.67C24.72,-817.26 35.82,-1010.27 77,-1054 80.23,-1057.43 83.85,-1060.41 87.74,-1062.99"/>
<polygon fill="midnightblue" stroke="midnightblue" points="25.67,-754.43 21.79,-744.57 18.67,-754.69 25.67,-754.43"/>
</g>
<!-- Node1311 -->
<g id="node12" class="node">
<title>Node1311</title>
<g id="a_node12"><a xlink:href="classCDPL_1_1GRAIL_1_1BindingAffinityCalculator_1_1AffinityMeasure.html" target="_top" xlink:title=" ">
<polygon fill="none" stroke="black" points="109,-1014 109,-1044 250,-1044 250,-1014 109,-1014"/>
<text text-anchor="start" x="117" y="-1032" font-family="Helvetica" font-size="10.00">CDPL.GRAIL.BindingAffinity</text>
<text text-anchor="middle" x="179.5" y="-1021" font-family="Helvetica" font-size="10.00">Calculator.AffinityMeasure</text>
</a>
</g>
</g>
<!-- Node1300&#45;&gt;Node1311 -->
<g id="edge11" class="edge">
<title>Node1300&#45;&gt;Node1311</title>
<path fill="none" stroke="midnightblue" d="M22.84,-754.5C27.07,-810.31 41.99,-968.94 77,-1005 85.64,-1013.9 96.92,-1019.75 108.82,-1023.56"/>
<polygon fill="midnightblue" stroke="midnightblue" points="26.33,-754.23 22.11,-744.51 19.35,-754.73 26.33,-754.23"/>
</g>
<!-- Node1312 -->
<g id="node13" class="node">
<title>Node1312</title>
<g id="a_node13"><a xlink:href="classCDPL_1_1GRAIL_1_1GRAILDescriptorCalculator_1_1ElementIndex.html" target="_top" xlink:title=" ">
<polygon fill="none" stroke="black" points="102.5,-965 102.5,-995 256.5,-995 256.5,-965 102.5,-965"/>
<text text-anchor="start" x="110.5" y="-983" font-family="Helvetica" font-size="10.00">CDPL.GRAIL.GRAILDescriptor</text>
<text text-anchor="middle" x="179.5" y="-972" font-family="Helvetica" font-size="10.00">Calculator.ElementIndex</text>
</a>
</g>
</g>
<!-- Node1300&#45;&gt;Node1312 -->
<g id="edge12" class="edge">
<title>Node1300&#45;&gt;Node1312</title>
<path fill="none" stroke="midnightblue" d="M23.83,-754.71C29.98,-803.43 48.19,-927.58 77,-956 84.16,-963.06 92.98,-968.18 102.41,-971.88"/>
<polygon fill="midnightblue" stroke="midnightblue" points="27.27,-754.04 22.58,-744.54 20.32,-754.89 27.27,-754.04"/>
</g>
<!-- Node1313 -->
<g id="node14" class="node">
<title>Node1313</title>
<g id="a_node14"><a xlink:href="classCDPL_1_1GRAIL_1_1GRAILXDescriptorCalculator_1_1ElementIndex.html" target="_top" xlink:title=" ">
<polygon fill="none" stroke="black" points="99,-916 99,-946 260,-946 260,-916 99,-916"/>
<text text-anchor="start" x="107" y="-934" font-family="Helvetica" font-size="10.00">CDPL.GRAIL.GRAILXDescriptor</text>
<text text-anchor="middle" x="179.5" y="-923" font-family="Helvetica" font-size="10.00">Calculator.ElementIndex</text>
</a>
</g>
</g>
<!-- Node1300&#45;&gt;Node1313 -->
<g id="edge13" class="edge">
<title>Node1300&#45;&gt;Node1313</title>
<path fill="none" stroke="midnightblue" d="M21.92,-755.11C23.8,-791.09 33.1,-866.48 77,-907 83.32,-912.83 90.79,-917.33 98.76,-920.78"/>
<polygon fill="midnightblue" stroke="midnightblue" points="25.41,-754.77 21.53,-744.91 18.41,-755.04 25.41,-754.77"/>
</g>
<!-- Node1314 -->
<g id="node15" class="node">
<title>Node1314</title>
<g id="a_node15"><a xlink:href="classCDPL_1_1Math_1_1DRegularSpatialGrid_1_1DataMode.html" target="_top" xlink:title=" ">
<polygon fill="none" stroke="black" points="109,-867 109,-897 250,-897 250,-867 109,-867"/>
<text text-anchor="start" x="117" y="-885" font-family="Helvetica" font-size="10.00">CDPL.Math.DRegularSpatial</text>
<text text-anchor="middle" x="179.5" y="-874" font-family="Helvetica" font-size="10.00">Grid.DataMode</text>
</a>
</g>
</g>
<!-- Node1300&#45;&gt;Node1314 -->
<g id="edge14" class="edge">
<title>Node1300&#45;&gt;Node1314</title>
<path fill="none" stroke="midnightblue" d="M24.82,-754.72C30.5,-782.14 44.75,-831.41 77,-858 86.22,-865.6 97.43,-870.88 109,-874.53"/>
<polygon fill="midnightblue" stroke="midnightblue" points="28.23,-753.92 22.93,-744.74 21.35,-755.22 28.23,-753.92"/>
</g>
<!-- Node1315 -->
<g id="node16" class="node">
<title>Node1315</title>
<g id="a_node16"><a xlink:href="classCDPL_1_1Math_1_1DVectorBFGSMinimizer_1_1Status.html" target="_top" xlink:title=" ">
<polygon fill="none" stroke="black" points="91.5,-818 91.5,-848 267.5,-848 267.5,-818 91.5,-818"/>
<text text-anchor="start" x="99.5" y="-836" font-family="Helvetica" font-size="10.00">CDPL.Math.DVectorBFGSMinimizer.</text>
<text text-anchor="middle" x="179.5" y="-825" font-family="Helvetica" font-size="10.00">Status</text>
</a>
</g>
</g>
<!-- Node1300&#45;&gt;Node1315 -->
<g id="edge15" class="edge">
<title>Node1300&#45;&gt;Node1315</title>
<path fill="none" stroke="midnightblue" d="M30.64,-753.67C39.95,-770.7 56,-795.25 77,-809 82.3,-812.47 88.05,-815.44 94.03,-817.99"/>
<polygon fill="midnightblue" stroke="midnightblue" points="33.67,-751.9 25.95,-744.64 27.46,-755.13 33.67,-751.9"/>
</g>
<!-- Node1316 -->
<g id="node17" class="node">
<title>Node1316</title>
<g id="a_node17"><a xlink:href="classCDPL_1_1Math_1_1FRegularSpatialGrid_1_1DataMode.html" target="_top" xlink:title=" ">
<polygon fill="none" stroke="black" points="109.5,-769 109.5,-799 249.5,-799 249.5,-769 109.5,-769"/>
<text text-anchor="start" x="117.5" y="-787" font-family="Helvetica" font-size="10.00">CDPL.Math.FRegularSpatial</text>
<text text-anchor="middle" x="179.5" y="-776" font-family="Helvetica" font-size="10.00">Grid.DataMode</text>
</a>
</g>
</g>
<!-- Node1300&#45;&gt;Node1316 -->
<g id="edge16" class="edge">
<title>Node1300&#45;&gt;Node1316</title>
<path fill="none" stroke="midnightblue" d="M49.65,-748.93C58.29,-752.87 67.91,-756.91 77,-760 87.37,-763.53 98.51,-766.73 109.47,-769.56"/>
<polygon fill="midnightblue" stroke="midnightblue" points="50.94,-745.67 40.4,-744.6 47.97,-752.01 50.94,-745.67"/>
</g>
<!-- Node1317 -->
<g id="node18" class="node">
<title>Node1317</title>
<g id="a_node18"><a xlink:href="classCDPL_1_1Math_1_1FVectorBFGSMinimizer_1_1Status.html" target="_top" xlink:title=" ">
<polygon fill="none" stroke="black" points="91.5,-720 91.5,-750 267.5,-750 267.5,-720 91.5,-720"/>
<text text-anchor="start" x="99.5" y="-738" font-family="Helvetica" font-size="10.00">CDPL.Math.FVectorBFGSMinimizer.</text>
<text text-anchor="middle" x="179.5" y="-727" font-family="Helvetica" font-size="10.00">Status</text>
</a>
</g>
</g>
<!-- Node1300&#45;&gt;Node1317 -->
<g id="edge17" class="edge">
<title>Node1300&#45;&gt;Node1317</title>
<path fill="none" stroke="midnightblue" d="M51.4,-735C63,-735 76.92,-735 91.23,-735"/>
<polygon fill="midnightblue" stroke="midnightblue" points="51.07,-731.5 41.07,-735 51.07,-738.5 51.07,-731.5"/>
</g>
<!-- Node1318 -->
<g id="node19" class="node">
<title>Node1318</title>
<g id="a_node19"><a xlink:href="classCDPL_1_1Math_1_1Vector2DArrayBFGSMinimizer_1_1Status.html" target="_top" xlink:title=" ">
<polygon fill="none" stroke="black" points="77,-671 77,-701 282,-701 282,-671 77,-671"/>
<text text-anchor="start" x="85" y="-689" font-family="Helvetica" font-size="10.00">CDPL.Math.Vector2DArrayBFGSMinimizer.</text>
<text text-anchor="middle" x="179.5" y="-678" font-family="Helvetica" font-size="10.00">Status</text>
</a>
</g>
</g>
<!-- Node1300&#45;&gt;Node1318 -->
<g id="edge18" class="edge">
<title>Node1300&#45;&gt;Node1318</title>
<path fill="none" stroke="midnightblue" d="M50.61,-721.33C59.02,-717.68 68.28,-713.94 77,-711 87.75,-707.38 99.3,-704.04 110.62,-701.05"/>
<polygon fill="midnightblue" stroke="midnightblue" points="48.93,-718.25 41.22,-725.52 51.78,-724.64 48.93,-718.25"/>
</g>
<!-- Node1319 -->
<g id="node20" class="node">
<title>Node1319</title>
<g id="a_node20"><a xlink:href="classCDPL_1_1Math_1_1Vector2FArrayBFGSMinimizer_1_1Status.html" target="_top" xlink:title=" ">
<polygon fill="none" stroke="black" points="78,-622 78,-652 281,-652 281,-622 78,-622"/>
<text text-anchor="start" x="86" y="-640" font-family="Helvetica" font-size="10.00">CDPL.Math.Vector2FArrayBFGSMinimizer.</text>
<text text-anchor="middle" x="179.5" y="-629" font-family="Helvetica" font-size="10.00">Status</text>
</a>
</g>
</g>
<!-- Node1300&#45;&gt;Node1319 -->
<g id="edge19" class="edge">
<title>Node1300&#45;&gt;Node1319</title>
<path fill="none" stroke="midnightblue" d="M30.88,-716.36C40.28,-699.6 56.31,-675.59 77,-662 82.92,-658.11 89.39,-654.83 96.1,-652.06"/>
<polygon fill="midnightblue" stroke="midnightblue" points="27.75,-714.79 26.13,-725.26 33.93,-718.09 27.75,-714.79"/>
</g>
<!-- Node1320 -->
<g id="node21" class="node">
<title>Node1320</title>
<g id="a_node21"><a xlink:href="classCDPL_1_1Math_1_1Vector3DArrayBFGSMinimizer_1_1Status.html" target="_top" xlink:title=" ">
<polygon fill="none" stroke="black" points="77,-573 77,-603 282,-603 282,-573 77,-573"/>
<text text-anchor="start" x="85" y="-591" font-family="Helvetica" font-size="10.00">CDPL.Math.Vector3DArrayBFGSMinimizer.</text>
<text text-anchor="middle" x="179.5" y="-580" font-family="Helvetica" font-size="10.00">Status</text>
</a>
</g>
</g>
<!-- Node1300&#45;&gt;Node1320 -->
<g id="edge20" class="edge">
<title>Node1300&#45;&gt;Node1320</title>
<path fill="none" stroke="midnightblue" d="M24.9,-715.48C30.68,-688.33 45.05,-639.51 77,-613 81.61,-609.18 86.72,-605.92 92.12,-603.15"/>
<polygon fill="midnightblue" stroke="midnightblue" points="21.45,-714.87 22.98,-725.36 28.32,-716.21 21.45,-714.87"/>
</g>
<!-- Node1321 -->
<g id="node22" class="node">
<title>Node1321</title>
<g id="a_node22"><a xlink:href="classCDPL_1_1Math_1_1Vector3FArrayBFGSMinimizer_1_1Status.html" target="_top" xlink:title=" ">
<polygon fill="none" stroke="black" points="78,-524 78,-554 281,-554 281,-524 78,-524"/>
<text text-anchor="start" x="86" y="-542" font-family="Helvetica" font-size="10.00">CDPL.Math.Vector3FArrayBFGSMinimizer.</text>
<text text-anchor="middle" x="179.5" y="-531" font-family="Helvetica" font-size="10.00">Status</text>
</a>
</g>
</g>
<!-- Node1300&#45;&gt;Node1321 -->
<g id="edge21" class="edge">
<title>Node1300&#45;&gt;Node1321</title>
<path fill="none" stroke="midnightblue" d="M21.99,-715.04C24,-679.33 33.49,-604.47 77,-564 81.12,-560.17 85.73,-556.9 90.65,-554.11"/>
<polygon fill="midnightblue" stroke="midnightblue" points="18.49,-715.03 21.57,-725.16 25.49,-715.32 18.49,-715.03"/>
</g>
<!-- Node1322 -->
<g id="node23" class="node">
<title>Node1322</title>
<g id="a_node23"><a xlink:href="classCDPL_1_1Pharm_1_1DefaultPharmacophoreGenerator_1_1Configuration.html" target="_top" xlink:title="Flags controlling feature generation.">
<polygon fill="none" stroke="black" points="91,-475 91,-505 268,-505 268,-475 91,-475"/>
<text text-anchor="start" x="99" y="-493" font-family="Helvetica" font-size="10.00">CDPL.Pharm.DefaultPharmacophore</text>
<text text-anchor="middle" x="179.5" y="-482" font-family="Helvetica" font-size="10.00">Generator.Configuration</text>
</a>
</g>
</g>
<!-- Node1300&#45;&gt;Node1322 -->
<g id="edge22" class="edge">
<title>Node1300&#45;&gt;Node1322</title>
<path fill="none" stroke="midnightblue" d="M23.9,-715.06C30.16,-666.37 48.49,-543.35 77,-515 81.12,-510.91 85.79,-507.44 90.82,-504.52"/>
<polygon fill="midnightblue" stroke="midnightblue" points="20.39,-714.89 22.63,-725.25 27.34,-715.76 20.39,-714.89"/>
</g>
<!-- Node1323 -->
<g id="node24" class="node">
<title>Node1323</title>
<g id="a_node24"><a xlink:href="classCDPL_1_1Pharm_1_1PatternBasedFeatureGenerator_1_1PatternAtomLabelFlag.html" target="_top" xlink:title=" ">
<polygon fill="none" stroke="black" points="94.5,-426 94.5,-456 264.5,-456 264.5,-426 94.5,-426"/>
<text text-anchor="start" x="102.5" y="-444" font-family="Helvetica" font-size="10.00">CDPL.Pharm.PatternBasedFeature</text>
<text text-anchor="middle" x="179.5" y="-433" font-family="Helvetica" font-size="10.00">Generator.PatternAtomLabelFlag</text>
</a>
</g>
</g>
<!-- Node1300&#45;&gt;Node1323 -->
<g id="edge23" class="edge">
<title>Node1300&#45;&gt;Node1323</title>
<path fill="none" stroke="midnightblue" d="M22.9,-715.21C27.24,-659.32 42.35,-502 77,-466 82.03,-460.77 87.97,-456.56 94.41,-453.19"/>
<polygon fill="midnightblue" stroke="midnightblue" points="19.4,-715.01 22.15,-725.24 26.38,-715.53 19.4,-715.01"/>
</g>
<!-- Node1324 -->
<g id="node25" class="node">
<title>Node1324</title>
<g id="a_node25"><a xlink:href="classCDPL_1_1Pharm_1_1ScreeningDBCreator_1_1Mode.html" target="_top" xlink:title=" ">
<polygon fill="none" stroke="black" points="82.5,-387.5 82.5,-406.5 276.5,-406.5 276.5,-387.5 82.5,-387.5"/>
<text text-anchor="middle" x="179.5" y="-394.5" font-family="Helvetica" font-size="10.00">CDPL.Pharm.ScreeningDBCreator.Mode</text>
</a>
</g>
</g>
<!-- Node1300&#45;&gt;Node1324 -->
<g id="edge24" class="edge">
<title>Node1300&#45;&gt;Node1324</title>
<path fill="none" stroke="midnightblue" d="M22.11,-715.33C24.49,-652.74 35.12,-459.8 77,-417 81.02,-412.89 85.62,-409.5 90.59,-406.71"/>
<polygon fill="midnightblue" stroke="midnightblue" points="18.61,-715.32 21.76,-725.43 25.61,-715.56 18.61,-715.32"/>
</g>
<!-- Node1325 -->
<g id="node26" class="node">
<title>Node1325</title>
<g id="a_node26"><a xlink:href="classCDPL_1_1Pharm_1_1ScreeningProcessor_1_1HitReportMode.html" target="_top" xlink:title=" ">
<polygon fill="none" stroke="black" points="95.5,-338 95.5,-368 263.5,-368 263.5,-338 95.5,-338"/>
<text text-anchor="start" x="103.5" y="-356" font-family="Helvetica" font-size="10.00">CDPL.Pharm.ScreeningProcessor.</text>
<text text-anchor="middle" x="179.5" y="-345" font-family="Helvetica" font-size="10.00">HitReportMode</text>
</a>
</g>
</g>
<!-- Node1300&#45;&gt;Node1325 -->
<g id="edge25" class="edge">
<title>Node1300&#45;&gt;Node1325</title>
<path fill="none" stroke="midnightblue" d="M21.79,-715.24C23.19,-647.77 31.23,-427.95 77,-378 82.15,-372.38 88.34,-367.93 95.09,-364.42"/>
<polygon fill="midnightblue" stroke="midnightblue" points="18.29,-715.29 21.61,-725.36 25.29,-715.42 18.29,-715.29"/>
</g>
<!-- Node1326 -->
<g id="node27" class="node">
<title>Node1326</title>
<g id="a_node27"><a xlink:href="classCDPL_1_1Shape_1_1ScreeningSettings_1_1AlignmentMode.html" target="_top" xlink:title=" ">
<polygon fill="none" stroke="black" points="100,-289 100,-319 259,-319 259,-289 100,-289"/>
<text text-anchor="start" x="108" y="-307" font-family="Helvetica" font-size="10.00">CDPL.Shape.ScreeningSettings.</text>
<text text-anchor="middle" x="179.5" y="-296" font-family="Helvetica" font-size="10.00">AlignmentMode</text>
</a>
</g>
</g>
<!-- Node1300&#45;&gt;Node1326 -->
<g id="edge26" class="edge">
<title>Node1300&#45;&gt;Node1326</title>
<path fill="none" stroke="midnightblue" d="M21.38,-714.95C21.35,-641.28 25.06,-386.74 77,-329 83.31,-321.98 91.25,-316.79 99.89,-312.96"/>
<polygon fill="midnightblue" stroke="midnightblue" points="17.88,-715.18 21.41,-725.17 24.88,-715.16 17.88,-715.18"/>
</g>
<!-- Node1327 -->
<g id="node28" class="node">
<title>Node1327</title>
<g id="a_node28"><a xlink:href="classCDPL_1_1Shape_1_1ScreeningSettings_1_1ColorFeatureType.html" target="_top" xlink:title=" ">
<polygon fill="none" stroke="black" points="100,-240 100,-270 259,-270 259,-240 100,-240"/>
<text text-anchor="start" x="108" y="-258" font-family="Helvetica" font-size="10.00">CDPL.Shape.ScreeningSettings.</text>
<text text-anchor="middle" x="179.5" y="-247" font-family="Helvetica" font-size="10.00">ColorFeatureType</text>
</a>
</g>
</g>
<!-- Node1300&#45;&gt;Node1327 -->
<g id="edge27" class="edge">
<title>Node1300&#45;&gt;Node1327</title>
<path fill="none" stroke="midnightblue" d="M21.05,-715.12C19.68,-636.16 18.76,-345.69 77,-280 83.26,-272.94 91.17,-267.71 99.79,-263.87"/>
<polygon fill="midnightblue" stroke="midnightblue" points="17.55,-715.26 21.25,-725.19 24.55,-715.12 17.55,-715.26"/>
</g>
<!-- Node1328 -->
<g id="node29" class="node">
<title>Node1328</title>
<g id="a_node29"><a xlink:href="classCDPL_1_1Shape_1_1ScreeningSettings_1_1ScreeningMode.html" target="_top" xlink:title=" ">
<polygon fill="none" stroke="black" points="100,-191 100,-221 259,-221 259,-191 100,-191"/>
<text text-anchor="start" x="108" y="-209" font-family="Helvetica" font-size="10.00">CDPL.Shape.ScreeningSettings.</text>
<text text-anchor="middle" x="179.5" y="-198" font-family="Helvetica" font-size="10.00">ScreeningMode</text>
</a>
</g>
</g>
<!-- Node1300&#45;&gt;Node1328 -->
<g id="edge28" class="edge">
<title>Node1300&#45;&gt;Node1328</title>
<path fill="none" stroke="midnightblue" d="M22.35,-715.29C26.36,-626.7 44.49,-268.11 77,-231 83.22,-223.9 91.1,-218.66 99.71,-214.8"/>
<polygon fill="midnightblue" stroke="midnightblue" points="18.85,-715.19 21.91,-725.33 25.85,-715.5 18.85,-715.19"/>
</g>
<!-- Node1329 -->
<g id="node30" class="node">
<title>Node1329</title>
<g id="a_node30"><a xlink:href="classCDPL_1_1Vis_1_1Brush_1_1Style.html" target="_top" xlink:title="Defines constants for supported fill pattern styles.">
<polygon fill="none" stroke="black" points="122.5,-152.5 122.5,-171.5 236.5,-171.5 236.5,-152.5 122.5,-152.5"/>
<text text-anchor="middle" x="179.5" y="-159.5" font-family="Helvetica" font-size="10.00">CDPL.Vis.Brush.Style</text>
</a>
</g>
</g>
<!-- Node1300&#45;&gt;Node1329 -->
<g id="edge29" class="edge">
<title>Node1300&#45;&gt;Node1329</title>
<path fill="none" stroke="midnightblue" d="M22.11,-715.15C25.2,-620.99 40.38,-222.25 77,-182 88.54,-169.31 105.6,-163.31 122.45,-160.77"/>
<polygon fill="midnightblue" stroke="midnightblue" points="18.61,-715.19 21.79,-725.29 25.61,-715.41 18.61,-715.19"/>
</g>
<!-- Node1330 -->
<g id="node31" class="node">
<title>Node1330</title>
<g id="a_node31"><a xlink:href="classCDPL_1_1Vis_1_1Path2D_1_1FillRule.html" target="_top" xlink:title="Specifies which method to use for filling closed shapes described by the Path2D object.">
<polygon fill="none" stroke="black" points="113.5,-114.5 113.5,-133.5 245.5,-133.5 245.5,-114.5 113.5,-114.5"/>
<text text-anchor="middle" x="179.5" y="-121.5" font-family="Helvetica" font-size="10.00">CDPL.Vis.Path2D.FillRule</text>
</a>
</g>
</g>
<!-- Node1300&#45;&gt;Node1330 -->
<g id="edge30" class="edge">
<title>Node1300&#45;&gt;Node1330</title>
<path fill="none" stroke="midnightblue" d="M21.97,-714.99C24.47,-616.49 37.6,-186.19 77,-143 86.49,-132.6 99.7,-126.8 113.46,-123.74"/>
<polygon fill="midnightblue" stroke="midnightblue" points="18.47,-715 21.72,-725.08 25.47,-715.17 18.47,-715"/>
</g>
<!-- Node1331 -->
<g id="node32" class="node">
<title>Node1331</title>
<g id="a_node32"><a xlink:href="classCDPL_1_1Vis_1_1Pen_1_1CapStyle.html" target="_top" xlink:title="Defines constants for supported line cap styles.">
<polygon fill="none" stroke="black" points="118.5,-76.5 118.5,-95.5 240.5,-95.5 240.5,-76.5 118.5,-76.5"/>
<text text-anchor="middle" x="179.5" y="-83.5" font-family="Helvetica" font-size="10.00">CDPL.Vis.Pen.CapStyle</text>
</a>
</g>
</g>
<!-- Node1300&#45;&gt;Node1331 -->
<g id="edge31" class="edge">
<title>Node1300&#45;&gt;Node1331</title>
<path fill="none" stroke="midnightblue" d="M21.84,-715.33C23.8,-613.74 35,-151.3 77,-105 87.6,-93.32 102.91,-87.42 118.43,-84.71"/>
<polygon fill="midnightblue" stroke="midnightblue" points="18.34,-715.36 21.66,-725.43 25.34,-715.49 18.34,-715.36"/>
</g>
<!-- Node1332 -->
<g id="node33" class="node">
<title>Node1332</title>
<g id="a_node33"><a xlink:href="classCDPL_1_1Vis_1_1Pen_1_1JoinStyle.html" target="_top" xlink:title="Defines constants for supported line join styles.">
<polygon fill="none" stroke="black" points="118,-38.5 118,-57.5 241,-57.5 241,-38.5 118,-38.5"/>
<text text-anchor="middle" x="179.5" y="-45.5" font-family="Helvetica" font-size="10.00">CDPL.Vis.Pen.JoinStyle</text>
</a>
</g>
</g>
<!-- Node1300&#45;&gt;Node1332 -->
<g id="edge32" class="edge">
<title>Node1300&#45;&gt;Node1332</title>
<path fill="none" stroke="midnightblue" d="M21.74,-715.15C23.22,-609.52 32.47,-116.33 77,-67 87.45,-55.42 102.52,-49.52 117.86,-46.77"/>
<polygon fill="midnightblue" stroke="midnightblue" points="18.24,-715.31 21.61,-725.35 25.24,-715.4 18.24,-715.31"/>
</g>
<!-- Node1333 -->
<g id="node34" class="node">
<title>Node1333</title>
<g id="a_node34"><a xlink:href="classCDPL_1_1Vis_1_1Pen_1_1LineStyle.html" target="_top" xlink:title="Defines constants for supported line styles.">
<polygon fill="none" stroke="black" points="118,-0.5 118,-19.5 241,-19.5 241,-0.5 118,-0.5"/>
<text text-anchor="middle" x="179.5" y="-7.5" font-family="Helvetica" font-size="10.00">CDPL.Vis.Pen.LineStyle</text>
</a>
</g>
</g>
<!-- Node1300&#45;&gt;Node1333 -->
<g id="edge33" class="edge">
<title>Node1300&#45;&gt;Node1333</title>
<path fill="none" stroke="midnightblue" d="M21.65,-715.06C22.66,-605.66 29.92,-81.39 77,-29 87.43,-17.4 102.49,-11.49 117.83,-8.74"/>
<polygon fill="midnightblue" stroke="midnightblue" points="18.15,-715.29 21.56,-725.32 25.15,-715.35 18.15,-715.29"/>
</g>
</g>
</svg>
