<?xml version="1.0" encoding="UTF-8" standalone="no"?>
<!DOCTYPE svg PUBLIC "-//W3C//DTD SVG 1.1//EN"
 "http://www.w3.org/Graphics/SVG/1.1/DTD/svg11.dtd">
<!-- Generated by graphviz version 2.44.0 (0)
 -->
<!-- Title: Graphical Class Hierarchy Pages: 1 -->
<svg width="749pt" height="325pt"
 viewBox="0.00 0.00 749.00 325.00" xmlns="http://www.w3.org/2000/svg" xmlns:xlink="http://www.w3.org/1999/xlink">
<g id="graph0" class="graph" transform="scale(1 1) rotate(0) translate(4 321)">
<title>Graphical Class Hierarchy</title>
<!-- Node14 -->
<g id="node1" class="node">
<title>Node14</title>
<g id="a_node1"><a xlink:title=" ">
<polygon fill="none" stroke="#bfbfbf" points="0,-221.5 0,-240.5 59,-240.5 59,-221.5 0,-221.5"/>
<text text-anchor="middle" x="29.5" y="-228.5" font-family="Helvetica" font-size="10.00">Exception</text>
</a>
</g>
</g>
<!-- Node15 -->
<g id="node2" class="node">
<title>Node15</title>
<g id="a_node2"><a xlink:href="classCDPL_1_1Base_1_1Exception.html" target="_top" xlink:title="The root of the CDPL exception hierarchy.">
<polygon fill="none" stroke="black" points="95,-221.5 95,-240.5 209,-240.5 209,-221.5 95,-221.5"/>
<text text-anchor="middle" x="152" y="-228.5" font-family="Helvetica" font-size="10.00">CDPL.Base.Exception</text>
</a>
</g>
</g>
<!-- Node14&#45;&gt;Node15 -->
<g id="edge1" class="edge">
<title>Node14&#45;&gt;Node15</title>
<path fill="none" stroke="midnightblue" d="M69.32,-231C77.42,-231 86.13,-231 94.73,-231"/>
<polygon fill="midnightblue" stroke="midnightblue" points="69.06,-227.5 59.06,-231 69.06,-234.5 69.06,-227.5"/>
</g>
<!-- Node16 -->
<g id="node3" class="node">
<title>Node16</title>
<g id="a_node3"><a xlink:href="classCDPL_1_1Base_1_1BadCast.html" target="_top" xlink:title="Thrown to indicate that a cast or conversion from a given source type to a requested target type is n...">
<polygon fill="none" stroke="black" points="260.5,-297.5 260.5,-316.5 369.5,-316.5 369.5,-297.5 260.5,-297.5"/>
<text text-anchor="middle" x="315" y="-304.5" font-family="Helvetica" font-size="10.00">CDPL.Base.BadCast</text>
</a>
</g>
</g>
<!-- Node15&#45;&gt;Node16 -->
<g id="edge2" class="edge">
<title>Node15&#45;&gt;Node16</title>
<path fill="none" stroke="midnightblue" d="M174.33,-246.67C192.38,-259.32 219.34,-276.8 245,-288 253.43,-291.68 262.75,-294.82 271.74,-297.42"/>
<polygon fill="midnightblue" stroke="midnightblue" points="175.93,-243.51 165.75,-240.56 171.86,-249.21 175.93,-243.51"/>
</g>
<!-- Node17 -->
<g id="node4" class="node">
<title>Node17</title>
<g id="a_node4"><a xlink:href="classCDPL_1_1Base_1_1ItemNotFound.html" target="_top" xlink:title="Thrown to indicate that some requested data item could not be found.">
<polygon fill="none" stroke="black" points="248,-259.5 248,-278.5 382,-278.5 382,-259.5 248,-259.5"/>
<text text-anchor="middle" x="315" y="-266.5" font-family="Helvetica" font-size="10.00">CDPL.Base.ItemNotFound</text>
</a>
</g>
</g>
<!-- Node15&#45;&gt;Node17 -->
<g id="edge3" class="edge">
<title>Node15&#45;&gt;Node17</title>
<path fill="none" stroke="midnightblue" d="M203.4,-242.9C226.03,-248.24 252.37,-254.45 273.67,-259.48"/>
<polygon fill="midnightblue" stroke="midnightblue" points="204.16,-239.48 193.63,-240.59 202.56,-246.29 204.16,-239.48"/>
</g>
<!-- Node18 -->
<g id="node5" class="node">
<title>Node18</title>
<g id="a_node5"><a xlink:href="classCDPL_1_1Base_1_1OperationFailed.html" target="_top" xlink:title="Thrown to indicate that some requested operation has failed (e.g.">
<polygon fill="none" stroke="black" points="245,-221.5 245,-240.5 385,-240.5 385,-221.5 245,-221.5"/>
<text text-anchor="middle" x="315" y="-228.5" font-family="Helvetica" font-size="10.00">CDPL.Base.OperationFailed</text>
</a>
</g>
</g>
<!-- Node15&#45;&gt;Node18 -->
<g id="edge4" class="edge">
<title>Node15&#45;&gt;Node18</title>
<path fill="none" stroke="midnightblue" d="M219.45,-231C227.88,-231 236.51,-231 244.97,-231"/>
<polygon fill="midnightblue" stroke="midnightblue" points="219.31,-227.5 209.31,-231 219.31,-234.5 219.31,-227.5"/>
</g>
<!-- Node0 -->
<g id="node8" class="node">
<title>Node0</title>
<g id="a_node8"><a xlink:href="classCDPL_1_1Base_1_1ValueError.html" target="_top" xlink:title="Thrown to indicate errors caused by some invalid value.">
<polygon fill="none" stroke="black" points="257,-145.5 257,-164.5 373,-164.5 373,-145.5 257,-145.5"/>
<text text-anchor="middle" x="315" y="-152.5" font-family="Helvetica" font-size="10.00">CDPL.Base.ValueError</text>
</a>
</g>
</g>
<!-- Node15&#45;&gt;Node0 -->
<g id="edge7" class="edge">
<title>Node15&#45;&gt;Node0</title>
<path fill="none" stroke="midnightblue" d="M174.33,-215.33C192.38,-202.68 219.34,-185.2 245,-174 253.43,-170.32 262.75,-167.18 271.74,-164.58"/>
<polygon fill="midnightblue" stroke="midnightblue" points="171.86,-212.79 165.75,-221.44 175.93,-218.49 171.86,-212.79"/>
</g>
<!-- Node20 -->
<g id="node13" class="node">
<title>Node20</title>
<g id="a_node13"><a xlink:href="classCDPL_1_1ForceField_1_1Error.html" target="_top" xlink:title=" ">
<polygon fill="none" stroke="black" points="257,-85.5 257,-104.5 373,-104.5 373,-85.5 257,-85.5"/>
<text text-anchor="middle" x="315" y="-92.5" font-family="Helvetica" font-size="10.00">CDPL.ForceField.Error</text>
</a>
</g>
</g>
<!-- Node15&#45;&gt;Node20 -->
<g id="edge12" class="edge">
<title>Node15&#45;&gt;Node20</title>
<path fill="none" stroke="midnightblue" d="M167.41,-213.52C184.57,-193.36 214.74,-159.92 245,-136 260.74,-123.56 280.61,-112.14 294.97,-104.53"/>
<polygon fill="midnightblue" stroke="midnightblue" points="164.64,-211.37 160.89,-221.28 170,-215.88 164.64,-211.37"/>
</g>
<!-- Node19 -->
<g id="node6" class="node">
<title>Node19</title>
<g id="a_node6"><a xlink:href="classCDPL_1_1Base_1_1CalculationFailed.html" target="_top" xlink:title="Thrown to indicate that some requested calculation has failed.">
<polygon fill="none" stroke="black" points="432,-240.5 432,-259.5 578,-259.5 578,-240.5 432,-240.5"/>
<text text-anchor="middle" x="505" y="-247.5" font-family="Helvetica" font-size="10.00">CDPL.Base.CalculationFailed</text>
</a>
</g>
</g>
<!-- Node18&#45;&gt;Node19 -->
<g id="edge5" class="edge">
<title>Node18&#45;&gt;Node19</title>
<path fill="none" stroke="midnightblue" d="M395.28,-239.01C407.39,-240.24 419.84,-241.49 431.79,-242.7"/>
<polygon fill="midnightblue" stroke="midnightblue" points="395.5,-235.52 385.2,-237.99 394.8,-242.48 395.5,-235.52"/>
</g>
<!-- Node8 -->
<g id="node7" class="node">
<title>Node8</title>
<g id="a_node7"><a xlink:href="classCDPL_1_1Base_1_1IOError.html" target="_top" xlink:title="Thrown to indicate that an I/O operation has failed because of physical (e.g.">
<polygon fill="none" stroke="black" points="453.5,-202.5 453.5,-221.5 556.5,-221.5 556.5,-202.5 453.5,-202.5"/>
<text text-anchor="middle" x="505" y="-209.5" font-family="Helvetica" font-size="10.00">CDPL.Base.IOError</text>
</a>
</g>
</g>
<!-- Node18&#45;&gt;Node8 -->
<g id="edge6" class="edge">
<title>Node18&#45;&gt;Node8</title>
<path fill="none" stroke="midnightblue" d="M395.39,-222.98C415.06,-220.99 435.61,-218.91 453.47,-217.11"/>
<polygon fill="midnightblue" stroke="midnightblue" points="394.8,-219.52 385.2,-224.01 395.5,-226.48 394.8,-219.52"/>
</g>
<!-- Node1 -->
<g id="node9" class="node">
<title>Node1</title>
<g id="a_node9"><a xlink:href="classCDPL_1_1Base_1_1NullPointerException.html" target="_top" xlink:title=" ">
<polygon fill="none" stroke="#bfbfbf" points="474,-164.5 474,-183.5 536,-183.5 536,-164.5 474,-164.5"/>
<text text-anchor="middle" x="505" y="-171.5" font-family="Helvetica" font-size="10.00">ValueError</text>
</a>
</g>
</g>
<!-- Node0&#45;&gt;Node1 -->
<g id="edge8" class="edge">
<title>Node0&#45;&gt;Node1</title>
<path fill="none" stroke="midnightblue" d="M383.48,-155.31C414.41,-157.86 449.51,-161.87 473.83,-165.84"/>
<polygon fill="midnightblue" stroke="midnightblue" points="383.41,-151.8 373.17,-154.51 382.87,-158.78 383.41,-151.8"/>
</g>
<!-- Node2 -->
<g id="node10" class="node">
<title>Node2</title>
<g id="a_node10"><a xlink:href="classCDPL_1_1Base_1_1RangeError.html" target="_top" xlink:title="Thrown to indicate that a value is out of range.">
<polygon fill="none" stroke="black" points="445,-126.5 445,-145.5 565,-145.5 565,-126.5 445,-126.5"/>
<text text-anchor="middle" x="505" y="-133.5" font-family="Helvetica" font-size="10.00">CDPL.Base.RangeError</text>
</a>
</g>
</g>
<!-- Node0&#45;&gt;Node2 -->
<g id="edge9" class="edge">
<title>Node0&#45;&gt;Node2</title>
<path fill="none" stroke="midnightblue" d="M383.2,-148.21C403.33,-146.17 425.25,-143.96 444.82,-141.98"/>
<polygon fill="midnightblue" stroke="midnightblue" points="382.77,-144.73 373.17,-149.22 383.47,-151.7 382.77,-144.73"/>
</g>
<!-- Node4 -->
<g id="node12" class="node">
<title>Node4</title>
<g id="a_node12"><a xlink:href="classCDPL_1_1Base_1_1SizeError.html" target="_top" xlink:title="Thrown to indicate that the size of a (multidimensional) array is not correct.">
<polygon fill="none" stroke="black" points="449.5,-88.5 449.5,-107.5 560.5,-107.5 560.5,-88.5 449.5,-88.5"/>
<text text-anchor="middle" x="505" y="-95.5" font-family="Helvetica" font-size="10.00">CDPL.Base.SizeError</text>
</a>
</g>
</g>
<!-- Node0&#45;&gt;Node4 -->
<g id="edge11" class="edge">
<title>Node0&#45;&gt;Node4</title>
<path fill="none" stroke="midnightblue" d="M349.4,-141.73C369.87,-133.89 396.71,-124.15 421,-117 432.77,-113.54 445.63,-110.32 457.64,-107.56"/>
<polygon fill="midnightblue" stroke="midnightblue" points="347.98,-138.53 339.91,-145.4 350.5,-145.06 347.98,-138.53"/>
</g>
<!-- Node1&#45;&gt;Node0 -->
<g id="edge16" class="edge">
<title>Node1&#45;&gt;Node0</title>
<path fill="none" stroke="midnightblue" d="M463.37,-175.56C431.23,-173.78 386.65,-169.25 354.95,-164.53"/>
<polygon fill="midnightblue" stroke="midnightblue" points="463.6,-179.08 473.76,-176.06 463.93,-172.09 463.6,-179.08"/>
</g>
<!-- Node3 -->
<g id="node11" class="node">
<title>Node3</title>
<g id="a_node11"><a xlink:href="classCDPL_1_1Base_1_1IndexError.html" target="_top" xlink:title="Thrown to indicate that an index is out of range.">
<polygon fill="none" stroke="black" points="625,-63.5 625,-82.5 741,-82.5 741,-63.5 625,-63.5"/>
<text text-anchor="middle" x="683" y="-70.5" font-family="Helvetica" font-size="10.00">CDPL.Base.IndexError</text>
</a>
</g>
</g>
<!-- Node2&#45;&gt;Node3 -->
<g id="edge10" class="edge">
<title>Node2&#45;&gt;Node3</title>
<path fill="none" stroke="midnightblue" d="M565.38,-124.06C573.39,-121.97 581.45,-119.61 589,-117 616.34,-107.53 646.32,-92.42 664.65,-82.61"/>
<polygon fill="midnightblue" stroke="midnightblue" points="564.51,-120.67 555.65,-126.48 566.2,-127.46 564.51,-120.67"/>
</g>
<!-- Node21 -->
<g id="node14" class="node">
<title>Node21</title>
<g id="a_node14"><a xlink:href="classCDPL_1_1ForceField_1_1ParameterizationFailed.html" target="_top" xlink:title=" ">
<polygon fill="none" stroke="black" points="421,-39 421,-69 589,-69 589,-39 421,-39"/>
<text text-anchor="start" x="429" y="-57" font-family="Helvetica" font-size="10.00">CDPL.ForceField.Parameterization</text>
<text text-anchor="middle" x="505" y="-46" font-family="Helvetica" font-size="10.00">Failed</text>
</a>
</g>
</g>
<!-- Node20&#45;&gt;Node21 -->
<g id="edge13" class="edge">
<title>Node20&#45;&gt;Node21</title>
<path fill="none" stroke="midnightblue" d="M369.61,-83.31C389.91,-78.88 413.33,-73.77 434.86,-69.08"/>
<polygon fill="midnightblue" stroke="midnightblue" points="368.63,-79.94 359.6,-85.49 370.12,-86.78 368.63,-79.94"/>
</g>
<!-- Node13 -->
<g id="node15" class="node">
<title>Node13</title>
<g id="a_node15"><a xlink:title=" ">
<polygon fill="none" stroke="#bfbfbf" points="474,-0.5 474,-19.5 536,-19.5 536,-0.5 474,-0.5"/>
<text text-anchor="middle" x="505" y="-7.5" font-family="Helvetica" font-size="10.00">IndexError</text>
</a>
</g>
</g>
<!-- Node13&#45;&gt;Node3 -->
<g id="edge14" class="edge">
<title>Node13&#45;&gt;Node3</title>
<path fill="none" stroke="midnightblue" d="M546.47,-18.07C560.15,-21.24 575.39,-25.27 589,-30 615.88,-39.35 645.49,-53.81 663.91,-63.34"/>
<polygon fill="midnightblue" stroke="midnightblue" points="546.9,-14.58 536.38,-15.82 545.37,-21.41 546.9,-14.58"/>
</g>
<!-- Node7 -->
<g id="node16" class="node">
<title>Node7</title>
<g id="a_node16"><a xlink:title=" ">
<polygon fill="none" stroke="#bfbfbf" points="289,-183.5 289,-202.5 341,-202.5 341,-183.5 289,-183.5"/>
<text text-anchor="middle" x="315" y="-190.5" font-family="Helvetica" font-size="10.00">OSError</text>
</a>
</g>
</g>
<!-- Node7&#45;&gt;Node8 -->
<g id="edge15" class="edge">
<title>Node7&#45;&gt;Node8</title>
<path fill="none" stroke="midnightblue" d="M351.36,-196.57C380.1,-199.48 421.04,-203.62 453.28,-206.87"/>
<polygon fill="midnightblue" stroke="midnightblue" points="351.66,-193.09 341.35,-195.56 350.95,-200.05 351.66,-193.09"/>
</g>
</g>
</svg>
