<?xml version="1.0" encoding="UTF-8" standalone="no"?>
<!DOCTYPE svg PUBLIC "-//W3C//DTD SVG 1.1//EN"
 "http://www.w3.org/Graphics/SVG/1.1/DTD/svg11.dtd">
<!-- Generated by graphviz version 2.44.0 (0)
 -->
<!-- Title: Graphical Class Hierarchy Pages: 1 -->
<svg width="280pt" height="116pt"
 viewBox="0.00 0.00 280.00 115.50" xmlns="http://www.w3.org/2000/svg" xmlns:xlink="http://www.w3.org/1999/xlink">
<g id="graph0" class="graph" transform="scale(1 1) rotate(0) translate(4 111.5)">
<title>Graphical Class Hierarchy</title>
<!-- Node1436 -->
<g id="node1" class="node">
<title>Node1436</title>
<g id="a_node1"><a xlink:title=" ">
<polygon fill="none" stroke="#bfbfbf" points="0,-50 0,-69 77,-69 77,-50 0,-50"/>
<text text-anchor="middle" x="38.5" y="-57" font-family="Helvetica" font-size="10.00">builtins.object</text>
</a>
</g>
</g>
<!-- Node0 -->
<g id="node2" class="node">
<title>Node0</title>
<g id="a_node2"><a xlink:href="classCDPL_1_1Util_1_1PropertyValue.html" target="_top" xlink:title="An unary functor that retrieves the value of a given property from the Base.PropertyContainer instanc...">
<polygon fill="none" stroke="black" points="130,-88 130,-107 255,-107 255,-88 130,-88"/>
<text text-anchor="middle" x="192.5" y="-95" font-family="Helvetica" font-size="10.00">CDPL.Util.PropertyValue</text>
</a>
</g>
</g>
<!-- Node1436&#45;&gt;Node0 -->
<g id="edge1" class="edge">
<title>Node1436&#45;&gt;Node0</title>
<path fill="none" stroke="midnightblue" d="M86.01,-71.64C94.96,-73.94 104.27,-76.31 113,-78.5 125.51,-81.63 139.17,-84.97 151.54,-87.95"/>
<polygon fill="midnightblue" stroke="midnightblue" points="86.67,-68.19 76.11,-69.08 84.92,-74.97 86.67,-68.19"/>
</g>
<!-- Node1438 -->
<g id="node3" class="node">
<title>Node1438</title>
<g id="a_node3"><a xlink:href="classCDPL_1_1Util_1_1PropertyValueProduct.html" target="_top" xlink:title="A binary functor that calculates the product of two property values retrieved from a pair of Base....">
<polygon fill="none" stroke="black" points="113,-50 113,-69 272,-69 272,-50 113,-50"/>
<text text-anchor="middle" x="192.5" y="-57" font-family="Helvetica" font-size="10.00">CDPL.Util.PropertyValueProduct</text>
</a>
</g>
</g>
<!-- Node1436&#45;&gt;Node1438 -->
<g id="edge2" class="edge">
<title>Node1436&#45;&gt;Node1438</title>
<path fill="none" stroke="midnightblue" d="M87.13,-59.5C95.31,-59.5 104,-59.5 112.74,-59.5"/>
<polygon fill="midnightblue" stroke="midnightblue" points="87.07,-56 77.07,-59.5 87.07,-63 87.07,-56"/>
</g>
<!-- Node1439 -->
<g id="node4" class="node">
<title>Node1439</title>
<g id="a_node4"><a xlink:href="classCDPL_1_1Vis_1_1QtBackend_1_1QtObjectFactory.html" target="_top" xlink:title="Provides methods for the creation of QFont, QColor, QPen and QBrush objects from Font,...">
<polygon fill="none" stroke="black" points="116,-0.5 116,-30.5 269,-30.5 269,-0.5 116,-0.5"/>
<text text-anchor="start" x="124" y="-18.5" font-family="Helvetica" font-size="10.00">CDPL.Vis.QtBackend.QtObject</text>
<text text-anchor="middle" x="192.5" y="-7.5" font-family="Helvetica" font-size="10.00">Factory</text>
</a>
</g>
</g>
<!-- Node1436&#45;&gt;Node1439 -->
<g id="edge3" class="edge">
<title>Node1436&#45;&gt;Node1439</title>
<path fill="none" stroke="midnightblue" d="M82.53,-47.04C100.24,-41.92 120.91,-35.94 139.46,-30.57"/>
<polygon fill="midnightblue" stroke="midnightblue" points="81.11,-43.81 72.48,-49.95 83.06,-50.53 81.11,-43.81"/>
</g>
</g>
</svg>
