<?xml version="1.0" encoding="UTF-8" standalone="no"?>
<!DOCTYPE svg PUBLIC "-//W3C//DTD SVG 1.1//EN"
 "http://www.w3.org/Graphics/SVG/1.1/DTD/svg11.dtd">
<!-- Generated by graphviz version 2.40.1 (0)
 -->
<!-- Title: CDPL.Base.IndexError Pages: 1 -->
<svg width="325pt" height="252pt"
 viewBox="0.00 0.00 324.50 252.00" xmlns="http://www.w3.org/2000/svg" xmlns:xlink="http://www.w3.org/1999/xlink">
<g id="graph0" class="graph" transform="scale(1 1) rotate(0) translate(4 248)">
<title>CDPL.Base.IndexError</title>
<!-- Node1 -->
<g id="node1" class="node">
<title>Node1</title>
<g id="a_node1"><a xlink:title="Thrown to indicate that an index is out of range.">
<polygon fill="#bfbfbf" stroke="#000000" points="133,-.5 133,-19.5 255,-19.5 255,-.5 133,-.5"/>
<text text-anchor="middle" x="194" y="-7.5" font-family="Helvetica,sans-Serif" font-size="10.00" fill="#000000">CDPL.Base.IndexError</text>
</a>
</g>
</g>
<!-- Node2 -->
<g id="node2" class="node">
<title>Node2</title>
<g id="a_node2"><a xlink:href="classCDPL_1_1Base_1_1RangeError.html" target="_top" xlink:title="Thrown to indicate that a value is out of range.">
<polygon fill="none" stroke="#000000" points="63,-56.5 63,-75.5 189,-75.5 189,-56.5 63,-56.5"/>
<text text-anchor="middle" x="126" y="-63.5" font-family="Helvetica,sans-Serif" font-size="10.00" fill="#000000">CDPL.Base.RangeError</text>
</a>
</g>
</g>
<!-- Node2&#45;&gt;Node1 -->
<g id="edge1" class="edge">
<title>Node2&#45;&gt;Node1</title>
<path fill="none" stroke="#191970" d="M145.8596,-49.645C157.6858,-39.9058 172.2892,-27.8795 182.291,-19.6427"/>
<polygon fill="#191970" stroke="#191970" points="143.339,-47.1867 137.8447,-56.2455 147.789,-52.5902 143.339,-47.1867"/>
</g>
<!-- Node3 -->
<g id="node3" class="node">
<title>Node3</title>
<g id="a_node3"><a xlink:href="classCDPL_1_1Base_1_1ValueError.html" target="_top" xlink:title="Thrown to indicate errors caused by some invalid value.">
<polygon fill="none" stroke="#000000" points="65,-112.5 65,-131.5 187,-131.5 187,-112.5 65,-112.5"/>
<text text-anchor="middle" x="126" y="-119.5" font-family="Helvetica,sans-Serif" font-size="10.00" fill="#000000">CDPL.Base.ValueError</text>
</a>
</g>
</g>
<!-- Node3&#45;&gt;Node2 -->
<g id="edge2" class="edge">
<title>Node3&#45;&gt;Node2</title>
<path fill="none" stroke="#191970" d="M126,-102.1575C126,-93.155 126,-82.9199 126,-75.6427"/>
<polygon fill="#191970" stroke="#191970" points="122.5001,-102.2455 126,-112.2455 129.5001,-102.2456 122.5001,-102.2455"/>
</g>
<!-- Node4 -->
<g id="node4" class="node">
<title>Node4</title>
<g id="a_node4"><a xlink:href="classCDPL_1_1Base_1_1Exception.html" target="_top" xlink:title="The root of the CDPL exception hierarchy.">
<polygon fill="none" stroke="#000000" points="0,-168.5 0,-187.5 120,-187.5 120,-168.5 0,-168.5"/>
<text text-anchor="middle" x="60" y="-175.5" font-family="Helvetica,sans-Serif" font-size="10.00" fill="#000000">CDPL.Base.Exception</text>
</a>
</g>
</g>
<!-- Node4&#45;&gt;Node3 -->
<g id="edge3" class="edge">
<title>Node4&#45;&gt;Node3</title>
<path fill="none" stroke="#191970" d="M79.2755,-161.645C90.7538,-151.9058 104.9277,-139.8795 114.6354,-131.6427"/>
<polygon fill="#191970" stroke="#191970" points="76.857,-159.1069 71.4963,-168.2455 81.3859,-164.4445 76.857,-159.1069"/>
</g>
<!-- Node5 -->
<g id="node5" class="node">
<title>Node5</title>
<g id="a_node5"><a xlink:title=" ">
<polygon fill="none" stroke="#bfbfbf" points="6.5,-224.5 6.5,-243.5 113.5,-243.5 113.5,-224.5 6.5,-224.5"/>
<text text-anchor="middle" x="60" y="-231.5" font-family="Helvetica,sans-Serif" font-size="10.00" fill="#000000">builtins::Exception</text>
</a>
</g>
</g>
<!-- Node5&#45;&gt;Node4 -->
<g id="edge4" class="edge">
<title>Node5&#45;&gt;Node4</title>
<path fill="none" stroke="#191970" d="M60,-214.1575C60,-205.155 60,-194.9199 60,-187.6427"/>
<polygon fill="#191970" stroke="#191970" points="56.5001,-214.2455 60,-224.2455 63.5001,-214.2456 56.5001,-214.2455"/>
</g>
<!-- Node6 -->
<g id="node6" class="node">
<title>Node6</title>
<g id="a_node6"><a xlink:title=" ">
<polygon fill="none" stroke="#bfbfbf" points="138.5,-168.5 138.5,-187.5 247.5,-187.5 247.5,-168.5 138.5,-168.5"/>
<text text-anchor="middle" x="193" y="-175.5" font-family="Helvetica,sans-Serif" font-size="10.00" fill="#000000">builtins::ValueError</text>
</a>
</g>
</g>
<!-- Node6&#45;&gt;Node3 -->
<g id="edge5" class="edge">
<title>Node6&#45;&gt;Node3</title>
<path fill="none" stroke="#191970" d="M173.4324,-161.645C161.7802,-151.9058 147.3916,-139.8795 137.5368,-131.6427"/>
<polygon fill="#191970" stroke="#191970" points="171.4121,-164.5179 181.3295,-168.2455 175.9012,-159.1469 171.4121,-164.5179"/>
</g>
<!-- Node7 -->
<g id="node7" class="node">
<title>Node7</title>
<g id="a_node7"><a xlink:title=" ">
<polygon fill="none" stroke="#bfbfbf" points="207.5,-56.5 207.5,-75.5 316.5,-75.5 316.5,-56.5 207.5,-56.5"/>
<text text-anchor="middle" x="262" y="-63.5" font-family="Helvetica,sans-Serif" font-size="10.00" fill="#000000">builtins::IndexError</text>
</a>
</g>
</g>
<!-- Node7&#45;&gt;Node1 -->
<g id="edge6" class="edge">
<title>Node7&#45;&gt;Node1</title>
<path fill="none" stroke="#191970" d="M242.1404,-49.645C230.3142,-39.9058 215.7108,-27.8795 205.709,-19.6427"/>
<polygon fill="#191970" stroke="#191970" points="240.211,-52.5902 250.1553,-56.2455 244.661,-47.1867 240.211,-52.5902"/>
</g>
</g>
</svg>
