<?xml version="1.0" encoding="UTF-8" standalone="no"?>
<!DOCTYPE svg PUBLIC "-//W3C//DTD SVG 1.1//EN"
 "http://www.w3.org/Graphics/SVG/1.1/DTD/svg11.dtd">
<!-- Generated by graphviz version 2.40.1 (0)
 -->
<!-- Title: CDPL.Grid.CDFBZ2DRegularGridSetInputHandler Pages: 1 -->
<svg width="160pt" height="162pt"
 viewBox="0.00 0.00 160.00 162.00" xmlns="http://www.w3.org/2000/svg" xmlns:xlink="http://www.w3.org/1999/xlink">
<g id="graph0" class="graph" transform="scale(1 1) rotate(0) translate(4 158)">
<title>CDPL.Grid.CDFBZ2DRegularGridSetInputHandler</title>
<!-- Node1 -->
<g id="node1" class="node">
<title>Node1</title>
<g id="a_node1"><a xlink:title="A handler for the input of bzip2&#45;compressed spatial regular grid set data in the native I/O format of...">
<polygon fill="#bfbfbf" stroke="#000000" points="0,-.5 0,-30.5 152,-30.5 152,-.5 0,-.5"/>
<text text-anchor="start" x="8" y="-18.5" font-family="Helvetica,sans-Serif" font-size="10.00" fill="#000000">CDPL.Grid.CDFBZ2DRegular</text>
<text text-anchor="middle" x="76" y="-7.5" font-family="Helvetica,sans-Serif" font-size="10.00" fill="#000000">GridSetInputHandler</text>
</a>
</g>
</g>
<!-- Node2 -->
<g id="node2" class="node">
<title>Node2</title>
<g id="a_node2"><a xlink:href="classCDPL_1_1Grid_1_1DRegularGridSetInputHandler.html" target="_top" xlink:title="A factory interface providing methods for the creation of Grid.DRegularGridSetReaderBase instances fo...">
<polygon fill="none" stroke="#000000" points="1.5,-67.5 1.5,-97.5 150.5,-97.5 150.5,-67.5 1.5,-67.5"/>
<text text-anchor="start" x="9.5" y="-85.5" font-family="Helvetica,sans-Serif" font-size="10.00" fill="#000000">CDPL.Grid.DRegularGridSet</text>
<text text-anchor="middle" x="76" y="-74.5" font-family="Helvetica,sans-Serif" font-size="10.00" fill="#000000">InputHandler</text>
</a>
</g>
</g>
<!-- Node2&#45;&gt;Node1 -->
<g id="edge1" class="edge">
<title>Node2&#45;&gt;Node1</title>
<path fill="none" stroke="#191970" d="M76,-57.0249C76,-48.128 76,-38.4287 76,-30.6432"/>
<polygon fill="#191970" stroke="#191970" points="72.5001,-57.2966 76,-67.2967 79.5001,-57.2967 72.5001,-57.2966"/>
</g>
<!-- Node3 -->
<g id="node3" class="node">
<title>Node3</title>
<g id="a_node3"><a xlink:title=" ">
<polygon fill="none" stroke="#bfbfbf" points="47,-134.5 47,-153.5 105,-153.5 105,-134.5 47,-134.5"/>
<text text-anchor="middle" x="76" y="-141.5" font-family="Helvetica,sans-Serif" font-size="10.00" fill="#000000">instance</text>
</a>
</g>
</g>
<!-- Node3&#45;&gt;Node2 -->
<g id="edge2" class="edge">
<title>Node3&#45;&gt;Node2</title>
<path fill="none" stroke="#191970" d="M76,-124.3693C76,-115.681 76,-105.6241 76,-97.5446"/>
<polygon fill="#191970" stroke="#191970" points="72.5001,-124.3906 76,-134.3906 79.5001,-124.3907 72.5001,-124.3906"/>
</g>
</g>
</svg>
