<?xml version="1.0" encoding="UTF-8" standalone="no"?>
<!DOCTYPE svg PUBLIC "-//W3C//DTD SVG 1.1//EN"
 "http://www.w3.org/Graphics/SVG/1.1/DTD/svg11.dtd">
<!-- Generated by graphviz version 2.40.1 (0)
 -->
<!-- Title: CDPL.Base.OStream Pages: 1 -->
<!--zoomable 161 -->
<svg id="main" version="1.1" xmlns="http://www.w3.org/2000/svg" xmlns:xlink="http://www.w3.org/1999/xlink" xml:space="preserve" onload="init(evt)">
<style type="text/css"><![CDATA[
.edge:hover path { stroke: red; }
.edge:hover polygon { stroke: red; fill: red; }
]]></style>
<script type="text/javascript"><![CDATA[
var edges = document.getElementsByTagName('g');
if (edges && edges.length) {
  for (var i=0;i<edges.length;i++) {
    if (edges[i].id.substr(0,4)=='edge') {
      edges[i].setAttribute('class','edge');
    }
  }
}
]]></script>
        <defs>
                <circle id="rim" cx="0" cy="0" r="7"/>
                <circle id="rim2" cx="0" cy="0" r="3.5"/>
                <g id="zoomPlus">
                        <use xlink:href="#rim" fill="#404040">
                                <set attributeName="fill" to="#808080" begin="zoomplus.mouseover" end="zoomplus.mouseout"/>
                        </use>
                        <path d="M-4,0h8M0,-4v8" fill="none" stroke="white" stroke-width="1.5" pointer-events="none"/>
                </g>
                <g id="zoomMin">
                        <use xlink:href="#rim" fill="#404040">
                                <set attributeName="fill" to="#808080" begin="zoomminus.mouseover" end="zoomminus.mouseout"/>
                        </use>
                        <path d="M-4,0h8" fill="none" stroke="white" stroke-width="1.5" pointer-events="none"/>
                </g>
                <g id="dirArrow">
                        <path fill="none" stroke="white" stroke-width="1.5" d="M0,-3.0v7 M-2.5,-0.5L0,-3.0L2.5,-0.5"/>
                </g>
               <g id="resetDef">
                       <use xlink:href="#rim2" fill="#404040">
                               <set attributeName="fill" to="#808080" begin="reset.mouseover" end="reset.mouseout"/>
                       </use>
               </g>
        </defs>

<script type="text/javascript">
var viewWidth = 572;
var viewHeight = 161;
var sectionId = 'dynsection-0';
</script>
<script xlink:href="svgpan.js"/>
<svg id="graph" class="graph">
<g id="viewport">
<title>CDPL.Base.OStream</title>
<!-- Node1 -->
<g id="node1" class="node">
<title>Node1</title>
<g id="a_node1"><a xlink:title=" ">
<polygon fill="#bfbfbf" stroke="#000000" points="94,-38.5 94,-57.5 209,-57.5 209,-38.5 94,-38.5"/>
<text text-anchor="middle" x="151.5" y="-45.5" font-family="Helvetica,sans-Serif" font-size="10.00" fill="#000000">CDPL.Base.OStream</text>
</a>
</g>
</g>
<!-- Node3 -->
<g id="node3" class="node">
<title>Node3</title>
<g id="a_node3"><a xlink:href="classCDPL_1_1Base_1_1IOStream.html" target="_top" xlink:title=" ">
<polygon fill="none" stroke="#000000" points="254.5,-76.5 254.5,-95.5 372.5,-95.5 372.5,-76.5 254.5,-76.5"/>
<text text-anchor="middle" x="313.5" y="-83.5" font-family="Helvetica,sans-Serif" font-size="10.00" fill="#000000">CDPL.Base.IOStream</text>
</a>
</g>
</g>
<!-- Node1&#45;&gt;Node3 -->
<g id="edge2" class="edge">
<title>Node1&#45;&gt;Node3</title>
<path fill="none" stroke="#191970" d="M202.2148,-59.8961C224.9856,-65.2374 251.4867,-71.4537 272.9145,-76.4799"/>
<polygon fill="#191970" stroke="#191970" points="202.9145,-56.4653 192.3794,-57.589 201.3159,-63.2803 202.9145,-56.4653"/>
</g>
<!-- Node8 -->
<g id="node8" class="node">
<title>Node8</title>
<g id="a_node8"><a xlink:href="classCDPL_1_1Util_1_1BZip2OStream.html" target="_top" xlink:title=" ">
<polygon fill="none" stroke="#000000" points="245,-38.5 245,-57.5 382,-57.5 382,-38.5 245,-38.5"/>
<text text-anchor="middle" x="313.5" y="-45.5" font-family="Helvetica,sans-Serif" font-size="10.00" fill="#000000">CDPL.Util.BZip2OStream</text>
</a>
</g>
</g>
<!-- Node1&#45;&gt;Node8 -->
<g id="edge7" class="edge">
<title>Node1&#45;&gt;Node8</title>
<path fill="none" stroke="#191970" d="M219.236,-48C227.6704,-48 236.302,-48 244.7515,-48"/>
<polygon fill="#191970" stroke="#191970" points="219.0713,-44.5001 209.0713,-48 219.0712,-51.5001 219.0713,-44.5001"/>
</g>
<!-- Node9 -->
<g id="node9" class="node">
<title>Node9</title>
<g id="a_node9"><a xlink:href="classCDPL_1_1Util_1_1GZipOStream.html" target="_top" xlink:title=" ">
<polygon fill="none" stroke="#000000" points="248,-.5 248,-19.5 379,-19.5 379,-.5 248,-.5"/>
<text text-anchor="middle" x="313.5" y="-7.5" font-family="Helvetica,sans-Serif" font-size="10.00" fill="#000000">CDPL.Util.GZipOStream</text>
</a>
</g>
</g>
<!-- Node1&#45;&gt;Node9 -->
<g id="edge8" class="edge">
<title>Node1&#45;&gt;Node9</title>
<path fill="none" stroke="#191970" d="M202.2148,-36.1039C224.9856,-30.7626 251.4867,-24.5463 272.9145,-19.5201"/>
<polygon fill="#191970" stroke="#191970" points="201.3159,-32.7197 192.3794,-38.411 202.9145,-39.5347 201.3159,-32.7197"/>
</g>
<!-- Node2 -->
<g id="node2" class="node">
<title>Node2</title>
<g id="a_node2"><a xlink:title=" ">
<polygon fill="none" stroke="#bfbfbf" points="0,-38.5 0,-57.5 58,-57.5 58,-38.5 0,-38.5"/>
<text text-anchor="middle" x="29" y="-45.5" font-family="Helvetica,sans-Serif" font-size="10.00" fill="#000000">instance</text>
</a>
</g>
</g>
<!-- Node2&#45;&gt;Node1 -->
<g id="edge1" class="edge">
<title>Node2&#45;&gt;Node1</title>
<path fill="none" stroke="#191970" d="M68.0451,-48C76.2531,-48 85.0766,-48 93.8034,-48"/>
<polygon fill="#191970" stroke="#191970" points="68.0308,-44.5001 58.0308,-48 68.0308,-51.5001 68.0308,-44.5001"/>
</g>
<!-- Node4 -->
<g id="node4" class="node">
<title>Node4</title>
<g id="a_node4"><a xlink:href="classCDPL_1_1Base_1_1FileIOStream.html" target="_top" xlink:title=" ">
<polygon fill="none" stroke="#000000" points="424,-133.5 424,-152.5 558,-152.5 558,-133.5 424,-133.5"/>
<text text-anchor="middle" x="491" y="-140.5" font-family="Helvetica,sans-Serif" font-size="10.00" fill="#000000">CDPL.Base.FileIOStream</text>
</a>
</g>
</g>
<!-- Node3&#45;&gt;Node4 -->
<g id="edge3" class="edge">
<title>Node3&#45;&gt;Node4</title>
<path fill="none" stroke="#191970" d="M347.221,-99.1771C367.5599,-106.8952 394.0807,-116.5564 418,-124 428.7537,-127.3465 440.5207,-130.5888 451.4064,-133.4193"/>
<polygon fill="#191970" stroke="#191970" points="348.362,-95.8663 337.7715,-95.5626 345.8611,-102.4043 348.362,-95.8663"/>
</g>
<!-- Node5 -->
<g id="node5" class="node">
<title>Node5</title>
<g id="a_node5"><a xlink:href="classCDPL_1_1Base_1_1StringIOStream.html" target="_top" xlink:title=" ">
<polygon fill="none" stroke="#000000" points="418,-95.5 418,-114.5 564,-114.5 564,-95.5 418,-95.5"/>
<text text-anchor="middle" x="491" y="-102.5" font-family="Helvetica,sans-Serif" font-size="10.00" fill="#000000">CDPL.Base.StringIOStream</text>
</a>
</g>
</g>
<!-- Node3&#45;&gt;Node5 -->
<g id="edge4" class="edge">
<title>Node3&#45;&gt;Node5</title>
<path fill="none" stroke="#191970" d="M382.6386,-93.4008C394.2177,-94.6402 406.2656,-95.9298 417.9394,-97.1794"/>
<polygon fill="#191970" stroke="#191970" points="382.9207,-89.911 372.6049,-92.3267 382.1756,-96.8713 382.9207,-89.911"/>
</g>
<!-- Node6 -->
<g id="node6" class="node">
<title>Node6</title>
<g id="a_node6"><a xlink:href="classCDPL_1_1Util_1_1BZip2IOStream.html" target="_top" xlink:title=" ">
<polygon fill="none" stroke="#000000" points="421,-57.5 421,-76.5 561,-76.5 561,-57.5 421,-57.5"/>
<text text-anchor="middle" x="491" y="-64.5" font-family="Helvetica,sans-Serif" font-size="10.00" fill="#000000">CDPL.Util.BZip2IOStream</text>
</a>
</g>
</g>
<!-- Node3&#45;&gt;Node6 -->
<g id="edge5" class="edge">
<title>Node3&#45;&gt;Node6</title>
<path fill="none" stroke="#191970" d="M382.9019,-78.5711C395.3365,-77.24 408.3037,-75.852 420.7617,-74.5185"/>
<polygon fill="#191970" stroke="#191970" points="382.1756,-75.1287 372.6049,-79.6733 382.9207,-82.089 382.1756,-75.1287"/>
</g>
<!-- Node7 -->
<g id="node7" class="node">
<title>Node7</title>
<g id="a_node7"><a xlink:href="classCDPL_1_1Util_1_1GZipIOStream.html" target="_top" xlink:title=" ">
<polygon fill="none" stroke="#000000" points="424,-19.5 424,-38.5 558,-38.5 558,-19.5 424,-19.5"/>
<text text-anchor="middle" x="491" y="-26.5" font-family="Helvetica,sans-Serif" font-size="10.00" fill="#000000">CDPL.Util.GZipIOStream</text>
</a>
</g>
</g>
<!-- Node3&#45;&gt;Node7 -->
<g id="edge6" class="edge">
<title>Node3&#45;&gt;Node7</title>
<path fill="none" stroke="#191970" d="M363.3646,-73.5285C369.7065,-71.5464 376.0537,-69.3619 382,-67 398.8138,-60.3214 401.1334,-54.5443 418,-48 427.401,-44.3524 437.7509,-41.1801 447.6285,-38.5272"/>
<polygon fill="#191970" stroke="#191970" points="362.0493,-70.2681 353.4616,-76.473 364.0444,-76.9777 362.0493,-70.2681"/>
</g>
</g>
</svg>
        <g id="navigator" transform="translate(0 0)" fill="#404254">
                <rect fill="#f2f5e9" fill-opacity="0.5" stroke="#606060" stroke-width=".5" x="0" y="0" width="60" height="60"/>
                <use id="zoomplus" xlink:href="#zoomPlus" x="17" y="9" onmousedown="handleZoom(evt,'in')"/>
                <use id="zoomminus" xlink:href="#zoomMin" x="42" y="9" onmousedown="handleZoom(evt,'out')"/>
                <use id="reset" xlink:href="#resetDef" x="30" y="36" onmousedown="handleReset()"/>
                <g id="arrowUp" xlink:href="#dirArrow" transform="translate(30 24)" onmousedown="handlePan(0,-1)">
                  <use xlink:href="#rim" fill="#404040">
                        <set attributeName="fill" to="#808080" begin="arrowUp.mouseover" end="arrowUp.mouseout"/>
                  </use>
                  <path fill="none" stroke="white" stroke-width="1.5" d="M0,-3.0v7 M-2.5,-0.5L0,-3.0L2.5,-0.5"/>
                </g>
                <g id="arrowRight" xlink:href="#dirArrow" transform="rotate(90) translate(36 -43)" onmousedown="handlePan(1,0)">
                  <use xlink:href="#rim" fill="#404040">
                        <set attributeName="fill" to="#808080" begin="arrowRight.mouseover" end="arrowRight.mouseout"/>
                  </use>
                  <path fill="none" stroke="white" stroke-width="1.5" d="M0,-3.0v7 M-2.5,-0.5L0,-3.0L2.5,-0.5"/>
                </g>
                <g id="arrowDown" xlink:href="#dirArrow" transform="rotate(180) translate(-30 -48)" onmousedown="handlePan(0,1)">
                  <use xlink:href="#rim" fill="#404040">
                        <set attributeName="fill" to="#808080" begin="arrowDown.mouseover" end="arrowDown.mouseout"/>
                  </use>
                  <path fill="none" stroke="white" stroke-width="1.5" d="M0,-3.0v7 M-2.5,-0.5L0,-3.0L2.5,-0.5"/>
                </g>
                <g id="arrowLeft" xlink:href="#dirArrow" transform="rotate(270) translate(-36 17)" onmousedown="handlePan(-1,0)">
                  <use xlink:href="#rim" fill="#404040">
                        <set attributeName="fill" to="#808080" begin="arrowLeft.mouseover" end="arrowLeft.mouseout"/>
                  </use>
                  <path fill="none" stroke="white" stroke-width="1.5" d="M0,-3.0v7 M-2.5,-0.5L0,-3.0L2.5,-0.5"/>
                </g>
        </g>
        <svg viewBox="0 0 15 15" width="100%" height="30px" preserveAspectRatio="xMaxYMin meet">
         <g id="arrow_out" transform="scale(0.3 0.3)">
          <a xlink:href="classCDPL_1_1Base_1_1OStream__inherit__graph_org.svg" target="_base">
           <rect id="button" ry="5" rx="5" y="6" x="6" height="38" width="38"
                fill="#f2f5e9" fill-opacity="0.5" stroke="#606060" stroke-width="1.0"/>
           <path id="arrow"
             d="M 11.500037,31.436501 C 11.940474,20.09759 22.043105,11.32322 32.158766,21.979434 L 37.068811,17.246167 C 37.068811,17.246167 37.088388,32 37.088388,32 L 22.160133,31.978069 C 22.160133,31.978069 26.997745,27.140456 26.997745,27.140456 C 18.528582,18.264221 13.291696,25.230495 11.500037,31.436501 z"
             style="fill:#404040;"/>
          </a>
         </g>
        </svg>
</svg>
