<?xml version="1.0" encoding="UTF-8" standalone="no"?>
<!DOCTYPE svg PUBLIC "-//W3C//DTD SVG 1.1//EN"
 "http://www.w3.org/Graphics/SVG/1.1/DTD/svg11.dtd">
<!-- Generated by graphviz version 2.40.1 (0)
 -->
<!-- Title: Graphical Class Hierarchy Pages: 1 -->
<svg width="261pt" height="116pt"
 viewBox="0.00 0.00 261.00 115.50" xmlns="http://www.w3.org/2000/svg" xmlns:xlink="http://www.w3.org/1999/xlink">
<g id="graph0" class="graph" transform="scale(1 1) rotate(0) translate(4 111.5)">
<title>Graphical Class Hierarchy</title>
<!-- Node9 -->
<g id="node1" class="node">
<title>Node9</title>
<g id="a_node1"><a xlink:title=" ">
<polygon fill="none" stroke="#bfbfbf" points="0,-50 0,-69 47,-69 47,-50 0,-50"/>
<text text-anchor="middle" x="23.5" y="-57" font-family="Helvetica,sans-Serif" font-size="10.00" fill="#000000">object</text>
</a>
</g>
</g>
<!-- Node0 -->
<g id="node2" class="node">
<title>Node0</title>
<g id="a_node2"><a xlink:href="classCDPL_1_1Util_1_1PropertyValue.html" target="_top" xlink:title="An unary functor that retrieves the value of a given property from the Base.PropertyContainer instanc...">
<polygon fill="none" stroke="#000000" points="101,-88 101,-107 235,-107 235,-88 101,-88"/>
<text text-anchor="middle" x="168" y="-95" font-family="Helvetica,sans-Serif" font-size="10.00" fill="#000000">CDPL.Util.PropertyValue</text>
</a>
</g>
</g>
<!-- Node9&#45;&gt;Node0 -->
<g id="edge1" class="edge">
<title>Node9&#45;&gt;Node0</title>
<path fill="none" stroke="#191970" d="M56.7213,-70.6851C65.2423,-73.3948 74.4239,-76.1772 83,-78.5 95.5519,-81.8997 109.2631,-85.1594 121.9381,-87.9896"/>
<polygon fill="#191970" stroke="#191970" points="57.6897,-67.3198 47.0978,-67.5693 55.5335,-73.9795 57.6897,-67.3198"/>
</g>
<!-- Node11 -->
<g id="node3" class="node">
<title>Node11</title>
<g id="a_node3"><a xlink:href="classCDPL_1_1Util_1_1PropertyValueProduct.html" target="_top" xlink:title="A binary functor that calculates the product of two property values retrieved from a pair of Base....">
<polygon fill="none" stroke="#000000" points="83,-50 83,-69 253,-69 253,-50 83,-50"/>
<text text-anchor="middle" x="168" y="-57" font-family="Helvetica,sans-Serif" font-size="10.00" fill="#000000">CDPL.Util.PropertyValueProduct</text>
</a>
</g>
</g>
<!-- Node9&#45;&gt;Node11 -->
<g id="edge2" class="edge">
<title>Node9&#45;&gt;Node11</title>
<path fill="none" stroke="#191970" d="M57.2085,-59.5C65.102,-59.5 73.8632,-59.5 82.9017,-59.5"/>
<polygon fill="#191970" stroke="#191970" points="57.0381,-56.0001 47.038,-59.5 57.038,-63.0001 57.0381,-56.0001"/>
</g>
<!-- Node12 -->
<g id="node4" class="node">
<title>Node12</title>
<g id="a_node4"><a xlink:href="classCDPL_1_1Vis_1_1QtBackend_1_1QtObjectFactory.html" target="_top" xlink:title="Provides methods for the creation of QFont, QColor, QPen and QBrush objects from Font,...">
<polygon fill="none" stroke="#000000" points="87,-.5 87,-30.5 249,-30.5 249,-.5 87,-.5"/>
<text text-anchor="start" x="95" y="-18.5" font-family="Helvetica,sans-Serif" font-size="10.00" fill="#000000">CDPL.Vis.QtBackend.QtObject</text>
<text text-anchor="middle" x="168" y="-7.5" font-family="Helvetica,sans-Serif" font-size="10.00" fill="#000000">Factory</text>
</a>
</g>
</g>
<!-- Node9&#45;&gt;Node12 -->
<g id="edge3" class="edge">
<title>Node9&#45;&gt;Node12</title>
<path fill="none" stroke="#191970" d="M56.8343,-48.7064C65.3531,-45.989 74.5054,-43.1051 83,-40.5 93.7354,-37.2077 105.2599,-33.7602 116.2506,-30.5137"/>
<polygon fill="#191970" stroke="#191970" points="55.6572,-45.4082 47.2024,-51.7932 57.7935,-52.0743 55.6572,-45.4082"/>
</g>
</g>
</svg>
