<?xml version="1.0" encoding="UTF-8" standalone="no"?>
<!DOCTYPE svg PUBLIC "-//W3C//DTD SVG 1.1//EN"
 "http://www.w3.org/Graphics/SVG/1.1/DTD/svg11.dtd">
<!-- Generated by graphviz version 2.40.1 (0)
 -->
<!-- Title: CDPL.Base.IOStream Pages: 1 -->
<svg width="553pt" height="142pt"
 viewBox="0.00 0.00 553.00 142.00" xmlns="http://www.w3.org/2000/svg" xmlns:xlink="http://www.w3.org/1999/xlink">
<g id="graph0" class="graph" transform="scale(1 1) rotate(0) translate(4 138)">
<title>CDPL.Base.IOStream</title>
<!-- Node1 -->
<g id="node1" class="node">
<title>Node1</title>
<g id="a_node1"><a xlink:title=" ">
<polygon fill="#bfbfbf" stroke="#000000" points="245,-57.5 245,-76.5 363,-76.5 363,-57.5 245,-57.5"/>
<text text-anchor="middle" x="304" y="-64.5" font-family="Helvetica,sans-Serif" font-size="10.00" fill="#000000">CDPL.Base.IOStream</text>
</a>
</g>
</g>
<!-- Node5 -->
<g id="node5" class="node">
<title>Node5</title>
<g id="a_node5"><a xlink:href="classCDPL_1_1Base_1_1FileIOStream.html" target="_top" xlink:title=" ">
<polygon fill="none" stroke="#000000" points="405,-114.5 405,-133.5 539,-133.5 539,-114.5 405,-114.5"/>
<text text-anchor="middle" x="472" y="-121.5" font-family="Helvetica,sans-Serif" font-size="10.00" fill="#000000">CDPL.Base.FileIOStream</text>
</a>
</g>
</g>
<!-- Node1&#45;&gt;Node5 -->
<g id="edge5" class="edge">
<title>Node1&#45;&gt;Node5</title>
<path fill="none" stroke="#191970" d="M334.9375,-80.5226C353.3363,-88.2748 377.2572,-97.8534 399,-105 409.4505,-108.435 420.9024,-111.6614 431.5735,-114.4463"/>
<polygon fill="#191970" stroke="#191970" points="336.169,-77.2429 325.5972,-76.5445 333.426,-83.6831 336.169,-77.2429"/>
</g>
<!-- Node6 -->
<g id="node6" class="node">
<title>Node6</title>
<g id="a_node6"><a xlink:href="classCDPL_1_1Base_1_1StringIOStream.html" target="_top" xlink:title=" ">
<polygon fill="none" stroke="#000000" points="399,-76.5 399,-95.5 545,-95.5 545,-76.5 399,-76.5"/>
<text text-anchor="middle" x="472" y="-83.5" font-family="Helvetica,sans-Serif" font-size="10.00" fill="#000000">CDPL.Base.StringIOStream</text>
</a>
</g>
</g>
<!-- Node1&#45;&gt;Node6 -->
<g id="edge6" class="edge">
<title>Node1&#45;&gt;Node6</title>
<path fill="none" stroke="#191970" d="M373.3726,-74.8457C381.789,-75.7976 390.4074,-76.7723 398.8759,-77.73"/>
<polygon fill="#191970" stroke="#191970" points="373.5605,-71.3447 363.2305,-73.6987 372.7738,-78.3004 373.5605,-71.3447"/>
</g>
<!-- Node7 -->
<g id="node7" class="node">
<title>Node7</title>
<g id="a_node7"><a xlink:href="classCDPL_1_1Util_1_1BZip2IOStream.html" target="_top" xlink:title=" ">
<polygon fill="none" stroke="#000000" points="402,-38.5 402,-57.5 542,-57.5 542,-38.5 402,-38.5"/>
<text text-anchor="middle" x="472" y="-45.5" font-family="Helvetica,sans-Serif" font-size="10.00" fill="#000000">CDPL.Util.BZip2IOStream</text>
</a>
</g>
</g>
<!-- Node1&#45;&gt;Node7 -->
<g id="edge7" class="edge">
<title>Node1&#45;&gt;Node7</title>
<path fill="none" stroke="#191970" d="M373.3135,-59.161C382.7188,-58.0973 392.3777,-57.0049 401.7985,-55.9395"/>
<polygon fill="#191970" stroke="#191970" points="372.7738,-55.6996 363.2305,-60.3013 373.5605,-62.6553 372.7738,-55.6996"/>
</g>
<!-- Node8 -->
<g id="node8" class="node">
<title>Node8</title>
<g id="a_node8"><a xlink:href="classCDPL_1_1Util_1_1GZipIOStream.html" target="_top" xlink:title=" ">
<polygon fill="none" stroke="#000000" points="405,-.5 405,-19.5 539,-19.5 539,-.5 405,-.5"/>
<text text-anchor="middle" x="472" y="-7.5" font-family="Helvetica,sans-Serif" font-size="10.00" fill="#000000">CDPL.Util.GZipIOStream</text>
</a>
</g>
</g>
<!-- Node1&#45;&gt;Node8 -->
<g id="edge8" class="edge">
<title>Node1&#45;&gt;Node8</title>
<path fill="none" stroke="#191970" d="M334.9375,-53.4774C353.3363,-45.7252 377.2572,-36.1466 399,-29 409.4505,-25.565 420.9024,-22.3386 431.5735,-19.5537"/>
<polygon fill="#191970" stroke="#191970" points="333.426,-50.3169 325.5972,-57.4555 336.169,-56.7571 333.426,-50.3169"/>
</g>
<!-- Node2 -->
<g id="node2" class="node">
<title>Node2</title>
<g id="a_node2"><a xlink:href="classCDPL_1_1Base_1_1IStream.html" target="_top" xlink:title=" ">
<polygon fill="none" stroke="#000000" points="96.5,-76.5 96.5,-95.5 206.5,-95.5 206.5,-76.5 96.5,-76.5"/>
<text text-anchor="middle" x="151.5" y="-83.5" font-family="Helvetica,sans-Serif" font-size="10.00" fill="#000000">CDPL.Base.IStream</text>
</a>
</g>
</g>
<!-- Node2&#45;&gt;Node1 -->
<g id="edge1" class="edge">
<title>Node2&#45;&gt;Node1</title>
<path fill="none" stroke="#191970" d="M216.6277,-77.8857C226.0183,-76.7158 235.6389,-75.5171 244.9031,-74.3629"/>
<polygon fill="#191970" stroke="#191970" points="216.0465,-74.431 206.556,-79.1406 216.912,-81.3773 216.0465,-74.431"/>
</g>
<!-- Node3 -->
<g id="node3" class="node">
<title>Node3</title>
<g id="a_node3"><a xlink:title=" ">
<polygon fill="none" stroke="#bfbfbf" points="0,-57.5 0,-76.5 58,-76.5 58,-57.5 0,-57.5"/>
<text text-anchor="middle" x="29" y="-64.5" font-family="Helvetica,sans-Serif" font-size="10.00" fill="#000000">instance</text>
</a>
</g>
</g>
<!-- Node3&#45;&gt;Node2 -->
<g id="edge2" class="edge">
<title>Node3&#45;&gt;Node2</title>
<path fill="none" stroke="#191970" d="M68.1459,-73.0716C77.0939,-74.4595 86.7687,-75.96 96.25,-77.4306"/>
<polygon fill="#191970" stroke="#191970" points="68.4491,-69.5769 58.0308,-71.5027 67.3762,-76.4942 68.4491,-69.5769"/>
</g>
<!-- Node4 -->
<g id="node4" class="node">
<title>Node4</title>
<g id="a_node4"><a xlink:href="classCDPL_1_1Base_1_1OStream.html" target="_top" xlink:title=" ">
<polygon fill="none" stroke="#000000" points="94,-38.5 94,-57.5 209,-57.5 209,-38.5 94,-38.5"/>
<text text-anchor="middle" x="151.5" y="-45.5" font-family="Helvetica,sans-Serif" font-size="10.00" fill="#000000">CDPL.Base.OStream</text>
</a>
</g>
</g>
<!-- Node3&#45;&gt;Node4 -->
<g id="edge4" class="edge">
<title>Node3&#45;&gt;Node4</title>
<path fill="none" stroke="#191970" d="M68.0451,-60.944C76.2531,-59.6709 85.0766,-58.3024 93.8034,-56.9489"/>
<polygon fill="#191970" stroke="#191970" points="67.3762,-57.5058 58.0308,-62.4973 68.4491,-64.4231 67.3762,-57.5058"/>
</g>
<!-- Node4&#45;&gt;Node1 -->
<g id="edge3" class="edge">
<title>Node4&#45;&gt;Node1</title>
<path fill="none" stroke="#191970" d="M219.1674,-56.4307C227.7783,-57.5035 236.5371,-58.5948 244.9969,-59.6488"/>
<polygon fill="#191970" stroke="#191970" points="219.5097,-52.9464 209.1537,-55.1831 218.6442,-59.8927 219.5097,-52.9464"/>
</g>
</g>
</svg>
