<?xml version="1.0" encoding="UTF-8" standalone="no"?>
<!DOCTYPE svg PUBLIC "-//W3C//DTD SVG 1.1//EN"
 "http://www.w3.org/Graphics/SVG/1.1/DTD/svg11.dtd">
<!-- Generated by graphviz version 2.40.1 (0)
 -->
<!-- Title: CDPL.Vis.LineSegmentListPrimitive2D Pages: 1 -->
<svg width="318pt" height="207pt"
 viewBox="0.00 0.00 318.00 207.00" xmlns="http://www.w3.org/2000/svg" xmlns:xlink="http://www.w3.org/1999/xlink">
<g id="graph0" class="graph" transform="scale(1 1) rotate(0) translate(4 203)">
<title>CDPL.Vis.LineSegmentListPrimitive2D</title>
<!-- Node1 -->
<g id="node1" class="node">
<title>Node1</title>
<g id="a_node1"><a xlink:title="A graphics primitive representing a list of disjoint line segments.">
<polygon fill="#bfbfbf" stroke="#000000" points="74,-.5 74,-30.5 218,-30.5 218,-.5 74,-.5"/>
<text text-anchor="start" x="82" y="-18.5" font-family="Helvetica,sans-Serif" font-size="10.00" fill="#000000">CDPL.Vis.LineSegmentList</text>
<text text-anchor="middle" x="146" y="-7.5" font-family="Helvetica,sans-Serif" font-size="10.00" fill="#000000">Primitive2D</text>
</a>
</g>
</g>
<!-- Node2 -->
<g id="node2" class="node">
<title>Node2</title>
<g id="a_node2"><a xlink:href="classCDPL_1_1Vis_1_1PointArray2D.html" target="_top" xlink:title="Stores a set of points in 2D space.">
<polygon fill="none" stroke="#000000" points="0,-67.5 0,-86.5 128,-86.5 128,-67.5 0,-67.5"/>
<text text-anchor="middle" x="64" y="-74.5" font-family="Helvetica,sans-Serif" font-size="10.00" fill="#000000">CDPL.Vis.PointArray2D</text>
</a>
</g>
</g>
<!-- Node2&#45;&gt;Node1 -->
<g id="edge1" class="edge">
<title>Node2&#45;&gt;Node1</title>
<path fill="none" stroke="#191970" d="M84.9175,-61.3119C97.5231,-51.8577 113.4921,-39.8809 125.9405,-30.5446"/>
<polygon fill="#191970" stroke="#191970" points="82.7125,-58.5906 76.8125,-67.3906 86.9125,-64.1906 82.7125,-58.5906"/>
</g>
<!-- Node3 -->
<g id="node3" class="node">
<title>Node3</title>
<g id="a_node3"><a xlink:href="classCDPL_1_1Math_1_1Vector2DArray.html" target="_top" xlink:title="An array of Math.Vector2D objects.">
<polygon fill="none" stroke="#000000" points="24.5,-123.5 24.5,-142.5 167.5,-142.5 167.5,-123.5 24.5,-123.5"/>
<text text-anchor="middle" x="96" y="-130.5" font-family="Helvetica,sans-Serif" font-size="10.00" fill="#000000">CDPL.Math.Vector2DArray</text>
</a>
</g>
</g>
<!-- Node3&#45;&gt;Node2 -->
<g id="edge2" class="edge">
<title>Node3&#45;&gt;Node2</title>
<path fill="none" stroke="#191970" d="M85.3355,-114.3372C80.0346,-105.0605 73.8513,-94.2398 69.5101,-86.6427"/>
<polygon fill="#191970" stroke="#191970" points="82.4257,-116.2996 90.426,-123.2455 88.5034,-112.8266 82.4257,-116.2996"/>
</g>
<!-- Node4 -->
<g id="node4" class="node">
<title>Node4</title>
<g id="a_node4"><a xlink:title=" ">
<polygon fill="none" stroke="#bfbfbf" points="117,-179.5 117,-198.5 175,-198.5 175,-179.5 117,-179.5"/>
<text text-anchor="middle" x="146" y="-186.5" font-family="Helvetica,sans-Serif" font-size="10.00" fill="#000000">instance</text>
</a>
</g>
</g>
<!-- Node4&#45;&gt;Node3 -->
<g id="edge3" class="edge">
<title>Node4&#45;&gt;Node3</title>
<path fill="none" stroke="#191970" d="M130.3753,-171.5004C121.8727,-161.9775 111.6782,-150.5596 104.6095,-142.6427"/>
<polygon fill="#191970" stroke="#191970" points="128.0197,-174.1172 137.2907,-179.2455 133.2413,-169.4551 128.0197,-174.1172"/>
</g>
<!-- Node5 -->
<g id="node5" class="node">
<title>Node5</title>
<g id="a_node5"><a xlink:href="classCDPL_1_1Vis_1_1GraphicsPrimitive2D.html" target="_top" xlink:title="The abstract base class of all 2D graphics primitives.">
<polygon fill="none" stroke="#000000" points="146,-67.5 146,-86.5 310,-86.5 310,-67.5 146,-67.5"/>
<text text-anchor="middle" x="228" y="-74.5" font-family="Helvetica,sans-Serif" font-size="10.00" fill="#000000">CDPL.Vis.GraphicsPrimitive2D</text>
</a>
</g>
</g>
<!-- Node4&#45;&gt;Node5 -->
<g id="edge5" class="edge">
<title>Node4&#45;&gt;Node5</title>
<path fill="none" stroke="#191970" d="M159.024,-171.2111C176.6044,-147.1989 207.3039,-105.2679 221.0264,-86.5249"/>
<polygon fill="#191970" stroke="#191970" points="156.0747,-169.3147 152.9913,-179.4509 161.7227,-173.4499 156.0747,-169.3147"/>
</g>
<!-- Node5&#45;&gt;Node1 -->
<g id="edge4" class="edge">
<title>Node5&#45;&gt;Node1</title>
<path fill="none" stroke="#191970" d="M207.0825,-61.3119C194.4769,-51.8577 178.5079,-39.8809 166.0595,-30.5446"/>
<polygon fill="#191970" stroke="#191970" points="205.0875,-64.1906 215.1875,-67.3906 209.2875,-58.5906 205.0875,-64.1906"/>
</g>
</g>
</svg>
