<?xml version="1.0" encoding="UTF-8" standalone="no"?>
<!DOCTYPE svg PUBLIC "-//W3C//DTD SVG 1.1//EN"
 "http://www.w3.org/Graphics/SVG/1.1/DTD/svg11.dtd">
<!-- Generated by graphviz version 2.40.1 (0)
 -->
<!-- Title: CDPL.Base.ValueError Pages: 1 -->
<svg width="460pt" height="252pt"
 viewBox="0.00 0.00 460.00 252.00" xmlns="http://www.w3.org/2000/svg" xmlns:xlink="http://www.w3.org/1999/xlink">
<g id="graph0" class="graph" transform="scale(1 1) rotate(0) translate(4 248)">
<title>CDPL.Base.ValueError</title>
<!-- Node1 -->
<g id="node1" class="node">
<title>Node1</title>
<g id="a_node1"><a xlink:title="Thrown to indicate errors caused by some invalid value.">
<polygon fill="#bfbfbf" stroke="#000000" points="194,-112.5 194,-131.5 316,-131.5 316,-112.5 194,-112.5"/>
<text text-anchor="middle" x="255" y="-119.5" font-family="Helvetica,sans-Serif" font-size="10.00" fill="#000000">CDPL.Base.ValueError</text>
</a>
</g>
</g>
<!-- Node5 -->
<g id="node5" class="node">
<title>Node5</title>
<g id="a_node5"><a xlink:href="classCDPL_1_1Base_1_1NullPointerException.html" target="_top" xlink:title="Thrown when an operation requires or expects a valid reference but a None reference was provided.">
<polygon fill="none" stroke="#000000" points="0,-56.5 0,-75.5 174,-75.5 174,-56.5 0,-56.5"/>
<text text-anchor="middle" x="87" y="-63.5" font-family="Helvetica,sans-Serif" font-size="10.00" fill="#000000">CDPL.Base.NullPointerException</text>
</a>
</g>
</g>
<!-- Node1&#45;&gt;Node5 -->
<g id="edge4" class="edge">
<title>Node1&#45;&gt;Node5</title>
<path fill="none" stroke="#191970" d="M216.5714,-109.1905C185.7927,-98.9309 143.3074,-84.7691 115.5034,-75.5011"/>
<polygon fill="#191970" stroke="#191970" points="215.5261,-112.5313 226.1198,-112.3733 217.7398,-105.8905 215.5261,-112.5313"/>
</g>
<!-- Node6 -->
<g id="node6" class="node">
<title>Node6</title>
<g id="a_node6"><a xlink:href="classCDPL_1_1Base_1_1RangeError.html" target="_top" xlink:title="Thrown to indicate that a value is out of range.">
<polygon fill="none" stroke="#000000" points="192,-56.5 192,-75.5 318,-75.5 318,-56.5 192,-56.5"/>
<text text-anchor="middle" x="255" y="-63.5" font-family="Helvetica,sans-Serif" font-size="10.00" fill="#000000">CDPL.Base.RangeError</text>
</a>
</g>
</g>
<!-- Node1&#45;&gt;Node6 -->
<g id="edge5" class="edge">
<title>Node1&#45;&gt;Node6</title>
<path fill="none" stroke="#191970" d="M255,-102.1575C255,-93.155 255,-82.9199 255,-75.6427"/>
<polygon fill="#191970" stroke="#191970" points="251.5001,-102.2455 255,-112.2455 258.5001,-102.2456 251.5001,-102.2455"/>
</g>
<!-- Node8 -->
<g id="node8" class="node">
<title>Node8</title>
<g id="a_node8"><a xlink:href="classCDPL_1_1Base_1_1SizeError.html" target="_top" xlink:title="Thrown to indicate that the size of a (multidimensional) array is not correct.">
<polygon fill="none" stroke="#000000" points="336,-56.5 336,-75.5 452,-75.5 452,-56.5 336,-56.5"/>
<text text-anchor="middle" x="394" y="-63.5" font-family="Helvetica,sans-Serif" font-size="10.00" fill="#000000">CDPL.Base.SizeError</text>
</a>
</g>
</g>
<!-- Node1&#45;&gt;Node8 -->
<g id="edge7" class="edge">
<title>Node1&#45;&gt;Node8</title>
<path fill="none" stroke="#191970" d="M288.4621,-108.5189C313.7769,-98.3201 347.9103,-84.5685 370.4169,-75.5011"/>
<polygon fill="#191970" stroke="#191970" points="286.8626,-105.3899 278.895,-112.3733 289.4784,-111.8827 286.8626,-105.3899"/>
</g>
<!-- Node2 -->
<g id="node2" class="node">
<title>Node2</title>
<g id="a_node2"><a xlink:href="classCDPL_1_1Base_1_1Exception.html" target="_top" xlink:title="The root of the CDPL exception hierarchy.">
<polygon fill="none" stroke="#000000" points="129,-168.5 129,-187.5 249,-187.5 249,-168.5 129,-168.5"/>
<text text-anchor="middle" x="189" y="-175.5" font-family="Helvetica,sans-Serif" font-size="10.00" fill="#000000">CDPL.Base.Exception</text>
</a>
</g>
</g>
<!-- Node2&#45;&gt;Node1 -->
<g id="edge1" class="edge">
<title>Node2&#45;&gt;Node1</title>
<path fill="none" stroke="#191970" d="M208.2755,-161.645C219.7538,-151.9058 233.9277,-139.8795 243.6354,-131.6427"/>
<polygon fill="#191970" stroke="#191970" points="205.857,-159.1069 200.4963,-168.2455 210.3859,-164.4445 205.857,-159.1069"/>
</g>
<!-- Node3 -->
<g id="node3" class="node">
<title>Node3</title>
<g id="a_node3"><a xlink:title=" ">
<polygon fill="none" stroke="#bfbfbf" points="135.5,-224.5 135.5,-243.5 242.5,-243.5 242.5,-224.5 135.5,-224.5"/>
<text text-anchor="middle" x="189" y="-231.5" font-family="Helvetica,sans-Serif" font-size="10.00" fill="#000000">builtins::Exception</text>
</a>
</g>
</g>
<!-- Node3&#45;&gt;Node2 -->
<g id="edge2" class="edge">
<title>Node3&#45;&gt;Node2</title>
<path fill="none" stroke="#191970" d="M189,-214.1575C189,-205.155 189,-194.9199 189,-187.6427"/>
<polygon fill="#191970" stroke="#191970" points="185.5001,-214.2455 189,-224.2455 192.5001,-214.2456 185.5001,-214.2455"/>
</g>
<!-- Node4 -->
<g id="node4" class="node">
<title>Node4</title>
<g id="a_node4"><a xlink:title=" ">
<polygon fill="none" stroke="#bfbfbf" points="267.5,-168.5 267.5,-187.5 376.5,-187.5 376.5,-168.5 267.5,-168.5"/>
<text text-anchor="middle" x="322" y="-175.5" font-family="Helvetica,sans-Serif" font-size="10.00" fill="#000000">builtins::ValueError</text>
</a>
</g>
</g>
<!-- Node4&#45;&gt;Node1 -->
<g id="edge3" class="edge">
<title>Node4&#45;&gt;Node1</title>
<path fill="none" stroke="#191970" d="M302.4324,-161.645C290.7802,-151.9058 276.3916,-139.8795 266.5368,-131.6427"/>
<polygon fill="#191970" stroke="#191970" points="300.4121,-164.5179 310.3295,-168.2455 304.9012,-159.1469 300.4121,-164.5179"/>
</g>
<!-- Node7 -->
<g id="node7" class="node">
<title>Node7</title>
<g id="a_node7"><a xlink:href="classCDPL_1_1Base_1_1IndexError.html" target="_top" xlink:title="Thrown to indicate that an index is out of range.">
<polygon fill="none" stroke="#000000" points="194,-.5 194,-19.5 316,-19.5 316,-.5 194,-.5"/>
<text text-anchor="middle" x="255" y="-7.5" font-family="Helvetica,sans-Serif" font-size="10.00" fill="#000000">CDPL.Base.IndexError</text>
</a>
</g>
</g>
<!-- Node6&#45;&gt;Node7 -->
<g id="edge6" class="edge">
<title>Node6&#45;&gt;Node7</title>
<path fill="none" stroke="#191970" d="M255,-46.1575C255,-37.155 255,-26.9199 255,-19.6427"/>
<polygon fill="#191970" stroke="#191970" points="251.5001,-46.2455 255,-56.2455 258.5001,-46.2456 251.5001,-46.2455"/>
</g>
</g>
</svg>
